<svg xmlns="http://www.w3.org/2000/svg" width="583.911" height="385.928" viewBox="0 0 583.911 385.928">
  <g id="undraw_listening_1u79" transform="translate(125.48 7)">
    <path id="Контур_329" data-name="Контур 329" d="M262.937,442.228a179.414,179.414,0,0,1,124.9-18.9c60.633,12.891,136.838,7.838,151.6-91.612,25.209-169.845-80.432-214.674-80.432-214.674s-70.252-5.883-111.793-28.283C288.206,56.933,220.759,52.88,161.454,79.81,123.528,97.017,92.3,120.978,86.96,153.876c-14.92,92,9.583,142.7-36.255,172.73S44.041,439.1,79.182,436.24s114.548-34.171,145.491,2.1C235.664,451.21,249.569,449.628,262.937,442.228Z" transform="translate(-84.895 -68.982)" fill="#6c63ff" opacity="0.1"/>
    <path id="Контур_304" data-name="Контур 304" d="M1002.023,689.352l11.463-16.612-11.461,18.414v1.885q-1.233-.005-2.442-.07l.849-24.217-.013-.187.021-.036.081-2.288L988.4,648.186l12.124,16.341.038.484.641-18.3-10.43-18.692,10.5,15.477.343-37.919,0-.126,0,.124.349,29.892,9.854-12.022-9.853,14.6.016,16.373,9.125-15.87-9.121,18.277.009,9.1,13.259-22.1L1002,669.107Z" transform="translate(-602.078 -359.936)" fill="#d0cde1"/>
    <path id="Контур_305" data-name="Контур 305" d="M285.011,522.128l33.025-47.269-33.051,52.417-.029,5.385q-3.523-.036-6.975-.242l2.83-69.173-.034-.535.061-.1.269-6.536-34.319-51.781,34.365,46.886.1,1.384L283.39,400.3l-29.485-53.577,29.735,44.393,1.614-108.326.007-.361,0,.355.5,85.407,28.353-34.183-28.393,41.539-.229,46.778,26.335-45.188L285.465,429.2l-.127,26.011L323.586,392.3l-38.3,71.992Z" transform="translate(-229.284 -197.558)" fill="#575a89"/>
    <ellipse id="Эллипс_36" data-name="Эллипс 36" cx="220.811" cy="7.63" rx="220.811" ry="7.63" transform="translate(-27.647 324.674)" fill="#d0cde1"/>
    <path id="Контур_306" data-name="Контур 306" d="M822.2,738.191a19.1,19.1,0,0,0-1.655-7.926,18.985,18.985,0,0,0-5.622,6.38,18.984,18.984,0,0,0-5.622-6.38,19.1,19.1,0,0,0-1.655,7.926A19.126,19.126,0,0,0,800,735.836s.5,6.165,4.623,10.176c3.663,3.566,8.952,4.228,10.08,4.331l.032.021.009-.018c.114.01.177.013.177.013s-.01-.117-.037-.327l.037-.086.037.086c-.027.21-.037.327-.037.327s.062,0,.177-.013l.009.018.031-.021c1.128-.1,6.417-.765,10.08-4.331,4.12-4.011,4.623-10.176,4.623-10.176A19.125,19.125,0,0,0,822.2,738.191Z" transform="translate(-507.372 -422.676)" fill="#6c63ff"/>
    <path id="Контур_307" data-name="Контур 307" d="M826.771,140.241l.024,0-3.477-20.329-19.228,6.109,2.877,18.183a4.941,4.941,0,1,0,1.985,2.44l.018,0-3.088-19.513,16.17-5.137,2.749,16.07a4.93,4.93,0,1,0,1.97,2.185Z" transform="translate(-507.063 -115.862)" fill="#6c63ff"/>
    <path id="Контур_308" data-name="Контур 308" d="M1011.869,155.883l.024,0-3.477-20.329-19.228,6.109,2.877,18.183a4.941,4.941,0,1,0,1.985,2.44l.018,0-3.088-19.513,16.17-5.137,2.749,16.07a4.93,4.93,0,1,0,1.97,2.185Z" transform="translate(-600.108 -123.725)" fill="#6c63ff"/>
    <path id="Контур_309" data-name="Контур 309" d="M899.755,189.939l.014,0-2.477-15.656-1.223.194,2.148,13.573a3.831,3.831,0,1,0,1.539,1.892Z" transform="translate(-553.789 -143.194)" fill="#6c63ff"/>
    <path id="Контур_310" data-name="Контур 310" d="M941.782,162.806A3.824,3.824,0,1,0,940,166.032L937.85,179.6l1.223.194,2.477-15.656-.014,0A3.8,3.8,0,0,0,941.782,162.806Z" transform="translate(-574.798 -135.499)" fill="#6c63ff"/>
    <path id="Контур_311" data-name="Контур 311" d="M473.448,548.165l7.248,10.873,10.873-8.456-7.248-9.061Z" transform="translate(-265.639 -275.729)" fill="#ffb8b8"/>
    <path id="Контур_312" data-name="Контур 312" d="M638.778,661.175s-10.381.483-7.455,5.97,5.209,36.452,13.561,34.658,15.924-11.285,15.832-17.818-1.138-9.367-1.138-9.367-2.24-4.324-.749-5.518,2.054-8.742-1.5-11.037-13.815-5.333-13.815-5.333S642.478,662.127,638.778,661.175Z" transform="translate(-422.321 -383.7)" fill="#2f2e41"/>
    <path id="Контур_313" data-name="Контур 313" d="M498.941,605.9l-2.416,13.289,12.685,1.208V610.123Z" transform="translate(-277.24 -308.089)" fill="#ffb8b8"/>
    <path id="Контур_314" data-name="Контур 314" d="M565.869,344.977s-6.645,22.35-8.457,35.639c0,0-36.243,48.928-29.6,70.07s25.974,63.425,25.974,63.425,32.619-13.289,39.263-20.538l-24.162-34.431s3.624-4.228-1.812-6.645-.6-5.436-.6-5.436,10.269-34.431,20.538-38.055l35.639-7.249s-2.416-51.344-10.873-60.4C611.776,341.352,569.493,341.956,565.869,344.977Z" transform="translate(-370.141 -227.177)" fill="#2f2e41"/>
    <path id="Контур_315" data-name="Контур 315" d="M631.363,721.487s-6.04-8.457-9.061-3.02-27.786,24.162-21.746,30.2,18.121,7.249,23.558,3.624,7.249-6.04,7.249-6.04,2.416-4.228,4.228-3.624,8.457-3.02,8.457-7.249-3.02-14.5-3.02-14.5S632.571,725.111,631.363,721.487Z" transform="translate(-406.641 -415.828)" fill="#2f2e41"/>
    <path id="Контур_316" data-name="Контур 316" d="M645.238,452.4l8.457,73.09s-4.832,20.538-6.041,36.243,0,15.1,0,15.1,27.182,10.873,32.015,3.624,2.416-131.079,2.416-131.079l-14.5-13.289Z" transform="translate(-429.577 -274.801)" fill="#2f2e41"/>
    <path id="Контур_317" data-name="Контур 317" d="M613.089,122.646c6.271-14.8,22.234-17.591,22.234-17.591s15.37-4.1,28.206,15.427c11.964,18.2,27.393,35.255,7.826,42.52l-5.168-10.855-.62,12.492a79.659,79.659,0,0,1-8.614,1.307c-21.7,2.2-42.161,5.871-42.54-1.973C613.909,153.549,607.056,136.883,613.089,122.646Z" transform="translate(-412.175 -108.216)" fill="#2f2e41"/>
    <circle id="Эллипс_37" data-name="Эллипс 37" cx="17.517" cy="17.517" r="17.517" transform="translate(209.017 8.466)" fill="#ffb8b8"/>
    <path id="Контур_318" data-name="Контур 318" d="M654.569,185.269s-.3,17.819-2.114,22.048,32.317-3.322,32.317-3.322-12.081-8.457-13.893-19.934Z" transform="translate(-433.169 -148.11)" fill="#ffb8b8"/>
    <path id="Контур_319" data-name="Контур 319" d="M625.067,213.8l-3.3-2.426-23.279,1.218-4.832,53.156s-13.893,16.309,3.02,16.309,32.619-7.853,44.7-2.416,22.35-57.385,22.35-57.385l-18.059-10.883S637.752,221.044,625.067,213.8Z" transform="translate(-400.949 -161.838)" fill="#575a89"/>
    <path id="Контур_320" data-name="Контур 320" d="M620.532,302.485l33.827,7.249v7.853l-33.827,1.208S616.908,304.9,620.532,302.485Z" transform="translate(-416.348 -207.64)" fill="#ffb8b8"/>
    <path id="Контур_321" data-name="Контур 321" d="M600.336,216.839l-6.645-3.02s-7.853,1.812-8.457,8.457-12.081,49.532-3.02,51.344,21.142,1.812,21.142,1.812-7.853-10.873,1.812-16.913l-7.249-3.624s-7.249-16.309-2.416-24.766S600.336,216.839,600.336,216.839Z" transform="translate(-396.152 -163.069)" fill="#575a89"/>
    <path id="Контур_322" data-name="Контур 322" d="M465.946,16.813l16-8.38,22.093,3.428,4.57,20.188-11.378-.438-3.179-7.417v7.294l-5.25-.2-3.048-11.808-1.9,12.57-18.664-.381Z" transform="translate(-261.485 -7.758)" fill="#2f2e41"/>
    <ellipse id="Эллипс_38" data-name="Эллипс 38" cx="3.222" cy="5.638" rx="3.222" ry="5.638" transform="translate(240.931 18.638)" fill="#ffb8b8"/>
    <circle id="Эллипс_39" data-name="Эллипс 39" cx="2.199" cy="2.199" r="2.199" transform="translate(242.263 23.869)" fill="#fff"/>
    <ellipse id="Эллипс_40" data-name="Эллипс 40" cx="0.357" cy="1.072" rx="0.357" ry="1.072" transform="translate(245.048 24.665)" fill="#2f2e41"/>
    <path id="Контур_323" data-name="Контур 323" d="M703.8,171.905h0a.562.562,0,0,1-.562-.562l-.562-4.5h1.688v4.5A.563.563,0,0,1,703.8,171.905Z" transform="translate(-458.447 -139.455)" fill="#fff"/>
    <path id="Контур_324" data-name="Контур 324" d="M454.958,148.149l-5.7,24.717h13.309l-10.457-2.377Z" transform="translate(-253.478 -77.99)" opacity="0.1"/>
    <path id="Контур_325" data-name="Контур 325" d="M728.436,320.091l-.126-.114,3.122-3.464a2.7,2.7,0,0,0-.2-3.812l-7.339-6.615a2.7,2.7,0,0,0-3.812.2L702.953,325.29a2.7,2.7,0,0,0,.2,3.812l7.34,6.615a2.7,2.7,0,0,0,3.812-.2l11.784-13.075.126.114Z" transform="translate(-458.24 -209.101)" fill="#3f3d56"/>
    <circle id="Эллипс_41" data-name="Эллипс 41" cx="1.739" cy="1.739" r="1.739" transform="translate(262.698 104.102)" fill="#6c63ff"/>
    <path id="Контур_326" data-name="Контур 326" d="M711.353,322.487s20.591,4.984,15.847,12.09-23.475-5.882-23.475-5.882Z" transform="translate(-458.977 -217.694)" fill="#ffb8b8"/>
    <path id="Контур_327" data-name="Контур 327" d="M702.249,233.252h5.437s6.041,6.645,4.832,12.685-4.832,34.431-4.832,34.431-18.121,16.913-27.182,7.853-2.416-17.517-2.416-17.517,12.081,9.665,18.726-3.02Z" transform="translate(-444.908 -172.838)" fill="#575a89"/>
    <path id="Контур_328" data-name="Контур 328" d="M698.385,247.631l4.16-41.1s8.727-25.95.208-26.586-9.117,24.59-9.117,24.59L678.8,249.51S686.942,257.485,698.385,247.631Z" transform="translate(-446.447 -146.034)" fill="#ffb8b8"/>
    <text id="Place_for_your_audio" data-name="Place for 
your audio" transform="translate(-124.48 71.957)" fill="#2f2e41" font-size="50" font-family="Montserrat-Bold, Montserrat" font-weight="700"><tspan x="0" y="0">Place for </tspan><tspan x="0" y="61">your audio</tspan></text>
  </g>
</svg>
