<svg xmlns="http://www.w3.org/2000/svg" xmlns:xlink="http://www.w3.org/1999/xlink" viewBox="0 0 1620 713"><defs><style>.cls-1{fill:url(#linear-gradient);}.cls-2{fill:url(#New_Gradient_Swatch_1);}.cls-3{fill:url(#linear-gradient-2);}.cls-4{fill:#37364c;}.cls-5{fill:#6c63ff;}.cls-6{fill:#262633;}.cls-7{fill:#ffb8b8;}.cls-8{opacity:0.1;isolation:isolate;}.cls-9{fill:#a0616a;}.cls-10{fill:#ff6584;}.cls-11{fill:#f2f2f2;}.cls-12{fill:#2f2e41;}.cls-13{fill:url(#linear-gradient-3);}</style><linearGradient id="linear-gradient" y1="356.5" x2="1620" y2="356.5" gradientUnits="userSpaceOnUse"><stop offset="0" stop-color="#fff"/><stop offset="1" stop-color="#e6e6f2"/></linearGradient><linearGradient id="New_Gradient_Swatch_1" x1="601.84" y1="356.5" x2="1618.81" y2="356.5" gradientUnits="userSpaceOnUse"><stop offset="0" stop-color="#3a3a4d"/><stop offset="1" stop-color="#2a2a3b"/></linearGradient><linearGradient id="linear-gradient-2" x1="1306.65" y1="373.15" x2="1622.92" y2="689.42" gradientUnits="userSpaceOnUse"><stop offset="0" stop-color="#1dd3bd"/><stop offset="1" stop-color="#14baa7"/></linearGradient><linearGradient id="linear-gradient-3" x1="3484.63" y1="302.24" x2="3921.82" y2="739.43" gradientTransform="matrix(-1, 0, 0, 1, 5532.76, 0)" gradientUnits="userSpaceOnUse"><stop offset="0" stop-color="#ffb8b8"/><stop offset="1" stop-color="#e69191"/></linearGradient></defs><g id="Layer_2" data-name="Layer 2"><rect class="cls-1" width="1620" height="713"/><path class="cls-2" d="M1090,0c-39.24,23.41-54.4,48.49-61,67-13.1,36.74,1.57,64.15-21,108-10.85,21.09-22.49,30.77-26.72,34.05C966.47,220.54,956.13,220.56,940,229c0,0-22.54,11.8-44,41-33.85,46.06-2.13,83.13-25,133-24.79,54.07-73.11,33.71-112,96-34.72,55.62-26.48,118.51-24,134a207.4,207.4,0,0,0,31,80h854V0Z"/><path class="cls-3" d="M1620,312s-91,5-118,40c-30,39-21,15-58,53-22.41,23-96,28-114,94-7.17,26.3,10,55-1,86-17.71,49.9-69,33-69,87,0,19.09,12,41,12,41h348Z"/><path class="cls-4" d="M1475.3,649.72s-20,7.52-29.46,25-4.71,38.36-4.71,38.36,20-7.51,29.46-25S1475.3,649.72,1475.3,649.72Z"/><path class="cls-5" d="M1502.21,675.82s-6.56,20.36-23.6,30.61-38.1,6.51-38.1,6.51,6.56-20.36,23.6-30.61S1502.21,675.82,1502.21,675.82Z"/><path class="cls-4" d="M1334.23,713.67c27.86-76.23,36.42-165,34.55-260.53q0-1.45-.06-2.94-.51-22.38-1.69-45.2h58.26q-1.8,22-3.07,43.48c-.1,1.58-.19,3.15-.27,4.72-5.6,99.41-1.75,190.26,25,260.47Z"/><path class="cls-4" d="M1360.24,713.59s-10.29-8.79-36.44-12.54l.47-8c3.94-45.06-26.91-112.19-26.91-112.19a301.37,301.37,0,0,1,17.41,104.07c-4.09-6.93-11.92-14.37-26.85-18.81,0,0,19.55,16.34,25.3,33.52a748.87,748.87,0,0,0-76.6-5.2l6.45-15.38L1230.48,692s-5.73-38.18-17-39.54l8.72,37.4s-9.84-7.38-12.08-6.6l5.69,11a1164.5,1164.5,0,0,0-133.26,8.39l6.1-14.51L1076.06,701s-5.73-38.19-17-39.55l8.72,37.4s-9.85-7.38-12.09-6.6l6.65,12.88q-25.21,3.33-52.53,8Z"/><path class="cls-5" d="M1388.05,34c13.41,10.31,197.4,139,199.36,251.9,1.88,109.1-71.1,153.43-165.9,160.56-4.77.36-9.58.63-14.46.8-2.41.08-4.84.15-7.29.19-105.13,1.82-191.08-37.66-193.11-155S1388,34,1388.05,34Z"/><circle class="cls-6" cx="1271.92" cy="544.46" r="23.4"/><circle class="cls-6" cx="1297.27" cy="513.65" r="23.4"/><path class="cls-6" d="M1327,511.15a22.94,22.94,0,0,1,.79,3.75,23.4,23.4,0,1,1-46.43,5.84,23.4,23.4,0,0,0,45.64-9.59Z"/><circle class="cls-7" cx="1265.88" cy="553.63" r="19.11"/><path class="cls-7" d="M1280.7,562.2c-.78,8.58,6.24,17.16,6.24,17.16,3.9,2.34,12.08,13.26,12.08,13.26l-2.34-2c-4.28-3.12-12.47.78-12.47.78l-12.09,13.26-12.48,9.75h-11.31l2.34-9.75,5.46-7.41s4.68-7.41,4.68-8.19,5.07-3.12,5.07-3.12c1.17-5.07-6.63-16.77-6.63-16.77Z"/><path class="cls-7" d="M1265.1,585.6l-1.95,9.36L1253,611.34s-6.24,28.08-7.8,30.42-10.53,10.91-11.31,10.14.39-18.33.39-18.33,14-27.3,17.16-35.49,10.92-12.48,10.92-12.48Z"/><path class="cls-7" d="M1235.07,650c-1.56,11.3-29.64-28.08-29.64-28.08s-12.86-11.7-12.47-22.23,17.54,9,18.71,14.82,22.62,19.11,22.62,19.11l3.51,1.17Z"/><path class="cls-7" d="M1286.16,589.89c3.9-2.34,10.52.78,10.52.78,7-.39,21.84,48.75,23.4,55.38s34.71,55.76,34.71,55.76,31.59,3.9,31.59,8.58-37.83,0-37.83,0-41-48-42.51-57.33-17.15-30.41-17.15-30.41c-15.21-3.9-15.6-14.82-15.6-14.82S1282.26,592.23,1286.16,589.89Z"/><path class="cls-7" d="M1233.9,667.88s-18.33-5.46-25.74-9.36-23.78-21.44-24.56-22.22,0,5.85,0,5.85c-1.17,14-41.34,47.18-41.34,47.18l1.56,12.48c.39,3.12-5.46,2.73-10.14,1.56s-11.31-2.34-11.31-2.34a64.76,64.76,0,0,1-21,2.34c-10.92-.78-6.24-4.68-6.24-4.68,9,3.51,26.9-14.82,26.9-14.82s50.7-64,55-69.41,11.7-3.9,17.55-1.56,33.14,39,33.14,39Z"/><path class="cls-8" d="M1233.9,667.88s-18.33-5.46-25.74-9.36-23.78-21.44-24.56-22.22,0,5.85,0,5.85c-1.17,14-41.34,47.18-41.34,47.18l1.56,12.48c.39,3.12-5.46,2.73-10.14,1.56s-11.31-2.34-11.31-2.34a64.76,64.76,0,0,1-21,2.34c-10.92-.78-6.24-4.68-6.24-4.68,9,3.51,26.9-14.82,26.9-14.82s50.7-64,55-69.41,11.7-3.9,17.55-1.56,33.14,39,33.14,39Z"/><path class="cls-7" d="M1236.24,701.81s-25.74-6.24-36.66-17.55-28.46-21.06-28.46-21.06c-7.8,15.21-59.28,29.25-63.57,30s-6.62,7.41-7.4,12.48-12.48,1.17-16-2-24.18-5.07-24.18-5.07c-16.77-6.63-1.17-7.8-1.17-7.8s24.18-7.41,38.22-10.53,55.76-35.48,64.34-42.5,25.35-.78,30,2.34S1232,657,1232,657Z"/><path class="cls-6" d="M1263.15,646.83l12.87,6.62s6.24,6.24,7.41,9-4.68,22.62-7,33.93-9.36,9.75-14.82,7.8-23.79,2.34-27.69-.39-2.34-11.31-9.36-30,.39-28.07,1.79-26.39,18.49-2.85,18.49-2.85Z"/><path class="cls-6" d="M1304.48,598.47l-.46-1.08a16.79,16.79,0,0,0-5.78-7.11h0l-1.3-.65a14.59,14.59,0,0,0-14.59.78c-4.18,2.79-7.48,7.18-9.84,10.4-4.29,5.85-14.43,10.92-20.67,8.58s9.36-16,9.75-17.94,4.48-5.65,4.48-5.65l-3.12-.39L1245.59,611c-10.16,5.49-6.23,19.47-1.94,23s-1.39,11.13-1.39,11.13S1269.39,650,1276,657s7,3.12,7,3.12c0-9.74,11.7-30.8,11.7-30.8l-5.85-7.41s-7.8-2.73-11.7-7.41.78-12.87,5.85-19.89a9.6,9.6,0,0,1,11.85-3.4c.41.16.83.3,1.25.42,5,1.42,7.76,9,7.76,9Z"/><circle class="cls-6" cx="1278.16" cy="548.36" r="17.16"/><ellipse class="cls-6" cx="1263.73" cy="541.93" rx="15.21" ry="11.89"/><ellipse class="cls-9" cx="1269.39" cy="560.64" rx="2.53" ry="4.48"/><path class="cls-10" d="M1271.59,519.11h-4.79a2.09,2.09,0,0,0-2.09,2.09v31.06h9V521.2A2.1,2.1,0,0,0,1271.59,519.11Z"/><circle class="cls-5" cx="1269.19" cy="558.5" r="9.75"/><circle class="cls-11" cx="1269.19" cy="558.5" r="4.29"/><circle class="cls-10" cx="1269.19" cy="558.5" r="1.17"/><path class="cls-8" d="M1271.59,519.11h-4.79a2.09,2.09,0,0,0-2.09,2.09v1.42h9V521.2A2.1,2.1,0,0,0,1271.59,519.11Z"/><path class="cls-6" d="M1169.29,598.37a4.28,4.28,0,0,0,.44,6l22.16,19.14a4.28,4.28,0,0,0,5.83-.21l21.45-21.45a4.27,4.27,0,0,0,0-6.06l-20.65-20.65a4.27,4.27,0,0,0-6.06,0l-23,23Z"/><polygon class="cls-11" points="1193.35 617.58 1212.65 598.28 1196.08 581.7 1175.99 601.78 1193.35 617.58"/><circle class="cls-5" cx="1194.71" cy="599.45" r="9.6"/><path class="cls-8" d="M1191.51,608.49a9.81,9.81,0,0,1-2.3-1.18,9.6,9.6,0,1,1,11-15.73,9.6,9.6,0,0,0-9.78,16A9,9,0,0,0,1191.51,608.49Z"/><path class="cls-11" d="M1194.74,600.45c-1.75,1.86-2.78,2.75-1.64,3.82s4,1.93,5.79.07,1.68-5.73.54-6.8S1196.49,598.59,1194.74,600.45Z"/><circle class="cls-12" cx="1189.69" cy="599.6" r="2.84"/><circle class="cls-12" cx="1194.8" cy="594.16" r="2.84"/><circle class="cls-11" cx="1189.69" cy="599.6" r="0.71"/><circle class="cls-11" cx="1189.38" cy="597.85" r="0.36"/><circle class="cls-11" cx="1194.49" cy="592.41" r="0.36"/><circle class="cls-11" cx="1194.8" cy="594.16" r="0.71"/><path class="cls-4" d="M1368.78,453.14c5.36-.05,45,.24,53.17.06.08-1.57.17-3.14.27-4.72L1413.28,405l-14.41-70.12.05-.89-.11-.17-.56-10.87,56.14-86.84-56.31,78.69-.14,2.3-4.55-87,48.06-89.73-48.65,74.45-4.73-180.26,0-.61v.6l.79,142.16L1341,120.4l48,68.6,1.27,77.85-44.69-74.72,44.88,86.18.7,43.28-64.86-104,65.1,119.11L1376.74,405l-6.66,31-1.36,14.21Z"/></g><g id="Layer_4" data-name="Layer 4"><path class="cls-13" d="M1620,312s56.38-7,104,0c34,5,49.85,4.57,68.76,25,23.19,25.05,5.39,49.69,27,89,13,23.72,31,35.72,63,57,59.44,39.6,81.57,28.47,99,56,23.58,37.26-10.66,67.56,16,101,17.66,22.16,47.28,27.15,56,59,.88,3.2,2,14,2,14h-436Z"/></g></svg>