<svg xmlns="http://www.w3.org/2000/svg" xmlns:xlink="http://www.w3.org/1999/xlink" viewBox="0 0 1620 713"><defs><style>.cls-1{fill:url(#linear-gradient);}.cls-2{fill:url(#New_Gradient_Swatch_1);}.cls-3{fill:url(#linear-gradient-2);}.cls-4{fill:url(#linear-gradient-3);}.cls-5{fill:#535461;}.cls-6{fill:#d6d6e3;}.cls-7{fill:#a8a8a8;}.cls-8{fill:#6c63ff;}.cls-27,.cls-9{opacity:0.1;}.cls-10{fill:#fff;}.cls-11{fill:#575988;}.cls-12{fill:#fa595f;}.cls-13{fill:#ffd037;}.cls-14{fill:url(#linear-gradient-4);}.cls-15{fill:url(#linear-gradient-5);}.cls-16,.cls-24,.cls-28{opacity:0.05;}.cls-17{fill:url(#linear-gradient-7);}.cls-18{fill:url(#linear-gradient-8);}.cls-19{fill:url(#linear-gradient-9);}.cls-20{fill:url(#linear-gradient-10);}.cls-21{fill:url(#linear-gradient-11);}.cls-22{fill:url(#linear-gradient-12);}.cls-23{fill:url(#linear-gradient-13);}.cls-24,.cls-26,.cls-27,.cls-28{isolation:isolate;}.cls-24{fill:url(#linear-gradient-14);}.cls-25{fill:#f7c4a7;}.cls-26{opacity:0.08;}.cls-29{fill:#6a5c99;}.cls-30{fill:#632652;}</style><linearGradient id="linear-gradient" x1="9.52" y1="356.5" x2="1619.71" y2="356.5" gradientUnits="userSpaceOnUse"><stop offset="0" stop-color="#fff"/><stop offset="1" stop-color="#e6e6f2"/></linearGradient><linearGradient id="New_Gradient_Swatch_1" x1="13390.61" y1="356.5" x2="12244.85" y2="356.5" gradientTransform="matrix(-1, 0, 0, 1, 13864, 0)" gradientUnits="userSpaceOnUse"><stop offset="0" stop-color="#3a3a4d"/><stop offset="1" stop-color="#2a2a3b"/></linearGradient><linearGradient id="linear-gradient-2" x1="1087.94" y1="238.18" x2="1579.86" y2="730.1" gradientUnits="userSpaceOnUse"><stop offset="0" stop-color="#f95"/><stop offset="1" stop-color="#d97d41"/></linearGradient><linearGradient id="linear-gradient-3" x1="12572.17" y1="22.71" x2="12572.17" y2="538.17" gradientTransform="translate(13908.49 681.17) rotate(180)" gradientUnits="userSpaceOnUse"><stop offset="0" stop-color="gray" stop-opacity="0.25"/><stop offset="0.54" stop-color="gray" stop-opacity="0.12"/><stop offset="1" stop-color="gray" stop-opacity="0.1"/></linearGradient><linearGradient id="linear-gradient-4" x1="12486.42" y1="256.08" x2="12486.42" y2="269.02" xlink:href="#linear-gradient-3"/><linearGradient id="linear-gradient-5" x1="12449.69" y1="253.51" x2="12449.69" y2="335.82" xlink:href="#linear-gradient-3"/><linearGradient id="linear-gradient-7" x1="12437.36" y1="174.91" x2="12437.36" y2="208.38" xlink:href="#linear-gradient-3"/><linearGradient id="linear-gradient-8" x1="12448.9" y1="239.21" x2="12448.9" y2="328.62" xlink:href="#linear-gradient-3"/><linearGradient id="linear-gradient-9" x1="12445.18" y1="366.59" x2="12445.18" y2="397.29" xlink:href="#linear-gradient-3"/><linearGradient id="linear-gradient-10" x1="12407.56" y1="400.93" x2="12407.56" y2="462.97" gradientTransform="translate(13864 713) rotate(180)" xlink:href="#linear-gradient-3"/><linearGradient id="linear-gradient-11" x1="12451.22" y1="376.6" x2="12451.22" y2="446.28" xlink:href="#linear-gradient-3"/><linearGradient id="linear-gradient-12" x1="12442.68" y1="176.32" x2="12442.68" y2="362.26" xlink:href="#linear-gradient-3"/><linearGradient id="linear-gradient-13" x1="12490.27" y1="237.14" x2="12490.27" y2="249.24" xlink:href="#linear-gradient-3"/><linearGradient id="linear-gradient-14" x1="12417.6" y1="242.42" x2="12417.6" y2="252.3" xlink:href="#linear-gradient-3"/></defs><g id="Layer_3" data-name="Layer 3"><rect class="cls-1" width="1620" height="713"/><path class="cls-2" d="M954.42,0S915.87,40,928.2,93c16.27,70-11.16,102.23-18.09,110-53.45,59.93-76,25-112.14,88-25.33,44.13.45,96.68-22.6,142-20.28,39.86-46.52,38.3-57,77-8.8,32.58,9.06,64.66,15.38,76,14.83,26.63,40.7,51.29,48.23,75,8.7,27.42-2.11,52-2.11,52H1620V0Z"/><path class="cls-3" d="M1620,447c-9.42-2.7-22.54-7.93-34-19-21.67-20.93-16.88-42.94-34-76-7.9-15.25-21.83-42.17-48-54-37.4-16.91-59.4,15.25-102,1-35.07-11.73-29.39-36.6-66-49-45.23-15.32-93.68,9.17-101,13-27.66,14.46-28.29,26.8-58,37-26.39,9.06-35.55,2.65-53,14-18.09,11.76-30,32.83-33,53-4.35,29.59,13.88,35.33,17,74,3.19,39.51-14.94,44.68-8,74,8.44,35.67,36.51,33.33,43,68,5.66,30.23-13.1,45.89,0,70,8.51,15.67,24.07,23.11,26,24,19.07,8.82,30.79.43,49,8,8.3,3.45,19.22,10.75,29,28h373Z"/><path class="cls-4" d="M1193.31,593l99.89,57.71,12.4,7.73,5.93-4,141-47.43v-.41l3.63-.7V607l7.22-1.39,1.45-105.69,23.83-23.1V448.15L1449,418.06l-65.71-130.18,14.44-73.49,23.83-8.4-1.44-51.09h-12.27l-148-11.84V143h-.72v.05l-27.53,2L1184,147.9Zm103.62-149.55h0l38.64,32.74h0Zm162.18,57.1V500l10.45-10.15Z"/><polygon class="cls-5" points="1450.56 502.09 1309.85 537.61 1330.75 513.93 1342.59 499.3 1465.88 474.92 1471.46 479.8 1450.56 502.09"/><polygon class="cls-6" points="1471.46 479.8 1332.84 511.84 1332.14 478.4 1371.85 463.08 1451.26 449.84 1474.24 449.84 1471.46 479.8"/><polygon class="cls-6" points="1371.15 290.32 1229.74 299.38 1229.74 272.91 1239.49 213.7 1244.37 209.52 1385.78 213.7 1371.15 290.32"/><polygon class="cls-6" points="1404.59 157.27 1411.55 157.27 1412.94 208.12 1389.96 216.48 1376.02 289.63 1439.41 419.19 1477.73 449.14 1477.73 477.7 1454.74 500.69 1453.35 605.88 1446.38 607.27 1447.77 502.78 1470.76 478.4 1471.46 449.14 1434.54 419.89 1369.76 290.32 1383.69 216.48 1406.67 206.73 1404.59 157.27 1404.59 157.27"/><polygon class="cls-5" points="1410.16 157.27 1417.12 157.27 1418.52 208.12 1395.53 216.48 1381.6 289.63 1444.99 419.19 1483.3 449.14 1483.3 477.7 1460.31 500.69 1458.92 605.88 1451.95 607.27 1453.35 502.78 1476.33 478.4 1477.03 449.14 1438.72 419.89 1375.33 290.32 1389.26 216.48 1412.25 206.73 1410.16 157.27 1410.16 157.27"/><polygon class="cls-7" points="1410.51 202.9 1407.02 207.78 1387.52 216.83 1232.88 212.65 1247.85 208.12 1263.87 201.16 1261.78 195.59 1410.51 202.9"/><polygon class="cls-8" points="1436.63 421.98 1295.22 444.96 1266.66 384.36 1227.65 297.29 1371.15 290.32 1436.63 421.98"/><g class="cls-9"><polygon class="cls-10" points="1363.49 315.4 1268.05 323.06 1317.51 420.58 1410.16 406.65 1363.49 315.4"/></g><g class="cls-9"><polygon class="cls-10" points="1356.9 322.48 1352.69 322.82 1354.87 327.12 1358.96 326.51 1356.9 322.48"/></g><g class="cls-9"><polygon class="cls-10" points="1356.21 362.89 1351.99 363.23 1354.17 367.52 1358.26 366.91 1356.21 362.89"/></g><g class="cls-9"><polygon class="cls-10" points="1333.22 327.36 1329.01 327.7 1331.18 332 1335.27 331.39 1333.22 327.36"/></g><g class="cls-9"><polygon class="cls-10" points="1289.33 329.45 1285.12 329.79 1287.3 334.09 1291.39 333.48 1289.33 329.45"/></g><g class="cls-9"><polygon class="cls-10" points="1348.54 335.02 1344.33 335.36 1346.51 339.66 1350.6 339.05 1348.54 335.02"/></g><g class="cls-9"><polygon class="cls-10" points="1333.22 377.51 1329.01 377.86 1331.18 382.15 1335.27 381.54 1333.22 377.51"/></g><g class="cls-9"><polygon class="cls-10" points="1370.84 353.13 1366.62 353.48 1368.8 357.77 1372.89 357.16 1370.84 353.13"/></g><g class="cls-9"><polygon class="cls-10" points="1306.75 327.36 1302.53 327.7 1304.71 332 1308.8 331.39 1306.75 327.36"/></g><g class="cls-9"><polygon class="cls-10" points="1340.18 351.04 1335.97 351.38 1338.15 355.68 1342.24 355.07 1340.18 351.04"/></g><g class="cls-9"><polygon class="cls-10" points="1345.06 324.57 1340.85 324.92 1343.03 329.21 1347.12 328.6 1345.06 324.57"/></g><g class="cls-9"><polygon class="cls-10" points="1323.47 348.95 1319.25 349.3 1321.43 353.59 1325.52 352.98 1323.47 348.95"/></g><g class="cls-9"><polygon class="cls-10" points="1318.59 327.36 1314.38 327.7 1316.56 332 1320.64 331.39 1318.59 327.36"/></g><g class="cls-9"><polygon class="cls-10" points="1362.48 337.11 1358.26 337.45 1360.44 341.75 1364.53 341.14 1362.48 337.11"/></g><polygon class="cls-6" points="1474.24 449.84 1336.32 477.7 1298.33 444.46 1436.28 420.93 1474.24 449.84"/><polygon class="cls-5" points="1448.47 498.6 1448.47 607.27 1311.94 654.64 1309.85 541.79 1315.42 531.29 1340.5 525.07 1448.47 498.6"/><ellipse class="cls-11" cx="1430.71" cy="431.03" rx="5.92" ry="3.48"/><ellipse class="cls-12" cx="1425.83" cy="438.7" rx="5.92" ry="3.48"/><ellipse class="cls-13" cx="1442.55" cy="436.61" rx="5.92" ry="3.48"/><ellipse class="cls-11" cx="1367.32" cy="443.57" rx="5.92" ry="3.48"/><ellipse class="cls-13" cx="1379.16" cy="449.84" rx="5.92" ry="3.48"/><ellipse class="cls-7" cx="1401.45" cy="439.39" rx="8.71" ry="4.18"/><ellipse class="cls-12" cx="1361.05" cy="451.23" rx="5.92" ry="3.48"/><path class="cls-7" d="M1399,438.7h4.18l3.6-13.87A4,4,0,0,0,1404,420a4.07,4.07,0,0,0-1-.12h0a4,4,0,0,0-4,3.95Z"/><ellipse class="cls-7" cx="1338.76" cy="450.54" rx="8.71" ry="4.18"/><path class="cls-7" d="M1336.32,449.85h4.18l3.59-13.88a3.94,3.94,0,0,0-2.83-4.81,4.2,4.2,0,0,0-1-.13h0a4,4,0,0,0-4,4Z"/><polygon class="cls-5" points="1405.28 157.27 1261.78 145.43 1265.27 197.68 1408.76 204.64 1405.28 157.27"/><polygon class="cls-6" points="1262.48 145.43 1196.3 150.31 1205.36 593.34 1306.71 658.47 1313.68 653.59 1314.03 537.61 1336.32 512.53 1336.32 477.7 1297.31 443.57 1231.13 296.59 1240.54 212.65 1235.66 212.65 1266.66 201.85 1262.48 145.43"/><polygon class="cls-5" points="1256.21 146.13 1189.34 150.31 1198.39 593.34 1307.06 658.12 1307.06 537.61 1329.35 512.53 1329.35 477.7 1290.34 443.57 1224.17 296.59 1236.01 212.3 1259.69 201.85 1256.21 146.13"/><g class="cls-9"><path class="cls-14" d="M1414.85,413.41l7.66,11.68c3.78-.86,6.78-1.45,6.78-1.45l-8.24-11.49Z"/></g><path class="cls-15" d="M1500.52,371.66s-35.92,56.13-74.39,56l-10.45-16s35.21-25.15,39.89-38.26c1.73-4.87,5.29-11.55,9.1-18.11,11.68-20.08,43.18-7,36.26,15.1C1500.8,370.81,1500.66,371.24,1500.52,371.66Z"/><g class="cls-16"><path class="cls-15" d="M1500.52,371.66s-35.92,56.13-74.39,56l-10.45-16s35.21-25.15,39.89-38.26c1.73-4.87,5.29-11.55,9.1-18.11,11.68-20.08,43.18-7,36.26,15.1C1500.8,370.81,1500.66,371.24,1500.52,371.66Z"/></g><g class="cls-9"><path class="cls-17" d="M1429,495.29c8.07,1.56,22.34,4.22,37,6.53,7.66,1.21,15.41,2.33,22.42,3.14,10.78,1.24,19.8,1.76,24,.79l1-14.63-41.44-18.33-3,14.58H1429S1429,490.4,1429,495.29Z"/></g><g class="cls-9"><path class="cls-18" d="M1437.14,442c29.56-18,44.84-68.31,44.84-68.31a11.21,11.21,0,0,1,0-1.3c.66-23.08-33.32-27.52-39.08-5.12-1.88,7.29-3.49,14.69-3.82,19.8a21.28,21.28,0,0,1-1.29,5.5,252,252,0,0,0,.29,28.56A93.48,93.48,0,0,1,1437.14,442Z"/></g><g class="cls-9"><path class="cls-19" d="M1480.78,297.27c-4.81,8-8.61,16-18.37,17.31a88.21,88.21,0,0,0-16.57-16.13l31.35-14.57S1475.35,288.85,1480.78,297.27Z"/></g><ellipse class="cls-20" cx="1456.44" cy="281.05" rx="31.81" ry="31.02"/><g class="cls-9"><path class="cls-21" d="M1425,290.78a6.46,6.46,0,0,1-3.73-1c-1.53-1.1-2-3.09-2.36-4.92-.83-4.31-1.48-8.85,0-13,.95-2.75,2.78-5.12,4.06-7.73,2.86-5.69,3.37-12.53,7.44-17.47,2.55-3.1,11.48,0,15.22-1.56,8-3.38,11.51-10.22,20.25-10.21a32.06,32.06,0,0,1,9.49,1.19,33.69,33.69,0,0,1,10.57,6c5.57,4.33,11,10.28,10.54,17.23-.32,4.44-3,8.36-4.63,12.5-2.67,7-2.18,14.8-.25,22,.82,3.07,1.76,6.74-.42,9.09a6.3,6.3,0,0,1-5.57,1.57,18.75,18.75,0,0,1-5.58-2.23,38.15,38.15,0,0,1-8.84-5.8c-1.68-1.62-3-3.53-4.63-5.22a50.86,50.86,0,0,0-10.52-8.36c-3.08-1.85-6.27-.7-9.51.51C1439.41,286,1432.83,290.92,1425,290.78Z"/></g><g class="cls-16"><path class="cls-22" d="M1437.14,442a93.21,93.21,0,0,0,1-20.84,252,252,0,0,1-.29-28.56c.43-11.14,1.31-22.17,2.15-30.93a51.31,51.31,0,0,1,17.65-34.09c2.23-1.91,4.23-3.33,5.57-3.68a17.9,17.9,0,0,0,5.77-3.4c6.84-5.46-1.86,5.17-4.09,7.08a51.31,51.31,0,0,0-17.65,34.09c-.83,8.76-1.72,19.79-2.15,30.93a254.32,254.32,0,0,0,.29,28.56,93.21,93.21,0,0,1-1,20.84c-3.74,25.37-14.91,50.6-14.91,50.6s54.52,11,79.89,12.19c-19.88,1.39-87.11-12.19-87.11-12.19S1433.4,467.32,1437.14,442Z"/></g><g class="cls-9"><path class="cls-23" d="M1409.87,434.76l10.56,9.27c3.4-1.8,6.13-3.17,6.13-3.17l-11.08-8.93Z"/></g><path class="cls-24" d="M1518.36,434.05s-12.54-9.87-24.1-2.35-28.42,6.58-30.83,7.05"/><path class="cls-25" d="M1377.47,413.49c9.3,19.7,32.12,14.63,32.12,14.63,1.19-1.12,8.57-3,14.16-4.29,3.6-.84,6.46-1.39,6.46-1.39l-7.85-11.21-5.88,1.24-8.77,1.85S1368.17,393.79,1377.47,413.49Z"/><path class="cls-26" d="M1377.47,413.49c9.3,19.7,32.12,14.63,32.12,14.63,1.19-1.12,8.57-3,14.16-4.29,3.6-.84,6.46-1.39,6.46-1.39l-7.85-11.21-5.88,1.24-8.77,1.85S1368.17,393.79,1377.47,413.49Z"/><path class="cls-27" d="M1416.48,412.4l7.27,11.4c3.6-.84,6.46-1.4,6.46-1.4l-7.85-11.21Z"/><path class="cls-11" d="M1498,371.66s-34.18,54.78-70.78,54.64l-10-15.6s33.5-24.53,38-37.33c1.64-4.72,5-11.27,8.65-17.65,11.15-19.59,41.1-6.79,34.52,14.74Q1498.2,371,1498,371.66Z"/><path class="cls-28" d="M1498,371.66s-34.18,54.78-70.78,54.64l-10-15.6s33.5-24.53,38-37.33c1.64-4.72,5-11.27,8.65-17.65,11.15-19.59,41.1-6.79,34.52,14.74Q1498.2,371,1498,371.66Z"/><path class="cls-5" d="M1520.26,690l-1.6,19s-52.51-8.94-52.05-26.83S1520.26,690,1520.26,690Z"/><path class="cls-27" d="M1520.26,690l-1.6,19s-52.51-8.94-52.05-26.83S1520.26,690,1520.26,690Z"/><path class="cls-5" d="M1458.81,696l.92,16.52s-72.92-5.5-70.17-21.09,41.27-6.89,41.27-6.89Z"/><path class="cls-29" d="M1457.89,534.57s4.32,12.22,9.82,26.25c5.27,13.42,11.62,28.5,16.33,36.12,9.6,15.6,11,63.75,11,63.75,1.83,7.79-7.34,22.93-7.34,22.93,18.35,19.72,35.32,8.25,35.32,8.25-3.22-6,2.29-22.93,2.29-22.93s-7.34-78.42-11.93-82.09-8.25-22-8.25-22l4.11-62.34.94-14.24-39.44-17.89-2.87,14.22-2.78,14.08Z"/><path class="cls-27" d="M1457.89,534.57s4.32,12.22,9.82,26.25c5.27,13.42,11.62,28.5,16.33,36.12,9.6,15.6,11,63.75,11,63.75,1.83,7.79-7.34,22.93-7.34,22.93,18.35,19.72,35.32,8.25,35.32,8.25-3.22-6,2.29-22.93,2.29-22.93s-7.34-78.42-11.93-82.09-8.25-22-8.25-22l4.11-62.34.94-14.24-39.44-17.89-2.87,14.22-2.78,14.08Z"/><path class="cls-29" d="M1423.5,686.37c8.25,14.68,37.15,12.84,37.15,12.84V656.09s8.25-48.15,3.67-59.16,1.83-31.18,1.83-31.18l1.56-4.93,18.7-59.1,5.42-17.14h-61.91v7.71c-.08,18.34-.45,63.83-2.28,74.38-2.29,13.3,4.13,22,4.13,22s-3.67,54.11-.46,71S1423.5,686.37,1423.5,686.37Z"/><path class="cls-25" d="M1474.4,283.27s9.64,26.59,28.9,36.22-31.65,12.38-31.65,12.38-8.25-20.2-27.05-34.39Z"/><path class="cls-27" d="M1429.9,492.3c7.68,1.49,21.24,4.11,35.18,6.37,7.28,1.18,14.66,2.27,21.33,3.05,10.26,1.22,18.85,1.73,22.83.78l.94-14.25-39.44-17.89-2.88,14.23h-38S1429.92,487.52,1429.9,492.3Z"/><path class="cls-11" d="M1423.5,489.61s77.5,16,87.13,11,11.92-17.89,9.17-32.1,0-49.53,5-94.47c2.55-22.64-3-37.82-9.24-47.33a29.27,29.27,0,0,0-24.52-13.24,36.48,36.48,0,0,0-23.11,8.15,17.24,17.24,0,0,1-5.49,3.32c-1.26.34-3.16,1.72-5.28,3.59a50.5,50.5,0,0,0-16.8,33.26c-.8,8.54-1.63,19.3-2,30.18a249.16,249.16,0,0,0,.27,27.87,94,94,0,0,1-.94,20.32C1434.13,465,1423.5,489.61,1423.5,489.61Z"/><path class="cls-27" d="M1437.69,440.26c28.13-17.55,42.68-66.65,42.68-66.65a10.45,10.45,0,0,1,.05-1.26c.62-22.52-31.71-26.86-37.2-5-1.79,7.12-3.31,14.33-3.63,19.33a21.07,21.07,0,0,1-1.23,5.36,253.83,253.83,0,0,0,.27,27.86A93.2,93.2,0,0,1,1437.69,440.26Z"/><path class="cls-27" d="M1479.22,299.09c-4.57,7.75-8.19,15.56-17.49,16.88-.67-.88-1.36-1.74-2.07-2.59A85.18,85.18,0,0,0,1446,300.23L1475.78,286S1474.06,290.87,1479.22,299.09Z"/><circle class="cls-25" cx="1456.06" cy="283.27" r="30.27"/><path class="cls-27" d="M1426.14,292.75a6.14,6.14,0,0,1-3.56-1c-1.44-1.08-1.91-3-2.24-4.8-.79-4.18-1.39-8.64,0-12.69.91-2.69,2.63-5,3.87-7.54,2.73-5.57,3.21-12.23,7.08-17.05,2.43-3,10.92,0,14.48-1.53,7.67-3.29,11-10,19.27-9.95a30.14,30.14,0,0,1,9.06,1.15,32.09,32.09,0,0,1,10.06,5.84c5.32,4.23,10.5,10,10,16.82-.31,4.33-2.89,8.12-4.41,12.19-2.54,6.81-2.09,14.44-.24,21.47.78,3,1.68,6.58-.4,8.88a5.87,5.87,0,0,1-5.33,1.52,17.4,17.4,0,0,1-5.32-2.17,35.82,35.82,0,0,1-8.42-5.66c-1.59-1.58-2.88-3.44-4.4-5.09a49.11,49.11,0,0,0-10-8.16c-2.94-1.8-6-.69-9.06.5C1439.85,288.07,1433.59,292.89,1426.14,292.75Z"/><path class="cls-30" d="M1426.6,292.29a6.06,6.06,0,0,1-3.56-1c-1.44-1.08-1.91-3-2.24-4.8-.79-4.18-1.39-8.64,0-12.69.91-2.68,2.63-5,3.87-7.54,2.73-5.57,3.21-12.23,7.08-17.05,2.43-3,10.45.47,14-1.06,7.67-3.29,11.41-10.45,19.73-10.45a30.14,30.14,0,0,1,9.06,1.15,32.2,32.2,0,0,1,10.06,5.84c5.32,4.23,10.5,10,10,16.82-.31,4.33-2.89,8.12-4.41,12.19-2.55,6.81-2.09,14.44-.24,21.47.78,3,1.68,6.58-.4,8.88a5.9,5.9,0,0,1-5.33,1.52,17.4,17.4,0,0,1-5.32-2.17,36.13,36.13,0,0,1-8.42-5.66c-1.59-1.58-2.88-3.44-4.4-5.09a48.63,48.63,0,0,0-10.11-8.13c-2.94-1.8-6-.7-9,.5C1440.31,287.6,1434.05,292.43,1426.6,292.29Z"/><path class="cls-28" d="M1437.69,440.26a93.93,93.93,0,0,0,.92-20.31,251.42,251.42,0,0,1-.28-27.86c.42-10.88,1.25-21.64,2.05-30.19a50.5,50.5,0,0,1,16.8-33.26c2.12-1.87,4-3.24,5.28-3.59a17.06,17.06,0,0,0,5.49-3.32c6.51-5.32-1.77,5-3.9,6.91a50.49,50.49,0,0,0-16.79,33.26c-.8,8.54-1.64,19.31-2,30.19a253.88,253.88,0,0,0,.27,27.86,93.46,93.46,0,0,1-.94,20.33c-3.57,24.75-14.2,49.37-14.2,49.37s51.89,10.74,76,11.89c-18.92,1.4-82.89-11.89-82.89-11.89S1434.13,465,1437.69,440.26Z"/><path class="cls-25" d="M1374.43,444.69c14.22,16.51,34.83,5.51,34.83,5.51.83-1.4,7.45-5.18,12.54-7.92,3.24-1.76,5.83-3.09,5.83-3.09l-10.54-8.71-5.34,2.78-8,4.11S1360.21,428.18,1374.43,444.69Z"/><path class="cls-27" d="M1411.74,433.23l10,9.06c3.24-1.76,5.84-3.09,5.84-3.09l-10.55-8.72Z"/><path class="cls-11" d="M1479.45,372.23s-18.34,61.92-53.64,71.54l-13.76-12.38s25.78-32.58,26.63-46.1c.33-5,1.85-12.21,3.64-19.33,5.49-21.84,37.82-17.51,37.19,5C1479.49,371.38,1479.47,371.81,1479.45,372.23Z"/><path class="cls-28" d="M1515,432.54s-11.93-9.64-22.93-2.29-27.06,6.42-29.35,6.88"/></g></svg>