<svg xmlns="http://www.w3.org/2000/svg" width="554.827" height="376.223" viewBox="0 0 554.827 376.223">
  <g id="image" transform="translate(239.396)">
    <rect id="Прямоугольник_164" data-name="Прямоугольник 164" width="98.181" height="1.03" transform="translate(170.741 186.426)" fill="#3f3d56"/>
    <circle id="Эллипс_65" data-name="Эллипс 65" cx="5.964" cy="5.964" r="5.964" transform="translate(253.323 180.977)" fill="#6c63ff"/>
    <path id="Контур_355" data-name="Контур 355" d="M915.9,213.009a135.551,135.551,0,0,1,5.935,53.381,135.551,135.551,0,0,1-27.192-46.318,135.552,135.552,0,0,1-5.935-53.381A135.552,135.552,0,0,1,915.9,213.009Z" transform="translate(-702.006 -124.507)" fill="#6c63ff"/>
    <path id="Контур_356" data-name="Контур 356" d="M958.96,213.009a135.552,135.552,0,0,0-5.935,53.381,135.551,135.551,0,0,0,27.192-46.318,135.553,135.553,0,0,0,5.935-53.381A135.551,135.551,0,0,0,958.96,213.009Z" transform="translate(-733.194 -124.507)" fill="#6c63ff"/>
    <path id="Контур_357" data-name="Контур 357" d="M951.108,207.974a135.547,135.547,0,0,1-10.087,52.754,135.544,135.544,0,0,1-12.308-52.281A135.557,135.557,0,0,1,938.8,155.693,135.547,135.547,0,0,1,951.108,207.974Z" transform="translate(-721.657 -119.173)" fill="#3f3d56"/>
    <circle id="Эллипс_75" data-name="Эллипс 75" cx="2.839" cy="2.839" r="2.839" transform="translate(215.414 60.328)" fill="#6c63ff"/>
    <circle id="Эллипс_76" data-name="Эллипс 76" cx="1.577" cy="1.577" r="1.577" transform="translate(211.154 84.305)" fill="#6c63ff"/>
    <circle id="Эллипс_77" data-name="Эллипс 77" cx="1.577" cy="1.577" r="1.577" transform="translate(191.91 68.688)" fill="#3f3d56"/>
    <circle id="Эллипс_78" data-name="Эллипс 78" cx="1.577" cy="1.577" r="1.577" transform="translate(247.594 53.387)" fill="#3f3d56"/>
    <circle id="Эллипс_79" data-name="Эллипс 79" cx="1.577" cy="1.577" r="1.577" transform="translate(200.113 83.516)" fill="#3f3d56"/>
    <circle id="Эллипс_80" data-name="Эллипс 80" cx="1.577" cy="1.577" r="1.577" transform="translate(233.239 74.367)" fill="#3f3d56"/>
    <circle id="Эллипс_81" data-name="Эллипс 81" cx="1.577" cy="1.577" r="1.577" transform="translate(201.059 106.705)" fill="#3f3d56"/>
    <circle id="Эллипс_82" data-name="Эллипс 82" cx="1.577" cy="1.577" r="1.577" transform="translate(234.816 97.713)" fill="#3f3d56"/>
    <circle id="Эллипс_83" data-name="Эллипс 83" cx="1.577" cy="1.577" r="1.577" transform="translate(219.515 99.291)" fill="#6c63ff"/>
    <path id="Контур_358" data-name="Контур 358" d="M812.453,159.616l-.261-1,84.823-22.156L861.7,1.257,708.336,41.315l26.148,100.109-1,.261L707.079,40.579,862.438,0l.134.5,35.705,136.7Z" transform="translate(-582.846)" fill="#3f3d56"/>
    <circle id="Эллипс_84" data-name="Эллипс 84" cx="6.882" cy="6.882" r="6.882" transform="translate(228.089 38.294)" fill="#6c63ff"/>
    <circle id="Эллипс_85" data-name="Эллипс 85" cx="3.67" cy="3.67" r="3.67" transform="translate(199.644 45.176)" fill="#3f3d56"/>
    <circle id="Эллипс_88" data-name="Эллипс 88" cx="9.787" cy="9.787" r="9.787" transform="translate(210.044 201.611)" fill="#3f3d56"/>
    <path id="Контур_363" data-name="Контур 363" d="M623.55,790.681h-.48c-24.825,0-48.386-1.234-66.344-3.476l-.724-.1q-.737-.1-1.456-.194c-2.819-.372-5.577-.789-8.2-1.239-13.006-2.265-19.6-4.964-19.6-8.022,0-2.537,4.325-4.749,13.222-6.761,4.281-.967,9.565-1.859,15.706-2.651,1.119-.149,2.271-.289,3.448-.423,17.591-2.058,40.3-3.192,63.944-3.192,4.673,0,9.4.045,14.056.134,39.62.76,82.264,5.117,82.264,12.893,0,4.644-15.418,7.641-28.353,9.337C673.032,789.353,649.064,790.663,623.55,790.681Zm-.48-25.023c-23.6,0-46.271,1.131-63.826,3.185q-1.759.2-3.433.421c-6.112.788-11.364,1.673-15.613,2.634-11.209,2.535-12.419,4.87-12.419,5.756,0,1.126,1.826,4.062,18.745,7.007,2.605.448,5.35.863,8.159,1.233.479.066.963.129,1.452.193l.722.1c17.913,2.236,41.43,3.467,66.213,3.467h.479c56.714-.039,94.811-6.234,94.811-12,0-5.066-30.393-10.888-81.253-11.862C632.46,765.7,627.737,765.658,623.07,765.658Z" transform="translate(-526.75 -414.457)" fill="#3f3d56"/>
    <path id="Контур_364" data-name="Контур 364" d="M602.781,731.731l-.553-.207c-.122-.046-12.212-4.678-17.875-15.181s-2.891-23.15-2.862-23.277l.13-.576.553.207c.122.046,12.211,4.678,17.875,15.181s2.891,23.15,2.862,23.277ZM585.26,715.853c4.788,8.881,14.343,13.433,16.763,14.472.46-2.594,1.9-13.086-2.881-21.958s-14.342-13.43-16.763-14.472c-.461,2.6-1.9,13.087,2.881,21.959Z" transform="translate(-552.954 -379.476)" fill="#3f3d56"/>
    <path id="Контур_365" data-name="Контур 365" d="M574.685,727.609c10.178,6.124,14.1,18.287,14.1,18.287s-12.582,2.235-22.761-3.889-14.1-18.287-14.1-18.287S564.507,721.486,574.685,727.609Z" transform="translate(-538.958 -394.428)" fill="#6c63ff"/>
    <path id="Контур_366" data-name="Контур 366" d="M732.66,347.236s-8.522-1.217-12.782,14.608-5.478,17.043-5.478,17.043,24.956,3.652,25.564,2.435S745.442,350.888,732.66,347.236Z" transform="translate(-617.745 -212.045)" fill="#2f2e41"/>
    <circle id="Эллипс_89" data-name="Эллипс 89" cx="16.434" cy="16.434" r="16.434" transform="translate(93.611 96.235)" fill="#ffb8b8"/>
    <path id="Контур_367" data-name="Контур 367" d="M726.216,324.1s5.478,14,3.652,15.826,22.521,4.261,22.521,4.261,1.826-9.13-5.478-14.608c0,0-3.043-9.13-2.435-10.956S726.216,324.1,726.216,324.1Z" transform="translate(-623.475 -198.037)" fill="#ffb8b8"/>
    <path id="Контур_368" data-name="Контур 368" d="M681.01,339.69a43.892,43.892,0,0,0-16.434,10.956c-7.3,7.913-10.956,10.348-10.956,10.348s-8.521,3.043-5.478,17.652c1.522,7.3.457,15.521-.989,21.912a136.915,136.915,0,0,0-3.272,30.212v6.308s-56,117.475-37.13,125.388,35.912,10.348,37.129,8.522,23.13-96.78,23.13-96.78,6.087,101.649,21.3,101.649,40.173-4.261,40.173-4.261L697.444,449.861s7.3-20.7-10.956-35.3l-2.435-6.7c10.1.005,14.714-63.906,4.261-69.389C688.314,338.473,685.879,336.647,681.01,339.69Z" transform="translate(-563.66 -207.543)" fill="#2f2e41"/>
    <path id="Контур_369" data-name="Контур 369" d="M693.717,404.014,685.2,426.535l-20.086,42s-9.13,27.391-1.826,27.391,12.782-26.173,12.782-26.173l22.521-35.3L711.368,402.8Z" transform="translate(-591.584 -238.998)" fill="#ffb8b8"/>
    <ellipse id="Эллипс_90" data-name="Эллипс 90" cx="10.652" cy="6.087" rx="10.652" ry="6.087" transform="translate(51.004 356.141)" fill="#2f2e41"/>
    <ellipse id="Эллипс_91" data-name="Эллипс 91" cx="10.652" cy="6.087" rx="10.652" ry="6.087" transform="translate(132.566 356.141)" fill="#2f2e41"/>
    <path id="Контур_370" data-name="Контур 370" d="M731.05,257.982h0a13.055,13.055,0,0,0-2.52.251,11.045,11.045,0,0,0-4.811-1.109h-.437c-8.419,0-15.244,7.618-15.244,17.015h2.821l.456-3.468.668,3.468h2.35a33.262,33.262,0,0,0-1.091,8.525v17.319h4.265l2.469-6.417-.617,6.417h27.414l2.245-5.833-.561,5.833h3.087v-13.6C751.543,270.7,742.368,257.982,731.05,257.982Z" transform="translate(-614.66 -168.359)" fill="#2f2e41"/>
    <text id="Place_for_your_image" data-name="Place for 
your image" transform="translate(-238.396 83.904)" fill="#2f2e41" font-size="51" font-family="Montserrat-Bold, Montserrat" font-weight="700"><tspan x="0" y="0">Place for </tspan><tspan x="0" y="62">your image</tspan></text>
  </g>
</svg>
