<svg xmlns="http://www.w3.org/2000/svg" xmlns:xlink="http://www.w3.org/1999/xlink" width="725" height="511.33" viewBox="0 0 725 511.33">
  <defs>
    <linearGradient id="linear-gradient" y1="0.5" x2="1" y2="0.5" gradientUnits="objectBoundingBox">
      <stop offset="0" stop-color="gray" stop-opacity="0.251"/>
      <stop offset="0.54" stop-color="gray" stop-opacity="0.122"/>
      <stop offset="1" stop-color="gray" stop-opacity="0.102"/>
    </linearGradient>
  </defs>
  <g id="undraw_authentication_fsn5" transform="translate(0 11.336)">
    <path id="Контур_115" data-name="Контур 115" d="M426.99,115.532c-46.471.062-91.2-13.1-133.987-27.718s-85.24-30.991-130.847-37.928c-29.331-4.459-62.685-4.049-85.613,12.142C54.473,77.6,48.082,103.384,45,127.2c-2.319,17.917-3.388,36.723,5.3,53.113,6.03,11.378,16.35,20.756,23.624,31.6,25.39,37.723,10.121,85.911-14.554,124.509-11.57,18.11-25.123,35.468-33.87,54.616S13.161,431.9,22.082,450.8c8.84,18.731,28.809,32.326,50.239,41.611,43.518,18.893,94.186,22.942,143.492,24.5,109.144,3.459,218.5-3.6,327.562-10.651,40.36-2.608,80.9-5.236,120.428-12.794,21.946-4.192,44.544-10.415,60.105-24.053,19.751-17.315,23.792-45.586,9.419-65.906-24.1-34.084-87.658-40.511-104.941-77.39-9.531-20.3-1.312-43.586,10.793-63.155,25.962-41.99,70.649-79.6,71.4-126.565.516-32.251-22.723-63.714-57.432-77.731C616.767,43.98,567.162,47.756,541.673,75.12,515.462,103.309,468.021,115.488,426.99,115.532Z" transform="translate(-16.91 -47.46)" fill="#6c63ff" opacity="0.1"/>
    <path id="Контур_116" data-name="Контур 116" d="M1000.18,691.15s-7.639-5.041-15.21-1.454c0,0,2.331,4.488,11.915,4.065Z" transform="translate(-383.11 -290.33)" fill="#6c63ff"/>
    <path id="Контур_117" data-name="Контур 117" d="M1007.917,693.25s2.325,8.851-3.506,14.874c0,0-3.506-3.649,0-12.587Z" transform="translate(-389.878 -292.237)" fill="#6c63ff"/>
    <path id="Контур_118" data-name="Контур 118" d="M1015.585,676.209s-.566-7.527-17.565-5.028c0,0-.081,4.854,5.886,7.154S1012.608,678.7,1015.585,676.209Z" transform="translate(-388.049 -283.612)" fill="#6c63ff"/>
    <path id="Контур_119" data-name="Контур 119" d="M1024.965,679.5s7.185,2.306.777,18.249c0,0-4.742-1.057-5.594-7.4S1021.82,681.812,1024.965,679.5Z" transform="translate(-396.36 -286.963)" fill="#6c63ff"/>
    <path id="Контур_120" data-name="Контур 120" d="M1033.44,655.494s.976-12.388-16.4-11.12c0,0-1.243,11.188,13.333,14.1Z" transform="translate(-395.238 -273.616)" fill="#6c63ff"/>
    <path id="Контур_121" data-name="Контур 121" d="M1049.887,633.344s-2.381-14.041-19.747-9.858c0,0-.062,12.139,16.913,13.2Z" transform="translate(-400.204 -265.44)" fill="#6c63ff"/>
    <path id="Контур_122" data-name="Контур 122" d="M1062.505,610.26s-3.99-13.674-21.2-9.584c0,0,4.1,12.3,20.052,12.108Z" transform="translate(-404.432 -256.801)" fill="#6c63ff"/>
    <path id="Контур_123" data-name="Контур 123" d="M1075.741,587.3s-3.9-14.19-20.511-9.945c0,0,5.544,13.482,19.411,12.344Z" transform="translate(-409.699 -247.955)" fill="#6c63ff"/>
    <path id="Контур_124" data-name="Контур 124" d="M1085.235,563.695s-3-17.354-18.485-13.513c0,0,4.5,15.788,17.348,16.042Z" transform="translate(-414.059 -237.749)" fill="#6c63ff"/>
    <path id="Контур_125" data-name="Контур 125" d="M1092.508,538.062s-3.6-17.491-19.268-12.431c0,0,6.141,16.533,18.156,14.824Z" transform="translate(-416.515 -228.307)" fill="#6c63ff"/>
    <path id="Контур_126" data-name="Контур 126" d="M1098.146,511.559s-5.712-17.5-17.826-17.025c0,0,5.837,18.479,16.813,20.511Z" transform="translate(-419.194 -216.871)" fill="#6c63ff"/>
    <path id="Контур_127" data-name="Контур 127" d="M1102.293,486.362s-6.216-21.058-16.073-19.436c0,0,4.3,16.1,15.725,22.718Z" transform="translate(-421.427 -206.38)" fill="#6c63ff"/>
    <path id="Контур_128" data-name="Контур 128" d="M1104.359,458.889s-5.83-17.547-15.539-18.249c0,0,3.966,17.267,15.346,22.811Z" transform="translate(-422.411 -196.453)" fill="#6c63ff"/>
    <path id="Контур_129" data-name="Контур 129" d="M1107.384,432.7s-7.266-17.565-13.674-17.963c0,0,3.157,17.3,13.053,20.847Z" transform="translate(-424.262 -186.638)" fill="#6c63ff"/>
    <path id="Контур_130" data-name="Контур 130" d="M1110.37,406.541s-4.469-19.076-10.89-20.661c0,0,.876,15.607,10.243,22.09Z" transform="translate(-426.446 -175.702)" fill="#6c63ff"/>
    <path id="Контур_131" data-name="Контур 131" d="M1114.871,376.328s-4.7-15.21-9.9-17.528c0,0,1.026,17.932,8.7,21.245Z" transform="translate(-428.523 -165.44)" fill="#6c63ff"/>
    <path id="Контур_132" data-name="Контур 132" d="M1121.749,349.674l.945-26.814s-9.728,20.213-1.647,31.519Z" transform="translate(-433.393 -151.824)" fill="#6c63ff"/>
    <path id="Контур_133" data-name="Контур 133" d="M1133.906,310.5s7.005-19.579,8.7-20.673c0,0-13.736,12.7-12.394,29.045Z" transform="translate(-438.041 -139.307)" fill="#6c63ff"/>
    <path id="Контур_134" data-name="Контур 134" d="M1042.486,662.146s12.319-1.61,11.953,15.8c0,0-11.132,1.815-14.768-12.587Z" transform="translate(-403.811 -280.371)" fill="#6c63ff"/>
    <path id="Контур_135" data-name="Контур 135" d="M1061.12,639.06s14.234-.043,13.053,17.777c0,0-11.953,2.138-15.893-14.408Z" transform="translate(-410.854 -271.638)" fill="#6c63ff"/>
    <path id="Контур_136" data-name="Контур 136" d="M1074.934,617.707s12.922-6.06,21.189,9.584c0,0-11.934,5.047-22.333-7.055Z" transform="translate(-416.723 -263.106)" fill="#6c63ff"/>
    <path id="Контур_137" data-name="Контур 137" d="M1088.024,593.228s13.233-6.445,21,8.832c0,0-13.786,4.749-22.1-6.415Z" transform="translate(-421.696 -253.756)" fill="#6c63ff"/>
    <path id="Контур_138" data-name="Контур 138" d="M1095.864,569.6s12.736-12.164,22.9.137c0,0-13.009,10.013-23.483,2.573Z" transform="translate(-424.856 -243.282)" fill="#6c63ff"/>
    <path id="Контур_139" data-name="Контур 139" d="M1102.8,542.257s12.81-12.431,22.892.572c0,0-14.377,10.212-23.352,2.039Z" transform="translate(-427.528 -232.922)" fill="#6c63ff"/>
    <path id="Контур_140" data-name="Контур 140" d="M1106.93,513.473s9.87-15.539,21.494-12.071c0,0-10.243,16.453-21.382,15.719Z" transform="translate(-429.265 -219.284)" fill="#6c63ff"/>
    <path id="Контур_141" data-name="Контур 141" d="M1111.455,488.008s9.945-19.567,19.355-16.161c0,0-7.173,15.042-19.61,19.461Z" transform="translate(-430.881 -208.126)" fill="#6c63ff"/>
    <path id="Контур_142" data-name="Контур 142" d="M1112.115,460.032s10.225-15.4,19.8-13.519c0,0-8.36,15.62-20.8,17.976Z" transform="translate(-430.85 -198.616)" fill="#6c63ff"/>
    <path id="Контур_143" data-name="Контур 143" d="M1114,432.494s7.925-17.286,14.364-17.4c0,0-3.8,17.161-13.83,20.337Z" transform="translate(-431.94 -186.77)" fill="#6c63ff"/>
    <path id="Контур_144" data-name="Контур 144" d="M1116.5,407.84s8.807-17.5,15.427-17.54c0,0-4.506,14.967-15.135,19.076Z" transform="translate(-432.887 -177.376)" fill="#6c63ff"/>
    <path id="Контур_145" data-name="Контур 145" d="M1118.63,378.943s6.589-14.482,12.046-16.123c0,0-3.294,17.652-11.318,19.964Z" transform="translate(-433.693 -166.963)" fill="#6c63ff"/>
    <path id="Контур_146" data-name="Контур 146" d="M1124.08,351.492l14.725-22.432s-3.773,22.128-16.875,26.727Z" transform="translate(-434.941 -154.172)" fill="#6c63ff"/>
    <path id="Контур_147" data-name="Контур 147" d="M1137.309,317.648s17.112-11.81,17.733-13.718c0,0-8.7,16.54-24.863,19.461Z" transform="translate(-438.064 -144.647)" fill="#6c63ff"/>
    <path id="Контур_148" data-name="Контур 148" d="M1143.012,305.961s19.647-18.889,24.663-18.871c0,0-16.2.74-25.136,17.864Z" transform="translate(-442.741 -138.266)" fill="#6c63ff"/>
    <path id="Контур_149" data-name="Контур 149" d="M1118.94,363.63l.715.093c3.692-28.9,9.075-46,15.154-48.09l-.236-.684C1128.127,317.188,1122.707,334.026,1118.94,363.63Z" transform="translate(-433.81 -148.832)" fill="#444053"/>
    <path id="Контур_150" data-name="Контур 150" d="M1110.2,461.069l1.081.087c.23-2.7.4-5.457.522-8.211,1.032-23.918,2.629-45.884,4.73-62.349l-.622-.777c-2.107,16.5-4.158,39.127-5.19,63.082C1110.6,455.637,1110.43,458.384,1110.2,461.069Z" transform="translate(-430.502 -177.214)" fill="#444053"/>
    <path id="Контур_151" data-name="Контур 151" d="M976.644,634.063c.187-.081,19.225-8.584,38.984-28.859a156.771,156.771,0,0,0,28.5-40.4c9.137-18.6,14.706-41.464,16.571-63.672l-1.125.528c-4.2,49.849-26.889,83.91-44.932,102.464-19.567,20.095-38.394,28.511-38.58,28.592Z" transform="translate(-379.738 -219.442)" fill="#444053"/>
    <path id="Контур_152" data-name="Контур 152" d="M689.586,132.69H92.192a5.321,5.321,0,0,0-5.322,5.321v15.5H694.908v-15.5A5.321,5.321,0,0,0,689.586,132.69Z" transform="translate(-43.386 -79.717)" fill="#848393"/>
    <path id="Контур_153" data-name="Контур 153" d="M86.87,166.19V514.664A10.724,10.724,0,0,0,97.6,525.381H684.177a10.724,10.724,0,0,0,10.731-10.717V166.19Z" transform="translate(-43.386 -92.395)" fill="#fff"/>
    <circle id="Эллипс_13" data-name="Эллипс 13" cx="2.486" cy="2.486" r="2.486" transform="translate(50.626 60.743)" fill="#fa5959" opacity="0.8"/>
    <circle id="Эллипс_14" data-name="Эллипс 14" cx="2.486" cy="2.486" r="2.486" transform="translate(57.463 60.743)" fill="#fed253" opacity="0.8"/>
    <circle id="Эллипс_15" data-name="Эллипс 15" cx="2.486" cy="2.486" r="2.486" transform="translate(64.3 60.743)" fill="#8ccf4d" opacity="0.8"/>
    <rect id="Прямоугольник_87" data-name="Прямоугольник 87" width="488.546" height="214.823" transform="translate(99.99 131.785)" opacity="0.05"/>
    <rect id="Прямоугольник_88" data-name="Прямоугольник 88" width="481.087" height="210.087" transform="translate(103.72 133.414)" fill="#efeefe"/>
    <path id="Контур_154" data-name="Контур 154" d="M365.64,349.38a47.86,47.86,0,1,0,47.86,47.86,47.86,47.86,0,0,0-47.86-47.86Zm8.584,49.01v22.662H357.3V398.39a14.016,14.016,0,1,1,16.919,0Z" transform="translate(-130.726 -161.898)" fill="#6c63ff"/>
    <path id="Контур_155" data-name="Контур 155" d="M365.64,349.38a47.86,47.86,0,1,0,47.86,47.86,47.86,47.86,0,0,0-47.86-47.86Zm8.584,49.01v22.662H357.3V398.39a14.016,14.016,0,1,1,16.919,0Z" transform="translate(-130.726 -161.898)" opacity="0.05"/>
    <path id="Контур_156" data-name="Контур 156" d="M357.314,327.38a61.534,61.534,0,1,0,61.534,61.534A61.534,61.534,0,0,0,357.314,327.38Zm11.033,63.014v29.132H346.592V390.394a18.025,18.025,0,1,1,21.755,0Z" transform="translate(-122.402 -153.571)" fill="#6c63ff"/>
    <rect id="Прямоугольник_89" data-name="Прямоугольник 89" width="198.899" height="21.133" transform="translate(321.981 227.264)" fill="#fff"/>
    <rect id="Прямоугольник_90" data-name="Прямоугольник 90" width="42.888" height="21.133" transform="translate(478.006 265.77)" fill="#6c63ff"/>
    <path id="Контур_157" data-name="Контур 157" d="M560.793,427.231h-3.6l3.2-3.195a.317.317,0,0,0,0-.441.311.311,0,0,0-.441,0l-3.2,3.2v-3.605a.311.311,0,0,0-.311-.311.317.317,0,0,0-.311.311V426.8l-3.195-3.22a.311.311,0,0,0-.441,0,.317.317,0,0,0,0,.441l3.2,3.195h-3.6a.317.317,0,0,0-.311.311.311.311,0,0,0,.311.311h3.6l-3.2,3.2a.317.317,0,0,0,0,.441.323.323,0,0,0,.441,0l3.195-3.2v3.6a.311.311,0,1,0,.621,0v-3.6l3.2,3.2a.323.323,0,0,0,.441,0,.317.317,0,0,0,0-.441l-3.2-3.2h3.6a.3.3,0,1,0,0-.6Z" transform="translate(-219.255 -189.718)" fill="#6c63ff"/>
    <path id="Контур_158" data-name="Контур 158" d="M581.793,427.231h-3.6l3.2-3.195a.317.317,0,0,0,0-.441.311.311,0,0,0-.441,0l-3.2,3.2v-3.605a.311.311,0,0,0-.311-.311.317.317,0,0,0-.311.311V426.8l-3.195-3.22a.311.311,0,0,0-.441,0,.317.317,0,0,0,0,.441l3.2,3.195h-3.605a.317.317,0,0,0-.311.311.311.311,0,0,0,.311.311H576.7l-3.2,3.2a.317.317,0,0,0,0,.441.323.323,0,0,0,.441,0l3.195-3.2v3.6a.311.311,0,1,0,.622,0v-3.6l3.2,3.2a.323.323,0,0,0,.441,0,.317.317,0,0,0,0-.441l-3.2-3.2h3.6a.3.3,0,1,0,0-.6Z" transform="translate(-227.2 -189.718)" fill="#6c63ff"/>
    <path id="Контур_159" data-name="Контур 159" d="M602.793,427.231h-3.6l3.2-3.195a.317.317,0,0,0,0-.441.311.311,0,0,0-.441,0l-3.2,3.2v-3.605a.311.311,0,0,0-.311-.311.317.317,0,0,0-.311.311V426.8l-3.195-3.22a.311.311,0,0,0-.441,0,.317.317,0,0,0,0,.441l3.2,3.195h-3.605a.317.317,0,0,0-.311.311.311.311,0,0,0,.311.311H597.7l-3.2,3.2a.317.317,0,0,0,0,.441.323.323,0,0,0,.441,0l3.195-3.2v3.6a.311.311,0,1,0,.622,0v-3.6l3.2,3.2a.323.323,0,0,0,.441,0,.317.317,0,0,0,0-.441l-3.2-3.2h3.6a.3.3,0,1,0,0-.6Z" transform="translate(-235.144 -189.718)" fill="#6c63ff"/>
    <path id="Контур_160" data-name="Контур 160" d="M623.793,427.231h-3.6l3.2-3.195a.317.317,0,0,0,0-.441.311.311,0,0,0-.441,0l-3.2,3.2v-3.605a.311.311,0,0,0-.311-.311.317.317,0,0,0-.311.311V426.8l-3.195-3.22a.311.311,0,0,0-.441,0,.317.317,0,0,0,0,.441l3.2,3.195h-3.6a.317.317,0,0,0-.311.311.311.311,0,0,0,.311.311h3.6l-3.2,3.2a.317.317,0,0,0,0,.441.323.323,0,0,0,.441,0l3.195-3.2v3.6a.311.311,0,1,0,.622,0v-3.6l3.2,3.2a.323.323,0,0,0,.441,0,.317.317,0,0,0,0-.441l-3.2-3.2h3.6a.3.3,0,1,0,0-.6Z" transform="translate(-243.089 -189.718)" fill="#6c63ff"/>
    <path id="Контур_161" data-name="Контур 161" d="M644.793,427.231h-3.6l3.2-3.195a.317.317,0,0,0,0-.441.311.311,0,0,0-.441,0l-3.2,3.2v-3.605a.311.311,0,0,0-.311-.311.317.317,0,0,0-.311.311V426.8l-3.195-3.22a.311.311,0,0,0-.441,0,.317.317,0,0,0,0,.441l3.2,3.195h-3.605a.317.317,0,0,0-.311.311.311.311,0,0,0,.311.311H639.7l-3.2,3.2a.317.317,0,0,0,0,.441.323.323,0,0,0,.441,0l3.195-3.2v3.6a.311.311,0,1,0,.622,0v-3.6l3.2,3.2a.323.323,0,0,0,.441,0,.317.317,0,0,0,0-.441l-3.2-3.2h3.6a.3.3,0,1,0,0-.6Z" transform="translate(-251.033 -189.718)" fill="#6c63ff"/>
    <path id="Контур_162" data-name="Контур 162" d="M665.793,427.231h-3.6l3.2-3.195a.317.317,0,0,0,0-.441.311.311,0,0,0-.441,0l-3.2,3.2v-3.605a.311.311,0,0,0-.311-.311.317.317,0,0,0-.311.311V426.8l-3.195-3.22a.311.311,0,0,0-.441,0,.317.317,0,0,0,0,.441l3.2,3.195h-3.6a.317.317,0,0,0-.311.311.311.311,0,0,0,.311.311h3.6l-3.2,3.2a.317.317,0,0,0,0,.441.323.323,0,0,0,.441,0l3.195-3.2v3.6a.311.311,0,1,0,.622,0v-3.6l3.2,3.2a.323.323,0,0,0,.441,0,.317.317,0,0,0,0-.441l-3.2-3.2h3.6a.3.3,0,1,0,0-.6Z" transform="translate(-258.978 -189.718)" fill="#6c63ff"/>
    <path id="Контур_163" data-name="Контур 163" d="M686.793,427.231h-3.6l3.2-3.195a.317.317,0,0,0,0-.441.311.311,0,0,0-.441,0l-3.2,3.2v-3.605a.311.311,0,0,0-.311-.311.317.317,0,0,0-.311.311V426.8l-3.195-3.22a.311.311,0,0,0-.441,0,.317.317,0,0,0,0,.441l3.2,3.195h-3.6a.317.317,0,0,0-.311.311.311.311,0,0,0,.311.311h3.6l-3.2,3.2a.317.317,0,0,0,0,.441.323.323,0,0,0,.441,0l3.195-3.2v3.6a.311.311,0,1,0,.621,0v-3.6l3.2,3.2a.323.323,0,0,0,.441,0,.317.317,0,0,0,0-.441l-3.2-3.2h3.6a.3.3,0,1,0,0-.6Z" transform="translate(-266.922 -189.718)" fill="#6c63ff"/>
    <path id="Контур_164" data-name="Контур 164" d="M707.793,427.231h-3.6l3.2-3.195a.317.317,0,0,0,0-.441.311.311,0,0,0-.441,0l-3.2,3.2v-3.605a.311.311,0,0,0-.311-.311.317.317,0,0,0-.311.311V426.8l-3.195-3.22a.311.311,0,0,0-.441,0,.317.317,0,0,0,0,.441l3.2,3.195h-3.605a.317.317,0,0,0-.311.311.311.311,0,0,0,.311.311H702.7l-3.2,3.2a.317.317,0,0,0,0,.441.323.323,0,0,0,.441,0l3.195-3.2v3.6a.311.311,0,1,0,.622,0v-3.6l3.2,3.2a.323.323,0,0,0,.441,0,.317.317,0,0,0,0-.441l-3.2-3.2h3.6a.3.3,0,1,0,0-.6Z" transform="translate(-274.867 -189.718)" fill="#6c63ff"/>
    <path id="Контур_165" data-name="Контур 165" d="M728.793,427.231h-3.6l3.2-3.195a.317.317,0,0,0,0-.441.311.311,0,0,0-.441,0l-3.2,3.2v-3.605a.311.311,0,0,0-.311-.311.317.317,0,0,0-.311.311V426.8l-3.195-3.22a.311.311,0,0,0-.441,0,.317.317,0,0,0,0,.441l3.2,3.195h-3.605a.317.317,0,0,0-.311.311.311.311,0,0,0,.311.311H723.7l-3.2,3.2a.317.317,0,0,0,0,.441.323.323,0,0,0,.441,0l3.195-3.2v3.6a.311.311,0,1,0,.622,0v-3.6l3.2,3.2a.323.323,0,0,0,.441,0,.317.317,0,0,0,0-.441l-3.2-3.2h3.6a.3.3,0,1,0,0-.6Z" transform="translate(-282.811 -189.718)" fill="#6c63ff"/>
    <path id="Контур_166" data-name="Контур 166" d="M749.793,427.231h-3.6l3.2-3.195a.317.317,0,0,0,0-.441.311.311,0,0,0-.441,0l-3.2,3.2v-3.605a.311.311,0,0,0-.311-.311.317.317,0,0,0-.311.311V426.8l-3.195-3.22a.311.311,0,0,0-.441,0,.317.317,0,0,0,0,.441l3.2,3.195h-3.605a.317.317,0,0,0-.311.311.311.311,0,0,0,.311.311H744.7l-3.2,3.2a.317.317,0,0,0,0,.441.323.323,0,0,0,.441,0l3.195-3.2v3.6a.311.311,0,1,0,.622,0v-3.6l3.2,3.2a.323.323,0,0,0,.441,0,.317.317,0,0,0,0-.441l-3.2-3.2h3.6a.3.3,0,1,0,0-.6Z" transform="translate(-290.756 -189.718)" fill="#6c63ff"/>
    <path id="Контур_167" data-name="Контур 167" d="M770.793,427.231h-3.6l3.2-3.195a.317.317,0,0,0,0-.441.311.311,0,0,0-.441,0l-3.2,3.2v-3.605a.311.311,0,0,0-.311-.311.317.317,0,0,0-.311.311V426.8l-3.195-3.22a.311.311,0,0,0-.441,0,.317.317,0,0,0,0,.441l3.2,3.195h-3.6a.317.317,0,0,0-.311.311.311.311,0,0,0,.311.311h3.6l-3.2,3.2a.317.317,0,0,0,0,.441.323.323,0,0,0,.441,0l3.195-3.2v3.6a.311.311,0,1,0,.622,0v-3.6l3.2,3.2a.323.323,0,0,0,.441,0,.317.317,0,0,0,0-.441l-3.2-3.2h3.6a.3.3,0,1,0,0-.6Z" transform="translate(-298.7 -189.718)" fill="#6c63ff"/>
    <path id="Контур_168" data-name="Контур 168" d="M879.813,519.674a11.125,11.125,0,0,0-.28-2.231c-.559-2.1-1.821-4.643-3.9-5.277a32.725,32.725,0,0,1-6.178-2.61c-.373-6.663,1.156-13.482-.51-19.94-.622-2.362-1.647-4.624-1.921-7.042-.342-3.008.479-6.216-.721-8.988a8.87,8.87,0,0,0-5.252-4.537,27.985,27.985,0,0,0-7.005-1.243c-2.983-.242-12.642-1.386-16.011,1.28h0a3.519,3.519,0,0,0-.622.622h0a2.5,2.5,0,0,0-.2.323l-.031.05a2.54,2.54,0,0,0-.168.4h0a3.128,3.128,0,0,0-.106.466v1.119c.044.559.124,1.119.124,1.672a3.6,3.6,0,0,1-.075.82,5.744,5.744,0,0,1-1.032,2.014h0l-.112.162c-.068.1-.137.193-.2.292s-.112.174-.161.261-.1.143-.143.224a3.03,3.03,0,0,0-.162.317c0,.062-.068.118-.093.18a3.068,3.068,0,0,0-.186.522,3.47,3.47,0,0,0-.037,1.653,6.154,6.154,0,0,0,.852,1.958c.155.255.323.5.5.752l.435.591a13.412,13.412,0,0,0-.131,1.74,12.859,12.859,0,0,0,4.909,10.105,38.071,38.071,0,0,1-.079,7.889c-.056.547-.124,1.1-.2,1.647s-.131.908-.205,1.361a6.309,6.309,0,0,1-2.716-.205,12.8,12.8,0,0,0-1.243-.479c-1.809-.454-3.655,1.349-5.445.8a.731.731,0,0,1-.081.249,2.436,2.436,0,0,0-1.243-.367,4.534,4.534,0,0,1-2.7-1.548l-2.368-2.231a2.616,2.616,0,0,1-.41-.46,3.224,3.224,0,0,1-.286-.765,8.808,8.808,0,0,0-2.294-3.288,1.555,1.555,0,0,0-.678-.491,1.044,1.044,0,0,0-.311,0,2.757,2.757,0,0,0-.205-.249,5.867,5.867,0,0,0-.516-.522c-1.131-1.044-1.243-1.939-2.225-3.108a29.865,29.865,0,0,1-2.325-3.512c-.081-.653-.193-1.324-.329-2a25.751,25.751,0,0,0-1.361-4.537l-1.243-2.753-.143.143c-.9-1.343-1.865-2.076-2.729-1.9-1.448.3-2.163,3.108-1.933,6.781l.5,3.729a1.152,1.152,0,0,0,.068.28,6.878,6.878,0,0,0-.137,1.343c0,.522.485.907.74,1.374a3.884,3.884,0,0,1,.621,2.12c-.031.267-.112.522-.124.783a3.015,3.015,0,0,0,.584,1.616l3.108,5.221.622,1.094.037.05a2.654,2.654,0,0,0,.833.957,11.385,11.385,0,0,0,1.026,3.773c.106.236.224.46.348.684a21.988,21.988,0,0,0,2.934,3.81l1.479,1.659c1.461,1.628,2.921,3.263,4.506,4.767a6.037,6.037,0,0,0,2.014,1.411,2.281,2.281,0,0,0,2.262-.329v2.312a1.3,1.3,0,0,1,.982,2.045,51.265,51.265,0,0,1-4.6,9.734,20.719,20.719,0,0,1,3.854,2.94,17.323,17.323,0,0,1,2.008,2.716c.056.46.1.914.124,1.367.46,7.409-2.405,14.762-4.972,21.823a17,17,0,0,0-1.486,6.178,12.127,12.127,0,0,0-1.392,1,9.219,9.219,0,0,1,.255,3.941,6.981,6.981,0,0,1-.516,2.486,17.483,17.483,0,0,1-.9,1.6c-1.61,2.84-1.964,6.216-2.287,9.46-.193,1.958.566,4.351-.323,6.1a24.97,24.97,0,0,0-3.108,9.56,9.579,9.579,0,0,1-.286,2.231c-.193.622-.535,1.15-.709,1.759a7.526,7.526,0,0,0-.124,2.486,23.793,23.793,0,0,1-1.305,8.77c-.777,2.219-1.635,4.593-1.026,6.874a9.69,9.69,0,0,0-2.629,5.774,9.1,9.1,0,0,1-.2,1.647,8.01,8.01,0,0,1-.746,1.585,13.873,13.873,0,0,0-1.691,7.459,20.749,20.749,0,0,0-3.35,8.752c-.553,3.1-.8,6.259-1.5,9.323-.945,4.053-2.654,8.149-2.99,12.3-2.014,1.287-2.884,3.779-3.269,6.135s-.448,4.829-1.436,7.005c-.51,1.131-1.243,2.144-1.728,3.3a15.159,15.159,0,0,0-.746,2.841,11.083,11.083,0,0,0-.193,4.662,7.029,7.029,0,0,1-1.821,1.386c.1-.385.18-.771.248-1.162-1.6,1.454-4.513.945-5.793,2.691a2.623,2.623,0,0,0,.622,3.6,4.975,4.975,0,0,0,1.287.553c3.108.994,6.3,2,9.5,1.467a2.835,2.835,0,0,0,1.075-.342,3.46,3.46,0,0,0,1-1.156c.479-.758.957-1.517,1.43-2.275a29.509,29.509,0,0,0,3.487.814c.118.995.205,1.989.249,2.983.622.124,1.455.162,1.747-.416a1.51,1.51,0,0,0,.106-.69c0-.441.062-1.026.1-1.622h.124a11.809,11.809,0,0,0,5.5-1.113c-.665-5.507,1.529-10.89,3.431-16.1,2.008-5.482,3.729-11.064,5.463-16.645,1.243-3.928,2.617-7.732,3.835-11.667q2.3-7.459,4.618-14.917c.671-2.188,1.349-4.351,2.12-6.526a101.655,101.655,0,0,1,5.762-12.823c.621-1.175,1.243-2.337,1.753-3.555.621-1.486,1.063-3.039,1.56-4.575a70.846,70.846,0,0,1,3.9-9.187c.044-.081.075-.155.118-.23.5,2.057,1.007,4.146,1.343,6.216a23.622,23.622,0,0,1,.106,7.682,25.328,25.328,0,0,0-.8,5.209c.093,2.43,1.392,4.637,2.032,6.98a26.58,26.58,0,0,1,.7,5.345c.174,2.8,1.691,5.936.622,8.528-3.325,8.211-1.716,17.484-3.611,26.105-.976,4.425-3.966,8.584-3.729,13.109q.249,4.817.845,9.609a9.144,9.144,0,0,0,.777,2.915,10.7,10.7,0,0,0,.852,1.392c-.274.106-.5.385-.7.976a3.835,3.835,0,0,0,1.38,4.351,6.039,6.039,0,0,0,1.8.622,9.46,9.46,0,0,0,2.6.36,6.045,6.045,0,0,0,.814-.1,29.612,29.612,0,0,0,2.94,1.057,6.368,6.368,0,0,0,.081.764.951.951,0,0,0,.323.7.969.969,0,0,0,.5.087h3.375v-.845a2.779,2.779,0,0,0,2.144-.7,3.319,3.319,0,0,0,.621-1.293q1.38-4.68,2.741-9.367a29.945,29.945,0,0,0,1.336-10.691c-1.2-11.455,1.436-22.948.578-34.434a82.484,82.484,0,0,1,1.057-20.661c.28-1.541.622-3.108.746-4.643.273-2.9-.062-5.824.143-8.7.068-1.007.205-2.008.329-3.008a144.445,144.445,0,0,0,1.336-18.74,59.026,59.026,0,0,0-.385-6.216,3.549,3.549,0,0,0,1.7-.994,4.227,4.227,0,0,0,.4-2.654c0-2.2.926-4.276,1.672-6.352a75.45,75.45,0,0,0,2.35-8.739,30.511,30.511,0,0,0,1.044-7.3q0-.373-.037-.746a1.925,1.925,0,0,0,.572-.622,3.6,3.6,0,0,0,.3-1.15c.224-1.585.454-3.176.677-4.767q.249-1.709.491-3.412l1.977-13.792c.168-1.2.342-2.393.51-3.586l.516-3.568c.056-.423.118-.845.162-1.243C881.423,525.94,879.975,522.558,879.813,519.674Zm-16.49,51.639a11.361,11.361,0,0,1-1.243-5.4h-.068a2.773,2.773,0,0,0-.081-1.753c-.193-.454-.528-.839-.734-1.293a4.739,4.739,0,0,1-.336-1.74,47.443,47.443,0,0,1,.889-11.275c.081-.435.168-.876.249-1.311a3.244,3.244,0,0,0,.708-.553,5.041,5.041,0,0,0,.8-1.243c.7-1.411,1.343-2.847,1.933-4.307.193-.472.472-1.019.951-1.137-.1,3.636.274,7.347-1.206,10.629a6.729,6.729,0,0,0-.622,1.678c-.137.926.249,1.865.112,2.785-.068.479-.274.92-.354,1.392a1.361,1.361,0,0,0,.36,1.318,1.084,1.084,0,0,0,.267.137c-.037.249-.068.5-.093.746-.05.51-.075.988-.106,1.287a40.106,40.106,0,0,0-.168,4.575c0,1.647.062,3.294.037,4.973a3.378,3.378,0,0,1-.236,1.411,2.451,2.451,0,0,1-.473.622,16.134,16.134,0,0,0-.59-1.535Z" transform="translate(-307.639 -206.749)" fill="url(#linear-gradient)"/>
    <ellipse id="Эллипс_16" data-name="Эллипс 16" cx="3.506" cy="9.926" rx="3.506" ry="9.926" transform="matrix(0.98, -0.201, 0.201, 0.98, 499.195, 273.864)" fill="#fbbebe"/>
    <path id="Контур_169" data-name="Контур 169" d="M878.282,838.338a3.763,3.763,0,0,0,1.38,4.307,6.14,6.14,0,0,0,1.784.621,9.407,9.407,0,0,0,2.592.354c1.075-.05,2.107-.472,3.182-.622a.5.5,0,0,1,.367.05.528.528,0,0,1,.137.435,16.4,16.4,0,0,0,.137,1.827.939.939,0,0,0,.323.7.97.97,0,0,0,.5.087h3.369a32.86,32.86,0,0,0-.963-8.789,1.969,1.969,0,0,0-.249-.621,2.058,2.058,0,0,0-1.075-.622,6.01,6.01,0,0,0-2.6-.454,7.63,7.63,0,0,0-2.921,1.429,4.45,4.45,0,0,1-3.313.8C879.8,837.549,878.86,836.61,878.282,838.338Z" transform="translate(-342.7 -346.111)" fill="#3f3d56"/>
    <path id="Контур_170" data-name="Контур 170" d="M796.279,834.832a9.322,9.322,0,0,1-3.4,2.312l-.572.273a.4.4,0,0,0-.193.156.335.335,0,0,0,.062.28,4.022,4.022,0,0,0,4.562,1.66,2.419,2.419,0,0,0,1-.522,3.282,3.282,0,0,0,.771-2,4.1,4.1,0,0,0-.093-2.294C797.554,832.75,797.237,833.633,796.279,834.832Z" transform="translate(-310.173 -345.334)" fill="#fbbebe"/>
    <path id="Контур_171" data-name="Контур 171" d="M806.878,842.708a1.51,1.51,0,0,1-.106.69c-.292.572-1.106.541-1.74.416a41.854,41.854,0,0,0-.765-6.278c-1.206-.056-2.076,1.088-2.722,2.113l-1.666,2.642a3.442,3.442,0,0,1-.994,1.156,2.943,2.943,0,0,1-1.075.342c-3.182.528-6.4-.472-9.466-1.467a5.018,5.018,0,0,1-1.286-.547,2.629,2.629,0,0,1-.622-3.593c1.287-1.74,4.177-1.243,5.78-2.685a14.462,14.462,0,0,1-.82,2.965c2.144-.323,3.586-2.287,5.314-3.6a3.269,3.269,0,0,1,1.517-.721,3.339,3.339,0,0,1,1.243.13,14.586,14.586,0,0,1,5.47,2.691A5.9,5.9,0,0,1,806.9,839C807.2,839.954,806.878,841.695,806.878,842.708Z" transform="translate(-307.855 -345.552)" fill="#3f3d56"/>
    <circle id="Эллипс_17" data-name="Эллипс 17" cx="12.841" cy="12.841" r="12.841" transform="translate(528.951 266.563)" fill="#fbbebe"/>
    <path id="Контур_172" data-name="Контур 172" d="M920.983,616.846a30.452,30.452,0,0,1-1.038,7.266,74.979,74.979,0,0,1-2.349,8.7c-.74,2.07-1.666,4.146-1.66,6.34a4.216,4.216,0,0,1-.41,2.648,3.866,3.866,0,0,1-1.815,1.038,2.268,2.268,0,0,0-1.529,1.361,9.6,9.6,0,0,1-1.293-2.847q-1.672-5.122-3.108-10.3a1.336,1.336,0,0,1,.087-1.243,1.543,1.543,0,0,1,.541-.3,5.594,5.594,0,0,0,1.722-1.106,2.516,2.516,0,0,0,.572-.74,3.346,3.346,0,0,0,.242-1.4c0-1.647,0-3.288-.043-4.935a41.254,41.254,0,0,1,.174-4.556c0-.3.056-.777.106-1.287.093-.976.28-2.107.808-2.486.789-.528,3.151.18,4.046.3,1.542.211,3.108.46,4.612.752A12.308,12.308,0,0,1,920.983,616.846Z" transform="translate(-353.89 -261.695)" fill="#3f3d56"/>
    <path id="Контур_173" data-name="Контур 173" d="M837.108,512.627c-.5.995-1.691,1.473-2.611,2.1l-3.151,2.163a2.1,2.1,0,0,1-1.56.534,2.051,2.051,0,0,1-1.162-1.088.218.218,0,0,0,0-.05l-.653-1.094-3.108-5.209a2.963,2.963,0,0,1-.578-1.6c0-.267.093-.516.118-.783a3.76,3.76,0,0,0-.621-2.113c-.249-.466-.746-.852-.734-1.374a4.976,4.976,0,0,1,.348-2.008,4.067,4.067,0,0,1,1.361-1.454c.292-.211.591-.41.9-.622a1.779,1.779,0,0,1,.541-.249c.516-.106,1.026.323,1.548.342,2.244,1.5,3.108,4.351,4.873,6.4.995,1.169,1.094,2.064,2.219,3.108.18.162.354.336.522.516a3.611,3.611,0,0,1,.559.808C836.126,511.49,837.363,512.118,837.108,512.627Z" transform="translate(-321.876 -218.854)" fill="#3f3d56"/>
    <path id="Контур_174" data-name="Контур 174" d="M877.605,512.246a11.571,11.571,0,0,1,1.38,6.259,3.91,3.91,0,0,1-.541,1.647c-.9,1.374-2.772,1.622-4.407,1.7a2.6,2.6,0,0,0-1.914.622,1.74,1.74,0,0,0,.118,2.126,4.8,4.8,0,0,0,1.9,1.243,16.84,16.84,0,0,0,8.186,1.815c1.305-.124,2.573-.5,3.872-.7a40.687,40.687,0,0,1,4.264-.236c1.691-.062,3.375-.23,5.06-.4l4.463-.441a1,1,0,0,0,.665-.242c.329-.385-.093-.951-.5-1.243-2.368-1.753-5.383-2.959-6.731-5.594a32.9,32.9,0,0,1-1.274-4.065,34.155,34.155,0,0,1-1.479-3.922,25.986,25.986,0,0,1-.205-3.617,4.854,4.854,0,0,0-1.243-3.307,5.182,5.182,0,0,0-3.381-1.088c-2.971-.131-6.135.578-8.242,2.673-.566.566-1.05,1.243-1.635,1.753s-1.38.659-.994,1.33,1.144,1.088,1.554,1.678a14.3,14.3,0,0,1,1.088,2Z" transform="translate(-340.325 -220.007)" fill="#fbbebe"/>
    <path id="Контур_175" data-name="Контур 175" d="M894.728,537.362a70.614,70.614,0,0,1-3.8,14,52.743,52.743,0,0,0-2.238,6.278c-.479,1.927-.385,3.99-.827,5.923-.547,2.405-1.094,4.817-1.535,7.241a47.483,47.483,0,0,0-.883,11.25,4.7,4.7,0,0,0,.336,1.734c.205.448.535.833.727,1.293a3.107,3.107,0,0,1-.174,2.486,7.194,7.194,0,0,1-1.281,1.939c-5.793,1.728-11.99,1.162-18.025,1.529-5.563.336-11.188,1.479-16.67.528-.621-2.486.417-5.091,1.305-7.515,2.579-7.042,5.432-14.377,4.973-21.755a22.545,22.545,0,0,0-.292-2.567c-.9-5.227.081-10.641,1.653-15.707a26.957,26.957,0,0,0,.709-9.808,17.907,17.907,0,0,1-.044-3.213,5.651,5.651,0,0,1,1.169-3c0-.044.056-.087.087-.131a.854.854,0,0,1,.466,0h0a.4.4,0,0,0,.311,0l.068-.043a.155.155,0,0,1,.18,0c.143.087.224.385.535.441a12.394,12.394,0,0,0,1.386.13,7.459,7.459,0,0,1,1.653.236h.075A4.854,4.854,0,0,0,867,528.43a6.411,6.411,0,0,0,1.479-.572c.137-.149.994-.286,1.168-.392.566-.342.441-1.945.559-2.6a7.159,7.159,0,0,1,.466-1.927,3.282,3.282,0,0,1,2.66-1.548,14.166,14.166,0,0,1,3.189.286c2.318.329,4.693.273,6.968.808,1.144.267,2.393.671,3.443.149.286.068.33.317.33.622a3.981,3.981,0,0,1-.174.852c-.4,1.716.951,3.294,2.194,4.537a7.036,7.036,0,0,0,1.834,1.461c.622.286,1.243.4,1.865.715a3.393,3.393,0,0,1,1.243,1.137,4.747,4.747,0,0,1,.709,1.809A10.813,10.813,0,0,1,894.728,537.362Z" transform="translate(-332.131 -227.076)" fill="#3f3d56"/>
    <path id="Контур_176" data-name="Контур 176" d="M898.289,541.266a70.624,70.624,0,0,1-3.8,14,52.748,52.748,0,0,0-2.238,6.278c-.479,1.927-.385,3.99-.827,5.923-.547,2.405-1.094,4.817-1.535,7.241-.131.075-.267.143-.4.205a9.545,9.545,0,0,1-2.437.783,14.916,14.916,0,0,1-4.55-.149l-8.87-1.187c-3.543-.479-7.316-1.057-9.945-3.456a21.219,21.219,0,0,1-3.468-4.736,22.548,22.548,0,0,0-.292-2.567c-.9-5.227.081-10.641,1.653-15.707a26.957,26.957,0,0,0,.708-9.808,17.908,17.908,0,0,1-.043-3.214,5.648,5.648,0,0,1,1.169-3,4.4,4.4,0,0,1,.553-.124h0a2.769,2.769,0,0,1,.379-.05h.18a2.713,2.713,0,0,1,.622.075,11.277,11.277,0,0,1,1.243.479h.075a4.755,4.755,0,0,0,1.653.236c.82,0,1.666-.13,2.486-.186a4.588,4.588,0,0,1,2.946.528,17.7,17.7,0,0,1,1.641,1.5,7.048,7.048,0,0,0,2.07,1.125,22,22,0,0,0,16.546-.348,3.238,3.238,0,0,1,1.66-.423,3.11,3.11,0,0,1,1.193.51c.373.218.74.429,1.119.622a4.75,4.75,0,0,1,.709,1.809A10.82,10.82,0,0,1,898.289,541.266Z" transform="translate(-335.693 -230.97)" opacity="0.1"/>
    <path id="Контур_177" data-name="Контур 177" d="M900.435,536.425a33.167,33.167,0,0,1-7.086-3.108,3.176,3.176,0,0,0-1.193-.51,3.336,3.336,0,0,0-1.666.423,21.985,21.985,0,0,1-16.54.348,7.194,7.194,0,0,1-2.07-1.125,18.585,18.585,0,0,0-1.641-1.5c-2.045-1.324-4.873.23-7.16-.622a12.7,12.7,0,0,0-1.243-.479c-1.809-.454-3.649,1.349-5.426.8a30.25,30.25,0,0,0-1.461,5.544,60.4,60.4,0,0,0-.4,6.539c0,1.311-.062,2.623,0,3.934a1.291,1.291,0,0,1,.982,2.039,50.954,50.954,0,0,1-4.587,9.7,21.088,21.088,0,0,1,3.841,2.934c2.175,2.3,3.244,5.526,5.594,7.651,2.648,2.393,6.421,2.977,9.945,3.45l8.87,1.187a15.163,15.163,0,0,0,4.556.155,9.591,9.591,0,0,0,2.43-.789,4.353,4.353,0,0,0,1.355-.9,4.973,4.973,0,0,0,.8-1.243c.7-1.4,1.343-2.841,1.933-4.295.205-.516.516-1.119,1.075-1.162,3.294-2.971,6.4-6.017,9.7-8.988a21.485,21.485,0,0,0,3.537-3.729c1.635-2.418.149-5.843,0-8.764a11.063,11.063,0,0,0-.28-2.219C903.76,539.589,902.5,537.053,900.435,536.425Z" transform="translate(-332.423 -230.243)" fill="#6c63ff"/>
    <path id="Контур_178" data-name="Контур 178" d="M840.5,518.881c-.5.994-1.691,1.473-2.611,2.1l-3.151,2.163a2.1,2.1,0,0,1-1.56.534,2.05,2.05,0,0,1-1.162-1.088v-.448a4.166,4.166,0,0,1,.2-1.485,4.63,4.63,0,0,1,1.392-1.79,11.4,11.4,0,0,1,4.083-2.486,1.4,1.4,0,0,1,.746-.075.986.986,0,0,1,.274.118,3.608,3.608,0,0,1,.559.808C839.519,517.743,840.756,518.371,840.5,518.881Z" transform="translate(-325.27 -225.111)" opacity="0.1"/>
    <path id="Контур_179" data-name="Контур 179" d="M848.392,525.677a4.528,4.528,0,0,1-2.691-1.541l-2.356-2.188a2.205,2.205,0,0,1-.41-.46,3.221,3.221,0,0,1-.286-.764,8.772,8.772,0,0,0-2.287-3.282,1.491,1.491,0,0,0-.677-.485,1.361,1.361,0,0,0-.752.075,11.367,11.367,0,0,0-4.084,2.486,4.641,4.641,0,0,0-1.392,1.79,4.133,4.133,0,0,0-.2,1.485,11.411,11.411,0,0,0,1.082,4.749c.105.23.224.46.348.684a21.526,21.526,0,0,0,2.921,3.8l1.479,1.653c1.454,1.628,2.909,3.257,4.488,4.755a5.927,5.927,0,0,0,2.014,1.4,2.25,2.25,0,0,0,2.312-.373,3.344,3.344,0,0,0,.659-1.181,23.251,23.251,0,0,0,1.921-7.751,29.267,29.267,0,0,0-.137-3.213C850.25,526.186,849.448,525.745,848.392,525.677Z" transform="translate(-325.737 -225.363)" fill="#6c63ff"/>
    <path id="Контур_180" data-name="Контур 180" d="M872.782,653.561a143.635,143.635,0,0,1-1.33,18.69c-.124,1-.261,2-.329,3-.205,2.9.13,5.818-.143,8.7-.143,1.56-.466,3.108-.74,4.631a82.327,82.327,0,0,0-1.057,20.6c.858,11.455-1.771,22.917-.578,34.341a27.761,27.761,0,0,1-.367,6.644,28.159,28.159,0,0,1-.963,4.015q-1.361,4.668-2.735,9.323a3.233,3.233,0,0,1-.622,1.293,2.946,2.946,0,0,1-2.331.69c-3.586-.112-6.962-1.66-10.219-3.17a3.56,3.56,0,0,1-1.026-.621c-.677-.7-.622-1.809-.92-2.735a26.042,26.042,0,0,0-1.566-2.747,8.964,8.964,0,0,1-.677-2.828q-.622-4.774-.845-9.585c-.236-4.513,2.747-8.664,3.729-13.053,1.865-8.627.286-17.876,3.6-26.062,1.044-2.586-.472-5.718-.622-8.5a26.963,26.963,0,0,0-.7-5.333c-.622-2.337-1.933-4.537-2.026-6.961a25.577,25.577,0,0,1,.789-5.19,23.327,23.327,0,0,0-.106-7.664c-.329-2.089-.833-4.177-1.336-6.216l-.112.23a70.227,70.227,0,0,0-3.9,9.168c-.5,1.523-.932,3.077-1.554,4.556-.51,1.243-1.137,2.381-1.753,3.549a101.921,101.921,0,0,0-5.749,12.773c-.771,2.151-1.448,4.351-2.12,6.508l-4.606,14.917c-1.243,3.922-2.6,7.714-3.823,11.629-1.722,5.594-3.443,11.138-5.445,16.608-1.865,5.19-4.084,10.566-3.419,16.049a11.808,11.808,0,0,1-5.488,1.112,32.137,32.137,0,0,1-9.323-2.262,7.249,7.249,0,0,1-3.22-1.914c-1.38-1.684-1.038-4.152-.622-6.3a15.214,15.214,0,0,1,.746-2.834c.473-1.144,1.243-2.157,1.728-3.288.976-2.169,1.038-4.624,1.423-6.98s1.243-4.842,3.257-6.122c.342-4.14,2.045-8.223,2.983-12.27.709-3.064.945-6.216,1.5-9.323a20.479,20.479,0,0,1,3.338-8.733,13.842,13.842,0,0,1,1.691-7.459,8.153,8.153,0,0,0,.74-1.585,9.1,9.1,0,0,0,.2-1.641,9.7,9.7,0,0,1,2.623-5.762c-.622-2.269.242-4.637,1.019-6.837a23.759,23.759,0,0,0,1.305-8.745,7.663,7.663,0,0,1,.118-2.486c.174-.622.516-1.15.715-1.747a9.947,9.947,0,0,0,.28-2.231,25.806,25.806,0,0,1,3.108-9.535c.9-1.753.137-4.133.323-6.085.323-3.245.677-6.6,2.287-9.429.3-.535.622-1.044.889-1.6a6.913,6.913,0,0,0,.516-2.486,9.155,9.155,0,0,0-.255-3.928c3.325-2.766,7.863-3.543,12.189-3.729s8.7.205,12.935-.715c1.243-.28,2.486-.665,3.8-.852,2.977-.435,6,.242,8.938.914a10.646,10.646,0,0,0,1.243,5.389,57.848,57.848,0,0,1,4.606,22.2Z" transform="translate(-312.456 -266.378)" fill="#33313f"/>
    <path id="Контур_181" data-name="Контур 181" d="M889.43,673.29l-7.142,16.061c-.329-2.088-.833-4.177-1.336-6.216l-.112.23v-.336l3.891-8.559Z" transform="translate(-343.742 -284.608)" opacity="0.1"/>
    <path id="Контур_182" data-name="Контур 182" d="M923.1,616.846a2.685,2.685,0,0,1-1.417.528,6.894,6.894,0,0,1-2.325-.317l-5.594-1.4a2.75,2.75,0,0,1-.51-.18c.093-.976.28-2.107.808-2.486.789-.528,3.151.18,4.046.3,1.541.211,3.108.46,4.612.752A12.318,12.318,0,0,1,923.1,616.846Z" transform="translate(-356.002 -261.68)" opacity="0.1"/>
    <path id="Контур_183" data-name="Контур 183" d="M927.472,558.6c.118.516.286,1.026.385,1.548a11.812,11.812,0,0,1-.13,3.847l-.51,3.555-.51,3.574-1.97,13.755-.485,3.406-.684,4.755a3.419,3.419,0,0,1-.3,1.144,2.381,2.381,0,0,1-1.945,1.15,7.048,7.048,0,0,1-2.325-.317l-5.594-1.4a1.754,1.754,0,0,1-.684-.28,1.349,1.349,0,0,1-.36-1.312c.081-.472.286-.914.354-1.386.137-.92-.249-1.865-.112-2.778a6.913,6.913,0,0,1,.621-1.672c1.865-4.121.783-8.932,1.417-13.407a20.324,20.324,0,0,1,4.314-9.6,27.551,27.551,0,0,1,4.761-4.674,9.582,9.582,0,0,1,2.679-1.865C927.522,556.408,927.286,557.819,927.472,558.6Z" transform="translate(-355.648 -240.41)" fill="#6c63ff"/>
    <path id="Контур_184" data-name="Контур 184" d="M865.059,471.749c-.41,1.305.23,2.741-.062,4.071-.317,1.467-1.7,2.486-2.089,3.959-.621,2.244,1.281,4.289,2.673,6.153,5.159,6.924,4.482,16.509,2.716,24.956a128.854,128.854,0,0,1-5.874,19.89,15.241,15.241,0,0,1-3.164,5.551c2.859-.821,5.9-1.647,8.764-.852,3.63,1.007,6.763,4.531,10.442,3.729,2.213-.491,3.766-2.455,5.755-3.543,3.729-2.008,8.223-.746,12.381-.1a4.861,4.861,0,0,0,2.7-.137,4.494,4.494,0,0,0,1.641-1.51,15.328,15.328,0,0,0,3.195-8.267,10.6,10.6,0,0,0-3.052-8.161A17.458,17.458,0,0,1,898.474,515a7.72,7.72,0,0,1-1.026-3.767c-.491-6.837,1.175-13.817-.541-20.431-.622-2.356-1.635-4.612-1.908-7.024-.342-3,.472-6.216-.721-8.963a8.79,8.79,0,0,0-5.24-4.525,28.705,28.705,0,0,0-6.986-1.243C878.646,468.765,866.482,467.3,865.059,471.749Z" transform="translate(-335.572 -207.069)" fill="#33313f"/>
    <g id="Сгруппировать_21" data-name="Сгруппировать 21" transform="translate(523.688 263.256)" opacity="0.1">
      <path id="Контур_185" data-name="Контур 185" d="M870.243,516.515a128.6,128.6,0,0,1-5.843,19.809c.429-.852.789-1.747,1.131-2.635A128.18,128.18,0,0,0,871.4,513.8c1.771-8.453,2.449-18.025-2.71-24.956-1.243-1.653-2.84-3.443-2.785-5.383a6.624,6.624,0,0,0-1.057,1.952c-.621,2.244,1.281,4.289,2.673,6.153C872.685,498.483,872.008,508.068,870.243,516.515Z" transform="translate(-861.205 -475.952)"/>
      <path id="Контур_186" data-name="Контур 186" d="M868.51,476.247a6.048,6.048,0,0,0,1.094-2.095,10.647,10.647,0,0,0-.075-2.772A2.99,2.99,0,0,0,868.5,472.8C868.131,473.9,868.554,475.1,868.51,476.247Z" transform="translate(-862.699 -471.38)"/>
      <path id="Контур_187" data-name="Контур 187" d="M902.117,567.962a4.473,4.473,0,0,1-1.641,1.5,4.748,4.748,0,0,1-2.7.137c-4.158-.622-8.7-1.9-12.381.106-2,1.082-3.543,3.046-5.762,3.543-3.673.821-6.806-2.7-10.436-3.729-2.573-.715-5.283-.124-7.875.622a10.858,10.858,0,0,1-2.057,2.971c2.859-.82,5.9-1.647,8.764-.851,3.63,1.007,6.762,4.531,10.442,3.729,2.213-.491,3.767-2.455,5.756-3.543,3.729-2.008,8.223-.746,12.381-.1a4.861,4.861,0,0,0,2.7-.137,4.494,4.494,0,0,0,1.641-1.51,16.7,16.7,0,0,0,2.573-4.923A18.073,18.073,0,0,1,902.117,567.962Z" transform="translate(-859.26 -507.105)"/>
    </g>
    <text id="Login_in_to_your_account" data-name="Login in to 
your account" transform="translate(1 51.664)" fill="#2f2e41" font-size="65" font-family="Montserrat-Bold, Montserrat" font-weight="700"><tspan x="0" y="0">Login in to </tspan><tspan x="0" y="79">your account</tspan></text>
  </g>
</svg>
