<svg xmlns="http://www.w3.org/2000/svg" xmlns:xlink="http://www.w3.org/1999/xlink" viewBox="0 0 737.21 504.04"><defs><style>.cls-1,.cls-2{fill:#6c63ff;}.cls-1,.cls-13,.cls-15{opacity:0.1;}.cls-1,.cls-13,.cls-16,.cls-6,.cls-7,.cls-8,.cls-9{isolation:isolate;}.cls-3{fill:#444053;}.cls-4{fill:#848393;}.cls-5{fill:#fff;}.cls-6{fill:#fa5959;}.cls-6,.cls-7,.cls-8{opacity:0.8;}.cls-7{fill:#fed253;}.cls-8{fill:#8ccf4d;}.cls-9{opacity:0.05;}.cls-10{fill:#3f3d56;}.cls-11{fill:url(#linear-gradient);}.cls-12{fill:#fbbebe;}.cls-14{fill:#33313f;}.cls-17{fill:#2f2e41;}</style><linearGradient id="linear-gradient" x1="507.15" y1="-227.98" x2="602.22" y2="-227.98" gradientTransform="matrix(1, 0, 0, -1, -16.91, 156.44)" gradientUnits="userSpaceOnUse"><stop offset="0" stop-color="gray" stop-opacity="0.25"/><stop offset="0.54" stop-color="gray" stop-opacity="0.12"/><stop offset="1" stop-color="gray" stop-opacity="0.1"/></linearGradient></defs><g id="Layer_2" data-name="Layer 2"><g id="login"><path class="cls-1" d="M422.59,72.12c-46.42.06-91.11-13.1-133.85-27.72S203.58,13.41,158,6.47C128.71,2,95.39,2.42,72.49,18.62,50.44,34.19,44.05,60,41,83.79c-2.31,17.92-3.38,36.73,5.29,53.12,6,11.38,16.34,20.75,23.61,31.6C95.23,206.23,80,254.42,55.33,293c-11.56,18.11-25.1,35.47-33.84,54.62S9.17,388.5,18.08,407.4c8.83,18.73,28.78,32.33,50.19,41.62,43.48,18.89,94.09,22.94,143.35,24.5,109,3.46,218.29-3.6,327.25-10.65,40.32-2.61,80.82-5.24,120.31-12.8,21.92-4.19,44.5-10.41,60-24.05C739,408.7,743,380.43,728.63,360.11c-24.08-34.09-87.57-40.52-104.84-77.4-9.52-20.3-1.31-43.58,10.78-63.15,25.94-42,70.58-79.61,71.34-126.58.51-32.25-22.7-63.71-57.38-77.73C612.18.57,562.63,4.34,537.16,31.71,511,59.9,463.58,72.08,422.59,72.12Z"/><path class="cls-2" d="M629.36,404.87s-7.64-5-15.2-1.45c0,0,2.33,4.48,11.91,4.06Z"/><path class="cls-2" d="M630.33,405.14s2.32,8.84-3.51,14.86c0,0-3.5-3.65,0-12.58Z"/><path class="cls-2" d="M639.82,396.65s-.57-7.53-17.56-5c0,0-.08,4.85,5.89,7.15S636.84,399.13,639.82,396.65Z"/><path class="cls-2" d="M640.89,396.6s7.17,2.3.77,18.23c0,0-4.74-1.05-5.59-7.4S637.74,398.91,640.89,396.6Z"/><path class="cls-2" d="M650.47,385.93s1-12.38-16.38-11.12c0,0-1.24,11.18,13.32,14.09Z"/><path class="cls-2" d="M662,372s-2.38-14-19.74-9.85c0,0-.06,12.13,16.9,13.19Z"/><path class="cls-2" d="M670.33,357.51s-4-13.67-21.18-9.58c0,0,4.09,12.29,20,12.1Z"/><path class="cls-2" d="M678.29,343.39s-3.89-14.18-20.49-9.93c0,0,5.54,13.47,19.39,12.33Z"/><path class="cls-2" d="M683.42,330s-3-17.34-18.47-13.5c0,0,4.5,15.77,17.34,16Z"/><path class="cls-2" d="M688.24,313.8s-3.6-17.48-19.26-12.42c0,0,6.14,16.52,18.14,14.81Z"/><path class="cls-2" d="M691.19,298.73s-5.7-17.48-17.81-17c0,0,5.83,18.47,16.8,20.5Z"/><path class="cls-2" d="M693.11,284S686.89,263,677,264.6c0,0,4.3,16.09,15.72,22.7Z"/><path class="cls-2" d="M694.19,266.48s-5.83-17.53-15.53-18.24c0,0,4,17.26,15.33,22.8Z"/><path class="cls-2" d="M695.36,250.11s-7.26-17.55-13.66-18c0,0,3.15,17.28,13,20.83Z"/><path class="cls-2" d="M696.16,234.88s-4.46-19.06-10.88-20.65c0,0,.88,15.6,10.24,22.08Z"/><path class="cls-2" d="M698.58,214.93s-4.69-15.2-9.89-17.52c0,0,1,17.92,8.7,21.23Z"/><path class="cls-2" d="M700.59,201.89l.94-26.8s-9.72,20.2-1.64,31.5Z"/><path class="cls-2" d="M708.09,175.24s7-19.57,8.7-20.66c0,0-13.73,12.69-12.39,29Z"/><path class="cls-2" d="M651,385.83s12.31-1.61,11.94,15.79c0,0-11.12,1.81-14.76-12.58Z"/><path class="cls-2" d="M662.53,371.48s14.22,0,13,17.76c0,0-11.94,2.14-15.88-14.39Z"/><path class="cls-2" d="M670.47,358.65s12.91-6,21.17,9.58c0,0-11.92,5-22.32-7.05Z"/><path class="cls-2" d="M678.58,343.52s13.22-6.44,21,8.83c0,0-13.78,4.75-22.08-6.41Z"/><path class="cls-2" d="M683.26,330.37s12.72-12.15,22.88.14c0,0-13,10-23.47,2.57Z"/><path class="cls-2" d="M687.52,313.38s12.8-12.42,22.87.57c0,0-14.37,10.21-23.33,2Z"/><path class="cls-2" d="M689.91,298.23s9.86-15.52,21.47-12.06c0,0-10.23,16.44-21.36,15.71Z"/><path class="cls-2" d="M692.81,283.93s9.94-19.56,19.34-16.15c0,0-7.16,15-19.59,19.44Z"/><path class="cls-2" d="M693.5,265.46s10.22-15.39,19.79-13.51c0,0-8.35,15.61-20.78,18Z"/><path class="cls-2" d="M694.3,249.77s7.92-17.28,14.35-17.4c0,0-3.8,17.15-13.82,20.33Z"/><path class="cls-2" d="M695.85,234.51S704.65,217,711.27,217c0,0-4.51,15-15.13,19.06Z"/><path class="cls-2" d="M697.17,216s6.59-14.47,12-16.11c0,0-3.29,17.64-11.31,20Z"/><path class="cls-2" d="M701.37,201.36l14.72-22.42s-3.77,22.11-16.87,26.71Z"/><path class="cls-2" d="M711.47,177s17.1-11.8,17.72-13.7c0,0-8.69,16.52-24.84,19.44Z"/><path class="cls-2" d="M712.5,171.73s19.63-18.87,24.64-18.85c0,0-16.19.74-25.12,17.85Z"/><path class="cls-3" d="M697.37,218.82l.71.1c3.69-28.88,9.07-46,15.14-48.06l-.23-.68C706.55,172.42,701.13,189.24,697.37,218.82Z"/><path class="cls-3" d="M691.94,287.88,693,288c.23-2.69.4-5.45.52-8.2,1-23.9,2.63-45.85,4.73-62.3l-.62-.78c-2.11,16.49-4.16,39.1-5.19,63C692.34,282.45,692.17,285.19,691.94,287.88Z"/><path class="cls-3" d="M609.21,418.64c.19-.08,19.21-8.57,38.95-28.83a156.72,156.72,0,0,0,28.48-40.37c9.13-18.59,14.7-41.44,16.56-63.63l-1.13.53c-4.19,49.81-26.86,83.85-44.89,102.39-19.56,20.08-38.37,28.49-38.55,28.57Z"/><path class="cls-4" d="M658.47,57H61.68a5.32,5.32,0,0,0-5.32,5.32V77.79H663.78V62.3A5.32,5.32,0,0,0,658.47,57Z"/><path class="cls-5" d="M56.36,77.79V426.36a10.71,10.71,0,0,0,10.72,10.72h586a10.71,10.71,0,0,0,10.72-10.72h0V77.79Z"/><circle class="cls-6" cx="65.98" cy="67.23" r="2.48"/><circle class="cls-7" cx="72.82" cy="67.23" r="2.48"/><circle class="cls-8" cx="79.65" cy="67.23" r="2.48"/><rect class="cls-9" x="112.83" y="135.91" width="488.17" height="214.66"/><rect class="cls-10" x="116.55" y="137.54" width="480.72" height="209.93"/><path class="cls-2" d="M247.6,191.56a47.83,47.83,0,1,0,47.82,47.83,47.82,47.82,0,0,0-47.82-47.83Zm8.58,49v22.64H239.27V240.54a14,14,0,1,1,16.91,0Z"/><path class="cls-9" d="M247.6,191.56a47.83,47.83,0,1,0,47.82,47.83,47.82,47.82,0,0,0-47.82-47.83Zm8.58,49v22.64H239.27V240.54a14,14,0,1,1,16.91,0Z"/><path class="cls-2" d="M247.6,177.9a61.49,61.49,0,1,0,61.49,61.49h0A61.49,61.49,0,0,0,247.6,177.9Zm11,63V270H236.89V240.87a18,18,0,1,1,25.23-3.5A18.36,18.36,0,0,1,258.63,240.87Z"/><rect class="cls-5" x="334.55" y="231.32" width="198.75" height="21.12"/><rect class="cls-2" x="490.45" y="269.83" width="42.85" height="21.12"/><path class="cls-2" d="M354.12,241.56h-3.6l3.2-3.19a.31.31,0,0,0,0-.44.31.31,0,0,0-.44,0h0l-3.2,3.2v-3.61a.31.31,0,0,0-.31-.31.32.32,0,0,0-.31.31v3.61l-3.19-3.22a.31.31,0,0,0-.44,0h0a.31.31,0,0,0,0,.44l3.19,3.19h-3.6a.33.33,0,0,0-.31.31.31.31,0,0,0,.31.31H349l-3.19,3.2a.31.31,0,1,0,.44.44l3.19-3.2v3.6a.31.31,0,1,0,.62,0v-3.6l3.2,3.2a.31.31,0,1,0,.44-.44l-3.2-3.2h3.6a.31.31,0,0,0,.31-.31A.32.32,0,0,0,354.12,241.56Z"/><path class="cls-2" d="M367.16,241.56h-3.6l3.2-3.19a.31.31,0,0,0,0-.44.3.3,0,0,0-.44,0h0l-3.2,3.2v-3.61a.31.31,0,0,0-.31-.31.33.33,0,0,0-.31.31v3.61l-3.19-3.22a.31.31,0,0,0-.44,0h0a.31.31,0,0,0,0,.44l3.2,3.19h-3.6a.33.33,0,0,0-.32.31.31.31,0,0,0,.32.31h3.6l-3.2,3.2a.31.31,0,0,0,.44.44l3.19-3.2v3.6a.31.31,0,0,0,.62,0v-3.6l3.2,3.2a.31.31,0,0,0,.44-.44l-3.2-3.2h3.6a.31.31,0,0,0,.31-.31A.32.32,0,0,0,367.16,241.56Z"/><path class="cls-2" d="M380.2,241.56h-3.59l3.2-3.19a.33.33,0,0,0,0-.44.3.3,0,0,0-.44,0h0l-3.19,3.2v-3.61a.31.31,0,0,0-.31-.31.33.33,0,0,0-.32.31v3.61l-3.19-3.22a.31.31,0,0,0-.44,0h0a.31.31,0,0,0,0,.44l3.2,3.19h-3.6a.32.32,0,0,0-.31.31.31.31,0,0,0,.31.31h3.6l-3.2,3.2a.31.31,0,1,0,.44.44l3.19-3.2v3.6a.32.32,0,0,0,.63,0v-3.6l3.19,3.2a.33.33,0,0,0,.45,0,.33.33,0,0,0,0-.44l-3.2-3.2h3.59a.31.31,0,0,0,.31-.31A.31.31,0,0,0,380.2,241.56Z"/><path class="cls-2" d="M393.25,241.56h-3.6l3.2-3.19a.31.31,0,0,0,0-.44.31.31,0,0,0-.44,0h0l-3.2,3.2v-3.61a.31.31,0,0,0-.31-.31.32.32,0,0,0-.31.31v3.61l-3.19-3.22a.31.31,0,0,0-.44,0h0a.33.33,0,0,0,0,.44l3.2,3.19h-3.6a.32.32,0,0,0-.31.31.31.31,0,0,0,.31.31h3.6l-3.2,3.2a.33.33,0,0,0,0,.44.33.33,0,0,0,.45,0l3.19-3.2v3.6a.31.31,0,1,0,.62,0v-3.6l3.2,3.2a.31.31,0,0,0,.44-.44l-3.2-3.2h3.6a.31.31,0,0,0,.31-.31A.32.32,0,0,0,393.25,241.56Z"/><path class="cls-2" d="M406.29,241.56h-3.6l3.2-3.19a.31.31,0,0,0,0-.44.31.31,0,0,0-.44,0h0l-3.2,3.2v-3.61a.31.31,0,0,0-.31-.31.32.32,0,0,0-.31.31v3.61l-3.19-3.22a.31.31,0,0,0-.44,0h0a.31.31,0,0,0,0,.44l3.2,3.19h-3.61a.33.33,0,0,0-.31.31.31.31,0,0,0,.31.31h3.61l-3.2,3.2a.31.31,0,0,0,.44.44l3.19-3.2v3.6a.31.31,0,0,0,.62,0v-3.6l3.2,3.2a.31.31,0,0,0,.44-.44l-3.2-3.2h3.6a.31.31,0,0,0,.31-.31A.32.32,0,0,0,406.29,241.56Z"/><path class="cls-2" d="M419.33,241.56h-3.59l3.19-3.19a.31.31,0,0,0,0-.44.3.3,0,0,0-.44,0h0l-3.2,3.2v-3.61a.31.31,0,0,0-.31-.31.33.33,0,0,0-.31.31v3.61l-3.19-3.22a.31.31,0,0,0-.44,0h0a.31.31,0,0,0,0,.44l3.2,3.19h-3.6a.32.32,0,0,0-.31.31.31.31,0,0,0,.31.31h3.6l-3.2,3.2a.31.31,0,1,0,.44.44l3.19-3.2v3.6a.31.31,0,0,0,.31.31.31.31,0,0,0,.31-.31v-3.6l3.2,3.2a.31.31,0,1,0,.44-.44l-3.19-3.2h3.59a.31.31,0,0,0,.31-.31A.31.31,0,0,0,419.33,241.56Z"/><path class="cls-2" d="M432.37,241.56h-3.59l3.2-3.19a.31.31,0,0,0,0-.44.31.31,0,0,0-.44,0h0l-3.2,3.2v-3.61a.31.31,0,0,0-.31-.31.32.32,0,0,0-.31.31v3.61l-3.2-3.22a.31.31,0,0,0-.44,0h0a.31.31,0,0,0,0,.44l3.2,3.19h-3.6a.32.32,0,0,0-.31.31.31.31,0,0,0,.31.31h3.6l-3.2,3.2a.31.31,0,1,0,.44.44l3.2-3.2v3.6a.31.31,0,1,0,.62,0v-3.6l3.2,3.2a.31.31,0,0,0,.44-.44l-3.2-3.2h3.59a.3.3,0,1,0,0-.6Z"/><path class="cls-2" d="M445.42,241.56h-3.6l3.2-3.19a.31.31,0,0,0,0-.44.31.31,0,0,0-.44,0h0l-3.2,3.2v-3.61a.31.31,0,0,0-.31-.31.32.32,0,0,0-.31.31v3.61l-3.19-3.22a.31.31,0,0,0-.44,0h0a.31.31,0,0,0,0,.44l3.19,3.19h-3.6a.32.32,0,0,0-.31.31.31.31,0,0,0,.31.31h3.6l-3.19,3.2a.31.31,0,0,0,.44.44l3.19-3.2v3.6a.31.31,0,0,0,.62,0v-3.6l3.2,3.2a.31.31,0,0,0,.44-.44l-3.2-3.2h3.6a.31.31,0,0,0,.31-.31A.32.32,0,0,0,445.42,241.56Z"/><path class="cls-2" d="M458.46,241.56h-3.6l3.2-3.19a.31.31,0,0,0,0-.44.31.31,0,0,0-.44,0h0l-3.2,3.2v-3.61a.31.31,0,0,0-.31-.31.32.32,0,0,0-.31.31v3.61l-3.19-3.22a.31.31,0,0,0-.44,0h0a.31.31,0,0,0,0,.44l3.2,3.19h-3.61a.33.33,0,0,0-.31.31.31.31,0,0,0,.31.31h3.61l-3.2,3.2a.31.31,0,1,0,.44.44l3.19-3.2v3.6a.31.31,0,1,0,.62,0v-3.6l3.2,3.2a.31.31,0,1,0,.44-.44l-3.2-3.2h3.6a.31.31,0,0,0,.31-.31A.32.32,0,0,0,458.46,241.56Z"/><path class="cls-2" d="M471.5,241.56h-3.59l3.2-3.19a.33.33,0,0,0,0-.44.3.3,0,0,0-.44,0h0l-3.19,3.2v-3.61a.31.31,0,0,0-.31-.31.33.33,0,0,0-.32.31v3.61l-3.19-3.22a.31.31,0,0,0-.44,0h0a.31.31,0,0,0,0,.44l3.2,3.19h-3.6a.32.32,0,0,0-.31.31.31.31,0,0,0,.31.31h3.6l-3.2,3.2a.31.31,0,1,0,.44.44l3.19-3.2v3.6a.32.32,0,0,0,.63,0v-3.6l3.19,3.2a.33.33,0,0,0,.45,0,.33.33,0,0,0,0-.44l-3.2-3.2h3.59a.31.31,0,0,0,.31-.31A.31.31,0,0,0,471.5,241.56Z"/><path class="cls-2" d="M484.55,241.56H481l3.2-3.19a.31.31,0,0,0,0-.44.31.31,0,0,0-.44,0h0l-3.2,3.2v-3.61a.31.31,0,0,0-.31-.31.32.32,0,0,0-.31.31v3.61l-3.2-3.22a.3.3,0,0,0-.43,0h0a.31.31,0,0,0,0,.44l3.2,3.19h-3.6a.32.32,0,0,0-.31.31.31.31,0,0,0,.31.31h3.6l-3.2,3.2a.31.31,0,0,0,.44.44l3.2-3.2v3.6a.31.31,0,0,0,.62,0v-3.6l3.2,3.2a.31.31,0,0,0,.44-.44l-3.2-3.2h3.6a.31.31,0,0,0,.31-.31A.32.32,0,0,0,484.55,241.56Z"/><path class="cls-11" d="M584.53,317.12a10.47,10.47,0,0,0-.28-2.23c-.55-2.1-1.82-4.64-3.89-5.28a32.18,32.18,0,0,1-6.17-2.61c-.38-6.65,1.15-13.47-.51-19.92-.62-2.36-1.65-4.62-1.92-7-.34-3,.48-6.21-.72-9a8.91,8.91,0,0,0-5.25-4.53,27.5,27.5,0,0,0-7-1.24c-3-.25-12.63-1.39-16,1.28h0a3.31,3.31,0,0,0-.62.62h0a3.45,3.45,0,0,0-.2.32l0,.05a2.83,2.83,0,0,0-.17.4h0a3.94,3.94,0,0,0-.1.47v1.12c0,.56.12,1.11.12,1.67a3.79,3.79,0,0,1-.07.82,5.9,5.9,0,0,1-1,2h0l-.12.16c-.06.1-.13.19-.2.29l-.16.26c-.05.09-.1.15-.14.23s-.11.21-.16.31-.07.12-.09.18a3.35,3.35,0,0,0-.19.53,3.41,3.41,0,0,0,0,1.65,6.19,6.19,0,0,0,.85,1.95c.16.26.33.51.5.76l.43.59a14.25,14.25,0,0,0-.13,1.74,12.82,12.82,0,0,0,4.91,10.09,37.83,37.83,0,0,1-.08,7.89c-.06.54-.12,1.1-.2,1.64s-.13.91-.2,1.36a6.41,6.41,0,0,1-2.72-.2,13.24,13.24,0,0,0-1.24-.48c-1.81-.45-3.65,1.35-5.44.8a.73.73,0,0,1-.08.25,2.46,2.46,0,0,0-1.24-.37,4.54,4.54,0,0,1-2.7-1.54l-2.37-2.23a1.9,1.9,0,0,1-.69-1.23,8.83,8.83,0,0,0-2.29-3.28,1.44,1.44,0,0,0-.68-.49.81.81,0,0,0-.31,0,1.64,1.64,0,0,0-.21-.25,5,5,0,0,0-.51-.52c-1.13-1.05-1.24-1.94-2.22-3.11a29.26,29.26,0,0,1-2.33-3.51c-.08-.65-.19-1.32-.33-2A24.62,24.62,0,0,0,519,281l-1.24-2.75-.14.14c-.9-1.34-1.86-2.08-2.73-1.9-1.45.3-2.16,3.1-1.93,6.77l.5,3.73a1,1,0,0,0,.07.28,6.7,6.7,0,0,0-.14,1.34c0,.52.48.91.74,1.37a3.91,3.91,0,0,1,.62,2.12c0,.27-.11.52-.13.78a3,3,0,0,0,.59,1.62l3.1,5.22.63,1.09,0,.05a2.74,2.74,0,0,0,.83,1,11.56,11.56,0,0,0,1,3.77c.11.23.22.46.35.68a22.07,22.07,0,0,0,2.93,3.81l1.48,1.65c1.46,1.63,2.92,3.27,4.5,4.77a6.15,6.15,0,0,0,2,1.41,2.28,2.28,0,0,0,2.26-.33v2.31a1.29,1.29,0,0,1,1,2,51.22,51.22,0,0,1-4.59,9.73,20.66,20.66,0,0,1,3.85,2.94,16.63,16.63,0,0,1,2,2.71c.06.46.1.91.13,1.37.46,7.4-2.4,14.75-5,21.8a16.84,16.84,0,0,0-1.48,6.18,11.49,11.49,0,0,0-1.4,1,9.1,9.1,0,0,1,.26,3.93,6.85,6.85,0,0,1-.52,2.49,16.69,16.69,0,0,1-.89,1.6c-1.61,2.83-2,6.21-2.29,9.45-.19,1.95.57,4.35-.32,6.1a25,25,0,0,0-3.1,9.55,9.88,9.88,0,0,1-.29,2.23c-.19.62-.53,1.15-.71,1.76a7.37,7.37,0,0,0-.12,2.48,23.7,23.7,0,0,1-1.31,8.76c-.77,2.22-1.63,4.59-1,6.87a9.68,9.68,0,0,0-2.63,5.77,8.27,8.27,0,0,1-.2,1.65,8.42,8.42,0,0,1-.74,1.58,13.85,13.85,0,0,0-1.69,7.46,20.55,20.55,0,0,0-3.35,8.74c-.55,3.1-.79,6.26-1.5,9.32-1,4.05-2.65,8.14-3,12.29-2,1.28-2.88,3.78-3.27,6.13s-.44,4.83-1.43,7c-.51,1.13-1.24,2.14-1.73,3.3a14.65,14.65,0,0,0-.74,2.84,11.11,11.11,0,0,0-.2,4.65,6.88,6.88,0,0,1-1.82,1.39c.1-.39.18-.77.25-1.16-1.6,1.45-4.51.94-5.79,2.69a2.62,2.62,0,0,0,.63,3.59,5,5,0,0,0,1.28.56c3.11,1,6.3,2,9.49,1.46a3,3,0,0,0,1.08-.34,3.61,3.61,0,0,0,1-1.16l1.42-2.27a29.92,29.92,0,0,0,3.49.81c.12,1,.2,2,.25,3,.62.12,1.45.16,1.74-.42a1.48,1.48,0,0,0,.11-.69c0-.44.06-1,.1-1.62h.12a11.85,11.85,0,0,0,5.5-1.11c-.67-5.51,1.53-10.88,3.43-16.09,2-5.48,3.72-11.05,5.46-16.63,1.24-3.93,2.61-7.73,3.83-11.66q2.29-7.45,4.61-14.91c.67-2.18,1.35-4.34,2.12-6.52a100.07,100.07,0,0,1,5.76-12.81c.62-1.17,1.24-2.33,1.75-3.55.62-1.49,1.06-3,1.56-4.57a69.28,69.28,0,0,1,3.9-9.18,1.67,1.67,0,0,1,.12-.23c.5,2.05,1,4.14,1.34,6.21a23.5,23.5,0,0,1,.1,7.67,25.85,25.85,0,0,0-.79,5.21c.09,2.43,1.39,4.63,2,7a26.85,26.85,0,0,1,.69,5.35c.18,2.79,1.69,5.93.63,8.52-3.33,8.2-1.72,17.47-3.61,26.08-1,4.42-4,8.58-3.73,13.1q.25,4.82.85,9.6a9,9,0,0,0,.77,2.92,11,11,0,0,0,.85,1.39c-.27.1-.5.38-.7,1a3.83,3.83,0,0,0,1.38,4.35,6,6,0,0,0,1.8.62,9.42,9.42,0,0,0,2.59.36,5.43,5.43,0,0,0,.81-.1,28.67,28.67,0,0,0,2.94,1.06,6.53,6.53,0,0,0,.08.76.93.93,0,0,0,.33.7.83.83,0,0,0,.49.09h3.38v-.84a2.8,2.8,0,0,0,2.14-.7,3.29,3.29,0,0,0,.62-1.29q1.38-4.68,2.74-9.36a29.72,29.72,0,0,0,1.33-10.68c-1.19-11.45,1.44-22.93.58-34.41a82.59,82.59,0,0,1,1.06-20.65,46.6,46.6,0,0,0,.74-4.64c.28-2.89-.06-5.82.15-8.69.06-1,.2-2,.32-3A143,143,0,0,0,572.69,391a58.48,58.48,0,0,0-.39-6.21,3.55,3.55,0,0,0,1.7-1,4.21,4.21,0,0,0,.4-2.65c0-2.2.93-4.27,1.67-6.35a73,73,0,0,0,2.35-8.73,31,31,0,0,0,1.05-7.3c0-.25,0-.49,0-.74a2.1,2.1,0,0,0,.57-.62,3.91,3.91,0,0,0,.3-1.15c.22-1.59.45-3.18.68-4.77.16-1.14.32-2.27.49-3.41l2-13.78.51-3.58.52-3.57c0-.42.11-.84.16-1.24C586.14,323.38,584.7,320,584.53,317.12Zm-16.47,51.6a11.35,11.35,0,0,1-1.25-5.4h-.06a2.83,2.83,0,0,0-.08-1.75c-.2-.46-.53-.84-.74-1.29a4.76,4.76,0,0,1-.33-1.74,46.85,46.85,0,0,1,.89-11.27l.24-1.31a3.46,3.46,0,0,0,.71-.55,4.84,4.84,0,0,0,.8-1.25q1.05-2.12,1.93-4.3c.2-.47.48-1,1-1.14-.09,3.64.28,7.34-1.2,10.62a6.79,6.79,0,0,0-.62,1.68c-.14.93.25,1.86.11,2.78-.07.48-.27.92-.35,1.39a1.34,1.34,0,0,0,.36,1.32,1.3,1.3,0,0,0,.26.14l-.09.74c-.05.51-.07,1-.1,1.29a38.71,38.71,0,0,0-.17,4.57c0,1.65.06,3.29,0,5a3.25,3.25,0,0,1-.23,1.41,2.36,2.36,0,0,1-.47.62,15.78,15.78,0,0,0-.59-1.53Z"/><ellipse class="cls-12" cx="517.04" cy="286.93" rx="3.5" ry="9.92" transform="translate(-47.07 109.63) rotate(-11.58)"/><path class="cls-10" d="M548,496.28a3.75,3.75,0,0,0,1.38,4.3,6.3,6.3,0,0,0,1.78.63,9.86,9.86,0,0,0,2.59.35c1.08-.05,2.11-.47,3.18-.62a.52.52,0,0,1,.37.05.49.49,0,0,1,.13.43c0,.61.06,1.22.14,1.83a.94.94,0,0,0,.32.7,1.08,1.08,0,0,0,.5.09h3.37a33.27,33.27,0,0,0-1-8.78,2.44,2.44,0,0,0-.25-.63,2.07,2.07,0,0,0-1.08-.62,6.08,6.08,0,0,0-2.6-.45,7.51,7.51,0,0,0-2.92,1.43,4.45,4.45,0,0,1-3.31.8C549.49,495.49,548.55,494.55,548,496.28Z"/><path class="cls-12" d="M498.54,493.55a9.07,9.07,0,0,1-3.39,2.31l-.57.28a.43.43,0,0,0-.2.15.32.32,0,0,0,.07.28,4,4,0,0,0,4.55,1.66,2.34,2.34,0,0,0,1-.52,3.21,3.21,0,0,0,.77-2,4.06,4.06,0,0,0-.09-2.29C499.82,491.47,499.5,492.36,498.54,493.55Z"/><path class="cls-10" d="M511.45,501.21a1.57,1.57,0,0,1-.1.68c-.3.58-1.11.55-1.74.42a42.62,42.62,0,0,0-.77-6.27c-1.2-.06-2.07,1.09-2.72,2.11l-1.66,2.64a3.35,3.35,0,0,1-1,1.15,2.87,2.87,0,0,1-1.07.35c-3.18.52-6.39-.48-9.46-1.47a4.87,4.87,0,0,1-1.29-.55,2.63,2.63,0,0,1-.62-3.59c1.29-1.73,4.18-1.24,5.78-2.68a14.44,14.44,0,0,1-.82,3c2.14-.32,3.58-2.28,5.31-3.59a3.2,3.2,0,0,1,1.52-.72,3.27,3.27,0,0,1,1.24.13,14.54,14.54,0,0,1,5.46,2.69,5.85,5.85,0,0,1,2,2C511.77,498.45,511.45,500.19,511.45,501.21Z"/><circle class="cls-12" cx="554.18" cy="283.45" r="12.83"/><path class="cls-10" d="M579.45,359.21a30.65,30.65,0,0,1-1,7.26,76.47,76.47,0,0,1-2.35,8.7c-.74,2.07-1.67,4.14-1.66,6.33a4.21,4.21,0,0,1-.41,2.65,3.89,3.89,0,0,1-1.81,1,2.24,2.24,0,0,0-1.53,1.36,9.65,9.65,0,0,1-1.29-2.85q-1.68-5.11-3.11-10.29a1.33,1.33,0,0,1,.09-1.24,1.62,1.62,0,0,1,.54-.31,5.55,5.55,0,0,0,1.72-1.1,2.57,2.57,0,0,0,.57-.74,3.36,3.36,0,0,0,.24-1.4c0-1.65,0-3.29,0-4.94a40.8,40.8,0,0,1,.17-4.55c0-.3.06-.77.11-1.28.09-1,.28-2.11.81-2.49.79-.53,3.15.18,4,.31,1.54.21,3.11.46,4.61.75A11.89,11.89,0,0,1,579.45,359.21Z"/><path class="cls-10" d="M527.64,297.82c-.49,1-1.69,1.47-2.61,2.1l-3.14,2.16a1.58,1.58,0,0,1-2.73-.55,0,0,0,0,0,0,0l-.65-1.1-3.1-5.2a2.92,2.92,0,0,1-.58-1.6,7.18,7.18,0,0,1,.12-.79,3.77,3.77,0,0,0-.62-2.11c-.25-.46-.75-.85-.74-1.37a5.1,5.1,0,0,1,.35-2,4,4,0,0,1,1.36-1.45c.29-.21.59-.41.9-.62a1.89,1.89,0,0,1,.54-.25c.52-.1,1,.32,1.55.34,2.24,1.51,3.1,4.35,4.87,6.4,1,1.17,1.09,2.06,2.22,3.11.18.16.35.33.52.51a3.54,3.54,0,0,1,.56.81C526.66,296.68,527.9,297.31,527.64,297.82Z"/><path class="cls-12" d="M549.67,296.29a11.7,11.7,0,0,1,1.38,6.26,3.85,3.85,0,0,1-.55,1.64c-.89,1.37-2.77,1.62-4.4,1.7a2.62,2.62,0,0,0-1.91.62,1.74,1.74,0,0,0,.12,2.13,4.76,4.76,0,0,0,1.9,1.24,16.78,16.78,0,0,0,8.18,1.81c1.3-.12,2.57-.5,3.87-.69a40.25,40.25,0,0,1,4.26-.24c1.69-.06,3.37-.23,5.05-.4l4.46-.44a1,1,0,0,0,.67-.24c.33-.38-.1-.95-.51-1.24-2.36-1.75-5.38-3-6.72-5.59a33.1,33.1,0,0,1-1.28-4.06,33.31,33.31,0,0,1-1.47-3.92,24.35,24.35,0,0,1-.21-3.62,4.86,4.86,0,0,0-1.24-3.3,5.18,5.18,0,0,0-3.38-1.09c-3-.13-6.13.58-8.24,2.67-.56.57-1,1.25-1.63,1.75s-1.38.66-1,1.33,1.14,1.09,1.55,1.68A15.5,15.5,0,0,1,549.67,296.29Z"/><path class="cls-10" d="M575,314.36a70,70,0,0,1-3.8,14,53.71,53.71,0,0,0-2.23,6.27c-.48,1.93-.39,4-.83,5.92-.55,2.41-1.09,4.82-1.53,7.24a47.63,47.63,0,0,0-.89,11.24,4.89,4.89,0,0,0,.34,1.73c.2.45.53.84.73,1.3a3.11,3.11,0,0,1-.18,2.48,7.34,7.34,0,0,1-1.28,1.94c-5.79,1.72-12,1.16-18,1.53-5.56.33-11.18,1.47-16.66.52-.62-2.48.42-5.08,1.31-7.51,2.58-7,5.43-14.36,5-21.73a22.23,22.23,0,0,0-.3-2.57c-.9-5.22.09-10.63,1.66-15.69a26.92,26.92,0,0,0,.7-9.8,18.23,18.23,0,0,1,0-3.22,5.69,5.69,0,0,1,1.17-3s0-.08.09-.13a1,1,0,0,1,.46,0h0a.34.34,0,0,0,.31,0l.07,0a.15.15,0,0,1,.18,0c.14.09.22.39.53.44a13.06,13.06,0,0,0,1.39.13,7.64,7.64,0,0,1,1.65.24h.08a5,5,0,0,0,2.41-.21,6.4,6.4,0,0,0,1.47-.57c.14-.15,1-.28,1.17-.39.57-.34.44-1.94.56-2.6a7.17,7.17,0,0,1,.47-1.93,3.27,3.27,0,0,1,2.66-1.54,14.2,14.2,0,0,1,3.18.28c2.32.33,4.69.28,7,.81,1.15.27,2.39.67,3.44.15.29.07.33.32.33.62a3.56,3.56,0,0,1-.17.85c-.4,1.71.95,3.29,2.19,4.53a7.14,7.14,0,0,0,1.83,1.46c.63.29,1.25.41,1.87.72a3.45,3.45,0,0,1,1.24,1.13,4.79,4.79,0,0,1,.71,1.81A10.9,10.9,0,0,1,575,314.36Z"/><path class="cls-13" d="M575,314.36a70,70,0,0,1-3.8,14,53.71,53.71,0,0,0-2.23,6.27c-.48,1.93-.39,4-.83,5.92-.55,2.41-1.09,4.82-1.53,7.24l-.41.2a9.47,9.47,0,0,1-2.43.79,15.09,15.09,0,0,1-4.55-.15l-8.86-1.19c-3.54-.48-7.31-1.05-9.94-3.45a21.08,21.08,0,0,1-3.46-4.73,22.23,22.23,0,0,0-.3-2.57c-.9-5.22.08-10.63,1.66-15.69a27,27,0,0,0,.7-9.81,18.11,18.11,0,0,1,0-3.21,5.69,5.69,0,0,1,1.17-3,4.88,4.88,0,0,1,.55-.12h0a2.47,2.47,0,0,1,.38-.05h.18a3.18,3.18,0,0,1,.62.07,13.24,13.24,0,0,1,1.24.48h.08a4.62,4.62,0,0,0,1.65.24c.82,0,1.66-.13,2.48-.19a4.59,4.59,0,0,1,3,.53,17.76,17.76,0,0,1,1.64,1.5,6.82,6.82,0,0,0,2.07,1.12,22,22,0,0,0,16.53-.35,3.31,3.31,0,0,1,1.66-.42,3.07,3.07,0,0,1,1.19.51c.37.22.74.43,1.12.62a4.73,4.73,0,0,1,.71,1.81A10.88,10.88,0,0,1,575,314.36Z"/><path class="cls-2" d="M580.37,310.25a33.33,33.33,0,0,1-7.08-3.11,3.23,3.23,0,0,0-1.19-.51,3.31,3.31,0,0,0-1.66.42,22,22,0,0,1-16.53.35,7.28,7.28,0,0,1-2.07-1.12,19.44,19.44,0,0,0-1.64-1.5c-2-1.32-4.87.23-7.15-.62-.41-.18-.82-.34-1.25-.48-1.8-.45-3.64,1.35-5.42.8a30.34,30.34,0,0,0-1.46,5.54,59.48,59.48,0,0,0-.4,6.54c0,1.31-.06,2.62,0,3.93a1.29,1.29,0,0,1,1,2,51.74,51.74,0,0,1-4.58,9.69,21.36,21.36,0,0,1,3.83,2.93c2.18,2.3,3.25,5.52,5.59,7.65,2.65,2.39,6.42,3,9.94,3.44l8.86,1.19a15.49,15.49,0,0,0,4.56.16,9.8,9.8,0,0,0,2.42-.79,4.3,4.3,0,0,0,1.36-.9,4.78,4.78,0,0,0,.8-1.24c.7-1.4,1.34-2.84,1.93-4.29.21-.52.52-1.12,1.08-1.16,3.29-3,6.39-6,9.69-9a21.89,21.89,0,0,0,3.53-3.73c1.63-2.42.15-5.84,0-8.76a11,11,0,0,0-.28-2.21C583.7,313.41,582.44,310.87,580.37,310.25Z"/><path class="cls-13" d="M527.64,297.82c-.49,1-1.69,1.47-2.61,2.1l-3.14,2.16a1.58,1.58,0,0,1-2.73-.55v-.45a4.34,4.34,0,0,1,.2-1.48,4.62,4.62,0,0,1,1.39-1.79,11.32,11.32,0,0,1,4.09-2.49,1.33,1.33,0,0,1,.74-.07.66.66,0,0,1,.27.12,3.39,3.39,0,0,1,.56.8C526.66,296.68,527.9,297.31,527.64,297.82Z"/><path class="cls-2" d="M535.06,304.36a4.45,4.45,0,0,1-2.69-1.54L530,300.64a2,2,0,0,1-.41-.46,3,3,0,0,1-.29-.77,8.7,8.7,0,0,0-2.29-3.27,1.48,1.48,0,0,0-.67-.49,1.27,1.27,0,0,0-.75.08,11.3,11.3,0,0,0-4.09,2.48,4.7,4.7,0,0,0-1.39,1.79,4.38,4.38,0,0,0-.2,1.48,11.5,11.5,0,0,0,1.09,4.75c.1.23.22.46.34.68a21.94,21.94,0,0,0,2.92,3.8l1.48,1.65c1.45,1.63,2.91,3.25,4.48,4.75a6,6,0,0,0,2,1.4,2.24,2.24,0,0,0,2.31-.37,3.35,3.35,0,0,0,.66-1.18,23.48,23.48,0,0,0,1.92-7.74A31.41,31.41,0,0,0,537,306C536.92,304.87,536.11,304.43,535.06,304.36Z"/><path class="cls-14" d="M572.7,391.32A144.06,144.06,0,0,1,571.37,410c-.13,1-.26,2-.33,3-.21,2.9.13,5.82-.15,8.7-.14,1.56-.46,3.1-.73,4.63a82,82,0,0,0-1.06,20.58c.86,11.45-1.77,22.9-.58,34.32a27.87,27.87,0,0,1-.36,6.64,28.92,28.92,0,0,1-1,4q-1.35,4.67-2.73,9.32a3.29,3.29,0,0,1-.62,1.29,3,3,0,0,1-2.33.69c-3.58-.11-7-1.66-10.21-3.17a3.87,3.87,0,0,1-1-.62c-.67-.7-.62-1.81-.91-2.73a25.91,25.91,0,0,0-1.57-2.75,8.89,8.89,0,0,1-.68-2.82c-.41-3.18-.69-6.38-.84-9.58-.24-4.51,2.74-8.66,3.73-13,1.86-8.62.28-17.87,3.59-26,1-2.58-.47-5.71-.62-8.49a26.57,26.57,0,0,0-.7-5.33c-.62-2.34-1.93-4.54-2-7a25.46,25.46,0,0,1,.79-5.18,23.17,23.17,0,0,0-.11-7.66c-.33-2.09-.83-4.18-1.33-6.21l-.11.23a69,69,0,0,0-3.9,9.16c-.5,1.52-.93,3.07-1.55,4.55-.51,1.24-1.14,2.38-1.75,3.55a100.75,100.75,0,0,0-5.75,12.76c-.77,2.15-1.44,4.35-2.12,6.5l-4.6,14.91c-1.24,3.92-2.6,7.71-3.82,11.62-1.72,5.59-3.44,11.13-5.44,16.6-1.86,5.18-4.08,10.55-3.41,16a11.71,11.71,0,0,1-5.49,1.11,31.8,31.8,0,0,1-9.31-2.26,7.26,7.26,0,0,1-3.22-1.91c-1.38-1.68-1-4.15-.62-6.29a14.37,14.37,0,0,1,.74-2.83c.47-1.15,1.24-2.16,1.73-3.29,1-2.17,1-4.62,1.42-7s1.24-4.84,3.26-6.12c.34-4.14,2-8.22,3-12.26.71-3.06.94-6.21,1.5-9.32a20.49,20.49,0,0,1,3.34-8.73,13.83,13.83,0,0,1,1.68-7.45,7.33,7.33,0,0,0,.74-1.58,8.26,8.26,0,0,0,.2-1.64,9.73,9.73,0,0,1,2.62-5.76c-.62-2.27.25-4.63,1-6.83a23.84,23.84,0,0,0,1.31-8.74,7.64,7.64,0,0,1,.11-2.48c.18-.62.52-1.15.72-1.75a9.87,9.87,0,0,0,.28-2.23,25.81,25.81,0,0,1,3.1-9.53c.9-1.75.14-4.13.33-6.08.32-3.24.67-6.59,2.28-9.42.3-.53.62-1,.89-1.59a7.11,7.11,0,0,0,.52-2.49,9.2,9.2,0,0,0-.26-3.92c3.32-2.77,7.86-3.54,12.18-3.73s8.7.2,12.93-.72c1.24-.27,2.48-.66,3.79-.85,3-.43,6,.25,8.93.92a10.71,10.71,0,0,0,1.24,5.38A57.77,57.77,0,0,1,572.7,391.32Z"/><path class="cls-13" d="M558.07,392.74l-7.14,16.05c-.33-2.09-.83-4.18-1.33-6.21l-.11.23v-.34l3.88-8.55Z"/><path class="cls-13" d="M579.45,359.21a2.68,2.68,0,0,1-1.41.53,6.84,6.84,0,0,1-2.33-.32L570.12,358a4.24,4.24,0,0,1-.5-.18c.09-1,.27-2.11.8-2.49.79-.53,3.15.18,4.05.31,1.54.21,3.1.46,4.6.75A11.94,11.94,0,0,1,579.45,359.21Z"/><path class="cls-2" d="M584.18,322.26c.12.51.29,1,.39,1.54a11.86,11.86,0,0,1-.14,3.85l-.5,3.55-.51,3.57-2,13.75-.49,3.4-.68,4.75a3.32,3.32,0,0,1-.3,1.15A2.37,2.37,0,0,1,578,359a7.09,7.09,0,0,1-2.33-.31l-5.59-1.41a1.61,1.61,0,0,1-.68-.28,1.35,1.35,0,0,1-.36-1.31c.08-.47.29-.91.36-1.38.13-.92-.25-1.86-.12-2.78a7.62,7.62,0,0,1,.62-1.67c1.87-4.12.79-8.92,1.42-13.39a20.33,20.33,0,0,1,4.31-9.59,27,27,0,0,1,4.76-4.67,9.26,9.26,0,0,1,2.68-1.87C584.23,320.07,584,321.48,584.18,322.26Z"/><path class="cls-14" d="M541.88,268.76c-.41,1.3.23,2.74-.06,4.07s-1.7,2.48-2.09,3.95c-.62,2.24,1.28,4.29,2.67,6.15,5.15,6.92,4.48,16.5,2.71,24.94a128.33,128.33,0,0,1-5.87,19.87,15.07,15.07,0,0,1-3.16,5.55c2.86-.82,5.9-1.65,8.76-.85,3.63,1,6.76,4.53,10.43,3.72,2.22-.49,3.77-2.45,5.76-3.54,3.72-2,8.21-.74,12.37-.09a4.87,4.87,0,0,0,2.7-.14,4.57,4.57,0,0,0,1.64-1.51,15.36,15.36,0,0,0,3.19-8.26,10.6,10.6,0,0,0-3-8.16,17.1,17.1,0,0,1-2.61-2.48,7.77,7.77,0,0,1-1-3.76c-.49-6.84,1.18-13.81-.54-20.42-.62-2.35-1.63-4.61-1.9-7-.35-3,.47-6.21-.72-8.95a8.83,8.83,0,0,0-5.24-4.53,29.29,29.29,0,0,0-7-1.24C555.45,265.78,543.3,264.32,541.88,268.76Z"/><g class="cls-15"><path d="M545.11,307.87a128.67,128.67,0,0,1-5.83,19.79c.42-.85.78-1.74,1.13-2.63a128.45,128.45,0,0,0,5.87-19.88c1.77-8.44,2.44-18-2.71-24.93-1.25-1.65-2.84-3.44-2.79-5.38a6.68,6.68,0,0,0-1,2c-.62,2.24,1.28,4.28,2.67,6.15C547.55,289.85,546.88,299.43,545.11,307.87Z"/><path d="M541.89,272.2a6,6,0,0,0,1.09-2.09,10.69,10.69,0,0,0-.07-2.77,2.93,2.93,0,0,0-1,1.42C541.51,269.86,541.93,271.05,541.89,272.2Z"/><path d="M578.91,328.15a4.54,4.54,0,0,1-1.64,1.5,4.78,4.78,0,0,1-2.7.14c-4.16-.63-8.7-1.9-12.38.1-2,1.08-3.54,3-5.75,3.54-3.67.82-6.8-2.7-10.43-3.72-2.57-.72-5.28-.13-7.87.62a11.06,11.06,0,0,1-2.06,3c2.86-.82,5.9-1.65,8.76-.86,3.63,1,6.76,4.53,10.43,3.73,2.22-.49,3.77-2.45,5.76-3.54,3.72-2,8.21-.74,12.37-.1a4.78,4.78,0,0,0,2.7-.14,4.46,4.46,0,0,0,1.64-1.5,17,17,0,0,0,2.57-4.92A17.93,17.93,0,0,1,578.91,328.15Z"/></g><g class="cls-16"><path class="cls-17" d="M40,80.66,24.25,117.77c-3.38,8.45-8.19,11-14.5,11-3.57,0-7.48-1.17-9.75-3.19l3.71-7.21a9,9,0,0,0,5.72,2.21c2.79,0,4.35-1.24,5.72-4.36l.13-.32L.13,80.66H10.6l9.81,23.72,9.88-23.72Z"/><path class="cls-17" d="M40.62,98.14c0-10.53,8.13-18,19.25-18S79,87.61,79,98.14s-8.06,18-19.17,18S40.62,108.67,40.62,98.14Zm28.15,0c0-6-3.83-9.68-8.9-9.68s-9,3.64-9,9.68,3.89,9.69,9,9.69S68.77,104.19,68.77,98.14Z"/><path class="cls-17" d="M121,80.66v35h-9.62v-4.16a14.15,14.15,0,0,1-10.86,4.68c-8.77,0-15-4.94-15-15.73V80.66H95.74V98.92c0,5.85,2.6,8.45,7.09,8.45,4.68,0,8.06-3,8.06-9.42V80.66Z"/><path class="cls-17" d="M152.17,80.14V89.5c-.85-.07-1.5-.13-2.28-.13-5.59,0-9.3,3-9.3,9.75v16.51H130.45v-35h9.69v4.61C142.61,81.89,146.77,80.14,152.17,80.14Z"/><path class="cls-17" d="M207.81,95.67v20h-9.5v-4.36c-1.88,3.19-5.52,4.88-10.66,4.88-8.19,0-13.06-4.55-13.06-10.6s4.35-10.46,15-10.46h8.07c0-4.36-2.61-6.89-8.07-6.89a16.77,16.77,0,0,0-10.07,3.25l-3.64-7.09c3.83-2.73,9.49-4.22,15.08-4.22C201.63,80.14,207.81,85.08,207.81,95.67Zm-10.14,8.91V101h-7c-4.75,0-6.24,1.76-6.24,4.1,0,2.53,2.14,4.22,5.72,4.22C193.57,109.32,196.5,107.76,197.67,104.58Z"/><path class="cls-17" d="M214.76,98.14c0-10.53,8.12-18,19.5-18,7.34,0,13.13,3.18,15.66,8.9l-7.86,4.23a8.72,8.72,0,0,0-7.87-4.81c-5.13,0-9.16,3.57-9.16,9.68s4,9.69,9.16,9.69a8.61,8.61,0,0,0,7.87-4.81l7.86,4.29c-2.53,5.59-8.32,8.84-15.66,8.84C222.88,116.15,214.76,108.67,214.76,98.14Z"/><path class="cls-17" d="M252.72,98.14c0-10.53,8.12-18,19.5-18,7.34,0,13.13,3.18,15.66,8.9L280,93.27a8.72,8.72,0,0,0-7.87-4.81C267,88.46,263,92,263,98.14s4,9.69,9.16,9.69A8.61,8.61,0,0,0,280,103l7.86,4.29c-2.53,5.59-8.32,8.84-15.66,8.84C260.84,116.15,252.72,108.67,252.72,98.14Z"/><path class="cls-17" d="M290.68,98.14c0-10.53,8.12-18,19.24-18s19.17,7.47,19.17,18-8.06,18-19.17,18S290.68,108.67,290.68,98.14Zm28.14,0c0-6-3.83-9.68-8.9-9.68s-9,3.64-9,9.68,3.9,9.69,9,9.69S318.82,104.19,318.82,98.14Z"/><path class="cls-17" d="M371.08,80.66v35h-9.62v-4.16a14.15,14.15,0,0,1-10.85,4.68c-8.78,0-14.95-4.94-14.95-15.73V80.66H345.8V98.92c0,5.85,2.6,8.45,7.08,8.45,4.68,0,8.06-3,8.06-9.42V80.66Z"/><path class="cls-17" d="M416.26,95.61v20H406.12V97.17c0-5.66-2.6-8.26-7.09-8.26-4.87,0-8.38,3-8.38,9.43v17.29H380.51v-35h9.68v4.09c2.73-3,6.83-4.61,11.57-4.61C410,80.14,416.26,85,416.26,95.61Z"/><path class="cls-17" d="M448,113.94a14.55,14.55,0,0,1-8.26,2.21c-8.25,0-13.06-4.23-13.06-12.55V89.24h-5.4v-7.8h5.4V72.92H436.8v8.52h8.71v7.8H436.8v14.23c0,3,1.62,4.62,4.35,4.62a6.88,6.88,0,0,0,4.1-1.3Z"/><path class="cls-17" d="M6,5.66H16.58V42.58H39.39v8.58H6Z"/><path class="cls-17" d="M41.73,33.67c0-10.53,8.12-18,19.24-18s19.18,7.47,19.18,18-8.06,18-19.18,18S41.73,44.2,41.73,33.67Zm28.15,0C69.88,27.63,66,24,61,24s-9,3.64-9,9.68,3.9,9.69,9,9.69S69.88,39.72,69.88,33.67Z"/><path class="cls-17" d="M123,16.19V45.31c0,13-7,19-19.63,19-6.63,0-13.07-1.63-17.16-4.81l4-7.28a20.92,20.92,0,0,0,12.35,4c7.15,0,10.27-3.25,10.27-9.55v-1.5c-2.66,2.93-6.5,4.36-11,4.36-9.69,0-17.49-6.7-17.49-16.9s7.8-16.9,17.49-16.9c4.88,0,8.91,1.62,11.57,5V16.19ZM113,32.57c0-5.14-3.83-8.58-9.16-8.58s-9.24,3.44-9.24,8.58,3.9,8.58,9.24,8.58S113,37.7,113,32.57Z"/><path class="cls-17" d="M131.17,5.66c0-3.19,2.53-5.66,6.3-5.66s6.31,2.34,6.31,5.46c0,3.38-2.54,5.85-6.31,5.85S131.17,8.84,131.17,5.66Zm1.23,10.53h10.14v35H132.4Z"/><path class="cls-17" d="M187.72,31.14v20H177.58V32.7c0-5.66-2.6-8.26-7.09-8.26-4.87,0-8.38,3-8.38,9.43V51.16H152v-35h9.68v4.09c2.73-3,6.83-4.61,11.57-4.61C181.48,15.67,187.72,20.48,187.72,31.14Z"/><path class="cls-17" d="M214,5.66C214,2.47,216.58,0,220.35,0s6.3,2.34,6.3,5.46c0,3.38-2.53,5.85-6.3,5.85S214,8.84,214,5.66Zm1.24,10.53h10.14v35H215.28Z"/><path class="cls-17" d="M270.59,31.14v20H260.45V32.7c0-5.66-2.6-8.26-7.08-8.26-4.88,0-8.39,3-8.39,9.43V51.16H234.84v-35h9.69v4.09c2.73-3,6.82-4.61,11.57-4.61C264.35,15.67,270.59,20.48,270.59,31.14Z"/><path class="cls-17" d="M320.71,49.47a14.55,14.55,0,0,1-8.26,2.21c-8.25,0-13.06-4.23-13.06-12.55V24.77H294V17h5.4V8.45h10.14V17h8.71v7.8h-8.71V39c0,3,1.62,4.62,4.35,4.62a6.88,6.88,0,0,0,4.1-1.3Z"/><path class="cls-17" d="M322.72,33.67c0-10.53,8.13-18,19.24-18s19.18,7.47,19.18,18-8.06,18-19.18,18S322.72,44.2,322.72,33.67Zm28.15,0c0-6-3.84-9.68-8.91-9.68s-9,3.64-9,9.68,3.9,9.69,9,9.69S350.87,39.72,350.87,33.67Z"/></g></g></g></svg>