<svg xmlns="http://www.w3.org/2000/svg" xmlns:xlink="http://www.w3.org/1999/xlink" width="702.604" height="377.44" viewBox="0 0 702.604 377.44">
  <defs>
    <linearGradient id="linear-gradient" x1="0.5" y1="1" x2="0.5" gradientUnits="objectBoundingBox">
      <stop offset="0" stop-color="gray" stop-opacity="0.251"/>
      <stop offset="0.54" stop-color="gray" stop-opacity="0.122"/>
      <stop offset="1" stop-color="gray" stop-opacity="0.102"/>
    </linearGradient>
  </defs>
  <g id="player-overlay" transform="translate(59.848 0.002)">
    <path id="Контур_219" data-name="Контур 219" d="M650.319,462.805c-.6.441-1.224.866-1.849,1.285a62.027,62.027,0,0,1-7.213,4.162C628.15,474.79,612,477.98,596.27,480.148c-35.282,4.872-71.307,5.816-107.182,6.744-96.918,2.52-194.093,5.028-290.766-.771-38.193-2.291-77.241-6.146-111.858-17.879q-7.436-2.52-14.593-5.553a122.374,122.374,0,0,1-26.611-15.04C38,442.061,32.153,435.636,28.645,428.339c-7.319-15.208-3.447-32.287,4.905-47.188a145.855,145.855,0,0,1,11.733-17.32c6.436-8.392,13.537-16.521,20.03-24.9,23.086-29.846,38.148-67.542,16.839-98.114-6.146-8.783-14.979-16.493-19.968-25.661-6.375-11.733-5.878-24.756-3.849-37.433.257-1.6.559-3.185.832-4.771,3.481-18.756,9.962-38.97,30.025-50.68,20.84-12.169,50.423-11.554,76.3-7.2,40.227,6.771,77.336,20.912,114.808,33.684s76.721,24.438,117.931,25.7c36.383,1.117,78.827-7.191,102.975-28.751,23.466-20.94,67.547-22.533,99.337-9.883,21.789,8.682,38.076,24.32,44.942,41.9a52.378,52.378,0,0,1,2.989,10.917,47.781,47.781,0,0,1,.559,10.3,45.837,45.837,0,0,1-.559,5.028c-5.308,34.712-43.529,62.089-66.759,93.1-11.353,15.146-19.37,33.338-11.565,49.669,11.906,24.885,53.311,33.729,78.325,52.255a57.117,57.117,0,0,1,12.291,11.923C672.857,427.4,668.382,449.659,650.319,462.805Z" transform="translate(-24.78 -112.22)" fill="#6c63ff" opacity="0.1"/>
    <ellipse id="Эллипс_24" data-name="Эллипс 24" cx="150.649" cy="5.118" rx="150.649" ry="5.118" transform="translate(149.759 358.43)" fill="#6c63ff" opacity="0.1"/>
    <g id="flowers" transform="translate(417.398 178.023)">
      <path id="Контур_220" data-name="Контур 220" d="M776.7,638.817s32.4-41.048,29.9-81.85a79.269,79.269,0,0,1,12.588-48.523,132.913,132.913,0,0,1,15.23-19.024" transform="translate(-774 -456.702)" fill="none" stroke="#535461" stroke-miterlimit="10" stroke-width="2"/>
      <path id="Контур_221" data-name="Контур 221" d="M876.837,437.849c-2.291,5.71,1.391,26.4,1.391,26.4s16.979-12.4,19.27-18.1a11.138,11.138,0,0,0-20.672-8.3Z" transform="translate(-817.859 -430.858)" fill="#6c63ff"/>
      <path id="Контур_222" data-name="Контур 222" d="M823.975,477.18c1.179,6.034,15.521,21.4,15.521,21.4s7.515-19.633,6.336-25.667a11.135,11.135,0,1,0-21.857,4.263Z" transform="translate(-794.77 -445.445)" fill="#6c63ff"/>
      <path id="Контур_223" data-name="Контур 223" d="M784.457,570.236c4.062,4.615,24.2,10.615,24.2,10.615s-3.425-20.739-7.487-25.354a11.132,11.132,0,0,0-16.711,14.711Z" transform="translate(-776.198 -484.195)" fill="#6c63ff"/>
      <path id="Контур_224" data-name="Контур 224" d="M773.523,651.382c3.224,5.235,22.058,14.582,22.058,14.582s.129-21.024-3.1-26.259a11.135,11.135,0,1,0-18.963,11.677Z" transform="translate(-771.867 -520.684)" fill="#6c63ff"/>
      <path id="Контур_225" data-name="Контур 225" d="M869.14,526.616c-5.693,2.33-26.41-1.212-26.41-1.212s12.291-17.063,17.968-19.393a11.134,11.134,0,1,1,8.443,20.606Z" transform="translate(-803.139 -463.654)" fill="#6c63ff"/>
      <path id="Контур_226" data-name="Контур 226" d="M855.38,619.294c-6.146.525-24.84-9.057-24.84-9.057s16.823-12.6,22.946-13.13A11.134,11.134,0,1,1,855.38,619.3Z" transform="translate(-797.759 -504.205)" fill="#6c63ff"/>
      <path id="Контур_227" data-name="Контур 227" d="M827.378,708.293c-5.95,1.548-26.008-4.732-26.008-4.732s14.448-15.264,20.4-16.817a11.135,11.135,0,0,1,5.587,21.549Z" transform="translate(-784.887 -543.653)" fill="#6c63ff"/>
      <path id="Контур_228" data-name="Контур 228" d="M876.837,437.849c-2.291,5.71,1.391,26.4,1.391,26.4s16.979-12.4,19.27-18.1a11.138,11.138,0,0,0-20.672-8.3Z" transform="translate(-817.859 -430.858)" opacity="0.25"/>
      <path id="Контур_229" data-name="Контур 229" d="M823.975,477.18c1.179,6.034,15.521,21.4,15.521,21.4s7.515-19.633,6.336-25.667a11.135,11.135,0,1,0-21.857,4.263Z" transform="translate(-794.77 -445.445)" opacity="0.25"/>
      <path id="Контур_230" data-name="Контур 230" d="M784.457,570.236c4.062,4.615,24.2,10.615,24.2,10.615s-3.425-20.739-7.487-25.354a11.132,11.132,0,0,0-16.711,14.711Z" transform="translate(-776.198 -484.195)" opacity="0.25"/>
      <path id="Контур_231" data-name="Контур 231" d="M773.523,651.382c3.224,5.235,22.058,14.582,22.058,14.582s.129-21.024-3.1-26.259a11.135,11.135,0,1,0-18.963,11.677Z" transform="translate(-771.867 -520.684)" opacity="0.25"/>
      <path id="Контур_232" data-name="Контур 232" d="M869.14,526.616c-5.693,2.33-26.41-1.212-26.41-1.212s12.291-17.063,17.968-19.393a11.134,11.134,0,1,1,8.443,20.606Z" transform="translate(-803.139 -463.654)" opacity="0.25"/>
      <path id="Контур_233" data-name="Контур 233" d="M855.38,619.294c-6.146.525-24.84-9.057-24.84-9.057s16.823-12.6,22.946-13.13A11.134,11.134,0,1,1,855.38,619.3Z" transform="translate(-797.759 -504.205)" opacity="0.25"/>
      <path id="Контур_234" data-name="Контур 234" d="M827.378,708.293c-5.95,1.548-26.008-4.732-26.008-4.732s14.448-15.264,20.4-16.817a11.135,11.135,0,0,1,5.587,21.549Z" transform="translate(-784.887 -543.653)" opacity="0.25"/>
      <path id="Контур_235" data-name="Контур 235" d="M777.2,664.343s46.261-24.387,60.5-62.709a79.37,79.37,0,0,1,31.17-39.26,133.3,133.3,0,0,1,21.639-11.224" transform="translate(-774.221 -483.943)" fill="none" stroke="#535461" stroke-miterlimit="10" stroke-width="2"/>
      <path id="Контур_236" data-name="Контур 236" d="M988.855,505.509c-4.4,4.285-9.425,24.7-9.425,24.7s20.544-4.47,24.952-8.738a11.134,11.134,0,1,0-15.527-15.963Z" transform="translate(-863.464 -462.41)" fill="#6c63ff"/>
      <path id="Контур_237" data-name="Контур 237" d="M929.5,520.072c-1.369,5.995,5.514,25.857,5.514,25.857s14.822-14.9,16.2-20.9a11.134,11.134,0,1,0-21.708-4.962Z" transform="translate(-841.35 -466.408)" fill="#6c63ff"/>
      <path id="Контур_238" data-name="Контур 238" d="M855.538,588.982c1.844,5.866,17.811,19.555,17.811,19.555s5.274-20.348,3.43-26.214a11.135,11.135,0,1,0-21.231,6.7Z" transform="translate(-808.533 -494.158)" fill="#6c63ff"/>
      <path id="Контур_239" data-name="Контур 239" d="M812.7,658.891c.827,6.09,14.253,22.264,14.253,22.264s8.638-19.164,7.822-25.259a11.136,11.136,0,1,0-22.069,2.995Z" transform="translate(-789.845 -525.913)" fill="#6c63ff"/>
      <path id="Контур_240" data-name="Контур 240" d="M948.466,587.087c-6.146-.173-23.656-11.811-23.656-11.811s18.141-10.615,24.287-10.448a11.134,11.134,0,1,1-.631,22.26Z" transform="translate(-839.36 -489.978)" fill="#6c63ff"/>
      <path id="Контур_241" data-name="Контур 241" d="M900.6,666.874c-5.81-2.006-19.035-18.342-19.035-18.342s20.482-4.71,26.3-2.7a11.135,11.135,0,0,1-7.263,21.046Z" transform="translate(-820.274 -525.504)" fill="#6c63ff"/>
      <path id="Контур_242" data-name="Контур 242" d="M837.728,736.577c-6.068-.995-21.868-14.862-21.868-14.862s19.4-8.107,25.466-7.112a11.134,11.134,0,1,1-3.6,21.975Z" transform="translate(-791.281 -556.037)" fill="#6c63ff"/>
    </g>
    <path id="Контур_243" data-name="Контур 243" d="M682.352,486.614H677.4L641.147,299.488,636.5,486.614h-5.263L625.347,299.8,590.026,486.614H584.45L608.457,294.28l.782-6.252,47.093-5.269,1.464,11.52Z" transform="translate(-257.917 -124.782)" fill="#464353"/>
    <rect id="Прямоугольник_113" data-name="Прямоугольник 113" width="29.974" height="18.588" transform="translate(294.424 120.467)" fill="#464353"/>
    <path id="Контур_244" data-name="Контур 244" d="M863.05,307.509l18.124-7.319h3.972a2.184,2.184,0,0,1,2.184,2.185v51.043a2.184,2.184,0,0,1-2.184,2.185h-3.972l-18.124-7.548Z" transform="translate(-394.707 -195.171)" fill="#464353"/>
    <rect id="Прямоугольник_114" data-name="Прямоугольник 114" width="37.059" height="35.897" transform="translate(431.284 114.662)" fill="#464353"/>
    <rect id="Прямоугольник_115" data-name="Прямоугольник 115" width="23.857" height="4.336" transform="translate(366.955 47.237)" fill="#514e7f"/>
    <rect id="Прямоугольник_116" data-name="Прямоугольник 116" width="67.151" height="49.026" transform="translate(339.735 52.852)" fill="#514e7f"/>
    <rect id="Прямоугольник_117" data-name="Прямоугольник 117" width="67.151" height="5.811" transform="translate(339.735 96.074)" opacity="0.1"/>
    <rect id="Прямоугольник_118" data-name="Прямоугольник 118" width="1.503" height="35.897" transform="translate(430.708 114.662)" opacity="0.1"/>
    <rect id="Прямоугольник_119" data-name="Прямоугольник 119" width="10.224" height="18.588" transform="translate(314.174 120.467)" opacity="0.1"/>
    <path id="Контур_245" data-name="Контур 245" d="M676.759,294.28H627.42l.782-6.252L675.3,282.76Z" transform="translate(-276.88 -124.782)" opacity="0.1"/>
    <rect id="Прямоугольник_120" data-name="Прямоугольник 120" width="116.177" height="71.564" rx="10.7" transform="translate(315.102 97.001)" fill="#514e7f"/>
    <path id="Контур_246" data-name="Контур 246" d="M835.35,201.07h.352v40.545h-.352a2.9,2.9,0,0,1-2.9-2.9V203.97A2.9,2.9,0,0,1,835.35,201.07Z" transform="translate(-367.359 -88.732)" fill="#514e7f"/>
    <path id="Контур_247" data-name="Контур 247" d="M870.71,188h3.76a2.4,2.4,0,0,1,2.4,2.4v50.63a2.4,2.4,0,0,1-2.4,2.4h-3.76Z" transform="translate(-384.243 -82.965)" fill="#514e7f"/>
    <rect id="Прямоугольник_121" data-name="Прямоугольник 121" width="5.347" height="18.588" transform="translate(294.424 120.467)" opacity="0.1"/>
    <rect id="Прямоугольник_122" data-name="Прямоугольник 122" width="10.453" height="31.6" rx="5.227" transform="translate(288.384 114.662)" fill="#514e7f"/>
    <circle id="Эллипс_25" data-name="Эллипс 25" cx="33.461" cy="33.461" r="33.461" transform="translate(306.274 19.392)" fill="#464353"/>
    <circle id="Эллипс_26" data-name="Эллипс 26" cx="25.097" cy="25.097" r="25.097" transform="translate(314.638 27.756)" fill="#6c63ff"/>
    <circle id="Эллипс_27" data-name="Эллипс 27" cx="24.399" cy="24.399" r="24.399" transform="translate(377.375 29.152)" fill="#464353"/>
    <circle id="Эллипс_28" data-name="Эллипс 28" cx="18.298" cy="18.298" r="18.298" transform="translate(383.476 35.253)" fill="#6c63ff"/>
    <circle id="Эллипс_29" data-name="Эллипс 29" cx="3.213" cy="3.213" r="3.213" transform="translate(396.667 104.438)" fill="#6c63ff"/>
    <circle id="Эллипс_30" data-name="Эллипс 30" cx="3.213" cy="3.213" r="3.213" transform="translate(406.885 104.438)" fill="#6c63ff" opacity="0.5"/>
    <path id="Контур_248" data-name="Контур 248" d="M519.571,235.512l-.229-.453a20.269,20.269,0,0,1,4.056,1.866c-.559-4.855-19.18-18.487-22.533-18.487s-7.079-5.788-7.079-5.788-9.682-1.492-11.174-3.073-11.548-.659-13.968-.1-6.146-1.492-6.146-1.492-2.05-3.352-4.654-3.352-5.391-3.732-5.391-3.732-2.43-2.235-4.665-2.615-5.028-2.794-6.336-4.665-7.822-2.794-11.543-2.235-13.783-.76-13.783-.76a9.867,9.867,0,0,0,5.084-6.347c-3.665-.19-13.3-8.28-13.3-8.28s.4,2.615.855,6.263l-.62-.8-.084.067a60.428,60.428,0,0,1-.084-7.822c0-.2.034-.4.045-.609a17.4,17.4,0,0,0,5.453-17.147c-.1-.425-.218-.838-.352-1.246a7.749,7.749,0,0,0,2.235.559h.4a3.268,3.268,0,0,0,2.453-1.084h0a2.619,2.619,0,0,0,.274-.425.714.714,0,0,0,.05-.089,3.046,3.046,0,0,0,.168-.425,1.6,1.6,0,0,0,.039-.156,3.443,3.443,0,0,0,.067-.346v-.514a6.632,6.632,0,0,0-.559-2.492c-.587-1.441-1.43-2.866-1.369-4.425a2.742,2.742,0,0,1,.045-.374,20.081,20.081,0,0,1,1.184-3.537v-.05c.056-.173.1-.346.14-.52a1.282,1.282,0,0,0,.045-.156,4.726,4.726,0,0,0,.084-.62v-.045c.145-2.335-1.738-4.375-3.872-5.319-1.911-.849-4.1-1.078-5.844-2.235-1.995-1.313-3.09-3.587-4.565-5.47-2.145-2.738-5.5-4.782-8.939-4.391-2.117.24-4.039,1.352-6.146,1.782-3.2.665-6.587-.3-9.772.441a3.352,3.352,0,0,0-1.989,1.117,2.274,2.274,0,0,0-.4,1.011h0a3.861,3.861,0,0,0,0,1.017v.028a7.154,7.154,0,0,0,.173.955l.05.2a.822.822,0,0,0,.045.2c.017.067.073.263.106.391.061.218.112.436.168.659v.078c.05.229.1.458.14.693h0a11.759,11.759,0,0,1,.179,1.464h0a6.744,6.744,0,0,1-.855,3.978c-1.4,2.235-4.363,3.224-5.654,5.553a4.816,4.816,0,0,0-.559,1.816h0a4.863,4.863,0,0,0-.028.637v.084a2.124,2.124,0,0,0,.05.559,1.117,1.117,0,0,0,0,.134,4.814,4.814,0,0,0,.112.492.5.5,0,0,0,.045.156,4.373,4.373,0,0,0,.223.559h0c.6,1.246,1.726,2.274,1.961,3.626h0a.207.207,0,0,0,.028.123,9.093,9.093,0,0,1-.508,3.011,3.6,3.6,0,0,0-.067.369h0v.743a1.393,1.393,0,0,0,0,.156v.363a.886.886,0,0,0,.056.207l.039.14a2.08,2.08,0,0,0,.089.2l.061.123a2.031,2.031,0,0,0,.134.2.93.93,0,0,0,.067.089,1.522,1.522,0,0,0,.257.24c.771.559,1.972.413,2.6,1.117a1.323,1.323,0,0,1,.179.279l.034.067a1.539,1.539,0,0,1,.106.307h0a3.062,3.062,0,0,1,0,1.274c-.223,1.117-.7,2.134-.95,3.229-.05.223-.084.453-.112.682h0a1.125,1.125,0,0,1-.028.307v.436a1.815,1.815,0,0,0,.034.425c.034.14,0,.134.034.2l.034.162a.8.8,0,0,0,.061.218l.05.14c.028.078.067.156.1.235a.973.973,0,0,0,.056.106,1.956,1.956,0,0,0,.2.324,3.512,3.512,0,0,0,2.961,1.229,9.33,9.33,0,0,0,1.978-.223c.145.341.3.682.458,1.011a17.358,17.358,0,0,0,3.145,4.425,4.215,4.215,0,0,1-.056.52c-.129,1.274-.285,2.643-.464,4.023-1.447-.665-2.564-.922-3.006-.441-1.872,2.056,0,9.152,0,9.152s-9.135,0-11.37,2.05-6.33,0-6.33,0-8.381.939-7.822,2.62-4.47,0-4.47,0-3.542.374-3.352,2.794-5.4,3.542-4.66,5.224-3.352,2.794-3.352,2.794-4.1-.184-2.6,2.235h0s-2.235,5.229-4.1,5.587-4.285,4.665-4.285,4.665-7.174,1.307-6.85,3.548-11.029,18.27-11.029,18.27-3.727,7.682-1.117,13.286,4.47,9.336,5.028,11.386,7.33,11.079,7.274,12.761c0,.525,1.676,3.352,3.961,6.939l-.67.693-1.469,1.514s-4.66,11.576.927,12.135c4.721.469,8.112.81,9.833.341a2.358,2.358,0,0,0,.782-.341l.067-.05c2.034,3,3.475,5.1,3.475,5.1s.2-.3.559-.8l.559.8s.447-.637,1.207-1.676c-.246,5.079-.279,10.085-.279,10.085s2.425-.374,1.307,10.828,6.7,20.348,6.7,20.348v16.621h0a11.14,11.14,0,0,0,.078,1.117c.207,2.386.888,8.012,2.9,11.733,2.609,4.85,0,17.549,0,17.549s-.173,10.358.453,23.276c0,.352.039.715.056,1.073-11.3,9.442-23.415,21.957-23.415,21.957a6.147,6.147,0,0,1,1.676.754l-.676.866-3.078,3.794h0l-2.38,2.939h0l3.771,11.615,4.118-1.609s2.235,3.872,1.766,6.5a2.793,2.793,0,0,1-.559,1.3,1.643,1.643,0,0,0-.29.643c-1.078,4.207,3.419,22.348,10.554,23.136,0,0,2.419.8,3.2-1.38.374-1.05.369-2.794-.469-5.626,0,0-3.771-4.548-1.33-9.448,1.43-2.866,3.794-6.7,5.5-9.414l.7-1.117c1.536,1.939,2.481,3.185,2.481,3.185l5.486-5.9c.117.251.235.5.358.732a17.544,17.544,0,0,0,1.419,2.358l3.721,14.755,1.5-.335c-.034.358-.056.737-.078,1.117-.123,2.648,0,6.084,1.224,8.537a5.086,5.086,0,0,0,4.989,3.123c8.66-.212,11.174-4.9,11.174-4.9V465.708l2.978-.665s-.218-25.779-.983-40.154c0-.318-.034-.626-.05-.927v-.128l19.124-20.566,1.469-.587c12.291-4.855,12.481-17.365,12.481-17.365a59.808,59.808,0,0,1,1.486-12.694c1.486-5.788.19-35.852-2.6-43.316a76.128,76.128,0,0,1-3.727-15.878s2.794-3.911,0-7.168a14.309,14.309,0,0,1-1.955-3.2l3.637-.6,2.1-.346,1.117-.19c-.559,4.939-.654,8.733.67,9.638,4.1,2.794,17.879-6.537,17.879-6.537-5.028,0-7.822-37.528-6.8-38.461s2.548-19.739,1.212-23.091,4.688-18.32,4.688-18.32l.927-1.374h0s21.979,9.593,24.4,11.431,10.057-4.47,11.358-2.028,9.5,6.079,9.5,6.079,12.107-1.224,13.409,1.766,9.129,9.99,9.129,9.99a42.643,42.643,0,0,1,.3-4.911c.162.385.319.777.486,1.173,3.71,8.777,9.883,19.89,15.6,13.912C527.673,254.4,522.739,241.842,519.571,235.512ZM353.922,275.18v.106l-.045-.045Zm-4.336-43.065-2.369,24.98-4.654,4.822-.559.592-4.81-5.235s-2.425-1.117,0-3.173-4.1-6.7-4.1-6.7-.19-3.352,2.235-4.291,5.587-7.1,5.587-7.1l8.755-4.47h0Zm31.153,127.854a2.962,2.962,0,0,1,.559-.408c1.045-.592,1.715.056,2.062,1.2a9.632,9.632,0,0,1-.4,5.743c-1.3,2.989,1.866,14.94,1.866,14.94s-4.1,1.86-4.844,5.414a3.693,3.693,0,0,1-.559,1.218c-.05-.313-.1-.615-.14-.905-.363-2.235-.559-3.676-.559-3.676a23.79,23.79,0,0,1-.374-8.772c.592-3.592,1.788-10.889,2.235-13.655.112-.67.173-1.073.179-1.117Z" transform="translate(-149.907 -116.777)" fill="url(#linear-gradient)"/>
    <path id="Контур_249" data-name="Контур 249" d="M483.9,221.285l1.207-.8,3.4,7.179-1.307,1.536H483.25s.14-3.911.235-4.051S483.9,221.285,483.9,221.285Z" transform="translate(-227.103 -159.996)" fill="#464353"/>
    <path id="Контур_250" data-name="Контур 250" d="M428.848,731.27v15.364s-2.514,4.676-11.174,4.889a5.084,5.084,0,0,1-4.989-3.112c-1.207-2.447-1.346-5.878-1.224-8.52a33.517,33.517,0,0,1,.419-3.944Z" transform="translate(-195.407 -385.406)" fill="#3f3d56"/>
    <path id="Контур_251" data-name="Контур 251" d="M428.877,731.27v4.755l-17.387,3.866a33.517,33.517,0,0,1,.419-3.944Z" transform="translate(-195.435 -385.406)" opacity="0.1"/>
    <path id="Контур_252" data-name="Контур 252" d="M418.082,645.7l-21.789,4.844-3.721-14.716a17.822,17.822,0,0,1-1.419-2.352c-.24-.469-.475-.966-.7-1.486-4.056-9.28-5.861-26.019-6.632-40.26-.039-.721-.078-1.436-.112-2.14-.626-12.884-.453-23.22-.453-23.22s2.609-12.666,0-17.5c-2.011-3.732-2.693-9.342-2.9-11.733-.056-.71-.078-1.117-.078-1.117l.4-1.056,1.643-4.347h18.068l10.5,8.889,1.6,1.352-.179,1.117c-.453,2.76-1.648,10.057-2.235,13.621a23.672,23.672,0,0,0,.374,8.749s.218,1.419.559,3.671c.084.559.179,1.151.285,1.793,1.335,8.258,3.838,23.337,4.905,26.941a40.9,40.9,0,0,1,.754,6.827c.045.67.084,1.369.123,2.1C417.864,619.986,418.082,645.7,418.082,645.7Z" transform="translate(-181.662 -296.855)" fill="#514e7f"/>
    <path id="Контур_253" data-name="Контур 253" d="M429.843,758.49v.156s-2.514,4.676-11.174,4.889a5.084,5.084,0,0,1-4.989-3.112C417.563,761.378,423.865,761.993,429.843,758.49Z" transform="translate(-196.402 -397.418)" opacity="0.1"/>
    <path id="Контур_254" data-name="Контур 254" d="M674.276,349.322c-5.743,5.961-11.889-5.123-15.6-13.878-2.084-4.928-3.391-9.124-3.391-9.124l15.286-6.47s.939,1.492,2.117,3.855C675.851,330.018,680.785,342.545,674.276,349.322Z" transform="translate(-303.019 -203.847)" fill="#ffb8b8"/>
    <path id="Контур_255" data-name="Контур 255" d="M465.209,205.208a69.743,69.743,0,0,0,1.235,16.5s-31.1,3.352-28.3-1.486c1.637-2.838,2.7-10.33,3.291-16.057.43-4.056.62-7.224.62-7.224s29.8-11.917,25.326-1.86A29.561,29.561,0,0,0,465.209,205.208Z" transform="translate(-207.117 -147.009)" fill="#ffb8b8"/>
    <path id="Контур_256" data-name="Контур 256" d="M463.349,243.113l-4.179,49.909,19.18-3.162L475,248.7l1.117-10.99Z" transform="translate(-202.632 -104.902)" fill="#464353"/>
    <path id="Контур_257" data-name="Контур 257" d="M478.346,290l-8.33,1.374-10.856,1.788.765-9.107,3.419-40.8,4.352-1.844,3.084-1.3,5.33-2.257-1.117,10.99Z" transform="translate(-202.627 -104.963)" fill="#848393" opacity="0.1"/>
    <path id="Контур_258" data-name="Контур 258" d="M357.349,709.86c-2.442,4.889,1.33,9.425,1.33,9.425.838,2.833.844,4.565.469,5.587-.777,2.173-3.2,1.374-3.2,1.374-7.61-.838-12.219-21.365-10.263-23.717s-1.19-7.755-1.19-7.755l-4.118,1.6-3.771-11.588,2.38-2.933,3.078-3.788,2.084-2.57,20.812,21.717s-.888,1.335-2.112,3.252C361.143,703.156,358.779,707.011,357.349,709.86Z" transform="translate(-162.391 -360.795)" fill="#3f3d56"/>
    <path id="Контур_259" data-name="Контур 259" d="M419.9,636.579,393.95,664.408c-4.548-8.883-6.5-26.706-7.33-41.752,4.833-4.023,9.5-7.487,13.029-9.157,0,0,11.945-8.643,14.465-12.789,1.335,8.258,3.838,23.337,4.905,26.941A57.592,57.592,0,0,1,419.9,636.579Z" transform="translate(-184.46 -327.79)" opacity="0.1"/>
    <path id="Контур_260" data-name="Контур 260" d="M386.435,427.269l-30.215-4.542,1.643-4.347h18.068Z" transform="translate(-157.2 -184.631)" opacity="0.1"/>
    <path id="Контур_261" data-name="Контур 261" d="M419.708,633.066l-26.522,28.444c-4.079-9.28-5.883-26.019-6.654-40.26-.039-.721-.078-1.436-.112-2.14,4.878-4.067,9.6-7.565,13.141-9.252,0,0,11.146-8.062,14.18-12.347.084.559.179,1.151.285,1.793,1.335,8.258,3.838,23.337,4.905,26.941A44.584,44.584,0,0,1,419.708,633.066Z" transform="translate(-184.372 -326.378)" opacity="0.1"/>
    <path id="Контур_262" data-name="Контур 262" d="M369.276,697.237s-.888,1.335-2.112,3.252c-4.442-5.615-14.973-18.543-20.784-22.4l2.084-2.57Z" transform="translate(-166.703 -360.803)" opacity="0.1"/>
    <path id="Контур_263" data-name="Контур 263" d="M435.876,497.011a59.559,59.559,0,0,0-1.486,12.666s-.19,12.476-12.481,17.32l-1.469.559L369.6,582.1s-18.812-24.583-24.957-26.075c0,0,24.767-25.516,36.5-31.1,0,0,14.158-10.241,14.9-13.778s4.844-5.4,4.844-5.4-3.168-11.917-1.866-14.9a9.576,9.576,0,0,0,.4-5.727c-.346-1.117-1.017-1.782-2.062-1.2a2.961,2.961,0,0,0-.559.408l-32.215-4.844V462.93s-7.822-9.124-6.7-20.3-1.307-10.8-1.307-10.8.117-18.873,1.71-20.449,16.89-8.794,16.89-8.794l47.959,8.52,1.978,9.174s1.676,7.3,4.47,10.537,0,7.146,0,7.146a75.963,75.963,0,0,0,3.727,15.839C436.094,461.265,437.368,491.239,435.876,497.011Z" transform="translate(-165.935 -240.36)" fill="#514e7f"/>
    <path id="Контур_264" data-name="Контур 264" d="M470.116,195.084a29.675,29.675,0,0,0-2.168,10.124,17.32,17.32,0,0,1-23.778-1.039c.43-4.056.62-7.224.62-7.224S474.586,185.027,470.116,195.084Z" transform="translate(-209.857 -147.009)" opacity="0.1"/>
    <path id="Контур_265" data-name="Контур 265" d="M470.068,178.31a17.32,17.32,0,1,1-.48-4.062A17.32,17.32,0,0,1,470.068,178.31Z" transform="translate(-205.999 -133.737)" fill="#ffb8b8"/>
    <path id="Контур_266" data-name="Контур 266" d="M435.088,240.775s-12.448-5.771-13.225-6.52-26.6,65.558-26.6,65.558L388,332.777s38.735,16.571,47.115,14.336,9.124,0,9.124,0,8.57-48.048,11.364-52.328-2.609-47.864-2.609-47.864l-9.682-12.671Z" transform="translate(-185.069 -166.072)" opacity="0.1"/>
    <path id="Контур_267" data-name="Контур 267" d="M435.088,236.775s-12.448-5.771-13.225-6.52-26.6,65.558-26.6,65.558L388,328.777s38.735,16.571,47.115,14.336,9.124,0,9.124,0,8.57-48.048,11.364-52.328-2.609-47.864-2.609-47.864l-9.682-12.671Z" transform="translate(-185.069 -164.307)" opacity="0.1"/>
    <path id="Контур_268" data-name="Контур 268" d="M455.556,292.789a36.965,36.965,0,0,0-2.347,7.47c-.659,2.659-1.374,5.827-2.106,9.235-3.3,15.381-6.906,35.629-6.906,35.629s-.229-.682-1.844-.916c-1.307-.19-3.531-.084-7.263.916-8.381,2.235-47.121-14.342-47.121-14.342l1.117-5.028,6.146-27.935s25.89-66.3,26.633-65.553c.453.453,5.291,2.794,8.978,4.531,2.352,1.117,4.246,1.983,4.246,1.983l7.822-6.179.43-.341,9.638,12.666S458.35,288.5,455.556,292.789Z" transform="translate(-185.056 -165.194)" fill="#6c63ff"/>
    <path id="Контур_269" data-name="Контур 269" d="M426.81,245.286c1.117,4.3-1.486,11.358-1.486,11.358s-8.939,21.979-11.548,32.137-17.532,30.628-17.532,30.628-2.19,2.2-5.257,5.252c-.341.341-.7.693-1.056,1.062l6.146-27.935s25.89-66.3,26.633-65.553c.453.453,5.291,2.793,8.978,4.531C429.38,238.867,426.067,242.443,426.81,245.286Z" transform="translate(-185.921 -165.18)" opacity="0.1"/>
    <path id="Контур_270" data-name="Контур 270" d="M400.146,240.1c1.117,4.3-1.486,11.358-1.486,11.358s-8.939,21.979-11.548,32.137-17.532,30.628-17.532,30.628-2.19,2.2-5.257,5.252c-.363.363-.743.737-1.117,1.117-5.989,5.961-14.409,14.32-17.04,16.761-.385.363-.648.6-.76.676a2.357,2.357,0,0,1-.782.341c-1.721.469-5.112.129-9.833-.341-5.587-.559-.927-12.1-.927-12.1l1.469-1.514,1.341-1.386,15.219-15.66,1.117-1.179,4.654-4.8,2.369-24.918.056-.6s-.693-1.581-1.76-3.995c-2.844-6.531-8.431-19.136-10.476-23.209-.235-.475-.419-.827-.559-1.045,0-.028-.028-.056-.045-.078-1.492-2.419,2.6-2.235,2.6-2.235s4.1-1.117,3.352-2.794,4.844-2.794,4.66-5.213,3.352-2.794,3.352-2.794,5.028,1.676,4.47,0,7.822-2.609,7.822-2.609,4.1,2.05,6.33,0,11.4-2.045,11.4-2.045-1.872-7.079,0-9.129,15.906,9.129,15.906,9.129S399.029,235.811,400.146,240.1Z" transform="translate(-160.374 -159.996)" fill="#848393"/>
    <path id="Контур_271" data-name="Контур 271" d="M370.61,417.73s15.459,21.789,26.259,14.716-14.526-25.516-14.526-25.516Z" transform="translate(-177.395 -242.275)" opacity="0.1"/>
    <path id="Контур_272" data-name="Контур 272" d="M370.61,415.73s15.459,21.789,26.259,14.716-14.526-25.516-14.526-25.516Z" transform="translate(-177.395 -241.393)" fill="#ffb8b8"/>
    <path id="Контур_273" data-name="Контур 273" d="M495.819,351.526c1.179-10.286,4.6-25.739,1.81-30.427-1.38-2.324-2.4-6.755-3.151-11.6-.4-2.609-.721-5.341-.978-7.934-.682-6.878-.9-12.766-.9-12.766s-6.7-29.9-5.4-36.048c.816-3.844-.123-13.476-.939-20.147l.43-.341,9.638,12.666s5.4,43.579,2.6,47.864a36.97,36.97,0,0,0-2.347,7.47l5.33-2.235-1.117,10.99,3.352,41.16Z" transform="translate(-228.431 -165.194)" opacity="0.1"/>
    <path id="Контур_274" data-name="Контур 274" d="M486.58,220.48s9.632,8.073,13.3,8.258a9.858,9.858,0,0,1-5.084,6.336s10.057,1.33,13.783.754,10.241.363,11.543,2.235,4.129,4.274,6.364,4.643,4.665,2.609,4.665,2.609l-16.4,24.209s-5.961,14.9-4.66,18.253-.19,22.164-1.212,23.091,1.771,38.366,6.8,38.366c0,0-13.778,9.314-17.879,6.52s5.218-32.963,1.117-39.858-5.028-32.3-5.028-32.3-6.7-29.9-5.4-36.042S486.58,220.48,486.58,220.48Z" transform="translate(-228.572 -159.996)" fill="#848393"/>
    <path id="Контур_275" data-name="Контур 275" d="M672.684,323.7c-4.978-1.553-12.6-1.6-14.012,11.733-2.084-4.928-3.391-9.124-3.391-9.124l15.286-6.47S671.5,321.337,672.684,323.7Z" transform="translate(-303.019 -203.843)" opacity="0.1"/>
    <path id="Контур_276" data-name="Контур 276" d="M539.625,262.93l9.135,1.117s2.794,3.727,5.392,3.727,4.654,3.352,4.654,3.352,3.727,2.045,6.146,1.486,12.476-1.481,13.968.1,11.174,3.067,11.174,3.067,3.727,5.771,7.079,5.771,21.974,13.6,22.532,18.437c0,0-18.437-11.733-18.622,14.063,0,0-7.822-6.984-9.129-9.962s-13.409-1.766-13.409-1.766-8.191-3.637-9.5-6.056-8.939,3.855-11.358,2.017-24.4-11.4-24.4-11.4l-6.8-12.778Z" transform="translate(-246.185 -178.729)" fill="#848393"/>
    <circle id="Эллипс_31" data-name="Эллипс 31" cx="1.581" cy="1.581" r="1.581" transform="translate(249.739 103.667)" fill="#3f3d56"/>
    <circle id="Эллипс_32" data-name="Эллипс 32" cx="1.581" cy="1.581" r="1.581" transform="translate(248.158 136.68)" fill="#3f3d56"/>
    <circle id="Эллипс_33" data-name="Эллипс 33" cx="1.581" cy="1.581" r="1.581" transform="translate(249.739 119.305)" fill="#3f3d56"/>
    <circle id="Эллипс_34" data-name="Эллипс 34" cx="1.581" cy="1.581" r="1.581" transform="translate(245.174 154.056)" fill="#3f3d56"/>
    <path id="Контур_277" data-name="Контур 277" d="M359.176,729.922c-.777,2.173-3.2,1.374-3.2,1.374-7.609-.838-12.219-21.365-10.263-23.717S344.5,699.8,344.5,699.8l-4.118,1.6-3.771-11.587,2.38-2.933c2.369,4.106,5.76,10.012,6.559,11.52a21.08,21.08,0,0,1,2.1,10.057C347.516,712.089,351.729,729.453,359.176,729.922Z" transform="translate(-162.391 -365.816)" opacity="0.1"/>
    <path id="Контур_278" data-name="Контур 278" d="M469.6,174.241c-.38-.128-.76-.279-1.117-.43a7.264,7.264,0,0,1-3.4-2.235c-.71-1.039-.939-2.5-2.045-3.1-1.274-.682-2.794.24-4.174.559a8.755,8.755,0,0,1-4.95-.659c-2.38-.877-5.7-2.492-8.146-.821-1.9,1.3-1.162,4.045-1.648,6.006-.754,3.045-3.989,5.028-4.6,8.107-.274,1.358-.1,3.017-1.2,3.861a2.849,2.849,0,0,1-1.073.469,17.32,17.32,0,1,1,32.366-11.733Z" transform="translate(-206.016 -133.753)" opacity="0.1"/>
    <path id="Контур_279" data-name="Контур 279" d="M447.093,151.342a8.679,8.679,0,0,0,4.95.654c1.4-.33,2.894-1.251,4.168-.559,1.117.6,1.341,2.056,2.045,3.1a7.052,7.052,0,0,0,3.408,2.235,9.682,9.682,0,0,0,3.034.849,3.436,3.436,0,0,0,2.849-1.078c.995-1.2.693-3,.1-4.436s-1.43-2.866-1.369-4.419c.073-1.844,1.408-3.447,1.52-5.285.145-2.33-1.738-4.363-3.872-5.308-1.911-.844-4.1-1.078-5.844-2.235-1.995-1.307-3.09-3.576-4.565-5.453-2.145-2.732-5.5-4.771-8.939-4.38-2.117.24-4.039,1.346-6.146,1.777-3.2.665-6.587-.3-9.772.441a3.352,3.352,0,0,0-1.989,1.089c-.782,1.05-.38,2.52-.034,3.782.62,2.274.883,4.85-.352,6.85-1.4,2.263-4.363,3.218-5.654,5.542a4.917,4.917,0,0,0-.129,4.47c.615,1.285,1.8,2.33,1.989,3.743a9,9,0,0,1-.508,3c-.218.994-.156,2.235.665,2.794s1.972.419,2.6,1.117a2.235,2.235,0,0,1,.3,1.922c-.223,1.117-.7,2.129-.95,3.224a3.95,3.95,0,0,0,.43,3.224c1.084,1.464,3.274,1.374,5.028.983a3.5,3.5,0,0,0,1.414-.559c1.117-.844.922-2.5,1.2-3.861.609-3.073,3.844-5.067,4.6-8.107.486-1.961-.251-4.715,1.648-6.012C441.383,148.851,444.713,150.465,447.093,151.342Z" transform="translate(-199.204 -117.849)" fill="#464353"/>
    <path id="Контур_280" data-name="Контур 280" d="M463.61,533.93s17.538,11.174,18.1,15.459Z" transform="translate(-218.436 -298.32)" opacity="0.1"/>
    <path id="Контур_281" data-name="Контур 281" d="M462,549.93s20.113,9.682,19,13.035Z" transform="translate(-217.725 -305.381)" opacity="0.1"/>
    <path id="Контур_282" data-name="Контур 282" d="M459.61,565.26s11.364,5.961,12.107,9.5Z" transform="translate(-216.671 -312.146)" opacity="0.1"/>
    <path id="Контур_283" data-name="Контур 283" d="M468.28,589.26s7.448,6.52,8.939,4.844S468.28,589.26,468.28,589.26Z" transform="translate(-220.497 -322.737)" opacity="0.1"/>
    <path id="Контур_284" data-name="Контур 284" d="M449.61,596.6s5.8,9.308,3.011,9.867S449.61,596.6,449.61,596.6Z" transform="translate(-212.258 -325.976)" opacity="0.1"/>
    <path id="Контур_285" data-name="Контур 285" d="M398.112,300.6s-9.872,5.956-6.894,7.448S398.112,300.6,398.112,300.6Z" transform="translate(-186.242 -195.352)" opacity="0.1"/>
    <path id="Контур_286" data-name="Контур 286" d="M398.761,261.26S388.7,279.7,393.359,278.4,398.761,261.26,398.761,261.26Z" transform="translate(-186.891 -177.992)" opacity="0.1"/>
    <path id="Контур_287" data-name="Контур 287" d="M591.2,294.26s-6.146,7.23-5.028,11.174Z" transform="translate(-272.462 -192.555)" opacity="0.1"/>
    <path id="Контур_288" data-name="Контур 288" d="M617.675,300.6s-9.224,8.191-7.872,9.124Z" transform="translate(-282.891 -195.352)" opacity="0.1"/>
    <path id="Контур_289" data-name="Контур 289" d="M634.052,318.61s-.933,5.386.559,5.587Z" transform="translate(-293.524 -203.3)" opacity="0.1"/>
    <path id="Контур_290" data-name="Контур 290" d="M445.587,513.836c-2.374,3.073-2.374,8.52-3.447,10.755-.587,1.229-1.894,3.352-2.956,5.073-.346-1.117-1.017-1.782-2.062-1.2-.687-5.123-1.9-13.968-2.291-15.75-.559-2.514,5.587-9.219,5.587-9.219s6.006,1.257,7.542,4.33S447.961,510.769,445.587,513.836Z" transform="translate(-205.72 -284.891)" opacity="0.05"/>
    <path id="Контур_291" data-name="Контур 291" d="M372.869,391.968c-6.7.927-19.18,18.806-19.18,18.806s-1.637-2.38-3.911-5.7c-2.861-4.218-6.7-9.967-9.5-14.325l16.37-16.884,2.978,3.207s5.777,5.771,5.777,6.889c0,.436,1.117,1.76,2.536,3.207C370.115,389.414,372.869,391.968,372.869,391.968Z" transform="translate(-164.011 -227.682)" opacity="0.1"/>
    <path id="Контур_292" data-name="Контур 292" d="M359.9,270.115c-.235-.475-.419-.827-.559-1.045l7.218.48,3.827,23.756C367.531,286.792,361.944,274.188,359.9,270.115Z" transform="translate(-172.422 -181.438)" opacity="0.1"/>
    <path id="Контур_293" data-name="Контур 293" d="M365.784,389.241c-5.989,5.961-14.409,14.32-17.04,16.761-.385.363-.648.6-.76.676a2.357,2.357,0,0,1-.782.341c-2.631-3.866-6.386-9.436-9.291-13.968l1.341-1.386L354.481,376l1.883,2.028s5.777,5.771,5.777,6.889C362.141,385.453,363.946,387.4,365.784,389.241Z" transform="translate(-162.965 -228.626)" opacity="0.1"/>
    <path id="Контур_294" data-name="Контур 294" d="M345.3,269.489l-8.381-.559s-2.235,5.213-4.1,5.587-4.285,4.654-4.285,4.654-7.174,1.307-6.861,3.542-11.029,18.219-11.029,18.219-3.727,7.665-1.117,13.252,4.47,9.314,5.028,11.358,7.174,10.99,7.118,12.666,16.906,26.259,16.906,26.259,12.476-17.879,19.18-18.812c0,0-7.448-6.889-7.448-8.006s-5.732-6.889-5.732-6.889l-7.263-7.822s-2.425-1.117,0-3.168-4.1-6.7-4.1-6.7-.19-3.352,2.235-4.285,5.587-7.073,5.587-7.073l8.755-4.47Z" transform="translate(-150.031 -181.376)" fill="#848393"/>
    <path id="Контур_295" data-name="Контур 295" d="M317,335.331s10.057-2.045,10.241-.743S317,335.331,317,335.331Z" transform="translate(-153.737 -210.16)" opacity="0.1"/>
    <path id="Контур_296" data-name="Контур 296" d="M332,354.43s8.526,1.117,8.151,2.939S332,354.43,332,354.43Z" transform="translate(-160.357 -219.107)" opacity="0.1"/>
    <path id="Контур_297" data-name="Контур 297" d="M344.61,297.76s8.2,11.6,9.314,9.2Z" transform="translate(-165.921 -194.099)" opacity="0.1"/>
    <g id="Сгруппировать_41" data-name="Сгруппировать 41" transform="translate(220.832 11.514)" opacity="0.1">
      <path id="Контур_298" data-name="Контур 298" d="M432.056,138.512a12.526,12.526,0,0,0-.5-4.006,12.409,12.409,0,0,1-.369-1.676,6.866,6.866,0,0,0,.369,2.793,14.408,14.408,0,0,1,.5,2.889Z" transform="translate(-424.95 -132.83)"/>
      <path id="Контур_299" data-name="Контур 299" d="M502.853,160.441c.218-1.676,1.369-3.2,1.475-4.917a4.347,4.347,0,0,0-.034-.855c-.218,1.732-1.419,3.268-1.486,5.028A4.175,4.175,0,0,0,502.853,160.441Z" transform="translate(-456.565 -142.468)"/>
      <path id="Контур_300" data-name="Контур 300" d="M471.037,174.172a3.436,3.436,0,0,1-2.849,1.078,9.683,9.683,0,0,1-3.034-.849,7.253,7.253,0,0,1-3.408-2.235c-.71-1.039-.939-2.5-2.045-3.1-1.274-.682-2.794.24-4.174.559a8.679,8.679,0,0,1-4.945-.654c-2.38-.877-5.71-2.492-8.151-.827-1.9,1.3-1.162,4.051-1.648,6.012-.754,3.039-3.989,5.028-4.6,8.107-.274,1.358-.1,3.017-1.2,3.861a3.5,3.5,0,0,1-1.419.559c-1.777.391-3.967.48-5.028-.983a2.989,2.989,0,0,1-.559-1.425,3.531,3.531,0,0,0,.559,2.542c1.084,1.464,3.274,1.374,5.028.983a3.5,3.5,0,0,0,1.419-.559c1.117-.844.922-2.5,1.2-3.861.609-3.073,3.844-5.067,4.6-8.107.486-1.961-.251-4.715,1.648-6.012,2.442-1.676,5.771-.05,8.151.827a8.666,8.666,0,0,0,4.945.654c1.408-.33,2.9-1.251,4.174-.559,1.117.6,1.335,2.056,2.045,3.1a7.052,7.052,0,0,0,3.408,2.235,9.682,9.682,0,0,0,3.034.849,3.436,3.436,0,0,0,2.849-1.078,3.3,3.3,0,0,0,.6-2.564,2.794,2.794,0,0,1-.6,1.447Z" transform="translate(-423.526 -148.097)"/>
      <path id="Контур_301" data-name="Контур 301" d="M422.5,168.5c-.184-1.414-1.374-2.458-1.989-3.743a4.748,4.748,0,0,1-.436-1.536,4.866,4.866,0,0,0,.436,2.654c.6,1.246,1.726,2.274,1.961,3.62A3.486,3.486,0,0,0,422.5,168.5Z" transform="translate(-420.04 -146.241)"/>
      <path id="Контур_302" data-name="Контур 302" d="M427.081,184.958a2.123,2.123,0,0,0-.318-1.771c-.631-.721-1.833-.559-2.6-1.117a1.955,1.955,0,0,1-.732-1.33,2.515,2.515,0,0,0,.732,2.447c.732.531,1.972.419,2.6,1.117A1.525,1.525,0,0,1,427.081,184.958Z" transform="translate(-421.517 -153.973)"/>
    </g>
    <path id="Контур_303" data-name="Контур 303" d="M176.341,706.186s-23.108-1.4-20.387,14.8a3.92,3.92,0,0,0,2.056,4.162s.039-1.2,2.369-.793a10.617,10.617,0,0,0,2.509.117,5.252,5.252,0,0,0,3.073-1.263h0s6.5-2.687,9.023-13.3c0,0,1.866-2.319,1.793-2.911l-3.911,1.676s1.335,2.794.285,5.151c0,0-.128-5.028-.877-4.933-.151.028-2.028.978-2.028.978s2.3,4.9.559,8.464c0,0,.659-6.04-1.279-8.112l-2.743,1.6s2.682,5.062.86,9.2c0,0,.469-6.336-1.436-8.805l-2.492,1.939s2.52,4.989.983,8.42c0,0-.2-7.38-1.52-7.934a15.069,15.069,0,0,0-2.509,2.7s1.721,3.626.654,5.537c0,0-.654-4.917-1.2-4.939,0,0-2.168,3.257-2.391,5.486a11.875,11.875,0,0,1,1.866-5.8,6.553,6.553,0,0,0-3.319,1.721s.335-2.3,3.855-2.5a15.117,15.117,0,0,1,2.274-2.62,14.292,14.292,0,0,0-5.621.648s1.866-2.168,6.257-1.184l2.458-2.006s-4.6-.626-6.559.067c0,0,2.235-1.922,7.224-.52l2.671-1.6a24.556,24.556,0,0,0-6.269-.559s2.469-1.33,7.051.112l1.916-.86s-2.877-.559-3.721-.654-.888-.324-.888-.324a10,10,0,0,1,5.4.6S176.414,706.438,176.341,706.186Z" transform="translate(-82.57 -374.323)" fill="#6c63ff"/>
    <ellipse id="Эллипс_35" data-name="Эллипс 35" cx="16.359" cy="2.766" rx="16.359" ry="2.766" transform="translate(61.495 349.474)" fill="#6c63ff" opacity="0.1"/>
    <text id="Place_for_your_video" data-name="Place for 
your video" transform="translate(-58.848 68.936)" fill="#2f2e41" font-size="50" font-family="Montserrat-Bold, Montserrat" font-weight="700"><tspan x="0" y="0">Place for </tspan><tspan x="0" y="61">your video</tspan></text>
  </g>
</svg>
