<svg xmlns="http://www.w3.org/2000/svg" xmlns:xlink="http://www.w3.org/1999/xlink" viewBox="0 0 612.43 476.76"><defs><style>.cls-1{fill:url(#linear-gradient);}.cls-2{fill:#fff;}.cls-3{opacity:0.6;}.cls-4{fill:#f55f44;}.cls-5{fill:url(#linear-gradient-2);}.cls-6{fill:url(#linear-gradient-3);}.cls-7{fill:#47e6b1;}.cls-8{fill:url(#linear-gradient-4);}.cls-9{fill:#6c63ff;}.cls-10{fill:url(#linear-gradient-5);}.cls-11{fill:url(#linear-gradient-6);}.cls-12{fill:#f5f5f5;}.cls-13{fill:url(#linear-gradient-7);}.cls-14{isolation:isolate;}.cls-15{fill:#2f2e41;}</style><linearGradient id="linear-gradient" x1="355.4" y1="97.4" x2="355.4" y2="204.08" gradientTransform="translate(465.64 468.93) rotate(180)" gradientUnits="userSpaceOnUse"><stop offset="0" stop-color="gray" stop-opacity="0.25"/><stop offset="0.54" stop-color="gray" stop-opacity="0.12"/><stop offset="1" stop-color="gray" stop-opacity="0.1"/></linearGradient><linearGradient id="linear-gradient-2" x1="21.6" y1="337.25" x2="21.6" y2="443.92" gradientTransform="translate(121.81 90.55) rotate(-90)" xlink:href="#linear-gradient"/><linearGradient id="linear-gradient-3" x1="-166.75" y1="-11.42" x2="-166.75" y2="95.26" gradientTransform="translate(487.04 140.85) rotate(-90)" xlink:href="#linear-gradient"/><linearGradient id="linear-gradient-4" x1="162.13" y1="340.2" x2="162.13" y2="446.88" gradientTransform="translate(319.93 473.57) rotate(180)" xlink:href="#linear-gradient"/><linearGradient id="linear-gradient-5" x1="312.35" y1="2.79" x2="312.35" y2="473.2" gradientTransform="matrix(1, 0, 0, -1, 0, 479.55)" xlink:href="#linear-gradient"/><linearGradient id="linear-gradient-6" x1="312.35" y1="103.83" x2="312.35" y2="431.55" gradientTransform="matrix(1, 0, 0, -1, 0, 479.55)" xlink:href="#linear-gradient"/><linearGradient id="linear-gradient-7" x1="477" y1="-95.46" x2="477" y2="56.79" gradientTransform="matrix(1, 0, 0, -1, -164.65, 375.15)" xlink:href="#linear-gradient"/></defs><g id="Layer_2" data-name="Layer 2"><g id="registration-overlay"><rect class="cls-1" x="23.45" y="264.85" width="173.58" height="106.68" transform="matrix(0.96, -0.29, 0.29, 0.96, -86.31, 44.76)"/><rect class="cls-2" x="25.35" y="267.77" width="167.7" height="99.56" transform="translate(-86.17 44.43) rotate(-16.6)"/><g class="cls-3"><rect class="cls-4" x="25.61" y="295.58" width="21.33" height="15.79" transform="translate(-85.19 23.01) rotate(-16.6)"/><rect class="cls-4" x="51.42" y="321.81" width="81.93" height="5.12" transform="matrix(0.96, -0.29, 0.29, 0.96, -88.82, 39.91)"/><rect class="cls-4" x="76.56" y="330.94" width="59.74" height="3.41" transform="translate(-90.6 44.27) rotate(-16.6)"/></g><rect class="cls-5" x="459.06" y="-17.85" width="106.68" height="173.58" transform="translate(346.78 558.71) rotate(-78.98)"/><rect class="cls-2" x="461.99" y="-15.94" width="99.56" height="167.7" transform="translate(347.29 557.26) rotate(-78.98)"/><g class="cls-3"><rect class="cls-4" x="445.72" y="10.96" width="15.79" height="21.33" transform="translate(345.67 462.74) rotate(-78.98)"/><rect class="cls-4" x="491.08" y="25.2" width="5.12" height="81.93" transform="translate(334.33 538.05) rotate(-78.98)"/><rect class="cls-4" x="500.54" y="50.14" width="3.41" height="59.74" transform="translate(327.7 557.7) rotate(-78.98)"/></g><rect class="cls-6" x="475.62" y="220.8" width="106.68" height="173.58" transform="translate(-78.72 235.91) rotate(-23.45)"/><rect class="cls-2" x="479.68" y="222.64" width="99.56" height="167.7" transform="translate(-78.24 236.01) rotate(-23.45)"/><g class="cls-3"><rect class="cls-7" x="526.79" y="221.71" width="15.79" height="21.33" transform="translate(-48.31 231.97) rotate(-23.45)"/><rect class="cls-7" x="518.06" y="249.61" width="5.12" height="81.93" transform="translate(-72.63 231.18) rotate(-23.45)"/><rect class="cls-7" x="512.37" y="275.63" width="3.41" height="59.74" transform="translate(-79.11 229.81) rotate(-23.45)"/></g><rect class="cls-8" x="71.01" y="26.69" width="173.58" height="106.68" transform="translate(-17.68 57.36) rotate(-19.53)"/><rect class="cls-2" x="72.88" y="29.67" width="167.7" height="99.56" transform="matrix(0.94, -0.33, 0.33, 0.94, -17.54, 56.97)"/><g class="cls-3"><rect class="cls-9" x="72.46" y="61.27" width="21.33" height="15.79" transform="translate(-18.34 31.77) rotate(-19.53)"/><rect class="cls-9" x="99.26" y="84.62" width="81.93" height="5.12" transform="translate(-21.07 51.89) rotate(-19.53)"/><rect class="cls-9" x="124.81" y="93.01" width="59.74" height="3.41" transform="translate(-22.77 57.16) rotate(-19.53)"/></g><polygon class="cls-10" points="312.35 6.35 110.25 196.6 110.25 476.76 514.44 476.76 514.44 196.6 312.35 6.35"/><polygon class="cls-2" points="512.39 470.62 112.3 470.62 112.3 196.15 312.35 9.76 512.39 196.15 512.39 470.62"/><rect class="cls-11" x="173.07" y="48" width="278.56" height="327.72"/><rect class="cls-2" x="176.58" y="50.73" width="271.52" height="324.98"/><polygon class="cls-12" points="112.3 196.15 312.35 333.38 112.3 470.62 112.3 196.15"/><polygon class="cls-12" points="512.39 196.15 312.35 333.38 512.39 470.62 512.39 196.15"/><path class="cls-13" d="M112.3,470.61,304.49,321.08a12.66,12.66,0,0,1,15.69,0L512.39,470.61Z"/><path class="cls-2" d="M112.3,470.61l192.19-143a13.16,13.16,0,0,1,15.69,0l192.21,143Z"/><rect class="cls-7" x="217.78" y="113.54" width="56.67" height="9.56"/><rect class="cls-12" x="217.78" y="138.8" width="189.12" height="9.56"/><rect class="cls-12" x="217.78" y="155.18" width="189.12" height="9.56"/><rect class="cls-12" x="217.78" y="171.57" width="189.12" height="9.56"/><rect class="cls-12" x="217.78" y="187.95" width="189.12" height="9.56"/><rect class="cls-12" x="217.78" y="204.34" width="86.03" height="9.56"/><rect class="cls-9" x="320.88" y="204.34" width="86.03" height="9.56"/><g id="Сonfirm_email_to_access_account" data-name="Сonfirm email to access account" class="cls-14"><path class="cls-15" d="M26.72,327a14.55,14.55,0,0,1-8.26,2.21c-8.25,0-13.06-4.23-13.06-12.55V302.27H0v-7.8H5.4V286H15.54v8.52h8.71v7.8H15.54V316.5c0,3,1.62,4.62,4.35,4.62a6.88,6.88,0,0,0,4.1-1.3Z"/><path class="cls-15" d="M28.73,311.17c0-10.53,8.13-18,19.24-18s19.18,7.47,19.18,18-8.06,18-19.18,18S28.73,321.7,28.73,311.17Zm28.15,0c0-6-3.84-9.68-8.91-9.68s-9,3.64-9,9.68,3.9,9.69,9,9.69S56.88,317.22,56.88,311.17Z"/><path class="cls-15" d="M123.24,308.7v20h-9.49V324.3c-1.88,3.19-5.52,4.88-10.66,4.88-8.19,0-13.07-4.55-13.07-10.6s4.36-10.46,15-10.46h8.06c0-4.36-2.6-6.89-8.06-6.89A16.8,16.8,0,0,0,95,304.48l-3.64-7.09c3.84-2.73,9.49-4.22,15.08-4.22C117.07,293.17,123.24,298.11,123.24,308.7Zm-10.14,8.91V314h-6.95c-4.75,0-6.25,1.76-6.25,4.1,0,2.53,2.15,4.22,5.73,4.22C109,322.35,111.93,320.79,113.1,317.61Z"/><path class="cls-15" d="M130.19,311.17c0-10.53,8.13-18,19.5-18,7.35,0,13.13,3.18,15.67,8.9l-7.87,4.23a8.7,8.7,0,0,0-7.86-4.81c-5.14,0-9.17,3.57-9.17,9.68s4,9.69,9.17,9.69a8.6,8.6,0,0,0,7.86-4.81l7.87,4.29c-2.54,5.59-8.32,8.84-15.67,8.84C138.32,329.18,130.19,321.7,130.19,311.17Z"/><path class="cls-15" d="M168.15,311.17c0-10.53,8.13-18,19.5-18,7.35,0,13.13,3.18,15.67,8.9l-7.87,4.23a8.7,8.7,0,0,0-7.86-4.81c-5.14,0-9.17,3.57-9.17,9.68s4,9.69,9.17,9.69a8.6,8.6,0,0,0,7.86-4.81l7.87,4.29c-2.54,5.59-8.32,8.84-15.67,8.84C176.28,329.18,168.15,321.7,168.15,311.17Z"/><path class="cls-15" d="M242.77,314H216.32c1,4.36,4.68,7,10,7a11.82,11.82,0,0,0,8.77-3.38l5.4,5.85c-3.25,3.71-8.13,5.66-14.43,5.66-12.09,0-20-7.61-20-18s8-18,18.66-18c10.27,0,18.2,6.89,18.2,18.13C243,312.08,242.84,313.19,242.77,314Zm-26.58-5.91h17.22a8.73,8.73,0,0,0-17.22,0Z"/><path class="cls-15" d="M246.35,325.41l3.38-7.28a24,24,0,0,0,12.15,3.38c4.68,0,6.44-1.24,6.44-3.19,0-5.72-21.13.13-21.13-13.84,0-6.63,6-11.31,16.19-11.31,4.81,0,10.14,1.1,13.45,3.05l-3.38,7.22a20.06,20.06,0,0,0-10.07-2.6c-4.55,0-6.5,1.43-6.5,3.25,0,6,21.12.19,21.12,14,0,6.5-6,11.12-16.51,11.12C255.58,329.18,249.6,327.55,246.35,325.41Z"/><path class="cls-15" d="M280.86,325.41l3.38-7.28a24,24,0,0,0,12.16,3.38c4.68,0,6.43-1.24,6.43-3.19,0-5.72-21.12.13-21.12-13.84,0-6.63,6-11.31,16.18-11.31,4.81,0,10.14,1.1,13.46,3.05L308,303.44a20.1,20.1,0,0,0-10.08-2.6c-4.55,0-6.5,1.43-6.5,3.25,0,6,21.13.19,21.13,14,0,6.5-6,11.12-16.51,11.12C290.09,329.18,284.11,327.55,280.86,325.41Z"/><path class="cls-15" d="M368.09,308.7v20H358.6V324.3c-1.88,3.19-5.52,4.88-10.66,4.88-8.19,0-13.06-4.55-13.06-10.6s4.35-10.46,15-10.46H358c0-4.36-2.6-6.89-8.06-6.89a16.77,16.77,0,0,0-10.07,3.25l-3.64-7.09c3.83-2.73,9.49-4.22,15.08-4.22C361.92,293.17,368.09,298.11,368.09,308.7ZM358,317.61V314H351c-4.75,0-6.24,1.76-6.24,4.1,0,2.53,2.14,4.22,5.72,4.22C353.86,322.35,356.78,320.79,358,317.61Z"/><path class="cls-15" d="M375.05,311.17c0-10.53,8.12-18,19.5-18,7.34,0,13.13,3.18,15.66,8.9l-7.86,4.23a8.72,8.72,0,0,0-7.87-4.81c-5.13,0-9.16,3.57-9.16,9.68s4,9.69,9.16,9.69a8.61,8.61,0,0,0,7.87-4.81l7.86,4.29c-2.53,5.59-8.32,8.84-15.66,8.84C383.17,329.18,375.05,321.7,375.05,311.17Z"/><path class="cls-15" d="M413,311.17c0-10.53,8.12-18,19.5-18,7.34,0,13.13,3.18,15.66,8.9l-7.86,4.23a8.72,8.72,0,0,0-7.87-4.81c-5.13,0-9.16,3.57-9.16,9.68s4,9.69,9.16,9.69a8.61,8.61,0,0,0,7.87-4.81l7.86,4.29c-2.53,5.59-8.32,8.84-15.66,8.84C421.13,329.18,413,321.7,413,311.17Z"/><path class="cls-15" d="M451,311.17c0-10.53,8.12-18,19.24-18s19.17,7.47,19.17,18-8.06,18-19.17,18S451,321.7,451,311.17Zm28.14,0c0-6-3.83-9.68-8.9-9.68s-9,3.64-9,9.68,3.9,9.69,9,9.69S479.11,317.22,479.11,311.17Z"/><path class="cls-15" d="M531.37,293.69v35h-9.62V324.5a14.15,14.15,0,0,1-10.85,4.68c-8.78,0-14.95-4.94-14.95-15.73V293.69h10.14V312c0,5.85,2.6,8.45,7.08,8.45,4.68,0,8.06-3,8.06-9.42V293.69Z"/><path class="cls-15" d="M576.55,308.64v20H566.41V310.2c0-5.66-2.6-8.26-7.09-8.26-4.87,0-8.38,3-8.38,9.43v17.29H540.79v-35h9.69v4.09c2.73-3,6.83-4.61,11.57-4.61C570.31,293.17,576.55,298,576.55,308.64Z"/><path class="cls-15" d="M608.27,327a14.55,14.55,0,0,1-8.26,2.21c-8.25,0-13.07-4.23-13.07-12.55V302.27h-5.39v-7.8h5.39V286h10.15v8.52h8.71v7.8h-8.71V316.5c0,3,1.62,4.62,4.35,4.62a6.88,6.88,0,0,0,4.1-1.3Z"/><path class="cls-15" d="M2,235.91c0-13.72,10.53-23.53,24.7-23.53,7.86,0,14.43,2.86,18.72,8.06l-6.76,6.24a14.65,14.65,0,0,0-11.44-5.33c-8.52,0-14.56,6-14.56,14.56s6,14.56,14.56,14.56a14.5,14.5,0,0,0,11.44-5.4l6.76,6.24c-4.29,5.27-10.86,8.13-18.79,8.13C12.55,259.44,2,249.62,2,235.91Z"/><path class="cls-15" d="M47.52,241.17c0-10.53,8.12-18,19.24-18s19.17,7.47,19.17,18-8.06,18-19.17,18S47.52,251.7,47.52,241.17Zm28.14,0c0-6-3.83-9.68-8.9-9.68s-9,3.64-9,9.68,3.9,9.69,9,9.69S75.66,247.22,75.66,241.17Z"/><path class="cls-15" d="M128.44,238.64v20H118.3V240.2c0-5.66-2.6-8.26-7.08-8.26-4.88,0-8.39,3-8.39,9.43v17.29H92.69v-35h9.69v4.09c2.73-3,6.82-4.61,11.57-4.61C122.2,223.17,128.44,228,128.44,238.64Z"/><path class="cls-15" d="M148.72,223v1.5h9v7.8H149v26.39H138.84V232.27h-5.4v-7.8h5.4v-1.56c0-7.87,4.81-13,13.52-13,2.86,0,5.85.58,7.74,1.88l-2.67,7.35a7.08,7.08,0,0,0-4.09-1.24C150.35,217.9,148.72,219.53,148.72,223Zm18-9.81c0-3.19,2.53-5.66,6.3-5.66s6.31,2.34,6.31,5.46c0,3.38-2.54,5.85-6.31,5.85S166.73,216.34,166.73,213.16ZM168,223.69H178.1v35H168Z"/><path class="cls-15" d="M209.23,223.17v9.36c-.84-.07-1.49-.13-2.27-.13-5.59,0-9.3,3-9.3,9.75v16.51H187.52v-35h9.69v4.61C199.68,224.92,203.84,223.17,209.23,223.17Z"/><path class="cls-15" d="M274.37,238.64v20H264.23V240.2c0-5.66-2.54-8.26-6.63-8.26-4.55,0-7.74,2.93-7.74,9.17v17.55H239.72V240.2c0-5.66-2.41-8.26-6.63-8.26-4.49,0-7.67,2.93-7.67,9.17v17.55H215.28v-35H225v4a14.17,14.17,0,0,1,11-4.55c4.88,0,9,1.88,11.51,5.72a15.7,15.7,0,0,1,12.61-5.72C268.39,223.17,274.37,228,274.37,238.64Z"/><path class="cls-15" d="M335.92,244H309.46c1,4.36,4.68,7,10,7a11.85,11.85,0,0,0,8.78-3.38l5.4,5.85c-3.26,3.71-8.13,5.66-14.44,5.66-12.09,0-19.95-7.61-19.95-18s8-18,18.65-18c10.27,0,18.2,6.89,18.2,18.13C336.11,242.08,336,243.19,335.92,244Zm-26.59-5.91h17.23a8.74,8.74,0,0,0-17.23,0Z"/><path class="cls-15" d="M402,238.64v20H391.82V240.2c0-5.66-2.54-8.26-6.63-8.26-4.55,0-7.74,2.93-7.74,9.17v17.55H367.31V240.2c0-5.66-2.4-8.26-6.63-8.26-4.48,0-7.67,2.93-7.67,9.17v17.55H342.87v-35h9.69v4a14.16,14.16,0,0,1,11-4.55c4.88,0,9,1.88,11.51,5.72a15.7,15.7,0,0,1,12.61-5.72C396,223.17,402,228,402,238.64Z"/><path class="cls-15" d="M442,238.7v20h-9.49V254.3c-1.89,3.19-5.53,4.88-10.66,4.88-8.19,0-13.07-4.55-13.07-10.6s4.36-10.46,15-10.46h8.06c0-4.36-2.6-6.89-8.06-6.89a16.8,16.8,0,0,0-10.08,3.25l-3.64-7.09c3.84-2.73,9.49-4.22,15.08-4.22C435.82,223.17,442,228.11,442,238.7Zm-10.14,8.91V244h-7c-4.74,0-6.24,1.76-6.24,4.1,0,2.53,2.15,4.22,5.72,4.22C427.76,252.35,430.69,250.79,431.86,247.61Z"/><path class="cls-15" d="M449.93,213.16c0-3.19,2.53-5.66,6.3-5.66s6.31,2.34,6.31,5.46c0,3.38-2.54,5.85-6.31,5.85S449.93,216.34,449.93,213.16Zm1.23,10.53H461.3v35H451.16Z"/><path class="cls-15" d="M470.73,210.43h10.14v48.23H470.73Z"/></g></g></g></svg>