<svg xmlns="http://www.w3.org/2000/svg" xmlns:xlink="http://www.w3.org/1999/xlink" viewBox="0 0 762.61 558.18"><defs><style>.cls-1,.cls-36,.cls-42{fill:#6c63ff;}.cls-1,.cls-37,.cls-41{opacity:0.1;}.cls-1,.cls-2,.cls-33,.cls-37,.cls-42,.cls-43{isolation:isolate;}.cls-2{fill:none;stroke:#fff;stroke-miterlimit:10;stroke-width:0.6px;opacity:0.03;}.cls-3{fill:#fff;}.cls-4{fill:#3f3d56;}.cls-5{fill:url(#linear-gradient);}.cls-6{fill:#7cfcff;}.cls-7{fill:url(#linear-gradient-2);}.cls-8{fill:url(#linear-gradient-3);}.cls-9{fill:url(#linear-gradient-4);}.cls-10{fill:url(#linear-gradient-5);}.cls-11{fill:url(#linear-gradient-6);}.cls-12{fill:url(#linear-gradient-7);}.cls-13{fill:url(#linear-gradient-8);}.cls-14{fill:url(#linear-gradient-9);}.cls-15{fill:#ffffa5;}.cls-16{fill:url(#linear-gradient-10);}.cls-17{fill:url(#linear-gradient-11);}.cls-18{fill:url(#linear-gradient-12);}.cls-19{fill:url(#linear-gradient-13);}.cls-20{fill:url(#linear-gradient-14);}.cls-21{fill:url(#linear-gradient-15);}.cls-22{fill:url(#linear-gradient-16);}.cls-23{fill:#ff69b4;}.cls-24{fill:url(#linear-gradient-17);}.cls-25{fill:url(#linear-gradient-18);}.cls-26{fill:url(#linear-gradient-19);}.cls-27{fill:url(#linear-gradient-20);}.cls-28{fill:url(#linear-gradient-21);}.cls-29{fill:url(#linear-gradient-22);}.cls-30{fill:url(#linear-gradient-23);}.cls-31{fill:#ee8e9e;}.cls-32{fill:#65617d;}.cls-33{opacity:0.05;}.cls-34{fill:#e8eaf2;}.cls-35{fill:#303d5c;}.cls-38{fill:url(#linear-gradient-24);}.cls-39{fill:#444053;}.cls-40{fill:#efb7b9;}.cls-42{opacity:0.2;}.cls-44{fill:#2f2e41;}</style><linearGradient id="linear-gradient" x1="199.97" y1="295.05" x2="199.97" y2="321.84" gradientTransform="matrix(1, 0, 0, -1, -11.09, 507.6)" gradientUnits="userSpaceOnUse"><stop offset="0" stop-color="gray" stop-opacity="0.25"/><stop offset="0.54" stop-color="gray" stop-opacity="0.12"/><stop offset="1" stop-color="gray" stop-opacity="0.1"/></linearGradient><linearGradient id="linear-gradient-2" x1="300.93" y1="334.75" x2="300.93" y2="361.54" gradientTransform="matrix(1, 0, 0, -1, 0, 539.13)" xlink:href="#linear-gradient"/><linearGradient id="linear-gradient-3" x1="425.91" y1="282.74" x2="425.91" y2="309.52" gradientTransform="matrix(1, 0, 0, -1, 0, 539.13)" xlink:href="#linear-gradient"/><linearGradient id="linear-gradient-4" x1="553.43" y1="264.99" x2="553.43" y2="291.78" gradientTransform="matrix(1, 0, 0, -1, 0, 539.13)" xlink:href="#linear-gradient"/><linearGradient id="linear-gradient-5" x1="587.6" y1="247.65" x2="587.6" y2="274.44" gradientTransform="matrix(1, 0, 0, -1, 0, 539.13)" xlink:href="#linear-gradient"/><linearGradient id="linear-gradient-6" x1="630.45" y1="293.99" x2="630.45" y2="320.78" gradientTransform="matrix(1, 0, 0, -1, 0, 539.13)" xlink:href="#linear-gradient"/><linearGradient id="linear-gradient-7" x1="621.78" y1="256.4" x2="621.78" y2="283.19" gradientTransform="matrix(1, 0, 0, -1, 0, 539.13)" xlink:href="#linear-gradient"/><linearGradient id="linear-gradient-8" x1="338.68" y1="334.75" x2="338.68" y2="361.54" gradientTransform="matrix(1, 0, 0, -1, 0, 539.13)" xlink:href="#linear-gradient"/><linearGradient id="linear-gradient-9" x1="209.39" y1="269.8" x2="209.39" y2="296.59" gradientTransform="matrix(1, 0, 0, -1, 0, 539.13)" xlink:href="#linear-gradient"/><linearGradient id="linear-gradient-10" x1="320.9" y1="296.13" x2="320.9" y2="322.92" gradientTransform="matrix(1, 0, 0, -1, 0, 539.13)" xlink:href="#linear-gradient"/><linearGradient id="linear-gradient-11" x1="465.13" y1="312.14" x2="465.13" y2="338.93" gradientTransform="matrix(1, 0, 0, -1, 0, 539.13)" xlink:href="#linear-gradient"/><linearGradient id="linear-gradient-12" x1="611.12" y1="330.93" x2="611.12" y2="357.71" gradientTransform="matrix(1, 0, 0, -1, 0, 539.13)" xlink:href="#linear-gradient"/><linearGradient id="linear-gradient-13" x1="501.63" y1="334.75" x2="501.63" y2="361.54" gradientTransform="matrix(1, 0, 0, -1, 0, 539.13)" xlink:href="#linear-gradient"/><linearGradient id="linear-gradient-14" x1="500.06" y1="282.74" x2="500.06" y2="309.52" gradientTransform="matrix(1, 0, 0, -1, 0, 539.13)" xlink:href="#linear-gradient"/><linearGradient id="linear-gradient-15" x1="375.83" y1="321.81" x2="375.83" y2="348.6" gradientTransform="matrix(1, 0, 0, -1, 0, 539.13)" xlink:href="#linear-gradient"/><linearGradient id="linear-gradient-16" x1="228.81" y1="313.19" x2="228.81" y2="339.98" gradientTransform="matrix(1, 0, 0, -1, 0, 539.13)" xlink:href="#linear-gradient"/><linearGradient id="linear-gradient-17" x1="242.65" y1="282.74" x2="242.65" y2="309.52" gradientTransform="matrix(1, 0, 0, -1, 0, 539.13)" xlink:href="#linear-gradient"/><linearGradient id="linear-gradient-18" x1="357.43" y1="278.39" x2="357.43" y2="305.18" gradientTransform="matrix(1, 0, 0, -1, 0, 539.13)" xlink:href="#linear-gradient"/><linearGradient id="linear-gradient-19" x1="559.93" y1="330.93" x2="559.93" y2="357.71" gradientTransform="matrix(1, 0, 0, -1, 0, 539.13)" xlink:href="#linear-gradient"/><linearGradient id="linear-gradient-20" x1="584.41" y1="293.99" x2="584.41" y2="320.78" gradientTransform="matrix(1, 0, 0, -1, 0, 539.13)" xlink:href="#linear-gradient"/><linearGradient id="linear-gradient-21" x1="428.33" y1="334.75" x2="428.33" y2="361.54" gradientTransform="matrix(1, 0, 0, -1, 0, 539.13)" xlink:href="#linear-gradient"/><linearGradient id="linear-gradient-22" x1="461.99" y1="256.4" x2="461.99" y2="283.19" gradientTransform="matrix(1, 0, 0, -1, 0, 539.13)" xlink:href="#linear-gradient"/><linearGradient id="linear-gradient-23" x1="404.17" y1="-39.44" x2="404.17" y2="322.81" gradientTransform="translate(939.43 507.6) rotate(180)" xlink:href="#linear-gradient"/><linearGradient id="linear-gradient-24" x1="406.92" y1="-27.34" x2="406.92" y2="333.42" gradientTransform="translate(765.3 507.6) rotate(180)" xlink:href="#linear-gradient"/></defs><g id="Layer_2" data-name="Layer 2"><g id="register"><path class="cls-1" d="M762.61,378.59A191.37,191.37,0,0,1,758.37,419q-1.43,6.68-3.32,13.07-2.34,8-5.35,15.47c-1,2.54-2.09,5-3.23,7.5a114.49,114.49,0,0,1-7.3,40.53c-8.61,22.79-24.28,41.39-43.9,52.25a82.15,82.15,0,0,1-40,10.41H190.23c-24.86,0-47.9-8.83-66.79-23.89a123.11,123.11,0,0,1-15.33-14.61,130.35,130.35,0,0,1-16.87-24.16A143.83,143.83,0,0,1,74.1,426.76c-11.37-23-18-50.61-18-80.3,0-37.43,10.54-71.56,27.84-97.4a133.61,133.61,0,0,1,11.82-15.2,116.77,116.77,0,0,1,13.52-12.79,103,103,0,0,1,12-8.31c1.73-1,3.47-2,5.24-2.87,1.55-.8,3.13-1.55,4.72-2.24q2.87-1.26,5.79-2.31t5.79-1.84a80.52,80.52,0,0,1,8.55-1.9c2.4-.42,4.8-.72,7.2-.92,1.9-.16,3.83-.25,5.77-.27h1.05c2.13,0,4.26.1,6.36.26.22-.51.46-1,.68-1.54.84-1.85,1.71-3.69,2.59-5.5v0l.46-.93c.7-1.47,1.44-2.94,2.2-4.39l1-2c.08-.16.16-.31.25-.46.36-.69.72-1.38,1.09-2.06q2.79-5.12,5.78-10.08l.51-.84c.31-.51.6-1,.95-1.52q1.24-2,2.54-4c.6-.93,1.2-1.87,1.84-2.79q2.34-3.51,4.8-6.93c1.64-2.28,3.35-4.56,5.11-6.84.24-.31.48-.6.73-.93l2.57-3.22h0l.35-.44h0l.93-1.13c1.37-1.67,2.78-3.33,4.2-5a242.16,242.16,0,0,1,23-23.12c.32-.3.64-.6,1-.85q2.3-2,4.62-3.92A242.33,242.33,0,0,1,265.57,93c.64-.41,1.28-.81,1.94-1.2A241.82,241.82,0,0,1,293,78.2q7.2-3.32,14.55-6.13c3.25-1.24,6.51-2.4,9.82-3.5Q325,66,332.88,64a242.83,242.83,0,0,1,46.93-7.39q7.2-.44,14.56-.43a243.51,243.51,0,0,1,70.18,10.25,2.43,2.43,0,0,0,2.17,1.3h2l2.62.86q7.33,2.43,14.46,5.33l1.2.49a243.19,243.19,0,0,1,62.72,37.71c1.4,1.15,2.78,2.33,4.15,3.52,1.65-1.23,3.34-2.4,5.05-3.52a92.3,92.3,0,0,1,20.92-10.31,83.17,83.17,0,0,1,46.93-2.12c20,4.89,38,17,52.58,34.26a139.89,139.89,0,0,1,15.77,23.13c.33.6.66,1.2,1,1.8a162.67,162.67,0,0,1,10,23.12l.3.87A178.88,178.88,0,0,1,712.64,206c.08.39.16.8.23,1.2a189.29,189.29,0,0,1,3,23.12,4.85,4.85,0,0,0,0,.85q.38,6,.39,12.2c0,3.68-.11,7.32-.31,10.93,0,.4-.05.81-.08,1.2,0,1-.13,2.1-.21,3.14a123.72,123.72,0,0,1,12.83,14c1.74,2.22,3.44,4.5,5.07,6.87a150.06,150.06,0,0,1,13.08,23.13C756.78,324.72,762.61,350.74,762.61,378.59Z"/><path class="cls-1" d="M699.63,535c0,8.91-27.55,17-72.81,23.18H202.14C156.88,552,129.33,543.91,129.33,535c0-6.78,16-13.11,43.61-18.46h0l.78-.15c7.8-1.5,16.52-2.91,26-4.24l.73-.1h0q11.32-1.57,24.12-3l.8-.08c3.29-.36,6.64-.71,10.07-1.05h0l1.32-.12c24.92-2.4,53.25-4.35,84-5.65h0q6.45-.27,13-.5,7.33-.27,14.84-.48,5.74-.16,11.58-.3h.09c17.5-.41,35.6-.63,54.09-.63,45.75,0,89,1.31,127.3,3.65h.1c5.89.36,11.68.73,17.31,1.14l4.8.36q9.56.72,18.6,1.52h0C653.54,513.27,699.63,523.48,699.63,535Z"/><path class="cls-2" d="M246.21,119.33v18.19a2.47,2.47,0,0,1-2.46,2.47H210.44a242.37,242.37,0,0,1,23-23.13h10.33a2.47,2.47,0,0,1,2.46,2.47Z"/><path class="cls-3" d="M653.73,119.29v273.3a7.19,7.19,0,0,1-7.19,7.2h-488a7.2,7.2,0,0,1-7.2-7.2v-191c2.4-.42,4.8-.72,7.2-.92,1.9-.16,3.83-.25,5.77-.27h1.05c2.13,0,4.26.1,6.36.26.22-.51.46-1,.68-1.54.84-1.85,1.71-3.69,2.59-5.5v0l.46-.93c.7-1.47,1.44-2.94,2.2-4.39l1-2c.08-.16.16-.31.25-.46.36-.69.72-1.38,1.09-2.06q2.79-5.12,5.78-10.08l.51-.84c.31-.51.6-1,.95-1.52q1.24-2,2.54-4c.6-.93,1.2-1.87,1.84-2.79q2.34-3.51,4.8-6.93c1.64-2.28,3.35-4.56,5.11-6.84.24-.31.48-.6.73-.93l2.57-3.22h0l.35-.44h0l.93-1.13c1.37-1.67,2.78-3.33,4.2-5a242.16,242.16,0,0,1,23-23.12c.32-.3.64-.6,1-.85q2.3-2,4.62-3.92H549.77q2.1,1.74,4.15,3.52c1.65-1.23,3.34-2.4,5.05-3.52h87.57A7.19,7.19,0,0,1,653.73,119.29Z"/><path class="cls-4" d="M625,164.46v6.8H187.35c.83-1.34,1.68-2.68,2.54-4,.6-.94,1.2-1.87,1.85-2.8Z"/><rect class="cls-4" x="524.3" y="131.23" width="6.8" height="259.04"/><rect class="cls-4" x="399.15" y="131.23" width="6.8" height="259.04"/><rect class="cls-4" x="274.01" y="131.23" width="6.8" height="259.04"/><path class="cls-5" d="M202.71,185.76v26.79H175.05v-19c.15-.31.3-.6.45-.93.72-1.48,1.45-2.94,2.21-4.39.34-.67.69-1.34,1-2l.24-.46Z"/><path class="cls-6" d="M202.24,186.22v25.87H175.53V192.6c.71-1.48,1.44-2.94,2.21-4.39.34-.67.68-1.34,1-2Z"/><rect class="cls-7" x="287.1" y="177.6" width="27.67" height="26.79"/><rect class="cls-6" x="287.58" y="178.06" width="26.72" height="25.86"/><rect class="cls-8" x="412.07" y="229.61" width="27.67" height="26.79"/><rect class="cls-6" x="412.55" y="230.07" width="26.72" height="25.86"/><rect class="cls-9" x="539.6" y="247.35" width="27.67" height="26.79"/><rect class="cls-6" x="540.07" y="247.81" width="26.72" height="25.86"/><rect class="cls-10" x="573.76" y="264.69" width="27.67" height="26.79"/><rect class="cls-6" x="574.24" y="265.16" width="26.72" height="25.86"/><rect class="cls-11" x="616.62" y="218.36" width="27.67" height="26.79"/><rect class="cls-6" x="617.09" y="218.82" width="26.72" height="25.86"/><rect class="cls-12" x="607.94" y="255.94" width="27.67" height="26.79"/><rect class="cls-6" x="608.42" y="256.4" width="26.72" height="25.86"/><rect class="cls-13" x="324.84" y="177.6" width="27.67" height="26.79"/><rect class="cls-6" x="325.32" y="178.06" width="26.72" height="25.86"/><rect class="cls-14" x="195.56" y="242.54" width="27.67" height="26.79"/><rect class="cls-15" x="196.03" y="243" width="26.72" height="25.86"/><rect class="cls-16" x="307.07" y="216.22" width="27.67" height="26.79"/><rect class="cls-15" x="307.55" y="216.68" width="26.72" height="25.86"/><rect class="cls-17" x="451.29" y="200.21" width="27.67" height="26.79"/><rect class="cls-15" x="451.76" y="200.67" width="26.72" height="25.86"/><rect class="cls-18" x="597.28" y="181.42" width="27.67" height="26.79"/><rect class="cls-15" x="597.76" y="181.88" width="26.72" height="25.86"/><rect class="cls-19" x="487.8" y="177.6" width="27.67" height="26.79"/><rect class="cls-15" x="488.27" y="178.06" width="26.72" height="25.86"/><rect class="cls-20" x="486.22" y="229.61" width="27.67" height="26.79"/><rect class="cls-15" x="486.7" y="230.07" width="26.72" height="25.86"/><rect class="cls-21" x="362" y="190.54" width="27.67" height="26.79"/><rect class="cls-15" x="362.48" y="190.99" width="26.72" height="25.86"/><rect class="cls-22" x="214.98" y="199.16" width="27.67" height="26.79"/><rect class="cls-23" x="215.46" y="199.62" width="26.72" height="25.86"/><rect class="cls-24" x="228.82" y="229.61" width="27.67" height="26.79"/><rect class="cls-23" x="229.29" y="230.07" width="26.72" height="25.86"/><rect class="cls-25" x="343.59" y="233.96" width="27.67" height="26.79"/><rect class="cls-23" x="344.06" y="234.42" width="26.72" height="25.86"/><rect class="cls-26" x="546.09" y="181.42" width="27.67" height="26.79"/><rect class="cls-23" x="546.57" y="181.88" width="26.72" height="25.86"/><rect class="cls-27" x="570.58" y="218.36" width="27.67" height="26.79"/><rect class="cls-23" x="571.06" y="218.82" width="26.72" height="25.86"/><rect class="cls-28" x="414.49" y="177.6" width="27.67" height="26.79"/><rect class="cls-23" x="414.97" y="178.06" width="26.72" height="25.86"/><rect class="cls-29" x="448.16" y="255.94" width="27.67" height="26.79"/><rect class="cls-23" x="448.63" y="256.4" width="26.72" height="25.86"/><path class="cls-30" d="M607.43,261.28a5.26,5.26,0,0,0-2.11-3.55,21,21,0,0,0-3.67-2.12,3.15,3.15,0,0,1-1.07-.77,11.38,11.38,0,0,1-.6-1.15c-.72-1.25-2.28-1.65-3.5-2.4-2.18-1.32-3.19-3.67-4.1-6.14-.06-.16-.1-.32-.16-.47-.89-2.44-1.73-5-3.56-6.67a7.62,7.62,0,0,0-9.52-.51,2.24,2.24,0,0,1-1.34.67,2.49,2.49,0,0,1-1.29-.7,5.32,5.32,0,0,0-3.22-.88,30.26,30.26,0,0,1-.9-6.69v-.06h0s0,0,0,0h0v-1.67h.37a4.25,4.25,0,0,0,1.33-.15,4.6,4.6,0,0,0,.52-.19h0c1.61-.77,2.59-2.57,3.32-4.27.48-1.13.92-2.28,1.3-3.47,0-.15.09-.3.14-.45h0c.07-.24.15-.49.21-.73a1.05,1.05,0,0,1,.06-.24l.06-.23,0-.25.31.22h0l.05,0,.66.46c3.1,2.12,6.35,4.12,7.69,4.16h0a.68.68,0,0,0,.4-.07c.87-.48-.8-2.27-2.89-4.09l-.55-.46c-1.55-1.31-3.23-2.59-4.2-3.32l-.9-.65a8.88,8.88,0,0,0,2.21-4.8,37,37,0,0,0,.56-5v-.09a20.43,20.43,0,0,0-.48-5.4,12.5,12.5,0,0,0-6-8.31c-.9-.47-1.93-.83-2.82-1.34-.16-.09-.31-.2-.47-.3h0a4.13,4.13,0,0,1-.78-.66,2.84,2.84,0,0,1-.39-.54,1.33,1.33,0,0,1-.16-.28,3.67,3.67,0,0,0-.44-.86c-.6-.67-1.61-.47-2.48-.36h-.75c-3.11.07-6.12-1.67-9.27-1.67-3.44,0-6.38,2-9.41,3.37-.6.28-1.2.53-1.73.79s-.89.43-1.3.66h0a4.66,4.66,0,0,0-.47.3h0a6.57,6.57,0,0,0-2.56,3,6.08,6.08,0,0,0-1.27,2.44,5.86,5.86,0,0,0-.16,1.25,20.76,20.76,0,0,0-6.22,14.82v.9a20.8,20.8,0,0,0,14.81,19.05h0q.35.12.72.21c.06.2.14.41.2.6.13.39.25.77.34,1.16h0a5.27,5.27,0,0,1,.14.6,15.92,15.92,0,0,1,.43,4.07v.36h0v0a15.92,15.92,0,0,0-4.5,1.79,8.73,8.73,0,0,0-3.78,4.67,3.45,3.45,0,0,0-.12.43,12.48,12.48,0,0,0-3.43-.6,3.65,3.65,0,0,0-3,.89,2.58,2.58,0,0,0-.54,1.13c-.41.36-.48,1-.77,1.5-.87,1.53-3.15,1-4.87,1.45a3.39,3.39,0,0,0-.51.17h0c-1.62.6-3,2-4.72,2.05a11.06,11.06,0,0,0-2.07-.11l-.13,0c-.71.18-1.28,1.16-.73,1.65a2.35,2.35,0,0,0-2.21,1.06c-.54.69-.87,1.5-1.45,2.14a2.26,2.26,0,0,0-2.28-.88,8.41,8.41,0,0,0-2.4,1,3.35,3.35,0,0,1-1.06.37,4.59,4.59,0,0,1-1.28-.11,10.34,10.34,0,0,0-6,.84c-1.65.79-3.26-.66-5.09-.77a2.75,2.75,0,0,1-1.85-.6.5.5,0,0,1-.14-.15,2.64,2.64,0,0,1-.27-.46c-.12-.28-.19-.6-.3-.86a7.25,7.25,0,0,0-5-4.65l-.3-.08a5.35,5.35,0,0,0,.25-1.05h0a6.22,6.22,0,0,0-3.9-6.6,6.63,6.63,0,0,0-2.28-5.78,10,10,0,0,1-1.09-.85l-.06-.05a3.2,3.2,0,0,1-.42-.55h0a8.42,8.42,0,0,1-.63-1.4L484,229.71c-.72-.14-1.27-.44-2-.56v-.43a13.92,13.92,0,0,0-.74-4.3,19.79,19.79,0,0,0-2.33-4.64h0c-.15-.24-.31-.47-.47-.7h0c-.2-.32-.42-.6-.64-.94a18.61,18.61,0,0,0-5.56-5.58,23.13,23.13,0,0,0-2.37-1.1l-4.2-1.72a2.14,2.14,0,0,0-.75-.2c-1,0-1.28,1.38-.87,2.34a2,2,0,0,0,.17.32c1.28,1.87,4.14,2.4,4.94,4.52a2.78,2.78,0,0,0-1.1.23,3.19,3.19,0,0,0-1.88,2.09,1.71,1.71,0,0,1-.39.94c-.38.29-.95.12-1.37.35-.74.4-.42,1.51-.5,2.35a10.46,10.46,0,0,1-.76,2.11,3.75,3.75,0,0,0-.09,1.7l0,.18h0l.06.26a5.38,5.38,0,0,0,.74,1.66,13.28,13.28,0,0,0,2.73,2.77c.69.57,1.38,1.13,2.11,1.65.21.14.42.28.6.42l-.06.11c0,.09-.07.17-.1.26h0a1.38,1.38,0,0,0-.08.75,1.18,1.18,0,0,0,.24.49h0a4.49,4.49,0,0,0,.53.54,10.82,10.82,0,0,1,3.28,5.94,3.56,3.56,0,0,1-.05,1.34h0a11,11,0,0,0-.53,2.72,5.25,5.25,0,0,0,.08.68h0a14.8,14.8,0,0,0,.95,3.1c1.12,2.83,2.3,5.75,4.52,7.79a25.33,25.33,0,0,0,5.08,12.5c2.33,3,5.46,5.27,8.55,7.49a15.88,15.88,0,0,0,3.15,2,19.07,19.07,0,0,0,3.13.85A162.32,162.32,0,0,0,524.27,283l1.2,0h.06c0,.46,0,.92.06,1.38q.3,6.92.28,13.85v1.24a7.09,7.09,0,0,1-.37,2.66,8,8,0,0,1-1.25,1.8l-.36.44c-1.8,2.4-2.14,5.6-2.08,8.68v.05c0,.46,0,.93,0,1.38a95.65,95.65,0,0,0,1.48,12.29c.71,3.85.41,8,1,11.9a18.62,18.62,0,0,0,1,3.91c.72,2,1.45,3.9,2.17,5.84a5.18,5.18,0,0,1,.43,1.72,2.59,2.59,0,0,1,0,.56h0a9.8,9.8,0,0,1-1.43,2.9,10,10,0,0,0-1.27,5.3v.15h0a.86.86,0,0,0,.15.43c.23.33.72.3,1.11.24a43.62,43.62,0,0,1,4.71-.44h.17a1.63,1.63,0,0,0-.17.2h0c-.18.25-.36.51-.53.8h0l-.09.14a19,19,0,0,0-1,2.13,20.36,20.36,0,0,0-1.37,3.81,2.92,2.92,0,0,0-.14.6,11.58,11.58,0,0,0-.24,1.2,37.15,37.15,0,0,0-.43,6.23v.87c0,.93-.1,1.87-.15,2.78a45.29,45.29,0,0,1-.72,7.37,6.08,6.08,0,0,0-.2,2v0a16.52,16.52,0,0,0,.38,2.71c.19.95.43,1.93.68,2.89v.1c0,.36,0,.71.07,1.07v.05a17.43,17.43,0,0,0,1,4.63v.79a.24.24,0,0,0,0,.12h0c0,.43,0,.87.09,1.3A37.79,37.79,0,0,0,529,405v.21q1.8,10,3.66,20c.07.4.15.79.23,1.2q2,10.68,4.2,21.34c.12.6.24,1.2.37,1.8.06.29.12.57.2.86s.16.69.25,1a29.69,29.69,0,0,0,5.46,10.79,49.31,49.31,0,0,1,5.7,9.13,1.31,1.31,0,0,1-.06.27h0c-.14.63-.28,1.26-.43,1.89l0,.15c-1.59,6.77-3.72,13.45-4.46,20.39,0,.5-.1,1-.14,1.5a22.26,22.26,0,0,1-1.32,6.65c-.26.6-.57,1.17-.84,1.76a6.38,6.38,0,0,0-.64,2.18,1.5,1.5,0,0,0,0,.3.11.11,0,0,0,0,.08v0h0a4.29,4.29,0,0,0,.6,2.12l-.08.06-.47.37-.3.25c-2.07,1.65-4.84,2-7.4,2.65s-5.3,2-6.09,4.55c-.05.16-.08.32-.12.49a2,2,0,0,0,0,.24h0a4.48,4.48,0,0,0-.05.73v.17a6.83,6.83,0,0,0,3,5c2.12,1.46,4.8,1.91,7.32,2.24a24,24,0,0,1,7.49,1.73c2,1,3.68,2.61,5.79,3.33l.39.1-.12.06c-.29.18-.6.35-.87.5l-.46.26a21.87,21.87,0,0,1-7,2.22c-2.47.35-5.4.51-6.68,2.66h0l0,.1h0a2.33,2.33,0,0,0-.14.33v0a.88.88,0,0,0-.05.15.75.75,0,0,0,0,.16v.14a2.47,2.47,0,0,0-.11.47,4,4,0,0,0,0,1.25,5.58,5.58,0,0,0,1.61,2.92,11.67,11.67,0,0,0,5.57,2.46A100.4,100.4,0,0,0,556.69,546l4.52.35,4.85.36c1.14.07,2.29.14,3.43.19s2.19.09,3.28.12h1.7q4.2,0,8.35-.36c2.68-.24,5.33-.6,8-1.06a1.83,1.83,0,0,0,1.29-.6,1.09,1.09,0,0,0,.08-.15l0-.1V544c0-.57,0-1.14,0-1.71v-.69l0-.7c0-.69-.08-1.38-.14-2.06l-.08-.82v-.27a4.07,4.07,0,0,0-.06-.6,1.08,1.08,0,0,0,0-.35l-.11-1c-.08-.7-.18-1.41-.28-2.11-.22-1.53-.49-3.06-.81-4.57-.48-2.28,0,0,0,0v0c-.11-.52-.23-1-.33-1.54-.38-1.62-2.59.6-3.82,2-.17-.78-.33-1.54-.54-2.29h0v-.09l1-.47a3.41,3.41,0,0,0,1.8-1.48,2.52,2.52,0,0,0,.19-.81,2.09,2.09,0,0,0,0-.5v-.4c-.18-3.56-.39-7.25-2.08-10.37a22.18,22.18,0,0,0-4.12-5c0-.38,0-.77-.06-1.15q-.27-5.73-.8-11.44a166.08,166.08,0,0,0-3.19-20.68c-.42-1.84-.85-3.68-1.39-5.5h0a36,36,0,0,0-4.65-10.39c-.4-.6-.84-1.2-1.27-1.8q-.19-3.37-.6-6.76c-.36-3.09-.84-6.18-1.35-9.23-.05-.29-.1-.6-.13-.88v-.05a2.89,2.89,0,0,1,.14-1.2,7.58,7.58,0,0,1,1.2-1.61,6.79,6.79,0,0,0,1.27-4.2V433c0-1.59-.23-3.27-.34-4.85,0-.44,0-.88,0-1.33h0v0h0v-.2c0-.46,0-.92,0-1.38a60,60,0,0,1,1.79-10.51c.86-3.59,1.73-7.14,2.58-10.71h0c.35-1.4.68-2.79,1-4.2l.36-1.49a25.86,25.86,0,0,1,1.39-4.54,43,43,0,0,1,3.55-5.73,32.19,32.19,0,0,0,5-17.05h0v-1.44h0a5.11,5.11,0,0,0-.06-.94c.75.26,1.5.53,2.23.82a12.26,12.26,0,0,0,.1-1.36V368c.06-2.77-.55-5.72-.6-8.52v-.16a14.74,14.74,0,0,1,.19-2.74,10.19,10.19,0,0,1,.3-1.24c.21-.17.42-.34.6-.51h0a17.32,17.32,0,0,0,4.95-6.13c1.08-2.4,1.39-5.15,2.52-7.54a23.35,23.35,0,0,0,1.91-4.05,6.29,6.29,0,0,0,.2-1.36v-.07a42.7,42.7,0,0,0-.3-4.52h0v-.73c.06-4.16,2.65-8.06,2.94-12.12v-.06a9.31,9.31,0,0,0-.1-2c-.31-2-1.39-3.91-1.58-5.92h0a4.08,4.08,0,0,1,0-.78,11.85,11.85,0,0,1,.94-3.64c2.09-5.53,4.16-11.36,4.32-17.19v-.18a21.79,21.79,0,0,0-.37-4.77c-.27-1.53-.72-3-.84-4.58a8,8,0,0,1,0-1.2c.09-1.69.71-3.33.87-5h0a6.12,6.12,0,0,0,0-1.6,5,5,0,0,0-.54-1.59h0a5.41,5.41,0,0,0-.45-.72,27.28,27.28,0,0,0,2.44-4.67,9.29,9.29,0,0,0,.6-1.92h0A4.46,4.46,0,0,0,607.43,261.28Zm-41,264.66h0l-.06,0a7.68,7.68,0,0,0-2-.57c-.17,0-.35,0-.51,0h0a10.8,10.8,0,0,0,.2-1.7V521.9c0-.33,0-.67-.06-1s-.06-.73-.09-1.1h0v-.17c.08.23.17.46.26.69.74,1.93,1.54,3.82,2.4,5.69Z"/><path class="cls-31" d="M552.6,239.63c-.08,3-1.11,6-1.28,9,9,.44,17.81-3.9,26.69-2.57-2.48-1.6-3.81-4.5-4.59-7.35a30.5,30.5,0,0,1-.87-11.29,4.21,4.21,0,0,1,.11-.6c.32-1.49,1.19-3.6,1-4.77-.3-1.55-1.76-1.24-3.08-1.15a117.43,117.43,0,0,0-12,1.54c-1,.18-11.08,2.69-11.23,2.43a47.49,47.49,0,0,1,4.35,9A17.68,17.68,0,0,1,552.6,239.63Z"/><path class="cls-31" d="M464,230.22a13,13,0,0,0,2.74,2.76c.68.56,1.37,1.13,2.1,1.64a9,9,0,0,0,4.48,1.8c2.14.14,6.67-1.11,8-2.94a5.31,5.31,0,0,0,.76-3.06,14.14,14.14,0,0,0-.73-4.28,23.58,23.58,0,0,0-3.46-6.25,18.32,18.32,0,0,0-5.56-5.56,20.18,20.18,0,0,0-2.36-1.09l-4.2-1.72a2,2,0,0,0-.76-.19c-1.12,0-1.33,1.72-.69,2.64,1.27,1.87,4.13,2.4,4.94,4.5a3.2,3.2,0,0,0-3,2.3,1.63,1.63,0,0,1-.4.94c-.37.29-.95.13-1.37.35-.73.39-.41,1.5-.49,2.34a11.27,11.27,0,0,1-.76,2.1A4.42,4.42,0,0,0,464,230.22Z"/><path class="cls-32" d="M587.51,535.42c-.69-.69-1.8-.57-2.78-.42a102.34,102.34,0,0,1-15.64,1.26c-.65-3.2,1.25-6.31,1.86-9.52a8.21,8.21,0,0,1,.6-2.4c.73-1.42,2.4-2.06,4-2.4,2.82-.6,7.2-1.64,8.8,1.2C586.22,526.56,586.83,531.62,587.51,535.42Z"/><path class="cls-4" d="M530.22,523.33c2.13,1.45,4.77,1.9,7.32,2.23s5.18.57,7.5,1.71c2,1,3.68,2.6,5.79,3.31a12,12,0,0,0,6,.09c2.4-.44,4.91-1.31,6.19-3.36,1.15-1.8,1-4.13.87-6.28-.19-2.4-.36-4.86-.54-7.29a3.6,3.6,0,0,0-.45-1.76c-1.73-2.5-5.9,1-8.13,1a15.65,15.65,0,0,1-9.9-4.27,3,3,0,0,0-.77-.6c-1-.46-2,.38-2.92,1.12l-.3.24c-2.07,1.64-4.84,2-7.39,2.63s-5.3,2-6.09,4.53a4.21,4.21,0,0,0-.12.48C526.82,519.51,528.24,522,530.22,523.33Z"/><path class="cls-33" d="M530.22,523.33c2.13,1.45,4.77,1.9,7.32,2.23s5.18.57,7.5,1.71c2,1,3.68,2.6,5.79,3.31a12,12,0,0,0,6,.09c2.4-.44,4.91-1.31,6.19-3.36,1.15-1.8,1-4.13.87-6.28-.19-2.4-.36-4.86-.54-7.29a3.6,3.6,0,0,0-.45-1.76c-1.73-2.5-5.9,1-8.13,1a15.65,15.65,0,0,1-9.9-4.27,3,3,0,0,0-.77-.6c-1-.46-2,.38-2.92,1.12l-.3.24c-2.07,1.64-4.84,2-7.39,2.63s-5.3,2-6.09,4.53a4.21,4.21,0,0,0-.12.48C526.82,519.51,528.24,522,530.22,523.33Z"/><path class="cls-34" d="M530.22,524.14c2.13,1.45,4.77,1.9,7.32,2.23s5.18.57,7.5,1.71c2,1,3.68,2.61,5.79,3.31a12.06,12.06,0,0,0,6,.1,10,10,0,0,0,6.19-4.2c1.15-1.8,1-4.13.87-6.28-.19-2.4-.36-4.86-.54-7.29a3.6,3.6,0,0,0-.45-1.76c-1.73-2.5-5.9,1.05-8.13,1a15.65,15.65,0,0,1-9.9-4.27,3,3,0,0,0-.77-.6c-1-.45-2,.39-2.92,1.12a21,21,0,0,0,2.49,5.13,10.74,10.74,0,0,0,7.8,4.88c1.58.12,3.21-.19,4.74.21s2.95,2,2.4,3.47-2.4,1.79-4,1.85a17.83,17.83,0,0,1-6.44-.45c-1.25-.42-2.4-1.11-3.6-1.62-5.18-2.15-11.74-1-16-4.58a8.62,8.62,0,0,0-1.31-1C526.16,519.51,528.24,522.78,530.22,524.14Z"/><path class="cls-33" d="M530.22,524.14c2.13,1.45,4.77,1.9,7.32,2.23s5.18.57,7.5,1.71c2,1,3.68,2.61,5.79,3.31a12.06,12.06,0,0,0,6,.1,10,10,0,0,0,6.19-4.2c1.15-1.8,1-4.13.87-6.28-.19-2.4-.36-4.86-.54-7.29a3.6,3.6,0,0,0-.45-1.76c-1.73-2.5-5.9,1.05-8.13,1a15.65,15.65,0,0,1-9.9-4.27,3,3,0,0,0-.77-.6c-1-.45-2,.39-2.92,1.12a21,21,0,0,0,2.49,5.13,10.74,10.74,0,0,0,7.8,4.88c1.58.12,3.21-.19,4.74.21s2.95,2,2.4,3.47-2.4,1.79-4,1.85a17.83,17.83,0,0,1-6.44-.45c-1.25-.42-2.4-1.11-3.6-1.62-5.18-2.15-11.74-1-16-4.58a8.62,8.62,0,0,0-1.31-1C526.16,519.51,528.24,522.78,530.22,524.14Z"/><path class="cls-35" d="M586.55,365.31a31.94,31.94,0,0,1-4.38,23.55,44.79,44.79,0,0,0-3.55,5.7,25.4,25.4,0,0,0-1.39,4.52l-3.94,16.31c-1.07,4.4-2.13,8.89-1.8,13.41.22,3.15,1,6.69-.92,9.17a7,7,0,0,0-1.2,1.61,4.05,4.05,0,0,0,0,2.13c2,11.84,3.47,24.21-.13,35.67-3.26,10.38-3.45,21.89-6.22,32.39a7.27,7.27,0,0,1-1.73,3.6,5.73,5.73,0,0,1-2.58,1.2c-4.09,1-8.4-.17-12.23-1.93-2.68-1.25-5.56-3.42-5.33-6.37a13.07,13.07,0,0,1,1.48-3.92c1.09-2.53,1.2-5.36,1.47-8.1.74-6.88,2.86-13.53,4.47-20.26s2.69-13.77,1.33-20.56a179.79,179.79,0,0,0-13.19-40.68,4.87,4.87,0,0,0-1.2-1.8c-.54-.44-1.26-.65-1.72-1.2a5.28,5.28,0,0,1-.78-2.13c-.6-2.14-2.37-3.73-3.56-5.62-3-4.76-2.05-10.87-1.93-16.49s-.68-11,.21-16.4,4-10.92,9.2-12.6a19.91,19.91,0,0,1,8.07-.38C559.24,357.55,573.12,360.18,586.55,365.31Z"/><path class="cls-33" d="M586.55,365.31a31.94,31.94,0,0,1-4.38,23.55,44.79,44.79,0,0,0-3.55,5.7,25.4,25.4,0,0,0-1.39,4.52l-3.94,16.31c-1.07,4.4-2.13,8.89-1.8,13.41.22,3.15,1,6.69-.92,9.17a7,7,0,0,0-1.2,1.61,4.05,4.05,0,0,0,0,2.13c2,11.84,3.47,24.21-.13,35.67-3.26,10.38-3.45,21.89-6.22,32.39a7.27,7.27,0,0,1-1.73,3.6,5.73,5.73,0,0,1-2.58,1.2c-4.09,1-8.4-.17-12.23-1.93-2.68-1.25-5.56-3.42-5.33-6.37a13.07,13.07,0,0,1,1.48-3.92c1.09-2.53,1.2-5.36,1.47-8.1.74-6.88,2.86-13.53,4.47-20.26s2.69-13.77,1.33-20.56a179.79,179.79,0,0,0-13.19-40.68,4.87,4.87,0,0,0-1.2-1.8c-.54-.44-1.26-.65-1.72-1.2a5.28,5.28,0,0,1-.78-2.13c-.6-2.14-2.37-3.73-3.56-5.62-3-4.76-2.05-10.87-1.93-16.49s-.68-11,.21-16.4,4-10.92,9.2-12.6a19.91,19.91,0,0,1,8.07-.38C559.24,357.55,573.12,360.18,586.55,365.31Z"/><path class="cls-35" d="M528.32,399.64A33.63,33.63,0,0,0,529,406q3.76,21.21,8.05,42.31c.25,1.2.5,2.45.83,3.64a29.4,29.4,0,0,0,5.46,10.74c11.87,14.81,12.9,36.31,19.35,54.17.43,1.2.87,2.4,1.33,3.6a88,88,0,0,0,4,8.87,2.5,2.5,0,0,0,.81,1.06,2.43,2.43,0,0,0,1.3.25,37.72,37.72,0,0,0,16.76-3.8,3.48,3.48,0,0,0,1.8-1.47,3.66,3.66,0,0,0,.19-1.7c-.18-3.54-.4-7.2-2.08-10.32a22.33,22.33,0,0,0-4.13-5,189.74,189.74,0,0,0-4-33.1c-1.26-5.55-2.81-11.15-6-15.85-2.4-3.46-5.78-6.87-5.36-11.05.18-1.8,1-4.12-.54-5.19-.66-.48-1.62-.54-2.06-1.2a2.23,2.23,0,0,1-.29-1,25.49,25.49,0,0,1,.53-8.57,46.91,46.91,0,0,0,1.28-5.58,7.07,7.07,0,0,0-1.41-5.4c-.07-3.82,0-7.8,0-11.58a21.47,21.47,0,0,1,.53-6.46c.3-1,.73-2,1-3,.79-3.66-1.2-8.05,1.2-11,1-1.2,2.51-1.8,3.8-2.67a14,14,0,0,0,5.22-7.51,42.79,42.79,0,0,0,1.48-9.18,9.46,9.46,0,0,0,0-2,3.81,3.81,0,0,0-.26-1c-.74-1.66-2.72-2.3-4.49-2.72a144.67,144.67,0,0,0-34.19-4c-4.25-2.9-6.65-1.86-8.46,1.2a32.07,32.07,0,0,0-2.4,5.89c-.83,2.49-.87,16.44-1.68,18.94C525.34,389.57,528.36,396.22,528.32,399.64Z"/><path class="cls-36" d="M605.33,272.7c.32,2.2-.74,4.36-.86,6.57a25.08,25.08,0,0,0,.87,5.73c1.37,7.44-1.27,15-4,22a11.25,11.25,0,0,0-.93,3.6c-.08,2.31,1.25,4.42,1.62,6.7.76,4.8-2.77,9.29-2.85,14.14,0,2.24.67,4.51.12,6.67a24.34,24.34,0,0,1-1.92,4c-1.13,2.4-1.43,5.09-2.52,7.5-1.95,4.35-6.15,7.19-10.13,9.8-2.28-.75-4.74-1.65-6-3.7a9,9,0,0,1-1-3.24,85.12,85.12,0,0,1-.8-15.06,93,93,0,0,1,.7-12.91c.81-5.47,2.58-10.74,3.85-16.12,1.61-6.78,2.4-13.8,4.94-20.3,2.19-5.73,5.62-10.86,9.22-15.77,1.37-1.88,2.46-4.56,5.13-4.13A5.6,5.6,0,0,1,605.33,272.7Z"/><path class="cls-33" d="M605.33,272.7c.32,2.2-.74,4.36-.86,6.57a25.08,25.08,0,0,0,.87,5.73c1.37,7.44-1.27,15-4,22a11.25,11.25,0,0,0-.93,3.6c-.08,2.31,1.25,4.42,1.62,6.7.76,4.8-2.77,9.29-2.85,14.14,0,2.24.67,4.51.12,6.67a24.34,24.34,0,0,1-1.92,4c-1.13,2.4-1.43,5.09-2.52,7.5-1.95,4.35-6.15,7.19-10.13,9.8-2.28-.75-4.74-1.65-6-3.7a9,9,0,0,1-1-3.24,85.12,85.12,0,0,1-.8-15.06,93,93,0,0,1,.7-12.91c.81-5.47,2.58-10.74,3.85-16.12,1.61-6.78,2.4-13.8,4.94-20.3,2.19-5.73,5.62-10.86,9.22-15.77,1.37-1.88,2.46-4.56,5.13-4.13A5.6,5.6,0,0,1,605.33,272.7Z"/><path class="cls-37" d="M547.32,224.88a46.8,46.8,0,0,1,4.35,9,20.61,20.61,0,0,0,4.94.6c6.46,0,11-3.67,14.83-8.32.33-1.49,2.4-2.88,2.15-4.05-.3-1.55-1.76-1.24-3.08-1.15a114.68,114.68,0,0,0-12,1.54C557.52,222.63,547.49,225.13,547.32,224.88Z"/><circle class="cls-31" cx="556.63" cy="213.17" r="20.7"/><path class="cls-37" d="M530.47,361.49c3.6-.21,7.2-.07,10.8.08a35.9,35.9,0,0,1,6.69.69c2.72.6,5.26,1.85,7.94,2.62,4.3,1.26,8.83,1.31,13.28,1.75a77.33,77.33,0,0,1,8.69,1.36,3.47,3.47,0,0,0-.27-1c-.73-1.65-2.71-2.3-4.48-2.72a144.67,144.67,0,0,0-34.19-4C534.67,357.38,532.27,358.42,530.47,361.49Z"/><path class="cls-36" d="M544.58,247.06c.9,1,2.11,2.19,3.45,1.86a5,5,0,0,0,1.35-.72c2.39-1.54,5.31-1.9,8.12-2.32a121.12,121.12,0,0,0,16.73-3.76,17,17,0,0,1,4.95-1c3.5,0,6.59,2.35,8.81,5.09s3.76,5.93,5.92,8.69c1.53,2,3.36,3.72,4.8,5.76,3.59,5.17,4.4,11.91,3.46,18.15s-3.43,12.12-5.9,17.94a64,64,0,0,1-4.8,9.71c.84,4.74.4,10.17-1.86,14.39a14.1,14.1,0,0,0-1.88,4.29,10.74,10.74,0,0,0,.13,3.15l1.06,7.49c.31,2.28.64,4.56,1.05,6.83.76,4.15,1.8,8.66-.12,12.41-2.31,4.49.11,10.26-.5,15.27a77.28,77.28,0,0,0-20.17-4.8c-4.45-.43-9-.49-13.27-1.74-2.68-.77-5.22-2-7.94-2.63a35.92,35.92,0,0,0-6.7-.69,79.39,79.39,0,0,0-14.87.34c-.4.06-.88.09-1.12-.24a1.05,1.05,0,0,1-.15-.6,9.77,9.77,0,0,1,1.27-5.26c.6-1.11,1.5-2.19,1.47-3.46a5.07,5.07,0,0,0-.43-1.71l-2.17-5.81c-1.84-4.89-1-10.59-1.92-15.73a92,92,0,0,1-1.43-12.17c-.18-3.49-.06-7.27,2-10.06a11.24,11.24,0,0,0,1.59-2.22,6.75,6.75,0,0,0,.38-2.64q.08-10.47-.6-20.94c1.84-3.3,3.75-6.68,5.59-10,2.13-3.84,4.31-7.75,5.17-12.06.6-2.86.55-5.79,1-8.67a3.74,3.74,0,0,1,.73-2,3.7,3.7,0,0,1,3-.87A12.71,12.71,0,0,1,544.58,247.06Z"/><path class="cls-37" d="M468.79,234.62a9,9,0,0,0,4.48,1.8c2.13.14,6.67-1.11,8-2.94a5.32,5.32,0,0,0,.77-3.06,3.89,3.89,0,0,0-.89-.17,23.11,23.11,0,0,0-6.95.28,7.86,7.86,0,0,0-5.4,4.05Z"/><path class="cls-36" d="M537.67,279.4a14.79,14.79,0,0,1-4.36,4.1c-2.06,1.07-4.48,1.1-6.8,1.05a163.17,163.17,0,0,1-28.4-3.12,17,17,0,0,1-3.13-.84,17.22,17.22,0,0,1-3.16-2c-3.08-2.21-6.2-4.47-8.55-7.45a25.15,25.15,0,0,1-5.06-12.43c-2.23-2.05-3.41-5-4.53-7.79a12.19,12.19,0,0,1-1-3.79c-.06-1.34.83-2.74.6-4.06a10.77,10.77,0,0,0-3.28-5.91,2.16,2.16,0,0,1-.79-1,1.69,1.69,0,0,1,.2-1,7.81,7.81,0,0,1,5.39-4,23.12,23.12,0,0,1,7-.27,16.51,16.51,0,0,1,2.27.6l1.62,4.26a5.57,5.57,0,0,0,1.06,1.94,10.82,10.82,0,0,0,1.15.9,6.59,6.59,0,0,1,2.28,5.75,6.16,6.16,0,0,1,3.65,7.62,7.27,7.27,0,0,1,5.34,4.7,3.42,3.42,0,0,0,.7,1.46,2.79,2.79,0,0,0,1.86.6c1.8.12,3.43,1.56,5.09.78a10.3,10.3,0,0,1,6-.85,4.63,4.63,0,0,0,1.29.12,3.65,3.65,0,0,0,1.05-.37,9,9,0,0,1,2.4-.95,2.24,2.24,0,0,1,2.27.88c.6-.63.93-1.45,1.46-2.13a2.32,2.32,0,0,1,2.21-1c-.55-.49,0-1.47.72-1.65a9.11,9.11,0,0,1,2.21.08c1.92,0,3.38-1.75,5.24-2.2s4,.08,4.87-1.45c.31-.54.37-1.27.9-1.6a1.7,1.7,0,0,1,1.15-.14,11.26,11.26,0,0,1,3.5,1.06c1.8,7,.85,14.3-.52,21.4A18.94,18.94,0,0,1,537.67,279.4Z"/><path class="cls-37" d="M537.73,304.52l8.91,18c-1-1.66-3-2.31-4.6-3.37a12.22,12.22,0,0,1-4.4-5.91,36,36,0,0,1-1.71-7.31c-.18-1.14-.56-2.74,0-3.77C537,302.37,537.3,303.68,537.73,304.52Z"/><path class="cls-37" d="M563.37,319.77c2,2,4.47,3.45,6.69,5.21,5.17,4.12,8.85,9.77,12.45,15.31a23.73,23.73,0,0,1,2.54,4.67c-.42.36-1,0-1.46-.38l-7-6.15a16.32,16.32,0,0,1-2.33-2.37c-1.2-1.63-1.75-3.67-2.85-5.4a21.31,21.31,0,0,0-4.26-4.33c-1.54-1.34-9-7.63-7.2-10.05C561.25,316.93,562.32,318.73,563.37,319.77Z"/><path class="cls-36" d="M548.07,241.86a21.22,21.22,0,0,1,7.41-2.44,15.61,15.61,0,0,1,4.72-.33c1.45.18,2.85.74,4.32.82,2.06.12,4-.72,6-1.26s4.29-.76,6,.45a2.62,2.62,0,0,0,1.3.69,2.28,2.28,0,0,0,1.34-.66,7.62,7.62,0,0,1,9.51.5c3.8,3.56,3.38,10.51,7.8,13.2,1.23.74,2.8,1.14,3.51,2.4a7.73,7.73,0,0,0,.6,1.14,3.15,3.15,0,0,0,1.07.77,20.85,20.85,0,0,1,3.67,2.1,5.22,5.22,0,0,1,2.11,3.54,6.6,6.6,0,0,1-.65,3,27.92,27.92,0,0,1-27.13,17.35,4.32,4.32,0,0,1-2.84-.89,5.32,5.32,0,0,1-1-1.64c-2.08-4.38-6-7.62-8.51-11.79-1.49-2.48-2.44-5.26-4-7.71-2.3-3.72-5.87-6.48-9.35-9.12-2-1.5-4.15-3.07-6.63-3-2.2.1-3.81.22-3-2.48A8.69,8.69,0,0,1,548.07,241.86Z"/><path class="cls-33" d="M548.07,241.86a21.22,21.22,0,0,1,7.41-2.44,15.61,15.61,0,0,1,4.72-.33c1.45.18,2.85.74,4.32.82,2.06.12,4-.72,6-1.26s4.29-.76,6,.45a2.62,2.62,0,0,0,1.3.69,2.28,2.28,0,0,0,1.34-.66,7.62,7.62,0,0,1,9.51.5c3.8,3.56,3.38,10.51,7.8,13.2,1.23.74,2.8,1.14,3.51,2.4a7.73,7.73,0,0,0,.6,1.14,3.15,3.15,0,0,0,1.07.77,20.85,20.85,0,0,1,3.67,2.1,5.22,5.22,0,0,1,2.11,3.54,6.6,6.6,0,0,1-.65,3,27.92,27.92,0,0,1-27.13,17.35,4.32,4.32,0,0,1-2.84-.89,5.32,5.32,0,0,1-1-1.64c-2.08-4.38-6-7.62-8.51-11.79-1.49-2.48-2.44-5.26-4-7.71-2.3-3.72-5.87-6.48-9.35-9.12-2-1.5-4.15-3.07-6.63-3-2.2.1-3.81.22-3-2.48A8.69,8.69,0,0,1,548.07,241.86Z"/><path class="cls-4" d="M537.3,541.91a11.59,11.59,0,0,0,5.56,2.45,100.58,100.58,0,0,0,13.85,1.71l4.52.35c4.42.33,8.84.67,13.27.69a91.15,91.15,0,0,0,16.32-1.41,1.37,1.37,0,0,0,1.51-1.23,1.25,1.25,0,0,0,0-.43,78.65,78.65,0,0,0-2-16.38c-.52-2.21-4.48,2.74-4.65,3a4.58,4.58,0,0,1-3.6,1.91c-4.55.25-9.66-2.52-13.27-5a16.46,16.46,0,0,0-2.46-1.52,6.94,6.94,0,0,0-2-.6,12,12,0,0,0-6.78,1.37c-2.71,1.35-5.1,3.29-7.79,4.68a22,22,0,0,1-7,2.21c-2.47.34-5.4.5-6.68,2.64h0C535.05,538.11,535.81,540.5,537.3,541.91Z"/><path class="cls-34" d="M537.3,542.73a11.59,11.59,0,0,0,5.56,2.45,102.14,102.14,0,0,0,13.85,1.71l4.52.34c4.42.33,8.84.68,13.27.69a91.15,91.15,0,0,0,16.32-1.41,1.78,1.78,0,0,0,1.29-.59,7.15,7.15,0,0,0,1-1.85c-.09-5.51-1.58-11-2.82-16.38-.51-2.21-4.47,2.74-4.65,2.95a4.56,4.56,0,0,1-3.6,1.9c-4.55.26-9.65-2.51-13.27-5a16.84,16.84,0,0,0-2.46-1.53,7.3,7.3,0,0,0-2-.6c.6,3.28,5.28,7.24,7.7,8.44,4.91,2.44,10.74,1.2,16.2,1.51a2.17,2.17,0,0,1,1.14.28c.66.43.7,1.36.68,2.15,0,1.31-.21,2.83-1.34,3.5a3.86,3.86,0,0,1-1.8.38,256.38,256.38,0,0,1-40.43-1.42,22.31,22.31,0,0,1-6.6-1.46,16.72,16.72,0,0,1-3.82-2.46C534.37,537.72,535.81,541.33,537.3,542.73Z"/><path class="cls-4" d="M548.57,213c.08,2.14-1.38,6.29,2.62,5.13,2.4-.69,3.06-3.52,6.09-2.89S561,219.55,562,222a13,13,0,0,0,9.43,7.63,5.71,5.71,0,0,0,2.6,0c2-.56,3.07-2.58,3.87-4.44a36.51,36.51,0,0,0,1.71-4.87,22,22,0,0,0,.6-3.6h0a17,17,0,0,0,0-2.47c-.37-4.87-3.13-9.31-6.69-12.67s-7.85-5.77-12.1-8.17a18.11,18.11,0,0,0-4.47-2,14.9,14.9,0,0,0-4.71-.19,16.16,16.16,0,0,0-6,1.41,8.19,8.19,0,0,0-2.11,1.48,6.31,6.31,0,0,0-1.8,3c-.77,3.15,1.23,6,2.86,8.47C546.67,207.85,548.46,210.19,548.57,213Z"/><path class="cls-37" d="M481.2,258.89c.86-2.16,4.46-8.12,3.42-10.17a27,27,0,0,0-2.74,4.89C481.2,255.28,481.76,257.51,481.2,258.89Z"/><path class="cls-37" d="M545.13,205.64c-1.63-2.49-3.64-5.32-2.87-8.46a6.64,6.64,0,0,1,2.33-3.49,5.69,5.69,0,0,0-.6,1.47c-.77,3.14,1.24,6,2.87,8.46,1.45,2.21,3.24,4.56,3.35,7.31.08,2.14-1.39,6.29,2.62,5.14,2.4-.69,3.06-3.53,6.09-2.89s3.72,4.36,4.74,6.8a13.06,13.06,0,0,0,9.46,7.62,5.67,5.67,0,0,0,2.59,0,3.76,3.76,0,0,0,1.2-.6,5.3,5.3,0,0,1-3,2.62,5.71,5.71,0,0,1-2.6,0,13,13,0,0,1-9.41-7.63c-1-2.44-1.7-6.16-4.75-6.8s-3.7,2.2-6.09,2.89c-4,1.16-2.54-3-2.62-5.13C548.38,210.19,546.58,207.85,545.13,205.64Z"/><path class="cls-37" d="M544.25,201.39a17,17,0,0,0,1.2,1.75,23.75,23.75,0,0,0,4.74,4.43,29.61,29.61,0,0,0,3.86,2.31,71.74,71.74,0,0,0,12.37,4.43l8.27,2.4c1,.77,2.87,2.15,4.92,3.6a20,20,0,0,0,.6-3.6h0a14.55,14.55,0,0,0,0-2.47c-.36-4.87-3.13-9.31-6.68-12.67s-7.85-5.77-12.1-8.17a18.28,18.28,0,0,0-4.47-2,15,15,0,0,0-4.72-.19,16.21,16.21,0,0,0-6,1.41,8.55,8.55,0,0,0-2.11,1.48,7.93,7.93,0,0,0-1.06,2.24A6.6,6.6,0,0,0,544.25,201.39Z"/><path class="cls-36" d="M544.25,200.83a15.94,15.94,0,0,0,1.2,1.75,20.64,20.64,0,0,0,2.83,2.93,19.68,19.68,0,0,0,1.91,1.5,29.61,29.61,0,0,0,3.86,2.31,71.77,71.77,0,0,0,12.37,4.44l8.27,2.4c2.88,2.18,12.54,9.33,14.16,8.44,1.91-1-8.57-8.47-8.57-8.47l-.48.36c1.53-1,2.34-3.2,2.69-5.13a25.88,25.88,0,0,0,.07-10.48,12.43,12.43,0,0,0-6-8.28c-1.4-.71-3.08-1.2-4.08-2.3a3,3,0,0,1-.4-.53,1.91,1.91,0,0,1-.15-.28,3.88,3.88,0,0,0-.44-.86c-.6-.66-1.62-.46-2.49-.35l-.28,0h-.47c-3.1.07-6.11-1.67-9.26-1.67-3.45,0-6.37,2-9.41,3.36-.6.27-1.2.52-1.74.78-2.19,1-3.84,2.11-4.74,5C542.6,197.5,543.32,199.32,544.25,200.83Z"/><path class="cls-37" d="M568.28,188.32a1.4,1.4,0,0,0,.33,1.8,2.45,2.45,0,0,0,1.3.47c.34,0,.68.07,1,.08a2.8,2.8,0,0,0,1.34-.24l.24-.15a2.55,2.55,0,0,1-.4-.53c-.08.06-.16.05-.47,0a7.21,7.21,0,0,1-1.67-.29,1.63,1.63,0,0,1-1.2-1.2Z"/><path class="cls-37" d="M580.1,216a4.07,4.07,0,0,1-1.43.54,6.76,6.76,0,0,1-1.11.18,6.23,6.23,0,0,1-2.7-.77Z"/><path class="cls-38" d="M321.37,281l-.78-1.72-.32.09.82,1.71L327,293.43c-.13.16-1.86,2.24-1.8,4.2a2.64,2.64,0,0,0,.15.89c.3.88.67,1.23,1,1.33v-.15a3,3,0,0,1,0-.6v-.26a.21.21,0,0,1,0-.11v0h0l0-.13h0a0,0,0,0,1,0-.05v-.06l.07-.26,0-.07,0-.13c0-.08.06-.17.1-.26a.61.61,0,0,1,.05-.12l.07-.16c.07-.17.16-.33.23-.5s.17-.3.25-.43a10.05,10.05,0,0,1,.79-1.14Zm6.53,20.75h0a.77.77,0,0,1-.37,0h-.06l-.11,0a1,1,0,0,1-.24-.15l-.09-.09a2.12,2.12,0,0,1-.43-.68,2.08,2.08,0,0,0-.14.7,1.12,1.12,0,0,0,.55,1,2,2,0,0,1,.57.56h0a0,0,0,0,0,0,0h0V303a2.87,2.87,0,0,1,.26-.71,3.47,3.47,0,0,1,.18-.33l.08-.13.05-.09.09-.14a1,1,0,0,1-.31.17Zm0,0h0a.77.77,0,0,1-.37,0h-.06l-.11,0a1,1,0,0,1-.24-.15l-.09-.09a2.12,2.12,0,0,1-.43-.68,2.08,2.08,0,0,0-.14.7,1.12,1.12,0,0,0,.55,1,2,2,0,0,1,.57.56h0a0,0,0,0,0,0,0h0V303a2.87,2.87,0,0,1,.26-.71,3.47,3.47,0,0,1,.18-.33l.08-.13.05-.09.09-.14a1,1,0,0,1-.31.17ZM321.37,281l-.78-1.72-.32.09.82,1.71L327,293.43c-.13.16-1.86,2.24-1.8,4.2a2.64,2.64,0,0,0,.15.89c.3.88.67,1.23,1,1.33v-.15a3,3,0,0,1,0-.6.11.11,0,0,1,0-.08v-.08h0v-.05h0v0a0,0,0,0,1,0-.05h0a.09.09,0,0,1,0-.07h0a.35.35,0,0,1,0-.14,0,0,0,0,1,0-.05v-.06l.07-.25,0-.08,0-.13a2.6,2.6,0,0,1,.1-.25.33.33,0,0,1,.05-.12l.07-.17c.07-.17.16-.33.23-.49s.17-.3.25-.44a10.05,10.05,0,0,1,.79-1.14Zm6.53,20.75h0a.77.77,0,0,1-.37,0h-.06l-.11,0a1,1,0,0,1-.24-.15l-.09-.09a2.12,2.12,0,0,1-.43-.68,2.08,2.08,0,0,0-.14.7,1.12,1.12,0,0,0,.55,1,2,2,0,0,1,.57.56h0a0,0,0,0,0,0,0h0V303a2.87,2.87,0,0,1,.26-.71l.12-.25.06-.08.08-.13.05-.09.09-.14a1,1,0,0,1-.31.17ZM321.37,281l-.78-1.72-.32.09.82,1.71L327,293.43c-.13.16-1.86,2.24-1.8,4.2a2.64,2.64,0,0,0,.15.89c.3.88.67,1.23,1,1.33v-.15a3,3,0,0,1,0-.6.11.11,0,0,1,0-.08v-.08h0v-.05h0a0,0,0,0,1,0-.05h0a.09.09,0,0,1,0-.07h0a.35.35,0,0,1,0-.14,0,0,0,0,1,0-.05v-.06l.07-.25,0-.08,0-.13a2.6,2.6,0,0,1,.1-.25.33.33,0,0,1,.05-.12l.07-.17c.07-.17.16-.33.23-.49s.17-.3.25-.44a10.05,10.05,0,0,1,.79-1.14Zm6.53,20.75h0a.77.77,0,0,1-.37,0h-.06l-.11,0a1,1,0,0,1-.24-.15l-.09-.09a2.12,2.12,0,0,1-.43-.68,2.08,2.08,0,0,0-.14.7,1.12,1.12,0,0,0,.55,1,2,2,0,0,1,.57.56h0a0,0,0,0,0,0,0h0V303a2.87,2.87,0,0,1,.26-.71l.12-.25.06-.08.08-.13.05-.09.09-.14a1,1,0,0,1-.31.17ZM321.37,281l-.78-1.72-.32.09.82,1.71L327,293.43c-.13.16-1.86,2.24-1.8,4.2a2.64,2.64,0,0,0,.15.89c.3.88.67,1.23,1,1.33v-.15a3,3,0,0,1,0-.6.11.11,0,0,1,0-.08v-.08h0v-.05h0a0,0,0,0,1,0-.05h0a.09.09,0,0,1,0-.07h0a.35.35,0,0,1,0-.14,0,0,0,0,1,0-.05v-.06l.07-.25,0-.08,0-.13a2.6,2.6,0,0,1,.1-.25.33.33,0,0,1,.05-.12l.07-.17c.07-.17.16-.33.23-.49s.17-.3.25-.44a10.05,10.05,0,0,1,.79-1.14Zm6.53,20.75h0a.77.77,0,0,1-.37,0h-.06l-.11,0a1,1,0,0,1-.24-.15l-.09-.09a2.12,2.12,0,0,1-.43-.68,2.08,2.08,0,0,0-.14.7,1.12,1.12,0,0,0,.55,1,2,2,0,0,1,.57.56h0a0,0,0,0,0,0,0h0V303a2.87,2.87,0,0,1,.26-.71l.12-.25.06-.08.08-.13.05-.09.09-.14a1,1,0,0,1-.31.17ZM321.37,281l-.78-1.72-.32.09.82,1.71L327,293.43c-.13.16-1.86,2.24-1.8,4.2a2.64,2.64,0,0,0,.15.89c.3.88.67,1.23,1,1.33v-.15a3,3,0,0,1,0-.6.11.11,0,0,1,0-.08v-.08h0v-.05h0a0,0,0,0,1,0-.05h0a.09.09,0,0,1,0-.07h0a.35.35,0,0,1,0-.14,0,0,0,0,1,0-.05v-.06l.07-.25,0-.08,0-.13a2.6,2.6,0,0,1,.1-.25.33.33,0,0,1,.05-.12l.07-.17c.07-.17.16-.33.23-.49s.17-.3.25-.44a10.05,10.05,0,0,1,.79-1.14Zm6.53,20.75h0a.77.77,0,0,1-.37,0h-.06l-.11,0a1,1,0,0,1-.24-.15l-.09-.09a2.12,2.12,0,0,1-.43-.68,2.08,2.08,0,0,0-.14.7,1.12,1.12,0,0,0,.55,1,2,2,0,0,1,.57.56h0a0,0,0,0,0,0,0h0V303a2.87,2.87,0,0,1,.26-.71l.12-.25.06-.08.08-.13.05-.09.09-.14a1,1,0,0,1-.31.17ZM321.37,281l-.78-1.72-.32.09.82,1.71L327,293.43c-.13.16-1.86,2.24-1.8,4.2a2.64,2.64,0,0,0,.15.89c.3.88.67,1.23,1,1.33v-.15a3,3,0,0,1,0-.6.11.11,0,0,1,0-.08v-.08h0v-.05h0a0,0,0,0,1,0-.05h0a.09.09,0,0,1,0-.07h0a.35.35,0,0,1,0-.14,0,0,0,0,1,0-.05v-.06l.07-.25,0-.08,0-.13a2.6,2.6,0,0,1,.1-.25.33.33,0,0,1,.05-.12l.07-.17c.07-.17.16-.33.23-.49s.17-.3.25-.44a10.05,10.05,0,0,1,.79-1.14Zm6.53,20.75h0a.77.77,0,0,1-.37,0h-.06l-.11,0a1,1,0,0,1-.24-.15l-.09-.09a2.12,2.12,0,0,1-.43-.68,2.08,2.08,0,0,0-.14.7,1.12,1.12,0,0,0,.55,1,2,2,0,0,1,.57.56h0a0,0,0,0,0,0,0h0V303a2.87,2.87,0,0,1,.26-.71l.12-.25.06-.08.08-.13.05-.09.09-.14a1,1,0,0,1-.31.17ZM321.37,281l-.78-1.72-.32.09.82,1.71L327,293.43c-.13.16-1.86,2.24-1.8,4.2a2.64,2.64,0,0,0,.15.89c.3.88.67,1.23,1,1.33v-.15a3,3,0,0,1,0-.6.11.11,0,0,1,0-.08v-.08h0v-.05h0a0,0,0,0,1,0-.05h0a.09.09,0,0,1,0-.07h0a.35.35,0,0,1,0-.14,0,0,0,0,1,0-.05v-.06l.07-.25,0-.08,0-.13a2.6,2.6,0,0,1,.1-.25.33.33,0,0,1,.05-.12l.07-.17c.07-.17.16-.33.23-.49s.17-.3.25-.44a10.05,10.05,0,0,1,.79-1.14Zm6.53,20.75h0a.77.77,0,0,1-.37,0h-.06l-.11,0a1,1,0,0,1-.24-.15l-.09-.09a2.12,2.12,0,0,1-.43-.68,2.08,2.08,0,0,0-.14.7,1.12,1.12,0,0,0,.55,1,2,2,0,0,1,.57.56h0a0,0,0,0,0,0,0h0V303a2.87,2.87,0,0,1,.26-.71l.12-.25.06-.08.08-.13.05-.09.09-.14a1,1,0,0,1-.31.17ZM321.37,281l-.78-1.72-.32.09.82,1.71L327,293.43c-.13.16-1.86,2.24-1.8,4.2a2.64,2.64,0,0,0,.15.89c.3.88.67,1.23,1,1.33v-.15a3,3,0,0,1,0-.6.11.11,0,0,1,0-.08v-.08h0v-.05h0a0,0,0,0,1,0-.05h0a.09.09,0,0,1,0-.07h0a.35.35,0,0,1,0-.14,0,0,0,0,1,0-.05v-.06l.07-.25,0-.08,0-.13a2.6,2.6,0,0,1,.1-.25.33.33,0,0,1,.05-.12l.07-.17c.07-.17.16-.33.23-.49s.17-.3.25-.44a10.05,10.05,0,0,1,.79-1.14Zm6.53,20.75h0a.77.77,0,0,1-.37,0h-.06l-.11,0a1,1,0,0,1-.24-.15l-.09-.09a2.12,2.12,0,0,1-.43-.68,2.08,2.08,0,0,0-.14.7,1.12,1.12,0,0,0,.55,1,2,2,0,0,1,.57.56h0a0,0,0,0,0,0,0h0V303a2.87,2.87,0,0,1,.26-.71l.12-.25.06-.08.08-.13.05-.09.09-.14a1,1,0,0,1-.31.17ZM321.37,281l-.78-1.72-.32.09.82,1.71L327,293.43c-.13.16-1.86,2.24-1.8,4.2a2.64,2.64,0,0,0,.15.89c.3.88.67,1.23,1,1.33v-.15a3,3,0,0,1,0-.6.11.11,0,0,1,0-.08v-.08h0v-.05h0a0,0,0,0,1,0-.05h0a.09.09,0,0,1,0-.07h0a.35.35,0,0,1,0-.14,0,0,0,0,1,0-.05v-.06l.07-.25,0-.08,0-.13a2.6,2.6,0,0,1,.1-.25.33.33,0,0,1,.05-.12l.07-.17c.07-.17.16-.33.23-.49s.17-.3.25-.44a10.05,10.05,0,0,1,.79-1.14Zm6.53,20.75h0a.77.77,0,0,1-.37,0h-.06l-.11,0a1,1,0,0,1-.24-.15l-.09-.09a2.12,2.12,0,0,1-.43-.68,2.08,2.08,0,0,0-.14.7,1.12,1.12,0,0,0,.55,1,2,2,0,0,1,.57.56h0a0,0,0,0,0,0,0h0V303a2.87,2.87,0,0,1,.26-.71l.12-.25.06-.08.08-.13.05-.09.09-.14a1,1,0,0,1-.31.17ZM321.37,281l-.78-1.72-.32.09.82,1.71L327,293.43c-.13.16-1.86,2.24-1.8,4.2a2.64,2.64,0,0,0,.15.89c.3.88.67,1.23,1,1.33v-.15a3,3,0,0,1,0-.6.11.11,0,0,1,0-.08v-.08h0v-.05h0v0a0,0,0,0,1,0-.05h0a.09.09,0,0,1,0-.07h0a.35.35,0,0,1,0-.14,0,0,0,0,1,0-.05v-.06l.07-.25,0-.08,0-.13a2.6,2.6,0,0,1,.1-.25.33.33,0,0,1,.05-.12l.07-.17c.07-.17.16-.33.23-.49s.17-.3.25-.44a10.05,10.05,0,0,1,.79-1.14Zm6.53,20.75h0a.77.77,0,0,1-.37,0h-.06a.45.45,0,0,1-.11,0,1,1,0,0,1-.24-.15l-.09-.09a2.12,2.12,0,0,1-.43-.68,2.08,2.08,0,0,0-.14.7,1.12,1.12,0,0,0,.55,1,2,2,0,0,1,.57.56h0a.14.14,0,0,1,0-.09v-.05a2.87,2.87,0,0,1,.26-.71l.12-.25.14-.22.05-.08.09-.14a1.05,1.05,0,0,1-.31.18ZM326.58,298a2,2,0,0,1,.1-.26c0-.08,0-.08.05-.12a.87.87,0,0,1,.07-.17c.07-.17.16-.33.23-.49s.17-.3.25-.44a10.05,10.05,0,0,1,.79-1.14L321.4,281l-.81-1.74-.32.09.82,1.71L327,293.43c-.13.16-1.86,2.24-1.8,4.2a2.64,2.64,0,0,0,.15.89c.3.88.67,1.23,1,1.33v-.15a3,3,0,0,1,0-.6.11.11,0,0,1,0-.08v-.08a.38.38,0,0,1,0-.15h0l0-.18v-.15l.07-.26A.87.87,0,0,0,326.58,298Zm90.29-84.08a5.09,5.09,0,0,0-2.86-1.83,4.3,4.3,0,0,0-3.28.75c.27-.29,1.76-1.91,3-3.51,1.47-1.88,2.64-3.74,1.2-3.43-2.79.6-7.94,6.83-7.94,6.83l-1.06,1.88h0l-3.06,5.47-.32.6a15.91,15.91,0,0,0-3.07.38l-.35.46a8.51,8.51,0,0,0-1.55,3c-.15,1.19-5.16,3.41-7.2,4.6s-4,5-4,5-6.78.6-8.69,2.4c-1.34,1.24-4.61,1.26-6.46,1.15h0l-.47,0-.86-.08s-1.91-2.08-3.38-2.23a14.55,14.55,0,0,0-2.8,0s-.77-.26-1.9-.6l-.31-.09-.84-.22-.23-.06c.11-.12.21-.25.31-.38a4.06,4.06,0,0,0,.4-.74h0a3,3,0,0,0,.18-1.57,4.33,4.33,0,0,0-.63-1.58l-.55-.89a13.68,13.68,0,0,1-1.85-5.21h0a14.24,14.24,0,0,1,1.35-8.61c.37-.68.77-1.35,1.2-2l.68-1,.43-.6.47-.66h0l.46-.65a16.74,16.74,0,0,0,1.73-3c.1-.21.17-.43.25-.65a.63.63,0,0,1,.07-.22c0-.07.09-.29.13-.44s0-.17.07-.26a2.71,2.71,0,0,0,.09-.41,1.4,1.4,0,0,1,.06-.28c0-.09.05-.27.07-.4a1.36,1.36,0,0,1,0-.3l0-.4v-.28h0v-1.63a1.21,1.21,0,0,0-.05-.4c0-.14,0-.22,0-.34a2,2,0,0,1-.05-.34l-.07-.35a1.8,1.8,0,0,0-.06-.32l-.09-.36a1.67,1.67,0,0,0-.08-.3l-.12-.36a1.57,1.57,0,0,0-.1-.28c0-.12-.08-.24-.13-.36s-.07-.18-.1-.26a11.13,11.13,0,0,0-1.26-2.23l-.88-1.09h0l-.23-.29a.83.83,0,0,0-.09-.16l-.15-.31c-.45-.88-.81-1.8-1.17-2.72-.1-.28-.22-.56-.34-.84a.64.64,0,0,0-.06-.18c-.18-.43-.37-.85-.57-1.27s-.31-.6-.47-.92c-.05-.1-.11-.19-.16-.28l-.37-.6-.19-.3-.4-.6-.18-.26c-.19-.27-.39-.54-.6-.8h0c-.21-.28-.44-.55-.66-.82l-.18-.2-.52-.6-.2-.23-.55-.6-.18-.19c-.86-.88-1.75-1.73-2.67-2.57l-.48-.42h0l-1.66-1.48-.6-.5-.55-.46a15.07,15.07,0,0,0-4.2-2.72,13.46,13.46,0,0,0-6.2-.63,21.17,21.17,0,0,0-9.45,3.3c-.23.15-.45.3-.67.47a17.55,17.55,0,0,0-3.37,3.13l-.48.6c-.15.2-.26.37-.39.56a34.5,34.5,0,0,0-3.35,7.14c-3.26,8.63-6.57,17.54-7,26.68a2.32,2.32,0,0,1,0,.46c-.05,1.15-.05,2.31,0,3.47h0v.09a3.88,3.88,0,0,0,0,.68c.21,3.45.9,6.89,1.41,10.32l-.35.13c-4.2,1.59-5,4.79-5,4.79v0h0a5.39,5.39,0,0,1,.06.8,11.23,11.23,0,0,1-1.56,5.54l-.27.45h0a8.33,8.33,0,0,0-1.53,4.49,2.48,2.48,0,0,0,.2,1h0v.21h0a12,12,0,0,1-2.13,3.78c-1.47,1.64-5.45,17.83-5.45,17.83a3.21,3.21,0,0,1,.27,1.29h0a2.52,2.52,0,0,1-.25,1h0a1.88,1.88,0,0,0,.22,1.66h0a6,6,0,0,0,1,1.29s.89-.29-.6,1.34L300,277h0a1.72,1.72,0,0,0,.11,2.15,5.66,5.66,0,0,0,1.32,1.31s12.06,20.78,14.56,23,5,8,5,8,.25-.41.67-1c.19-.31.44-.68.7-1.07l.77,1h0l1.55,2-.6,1.17h0a27.58,27.58,0,0,0-1.6,3.6.93.93,0,0,0,0,.33,1.3,1.3,0,0,0,.39.85c-3,3.94-10.13,14.88-9.59,28.35h0v.46a35.94,35.94,0,0,0,3.49,13.56,30.86,30.86,0,0,1,.3,4.08h0a1.85,1.85,0,0,1-.16.8,4.22,4.22,0,0,0,.06,1.66h0c.39,3,1.72,8.72,1.72,8.72v3c.06,5.16.17,15.27-.05,17.46-.12,1.26-.25,2.27-.35,3-.14,1-.23,1.58-.23,1.58s-.06.37-.14,1.06c0,.24-.07.53-.1.85-.49,4.06-1.63,13.9-2.3,23.12,0,.41-.06.81-.08,1.2a129.06,129.06,0,0,0-.4,13v.51c0,.87.1,1.64.19,2.31.3,2.16.57,4.69.78,7.33a8.14,8.14,0,0,0,.08.85c.38,4.8.67,9.84.83,13.47v3h0v.39a8.45,8.45,0,0,0,0,1,5.76,5.76,0,0,0,0,.76V470h0v.11l.5,4.2,2.6,21.2.79,6.67,1.7,14.44,6-1.14.06.66.21,2.23h0l1.69-.16c0,.22,0,.43,0,.65-.29,5-.19,10.09-.19,10.09h.06c1.85.34,3.64.6,5.4.75v5.23h2.8l-.36-4.49-.05-.54h.05a59.81,59.81,0,0,0,11.19-.4l.33,0,.45.51,4.29,4.91a67.74,67.74,0,0,0,15.74-1.2c5.54-1.2,11.32-6.65,11.53-8.7h0c.07-.67-.47-1-1.8-.65-4,1-10.72,0-14.11-.6-.75-1.73-2.91-6.69-4.59-10.64l-.25-.6c2.47-1.87,4.38-4.26,4.63-5.51.16-.74-.27-1.08-1.5-.65a17.1,17.1,0,0,1-4.54.74H359a1,1,0,0,0,.08-.11,9.35,9.35,0,0,0,1.27-6.07,22.23,22.23,0,0,0-.29-2.3h0v-.13a30.19,30.19,0,0,0-.72-3,1,1,0,0,0-.05-.18l-.19-.54s1.67-11.71,2.22-20.09a45.74,45.74,0,0,0,.09-6.52h0a0,0,0,0,0,0,0,3.54,3.54,0,0,0-.39-1.57,3.16,3.16,0,0,1-.5-1.2v0c-.74-3.33.93-10.2,1.8-12a17.39,17.39,0,0,0,.73-1.8,29,29,0,0,0,1.63-7.29,18.8,18.8,0,0,1,.89-4.75c2.72-3.92,3.5-9.39,3.69-13.14a37.48,37.48,0,0,0,0-4.24,165.25,165.25,0,0,1,.91-18.74c.13-1.2.29-2.4.46-3.63.27-1.88.6-3.76,1-5.56,1.16-5.39.67-15.07-.24-24.28,0-.27-.06-.53-.08-.79v-.06c-.91-8.94-2.2-17.28-2.73-20.59h0l-.25-1.49a28.21,28.21,0,0,0,1.05-6.45h0a5.84,5.84,0,0,0-.54-2.88,2.75,2.75,0,0,1-.33-.88h0v-.12a14.44,14.44,0,0,1-.12-3.35h0c0-.4.05-.79.09-1.2V332l.08-.72c0-.42.09-.83.15-1.25a4,4,0,0,0,.51-.25,3.71,3.71,0,0,0,.8-.56c2.67-2.4,3-8.55,2.59-14.79a.06.06,0,0,1,0-.06v-.17a120.68,120.68,0,0,0-2.4-15.6h0v-.13c-.1-.33-.15-.54-.15-.54s0-4.39-.26-8.61v-.18c-.22-3.48-.6-6.79-1.35-7.39a4.61,4.61,0,0,1-.85-2.65v0a.17.17,0,0,1,0-.1,58.75,58.75,0,0,1,0-8.8,17.5,17.5,0,0,0,2.31-7.58h0a11.55,11.55,0,0,0-.05-1.44.92.92,0,0,0,0-.29,3.65,3.65,0,0,0-.07-.46,8.09,8.09,0,0,0-.41-1.61c.51-.09,1-.2,1.61-.34l.47-.12h0c7.86-2,20.18-7.8,22.65-8.65,3.39-1.2,4.41-6.09,4.41-6.09s.32-.26.83-.74a40.56,40.56,0,0,0,6.8-8.26h0a24.29,24.29,0,0,0,2.27-4.74h0a16.36,16.36,0,0,0,.69-2.58,6.14,6.14,0,0,0,.12-.86h0v-.1l.57-.51h0c2.64-2.4,6.44-6.21,7.46-9.07A3.11,3.11,0,0,0,416.87,213.92ZM338.74,431.41c-.05,1.37-.15,2.64-.23,3.73h0c-.19,2.14-.38,3.55-.38,3.55a2.08,2.08,0,0,0-.43.46,5.93,5.93,0,0,0-.65,1.31l-.15-3.56S337.82,434.62,338.74,431.41ZM317.86,279.83l-.13-.4h0l.66-.14h0a15.85,15.85,0,0,0,1.65-.4l.21.45.82,1.71,5.87,12.38c-.12.16-1.86,2.24-1.8,4.2a3.25,3.25,0,0,0,.15.89c.3.88.68,1.23,1,1.33h0a1,1,0,0,0,.87-.2,4.77,4.77,0,0,0-.6,1.11h0a2.13,2.13,0,0,0-.14.7,1.11,1.11,0,0,0,.55,1.05,1.94,1.94,0,0,1,.57.57h0a2.68,2.68,0,0,1,.4,1.16h0v0h0v.53l-.79-.24-1.73-.51a2.11,2.11,0,0,1,.93-.68L321,291.63s-1.13-5.07-2.61-10.07Zm12,236.72-.11-.6,0-.18.23,0v.19a2.6,2.6,0,0,0-.11.63ZM321.37,281l-.78-1.72-.32.09.82,1.71L327,293.43c-.13.16-1.86,2.24-1.8,4.2a2.64,2.64,0,0,0,.15.89c.3.88.67,1.23,1,1.33v-.15a3,3,0,0,1,0-.6.11.11,0,0,1,0-.08v-.08h0v-.05h0a0,0,0,0,1,0,0,0,0,0,0,1,0-.05h0a.09.09,0,0,1,0-.07h0v-.18h0v-.06l.07-.26,0-.07,0-.13c0-.08.06-.17.1-.26s0-.08.05-.12a1.22,1.22,0,0,1,.07-.17c.07-.16.16-.33.23-.49s.17-.3.25-.44a12.23,12.23,0,0,1,.79-1.14Zm6.53,20.75h0a.77.77,0,0,1-.37,0h-.06l-.11,0a1,1,0,0,1-.24-.15l-.09-.09a2.12,2.12,0,0,1-.43-.68,2.08,2.08,0,0,0-.14.7,1.12,1.12,0,0,0,.55,1,2,2,0,0,1,.57.56h0a.14.14,0,0,1,0-.09v-.05a2.87,2.87,0,0,1,.26-.71l.12-.25.06-.08a1,1,0,0,1,.08-.14l.05-.08.09-.14a1.05,1.05,0,0,1-.31.18ZM321.37,281l-.78-1.72-.32.09.82,1.71L327,293.43c-.13.16-1.86,2.24-1.8,4.2a2.64,2.64,0,0,0,.15.89c.3.88.67,1.23,1,1.33v-.15a3,3,0,0,1,0-.6.11.11,0,0,1,0-.08v-.08h0v-.05h0a0,0,0,0,1,0-.05h0a.09.09,0,0,1,0-.07h0a.35.35,0,0,1,0-.14,0,0,0,0,1,0-.05v-.06l.07-.25,0-.08,0-.13a2.6,2.6,0,0,1,.1-.25.33.33,0,0,1,.05-.12l.07-.17c.07-.17.16-.33.23-.49s.17-.3.25-.44a10.05,10.05,0,0,1,.79-1.14Zm6.53,20.75h0a.77.77,0,0,1-.37,0h-.06l-.11,0a1,1,0,0,1-.24-.15l-.09-.09a2.12,2.12,0,0,1-.43-.68,2.08,2.08,0,0,0-.14.7,1.12,1.12,0,0,0,.55,1,2,2,0,0,1,.57.56h0a0,0,0,0,0,0,0h0V303a2.87,2.87,0,0,1,.26-.71l.12-.25.06-.08.08-.13.05-.09.09-.14a1,1,0,0,1-.31.17ZM321.37,281l-.78-1.72-.32.09.82,1.71L327,293.43c-.13.16-1.86,2.24-1.8,4.2a2.64,2.64,0,0,0,.15.89c.3.88.67,1.23,1,1.33v-.15a3,3,0,0,1,0-.6.11.11,0,0,1,0-.08v-.08h0v-.05h0a0,0,0,0,1,0-.05h0a.09.09,0,0,1,0-.07h0a.35.35,0,0,1,0-.14,0,0,0,0,1,0-.05v-.06l.07-.25,0-.08,0-.13a2.6,2.6,0,0,1,.1-.25.33.33,0,0,1,.05-.12l.07-.17c.07-.17.16-.33.23-.49s.17-.3.25-.44a10.05,10.05,0,0,1,.79-1.14Zm6.53,20.75h0a.77.77,0,0,1-.37,0h-.06l-.11,0a1,1,0,0,1-.24-.15l-.09-.09a2.12,2.12,0,0,1-.43-.68,2.08,2.08,0,0,0-.14.7,1.12,1.12,0,0,0,.55,1,2,2,0,0,1,.57.56h0a0,0,0,0,0,0,0h0V303a2.87,2.87,0,0,1,.26-.71l.12-.25.06-.08.08-.13.05-.09.09-.14a1,1,0,0,1-.31.17ZM321.37,281l-.78-1.72-.32.09.82,1.71L327,293.43c-.13.16-1.86,2.24-1.8,4.2a2.64,2.64,0,0,0,.15.89c.3.88.67,1.23,1,1.33v-.15a3,3,0,0,1,0-.6.11.11,0,0,1,0-.08v-.08h0v-.05h0a0,0,0,0,1,0-.05h0a.09.09,0,0,1,0-.07h0a.35.35,0,0,1,0-.14,0,0,0,0,1,0-.05v-.06l.07-.25,0-.08,0-.13a2.6,2.6,0,0,1,.1-.25.33.33,0,0,1,.05-.12l.07-.17c.07-.17.16-.33.23-.49s.17-.3.25-.44a10.05,10.05,0,0,1,.79-1.14Zm6.53,20.75h0a.77.77,0,0,1-.37,0h-.06l-.11,0a1,1,0,0,1-.24-.15l-.09-.09a2.12,2.12,0,0,1-.43-.68,2.08,2.08,0,0,0-.14.7,1.12,1.12,0,0,0,.55,1,2,2,0,0,1,.57.56h0a0,0,0,0,0,0,0h0V303a2.87,2.87,0,0,1,.26-.71l.12-.25.06-.08.08-.13.05-.09.09-.14a1,1,0,0,1-.31.17ZM321.37,281l-.78-1.72-.32.09.82,1.71L327,293.43c-.13.16-1.86,2.24-1.8,4.2a2.64,2.64,0,0,0,.15.89c.3.88.67,1.23,1,1.33v-.15a3,3,0,0,1,0-.6.11.11,0,0,1,0-.08v-.08h0v-.05h0a0,0,0,0,1,0-.05h0a.09.09,0,0,1,0-.07h0a.35.35,0,0,1,0-.14,0,0,0,0,1,0-.05v-.06l.07-.25,0-.08,0-.13a2.6,2.6,0,0,1,.1-.25.33.33,0,0,1,.05-.12l.07-.17c.07-.17.16-.33.23-.49s.17-.3.25-.44a10.05,10.05,0,0,1,.79-1.14Zm6.53,20.75h0a.77.77,0,0,1-.37,0h-.06l-.11,0a1,1,0,0,1-.24-.15l-.09-.09a2.12,2.12,0,0,1-.43-.68,2.08,2.08,0,0,0-.14.7,1.12,1.12,0,0,0,.55,1,2,2,0,0,1,.57.56h0a0,0,0,0,0,0,0h0V303a2.87,2.87,0,0,1,.26-.71l.12-.25.06-.08.08-.13.05-.09.09-.14a1,1,0,0,1-.31.17ZM321.37,281l-.78-1.72-.32.09.82,1.71L327,293.43c-.13.16-1.86,2.24-1.8,4.2a2.64,2.64,0,0,0,.15.89c.3.88.67,1.23,1,1.33v-.15a3,3,0,0,1,0-.6.11.11,0,0,1,0-.08v-.08h0v-.05h0a0,0,0,0,1,0-.05h0a.09.09,0,0,1,0-.07h0a.35.35,0,0,1,0-.14,0,0,0,0,1,0-.05v-.06l.07-.25,0-.08,0-.13a2.6,2.6,0,0,1,.1-.25.33.33,0,0,1,.05-.12l.07-.17c.07-.17.16-.33.23-.49s.17-.3.25-.44a10.05,10.05,0,0,1,.79-1.14Zm6.53,20.75h0a.77.77,0,0,1-.37,0h-.06l-.11,0a1,1,0,0,1-.24-.15l-.09-.09a2.12,2.12,0,0,1-.43-.68,2.08,2.08,0,0,0-.14.7,1.12,1.12,0,0,0,.55,1,2,2,0,0,1,.57.56h0a0,0,0,0,0,0,0h0V303a2.87,2.87,0,0,1,.26-.71l.12-.25.06-.08.08-.13.05-.09.09-.14a1,1,0,0,1-.31.17ZM321.37,281l-.78-1.72-.32.09.82,1.71L327,293.43c-.13.16-1.86,2.24-1.8,4.2a2.64,2.64,0,0,0,.15.89c.3.88.67,1.23,1,1.33v-.15a3,3,0,0,1,0-.6.11.11,0,0,1,0-.08v-.08h0v-.05h0a0,0,0,0,1,0-.05h0a.09.09,0,0,1,0-.07h0a.35.35,0,0,1,0-.14,0,0,0,0,1,0-.05v-.06l.07-.25,0-.08,0-.13a2.6,2.6,0,0,1,.1-.25.33.33,0,0,1,.05-.12l.07-.17c.07-.17.16-.33.23-.49s.17-.3.25-.44a10.05,10.05,0,0,1,.79-1.14Zm6.53,20.75h0a.77.77,0,0,1-.37,0h-.06l-.11,0a1,1,0,0,1-.24-.15l-.09-.09a2.12,2.12,0,0,1-.43-.68,2.08,2.08,0,0,0-.14.7,1.12,1.12,0,0,0,.55,1,2,2,0,0,1,.57.56h0a0,0,0,0,0,0,0h0V303a2.87,2.87,0,0,1,.26-.71l.12-.25.06-.08.08-.13.05-.09.09-.14a1,1,0,0,1-.31.17ZM321.37,281l-.78-1.72-.32.09.82,1.71L327,293.43c-.13.16-1.86,2.24-1.8,4.2a2.64,2.64,0,0,0,.15.89c.3.88.67,1.23,1,1.33v-.15a3,3,0,0,1,0-.6.11.11,0,0,1,0-.08v-.08h0v-.05h0a0,0,0,0,1,0-.05h0a.09.09,0,0,1,0-.07h0a.35.35,0,0,1,0-.14,0,0,0,0,1,0-.05v-.06l.07-.25,0-.08,0-.13a2.6,2.6,0,0,1,.1-.25.33.33,0,0,1,.05-.12l.07-.17c.07-.17.16-.33.23-.49s.17-.3.25-.44a10.05,10.05,0,0,1,.79-1.14Zm6.53,20.75h0a.77.77,0,0,1-.37,0h-.06l-.11,0a1,1,0,0,1-.24-.15l-.09-.09a2.12,2.12,0,0,1-.43-.68,2.08,2.08,0,0,0-.14.7,1.12,1.12,0,0,0,.55,1,2,2,0,0,1,.57.56h0a0,0,0,0,0,0,0h0V303a2.87,2.87,0,0,1,.26-.71l.12-.25.06-.08.08-.13.05-.09.09-.14a1,1,0,0,1-.31.17ZM321.37,281l-.78-1.72-.32.09.82,1.71L327,293.43c-.13.16-1.86,2.24-1.8,4.2a2.64,2.64,0,0,0,.15.89c.3.88.67,1.23,1,1.33v-.15a3,3,0,0,1,0-.6.11.11,0,0,1,0-.08v-.08h0v-.05h0a0,0,0,0,1,0-.05h0a.09.09,0,0,1,0-.07h0a.35.35,0,0,1,0-.14,0,0,0,0,1,0-.05v-.06l.07-.25,0-.08,0-.13a2.6,2.6,0,0,1,.1-.25.33.33,0,0,1,.05-.12l.07-.17c.07-.17.16-.33.23-.49s.17-.3.25-.44a10.05,10.05,0,0,1,.79-1.14Zm6.53,20.75h0a.77.77,0,0,1-.37,0h-.06l-.11,0a1,1,0,0,1-.24-.15l-.09-.09a2.12,2.12,0,0,1-.43-.68,2.08,2.08,0,0,0-.14.7,1.12,1.12,0,0,0,.55,1,2,2,0,0,1,.57.56h0a0,0,0,0,0,0,0h0V303a2.87,2.87,0,0,1,.26-.71,3.47,3.47,0,0,1,.18-.33l.08-.13.05-.09.09-.14a1,1,0,0,1-.31.17ZM321.37,281l-.78-1.72-.32.09.82,1.71L327,293.43c-.13.16-1.86,2.24-1.8,4.2a2.64,2.64,0,0,0,.15.89c.3.88.67,1.23,1,1.33v-.15a3,3,0,0,1,0-.6.11.11,0,0,1,0-.08v-.08h0v-.05h0v0a0,0,0,0,1,0-.05h0a.09.09,0,0,1,0-.07h0a.35.35,0,0,1,0-.14,0,0,0,0,1,0-.05v-.06l.07-.25,0-.08,0-.13a2.6,2.6,0,0,1,.1-.25.33.33,0,0,1,.05-.12l.07-.17c.07-.17.16-.33.23-.49s.17-.3.25-.44a10.05,10.05,0,0,1,.79-1.14Zm6.53,20.75h0a.77.77,0,0,1-.37,0h-.06l-.11,0a1,1,0,0,1-.24-.15l-.09-.09a2.12,2.12,0,0,1-.43-.68,2.08,2.08,0,0,0-.14.7,1.12,1.12,0,0,0,.55,1,2,2,0,0,1,.57.56h0a0,0,0,0,0,0,0h0V303a2.87,2.87,0,0,1,.26-.71,3.47,3.47,0,0,1,.18-.33l.08-.13.05-.09.09-.14a1,1,0,0,1-.31.17Z"/><path class="cls-39" d="M350.94,507.43s9,1.1,13.33-.4-1.34,6.45-7.24,8.34a56.67,56.67,0,0,1-12.8,2.17L337.3,511l-7.36.56,1.28,7.2-2.28.21-.89-9.44Z"/><path class="cls-37" d="M350.94,507.43s9,1.1,13.33-.4-1.34,6.45-7.24,8.34a56.67,56.67,0,0,1-12.8,2.17L337.3,511l-7.36.56,1.28,7.2-2.28.21-.89-9.44Z"/><path class="cls-39" d="M363.9,523.91s10.77,2.36,16.2,1-2.36,7.68-9.74,9.3a69.47,69.47,0,0,1-15.79,1.2l-7.63-8.73-9-.15.74,8.91h-2.8V523.91Z"/><path class="cls-37" d="M363.9,523.91s10.77,2.36,16.2,1-2.36,7.68-9.74,9.3a69.47,69.47,0,0,1-15.79,1.2l-7.63-8.73-9-.15.74,8.91h-2.8V523.91Z"/><path class="cls-35" d="M324.07,319s-18.44,20.5-7.38,43.66c0,0,.6,4.13.15,4.87s1.77,10.32,1.77,10.32.3,17.4,0,20.36-.6,4.57-.6,4.57-4.12,32.13-2.79,41.73,1.92,26.7,1.92,26.7l5.46,46,28.32-5.3-12.84-63.14-.44-11.21s5.31-13.72,2.95-20.66.6-95.29.6-95.29Z"/><path class="cls-33" d="M324.07,319s-18.44,20.5-7.38,43.66c0,0,.6,4.13.15,4.87s1.77,10.32,1.77,10.32.3,17.4,0,20.36-.6,4.57-.6,4.57-4.12,32.13-2.79,41.73,1.92,26.7,1.92,26.7l5.46,46,28.32-5.3-12.84-63.14-.44-11.21s5.31-13.72,2.95-20.66.6-95.29.6-95.29Z"/><path class="cls-35" d="M337.64,418.14c3.24,6.19,1.2,21.24,1.2,21.24-4.28,3.69-1.92,35.84-1.92,35.84s-2.95,31.72-4.87,35.39-1.62,18.89-1.62,18.89c21.68,4,35.85-4.57,35.85-4.57s-6.94-15.79-7.08-16.52c-.09-.42-1,.71-1.28,1,.14-.2.52-.71,1.28-1.8,2.95-4.13,0-12.1,0-12.1s3.69-25.67,1.92-28,.29-11.06,1.32-13.12a29.21,29.21,0,0,0,2.36-9,18.07,18.07,0,0,1,.89-4.72c4.57-6.49,3.69-17.26,3.69-17.26s-.3-15.49,2.35-27.73-3.31-46.91-3.31-46.91,2-6.79.51-9.29c-.66-1.13-.6-3.79-.29-6.36.36-3.15,1-6.18,1-6.18l-40.24-7.14c-.85,1.4-1.62,2.77-2.34,4.09-13.31,24.59-4.33,33.73-4.33,33.73L331.3,384S334.38,412,337.64,418.14Z"/><path class="cls-40" d="M401.52,225.63l5.75,4.89s1.13-.9,2.64-2.25c3.6-3.26,9.43-9.14,7.24-11.63-3-3.41-6-1.2-6.18-1,.32-.34,7-7.5,4.26-6.92s-8,6.79-8,6.79l-4.13,7.3Z"/><polygon class="cls-40" points="324.37 305.3 331.15 307.36 325.99 316.36 320.09 308.69 324.37 305.3"/><circle class="cls-40" cx="340.3" cy="201.44" r="19.33"/><path class="cls-40" d="M351.66,208.53s-17.56,27.86-.89,30.26-22.42,19.32-22.42,19.32l-14.61-14.75s15.2-26.26,12.84-36.29S351.66,208.53,351.66,208.53Z"/><path class="cls-37" d="M327.08,323.93A91.46,91.46,0,0,0,339,326.68s21.74,9.65,29.66,6.48c.36-3.15,1-6.18,1-6.18l-40.24-7.14Q328.14,322,327.08,323.93Z"/><path class="cls-36" d="M307.11,251l3.93,8.12,4.44,9.16.6,1.3,5.26,11.4L328,295.44s-2.36,2.8-1.62,5,1.77,1.17,1.91,1c-.13.18-1.56,2.1-.29,2.94s.89,2.8.89,2.8-5.46,9-6.49,12.25,16.52,6,16.52,6,24.93,11.06,31.13,5.6,0-31.12,0-31.12,0-14.75-1.63-16.08-.85-11.55-.85-11.55c4.28-7.8,1.32-12.24,1.32-12.24l1.2-20.06s-1.91-2.07-3.39-2.22a14.55,14.55,0,0,0-2.8,0s-.78-.26-1.9-.6c-2.37-.67-6.29-1.6-7.69-.9-2.07,1-15.34-1.62-15.34-1.62a161.18,161.18,0,0,0-17.26-1.62,17.29,17.29,0,0,0-5.86.63c-4.8,1.49-5.65,5-5.65,5s.6,2.95-1.77,6.79S307.11,251,307.11,251Z"/><path class="cls-37" d="M401.52,225.63l5.75,4.89s1.13-.9,2.64-2.25c.45-5-3.79-5.64-6.77-5.51Z"/><path class="cls-36" d="M367.59,239.94l2.51.15s5.89.74,7.79-1,8.71-2.36,8.71-2.36,1.92-3.84,4-5,7.08-3.4,7.2-4.58,1.92-3.39,1.92-3.39,11.06-2.66,9.44,6.05S398.56,246,398.56,246s-1,4.87-4.42,6-25.38,11.5-28.91,8.85S367.59,239.94,367.59,239.94Z"/><path class="cls-37" d="M308.43,245.5c2.36-3.83,1.77-6.78,1.77-6.78s.85-3.49,5.65-5a14.83,14.83,0,0,1,2.88-.57c-4.73,1.5-5.58,4.95-5.58,4.95s.6,3-1.77,6.78-1.33,5.46-1.33,5.46L314,258.5l4.43,9.15.64,1.31,5.26,11.37L331,294.77s-2.37,2.81-1.63,5,1.77,1.16,1.91,1c-.13.17-1.56,2.1-.28,2.94s.88,2.8.88,2.8-5.46,9-6.49,12.25,16.52,6,16.52,6,17.31,7.69,26.67,7.09c-7.95,3.12-29.62-6.49-29.62-6.49s-17.56-2.81-16.52-6,6.49-12.24,6.49-12.24.44-1.92-.89-2.8.16-2.77.29-2.94c-.14.12-1.2,1-1.91-1.05s1.62-5,1.62-5l-6.68-14.45-5.26-11.4-.6-1.3-4.44-9.16-3.93-8.13S306.07,249.34,308.43,245.5Z"/><path class="cls-36" d="M309.79,248.79,307.14,251a12.11,12.11,0,0,1-2.22,4c-1.47,1.62-5.45,17.7-5.45,17.7a2.86,2.86,0,0,1,0,2.36c-.6,1.2,1.2,2.95,1.2,2.95s.88-.29-.6,1.33,1.33,3.55,1.33,3.55,12.09,20.64,14.6,22.85,5,8,5,8,5.26-8.24,6.49-8.4l-5.16-11.65s-3.54-16.23-6.19-19.19,1.32-13.14,1.32-13.14Z"/><path class="cls-37" d="M308.06,278.89c2.22,2.66,6.11,3.22,9.56,2.83.5-.06,1-.13,1.51-.23.75-.14,1.5-.31,2.24-.52a23.51,23.51,0,0,0,7.33-3.6,5,5,0,0,1,1.64-.95c1.38-.35,2.75.68,3.5,1.88s1.1,2.61,1.87,3.8c1.51,2.36,4.44,3.49,7.24,3.56a26.14,26.14,0,0,0,8.21-1.61c-2.17-2.66-4.39-5.43-5.27-8.75a20.61,20.61,0,0,1-.41-6.6c.64-10.44,4.26-21.44,12.77-27.52,1.48-1.05,3.26-2.29,3.75-3.89-2.36-.67-6.29-1.6-7.69-.9-2.06,1-15.34-1.62-15.34-1.62a160.94,160.94,0,0,0-17.26-1.62,17.29,17.29,0,0,0-5.86.63c.73,4.44,1.36,8.85.49,13.2a29.65,29.65,0,0,1-2.92,7.77c-.76,1.47-1.57,2.91-2.4,4.37-2.24,4-4.39,8.08-4.8,12.59A10.11,10.11,0,0,0,308.06,278.89Z"/><path class="cls-37" d="M337.23,299.64a10.38,10.38,0,0,0-3.45-.3,6.4,6.4,0,0,0-2.59,1.51l7.58,0c2,0,4.89.12,6.39-1.26C343.79,298.27,339.18,299.89,337.23,299.64Z"/><path class="cls-4" d="M363.51,199.2a11.43,11.43,0,0,1,1.31,11.11c-1.2,2.85-3.55,5.08-5,7.82a14.14,14.14,0,0,0,.48,13.67,6.83,6.83,0,0,1,1.2,2.45c.34,2.25-2,3.87-3.84,5.19-8.51,6.07-12.13,17.08-12.77,27.52a20.61,20.61,0,0,0,.41,6.6c.88,3.32,3.11,6.09,5.27,8.75a25.75,25.75,0,0,1-8.21,1.61c-2.81-.07-5.73-1.2-7.24-3.56-.77-1.2-1.13-2.6-1.88-3.8s-2.11-2.22-3.48-1.88a4.75,4.75,0,0,0-1.65.94A23.31,23.31,0,0,1,317,280c-3.45.4-7.34-.17-9.55-2.83a9.76,9.76,0,0,1-1.8-7.14c.76-8.93,8.33-15.95,10.08-24.74,1.41-7.13-1.15-14.4-1.62-21.63-.7-10.72,3.19-21.15,7-31.2a34.08,34.08,0,0,1,3.36-7.09,19.84,19.84,0,0,1,14.4-8.08,13.41,13.41,0,0,1,6.22.6,19,19,0,0,1,5.33,3.65c3.66,3.17,7.42,6.48,9.53,10.85.86,1.8,1.42,3.7,2.4,5.43Z"/><g class="cls-41"><path d="M360,195.28c-1-1.73-1.52-3.65-2.4-5.43a22.19,22.19,0,0,0-3.06-4.62,25.83,25.83,0,0,1,5.4,7.14c.84,1.72,1.39,3.59,2.3,5.28l-1.16-1a10.5,10.5,0,0,1,.81,1.27A13.1,13.1,0,0,1,360,195.28Z"/><path d="M314.66,277.43a23.27,23.27,0,0,0,11.08-4.36,5.31,5.31,0,0,1,1.65-.94c1.38-.35,2.75.68,3.5,1.88.15.25.29.52.42.79a2.43,2.43,0,0,0-1.55-.15,4.75,4.75,0,0,0-1.65.94A23.35,23.35,0,0,1,317,280c-3.44.4-7.33-.17-9.55-2.83a8.07,8.07,0,0,1-.73-1.1A12.34,12.34,0,0,0,314.66,277.43Z"/><path d="M340,281.38a26.19,26.19,0,0,0,8.21-1.61c-2.17-2.67-4.39-5.44-5.27-8.75a20.63,20.63,0,0,1-.41-6.6c.63-10.44,4.26-21.45,12.77-27.52,1.86-1.33,4.2-2.94,3.84-5.2a6.87,6.87,0,0,0-1.2-2.44,14.12,14.12,0,0,1-.48-13.67c1.44-2.75,3.78-5,5-7.83a11.49,11.49,0,0,0-.5-9.83,13.39,13.39,0,0,0,1.3,1.2,12.14,12.14,0,0,0,1.06,1.31,11.45,11.45,0,0,1,.5,9.83c-1.2,2.85-3.56,5.08-5,7.83a14.12,14.12,0,0,0,.48,13.66,6.88,6.88,0,0,1,1.2,2.46c.34,2.25-2,3.86-3.84,5.19-8.52,6.07-12.13,17.07-12.77,27.52a20.57,20.57,0,0,0,.41,6.59c.88,3.32,3.11,6.09,5.27,8.76a25.79,25.79,0,0,1-8.21,1.6c-2.81-.06-5.73-1.2-7.25-3.55-.1-.16-.19-.32-.28-.48A10.06,10.06,0,0,0,340,281.38Z"/></g><path class="cls-42" d="M251.23,145v12.6h-54.7c1.67-2.31,3.38-4.59,5.11-6.84l.74-.93,2.56-3.22h0l.35-.44h0l.93-1.13Z"/><rect class="cls-42" x="306.92" y="144.95" width="57.47" height="12.58"/><rect class="cls-42" x="438.92" y="144.95" width="57.47" height="12.58"/><rect class="cls-42" x="550.55" y="144.95" width="57.47" height="12.58"/><g id="text" class="cls-43"><path class="cls-44" d="M58.08,94.47Q62,98.34,62,106.08v20H51.81V107.64q0-4.17-1.73-6.21a6,6,0,0,0-4.9-2.05,7.23,7.23,0,0,0-5.66,2.31c-1.39,1.54-2.08,3.82-2.08,6.86V126.1H27.3V107.64q0-8.26-6.63-8.26a7.15,7.15,0,0,0-5.59,2.31c-1.39,1.54-2.08,3.82-2.08,6.86V126.1H2.86v-35h9.69v4a12.74,12.74,0,0,1,4.77-3.38,16.12,16.12,0,0,1,6.21-1.17,15,15,0,0,1,6.7,1.46A11.84,11.84,0,0,1,35,96.33a14.35,14.35,0,0,1,5.42-4.23,17.11,17.11,0,0,1,7.19-1.49Q54.21,90.61,58.08,94.47Z"/><path class="cls-44" d="M78.16,124.31a17.22,17.22,0,0,1-6.86-6.4,18.72,18.72,0,0,1,0-18.59,17.24,17.24,0,0,1,6.86-6.41,22.46,22.46,0,0,1,19.8,0,17.27,17.27,0,0,1,6.82,6.41,18.72,18.72,0,0,1,0,18.59,17.24,17.24,0,0,1-6.82,6.4,22.37,22.37,0,0,1-19.8,0Zm16.32-8.65a11.19,11.19,0,0,0,0-14.1,8.44,8.44,0,0,0-6.41-2.63,8.53,8.53,0,0,0-6.43,2.63,11.05,11.05,0,0,0,0,14.1,8.54,8.54,0,0,0,6.43,2.64A8.45,8.45,0,0,0,94.48,115.66Z"/><path class="cls-44" d="M128.6,91.91a18.16,18.16,0,0,1,7.12-1.3V100c-1.13-.09-1.89-.13-2.28-.13a9.31,9.31,0,0,0-6.82,2.43q-2.48,2.45-2.47,7.32V126.1H114v-35h9.68v4.61A11.25,11.25,0,0,1,128.6,91.91Z"/><path class="cls-44" d="M175.5,111.47H149.05a8.21,8.21,0,0,0,3.38,5.14,11.21,11.21,0,0,0,6.63,1.88,13.45,13.45,0,0,0,4.84-.81,11.65,11.65,0,0,0,3.93-2.57l5.4,5.85q-4.95,5.66-14.43,5.66a22.8,22.8,0,0,1-10.47-2.31,17,17,0,0,1-7-6.4,17.62,17.62,0,0,1-2.47-9.3,17.82,17.82,0,0,1,2.44-9.26A17.05,17.05,0,0,1,148,92.91a19.78,19.78,0,0,1,9.53-2.3,19.4,19.4,0,0,1,9.29,2.21,16.11,16.11,0,0,1,6.53,6.33,19,19,0,0,1,2.38,9.59C175.7,108.87,175.63,109.78,175.5,111.47Zm-23.72-11.24a8.26,8.26,0,0,0-2.86,5.33h17.22a8.4,8.4,0,0,0-2.86-5.3,8.56,8.56,0,0,0-5.72-2A8.71,8.71,0,0,0,151.78,100.23Z"/><path class="cls-44" d="M212,91.91h9v7.8h-8.71V126.1H202.08V99.71h-5.39v-7.8h5.39V90.35q0-6,3.55-9.49t10-3.51a19,19,0,0,1,4.33.48,10.57,10.57,0,0,1,3.41,1.4l-2.67,7.35a6.88,6.88,0,0,0-4.09-1.24q-4.62,0-4.62,5.07Z"/><path class="cls-44" d="M259.61,111.47H233.15a8.29,8.29,0,0,0,3.38,5.14,11.25,11.25,0,0,0,6.63,1.88,13.51,13.51,0,0,0,4.85-.81,11.75,11.75,0,0,0,3.93-2.57l5.39,5.85q-4.94,5.66-14.43,5.66a22.79,22.79,0,0,1-10.46-2.31,17,17,0,0,1-7-6.4,17.62,17.62,0,0,1-2.47-9.3,17.82,17.82,0,0,1,2.44-9.26,17.05,17.05,0,0,1,6.69-6.44,19.74,19.74,0,0,1,9.52-2.3,19.41,19.41,0,0,1,9.3,2.21,16.11,16.11,0,0,1,6.53,6.33,18.94,18.94,0,0,1,2.37,9.59C259.8,108.87,259.74,109.78,259.61,111.47Zm-23.73-11.24a8.3,8.3,0,0,0-2.86,5.33h17.23a8.4,8.4,0,0,0-2.86-5.3,8.56,8.56,0,0,0-5.72-2A8.74,8.74,0,0,0,235.88,100.23Z"/><path class="cls-44" d="M292.17,94.47q4.36,3.87,4.36,11.67v20H287v-4.36q-2.87,4.88-10.66,4.88a16.54,16.54,0,0,1-7-1.37,10.46,10.46,0,0,1-4.52-3.77,9.8,9.8,0,0,1-1.56-5.46,9.12,9.12,0,0,1,3.68-7.67q3.67-2.79,11.34-2.79h8.06a6.47,6.47,0,0,0-2-5.11q-2-1.78-6-1.78a17.75,17.75,0,0,0-5.49.87,14.64,14.64,0,0,0-4.59,2.38l-3.64-7.09a22.22,22.22,0,0,1,6.86-3.12,31,31,0,0,1,8.22-1.1Q287.82,90.61,292.17,94.47Zm-8.64,24.12a6.57,6.57,0,0,0,2.86-3.54v-3.58h-7q-6.24,0-6.24,4.1a3.62,3.62,0,0,0,1.53,3.08,6.88,6.88,0,0,0,4.19,1.14A8.84,8.84,0,0,0,283.53,118.59Z"/><path class="cls-44" d="M328.25,124.41a10.41,10.41,0,0,1-3.67,1.65,18.56,18.56,0,0,1-4.59.56q-6.24,0-9.65-3.19t-3.41-9.36V99.71h-5.4v-7.8h5.4V83.39h10.14v8.52h8.71v7.8h-8.71v14.23a4.76,4.76,0,0,0,1.14,3.41,4.17,4.17,0,0,0,3.21,1.21,6.57,6.57,0,0,0,4.1-1.3Z"/><path class="cls-44" d="M369.2,91.13v35h-9.62v-4.16a13.58,13.58,0,0,1-4.81,3.47,15,15,0,0,1-6,1.21q-6.89,0-10.92-4t-4-11.76V91.13h10.14v18.26q0,8.44,7.09,8.45a7.63,7.63,0,0,0,5.85-2.37q2.2-2.37,2.21-7V91.13Z"/><path class="cls-44" d="M393.22,91.91a18.11,18.11,0,0,1,7.11-1.3V100c-1.12-.09-1.88-.13-2.27-.13a9.33,9.33,0,0,0-6.83,2.43c-1.64,1.63-2.47,4.07-2.47,7.32V126.1H378.62v-35h9.69v4.61A11.2,11.2,0,0,1,393.22,91.91Z"/><path class="cls-44" d="M440.11,111.47H413.66a8.25,8.25,0,0,0,3.38,5.14,11.25,11.25,0,0,0,6.63,1.88,13.45,13.45,0,0,0,4.84-.81,11.65,11.65,0,0,0,3.93-2.57l5.4,5.85q-4.93,5.66-14.43,5.66a22.86,22.86,0,0,1-10.47-2.31,17,17,0,0,1-7-6.4,17.71,17.71,0,0,1-2.47-9.3,17.92,17.92,0,0,1,2.44-9.26,17.15,17.15,0,0,1,6.7-6.44,19.74,19.74,0,0,1,9.52-2.3,19.4,19.4,0,0,1,9.29,2.21,16.13,16.13,0,0,1,6.54,6.33,18.94,18.94,0,0,1,2.37,9.59C440.31,108.87,440.24,109.78,440.11,111.47Zm-23.72-11.24a8.3,8.3,0,0,0-2.86,5.33h17.22a8.39,8.39,0,0,0-2.85-5.3,8.59,8.59,0,0,0-5.73-2A8.73,8.73,0,0,0,416.39,100.23Z"/><path class="cls-44" d="M450.32,125.54a22.28,22.28,0,0,1-6.63-2.69l3.38-7.28a21.18,21.18,0,0,0,5.65,2.43,23.67,23.67,0,0,0,6.5,1q6.43,0,6.44-3.19a2.26,2.26,0,0,0-1.76-2.14,25.18,25.18,0,0,0-5.39-1.11,52.45,52.45,0,0,1-7.09-1.49,11.09,11.09,0,0,1-4.84-3,8.53,8.53,0,0,1-2.05-6.11A9.6,9.6,0,0,1,446.45,96,12.32,12.32,0,0,1,452,92a23.74,23.74,0,0,1,8.68-1.43,34.19,34.19,0,0,1,7.38.81,20.67,20.67,0,0,1,6.07,2.24l-3.38,7.22a20.07,20.07,0,0,0-10.07-2.6,10.24,10.24,0,0,0-4.88.91,2.66,2.66,0,0,0-1.62,2.34A2.31,2.31,0,0,0,456,103.8a31.42,31.42,0,0,0,5.59,1.24,59,59,0,0,1,7,1.52,10.62,10.62,0,0,1,4.75,3,8.4,8.4,0,0,1,2,6,9.24,9.24,0,0,1-1.95,5.79,12.42,12.42,0,0,1-5.68,3.93,25.43,25.43,0,0,1-8.88,1.4A33.71,33.71,0,0,1,450.32,125.54Z"/><path class="cls-44" d="M8.09,50.47A24.37,24.37,0,0,1,0,46.67l3.58-7.93a24.28,24.28,0,0,0,7,3.45,26.32,26.32,0,0,0,8.06,1.3q4.48,0,6.63-1.34a4,4,0,0,0,2.15-3.54,3.42,3.42,0,0,0-1.27-2.7,9.7,9.7,0,0,0-3.25-1.72q-2-.64-5.36-1.43A74,74,0,0,1,9,30.29a13.79,13.79,0,0,1-5.69-4A10.75,10.75,0,0,1,.91,19a12.68,12.68,0,0,1,2.15-7.18,14.47,14.47,0,0,1,6.46-5.1A26.35,26.35,0,0,1,20.08,4.88a34.63,34.63,0,0,1,8.52,1,25.1,25.1,0,0,1,7.28,3l-3.25,8A25.4,25.4,0,0,0,20,13.33c-2.95,0-5.12.47-6.53,1.42a4.37,4.37,0,0,0-2.11,3.78A3.68,3.68,0,0,0,13.81,22a38.44,38.44,0,0,0,7.45,2.25,74.64,74.64,0,0,1,8.51,2.46,14.15,14.15,0,0,1,5.69,3.91,10.44,10.44,0,0,1,2.37,7.21A12.46,12.46,0,0,1,35.65,45a14.68,14.68,0,0,1-6.53,5.1,26.53,26.53,0,0,1-10.59,1.89A37.09,37.09,0,0,1,8.09,50.47Z"/><path class="cls-44" d="M44.85,9.69a5.29,5.29,0,0,1-1.76-4,5.26,5.26,0,0,1,1.76-4A6.41,6.41,0,0,1,49.4,0,6.6,6.6,0,0,1,54,1.56a5,5,0,0,1,1.75,3.9A5.5,5.5,0,0,1,54,9.65a6.34,6.34,0,0,1-4.55,1.66A6.45,6.45,0,0,1,44.85,9.69Zm-.52,6.5H54.47v35H44.33Z"/><path class="cls-44" d="M100,16.19V45.31q0,9.61-5,14.3T80.34,64.29a36.7,36.7,0,0,1-9.62-1.24,21,21,0,0,1-7.54-3.57l4-7.28a16.73,16.73,0,0,0,5.59,2.89,22.39,22.39,0,0,0,6.76,1.07q5.26,0,7.77-2.37c1.66-1.58,2.5-4,2.5-7.18v-1.5q-4,4.35-11,4.35A18.55,18.55,0,0,1,70,47.35a16.11,16.11,0,0,1-6.34-5.94,16.65,16.65,0,0,1-2.34-8.84,16.61,16.61,0,0,1,2.34-8.84A16.13,16.13,0,0,1,70,17.78a18.55,18.55,0,0,1,8.81-2.11q7.6,0,11.57,5V16.19ZM87.39,38.77A8.06,8.06,0,0,0,90,32.57a8.06,8.06,0,0,0-2.57-6.21A9.34,9.34,0,0,0,80.79,24a9.49,9.49,0,0,0-6.63,2.37,8,8,0,0,0-2.6,6.21,8,8,0,0,0,2.6,6.2,9.45,9.45,0,0,0,6.63,2.38A9.3,9.3,0,0,0,87.39,38.77Z"/><path class="cls-44" d="M141.15,19.57q4,3.9,4,11.57v20H135V32.7c0-2.78-.6-4.85-1.82-6.21a6.64,6.64,0,0,0-5.26-2,8.07,8.07,0,0,0-6.11,2.37q-2.28,2.39-2.28,7.06V51.16H109.39v-35h9.69v4.09a13.44,13.44,0,0,1,5-3.41,17.53,17.53,0,0,1,6.57-1.2A14.37,14.37,0,0,1,141.15,19.57Z"/><path class="cls-44" d="M207.93,16.19v35h-9.62V47a13.4,13.4,0,0,1-4.81,3.47,15.15,15.15,0,0,1-6,1.2q-6.9,0-10.92-4t-4-11.76V16.19h10.14V34.45q0,8.44,7.08,8.45a7.61,7.61,0,0,0,5.85-2.37c1.48-1.58,2.21-3.93,2.21-7.05V16.19Z"/><path class="cls-44" d="M246.9,17.91a16.09,16.09,0,0,1,6.27,6.3,19,19,0,0,1,2.28,9.46,19,19,0,0,1-2.28,9.46,16.09,16.09,0,0,1-6.27,6.3A17.77,17.77,0,0,1,238,51.67q-6.71,0-10.53-4.22V63.77H217.36V16.19H227v4q3.77-4.55,11-4.54A17.77,17.77,0,0,1,246.9,17.91Zm-4.23,22.81a9.79,9.79,0,0,0,2.51-7,9.79,9.79,0,0,0-2.51-7,9.1,9.1,0,0,0-12.8,0,9.78,9.78,0,0,0-2.5,7.05,9.78,9.78,0,0,0,2.5,7,9.08,9.08,0,0,0,12.8,0Z"/><path class="cls-44" d="M303.16,49.46a10.48,10.48,0,0,1-3.68,1.66,18.48,18.48,0,0,1-4.58.55q-6.24,0-9.65-3.18t-3.41-9.36V24.77h-5.4V17h5.4V8.45H292V17h8.71v7.81H292V39a4.76,4.76,0,0,0,1.13,3.41,4.23,4.23,0,0,0,3.22,1.21,6.59,6.59,0,0,0,4.1-1.3Z"/><path class="cls-44" d="M314.5,49.37A17.11,17.11,0,0,1,307.64,43a17.56,17.56,0,0,1-2.47-9.29,17.58,17.58,0,0,1,2.47-9.29A17.18,17.18,0,0,1,314.5,18a22.43,22.43,0,0,1,19.79,0,17.29,17.29,0,0,1,6.83,6.41,17.68,17.68,0,0,1,2.47,9.29A17.65,17.65,0,0,1,341.12,43a17.22,17.22,0,0,1-6.83,6.41,22.43,22.43,0,0,1-19.79,0Zm16.31-8.65a9.79,9.79,0,0,0,2.51-7,9.79,9.79,0,0,0-2.51-7,8.42,8.42,0,0,0-6.4-2.63A8.52,8.52,0,0,0,318,26.62a9.72,9.72,0,0,0-2.54,7.05,9.72,9.72,0,0,0,2.54,7,8.53,8.53,0,0,0,6.43,2.64A8.43,8.43,0,0,0,330.81,40.72Z"/><path class="cls-44" d="M404.81,16.19V45.31q0,9.61-5,14.3t-14.62,4.68a36.83,36.83,0,0,1-9.63-1.24A21.05,21.05,0,0,1,368,59.48l4-7.28a16.64,16.64,0,0,0,5.59,2.89,22.35,22.35,0,0,0,6.76,1.07c3.51,0,6.09-.79,7.76-2.37s2.51-4,2.51-7.18v-1.5q-4,4.35-11.05,4.35a18.52,18.52,0,0,1-8.81-2.11,16,16,0,0,1-6.34-5.94,16.65,16.65,0,0,1-2.34-8.84,16.61,16.61,0,0,1,2.34-8.84,16.07,16.07,0,0,1,6.34-5.95,18.52,18.52,0,0,1,8.81-2.11q7.59,0,11.56,5V16.19ZM392.24,38.77a8.06,8.06,0,0,0,2.57-6.2,8.06,8.06,0,0,0-2.57-6.21,9.34,9.34,0,0,0-6.6-2.37A9.45,9.45,0,0,0,379,26.36a8,8,0,0,0-2.6,6.21,8,8,0,0,0,2.6,6.2,9.41,9.41,0,0,0,6.63,2.38A9.3,9.3,0,0,0,392.24,38.77Z"/><path class="cls-44" d="M448.3,36.53H421.85a8.21,8.21,0,0,0,3.38,5.14,11.2,11.2,0,0,0,6.62,1.88,13.47,13.47,0,0,0,4.85-.81,11.75,11.75,0,0,0,3.93-2.57L446,46q-4.93,5.65-14.42,5.65a22.8,22.8,0,0,1-10.47-2.3,16.92,16.92,0,0,1-7-6.41,17.56,17.56,0,0,1-2.47-9.29,17.82,17.82,0,0,1,2.44-9.26A17.05,17.05,0,0,1,420.77,18a19.78,19.78,0,0,1,9.53-2.3,19.4,19.4,0,0,1,9.29,2.21,16.11,16.11,0,0,1,6.53,6.33,18.92,18.92,0,0,1,2.38,9.59C448.5,33.93,448.43,34.84,448.3,36.53ZM424.58,25.29a8.23,8.23,0,0,0-2.86,5.33h17.22a8.4,8.4,0,0,0-2.86-5.3,8.57,8.57,0,0,0-5.72-2A8.72,8.72,0,0,0,424.58,25.29Z"/><path class="cls-44" d="M477.81,49.46a10.42,10.42,0,0,1-3.67,1.66,18.48,18.48,0,0,1-4.58.55q-6.24,0-9.66-3.18t-3.41-9.36V24.77H451.1V17h5.39V8.45h10.14V17h8.71v7.81h-8.71V39a4.76,4.76,0,0,0,1.14,3.41A4.21,4.21,0,0,0,471,43.62a6.57,6.57,0,0,0,4.1-1.3Z"/></g></g></g></svg>