<svg xmlns="http://www.w3.org/2000/svg" viewBox="0 0 945.49 1041.84"><defs><style>.cls-1{fill:#534f66;}.cls-2{fill:#cfcce0;}.cls-3{fill:#6c63ff;}.cls-4{fill:#ff6584;}.cls-5{fill:#3f3d56;}.cls-6{fill:#2f2e41;}.cls-7{fill:#ffd5d8;}</style></defs><g id="Layer_2" data-name="Layer 2"><g id="selected-overlay"><rect class="cls-1" x="127.36" y="100.13" width="702.84" height="723.9" rx="25"/><circle class="cls-2" cx="250.83" cy="225.17" r="183.42"/><path class="cls-3" d="M725.93,130.33c-25.29,4.43-48.34-6.55-48.34-6.55s17.95-18.16,43.24-22.59,48.34,6.56,48.34,6.56S751.22,125.9,725.93,130.33Z"/><path class="cls-3" d="M709.56,631.27c-24.69-7.06-40.63-27-40.63-27s24.07-8.5,48.76-1.45,40.63,27,40.63,27S734.24,638.32,709.56,631.27Z"/><path class="cls-3" d="M904.64,402.79c-24.74,6.87-48.75-1.83-48.75-1.83s16.1-19.81,40.84-26.67,48.76,1.83,48.76,1.83S929.38,395.93,904.64,402.79Z"/><path class="cls-3" d="M890.34,320.08c-24.74,6.86-48.75-1.83-48.75-1.83s16.11-19.81,40.85-26.68,48.75,1.84,48.75,1.84S915.08,313.22,890.34,320.08Z"/><path class="cls-3" d="M568.3,48.14c-14.86,20.94-39,29.35-39,29.35S529.32,52,544.18,31s39-29.35,39-29.35S583.16,27.2,568.3,48.14Z"/><path class="cls-3" d="M527.06,239.62c-24.74,6.86-48.75-1.84-48.75-1.84s16.1-19.81,40.84-26.67,48.75,1.83,48.75,1.83S551.8,232.75,527.06,239.62Z"/><path class="cls-3" d="M147.4,267.71c-13.93-21.57-12.8-47.08-12.8-47.08s23.71,9.46,37.65,31,12.8,47.08,12.8,47.08S161.33,289.27,147.4,267.71Z"/><path class="cls-4" d="M347.19,320.08c-24.74,6.86-48.75-1.83-48.75-1.83s16.11-19.81,40.85-26.68S388,293.41,388,293.41,371.93,313.22,347.19,320.08Z"/><path class="cls-3" d="M166.41,630.08c-24.69-7.05-40.63-27-40.63-27s24.07-8.5,48.76-1.44,40.63,27,40.63,27S191.09,637.14,166.41,630.08Z"/><path class="cls-4" d="M344.65,489.52c-14.86,20.94-39,29.35-39,29.35s0-25.53,14.84-46.47,39-29.35,39-29.35S359.51,468.58,344.65,489.52Z"/><path class="cls-3" d="M886.57,489.28c-14.86,20.94-39,29.35-39,29.35s0-25.53,14.84-46.47,39-29.35,39-29.35S901.43,468.34,886.57,489.28Z"/><path class="cls-3" d="M361.49,402.79c-24.74,6.87-48.75-1.83-48.75-1.83s16.1-19.81,40.84-26.67,48.76,1.83,48.76,1.83S386.23,395.93,361.49,402.79Z"/><path class="cls-5" d="M277.53,801.92l-2.3-.55c.11-.47,11.28-47.13,9.86-105.53C283.77,642,271.2,567,218.75,514.94c-40.57-40.27-56.15-77.64-46.29-111.08,11.24-38.13,54-64,87.92-79.07a408.23,408.23,0,0,1,71.37-23.67l.49,2.32A405.28,405.28,0,0,0,261.3,327c-33.43,14.82-75.6,40.31-86.57,77.56-9.59,32.54,5.78,69.12,45.69,108.73,23.42,23.24,41,52.91,52.24,88.15,9,28.16,14,59.93,14.79,94.43C288.88,754.54,277.65,801.46,277.53,801.92Z"/><path class="cls-5" d="M270.87,603.49c0-.67-2.18-68,50.91-111.61l1.5,1.83c-52.19,42.91-50.07,109-50,109.68Z"/><path class="cls-5" d="M278.33,704c-.42-.67-42.25-68-89.82-85.41l.81-2.23c48.34,17.69,90.6,85.72,91,86.41Z"/><path class="cls-5" d="M302.42,398.73c-56.34,0-106.52-29.37-107.11-29.72l1.21-2c.68.41,69,40.39,135.23,26.45l.49,2.32A145,145,0,0,1,302.42,398.73Z"/><path class="cls-5" d="M260.64,325.61a151.65,151.65,0,0,1-34.68-4c-25.35-6.27-39.9-19.33-42.07-37.74l2.35-.28c5,42.16,76.56,39.66,77.27,39.62l.1,2.37S262.5,325.61,260.64,325.61Z"/><path class="cls-5" d="M297.4,519.36v-1.67c0-.26.16-26.15,15.06-47.16s39.3-29.7,39.54-29.78l1.57-.55v1.67c0,.25-.16,26.15-15.06,47.15s-39.3,29.7-39.54,29.79Zm53.75-75.74c-5.63,2.31-24.51,11-36.76,28.28s-14.24,38-14.56,44c5.63-2.31,24.51-11,36.76-28.29S350.83,449.69,351.15,443.62Z"/><path class="cls-5" d="M494.52,163.29c0-.67-2.18-68,50.91-111.61l1.5,1.83c-52.19,42.91-50.07,109-50,109.68Z"/><path class="cls-5" d="M521.05,79.16V77.49c0-.26.16-26.15,15.06-47.16S575.41.63,575.65.55L577.22,0V1.67c0,.25-.16,26.15-15.06,47.15h0c-14.91,21-39.3,29.7-39.54,29.79ZM574.8,3.42c-5.63,2.31-24.51,11-36.76,28.28s-14.24,38-14.56,44c5.63-2.31,24.51-11,36.76-28.29S574.48,9.49,574.8,3.42Z"/><path class="cls-5" d="M599.27,160.93l-1.74-1.6c.45-.5,46.27-49.83,114.7-43.5l-.22,2.36C644.77,112,599.72,160.43,599.27,160.93Z"/><path class="cls-5" d="M713.61,126.64a95,95,0,0,1-36.53-7.71l-1.51-.72,1.18-1.18c.18-.19,18.51-18.48,43.87-22.92s48.83,6.54,49.06,6.65l1.5.72L770,102.66c-.18.19-18.51,18.48-43.88,22.92A72.89,72.89,0,0,1,713.61,126.64Zm-33.9-9.15c5.62,2.31,25.17,9.41,46,5.76s36.83-17,41.33-21c-5.62-2.32-25.17-9.41-46-5.76S684.2,113.4,679.71,117.49Z"/><path class="cls-3" d="M806.49,258.42C782.75,248.63,769.15,227,769.15,227s24.88-5.75,48.62,4,37.34,31.39,37.34,31.39S830.23,268.2,806.49,258.42Z"/><path class="cls-5" d="M837.45,260.56A83.16,83.16,0,0,1,806,254.78c-23.81-9.82-37.75-31.64-37.89-31.86l-.89-1.41,1.62-.37c.26-.06,25.53-5.71,49.34,4.1S856,256.88,856.11,257.1l.89,1.41-1.63.37A89.77,89.77,0,0,1,837.45,260.56Zm-66.31-37.45c3.51,5,16.24,21.42,35.8,29.48s40.19,5.37,46.18,4.32c-3.51-5-16.24-21.41-35.81-29.48s-40.18-5.36-46.17-4.32Z"/><path class="cls-5" d="M338.83,403.16a95.17,95.17,0,0,1-29-4.51l-1.56-.57,1.05-1.29c.16-.2,16.63-20.19,41.44-27.07s49.23,1.77,49.47,1.86l1.57.56-1,1.3c-.16.2-16.63,20.18-41.45,27.07A77.12,77.12,0,0,1,338.83,403.16ZM312.35,397c5.82,1.76,26,6.92,46.36,1.27s35-20.46,39.09-25c-5.83-1.76-26-6.92-46.36-1.26S316.43,392.45,312.35,397Z"/><path class="cls-5" d="M506.87,237.5a95.18,95.18,0,0,1-29-4.52l-1.57-.57,1.05-1.29c.16-.2,16.63-20.19,41.45-27.07s49.22,1.77,49.47,1.86l1.56.57-1,1.29c-.16.2-16.63,20.19-41.44,27.07A77.24,77.24,0,0,1,506.87,237.5Zm-26.49-6.21c5.82,1.76,26,6.92,46.36,1.27s35-20.45,39.09-25c-5.82-1.76-26-6.93-46.36-1.27s-35,20.46-39.09,25Z"/><path class="cls-5" d="M327,318a95.17,95.17,0,0,1-29-4.51l-1.57-.57,1-1.29c.17-.2,16.63-20.19,41.45-27.07s49.23,1.77,49.47,1.86l1.57.56-1.05,1.3c-.17.2-16.63,20.18-41.45,27.07A77.23,77.23,0,0,1,327,318Zm-26.49-6.2c5.83,1.76,26,6.92,46.37,1.27s35-20.46,39.08-25c-5.82-1.76-26-6.92-46.36-1.26S304.6,307.25,300.51,311.76Z"/><path class="cls-5" d="M187.28,629.31a77.1,77.1,0,0,1-21.2-2.82c-24.76-7.08-41.07-27.2-41.23-27.4l-1-1.3,1.57-.56c.25-.08,24.72-8.54,49.48-1.46s41.07,27.2,41.24,27.4l1,1.3-1.57.55A94.79,94.79,0,0,1,187.28,629.31Zm-20.55-5.1c20.35,5.82,40.53.82,46.37-.89-4-4.55-18.54-19.46-38.89-25.28s-40.53-.81-46.37.9c4,4.54,18.55,19.46,38.89,25.27Z"/><path class="cls-5" d="M190.89,298.08l-1.54-.62c-.24-.1-24.24-9.85-38.21-31.48h0c-14-21.63-13-47.51-13-47.77l.07-1.66,1.55.62c.24.09,24.23,9.84,38.2,31.47s13,47.51,13,47.77ZM153.13,264.7c11.48,17.77,30,27.3,35.49,29.85-.06-6.08-1.15-26.85-12.63-44.62s-30-27.3-35.49-29.86C140.55,226.16,141.64,246.92,153.13,264.7Z"/><path class="cls-5" d="M814,603.49c0-.67-2.18-68,50.91-111.61l1.5,1.83c-52.19,42.91-50.07,109-50,109.68Z"/><path class="cls-5" d="M828.48,700c-.42-.67-42.25-68-89.82-85.41l.81-2.23c48.34,17.69,90.6,85.72,91,86.41Z"/><path class="cls-5" d="M845.57,398.73c-56.34,0-106.52-29.37-107.11-29.72l1.21-2c.68.41,69,40.39,135.23,26.45l.49,2.32A145,145,0,0,1,845.57,398.73Z"/><path class="cls-5" d="M803.79,325.61a151.71,151.71,0,0,1-34.68-4c-25.35-6.27-39.9-19.33-42.07-37.74l2.35-.28c5,42.15,76.55,39.65,77.27,39.62l.1,2.37S805.65,325.61,803.79,325.61Z"/><path class="cls-5" d="M840.56,519.36v-1.67c0-.26.16-26.15,15.06-47.16s39.3-29.7,39.54-29.78l1.57-.55v1.67c0,.25-.16,26.15-15.06,47.15h0c-14.91,21-39.3,29.7-39.54,29.79Zm53.74-75.74c-5.63,2.31-24.51,11-36.76,28.28s-14.24,38-14.56,44c5.63-2.31,24.51-11,36.76-28.29S894,449.69,894.3,443.62Z"/><path class="cls-5" d="M882,403.16a95.17,95.17,0,0,1-29-4.51l-1.56-.57,1-1.29c.16-.2,16.63-20.19,41.44-27.07s49.23,1.77,49.47,1.86l1.57.56-1,1.3c-.16.2-16.63,20.18-41.45,27.07h0A77.12,77.12,0,0,1,882,403.16ZM855.5,397c5.82,1.76,26,6.92,46.36,1.27h0c20.39-5.66,35-20.46,39.09-25-5.83-1.76-26-6.92-46.36-1.26S859.58,392.45,855.5,397Z"/><path class="cls-3" d="M49.92,437.69c25.13,5.27,42.47,24,42.47,24S69,471.91,43.85,466.65s-42.47-24-42.47-24S24.79,432.43,49.92,437.69Z"/><path class="cls-5" d="M100.53,468.42c50.05,25.87,81.15,75,81.51,75.58l-2,1.25c-.42-.67-42.78-67.56-108-85.58l.63-2.28A144.51,144.51,0,0,1,100.53,468.42Z"/><path class="cls-5" d="M70.22,447.77a95.14,95.14,0,0,1,23.65,17.3L95,466.3l-1.53.66c-.23.11-24,10.3-49.25,5S1.31,447.81,1.13,447.62L0,446.4l1.53-.67c.23-.1,24-10.3,49.25-5h0A77.15,77.15,0,0,1,70.22,447.77Zm20.67,17.67C86.53,461.2,71,447.36,50.29,443h0c-20.71-4.34-40.48,2.1-46.18,4.23,4.36,4.24,19.89,18.07,40.6,22.41S85.19,467.57,90.89,465.44Z"/><path class="cls-5" d="M870.15,318a95.17,95.17,0,0,1-29-4.51l-1.57-.57,1-1.29c.17-.2,16.63-20.19,41.45-27.07s49.23,1.77,49.47,1.86l1.57.56-1,1.3c-.17.2-16.63,20.18-41.45,27.07h0A77.23,77.23,0,0,1,870.15,318Zm-26.48-6.2c5.82,1.76,26,6.92,46.36,1.27h0c20.39-5.66,35-20.46,39.08-25-5.82-1.76-26-6.92-46.36-1.26s-35,20.45-39.08,25Z"/><path class="cls-5" d="M730.43,629.31a77.1,77.1,0,0,1-21.2-2.82c-24.76-7.08-41.07-27.2-41.23-27.4l-1-1.3,1.57-.56c.25-.08,24.72-8.54,49.48-1.46s41.07,27.2,41.23,27.4l1,1.3-1.57.55A94.79,94.79,0,0,1,730.43,629.31ZM671,598.94c4,4.54,18.54,19.46,38.89,25.27h0c20.35,5.82,40.53.82,46.37-.89-4-4.55-18.54-19.46-38.89-25.28S676.83,597.22,671,598.94Z"/><path class="cls-4" d="M688.18,265.34c-13.93-21.57-12.8-47.08-12.8-47.08s23.72,9.46,37.65,31,12.8,47.08,12.8,47.08S702.12,286.9,688.18,265.34Z"/><path class="cls-5" d="M734,298.08l-1.54-.62c-.24-.1-24.24-9.85-38.21-31.48h0c-14-21.63-13-47.51-13-47.77l.07-1.66,1.55.62c.24.09,24.23,9.84,38.2,31.47s13,47.51,13,47.77ZM696.28,264.7c11.49,17.79,30,27.3,35.49,29.85-.06-6.08-1.15-26.85-12.63-44.62s-30-27.3-35.49-29.86C683.7,226.16,684.79,246.92,696.28,264.7Z"/><path class="cls-6" d="M409.5,395.48s-13.1-4.67-21.52,14-21.51,39.28-21.51,39.28l7.48,1.88s1.87-13.1,6.55-15l-1.87,16.84s56.13,19.64,81.38-1.87l-.93-6.55s3.74.93,3.74,6.55l2.8-2.81s-2.8-5.61-11.22-13.1c-5.53-4.91-7.43-14.25-8.08-20.1a24.33,24.33,0,0,0-5.6-13.24C435.13,394.94,424.93,388.05,409.5,395.48Z"/><path class="cls-7" d="M471.58,511.26l2.1,54.66-4.9,54.66s2.1,26.63-6.31,24.53-4.2-21-4.2-21V568.72l-3.51-43.44Z"/><path class="cls-7" d="M377.68,521.77l-.7,28L365.77,615s-11.22,27.33,0,25.93,9.11-24.53,9.11-24.53l14.71-58.16-1.4-34.34Z"/><path class="cls-7" d="M365.07,664.73s-14.72,39.94-9.11,54,4.9,20.32,4.9,20.32l23.83-4.21s-6.31-18.22,0-28.73S405,660.52,405,660.52Z"/><polygon class="cls-7" points="423.93 665.43 428.13 719.39 430.94 734.1 453.36 736.2 451.96 708.88 457.57 666.83 423.93 665.43"/><path class="cls-6" d="M457.57,724.29a25.05,25.05,0,0,1-30.14-2.1V800l-7.71,36.44s-17.51,25.23,0,25.23,21.73-4.91,21-9.11,1.4-11.91,1.4-11.91l3.5-7-.7-21.72Z"/><path class="cls-6" d="M386.79,722.19s-8.41,14.72-28.73,9.11L372.77,821l-18.22,16.11s-39.24,14.72-9.11,18.92,56.07-4.9,56.07-4.9,2.1-19.62-1.41-26.63S386.79,722.19,386.79,722.19Z"/><circle class="cls-7" cx="416.22" cy="430.67" r="23.12" transform="translate(-75.56 772.53) rotate(-80.78)"/><polygon class="cls-7" points="410.62 444.69 409.21 467.11 402.21 472.72 430.24 490.24 442.85 472.72 434.44 467.81 432.34 439.08 410.62 444.69"/><path class="cls-2" d="M437.24,472s-9,11.84-31.48-2.14c0,0-29.48-2.77-33.69,14.75s-7.71,21.73-7.71,21.73l18.22,27.33s-2.8,12.61,4.91,17.51,61,3.51,61,3.51l9.81-9.81v-14L487,508.46,483.49,505s-7.7-28-22.42-30.83S442.15,468.51,437.24,472Z"/><path class="cls-6" d="M406.41,539.29,388.73,551.8l-.54,7.81L362.26,668.93l107.92,3.51s.7-77.79-18.92-101.61l-3.5-18.22Z"/><path class="cls-6" d="M387.75,434.2s7.48-10.29,14-12.17,7.48-11.22,7.48-11.22,16.84,18.71,27.13,19.64.93-22.45.93-22.45l-18.7-4.67-17.78,1.87-14,9.35Z"/><path class="cls-6" d="M129.62,906l5.08-11.27A38,38,0,0,0,156,901.44c8.87,0,12.47-3,12.47-6.93,0-12.1-37.6-3.79-37.6-27.81,0-11,8.87-20.14,27.25-20.14,8.13,0,16.45,1.94,22.45,5.73L176,863.65a36.58,36.58,0,0,0-17.92-5.08c-8.87,0-12.28,3.33-12.28,7.39,0,11.92,37.59,3.7,37.59,27.44,0,10.81-9,20.05-27.43,20.05C145.69,913.45,135.35,910.4,129.62,906Z"/><path class="cls-6" d="M236.59,884v28.36H223.1v-6.19c-2.68,4.52-7.85,6.93-15.15,6.93-11.64,0-18.57-6.47-18.57-15.06,0-8.78,6.19-14.87,21.34-14.87h11.46c0-6.19-3.7-9.8-11.46-9.8A24,24,0,0,0,196.4,878l-5.17-10.07c5.45-3.88,13.49-6,21.43-6C227.81,861.9,236.59,868.92,236.59,884Zm-14.41,12.65v-5.08h-9.89c-6.74,0-8.87,2.5-8.87,5.82,0,3.6,3.05,6,8.13,6C216.36,903.38,220.51,901.16,222.18,896.63Z"/><path class="cls-6" d="M300.78,843.79v68.55H287v-5.73c-3.6,4.34-8.87,6.47-15.52,6.47-14,0-24.85-10-24.85-25.59s10.81-25.59,24.85-25.59c6.1,0,11.27,1.94,14.87,6V843.79Zm-14.13,43.7c0-8.59-5.54-13.77-12.65-13.77s-12.75,5.18-12.75,13.77,5.54,13.76,12.75,13.76S286.65,896.08,286.65,887.49Z"/><path class="cls-6" d="M314.08,843.79h14.41v68.55H314.08Z"/><path class="cls-6" d="M391.21,862.64l-22.44,52.75c-4.81,12-11.64,15.61-20.6,15.61-5.08,0-10.63-1.67-13.86-4.53l5.27-10.25a12.75,12.75,0,0,0,8.13,3.14c4,0,6.18-1.76,8.12-6.19l.19-.46L334.5,862.64h14.87l13.95,33.72,14-33.72Z"/><path class="cls-6" d="M408.58,904c0,2.4-.37,4.16-2.5,9.24l-5.26,13.3h-9.15l4.07-14.68a8,8,0,0,1-5-7.86,8.92,8.92,0,0,1,17.83,0Z"/><path class="cls-6" d="M476.56,909.94c-2.95,2.12-7.3,3.14-11.73,3.14-11.73,0-18.57-6-18.57-17.83V874.83H438.6V863.75h7.66v-12.1h14.41v12.1h12.38v11.08H460.67v20.23c0,4.25,2.31,6.56,6.19,6.56a9.71,9.71,0,0,0,5.82-1.85Z"/><path class="cls-6" d="M535.5,883.88v28.46H521.09V886.1c0-8-3.7-11.73-10.07-11.73-6.93,0-11.92,4.25-11.92,13.39v24.58H484.69V843.79H499.1v24c3.88-3.88,9.42-5.91,15.8-5.91C526.63,861.9,535.5,868.74,535.5,883.88Z"/><path class="cls-6" d="M597.48,891.55h-37.6c1.38,6.19,6.65,10,14.23,10a16.87,16.87,0,0,0,12.47-4.8l7.66,8.31c-4.62,5.26-11.54,8-20.5,8-17.19,0-28.36-10.81-28.36-25.59s11.36-25.59,26.51-25.59c14.59,0,25.86,9.79,25.86,25.77C597.75,888.78,597.57,890.35,597.48,891.55Zm-37.79-8.4h24.48A11.8,11.8,0,0,0,572,872.8C565.42,872.8,560.71,876.77,559.69,883.15Z"/><path class="cls-6" d="M638.21,861.9v13.3c-1.2-.09-2.12-.18-3.23-.18-8,0-13.21,4.34-13.21,13.85v23.47H607.36v-49.7h13.76v6.56C624.63,864.39,630.54,861.9,638.21,861.9Z"/><path class="cls-6" d="M694.75,891.55h-37.6c1.38,6.19,6.65,10,14.22,10a16.84,16.84,0,0,0,12.47-4.8l7.67,8.31c-4.62,5.26-11.55,8-20.51,8-17.18,0-28.36-10.81-28.36-25.59S654,861.9,669.16,861.9c14.59,0,25.86,9.79,25.86,25.77C695,888.78,694.84,890.35,694.75,891.55ZM657,883.15h24.48a11.8,11.8,0,0,0-12.19-10.35C662.69,872.8,658,876.77,657,883.15Z"/><path class="cls-6" d="M719.13,851.92c0,2.4-.37,4.16-2.4,9.24l-5.36,13.3h-9.15l4-14.59a8.21,8.21,0,0,1-4.9-8,8.92,8.92,0,0,1,17.83,0Z"/><path class="cls-6" d="M722.45,907.72l4.81-10.35a33.91,33.91,0,0,0,17.27,4.81c6.65,0,9.15-1.76,9.15-4.53,0-8.13-30,.18-30-19.68,0-9.42,8.5-16.07,23-16.07,6.84,0,14.42,1.57,19.13,4.34L761,876.5a28.44,28.44,0,0,0-14.32-3.7c-6.46,0-9.23,2-9.23,4.62,0,8.5,30,.28,30,19.86,0,9.24-8.59,15.8-23.46,15.8C735.57,913.08,727.07,910.77,722.45,907.72Z"/><path class="cls-6" d="M184.49,994.73v28.45H170.08V997c0-8-3.69-11.73-10.07-11.73-6.93,0-11.91,4.24-11.91,13.39v24.57H133.69v-49.7h13.76v5.82c3.88-4.25,9.7-6.55,16.44-6.55C175.62,972.75,184.49,979.58,184.49,994.73Z"/><path class="cls-6" d="M194.37,998.33c0-15,11.55-25.58,27.35-25.58S249,983.37,249,998.33s-11.46,25.59-27.25,25.59S194.37,1013.3,194.37,998.33Zm40,0c0-8.59-5.45-13.76-12.65-13.76S209,989.74,209,998.33s5.54,13.77,12.75,13.77S234.37,1006.92,234.37,998.33Z"/><path class="cls-6" d="M290.63,1020.78c-3,2.13-7.3,3.14-11.74,3.14-11.73,0-18.56-6-18.56-17.83V985.68h-7.67V974.59h7.67v-12.1h14.41v12.1h12.37v11.09H274.74v20.23c0,4.25,2.31,6.56,6.19,6.56a9.75,9.75,0,0,0,5.82-1.85Z"/><path class="cls-6" d="M349.56,994.73v28.45H335.15V997c0-8-3.7-11.73-10.07-11.73-6.93,0-11.92,4.24-11.92,13.39v24.57H298.75V954.64h14.41v24c3.88-3.88,9.42-5.91,15.8-5.91C340.69,972.75,349.56,979.58,349.56,994.73Z"/><path class="cls-6" d="M360.82,958.52c0-4.53,3.61-8,9-8s9,3.33,9,7.76c0,4.8-3.61,8.32-9,8.32S360.82,963,360.82,958.52Zm1.76,15H377v49.7H362.58Z"/><path class="cls-6" d="M441.19,994.73v28.45H426.78V997c0-8-3.7-11.73-10.07-11.73-6.93,0-11.92,4.24-11.92,13.39v24.57H390.38v-49.7h13.77v5.82c3.88-4.25,9.7-6.55,16.44-6.55C432.32,972.75,441.19,979.58,441.19,994.73Z"/><path class="cls-6" d="M506,973.48v41.39c0,18.47-10,27-27.89,27-9.43,0-18.57-2.31-24.39-6.83l5.73-10.35c4.25,3.42,11.17,5.64,17.55,5.64,10.16,0,14.59-4.62,14.59-13.58v-2.13c-3.78,4.16-9.23,6.19-15.7,6.19-13.77,0-24.85-9.51-24.85-24s11.08-24,24.85-24c6.93,0,12.66,2.3,16.44,7.11v-6.38Zm-14.22,23.28c0-7.3-5.45-12.19-13-12.19s-13.11,4.89-13.11,12.19,5.54,12.2,13.11,12.2S491.81,1004.06,491.81,996.76Z"/><path class="cls-6" d="M596.37,994.73v28.45H582V997c0-8-3.69-11.73-10.07-11.73-6.93,0-11.91,4.24-11.91,13.39v24.57H545.57V954.64H560v24c3.88-3.88,9.42-5.91,15.79-5.91C587.5,972.75,596.37,979.58,596.37,994.73Z"/><path class="cls-6" d="M658.35,1002.4h-37.6c1.39,6.19,6.66,10,14.23,10a16.86,16.86,0,0,0,12.47-4.81l7.67,8.31c-4.62,5.27-11.55,8-20.51,8-17.18,0-28.36-10.81-28.36-25.59s11.36-25.58,26.51-25.58c14.6,0,25.87,9.79,25.87,25.77C658.63,999.63,658.44,1001.2,658.35,1002.4ZM620.57,994h24.48a11.81,11.81,0,0,0-12.19-10.34C626.3,983.65,621.59,987.62,620.57,994Z"/><path class="cls-6" d="M699.09,972.75v13.3c-1.2-.09-2.13-.19-3.24-.19-7.94,0-13.21,4.34-13.21,13.86v23.46H668.23v-49.7H682V980C685.51,975.24,691.42,972.75,699.09,972.75Z"/><path class="cls-6" d="M755.62,1002.4H718c1.39,6.19,6.65,10,14.23,10a16.87,16.87,0,0,0,12.47-4.81l7.67,8.31c-4.62,5.27-11.55,8-20.51,8-17.18,0-28.36-10.81-28.36-25.59s11.36-25.58,26.51-25.58c14.6,0,25.87,9.79,25.87,25.77C755.9,999.63,755.71,1001.2,755.62,1002.4ZM717.84,994h24.48a11.81,11.81,0,0,0-12.2-10.34C723.57,983.65,718.85,987.62,717.84,994Z"/><path class="cls-6" d="M762,1014.87a9,9,0,0,1,17.92,0,9,9,0,1,1-17.92,0Z"/><path class="cls-6" d="M786.19,1014.87a9,9,0,0,1,17.92,0,9,9,0,1,1-17.92,0Z"/><path class="cls-6" d="M810.39,1014.87a9,9,0,0,1,17.92,0,9,9,0,1,1-17.92,0Z"/></g></g></svg>