<svg xmlns="http://www.w3.org/2000/svg" viewBox="0 0 945.49 1026.55"><defs><style>.cls-1{fill:#534f66;}.cls-2{fill:#cfcce0;}.cls-3{fill:#6c63ff;}.cls-4{fill:#ff6584;}.cls-5{fill:#3f3d56;}.cls-6{fill:#2f2e41;}.cls-7{fill:#ffd5d8;}</style></defs><g id="Layer_2" data-name="Layer 2"><g id="nothing"><rect class="cls-1" x="127.36" y="100.13" width="702.84" height="723.9"/><circle class="cls-2" cx="250.83" cy="225.17" r="183.42"/><path class="cls-3" d="M725.93,130.33c-25.29,4.43-48.34-6.55-48.34-6.55s17.95-18.16,43.24-22.59,48.34,6.56,48.34,6.56S751.22,125.9,725.93,130.33Z"/><path class="cls-3" d="M709.56,631.27c-24.69-7.06-40.63-27-40.63-27s24.07-8.5,48.76-1.45,40.63,27,40.63,27S734.24,638.32,709.56,631.27Z"/><path class="cls-3" d="M904.64,402.79c-24.74,6.87-48.75-1.83-48.75-1.83s16.1-19.81,40.84-26.67,48.76,1.83,48.76,1.83S929.38,395.93,904.64,402.79Z"/><path class="cls-3" d="M890.34,320.08c-24.74,6.86-48.75-1.83-48.75-1.83s16.11-19.81,40.85-26.68,48.75,1.84,48.75,1.84S915.08,313.22,890.34,320.08Z"/><path class="cls-3" d="M568.3,48.14c-14.86,20.94-39,29.35-39,29.35S529.32,52,544.18,31s39-29.35,39-29.35S583.16,27.2,568.3,48.14Z"/><path class="cls-3" d="M527.06,239.62c-24.74,6.86-48.75-1.84-48.75-1.84s16.1-19.81,40.84-26.67,48.75,1.83,48.75,1.83S551.8,232.75,527.06,239.62Z"/><path class="cls-3" d="M147.4,267.71c-13.93-21.57-12.8-47.08-12.8-47.08s23.71,9.46,37.65,31,12.8,47.08,12.8,47.08S161.33,289.27,147.4,267.71Z"/><path class="cls-4" d="M347.19,320.08c-24.74,6.86-48.75-1.83-48.75-1.83s16.11-19.81,40.85-26.68S388,293.41,388,293.41,371.93,313.22,347.19,320.08Z"/><path class="cls-3" d="M166.41,630.08c-24.69-7.05-40.63-27-40.63-27s24.07-8.5,48.76-1.44,40.63,27,40.63,27S191.09,637.14,166.41,630.08Z"/><path class="cls-4" d="M344.65,489.52c-14.86,20.94-39,29.35-39,29.35s0-25.53,14.84-46.47,39-29.35,39-29.35S359.51,468.58,344.65,489.52Z"/><path class="cls-3" d="M886.57,489.28c-14.86,20.94-39,29.35-39,29.35s0-25.53,14.84-46.47,39-29.35,39-29.35S901.43,468.34,886.57,489.28Z"/><path class="cls-3" d="M361.49,402.79c-24.74,6.87-48.75-1.83-48.75-1.83s16.1-19.81,40.84-26.67,48.76,1.83,48.76,1.83S386.23,395.93,361.49,402.79Z"/><path class="cls-5" d="M277.53,801.92l-2.3-.55c.11-.47,11.28-47.13,9.86-105.53C283.77,642,271.2,567,218.75,514.94c-40.57-40.27-56.15-77.64-46.29-111.08,11.24-38.13,54-64,87.92-79.07a408.23,408.23,0,0,1,71.37-23.67l.49,2.32A405.28,405.28,0,0,0,261.3,327c-33.43,14.82-75.6,40.31-86.57,77.56-9.59,32.54,5.78,69.12,45.69,108.73,23.42,23.24,41,52.91,52.24,88.15,9,28.16,14,59.93,14.79,94.43C288.88,754.54,277.65,801.46,277.53,801.92Z"/><path class="cls-5" d="M270.87,603.49c0-.67-2.18-68,50.91-111.61l1.5,1.83c-52.19,42.91-50.07,109-50,109.68Z"/><path class="cls-5" d="M278.33,704c-.42-.67-42.25-68-89.82-85.41l.81-2.23c48.34,17.69,90.6,85.72,91,86.41Z"/><path class="cls-5" d="M302.42,398.73c-56.34,0-106.52-29.37-107.11-29.72l1.21-2c.68.41,69,40.39,135.23,26.45l.49,2.32A145,145,0,0,1,302.42,398.73Z"/><path class="cls-5" d="M260.64,325.61a151.65,151.65,0,0,1-34.68-4c-25.35-6.27-39.9-19.33-42.07-37.74l2.35-.28c5,42.16,76.56,39.66,77.27,39.62l.1,2.37S262.5,325.61,260.64,325.61Z"/><path class="cls-5" d="M297.4,519.36v-1.67c0-.26.16-26.15,15.06-47.16s39.3-29.7,39.54-29.78l1.57-.55v1.67c0,.25-.16,26.15-15.06,47.15s-39.3,29.7-39.54,29.79Zm53.75-75.74c-5.63,2.31-24.51,11-36.76,28.28s-14.24,38-14.56,44c5.63-2.31,24.51-11,36.76-28.29S350.83,449.69,351.15,443.62Z"/><path class="cls-5" d="M494.52,163.29c0-.67-2.18-68,50.91-111.61l1.5,1.83c-52.19,42.91-50.07,109-50,109.68Z"/><path class="cls-5" d="M521.05,79.16V77.49c0-.26.16-26.15,15.06-47.16S575.41.63,575.65.55L577.22,0V1.67c0,.25-.16,26.15-15.06,47.15h0c-14.91,21-39.3,29.7-39.54,29.79ZM574.8,3.42c-5.63,2.31-24.51,11-36.76,28.28s-14.24,38-14.56,44c5.63-2.31,24.51-11,36.76-28.29S574.48,9.49,574.8,3.42Z"/><path class="cls-5" d="M599.27,160.93l-1.74-1.6c.45-.5,46.27-49.83,114.7-43.5l-.22,2.36C644.77,112,599.72,160.43,599.27,160.93Z"/><path class="cls-5" d="M713.61,126.64a95,95,0,0,1-36.53-7.71l-1.51-.72,1.18-1.18c.18-.19,18.51-18.48,43.87-22.92s48.83,6.54,49.06,6.65l1.5.72L770,102.66c-.18.19-18.51,18.48-43.88,22.92A72.89,72.89,0,0,1,713.61,126.64Zm-33.9-9.15c5.62,2.31,25.17,9.41,46,5.76s36.83-17,41.33-21c-5.62-2.32-25.17-9.41-46-5.76S684.2,113.4,679.71,117.49Z"/><path class="cls-3" d="M806.49,258.42C782.75,248.63,769.15,227,769.15,227s24.88-5.75,48.62,4,37.34,31.39,37.34,31.39S830.23,268.2,806.49,258.42Z"/><path class="cls-5" d="M837.45,260.56A83.16,83.16,0,0,1,806,254.78c-23.81-9.82-37.75-31.64-37.89-31.86l-.89-1.41,1.62-.37c.26-.06,25.53-5.71,49.34,4.1S856,256.88,856.11,257.1l.89,1.41-1.63.37A89.77,89.77,0,0,1,837.45,260.56Zm-66.31-37.45c3.51,5,16.24,21.42,35.8,29.48s40.19,5.37,46.18,4.32c-3.51-5-16.24-21.41-35.81-29.48s-40.18-5.36-46.17-4.32Z"/><path class="cls-5" d="M338.83,403.16a95.17,95.17,0,0,1-29-4.51l-1.56-.57,1.05-1.29c.16-.2,16.63-20.19,41.44-27.07s49.23,1.77,49.47,1.86l1.57.56-1,1.3c-.16.2-16.63,20.18-41.45,27.07A77.12,77.12,0,0,1,338.83,403.16ZM312.35,397c5.82,1.76,26,6.92,46.36,1.27s35-20.46,39.09-25c-5.83-1.76-26-6.92-46.36-1.26S316.43,392.45,312.35,397Z"/><path class="cls-5" d="M506.87,237.5a95.18,95.18,0,0,1-29-4.52l-1.57-.57,1.05-1.29c.16-.2,16.63-20.19,41.45-27.07s49.22,1.77,49.47,1.86l1.56.57-1,1.29c-.16.2-16.63,20.19-41.44,27.07A77.24,77.24,0,0,1,506.87,237.5Zm-26.49-6.21c5.82,1.76,26,6.92,46.36,1.27s35-20.45,39.09-25c-5.82-1.76-26-6.93-46.36-1.27s-35,20.46-39.09,25Z"/><path class="cls-5" d="M327,318a95.17,95.17,0,0,1-29-4.51l-1.57-.57,1-1.29c.17-.2,16.63-20.19,41.45-27.07s49.23,1.77,49.47,1.86l1.57.56-1.05,1.3c-.17.2-16.63,20.18-41.45,27.07A77.23,77.23,0,0,1,327,318Zm-26.49-6.2c5.83,1.76,26,6.92,46.37,1.27s35-20.46,39.08-25c-5.82-1.76-26-6.92-46.36-1.26S304.6,307.25,300.51,311.76Z"/><path class="cls-5" d="M187.28,629.31a77.1,77.1,0,0,1-21.2-2.82c-24.76-7.08-41.07-27.2-41.23-27.4l-1-1.3,1.57-.56c.25-.08,24.72-8.54,49.48-1.46s41.07,27.2,41.24,27.4l1,1.3-1.57.55A94.79,94.79,0,0,1,187.28,629.31Zm-20.55-5.1c20.35,5.82,40.53.82,46.37-.89-4-4.55-18.54-19.46-38.89-25.28s-40.53-.81-46.37.9c4,4.54,18.55,19.46,38.89,25.27Z"/><path class="cls-5" d="M190.89,298.08l-1.54-.62c-.24-.1-24.24-9.85-38.21-31.48h0c-14-21.63-13-47.51-13-47.77l.07-1.66,1.55.62c.24.09,24.23,9.84,38.2,31.47s13,47.51,13,47.77ZM153.13,264.7c11.48,17.77,30,27.3,35.49,29.85-.06-6.08-1.15-26.85-12.63-44.62s-30-27.3-35.49-29.86C140.55,226.16,141.64,246.92,153.13,264.7Z"/><path class="cls-5" d="M814,603.49c0-.67-2.18-68,50.91-111.61l1.5,1.83c-52.19,42.91-50.07,109-50,109.68Z"/><path class="cls-5" d="M828.48,700c-.42-.67-42.25-68-89.82-85.41l.81-2.23c48.34,17.69,90.6,85.72,91,86.41Z"/><path class="cls-5" d="M845.57,398.73c-56.34,0-106.52-29.37-107.11-29.72l1.21-2c.68.41,69,40.39,135.23,26.45l.49,2.32A145,145,0,0,1,845.57,398.73Z"/><path class="cls-5" d="M803.79,325.61a151.71,151.71,0,0,1-34.68-4c-25.35-6.27-39.9-19.33-42.07-37.74l2.35-.28c5,42.15,76.55,39.65,77.27,39.62l.1,2.37S805.65,325.61,803.79,325.61Z"/><path class="cls-5" d="M840.56,519.36v-1.67c0-.26.16-26.15,15.06-47.16s39.3-29.7,39.54-29.78l1.57-.55v1.67c0,.25-.16,26.15-15.06,47.15h0c-14.91,21-39.3,29.7-39.54,29.79Zm53.74-75.74c-5.63,2.31-24.51,11-36.76,28.28s-14.24,38-14.56,44c5.63-2.31,24.51-11,36.76-28.29S894,449.69,894.3,443.62Z"/><path class="cls-5" d="M882,403.16a95.17,95.17,0,0,1-29-4.51l-1.56-.57,1-1.29c.16-.2,16.63-20.19,41.44-27.07s49.23,1.77,49.47,1.86l1.57.56-1,1.3c-.16.2-16.63,20.18-41.45,27.07h0A77.12,77.12,0,0,1,882,403.16ZM855.5,397c5.82,1.76,26,6.92,46.36,1.27h0c20.39-5.66,35-20.46,39.09-25-5.83-1.76-26-6.92-46.36-1.26S859.58,392.45,855.5,397Z"/><path class="cls-3" d="M49.92,437.69c25.13,5.27,42.47,24,42.47,24S69,471.91,43.85,466.65s-42.47-24-42.47-24S24.79,432.43,49.92,437.69Z"/><path class="cls-5" d="M100.53,468.42c50.05,25.87,81.15,75,81.51,75.58l-2,1.25c-.42-.67-42.78-67.56-108-85.58l.63-2.28A144.51,144.51,0,0,1,100.53,468.42Z"/><path class="cls-5" d="M70.22,447.77a95.14,95.14,0,0,1,23.65,17.3L95,466.3l-1.53.66c-.23.11-24,10.3-49.25,5S1.31,447.81,1.13,447.62L0,446.4l1.53-.67c.23-.1,24-10.3,49.25-5h0A77.15,77.15,0,0,1,70.22,447.77Zm20.67,17.67C86.53,461.2,71,447.36,50.29,443h0c-20.71-4.34-40.48,2.1-46.18,4.23,4.36,4.24,19.89,18.07,40.6,22.41S85.19,467.57,90.89,465.44Z"/><path class="cls-5" d="M870.15,318a95.17,95.17,0,0,1-29-4.51l-1.57-.57,1-1.29c.17-.2,16.63-20.19,41.45-27.07s49.23,1.77,49.47,1.86l1.57.56-1,1.3c-.17.2-16.63,20.18-41.45,27.07h0A77.23,77.23,0,0,1,870.15,318Zm-26.48-6.2c5.82,1.76,26,6.92,46.36,1.27h0c20.39-5.66,35-20.46,39.08-25-5.82-1.76-26-6.92-46.36-1.26s-35,20.45-39.08,25Z"/><path class="cls-5" d="M730.43,629.31a77.1,77.1,0,0,1-21.2-2.82c-24.76-7.08-41.07-27.2-41.23-27.4l-1-1.3,1.57-.56c.25-.08,24.72-8.54,49.48-1.46s41.07,27.2,41.23,27.4l1,1.3-1.57.55A94.79,94.79,0,0,1,730.43,629.31ZM671,598.94c4,4.54,18.54,19.46,38.89,25.27h0c20.35,5.82,40.53.82,46.37-.89-4-4.55-18.54-19.46-38.89-25.28S676.83,597.22,671,598.94Z"/><path class="cls-4" d="M688.18,265.34c-13.93-21.57-12.8-47.08-12.8-47.08s23.72,9.46,37.65,31,12.8,47.08,12.8,47.08S702.12,286.9,688.18,265.34Z"/><path class="cls-5" d="M734,298.08l-1.54-.62c-.24-.1-24.24-9.85-38.21-31.48h0c-14-21.63-13-47.51-13-47.77l.07-1.66,1.55.62c.24.09,24.23,9.84,38.2,31.47s13,47.51,13,47.77ZM696.28,264.7c11.49,17.79,30,27.3,35.49,29.85-.06-6.08-1.15-26.85-12.63-44.62s-30-27.3-35.49-29.86C683.7,226.16,684.79,246.92,696.28,264.7Z"/><path class="cls-6" d="M410,390.92s-13.1-4.68-21.52,14S367,444.24,367,444.24l7.48,1.87s1.87-13.1,6.55-15L379.11,448s56.13,19.64,81.38-1.87l-.93-6.55s3.74.93,3.74,6.55l2.8-2.81s-2.8-5.61-11.22-13.1c-5.53-4.91-7.43-14.25-8.08-20.09a24.33,24.33,0,0,0-5.6-13.25C435.61,390.38,425.41,383.48,410,390.92Z"/><path class="cls-7" d="M472.06,506.69l2.1,54.66L469.26,616s2.1,26.63-6.31,24.53-4.2-21-4.2-21V564.15l-3.51-43.44Z"/><path class="cls-7" d="M378.16,517.2l-.7,28L366.25,610.4s-11.22,27.33,0,25.93,9.11-24.52,9.11-24.52l14.71-58.17-1.4-34.33Z"/><path class="cls-7" d="M365.55,660.16s-14.72,39.94-9.11,54,4.9,20.32,4.9,20.32l23.83-4.21s-6.31-18.22,0-28.73S405.49,656,405.49,656Z"/><polygon class="cls-7" points="424.41 660.86 428.61 714.82 431.42 729.53 453.84 731.64 452.44 704.31 458.05 662.26 424.41 660.86"/><path class="cls-6" d="M458.05,719.72a25,25,0,0,1-30.14-2.1v77.79l-7.71,36.43s-17.51,25.23,0,25.23,21.73-4.9,21-9.11,1.4-11.91,1.4-11.91l3.5-7-.7-21.72Z"/><path class="cls-6" d="M387.27,717.62s-8.41,14.72-28.73,9.11l14.71,89.7L355,832.55s-39.24,14.71-9.11,18.92S402,846.56,402,846.56s2.1-19.62-1.41-26.63S387.27,717.62,387.27,717.62Z"/><circle class="cls-7" cx="416.7" cy="426.11" r="23.12" transform="translate(-70.65 769.17) rotate(-80.78)"/><polygon class="cls-7" points="411.1 440.12 409.69 462.55 402.69 468.15 430.72 485.67 443.33 468.15 434.92 463.25 432.82 434.51 411.1 440.12"/><path class="cls-2" d="M437.72,467.45s-9,11.84-31.48-2.14c0,0-29.48-2.76-33.69,14.75s-7.71,21.73-7.71,21.73l18.22,27.33s-2.8,12.61,4.91,17.52,61,3.5,61,3.5l9.81-9.81v-14l28.73-22.42-3.51-3.5s-7.7-28-22.42-30.84S442.63,464,437.72,467.45Z"/><path class="cls-6" d="M406.89,534.72l-17.68,12.51-.54,7.82L362.74,664.36l107.92,3.51s.7-77.79-18.92-101.61L448.24,548Z"/><path class="cls-6" d="M388.23,429.63s7.48-10.29,14-12.16,7.48-11.23,7.48-11.23,16.84,18.71,27.13,19.65.93-22.46.93-22.46l-18.7-4.67-17.78,1.87-14,9.35Z"/><path class="cls-6" d="M129.94,901.62,135,890.4a38,38,0,0,0,21.29,6.71c8.84,0,12.44-2.94,12.44-6.9,0-12.05-37.51-3.77-37.51-27.69,0-10.94,8.85-20,27.19-20,8.11,0,16.4,1.93,22.39,5.7l-4.61,11.32a36.4,36.4,0,0,0-17.88-5.06c-8.84,0-12.25,3.31-12.25,7.36,0,11.87,37.51,3.68,37.51,27.32,0,10.76-8.94,20-27.38,20C146,909.07,135.65,906,129.94,901.62Z"/><path class="cls-6" d="M236.66,879.73V908H223.21v-6.16c-2.68,4.5-7.84,6.9-15.12,6.9-11.61,0-18.52-6.44-18.52-15,0-8.74,6.17-14.81,21.29-14.81h11.42c0-6.16-3.68-9.75-11.42-9.75a23.89,23.89,0,0,0-14.29,4.6l-5.16-10c5.44-3.86,13.46-6,21.38-6C227.91,857.74,236.66,864.73,236.66,879.73Zm-14.38,12.6v-5.06h-9.86c-6.73,0-8.84,2.48-8.84,5.8,0,3.58,3,6,8.11,6C216.48,899.05,220.63,896.84,222.28,892.33Z"/><path class="cls-6" d="M300.71,839.71V908H287v-5.7c-3.59,4.32-8.85,6.44-15.48,6.44-14,0-24.79-9.94-24.79-25.49s10.78-25.48,24.79-25.48c6.08,0,11.24,1.93,14.84,6v-24Zm-14.1,43.51c0-8.55-5.53-13.7-12.62-13.7s-12.72,5.15-12.72,13.7,5.53,13.71,12.72,13.71S286.61,891.78,286.61,883.22Z"/><path class="cls-6" d="M314,839.71h14.38V908H314Z"/><path class="cls-6" d="M390.94,858.48,368.55,911c-4.8,12-11.62,15.54-20.56,15.54-5.07,0-10.6-1.65-13.82-4.51l5.25-10.21a12.73,12.73,0,0,0,8.11,3.13c4,0,6.18-1.75,8.11-6.16l.19-.46-21.48-49.86h14.84l13.92,33.57,14-33.57Z"/><path class="cls-6" d="M408.27,899.69c0,2.39-.37,4.14-2.49,9.2l-5.25,13.25H391.4l4.06-14.63a8,8,0,0,1-5-7.82c0-5.34,3.87-8.83,8.94-8.83A8.46,8.46,0,0,1,408.27,899.69Z"/><path class="cls-6" d="M476.1,905.58c-3,2.11-7.28,3.13-11.71,3.13-11.7,0-18.52-6-18.52-17.76V870.62h-7.65v-11h7.65V847.53h14.38v12.05H472.6v11H460.25v20.15c0,4.23,2.3,6.53,6.17,6.53a9.76,9.76,0,0,0,5.81-1.84Z"/><path class="cls-6" d="M534.9,879.63V908H520.52V881.84c0-8-3.69-11.68-10-11.68-6.92,0-11.89,4.23-11.89,13.34V908H484.21V839.71h14.38v23.92c3.87-3.87,9.4-5.89,15.76-5.89C526.05,857.74,534.9,864.55,534.9,879.63Z"/><path class="cls-6" d="M596.74,887.27H559.23c1.38,6.16,6.64,9.94,14.19,9.94a16.81,16.81,0,0,0,12.44-4.79l7.65,8.28c-4.6,5.25-11.52,8-20.46,8-17.14,0-28.29-10.77-28.29-25.49s11.34-25.48,26.45-25.48c14.56,0,25.81,9.75,25.81,25.67C597,884.51,596.83,886.08,596.74,887.27ZM559,878.9h24.43a11.78,11.78,0,0,0-12.17-10.3C564.76,868.6,560.06,872.55,559,878.9Z"/><path class="cls-6" d="M637.38,857.74V871c-1.19-.09-2.12-.19-3.22-.19-7.93,0-13.18,4.33-13.18,13.8V908H606.6V858.48h13.73V865C623.84,860.22,629.73,857.74,637.38,857.74Z"/><path class="cls-6" d="M693.79,887.27H656.28c1.38,6.16,6.64,9.94,14.19,9.94a16.81,16.81,0,0,0,12.44-4.79l7.65,8.28c-4.6,5.25-11.52,8-20.46,8-17.14,0-28.29-10.77-28.29-25.49s11.34-25.48,26.45-25.48c14.56,0,25.81,9.75,25.81,25.67C694.07,884.51,693.88,886.08,693.79,887.27Zm-37.7-8.37h24.43a11.78,11.78,0,0,0-12.17-10.3C661.81,868.6,657.11,872.55,656.09,878.9Z"/><path class="cls-6" d="M728,843.57c0-4.5,3.6-8,8.94-8s8.94,3.31,8.94,7.73c0,4.78-3.59,8.28-8.94,8.28S728,848.08,728,843.57Zm1.75,14.91h14.38V908H729.73Z"/><path class="cls-6" d="M752.68,903.37l4.79-10.3a34,34,0,0,0,17.24,4.78c6.63,0,9.12-1.75,9.12-4.51,0-8.09-30,.19-30-19.59,0-9.39,8.48-16,23-16,6.82,0,14.38,1.56,19.08,4.32l-4.8,10.22a28.5,28.5,0,0,0-14.28-3.68c-6.45,0-9.22,2-9.22,4.6,0,8.46,29.95.27,29.95,19.77,0,9.2-8.57,15.74-23.4,15.74C765.77,908.71,757.29,906.41,752.68,903.37Z"/><path class="cls-6" d="M184.68,979.63V1008H170.3V981.84c0-8-3.68-11.68-10-11.68-6.91,0-11.89,4.23-11.89,13.34V1008H134V958.48h13.74v5.79c3.87-4.23,9.67-6.53,16.4-6.53C175.83,957.74,184.68,964.55,184.68,979.63Z"/><path class="cls-6" d="M194.54,983.22c0-14.9,11.52-25.48,27.28-25.48S249,968.32,249,983.22s-11.43,25.49-27.19,25.49S194.54,998.13,194.54,983.22Zm39.91,0c0-8.55-5.44-13.7-12.63-13.7s-12.71,5.15-12.71,13.7,5.52,13.71,12.71,13.71S234.45,991.78,234.45,983.22Z"/><path class="cls-6" d="M290.58,1005.58c-2.95,2.11-7.28,3.13-11.71,3.13-11.7,0-18.52-6-18.52-17.76V970.62H252.7v-11h7.65V947.53h14.38v12.05h12.35v11H274.73v20.15c0,4.23,2.3,6.53,6.17,6.53a9.76,9.76,0,0,0,5.81-1.84Z"/><path class="cls-6" d="M349.38,979.63V1008H335V981.84c0-8-3.69-11.68-10-11.68-6.92,0-11.89,4.23-11.89,13.34V1008H298.69V939.71h14.38v23.92c3.87-3.87,9.4-5.89,15.76-5.89C340.53,957.74,349.38,964.55,349.38,979.63Z"/><path class="cls-6" d="M360.62,943.57c0-4.5,3.6-8,8.94-8s8.94,3.31,8.94,7.73c0,4.78-3.59,8.28-8.94,8.28S360.62,948.08,360.62,943.57Zm1.75,14.91h14.38V1008H362.37Z"/><path class="cls-6" d="M440.8,979.63V1008H426.43V981.84c0-8-3.69-11.68-10.05-11.68-6.91,0-11.89,4.23-11.89,13.34V1008H390.11V958.48h13.74v5.79c3.87-4.23,9.67-6.53,16.4-6.53C432,957.74,440.8,964.55,440.8,979.63Z"/><path class="cls-6" d="M505.5,958.48v41.21c0,18.4-9.95,26.86-27.83,26.86-9.4,0-18.53-2.3-24.33-6.8l5.71-10.31c4.24,3.41,11.15,5.61,17.51,5.61,10.14,0,14.57-4.6,14.57-13.52v-2.12c-3.78,4.14-9.22,6.17-15.67,6.17-13.74,0-24.79-9.48-24.79-23.92s11.05-23.92,24.79-23.92c6.91,0,12.62,2.3,16.4,7.08v-6.34Zm-14.19,23.18c0-7.27-5.44-12.14-13-12.14s-13.08,4.87-13.08,12.14,5.53,12.14,13.08,12.14S491.31,988.93,491.31,981.66Z"/><path class="cls-6" d="M595.64,979.63V1008H581.26V981.84c0-8-3.69-11.68-10-11.68-6.91,0-11.89,4.23-11.89,13.34V1008H545V939.71h14.37v23.92c3.88-3.87,9.41-5.89,15.76-5.89C586.79,957.74,595.64,964.55,595.64,979.63Z"/><path class="cls-6" d="M657.48,987.27H620c1.38,6.16,6.63,9.94,14.19,9.94a16.81,16.81,0,0,0,12.44-4.79l7.65,8.28c-4.6,5.25-11.52,8-20.46,8-17.14,0-28.29-10.77-28.29-25.49s11.33-25.48,26.45-25.48c14.56,0,25.81,9.75,25.81,25.67C657.76,984.51,657.57,986.08,657.48,987.27Zm-37.7-8.37h24.43A11.78,11.78,0,0,0,632,968.6C625.5,968.6,620.8,972.55,619.78,978.9Z"/><path class="cls-6" d="M698.12,957.74V971c-1.2-.09-2.12-.19-3.22-.19-7.93,0-13.18,4.33-13.18,13.8V1008H667.34V958.48h13.73V965C684.58,960.22,690.47,957.74,698.12,957.74Z"/><path class="cls-6" d="M754.53,987.27H717c1.38,6.16,6.63,9.94,14.19,9.94a16.83,16.83,0,0,0,12.44-4.79l7.65,8.28c-4.61,5.25-11.52,8-20.46,8-17.14,0-28.29-10.77-28.29-25.49s11.33-25.48,26.45-25.48c14.56,0,25.8,9.75,25.8,25.67C754.8,984.51,754.62,986.08,754.53,987.27Zm-37.7-8.37h24.43a11.78,11.78,0,0,0-12.17-10.3C722.55,968.6,717.85,972.55,716.83,978.9Z"/><path class="cls-6" d="M760.89,999.69a8.94,8.94,0,0,1,17.88,0,8.94,8.94,0,1,1-17.88,0Z"/><path class="cls-6" d="M785,999.69a8.94,8.94,0,0,1,17.88,0,8.94,8.94,0,1,1-17.88,0Z"/><path class="cls-6" d="M809.18,999.69a8.94,8.94,0,0,1,17.88,0,8.94,8.94,0,1,1-17.88,0Z"/></g></g></svg>