<svg xmlns="http://www.w3.org/2000/svg" xmlns:xlink="http://www.w3.org/1999/xlink" width="764.431" height="578.817" viewBox="0 0 764.431 578.817">
  <defs>
    <linearGradient id="linear-gradient" x1="0.5" y1="1" x2="0.5" gradientUnits="objectBoundingBox">
      <stop offset="0" stop-color="gray" stop-opacity="0.251"/>
      <stop offset="0.54" stop-color="gray" stop-opacity="0.122"/>
      <stop offset="1" stop-color="gray" stop-opacity="0.102"/>
    </linearGradient>
    <linearGradient id="linear-gradient-2" y1="1" y2="0" xlink:href="#linear-gradient"/>
    <linearGradient id="linear-gradient-4" y1="1" y2="0" xlink:href="#linear-gradient"/>
    <linearGradient id="linear-gradient-5" y1="1" y2="0" xlink:href="#linear-gradient"/>
    <linearGradient id="linear-gradient-6" y1="1" y2="0" xlink:href="#linear-gradient"/>
    <linearGradient id="linear-gradient-23" x1="-1.293" y1="1" x2="-1.293" y2="0" xlink:href="#linear-gradient"/>
    <linearGradient id="linear-gradient-24" x1="0.419" y1="1" x2="0.419" y2="0" xlink:href="#linear-gradient"/>
  </defs>
  <g id="picture" transform="translate(64.431 78.817)">
    <path id="Контур_38" data-name="Контур 38" d="M711.09,352.664a192.215,192.215,0,0,1-4.2,40.2q-1.414,6.637-3.287,13.012-2.318,7.946-5.3,15.407-1.516,3.8-3.2,7.468a114.454,114.454,0,0,1-7.233,40.367c-8.529,22.7-24.058,41.222-43.492,52.041A81.092,81.092,0,0,1,604.76,531.53H143.974c-24.629,0-47.456-8.8-66.171-23.795a122.272,122.272,0,0,1-15.2-14.547A129.945,129.945,0,0,1,45.9,469.118a143.807,143.807,0,0,1-16.992-68.482c-11.262-22.923-17.818-50.4-17.818-79.976,0-37.273,10.436-71.266,27.582-97.008A132.573,132.573,0,0,1,50.386,208.52a114.846,114.846,0,0,1,13.4-12.737,101.918,101.918,0,0,1,11.886-8.28c1.718-1.016,3.441-1.971,5.194-2.862q2.306-1.195,4.671-2.228,2.835-1.255,5.741-2.3t5.735-1.834a80.755,80.755,0,0,1,8.469-1.894q3.566-.618,7.132-.914,2.835-.233,5.717-.269h1.04c2.116,0,4.22.1,6.306.263.22-.514.458-1.028.678-1.541.832-1.84,1.694-3.668,2.562-5.472a.212.212,0,0,0,0-.048c.149-.311.3-.6.452-.926.7-1.47,1.432-2.927,2.181-4.373.345-.669.683-1.332,1.034-2,.077-.155.155-.3.244-.46.357-.687.719-1.368,1.088-2.049q2.752-5.1,5.723-10.037c.172-.281.333-.562.505-.836.309-.508.594-1.016.939-1.517.82-1.338,1.664-2.67,2.514-3.991.594-.932,1.189-1.864,1.831-2.784q2.318-3.495,4.755-6.9t5.064-6.811c.238-.311.475-.6.725-.926l2.538-3.208h0l.351-.436h0l.921-1.129c1.361-1.667,2.758-3.316,4.16-4.947A240.018,240.018,0,0,1,186.7,92.048c.315-.293.636-.6.951-.848,1.51-1.32,3.043-2.623,4.576-3.9A239.877,239.877,0,0,1,218.62,68.181c.63-.406,1.272-.8,1.92-1.195a239.605,239.605,0,0,1,25.253-13.5q7.132-3.3,14.412-6.106c3.221-1.231,6.454-2.39,9.729-3.489q7.6-2.521,15.381-4.57a239.514,239.514,0,0,1,46.5-7.36q7.132-.43,14.424-.43a240.383,240.383,0,0,1,69.529,10.21,2.423,2.423,0,0,0,2.157,1.3h2c.868.275,1.729.562,2.6.848q7.269,2.426,14.329,5.311l1.189.49a240.782,240.782,0,0,1,62.142,37.553q2.086,1.727,4.113,3.507,2.46-1.834,5-3.507a91.334,91.334,0,0,1,20.73-10.264,82.007,82.007,0,0,1,46.5-2.115c19.761,4.869,37.65,16.949,52.1,34.124a140.151,140.151,0,0,1,15.625,23.036c.327.6.654,1.195.969,1.792a162.675,162.675,0,0,1,9.949,23.03c.1.287.2.6.291.86a179.125,179.125,0,0,1,6.122,23.018c.071.394.154.795.226,1.195a190.815,190.815,0,0,1,2.924,23.03,5.013,5.013,0,0,0,.047.842q.375,6.01.38,12.151,0,5.5-.3,10.885c0,.4-.048.807-.077,1.195-.053,1.045-.131,2.091-.208,3.13a122.48,122.48,0,0,1,12.707,13.908q2.6,3.3,5.028,6.84a149.5,149.5,0,0,1,12.956,23.03C705.313,299.01,711.09,324.926,711.09,352.664Z" transform="translate(-11.09 -31.53)" fill="#6c63ff" opacity="0.1"/>
    <path id="Контур_39" data-name="Контур 39" d="M697.472,806.533c0,8.874-27.255,16.971-72.044,23.09H205.2c-44.783-6.119-72.038-14.216-72.038-23.09,0-6.758,15.812-13.069,43.151-18.4h0l.772-.149c7.716-1.488,16.34-2.9,25.766-4.219l.718-.1h0q11.218-1.56,23.866-2.946l.8-.084q4.879-.538,9.96-1.04h0l1.306-.125c24.662-2.39,52.695-4.326,83.1-5.623h.036q6.387-.269,12.91-.5,7.253-.269,14.684-.478c3.781-.114,7.609-.209,11.449-.3h.089c17.326-.412,35.227-.627,53.532-.627,45.264,0,88.046,1.309,125.956,3.633h.107c5.829.359,11.55.735,17.13,1.141l4.748.353q9.443.717,18.4,1.518h0C651.864,784.877,697.472,795.054,697.472,806.533Z" transform="translate(-60.216 -329.623)" fill="#6c63ff" opacity="0.1"/>
    <path id="Контур_40" data-name="Контур 40" d="M304.007,135.2V153.32a2.45,2.45,0,0,1-2.45,2.456H268.38a240.679,240.679,0,0,1,22.887-23.036h10.3A2.45,2.45,0,0,1,304.007,135.2Z" transform="translate(-115.512 -72.261)" fill="none" stroke="#fff" stroke-miterlimit="10" stroke-width="1" opacity="0.03"/>
    <path id="Контур_41" data-name="Контур 41" d="M670.362,132V404.258a7.171,7.171,0,0,1-7.171,7.171H177.081a7.171,7.171,0,0,1-7.171-7.171V213.988q3.585-.618,7.171-.914,2.85-.233,5.749-.269h1.046c2.127,0,4.243.1,6.34.263.221-.514.46-1.028.681-1.542.837-1.84,1.7-3.669,2.576-5.474a.208.208,0,0,0,0-.048c.149-.311.3-.6.454-.926.705-1.47,1.44-2.928,2.193-4.374.347-.669.687-1.333,1.04-2,.078-.155.155-.3.245-.46.359-.687.723-1.368,1.094-2.05q2.767-5.1,5.755-10.039c.173-.281.335-.562.508-.837.311-.508.6-1.016.944-1.518.825-1.339,1.673-2.671,2.528-3.992.6-.932,1.2-1.864,1.84-2.785q2.33-3.5,4.78-6.9t5.091-6.812c.239-.311.478-.6.729-.926l2.552-3.209h0l.353-.436h0l.926-1.129c1.368-1.667,2.773-3.316,4.183-4.948a240.684,240.684,0,0,1,22.887-23.036c.317-.293.639-.6.956-.849,1.518-1.321,3.06-2.623,4.6-3.9H566.787q2.1,1.727,4.135,3.508,2.474-1.835,5.031-3.508H663.2A7.171,7.171,0,0,1,670.362,132Z" transform="translate(-75.005 -69.098)" fill="#fff"/>
    <path id="Контур_42" data-name="Контур 42" d="M665.831,212.09v6.776H229.88c.825-1.339,1.673-2.671,2.534-3.992.6-.932,1.2-1.864,1.834-2.785Z" transform="translate(-101.004 -104.221)" fill="#3f3d56"/>
    <rect id="Прямоугольник_36" data-name="Прямоугольник 36" width="258.057" height="6.776" transform="translate(470.629 74.791) rotate(90)" fill="#3f3d56"/>
    <rect id="Прямоугольник_37" data-name="Прямоугольник 37" width="258.057" height="6.776" transform="translate(346.643 74.791) rotate(90)" fill="#3f3d56"/>
    <rect id="Прямоугольник_38" data-name="Прямоугольник 38" width="258.057" height="6.776" transform="translate(222.657 74.791) rotate(90)" fill="#3f3d56"/>
    <path id="Контур_43" data-name="Контур 43" d="M236.93,247.6v26.687H209.37V255.356c.149-.311.3-.6.454-.926.711-1.47,1.44-2.928,2.2-4.374.341-.669.681-1.333,1.034-2,.078-.155.161-.3.245-.46Z" transform="translate(-91.555 -118.519)" fill="url(#linear-gradient)"/>
    <path id="Контур_44" data-name="Контур 44" d="M236.779,248.358v25.767H210.17V254.71c.711-1.47,1.44-2.928,2.2-4.374.341-.669.681-1.333,1.034-2Z" transform="translate(-91.878 -118.816)" fill="#7cfcff"/>
    <rect id="Прямоугольник_39" data-name="Прямоугольник 39" width="27.566" height="26.687" transform="translate(228.809 120.951)" fill="url(#linear-gradient-2)"/>
    <rect id="Прямоугольник_40" data-name="Прямоугольник 40" width="26.615" height="25.767" transform="translate(229.286 121.411)" fill="#7cfcff"/>
    <rect id="Прямоугольник_41" data-name="Прямоугольник 41" width="27.566" height="26.687" transform="translate(352.608 172.752)" fill="url(#linear-gradient-2)"/>
    <rect id="Прямоугольник_42" data-name="Прямоугольник 42" width="26.615" height="25.767" transform="translate(353.086 173.212)" fill="#7cfcff"/>
    <rect id="Прямоугольник_43" data-name="Прямоугольник 43" width="27.566" height="26.687" transform="translate(478.932 190.423)" fill="url(#linear-gradient-4)"/>
    <rect id="Прямоугольник_44" data-name="Прямоугольник 44" width="26.615" height="25.767" transform="translate(479.405 190.883)" fill="#7cfcff"/>
    <rect id="Прямоугольник_45" data-name="Прямоугольник 45" width="27.566" height="26.687" transform="translate(512.777 207.694)" fill="url(#linear-gradient-5)"/>
    <rect id="Прямоугольник_46" data-name="Прямоугольник 46" width="26.615" height="25.767" transform="translate(513.256 208.154)" fill="#7cfcff"/>
    <rect id="Прямоугольник_47" data-name="Прямоугольник 47" width="27.566" height="26.687" transform="translate(555.225 161.544)" fill="url(#linear-gradient-6)"/>
    <rect id="Прямоугольник_48" data-name="Прямоугольник 48" width="26.615" height="25.767" transform="translate(555.699 162.005)" fill="#7cfcff"/>
    <rect id="Прямоугольник_49" data-name="Прямоугольник 49" width="27.566" height="26.687" transform="translate(546.633 198.978)" fill="url(#linear-gradient-4)"/>
    <rect id="Прямоугольник_50" data-name="Прямоугольник 50" width="26.615" height="25.767" transform="translate(547.107 199.438)" fill="#7cfcff"/>
    <rect id="Прямоугольник_51" data-name="Прямоугольник 51" width="27.566" height="26.687" transform="translate(266.201 120.951)" fill="url(#linear-gradient-2)"/>
    <rect id="Прямоугольник_52" data-name="Прямоугольник 52" width="26.615" height="25.767" transform="translate(266.679 121.411)" fill="#7cfcff"/>
    <rect id="Прямоугольник_53" data-name="Прямоугольник 53" width="27.566" height="26.687" transform="translate(138.13 185.632)" fill="url(#linear-gradient-6)"/>
    <rect id="Прямоугольник_54" data-name="Прямоугольник 54" width="26.615" height="25.767" transform="translate(138.601 186.092)" fill="#ffffa5"/>
    <rect id="Прямоугольник_55" data-name="Прямоугольник 55" width="27.566" height="26.687" transform="translate(248.59 159.412)" fill="url(#linear-gradient-5)"/>
    <rect id="Прямоугольник_56" data-name="Прямоугольник 56" width="26.615" height="25.767" transform="translate(249.067 159.872)" fill="#ffffa5"/>
    <rect id="Прямоугольник_57" data-name="Прямоугольник 57" width="27.566" height="26.687" transform="translate(391.456 143.467)" fill="url(#linear-gradient-4)"/>
    <rect id="Прямоугольник_58" data-name="Прямоугольник 58" width="26.615" height="25.767" transform="translate(391.928 143.927)" fill="#ffffa5"/>
    <rect id="Прямоугольник_59" data-name="Прямоугольник 59" width="27.566" height="26.687" transform="translate(536.075 124.756)" fill="url(#linear-gradient-5)"/>
    <rect id="Прямоугольник_60" data-name="Прямоугольник 60" width="26.615" height="25.767" transform="translate(536.554 125.216)" fill="#ffffa5"/>
    <rect id="Прямоугольник_61" data-name="Прямоугольник 61" width="27.566" height="26.687" transform="translate(427.618 120.951)" fill="url(#linear-gradient-6)"/>
    <rect id="Прямоугольник_62" data-name="Прямоугольник 62" width="26.615" height="25.767" transform="translate(428.091 121.411)" fill="#ffffa5"/>
    <rect id="Прямоугольник_63" data-name="Прямоугольник 63" width="27.566" height="26.687" transform="translate(426.061 172.752)" fill="url(#linear-gradient-2)"/>
    <rect id="Прямоугольник_64" data-name="Прямоугольник 64" width="26.615" height="25.767" transform="translate(426.54 173.212)" fill="#ffffa5"/>
    <rect id="Прямоугольник_65" data-name="Прямоугольник 65" width="27.566" height="26.687" transform="translate(303.005 133.837)" fill="url(#linear-gradient-5)"/>
    <rect id="Прямоугольник_66" data-name="Прямоугольник 66" width="26.615" height="25.767" transform="translate(303.483 134.291)" fill="#ffffa5"/>
    <rect id="Прямоугольник_67" data-name="Прямоугольник 67" width="27.566" height="26.687" transform="translate(157.37 142.422)" fill="url(#linear-gradient-5)"/>
    <rect id="Прямоугольник_68" data-name="Прямоугольник 68" width="26.615" height="25.767" transform="translate(157.847 142.882)" fill="#ff69b4"/>
    <rect id="Прямоугольник_69" data-name="Прямоугольник 69" width="27.566" height="26.687" transform="translate(171.078 172.752)" fill="url(#linear-gradient-6)"/>
    <rect id="Прямоугольник_70" data-name="Прямоугольник 70" width="26.615" height="25.767" transform="translate(171.549 173.212)" fill="#ff69b4"/>
    <rect id="Прямоугольник_71" data-name="Прямоугольник 71" width="27.566" height="26.687" transform="translate(284.77 177.083)" fill="url(#linear-gradient-4)"/>
    <rect id="Прямоугольник_72" data-name="Прямоугольник 72" width="26.615" height="25.767" transform="translate(285.241 177.543)" fill="#ff69b4"/>
    <rect id="Прямоугольник_73" data-name="Прямоугольник 73" width="27.566" height="26.687" transform="translate(485.367 124.756)" fill="url(#linear-gradient-5)"/>
    <rect id="Прямоугольник_74" data-name="Прямоугольник 74" width="26.615" height="25.767" transform="translate(485.846 125.216)" fill="#ff69b4"/>
    <rect id="Прямоугольник_75" data-name="Прямоугольник 75" width="27.566" height="26.687" transform="translate(509.621 161.544)" fill="url(#linear-gradient-2)"/>
    <rect id="Прямоугольник_76" data-name="Прямоугольник 76" width="26.615" height="25.767" transform="translate(510.101 162.005)" fill="#ff69b4"/>
    <rect id="Прямоугольник_77" data-name="Прямоугольник 77" width="27.566" height="26.687" transform="translate(355.002 120.951)" fill="url(#linear-gradient-2)"/>
    <rect id="Прямоугольник_78" data-name="Прямоугольник 78" width="26.615" height="25.767" transform="translate(355.481 121.411)" fill="#ff69b4"/>
    <rect id="Прямоугольник_79" data-name="Прямоугольник 79" width="27.566" height="26.687" transform="translate(388.354 198.978)" fill="url(#linear-gradient-4)"/>
    <rect id="Прямоугольник_80" data-name="Прямоугольник 80" width="26.615" height="25.767" transform="translate(388.827 199.438)" fill="#ff69b4"/>
    <path id="Контур_45" data-name="Контур 45" d="M833.348,322.181a5.277,5.277,0,0,0-2.1-3.538,20.942,20.942,0,0,0-3.657-2.115,2.988,2.988,0,0,1-1.064-.759,9.515,9.515,0,0,1-.6-1.147c-.717-1.249-2.271-1.643-3.49-2.39-2.175-1.321-3.179-3.663-4.081-6.125-.06-.155-.108-.311-.167-.46-.878-2.438-1.715-4.936-3.538-6.645a7.589,7.589,0,0,0-9.489-.508,2.235,2.235,0,0,1-1.339.663,2.528,2.528,0,0,1-1.285-.693,5.241,5.241,0,0,0-3.2-.884,30.523,30.523,0,0,1-.9-6.663v-.06h0a.09.09,0,0,1,0-.042h0v-1.661h.377a4.272,4.272,0,0,0,1.321-.149,3.587,3.587,0,0,0,.52-.191h0c1.607-.759,2.581-2.552,3.3-4.249.478-1.123.92-2.277,1.3-3.454.048-.149.09-.3.143-.454h0c.066-.239.143-.484.2-.729a1.117,1.117,0,0,1,.06-.233c.018-.078.042-.149.06-.227l.054-.251.3.215h0l.054.03.657.46c3.083,2.109,6.322,4.1,7.661,4.147h0a.694.694,0,0,0,.394-.078c.866-.478-.795-2.259-2.88-4.069-.173-.155-.359-.3-.544-.46-1.548-1.309-3.215-2.576-4.183-3.3l-.9-.651a8.834,8.834,0,0,0,2.2-4.78,37.1,37.1,0,0,0,.562-5.014v-.084a20.227,20.227,0,0,0-.484-5.378,12.438,12.438,0,0,0-5.976-8.282c-.9-.466-1.918-.831-2.8-1.333-.167-.1-.317-.2-.472-.3h0a4.147,4.147,0,0,1-.777-.663,2.708,2.708,0,0,1-.394-.538,1.6,1.6,0,0,1-.155-.281A3.62,3.62,0,0,0,797.6,248c-.6-.663-1.6-.466-2.468-.359h-.747c-3.1.072-6.1-1.661-9.232-1.661-3.43,0-6.352,1.99-9.376,3.352-.6.281-1.2.532-1.727.789-.454.215-.878.43-1.291.663h0q-.24.135-.466.293h0a6.632,6.632,0,0,0-2.558,2.988,6.156,6.156,0,0,0-1.261,2.432,6.006,6.006,0,0,0-.161,1.249,20.718,20.718,0,0,0-6.2,14.76v.9a20.735,20.735,0,0,0,14.754,18.979h0c.233.072.472.143.717.2.06.2.143.406.2.6.126.388.245.771.335,1.159h0a5.834,5.834,0,0,1,.143.6,16.175,16.175,0,0,1,.43,4.057c0,.12,0,.233,0,.359h0v.042a15.753,15.753,0,0,0-4.482,1.793,8.647,8.647,0,0,0-3.77,4.643,3.707,3.707,0,0,0-.12.436,12,12,0,0,0-3.412-.6,3.638,3.638,0,0,0-2.94.878,2.652,2.652,0,0,0-.544,1.129c-.406.365-.478,1-.759,1.494-.872,1.53-3.143,1.028-4.852,1.446a3.364,3.364,0,0,0-.508.167h0c-1.619.6-2.988,2.032-4.709,2.044a12.025,12.025,0,0,0-2.062-.114l-.125.03c-.711.179-1.279,1.159-.729,1.649a2.341,2.341,0,0,0-2.205,1.058c-.538.681-.866,1.494-1.446,2.133a2.235,2.235,0,0,0-2.265-.878,8.213,8.213,0,0,0-2.39.944,3.281,3.281,0,0,1-1.058.37,4.578,4.578,0,0,1-1.273-.114,10.278,10.278,0,0,0-6.029.843c-1.649.783-3.245-.657-5.067-.771a2.809,2.809,0,0,1-1.852-.6.8.8,0,0,1-.137-.149,2.692,2.692,0,0,1-.263-.46c-.119-.275-.2-.6-.3-.855a7.26,7.26,0,0,0-5.014-4.637l-.3-.072a5.294,5.294,0,0,0,.251-1.052h0a6.209,6.209,0,0,0-3.89-6.573,6.573,6.573,0,0,0-2.271-5.755,10.063,10.063,0,0,1-1.088-.855l-.06-.048a2.776,2.776,0,0,1-.412-.544h0a8.409,8.409,0,0,1-.633-1.392c-.532-1.422-1.076-2.844-1.607-4.267-.717-.143-1.273-.442-1.954-.556v-.436a14.173,14.173,0,0,0-.735-4.285,19.782,19.782,0,0,0-2.324-4.613h0c-.149-.239-.3-.472-.466-.705h0c-.2-.317-.424-.6-.639-.932a18.492,18.492,0,0,0-5.539-5.563,21.594,21.594,0,0,0-2.36-1.088l-4.183-1.715a1.967,1.967,0,0,0-.747-.2c-1,0-1.273,1.38-.872,2.33a2.35,2.35,0,0,0,.173.323c1.273,1.864,4.123,2.39,4.918,4.5a2.874,2.874,0,0,0-1.094.233,3.167,3.167,0,0,0-1.87,2.079,1.714,1.714,0,0,1-.394.932c-.377.293-.944.126-1.356.353-.741.394-.424,1.5-.5,2.336a10.563,10.563,0,0,1-.759,2.1,3.7,3.7,0,0,0-.09,1.7l.036.179h0a2.041,2.041,0,0,0,.054.263,5.411,5.411,0,0,0,.735,1.649,13.4,13.4,0,0,0,2.725,2.761c.681.562,1.374,1.129,2.1,1.643.209.143.412.281.6.418a.694.694,0,0,0-.066.114.821.821,0,0,1-.1.257h0a1.314,1.314,0,0,0-.072.741,1.2,1.2,0,0,0,.233.49h0a4.478,4.478,0,0,0,.526.538,10.756,10.756,0,0,1,3.275,5.916,3.619,3.619,0,0,1-.048,1.339h0a11,11,0,0,0-.532,2.713,4.264,4.264,0,0,0,.084.669h0a14.184,14.184,0,0,0,.944,3.089c1.111,2.821,2.289,5.737,4.506,7.768a25.159,25.159,0,0,0,5.055,12.447c2.324,2.988,5.438,5.247,8.515,7.464a15.946,15.946,0,0,0,3.143,1.972,18.083,18.083,0,0,0,3.119.843,160.147,160.147,0,0,0,26.084,3.048l1.2.042h.06c0,.46.042.92.06,1.38q.3,6.89.281,13.792v1.237a6.928,6.928,0,0,1-.37,2.647,7.667,7.667,0,0,1-1.243,1.793c-.114.143-.239.293-.353.442-1.793,2.39-2.139,5.575-2.08,8.647v.054a13.151,13.151,0,0,0,.048,1.374,93.916,93.916,0,0,0,1.47,12.244c.705,3.836.406,7.971.956,11.856a19.126,19.126,0,0,0,.956,3.9q1.082,2.91,2.163,5.814a5.1,5.1,0,0,1,.43,1.715,2.873,2.873,0,0,1-.042.556h0a9.784,9.784,0,0,1-1.428,2.886,9.992,9.992,0,0,0-1.261,5.282v.149h0a.861.861,0,0,0,.143.43c.233.323.723.293,1.112.233a44.281,44.281,0,0,1,4.691-.436h.167c-.054.066-.114.131-.167.2h0c-.179.245-.359.508-.532.795h0l-.084.143a17.915,17.915,0,0,0-1.034,2.115,20,20,0,0,0-1.374,3.795,3.468,3.468,0,0,0-.138.6c-.1.394-.179.789-.239,1.2a37.941,37.941,0,0,0-.43,6.215v.861c-.048.926-.1,1.864-.149,2.773a45.079,45.079,0,0,1-.711,7.338,6.034,6.034,0,0,0-.2,2.032v.03a16.64,16.64,0,0,0,.382,2.707c.185.944.43,1.918.675,2.88v.1a10.487,10.487,0,0,0,.072,1.064v.048a17.547,17.547,0,0,0,.95,4.619s0,.048,0,.072v.711a.8.8,0,0,0,0,.12h0c0,.43.054.866.1,1.3.131,1.261.341,2.516.6,3.771v.209q1.793,9.955,3.645,19.9c.072.4.149.795.227,1.2q2.008,10.649,4.183,21.267c.125.6.239,1.2.37,1.793.066.281.126.568.2.849s.167.687.251,1.028a29.549,29.549,0,0,0,5.444,10.756,49.2,49.2,0,0,1,5.677,9.095,1.06,1.06,0,0,1-.066.263h0c-.131.633-.275,1.261-.424,1.888l-.036.143c-1.589,6.746-3.711,13.4-4.446,20.317-.054.5-.1.992-.143,1.494a21.879,21.879,0,0,1-1.315,6.621c-.257.6-.568,1.165-.837,1.757a6.387,6.387,0,0,0-.639,2.169,1.679,1.679,0,0,0,0,.3.343.343,0,0,0,0,.078.257.257,0,0,0,0,.03h0a4.315,4.315,0,0,0,.6,2.115l-.078.06c-.161.125-.317.245-.466.37l-.3.251c-2.062,1.637-4.822,1.972-7.374,2.635s-5.276,2.008-6.065,4.53c-.048.161-.084.323-.12.49a1.644,1.644,0,0,0-.036.239h0a4.346,4.346,0,0,0-.054.735v.054a.742.742,0,0,0,0,.114,6.806,6.806,0,0,0,2.988,4.99c2.115,1.452,4.78,1.906,7.29,2.235a24.2,24.2,0,0,1,7.47,1.715c1.984.986,3.663,2.605,5.766,3.316.125.042.251.066.382.1l-.114.066c-.287.173-.6.341-.866.5l-.466.257a21.848,21.848,0,0,1-6.962,2.217c-2.462.341-5.378.5-6.651,2.641h0a.421.421,0,0,0-.048.107h0a1.422,1.422,0,0,0-.137.329v.048a.7.7,0,0,0-.054.143.85.85,0,0,0-.054.161,1.123,1.123,0,0,1,0,.137,2.556,2.556,0,0,0-.1.472,3.955,3.955,0,0,0,.042,1.243,5.569,5.569,0,0,0,1.607,2.91,11.611,11.611,0,0,0,5.545,2.45,99.919,99.919,0,0,0,13.8,1.715l4.5.347c1.607.126,3.221.245,4.828.359,1.141.072,2.283.143,3.424.2s2.175.09,3.263.114h1.7q4.183,0,8.312-.353c2.671-.239,5.312-.6,7.942-1.064a1.793,1.793,0,0,0,1.291-.6,1.2,1.2,0,0,0,.078-.149.51.51,0,0,0,.036-.1.212.212,0,0,0,0-.054.775.775,0,0,0,0-.114,1.52,1.52,0,0,0,0-.173v-.424c0-.568,0-1.129-.042-1.7v-.693l-.036-.7c-.042-.681-.084-1.368-.143-2.05l-.072-.813v-.269a4.81,4.81,0,0,0-.06-.6,1.036,1.036,0,0,0-.042-.353l-.108-.962c-.084-.705-.179-1.4-.281-2.1q-.329-2.295-.807-4.559v-.078c-.114-.514-.227-1.022-.335-1.53-.376-1.613-2.576.6-3.806,1.978-.161-.771-.329-1.536-.532-2.283h0v-.09c.329-.149.651-.3.968-.46a3.442,3.442,0,0,0,1.793-1.482,2.574,2.574,0,0,0,.191-.8,3.5,3.5,0,0,0,0-.5V583.4c-.179-3.55-.394-7.224-2.08-10.338a21.99,21.99,0,0,0-4.105-5.008c0-.382-.042-.765-.06-1.147-.179-3.8-.436-7.6-.795-11.4a166.106,166.106,0,0,0-3.173-20.6c-.424-1.834-.855-3.669-1.386-5.48h0a35.852,35.852,0,0,0-4.637-10.355c-.4-.6-.831-1.2-1.267-1.793q-.191-3.358-.6-6.729c-.359-3.083-.837-6.155-1.344-9.2-.042-.287-.1-.6-.126-.878v-.048a2.893,2.893,0,0,1,.143-1.2,7.069,7.069,0,0,1,1.2-1.607,6.794,6.794,0,0,0,1.261-4.183,1.676,1.676,0,0,0,0-.173c0-1.583-.233-3.257-.341-4.828,0-.442-.042-.878-.042-1.321h0v-.048h0v-.2c0-.46,0-.914.03-1.368a60.128,60.128,0,0,1,1.793-10.469c.854-3.585,1.721-7.117,2.57-10.678h0q.511-2.08,1-4.183c.125-.5.245-.986.359-1.482a26.218,26.218,0,0,1,1.386-4.524,43.354,43.354,0,0,1,3.538-5.707,32,32,0,0,0,4.99-16.989h0a.1.1,0,0,0,0-.042v-.072a.8.8,0,0,0,0-.12v-1.2h0a5.776,5.776,0,0,0-.054-.944c.741.263,1.488.532,2.223.819a12.585,12.585,0,0,0,.1-1.35v-.048c.06-2.767-.544-5.707-.6-8.491a.391.391,0,0,1,0-.084v-.078a14.7,14.7,0,0,1,.185-2.731,11.013,11.013,0,0,1,.3-1.237c.209-.167.418-.335.6-.508h0a17.168,17.168,0,0,0,4.93-6.107c1.076-2.39,1.386-5.121,2.51-7.511a24.108,24.108,0,0,0,1.906-4.034,6.467,6.467,0,0,0,.2-1.35v-.072a44.421,44.421,0,0,0-.3-4.506h0V391.1c.06-4.147,2.641-8.031,2.928-12.077v-.054a9.688,9.688,0,0,0-.1-2.032c-.317-2.014-1.386-3.9-1.584-5.9h0a4.778,4.778,0,0,1-.036-.771,11.737,11.737,0,0,1,.938-3.627c2.086-5.516,4.147-11.318,4.3-17.132a.162.162,0,0,0,0-.054v-.126a21.564,21.564,0,0,0-.365-4.751c-.275-1.524-.723-3.03-.843-4.559a9.784,9.784,0,0,1,0-1.2c.1-1.679.711-3.322.872-4.972h0a6.8,6.8,0,0,0,0-1.6,5.032,5.032,0,0,0-.538-1.578h0a5,5,0,0,0-.454-.717,27.211,27.211,0,0,0,2.432-4.661,8.718,8.718,0,0,0,.6-1.912,4.43,4.43,0,0,0,.024-1.2ZM792.462,585.837h0l-.06-.036a7.463,7.463,0,0,0-1.99-.568c-.167,0-.341-.036-.508-.048h-.036a9.906,9.906,0,0,0,.2-1.691c0-.335,0-.675,0-1.016v-.663c0-.335-.03-.675-.054-1.01s-.066-.729-.09-1.094h0a1.562,1.562,0,0,1,0-.167c.078.227.161.454.257.681q1.105,2.88,2.39,5.671ZM806.3,275.488Z" transform="translate(-286.882 -117.956)" fill="url(#linear-gradient-23)"/>
    <path id="Контур_46" data-name="Контур 46" d="M835.265,324.8c-.078,3.03-1.106,5.976-1.267,9,8.963.442,17.742-3.89,26.579-2.564-2.468-1.6-3.789-4.482-4.565-7.32a30.245,30.245,0,0,1-.872-11.246,4.54,4.54,0,0,1,.108-.6c.329-1.482,1.2-3.585.95-4.751-.3-1.542-1.757-1.237-3.065-1.147a116.01,116.01,0,0,0-11.915,1.536c-1.028.179-11.037,2.677-11.186,2.42a47.452,47.452,0,0,1,4.332,8.922,17.383,17.383,0,0,1,.9,5.749Z" transform="translate(-343.439 -142.065)" fill="#ee8e9e"/>
    <path id="Контур_47" data-name="Контур 47" d="M690.4,309.043a12.945,12.945,0,0,0,2.731,2.749c.675.556,1.368,1.123,2.1,1.631a8.963,8.963,0,0,0,4.464,1.793c2.127.143,6.645-1.105,7.966-2.928a5.27,5.27,0,0,0,.759-3.048,14.125,14.125,0,0,0-.729-4.267,23.727,23.727,0,0,0-3.448-6.227,18.324,18.324,0,0,0-5.533-5.539,21.452,21.452,0,0,0-2.354-1.082l-4.183-1.709a2.1,2.1,0,0,0-.759-.2c-1.117,0-1.321,1.715-.687,2.635,1.267,1.858,4.117,2.39,4.918,4.482a3.191,3.191,0,0,0-2.988,2.295,1.637,1.637,0,0,1-.4.932c-.364.293-.938.125-1.356.347-.735.394-.412,1.494-.49,2.331a10.6,10.6,0,0,1-.765,2.091A4.446,4.446,0,0,0,690.4,309.043Z" transform="translate(-286.377 -135.677)" fill="#ee8e9e"/>
    <path id="Контур_48" data-name="Контур 48" d="M884.55,821.013c-.687-.687-1.793-.568-2.773-.418a103.02,103.02,0,0,1-15.578,1.261c-.651-3.191,1.243-6.292,1.852-9.489a8.367,8.367,0,0,1,.6-2.39c.729-1.41,2.39-2.056,3.944-2.39,2.808-.6,7.171-1.637,8.766,1.2C883.266,812.193,883.869,817.224,884.55,821.013Z" transform="translate(-358.013 -343.691)" fill="#65617d"/>
    <path id="Контур_49" data-name="Контур 49" d="M799.456,800.091c2.115,1.446,4.745,1.894,7.29,2.223s5.163.568,7.469,1.7c1.99.98,3.663,2.593,5.773,3.3a11.968,11.968,0,0,0,5.976.1c2.39-.442,4.888-1.309,6.167-3.352,1.141-1.793,1.016-4.117.861-6.256-.185-2.39-.359-4.84-.538-7.26a3.543,3.543,0,0,0-.448-1.757c-1.715-2.492-5.874,1.046-8.1,1.04a15.588,15.588,0,0,1-9.86-4.255,2.988,2.988,0,0,0-.765-.6c-1.01-.454-2.014.382-2.91,1.111-.1.084-.2.161-.3.239-2.062,1.637-4.822,1.966-7.368,2.629s-5.277,2-6.065,4.506a3.594,3.594,0,0,0-.119.484A6.391,6.391,0,0,0,799.456,800.091Z" transform="translate(-329.831 -334.816)" fill="#3f3d56"/>
    <path id="Контур_50" data-name="Контур 50" d="M799.456,800.091c2.115,1.446,4.745,1.894,7.29,2.223s5.163.568,7.469,1.7c1.99.98,3.663,2.593,5.773,3.3a11.968,11.968,0,0,0,5.976.1c2.39-.442,4.888-1.309,6.167-3.352,1.141-1.793,1.016-4.117.861-6.256-.185-2.39-.359-4.84-.538-7.26a3.543,3.543,0,0,0-.448-1.757c-1.715-2.492-5.874,1.046-8.1,1.04a15.588,15.588,0,0,1-9.86-4.255,2.988,2.988,0,0,0-.765-.6c-1.01-.454-2.014.382-2.91,1.111-.1.084-.2.161-.3.239-2.062,1.637-4.822,1.966-7.368,2.629s-5.277,2-6.065,4.506a3.594,3.594,0,0,0-.119.484A6.391,6.391,0,0,0,799.456,800.091Z" transform="translate(-329.831 -334.816)" opacity="0.05"/>
    <path id="Контур_51" data-name="Контур 51" d="M799.306,800.892c2.115,1.446,4.745,1.894,7.29,2.223s5.163.568,7.469,1.7c1.99.986,3.663,2.593,5.772,3.3a11.969,11.969,0,0,0,5.976.1,9.9,9.9,0,0,0,6.167-4.183c1.141-1.793,1.016-4.117.86-6.256-.185-2.39-.358-4.84-.538-7.26a3.542,3.542,0,0,0-.448-1.757c-1.715-2.492-5.874,1.046-8.1,1.04a15.588,15.588,0,0,1-9.86-4.255,2.987,2.987,0,0,0-.765-.6c-1.01-.454-2.014.382-2.91,1.111a20.918,20.918,0,0,0,2.48,5.115,10.7,10.7,0,0,0,7.768,4.864c1.578.114,3.2-.2,4.721.209s2.946,1.966,2.39,3.448-2.39,1.793-3.932,1.846a17.607,17.607,0,0,1-6.412-.448c-1.249-.418-2.39-1.106-3.585-1.613-5.169-2.145-11.7-.944-15.973-4.565a9.078,9.078,0,0,0-1.3-1C795.261,796.279,797.328,799.536,799.306,800.892Z" transform="translate(-329.68 -334.804)" fill="#e8eaf2"/>
    <path id="Контур_52" data-name="Контур 52" d="M799.306,800.892c2.115,1.446,4.745,1.894,7.29,2.223s5.163.568,7.469,1.7c1.99.986,3.663,2.593,5.772,3.3a11.969,11.969,0,0,0,5.976.1,9.9,9.9,0,0,0,6.167-4.183c1.141-1.793,1.016-4.117.86-6.256-.185-2.39-.358-4.84-.538-7.26a3.542,3.542,0,0,0-.448-1.757c-1.715-2.492-5.874,1.046-8.1,1.04a15.588,15.588,0,0,1-9.86-4.255,2.987,2.987,0,0,0-.765-.6c-1.01-.454-2.014.382-2.91,1.111a20.918,20.918,0,0,0,2.48,5.115,10.7,10.7,0,0,0,7.768,4.864c1.578.114,3.2-.2,4.721.209s2.946,1.966,2.39,3.448-2.39,1.793-3.932,1.846a17.607,17.607,0,0,1-6.412-.448c-1.249-.418-2.39-1.106-3.585-1.613-5.169-2.145-11.7-.944-15.973-4.565a9.078,9.078,0,0,0-1.3-1C795.261,796.279,797.328,799.536,799.306,800.892Z" transform="translate(-329.68 -334.804)" opacity="0.05"/>
    <path id="Контур_53" data-name="Контур 53" d="M855.631,540.62a31.778,31.778,0,0,1-4.362,23.46,45.444,45.444,0,0,0-3.538,5.677,26.2,26.2,0,0,0-1.386,4.506l-3.92,16.248c-1.064,4.386-2.127,8.856-1.793,13.355.221,3.137,1.01,6.663-.92,9.143a6.725,6.725,0,0,0-1.2,1.6,4.1,4.1,0,0,0,0,2.115c1.984,11.8,3.46,24.124-.126,35.537-3.251,10.344-3.442,21.8-6.2,32.268a7.172,7.172,0,0,1-1.721,3.585,5.612,5.612,0,0,1-2.57,1.2c-4.075.974-8.366-.167-12.178-1.924-2.671-1.237-5.545-3.406-5.318-6.34a12.918,12.918,0,0,1,1.482-3.908c1.082-2.522,1.2-5.336,1.464-8.067.735-6.86,2.85-13.475,4.446-20.186s2.683-13.714,1.333-20.478a179,179,0,0,0-13.146-40.527,4.822,4.822,0,0,0-1.2-1.793c-.538-.442-1.249-.645-1.709-1.2a5.254,5.254,0,0,1-.777-2.121c-.6-2.139-2.36-3.717-3.544-5.6-2.988-4.745-2.044-10.828-1.93-16.433.108-5.456-.675-10.959.215-16.337s3.974-10.876,9.161-12.549a19.755,19.755,0,0,1,8.037-.377C828.424,532.893,842.252,535.5,855.631,540.62Z" transform="translate(-329.991 -232.76)" fill="#303d5c"/>
    <path id="Контур_54" data-name="Контур 54" d="M855.631,540.62a31.778,31.778,0,0,1-4.362,23.46,45.444,45.444,0,0,0-3.538,5.677,26.2,26.2,0,0,0-1.386,4.506l-3.92,16.248c-1.064,4.386-2.127,8.856-1.793,13.355.221,3.137,1.01,6.663-.92,9.143a6.725,6.725,0,0,0-1.2,1.6,4.1,4.1,0,0,0,0,2.115c1.984,11.8,3.46,24.124-.126,35.537-3.251,10.344-3.442,21.8-6.2,32.268a7.172,7.172,0,0,1-1.721,3.585,5.612,5.612,0,0,1-2.57,1.2c-4.075.974-8.366-.167-12.178-1.924-2.671-1.237-5.545-3.406-5.318-6.34a12.918,12.918,0,0,1,1.482-3.908c1.082-2.522,1.2-5.336,1.464-8.067.735-6.86,2.85-13.475,4.446-20.186s2.683-13.714,1.333-20.478a179,179,0,0,0-13.146-40.527,4.822,4.822,0,0,0-1.2-1.793c-.538-.442-1.249-.645-1.709-1.2a5.254,5.254,0,0,1-.777-2.121c-.6-2.139-2.36-3.717-3.544-5.6-2.988-4.745-2.044-10.828-1.93-16.433.108-5.456-.675-10.959.215-16.337s3.974-10.876,9.161-12.549a19.755,19.755,0,0,1,8.037-.377C828.424,532.893,842.252,535.5,855.631,540.62Z" transform="translate(-329.991 -232.76)" opacity="0.05"/>
    <path id="Контур_55" data-name="Контур 55" d="M796.9,576.6a34.486,34.486,0,0,0,.717,6.3q3.765,21.124,8.025,42.152c.251,1.2.5,2.432.825,3.627a29.466,29.466,0,0,0,5.438,10.7c11.832,14.748,12.854,36.17,19.277,53.96.43,1.2.866,2.39,1.327,3.585a88.01,88.01,0,0,0,3.962,8.838,2.51,2.51,0,0,0,.813,1.058,2.444,2.444,0,0,0,1.291.251,37.647,37.647,0,0,0,16.7-3.783,3.472,3.472,0,0,0,1.793-1.47,3.615,3.615,0,0,0,.185-1.7c-.179-3.526-.394-7.171-2.073-10.278a22.05,22.05,0,0,0-4.111-4.984,189.218,189.218,0,0,0-4.028-32.967c-1.249-5.527-2.8-11.115-5.976-15.788-2.39-3.448-5.76-6.848-5.342-11.013.185-1.793.95-4.1-.538-5.175-.651-.472-1.613-.532-2.05-1.2a2.266,2.266,0,0,1-.287-1.028,25.493,25.493,0,0,1,.526-8.539,45.953,45.953,0,0,0,1.273-5.563,7.014,7.014,0,0,0-1.4-5.378c-.078-3.8,0-7.768-.054-11.533a21.508,21.508,0,0,1,.532-6.442c.293-1,.729-1.948.95-2.988.795-3.645-1.2-8.019,1.2-10.911.986-1.2,2.5-1.793,3.789-2.665a13.906,13.906,0,0,0,5.2-7.476,42.8,42.8,0,0,0,1.476-9.155,9.53,9.53,0,0,0,0-1.978,3.542,3.542,0,0,0-.263-.986c-.735-1.649-2.707-2.289-4.464-2.713a144.259,144.259,0,0,0-34.061-3.98c-4.243-2.892-6.633-1.858-8.432,1.2a31.8,31.8,0,0,0-2.39,5.862c-.825,2.48-.872,16.379-1.673,18.871C793.935,566.57,796.94,573.191,796.9,576.6Z" transform="translate(-329.276 -234.539)" fill="#303d5c"/>
    <path id="Контур_56" data-name="Контур 56" d="M907.637,389.515c.317,2.187-.735,4.338-.854,6.543a24.625,24.625,0,0,0,.866,5.707c1.368,7.41-1.261,14.909-3.944,21.948a11.294,11.294,0,0,0-.932,3.585c-.072,2.3,1.249,4.4,1.613,6.675.759,4.781-2.755,9.256-2.832,14.091,0,2.223.669,4.488.114,6.639a23.258,23.258,0,0,1-1.906,4.016c-1.129,2.39-1.428,5.073-2.51,7.469-1.942,4.338-6.125,7.171-10.1,9.77-2.265-.753-4.715-1.649-5.976-3.687a9.075,9.075,0,0,1-1.034-3.233,84.391,84.391,0,0,1-.8-15,93.118,93.118,0,0,1,.705-12.86c.8-5.45,2.57-10.7,3.836-16.062,1.6-6.758,2.39-13.744,4.912-20.227,2.187-5.7,5.6-10.816,9.19-15.71,1.368-1.87,2.45-4.541,5.109-4.111a5.569,5.569,0,0,1,4.542,4.446Z" transform="translate(-363.439 -173.853)" fill="#6c63ff"/>
    <path id="Контур_57" data-name="Контур 57" d="M907.637,389.515c.317,2.187-.735,4.338-.854,6.543a24.625,24.625,0,0,0,.866,5.707c1.368,7.41-1.261,14.909-3.944,21.948a11.294,11.294,0,0,0-.932,3.585c-.072,2.3,1.249,4.4,1.613,6.675.759,4.781-2.755,9.256-2.832,14.091,0,2.223.669,4.488.114,6.639a23.258,23.258,0,0,1-1.906,4.016c-1.129,2.39-1.428,5.073-2.51,7.469-1.942,4.338-6.125,7.171-10.1,9.77-2.265-.753-4.715-1.649-5.976-3.687a9.075,9.075,0,0,1-1.034-3.233,84.391,84.391,0,0,1-.8-15,93.118,93.118,0,0,1,.705-12.86c.8-5.45,2.57-10.7,3.836-16.062,1.6-6.758,2.39-13.744,4.912-20.227,2.187-5.7,5.6-10.816,9.19-15.71,1.368-1.87,2.45-4.541,5.109-4.111a5.569,5.569,0,0,1,4.542,4.446Z" transform="translate(-363.439 -173.853)" opacity="0.05"/>
    <path id="Контур_58" data-name="Контур 58" d="M830,310.089a47.456,47.456,0,0,1,4.332,8.922,20.561,20.561,0,0,0,4.918.6c6.436,0,11-3.663,14.778-8.288.329-1.488,2.39-2.868,2.139-4.04-.3-1.542-1.757-1.237-3.065-1.147a116,116,0,0,0-11.915,1.536C840.159,307.848,830.167,310.346,830,310.089Z" transform="translate(-343.409 -142.048)" opacity="0.1"/>
    <circle id="Эллипс_11" data-name="Эллипс 11" cx="20.622" cy="20.622" r="20.622" transform="translate(475.24 135.759)" fill="#ee8e9e"/>
    <path id="Контур_59" data-name="Контур 59" d="M801.9,538.6c3.585-.209,7.171-.066,10.756.078a36.17,36.17,0,0,1,6.669.687c2.707.6,5.241,1.846,7.912,2.617,4.279,1.249,8.8,1.3,13.224,1.739a75.613,75.613,0,0,1,8.659,1.357,3.543,3.543,0,0,0-.263-.986c-.735-1.649-2.707-2.289-4.464-2.713a144.251,144.251,0,0,0-34.061-3.98C806.089,534.507,803.7,535.541,801.9,538.6Z" transform="translate(-332.092 -234.499)" opacity="0.1"/>
    <path id="Контур_60" data-name="Контур 60" d="M810.18,345.8c.9,1.04,2.109,2.187,3.442,1.852a4.834,4.834,0,0,0,1.339-.717c2.39-1.536,5.294-1.894,8.091-2.313a119.505,119.505,0,0,0,16.666-3.747,16.961,16.961,0,0,1,4.93-1c3.5,0,6.573,2.342,8.784,5.067s3.741,5.91,5.892,8.665c1.53,1.966,3.352,3.7,4.781,5.737,3.585,5.145,4.386,11.862,3.454,18.082s-3.418,12.077-5.88,17.867a63.55,63.55,0,0,1-4.78,9.675c.831,4.727.394,10.129-1.852,14.341a14,14,0,0,0-1.87,4.273,10.611,10.611,0,0,0,.125,3.131l1.052,7.464c.317,2.277.639,4.547,1.052,6.806.759,4.135,1.793,8.623-.125,12.364-2.295,4.476.114,10.218-.49,15.214a76.529,76.529,0,0,0-20.1-4.78c-4.434-.436-8.964-.49-13.224-1.733-2.671-.777-5.2-2.008-7.912-2.629a36.648,36.648,0,0,0-6.675-.681,79.04,79.04,0,0,0-14.808.335c-.4.06-.878.09-1.117-.233a1.069,1.069,0,0,1-.149-.6,9.829,9.829,0,0,1,1.267-5.247c.6-1.1,1.488-2.181,1.464-3.442a5.176,5.176,0,0,0-.43-1.709l-2.163-5.784c-1.835-4.876-.962-10.547-1.912-15.668a92.04,92.04,0,0,1-1.422-12.125c-.179-3.478-.066-7.248,2.032-10.027a11.353,11.353,0,0,0,1.583-2.205,6.627,6.627,0,0,0,.376-2.635q.072-10.433-.6-20.861c1.834-3.287,3.741-6.651,5.569-9.937,2.127-3.824,4.291-7.726,5.151-12.017.6-2.844.55-5.766.956-8.635a3.735,3.735,0,0,1,.729-2.02,3.686,3.686,0,0,1,2.934-.872A12.872,12.872,0,0,1,810.18,345.8Z" transform="translate(-326.411 -155.679)" fill="#6c63ff"/>
    <path id="Контур_61" data-name="Контур 61" d="M699.07,326.034a8.964,8.964,0,0,0,4.464,1.793c2.127.143,6.645-1.105,7.965-2.928a5.27,5.27,0,0,0,.759-3.048,3.689,3.689,0,0,0-.884-.173,23.125,23.125,0,0,0-6.92.281,7.828,7.828,0,0,0-5.378,4.034Z" transform="translate(-290.234 -148.291)" opacity="0.1"/>
    <path id="Контур_62" data-name="Контур 62" d="M767.945,371.022a14.6,14.6,0,0,1-4.344,4.093c-2.05,1.064-4.464,1.088-6.77,1.04a161.9,161.9,0,0,1-28.294-3.107,17.482,17.482,0,0,1-3.113-.837,16.58,16.58,0,0,1-3.149-1.96c-3.066-2.205-6.179-4.452-8.515-7.428a25,25,0,0,1-5.043-12.376c-2.223-2.044-3.4-4.954-4.512-7.768a12,12,0,0,1-1.028-3.771c-.06-1.333.825-2.731.6-4.046a10.7,10.7,0,0,0-3.269-5.886,2.133,2.133,0,0,1-.783-1.034,1.673,1.673,0,0,1,.191-1.01,7.778,7.778,0,0,1,5.378-4.034,23.14,23.14,0,0,1,6.92-.275,17.8,17.8,0,0,1,2.265.6l1.613,4.249a5.51,5.51,0,0,0,1.058,1.936,10.463,10.463,0,0,0,1.141.9,6.573,6.573,0,0,1,2.271,5.725,6.149,6.149,0,0,1,3.639,7.589,7.254,7.254,0,0,1,5.318,4.685,3.515,3.515,0,0,0,.693,1.458,2.844,2.844,0,0,0,1.858.6c1.793.114,3.412,1.548,5.067.771a10.272,10.272,0,0,1,5.993-.843,4.439,4.439,0,0,0,1.285.114,3.489,3.489,0,0,0,1.052-.365,8.635,8.635,0,0,1,2.39-.944,2.235,2.235,0,0,1,2.265.878c.6-.633.926-1.446,1.452-2.121a2.319,2.319,0,0,1,2.2-1.052c-.55-.49,0-1.464.723-1.643a9.068,9.068,0,0,1,2.2.084c1.906,0,3.37-1.745,5.223-2.2,1.7-.412,3.974.084,4.846-1.44.311-.538.371-1.267.9-1.6a1.715,1.715,0,0,1,1.147-.137,11.311,11.311,0,0,1,3.484,1.058c1.793,6.985.849,14.24-.514,21.321A18.9,18.9,0,0,1,767.945,371.022Z" transform="translate(-290.711 -148.676)" fill="#6c63ff"/>
    <path id="Контур_63" data-name="Контур 63" d="M812.6,444l8.88,17.927c-.962-1.655-2.988-2.3-4.583-3.358a12.143,12.143,0,0,1-4.38-5.886,36.135,36.135,0,0,1-1.709-7.278c-.179-1.135-.556-2.731,0-3.759C811.837,441.859,812.172,443.162,812.6,444Z" transform="translate(-335.442 -196.641)" opacity="0.1"/>
    <path id="Контур_64" data-name="Контур 64" d="M854.265,468.662c2,1.984,4.458,3.442,6.663,5.2,5.151,4.1,8.82,9.728,12.405,15.25a24.134,24.134,0,0,1,2.534,4.649c-.418.365-1.046,0-1.458-.376l-6.979-6.131a15.74,15.74,0,0,1-2.325-2.354c-1.2-1.625-1.745-3.663-2.844-5.378a21.18,21.18,0,0,0-4.237-4.32c-1.536-1.333-8.964-7.6-7.171-10.009C852.15,465.835,853.219,467.628,854.265,468.662Z" transform="translate(-351.756 -206.119)" opacity="0.1"/>
    <path id="Контур_65" data-name="Контур 65" d="M828.568,338.339a20.867,20.867,0,0,1,7.38-2.432,15.536,15.536,0,0,1,4.7-.335c1.452.179,2.844.741,4.308.819,2.05.12,4.016-.717,5.976-1.255s4.273-.753,5.94.448a2.574,2.574,0,0,0,1.291.687,2.246,2.246,0,0,0,1.333-.657,7.613,7.613,0,0,1,9.483.5c3.783,3.544,3.358,10.469,7.768,13.146,1.225.741,2.785,1.135,3.5,2.39a8.313,8.313,0,0,0,.6,1.141,3.07,3.07,0,0,0,1.064.759,20.869,20.869,0,0,1,3.657,2.1,5.235,5.235,0,0,1,2.1,3.526,6.572,6.572,0,0,1-.651,2.988,27.8,27.8,0,0,1-27.022,17.282,4.291,4.291,0,0,1-2.832-.884,5.33,5.33,0,0,1-.992-1.631c-2.079-4.368-5.976-7.6-8.479-11.748-1.482-2.474-2.432-5.241-3.974-7.679-2.295-3.7-5.85-6.46-9.316-9.083-1.96-1.494-4.141-3.059-6.609-2.958-2.193.1-3.794.215-2.988-2.48a8.611,8.611,0,0,1,3.771-4.643Z" transform="translate(-341.37 -153.383)" fill="#6c63ff"/>
    <path id="Контур_66" data-name="Контур 66" d="M828.568,338.339a20.867,20.867,0,0,1,7.38-2.432,15.536,15.536,0,0,1,4.7-.335c1.452.179,2.844.741,4.308.819,2.05.12,4.016-.717,5.976-1.255s4.273-.753,5.94.448a2.574,2.574,0,0,0,1.291.687,2.246,2.246,0,0,0,1.333-.657,7.613,7.613,0,0,1,9.483.5c3.783,3.544,3.358,10.469,7.768,13.146,1.225.741,2.785,1.135,3.5,2.39a8.313,8.313,0,0,0,.6,1.141,3.07,3.07,0,0,0,1.064.759,20.869,20.869,0,0,1,3.657,2.1,5.235,5.235,0,0,1,2.1,3.526,6.572,6.572,0,0,1-.651,2.988,27.8,27.8,0,0,1-27.022,17.282,4.291,4.291,0,0,1-2.832-.884,5.33,5.33,0,0,1-.992-1.631c-2.079-4.368-5.976-7.6-8.479-11.748-1.482-2.474-2.432-5.241-3.974-7.679-2.295-3.7-5.85-6.46-9.316-9.083-1.96-1.494-4.141-3.059-6.609-2.958-2.193.1-3.794.215-2.988-2.48a8.611,8.611,0,0,1,3.771-4.643Z" transform="translate(-341.37 -153.383)" opacity="0.05"/>
    <path id="Контур_67" data-name="Контур 67" d="M812.158,830.249a11.56,11.56,0,0,0,5.539,2.438,100.843,100.843,0,0,0,13.8,1.7l4.506.347c4.4.329,8.8.669,13.218.687a90.936,90.936,0,0,0,16.254-1.4,1.375,1.375,0,0,0,1.488-1.649,78.545,78.545,0,0,0-2-16.319c-.514-2.2-4.458,2.731-4.631,2.94a4.563,4.563,0,0,1-3.585,1.9c-4.535.251-9.621-2.51-13.224-4.96a16.534,16.534,0,0,0-2.45-1.518,7.06,7.06,0,0,0-1.978-.6,11.981,11.981,0,0,0-6.752,1.368c-2.707,1.344-5.085,3.275-7.768,4.655a21.674,21.674,0,0,1-6.962,2.2c-2.456.341-5.378.5-6.651,2.629C809.917,826.455,810.67,828.845,812.158,830.249Z" transform="translate(-335.613 -346.455)" fill="#3f3d56"/>
    <path id="Контур_68" data-name="Контур 68" d="M811.948,831.112a11.56,11.56,0,0,0,5.539,2.438,100.831,100.831,0,0,0,13.8,1.7l4.506.347c4.4.329,8.8.669,13.218.687a90.938,90.938,0,0,0,16.254-1.4,1.793,1.793,0,0,0,1.291-.6,7.4,7.4,0,0,0,1-1.841c-.09-5.492-1.578-10.971-2.809-16.319-.514-2.2-4.458,2.731-4.631,2.94a4.563,4.563,0,0,1-3.585,1.9c-4.535.251-9.621-2.51-13.224-4.96a16.524,16.524,0,0,0-2.45-1.518,7.06,7.06,0,0,0-1.978-.6c.6,3.263,5.265,7.207,7.679,8.408,4.888,2.426,10.7,1.2,16.134,1.5a2.216,2.216,0,0,1,1.141.281c.657.43.693,1.357.675,2.139-.048,1.3-.215,2.827-1.339,3.49a3.812,3.812,0,0,1-1.793.377,255.482,255.482,0,0,1-40.276-1.41,22.262,22.262,0,0,1-6.573-1.458,16.821,16.821,0,0,1-3.806-2.45C809.026,826.122,810.46,829.719,811.948,831.112Z" transform="translate(-335.406 -346.505)" fill="#e8eaf2"/>
    <path id="Контур_69" data-name="Контур 69" d="M827.8,278.274c.078,2.133-1.374,6.268,2.611,5.115,2.39-.693,3.047-3.508,6.065-2.88s3.711,4.344,4.733,6.776a12.961,12.961,0,0,0,9.394,7.6,5.647,5.647,0,0,0,2.587,0c1.948-.556,3.059-2.564,3.854-4.422a35.357,35.357,0,0,0,1.7-4.852,20.652,20.652,0,0,0,.6-3.585h0a16.124,16.124,0,0,0,0-2.462c-.364-4.846-3.119-9.268-6.657-12.615s-7.822-5.755-12.059-8.139a17.558,17.558,0,0,0-4.452-1.984,14.9,14.9,0,0,0-4.7-.191,16.206,16.206,0,0,0-5.976,1.4,8.453,8.453,0,0,0-2.1,1.476,6.3,6.3,0,0,0-1.793,3.042c-.765,3.137,1.231,5.976,2.856,8.432C825.9,273.195,827.69,275.531,827.8,278.274Z" transform="translate(-339.983 -122.114)" fill="#3f3d56"/>
    <path id="Контур_70" data-name="Контур 70" d="M719.77,362.689c.854-2.145,4.44-8.085,3.4-10.129a27.009,27.009,0,0,0-2.725,4.87C719.77,359.091,720.32,361.32,719.77,362.689Z" transform="translate(-298.6 -160.773)" opacity="0.1"/>
    <path id="Контур_71" data-name="Контур 71" d="M824.309,272.723c-1.625-2.48-3.627-5.3-2.862-8.432a6.64,6.64,0,0,1,2.319-3.472,5.771,5.771,0,0,0-.6,1.464c-.765,3.131,1.237,5.976,2.862,8.432,1.44,2.2,3.227,4.535,3.334,7.278.078,2.127-1.38,6.268,2.611,5.115,2.39-.687,3.048-3.508,6.065-2.874s3.7,4.338,4.727,6.77a12.985,12.985,0,0,0,9.418,7.6,5.647,5.647,0,0,0,2.587,0,3.864,3.864,0,0,0,1.2-.6,5.247,5.247,0,0,1-2.952,2.605,5.647,5.647,0,0,1-2.587,0,12.985,12.985,0,0,1-9.382-7.6c-1.022-2.432-1.685-6.137-4.727-6.776s-3.687,2.193-6.065,2.88c-3.992,1.153-2.534-2.988-2.611-5.115C827.542,277.259,825.749,274.922,824.309,272.723Z" transform="translate(-339.905 -123.842)" opacity="0.1"/>
    <path id="Контур_72" data-name="Контур 72" d="M823.983,266.759a18.611,18.611,0,0,0,1.2,1.745A21.382,21.382,0,0,0,828,271.426a22.092,22.092,0,0,0,1.906,1.494,30.607,30.607,0,0,0,3.848,2.3,70.681,70.681,0,0,0,12.322,4.41l8.234,2.39c1.01.765,2.862,2.145,4.906,3.585a20.646,20.646,0,0,0,.6-3.585h0a16.155,16.155,0,0,0,0-2.462c-.365-4.846-3.119-9.268-6.657-12.615s-7.822-5.755-12.059-8.139a17.558,17.558,0,0,0-4.452-1.984,14.9,14.9,0,0,0-4.7-.191,16.206,16.206,0,0,0-5.976,1.4,8.457,8.457,0,0,0-2.1,1.476,7.857,7.857,0,0,0-1.058,2.235A6.594,6.594,0,0,0,823.983,266.759Z" transform="translate(-340.478 -122.113)" opacity="0.1"/>
    <path id="Контур_73" data-name="Контур 73" d="M823.994,263.2a18.612,18.612,0,0,0,1.2,1.745,21.372,21.372,0,0,0,2.82,2.922,22.087,22.087,0,0,0,1.906,1.494,30.6,30.6,0,0,0,3.848,2.3,71.191,71.191,0,0,0,12.322,4.416l8.234,2.39c2.874,2.175,12.489,9.3,14.108,8.408,1.906-1.046-8.533-8.438-8.533-8.438l-.484.365c1.53-.962,2.33-3.191,2.677-5.115a25.923,25.923,0,0,0,.078-10.439A12.384,12.384,0,0,0,856.191,255c-1.386-.711-3.065-1.2-4.063-2.289a2.926,2.926,0,0,1-.394-.532,2.574,2.574,0,0,1-.155-.281,3.667,3.667,0,0,0-.436-.849c-.6-.663-1.614-.466-2.48-.359l-.275.03h-.466c-3.1.072-6.1-1.655-9.226-1.655-3.436,0-6.352,1.984-9.376,3.34-.6.275-1.2.526-1.733.783-2.181,1.016-3.824,2.1-4.727,4.99C822.357,259.886,823.074,261.7,823.994,263.2Z" transform="translate(-340.527 -119.111)" fill="#6c63ff"/>
    <path id="Контур_74" data-name="Контур 74" d="M864.811,251.83a1.4,1.4,0,0,0,.323,1.793,2.563,2.563,0,0,0,1.3.466,9.448,9.448,0,0,0,1.01.078,2.779,2.779,0,0,0,1.339-.233,1.194,1.194,0,0,0,.233-.149,2.922,2.922,0,0,1-.394-.532c-.078.06-.155.048-.466,0a7.17,7.17,0,0,1-1.667-.287,1.637,1.637,0,0,1-1.2-1.2Z" transform="translate(-357.369 -120.196)" opacity="0.1"/>
    <path id="Контур_75" data-name="Контур 75" d="M881.123,298.048a3.824,3.824,0,0,1-1.422.532,5.768,5.768,0,0,1-1.105.179,6.124,6.124,0,0,1-2.7-.759Z" transform="translate(-361.949 -138.807)" opacity="0.1"/>
    <path id="Контур_76" data-name="Контур 76" d="M438.56,334.675l-.777-1.709-.311.084.813,1.7,5.856,12.34c-.125.161-1.852,2.229-1.793,4.183a2.815,2.815,0,0,0,.149.89c.3.872.669,1.225,1,1.321v-.149a3.665,3.665,0,0,1,0-.6v-.263a.588.588,0,0,1,0-.1v-.042h0a1.041,1.041,0,0,0,.03-.131h0a.13.13,0,0,1,0-.048s0-.042,0-.06l.072-.257.03-.072.036-.131c.03-.084.06-.173.1-.257a.7.7,0,0,1,.048-.12l.072-.167c.072-.167.155-.329.233-.49a4.94,4.94,0,0,1,.245-.436,10.434,10.434,0,0,1,.789-1.135Zm6.513,20.676h-.036a.74.74,0,0,1-.364,0h-.06a.761.761,0,0,1-.108-.036.842.842,0,0,1-.245-.149l-.09-.084a2.234,2.234,0,0,1-.43-.681,2.194,2.194,0,0,0-.132.7,1.117,1.117,0,0,0,.544,1.046,2.032,2.032,0,0,1,.568.562h0a.042.042,0,0,0,0-.036h0a.176.176,0,0,1,0-.054.1.1,0,0,1,0-.042,3.257,3.257,0,0,1,.257-.711c.06-.113.114-.221.179-.323a1.015,1.015,0,0,1,.078-.137l.054-.084.09-.143a1.062,1.062,0,0,1-.3.173Zm0,0h-.036a.74.74,0,0,1-.364,0h-.06a.761.761,0,0,1-.108-.036.842.842,0,0,1-.245-.149l-.09-.084a2.234,2.234,0,0,1-.43-.681,2.194,2.194,0,0,0-.132.7,1.117,1.117,0,0,0,.544,1.046,2.032,2.032,0,0,1,.568.562h0a.042.042,0,0,0,0-.036h0a.176.176,0,0,1,0-.054.1.1,0,0,1,0-.042,3.257,3.257,0,0,1,.257-.711c.06-.113.114-.221.179-.323a1.015,1.015,0,0,1,.078-.137l.054-.084.09-.143a1.062,1.062,0,0,1-.3.173Zm-6.513-20.676-.777-1.709-.311.084.813,1.7,5.856,12.34c-.125.161-1.852,2.229-1.793,4.183a2.815,2.815,0,0,0,.149.89c.3.872.669,1.225,1,1.321v-.149a3.665,3.665,0,0,1,0-.6.315.315,0,0,1,0-.078s0-.054,0-.084h0a.134.134,0,0,0,0-.048h0v-.03a.148.148,0,0,1,0-.048h0a.335.335,0,0,1,0-.072h0a.922.922,0,0,1,.03-.137.13.13,0,0,1,0-.048s0-.042,0-.06l.072-.257.03-.072.036-.131c.03-.084.06-.173.1-.257a.714.714,0,0,1,.048-.12l.072-.167c.072-.167.155-.329.233-.49a4.935,4.935,0,0,1,.245-.436,10.438,10.438,0,0,1,.789-1.135Zm6.513,20.676h-.036a.74.74,0,0,1-.364,0h-.06a.761.761,0,0,1-.108-.036.842.842,0,0,1-.245-.149l-.09-.084a2.234,2.234,0,0,1-.43-.681,2.194,2.194,0,0,0-.132.7,1.117,1.117,0,0,0,.544,1.046,2.032,2.032,0,0,1,.568.562h0a.042.042,0,0,0,0-.036h0a.176.176,0,0,1,0-.054.1.1,0,0,1,0-.042,3.257,3.257,0,0,1,.257-.711l.126-.245.054-.078a1.015,1.015,0,0,1,.078-.137l.054-.084.09-.143a1.062,1.062,0,0,1-.3.173Zm-6.513-20.676-.777-1.709-.311.084.813,1.7,5.856,12.34c-.125.161-1.852,2.229-1.793,4.183a2.815,2.815,0,0,0,.149.89c.3.872.669,1.225,1,1.321v-.149a3.665,3.665,0,0,1,0-.6.315.315,0,0,1,0-.078s0-.054,0-.084h0a.134.134,0,0,0,0-.048h0a.148.148,0,0,1,0-.048h0a.335.335,0,0,1,0-.072h0a.928.928,0,0,1,.03-.137.131.131,0,0,1,0-.048s0-.042,0-.06l.072-.257.03-.072.036-.131c.03-.084.06-.173.1-.257a.711.711,0,0,1,.048-.12l.072-.167c.072-.167.155-.329.233-.49a4.94,4.94,0,0,1,.245-.436,10.437,10.437,0,0,1,.789-1.135Zm6.513,20.676h-.036a.74.74,0,0,1-.364,0h-.06a.761.761,0,0,1-.108-.036.842.842,0,0,1-.245-.149l-.09-.084a2.234,2.234,0,0,1-.43-.681,2.194,2.194,0,0,0-.132.7,1.117,1.117,0,0,0,.544,1.046,2.032,2.032,0,0,1,.568.562h0a.042.042,0,0,0,0-.036h0a.149.149,0,0,1,0-.048.146.146,0,0,1,0-.048,3.258,3.258,0,0,1,.257-.711l.126-.245.054-.078a1.017,1.017,0,0,1,.078-.137l.054-.084.09-.143a1.063,1.063,0,0,1-.3.173Zm-6.513-20.676-.777-1.709-.311.084.813,1.7,5.856,12.34c-.125.161-1.852,2.229-1.793,4.183a2.815,2.815,0,0,0,.149.89c.3.872.669,1.225,1,1.321v-.149a3.665,3.665,0,0,1,0-.6.315.315,0,0,1,0-.078s0-.054,0-.084h0a.134.134,0,0,0,0-.048h0a.148.148,0,0,1,0-.048h0a.335.335,0,0,1,0-.072h0a.928.928,0,0,1,.03-.137.131.131,0,0,1,0-.048s0-.042,0-.06l.072-.257.03-.072.036-.131c.03-.084.06-.173.1-.257a.711.711,0,0,1,.048-.12l.072-.167c.072-.167.155-.329.233-.49a4.94,4.94,0,0,1,.245-.436,10.437,10.437,0,0,1,.789-1.135Zm6.513,20.676h-.036a.74.74,0,0,1-.364,0h-.06a.761.761,0,0,1-.108-.036.842.842,0,0,1-.245-.149l-.09-.084a2.234,2.234,0,0,1-.43-.681,2.194,2.194,0,0,0-.132.7,1.117,1.117,0,0,0,.544,1.046,2.032,2.032,0,0,1,.568.562h0a.042.042,0,0,0,0-.036h0a.149.149,0,0,1,0-.048.146.146,0,0,1,0-.048,3.258,3.258,0,0,1,.257-.711l.126-.245.054-.078a1.017,1.017,0,0,1,.078-.137l.054-.084.09-.143a1.063,1.063,0,0,1-.3.173Zm-6.513-20.676-.777-1.709-.311.084.813,1.7,5.856,12.34c-.125.161-1.852,2.229-1.793,4.183a2.815,2.815,0,0,0,.149.89c.3.872.669,1.225,1,1.321v-.149a3.665,3.665,0,0,1,0-.6.315.315,0,0,1,0-.078s0-.054,0-.084h0a.134.134,0,0,0,0-.048h0a.148.148,0,0,1,0-.048h0a.335.335,0,0,1,0-.072h0a.928.928,0,0,1,.03-.137.131.131,0,0,1,0-.048s0-.042,0-.06l.072-.257.03-.072.036-.131c.03-.084.06-.173.1-.257a.711.711,0,0,1,.048-.12l.072-.167c.072-.167.155-.329.233-.49a4.94,4.94,0,0,1,.245-.436,10.437,10.437,0,0,1,.789-1.135Zm6.513,20.676h-.036a.74.74,0,0,1-.364,0h-.06a.761.761,0,0,1-.108-.036.842.842,0,0,1-.245-.149l-.09-.084a2.234,2.234,0,0,1-.43-.681,2.194,2.194,0,0,0-.132.7,1.117,1.117,0,0,0,.544,1.046,2.032,2.032,0,0,1,.568.562h0a.042.042,0,0,0,0-.036h0a.149.149,0,0,1,0-.048.146.146,0,0,1,0-.048,3.258,3.258,0,0,1,.257-.711l.126-.245.054-.078a1.017,1.017,0,0,1,.078-.137l.054-.084.09-.143a1.063,1.063,0,0,1-.3.173Zm-6.513-20.676-.777-1.709-.311.084.813,1.7,5.856,12.34c-.125.161-1.852,2.229-1.793,4.183a2.815,2.815,0,0,0,.149.89c.3.872.669,1.225,1,1.321v-.149a3.665,3.665,0,0,1,0-.6.315.315,0,0,1,0-.078s0-.054,0-.084h0a.134.134,0,0,0,0-.048h0a.148.148,0,0,1,0-.048h0a.335.335,0,0,1,0-.072h0a.928.928,0,0,1,.03-.137.131.131,0,0,1,0-.048s0-.042,0-.06l.072-.257.03-.072.036-.131c.03-.084.06-.173.1-.257a.711.711,0,0,1,.048-.12l.072-.167c.072-.167.155-.329.233-.49a4.94,4.94,0,0,1,.245-.436,10.437,10.437,0,0,1,.789-1.135Zm6.513,20.676h-.036a.74.74,0,0,1-.364,0h-.06a.761.761,0,0,1-.108-.036.842.842,0,0,1-.245-.149l-.09-.084a2.234,2.234,0,0,1-.43-.681,2.194,2.194,0,0,0-.132.7,1.117,1.117,0,0,0,.544,1.046,2.032,2.032,0,0,1,.568.562h0a.042.042,0,0,0,0-.036h0a.149.149,0,0,1,0-.048.146.146,0,0,1,0-.048,3.258,3.258,0,0,1,.257-.711l.126-.245.054-.078a1.017,1.017,0,0,1,.078-.137l.054-.084.09-.143a1.063,1.063,0,0,1-.3.173Zm-6.513-20.676-.777-1.709-.311.084.813,1.7,5.856,12.34c-.125.161-1.852,2.229-1.793,4.183a2.815,2.815,0,0,0,.149.89c.3.872.669,1.225,1,1.321v-.149a3.665,3.665,0,0,1,0-.6.315.315,0,0,1,0-.078s0-.054,0-.084h0a.134.134,0,0,0,0-.048h0a.148.148,0,0,1,0-.048h0a.335.335,0,0,1,0-.072h0a.928.928,0,0,1,.03-.137.131.131,0,0,1,0-.048s0-.042,0-.06l.072-.257.03-.072.036-.131c.03-.084.06-.173.1-.257a.711.711,0,0,1,.048-.12l.072-.167c.072-.167.155-.329.233-.49a4.94,4.94,0,0,1,.245-.436,10.437,10.437,0,0,1,.789-1.135Zm6.513,20.676h-.036a.74.74,0,0,1-.364,0h-.06a.761.761,0,0,1-.108-.036.842.842,0,0,1-.245-.149l-.09-.084a2.234,2.234,0,0,1-.43-.681,2.194,2.194,0,0,0-.132.7,1.117,1.117,0,0,0,.544,1.046,2.032,2.032,0,0,1,.568.562h0a.042.042,0,0,0,0-.036h0a.149.149,0,0,1,0-.048.146.146,0,0,1,0-.048,3.258,3.258,0,0,1,.257-.711l.126-.245.054-.078a1.017,1.017,0,0,1,.078-.137l.054-.084.09-.143a1.063,1.063,0,0,1-.3.173Zm-6.513-20.676-.777-1.709-.311.084.813,1.7,5.856,12.34c-.125.161-1.852,2.229-1.793,4.183a2.815,2.815,0,0,0,.149.89c.3.872.669,1.225,1,1.321v-.149a3.665,3.665,0,0,1,0-.6.315.315,0,0,1,0-.078s0-.054,0-.084h0a.134.134,0,0,0,0-.048h0a.148.148,0,0,1,0-.048h0a.335.335,0,0,1,0-.072h0a.928.928,0,0,1,.03-.137.131.131,0,0,1,0-.048s0-.042,0-.06l.072-.257.03-.072.036-.131c.03-.084.06-.173.1-.257a.711.711,0,0,1,.048-.12l.072-.167c.072-.167.155-.329.233-.49a4.94,4.94,0,0,1,.245-.436,10.437,10.437,0,0,1,.789-1.135Zm6.513,20.676h-.036a.74.74,0,0,1-.364,0h-.06a.761.761,0,0,1-.108-.036.842.842,0,0,1-.245-.149l-.09-.084a2.234,2.234,0,0,1-.43-.681,2.194,2.194,0,0,0-.132.7,1.117,1.117,0,0,0,.544,1.046,2.032,2.032,0,0,1,.568.562h0a.042.042,0,0,0,0-.036h0a.149.149,0,0,1,0-.048.146.146,0,0,1,0-.048,3.258,3.258,0,0,1,.257-.711l.126-.245.054-.078a1.017,1.017,0,0,1,.078-.137l.054-.084.09-.143a1.063,1.063,0,0,1-.3.173Zm-6.513-20.676-.777-1.709-.311.084.813,1.7,5.856,12.34c-.125.161-1.852,2.229-1.793,4.183a2.815,2.815,0,0,0,.149.89c.3.872.669,1.225,1,1.321v-.149a3.665,3.665,0,0,1,0-.6.315.315,0,0,1,0-.078s0-.054,0-.084h0a.134.134,0,0,0,0-.048h0a.148.148,0,0,1,0-.048h0a.335.335,0,0,1,0-.072h0a.928.928,0,0,1,.03-.137.131.131,0,0,1,0-.048s0-.042,0-.06l.072-.257.03-.072.036-.131c.03-.084.06-.173.1-.257a.711.711,0,0,1,.048-.12l.072-.167c.072-.167.155-.329.233-.49a4.94,4.94,0,0,1,.245-.436,10.437,10.437,0,0,1,.789-1.135Zm6.513,20.676h-.036a.74.74,0,0,1-.364,0h-.06a.761.761,0,0,1-.108-.036.842.842,0,0,1-.245-.149l-.09-.084a2.234,2.234,0,0,1-.43-.681,2.194,2.194,0,0,0-.132.7,1.117,1.117,0,0,0,.544,1.046,2.032,2.032,0,0,1,.568.562h0a.042.042,0,0,0,0-.036h0a.149.149,0,0,1,0-.048.146.146,0,0,1,0-.048,3.258,3.258,0,0,1,.257-.711l.126-.245.054-.078a1.017,1.017,0,0,1,.078-.137l.054-.084.09-.143a1.063,1.063,0,0,1-.3.173Zm-6.513-20.676-.777-1.709-.311.084.813,1.7,5.856,12.34c-.125.161-1.852,2.229-1.793,4.183a2.815,2.815,0,0,0,.149.89c.3.872.669,1.225,1,1.321v-.149a3.665,3.665,0,0,1,0-.6.315.315,0,0,1,0-.078s0-.054,0-.084h0a.134.134,0,0,0,0-.048h0v-.03a.148.148,0,0,1,0-.048h0a.335.335,0,0,1,0-.072h0a.922.922,0,0,1,.03-.137.13.13,0,0,1,0-.048s0-.042,0-.06l.072-.257.03-.072.036-.131c.03-.084.06-.173.1-.257a.714.714,0,0,1,.048-.12l.072-.167c.072-.167.155-.329.233-.49a4.935,4.935,0,0,1,.245-.436,10.438,10.438,0,0,1,.789-1.135Zm6.513,20.676h-.036a.74.74,0,0,1-.364,0h-.06a.383.383,0,0,1-.108-.036.843.843,0,0,1-.245-.149l-.09-.084a2.234,2.234,0,0,1-.43-.681,2.194,2.194,0,0,0-.132.7,1.117,1.117,0,0,0,.544,1.046,2.032,2.032,0,0,1,.568.562h0a.245.245,0,0,1,0-.1.146.146,0,0,1,0-.048,3.257,3.257,0,0,1,.257-.711l.126-.245.131-.215.054-.084.09-.143a1.065,1.065,0,0,1-.3.185Zm-1.315-3.711c.03-.084.06-.173.1-.257s.03-.084.048-.12a.83.83,0,0,1,.072-.167c.072-.167.155-.329.233-.49a4.956,4.956,0,0,1,.245-.436,10.438,10.438,0,0,1,.789-1.135l-6.651-14.341-.807-1.727-.311.084.813,1.7,5.856,12.34c-.125.161-1.852,2.229-1.793,4.183a2.815,2.815,0,0,0,.149.89c.3.872.669,1.225,1,1.321v-.149a3.665,3.665,0,0,1,0-.6.367.367,0,0,1,0-.078v-.084a1.284,1.284,0,0,1,0-.149h0l.036-.179V352.1l.072-.257A1.181,1.181,0,0,0,443.759,351.64ZM533.7,267.88a5.055,5.055,0,0,0-2.844-1.823,4.267,4.267,0,0,0-3.269.753c.269-.293,1.751-1.906,2.988-3.5,1.47-1.87,2.635-3.723,1.2-3.418-2.779.6-7.912,6.806-7.912,6.806l-1.052,1.876h0l-3.048,5.444-.323.6a16.389,16.389,0,0,0-3.053.376l-.347.46a8.543,8.543,0,0,0-1.554,2.946c-.143,1.2-5.133,3.4-7.171,4.583s-3.956,5.031-3.956,5.031-6.746.6-8.653,2.39c-1.333,1.243-4.589,1.255-6.436,1.147h0l-.472-.03c-.526-.036-.854-.078-.854-.078s-1.906-2.074-3.37-2.223a14.656,14.656,0,0,0-2.785,0s-.771-.257-1.888-.6l-.311-.09c-.263-.072-.544-.149-.842-.221l-.227-.06a3.59,3.59,0,0,0,.3-.377,3.533,3.533,0,0,0,.4-.735h0a2.988,2.988,0,0,0,.185-1.566,4.505,4.505,0,0,0-.627-1.578c-.185-.293-.376-.6-.556-.878a13.786,13.786,0,0,1-1.841-5.2h0a14.139,14.139,0,0,1,1.35-8.569,20.519,20.519,0,0,1,1.2-1.99l.675-.95.424-.6.472-.663h0l.454-.639a16.776,16.776,0,0,0,1.727-3.018c.1-.209.167-.424.251-.639a.78.78,0,0,1,.066-.221c.024-.072.1-.293.132-.436s.048-.173.066-.263a3.345,3.345,0,0,0,.1-.406,1.469,1.469,0,0,1,.06-.281c.018-.09.048-.269.066-.4a1.047,1.047,0,0,1,.042-.293l.036-.4a2.223,2.223,0,0,0,0-.281h0v-1.625a1.446,1.446,0,0,0-.042-.4c-.042-.137,0-.221-.042-.335a1.341,1.341,0,0,1-.048-.341l-.072-.347a1.422,1.422,0,0,0-.066-.317l-.09-.359a1.3,1.3,0,0,0-.078-.3c-.024-.1-.078-.245-.114-.359a2.728,2.728,0,0,0-.1-.287c-.042-.12-.078-.239-.131-.359s-.072-.173-.1-.257a10.966,10.966,0,0,0-1.255-2.217l-.872-1.088h0l-.233-.293a1.28,1.28,0,0,0-.084-.155c-.054-.1-.108-.2-.155-.311-.442-.872-.8-1.793-1.165-2.707-.1-.281-.221-.556-.335-.837,0-.06-.048-.12-.066-.179-.179-.43-.365-.849-.562-1.267-.149-.311-.311-.6-.472-.92-.054-.1-.108-.185-.155-.281l-.376-.6-.185-.3-.4-.6-.179-.257c-.191-.269-.382-.532-.6-.795h0c-.209-.275-.436-.544-.651-.813l-.179-.2-.52-.6-.2-.227-.544-.6-.185-.191c-.849-.878-1.745-1.727-2.659-2.558l-.472-.424h0L467.44,232.7l-.6-.5c-.173-.155-.365-.311-.544-.46a14.94,14.94,0,0,0-4.183-2.7,13.343,13.343,0,0,0-6.179-.633,21.029,21.029,0,0,0-9.417,3.293c-.227.143-.442.3-.663.46a17.477,17.477,0,0,0-3.352,3.125c-.167.2-.323.4-.478.6s-.263.364-.394.556a34.835,34.835,0,0,0-3.34,7.111c-3.245,8.6-6.537,17.479-7,26.58a2.382,2.382,0,0,1-.03.46q-.072,1.721,0,3.46h0a.449.449,0,0,0,0,.09,4.267,4.267,0,0,0,.036.675c.215,3.43.9,6.86,1.41,10.278l-.353.125c-4.183,1.59-4.96,4.78-4.96,4.78a.073.073,0,0,1,0,.03h0a5.11,5.11,0,0,1,.06.795,11.132,11.132,0,0,1-1.56,5.521l-.263.442h0a8.29,8.29,0,0,0-1.53,4.476,2.505,2.505,0,0,0,.2.992h0v.054a.719.719,0,0,0,0,.108v.054h0a11.95,11.95,0,0,1-2.121,3.765c-1.464,1.631-5.426,17.76-5.426,17.76a3.114,3.114,0,0,1,.263,1.291h0a2.527,2.527,0,0,1-.245,1.028h0a1.847,1.847,0,0,0,.215,1.655h0a6.215,6.215,0,0,0,.956,1.291s.884-.293-.6,1.333l-.09.108h0a1.715,1.715,0,0,0,.114,2.145,5.807,5.807,0,0,0,1.309,1.3s12.017,20.706,14.509,22.928,4.984,7.989,4.984,7.989.251-.4.663-1.022c.191-.311.442-.675.7-1.07l.765,1h0L441.853,366l-.6,1.165h0a27.227,27.227,0,0,0-1.6,3.585.888.888,0,0,0-.042.329,1.3,1.3,0,0,0,.395.849c-2.988,3.92-10.1,14.82-9.561,28.241h0v.454a36,36,0,0,0,3.478,13.517,28.907,28.907,0,0,1,.3,4.057h0a1.835,1.835,0,0,1-.155.8,4.286,4.286,0,0,0,.054,1.649h0c.394,2.946,1.715,8.695,1.715,8.695v3.03c.066,5.133.173,15.208-.042,17.389-.126,1.255-.251,2.265-.353,2.988-.143,1.028-.233,1.572-.233,1.572s-.054.376-.137,1.058c0,.245-.066.526-.1.849-.49,4.04-1.619,13.846-2.289,23.036,0,.4-.06.8-.084,1.2-.341,4.9-.526,9.561-.394,12.931v.508c.036.861.1,1.631.191,2.295.3,2.151.562,4.679.777,7.3a8.139,8.139,0,0,0,.078.849c.382,4.78.663,9.8.831,13.421v.705a.655.655,0,0,0,0,.155.224.224,0,0,0,0,.066v2.432a9.344,9.344,0,0,0,.036,1.034,6.39,6.39,0,0,0,.036.759V523h0a.1.1,0,0,1,0,.042v.072l.5,4.183,2.593,21.118.789,6.651,1.685,14.383,6.035-1.141.06.657.2,2.229h0l1.685-.161c0,.215-.03.43-.042.645-.287,5-.191,10.051-.191,10.051h.066c1.846.341,3.627.6,5.378.753v5.211h2.791l-.365-4.476-.048-.544h.054a58.963,58.963,0,0,0,11.145-.394l.335-.042.448.514,4.267,4.888a67.3,67.3,0,0,0,15.686-1.2c5.516-1.2,11.276-6.627,11.479-8.671h0c.072-.669-.466-.974-1.793-.645-3.944.968-10.672,0-14.049-.6-.747-1.721-2.9-6.663-4.571-10.6l-.257-.6c2.468-1.864,4.362-4.243,4.613-5.486.161-.741-.263-1.076-1.494-.651a17.232,17.232,0,0,1-4.524.741h-.6a.757.757,0,0,0,.078-.114,9.315,9.315,0,0,0,1.267-6.041,20.563,20.563,0,0,0-.287-2.295h0v-.125a27.267,27.267,0,0,0-.717-2.94.607.607,0,0,0-.054-.185c-.113-.341-.185-.532-.185-.532s1.667-11.664,2.211-20.012a46.174,46.174,0,0,0,.1-6.5h0a.077.077,0,0,0,0-.036,3.585,3.585,0,0,0-.394-1.566,3.238,3.238,0,0,1-.5-1.2.1.1,0,0,0,0-.042c-.741-3.31.926-10.159,1.793-11.951a15.344,15.344,0,0,0,.723-1.793,28.756,28.756,0,0,0,1.631-7.26,18.441,18.441,0,0,1,.878-4.733c2.719-3.908,3.5-9.352,3.681-13.087a35.917,35.917,0,0,0,0-4.231,163.673,163.673,0,0,1,.908-18.662c.131-1.2.287-2.39.46-3.621.269-1.876.6-3.741.98-5.533,1.159-5.378.669-15.017-.239-24.189,0-.269-.054-.532-.078-.795a.225.225,0,0,1,0-.06c-.908-8.9-2.193-17.21-2.719-20.508h0c-.161-.95-.251-1.488-.251-1.488a28.174,28.174,0,0,0,1.052-6.418h0a5.843,5.843,0,0,0-.544-2.874,2.636,2.636,0,0,1-.329-.878h0a.691.691,0,0,1,0-.113,14.344,14.344,0,0,1-.119-3.34h0a11.773,11.773,0,0,1,.1-1.2v-.12l.072-.717c.054-.418.1-.831.155-1.243a5.016,5.016,0,0,0,.508-.251,3.943,3.943,0,0,0,.795-.556c2.659-2.39,2.988-8.515,2.575-14.736a.228.228,0,0,1,0-.06v-.173a118.2,118.2,0,0,0-2.39-15.537h0a1.017,1.017,0,0,0,0-.132c-.1-.323-.149-.532-.149-.532s0-4.374-.257-8.581a.29.29,0,0,1,0-.072q0-.054,0-.108c-.221-3.466-.6-6.764-1.345-7.368a4.594,4.594,0,0,1-.849-2.635v-.042a.6.6,0,0,1,0-.1,59.51,59.51,0,0,1,0-8.766,17.33,17.33,0,0,0,2.3-7.547h0a12.268,12.268,0,0,0-.042-1.44.743.743,0,0,0-.036-.281,3.71,3.71,0,0,0-.066-.46,8.31,8.31,0,0,0-.406-1.607q.753-.131,1.6-.341l.472-.12h0c7.828-2.008,20.1-7.768,22.564-8.611,3.376-1.2,4.4-6.065,4.4-6.065s.311-.263.825-.741a40.635,40.635,0,0,0,6.77-8.228h0a24.345,24.345,0,0,0,2.265-4.721h0a17.533,17.533,0,0,0,.687-2.57,8.123,8.123,0,0,0,.12-.854h0V280.2l.568-.508h0c2.629-2.39,6.418-6.179,7.428-9.029A3.075,3.075,0,0,0,533.7,267.88ZM455.865,484.544c-.048,1.368-.143,2.635-.227,3.717h0c-.185,2.133-.382,3.538-.382,3.538a2.45,2.45,0,0,0-.424.46,5.871,5.871,0,0,0-.651,1.3l-.143-3.544S454.951,487.741,455.865,484.544Zm-20.8-151c-.042-.137-.09-.269-.132-.406h0l.657-.131h0c.556-.108,1.094-.245,1.643-.4l.209.442.813,1.7,5.856,12.34c-.125.161-1.852,2.229-1.793,4.183a2.815,2.815,0,0,0,.149.89c.3.872.669,1.225,1,1.321h0a.992.992,0,0,0,.86-.2,5.013,5.013,0,0,0-.6,1.111h0a2.194,2.194,0,0,0-.132.7,1.117,1.117,0,0,0,.544,1.046,2.032,2.032,0,0,1,.568.562h0a2.581,2.581,0,0,1,.394,1.159h0v.042h0a3.107,3.107,0,0,1,0,.329v.191l-.783-.233-1.727-.514a2.115,2.115,0,0,1,.932-.669l-5.33-11.712s-1.129-5.043-2.605-10.027Zm11.951,235.822-.114-.6-.03-.179.233-.042a1.77,1.77,0,0,0,0,.185,2.7,2.7,0,0,0-.108.633ZM438.56,334.675l-.777-1.709-.311.084.813,1.7,5.856,12.34c-.125.161-1.852,2.229-1.793,4.183a2.815,2.815,0,0,0,.149.89c.3.872.669,1.225,1,1.321v-.149a3.665,3.665,0,0,1,0-.6.315.315,0,0,1,0-.078s0-.054,0-.084h0a.134.134,0,0,0,0-.048h0a.053.053,0,0,1,0-.03.149.149,0,0,1,0-.048h0a.335.335,0,0,1,0-.072h0a.532.532,0,0,0,0-.1V352.2h0v-.06l.072-.257.03-.072.036-.131c.03-.084.06-.173.1-.257s.03-.084.048-.12a.83.83,0,0,1,.072-.167c.072-.167.155-.329.233-.49a4.952,4.952,0,0,1,.245-.436,10.426,10.426,0,0,1,.789-1.135Zm6.513,20.676h-.036a.74.74,0,0,1-.364,0h-.06a.761.761,0,0,1-.108-.036.842.842,0,0,1-.245-.149l-.09-.084a2.234,2.234,0,0,1-.43-.681,2.194,2.194,0,0,0-.132.7,1.117,1.117,0,0,0,.544,1.046,2.032,2.032,0,0,1,.568.562h0a.245.245,0,0,1,0-.1.146.146,0,0,1,0-.048,3.257,3.257,0,0,1,.257-.711l.126-.245.054-.078a1.012,1.012,0,0,1,.078-.137l.054-.084.09-.143a1.065,1.065,0,0,1-.3.185Zm-6.513-20.676-.777-1.709-.311.084.813,1.7,5.856,12.34c-.125.161-1.852,2.229-1.793,4.183a2.815,2.815,0,0,0,.149.89c.3.872.669,1.225,1,1.321v-.149a3.665,3.665,0,0,1,0-.6.315.315,0,0,1,0-.078s0-.054,0-.084h0a.134.134,0,0,0,0-.048h0a.148.148,0,0,1,0-.048h0a.335.335,0,0,1,0-.072h0a.928.928,0,0,1,.03-.137.131.131,0,0,1,0-.048s0-.042,0-.06l.072-.257.03-.072.036-.131c.03-.084.06-.173.1-.257a.711.711,0,0,1,.048-.12l.072-.167c.072-.167.155-.329.233-.49a4.94,4.94,0,0,1,.245-.436,10.437,10.437,0,0,1,.789-1.135Zm6.513,20.676h-.036a.74.74,0,0,1-.364,0h-.06a.761.761,0,0,1-.108-.036.842.842,0,0,1-.245-.149l-.09-.084a2.234,2.234,0,0,1-.43-.681,2.194,2.194,0,0,0-.132.7,1.117,1.117,0,0,0,.544,1.046,2.032,2.032,0,0,1,.568.562h0a.042.042,0,0,0,0-.036h0a.149.149,0,0,1,0-.048.146.146,0,0,1,0-.048,3.258,3.258,0,0,1,.257-.711l.126-.245.054-.078a1.017,1.017,0,0,1,.078-.137l.054-.084.09-.143a1.063,1.063,0,0,1-.3.173Zm-6.513-20.676-.777-1.709-.311.084.813,1.7,5.856,12.34c-.125.161-1.852,2.229-1.793,4.183a2.815,2.815,0,0,0,.149.89c.3.872.669,1.225,1,1.321v-.149a3.665,3.665,0,0,1,0-.6.315.315,0,0,1,0-.078s0-.054,0-.084h0a.134.134,0,0,0,0-.048h0a.148.148,0,0,1,0-.048h0a.335.335,0,0,1,0-.072h0a.928.928,0,0,1,.03-.137.131.131,0,0,1,0-.048s0-.042,0-.06l.072-.257.03-.072.036-.131c.03-.084.06-.173.1-.257a.711.711,0,0,1,.048-.12l.072-.167c.072-.167.155-.329.233-.49a4.94,4.94,0,0,1,.245-.436,10.437,10.437,0,0,1,.789-1.135Zm6.513,20.676h-.036a.74.74,0,0,1-.364,0h-.06a.761.761,0,0,1-.108-.036.842.842,0,0,1-.245-.149l-.09-.084a2.234,2.234,0,0,1-.43-.681,2.194,2.194,0,0,0-.132.7,1.117,1.117,0,0,0,.544,1.046,2.032,2.032,0,0,1,.568.562h0a.042.042,0,0,0,0-.036h0a.149.149,0,0,1,0-.048.146.146,0,0,1,0-.048,3.258,3.258,0,0,1,.257-.711l.126-.245.054-.078a1.017,1.017,0,0,1,.078-.137l.054-.084.09-.143a1.063,1.063,0,0,1-.3.173Zm-6.513-20.676-.777-1.709-.311.084.813,1.7,5.856,12.34c-.125.161-1.852,2.229-1.793,4.183a2.815,2.815,0,0,0,.149.89c.3.872.669,1.225,1,1.321v-.149a3.665,3.665,0,0,1,0-.6.315.315,0,0,1,0-.078s0-.054,0-.084h0a.134.134,0,0,0,0-.048h0a.148.148,0,0,1,0-.048h0a.335.335,0,0,1,0-.072h0a.928.928,0,0,1,.03-.137.131.131,0,0,1,0-.048s0-.042,0-.06l.072-.257.03-.072.036-.131c.03-.084.06-.173.1-.257a.711.711,0,0,1,.048-.12l.072-.167c.072-.167.155-.329.233-.49a4.94,4.94,0,0,1,.245-.436,10.437,10.437,0,0,1,.789-1.135Zm6.513,20.676h-.036a.74.74,0,0,1-.364,0h-.06a.761.761,0,0,1-.108-.036.842.842,0,0,1-.245-.149l-.09-.084a2.234,2.234,0,0,1-.43-.681,2.194,2.194,0,0,0-.132.7,1.117,1.117,0,0,0,.544,1.046,2.032,2.032,0,0,1,.568.562h0a.042.042,0,0,0,0-.036h0a.149.149,0,0,1,0-.048.146.146,0,0,1,0-.048,3.258,3.258,0,0,1,.257-.711l.126-.245.054-.078a1.017,1.017,0,0,1,.078-.137l.054-.084.09-.143a1.063,1.063,0,0,1-.3.173Zm-6.513-20.676-.777-1.709-.311.084.813,1.7,5.856,12.34c-.125.161-1.852,2.229-1.793,4.183a2.815,2.815,0,0,0,.149.89c.3.872.669,1.225,1,1.321v-.149a3.665,3.665,0,0,1,0-.6.315.315,0,0,1,0-.078s0-.054,0-.084h0a.134.134,0,0,0,0-.048h0a.148.148,0,0,1,0-.048h0a.335.335,0,0,1,0-.072h0a.928.928,0,0,1,.03-.137.131.131,0,0,1,0-.048s0-.042,0-.06l.072-.257.03-.072.036-.131c.03-.084.06-.173.1-.257a.711.711,0,0,1,.048-.12l.072-.167c.072-.167.155-.329.233-.49a4.94,4.94,0,0,1,.245-.436,10.437,10.437,0,0,1,.789-1.135Zm6.513,20.676h-.036a.74.74,0,0,1-.364,0h-.06a.761.761,0,0,1-.108-.036.842.842,0,0,1-.245-.149l-.09-.084a2.234,2.234,0,0,1-.43-.681,2.194,2.194,0,0,0-.132.7,1.117,1.117,0,0,0,.544,1.046,2.032,2.032,0,0,1,.568.562h0a.042.042,0,0,0,0-.036h0a.149.149,0,0,1,0-.048.146.146,0,0,1,0-.048,3.258,3.258,0,0,1,.257-.711l.126-.245.054-.078a1.017,1.017,0,0,1,.078-.137l.054-.084.09-.143a1.063,1.063,0,0,1-.3.173Zm-6.513-20.676-.777-1.709-.311.084.813,1.7,5.856,12.34c-.125.161-1.852,2.229-1.793,4.183a2.815,2.815,0,0,0,.149.89c.3.872.669,1.225,1,1.321v-.149a3.665,3.665,0,0,1,0-.6.315.315,0,0,1,0-.078s0-.054,0-.084h0a.134.134,0,0,0,0-.048h0a.148.148,0,0,1,0-.048h0a.335.335,0,0,1,0-.072h0a.928.928,0,0,1,.03-.137.131.131,0,0,1,0-.048s0-.042,0-.06l.072-.257.03-.072.036-.131c.03-.084.06-.173.1-.257a.711.711,0,0,1,.048-.12l.072-.167c.072-.167.155-.329.233-.49a4.94,4.94,0,0,1,.245-.436,10.437,10.437,0,0,1,.789-1.135Zm6.513,20.676h-.036a.74.74,0,0,1-.364,0h-.06a.761.761,0,0,1-.108-.036.842.842,0,0,1-.245-.149l-.09-.084a2.234,2.234,0,0,1-.43-.681,2.194,2.194,0,0,0-.132.7,1.117,1.117,0,0,0,.544,1.046,2.032,2.032,0,0,1,.568.562h0a.042.042,0,0,0,0-.036h0a.149.149,0,0,1,0-.048.146.146,0,0,1,0-.048,3.258,3.258,0,0,1,.257-.711l.126-.245.054-.078a1.017,1.017,0,0,1,.078-.137l.054-.084.09-.143a1.063,1.063,0,0,1-.3.173Zm-6.513-20.676-.777-1.709-.311.084.813,1.7,5.856,12.34c-.125.161-1.852,2.229-1.793,4.183a2.815,2.815,0,0,0,.149.89c.3.872.669,1.225,1,1.321v-.149a3.665,3.665,0,0,1,0-.6.315.315,0,0,1,0-.078s0-.054,0-.084h0a.134.134,0,0,0,0-.048h0a.148.148,0,0,1,0-.048h0a.335.335,0,0,1,0-.072h0a.928.928,0,0,1,.03-.137.131.131,0,0,1,0-.048s0-.042,0-.06l.072-.257.03-.072.036-.131c.03-.084.06-.173.1-.257a.711.711,0,0,1,.048-.12l.072-.167c.072-.167.155-.329.233-.49a4.94,4.94,0,0,1,.245-.436,10.437,10.437,0,0,1,.789-1.135Zm6.513,20.676h-.036a.74.74,0,0,1-.364,0h-.06a.761.761,0,0,1-.108-.036.842.842,0,0,1-.245-.149l-.09-.084a2.234,2.234,0,0,1-.43-.681,2.194,2.194,0,0,0-.132.7,1.117,1.117,0,0,0,.544,1.046,2.032,2.032,0,0,1,.568.562h0a.042.042,0,0,0,0-.036h0a.149.149,0,0,1,0-.048.146.146,0,0,1,0-.048,3.258,3.258,0,0,1,.257-.711l.126-.245.054-.078a1.017,1.017,0,0,1,.078-.137l.054-.084.09-.143a1.063,1.063,0,0,1-.3.173Zm-6.513-20.676-.777-1.709-.311.084.813,1.7,5.856,12.34c-.125.161-1.852,2.229-1.793,4.183a2.815,2.815,0,0,0,.149.89c.3.872.669,1.225,1,1.321v-.149a3.665,3.665,0,0,1,0-.6.315.315,0,0,1,0-.078s0-.054,0-.084h0a.134.134,0,0,0,0-.048h0a.148.148,0,0,1,0-.048h0a.335.335,0,0,1,0-.072h0a.928.928,0,0,1,.03-.137.131.131,0,0,1,0-.048s0-.042,0-.06l.072-.257.03-.072.036-.131c.03-.084.06-.173.1-.257a.711.711,0,0,1,.048-.12l.072-.167c.072-.167.155-.329.233-.49a4.94,4.94,0,0,1,.245-.436,10.437,10.437,0,0,1,.789-1.135Zm6.513,20.676h-.036a.74.74,0,0,1-.364,0h-.06a.761.761,0,0,1-.108-.036.842.842,0,0,1-.245-.149l-.09-.084a2.234,2.234,0,0,1-.43-.681,2.194,2.194,0,0,0-.132.7,1.117,1.117,0,0,0,.544,1.046,2.032,2.032,0,0,1,.568.562h0a.042.042,0,0,0,0-.036h0a.149.149,0,0,1,0-.048.146.146,0,0,1,0-.048,3.258,3.258,0,0,1,.257-.711l.126-.245.054-.078a1.017,1.017,0,0,1,.078-.137l.054-.084.09-.143a1.063,1.063,0,0,1-.3.173Zm-6.513-20.676-.777-1.709-.311.084.813,1.7,5.856,12.34c-.125.161-1.852,2.229-1.793,4.183a2.815,2.815,0,0,0,.149.89c.3.872.669,1.225,1,1.321v-.149a3.665,3.665,0,0,1,0-.6.315.315,0,0,1,0-.078s0-.054,0-.084h0a.134.134,0,0,0,0-.048h0a.148.148,0,0,1,0-.048h0a.335.335,0,0,1,0-.072h0a.928.928,0,0,1,.03-.137.131.131,0,0,1,0-.048s0-.042,0-.06l.072-.257.03-.072.036-.131c.03-.084.06-.173.1-.257a.711.711,0,0,1,.048-.12l.072-.167c.072-.167.155-.329.233-.49a4.94,4.94,0,0,1,.245-.436,10.437,10.437,0,0,1,.789-1.135Zm6.513,20.676h-.036a.74.74,0,0,1-.364,0h-.06a.761.761,0,0,1-.108-.036.842.842,0,0,1-.245-.149l-.09-.084a2.234,2.234,0,0,1-.43-.681,2.194,2.194,0,0,0-.132.7,1.117,1.117,0,0,0,.544,1.046,2.032,2.032,0,0,1,.568.562h0a.042.042,0,0,0,0-.036h0a.176.176,0,0,1,0-.054.1.1,0,0,1,0-.042,3.257,3.257,0,0,1,.257-.711c.06-.113.114-.221.179-.323a1.015,1.015,0,0,1,.078-.137l.054-.084.09-.143a1.062,1.062,0,0,1-.3.173Zm-6.513-20.676-.777-1.709-.311.084.813,1.7,5.856,12.34c-.125.161-1.852,2.229-1.793,4.183a2.815,2.815,0,0,0,.149.89c.3.872.669,1.225,1,1.321v-.149a3.665,3.665,0,0,1,0-.6.315.315,0,0,1,0-.078s0-.054,0-.084h0a.134.134,0,0,0,0-.048h0v-.03a.148.148,0,0,1,0-.048h0a.335.335,0,0,1,0-.072h0a.922.922,0,0,1,.03-.137.13.13,0,0,1,0-.048s0-.042,0-.06l.072-.257.03-.072.036-.131c.03-.084.06-.173.1-.257a.714.714,0,0,1,.048-.12l.072-.167c.072-.167.155-.329.233-.49a4.935,4.935,0,0,1,.245-.436,10.438,10.438,0,0,1,.789-1.135Zm6.513,20.676h-.036a.74.74,0,0,1-.364,0h-.06a.761.761,0,0,1-.108-.036.842.842,0,0,1-.245-.149l-.09-.084a2.234,2.234,0,0,1-.43-.681,2.194,2.194,0,0,0-.132.7,1.117,1.117,0,0,0,.544,1.046,2.032,2.032,0,0,1,.568.562h0a.042.042,0,0,0,0-.036h0a.176.176,0,0,1,0-.054.1.1,0,0,1,0-.042,3.257,3.257,0,0,1,.257-.711c.06-.113.114-.221.179-.323a1.015,1.015,0,0,1,.078-.137l.054-.084.09-.143a1.062,1.062,0,0,1-.3.173Z" transform="translate(-175.891 -110.839)" fill="url(#linear-gradient-24)"/>
    <path id="Контур_77" data-name="Контур 77" d="M487.243,783.469s8.963,1.1,13.284-.394-1.339,6.424-7.213,8.3a56.1,56.1,0,0,1-12.752,2.163l-6.908-6.5-7.332.562,1.279,7.171-2.277.215-.884-9.406Z" transform="translate(-195.089 -334.029)" fill="#444053"/>
    <path id="Контур_78" data-name="Контур 78" d="M487.243,783.469s8.963,1.1,13.284-.394-1.339,6.424-7.213,8.3a56.1,56.1,0,0,1-12.752,2.163l-6.908-6.5-7.332.562,1.279,7.171-2.277.215-.884-9.406Z" transform="translate(-195.089 -334.029)" opacity="0.1"/>
    <path id="Контур_79" data-name="Контур 79" d="M505.408,811.34s10.726,2.348,16.134,1.028-2.348,7.643-9.7,9.256a69.2,69.2,0,0,1-15.728,1.2l-7.607-8.695-8.963-.149.735,8.874H477.49V811.34Z" transform="translate(-200.405 -345.479)" fill="#444053"/>
    <path id="Контур_80" data-name="Контур 80" d="M505.408,811.34s10.726,2.348,16.134,1.028-2.348,7.643-9.7,9.256a69.2,69.2,0,0,1-15.728,1.2l-7.607-8.695-8.963-.149.735,8.874H477.49V811.34Z" transform="translate(-200.405 -345.479)" opacity="0.1"/>
    <path id="Контур_81" data-name="Контур 81" d="M450.489,469.75s-18.369,20.425-7.35,43.5c0,0,.6,4.117.149,4.852s1.763,10.284,1.763,10.284.3,17.329,0,20.281-.6,4.553-.6,4.553-4.105,32.011-2.785,41.572,1.912,26.6,1.912,26.6l5.438,45.851,28.217-5.288-12.788-62.9-.442-11.168s5.294-13.666,2.94-20.574.6-94.935.6-94.935Z" transform="translate(-185.015 -208.01)" fill="#303d5c"/>
    <path id="Контур_82" data-name="Контур 82" d="M450.489,469.75s-18.369,20.425-7.35,43.5c0,0,.6,4.117.149,4.852s1.763,10.284,1.763,10.284.3,17.329,0,20.281-.6,4.553-.6,4.553-4.105,32.011-2.785,41.572,1.912,26.6,1.912,26.6l5.438,45.851,28.217-5.288-12.788-62.9-.442-11.168s5.294-13.666,2.94-20.574.6-94.935.6-94.935Z" transform="translate(-185.015 -208.01)" opacity="0.05"/>
    <path id="Контур_83" data-name="Контур 83" d="M468.461,569.02c3.233,6.173,1.2,21.16,1.2,21.16-4.261,3.675-1.912,35.71-1.912,35.71s-2.94,31.6-4.846,35.256-1.619,18.811-1.619,18.811c21.6,3.968,35.71-4.553,35.71-4.553s-6.908-15.728-7.051-16.457c-.084-.412-1,.705-1.273,1.028.143-.2.52-.711,1.273-1.793,2.94-4.117,0-12.053,0-12.053s3.675-25.57,1.912-27.924.293-11.019,1.321-13.075a28.957,28.957,0,0,0,2.348-8.963,18.092,18.092,0,0,1,.884-4.7c4.553-6.472,3.675-17.2,3.675-17.2s-.293-15.429,2.348-27.625-3.3-46.735-3.3-46.735,1.978-6.758.508-9.256c-.663-1.123-.6-3.771-.287-6.334.359-3.137,1.022-6.155,1.022-6.155l-40.09-7.117c-.843,1.4-1.613,2.767-2.324,4.075-13.26,24.5-4.32,33.607-4.32,33.607l8.509,26.227S465.216,562.853,468.461,569.02Z" transform="translate(-189.542 -208.533)" fill="#303d5c"/>
    <path id="Контур_84" data-name="Контур 84" d="M586.92,302.667l5.731,4.864s1.123-.9,2.629-2.241c3.585-3.239,9.394-9.1,7.219-11.587-2.988-3.394-5.976-1.2-6.161-1.04.323-.341,6.974-7.47,4.249-6.9s-7.936,6.764-7.936,6.764l-4.117,7.272Z" transform="translate(-244.737 -133.871)" fill="#efb7b9"/>
    <path id="Контур_85" data-name="Контур 85" d="M444.341,415.35l6.758,2.056-5.139,8.963-5.88-7.643Z" transform="translate(-178.555 -167.215)" fill="#efb7b9"/>
    <circle id="Эллипс_12" data-name="Эллипс 12" cx="19.253" cy="19.253" r="19.253" transform="translate(262.338 125.448)" fill="#efb7b9"/>
    <path id="Контур_86" data-name="Контур 86" d="M478.362,281.819s-17.491,27.757-.884,30.147-22.337,19.253-22.337,19.253L440.59,316.525s15.136-26.161,12.788-36.152S478.362,281.819,478.362,281.819Z" transform="translate(-185.416 -130.067)" fill="#efb7b9"/>
    <path id="Контур_87" data-name="Контур 87" d="M462.82,475.2a91,91,0,0,0,11.85,2.743s21.656,9.615,29.543,6.454c.359-3.137,1.022-6.155,1.022-6.155l-40.09-7.117C464.3,472.524,463.525,473.887,462.82,475.2Z" transform="translate(-194.443 -208.505)" opacity="0.1"/>
    <path id="Контур_88" data-name="Контур 88" d="M429.382,344.345l3.914,8.1,4.422,9.119.6,1.3,5.241,11.354,6.663,14.389s-2.354,2.791-1.619,5c.687,2.062,1.763,1.165,1.9,1.04-.125.173-1.548,2.086-.281,2.928s.878,2.791.878,2.791-5.438,8.963-6.466,12.2,16.463,6.029,16.463,6.029,24.835,11.019,31.008,5.581,0-31.008,0-31.008,0-14.694-1.619-16.015-.848-11.509-.848-11.509c4.261-7.768,1.321-12.2,1.321-12.2l1.2-19.982s-1.912-2.062-3.382-2.205a14.7,14.7,0,0,0-2.791,0s-.777-.263-1.894-.6c-2.354-.669-6.262-1.6-7.661-.9-2.056,1.028-15.28-1.619-15.28-1.619a161.76,161.76,0,0,0-17.2-1.613,17.018,17.018,0,0,0-5.832.633c-4.78,1.476-5.629,4.948-5.629,4.948s.6,2.94-1.763,6.758S429.382,344.345,429.382,344.345Z" transform="translate(-180.834 -150.287)" fill="#6c63ff"/>
    <path id="Контур_89" data-name="Контур 89" d="M586.92,312.132,592.651,317s1.123-.9,2.629-2.241c.454-4.96-3.771-5.617-6.746-5.486Z" transform="translate(-244.716 -143.339)" opacity="0.1"/>
    <path id="Контур_90" data-name="Контур 90" d="M528.016,326.788l2.5.149s5.874.729,7.768-1.034,8.671-2.348,8.671-2.348,1.912-3.824,3.968-5,7.057-3.382,7.171-4.559S560,310.624,560,310.624s11.019-2.647,9.406,6.023-10.535,16.158-10.535,16.158-1.028,4.852-4.41,6.029-25.277,11.461-28.8,8.814S528.016,326.788,528.016,326.788Z" transform="translate(-219.499 -143.739)" fill="#6c63ff"/>
    <path id="Контур_91" data-name="Контур 91" d="M430.709,338.928c2.348-3.818,1.763-6.758,1.763-6.758s.849-3.472,5.629-4.948a14.538,14.538,0,0,1,2.862-.562c-4.709,1.494-5.551,4.924-5.551,4.924s.6,2.94-1.763,6.758-1.327,5.438-1.327,5.438l3.92,8.1,4.416,9.113.633,1.309,5.241,11.324,6.663,14.389s-2.354,2.8-1.619,5c.687,2.062,1.763,1.159,1.9,1.04-.125.167-1.548,2.085-.281,2.928s.878,2.791.878,2.791-5.438,8.963-6.466,12.2,16.463,6.023,16.463,6.023,17.246,7.655,26.568,7.057c-7.924,3.107-29.508-6.466-29.508-6.466s-17.491-2.8-16.463-6.029,6.466-12.19,6.466-12.19.442-1.912-.878-2.791.155-2.755.281-2.928c-.137.125-1.2,1.022-1.9-1.04-.735-2.2,1.619-5,1.619-5l-6.663-14.4-5.241-11.354-.6-1.3-4.422-9.119-3.914-8.1S428.355,342.752,430.709,338.928Z" transform="translate(-180.831 -150.356)" opacity="0.1"/>
    <path id="Контур_92" data-name="Контур 92" d="M426.992,352.68l-2.641,2.205a12.138,12.138,0,0,1-2.205,3.968c-1.47,1.619-5.438,17.634-5.438,17.634a2.856,2.856,0,0,1,0,2.354c-.6,1.2,1.2,2.94,1.2,2.94s.878-.293-.6,1.321,1.327,3.538,1.327,3.538,12.047,20.562,14.545,22.767,5,7.936,5,7.936,5.235-8.21,6.466-8.366l-5.139-11.6s-3.532-16.17-6.173-19.122,1.321-13.087,1.321-13.087Z" transform="translate(-175.647 -160.827)" fill="#6c63ff"/>
    <path id="Контур_93" data-name="Контур 93" d="M429.86,372.14c2.211,2.653,6.089,3.215,9.519,2.826.5-.06,1.01-.137,1.506-.233a21.931,21.931,0,0,0,2.229-.52,23.233,23.233,0,0,0,7.3-3.585,5.019,5.019,0,0,1,1.637-.944c1.374-.347,2.737.675,3.484,1.87s1.1,2.605,1.864,3.789c1.506,2.348,4.422,3.478,7.219,3.544a25.731,25.731,0,0,0,8.175-1.6c-2.157-2.653-4.368-5.414-5.247-8.718a20.646,20.646,0,0,1-.412-6.573c.633-10.4,4.243-21.357,12.722-27.416,1.47-1.046,3.245-2.283,3.735-3.872-2.354-.669-6.262-1.6-7.661-.9-2.056,1.028-15.28-1.619-15.28-1.619a161.753,161.753,0,0,0-17.2-1.613,17.017,17.017,0,0,0-5.832.633c.723,4.416,1.35,8.808.484,13.146a29.443,29.443,0,0,1-2.91,7.738c-.753,1.464-1.566,2.9-2.39,4.35-2.235,4.022-4.368,8.055-4.781,12.549A10.043,10.043,0,0,0,429.86,372.14Z" transform="translate(-180.334 -150.302)" opacity="0.1"/>
    <path id="Контур_94" data-name="Контур 94" d="M475.7,437.075a10.38,10.38,0,0,0-3.442-.3,6.334,6.334,0,0,0-2.575,1.5l7.553.042c1.942,0,4.87.119,6.358-1.255C482.229,435.712,477.639,437.326,475.7,437.075Z" transform="translate(-197.162 -194.572)" opacity="0.1"/>
    <path id="Контур_95" data-name="Контур 95" d="M484.728,255.2a11.408,11.408,0,0,1,1.309,11.067c-1.2,2.838-3.544,5.061-4.972,7.8a14.055,14.055,0,0,0,.478,13.612,6.873,6.873,0,0,1,1.2,2.444c.341,2.241-1.978,3.848-3.824,5.169-8.485,6.047-12.089,17.013-12.722,27.416a20.616,20.616,0,0,0,.406,6.573c.878,3.3,3.1,6.065,5.253,8.718a25.735,25.735,0,0,1-8.181,1.6c-2.8-.066-5.707-1.2-7.219-3.544-.765-1.2-1.123-2.593-1.864-3.789s-2.109-2.211-3.472-1.87a4.851,4.851,0,0,0-1.643.938,23.251,23.251,0,0,1-11.043,4.344c-3.43.394-7.308-.173-9.513-2.826a9.747,9.747,0,0,1-1.793-7.105c.765-8.9,8.3-15.9,10.045-24.655,1.41-7.1-1.147-14.341-1.613-21.548-.7-10.678,3.179-21.07,7-31.073a32.981,32.981,0,0,1,3.346-7.063,19.764,19.764,0,0,1,14.342-8.055,13.428,13.428,0,0,1,6.2.6,18.81,18.81,0,0,1,5.312,3.639c3.645,3.161,7.392,6.454,9.489,10.8.855,1.793,1.416,3.687,2.39,5.414Z" transform="translate(-179.97 -112.738)" fill="#3f3d56"/>
    <g id="Сгруппировать_17" data-name="Сгруппировать 17" transform="translate(248.201 128.55)" opacity="0.1">
      <path id="Контур_96" data-name="Контур 96" d="M514.1,256.729c-.956-1.727-1.512-3.639-2.39-5.414a21.7,21.7,0,0,0-3.048-4.6,25.8,25.8,0,0,1,5.378,7.105c.831,1.721,1.386,3.585,2.289,5.265l-1.159-.98a9.777,9.777,0,0,1,.813,1.273,13.144,13.144,0,0,1-1.882-2.653Z" transform="translate(-461.01 -246.72)"/>
      <path id="Контур_97" data-name="Контур 97" d="M436.808,396.82a23.156,23.156,0,0,0,11.043-4.338,4.972,4.972,0,0,1,1.643-.938c1.368-.347,2.731.675,3.478,1.87.155.251.293.52.424.789a2.391,2.391,0,0,0-1.548-.149,4.852,4.852,0,0,0-1.643.938,23.251,23.251,0,0,1-11.043,4.344c-3.43.394-7.308-.173-9.513-2.826a7.408,7.408,0,0,1-.729-1.094A12.256,12.256,0,0,0,436.808,396.82Z" transform="translate(-428.92 -304.975)"/>
      <path id="Контур_98" data-name="Контур 98" d="M480.9,351.017a25.763,25.763,0,0,0,8.175-1.6c-2.157-2.653-4.368-5.414-5.247-8.718a20.623,20.623,0,0,1-.412-6.573c.633-10.4,4.243-21.369,12.728-27.416,1.846-1.321,4.183-2.928,3.824-5.175a7,7,0,0,0-1.2-2.438,14.055,14.055,0,0,1-.484-13.612c1.434-2.737,3.765-4.96,4.978-7.8a11.449,11.449,0,0,0-.5-9.788,13.707,13.707,0,0,0,1.291,1.2,13.139,13.139,0,0,0,1.064,1.3,11.443,11.443,0,0,1,.5,9.794c-1.2,2.838-3.544,5.061-4.972,7.8a14.055,14.055,0,0,0,.478,13.612,6.872,6.872,0,0,1,1.2,2.444c.341,2.241-1.978,3.848-3.824,5.169-8.485,6.047-12.089,17.013-12.722,27.416a20.616,20.616,0,0,0,.406,6.573c.878,3.3,3.1,6.065,5.253,8.718a25.734,25.734,0,0,1-8.181,1.6c-2.8-.066-5.707-1.2-7.219-3.544-.1-.155-.191-.317-.281-.478A10.021,10.021,0,0,0,480.9,351.017Z" transform="translate(-447.766 -255.24)"/>
    </g>
    <path id="Контур_99" data-name="Контур 99" d="M299.676,179.57v12.549H245.19q2.492-3.454,5.091-6.812c.239-.311.478-.6.729-.926l2.552-3.209h0l.353-.436h0l.926-1.129Z" transform="translate(-106.124 -91.129)" fill="#6c63ff" opacity="0.2"/>
    <rect id="Прямоугольник_81" data-name="Прямоугольник 81" width="57.252" height="12.537" transform="translate(248.382 88.441)" fill="#6c63ff" opacity="0.2"/>
    <rect id="Прямоугольник_82" data-name="Прямоугольник 82" width="57.252" height="12.537" transform="translate(379.099 88.441)" fill="#6c63ff" opacity="0.2"/>
    <rect id="Прямоугольник_83" data-name="Прямоугольник 83" width="57.252" height="12.537" transform="translate(489.654 88.441)" fill="#6c63ff" opacity="0.2"/>
    <text id="Sign_up_to_get_more_features" data-name="Sign up to get 
more features" transform="translate(-64.431 -15.817)" fill="#2f2e41" font-size="65" font-family="Montserrat-Bold, Montserrat" font-weight="700"><tspan x="0" y="0">Sign up to get </tspan><tspan x="0" y="79">more features</tspan></text>
  </g>
</svg>
