<svg xmlns="http://www.w3.org/2000/svg" xmlns:xlink="http://www.w3.org/1999/xlink" viewBox="0 0 1620 713"><defs><style>.cls-1{fill:url(#linear-gradient);}.cls-2{fill:url(#New_Gradient_Swatch_1);}.cls-3{fill:url(#linear-gradient-2);}.cls-4{fill:url(#linear-gradient-3);}.cls-5{fill:#2f2e44;}.cls-6{fill:#fff;opacity:0.97;}.cls-7{fill:#4d4d66;}.cls-8{fill:#6c63ff;}.cls-9{fill:#e6e6e6;}.cls-10{fill:#ff6584;}.cls-11{fill:#ccc;}.cls-12{fill:#ffb8b8;}.cls-13{fill:#262633;}.cls-14{fill:#a0616a;}</style><linearGradient id="linear-gradient" x1="1615.62" y1="356.5" x2="15.96" y2="356.5" gradientUnits="userSpaceOnUse"><stop offset="0" stop-color="#fff"/><stop offset="1" stop-color="#e6e6f2"/></linearGradient><linearGradient id="New_Gradient_Swatch_1" x1="986.99" y1="356.5" x2="2292.42" y2="356.5" gradientTransform="matrix(-1, 0, 0, 1, 2292.76, 0)" gradientUnits="userSpaceOnUse"><stop offset="0" stop-color="#3a3a4d"/><stop offset="1" stop-color="#2a2a3b"/></linearGradient><linearGradient id="linear-gradient-2" x1="1864.63" y1="302.24" x2="2301.82" y2="739.43" gradientTransform="matrix(-1, 0, 0, 1, 2292.76, 0)" gradientUnits="userSpaceOnUse"><stop offset="0" stop-color="#ffb8b8"/><stop offset="1" stop-color="#e69191"/></linearGradient><linearGradient id="linear-gradient-3" x1="1374.92" y1="104.37" x2="1502.39" y2="232.99" xlink:href="#linear-gradient-2"/></defs><g id="Layer_4" data-name="Layer 4"><rect class="cls-1" width="1620" height="713"/><path class="cls-2" d="M584,0s-14.42,37.49,22,72c19,18,81.21,32.23,116,67,41.55,41.52,51.76,97.79,57,111,17.07,43,8.07,95.18,20,117,30.61,56,66.28,45.77,107,103,5.08,7.13,44.68,64.47,41,141,0,0-2.5,51.92-30.81,101.67L916,713H0V0Z"/><path class="cls-3" d="M0,312s56.38-7,104,0c34,5,49.85,4.57,68.76,25,23.19,25.05,5.39,49.69,27,89,13,23.72,31.05,35.72,63,57,59.44,39.6,81.57,28.47,99,56,23.58,37.26-10.66,67.56,16,101,17.66,22.16,47.28,27.15,56,59,.88,3.2,2,14,2,14H-.25Z"/><circle class="cls-4" cx="856.76" cy="166" r="71"/><path class="cls-5" d="M114.56,185.43V555.15a22,22,0,0,0,21.94,21.94H837.31a22,22,0,0,0,21.93-21.94V185.43a22,22,0,0,0-21.93-21.94H136.5A22,22,0,0,0,114.56,185.43Zm2.09,0a19.87,19.87,0,0,1,19.85-19.85H837.31a19.86,19.86,0,0,1,19.84,19.85V555.15A19.86,19.86,0,0,1,837.31,575H136.5a19.87,19.87,0,0,1-19.85-19.85Z"/><path class="cls-6" d="M116.65,185.43V555.15A19.87,19.87,0,0,0,136.5,575H837.31a19.86,19.86,0,0,0,19.84-19.85V185.43a19.86,19.86,0,0,0-19.84-19.85H136.5A19.87,19.87,0,0,0,116.65,185.43Z"/><path class="cls-7" d="M171,223.41H802.84a1,1,0,1,0,0-2.09H171a1,1,0,0,0,0,2.09Z"/><path class="cls-7" d="M624.24,532.18a1,1,0,0,0,1-1V187.52a1,1,0,1,0-2.09,0V531.13A1,1,0,0,0,624.24,532.18Z"/><path class="cls-7" d="M466.54,532.18a1,1,0,0,0,1-1V187.52a1,1,0,1,0-2.09,0V531.13A1,1,0,0,0,466.54,532.18Z"/><path class="cls-7" d="M308.83,532.18a1,1,0,0,0,1-1V187.52a1,1,0,1,0-2.09,0V531.13A1,1,0,0,0,308.83,532.18Z"/><path class="cls-8" d="M725.64,331.22h38.17a4.72,4.72,0,0,0,4.7-4.7v-45a4.71,4.71,0,0,0-4.7-4.7H725.64a4.71,4.71,0,0,0-4.7,4.7v45A4.71,4.71,0,0,0,725.64,331.22Z"/><path class="cls-8" d="M671.33,459.68H709.5a4.69,4.69,0,0,0,4.69-4.7V410a4.69,4.69,0,0,0-4.69-4.7H671.33a4.7,4.7,0,0,0-4.7,4.7v45A4.7,4.7,0,0,0,671.33,459.68Z"/><path class="cls-8" d="M548.09,358.37h38.16a4.69,4.69,0,0,0,4.7-4.7v-45a4.69,4.69,0,0,0-4.7-4.7H548.09a4.69,4.69,0,0,0-4.7,4.7v45A4.69,4.69,0,0,0,548.09,358.37Z"/><path class="cls-8" d="M388.29,309.28h38.16a4.69,4.69,0,0,0,4.7-4.7v-45a4.69,4.69,0,0,0-4.7-4.7H388.29a4.7,4.7,0,0,0-4.7,4.7v45A4.7,4.7,0,0,0,388.29,309.28Z"/><path class="cls-8" d="M241,309.28h38.16a4.7,4.7,0,0,0,4.7-4.7v-45a4.7,4.7,0,0,0-4.7-4.7H241a4.69,4.69,0,0,0-4.7,4.7v45A4.69,4.69,0,0,0,241,309.28Z"/><path class="cls-9" d="M173.14,321.82H211.3a4.71,4.71,0,0,0,4.7-4.7v-45a4.7,4.7,0,0,0-4.7-4.7H173.14a4.7,4.7,0,0,0-4.7,4.7v45A4.71,4.71,0,0,0,173.14,321.82Z"/><path class="cls-9" d="M203.43,402.24h38.16a4.71,4.71,0,0,0,4.7-4.7v-45a4.7,4.7,0,0,0-4.7-4.7H203.43a4.7,4.7,0,0,0-4.7,4.7v45A4.71,4.71,0,0,0,203.43,402.24Z"/><path class="cls-10" d="M332.94,385.53H371.1a4.71,4.71,0,0,0,4.7-4.7v-45a4.71,4.71,0,0,0-4.7-4.7H332.94a4.7,4.7,0,0,0-4.7,4.7v45A4.71,4.71,0,0,0,332.94,385.53Z"/><path class="cls-9" d="M407.09,402.24h38.16a4.71,4.71,0,0,0,4.7-4.7v-45a4.7,4.7,0,0,0-4.7-4.7H407.09a4.71,4.71,0,0,0-4.7,4.7v45A4.71,4.71,0,0,0,407.09,402.24Z"/><path class="cls-9" d="M566.89,473.26h38.16a4.7,4.7,0,0,0,4.7-4.7v-45a4.71,4.71,0,0,0-4.7-4.7H566.89a4.71,4.71,0,0,0-4.7,4.7v45A4.7,4.7,0,0,0,566.89,473.26Z"/><path class="cls-10" d="M760.11,413.73h38.16A4.71,4.71,0,0,0,803,409V364a4.7,4.7,0,0,0-4.7-4.7H760.11a4.7,4.7,0,0,0-4.7,4.7v45A4.71,4.71,0,0,0,760.11,413.73Z"/><path class="cls-9" d="M652.53,331.22H690.7a4.72,4.72,0,0,0,4.7-4.7v-45a4.71,4.71,0,0,0-4.7-4.7H652.53a4.71,4.71,0,0,0-4.7,4.7v45A4.71,4.71,0,0,0,652.53,331.22Z"/><path class="cls-11" d="M683.78,206.32h59.53a4.18,4.18,0,1,0,0-8.36H683.78a4.18,4.18,0,1,0,0,8.36Z"/><path class="cls-11" d="M515.62,206.32h59.54a4.18,4.18,0,0,0,0-8.36H515.62a4.18,4.18,0,0,0,0,8.36Z"/><path class="cls-11" d="M357.91,206.32h59.54a4.18,4.18,0,0,0,0-8.36H357.91a4.18,4.18,0,0,0,0,8.36Z"/><path class="cls-11" d="M210.65,206.32h59.53a4.18,4.18,0,1,0,0-8.36H210.65a4.18,4.18,0,1,0,0,8.36Z"/><path class="cls-12" d="M817.12,512.22a10.52,10.52,0,0,0,9.08-13.3L853,474l-14.15-3.59-26.33,21.35a10.56,10.56,0,0,0,4.63,20.46Z"/><polygon class="cls-12" points="780.15 696.42 767.34 696.42 761.25 647.03 780.15 647.03 780.15 696.42"/><path class="cls-13" d="M742.65,708.31h40.24V692.76H758.2a15.55,15.55,0,0,0-15.55,15.55Z"/><polygon class="cls-12" points="867.94 687.17 855.57 690.47 836.98 644.31 855.24 639.45 867.94 687.17"/><path class="cls-13" d="M834.76,708.31,873.65,698h0l-4-15h0l-23.86,6.35a15.55,15.55,0,0,0-11,19Z"/><path class="cls-13" d="M763.9,687.07h19.54a4.94,4.94,0,0,0,4.93-4.49l11.87-123.17a3.91,3.91,0,0,1,7.64-.75l34.44,115.1a5,5,0,0,0,5.95,3.39l18.18-4.55a5,5,0,0,0,3.61-6v0c-.3-1.16-29.67-116-29.93-117.14-6.65-49.06-14.62-62.2-18.9-69.26-.35-.59-.68-1.12-1-1.63s-2.62-6.94-4-11a5,5,0,0,0-2.55-3.1c-18-9.2-39-2.83-45-.66a4.82,4.82,0,0,0-2.44,1.89C748.13,492.85,757,651,759,682.42A5,5,0,0,0,763.9,687.07Z"/><circle class="cls-12" cx="814.32" cy="349.43" r="25.65"/><path class="cls-11" d="M817,472.48l.18-.18c.35-.34,34.53-33.82,30.11-64.78-1.9-13.25-12.61-21.71-31-24.47A28.33,28.33,0,0,0,785,403l-18.18,62.12Z"/><path class="cls-11" d="M834.53,496.29l24.36-24.2a13.73,13.73,0,0,0,3.63-12.94l-11.79-48a10.8,10.8,0,0,0-13.08-7.92l-.68.19a10.88,10.88,0,0,0-7.12,13.36L842.27,459,822.2,480.57Z"/><path class="cls-12" d="M703.9,413.7a10.51,10.51,0,0,0,13.94,5.13,10.64,10.64,0,0,0,1.61-.92L752,434.76l-1.43-14.32L721.7,402.61a10.56,10.56,0,0,0-17.8,11.09Z"/><path class="cls-11" d="M723,424.36l31.69,13.69a13.39,13.39,0,0,0,13-1.4L808,407.78a10.82,10.82,0,0,0,2.49-15.09c-.14-.2-.28-.38-.43-.57A10.87,10.87,0,0,0,795,390.49l-34.56,27.2L733,407.06Z"/><path class="cls-13" d="M810.07,357.65c-3.17-4-9.08-4.18-13.42-6.8-5.7-3.42-8-11.08-6.22-17.47s7.25-11.36,13.45-13.74,13.11-2.41,19.65-1.26c9.75,1.71,19.34,6.26,25.29,14.17s7.45,19.5,2.07,27.8c-2.48,3.81-6.3,7-7.29,11.4-1.3,5.83,2.79,11.45,7.17,15.5,5,4.63,10.71,8.5,15.08,13.71s7.29,12.33,5.29,18.83c-1.67,5.45-6.53,9.47-11.86,11.48s-11.14,2.3-16.84,2.41c-5.53.11-11.41,0-16.07-3-5-3.2-7.65-9.25-7.85-15.17s1.78-11.73,4.43-17c1.58-3.16,3.42-6.22,4.47-9.59s1.23-7.2-.45-10.3c-1.76-3.26-5.34-5.23-9-5.95l-.6-.1a7.73,7.73,0,0,1-6.67-8.66c0-.11,0-.23,0-.35C811.19,361.22,811.15,359,810.07,357.65Z"/><polygon class="cls-14" points="468.05 697.51 480.85 697.51 486.94 648.12 468.05 648.12 468.05 697.51"/><path class="cls-13" d="M490,693.85H465.3V709.4h40.25A15.55,15.55,0,0,0,490,693.85Z"/><polygon class="cls-14" points="375.14 683.01 386.79 688.33 412.85 645.93 395.66 638.08 375.14 683.01"/><path class="cls-13" d="M396.63,688.8l-22.47-10.26h0l-6.46,14.14h0l36.61,16.72h0A15.54,15.54,0,0,0,396.63,688.8Z"/><path class="cls-14" d="M412.43,531a10.49,10.49,0,0,1-2.08-14.7,10.18,10.18,0,0,1,1.24-1.38l-15-34.15L415.66,484,427,515.92A10.56,10.56,0,0,1,412.43,531Z"/><path class="cls-13" d="M468.86,684.49H481.1a4.71,4.71,0,0,0,4.68-4.36L492.45,502a4.69,4.69,0,0,0-4.34-5,5.33,5.33,0,0,0-.8,0l-70.74,7.52a4.7,4.7,0,0,0-4.25,4.59l-1.48,78.57a3.8,3.8,0,0,1-.24,1.25l-29,75.25a4.7,4.7,0,0,0,2.69,6.08l.07,0,12.39,4.57a4.71,4.71,0,0,0,5.81-2.26l35.65-69.32a4.81,4.81,0,0,0,.42-1.19l6.09-29.34a3.65,3.65,0,0,1,7.21.32l12.28,107.29A4.7,4.7,0,0,0,468.86,684.49Z"/><circle class="cls-14" cx="462.77" cy="337.05" r="25.65"/><path class="cls-8" d="M445.18,518.28a91.59,91.59,0,0,0,49-14.83l.25-.17,0-.3L484.55,388.7A16.11,16.11,0,0,0,469.3,374c-12.72-.58-29.8.16-38.94,7-13.82,10.29-20.48,25.79-18.28,42.52,4.58,34.69-.6,81.49-1.21,86.72l0,.37.34.16A80.56,80.56,0,0,0,445.18,518.28Z"/><path class="cls-8" d="M411,510.41a5.21,5.21,0,0,0,3.84-1.7l5.61-6.12a5.22,5.22,0,0,0,1.16-5l-12.79-43.3,19.47-40.88a9.21,9.21,0,0,0-10.5-12.9,9.17,9.17,0,0,0-5.91,4.58l-26.42,42.86a12.49,12.49,0,0,0-.75,11.7l21.52,47.69a5.18,5.18,0,0,0,3.94,3A4.57,4.57,0,0,0,411,510.41Z"/><path class="cls-14" d="M591.8,427.68a10.49,10.49,0,0,1-14.69-2.15,10.31,10.31,0,0,1-1-1.58l-37,4.8,8.5-17.43,33.84-1.89a10.56,10.56,0,0,1,10.33,18.25Z"/><path class="cls-8" d="M510.22,437.2a13.8,13.8,0,0,0,1.93-.13L570.38,429a5.75,5.75,0,0,0,4.43-3.24,5.41,5.41,0,0,0,.34-.87h0a5.87,5.87,0,0,0-.6-4.63l-4.82-8a5.84,5.84,0,0,0-5-2.8h0l-50.75.05-37.91-34a10.28,10.28,0,0,0-14.08,15l37.83,42.06A13.93,13.93,0,0,0,510.22,437.2Z"/><path class="cls-13" d="M459.86,359.88c-2.35-5.43-4.33-12.66.16-16.49,2.61-2.23,6.37-2.23,9.79-2.51,9.62-.78,19.53-5.21,24.24-13.64s2.08-21-6.8-24.78c-6-2.57-12.85-.82-19.11,1l-18.8,5.33c-5.59,1.58-11.46,3.33-15.48,7.52-6.42,6.68-5.94,18-.84,25.71s12.77,15.8,21.55,18.74Z"/></g></svg>