<svg xmlns="http://www.w3.org/2000/svg" xmlns:xlink="http://www.w3.org/1999/xlink" viewBox="0 0 1620 713"><defs><style>.cls-1{fill:url(#linear-gradient);}.cls-2{fill:url(#New_Gradient_Swatch_1);}.cls-3{fill:url(#linear-gradient-2);}.cls-4{fill:#e6e6e6;}.cls-5{fill:#fff;}.cls-6{fill:#6c63ff;}.cls-7{fill:#ffb8b8;}.cls-8{fill:#262633;}.cls-9{fill:url(#New_Gradient_Swatch_1-2);}</style><linearGradient id="linear-gradient" x1="1620" y1="356.5" x2="0" y2="356.5" gradientTransform="translate(1620 713) rotate(-180)" gradientUnits="userSpaceOnUse"><stop offset="0" stop-color="#fff"/><stop offset="1" stop-color="#e6e6f2"/></linearGradient><linearGradient id="New_Gradient_Swatch_1" x1="1252.58" y1="356.5" x2="5.7" y2="356.5" gradientUnits="userSpaceOnUse"><stop offset="0" stop-color="#3a3a4d"/><stop offset="1" stop-color="#2a2a3b"/></linearGradient><linearGradient id="linear-gradient-2" x1="394.39" y1="381.11" x2="-2.98" y2="778.48" gradientUnits="userSpaceOnUse"><stop offset="0" stop-color="#ff6584"/><stop offset="1" stop-color="#c92e4d"/></linearGradient><linearGradient id="New_Gradient_Swatch_1-2" x1="11770.61" y1="356.5" x2="10624.85" y2="356.5" gradientTransform="matrix(-1, 0, 0, 1, 10624, 0)" xlink:href="#New_Gradient_Swatch_1"/></defs><g id="Layer_1" data-name="Layer 1"><rect class="cls-1" width="1620" height="713" transform="translate(1620 713) rotate(180)"/><path class="cls-2" d="M548,0s33,44.17,73,54c44.94,11,64.18-17.37,131-11,50.39,4.8,76.27,24.46,82,29,10.77,8.52,31.35,24.82,37,51,7.42,34.4-18.94,48.8-14,78,4.51,26.65,29.2,30.85,78,69,43.9,34.31,85.14,71,93,126,.91,6.39,3.14,41-14,74-13.94,26.88-49.46,50.61-55,81-4.33,23.77,18.92,56,24,68,4.93,11.65,7.69,36.29,2,58-3.77,14.39-12.84,26.84-21.71,35.71L963,713H0V0Z"/><path class="cls-3" d="M0,447s31,4.82,50-8c14.78-10,13.4-21.81,27-38,14.77-17.58,40-31.64,63-32,39.49-.62,42,39,92,50,36.22,8,53-4,83,6,8.9,3,29.38,13.94,38,35,6.1,14.9-1.11,44.72,0,69,.72,15.81,9,29.08,13,35,5.41,7.92,31.69,28.32,42,52,9.23,21.19,6,45.63,4,56-4,20.61-17.17,37-21,41H0Z"/><rect class="cls-4" x="348.26" y="132.76" width="605.74" height="387.94"/><rect class="cls-5" x="365.58" y="181.41" width="571.1" height="316.33"/><rect class="cls-6" x="348" y="132.41" width="605.74" height="25.73"/><circle class="cls-5" cx="367.13" cy="145.57" r="4.77"/><circle class="cls-5" cx="385.23" cy="145.57" r="4.77"/><circle class="cls-5" cx="403.34" cy="145.57" r="4.77"/><rect class="cls-6" x="414.17" y="229.98" width="323.2" height="181.8"/><rect class="cls-4" x="782.47" y="229.98" width="123.08" height="69.23"/><rect class="cls-4" x="782.47" y="321.12" width="123.08" height="69.23"/><rect class="cls-4" x="782.47" y="412.25" width="123.08" height="69.23"/><rect class="cls-4" x="414.17" y="442.31" width="222.67" height="15.03"/><polygon class="cls-5" points="618.05 320.88 547.59 280.2 547.59 361.56 618.05 320.88 547.59 280.2 547.59 361.56 618.05 320.88"/><polygon class="cls-7" points="239.77 667.09 241.94 685.18 227.47 682.29 230.37 667.81 239.77 667.09"/><polygon class="cls-7" points="183.58 661.9 187.88 681.89 174.4 681.57 171.12 665.18 183.58 661.9"/><path class="cls-8" d="M252.86,480.39s-5.52,99.1-5.52,109.43-5,77-5.9,79.86-12.89,0-12.89,0S224.79,633,222,624.58s-3.76-31.94-3.76-31.94l-19.73-71.4-11.27,52.61-.94,46,.67,40.4c-2.82,7.51-16.64,5.63-16.64,5.63l-16-67.64s-2.82-14.1-3.76-16.91-4.7-59.2-4.7-59.2l3.76-25.36Z"/><path class="cls-8" d="M186.81,678.26a1.9,1.9,0,0,1,3.33,0l5.73,10.58s-3.52,6.45-8.8,7-6.45,5.87-6.45,5.87a36.51,36.51,0,0,1-19.37,5.87c-11.14,0-1.76-12.91,1.18-14.09s10-17,10-17h6.46s-1.76,3.52,0,4.1a11.58,11.58,0,0,0,4.69,0C184.91,680.91,186,679.67,186.81,678.26Z"/><path class="cls-8" d="M230.31,677.68a1.63,1.63,0,0,0-1.07-.63,1.6,1.6,0,0,0-1.8,1.37l-2,14.79s.66,4.58,4.58,5.89,2,4.58,2,4.58,2.61,5.89,16.36,3.28,0-16.36-1.31-17.67-3.93-11.78-4.58-13.75-4.58,0-4.58,0a18.32,18.32,0,0,1-2.62,4.59c-1.31,1.3-2.62-1.31-2.62-1.31C231.91,679.32,231.07,678.67,230.31,677.68Z"/><path class="cls-7" d="M154,435.35,136.47,479s11.28,30.06-6.57,31-4.7-30.06-4.7-30.06L128,431Z"/><path class="cls-7" d="M246.77,421.26l17.48,43.6s-11.27,30.07,6.58,31,4.69-30.07,4.69-30.07L272.71,417Z"/><circle class="cls-7" cx="197.54" cy="286.35" r="24.43"/><path class="cls-7" d="M209.29,303.73c-1.88,8.46,5.64,17.86,5.64,17.86l1.87,7.51c-3.75,16-58.25,6.58-45.09,0s6.57-32.88,6.57-32.88Z"/><path class="cls-4" d="M176.31,325.06c-36.26,10.52-40.77,36.46-43.59,43s25.36,50.74,25.36,50.74c10.63-1-6.14,77.58-13.15,83.61l37.58,1.88c49.55-.53,85.13-14.45,72.08-23.48-16.08-11.13-3.91-122.8,5.9-123.08-8.45-34.77-46.38-37.3-46.38-37.3-5.05,10.63-21.26,9.11-21.26,9.11C176.87,330.51,176.31,325.06,176.31,325.06Z"/><path class="cls-4" d="M175,383.12s-16.92,55.44-20.67,58.26-26.31-4.7-30.07-5.64,8.46-67.65,8.46-67.65l12.21-16Z"/><path class="cls-4" d="M234.19,427.28s36.64,1.88,43.21-.94-16.91-68.58-16.91-68.58l-16-10.34Z"/><path class="cls-8" d="M169.79,297.28c3.52-2.82,6.69,1.76,6.69,1.76l2.82-25.38s17.63,2.11,28.91-.71,13,10.23,13,10.23,1.05-9.52.35-15.87-9.87-12.69-26.09-16.92-24.68,14.1-24.68,14.1C159.56,270.13,166.26,300.1,169.79,297.28Z"/></g><g id="Layer_3" data-name="Layer 3"><path class="cls-9" d="M-665.58,0s-38.55,40-26.22,93c16.27,70-11.16,102.23-18.09,110-53.45,59.93-76,25-112.14,88-25.33,44.13.45,96.68-22.6,142-20.28,39.86-46.52,38.3-57,77-8.8,32.58,9.06,64.66,15.38,76,14.83,26.63,40.7,51.29,48.23,75,8.7,27.42-2.11,52-2.11,52H0V0Z"/></g></svg>