<?xml version="1.0" standalone="no"?>
<!DOCTYPE svg PUBLIC "-//W3C//DTD SVG 20010904//EN"
 "http://www.w3.org/TR/2001/REC-SVG-20010904/DTD/svg10.dtd">
<svg version="1.0" xmlns="http://www.w3.org/2000/svg"
 width="700.000000pt" height="700.000000pt" viewBox="0 0 700.000000 700.000000"
 preserveAspectRatio="xMidYMid meet">
<metadata>
Created by potrace 1.11, written by Peter Selinger 2001-2013
</metadata>
<g transform="translate(0.000000,700.000000) scale(0.100000,-0.100000)"
fill="#000000" stroke="none">
<path d="M3370 5439 c-725 -43 -1346 -448 -1644 -1069 -255 -531 -255 -1212
-1 -1736 276 -571 809 -938 1525 -1051 146 -23 652 -26 795 -5 418 63 736 200
1004 434 46 40 99 92 118 115 l34 41 -276 304 c-152 166 -282 307 -290 312 -9
7 -28 -4 -65 -37 -71 -64 -165 -130 -252 -177 -284 -153 -740 -182 -1072 -68
-234 80 -437 252 -541 458 -16 30 -41 93 -56 140 l-27 85 1411 5 1412 5 11
150 c13 167 4 384 -21 531 -88 509 -348 937 -740 1219 -102 74 -328 189 -455
233 -260 90 -568 129 -870 111z m275 -829 c122 -14 194 -34 295 -81 253 -119
435 -352 494 -636 l14 -63 -920 0 -920 0 7 43 c11 66 54 196 87 262 169 337
534 521 943 475z"/>
</g>
</svg>
