<svg width="530" height="500" viewBox="0 0 530 500" fill="none" xmlns="http://www.w3.org/2000/svg">
<path d="M269.11 57.2474C268.086 58.8103 266.664 59.5917 264.843 59.5917C263.051 59.5917 261.629 58.8103 260.576 57.2474C259.552 55.6845 259.04 53.2692 259.04 50.0013C259.04 46.7335 259.552 44.3181 260.576 42.7552C261.629 41.1923 263.051 40.4109 264.843 40.4109C266.664 40.4109 268.086 41.1923 269.11 42.7552C270.163 44.3181 270.689 46.7335 270.689 50.0013C270.689 53.2692 270.163 55.6845 269.11 57.2474Z" fill="#6C63FF"/>
<path fill-rule="evenodd" clip-rule="evenodd" d="M261.003 90.7526C297.299 90.7526 332.15 93.3559 362.754 98.2347C362.754 97.7954 362.748 97.356 362.741 96.9101C362.294 71.4002 351.875 47.0769 333.712 29.1391C315.549 11.2012 291.083 1.07189 265.542 0.916027C240.001 0.76016 215.413 10.5901 197.032 28.305C178.65 46.0198 167.935 70.214 167.176 95.7166C167.157 96.1448 167.15 96.5729 167.144 97.0011L167.143 97.0347C195.784 92.9297 227.787 90.7526 261.003 90.7526ZM245.111 58.654H249.975V53.0276H245.111V47.4439H238.582V53.0276H230.56L243.617 35.0829H236.363L222.282 54.008V58.654H238.369V64.9197H245.111V58.654ZM258.23 63.5984C260.164 64.8203 262.369 65.4312 264.843 65.4312C267.318 65.4312 269.523 64.8203 271.457 63.5984C273.392 62.3765 274.899 60.6147 275.98 58.313C277.09 55.9829 277.644 53.2123 277.644 50.0013C277.644 46.7903 277.09 44.034 275.98 41.7323C274.899 39.4021 273.392 37.6261 271.457 36.4042C269.523 35.1824 267.318 34.5714 264.843 34.5714C262.369 34.5714 260.164 35.1824 258.23 36.4042C256.295 37.6261 254.773 39.4021 253.664 41.7323C252.583 44.034 252.042 46.7903 252.042 50.0013C252.042 53.2123 252.583 55.9829 253.664 58.313C254.773 60.6147 256.295 62.3765 258.23 63.5984ZM303.49 58.654H308.354V53.0276H303.49V47.4439H296.961V53.0276H288.939L301.996 35.0829H294.743L280.662 54.008V58.654H296.748V64.9197H303.49V58.654Z" fill="#6C63FF"/>
<g opacity="0.1">
<path opacity="0.1" d="M277.776 0.879582C264.192 -0.953292 250.374 0.0855274 237.217 3.92871C224.061 7.77189 211.859 14.3337 201.404 23.1888C190.948 32.0439 182.472 42.9947 176.525 55.3315C170.578 67.6683 167.291 81.1158 166.88 94.8025C166.86 95.2418 166.853 95.6812 166.847 96.1205C175.356 94.901 184.167 93.8559 193.214 92.9832C194.32 70.1819 203.383 48.487 218.829 31.6631C234.275 14.8392 255.131 3.94806 277.776 0.879582V0.879582Z" fill="white"/>
</g>
<path d="M405.543 105.986C391.455 102.171 377.166 99.1409 362.741 96.9101C339.099 93.2504 315.265 90.9624 291.358 90.0574C281.399 89.6509 271.257 89.441 261.003 89.441C252.877 89.441 244.815 89.5722 236.865 89.8345C213.545 90.5227 190.281 92.4864 167.176 95.7166C150.072 98.0692 133.135 101.499 116.464 105.986C77.5955 116.72 56.1885 131.108 56.1885 146.492C56.1885 161.876 77.5955 176.263 116.464 186.998C143.799 194.552 177.502 199.7 214.224 202.06C229.382 203.044 245.052 203.542 261.003 203.542C277.008 203.542 292.73 203.037 307.934 202.054C341.354 199.896 372.273 195.431 398.151 188.939C398.289 188.899 398.42 188.867 398.558 188.834C400.304 188.401 402.024 187.949 403.724 187.496C404.334 187.326 404.938 187.162 405.543 186.998C405.577 186.984 405.612 186.973 405.647 186.965C406.225 186.808 406.796 186.644 407.367 186.486C408.51 186.158 409.639 185.837 410.748 185.503C410.801 185.489 410.846 185.476 410.893 185.463C411.857 185.175 412.803 184.886 413.742 184.598C414.51 184.355 415.271 184.119 416.026 183.876C416.578 183.699 417.123 183.522 417.661 183.345C418.055 183.214 418.442 183.089 418.823 182.958C419.341 182.788 419.86 182.611 420.372 182.434C420.589 182.362 420.805 182.289 421.015 182.211C421.508 182.047 421.987 181.876 422.466 181.706C422.985 181.522 423.503 181.332 424.015 181.148C424.442 180.998 424.869 180.84 425.289 180.683C425.643 180.545 425.991 180.414 426.346 180.283C427.311 179.922 428.256 179.548 429.188 179.181C429.654 178.991 430.12 178.807 430.58 178.617C431.033 178.434 431.492 178.243 431.939 178.053C432.674 177.745 433.396 177.437 434.105 177.129C434.446 176.971 434.794 176.82 435.129 176.676C435.385 176.558 435.635 176.447 435.891 176.329C436.074 176.25 436.258 176.165 436.436 176.079C437.098 175.778 437.755 175.47 438.398 175.161C440.867 173.981 443.171 172.774 445.311 171.542C458.735 163.863 465.818 155.344 465.818 146.492C465.818 131.108 444.411 116.72 405.543 105.986ZM405.188 185.739C377.82 193.299 344.026 198.447 307.205 200.788C292.231 201.739 276.752 202.231 261.003 202.231C245.307 202.231 229.881 201.746 214.953 200.795C178.073 198.46 144.226 193.313 116.819 185.739C78.5671 175.168 57.5014 161.233 57.5014 146.492C57.5035 145.189 57.6667 143.892 57.9873 142.629C61.335 129.331 81.9282 116.884 116.819 107.245C133.363 102.793 150.171 99.383 167.143 97.0347C190.387 93.7862 213.792 91.8159 237.253 91.1329C245.078 90.8771 252.995 90.7504 261.003 90.7525C271.12 90.7525 281.124 90.9558 290.958 91.3493C315.004 92.2461 338.977 94.5452 362.755 98.2347C377.054 100.456 391.22 103.464 405.188 107.245C440.072 116.884 460.659 129.324 464.013 142.616C464.339 143.882 464.504 145.184 464.506 146.492C464.506 161.233 443.44 175.168 405.188 185.739V185.739Z" fill="#3F3D56"/>
<path d="M465.444 147.088C465.444 155.849 458.216 164.138 445.31 171.542C443.164 172.774 440.853 173.981 438.398 175.161C437.755 175.47 437.098 175.778 436.435 176.079C436.258 176.165 436.074 176.25 435.89 176.329C435.634 176.447 435.385 176.558 435.129 176.676C434.794 176.82 434.446 176.971 434.105 177.129C433.396 177.437 432.674 177.745 431.939 178.053C431.492 178.243 431.032 178.433 430.58 178.617C430.12 178.807 429.654 178.991 429.188 179.181C428.256 179.548 427.31 179.922 426.346 180.283C425.991 180.414 425.643 180.545 425.288 180.683C424.869 180.84 424.442 180.997 424.015 181.148C423.503 181.332 422.984 181.522 422.466 181.706C421.987 181.876 421.507 182.047 421.015 182.211C420.805 182.289 420.588 182.361 420.372 182.434C419.86 182.611 419.341 182.788 418.823 182.958C418.442 183.089 418.055 183.214 417.661 183.345C417.122 183.522 416.577 183.699 416.026 183.876C415.271 184.119 414.509 184.355 413.741 184.598C412.803 184.886 411.857 185.175 410.892 185.463C410.846 185.476 410.8 185.489 410.748 185.503C409.639 185.837 408.51 186.158 407.367 186.486C406.796 186.644 406.225 186.807 405.647 186.965C405.611 186.973 405.576 186.984 405.542 186.998C404.938 187.162 404.334 187.326 403.724 187.496C402.03 187.942 400.304 188.394 398.558 188.834C398.42 188.867 398.288 188.899 398.151 188.939C372.975 195.221 342.089 199.798 307.907 202.008C292.934 202.972 277.323 203.483 261.286 203.483C245.104 203.483 229.362 202.965 214.27 201.982C124.178 196.113 57.1272 173.765 57.1272 147.088C57.1343 145.465 57.382 143.852 57.8622 142.301C57.9016 142.413 57.941 142.518 57.9872 142.629C67.3545 167.207 133.834 187.07 220.093 191.916C233.307 192.663 246.995 193.05 261.003 193.05C275.071 193.05 288.811 192.657 302.078 191.909C388.264 187.044 454.678 167.174 464.013 142.616C464.171 142.223 464.309 141.829 464.427 141.436C465.092 143.247 465.436 145.159 465.444 147.088V147.088Z" fill="#3F3D56"/>
<path d="M116.365 140.03C105.44 140.03 93.8286 137.682 93.8286 133.33C93.8286 128.978 105.44 126.63 116.365 126.63C127.291 126.63 138.902 128.978 138.902 133.33C138.902 137.682 127.291 140.03 116.365 140.03ZM116.365 127.942C103.858 127.942 95.1415 130.782 95.1415 133.33C95.1415 135.879 103.858 138.718 116.365 138.718C128.873 138.718 137.589 135.879 137.589 133.33C137.589 130.782 128.873 127.942 116.365 127.942V127.942Z" fill="#3F3D56"/>
<path d="M162.974 170.85C152.048 170.85 140.437 168.502 140.437 164.151C140.437 159.799 152.048 157.451 162.974 157.451C173.899 157.451 185.51 159.799 185.51 164.151C185.51 168.502 173.899 170.85 162.974 170.85ZM162.974 158.762C150.466 158.762 141.75 161.602 141.75 164.151C141.75 166.699 150.466 169.539 162.974 169.539C175.481 169.539 184.197 166.699 184.197 164.151C184.197 161.602 175.481 158.762 162.974 158.762V158.762Z" fill="#3F3D56"/>
<path d="M405.207 140.03C394.282 140.03 382.67 137.682 382.67 133.33C382.67 128.978 394.282 126.63 405.207 126.63C416.132 126.63 427.743 128.978 427.743 133.33C427.743 137.682 416.132 140.03 405.207 140.03ZM405.207 127.942C392.699 127.942 383.983 130.782 383.983 133.33C383.983 135.879 392.699 138.718 405.207 138.718C417.714 138.718 426.431 135.879 426.431 133.33C426.431 130.782 417.714 127.942 405.207 127.942V127.942Z" fill="#3F3D56"/>
<path d="M358.598 170.85C347.673 170.85 336.062 168.502 336.062 164.151C336.062 159.799 347.673 157.451 358.598 157.451C369.524 157.451 381.135 159.799 381.135 164.151C381.135 168.502 369.524 170.85 358.598 170.85ZM358.598 158.762C346.091 158.762 337.375 161.602 337.375 164.151C337.375 166.699 346.091 169.539 358.598 169.539C371.106 169.539 379.822 166.699 379.822 164.151C379.822 161.602 371.106 158.762 358.598 158.762V158.762Z" fill="#3F3D56"/>
<path d="M260.786 185.277C249.861 185.277 238.25 182.929 238.25 178.577C238.25 174.226 249.861 171.878 260.786 171.878C271.711 171.878 283.323 174.226 283.323 178.577C283.323 182.929 271.711 185.277 260.786 185.277ZM260.786 173.189C248.279 173.189 239.562 176.029 239.562 178.577C239.562 181.126 248.279 183.965 260.786 183.965C273.294 183.965 282.01 181.126 282.01 178.577C282.01 176.029 273.294 173.189 260.786 173.189V173.189Z" fill="#3F3D56"/>
<path d="M277.4 323.101C292.632 323.101 304.979 310.767 304.979 295.552C304.979 280.336 292.632 268.002 277.4 268.002C262.168 268.002 249.821 280.336 249.821 295.552C249.821 310.767 262.168 323.101 277.4 323.101Z" fill="#2F2E41"/>
<path d="M266.913 313.652L253.49 320.367L257.242 327.85L270.664 321.136L266.913 313.652Z" fill="#2F2E41"/>
<path d="M259.011 327.091C259.807 325.885 257.843 323.188 254.624 321.068C251.404 318.947 248.149 318.206 247.353 319.412C246.557 320.618 248.522 323.315 251.741 325.435C254.96 327.555 258.215 328.297 259.011 327.091Z" fill="#2F2E41"/>
<path d="M287.887 313.652L284.136 321.136L297.558 327.85L301.31 320.367L287.887 313.652Z" fill="#2F2E41"/>
<path d="M303.059 325.435C306.279 323.315 308.243 320.618 307.447 319.412C306.651 318.206 303.396 318.947 300.177 321.068C296.957 323.188 294.993 325.885 295.789 327.091C296.585 328.297 299.84 327.555 303.059 325.435Z" fill="#2F2E41"/>
<path d="M275.47 298.228C280.675 298.228 284.895 294.013 284.895 288.813C284.895 283.613 280.675 279.397 275.47 279.397C270.264 279.397 266.044 283.613 266.044 288.813C266.044 294.013 270.264 298.228 275.47 298.228Z" fill="white"/>
<path d="M277.762 287.008C278.984 285.787 278.977 283.801 277.746 282.572C276.516 281.343 274.528 281.336 273.306 282.556C272.084 283.777 272.091 285.763 273.322 286.992C274.552 288.221 276.54 288.228 277.762 287.008Z" fill="#3F3D56"/>
<path d="M299.157 265.58C299.571 255.381 290.772 246.742 279.502 246.285C268.232 245.828 258.76 253.725 258.345 263.924C257.93 274.124 265.764 276.441 277.034 276.898C288.304 277.356 298.742 275.78 299.157 265.58Z" fill="#6C63FF"/>
<path d="M315.054 309.978C316.868 308.422 314.317 302.481 309.356 296.709C304.395 290.937 298.903 287.518 297.089 289.074C295.275 290.63 297.826 296.57 302.787 302.343C307.747 308.115 313.239 311.533 315.054 309.978Z" fill="#2F2E41"/>
<path d="M252.09 302.342C257.051 296.57 259.602 290.63 257.788 289.074C255.974 287.518 250.482 290.937 245.521 296.709C240.56 302.481 238.009 308.422 239.823 309.978C241.638 311.533 247.13 308.115 252.09 302.342Z" fill="#2F2E41"/>
<path d="M284.975 306.409C285.273 308.046 284.908 309.736 283.96 311.105C283.012 312.474 281.558 313.41 279.918 313.708C278.278 314.007 276.587 313.642 275.217 312.695C273.846 311.747 272.909 310.295 272.61 308.657L272.608 308.645C271.99 305.234 274.63 304.026 278.045 303.409C281.46 302.791 284.357 302.997 284.975 306.409Z" fill="white"/>
<path d="M230.806 324.857C230.458 324.857 230.124 324.719 229.878 324.473C229.632 324.227 229.493 323.893 229.493 323.546V246.166C229.493 245.819 229.631 245.485 229.878 245.239C230.124 244.993 230.458 244.855 230.806 244.855C231.154 244.855 231.488 244.993 231.734 245.239C231.981 245.485 232.119 245.819 232.119 246.166V323.546C232.119 323.893 231.981 324.227 231.734 324.473C231.488 324.719 231.154 324.857 230.806 324.857Z" fill="#CCCCCC"/>
<path d="M211.112 394.367C210.764 394.367 210.43 394.229 210.184 393.983C209.938 393.737 209.799 393.403 209.799 393.056V336.661C209.799 336.313 209.938 335.979 210.184 335.733C210.43 335.487 210.764 335.349 211.112 335.349C211.46 335.349 211.794 335.487 212.041 335.733C212.287 335.979 212.425 336.313 212.425 336.661V393.056C212.425 393.403 212.287 393.737 212.041 393.983C211.794 394.229 211.46 394.367 211.112 394.367V394.367Z" fill="#CCCCCC"/>
<path d="M261.66 347.808C261.312 347.808 260.978 347.67 260.731 347.424C260.485 347.178 260.347 346.845 260.347 346.497V269.118C260.347 268.77 260.485 268.436 260.731 268.191C260.978 267.945 261.312 267.806 261.66 267.806C262.008 267.806 262.342 267.945 262.588 268.191C262.834 268.436 262.973 268.77 262.973 269.118V346.497C262.973 346.845 262.834 347.178 262.588 347.424C262.342 347.67 262.008 347.808 261.66 347.808Z" fill="#CCCCCC"/>
<path d="M242.622 403.548C242.274 403.548 241.94 403.409 241.694 403.164C241.448 402.918 241.309 402.584 241.309 402.236V370.76C241.309 370.412 241.448 370.078 241.694 369.832C241.94 369.587 242.274 369.448 242.622 369.448C242.97 369.448 243.304 369.587 243.551 369.832C243.797 370.078 243.935 370.412 243.935 370.76V402.236C243.935 402.584 243.797 402.918 243.551 403.164C243.304 403.409 242.97 403.548 242.622 403.548V403.548Z" fill="#CCCCCC"/>
<path d="M269.537 242.232C269.189 242.232 268.855 242.094 268.609 241.848C268.362 241.602 268.224 241.268 268.224 240.92V209.444C268.224 209.096 268.362 208.763 268.609 208.517C268.855 208.271 269.189 208.133 269.537 208.133C269.885 208.133 270.219 208.271 270.465 208.517C270.712 208.763 270.85 209.096 270.85 209.444V240.92C270.85 241.268 270.712 241.602 270.465 241.848C270.219 242.094 269.885 242.232 269.537 242.232V242.232Z" fill="#CCCCCC"/>
<path d="M203.891 256.003C203.543 256.003 203.209 255.865 202.963 255.619C202.717 255.373 202.578 255.039 202.578 254.691V223.215C202.578 222.867 202.717 222.534 202.963 222.288C203.209 222.042 203.543 221.904 203.891 221.904C204.239 221.904 204.573 222.042 204.82 222.288C205.066 222.534 205.204 222.867 205.204 223.215V254.691C205.204 255.039 205.066 255.373 204.82 255.619C204.573 255.865 204.239 256.003 203.891 256.003V256.003Z" fill="#CCCCCC"/>
<path d="M318.115 259.282C317.767 259.282 317.433 259.143 317.187 258.897C316.94 258.651 316.802 258.318 316.802 257.97V226.494C316.802 226.146 316.94 225.812 317.187 225.566C317.433 225.32 317.767 225.182 318.115 225.182C318.463 225.182 318.797 225.32 319.043 225.566C319.289 225.812 319.428 226.146 319.428 226.494V257.97C319.428 258.318 319.289 258.651 319.043 258.897C318.797 259.143 318.463 259.282 318.115 259.282Z" fill="#CCCCCC"/>
<path d="M315.489 357.645C315.141 357.645 314.807 357.507 314.561 357.261C314.315 357.015 314.176 356.681 314.176 356.333V318.3C314.176 317.952 314.315 317.618 314.561 317.372C314.807 317.126 315.141 316.988 315.489 316.988C315.837 316.988 316.171 317.126 316.418 317.372C316.664 317.618 316.802 317.952 316.802 318.3V356.333C316.802 356.681 316.664 357.015 316.418 357.261C316.171 357.507 315.837 357.645 315.489 357.645Z" fill="#CCCCCC"/>
<path d="M289.231 391.088C288.883 391.088 288.549 390.95 288.303 390.704C288.057 390.458 287.918 390.125 287.918 389.777V333.382C287.918 333.034 288.057 332.7 288.303 332.454C288.549 332.209 288.883 332.07 289.231 332.07C289.579 332.07 289.913 332.209 290.159 332.454C290.406 332.7 290.544 333.034 290.544 333.382V389.777C290.544 390.125 290.406 390.458 290.159 390.704C289.913 390.95 289.579 391.088 289.231 391.088Z" fill="#CCCCCC"/>
<path d="M294.483 294.692C294.135 294.692 293.801 294.554 293.554 294.308C293.308 294.062 293.17 293.729 293.17 293.381V216.002C293.17 215.654 293.308 215.32 293.554 215.074C293.801 214.828 294.135 214.69 294.483 214.69C294.831 214.69 295.165 214.828 295.411 215.074C295.657 215.32 295.796 215.654 295.796 216.002V293.381C295.796 293.729 295.657 294.062 295.411 294.308C295.165 294.554 294.831 294.692 294.483 294.692Z" fill="#CCCCCC"/>
<path d="M59.0677 452.287C56.2056 452.287 53.6191 451.671 51.3084 450.438C49.0239 449.205 47.2252 447.513 45.9123 445.362C44.6256 443.185 43.9823 440.746 43.9823 438.044C43.9823 435.343 44.6256 432.916 45.9123 430.765C47.2252 428.588 49.0239 426.883 51.3084 425.651C53.6191 424.418 56.2056 423.801 59.0677 423.801C61.9299 423.801 64.5032 424.418 66.7877 425.651C69.0721 426.883 70.8708 428.588 72.1838 430.765C73.4967 432.916 74.1531 435.343 74.1531 438.044C74.1531 440.746 73.4967 443.185 72.1838 445.362C70.8708 447.513 69.0721 449.205 66.7877 450.438C64.5032 451.671 61.9299 452.287 59.0677 452.287ZM59.0677 446.858C60.6957 446.858 62.1662 446.49 63.4791 445.756C64.792 444.995 65.8161 443.946 66.5513 442.608C67.3128 441.271 67.6936 439.749 67.6936 438.044C67.6936 436.339 67.3128 434.818 66.5513 433.48C65.8161 432.142 64.792 431.106 63.4791 430.372C62.1662 429.611 60.6957 429.231 59.0677 429.231C57.4397 429.231 55.9692 429.611 54.6563 430.372C53.3434 431.106 52.3062 432.142 51.5447 433.48C50.8095 434.818 50.4418 436.339 50.4418 438.044C50.4418 439.749 50.8095 441.271 51.5447 442.608C52.3062 443.946 53.3434 444.995 54.6563 445.756C55.9692 446.49 57.4397 446.858 59.0677 446.858Z" fill="#2F2E44"/>
<path d="M88.5985 452.13C86.3665 452.13 84.3578 451.671 82.5722 450.753C80.8129 449.809 79.4343 448.51 78.4365 446.858C77.4387 445.205 76.9398 443.33 76.9398 441.231C76.9398 439.133 77.4387 437.257 78.4365 435.605C79.4343 433.952 80.8129 432.667 82.5722 431.749C84.3578 430.805 86.3665 430.333 88.5985 430.333C90.8304 430.333 92.8261 430.805 94.5854 431.749C96.3447 432.667 97.7233 433.952 98.7211 435.605C99.7189 437.257 100.218 439.133 100.218 441.231C100.218 443.33 99.7189 445.205 98.7211 446.858C97.7233 448.51 96.3447 449.809 94.5854 450.753C92.8261 451.671 90.8304 452.13 88.5985 452.13ZM88.5985 447.094C90.174 447.094 91.4606 446.569 92.4585 445.52C93.4825 444.444 93.9946 443.015 93.9946 441.231C93.9946 439.448 93.4825 438.031 92.4585 436.982C91.4606 435.907 90.174 435.369 88.5985 435.369C87.023 435.369 85.7232 435.907 84.6991 436.982C83.6751 438.031 83.163 439.448 83.163 441.231C83.163 443.015 83.6751 444.444 84.6991 445.52C85.7232 446.569 87.023 447.094 88.5985 447.094Z" fill="#2F2E44"/>
<path d="M116.85 430.333C118.819 430.333 120.605 430.792 122.207 431.71C123.835 432.602 125.108 433.874 126.027 435.526C126.946 437.152 127.406 439.054 127.406 441.231C127.406 443.408 126.946 445.323 126.027 446.976C125.108 448.602 123.835 449.874 122.207 450.792C120.605 451.684 118.819 452.13 116.85 452.13C114.145 452.13 112.019 451.277 110.469 449.572V459.448H104.325V430.647H110.194V433.087C111.717 431.251 113.935 430.333 116.85 430.333ZM115.787 447.094C117.362 447.094 118.649 446.569 119.647 445.52C120.671 444.444 121.183 443.015 121.183 441.231C121.183 439.448 120.671 438.031 119.647 436.982C118.649 435.907 117.362 435.369 115.787 435.369C114.211 435.369 112.911 435.907 111.887 436.982C110.889 438.031 110.391 439.448 110.391 441.231C110.391 443.015 110.889 444.444 111.887 445.52C112.911 446.569 114.211 447.094 115.787 447.094Z" fill="#2F2E44"/>
<path d="M138.648 452.13C136.889 452.13 135.169 451.92 133.489 451.5C131.808 451.054 130.469 450.504 129.471 449.848L131.519 445.441C132.464 446.044 133.607 446.543 134.946 446.936C136.285 447.304 137.598 447.487 138.885 447.487C141.484 447.487 142.784 446.845 142.784 445.559C142.784 444.956 142.43 444.523 141.721 444.261C141.012 443.999 139.922 443.776 138.451 443.592C136.718 443.33 135.287 443.028 134.158 442.687C133.029 442.346 132.044 441.743 131.204 440.877C130.39 440.012 129.983 438.779 129.983 437.179C129.983 435.841 130.364 434.661 131.125 433.638C131.913 432.588 133.042 431.775 134.513 431.198C136.009 430.621 137.769 430.333 139.791 430.333C141.287 430.333 142.771 430.503 144.241 430.844C145.738 431.159 146.972 431.605 147.944 432.182L145.896 436.549C144.031 435.5 141.996 434.975 139.791 434.975C138.478 434.975 137.493 435.159 136.836 435.526C136.18 435.893 135.852 436.366 135.852 436.943C135.852 437.598 136.206 438.057 136.915 438.32C137.624 438.582 138.753 438.831 140.303 439.067C142.036 439.356 143.454 439.671 144.556 440.012C145.659 440.326 146.618 440.916 147.432 441.782C148.246 442.648 148.653 443.854 148.653 445.402C148.653 446.713 148.259 447.881 147.471 448.904C146.683 449.927 145.528 450.727 144.005 451.304C142.508 451.854 140.723 452.13 138.648 452.13Z" fill="#2F2E44"/>
<path d="M154.768 452.13C153.691 452.13 152.785 451.763 152.05 451.028C151.315 450.294 150.947 449.376 150.947 448.274C150.947 447.146 151.315 446.241 152.05 445.559C152.785 444.851 153.691 444.497 154.768 444.497C155.844 444.497 156.75 444.851 157.485 445.559C158.221 446.241 158.588 447.146 158.588 448.274C158.588 449.376 158.221 450.294 157.485 451.028C156.75 451.763 155.844 452.13 154.768 452.13Z" fill="#2F2E44"/>
<path d="M165.076 452.13C163.999 452.13 163.094 451.763 162.358 451.028C161.623 450.294 161.255 449.376 161.255 448.274C161.255 447.146 161.623 446.241 162.358 445.559C163.094 444.851 163.999 444.497 165.076 444.497C166.153 444.497 167.059 444.851 167.794 445.559C168.529 446.241 168.897 447.146 168.897 448.274C168.897 449.376 168.529 450.294 167.794 451.028C167.059 451.763 166.153 452.13 165.076 452.13Z" fill="#2F2E44"/>
<path d="M175.385 452.13C174.308 452.13 173.402 451.763 172.667 451.028C171.932 450.294 171.564 449.376 171.564 448.274C171.564 447.146 171.932 446.241 172.667 445.559C173.402 444.851 174.308 444.497 175.385 444.497C176.461 444.497 177.367 444.851 178.102 445.559C178.837 446.241 179.205 447.146 179.205 448.274C179.205 449.376 178.837 450.294 178.102 451.028C177.367 451.763 176.461 452.13 175.385 452.13Z" fill="#2F2E44"/>
<path d="M208.191 442.057V451.815H201.81V441.979L191.136 424.273H197.911L205.277 436.51L212.642 424.273H218.905L208.191 442.057Z" fill="#2F2E44"/>
<path d="M228.878 452.13C226.646 452.13 224.637 451.671 222.852 450.753C221.092 449.809 219.714 448.51 218.716 446.858C217.718 445.205 217.219 443.33 217.219 441.231C217.219 439.133 217.718 437.257 218.716 435.605C219.714 433.952 221.092 432.667 222.852 431.749C224.637 430.805 226.646 430.333 228.878 430.333C231.11 430.333 233.106 430.805 234.865 431.749C236.624 432.667 238.003 433.952 239.001 435.605C239.998 437.257 240.497 439.133 240.497 441.231C240.497 443.33 239.998 445.205 239.001 446.858C238.003 448.51 236.624 449.809 234.865 450.753C233.106 451.671 231.11 452.13 228.878 452.13ZM228.878 447.094C230.453 447.094 231.74 446.569 232.738 445.52C233.762 444.444 234.274 443.015 234.274 441.231C234.274 439.448 233.762 438.031 232.738 436.982C231.74 435.907 230.453 435.369 228.878 435.369C227.302 435.369 226.003 435.907 224.979 436.982C223.955 438.031 223.443 439.448 223.443 441.231C223.443 443.015 223.955 444.444 224.979 445.52C226.003 446.569 227.302 447.094 228.878 447.094Z" fill="#2F2E44"/>
<path d="M265.952 430.647V451.815H260.123V449.297C259.309 450.215 258.337 450.923 257.208 451.422C256.079 451.894 254.858 452.13 253.545 452.13C250.762 452.13 248.556 451.33 246.928 449.73C245.3 448.13 244.486 445.756 244.486 442.608V430.647H250.631V441.703C250.631 445.113 252.062 446.818 254.924 446.818C256.394 446.818 257.576 446.346 258.469 445.402C259.362 444.431 259.808 443.002 259.808 441.113V430.647H265.952Z" fill="#2F2E44"/>
<path d="M292.883 452.13C290.651 452.13 288.642 451.671 286.856 450.753C285.097 449.809 283.719 448.51 282.721 446.858C281.723 445.205 281.224 443.33 281.224 441.231C281.224 439.133 281.723 437.257 282.721 435.605C283.719 433.952 285.097 432.667 286.856 431.749C288.642 430.805 290.651 430.333 292.883 430.333C295.115 430.333 297.11 430.805 298.87 431.749C300.629 432.667 302.007 433.952 303.005 435.605C304.003 437.257 304.502 439.133 304.502 441.231C304.502 443.33 304.003 445.205 303.005 446.858C302.007 448.51 300.629 449.809 298.87 450.753C297.11 451.671 295.115 452.13 292.883 452.13ZM292.883 447.094C294.458 447.094 295.745 446.569 296.743 445.52C297.767 444.444 298.279 443.015 298.279 441.231C298.279 439.448 297.767 438.031 296.743 436.982C295.745 435.907 294.458 435.369 292.883 435.369C291.307 435.369 290.007 435.907 288.983 436.982C287.959 438.031 287.447 439.448 287.447 441.231C287.447 443.015 287.959 444.444 288.983 445.52C290.007 446.569 291.307 447.094 292.883 447.094Z" fill="#2F2E44"/>
<path d="M321.134 430.333C323.104 430.333 324.889 430.792 326.491 431.71C328.119 432.602 329.393 433.874 330.312 435.526C331.231 437.152 331.69 439.054 331.69 441.231C331.69 443.408 331.231 445.323 330.312 446.976C329.393 448.602 328.119 449.874 326.491 450.792C324.889 451.684 323.104 452.13 321.134 452.13C318.22 452.13 316.001 451.212 314.478 449.376V451.815H308.609V422.621H314.754V432.89C316.303 431.185 318.43 430.333 321.134 430.333ZM320.071 447.094C321.646 447.094 322.933 446.569 323.931 445.52C324.955 444.444 325.467 443.015 325.467 441.231C325.467 439.448 324.955 438.031 323.931 436.982C322.933 435.907 321.646 435.369 320.071 435.369C318.495 435.369 317.196 435.907 316.171 436.982C315.174 438.031 314.675 439.448 314.675 441.231C314.675 443.015 315.174 444.444 316.171 445.52C317.196 446.569 318.495 447.094 320.071 447.094Z" fill="#2F2E44"/>
<path d="M356.259 430.647L347.318 451.815H340.977L332.075 430.647H338.417L344.286 445.048L350.351 430.647H356.259Z" fill="#2F2E44"/>
<path d="M358.767 430.647H364.911V451.815H358.767V430.647ZM361.839 427.696C360.71 427.696 359.791 427.369 359.082 426.713C358.373 426.057 358.018 425.244 358.018 424.273C358.018 423.303 358.373 422.49 359.082 421.834C359.791 421.178 360.71 420.85 361.839 420.85C362.968 420.85 363.887 421.165 364.596 421.795C365.305 422.424 365.659 423.211 365.659 424.155C365.659 425.178 365.305 426.031 364.596 426.713C363.887 427.369 362.968 427.696 361.839 427.696Z" fill="#2F2E44"/>
<path d="M380.697 452.13C378.465 452.13 376.456 451.671 374.67 450.753C372.911 449.809 371.533 448.51 370.535 446.858C369.537 445.205 369.038 443.33 369.038 441.231C369.038 439.133 369.537 437.257 370.535 435.605C371.533 433.952 372.911 432.667 374.67 431.749C376.456 430.805 378.465 430.333 380.697 430.333C382.929 430.333 384.924 430.805 386.684 431.749C388.443 432.667 389.822 433.952 390.819 435.605C391.817 437.257 392.316 439.133 392.316 441.231C392.316 443.33 391.817 445.205 390.819 446.858C389.822 448.51 388.443 449.809 386.684 450.753C384.924 451.671 382.929 452.13 380.697 452.13ZM380.697 447.094C382.272 447.094 383.559 446.569 384.557 445.52C385.581 444.444 386.093 443.015 386.093 441.231C386.093 439.448 385.581 438.031 384.557 436.982C383.559 435.907 382.272 435.369 380.697 435.369C379.121 435.369 377.821 435.907 376.797 436.982C375.773 438.031 375.261 439.448 375.261 441.231C375.261 443.015 375.773 444.444 376.797 445.52C377.821 446.569 379.121 447.094 380.697 447.094Z" fill="#2F2E44"/>
<path d="M417.771 430.647V451.815H411.942V449.297C411.128 450.215 410.156 450.923 409.027 451.422C407.898 451.894 406.677 452.13 405.364 452.13C402.581 452.13 400.375 451.33 398.747 449.73C397.119 448.13 396.305 445.756 396.305 442.608V430.647H402.449V441.703C402.449 445.113 403.881 446.818 406.743 446.818C408.213 446.818 409.395 446.346 410.288 445.402C411.18 444.431 411.627 443.002 411.627 441.113V430.647H417.771Z" fill="#2F2E44"/>
<path d="M430.593 452.13C428.833 452.13 427.114 451.92 425.433 451.5C423.752 451.054 422.413 450.504 421.415 449.848L423.464 445.441C424.409 446.044 425.551 446.543 426.89 446.936C428.23 447.304 429.542 447.487 430.829 447.487C433.429 447.487 434.728 446.845 434.728 445.559C434.728 444.956 434.374 444.523 433.665 444.261C432.956 443.999 431.866 443.776 430.396 443.592C428.663 443.33 427.232 443.028 426.103 442.687C424.973 442.346 423.989 441.743 423.149 440.877C422.335 440.012 421.928 438.779 421.928 437.179C421.928 435.841 422.308 434.661 423.07 433.638C423.858 432.588 424.987 431.775 426.457 431.198C427.954 430.621 429.713 430.333 431.735 430.333C433.232 430.333 434.715 430.503 436.186 430.844C437.683 431.159 438.917 431.605 439.888 432.182L437.84 436.549C435.976 435.5 433.941 434.975 431.735 434.975C430.422 434.975 429.437 435.159 428.781 435.526C428.124 435.893 427.796 436.366 427.796 436.943C427.796 437.598 428.151 438.057 428.86 438.32C429.569 438.582 430.698 438.831 432.247 439.067C433.98 439.356 435.398 439.671 436.501 440.012C437.604 440.326 438.562 440.916 439.376 441.782C440.19 442.648 440.597 443.854 440.597 445.402C440.597 446.713 440.203 447.881 439.416 448.904C438.628 449.927 437.472 450.727 435.949 451.304C434.453 451.854 432.667 452.13 430.593 452.13Z" fill="#2F2E44"/>
<path d="M444.388 422.621H450.533V451.815H444.388V422.621Z" fill="#2F2E44"/>
<path d="M477.268 430.647L467.697 453.114C466.725 455.553 465.518 457.271 464.073 458.268C462.655 459.265 460.935 459.763 458.914 459.763C457.811 459.763 456.721 459.592 455.644 459.251C454.568 458.91 453.688 458.438 453.005 457.835L455.251 453.468C455.723 453.887 456.262 454.215 456.865 454.451C457.496 454.687 458.113 454.805 458.717 454.805C459.557 454.805 460.24 454.596 460.765 454.176C461.29 453.782 461.763 453.114 462.183 452.169L462.262 451.973L453.084 430.647H459.426L465.373 445.008L471.36 430.647H477.268Z" fill="#2F2E44"/>
<path d="M9.17729 500C7.41798 500 5.69806 499.79 4.01753 499.37C2.33699 498.925 0.997817 498.374 0 497.718L2.04815 493.311C2.99345 493.915 4.13569 494.413 5.47486 494.806C6.81404 495.174 8.12695 495.357 9.41361 495.357C12.0132 495.357 13.313 494.715 13.313 493.429C13.313 492.826 12.9585 492.393 12.2495 492.131C11.5405 491.869 10.4508 491.646 8.98035 491.462C7.2473 491.2 5.81622 490.898 4.68711 490.557C3.558 490.216 2.57332 489.613 1.73305 488.747C0.919042 487.882 0.512037 486.649 0.512037 485.049C0.512037 483.711 0.892783 482.531 1.65427 481.508C2.44203 480.458 3.57113 479.645 5.0416 479.068C6.53833 478.491 8.29763 478.203 10.3195 478.203C11.8163 478.203 13.2998 478.373 14.7703 478.714C16.267 479.029 17.5012 479.475 18.4727 480.052L16.4246 484.419C14.5602 483.37 12.5252 482.845 10.3195 482.845C9.00661 482.845 8.02192 483.029 7.36546 483.396C6.709 483.764 6.38078 484.236 6.38078 484.813C6.38078 485.468 6.73526 485.927 7.44424 486.19C8.15321 486.452 9.28232 486.701 10.8316 486.937C12.5646 487.226 13.9826 487.541 15.0854 487.882C16.1883 488.196 17.1467 488.787 17.9607 489.652C18.7747 490.518 19.1817 491.724 19.1817 493.272C19.1817 494.583 18.7878 495.751 18.0001 496.774C17.2123 497.797 16.057 498.597 14.534 499.174C13.0373 499.725 11.2517 500 9.17729 500Z" fill="#2F2E44"/>
<path d="M35.8525 478.203C38.4783 478.203 40.5921 478.99 42.1939 480.563C43.8219 482.137 44.6359 484.472 44.6359 487.567V499.685H38.4914V488.511C38.4914 486.832 38.1238 485.587 37.3886 484.773C36.6534 483.934 35.5899 483.514 34.1982 483.514C32.649 483.514 31.4148 484 30.4958 484.97C29.5767 485.914 29.1172 487.331 29.1172 489.219V499.685H22.9728V470.491H29.1172V480.721C29.9312 479.908 30.9159 479.291 32.0713 478.872C33.2266 478.426 34.487 478.203 35.8525 478.203Z" fill="#2F2E44"/>
<path d="M60.5195 500C58.2876 500 56.2788 499.541 54.4932 498.623C52.7339 497.679 51.3553 496.38 50.3575 494.728C49.3597 493.075 48.8608 491.2 48.8608 489.101C48.8608 487.003 49.3597 485.127 50.3575 483.475C51.3553 481.822 52.7339 480.537 54.4932 479.619C56.2788 478.675 58.2876 478.203 60.5195 478.203C62.7515 478.203 64.7471 478.675 66.5064 479.619C68.2657 480.537 69.6443 481.822 70.6421 483.475C71.6399 485.127 72.1388 487.003 72.1388 489.101C72.1388 491.2 71.6399 493.075 70.6421 494.728C69.6443 496.38 68.2657 497.679 66.5064 498.623C64.7471 499.541 62.7515 500 60.5195 500ZM60.5195 494.964C62.095 494.964 63.3817 494.439 64.3795 493.39C65.4036 492.315 65.9156 490.885 65.9156 489.101C65.9156 487.318 65.4036 485.901 64.3795 484.852C63.3817 483.777 62.095 483.239 60.5195 483.239C58.944 483.239 57.6442 483.777 56.6201 484.852C55.5961 485.901 55.084 487.318 55.084 489.101C55.084 490.885 55.5961 492.315 56.6201 493.39C57.6442 494.439 58.944 494.964 60.5195 494.964Z" fill="#2F2E44"/>
<path d="M97.5939 478.517V499.685H91.7646V497.167C90.9506 498.085 89.979 498.793 88.8499 499.292C87.7208 499.764 86.4998 500 85.1869 500C82.4035 500 80.1978 499.2 78.5698 497.6C76.9417 496 76.1277 493.626 76.1277 490.478V478.517H82.2722V489.573C82.2722 492.983 83.7033 494.688 86.5654 494.688C88.0359 494.688 89.2175 494.216 90.1103 493.272C91.0031 492.301 91.4495 490.872 91.4495 488.983V478.517H97.5939Z" fill="#2F2E44"/>
<path d="M103.286 470.491H109.431V499.685H103.286V470.491Z" fill="#2F2E44"/>
<path d="M136.718 470.491V499.685H130.849V497.246C129.326 499.082 127.12 500 124.232 500C122.236 500 120.424 499.554 118.796 498.662C117.195 497.77 115.934 496.498 115.015 494.846C114.096 493.193 113.637 491.278 113.637 489.101C113.637 486.924 114.096 485.009 115.015 483.357C115.934 481.704 117.195 480.432 118.796 479.54C120.424 478.649 122.236 478.203 124.232 478.203C126.936 478.203 129.05 479.055 130.573 480.76V470.491H136.718ZM125.295 494.964C126.845 494.964 128.131 494.439 129.155 493.39C130.179 492.315 130.691 490.885 130.691 489.101C130.691 487.318 130.179 485.901 129.155 484.852C128.131 483.777 126.845 483.239 125.295 483.239C123.72 483.239 122.42 483.777 121.396 484.852C120.372 485.901 119.86 487.318 119.86 489.101C119.86 490.885 120.372 492.315 121.396 493.39C122.42 494.439 123.72 494.964 125.295 494.964Z" fill="#2F2E44"/>
<path d="M155.284 478.203C157.91 478.203 160.024 478.99 161.626 480.563C163.254 482.137 164.068 484.472 164.068 487.567V499.685H157.923V488.511C157.923 486.832 157.556 485.587 156.82 484.773C156.085 483.934 155.022 483.514 153.63 483.514C152.081 483.514 150.847 484 149.928 484.97C149.009 485.914 148.549 487.331 148.549 489.219V499.685H142.405V478.517H148.273V480.996C149.087 480.104 150.098 479.422 151.306 478.95C152.514 478.452 153.84 478.203 155.284 478.203Z" fill="#2F2E44"/>
<path d="M168.731 472.144H173.97L173.537 483.318H169.125L168.731 472.144Z" fill="#2F2E44"/>
<path d="M192.382 498.662C191.778 499.108 191.03 499.449 190.137 499.685C189.271 499.895 188.352 500 187.38 500C184.859 500 182.903 499.357 181.511 498.072C180.146 496.787 179.463 494.898 179.463 492.406V483.711H176.194V478.99H179.463V473.835H185.608V478.99H190.886V483.711H185.608V492.328C185.608 493.219 185.831 493.915 186.277 494.413C186.75 494.885 187.406 495.121 188.247 495.121C189.218 495.121 190.045 494.859 190.728 494.334L192.382 498.662Z" fill="#2F2E44"/>
<path d="M219.866 478.203C222.492 478.203 224.606 478.99 226.207 480.563C227.835 482.137 228.649 484.472 228.649 487.567V499.685H222.505V488.511C222.505 486.832 222.137 485.587 221.402 484.773C220.667 483.934 219.603 483.514 218.212 483.514C216.662 483.514 215.428 484 214.509 484.97C213.59 485.914 213.131 487.331 213.131 489.219V499.685H206.986V470.491H213.131V480.721C213.945 479.908 214.929 479.291 216.085 478.872C217.24 478.426 218.501 478.203 219.866 478.203Z" fill="#2F2E44"/>
<path d="M242.766 478.203C246.048 478.203 248.569 478.99 250.328 480.563C252.088 482.111 252.967 484.459 252.967 487.606V499.685H247.217V497.049C246.062 499.016 243.908 500 240.757 500C239.129 500 237.711 499.725 236.503 499.174C235.322 498.623 234.416 497.862 233.786 496.892C233.156 495.921 232.84 494.82 232.84 493.587C232.84 491.619 233.576 490.072 235.046 488.944C236.543 487.816 238.84 487.252 241.939 487.252H246.823C246.823 485.914 246.416 484.891 245.602 484.183C244.788 483.449 243.567 483.082 241.939 483.082C240.81 483.082 239.694 483.265 238.591 483.632C237.514 483.973 236.595 484.445 235.834 485.049L233.628 480.76C234.784 479.947 236.162 479.317 237.764 478.872C239.392 478.426 241.059 478.203 242.766 478.203ZM242.293 495.869C243.344 495.869 244.276 495.633 245.09 495.161C245.904 494.662 246.482 493.941 246.823 492.997V490.833H242.609C240.088 490.833 238.827 491.659 238.827 493.311C238.827 494.098 239.129 494.728 239.733 495.2C240.363 495.646 241.217 495.869 242.293 495.869Z" fill="#2F2E44"/>
<path d="M279.177 478.517L270.236 499.685H263.894L254.993 478.517H261.334L267.203 492.918L273.269 478.517H279.177Z" fill="#2F2E44"/>
<path d="M301.864 489.18C301.864 489.259 301.825 489.81 301.746 490.833H285.715C286.004 492.144 286.687 493.18 287.764 493.941C288.84 494.701 290.179 495.082 291.781 495.082C292.884 495.082 293.855 494.924 294.696 494.61C295.562 494.269 296.363 493.744 297.098 493.036L300.368 496.577C298.372 498.859 295.457 500 291.624 500C289.234 500 287.12 499.541 285.282 498.623C283.444 497.679 282.026 496.38 281.028 494.728C280.03 493.075 279.532 491.2 279.532 489.101C279.532 487.029 280.017 485.167 280.989 483.514C281.987 481.836 283.339 480.537 285.046 479.619C286.779 478.675 288.709 478.203 290.836 478.203C292.91 478.203 294.788 478.649 296.468 479.54C298.149 480.432 299.462 481.718 300.407 483.396C301.378 485.049 301.864 486.977 301.864 489.18ZM290.875 482.845C289.483 482.845 288.315 483.239 287.37 484.026C286.424 484.813 285.847 485.888 285.637 487.252H296.074C295.864 485.914 295.287 484.852 294.341 484.065C293.396 483.252 292.241 482.845 290.875 482.845Z" fill="#2F2E44"/>
<path d="M324.239 500C322.48 500 320.76 499.79 319.079 499.37C317.399 498.925 316.059 498.374 315.062 497.718L317.11 493.311C318.055 493.915 319.197 494.413 320.536 494.806C321.876 495.174 323.188 495.357 324.475 495.357C327.075 495.357 328.375 494.715 328.375 493.429C328.375 492.826 328.02 492.393 327.311 492.131C326.602 491.869 325.512 491.646 324.042 491.462C322.309 491.2 320.878 490.898 319.749 490.557C318.62 490.216 317.635 489.613 316.795 488.747C315.981 487.882 315.574 486.649 315.574 485.049C315.574 483.711 315.954 482.531 316.716 481.508C317.504 480.458 318.633 479.645 320.103 479.068C321.6 478.491 323.359 478.203 325.381 478.203C326.878 478.203 328.361 478.373 329.832 478.714C331.329 479.029 332.563 479.475 333.534 480.052L331.486 484.419C329.622 483.37 327.587 482.845 325.381 482.845C324.068 482.845 323.083 483.029 322.427 483.396C321.771 483.764 321.442 484.236 321.442 484.813C321.442 485.468 321.797 485.927 322.506 486.19C323.215 486.452 324.344 486.701 325.893 486.937C327.626 487.226 329.044 487.541 330.147 487.882C331.25 488.196 332.208 488.787 333.022 489.652C333.836 490.518 334.243 491.724 334.243 493.272C334.243 494.583 333.849 495.751 333.062 496.774C332.274 497.797 331.119 498.597 329.596 499.174C328.099 499.725 326.313 500 324.239 500Z" fill="#2F2E44"/>
<path d="M358.791 489.18C358.791 489.259 358.752 489.81 358.673 490.833H342.643C342.931 492.144 343.614 493.18 344.691 493.941C345.767 494.701 347.107 495.082 348.708 495.082C349.811 495.082 350.783 494.924 351.623 494.61C352.49 494.269 353.29 493.744 354.026 493.036L357.295 496.577C355.299 498.859 352.384 500 348.551 500C346.161 500 344.047 499.541 342.209 498.623C340.371 497.679 338.953 496.38 337.956 494.728C336.958 493.075 336.459 491.2 336.459 489.101C336.459 487.029 336.945 485.167 337.916 483.514C338.914 481.836 340.266 480.537 341.973 479.619C343.706 478.675 345.636 478.203 347.763 478.203C349.837 478.203 351.715 478.649 353.395 479.54C355.076 480.432 356.389 481.718 357.334 483.396C358.306 485.049 358.791 486.977 358.791 489.18ZM347.802 482.845C346.411 482.845 345.242 483.239 344.297 484.026C343.352 484.813 342.774 485.888 342.564 487.252H353.002C352.791 485.914 352.214 484.852 351.269 484.065C350.323 483.252 349.168 482.845 347.802 482.845Z" fill="#2F2E44"/>
<path d="M383.639 489.18C383.639 489.259 383.6 489.81 383.521 490.833H367.491C367.779 492.144 368.462 493.18 369.539 493.941C370.615 494.701 371.955 495.082 373.556 495.082C374.659 495.082 375.631 494.924 376.471 494.61C377.337 494.269 378.138 493.744 378.874 493.036L382.143 496.577C380.147 498.859 377.232 500 373.399 500C371.009 500 368.895 499.541 367.057 498.623C365.219 497.679 363.801 496.38 362.803 494.728C361.806 493.075 361.307 491.2 361.307 489.101C361.307 487.029 361.793 485.167 362.764 483.514C363.762 481.836 365.114 480.537 366.821 479.619C368.554 478.675 370.484 478.203 372.611 478.203C374.685 478.203 376.563 478.649 378.243 479.54C379.924 480.432 381.237 481.718 382.182 483.396C383.154 485.049 383.639 486.977 383.639 489.18ZM372.65 482.845C371.259 482.845 370.09 483.239 369.145 484.026C368.2 484.813 367.622 485.888 367.412 487.252H377.849C377.639 485.914 377.062 484.852 376.116 484.065C375.171 483.252 374.016 482.845 372.65 482.845Z" fill="#2F2E44"/>
<path d="M400.61 478.203C403.236 478.203 405.35 478.99 406.951 480.563C408.579 482.137 409.393 484.472 409.393 487.567V499.685H403.249V488.511C403.249 486.832 402.881 485.587 402.146 484.773C401.411 483.934 400.347 483.514 398.956 483.514C397.406 483.514 396.172 484 395.253 484.97C394.334 485.914 393.875 487.331 393.875 489.219V499.685H387.73V478.517H393.599V480.996C394.413 480.104 395.424 479.422 396.632 478.95C397.84 478.452 399.166 478.203 400.61 478.203Z" fill="#2F2E44"/>
<path d="M439.785 498.662C439.181 499.108 438.433 499.449 437.54 499.685C436.674 499.895 435.754 500 434.783 500C432.262 500 430.306 499.357 428.914 498.072C427.549 496.787 426.866 494.898 426.866 492.406V483.711H423.597V478.99H426.866V473.835H433.01V478.99H438.288V483.711H433.01V492.328C433.01 493.219 433.234 493.915 433.68 494.413C434.153 494.885 434.809 495.121 435.649 495.121C436.621 495.121 437.448 494.859 438.131 494.334L439.785 498.662Z" fill="#2F2E44"/>
<path d="M456.114 478.203C458.74 478.203 460.854 478.99 462.455 480.563C464.083 482.137 464.897 484.472 464.897 487.567V499.685H458.753V488.511C458.753 486.832 458.385 485.587 457.65 484.773C456.915 483.934 455.851 483.514 454.46 483.514C452.911 483.514 451.676 484 450.757 484.97C449.838 485.914 449.379 487.331 449.379 489.219V499.685H443.234V470.491H449.379V480.721C450.193 479.908 451.177 479.291 452.333 478.872C453.488 478.426 454.749 478.203 456.114 478.203Z" fill="#2F2E44"/>
<path d="M470.467 478.517H476.611V499.685H470.467V478.517ZM473.539 475.567C472.41 475.567 471.491 475.239 470.782 474.583C470.073 473.927 469.719 473.114 469.719 472.144C469.719 471.173 470.073 470.36 470.782 469.704C471.491 469.048 472.41 468.72 473.539 468.72C474.668 468.72 475.587 469.035 476.296 469.665C477.005 470.294 477.36 471.081 477.36 472.025C477.36 473.048 477.005 473.901 476.296 474.583C475.587 475.239 474.668 475.567 473.539 475.567Z" fill="#2F2E44"/>
<path d="M489.443 500C487.684 500 485.964 499.79 484.283 499.37C482.603 498.925 481.264 498.374 480.266 497.718L482.314 493.311C483.259 493.915 484.402 494.413 485.741 494.806C487.08 495.174 488.393 495.357 489.68 495.357C492.279 495.357 493.579 494.715 493.579 493.429C493.579 492.826 493.224 492.393 492.515 492.131C491.806 491.869 490.717 491.646 489.246 491.462C487.513 491.2 486.082 490.898 484.953 490.557C483.824 490.216 482.839 489.613 481.999 488.747C481.185 487.882 480.778 486.649 480.778 485.049C480.778 483.711 481.159 482.531 481.92 481.508C482.708 480.458 483.837 479.645 485.308 479.068C486.804 478.491 488.564 478.203 490.585 478.203C492.082 478.203 493.566 478.373 495.036 478.714C496.533 479.029 497.767 479.475 498.739 480.052L496.691 484.419C494.826 483.37 492.791 482.845 490.585 482.845C489.273 482.845 488.288 483.029 487.631 483.396C486.975 483.764 486.647 484.236 486.647 484.813C486.647 485.468 487.001 485.927 487.71 486.19C488.419 486.452 489.548 486.701 491.097 486.937C492.831 487.226 494.248 487.541 495.351 487.882C496.454 488.196 497.413 488.787 498.227 489.652C499.041 490.518 499.448 491.724 499.448 493.272C499.448 494.583 499.054 495.751 498.266 496.774C497.478 497.797 496.323 498.597 494.8 499.174C493.303 499.725 491.518 500 489.443 500Z" fill="#2F2E44"/>
<path d="M505.563 500C504.486 500 503.58 499.633 502.845 498.898C502.11 498.164 501.742 497.246 501.742 496.144C501.742 495.016 502.11 494.111 502.845 493.429C503.58 492.721 504.486 492.367 505.563 492.367C506.639 492.367 507.545 492.721 508.28 493.429C509.016 494.111 509.383 495.016 509.383 496.144C509.383 497.246 509.016 498.164 508.28 498.898C507.545 499.633 506.639 500 505.563 500Z" fill="#2F2E44"/>
<path d="M515.871 500C514.794 500 513.889 499.633 513.153 498.898C512.418 498.164 512.05 497.246 512.05 496.144C512.05 495.016 512.418 494.111 513.153 493.429C513.889 492.721 514.794 492.367 515.871 492.367C516.948 492.367 517.853 492.721 518.589 493.429C519.324 494.111 519.692 495.016 519.692 496.144C519.692 497.246 519.324 498.164 518.589 498.898C517.853 499.633 516.948 500 515.871 500Z" fill="#2F2E44"/>
<path d="M526.179 500C525.103 500 524.197 499.633 523.462 498.898C522.726 498.164 522.359 497.246 522.359 496.144C522.359 495.016 522.726 494.111 523.462 493.429C524.197 492.721 525.103 492.367 526.179 492.367C527.256 492.367 528.162 492.721 528.897 493.429C529.632 494.111 530 495.016 530 496.144C530 497.246 529.632 498.164 528.897 498.898C528.162 499.633 527.256 500 526.179 500Z" fill="#2F2E44"/>
</svg>
