<svg width="500" height="500" viewBox="0 0 500 500" fill="none" xmlns="http://www.w3.org/2000/svg">
<path d="M250 91.2C194.1 91.2 148.9 136.4 148.9 192.3C148.9 248.2 194.1 293.4 250 293.4C305.9 293.4 351.1 248.2 351.1 192.3C351.1 136.4 305.9 91.2 250 91.2Z" fill="white"/>
<path d="M447.8 402.9C424.8 432.6 395.3 457 361.4 473.9C327.9 490.6 290 500 250 500C210 500 172.1 490.6 138.6 473.9C104.7 457 75.2 432.6 52.2 402.9C75.9 349.2 189.8 322.2 250 322.2C310.2 322.2 424.1 349.2 447.8 402.9Z" fill="white"/>
</svg>
