<svg width="1236" height="695" viewBox="0 0 1236 695" fill="none" xmlns="http://www.w3.org/2000/svg">
<g clip-path="url(#clip0)">
<rect width="1236" height="695" fill="white"/>
<path d="M106.25 326.5V333H79.15V298H105.6V304.5H87.2V312.1H103.45V318.4H87.2V326.5H106.25ZM128.995 305.7C132.328 305.7 135.012 306.7 137.045 308.7C139.112 310.7 140.145 313.667 140.145 317.6V333H132.345V318.8C132.345 316.667 131.878 315.083 130.945 314.05C130.012 312.983 128.662 312.45 126.895 312.45C124.928 312.45 123.362 313.067 122.195 314.3C121.028 315.5 120.445 317.3 120.445 319.7V333H112.645V306.1H120.095V309.25C121.128 308.117 122.412 307.25 123.945 306.65C125.478 306.017 127.162 305.7 128.995 305.7ZM147.715 306.1H155.515V333H147.715V306.1ZM151.615 302.35C150.182 302.35 149.015 301.933 148.115 301.1C147.215 300.267 146.765 299.233 146.765 298C146.765 296.767 147.215 295.733 148.115 294.9C149.015 294.067 150.182 293.65 151.615 293.65C153.049 293.65 154.215 294.05 155.115 294.85C156.015 295.65 156.465 296.65 156.465 297.85C156.465 299.15 156.015 300.233 155.115 301.1C154.215 301.933 153.049 302.35 151.615 302.35ZM197.704 305.7C201.071 305.7 203.738 306.7 205.704 308.7C207.704 310.667 208.704 313.633 208.704 317.6V333H200.904V318.8C200.904 316.667 200.454 315.083 199.554 314.05C198.688 312.983 197.438 312.45 195.804 312.45C193.971 312.45 192.521 313.05 191.454 314.25C190.388 315.417 189.854 317.167 189.854 319.5V333H182.054V318.8C182.054 314.567 180.354 312.45 176.954 312.45C175.154 312.45 173.721 313.05 172.654 314.25C171.588 315.417 171.054 317.167 171.054 319.5V333H163.254V306.1H170.704V309.2C171.704 308.067 172.921 307.2 174.354 306.6C175.821 306 177.421 305.7 179.154 305.7C181.054 305.7 182.771 306.083 184.304 306.85C185.838 307.583 187.071 308.667 188.004 310.1C189.104 308.7 190.488 307.617 192.154 306.85C193.854 306.083 195.704 305.7 197.704 305.7ZM257.556 306.1L246.206 333H238.156L226.856 306.1H234.906L242.356 324.4L250.056 306.1H257.556ZM261.239 306.1H269.039V333H261.239V306.1ZM265.139 302.35C263.705 302.35 262.539 301.933 261.639 301.1C260.739 300.267 260.289 299.233 260.289 298C260.289 296.767 260.739 295.733 261.639 294.9C262.539 294.067 263.705 293.65 265.139 293.65C266.572 293.65 267.739 294.05 268.639 294.85C269.539 295.65 269.989 296.65 269.989 297.85C269.989 299.15 269.539 300.233 268.639 301.1C267.739 301.933 266.572 302.35 265.139 302.35ZM294.128 331.7C293.361 332.267 292.411 332.7 291.278 333C290.178 333.267 289.011 333.4 287.778 333.4C284.578 333.4 282.094 332.583 280.328 330.95C278.594 329.317 277.728 326.917 277.728 323.75V312.7H273.578V306.7H277.728V300.15H285.528V306.7H292.228V312.7H285.528V323.65C285.528 324.783 285.811 325.667 286.378 326.3C286.978 326.9 287.811 327.2 288.878 327.2C290.111 327.2 291.161 326.867 292.028 326.2L294.128 331.7ZM309.856 305.7C314.023 305.7 317.223 306.7 319.456 308.7C321.69 310.667 322.806 313.65 322.806 317.65V333H315.506V329.65C314.04 332.15 311.306 333.4 307.306 333.4C305.24 333.4 303.44 333.05 301.906 332.35C300.406 331.65 299.256 330.683 298.456 329.45C297.656 328.217 297.256 326.817 297.256 325.25C297.256 322.75 298.19 320.783 300.056 319.35C301.956 317.917 304.873 317.2 308.806 317.2H315.006C315.006 315.5 314.49 314.2 313.456 313.3C312.423 312.367 310.873 311.9 308.806 311.9C307.373 311.9 305.956 312.133 304.556 312.6C303.19 313.033 302.023 313.633 301.056 314.4L298.256 308.95C299.723 307.917 301.473 307.117 303.506 306.55C305.573 305.983 307.69 305.7 309.856 305.7ZM309.256 328.15C310.59 328.15 311.773 327.85 312.806 327.25C313.84 326.617 314.573 325.7 315.006 324.5V321.75H309.656C306.456 321.75 304.856 322.8 304.856 324.9C304.856 325.9 305.24 326.7 306.006 327.3C306.806 327.867 307.89 328.15 309.256 328.15ZM357.009 319.65C357.009 319.75 356.959 320.45 356.859 321.75H336.509C336.875 323.417 337.742 324.733 339.109 325.7C340.475 326.667 342.175 327.15 344.209 327.15C345.609 327.15 346.842 326.95 347.909 326.55C349.009 326.117 350.025 325.45 350.959 324.55L355.109 329.05C352.575 331.95 348.875 333.4 344.009 333.4C340.975 333.4 338.292 332.817 335.959 331.65C333.625 330.45 331.825 328.8 330.559 326.7C329.292 324.6 328.659 322.217 328.659 319.55C328.659 316.917 329.275 314.55 330.509 312.45C331.775 310.317 333.492 308.667 335.659 307.5C337.859 306.3 340.309 305.7 343.009 305.7C345.642 305.7 348.025 306.267 350.159 307.4C352.292 308.533 353.959 310.167 355.159 312.3C356.392 314.4 357.009 316.85 357.009 319.65ZM343.059 311.6C341.292 311.6 339.809 312.1 338.609 313.1C337.409 314.1 336.675 315.467 336.409 317.2H349.659C349.392 315.5 348.659 314.15 347.459 313.15C346.259 312.117 344.792 311.6 343.059 311.6ZM404.462 306.1V333H397.062V329.8C396.028 330.967 394.795 331.867 393.362 332.5C391.928 333.1 390.378 333.4 388.712 333.4C385.178 333.4 382.378 332.383 380.312 330.35C378.245 328.317 377.212 325.3 377.212 321.3V306.1H385.012V320.15C385.012 324.483 386.828 326.65 390.462 326.65C392.328 326.65 393.828 326.05 394.962 324.85C396.095 323.617 396.662 321.8 396.662 319.4V306.1H404.462ZM419.638 309.65C420.571 308.35 421.821 307.367 423.388 306.7C424.988 306.033 426.821 305.7 428.888 305.7V312.9C428.021 312.833 427.438 312.8 427.138 312.8C424.905 312.8 423.155 313.433 421.888 314.7C420.621 315.933 419.988 317.8 419.988 320.3V333H412.188V306.1H419.638V309.65ZM450.376 305.7C453.709 305.7 456.392 306.7 458.426 308.7C460.492 310.7 461.526 313.667 461.526 317.6V333H453.726V318.8C453.726 316.667 453.259 315.083 452.326 314.05C451.392 312.983 450.042 312.45 448.276 312.45C446.309 312.45 444.742 313.067 443.576 314.3C442.409 315.5 441.826 317.3 441.826 319.7V333H434.026V306.1H441.476V309.25C442.509 308.117 443.792 307.25 445.326 306.65C446.859 306.017 448.542 305.7 450.376 305.7ZM479.946 305.7C484.113 305.7 487.313 306.7 489.546 308.7C491.779 310.667 492.896 313.65 492.896 317.65V333H485.596V329.65C484.129 332.15 481.396 333.4 477.396 333.4C475.329 333.4 473.529 333.05 471.996 332.35C470.496 331.65 469.346 330.683 468.546 329.45C467.746 328.217 467.346 326.817 467.346 325.25C467.346 322.75 468.279 320.783 470.146 319.35C472.046 317.917 474.963 317.2 478.896 317.2H485.096C485.096 315.5 484.579 314.2 483.546 313.3C482.513 312.367 480.963 311.9 478.896 311.9C477.463 311.9 476.046 312.133 474.646 312.6C473.279 313.033 472.113 313.633 471.146 314.4L468.346 308.95C469.813 307.917 471.563 307.117 473.596 306.55C475.663 305.983 477.779 305.7 479.946 305.7ZM479.346 328.15C480.679 328.15 481.863 327.85 482.896 327.25C483.929 326.617 484.663 325.7 485.096 324.5V321.75H479.746C476.546 321.75 474.946 322.8 474.946 324.9C474.946 325.9 475.329 326.7 476.096 327.3C476.896 327.867 477.979 328.15 479.346 328.15ZM95.95 395.7C95.1833 396.267 94.2333 396.7 93.1 397C92 397.267 90.8333 397.4 89.6 397.4C86.4 397.4 83.9167 396.583 82.15 394.95C80.4167 393.317 79.55 390.917 79.55 387.75V376.7H75.4V370.7H79.55V364.15H87.35V370.7H94.05V376.7H87.35V387.65C87.35 388.783 87.6333 389.667 88.2 390.3C88.8 390.9 89.6333 391.2 90.7 391.2C91.9333 391.2 92.9833 390.867 93.85 390.2L95.95 395.7ZM100.829 370.1H108.629V397H100.829V370.1ZM104.729 366.35C103.295 366.35 102.129 365.933 101.229 365.1C100.329 364.267 99.8785 363.233 99.8785 362C99.8785 360.767 100.329 359.733 101.229 358.9C102.129 358.067 103.295 357.65 104.729 357.65C106.162 357.65 107.329 358.05 108.229 358.85C109.129 359.65 109.579 360.65 109.579 361.85C109.579 363.15 109.129 364.233 108.229 365.1C107.329 365.933 106.162 366.35 104.729 366.35ZM132.718 369.7C136.051 369.7 138.734 370.7 140.768 372.7C142.834 374.7 143.868 377.667 143.868 381.6V397H136.068V382.8C136.068 380.667 135.601 379.083 134.668 378.05C133.734 376.983 132.384 376.45 130.618 376.45C128.651 376.45 127.084 377.067 125.918 378.3C124.751 379.5 124.168 381.3 124.168 383.7V397H116.368V370.1H123.818V373.25C124.851 372.117 126.134 371.25 127.668 370.65C129.201 370.017 130.884 369.7 132.718 369.7ZM164.731 397.4C161.864 397.4 159.281 396.817 156.981 395.65C154.714 394.45 152.931 392.8 151.631 390.7C150.364 388.6 149.731 386.217 149.731 383.55C149.731 380.883 150.364 378.5 151.631 376.4C152.931 374.3 154.714 372.667 156.981 371.5C159.281 370.3 161.864 369.7 164.731 369.7C167.564 369.7 170.031 370.3 172.131 371.5C174.264 372.667 175.814 374.35 176.781 376.55L170.731 379.8C169.331 377.333 167.314 376.1 164.681 376.1C162.648 376.1 160.964 376.767 159.631 378.1C158.298 379.433 157.631 381.25 157.631 383.55C157.631 385.85 158.298 387.667 159.631 389C160.964 390.333 162.648 391 164.681 391C167.348 391 169.364 389.767 170.731 387.3L176.781 390.6C175.814 392.733 174.264 394.4 172.131 395.6C170.031 396.8 167.564 397.4 164.731 397.4ZM181.772 370.1H189.572V397H181.772V370.1ZM185.672 366.35C184.239 366.35 183.072 365.933 182.172 365.1C181.272 364.267 180.822 363.233 180.822 362C180.822 360.767 181.272 359.733 182.172 358.9C183.072 358.067 184.239 357.65 185.672 357.65C187.105 357.65 188.272 358.05 189.172 358.85C190.072 359.65 190.522 360.65 190.522 361.85C190.522 363.15 190.072 364.233 189.172 365.1C188.272 365.933 187.105 366.35 185.672 366.35ZM224.711 359.9V397H217.261V393.9C215.328 396.233 212.528 397.4 208.861 397.4C206.328 397.4 204.028 396.833 201.961 395.7C199.928 394.567 198.328 392.95 197.161 390.85C195.994 388.75 195.411 386.317 195.411 383.55C195.411 380.783 195.994 378.35 197.161 376.25C198.328 374.15 199.928 372.533 201.961 371.4C204.028 370.267 206.328 369.7 208.861 369.7C212.294 369.7 214.978 370.783 216.911 372.95V359.9H224.711ZM210.211 391C212.178 391 213.811 390.333 215.111 389C216.411 387.633 217.061 385.817 217.061 383.55C217.061 381.283 216.411 379.483 215.111 378.15C213.811 376.783 212.178 376.1 210.211 376.1C208.211 376.1 206.561 376.783 205.261 378.15C203.961 379.483 203.311 381.283 203.311 383.55C203.311 385.817 203.961 387.633 205.261 389C206.561 390.333 208.211 391 210.211 391ZM259.53 370.1V397H252.13V393.8C251.097 394.967 249.863 395.867 248.43 396.5C246.997 397.1 245.447 397.4 243.78 397.4C240.247 397.4 237.447 396.383 235.38 394.35C233.313 392.317 232.28 389.3 232.28 385.3V370.1H240.08V384.15C240.08 388.483 241.897 390.65 245.53 390.65C247.397 390.65 248.897 390.05 250.03 388.85C251.163 387.617 251.73 385.8 251.73 383.4V370.1H259.53ZM283.606 369.7C286.94 369.7 289.623 370.7 291.656 372.7C293.723 374.7 294.756 377.667 294.756 381.6V397H286.956V382.8C286.956 380.667 286.49 379.083 285.556 378.05C284.623 376.983 283.273 376.45 281.506 376.45C279.54 376.45 277.973 377.067 276.806 378.3C275.64 379.5 275.056 381.3 275.056 383.7V397H267.256V370.1H274.706V373.25C275.74 372.117 277.023 371.25 278.556 370.65C280.09 370.017 281.773 369.7 283.606 369.7ZM319.677 395.7C318.91 396.267 317.96 396.7 316.827 397C315.727 397.267 314.56 397.4 313.327 397.4C310.127 397.4 307.643 396.583 305.877 394.95C304.143 393.317 303.277 390.917 303.277 387.75V376.7H299.127V370.7H303.277V364.15H311.077V370.7H317.777V376.7H311.077V387.65C311.077 388.783 311.36 389.667 311.927 390.3C312.527 390.9 313.36 391.2 314.427 391.2C315.66 391.2 316.71 390.867 317.577 390.2L319.677 395.7ZM350.065 369.7C354.232 369.7 357.432 370.7 359.665 372.7C361.899 374.667 363.015 377.65 363.015 381.65V397H355.715V393.65C354.249 396.15 351.515 397.4 347.515 397.4C345.449 397.4 343.649 397.05 342.115 396.35C340.615 395.65 339.465 394.683 338.665 393.45C337.865 392.217 337.465 390.817 337.465 389.25C337.465 386.75 338.399 384.783 340.265 383.35C342.165 381.917 345.082 381.2 349.015 381.2H355.215C355.215 379.5 354.699 378.2 353.665 377.3C352.632 376.367 351.082 375.9 349.015 375.9C347.582 375.9 346.165 376.133 344.765 376.6C343.399 377.033 342.232 377.633 341.265 378.4L338.465 372.95C339.932 371.917 341.682 371.117 343.715 370.55C345.782 369.983 347.899 369.7 350.065 369.7ZM349.465 392.15C350.799 392.15 351.982 391.85 353.015 391.25C354.049 390.617 354.782 389.7 355.215 388.5V385.75H349.865C346.665 385.75 345.065 386.8 345.065 388.9C345.065 389.9 345.449 390.7 346.215 391.3C347.015 391.867 348.099 392.15 349.465 392.15ZM405.025 369.7C408.391 369.7 411.058 370.7 413.025 372.7C415.025 374.667 416.025 377.633 416.025 381.6V397H408.225V382.8C408.225 380.667 407.775 379.083 406.875 378.05C406.008 376.983 404.758 376.45 403.125 376.45C401.291 376.45 399.841 377.05 398.775 378.25C397.708 379.417 397.175 381.167 397.175 383.5V397H389.375V382.8C389.375 378.567 387.675 376.45 384.275 376.45C382.475 376.45 381.041 377.05 379.975 378.25C378.908 379.417 378.375 381.167 378.375 383.5V397H370.575V370.1H378.025V373.2C379.025 372.067 380.241 371.2 381.675 370.6C383.141 370 384.741 369.7 386.475 369.7C388.375 369.7 390.091 370.083 391.625 370.85C393.158 371.583 394.391 372.667 395.325 374.1C396.425 372.7 397.808 371.617 399.475 370.85C401.175 370.083 403.025 369.7 405.025 369.7ZM450.159 383.65C450.159 383.75 450.109 384.45 450.009 385.75H429.659C430.026 387.417 430.892 388.733 432.259 389.7C433.626 390.667 435.326 391.15 437.359 391.15C438.759 391.15 439.992 390.95 441.059 390.55C442.159 390.117 443.176 389.45 444.109 388.55L448.259 393.05C445.726 395.95 442.026 397.4 437.159 397.4C434.126 397.4 431.442 396.817 429.109 395.65C426.776 394.45 424.976 392.8 423.709 390.7C422.442 388.6 421.809 386.217 421.809 383.55C421.809 380.917 422.426 378.55 423.659 376.45C424.926 374.317 426.642 372.667 428.809 371.5C431.009 370.3 433.459 369.7 436.159 369.7C438.792 369.7 441.176 370.267 443.309 371.4C445.442 372.533 447.109 374.167 448.309 376.3C449.542 378.4 450.159 380.85 450.159 383.65ZM436.209 375.6C434.442 375.6 432.959 376.1 431.759 377.1C430.559 378.1 429.826 379.467 429.559 381.2H442.809C442.542 379.5 441.809 378.15 440.609 377.15C439.409 376.117 437.942 375.6 436.209 375.6ZM473.202 395.7C472.435 396.267 471.485 396.7 470.352 397C469.252 397.267 468.085 397.4 466.852 397.4C463.652 397.4 461.169 396.583 459.402 394.95C457.669 393.317 456.802 390.917 456.802 387.75V376.7H452.652V370.7H456.802V364.15H464.602V370.7H471.302V376.7H464.602V387.65C464.602 388.783 464.885 389.667 465.452 390.3C466.052 390.9 466.885 391.2 467.952 391.2C469.185 391.2 470.235 390.867 471.102 390.2L473.202 395.7Z" fill="#2F2E44"/>
<path d="M92.97 70.99C92.97 71.05 92.94 71.47 92.88 72.25H80.67C80.89 73.25 81.41 74.04 82.23 74.62C83.05 75.2 84.07 75.49 85.29 75.49C86.13 75.49 86.87 75.37 87.51 75.13C88.17 74.87 88.78 74.47 89.34 73.93L91.83 76.63C90.31 78.37 88.09 79.24 85.17 79.24C83.35 79.24 81.74 78.89 80.34 78.19C78.94 77.47 77.86 76.48 77.1 75.22C76.34 73.96 75.96 72.53 75.96 70.93C75.96 69.35 76.33 67.93 77.07 66.67C77.83 65.39 78.86 64.4 80.16 63.7C81.48 62.98 82.95 62.62 84.57 62.62C86.15 62.62 87.58 62.96 88.86 63.64C90.14 64.32 91.14 65.3 91.86 66.58C92.6 67.84 92.97 69.31 92.97 70.99ZM84.6 66.16C83.54 66.16 82.65 66.46 81.93 67.06C81.21 67.66 80.77 68.48 80.61 69.52H88.56C88.4 68.5 87.96 67.69 87.24 67.09C86.52 66.47 85.64 66.16 84.6 66.16ZM106.196 62.62C108.196 62.62 109.806 63.22 111.026 64.42C112.266 65.62 112.886 67.4 112.886 69.76V79H108.206V70.48C108.206 69.2 107.926 68.25 107.366 67.63C106.806 66.99 105.996 66.67 104.936 66.67C103.756 66.67 102.816 67.04 102.116 67.78C101.416 68.5 101.066 69.58 101.066 71.02V79H96.3858V62.86H100.856V64.75C101.476 64.07 102.246 63.55 103.166 63.19C104.086 62.81 105.096 62.62 106.196 62.62ZM134.254 62.86V76.3C134.254 79.26 133.484 81.46 131.944 82.9C130.404 84.34 128.154 85.06 125.194 85.06C123.634 85.06 122.154 84.87 120.754 84.49C119.354 84.11 118.194 83.56 117.274 82.84L119.134 79.48C119.814 80.04 120.674 80.48 121.714 80.8C122.754 81.14 123.794 81.31 124.834 81.31C126.454 81.31 127.644 80.94 128.404 80.2C129.184 79.48 129.574 78.38 129.574 76.9V76.21C128.354 77.55 126.654 78.22 124.474 78.22C122.994 78.22 121.634 77.9 120.394 77.26C119.174 76.6 118.204 75.68 117.484 74.5C116.764 73.32 116.404 71.96 116.404 70.42C116.404 68.88 116.764 67.52 117.484 66.34C118.204 65.16 119.174 64.25 120.394 63.61C121.634 62.95 122.994 62.62 124.474 62.62C126.814 62.62 128.594 63.39 129.814 64.93V62.86H134.254ZM125.404 74.38C126.644 74.38 127.654 74.02 128.434 73.3C129.234 72.56 129.634 71.6 129.634 70.42C129.634 69.24 129.234 68.29 128.434 67.57C127.654 66.83 126.644 66.46 125.404 66.46C124.164 66.46 123.144 66.83 122.344 67.57C121.544 68.29 121.144 69.24 121.144 70.42C121.144 71.6 121.544 72.56 122.344 73.3C123.144 74.02 124.164 74.38 125.404 74.38ZM138.91 56.74H143.59V79H138.91V56.74ZM148.233 62.86H152.913V79H148.233V62.86ZM150.573 60.61C149.713 60.61 149.013 60.36 148.473 59.86C147.933 59.36 147.663 58.74 147.663 58C147.663 57.26 147.933 56.64 148.473 56.14C149.013 55.64 149.713 55.39 150.573 55.39C151.433 55.39 152.133 55.63 152.673 56.11C153.213 56.59 153.483 57.19 153.483 57.91C153.483 58.69 153.213 59.34 152.673 59.86C152.133 60.36 151.433 60.61 150.573 60.61ZM162.986 79.24C161.646 79.24 160.336 79.08 159.056 78.76C157.776 78.42 156.756 78 155.996 77.5L157.556 74.14C158.276 74.6 159.146 74.98 160.166 75.28C161.186 75.56 162.186 75.7 163.166 75.7C165.146 75.7 166.136 75.21 166.136 74.23C166.136 73.77 165.866 73.44 165.326 73.24C164.786 73.04 163.956 72.87 162.836 72.73C161.516 72.53 160.426 72.3 159.566 72.04C158.706 71.78 157.956 71.32 157.316 70.66C156.696 70 156.386 69.06 156.386 67.84C156.386 66.82 156.676 65.92 157.256 65.14C157.856 64.34 158.716 63.72 159.836 63.28C160.976 62.84 162.316 62.62 163.856 62.62C164.996 62.62 166.126 62.75 167.246 63.01C168.386 63.25 169.326 63.59 170.066 64.03L168.506 67.36C167.086 66.56 165.536 66.16 163.856 66.16C162.856 66.16 162.106 66.3 161.606 66.58C161.106 66.86 160.856 67.22 160.856 67.66C160.856 68.16 161.126 68.51 161.666 68.71C162.206 68.91 163.066 69.1 164.246 69.28C165.566 69.5 166.646 69.74 167.486 70C168.326 70.24 169.056 70.69 169.676 71.35C170.296 72.01 170.606 72.93 170.606 74.11C170.606 75.11 170.306 76 169.706 76.78C169.106 77.56 168.226 78.17 167.066 78.61C165.926 79.03 164.566 79.24 162.986 79.24ZM183.604 62.62C185.604 62.62 187.214 63.22 188.434 64.42C189.674 65.62 190.294 67.4 190.294 69.76V79H185.614V70.48C185.614 69.2 185.334 68.25 184.774 67.63C184.214 66.99 183.404 66.67 182.344 66.67C181.164 66.67 180.224 67.04 179.524 67.78C178.824 68.5 178.474 69.58 178.474 71.02V79H173.794V56.74H178.474V64.54C179.094 63.92 179.844 63.45 180.724 63.13C181.604 62.79 182.564 62.62 183.604 62.62ZM204.646 62.62C206.646 62.62 208.256 63.22 209.476 64.42C210.716 65.62 211.336 67.4 211.336 69.76V79H206.656V70.48C206.656 69.2 206.376 68.25 205.816 67.63C205.256 66.99 204.446 66.67 203.386 66.67C202.206 66.67 201.266 67.04 200.566 67.78C199.866 68.5 199.516 69.58 199.516 71.02V79H194.836V62.86H199.306V64.75C199.926 64.07 200.696 63.55 201.616 63.19C202.536 62.81 203.546 62.62 204.646 62.62ZM231.864 70.99C231.864 71.05 231.834 71.47 231.774 72.25H219.564C219.784 73.25 220.304 74.04 221.124 74.62C221.944 75.2 222.964 75.49 224.184 75.49C225.024 75.49 225.764 75.37 226.404 75.13C227.064 74.87 227.674 74.47 228.234 73.93L230.724 76.63C229.204 78.37 226.984 79.24 224.064 79.24C222.244 79.24 220.634 78.89 219.234 78.19C217.834 77.47 216.754 76.48 215.994 75.22C215.234 73.96 214.854 72.53 214.854 70.93C214.854 69.35 215.224 67.93 215.964 66.67C216.724 65.39 217.754 64.4 219.054 63.7C220.374 62.98 221.844 62.62 223.464 62.62C225.044 62.62 226.474 62.96 227.754 63.64C229.034 64.32 230.034 65.3 230.754 66.58C231.494 67.84 231.864 69.31 231.864 70.99ZM223.494 66.16C222.434 66.16 221.544 66.46 220.824 67.06C220.104 67.66 219.664 68.48 219.504 69.52H227.454C227.294 68.5 226.854 67.69 226.134 67.09C225.414 66.47 224.534 66.16 223.494 66.16ZM239.75 64.99C240.31 64.21 241.06 63.62 242 63.22C242.96 62.82 244.06 62.62 245.3 62.62V66.94C244.78 66.9 244.43 66.88 244.25 66.88C242.91 66.88 241.86 67.26 241.1 68.02C240.34 68.76 239.96 69.88 239.96 71.38V79H235.28V62.86H239.75V64.99ZM264.676 56.74V79H260.206V77.14C259.046 78.54 257.366 79.24 255.166 79.24C253.646 79.24 252.266 78.9 251.026 78.22C249.806 77.54 248.846 76.57 248.146 75.31C247.446 74.05 247.096 72.59 247.096 70.93C247.096 69.27 247.446 67.81 248.146 66.55C248.846 65.29 249.806 64.32 251.026 63.64C252.266 62.96 253.646 62.62 255.166 62.62C257.226 62.62 258.836 63.27 259.996 64.57V56.74H264.676ZM255.976 75.4C257.156 75.4 258.136 75 258.916 74.2C259.696 73.38 260.086 72.29 260.086 70.93C260.086 69.57 259.696 68.49 258.916 67.69C258.136 66.87 257.156 66.46 255.976 66.46C254.776 66.46 253.786 66.87 253.006 67.69C252.226 68.49 251.836 69.57 251.836 70.93C251.836 72.29 252.226 73.38 253.006 74.2C253.786 75 254.776 75.4 255.976 75.4ZM271.078 79.24C270.258 79.24 269.568 78.96 269.008 78.4C268.448 77.84 268.168 77.14 268.168 76.3C268.168 75.44 268.448 74.75 269.008 74.23C269.568 73.69 270.258 73.42 271.078 73.42C271.898 73.42 272.588 73.69 273.148 74.23C273.708 74.75 273.988 75.44 273.988 76.3C273.988 77.14 273.708 77.84 273.148 78.4C272.588 78.96 271.898 79.24 271.078 79.24ZM284.934 79.24C283.234 79.24 281.704 78.89 280.344 78.19C279.004 77.47 277.954 76.48 277.194 75.22C276.434 73.96 276.054 72.53 276.054 70.93C276.054 69.33 276.434 67.9 277.194 66.64C277.954 65.38 279.004 64.4 280.344 63.7C281.704 62.98 283.234 62.62 284.934 62.62C286.634 62.62 288.154 62.98 289.494 63.7C290.834 64.4 291.884 65.38 292.644 66.64C293.404 67.9 293.784 69.33 293.784 70.93C293.784 72.53 293.404 73.96 292.644 75.22C291.884 76.48 290.834 77.47 289.494 78.19C288.154 78.89 286.634 79.24 284.934 79.24ZM284.934 75.4C286.134 75.4 287.114 75 287.874 74.2C288.654 73.38 289.044 72.29 289.044 70.93C289.044 69.57 288.654 68.49 287.874 67.69C287.114 66.87 286.134 66.46 284.934 66.46C283.734 66.46 282.744 66.87 281.964 67.69C281.184 68.49 280.794 69.57 280.794 70.93C280.794 72.29 281.184 73.38 281.964 74.2C282.744 75 283.734 75.4 284.934 75.4ZM301.682 64.99C302.242 64.21 302.992 63.62 303.932 63.22C304.892 62.82 305.992 62.62 307.232 62.62V66.94C306.712 66.9 306.362 66.88 306.182 66.88C304.842 66.88 303.792 67.26 303.032 68.02C302.272 68.76 301.892 69.88 301.892 71.38V79H297.212V62.86H301.682V64.99ZM326.819 62.86V76.3C326.819 79.26 326.049 81.46 324.509 82.9C322.969 84.34 320.719 85.06 317.759 85.06C316.199 85.06 314.719 84.87 313.319 84.49C311.919 84.11 310.759 83.56 309.839 82.84L311.699 79.48C312.379 80.04 313.239 80.48 314.279 80.8C315.319 81.14 316.359 81.31 317.399 81.31C319.019 81.31 320.209 80.94 320.969 80.2C321.749 79.48 322.139 78.38 322.139 76.9V76.21C320.919 77.55 319.219 78.22 317.039 78.22C315.559 78.22 314.199 77.9 312.959 77.26C311.739 76.6 310.769 75.68 310.049 74.5C309.329 73.32 308.969 71.96 308.969 70.42C308.969 68.88 309.329 67.52 310.049 66.34C310.769 65.16 311.739 64.25 312.959 63.61C314.199 62.95 315.559 62.62 317.039 62.62C319.379 62.62 321.159 63.39 322.379 64.93V62.86H326.819ZM317.969 74.38C319.209 74.38 320.219 74.02 320.999 73.3C321.799 72.56 322.199 71.6 322.199 70.42C322.199 69.24 321.799 68.29 320.999 67.57C320.219 66.83 319.209 66.46 317.969 66.46C316.729 66.46 315.709 66.83 314.909 67.57C314.109 68.29 313.709 69.24 313.709 70.42C313.709 71.6 314.109 72.56 314.909 73.3C315.709 74.02 316.729 74.38 317.969 74.38Z" fill="#848499"/>
<g filter="url(#filter0_d)">
<path fill-rule="evenodd" clip-rule="evenodd" d="M746.165 489.495C892.612 635.942 1130.05 635.942 1276.5 489.495C1422.94 343.048 1422.94 105.612 1276.5 -40.835L746.165 489.495Z" fill="#1DD1BB"/>
<path fill-rule="evenodd" clip-rule="evenodd" d="M1276.5 -40.8349C1130.05 -187.281 892.612 -187.281 746.165 -40.8349C599.718 105.612 599.718 343.049 746.165 489.495L1276.5 -40.8349Z" fill="#5CD1C3"/>
<circle cx="1011.33" cy="224.33" r="375" transform="rotate(45 1011.33 224.33)" fill="url(#paint0_linear)"/>
</g>
<g clip-path="url(#clip1)">
<path d="M850.021 139.844L850.059 139.838L844.47 107.16L813.562 116.979L818.186 146.207C816.594 145.2 814.695 144.792 812.829 145.056C810.963 145.32 809.252 146.239 808.002 147.648C806.751 149.057 806.042 150.866 806.002 152.749C805.961 154.633 806.592 156.47 807.782 157.932C808.971 159.393 810.641 160.385 812.494 160.728C814.346 161.072 816.261 160.746 817.895 159.808C819.529 158.87 820.777 157.381 821.415 155.608C822.053 153.835 822.04 151.893 821.378 150.129L821.406 150.124L816.443 118.758L842.436 110.5L846.855 136.332C845.224 135.367 843.301 135.019 841.436 135.35C839.57 135.681 837.885 136.669 836.685 138.136C835.486 139.602 834.851 141.45 834.897 143.344C834.942 145.238 835.665 147.054 836.934 148.461C838.202 149.868 839.933 150.774 841.813 151.015C843.692 151.256 845.596 150.815 847.178 149.773C848.761 148.731 849.917 147.157 850.439 145.335C850.961 143.514 850.812 141.566 850.021 139.844V139.844Z" fill="#6C63FF"/>
<path d="M1150.8 182.243L1150.84 182.247L1154.57 149.305L1122.15 150.134L1118.45 179.494C1117.2 178.084 1115.49 177.163 1113.63 176.898C1111.76 176.632 1109.86 177.038 1108.27 178.044C1106.68 179.05 1105.49 180.589 1104.93 182.387C1104.37 184.185 1104.46 186.125 1105.2 187.86C1105.93 189.595 1107.26 191.012 1108.95 191.858C1110.63 192.703 1112.56 192.923 1114.39 192.477C1116.22 192.031 1117.83 190.948 1118.94 189.423C1120.05 187.897 1120.57 186.028 1120.43 184.149L1120.46 184.153L1124.42 152.645L1151.68 151.947L1148.74 177.988C1147.44 176.608 1145.69 175.738 1143.81 175.537C1141.92 175.335 1140.03 175.816 1138.47 176.89C1136.91 177.965 1135.78 179.563 1135.3 181.395C1134.82 183.227 1135.01 185.172 1135.83 186.877C1136.66 188.581 1138.07 189.933 1139.81 190.688C1141.55 191.442 1143.5 191.549 1145.31 190.988C1147.12 190.428 1148.67 189.238 1149.68 187.633C1150.68 186.029 1151.08 184.117 1150.8 182.243V182.243Z" fill="#6C63FF"/>
<path d="M892.231 175.796L892.253 175.793L888.271 150.626L886.305 150.937L889.757 172.755C888.522 171.974 887.05 171.658 885.603 171.863C884.156 172.067 882.83 172.78 881.86 173.873C880.89 174.965 880.341 176.367 880.309 177.828C880.278 179.289 880.767 180.713 881.689 181.846C882.611 182.98 883.906 183.748 885.343 184.014C886.78 184.281 888.264 184.028 889.531 183.301C890.798 182.573 891.766 181.419 892.26 180.044C892.755 178.67 892.745 177.164 892.231 175.796V175.796Z" fill="#6C63FF"/>
<path d="M1078.36 167.421C1078.01 166.102 1077.23 164.938 1076.14 164.111C1075.06 163.283 1073.73 162.84 1072.37 162.851C1071 162.862 1069.68 163.327 1068.61 164.171C1067.54 165.016 1066.78 166.193 1066.45 167.517C1066.12 168.84 1066.24 170.236 1066.79 171.483C1067.34 172.731 1068.3 173.76 1069.5 174.407C1070.7 175.055 1072.08 175.285 1073.42 175.061C1074.77 174.837 1076 174.172 1076.93 173.17L1079.24 195.138L1081.22 194.93L1078.55 169.59L1078.53 169.592C1078.6 168.864 1078.54 168.128 1078.36 167.421V167.421Z" fill="#6C63FF"/>
<path d="M949.454 538.582L961.106 556.06L978.583 542.467L966.932 527.901L949.454 538.582Z" fill="#FFB8B8"/>
<path d="M963.357 546.682C963.357 546.682 946.669 547.458 951.373 556.279C956.077 565.1 959.747 614.873 973.172 611.989C986.597 609.105 998.77 593.85 998.621 583.348C998.471 572.847 996.791 568.292 996.791 568.292C996.791 568.292 993.191 561.341 995.588 559.421C997.984 557.502 998.889 545.369 993.181 541.68C987.473 537.99 970.974 533.107 970.974 533.107C970.974 533.107 969.304 548.214 963.357 546.682Z" fill="#2F2E41"/>
<path d="M971.787 579.363L967.902 600.725L988.293 602.666V586.16L971.787 579.363Z" fill="#FFB8B8"/>
<path d="M930.034 290.012C930.034 290.012 919.354 325.939 916.441 347.3C916.441 347.3 858.182 425.949 868.863 459.933C879.544 493.918 910.615 561.886 910.615 561.886C910.615 561.886 963.048 540.525 973.728 528.873L934.889 473.527C934.889 473.527 940.715 466.73 931.976 462.846C923.238 458.962 931.005 454.108 931.005 454.108C931.005 454.108 947.512 398.762 964.019 392.936L1021.31 381.284C1021.31 381.284 1017.42 298.751 1003.83 284.187C1003.83 284.187 935.86 285.158 930.034 290.012Z" fill="#2F2E41"/>
<path d="M976.641 591.986C976.641 591.986 966.932 578.392 962.077 587.131C957.222 595.87 917.412 625.97 927.122 635.68C936.831 645.39 956.251 647.332 964.99 641.506C973.728 635.68 976.641 631.796 976.641 631.796C976.641 631.796 980.525 624.999 983.438 625.97C986.351 626.941 997.032 621.115 997.032 614.318C997.032 607.522 992.177 591.015 992.177 591.015C992.177 591.015 978.583 597.812 976.641 591.986Z" fill="#2F2E41"/>
<path d="M962.077 386.139L975.67 503.627C975.67 503.627 967.903 536.641 965.961 561.886C964.019 587.132 965.961 586.161 965.961 586.161C965.961 586.161 1009.65 603.638 1017.42 591.986C1025.19 580.335 1021.31 381.284 1021.31 381.284L998.003 359.923L962.077 386.139Z" fill="#2F2E41"/>
<path d="M938.373 123.852C948.453 100.068 974.112 95.5765 974.112 95.5765C974.112 95.5765 998.819 88.9854 1019.45 120.375C1038.68 149.633 1063.48 177.046 1032.03 188.724L1023.72 171.276L1022.73 191.356C1018.15 192.308 1013.53 193.01 1008.88 193.457C973.995 197.001 941.109 202.894 940.5 190.286C939.691 173.526 928.674 146.737 938.373 123.852Z" fill="#2F2E41"/>
<path d="M979.554 170.582C995.106 170.582 1007.71 157.975 1007.71 142.424C1007.71 126.873 995.106 114.266 979.554 114.266C964.003 114.266 951.396 126.873 951.396 142.424C951.396 157.975 964.003 170.582 979.554 170.582Z" fill="#FFB8B8"/>
<path d="M971.301 160.386C971.301 160.386 970.815 189.03 967.903 195.827C964.99 202.624 1019.85 190.487 1019.85 190.487C1019.85 190.487 1000.43 176.893 997.517 158.444L971.301 160.386Z" fill="#FFB8B8"/>
<path d="M975.67 184.176L970.368 180.275L932.947 182.234L925.18 267.68C925.18 267.68 902.847 293.896 930.034 293.896C957.222 293.896 982.467 281.273 1001.89 290.012C1021.31 298.751 1037.81 197.769 1037.81 197.769L1008.78 180.275C1008.78 180.275 996.061 195.827 975.67 184.176Z" fill="#575A89"/>
<path d="M943.628 253.115L998.003 264.767V277.39L943.628 279.332C943.628 279.332 937.802 256.999 943.628 253.115Z" fill="#FFB8B8"/>
<path d="M943.628 187.088L932.947 182.233C932.947 182.233 920.325 185.146 919.354 195.827C918.383 206.508 899.934 275.447 914.499 278.36C929.064 281.273 948.483 281.273 948.483 281.273C948.483 281.273 935.86 263.795 951.396 254.086L939.744 248.26C939.744 248.26 928.092 222.043 935.86 208.45C943.628 194.856 943.628 187.088 943.628 187.088Z" fill="#575A89"/>
<path d="M944.072 115.211L969.787 101.741L1005.3 107.252L1012.65 139.702L994.357 138.999L989.248 127.077V138.802L980.809 138.478L975.91 119.497L972.849 139.702L942.848 139.09L944.072 115.211Z" fill="#2F2E41"/>
<path d="M1007.87 148.74C1010.73 148.74 1013.05 144.683 1013.05 139.678C1013.05 134.673 1010.73 130.615 1007.87 130.615C1005.01 130.615 1002.7 134.673 1002.7 139.678C1002.7 144.683 1005.01 148.74 1007.87 148.74Z" fill="#FFB8B8"/>
<path d="M1008.37 146.094C1010.32 146.094 1011.91 144.511 1011.91 142.56C1011.91 140.608 1010.32 139.025 1008.37 139.025C1006.42 139.025 1004.84 140.608 1004.84 142.56C1004.84 144.511 1006.42 146.094 1008.37 146.094Z" fill="white"/>
<path d="M1009.89 143.751C1010.21 143.751 1010.46 142.979 1010.46 142.027C1010.46 141.075 1010.21 140.304 1009.89 140.304C1009.57 140.304 1009.32 141.075 1009.32 142.027C1009.32 142.979 1009.57 143.751 1009.89 143.751Z" fill="#2F2E41"/>
<path d="M1009.8 152.817C1009.56 152.817 1009.33 152.722 1009.16 152.552C1008.99 152.383 1008.89 152.153 1008.89 151.913L1007.99 144.68H1010.7V151.913C1010.7 152.032 1010.68 152.149 1010.63 152.259C1010.59 152.369 1010.52 152.468 1010.44 152.552C1010.35 152.636 1010.25 152.703 1010.14 152.748C1010.03 152.794 1009.92 152.817 1009.8 152.817V152.817Z" fill="white"/>
<path opacity="0.1" d="M939.281 213.433L930.113 253.165H951.507L934.698 249.344L939.281 213.433Z" fill="black"/>
<path d="M1049.74 279.068L1049.53 278.885L1054.55 273.316C1054.94 272.893 1055.23 272.398 1055.42 271.861C1055.61 271.324 1055.69 270.755 1055.66 270.186C1055.63 269.617 1055.49 269.06 1055.25 268.545C1055 268.031 1054.66 267.57 1054.24 267.188L1042.44 256.555C1042.01 256.174 1041.52 255.879 1040.98 255.689C1040.45 255.499 1039.88 255.416 1039.31 255.445C1038.74 255.475 1038.18 255.616 1037.67 255.861C1037.15 256.106 1036.69 256.45 1036.31 256.874L1008.78 287.424C1008.39 287.847 1008.1 288.341 1007.91 288.878C1007.72 289.415 1007.64 289.985 1007.67 290.554C1007.7 291.123 1007.84 291.68 1008.08 292.195C1008.33 292.709 1008.67 293.17 1009.09 293.552L1020.89 304.185C1021.32 304.566 1021.81 304.861 1022.35 305.051C1022.88 305.241 1023.45 305.324 1024.02 305.295C1024.59 305.265 1025.15 305.124 1025.66 304.879C1026.18 304.634 1026.64 304.29 1027.02 303.866L1045.96 282.849L1046.17 283.032L1049.74 279.068Z" fill="#3F3D56"/>
<path d="M1040.48 273.586C1042.03 273.586 1043.28 272.334 1043.28 270.79C1043.28 269.246 1042.03 267.994 1040.48 267.994C1038.94 267.994 1037.69 269.246 1037.69 270.79C1037.69 272.334 1038.94 273.586 1040.48 273.586Z" fill="#6C63FF"/>
<path d="M1021.09 269.104C1021.09 269.104 1054.19 277.116 1046.57 288.538C1038.94 299.96 1008.83 279.083 1008.83 279.083L1021.09 269.104Z" fill="#FFB8B8"/>
<path d="M1029.07 197.77H1037.81C1037.81 197.77 1047.52 208.45 1045.58 218.16C1043.64 227.87 1037.81 273.506 1037.81 273.506C1037.81 273.506 1008.68 300.693 994.119 286.128C979.554 271.564 990.235 257.97 990.235 257.97C990.235 257.97 1009.65 273.506 1020.34 253.115L1029.07 197.77Z" fill="#575A89"/>
<path d="M1020.39 263.969L1027.08 197.896C1027.08 197.896 1041.11 156.183 1027.41 155.161C1013.72 154.138 1012.76 194.688 1012.76 194.688L988.907 266.989C988.907 266.989 1001.99 279.809 1020.39 263.969Z" fill="#FFB8B8"/>
<path fill-rule="evenodd" clip-rule="evenodd" d="M974.112 95.5765C974.112 95.5765 948.453 100.068 938.373 123.852C931.515 140.032 935.013 158.164 937.938 173.323C938.513 176.306 939.067 179.174 939.515 181.89L932.947 182.234L932.947 182.234C932.947 182.234 920.325 185.147 919.354 195.828C919.139 198.188 918.071 203.395 916.694 210.106L916.694 210.106L916.694 210.106L916.694 210.106L916.694 210.106L916.694 210.106C911.84 233.758 903.153 276.092 914.499 278.361C915.667 278.594 916.866 278.809 918.084 279.007C915.186 285.913 915.203 293.492 928.911 293.88C926.092 303.731 918.774 330.188 916.441 347.3C916.441 347.3 858.182 425.949 868.863 459.933C879.544 493.917 910.615 561.886 910.615 561.886C910.615 561.886 933.624 552.511 952.263 542.796L955.8 548.102C952.13 549.381 948.978 551.787 951.373 556.279C952.847 559.044 954.22 565.832 955.824 573.762C956.909 579.127 958.099 585.015 959.499 590.531C957.15 593.194 953.665 596.596 949.81 600.359C937.13 612.736 920.455 629.014 927.122 635.68C936.831 645.39 956.251 647.332 964.99 641.506C973.729 635.68 976.641 631.796 976.641 631.796C976.641 631.796 980.525 624.999 983.438 625.97C986.351 626.941 997.032 621.115 997.032 614.318C997.032 610.138 995.196 602.286 993.782 596.859C994.239 596.181 994.668 595.496 995.068 594.808C1004.91 596.642 1014.22 596.791 1017.42 591.986C1025.19 580.334 1021.31 381.284 1021.31 381.284C1021.31 381.284 1018.38 319.12 1008.72 293.172C1008.84 293.305 1008.96 293.432 1009.09 293.551L1020.89 304.184C1021.32 304.566 1021.81 304.86 1022.35 305.05C1022.88 305.241 1023.45 305.324 1024.02 305.294C1024.59 305.265 1025.15 305.123 1025.66 304.878C1026.18 304.633 1026.64 304.289 1027.02 303.866L1037.8 291.908C1041.54 292.18 1044.72 291.31 1046.57 288.538C1048.07 286.288 1047.99 284.17 1046.9 282.22L1049.74 279.067L1049.53 278.884L1054.55 273.316C1054.94 272.892 1055.23 272.398 1055.42 271.861C1055.61 271.324 1055.69 270.755 1055.66 270.186C1055.63 269.617 1055.49 269.059 1055.25 268.545C1055 268.03 1054.66 267.569 1054.24 267.188L1042.44 256.555C1042.01 256.173 1041.52 255.879 1040.98 255.689C1040.72 255.594 1040.44 255.526 1040.17 255.485C1042.01 241.583 1044.45 223.803 1045.58 218.16C1047.52 208.45 1037.81 197.769 1037.81 197.769L1028.78 192.327C1029.33 190.416 1029.95 188.124 1030.56 185.628L1032.03 188.724C1059.37 178.573 1044.21 156.537 1027.15 131.733L1027.15 131.733L1027.15 131.733L1027.15 131.732L1027.15 131.732L1027.15 131.732C1024.58 127.999 1021.97 124.203 1019.45 120.375C998.819 88.9854 974.112 95.5765 974.112 95.5765ZM1007.6 290.242C1007.58 290.244 1007.56 290.247 1007.54 290.249C1007.58 290.347 1007.62 290.446 1007.67 290.545C1007.66 290.441 1007.66 290.337 1007.66 290.233C1007.64 290.236 1007.62 290.239 1007.6 290.242ZM850.021 139.844L850.059 139.837L844.47 107.16L813.562 116.979L818.186 146.206C816.594 145.199 814.695 144.791 812.829 145.055C810.963 145.319 809.252 146.238 808.002 147.648C806.751 149.057 806.042 150.865 806.002 152.749C805.961 154.633 806.592 156.47 807.782 157.931C808.971 159.393 810.641 160.384 812.494 160.728C814.346 161.071 816.261 160.745 817.895 159.807C819.529 158.869 820.777 157.381 821.415 155.608C822.053 153.835 822.04 151.893 821.378 150.128L821.406 150.124L816.443 118.758L842.436 110.5L846.855 136.331C845.224 135.367 843.301 135.018 841.436 135.349C839.57 135.68 837.885 136.669 836.685 138.135C835.486 139.602 834.851 141.45 834.897 143.344C834.942 145.238 835.665 147.053 836.934 148.46C838.202 149.867 839.933 150.774 841.813 151.014C843.692 151.255 845.596 150.815 847.178 149.773C848.761 148.731 849.917 147.156 850.439 145.335C850.961 143.513 850.812 141.565 850.021 139.844ZM1150.8 182.243L1150.84 182.247L1154.57 149.305L1122.15 150.134L1118.45 179.494C1117.2 178.084 1115.49 177.163 1113.63 176.898C1111.76 176.632 1109.86 177.038 1108.27 178.044C1106.68 179.05 1105.49 180.589 1104.93 182.387C1104.37 184.185 1104.46 186.125 1105.2 187.86C1105.93 189.595 1107.26 191.012 1108.95 191.858C1110.63 192.703 1112.56 192.923 1114.39 192.477C1116.22 192.031 1117.83 190.948 1118.94 189.423C1120.05 187.897 1120.57 186.028 1120.43 184.149L1120.46 184.153L1124.42 152.645L1151.68 151.947L1148.74 177.988C1147.44 176.608 1145.69 175.738 1143.81 175.537C1141.92 175.335 1140.03 175.816 1138.47 176.89C1136.91 177.965 1135.78 179.563 1135.3 181.395C1134.82 183.227 1135.01 185.172 1135.83 186.877C1136.66 188.581 1138.07 189.933 1139.81 190.688C1141.55 191.442 1143.5 191.549 1145.31 190.988C1147.12 190.428 1148.67 189.238 1149.68 187.633C1150.68 186.029 1151.08 184.117 1150.8 182.243ZM892.253 175.793L892.231 175.796C892.745 177.164 892.755 178.67 892.26 180.044C891.766 181.419 890.798 182.573 889.531 183.301C888.264 184.028 886.78 184.281 885.343 184.014C883.906 183.748 882.611 182.98 881.689 181.846C880.767 180.713 880.278 179.289 880.309 177.828C880.341 176.367 880.89 174.965 881.86 173.873C882.83 172.78 884.156 172.067 885.603 171.863C887.049 171.658 888.522 171.974 889.757 172.755L886.305 150.937L888.271 150.626L892.253 175.793ZM1078.36 167.421C1078.01 166.102 1077.23 164.938 1076.14 164.111C1075.06 163.283 1073.73 162.84 1072.36 162.851C1071 162.862 1069.68 163.327 1068.61 164.171C1067.54 165.016 1066.78 166.193 1066.45 167.517C1066.12 168.84 1066.24 170.236 1066.79 171.483C1067.34 172.731 1068.3 173.76 1069.5 174.407C1070.7 175.055 1072.08 175.285 1073.42 175.061C1074.77 174.837 1076 174.172 1076.93 173.17L1079.24 195.138L1081.22 194.93L1078.55 169.59L1078.53 169.592C1078.6 168.864 1078.54 168.128 1078.36 167.421ZM975.67 503.627C975.67 503.627 973.505 512.83 971.175 525.234L934.889 473.527C934.889 473.527 940.715 466.73 931.976 462.846C923.238 458.962 931.005 454.107 931.005 454.107C931.005 454.107 946.785 401.198 962.916 393.397L975.67 503.627Z" fill="url(#paint1_linear)"/>
</g>
</g>
<defs>
<filter id="filter0_d" x="441" y="-346" width="1160.66" height="1160.66" filterUnits="userSpaceOnUse" color-interpolation-filters="sRGB">
<feFlood flood-opacity="0" result="BackgroundImageFix"/>
<feColorMatrix in="SourceAlpha" type="matrix" values="0 0 0 0 0 0 0 0 0 0 0 0 0 0 0 0 0 0 127 0"/>
<feOffset dx="10" dy="10"/>
<feGaussianBlur stdDeviation="25"/>
<feColorMatrix type="matrix" values="0 0 0 0 0.113725 0 0 0 0 0.819608 0 0 0 0 0.733333 0 0 0 0.15 0"/>
<feBlend mode="normal" in2="BackgroundImageFix" result="effect1_dropShadow"/>
<feBlend mode="normal" in="SourceGraphic" in2="effect1_dropShadow" result="shape"/>
</filter>
<linearGradient id="paint0_linear" x1="636.33" y1="-150.67" x2="1500.32" y2="429.596" gradientUnits="userSpaceOnUse">
<stop stop-color="white" stop-opacity="0.2"/>
<stop offset="1" stop-color="white" stop-opacity="0"/>
</linearGradient>
<linearGradient id="paint1_linear" x1="806" y1="644.783" x2="1149.26" y2="602.029" gradientUnits="userSpaceOnUse">
<stop stop-color="white" stop-opacity="0.2"/>
<stop offset="1" stop-color="white" stop-opacity="0"/>
</linearGradient>
<clipPath id="clip0">
<rect width="1236" height="695" fill="white"/>
</clipPath>
<clipPath id="clip1">
<rect width="354.942" height="550" fill="white" transform="translate(806 95)"/>
</clipPath>
</defs>
</svg>
