<svg width="1620" height="695" viewBox="0 0 1620 695" fill="none" xmlns="http://www.w3.org/2000/svg">
<g clip-path="url(#clip0)">
<rect width="1620" height="695" fill="white"/>
<path d="M140.625 321.55V330H105.395V284.5H139.78V292.95H115.86V302.83H136.985V311.02H115.86V321.55H140.625ZM170.193 294.51C174.527 294.51 178.015 295.81 180.658 298.41C183.345 301.01 184.688 304.867 184.688 309.98V330H174.548V311.54C174.548 308.767 173.942 306.708 172.728 305.365C171.515 303.978 169.76 303.285 167.463 303.285C164.907 303.285 162.87 304.087 161.353 305.69C159.837 307.25 159.078 309.59 159.078 312.71V330H148.938V295.03H158.623V299.125C159.967 297.652 161.635 296.525 163.628 295.745C165.622 294.922 167.81 294.51 170.193 294.51ZM194.53 295.03H204.67V330H194.53V295.03ZM199.6 290.155C197.736 290.155 196.22 289.613 195.05 288.53C193.88 287.447 193.295 286.103 193.295 284.5C193.295 282.897 193.88 281.553 195.05 280.47C196.22 279.387 197.736 278.845 199.6 278.845C201.463 278.845 202.98 279.365 204.15 280.405C205.32 281.445 205.905 282.745 205.905 284.305C205.905 285.995 205.32 287.403 204.15 288.53C202.98 289.613 201.463 290.155 199.6 290.155ZM259.516 294.51C263.892 294.51 267.359 295.81 269.916 298.41C272.516 300.967 273.816 304.823 273.816 309.98V330H263.676V311.54C263.676 308.767 263.091 306.708 261.921 305.365C260.794 303.978 259.169 303.285 257.046 303.285C254.662 303.285 252.777 304.065 251.391 305.625C250.004 307.142 249.311 309.417 249.311 312.45V330H239.171V311.54C239.171 306.037 236.961 303.285 232.541 303.285C230.201 303.285 228.337 304.065 226.951 305.625C225.564 307.142 224.871 309.417 224.871 312.45V330H214.731V295.03H224.416V299.06C225.716 297.587 227.297 296.46 229.161 295.68C231.067 294.9 233.147 294.51 235.401 294.51C237.871 294.51 240.102 295.008 242.096 296.005C244.089 296.958 245.692 298.367 246.906 300.23C248.336 298.41 250.134 297.002 252.301 296.005C254.511 295.008 256.916 294.51 259.516 294.51ZM337.323 295.03L322.568 330H312.103L297.413 295.03H307.878L317.563 318.82L327.573 295.03H337.323ZM342.11 295.03H352.25V330H342.11V295.03ZM347.18 290.155C345.317 290.155 343.8 289.613 342.63 288.53C341.46 287.447 340.875 286.103 340.875 284.5C340.875 282.897 341.46 281.553 342.63 280.47C343.8 279.387 345.317 278.845 347.18 278.845C349.044 278.845 350.56 279.365 351.73 280.405C352.9 281.445 353.485 282.745 353.485 284.305C353.485 285.995 352.9 287.403 351.73 288.53C350.56 289.613 349.044 290.155 347.18 290.155ZM384.866 328.31C383.869 329.047 382.634 329.61 381.161 330C379.731 330.347 378.214 330.52 376.611 330.52C372.451 330.52 369.223 329.458 366.926 327.335C364.673 325.212 363.546 322.092 363.546 317.975V303.61H358.151V295.81H363.546V287.295H373.686V295.81H382.396V303.61H373.686V317.845C373.686 319.318 374.054 320.467 374.791 321.29C375.571 322.07 376.654 322.46 378.041 322.46C379.644 322.46 381.009 322.027 382.136 321.16L384.866 328.31ZM405.313 294.51C410.73 294.51 414.89 295.81 417.793 298.41C420.696 300.967 422.148 304.845 422.148 310.045V330H412.658V325.645C410.751 328.895 407.198 330.52 401.998 330.52C399.311 330.52 396.971 330.065 394.978 329.155C393.028 328.245 391.533 326.988 390.493 325.385C389.453 323.782 388.933 321.962 388.933 319.925C388.933 316.675 390.146 314.118 392.573 312.255C395.043 310.392 398.835 309.46 403.948 309.46H412.008C412.008 307.25 411.336 305.56 409.993 304.39C408.65 303.177 406.635 302.57 403.948 302.57C402.085 302.57 400.243 302.873 398.423 303.48C396.646 304.043 395.13 304.823 393.873 305.82L390.233 298.735C392.14 297.392 394.415 296.352 397.058 295.615C399.745 294.878 402.496 294.51 405.313 294.51ZM404.533 323.695C406.266 323.695 407.805 323.305 409.148 322.525C410.491 321.702 411.445 320.51 412.008 318.95V315.375H405.053C400.893 315.375 398.813 316.74 398.813 319.47C398.813 320.77 399.311 321.81 400.308 322.59C401.348 323.327 402.756 323.695 404.533 323.695ZM466.611 312.645C466.611 312.775 466.546 313.685 466.416 315.375H439.961C440.438 317.542 441.565 319.253 443.341 320.51C445.118 321.767 447.328 322.395 449.971 322.395C451.791 322.395 453.395 322.135 454.781 321.615C456.211 321.052 457.533 320.185 458.746 319.015L464.141 324.865C460.848 328.635 456.038 330.52 449.711 330.52C445.768 330.52 442.28 329.762 439.246 328.245C436.213 326.685 433.873 324.54 432.226 321.81C430.58 319.08 429.756 315.982 429.756 312.515C429.756 309.092 430.558 306.015 432.161 303.285C433.808 300.512 436.04 298.367 438.856 296.85C441.716 295.29 444.901 294.51 448.411 294.51C451.835 294.51 454.933 295.247 457.706 296.72C460.48 298.193 462.646 300.317 464.206 303.09C465.81 305.82 466.611 309.005 466.611 312.645ZM448.476 302.18C446.18 302.18 444.251 302.83 442.691 304.13C441.131 305.43 440.178 307.207 439.831 309.46H457.056C456.71 307.25 455.756 305.495 454.196 304.195C452.636 302.852 450.73 302.18 448.476 302.18ZM528.3 295.03V330H518.68V325.84C517.337 327.357 515.734 328.527 513.87 329.35C512.007 330.13 509.992 330.52 507.825 330.52C503.232 330.52 499.592 329.198 496.905 326.555C494.219 323.912 492.875 319.99 492.875 314.79V295.03H503.015V313.295C503.015 318.928 505.377 321.745 510.1 321.745C512.527 321.745 514.477 320.965 515.95 319.405C517.424 317.802 518.16 315.44 518.16 312.32V295.03H528.3ZM548.029 299.645C549.243 297.955 550.868 296.677 552.904 295.81C554.984 294.943 557.368 294.51 560.054 294.51V303.87C558.928 303.783 558.169 303.74 557.779 303.74C554.876 303.74 552.601 304.563 550.954 306.21C549.308 307.813 548.484 310.24 548.484 313.49V330H538.344V295.03H548.029V299.645ZM587.989 294.51C592.322 294.51 595.81 295.81 598.454 298.41C601.14 301.01 602.484 304.867 602.484 309.98V330H592.344V311.54C592.344 308.767 591.737 306.708 590.524 305.365C589.31 303.978 587.555 303.285 585.259 303.285C582.702 303.285 580.665 304.087 579.149 305.69C577.632 307.25 576.874 309.59 576.874 312.71V330H566.734V295.03H576.419V299.125C577.762 297.652 579.43 296.525 581.424 295.745C583.417 294.922 585.605 294.51 587.989 294.51ZM626.43 294.51C631.847 294.51 636.007 295.81 638.91 298.41C641.813 300.967 643.265 304.845 643.265 310.045V330H633.775V325.645C631.868 328.895 628.315 330.52 623.115 330.52C620.428 330.52 618.088 330.065 616.095 329.155C614.145 328.245 612.65 326.988 611.61 325.385C610.57 323.782 610.05 321.962 610.05 319.925C610.05 316.675 611.263 314.118 613.69 312.255C616.16 310.392 619.952 309.46 625.065 309.46H633.125C633.125 307.25 632.453 305.56 631.11 304.39C629.767 303.177 627.752 302.57 625.065 302.57C623.202 302.57 621.36 302.873 619.54 303.48C617.763 304.043 616.247 304.823 614.99 305.82L611.35 298.735C613.257 297.392 615.532 296.352 618.175 295.615C620.862 294.878 623.613 294.51 626.43 294.51ZM625.65 323.695C627.383 323.695 628.922 323.305 630.265 322.525C631.608 321.702 632.562 320.51 633.125 318.95V315.375H626.17C622.01 315.375 619.93 316.74 619.93 319.47C619.93 320.77 620.428 321.81 621.425 322.59C622.465 323.327 623.873 323.695 625.65 323.695ZM127.235 409.31C126.238 410.047 125.003 410.61 123.53 411C122.1 411.347 120.583 411.52 118.98 411.52C114.82 411.52 111.592 410.458 109.295 408.335C107.042 406.212 105.915 403.092 105.915 398.975V384.61H100.52V376.81H105.915V368.295H116.055V376.81H124.765V384.61H116.055V398.845C116.055 400.318 116.423 401.467 117.16 402.29C117.94 403.07 119.023 403.46 120.41 403.46C122.013 403.46 123.378 403.027 124.505 402.16L127.235 409.31ZM133.577 376.03H143.717V411H133.577V376.03ZM138.647 371.155C136.784 371.155 135.267 370.613 134.097 369.53C132.927 368.447 132.342 367.103 132.342 365.5C132.342 363.897 132.927 362.553 134.097 361.47C135.267 360.387 136.784 359.845 138.647 359.845C140.51 359.845 142.027 360.365 143.197 361.405C144.367 362.445 144.952 363.745 144.952 365.305C144.952 366.995 144.367 368.403 143.197 369.53C142.027 370.613 140.51 371.155 138.647 371.155ZM175.033 375.51C179.366 375.51 182.855 376.81 185.498 379.41C188.185 382.01 189.528 385.867 189.528 390.98V411H179.388V392.54C179.388 389.767 178.781 387.708 177.568 386.365C176.355 384.978 174.6 384.285 172.303 384.285C169.746 384.285 167.71 385.087 166.193 386.69C164.676 388.25 163.918 390.59 163.918 393.71V411H153.778V376.03H163.463V380.125C164.806 378.652 166.475 377.525 168.468 376.745C170.461 375.922 172.65 375.51 175.033 375.51ZM216.65 411.52C212.923 411.52 209.565 410.762 206.575 409.245C203.628 407.685 201.31 405.54 199.62 402.81C197.973 400.08 197.15 396.982 197.15 393.515C197.15 390.048 197.973 386.95 199.62 384.22C201.31 381.49 203.628 379.367 206.575 377.85C209.565 376.29 212.923 375.51 216.65 375.51C220.333 375.51 223.54 376.29 226.27 377.85C229.043 379.367 231.058 381.555 232.315 384.415L224.45 388.64C222.63 385.433 220.008 383.83 216.585 383.83C213.942 383.83 211.753 384.697 210.02 386.43C208.287 388.163 207.42 390.525 207.42 393.515C207.42 396.505 208.287 398.867 210.02 400.6C211.753 402.333 213.942 403.2 216.585 403.2C220.052 403.2 222.673 401.597 224.45 398.39L232.315 402.68C231.058 405.453 229.043 407.62 226.27 409.18C223.54 410.74 220.333 411.52 216.65 411.52ZM238.803 376.03H248.943V411H238.803V376.03ZM243.873 371.155C242.01 371.155 240.493 370.613 239.323 369.53C238.153 368.447 237.568 367.103 237.568 365.5C237.568 363.897 238.153 362.553 239.323 361.47C240.493 360.387 242.01 359.845 243.873 359.845C245.737 359.845 247.253 360.365 248.423 361.405C249.593 362.445 250.178 363.745 250.178 365.305C250.178 366.995 249.593 368.403 248.423 369.53C247.253 370.613 245.737 371.155 243.873 371.155ZM294.624 362.77V411H284.939V406.97C282.426 410.003 278.786 411.52 274.019 411.52C270.726 411.52 267.736 410.783 265.049 409.31C262.406 407.837 260.326 405.735 258.809 403.005C257.293 400.275 256.534 397.112 256.534 393.515C256.534 389.918 257.293 386.755 258.809 384.025C260.326 381.295 262.406 379.193 265.049 377.72C267.736 376.247 270.726 375.51 274.019 375.51C278.483 375.51 281.971 376.918 284.484 379.735V362.77H294.624ZM275.774 403.2C278.331 403.2 280.454 402.333 282.144 400.6C283.834 398.823 284.679 396.462 284.679 393.515C284.679 390.568 283.834 388.228 282.144 386.495C280.454 384.718 278.331 383.83 275.774 383.83C273.174 383.83 271.029 384.718 269.339 386.495C267.649 388.228 266.804 390.568 266.804 393.515C266.804 396.462 267.649 398.823 269.339 400.6C271.029 402.333 273.174 403.2 275.774 403.2ZM339.889 376.03V411H330.269V406.84C328.926 408.357 327.322 409.527 325.459 410.35C323.596 411.13 321.581 411.52 319.414 411.52C314.821 411.52 311.181 410.198 308.494 407.555C305.807 404.912 304.464 400.99 304.464 395.79V376.03H314.604V394.295C314.604 399.928 316.966 402.745 321.689 402.745C324.116 402.745 326.066 401.965 327.539 400.405C329.012 398.802 329.749 396.44 329.749 393.32V376.03H339.889ZM371.188 375.51C375.521 375.51 379.01 376.81 381.653 379.41C384.34 382.01 385.683 385.867 385.683 390.98V411H375.543V392.54C375.543 389.767 374.936 387.708 373.723 386.365C372.51 384.978 370.755 384.285 368.458 384.285C365.901 384.285 363.865 385.087 362.348 386.69C360.831 388.25 360.073 390.59 360.073 393.71V411H349.933V376.03H359.618V380.125C360.961 378.652 362.63 377.525 364.623 376.745C366.616 375.922 368.805 375.51 371.188 375.51ZM418.08 409.31C417.083 410.047 415.848 410.61 414.375 411C412.945 411.347 411.428 411.52 409.825 411.52C405.665 411.52 402.436 410.458 400.14 408.335C397.886 406.212 396.76 403.092 396.76 398.975V384.61H391.365V376.81H396.76V368.295H406.9V376.81H415.61V384.61H406.9V398.845C406.9 400.318 407.268 401.467 408.005 402.29C408.785 403.07 409.868 403.46 411.255 403.46C412.858 403.46 414.223 403.027 415.35 402.16L418.08 409.31ZM457.585 375.51C463.001 375.51 467.161 376.81 470.065 379.41C472.968 381.967 474.42 385.845 474.42 391.045V411H464.93V406.645C463.023 409.895 459.47 411.52 454.27 411.52C451.583 411.52 449.243 411.065 447.25 410.155C445.3 409.245 443.805 407.988 442.765 406.385C441.725 404.782 441.205 402.962 441.205 400.925C441.205 397.675 442.418 395.118 444.845 393.255C447.315 391.392 451.106 390.46 456.22 390.46H464.28C464.28 388.25 463.608 386.56 462.265 385.39C460.921 384.177 458.906 383.57 456.22 383.57C454.356 383.57 452.515 383.873 450.695 384.48C448.918 385.043 447.401 385.823 446.145 386.82L442.505 379.735C444.411 378.392 446.686 377.352 449.33 376.615C452.016 375.878 454.768 375.51 457.585 375.51ZM456.805 404.695C458.538 404.695 460.076 404.305 461.42 403.525C462.763 402.702 463.716 401.51 464.28 399.95V396.375H457.325C453.165 396.375 451.085 397.74 451.085 400.47C451.085 401.77 451.583 402.81 452.58 403.59C453.62 404.327 455.028 404.695 456.805 404.695ZM529.032 375.51C533.409 375.51 536.875 376.81 539.432 379.41C542.032 381.967 543.332 385.823 543.332 390.98V411H533.192V392.54C533.192 389.767 532.607 387.708 531.437 386.365C530.31 384.978 528.685 384.285 526.562 384.285C524.179 384.285 522.294 385.065 520.907 386.625C519.52 388.142 518.827 390.417 518.827 393.45V411H508.687V392.54C508.687 387.037 506.477 384.285 502.057 384.285C499.717 384.285 497.854 385.065 496.467 386.625C495.08 388.142 494.387 390.417 494.387 393.45V411H484.247V376.03H493.932V380.06C495.232 378.587 496.814 377.46 498.677 376.68C500.584 375.9 502.664 375.51 504.917 375.51C507.387 375.51 509.619 376.008 511.612 377.005C513.605 377.958 515.209 379.367 516.422 381.23C517.852 379.41 519.65 378.002 521.817 377.005C524.027 376.008 526.432 375.51 529.032 375.51ZM587.707 393.645C587.707 393.775 587.642 394.685 587.512 396.375H561.057C561.533 398.542 562.66 400.253 564.437 401.51C566.213 402.767 568.423 403.395 571.067 403.395C572.887 403.395 574.49 403.135 575.877 402.615C577.307 402.052 578.628 401.185 579.842 400.015L585.237 405.865C581.943 409.635 577.133 411.52 570.807 411.52C566.863 411.52 563.375 410.762 560.342 409.245C557.308 407.685 554.968 405.54 553.322 402.81C551.675 400.08 550.852 396.982 550.852 393.515C550.852 390.092 551.653 387.015 553.257 384.285C554.903 381.512 557.135 379.367 559.952 377.85C562.812 376.29 565.997 375.51 569.507 375.51C572.93 375.51 576.028 376.247 578.802 377.72C581.575 379.193 583.742 381.317 585.302 384.09C586.905 386.82 587.707 390.005 587.707 393.645ZM569.572 383.18C567.275 383.18 565.347 383.83 563.787 385.13C562.227 386.43 561.273 388.207 560.927 390.46H578.152C577.805 388.25 576.852 386.495 575.292 385.195C573.732 383.852 571.825 383.18 569.572 383.18ZM617.663 409.31C616.666 410.047 615.431 410.61 613.958 411C612.528 411.347 611.011 411.52 609.408 411.52C605.248 411.52 602.019 410.458 599.723 408.335C597.469 406.212 596.343 403.092 596.343 398.975V384.61H590.948V376.81H596.343V368.295H606.483V376.81H615.193V384.61H606.483V398.845C606.483 400.318 606.851 401.467 607.588 402.29C608.368 403.07 609.451 403.46 610.838 403.46C612.441 403.46 613.806 403.027 614.933 402.16L617.663 409.31Z" fill="#2F2E44"/>
<path d="M117.97 95.99C117.97 96.05 117.94 96.47 117.88 97.25H105.67C105.89 98.25 106.41 99.04 107.23 99.62C108.05 100.2 109.07 100.49 110.29 100.49C111.13 100.49 111.87 100.37 112.51 100.13C113.17 99.87 113.78 99.47 114.34 98.93L116.83 101.63C115.31 103.37 113.09 104.24 110.17 104.24C108.35 104.24 106.74 103.89 105.34 103.19C103.94 102.47 102.86 101.48 102.1 100.22C101.34 98.96 100.96 97.53 100.96 95.93C100.96 94.35 101.33 92.93 102.07 91.67C102.83 90.39 103.86 89.4 105.16 88.7C106.48 87.98 107.95 87.62 109.57 87.62C111.15 87.62 112.58 87.96 113.86 88.64C115.14 89.32 116.14 90.3 116.86 91.58C117.6 92.84 117.97 94.31 117.97 95.99ZM109.6 91.16C108.54 91.16 107.65 91.46 106.93 92.06C106.21 92.66 105.77 93.48 105.61 94.52H113.56C113.4 93.5 112.96 92.69 112.24 92.09C111.52 91.47 110.64 91.16 109.6 91.16ZM131.196 87.62C133.196 87.62 134.806 88.22 136.026 89.42C137.266 90.62 137.886 92.4 137.886 94.76V104H133.206V95.48C133.206 94.2 132.926 93.25 132.366 92.63C131.806 91.99 130.996 91.67 129.936 91.67C128.756 91.67 127.816 92.04 127.116 92.78C126.416 93.5 126.066 94.58 126.066 96.02V104H121.386V87.86H125.856V89.75C126.476 89.07 127.246 88.55 128.166 88.19C129.086 87.81 130.096 87.62 131.196 87.62ZM159.254 87.86V101.3C159.254 104.26 158.484 106.46 156.944 107.9C155.404 109.34 153.154 110.06 150.194 110.06C148.634 110.06 147.154 109.87 145.754 109.49C144.354 109.11 143.194 108.56 142.274 107.84L144.134 104.48C144.814 105.04 145.674 105.48 146.714 105.8C147.754 106.14 148.794 106.31 149.834 106.31C151.454 106.31 152.644 105.94 153.404 105.2C154.184 104.48 154.574 103.38 154.574 101.9V101.21C153.354 102.55 151.654 103.22 149.474 103.22C147.994 103.22 146.634 102.9 145.394 102.26C144.174 101.6 143.204 100.68 142.484 99.5C141.764 98.32 141.404 96.96 141.404 95.42C141.404 93.88 141.764 92.52 142.484 91.34C143.204 90.16 144.174 89.25 145.394 88.61C146.634 87.95 147.994 87.62 149.474 87.62C151.814 87.62 153.594 88.39 154.814 89.93V87.86H159.254ZM150.404 99.38C151.644 99.38 152.654 99.02 153.434 98.3C154.234 97.56 154.634 96.6 154.634 95.42C154.634 94.24 154.234 93.29 153.434 92.57C152.654 91.83 151.644 91.46 150.404 91.46C149.164 91.46 148.144 91.83 147.344 92.57C146.544 93.29 146.144 94.24 146.144 95.42C146.144 96.6 146.544 97.56 147.344 98.3C148.144 99.02 149.164 99.38 150.404 99.38ZM163.91 81.74H168.59V104H163.91V81.74ZM173.233 87.86H177.913V104H173.233V87.86ZM175.573 85.61C174.713 85.61 174.013 85.36 173.473 84.86C172.933 84.36 172.663 83.74 172.663 83C172.663 82.26 172.933 81.64 173.473 81.14C174.013 80.64 174.713 80.39 175.573 80.39C176.433 80.39 177.133 80.63 177.673 81.11C178.213 81.59 178.483 82.19 178.483 82.91C178.483 83.69 178.213 84.34 177.673 84.86C177.133 85.36 176.433 85.61 175.573 85.61ZM187.986 104.24C186.646 104.24 185.336 104.08 184.056 103.76C182.776 103.42 181.756 103 180.996 102.5L182.556 99.14C183.276 99.6 184.146 99.98 185.166 100.28C186.186 100.56 187.186 100.7 188.166 100.7C190.146 100.7 191.136 100.21 191.136 99.23C191.136 98.77 190.866 98.44 190.326 98.24C189.786 98.04 188.956 97.87 187.836 97.73C186.516 97.53 185.426 97.3 184.566 97.04C183.706 96.78 182.956 96.32 182.316 95.66C181.696 95 181.386 94.06 181.386 92.84C181.386 91.82 181.676 90.92 182.256 90.14C182.856 89.34 183.716 88.72 184.836 88.28C185.976 87.84 187.316 87.62 188.856 87.62C189.996 87.62 191.126 87.75 192.246 88.01C193.386 88.25 194.326 88.59 195.066 89.03L193.506 92.36C192.086 91.56 190.536 91.16 188.856 91.16C187.856 91.16 187.106 91.3 186.606 91.58C186.106 91.86 185.856 92.22 185.856 92.66C185.856 93.16 186.126 93.51 186.666 93.71C187.206 93.91 188.066 94.1 189.246 94.28C190.566 94.5 191.646 94.74 192.486 95C193.326 95.24 194.056 95.69 194.676 96.35C195.296 97.01 195.606 97.93 195.606 99.11C195.606 100.11 195.306 101 194.706 101.78C194.106 102.56 193.226 103.17 192.066 103.61C190.926 104.03 189.566 104.24 187.986 104.24ZM208.604 87.62C210.604 87.62 212.214 88.22 213.434 89.42C214.674 90.62 215.294 92.4 215.294 94.76V104H210.614V95.48C210.614 94.2 210.334 93.25 209.774 92.63C209.214 91.99 208.404 91.67 207.344 91.67C206.164 91.67 205.224 92.04 204.524 92.78C203.824 93.5 203.474 94.58 203.474 96.02V104H198.794V81.74H203.474V89.54C204.094 88.92 204.844 88.45 205.724 88.13C206.604 87.79 207.564 87.62 208.604 87.62ZM229.646 87.62C231.646 87.62 233.256 88.22 234.476 89.42C235.716 90.62 236.336 92.4 236.336 94.76V104H231.656V95.48C231.656 94.2 231.376 93.25 230.816 92.63C230.256 91.99 229.446 91.67 228.386 91.67C227.206 91.67 226.266 92.04 225.566 92.78C224.866 93.5 224.516 94.58 224.516 96.02V104H219.836V87.86H224.306V89.75C224.926 89.07 225.696 88.55 226.616 88.19C227.536 87.81 228.546 87.62 229.646 87.62ZM256.864 95.99C256.864 96.05 256.834 96.47 256.774 97.25H244.564C244.784 98.25 245.304 99.04 246.124 99.62C246.944 100.2 247.964 100.49 249.184 100.49C250.024 100.49 250.764 100.37 251.404 100.13C252.064 99.87 252.674 99.47 253.234 98.93L255.724 101.63C254.204 103.37 251.984 104.24 249.064 104.24C247.244 104.24 245.634 103.89 244.234 103.19C242.834 102.47 241.754 101.48 240.994 100.22C240.234 98.96 239.854 97.53 239.854 95.93C239.854 94.35 240.224 92.93 240.964 91.67C241.724 90.39 242.754 89.4 244.054 88.7C245.374 87.98 246.844 87.62 248.464 87.62C250.044 87.62 251.474 87.96 252.754 88.64C254.034 89.32 255.034 90.3 255.754 91.58C256.494 92.84 256.864 94.31 256.864 95.99ZM248.494 91.16C247.434 91.16 246.544 91.46 245.824 92.06C245.104 92.66 244.664 93.48 244.504 94.52H252.454C252.294 93.5 251.854 92.69 251.134 92.09C250.414 91.47 249.534 91.16 248.494 91.16ZM264.75 89.99C265.31 89.21 266.06 88.62 267 88.22C267.96 87.82 269.06 87.62 270.3 87.62V91.94C269.78 91.9 269.43 91.88 269.25 91.88C267.91 91.88 266.86 92.26 266.1 93.02C265.34 93.76 264.96 94.88 264.96 96.38V104H260.28V87.86H264.75V89.99ZM289.676 81.74V104H285.206V102.14C284.046 103.54 282.366 104.24 280.166 104.24C278.646 104.24 277.266 103.9 276.026 103.22C274.806 102.54 273.846 101.57 273.146 100.31C272.446 99.05 272.096 97.59 272.096 95.93C272.096 94.27 272.446 92.81 273.146 91.55C273.846 90.29 274.806 89.32 276.026 88.64C277.266 87.96 278.646 87.62 280.166 87.62C282.226 87.62 283.836 88.27 284.996 89.57V81.74H289.676ZM280.976 100.4C282.156 100.4 283.136 100 283.916 99.2C284.696 98.38 285.086 97.29 285.086 95.93C285.086 94.57 284.696 93.49 283.916 92.69C283.136 91.87 282.156 91.46 280.976 91.46C279.776 91.46 278.786 91.87 278.006 92.69C277.226 93.49 276.836 94.57 276.836 95.93C276.836 97.29 277.226 98.38 278.006 99.2C278.786 100 279.776 100.4 280.976 100.4ZM296.078 104.24C295.258 104.24 294.568 103.96 294.008 103.4C293.448 102.84 293.168 102.14 293.168 101.3C293.168 100.44 293.448 99.75 294.008 99.23C294.568 98.69 295.258 98.42 296.078 98.42C296.898 98.42 297.588 98.69 298.148 99.23C298.708 99.75 298.988 100.44 298.988 101.3C298.988 102.14 298.708 102.84 298.148 103.4C297.588 103.96 296.898 104.24 296.078 104.24ZM309.934 104.24C308.234 104.24 306.704 103.89 305.344 103.19C304.004 102.47 302.954 101.48 302.194 100.22C301.434 98.96 301.054 97.53 301.054 95.93C301.054 94.33 301.434 92.9 302.194 91.64C302.954 90.38 304.004 89.4 305.344 88.7C306.704 87.98 308.234 87.62 309.934 87.62C311.634 87.62 313.154 87.98 314.494 88.7C315.834 89.4 316.884 90.38 317.644 91.64C318.404 92.9 318.784 94.33 318.784 95.93C318.784 97.53 318.404 98.96 317.644 100.22C316.884 101.48 315.834 102.47 314.494 103.19C313.154 103.89 311.634 104.24 309.934 104.24ZM309.934 100.4C311.134 100.4 312.114 100 312.874 99.2C313.654 98.38 314.044 97.29 314.044 95.93C314.044 94.57 313.654 93.49 312.874 92.69C312.114 91.87 311.134 91.46 309.934 91.46C308.734 91.46 307.744 91.87 306.964 92.69C306.184 93.49 305.794 94.57 305.794 95.93C305.794 97.29 306.184 98.38 306.964 99.2C307.744 100 308.734 100.4 309.934 100.4ZM326.682 89.99C327.242 89.21 327.992 88.62 328.932 88.22C329.892 87.82 330.992 87.62 332.232 87.62V91.94C331.712 91.9 331.362 91.88 331.182 91.88C329.842 91.88 328.792 92.26 328.032 93.02C327.272 93.76 326.892 94.88 326.892 96.38V104H322.212V87.86H326.682V89.99ZM351.819 87.86V101.3C351.819 104.26 351.049 106.46 349.509 107.9C347.969 109.34 345.719 110.06 342.759 110.06C341.199 110.06 339.719 109.87 338.319 109.49C336.919 109.11 335.759 108.56 334.839 107.84L336.699 104.48C337.379 105.04 338.239 105.48 339.279 105.8C340.319 106.14 341.359 106.31 342.399 106.31C344.019 106.31 345.209 105.94 345.969 105.2C346.749 104.48 347.139 103.38 347.139 101.9V101.21C345.919 102.55 344.219 103.22 342.039 103.22C340.559 103.22 339.199 102.9 337.959 102.26C336.739 101.6 335.769 100.68 335.049 99.5C334.329 98.32 333.969 96.96 333.969 95.42C333.969 93.88 334.329 92.52 335.049 91.34C335.769 90.16 336.739 89.25 337.959 88.61C339.199 87.95 340.559 87.62 342.039 87.62C344.379 87.62 346.159 88.39 347.379 89.93V87.86H351.819ZM342.969 99.38C344.209 99.38 345.219 99.02 345.999 98.3C346.799 97.56 347.199 96.6 347.199 95.42C347.199 94.24 346.799 93.29 345.999 92.57C345.219 91.83 344.209 91.46 342.969 91.46C341.729 91.46 340.709 91.83 339.909 92.57C339.109 93.29 338.709 94.24 338.709 95.42C338.709 96.6 339.109 97.56 339.909 98.3C340.709 99.02 341.729 99.38 342.969 99.38Z" fill="#848499"/>
<g filter="url(#filter0_d)">
<path fill-rule="evenodd" clip-rule="evenodd" d="M1355.33 264.33L1620.5 529.495C1766.94 383.049 1766.94 145.612 1620.5 -0.834927L1355.33 264.33Z" fill="#F9A922"/>
<path fill-rule="evenodd" clip-rule="evenodd" d="M1355.33 264.33L1620.5 -0.835004C1474.05 -147.282 1236.61 -147.282 1090.17 -0.834928L1355.33 264.33Z" fill="#F9B33C"/>
<path fill-rule="evenodd" clip-rule="evenodd" d="M1355.33 264.33L1090.16 -0.83496C943.718 145.612 943.718 383.049 1090.17 529.495L1355.33 264.33Z" fill="#F9BC55"/>
<path fill-rule="evenodd" clip-rule="evenodd" d="M1355.33 264.33L1090.16 529.495C1236.61 675.942 1474.05 675.942 1620.5 529.495L1355.33 264.33Z" fill="#F9C56E"/>
<circle cx="1355.33" cy="264.33" r="375" transform="rotate(-45 1355.33 264.33)" fill="url(#paint0_linear)"/>
</g>
<g clip-path="url(#clip1)" filter="url(#filter1_d)">
<path d="M1446.53 440.576L1310.21 474.993L1330.45 452.048L1341.93 437.876L1461.37 414.257L1466.77 418.981L1446.53 440.576Z" fill="#535461"/>
<path d="M1466.77 418.98L1332.48 450.023L1331.8 417.631L1370.27 402.784L1447.2 389.962H1469.47L1466.77 418.98Z" fill="#D6D6E3"/>
<path d="M1369.59 235.422L1232.6 244.195V218.551L1242.05 161.189L1246.77 157.14L1383.77 161.189L1369.59 235.422Z" fill="#D6D6E3"/>
<path d="M1401.99 106.526H1408.74L1410.08 155.79L1387.81 163.888L1374.32 234.747L1435.73 360.269L1472.85 389.287V416.956L1450.58 439.226L1449.23 541.128L1442.48 542.477L1443.83 441.25L1466.1 417.631L1466.77 389.287L1431.01 360.944L1368.24 235.422L1381.74 163.888L1404.01 154.44L1401.99 106.526Z" fill="#D6D6E3"/>
<path d="M1407.39 106.526H1414.13L1415.48 155.79L1393.21 163.888L1379.72 234.747L1441.13 360.269L1478.24 389.287V416.956L1455.97 439.226L1454.62 541.128L1447.88 542.477L1449.23 441.25L1471.5 417.631L1472.17 389.287L1435.05 360.944L1373.64 235.422L1387.14 163.888L1409.41 154.44L1407.39 106.526Z" fill="#535461"/>
<path d="M1407.72 150.728L1404.35 155.452L1385.45 164.225L1235.64 160.176L1250.15 155.79L1265.67 149.041L1263.64 143.643L1407.72 150.728Z" fill="#A8A8A8"/>
<path d="M1433.03 362.968L1296.04 385.238L1268.37 326.526L1230.58 242.17L1369.59 235.422L1433.03 362.968Z" fill="#6C63FF"/>
<g opacity="0.1">
<path opacity="0.1" d="M1362.17 259.717L1269.72 267.14L1317.63 361.619L1407.39 348.122L1362.17 259.717Z" fill="white"/>
</g>
<g opacity="0.1">
<path opacity="0.1" d="M1355.79 266.58L1351.71 266.911L1353.82 271.075L1357.78 270.481L1355.79 266.58Z" fill="white"/>
</g>
<g opacity="0.1">
<path opacity="0.1" d="M1355.12 305.721L1351.04 306.051L1353.15 310.215L1357.11 309.621L1355.12 305.721Z" fill="white"/>
</g>
<g opacity="0.1">
<path opacity="0.1" d="M1332.85 271.304L1328.77 271.634L1330.88 275.798L1334.84 275.204L1332.85 271.304Z" fill="white"/>
</g>
<g opacity="0.1">
<path opacity="0.1" d="M1290.33 273.328L1286.25 273.659L1288.36 277.823L1292.32 277.229L1290.33 273.328Z" fill="white"/>
</g>
<g opacity="0.1">
<path opacity="0.1" d="M1347.7 278.727L1343.61 279.057L1345.72 283.221L1349.69 282.627L1347.7 278.727Z" fill="white"/>
</g>
<g opacity="0.1">
<path opacity="0.1" d="M1332.85 319.893L1328.77 320.223L1330.88 324.387L1334.84 323.793L1332.85 319.893Z" fill="white"/>
</g>
<g opacity="0.1">
<path opacity="0.1" d="M1369.29 296.273L1365.21 296.604L1367.32 300.768L1371.28 300.174L1369.29 296.273Z" fill="white"/>
</g>
<g opacity="0.1">
<path opacity="0.1" d="M1307.2 271.304L1303.12 271.634L1305.23 275.798L1309.2 275.204L1307.2 271.304Z" fill="white"/>
</g>
<g opacity="0.1">
<path opacity="0.1" d="M1339.6 294.248L1335.51 294.579L1337.63 298.743L1341.59 298.149L1339.6 294.248Z" fill="white"/>
</g>
<g opacity="0.1">
<path opacity="0.1" d="M1344.32 268.604L1340.24 268.935L1342.35 273.099L1346.31 272.505L1344.32 268.604Z" fill="white"/>
</g>
<g opacity="0.1">
<path opacity="0.1" d="M1323.4 292.224L1319.32 292.554L1321.43 296.718L1325.39 296.124L1323.4 292.224Z" fill="white"/>
</g>
<g opacity="0.1">
<path opacity="0.1" d="M1318.68 271.304L1314.59 271.634L1316.71 275.798L1320.67 275.204L1318.68 271.304Z" fill="white"/>
</g>
<g opacity="0.1">
<path opacity="0.1" d="M1361.19 280.752L1357.11 281.083L1359.22 285.246L1363.18 284.653L1361.19 280.752Z" fill="white"/>
</g>
<path d="M1469.47 389.962L1335.85 416.956L1299.05 384.752L1432.69 361.956L1469.47 389.962Z" fill="#D6D6E3"/>
<path d="M1444.5 437.201V542.477L1312.23 588.367L1310.21 479.042L1315.61 468.872L1339.9 462.845L1444.5 437.201Z" fill="#535461"/>
<path d="M1427.29 375.116C1424.13 375.116 1421.56 373.605 1421.56 371.741C1421.56 369.878 1424.13 368.367 1427.29 368.367C1430.46 368.367 1433.03 369.878 1433.03 371.741C1433.03 373.605 1430.46 375.116 1427.29 375.116Z" fill="#575988"/>
<path d="M1422.57 382.539C1419.4 382.539 1416.83 381.028 1416.83 379.164C1416.83 377.301 1419.4 375.79 1422.57 375.79C1425.74 375.79 1428.31 377.301 1428.31 379.164C1428.31 381.028 1425.74 382.539 1422.57 382.539Z" fill="#FA595F"/>
<path d="M1438.77 380.514C1435.6 380.514 1433.03 379.003 1433.03 377.14C1433.03 375.276 1435.6 373.766 1438.77 373.766C1441.93 373.766 1444.5 375.276 1444.5 377.14C1444.5 379.003 1441.93 380.514 1438.77 380.514Z" fill="#FFD037"/>
<path d="M1365.88 387.262C1362.71 387.262 1360.15 385.751 1360.15 383.888C1360.15 382.024 1362.71 380.514 1365.88 380.514C1369.05 380.514 1371.62 382.024 1371.62 383.888C1371.62 385.751 1369.05 387.262 1365.88 387.262Z" fill="#575988"/>
<path d="M1377.35 393.336C1374.19 393.336 1371.62 391.826 1371.62 389.962C1371.62 388.099 1374.19 386.588 1377.35 386.588C1380.52 386.588 1383.09 388.099 1383.09 389.962C1383.09 391.826 1380.52 393.336 1377.35 393.336Z" fill="#FFD037"/>
<path d="M1398.95 383.888C1394.29 383.888 1390.51 382.075 1390.51 379.839C1390.51 377.603 1394.29 375.79 1398.95 375.79C1403.61 375.79 1407.39 377.603 1407.39 379.839C1407.39 382.075 1403.61 383.888 1398.95 383.888Z" fill="#A8A8A8"/>
<path d="M1359.81 394.686C1356.64 394.686 1354.07 393.175 1354.07 391.312C1354.07 389.448 1356.64 387.938 1359.81 387.938C1362.98 387.938 1365.55 389.448 1365.55 391.312C1365.55 393.175 1362.98 394.686 1359.81 394.686Z" fill="#FA595F"/>
<path d="M1396.59 379.171H1400.64L1404.12 365.728C1404.27 365.162 1404.28 364.571 1404.16 363.999C1404.04 363.427 1403.8 362.889 1403.44 362.427C1403.08 361.965 1402.62 361.591 1402.1 361.334C1401.57 361.077 1401 360.943 1400.41 360.943C1399.4 360.943 1398.43 361.346 1397.71 362.064C1396.99 362.782 1396.59 363.755 1396.59 364.77V379.171Z" fill="#A8A8A8"/>
<path d="M1338.21 394.686C1333.55 394.686 1329.78 392.873 1329.78 390.637C1329.78 388.401 1333.55 386.588 1338.21 386.588C1342.87 386.588 1346.65 388.401 1346.65 390.637C1346.65 392.873 1342.87 394.686 1338.21 394.686Z" fill="#A8A8A8"/>
<path d="M1335.85 389.969H1339.9L1343.38 376.526C1343.53 375.96 1343.54 375.369 1343.43 374.797C1343.31 374.224 1343.06 373.687 1342.7 373.225C1342.35 372.763 1341.89 372.389 1341.36 372.132C1340.84 371.875 1340.26 371.741 1339.68 371.741C1338.66 371.741 1337.69 372.144 1336.97 372.862C1336.25 373.58 1335.85 374.553 1335.85 375.568V389.969Z" fill="#A8A8A8"/>
<path d="M1402.66 106.526L1263.64 95.0537L1267.02 145.667L1406.04 152.416L1402.66 106.526Z" fill="#535461"/>
<path d="M1264.32 95.0537L1200.21 99.7776L1208.98 528.98L1307.17 592.078L1313.92 587.354L1314.26 474.992L1335.85 450.698V416.956L1298.06 383.888L1233.95 241.495L1243.06 160.176H1238.34L1268.37 149.716L1264.32 95.0537Z" fill="#D6D6E3"/>
<path d="M1258.24 95.7285L1193.46 99.7776L1202.23 528.98L1307.51 591.741V474.992L1329.1 450.698V416.956L1291.31 383.888L1227.2 241.495L1238.67 159.839L1261.62 149.716L1258.24 95.7285Z" fill="#535461"/>
<path d="M1372.22 355.747C1381.67 375.318 1404.92 370.243 1404.92 370.243C1406.12 369.13 1413.64 367.267 1419.34 365.978C1423 365.148 1425.91 364.568 1425.91 364.568L1417.93 353.439L1411.94 354.668L1403.01 356.503C1403.01 356.503 1362.74 336.184 1372.22 355.747Z" fill="url(#paint1_linear)"/>
<g opacity="0.08">
<path opacity="0.08" d="M1372.22 355.747C1381.67 375.318 1404.92 370.243 1404.92 370.243C1406.12 369.13 1413.64 367.267 1419.34 365.978C1423 365.148 1425.91 364.568 1425.91 364.568L1417.93 353.439L1411.94 354.668L1403.01 356.503C1403.01 356.503 1362.74 336.184 1372.22 355.747Z" fill="url(#paint2_linear)"/>
</g>
<g opacity="0.1">
<path opacity="0.1" d="M1411.93 354.668L1419.36 365.985C1423.01 365.155 1425.92 364.575 1425.92 364.575L1417.94 353.446L1411.93 354.668Z" fill="url(#paint3_linear)"/>
</g>
<path d="M1494.93 314.217C1494.93 314.217 1460.12 368.603 1422.86 368.474L1412.74 352.953C1412.74 352.953 1446.84 328.591 1451.38 315.89C1453.05 311.166 1456.51 304.695 1460.19 298.344C1471.51 278.889 1502.03 291.596 1495.32 312.975C1495.19 313.398 1495.06 313.812 1494.93 314.217Z" fill="url(#paint4_linear)"/>
<g opacity="0.05">
<path opacity="0.05" d="M1494.93 314.217C1494.93 314.217 1460.12 368.603 1422.86 368.474L1412.74 352.953C1412.74 352.953 1446.84 328.591 1451.38 315.89C1453.05 311.166 1456.51 304.695 1460.19 298.344C1471.51 278.889 1502.03 291.596 1495.32 312.975C1495.19 313.398 1495.06 313.812 1494.93 314.217Z" fill="url(#paint5_linear)"/>
</g>
<g opacity="0.1">
<path opacity="0.1" d="M1425.59 433.996C1433.41 435.501 1447.24 438.079 1461.4 440.319C1468.82 441.493 1476.33 442.573 1483.12 443.356C1493.56 444.564 1502.3 445.07 1506.35 444.125L1507.31 429.953L1467.16 412.198L1464.27 426.316H1425.61C1425.61 426.316 1425.61 429.258 1425.59 433.996Z" fill="url(#paint6_linear)"/>
</g>
<g opacity="0.1">
<path opacity="0.1" d="M1433.53 382.322C1462.16 364.898 1476.97 316.147 1476.97 316.147C1476.97 315.722 1476.97 315.303 1477.02 314.892C1477.66 292.534 1444.74 288.228 1439.15 309.925C1437.34 316.99 1435.78 324.157 1435.45 329.111C1435.28 330.933 1434.86 332.724 1434.2 334.435C1433.77 343.656 1433.87 352.894 1434.49 362.104C1434.92 368.858 1434.6 375.64 1433.53 382.322Z" fill="url(#paint7_linear)"/>
</g>
<g opacity="0.1">
<path opacity="0.1" d="M1475.8 242.157C1471.14 249.857 1467.46 257.611 1458.01 258.927C1453.36 253.037 1447.97 247.782 1441.96 243.297L1472.33 229.18C1472.33 229.18 1470.54 233.998 1475.8 242.157Z" fill="url(#paint8_linear)"/>
</g>
<path d="M1452.22 256.491C1435.2 256.491 1421.41 243.036 1421.41 226.44C1421.41 209.843 1435.2 196.389 1452.22 196.389C1469.24 196.389 1483.04 209.843 1483.04 226.44C1483.04 243.036 1469.24 256.491 1452.22 256.491Z" fill="url(#paint9_linear)"/>
<g opacity="0.1">
<path opacity="0.1" d="M1421.77 235.867C1420.49 235.922 1419.23 235.587 1418.15 234.909C1416.67 233.836 1416.2 231.913 1415.86 230.144C1415.06 225.967 1414.43 221.567 1415.86 217.545C1416.79 214.886 1418.56 212.585 1419.8 210.061C1422.57 204.548 1423.06 197.914 1427.01 193.129C1429.47 190.133 1438.13 193.129 1441.75 191.617C1449.52 188.351 1452.9 181.724 1461.37 181.731C1464.47 181.655 1467.57 182.042 1470.56 182.878C1474.34 184.046 1477.69 186.252 1480.8 188.675C1486.2 192.873 1491.49 198.636 1491.01 205.371C1490.7 209.67 1488.08 213.469 1486.53 217.478C1483.94 224.226 1484.41 231.811 1486.28 238.803C1487.08 241.779 1487.99 245.335 1485.88 247.61C1484.53 249.033 1482.39 249.438 1480.48 249.128C1478.57 248.706 1476.75 247.976 1475.08 246.968C1472.04 245.356 1468.97 243.716 1466.51 241.347C1464.88 239.781 1463.57 237.932 1462.03 236.292C1459 233.156 1455.58 230.434 1451.84 228.194C1448.85 226.399 1445.76 227.519 1442.63 228.687C1435.73 231.217 1429.35 236.002 1421.77 235.867Z" fill="url(#paint10_linear)"/>
</g>
<g opacity="0.05">
<path opacity="0.05" d="M1433.53 382.322C1434.6 375.651 1434.92 368.881 1434.49 362.138C1433.87 352.928 1433.77 343.69 1434.2 334.469C1434.62 323.671 1435.47 312.989 1436.29 304.506C1437.5 291.7 1443.63 279.862 1453.38 271.479C1455.55 269.623 1457.48 268.253 1458.78 267.916C1460.41 267.484 1462.4 266.188 1464.37 264.616C1471 259.331 1462.57 269.623 1460.41 271.479C1450.65 279.862 1444.53 291.7 1443.31 304.506C1442.5 312.989 1441.65 323.671 1441.23 334.469C1440.8 343.69 1440.89 352.928 1441.51 362.138C1441.95 368.881 1441.62 375.651 1440.55 382.322C1436.92 406.907 1426.11 431.35 1426.11 431.35C1426.11 431.35 1478.92 442.019 1503.5 443.153C1484.24 444.503 1419.11 431.35 1419.11 431.35C1419.11 431.35 1429.9 406.893 1433.53 382.322Z" fill="url(#paint11_linear)"/>
</g>
<path d="M1369.13 386.729C1383.6 403.121 1404.6 392.195 1404.6 392.195C1405.46 390.805 1412.2 387.06 1417.33 384.333C1420.63 382.586 1423.28 381.263 1423.28 381.263L1412.54 372.611L1407.11 375.351L1399.01 379.441C1399.01 379.441 1354.64 370.337 1369.13 386.729Z" fill="url(#paint12_linear)"/>
<g opacity="0.1">
<path opacity="0.1" d="M1407.11 375.351L1417.33 384.333C1420.63 382.586 1423.28 381.263 1423.28 381.263L1412.54 372.611L1407.11 375.351Z" fill="url(#paint13_linear)"/>
</g>
<path d="M1476.03 314.784C1476.03 314.784 1457.36 376.255 1421.41 385.818L1407.41 373.522C1407.41 373.522 1433.6 341.17 1434.51 327.747C1434.85 322.787 1436.4 315.6 1438.21 308.562C1443.8 286.872 1476.72 291.171 1476.08 313.528C1476.06 313.942 1476.05 314.361 1476.03 314.784Z" fill="url(#paint14_linear)"/>
<path opacity="0.05" d="M1512.21 374.663C1512.21 374.663 1500.06 365.1 1488.87 372.389C1477.67 379.677 1461.33 378.766 1458.99 379.218" fill="url(#paint15_linear)"/>
<path d="M1375.71 354.748C1384.72 373.833 1406.84 368.92 1406.84 368.92C1407.99 367.834 1415.14 366.018 1420.56 364.763C1424.04 363.953 1426.81 363.413 1426.81 363.413L1419.21 352.555L1413.51 353.756L1405.02 355.545C1405.02 355.545 1366.71 335.657 1375.71 354.748Z" fill="#F7C4A7"/>
<path opacity="0.08" d="M1375.71 354.748C1384.72 373.833 1406.84 368.92 1406.84 368.92C1407.99 367.834 1415.14 366.018 1420.56 364.763C1424.04 363.953 1426.81 363.413 1426.81 363.413L1419.21 352.555L1413.51 353.756L1405.02 355.545C1405.02 355.545 1366.71 335.657 1375.71 354.748Z" fill="black"/>
<path opacity="0.1" d="M1413.51 353.689L1420.56 364.729C1424.04 363.92 1426.81 363.38 1426.81 363.38L1419.21 352.521L1413.51 353.689Z" fill="black"/>
<path d="M1492.49 314.224C1492.49 314.224 1459.37 367.294 1423.91 367.159L1414.27 352.042C1414.27 352.042 1446.72 328.274 1451.04 315.877C1452.63 311.302 1455.92 304.958 1459.42 298.777C1470.22 279.8 1499.24 292.197 1492.86 313.056C1492.74 313.439 1492.62 313.828 1492.49 314.224Z" fill="#575988"/>
<path opacity="0.05" d="M1492.49 314.224C1492.49 314.224 1459.37 367.294 1423.91 367.159L1414.27 352.042C1414.27 352.042 1446.72 328.274 1451.04 315.877C1452.63 311.302 1455.92 304.958 1459.42 298.777C1470.22 279.8 1499.24 292.197 1492.86 313.056C1492.74 313.439 1492.62 313.828 1492.49 314.224Z" fill="black"/>
<path d="M1514.05 622.663L1512.5 641.099C1512.5 641.099 1461.63 632.434 1462.07 615.111C1462.52 597.788 1514.05 622.663 1514.05 622.663Z" fill="#535461"/>
<path opacity="0.1" d="M1514.05 622.663L1512.5 641.099C1512.5 641.099 1461.63 632.434 1462.07 615.111C1462.52 597.788 1514.05 622.663 1514.05 622.663Z" fill="black"/>
<path d="M1454.52 628.439L1455.41 644.44C1455.41 644.44 1384.76 639.108 1387.43 624.005C1390.1 608.902 1427.41 617.338 1427.41 617.338L1454.52 628.439Z" fill="#535461"/>
<path d="M1453.63 472.05C1453.63 472.05 1457.81 483.887 1463.14 497.478C1468.24 510.476 1474.4 525.086 1478.96 532.469C1488.26 547.579 1489.61 594.224 1489.61 594.224C1491.38 601.776 1482.5 616.44 1482.5 616.44C1500.27 635.545 1516.71 624.437 1516.71 624.437C1513.6 618.661 1518.93 602.221 1518.93 602.221C1518.93 602.221 1511.82 526.247 1507.38 522.697C1502.93 519.148 1499.39 501.372 1499.39 501.372L1503.36 440.98L1504.27 427.18L1466.06 409.85L1463.29 423.623L1460.59 437.262L1453.63 472.05Z" fill="#6A5C99"/>
<path opacity="0.1" d="M1453.63 472.05C1453.63 472.05 1457.81 483.887 1463.14 497.478C1468.24 510.476 1474.4 525.086 1478.96 532.469C1488.26 547.579 1489.61 594.224 1489.61 594.224C1491.38 601.776 1482.5 616.44 1482.5 616.44C1500.27 635.545 1516.71 624.437 1516.71 624.437C1513.6 618.661 1518.93 602.221 1518.93 602.221C1518.93 602.221 1511.82 526.247 1507.38 522.697C1502.93 519.148 1499.39 501.372 1499.39 501.372L1503.36 440.98L1504.27 427.18L1466.06 409.85L1463.29 423.623L1460.59 437.262L1453.63 472.05Z" fill="black"/>
<path d="M1420.31 619.106C1428.31 633.325 1456.3 631.543 1456.3 631.543V589.777C1456.3 589.777 1464.3 543.125 1459.85 532.462C1455.41 521.8 1461.63 502.249 1461.63 502.249L1463.14 497.471L1481.26 440.217L1486.51 423.616H1426.53C1426.53 423.616 1426.53 426.457 1426.53 431.087C1426.46 448.855 1426.09 492.923 1424.32 503.147C1422.1 516.03 1428.33 524.472 1428.33 524.472C1428.33 524.472 1424.77 576.894 1427.88 593.306C1430.99 609.719 1420.31 619.106 1420.31 619.106Z" fill="#6A5C99"/>
<path d="M1469.63 228.586C1469.63 228.586 1478.96 254.352 1497.62 263.678C1516.28 273.004 1466.96 275.677 1466.96 275.677C1466.96 275.677 1458.96 256.106 1440.75 242.353L1469.63 228.586Z" fill="#F7C4A7"/>
<path opacity="0.1" d="M1426.51 431.094C1433.95 432.538 1447.09 435.075 1460.59 437.262C1467.65 438.409 1474.8 439.462 1481.26 440.224C1491.2 441.399 1499.52 441.898 1503.38 440.973L1504.29 427.173L1466.08 409.843L1463.29 423.623H1426.5C1426.5 423.623 1426.53 426.464 1426.51 431.094Z" fill="black"/>
<path d="M1420.31 428.489C1420.31 428.489 1495.39 444.01 1504.72 439.151C1514.04 434.292 1516.27 421.821 1513.61 408.054C1510.94 394.288 1513.61 360.073 1518.49 316.532C1520.96 294.606 1515.53 279.894 1509.54 270.683C1506.96 266.739 1503.43 263.501 1499.28 261.262C1495.14 259.023 1490.5 257.854 1485.78 257.861C1477.63 257.832 1469.72 260.619 1463.39 265.75C1461.51 267.281 1459.62 268.543 1458.07 268.969C1456.85 269.299 1455.02 270.635 1452.96 272.444C1443.62 280.718 1437.8 292.245 1436.69 304.668C1435.91 312.942 1435.1 323.368 1434.7 333.909C1434.29 342.905 1434.38 351.917 1434.97 360.903C1435.38 367.48 1435.07 374.083 1434.06 380.595C1430.61 404.66 1420.31 428.489 1420.31 428.489Z" fill="#575988"/>
<path opacity="0.1" d="M1434.06 380.676C1461.31 363.676 1475.4 316.107 1475.4 316.107C1475.4 315.695 1475.4 315.283 1475.45 314.885C1476.06 293.074 1444.73 288.87 1439.41 310.04C1437.69 316.937 1436.21 323.921 1435.9 328.76C1435.73 330.536 1435.33 332.283 1434.71 333.956C1434.3 342.952 1434.39 351.964 1434.97 360.95C1435.39 367.539 1435.08 374.153 1434.06 380.676Z" fill="black"/>
<path opacity="0.1" d="M1474.29 243.912C1469.86 251.423 1466.35 258.995 1457.35 260.27C1452.95 254.54 1447.82 249.412 1442.08 245.019L1470.96 231.245C1470.96 231.245 1469.29 235.956 1474.29 243.912Z" fill="black"/>
<path d="M1451.85 257.908C1435.66 257.908 1422.53 244.78 1422.53 228.586C1422.53 212.392 1435.66 199.264 1451.85 199.264C1468.05 199.264 1481.17 212.392 1481.17 228.586C1481.17 244.78 1468.05 257.908 1451.85 257.908Z" fill="#F7C4A7"/>
<path opacity="0.1" d="M1422.87 237.778C1421.65 237.827 1420.45 237.497 1419.42 236.833C1418.02 235.787 1417.57 233.904 1417.25 232.183C1416.49 228.134 1415.9 223.815 1417.25 219.888C1418.13 217.29 1419.8 215.049 1421 212.586C1423.64 207.187 1424.11 200.736 1427.86 196.066C1430.21 193.144 1438.44 196.066 1441.89 194.588C1449.31 191.402 1452.5 184.937 1460.56 184.944C1463.52 184.868 1466.48 185.246 1469.33 186.064C1472.93 187.198 1476.12 189.371 1479.07 191.72C1484.23 195.816 1489.25 201.437 1488.79 208.01C1488.5 212.208 1486 215.879 1484.53 219.82C1482.06 226.42 1482.5 233.81 1484.29 240.626C1485.05 243.528 1485.92 246.996 1483.91 249.223C1482.65 250.607 1480.59 251.012 1478.74 250.701C1476.92 250.291 1475.17 249.579 1473.58 248.596C1470.69 247.023 1467.76 245.424 1465.43 243.116C1463.88 241.584 1462.64 239.782 1461.16 238.183C1458.3 235.131 1455.03 232.474 1451.47 230.28C1448.62 228.532 1445.7 229.605 1442.69 230.759C1436.15 233.243 1430.09 237.913 1422.87 237.778Z" fill="black"/>
<path d="M1423.31 237.332C1422.1 237.385 1420.89 237.06 1419.87 236.401C1418.47 235.355 1418.01 233.472 1417.7 231.751C1416.93 227.702 1416.35 223.383 1417.7 219.456C1418.57 216.857 1420.24 214.617 1421.45 212.154C1424.09 206.755 1424.55 200.303 1428.31 195.634C1430.65 192.711 1438.43 196.086 1441.89 194.601C1449.31 191.416 1452.94 184.478 1461 184.478C1463.97 184.402 1466.92 184.78 1469.77 185.599C1473.38 186.732 1476.56 188.905 1479.52 191.254C1484.68 195.35 1489.7 200.972 1489.24 207.545C1488.94 211.742 1486.44 215.413 1484.97 219.354C1482.5 225.954 1482.95 233.344 1484.74 240.16C1485.49 243.062 1486.36 246.53 1484.35 248.757C1483.1 250.141 1481.03 250.546 1479.19 250.235C1477.36 249.825 1475.62 249.113 1474.03 248.13C1471.14 246.557 1468.21 244.958 1465.87 242.65C1464.33 241.118 1463.08 239.316 1461.61 237.717C1458.71 234.668 1455.42 232.02 1451.82 229.841C1448.97 228.094 1446.05 229.167 1443.04 230.321C1436.6 232.784 1430.53 237.467 1423.31 237.332Z" fill="#632652"/>
<path opacity="0.05" d="M1434.06 380.676C1435.07 374.17 1435.37 367.574 1434.95 361.004C1434.36 352.018 1434.27 343.006 1434.68 334.01C1435.08 323.469 1435.89 313.05 1436.67 304.769C1437.78 292.346 1443.6 280.82 1452.94 272.545C1455 270.73 1456.83 269.4 1458.05 269.07C1459.6 268.645 1461.49 267.383 1463.37 265.851C1469.68 260.695 1461.66 270.737 1459.6 272.545C1450.27 280.82 1444.44 292.346 1443.33 304.769C1442.55 313.043 1441.74 323.469 1441.34 334.01C1440.93 343.006 1441.02 352.018 1441.61 361.004C1442.02 367.582 1441.71 374.185 1440.7 380.696C1437.24 404.68 1426.94 428.529 1426.94 428.529C1426.94 428.529 1477.21 438.935 1500.59 440.049C1482.26 441.399 1420.28 428.529 1420.28 428.529C1420.28 428.529 1430.61 404.66 1434.06 380.676Z" fill="black"/>
<path d="M1372.77 384.975C1386.55 400.969 1406.51 390.306 1406.51 390.306C1407.32 388.956 1413.74 385.292 1418.66 382.64C1421.8 380.932 1424.32 379.644 1424.32 379.644L1414.1 371.201L1408.93 373.901L1401.2 377.875C1401.2 377.875 1359 368.981 1372.77 384.975Z" fill="#F7C4A7"/>
<path opacity="0.1" d="M1408.92 373.874L1418.65 382.647C1421.79 380.939 1424.3 379.65 1424.3 379.65L1414.09 371.208L1408.92 373.874Z" fill="black"/>
<path d="M1474.51 314.778C1474.51 314.778 1456.74 374.758 1422.55 384.084L1409.22 372.086C1409.22 372.086 1434.19 340.523 1435.02 327.424C1435.34 322.585 1436.81 315.594 1438.54 308.704C1443.86 287.541 1475.19 291.738 1474.57 313.549C1474.55 313.954 1474.53 314.364 1474.51 314.778Z" fill="#575988"/>
<path opacity="0.05" d="M1508.94 373.199C1508.94 373.199 1497.39 363.866 1486.73 370.979C1476.06 378.092 1460.52 377.201 1458.3 377.646" fill="black"/>
<path fill-rule="evenodd" clip-rule="evenodd" d="M1263.96 95.08L1263.64 95.0537L1263.65 95.1032L1237.92 96.9989L1193.46 99.7776L1202.23 528.98L1295.58 584.629L1307.17 592.078L1312.71 588.201L1427.09 548.519C1426.47 564.573 1426.18 584.328 1427.88 593.307C1430.02 604.602 1425.63 612.569 1422.68 616.44C1412.55 614.752 1389.5 612.256 1387.43 624.005C1384.76 639.108 1455.41 644.44 1455.41 644.44L1454.69 631.601C1455.71 631.581 1456.3 631.543 1456.3 631.543V589.777C1456.3 589.777 1464.3 543.125 1459.85 532.462C1455.41 521.8 1461.63 502.249 1461.63 502.249L1463.14 497.475L1463.14 497.478C1468.24 510.476 1474.4 525.086 1478.96 532.469C1488.26 547.579 1489.61 594.224 1489.61 594.224C1490.72 598.968 1487.63 606.519 1485.18 611.478C1473.33 608.105 1462.28 607.13 1462.07 615.111C1461.63 632.434 1512.5 641.099 1512.5 641.099L1513.78 625.909C1515.65 625.153 1516.71 624.437 1516.71 624.437C1513.6 618.66 1518.93 602.221 1518.93 602.221C1518.93 602.221 1511.82 526.247 1507.38 522.697C1502.93 519.147 1499.39 501.372 1499.39 501.372L1503.13 444.54C1504.4 444.463 1505.48 444.327 1506.35 444.125L1506.77 437.877C1514.36 432.337 1516.06 420.746 1513.61 408.054C1510.94 394.287 1513.61 360.073 1518.49 316.532C1520.96 294.606 1515.53 279.894 1509.54 270.682C1506.96 266.739 1503.43 263.501 1499.28 261.262C1496.19 259.59 1492.81 258.515 1489.34 258.08C1486.64 255.746 1484.21 253.125 1482.07 250.433C1482.77 250.176 1483.4 249.778 1483.91 249.222C1483.95 249.17 1484 249.116 1484.04 249.063C1484.15 248.966 1484.25 248.865 1484.35 248.757C1484.39 248.715 1484.43 248.674 1484.46 248.632C1484.99 248.379 1485.47 248.041 1485.88 247.61C1487.99 245.335 1487.08 241.779 1486.28 238.803C1484.41 231.811 1483.94 224.226 1486.53 217.478C1487.02 216.211 1487.62 214.965 1488.21 213.718C1489.5 211.018 1490.8 208.311 1491.01 205.371C1491.49 198.636 1486.2 192.873 1480.8 188.675C1477.69 186.253 1474.34 184.046 1470.56 182.878C1467.57 182.042 1464.47 181.655 1461.37 181.731C1456.19 181.727 1452.92 184.196 1449.39 186.864C1447.14 188.565 1444.78 190.346 1441.75 191.618C1440.2 192.264 1437.73 192.086 1435.22 191.905C1431.86 191.662 1428.42 191.414 1427.01 193.129C1424.62 196.028 1423.49 199.605 1422.37 203.201C1421.63 205.54 1420.89 207.888 1419.8 210.061C1419.32 211.033 1418.77 211.972 1418.21 212.911C1417.32 214.41 1416.43 215.91 1415.86 217.545C1414.43 221.567 1415.06 225.967 1415.86 230.145C1416.18 231.817 1416.62 233.628 1417.92 234.727C1418.25 235.557 1418.71 236.302 1419.42 236.832C1420.45 237.496 1421.65 237.826 1422.87 237.777C1423.14 237.782 1423.41 237.78 1423.67 237.772C1424.17 238.947 1424.73 240.086 1425.36 241.181C1430.08 251.072 1440.17 257.908 1451.85 257.908C1453.02 257.908 1454.17 257.839 1455.3 257.707C1456 258.547 1456.68 259.401 1457.35 260.27C1457.55 260.241 1457.75 260.209 1457.95 260.174C1459.53 262.356 1460.89 264.435 1462.04 266.322C1460.87 267.081 1459.76 267.655 1458.78 267.916C1457.48 268.253 1455.55 269.623 1453.38 271.479C1443.63 279.862 1437.5 291.7 1436.29 304.506C1435.65 311.16 1434.99 319.169 1434.53 327.524C1434.52 327.599 1434.52 327.674 1434.51 327.747C1434.31 330.705 1432.88 334.582 1430.78 338.829L1430.68 338.912L1379.72 234.747L1393.21 163.888L1415.48 155.79L1414.13 106.526H1408.74H1407.39L1402.66 106.526L1264.32 95.1097L1264.32 95.0537L1263.96 95.08ZM1299.04 384.749L1299.47 384.68L1299.05 384.752L1299.04 384.749Z" fill="url(#paint16_linear)"/>
</g>
</g>
<defs>
<filter id="filter0_d" x="785" y="-306" width="1160.66" height="1160.66" filterUnits="userSpaceOnUse" color-interpolation-filters="sRGB">
<feFlood flood-opacity="0" result="BackgroundImageFix"/>
<feColorMatrix in="SourceAlpha" type="matrix" values="0 0 0 0 0 0 0 0 0 0 0 0 0 0 0 0 0 0 127 0"/>
<feOffset dx="10" dy="10"/>
<feGaussianBlur stdDeviation="25"/>
<feColorMatrix type="matrix" values="0 0 0 0 0.976471 0 0 0 0 0.662745 0 0 0 0 0.133333 0 0 0 0.15 0"/>
<feBlend mode="normal" in2="BackgroundImageFix" result="effect1_dropShadow"/>
<feBlend mode="normal" in="SourceGraphic" in2="effect1_dropShadow" result="shape"/>
</filter>
<filter id="filter1_d" x="1173" y="55" width="386.626" height="610" filterUnits="userSpaceOnUse" color-interpolation-filters="sRGB">
<feFlood flood-opacity="0" result="BackgroundImageFix"/>
<feColorMatrix in="SourceAlpha" type="matrix" values="0 0 0 0 0 0 0 0 0 0 0 0 0 0 0 0 0 0 127 0"/>
<feOffset dx="10" dy="-10"/>
<feGaussianBlur stdDeviation="15"/>
<feColorMatrix type="matrix" values="0 0 0 0 0.517647 0 0 0 0 0.517647 0 0 0 0 0.6 0 0 0 0.05 0"/>
<feBlend mode="normal" in2="BackgroundImageFix" result="effect1_dropShadow"/>
<feBlend mode="normal" in="SourceGraphic" in2="effect1_dropShadow" result="shape"/>
</filter>
<linearGradient id="paint0_linear" x1="980.33" y1="-110.67" x2="1844.32" y2="469.596" gradientUnits="userSpaceOnUse">
<stop stop-color="white" stop-opacity="0.2"/>
<stop offset="1" stop-color="white" stop-opacity="0"/>
</linearGradient>
<linearGradient id="paint1_linear" x1="-27423.5" y1="10976.6" x2="-27423.5" y2="10151.9" gradientUnits="userSpaceOnUse">
<stop stop-color="#808080" stop-opacity="0.25"/>
<stop offset="0.54" stop-color="#808080" stop-opacity="0.12"/>
<stop offset="1" stop-color="#808080" stop-opacity="0.1"/>
</linearGradient>
<linearGradient id="paint2_linear" x1="-27423.5" y1="10976.6" x2="-27423.5" y2="10151.9" gradientUnits="userSpaceOnUse">
<stop stop-color="#808080" stop-opacity="0.25"/>
<stop offset="0.54" stop-color="#808080" stop-opacity="0.12"/>
<stop offset="1" stop-color="#808080" stop-opacity="0.1"/>
</linearGradient>
<linearGradient id="paint3_linear" x1="-5467.44" y1="5912.71" x2="-5467.44" y2="5679.75" gradientUnits="userSpaceOnUse">
<stop stop-color="#808080" stop-opacity="0.25"/>
<stop offset="0.54" stop-color="#808080" stop-opacity="0.12"/>
<stop offset="1" stop-color="#808080" stop-opacity="0.1"/>
</linearGradient>
<linearGradient id="paint4_linear" x1="-35264" y1="35940.5" x2="-35264" y2="26522.4" gradientUnits="userSpaceOnUse">
<stop stop-color="#808080" stop-opacity="0.25"/>
<stop offset="0.54" stop-color="#808080" stop-opacity="0.12"/>
<stop offset="1" stop-color="#808080" stop-opacity="0.1"/>
</linearGradient>
<linearGradient id="paint5_linear" x1="-35264" y1="35940.5" x2="-35264" y2="26522.4" gradientUnits="userSpaceOnUse">
<stop stop-color="#808080" stop-opacity="0.25"/>
<stop offset="0.54" stop-color="#808080" stop-opacity="0.12"/>
<stop offset="1" stop-color="#808080" stop-opacity="0.1"/>
</linearGradient>
<linearGradient id="paint6_linear" x1="-33002.7" y1="18563.2" x2="-33002.7" y2="17007.1" gradientUnits="userSpaceOnUse">
<stop stop-color="#808080" stop-opacity="0.25"/>
<stop offset="0.54" stop-color="#808080" stop-opacity="0.12"/>
<stop offset="1" stop-color="#808080" stop-opacity="0.1"/>
</linearGradient>
<linearGradient id="paint7_linear" x1="-17612.7" y1="40796.6" x2="-17612.7" y2="29680.2" gradientUnits="userSpaceOnUse">
<stop stop-color="#808080" stop-opacity="0.25"/>
<stop offset="0.54" stop-color="#808080" stop-opacity="0.12"/>
<stop offset="1" stop-color="#808080" stop-opacity="0.1"/>
</linearGradient>
<linearGradient id="paint8_linear" x1="-13196.7" y1="8699.11" x2="-13196.7" y2="7388.15" gradientUnits="userSpaceOnUse">
<stop stop-color="#808080" stop-opacity="0.25"/>
<stop offset="0.54" stop-color="#808080" stop-opacity="0.12"/>
<stop offset="1" stop-color="#808080" stop-opacity="0.1"/>
</linearGradient>
<linearGradient id="paint9_linear" x1="-23100.6" y1="15180.4" x2="-23100.6" y2="9827.11" gradientUnits="userSpaceOnUse">
<stop stop-color="#808080" stop-opacity="0.25"/>
<stop offset="0.54" stop-color="#808080" stop-opacity="0.12"/>
<stop offset="1" stop-color="#808080" stop-opacity="0.1"/>
</linearGradient>
<linearGradient id="paint10_linear" x1="-32134.6" y1="18431.5" x2="-32134.6" y2="11680.4" gradientUnits="userSpaceOnUse">
<stop stop-color="#808080" stop-opacity="0.25"/>
<stop offset="0.54" stop-color="#808080" stop-opacity="0.12"/>
<stop offset="1" stop-color="#808080" stop-opacity="0.1"/>
</linearGradient>
<linearGradient id="paint11_linear" x1="-34783.2" y1="100753" x2="-34783.2" y2="52664.2" gradientUnits="userSpaceOnUse">
<stop stop-color="#808080" stop-opacity="0.25"/>
<stop offset="0.54" stop-color="#808080" stop-opacity="0.12"/>
<stop offset="1" stop-color="#808080" stop-opacity="0.1"/>
</linearGradient>
<linearGradient id="paint12_linear" x1="-28735" y1="11658.7" x2="-28735" y2="10864.6" gradientUnits="userSpaceOnUse">
<stop stop-color="#808080" stop-opacity="0.25"/>
<stop offset="0.54" stop-color="#808080" stop-opacity="0.12"/>
<stop offset="1" stop-color="#808080" stop-opacity="0.1"/>
</linearGradient>
<linearGradient id="paint13_linear" x1="-6633.4" y1="5888.65" x2="-6633.4" y2="5685.04" gradientUnits="userSpaceOnUse">
<stop stop-color="#808080" stop-opacity="0.25"/>
<stop offset="0.54" stop-color="#808080" stop-opacity="0.12"/>
<stop offset="1" stop-color="#808080" stop-opacity="0.1"/>
</linearGradient>
<linearGradient id="paint14_linear" x1="-30043.3" y1="43539.7" x2="-30043.3" y2="31141.5" gradientUnits="userSpaceOnUse">
<stop stop-color="#808080" stop-opacity="0.25"/>
<stop offset="0.54" stop-color="#808080" stop-opacity="0.12"/>
<stop offset="1" stop-color="#808080" stop-opacity="0.1"/>
</linearGradient>
<linearGradient id="paint15_linear" x1="-19452.6" y1="4799.72" x2="-19452.6" y2="4664.13" gradientUnits="userSpaceOnUse">
<stop stop-color="#808080" stop-opacity="0.25"/>
<stop offset="0.54" stop-color="#808080" stop-opacity="0.12"/>
<stop offset="1" stop-color="#808080" stop-opacity="0.1"/>
</linearGradient>
<linearGradient id="paint16_linear" x1="1519.1" y1="644.439" x2="1197.8" y2="607.025" gradientUnits="userSpaceOnUse">
<stop stop-color="white" stop-opacity="0.2"/>
<stop offset="1" stop-color="white" stop-opacity="0"/>
</linearGradient>
<clipPath id="clip0">
<rect width="1620" height="695" fill="white"/>
</clipPath>
<clipPath id="clip1">
<rect width="326.626" height="550" fill="white" transform="matrix(-1 0 0 1 1519.63 95)"/>
</clipPath>
</defs>
</svg>
