<svg width="695" height="926" viewBox="0 0 695 926" fill="none" xmlns="http://www.w3.org/2000/svg">
<g clip-path="url(#clip0)">
<rect width="926" height="695" transform="translate(0 926) rotate(-90)" fill="white"/>
<circle cx="467" cy="211" r="325" transform="rotate(-45 467 211)" fill="#FF8BA4"/>
<path d="M145.25 165.021L512.979 532.751C415.234 546.642 312.376 515.995 237.19 440.81C162.005 365.625 131.358 262.767 145.25 165.021Z" fill="#FF99B0"/>
<path d="M145.25 165.021C151.9 118.226 168.759 72.6028 195.825 31.749L646.251 482.174C605.397 509.241 559.774 526.1 512.979 532.75L145.25 165.021Z" fill="#FF8CA6"/>
<path d="M287.749 -60.1745L738.175 390.251C726.338 408.116 712.55 425.069 696.81 440.81C681.069 456.55 664.116 470.338 646.251 482.175L195.825 31.7494C207.662 13.8841 221.45 -3.0692 237.19 -18.8096C252.931 -34.55 269.884 -48.3383 287.749 -60.1745Z" fill="#FF809C"/>
<path d="M421.021 -110.751L788.75 256.979C782.1 303.774 765.241 349.397 738.175 390.251L287.749 -60.1748C328.603 -87.2415 374.226 -104.1 421.021 -110.751Z" fill="#FF7392"/>
<path d="M788.75 256.979C802.642 159.234 771.995 56.376 696.81 -18.8093C621.624 -93.9947 518.766 -124.642 421.021 -110.75L788.75 256.979Z" fill="#FF6688"/>
<circle cx="467" cy="211" r="325" transform="rotate(-45 467 211)" fill="url(#paint0_linear)"/>
<g filter="url(#filter0_d)">
<path d="M500.161 351.484L497.357 359.514C497.357 359.514 479.834 378.918 492.451 381.594C505.068 384.27 506.469 360.852 506.469 360.852L509.974 354.161L500.161 351.484Z" fill="#FFB8B8"/>
<path d="M519.787 254.465C519.787 254.465 515.582 253.796 514.18 269.854C512.778 285.913 512.077 314.015 512.077 314.015L495.955 353.492L516.283 359.514L526.096 314.684L519.787 254.465Z" fill="#575A89"/>
<path d="M510.675 493.334L508.573 506.047H527.498L526.797 493.334H510.675Z" fill="#FFB8B8"/>
<path d="M571.657 507.385L570.255 524.782L582.872 526.12V506.047L571.657 507.385Z" fill="#FFB8B8"/>
<path d="M518.386 327.397L502.264 415.718L506.47 496.01H528.199V423.078L549.227 385.608L566.049 432.445L570.255 510.73L594.087 506.716L588.48 430.438C588.48 430.438 584.274 328.735 580.068 327.397C575.863 326.058 518.386 327.397 518.386 327.397Z" fill="#333244"/>
<path d="M512.778 502.032C512.778 502.032 512.778 495.341 507.17 499.356C501.563 503.371 494.554 510.731 494.554 510.731C494.554 510.731 467.918 524.782 486.843 526.789C505.769 528.796 517.685 517.422 517.685 517.422L519.787 519.429C519.787 519.429 531.002 517.422 531.002 514.745C530.921 512.503 530.687 510.268 530.302 508.054C530.302 508.054 528.827 496.705 527.111 499.034C525.395 501.363 515.582 506.047 512.778 502.032Z" fill="#333244"/>
<path d="M583.573 520.767C583.573 520.767 570.956 514.745 568.152 520.098C565.349 525.451 563.246 536.156 563.246 536.156C563.246 536.156 554.134 552.884 570.255 551.546C586.377 550.208 585.676 541.509 585.676 539.502C585.676 537.495 584.975 532.811 585.676 530.804C586.377 528.796 583.573 520.767 583.573 520.767Z" fill="#333244"/>
<path d="M555.886 228.035C566.725 228.035 575.512 219.647 575.512 209.3C575.512 198.953 566.725 190.565 555.886 190.565C545.046 190.565 536.259 198.953 536.259 209.3C536.259 219.647 545.046 228.035 555.886 228.035Z" fill="#FFB8B8"/>
<path d="M542.918 218.333L542.217 242.421L567.451 240.413V218.333H542.918Z" fill="#FFB8B8"/>
<path d="M568.853 228.37C568.853 228.37 556.937 235.73 553.432 237.068C549.928 238.407 542.217 231.716 542.217 231.716C542.217 231.716 540.115 233.054 540.115 234.392C540.115 235.73 538.713 241.083 538.713 241.083L521.89 293.942L523.292 331.412C523.292 331.412 574.461 336.095 580.068 330.073C585.676 324.052 577.264 237.738 577.264 237.738L568.853 228.37Z" fill="#E6E6E6"/>
<path d="M615.115 387.616C607.405 392.3 582.171 398.322 582.171 398.322C582.171 398.322 579.416 341.682 569.554 332.75C559.748 323.858 543.738 259.751 558.136 248.604C558.2 248.546 558.268 248.493 558.339 248.443L567.451 228.37C567.451 228.37 568.853 226.363 571.657 229.039C573.925 231.359 576.032 233.818 577.965 236.399L578.365 236.553L597.592 243.759L589.881 276.545C589.881 276.545 622.826 382.933 615.115 387.616Z" fill="#575A89"/>
<path opacity="0.1" d="M578.365 236.553L573.059 255.134L558.136 248.604C558.2 248.546 558.268 248.493 558.339 248.443L567.451 228.37C567.451 228.37 568.853 226.363 571.657 229.039C573.925 231.359 576.032 233.818 577.965 236.399L578.365 236.553Z" fill="black"/>
<path d="M541.867 231.381L539.764 254.13L539.652 255.167L523.643 400.664C523.643 400.664 509.624 395.98 504.717 390.627C499.811 385.274 515.932 325.724 515.932 325.724L517.334 250.785C517.334 250.785 529.769 242.428 534.851 237.838C536.042 236.767 536.827 235.904 536.96 235.395C537.661 232.719 541.867 231.381 541.867 231.381Z" fill="#575A89"/>
<path opacity="0.1" d="M541.867 231.381L539.764 254.13L539.652 255.167L529.601 253.796L534.851 237.838C536.042 236.767 536.827 235.904 536.96 235.395C537.661 232.719 541.867 231.381 541.867 231.381Z" fill="black"/>
<path d="M579.367 344.124L571.657 350.815C571.657 350.815 575.162 364.866 579.367 365.535C579.367 365.535 582.171 361.521 582.872 358.175C583.573 354.83 589.881 351.484 589.881 351.484L579.367 344.124Z" fill="#FFB8B8"/>
<path d="M588.48 242.421L597.592 243.759C597.592 243.759 627.732 292.603 624.228 310C620.723 327.397 592.685 357.506 592.685 357.506L575.162 344.124L601.096 310.669L587.779 270.523L588.48 242.421Z" fill="#575A89"/>
<path d="M536.215 211.405C536.215 211.405 536.215 194.883 540.421 191.128H545.469C545.469 191.128 551.357 182.867 558.928 185.871C566.499 188.875 579.117 194.132 578.276 202.393C577.435 210.654 574.811 215.992 574.811 215.992C574.811 215.992 573.409 215.992 570.285 211.501C566.109 205.499 575.752 207.37 563.134 205.117C550.516 202.864 542.945 199.86 541.263 202.864C539.58 205.868 536.215 211.405 536.215 211.405Z" fill="#2F2E41"/>
<path d="M545.385 192.248C545.385 192.248 546.057 187.42 548.825 186.38L545.385 192.248Z" fill="#2F2E41"/>
<path d="M545.373 193.242C545.373 193.242 543.969 188.559 546.071 186.551L545.373 193.242Z" fill="#2F2E41"/>
<path d="M462.624 152H81.1819C75.659 152 71.1819 156.477 71.1819 162V385.606C71.1819 391.129 75.659 395.606 81.1818 395.606H462.624C468.147 395.606 472.624 391.129 472.624 385.606V162C472.624 156.477 468.147 152 462.624 152Z" fill="#EBEEF2"/>
<path d="M472.624 170.739V164.046H460.28V152H454.913V164.046H88.8925V152H83.5257V164.046H71.1819V170.739H83.5257V376.868H71.1819V383.56H83.5257V395.606H88.8925V383.56H454.913V395.606H460.28V383.56H472.624V376.868H460.28V170.739H472.624ZM454.913 376.868H88.8925V170.739H454.913L454.913 376.868Z" fill="#D0D4D9"/>
<path d="M380.592 184.117H307.922C305.161 184.117 302.922 186.356 302.922 189.117V254.183C302.922 256.945 305.161 259.183 307.922 259.183H380.592C383.354 259.183 385.592 256.945 385.592 254.183V189.117C385.592 186.356 383.354 184.117 380.592 184.117Z" fill="#C2C6CC"/>
<path d="M373.698 193.085H314.817C313.436 193.085 312.317 194.204 312.317 195.585V237.216C312.317 238.597 313.436 239.716 314.817 239.716H373.698C375.078 239.716 376.198 238.597 376.198 237.216V195.585C376.198 194.204 375.078 193.085 373.698 193.085Z" fill="#6C63FF"/>
<path d="M346.269 200.748H328.874C327.493 200.748 326.374 201.867 326.374 203.248V219.626C326.374 221.007 327.493 222.126 328.874 222.126H346.269C347.649 222.126 348.769 221.007 348.769 219.626V203.248C348.769 201.867 347.649 200.748 346.269 200.748Z" fill="#F2F2F2"/>
<path d="M337.447 206.094C336.066 206.094 334.947 207.213 334.947 208.594V229.553C334.947 230.933 336.066 232.053 337.447 232.053H359.641C361.022 232.053 362.141 230.933 362.141 229.553V208.594C362.141 207.213 361.022 206.094 359.641 206.094H337.447ZM360.961 228.427C360.961 229.807 359.842 230.927 358.461 230.927H338.626C337.245 230.927 336.126 229.807 336.126 228.427V209.72C336.126 208.339 337.245 207.22 338.626 207.22H358.461C359.842 207.22 360.961 208.339 360.961 209.72V228.427Z" fill="#3F3D56"/>
<path d="M346.128 244.345H313.126C312.644 244.345 312.253 244.736 312.253 245.218C312.253 245.7 312.644 246.09 313.126 246.09H346.128C346.61 246.09 347 245.7 347 245.218C347 244.736 346.61 244.345 346.128 244.345Z" fill="#F2F2F2"/>
<path d="M344.257 191.972C346.277 191.972 347.915 190.409 347.915 188.481C347.915 186.552 346.277 184.989 344.257 184.989C342.237 184.989 340.6 186.552 340.6 188.481C340.6 190.409 342.237 191.972 344.257 191.972Z" fill="#3F3D56"/>
<path d="M411.771 292.385H339.101C336.34 292.385 334.101 294.623 334.101 297.385V362.451C334.101 365.212 336.34 367.451 339.101 367.451H411.771C414.532 367.451 416.771 365.212 416.771 362.451V297.385C416.771 294.623 414.532 292.385 411.771 292.385Z" fill="#C2C6CC"/>
<path d="M404.877 301.352H345.995C344.615 301.352 343.495 302.471 343.495 303.852V345.483C343.495 346.864 344.615 347.983 345.995 347.983H404.877C406.257 347.983 407.377 346.864 407.377 345.483V303.852C407.377 302.471 406.257 301.352 404.877 301.352Z" fill="#6C63FF"/>
<path d="M377.306 353.484H344.305C343.823 353.484 343.432 353.875 343.432 354.357C343.432 354.839 343.823 355.23 344.305 355.23H377.306C377.788 355.23 378.179 354.839 378.179 354.357C378.179 353.875 377.788 353.484 377.306 353.484Z" fill="#F2F2F2"/>
<path d="M377.306 358.723H344.305C343.823 358.723 343.432 359.113 343.432 359.596C343.432 360.078 343.823 360.468 344.305 360.468H377.306C377.788 360.468 378.179 360.078 378.179 359.596C378.179 359.113 377.788 358.723 377.306 358.723Z" fill="#F2F2F2"/>
<path d="M354.862 331.663C358.902 331.663 362.177 328.537 362.177 324.68C362.177 320.824 358.902 317.697 354.862 317.697C350.822 317.697 347.547 320.824 347.547 324.68C347.547 328.537 350.822 331.663 354.862 331.663Z" fill="#3F3D56"/>
<path d="M375.436 331.663C379.476 331.663 382.751 328.537 382.751 324.68C382.751 320.824 379.476 317.697 375.436 317.697C371.396 317.697 368.121 320.824 368.121 324.68C368.121 328.537 371.396 331.663 375.436 331.663Z" fill="#F2F2F2"/>
<path d="M396.01 331.663C400.05 331.663 403.325 328.537 403.325 324.68C403.325 320.824 400.05 317.697 396.01 317.697C391.97 317.697 388.695 320.824 388.695 324.68C388.695 328.537 391.97 331.663 396.01 331.663Z" fill="#FF6584"/>
<path d="M375.436 300.241C377.456 300.241 379.094 298.678 379.094 296.749C379.094 294.821 377.456 293.258 375.436 293.258C373.416 293.258 371.778 294.821 371.778 296.749C371.778 298.678 373.416 300.241 375.436 300.241Z" fill="#3F3D56"/>
<path d="M285.25 268.93H212.58C209.819 268.93 207.58 271.168 207.58 273.93V338.996C207.58 341.757 209.819 343.996 212.58 343.996H285.25C288.011 343.996 290.25 341.757 290.25 338.996V273.93C290.25 271.168 288.011 268.93 285.25 268.93Z" fill="#C2C6CC"/>
<path d="M278.356 277.897H219.474C218.094 277.897 216.974 279.017 216.974 280.397V322.029C216.974 323.41 218.094 324.529 219.474 324.529H278.356C279.736 324.529 280.856 323.41 280.856 322.029V280.397C280.856 279.017 279.736 277.897 278.356 277.897Z" fill="#6C63FF"/>
<path d="M244.661 321.468C253.227 321.468 260.171 314.84 260.171 306.663C260.171 298.487 253.227 291.858 244.661 291.858C236.096 291.858 229.152 298.487 229.152 306.663C229.152 314.84 236.096 321.468 244.661 321.468Z" fill="#F2F2F2"/>
<path d="M249.233 318.083C245.387 318.083 241.627 316.994 238.43 314.955C235.232 312.915 232.739 310.016 231.268 306.624C229.796 303.232 229.411 299.5 230.161 295.9C230.911 292.299 232.763 288.992 235.483 286.396C238.202 283.8 241.667 282.032 245.439 281.316C249.211 280.599 253.121 280.967 256.674 282.372C260.227 283.777 263.264 286.156 265.401 289.208C267.537 292.261 268.678 295.85 268.678 299.521C268.672 304.442 266.621 309.16 262.976 312.64C259.331 316.12 254.388 318.077 249.233 318.083ZM249.233 281.634C245.527 281.634 241.904 282.683 238.822 284.648C235.741 286.614 233.339 289.407 231.921 292.676C230.503 295.944 230.132 299.541 230.855 303.01C231.578 306.48 233.362 309.667 235.983 312.169C238.603 314.67 241.942 316.374 245.577 317.064C249.212 317.754 252.98 317.4 256.403 316.046C259.827 314.692 262.754 312.4 264.813 309.458C266.872 306.517 267.971 303.059 267.971 299.521C267.965 294.779 265.989 290.232 262.476 286.879C258.963 283.526 254.201 281.639 249.233 281.634Z" fill="#3F3D56"/>
<path d="M250.785 334.395H217.784C217.302 334.395 216.911 334.785 216.911 335.267C216.911 335.749 217.302 336.14 217.784 336.14H250.785C251.267 336.14 251.658 335.749 251.658 335.267C251.658 334.785 251.267 334.395 250.785 334.395Z" fill="#F2F2F2"/>
<path d="M264.501 329.158H217.784C217.302 329.158 216.911 329.549 216.911 330.031C216.911 330.513 217.302 330.904 217.784 330.904H264.501C264.983 330.904 265.374 330.513 265.374 330.031C265.374 329.549 264.983 329.158 264.501 329.158Z" fill="#F2F2F2"/>
<path d="M248.915 276.786C250.935 276.786 252.573 275.222 252.573 273.294C252.573 271.366 250.935 269.803 248.915 269.803C246.895 269.803 245.257 271.366 245.257 273.294C245.257 275.222 246.895 276.786 248.915 276.786Z" fill="#3F3D56"/>
<path d="M194.387 182.778H121.717C118.956 182.778 116.717 185.017 116.717 187.778V252.844C116.717 255.606 118.956 257.844 121.717 257.844H194.387C197.149 257.844 199.387 255.606 199.387 252.844V187.778C199.387 185.017 197.149 182.778 194.387 182.778Z" fill="#C2C6CC"/>
<path d="M187.493 191.746H128.612C127.231 191.746 126.112 192.865 126.112 194.246V235.877C126.112 237.258 127.231 238.377 128.612 238.377H187.493C188.874 238.377 189.993 237.258 189.993 235.877V194.246C189.993 192.865 188.874 191.746 187.493 191.746Z" fill="#6C63FF"/>
<path d="M162.98 228.252H153.125C152.051 228.252 151.181 229.122 151.181 230.196C151.181 231.269 152.051 232.139 153.125 232.139H162.98C164.053 232.139 164.924 231.269 164.924 230.196C164.924 229.122 164.053 228.252 162.98 228.252Z" fill="#3F3D56"/>
<path d="M180.705 197.984H135.4C134.94 197.984 134.567 198.357 134.567 198.817C134.567 199.277 134.94 199.65 135.4 199.65H180.705C181.165 199.65 181.538 199.277 181.538 198.817C181.538 198.357 181.165 197.984 180.705 197.984Z" fill="#3F3D56"/>
<path d="M180.705 203.261H135.4C134.94 203.261 134.567 203.634 134.567 204.094C134.567 204.554 134.94 204.927 135.4 204.927H180.705C181.165 204.927 181.538 204.554 181.538 204.094C181.538 203.634 181.165 203.261 180.705 203.261Z" fill="#3F3D56"/>
<path d="M180.705 208.536H135.4C134.94 208.536 134.567 208.909 134.567 209.369C134.567 209.829 134.94 210.202 135.4 210.202H180.705C181.165 210.202 181.538 209.829 181.538 209.369C181.538 208.909 181.165 208.536 180.705 208.536Z" fill="#3F3D56"/>
<path d="M180.705 213.812H135.4C134.94 213.812 134.567 214.185 134.567 214.646C134.567 215.106 134.94 215.479 135.4 215.479H180.705C181.165 215.479 181.538 215.106 181.538 214.646C181.538 214.185 181.165 213.812 180.705 213.812Z" fill="#3F3D56"/>
<path d="M180.705 219.088H135.4C134.94 219.088 134.567 219.461 134.567 219.921C134.567 220.381 134.94 220.754 135.4 220.754H180.705C181.165 220.754 181.538 220.381 181.538 219.921C181.538 219.461 181.165 219.088 180.705 219.088Z" fill="#3F3D56"/>
<path d="M159.923 243.006H126.921C126.439 243.006 126.048 243.397 126.048 243.879C126.048 244.361 126.439 244.752 126.921 244.752H159.922C160.405 244.752 160.795 244.361 160.795 243.879C160.795 243.397 160.405 243.006 159.923 243.006Z" fill="#F2F2F2"/>
<path d="M173.638 247.37H126.921C126.439 247.37 126.048 247.761 126.048 248.243C126.048 248.725 126.439 249.116 126.921 249.116H173.638C174.12 249.116 174.511 248.725 174.511 248.243C174.511 247.761 174.12 247.37 173.638 247.37Z" fill="#F2F2F2"/>
<path d="M158.052 190.634C160.072 190.634 161.71 189.071 161.71 187.143C161.71 185.215 160.072 183.651 158.052 183.651C156.032 183.651 154.395 185.215 154.395 187.143C154.395 189.071 156.032 190.634 158.052 190.634Z" fill="#3F3D56"/>
<path fill-rule="evenodd" clip-rule="evenodd" d="M82.7693 152H80.4255C74.9026 152 70.4255 156.477 70.4255 162V164.046V170.739V376.868V383.56V385.606C70.4255 391.129 74.9026 395.606 80.4255 395.606H82.7693H88.1362H454.157H459.524H461.868C467.391 395.606 471.868 391.129 471.868 385.606V383.56V376.868V170.739V164.046V162C471.868 156.477 467.391 152 461.868 152H459.524H454.157H88.1362H82.7693ZM536.494 206.822C536.449 208.101 536.449 208.895 536.449 208.895L536.59 208.662C537.087 213.442 539.466 217.694 543.009 220.732L542.755 229.462C542.662 229.385 542.589 229.323 542.538 229.279L542.481 229.231L542.451 229.206C542.451 229.206 542.284 229.312 542.043 229.495L542.101 228.871C542.101 228.871 541.838 228.954 541.433 229.122C540.217 229.624 537.72 230.878 537.195 232.885L537.194 232.886C537.061 233.394 536.276 234.257 535.085 235.328C530.003 239.918 517.568 248.275 517.568 248.275L517.46 254.086C516.307 256.08 515.061 259.929 514.414 267.344C513.012 283.403 512.311 311.505 512.311 311.505L496.189 350.982L499.365 351.923L497.591 357.004C497.591 357.004 480.068 376.407 492.685 379.084C505.302 381.76 506.703 358.342 506.703 358.342L508.406 355.091C505.135 370.197 502.573 385.523 504.951 388.117C505.467 388.68 506.084 389.235 506.775 389.779L502.498 413.208L506.704 493.5H510.467L510.122 495.585C509.407 495.675 508.516 496.05 507.405 496.846C501.797 500.86 494.788 508.221 494.788 508.221C494.788 508.221 468.152 522.272 487.077 524.279C506.003 526.286 517.919 514.912 517.919 514.912L520.021 516.919C520.021 516.919 531.236 514.912 531.236 512.235C531.155 509.993 530.921 507.758 530.536 505.544C530.536 505.544 529.061 494.196 527.345 496.524L527.179 493.5H528.433V420.568L549.461 383.099L566.284 429.936L570.489 508.22L571.637 508.027L571.026 515.613C569.878 515.916 568.941 516.53 568.386 517.588C565.583 522.941 563.48 533.646 563.48 533.646C563.48 533.646 554.368 550.374 570.489 549.036C586.03 547.746 585.939 539.616 585.912 537.234L585.912 537.226L585.911 537.203C585.911 537.126 585.91 537.056 585.91 536.992C585.91 536.401 585.849 535.577 585.781 534.659L585.781 534.657C585.618 532.456 585.416 529.709 585.91 528.293C586.611 526.286 583.807 518.257 583.807 518.257C583.807 518.257 583.724 518.217 583.571 518.148C583.455 518.095 583.298 518.025 583.106 517.942V506.095L594.321 504.206L588.714 427.928C588.714 427.928 588.099 413.068 587.105 394.633C594.784 392.649 609.726 388.521 615.349 385.106C618.773 383.026 614.181 360.895 608.017 336.928C615.27 327.388 622.759 315.94 624.462 307.49C627.955 290.149 598.018 241.561 597.827 241.25L597.826 241.249L578.599 234.043L578.199 233.889C576.266 231.307 574.159 228.849 571.891 226.529C569.788 224.521 568.474 225.149 567.948 225.588C567.773 225.734 567.685 225.86 567.685 225.86L567.685 225.86V221.928C570.774 219.774 573.179 216.779 574.53 213.296C574.878 213.481 575.045 213.481 575.045 213.481C575.045 213.481 577.669 208.144 578.51 199.883C579.351 191.622 566.733 186.365 559.162 183.361C554.041 181.328 549.689 184.451 547.409 186.685L549.059 183.87C547.267 184.544 546.353 186.806 545.932 188.317C545.901 188.356 545.873 188.392 545.848 188.424L546.305 184.041C545.134 185.16 545.051 187.11 545.208 188.618H540.655C537.72 191.238 536.833 200.074 536.565 205.176C536.518 205.708 536.493 206.246 536.493 206.79L536.494 206.822ZM601.331 308.159L600.498 309.233C596.661 295.684 593.156 284.012 591.366 278.121L601.331 308.159Z" fill="url(#paint1_linear)"/>
</g>
<path d="M123.683 659.6C120.05 659.6 116.766 658.817 113.833 657.25C110.933 655.683 108.65 653.533 106.983 650.8C105.35 648.033 104.533 644.933 104.533 641.5C104.533 638.067 105.35 634.983 106.983 632.25C108.65 629.483 110.933 627.317 113.833 625.75C116.766 624.183 120.05 623.4 123.683 623.4C127.316 623.4 130.583 624.183 133.483 625.75C136.383 627.317 138.666 629.483 140.333 632.25C142 634.983 142.833 638.067 142.833 641.5C142.833 644.933 142 648.033 140.333 650.8C138.666 653.533 136.383 655.683 133.483 657.25C130.583 658.817 127.316 659.6 123.683 659.6ZM123.683 652.7C125.75 652.7 127.616 652.233 129.283 651.3C130.95 650.333 132.25 649 133.183 647.3C134.15 645.6 134.633 643.667 134.633 641.5C134.633 639.333 134.15 637.4 133.183 635.7C132.25 634 130.95 632.683 129.283 631.75C127.616 630.783 125.75 630.3 123.683 630.3C121.616 630.3 119.75 630.783 118.083 631.75C116.416 632.683 115.1 634 114.133 635.7C113.2 637.4 112.733 639.333 112.733 641.5C112.733 643.667 113.2 645.6 114.133 647.3C115.1 649 116.416 650.333 118.083 651.3C119.75 652.233 121.616 652.7 123.683 652.7ZM175.971 632.1V659H168.571V655.8C167.537 656.967 166.304 657.867 164.871 658.5C163.437 659.1 161.887 659.4 160.221 659.4C156.687 659.4 153.887 658.383 151.821 656.35C149.754 654.317 148.721 651.3 148.721 647.3V632.1H156.521V646.15C156.521 650.483 158.337 652.65 161.971 652.65C163.837 652.65 165.337 652.05 166.471 650.85C167.604 649.617 168.171 647.8 168.171 645.4V632.1H175.971ZM191.147 635.65C192.08 634.35 193.33 633.367 194.897 632.7C196.497 632.033 198.33 631.7 200.397 631.7V638.9C199.53 638.833 198.947 638.8 198.647 638.8C196.413 638.8 194.663 639.433 193.397 640.7C192.13 641.933 191.497 643.8 191.497 646.3V659H183.697V632.1H191.147V635.65ZM236.74 631.7C240.073 631.7 242.757 632.7 244.79 634.7C246.857 636.7 247.89 639.667 247.89 643.6V659H240.09V644.8C240.09 642.667 239.623 641.083 238.69 640.05C237.757 638.983 236.407 638.45 234.64 638.45C232.673 638.45 231.107 639.067 229.94 640.3C228.773 641.5 228.19 643.3 228.19 645.7V659H220.39V621.9H228.19V634.9C229.223 633.867 230.473 633.083 231.94 632.55C233.407 631.983 235.007 631.7 236.74 631.7ZM282.103 645.65C282.103 645.75 282.053 646.45 281.953 647.75H261.603C261.97 649.417 262.837 650.733 264.203 651.7C265.57 652.667 267.27 653.15 269.303 653.15C270.703 653.15 271.937 652.95 273.003 652.55C274.103 652.117 275.12 651.45 276.053 650.55L280.203 655.05C277.67 657.95 273.97 659.4 269.103 659.4C266.07 659.4 263.387 658.817 261.053 657.65C258.72 656.45 256.92 654.8 255.653 652.7C254.387 650.6 253.753 648.217 253.753 645.55C253.753 642.917 254.37 640.55 255.603 638.45C256.87 636.317 258.587 634.667 260.753 633.5C262.953 632.3 265.403 631.7 268.103 631.7C270.737 631.7 273.12 632.267 275.253 633.4C277.387 634.533 279.053 636.167 280.253 638.3C281.487 640.4 282.103 642.85 282.103 645.65ZM268.153 637.6C266.387 637.6 264.903 638.1 263.703 639.1C262.503 640.1 261.77 641.467 261.503 643.2H274.753C274.487 641.5 273.753 640.15 272.553 639.15C271.353 638.117 269.887 637.6 268.153 637.6ZM287.796 621.9H295.596V659H287.796V621.9ZM319.235 631.7C321.735 631.7 324.002 632.283 326.035 633.45C328.102 634.583 329.719 636.2 330.885 638.3C332.052 640.367 332.635 642.783 332.635 645.55C332.635 648.317 332.052 650.75 330.885 652.85C329.719 654.917 328.102 656.533 326.035 657.7C324.002 658.833 321.735 659.4 319.235 659.4C315.802 659.4 313.102 658.317 311.135 656.15V668.7H303.335V632.1H310.785V635.2C312.719 632.867 315.535 631.7 319.235 631.7ZM317.885 653C319.885 653 321.519 652.333 322.785 651C324.085 649.633 324.735 647.817 324.735 645.55C324.735 643.283 324.085 641.483 322.785 640.15C321.519 638.783 319.885 638.1 317.885 638.1C315.885 638.1 314.235 638.783 312.935 640.15C311.669 641.483 311.035 643.283 311.035 645.55C311.035 647.817 311.669 649.633 312.935 651C314.235 652.333 315.885 653 317.885 653ZM346.907 632.7H353.807V638.7H347.107V659H339.307V638.7H335.157V632.7H339.307V631.5C339.307 628.433 340.207 626 342.007 624.2C343.84 622.4 346.407 621.5 349.707 621.5C350.874 621.5 351.974 621.633 353.007 621.9C354.074 622.133 354.957 622.483 355.657 622.95L353.607 628.6C352.707 627.967 351.657 627.65 350.457 627.65C348.09 627.65 346.907 628.95 346.907 631.55V632.7ZM385.293 632.1V659H377.893V655.8C376.859 656.967 375.626 657.867 374.193 658.5C372.759 659.1 371.209 659.4 369.543 659.4C366.009 659.4 363.209 658.383 361.143 656.35C359.076 654.317 358.043 651.3 358.043 647.3V632.1H365.843V646.15C365.843 650.483 367.659 652.65 371.293 652.65C373.159 652.65 374.659 652.05 375.793 650.85C376.926 649.617 377.493 647.8 377.493 645.4V632.1H385.293ZM393.019 621.9H400.819V659H393.019V621.9ZM423.218 621.9H431.018V659H423.218V621.9ZM438.757 632.1H446.557V659H438.757V632.1ZM442.657 628.35C441.224 628.35 440.057 627.933 439.157 627.1C438.257 626.267 437.807 625.233 437.807 624C437.807 622.767 438.257 621.733 439.157 620.9C440.057 620.067 441.224 619.65 442.657 619.65C444.091 619.65 445.257 620.05 446.157 620.85C447.057 621.65 447.507 622.65 447.507 623.85C447.507 625.15 447.057 626.233 446.157 627.1C445.257 627.933 444.091 628.35 442.657 628.35ZM470.196 631.7C472.696 631.7 474.963 632.283 476.996 633.45C479.063 634.583 480.68 636.2 481.846 638.3C483.013 640.367 483.596 642.783 483.596 645.55C483.596 648.317 483.013 650.75 481.846 652.85C480.68 654.917 479.063 656.533 476.996 657.7C474.963 658.833 472.696 659.4 470.196 659.4C466.496 659.4 463.68 658.233 461.746 655.9V659H454.296V621.9H462.096V634.95C464.063 632.783 466.763 631.7 470.196 631.7ZM468.846 653C470.846 653 472.48 652.333 473.746 651C475.046 649.633 475.696 647.817 475.696 645.55C475.696 643.283 475.046 641.483 473.746 640.15C472.48 638.783 470.846 638.1 468.846 638.1C466.846 638.1 465.196 638.783 463.896 640.15C462.63 641.483 461.996 643.283 461.996 645.55C461.996 647.817 462.63 649.633 463.896 651C465.196 652.333 466.846 653 468.846 653ZM496.768 635.65C497.701 634.35 498.951 633.367 500.518 632.7C502.118 632.033 503.951 631.7 506.018 631.7V638.9C505.151 638.833 504.568 638.8 504.268 638.8C502.034 638.8 500.284 639.433 499.018 640.7C497.751 641.933 497.118 643.8 497.118 646.3V659H489.318V632.1H496.768V635.65ZM521.859 631.7C526.026 631.7 529.226 632.7 531.459 634.7C533.693 636.667 534.809 639.65 534.809 643.65V659H527.509V655.65C526.043 658.15 523.309 659.4 519.309 659.4C517.243 659.4 515.443 659.05 513.909 658.35C512.409 657.65 511.259 656.683 510.459 655.45C509.659 654.217 509.259 652.817 509.259 651.25C509.259 648.75 510.193 646.783 512.059 645.35C513.959 643.917 516.876 643.2 520.809 643.2H527.009C527.009 641.5 526.493 640.2 525.459 639.3C524.426 638.367 522.876 637.9 520.809 637.9C519.376 637.9 517.959 638.133 516.559 638.6C515.193 639.033 514.026 639.633 513.059 640.4L510.259 634.95C511.726 633.917 513.476 633.117 515.509 632.55C517.576 631.983 519.693 631.7 521.859 631.7ZM521.259 654.15C522.593 654.15 523.776 653.85 524.809 653.25C525.843 652.617 526.576 651.7 527.009 650.5V647.75H521.659C518.459 647.75 516.859 648.8 516.859 650.9C516.859 651.9 517.243 652.7 518.009 653.3C518.809 653.867 519.893 654.15 521.259 654.15ZM549.819 635.65C550.752 634.35 552.002 633.367 553.569 632.7C555.169 632.033 557.002 631.7 559.069 631.7V638.9C558.202 638.833 557.619 638.8 557.319 638.8C555.085 638.8 553.335 639.433 552.069 640.7C550.802 641.933 550.169 643.8 550.169 646.3V659H542.369V632.1H549.819V635.65ZM591.834 632.1L579.684 660.65C578.451 663.75 576.918 665.933 575.084 667.2C573.284 668.467 571.101 669.1 568.534 669.1C567.134 669.1 565.751 668.883 564.384 668.45C563.018 668.017 561.901 667.417 561.034 666.65L563.884 661.1C564.484 661.633 565.168 662.05 565.934 662.35C566.734 662.65 567.518 662.8 568.284 662.8C569.351 662.8 570.218 662.533 570.884 662C571.551 661.5 572.151 660.65 572.684 659.45L572.784 659.2L561.134 632.1H569.184L576.734 650.35L584.334 632.1H591.834ZM131.274 694.1L121.524 721H114.024L107.974 704.3L101.724 721H94.2236L84.5236 694.1H91.8736L98.2236 712.3L104.824 694.1H111.424L117.824 712.3L124.374 694.1H131.274ZM135.4 694.1H143.2V721H135.4V694.1ZM139.3 690.35C137.866 690.35 136.7 689.933 135.8 689.1C134.9 688.267 134.45 687.233 134.45 686C134.45 684.767 134.9 683.733 135.8 682.9C136.7 682.067 137.866 681.65 139.3 681.65C140.733 681.65 141.9 682.05 142.8 682.85C143.7 683.65 144.15 684.65 144.15 685.85C144.15 687.15 143.7 688.233 142.8 689.1C141.9 689.933 140.733 690.35 139.3 690.35ZM168.289 719.7C167.522 720.267 166.572 720.7 165.439 721C164.339 721.267 163.172 721.4 161.939 721.4C158.739 721.4 156.256 720.583 154.489 718.95C152.756 717.317 151.889 714.917 151.889 711.75V700.7H147.739V694.7H151.889V688.15H159.689V694.7H166.389V700.7H159.689V711.65C159.689 712.783 159.972 713.667 160.539 714.3C161.139 714.9 161.972 715.2 163.039 715.2C164.272 715.2 165.322 714.867 166.189 714.2L168.289 719.7ZM189.517 693.7C192.851 693.7 195.534 694.7 197.567 696.7C199.634 698.7 200.667 701.667 200.667 705.6V721H192.867V706.8C192.867 704.667 192.401 703.083 191.467 702.05C190.534 700.983 189.184 700.45 187.417 700.45C185.451 700.45 183.884 701.067 182.717 702.3C181.551 703.5 180.967 705.3 180.967 707.7V721H173.167V683.9H180.967V696.9C182.001 695.867 183.251 695.083 184.717 694.55C186.184 693.983 187.784 693.7 189.517 693.7ZM239.248 693.7C242.581 693.7 245.265 694.7 247.298 696.7C249.365 698.7 250.398 701.667 250.398 705.6V721H242.598V706.8C242.598 704.667 242.131 703.083 241.198 702.05C240.265 700.983 238.915 700.45 237.148 700.45C235.181 700.45 233.615 701.067 232.448 702.3C231.281 703.5 230.698 705.3 230.698 707.7V721H222.898V683.9H230.698V696.9C231.731 695.867 232.981 695.083 234.448 694.55C235.915 693.983 237.515 693.7 239.248 693.7ZM268.818 693.7C272.985 693.7 276.185 694.7 278.418 696.7C280.651 698.667 281.768 701.65 281.768 705.65V721H274.468V717.65C273.001 720.15 270.268 721.4 266.268 721.4C264.201 721.4 262.401 721.05 260.868 720.35C259.368 719.65 258.218 718.683 257.418 717.45C256.618 716.217 256.218 714.817 256.218 713.25C256.218 710.75 257.151 708.783 259.018 707.35C260.918 705.917 263.835 705.2 267.768 705.2H273.968C273.968 703.5 273.451 702.2 272.418 701.3C271.385 700.367 269.835 699.9 267.768 699.9C266.335 699.9 264.918 700.133 263.518 700.6C262.151 701.033 260.985 701.633 260.018 702.4L257.218 696.95C258.685 695.917 260.435 695.117 262.468 694.55C264.535 693.983 266.651 693.7 268.818 693.7ZM268.218 716.15C269.551 716.15 270.735 715.85 271.768 715.25C272.801 714.617 273.535 713.7 273.968 712.5V709.75H268.618C265.418 709.75 263.818 710.8 263.818 712.9C263.818 713.9 264.201 714.7 264.968 715.3C265.768 715.867 266.851 716.15 268.218 716.15ZM305.678 693.7C309.011 693.7 311.694 694.7 313.728 696.7C315.794 698.7 316.828 701.667 316.828 705.6V721H309.028V706.8C309.028 704.667 308.561 703.083 307.628 702.05C306.694 700.983 305.344 700.45 303.578 700.45C301.611 700.45 300.044 701.067 298.878 702.3C297.711 703.5 297.128 705.3 297.128 707.7V721H289.328V694.1H296.778V697.25C297.811 696.117 299.094 695.25 300.628 694.65C302.161 694.017 303.844 693.7 305.678 693.7ZM352.091 683.9V721H344.641V717.9C342.707 720.233 339.907 721.4 336.241 721.4C333.707 721.4 331.407 720.833 329.341 719.7C327.307 718.567 325.707 716.95 324.541 714.85C323.374 712.75 322.791 710.317 322.791 707.55C322.791 704.783 323.374 702.35 324.541 700.25C325.707 698.15 327.307 696.533 329.341 695.4C331.407 694.267 333.707 693.7 336.241 693.7C339.674 693.7 342.357 694.783 344.291 696.95V683.9H352.091ZM337.591 715C339.557 715 341.191 714.333 342.491 713C343.791 711.633 344.441 709.817 344.441 707.55C344.441 705.283 343.791 703.483 342.491 702.15C341.191 700.783 339.557 700.1 337.591 700.1C335.591 700.1 333.941 700.783 332.641 702.15C331.341 703.483 330.691 705.283 330.691 707.55C330.691 709.817 331.341 711.633 332.641 713C333.941 714.333 335.591 715 337.591 715ZM386.51 694.1L374.36 722.65C373.127 725.75 371.593 727.933 369.76 729.2C367.96 730.467 365.777 731.1 363.21 731.1C361.81 731.1 360.427 730.883 359.06 730.45C357.693 730.017 356.577 729.417 355.71 728.65L358.56 723.1C359.16 723.633 359.843 724.05 360.61 724.35C361.41 724.65 362.193 724.8 362.96 724.8C364.027 724.8 364.893 724.533 365.56 724C366.227 723.5 366.827 722.65 367.36 721.45L367.46 721.2L355.81 694.1H363.86L371.41 712.35L379.01 694.1H386.51ZM417.853 721.4C414.986 721.4 412.403 720.817 410.103 719.65C407.836 718.45 406.053 716.8 404.753 714.7C403.486 712.6 402.853 710.217 402.853 707.55C402.853 704.883 403.486 702.5 404.753 700.4C406.053 698.3 407.836 696.667 410.103 695.5C412.403 694.3 414.986 693.7 417.853 693.7C420.686 693.7 423.153 694.3 425.253 695.5C427.386 696.667 428.936 698.35 429.903 700.55L423.853 703.8C422.453 701.333 420.436 700.1 417.803 700.1C415.77 700.1 414.086 700.767 412.753 702.1C411.42 703.433 410.753 705.25 410.753 707.55C410.753 709.85 411.42 711.667 412.753 713C414.086 714.333 415.77 715 417.803 715C420.47 715 422.486 713.767 423.853 711.3L429.903 714.6C428.936 716.733 427.386 718.4 425.253 719.6C423.153 720.8 420.686 721.4 417.853 721.4ZM447.352 721.4C444.519 721.4 441.969 720.817 439.702 719.65C437.469 718.45 435.719 716.8 434.452 714.7C433.185 712.6 432.552 710.217 432.552 707.55C432.552 704.883 433.185 702.5 434.452 700.4C435.719 698.3 437.469 696.667 439.702 695.5C441.969 694.3 444.519 693.7 447.352 693.7C450.185 693.7 452.719 694.3 454.952 695.5C457.185 696.667 458.935 698.3 460.202 700.4C461.469 702.5 462.102 704.883 462.102 707.55C462.102 710.217 461.469 712.6 460.202 714.7C458.935 716.8 457.185 718.45 454.952 719.65C452.719 720.817 450.185 721.4 447.352 721.4ZM447.352 715C449.352 715 450.985 714.333 452.252 713C453.552 711.633 454.202 709.817 454.202 707.55C454.202 705.283 453.552 703.483 452.252 702.15C450.985 700.783 449.352 700.1 447.352 700.1C445.352 700.1 443.702 700.783 442.402 702.15C441.102 703.483 440.452 705.283 440.452 707.55C440.452 709.817 441.102 711.633 442.402 713C443.702 714.333 445.352 715 447.352 715ZM484.166 693.7C487.499 693.7 490.182 694.7 492.216 696.7C494.282 698.7 495.316 701.667 495.316 705.6V721H487.516V706.8C487.516 704.667 487.049 703.083 486.116 702.05C485.182 700.983 483.832 700.45 482.066 700.45C480.099 700.45 478.532 701.067 477.366 702.3C476.199 703.5 475.616 705.3 475.616 707.7V721H467.816V694.1H475.266V697.25C476.299 696.117 477.582 695.25 479.116 694.65C480.649 694.017 482.332 693.7 484.166 693.7ZM520.236 719.7C519.469 720.267 518.519 720.7 517.386 721C516.286 721.267 515.119 721.4 513.886 721.4C510.686 721.4 508.203 720.583 506.436 718.95C504.703 717.317 503.836 714.917 503.836 711.75V700.7H499.686V694.7H503.836V688.15H511.636V694.7H518.336V700.7H511.636V711.65C511.636 712.783 511.919 713.667 512.486 714.3C513.086 714.9 513.919 715.2 514.986 715.2C516.219 715.2 517.269 714.867 518.136 714.2L520.236 719.7ZM550.635 707.65C550.635 707.75 550.585 708.45 550.485 709.75H530.135C530.501 711.417 531.368 712.733 532.735 713.7C534.101 714.667 535.801 715.15 537.835 715.15C539.235 715.15 540.468 714.95 541.535 714.55C542.635 714.117 543.651 713.45 544.585 712.55L548.735 717.05C546.201 719.95 542.501 721.4 537.635 721.4C534.601 721.4 531.918 720.817 529.585 719.65C527.251 718.45 525.451 716.8 524.185 714.7C522.918 712.6 522.285 710.217 522.285 707.55C522.285 704.917 522.901 702.55 524.135 700.45C525.401 698.317 527.118 696.667 529.285 695.5C531.485 694.3 533.935 693.7 536.635 693.7C539.268 693.7 541.651 694.267 543.785 695.4C545.918 696.533 547.585 698.167 548.785 700.3C550.018 702.4 550.635 704.85 550.635 707.65ZM536.685 699.6C534.918 699.6 533.435 700.1 532.235 701.1C531.035 702.1 530.301 703.467 530.035 705.2H543.285C543.018 703.5 542.285 702.15 541.085 701.15C539.885 700.117 538.418 699.6 536.685 699.6ZM572.678 693.7C576.011 693.7 578.694 694.7 580.728 696.7C582.794 698.7 583.828 701.667 583.828 705.6V721H576.028V706.8C576.028 704.667 575.561 703.083 574.628 702.05C573.694 700.983 572.344 700.45 570.578 700.45C568.611 700.45 567.044 701.067 565.878 702.3C564.711 703.5 564.128 705.3 564.128 707.7V721H556.328V694.1H563.778V697.25C564.811 696.117 566.094 695.25 567.628 694.65C569.161 694.017 570.844 693.7 572.678 693.7ZM608.748 719.7C607.981 720.267 607.031 720.7 605.898 721C604.798 721.267 603.631 721.4 602.398 721.4C599.198 721.4 596.715 720.583 594.948 718.95C593.215 717.317 592.348 714.917 592.348 711.75V700.7H588.198V694.7H592.348V688.15H600.148V694.7H606.848V700.7H600.148V711.65C600.148 712.783 600.431 713.667 600.998 714.3C601.598 714.9 602.431 715.2 603.498 715.2C604.731 715.2 605.781 714.867 606.648 714.2L608.748 719.7Z" fill="#2F2E44"/>
<path d="M251.975 67.325C251.975 67.375 251.95 67.725 251.9 68.375H241.725C241.908 69.2083 242.342 69.8667 243.025 70.35C243.708 70.8333 244.558 71.075 245.575 71.075C246.275 71.075 246.892 70.975 247.425 70.775C247.975 70.5583 248.483 70.225 248.95 69.775L251.025 72.025C249.758 73.475 247.908 74.2 245.475 74.2C243.958 74.2 242.617 73.9083 241.45 73.325C240.283 72.725 239.383 71.9 238.75 70.85C238.117 69.8 237.8 68.6083 237.8 67.275C237.8 65.9583 238.108 64.775 238.725 63.725C239.358 62.6583 240.217 61.8333 241.3 61.25C242.4 60.65 243.625 60.35 244.975 60.35C246.292 60.35 247.483 60.6333 248.55 61.2C249.617 61.7667 250.45 62.5833 251.05 63.65C251.667 64.7 251.975 65.925 251.975 67.325ZM245 63.3C244.117 63.3 243.375 63.55 242.775 64.05C242.175 64.55 241.808 65.2333 241.675 66.1H248.3C248.167 65.25 247.8 64.575 247.2 64.075C246.6 63.5583 245.867 63.3 245 63.3ZM262.996 60.35C264.663 60.35 266.005 60.85 267.021 61.85C268.055 62.85 268.571 64.3333 268.571 66.3V74H264.671V66.9C264.671 65.8333 264.438 65.0417 263.971 64.525C263.505 63.9917 262.83 63.725 261.946 63.725C260.963 63.725 260.18 64.0333 259.596 64.65C259.013 65.25 258.721 66.15 258.721 67.35V74H254.821V60.55H258.546V62.125C259.063 61.5583 259.705 61.125 260.471 60.825C261.238 60.5083 262.08 60.35 262.996 60.35ZM286.378 60.55V71.75C286.378 74.2167 285.736 76.05 284.453 77.25C283.17 78.45 281.295 79.05 278.828 79.05C277.528 79.05 276.295 78.8917 275.128 78.575C273.961 78.2583 272.995 77.8 272.228 77.2L273.778 74.4C274.345 74.8667 275.061 75.2333 275.928 75.5C276.795 75.7833 277.661 75.925 278.528 75.925C279.878 75.925 280.87 75.6167 281.503 75C282.153 74.4 282.478 73.4833 282.478 72.25V71.675C281.461 72.7917 280.045 73.35 278.228 73.35C276.995 73.35 275.861 73.0833 274.828 72.55C273.811 72 273.003 71.2333 272.403 70.25C271.803 69.2667 271.503 68.1333 271.503 66.85C271.503 65.5667 271.803 64.4333 272.403 63.45C273.003 62.4667 273.811 61.7083 274.828 61.175C275.861 60.625 276.995 60.35 278.228 60.35C280.178 60.35 281.661 60.9917 282.678 62.275V60.55H286.378ZM279.003 70.15C280.036 70.15 280.878 69.85 281.528 69.25C282.195 68.6333 282.528 67.8333 282.528 66.85C282.528 65.8667 282.195 65.075 281.528 64.475C280.878 63.8583 280.036 63.55 279.003 63.55C277.97 63.55 277.12 63.8583 276.453 64.475C275.786 65.075 275.453 65.8667 275.453 66.85C275.453 67.8333 275.786 68.6333 276.453 69.25C277.12 69.85 277.97 70.15 279.003 70.15ZM290.258 55.45H294.158V74H290.258V55.45ZM298.028 60.55H301.928V74H298.028V60.55ZM299.978 58.675C299.261 58.675 298.678 58.4667 298.228 58.05C297.778 57.6333 297.553 57.1167 297.553 56.5C297.553 55.8833 297.778 55.3667 298.228 54.95C298.678 54.5333 299.261 54.325 299.978 54.325C300.694 54.325 301.278 54.525 301.728 54.925C302.178 55.325 302.403 55.825 302.403 56.425C302.403 57.075 302.178 57.6167 301.728 58.05C301.278 58.4667 300.694 58.675 299.978 58.675ZM310.322 74.2C309.205 74.2 308.114 74.0667 307.047 73.8C305.98 73.5167 305.13 73.1667 304.497 72.75L305.797 69.95C306.397 70.3333 307.122 70.65 307.972 70.9C308.822 71.1333 309.655 71.25 310.472 71.25C312.122 71.25 312.947 70.8417 312.947 70.025C312.947 69.6417 312.722 69.3667 312.272 69.2C311.822 69.0333 311.13 68.8917 310.197 68.775C309.097 68.6083 308.189 68.4167 307.472 68.2C306.755 67.9833 306.13 67.6 305.597 67.05C305.08 66.5 304.822 65.7167 304.822 64.7C304.822 63.85 305.064 63.1 305.547 62.45C306.047 61.7833 306.764 61.2667 307.697 60.9C308.647 60.5333 309.764 60.35 311.047 60.35C311.997 60.35 312.939 60.4583 313.872 60.675C314.822 60.875 315.605 61.1583 316.222 61.525L314.922 64.3C313.739 63.6333 312.447 63.3 311.047 63.3C310.214 63.3 309.589 63.4167 309.172 63.65C308.755 63.8833 308.547 64.1833 308.547 64.55C308.547 64.9667 308.772 65.2583 309.222 65.425C309.672 65.5917 310.389 65.75 311.372 65.9C312.472 66.0833 313.372 66.2833 314.072 66.5C314.772 66.7 315.38 67.075 315.897 67.625C316.414 68.175 316.672 68.9417 316.672 69.925C316.672 70.7583 316.422 71.5 315.922 72.15C315.422 72.8 314.689 73.3083 313.722 73.675C312.772 74.025 311.639 74.2 310.322 74.2ZM327.503 60.35C329.17 60.35 330.512 60.85 331.528 61.85C332.562 62.85 333.078 64.3333 333.078 66.3V74H329.178V66.9C329.178 65.8333 328.945 65.0417 328.478 64.525C328.012 63.9917 327.337 63.725 326.453 63.725C325.47 63.725 324.687 64.0333 324.103 64.65C323.52 65.25 323.228 66.15 323.228 67.35V74H319.328V55.45H323.228V61.95C323.745 61.4333 324.37 61.0417 325.103 60.775C325.837 60.4917 326.637 60.35 327.503 60.35ZM345.038 60.35C346.705 60.35 348.047 60.85 349.063 61.85C350.097 62.85 350.613 64.3333 350.613 66.3V74H346.713V66.9C346.713 65.8333 346.48 65.0417 346.013 64.525C345.547 63.9917 344.872 63.725 343.988 63.725C343.005 63.725 342.222 64.0333 341.638 64.65C341.055 65.25 340.763 66.15 340.763 67.35V74H336.863V60.55H340.588V62.125C341.105 61.5583 341.747 61.125 342.513 60.825C343.28 60.5083 344.122 60.35 345.038 60.35ZM367.72 67.325C367.72 67.375 367.695 67.725 367.645 68.375H357.47C357.653 69.2083 358.087 69.8667 358.77 70.35C359.453 70.8333 360.303 71.075 361.32 71.075C362.02 71.075 362.637 70.975 363.17 70.775C363.72 70.5583 364.228 70.225 364.695 69.775L366.77 72.025C365.503 73.475 363.653 74.2 361.22 74.2C359.703 74.2 358.362 73.9083 357.195 73.325C356.028 72.725 355.128 71.9 354.495 70.85C353.862 69.8 353.545 68.6083 353.545 67.275C353.545 65.9583 353.853 64.775 354.47 63.725C355.103 62.6583 355.962 61.8333 357.045 61.25C358.145 60.65 359.37 60.35 360.72 60.35C362.037 60.35 363.228 60.6333 364.295 61.2C365.362 61.7667 366.195 62.5833 366.795 63.65C367.412 64.7 367.72 65.925 367.72 67.325ZM360.745 63.3C359.862 63.3 359.12 63.55 358.52 64.05C357.92 64.55 357.553 65.2333 357.42 66.1H364.045C363.912 65.25 363.545 64.575 362.945 64.075C362.345 63.5583 361.612 63.3 360.745 63.3ZM374.292 62.325C374.758 61.675 375.383 61.1833 376.167 60.85C376.967 60.5167 377.883 60.35 378.917 60.35V63.95C378.483 63.9167 378.192 63.9 378.042 63.9C376.925 63.9 376.05 64.2167 375.417 64.85C374.783 65.4667 374.467 66.4 374.467 67.65V74H370.567V60.55H374.292V62.325ZM395.063 55.45V74H391.338V72.45C390.372 73.6167 388.972 74.2 387.138 74.2C385.872 74.2 384.722 73.9167 383.688 73.35C382.672 72.7833 381.872 71.975 381.288 70.925C380.705 69.875 380.413 68.6583 380.413 67.275C380.413 65.8917 380.705 64.675 381.288 63.625C381.872 62.575 382.672 61.7667 383.688 61.2C384.722 60.6333 385.872 60.35 387.138 60.35C388.855 60.35 390.197 60.8917 391.163 61.975V55.45H395.063ZM387.813 71C388.797 71 389.613 70.6667 390.263 70C390.913 69.3167 391.238 68.4083 391.238 67.275C391.238 66.1417 390.913 65.2417 390.263 64.575C389.613 63.8917 388.797 63.55 387.813 63.55C386.813 63.55 385.988 63.8917 385.338 64.575C384.688 65.2417 384.363 66.1417 384.363 67.275C384.363 68.4083 384.688 69.3167 385.338 70C385.988 70.6667 386.813 71 387.813 71ZM400.398 74.2C399.715 74.2 399.14 73.9667 398.673 73.5C398.206 73.0333 397.973 72.45 397.973 71.75C397.973 71.0333 398.206 70.4583 398.673 70.025C399.14 69.575 399.715 69.35 400.398 69.35C401.081 69.35 401.656 69.575 402.123 70.025C402.59 70.4583 402.823 71.0333 402.823 71.75C402.823 72.45 402.59 73.0333 402.123 73.5C401.656 73.9667 401.081 74.2 400.398 74.2ZM411.945 74.2C410.528 74.2 409.253 73.9083 408.12 73.325C407.003 72.725 406.128 71.9 405.495 70.85C404.862 69.8 404.545 68.6083 404.545 67.275C404.545 65.9417 404.862 64.75 405.495 63.7C406.128 62.65 407.003 61.8333 408.12 61.25C409.253 60.65 410.528 60.35 411.945 60.35C413.362 60.35 414.628 60.65 415.745 61.25C416.862 61.8333 417.737 62.65 418.37 63.7C419.003 64.75 419.32 65.9417 419.32 67.275C419.32 68.6083 419.003 69.8 418.37 70.85C417.737 71.9 416.862 72.725 415.745 73.325C414.628 73.9083 413.362 74.2 411.945 74.2ZM411.945 71C412.945 71 413.762 70.6667 414.395 70C415.045 69.3167 415.37 68.4083 415.37 67.275C415.37 66.1417 415.045 65.2417 414.395 64.575C413.762 63.8917 412.945 63.55 411.945 63.55C410.945 63.55 410.12 63.8917 409.47 64.575C408.82 65.2417 408.495 66.1417 408.495 67.275C408.495 68.4083 408.82 69.3167 409.47 70C410.12 70.6667 410.945 71 411.945 71ZM425.902 62.325C426.369 61.675 426.994 61.1833 427.777 60.85C428.577 60.5167 429.494 60.35 430.527 60.35V63.95C430.094 63.9167 429.802 63.9 429.652 63.9C428.535 63.9 427.66 64.2167 427.027 64.85C426.394 65.4667 426.077 66.4 426.077 67.65V74H422.177V60.55H425.902V62.325ZM446.849 60.55V71.75C446.849 74.2167 446.207 76.05 444.924 77.25C443.64 78.45 441.765 79.05 439.299 79.05C437.999 79.05 436.765 78.8917 435.599 78.575C434.432 78.2583 433.465 77.8 432.699 77.2L434.249 74.4C434.815 74.8667 435.532 75.2333 436.399 75.5C437.265 75.7833 438.132 75.925 438.999 75.925C440.349 75.925 441.34 75.6167 441.974 75C442.624 74.4 442.949 73.4833 442.949 72.25V71.675C441.932 72.7917 440.515 73.35 438.699 73.35C437.465 73.35 436.332 73.0833 435.299 72.55C434.282 72 433.474 71.2333 432.874 70.25C432.274 69.2667 431.974 68.1333 431.974 66.85C431.974 65.5667 432.274 64.4333 432.874 63.45C433.474 62.4667 434.282 61.7083 435.299 61.175C436.332 60.625 437.465 60.35 438.699 60.35C440.649 60.35 442.132 60.9917 443.149 62.275V60.55H446.849ZM439.474 70.15C440.507 70.15 441.349 69.85 441.999 69.25C442.665 68.6333 442.999 67.8333 442.999 66.85C442.999 65.8667 442.665 65.075 441.999 64.475C441.349 63.8583 440.507 63.55 439.474 63.55C438.44 63.55 437.59 63.8583 436.924 64.475C436.257 65.075 435.924 65.8667 435.924 66.85C435.924 67.8333 436.257 68.6333 436.924 69.25C437.59 69.85 438.44 70.15 439.474 70.15Z" fill="white"/>
</g>
<defs>
<filter id="filter0_d" x="50" y="112" width="615.182" height="460" filterUnits="userSpaceOnUse" color-interpolation-filters="sRGB">
<feFlood flood-opacity="0" result="BackgroundImageFix"/>
<feColorMatrix in="SourceAlpha" type="matrix" values="0 0 0 0 0 0 0 0 0 0 0 0 0 0 0 0 0 0 127 0"/>
<feOffset dx="10" dy="-10"/>
<feGaussianBlur stdDeviation="15"/>
<feColorMatrix type="matrix" values="0 0 0 0 0.517647 0 0 0 0 0.517647 0 0 0 0 0.6 0 0 0 0.05 0"/>
<feBlend mode="normal" in2="BackgroundImageFix" result="effect1_dropShadow"/>
<feBlend mode="normal" in="SourceGraphic" in2="effect1_dropShadow" result="shape"/>
</filter>
<linearGradient id="paint0_linear" x1="142" y1="-114" x2="890.795" y2="388.897" gradientUnits="userSpaceOnUse">
<stop stop-color="white" stop-opacity="0.2"/>
<stop offset="1" stop-color="white" stop-opacity="0"/>
</linearGradient>
<linearGradient id="paint1_linear" x1="70.4255" y1="549.112" x2="586.008" y2="407.727" gradientUnits="userSpaceOnUse">
<stop stop-color="white" stop-opacity="0.2"/>
<stop offset="1" stop-color="white" stop-opacity="0"/>
</linearGradient>
<clipPath id="clip0">
<rect width="926" height="695" fill="white" transform="translate(0 926) rotate(-90)"/>
</clipPath>
</defs>
</svg>
