<svg width="1236" height="696" viewBox="0 0 1236 696" fill="none" xmlns="http://www.w3.org/2000/svg">
<g clip-path="url(#clip0)">
<rect width="1236" height="695" transform="translate(0 0.5)" fill="white"/>
<path d="M94.3 298.5C97.4 298.5 100.083 299.017 102.35 300.05C104.65 301.083 106.417 302.55 107.65 304.45C108.883 306.35 109.5 308.6 109.5 311.2C109.5 313.767 108.883 316.017 107.65 317.95C106.417 319.85 104.65 321.317 102.35 322.35C100.083 323.35 97.4 323.85 94.3 323.85H87.25V333.5H79.15V298.5H94.3ZM93.85 317.25C96.2833 317.25 98.1333 316.733 99.4 315.7C100.667 314.633 101.3 313.133 101.3 311.2C101.3 309.233 100.667 307.733 99.4 306.7C98.1333 305.633 96.2833 305.1 93.85 305.1H87.25V317.25H93.85ZM115.721 296.4H123.521V333.5H115.721V296.4ZM142.11 306.2C146.277 306.2 149.477 307.2 151.71 309.2C153.943 311.167 155.06 314.15 155.06 318.15V333.5H147.76V330.15C146.293 332.65 143.56 333.9 139.56 333.9C137.493 333.9 135.693 333.55 134.16 332.85C132.66 332.15 131.51 331.183 130.71 329.95C129.91 328.717 129.51 327.317 129.51 325.75C129.51 323.25 130.443 321.283 132.31 319.85C134.21 318.417 137.127 317.7 141.06 317.7H147.26C147.26 316 146.743 314.7 145.71 313.8C144.677 312.867 143.127 312.4 141.06 312.4C139.627 312.4 138.21 312.633 136.81 313.1C135.443 313.533 134.277 314.133 133.31 314.9L130.51 309.45C131.977 308.417 133.727 307.617 135.76 307.05C137.827 306.483 139.943 306.2 142.11 306.2ZM141.51 328.65C142.843 328.65 144.027 328.35 145.06 327.75C146.093 327.117 146.827 326.2 147.26 325V322.25H141.91C138.71 322.25 137.11 323.3 137.11 325.4C137.11 326.4 137.493 327.2 138.26 327.8C139.06 328.367 140.143 328.65 141.51 328.65ZM188.831 306.6L176.681 335.15C175.448 338.25 173.915 340.433 172.081 341.7C170.281 342.967 168.098 343.6 165.531 343.6C164.131 343.6 162.748 343.383 161.381 342.95C160.015 342.517 158.898 341.917 158.031 341.15L160.881 335.6C161.481 336.133 162.165 336.55 162.931 336.85C163.731 337.15 164.515 337.3 165.281 337.3C166.348 337.3 167.215 337.033 167.881 336.5C168.548 336 169.148 335.15 169.681 333.95L169.781 333.7L158.131 306.6H166.181L173.731 324.85L181.331 306.6H188.831ZM218.024 306.2C222.191 306.2 225.391 307.2 227.624 309.2C229.858 311.167 230.974 314.15 230.974 318.15V333.5H223.674V330.15C222.208 332.65 219.474 333.9 215.474 333.9C213.408 333.9 211.608 333.55 210.074 332.85C208.574 332.15 207.424 331.183 206.624 329.95C205.824 328.717 205.424 327.317 205.424 325.75C205.424 323.25 206.358 321.283 208.224 319.85C210.124 318.417 213.041 317.7 216.974 317.7H223.174C223.174 316 222.658 314.7 221.624 313.8C220.591 312.867 219.041 312.4 216.974 312.4C215.541 312.4 214.124 312.633 212.724 313.1C211.358 313.533 210.191 314.133 209.224 314.9L206.424 309.45C207.891 308.417 209.641 307.617 211.674 307.05C213.741 306.483 215.858 306.2 218.024 306.2ZM217.424 328.65C218.758 328.65 219.941 328.35 220.974 327.75C222.008 327.117 222.741 326.2 223.174 325V322.25H217.824C214.624 322.25 213.024 323.3 213.024 325.4C213.024 326.4 213.408 327.2 214.174 327.8C214.974 328.367 216.058 328.65 217.424 328.65ZM254.884 306.2C258.217 306.2 260.9 307.2 262.934 309.2C265 311.2 266.034 314.167 266.034 318.1V333.5H258.234V319.3C258.234 317.167 257.767 315.583 256.834 314.55C255.9 313.483 254.55 312.95 252.784 312.95C250.817 312.95 249.25 313.567 248.084 314.8C246.917 316 246.334 317.8 246.334 320.2V333.5H238.534V306.6H245.984V309.75C247.017 308.617 248.3 307.75 249.834 307.15C251.367 306.517 253.05 306.2 254.884 306.2ZM301.297 296.4V333.5H293.847V330.4C291.914 332.733 289.114 333.9 285.447 333.9C282.914 333.9 280.614 333.333 278.547 332.2C276.514 331.067 274.914 329.45 273.747 327.35C272.58 325.25 271.997 322.817 271.997 320.05C271.997 317.283 272.58 314.85 273.747 312.75C274.914 310.65 276.514 309.033 278.547 307.9C280.614 306.767 282.914 306.2 285.447 306.2C288.88 306.2 291.564 307.283 293.497 309.45V296.4H301.297ZM286.797 327.5C288.764 327.5 290.397 326.833 291.697 325.5C292.997 324.133 293.647 322.317 293.647 320.05C293.647 317.783 292.997 315.983 291.697 314.65C290.397 313.283 288.764 312.6 286.797 312.6C284.797 312.6 283.147 313.283 281.847 314.65C280.547 315.983 279.897 317.783 279.897 320.05C279.897 322.317 280.547 324.133 281.847 325.5C283.147 326.833 284.797 327.5 286.797 327.5ZM332.726 333.9C330.493 333.9 328.31 333.633 326.176 333.1C324.043 332.533 322.343 331.833 321.076 331L323.676 325.4C324.876 326.167 326.326 326.8 328.026 327.3C329.726 327.767 331.393 328 333.026 328C336.326 328 337.976 327.183 337.976 325.55C337.976 324.783 337.526 324.233 336.626 323.9C335.726 323.567 334.343 323.283 332.476 323.05C330.276 322.717 328.46 322.333 327.026 321.9C325.593 321.467 324.343 320.7 323.276 319.6C322.243 318.5 321.726 316.933 321.726 314.9C321.726 313.2 322.21 311.7 323.176 310.4C324.176 309.067 325.61 308.033 327.476 307.3C329.376 306.567 331.61 306.2 334.176 306.2C336.076 306.2 337.96 306.417 339.826 306.85C341.726 307.25 343.293 307.817 344.526 308.55L341.926 314.1C339.56 312.767 336.976 312.1 334.176 312.1C332.51 312.1 331.26 312.333 330.426 312.8C329.593 313.267 329.176 313.867 329.176 314.6C329.176 315.433 329.626 316.017 330.526 316.35C331.426 316.683 332.86 317 334.826 317.3C337.026 317.667 338.826 318.067 340.226 318.5C341.626 318.9 342.843 319.65 343.876 320.75C344.91 321.85 345.426 323.383 345.426 325.35C345.426 327.017 344.926 328.5 343.926 329.8C342.926 331.1 341.46 332.117 339.526 332.85C337.626 333.55 335.36 333.9 332.726 333.9ZM368.089 332.2C367.322 332.767 366.372 333.2 365.239 333.5C364.139 333.767 362.972 333.9 361.739 333.9C358.539 333.9 356.055 333.083 354.289 331.45C352.555 329.817 351.689 327.417 351.689 324.25V313.2H347.539V307.2H351.689V300.65H359.489V307.2H366.189V313.2H359.489V324.15C359.489 325.283 359.772 326.167 360.339 326.8C360.939 327.4 361.772 327.7 362.839 327.7C364.072 327.7 365.122 327.367 365.989 326.7L368.089 332.2ZM400.067 306.6V333.5H392.667V330.3C391.634 331.467 390.401 332.367 388.967 333C387.534 333.6 385.984 333.9 384.317 333.9C380.784 333.9 377.984 332.883 375.917 330.85C373.851 328.817 372.817 325.8 372.817 321.8V306.6H380.617V320.65C380.617 324.983 382.434 327.15 386.067 327.15C387.934 327.15 389.434 326.55 390.567 325.35C391.701 324.117 392.267 322.3 392.267 319.9V306.6H400.067ZM435.193 296.4V333.5H427.743V330.4C425.81 332.733 423.01 333.9 419.343 333.9C416.81 333.9 414.51 333.333 412.443 332.2C410.41 331.067 408.81 329.45 407.643 327.35C406.477 325.25 405.893 322.817 405.893 320.05C405.893 317.283 406.477 314.85 407.643 312.75C408.81 310.65 410.41 309.033 412.443 307.9C414.51 306.767 416.81 306.2 419.343 306.2C422.777 306.2 425.46 307.283 427.393 309.45V296.4H435.193ZM420.693 327.5C422.66 327.5 424.293 326.833 425.593 325.5C426.893 324.133 427.543 322.317 427.543 320.05C427.543 317.783 426.893 315.983 425.593 314.65C424.293 313.283 422.66 312.6 420.693 312.6C418.693 312.6 417.043 313.283 415.743 314.65C414.443 315.983 413.793 317.783 413.793 320.05C413.793 322.317 414.443 324.133 415.743 325.5C417.043 326.833 418.693 327.5 420.693 327.5ZM469.613 306.6L457.463 335.15C456.229 338.25 454.696 340.433 452.863 341.7C451.063 342.967 448.879 343.6 446.313 343.6C444.913 343.6 443.529 343.383 442.163 342.95C440.796 342.517 439.679 341.917 438.812 341.15L441.663 335.6C442.263 336.133 442.946 336.55 443.713 336.85C444.513 337.15 445.296 337.3 446.063 337.3C447.129 337.3 447.996 337.033 448.663 336.5C449.329 336 449.929 335.15 450.463 333.95L450.563 333.7L438.912 306.6H446.963L454.513 324.85L462.113 306.6H469.613ZM505.305 332.2C504.539 332.767 503.589 333.2 502.455 333.5C501.355 333.767 500.189 333.9 498.955 333.9C495.755 333.9 493.272 333.083 491.505 331.45C489.772 329.817 488.905 327.417 488.905 324.25V313.2H484.755V307.2H488.905V300.65H496.705V307.2H503.405V313.2H496.705V324.15C496.705 325.283 496.989 326.167 497.555 326.8C498.155 327.4 498.989 327.7 500.055 327.7C501.289 327.7 502.339 327.367 503.205 326.7L505.305 332.2ZM522.154 333.9C519.321 333.9 516.771 333.317 514.504 332.15C512.271 330.95 510.521 329.3 509.254 327.2C507.987 325.1 507.354 322.717 507.354 320.05C507.354 317.383 507.987 315 509.254 312.9C510.521 310.8 512.271 309.167 514.504 308C516.771 306.8 519.321 306.2 522.154 306.2C524.987 306.2 527.521 306.8 529.754 308C531.987 309.167 533.737 310.8 535.004 312.9C536.271 315 536.904 317.383 536.904 320.05C536.904 322.717 536.271 325.1 535.004 327.2C533.737 329.3 531.987 330.95 529.754 332.15C527.521 333.317 524.987 333.9 522.154 333.9ZM522.154 327.5C524.154 327.5 525.787 326.833 527.054 325.5C528.354 324.133 529.004 322.317 529.004 320.05C529.004 317.783 528.354 315.983 527.054 314.65C525.787 313.283 524.154 312.6 522.154 312.6C520.154 312.6 518.504 313.283 517.204 314.65C515.904 315.983 515.254 317.783 515.254 320.05C515.254 322.317 515.904 324.133 517.204 325.5C518.504 326.833 520.154 327.5 522.154 327.5ZM78.6 370.6H86.4V397.5H78.6V370.6ZM82.5 366.85C81.0667 366.85 79.9 366.433 79 365.6C78.1 364.767 77.65 363.733 77.65 362.5C77.65 361.267 78.1 360.233 79 359.4C79.9 358.567 81.0667 358.15 82.5 358.15C83.9333 358.15 85.1 358.55 86 359.35C86.9 360.15 87.35 361.15 87.35 362.35C87.35 363.65 86.9 364.733 86 365.6C85.1 366.433 83.9333 366.85 82.5 366.85ZM128.589 370.2C131.956 370.2 134.622 371.2 136.589 373.2C138.589 375.167 139.589 378.133 139.589 382.1V397.5H131.789V383.3C131.789 381.167 131.339 379.583 130.439 378.55C129.572 377.483 128.322 376.95 126.689 376.95C124.856 376.95 123.406 377.55 122.339 378.75C121.272 379.917 120.739 381.667 120.739 384V397.5H112.939V383.3C112.939 379.067 111.239 376.95 107.839 376.95C106.039 376.95 104.606 377.55 103.539 378.75C102.472 379.917 101.939 381.667 101.939 384V397.5H94.1391V370.6H101.589V373.7C102.589 372.567 103.806 371.7 105.239 371.1C106.706 370.5 108.306 370.2 110.039 370.2C111.939 370.2 113.656 370.583 115.189 371.35C116.722 372.083 117.956 373.167 118.889 374.6C119.989 373.2 121.372 372.117 123.039 371.35C124.739 370.583 126.589 370.2 128.589 370.2ZM162.98 370.2C165.48 370.2 167.747 370.783 169.78 371.95C171.847 373.083 173.464 374.7 174.63 376.8C175.797 378.867 176.38 381.283 176.38 384.05C176.38 386.817 175.797 389.25 174.63 391.35C173.464 393.417 171.847 395.033 169.78 396.2C167.747 397.333 165.48 397.9 162.98 397.9C159.547 397.9 156.847 396.817 154.88 394.65V407.2H147.08V370.6H154.53V373.7C156.464 371.367 159.28 370.2 162.98 370.2ZM161.63 391.5C163.63 391.5 165.264 390.833 166.53 389.5C167.83 388.133 168.48 386.317 168.48 384.05C168.48 381.783 167.83 379.983 166.53 378.65C165.264 377.283 163.63 376.6 161.63 376.6C159.63 376.6 157.98 377.283 156.68 378.65C155.414 379.983 154.78 381.783 154.78 384.05C154.78 386.317 155.414 388.133 156.68 389.5C157.98 390.833 159.63 391.5 161.63 391.5ZM189.552 374.15C190.485 372.85 191.735 371.867 193.302 371.2C194.902 370.533 196.735 370.2 198.802 370.2V377.4C197.935 377.333 197.352 377.3 197.052 377.3C194.819 377.3 193.069 377.933 191.802 379.2C190.535 380.433 189.902 382.3 189.902 384.8V397.5H182.102V370.6H189.552V374.15ZM216.496 397.9C213.662 397.9 211.112 397.317 208.846 396.15C206.612 394.95 204.862 393.3 203.596 391.2C202.329 389.1 201.696 386.717 201.696 384.05C201.696 381.383 202.329 379 203.596 376.9C204.862 374.8 206.612 373.167 208.846 372C211.112 370.8 213.662 370.2 216.496 370.2C219.329 370.2 221.862 370.8 224.096 372C226.329 373.167 228.079 374.8 229.346 376.9C230.612 379 231.246 381.383 231.246 384.05C231.246 386.717 230.612 389.1 229.346 391.2C228.079 393.3 226.329 394.95 224.096 396.15C221.862 397.317 219.329 397.9 216.496 397.9ZM216.496 391.5C218.496 391.5 220.129 390.833 221.396 389.5C222.696 388.133 223.346 386.317 223.346 384.05C223.346 381.783 222.696 379.983 221.396 378.65C220.129 377.283 218.496 376.6 216.496 376.6C214.496 376.6 212.846 377.283 211.546 378.65C210.246 379.983 209.596 381.783 209.596 384.05C209.596 386.317 210.246 388.133 211.546 389.5C212.846 390.833 214.496 391.5 216.496 391.5ZM262.927 370.6L251.577 397.5H243.527L232.227 370.6H240.277L247.727 388.9L255.427 370.6H262.927ZM292.227 384.15C292.227 384.25 292.177 384.95 292.077 386.25H271.727C272.094 387.917 272.961 389.233 274.327 390.2C275.694 391.167 277.394 391.65 279.427 391.65C280.827 391.65 282.061 391.45 283.127 391.05C284.227 390.617 285.244 389.95 286.177 389.05L290.327 393.55C287.794 396.45 284.094 397.9 279.227 397.9C276.194 397.9 273.511 397.317 271.177 396.15C268.844 394.95 267.044 393.3 265.777 391.2C264.511 389.1 263.877 386.717 263.877 384.05C263.877 381.417 264.494 379.05 265.727 376.95C266.994 374.817 268.711 373.167 270.877 372C273.077 370.8 275.527 370.2 278.227 370.2C280.861 370.2 283.244 370.767 285.377 371.9C287.511 373.033 289.177 374.667 290.377 376.8C291.611 378.9 292.227 381.35 292.227 384.15ZM278.277 376.1C276.511 376.1 275.027 376.6 273.827 377.6C272.627 378.6 271.894 379.967 271.627 381.7H284.877C284.611 380 283.877 378.65 282.677 377.65C281.477 376.617 280.011 376.1 278.277 376.1ZM339.28 370.6L327.13 399.15C325.897 402.25 324.364 404.433 322.53 405.7C320.73 406.967 318.547 407.6 315.98 407.6C314.58 407.6 313.197 407.383 311.83 406.95C310.464 406.517 309.347 405.917 308.48 405.15L311.33 399.6C311.93 400.133 312.614 400.55 313.38 400.85C314.18 401.15 314.964 401.3 315.73 401.3C316.797 401.3 317.664 401.033 318.33 400.5C318.997 400 319.597 399.15 320.13 397.95L320.23 397.7L308.58 370.6H316.63L324.18 388.85L331.78 370.6H339.28ZM355.031 397.9C352.198 397.9 349.648 397.317 347.381 396.15C345.148 394.95 343.398 393.3 342.131 391.2C340.864 389.1 340.231 386.717 340.231 384.05C340.231 381.383 340.864 379 342.131 376.9C343.398 374.8 345.148 373.167 347.381 372C349.648 370.8 352.198 370.2 355.031 370.2C357.864 370.2 360.398 370.8 362.631 372C364.864 373.167 366.614 374.8 367.881 376.9C369.148 379 369.781 381.383 369.781 384.05C369.781 386.717 369.148 389.1 367.881 391.2C366.614 393.3 364.864 394.95 362.631 396.15C360.398 397.317 357.864 397.9 355.031 397.9ZM355.031 391.5C357.031 391.5 358.664 390.833 359.931 389.5C361.231 388.133 361.881 386.317 361.881 384.05C361.881 381.783 361.231 379.983 359.931 378.65C358.664 377.283 357.031 376.6 355.031 376.6C353.031 376.6 351.381 377.283 350.081 378.65C348.781 379.983 348.131 381.783 348.131 384.05C348.131 386.317 348.781 388.133 350.081 389.5C351.381 390.833 353.031 391.5 355.031 391.5ZM402.595 370.6V397.5H395.195V394.3C394.161 395.467 392.928 396.367 391.495 397C390.061 397.6 388.511 397.9 386.845 397.9C383.311 397.9 380.511 396.883 378.445 394.85C376.378 392.817 375.345 389.8 375.345 385.8V370.6H383.145V384.65C383.145 388.983 384.961 391.15 388.595 391.15C390.461 391.15 391.961 390.55 393.095 389.35C394.228 388.117 394.795 386.3 394.795 383.9V370.6H402.595ZM417.771 374.15C418.704 372.85 419.954 371.867 421.521 371.2C423.121 370.533 424.954 370.2 427.021 370.2V377.4C426.154 377.333 425.571 377.3 425.271 377.3C423.037 377.3 421.287 377.933 420.021 379.2C418.754 380.433 418.121 382.3 418.121 384.8V397.5H410.321V370.6H417.771V374.15ZM456.064 397.9C453.831 397.9 451.647 397.633 449.514 397.1C447.381 396.533 445.681 395.833 444.414 395L447.014 389.4C448.214 390.167 449.664 390.8 451.364 391.3C453.064 391.767 454.731 392 456.364 392C459.664 392 461.314 391.183 461.314 389.55C461.314 388.783 460.864 388.233 459.964 387.9C459.064 387.567 457.681 387.283 455.814 387.05C453.614 386.717 451.797 386.333 450.364 385.9C448.931 385.467 447.681 384.7 446.614 383.6C445.581 382.5 445.064 380.933 445.064 378.9C445.064 377.2 445.547 375.7 446.514 374.4C447.514 373.067 448.947 372.033 450.814 371.3C452.714 370.567 454.947 370.2 457.514 370.2C459.414 370.2 461.297 370.417 463.164 370.85C465.064 371.25 466.631 371.817 467.864 372.55L465.264 378.1C462.897 376.767 460.314 376.1 457.514 376.1C455.847 376.1 454.597 376.333 453.764 376.8C452.931 377.267 452.514 377.867 452.514 378.6C452.514 379.433 452.964 380.017 453.864 380.35C454.764 380.683 456.197 381 458.164 381.3C460.364 381.667 462.164 382.067 463.564 382.5C464.964 382.9 466.181 383.65 467.214 384.75C468.247 385.85 468.764 387.383 468.764 389.35C468.764 391.017 468.264 392.5 467.264 393.8C466.264 395.1 464.797 396.117 462.864 396.85C460.964 397.55 458.697 397.9 456.064 397.9ZM485.627 386.95L481.877 390.65V397.5H474.077V360.4H481.877V381.4L493.277 370.6H502.577L491.377 382L503.577 397.5H494.127L485.627 386.95ZM507.389 370.6H515.189V397.5H507.389V370.6ZM511.289 366.85C509.856 366.85 508.689 366.433 507.789 365.6C506.889 364.767 506.439 363.733 506.439 362.5C506.439 361.267 506.889 360.233 507.789 359.4C508.689 358.567 509.856 358.15 511.289 358.15C512.722 358.15 513.889 358.55 514.789 359.35C515.689 360.15 516.139 361.15 516.139 362.35C516.139 363.65 515.689 364.733 514.789 365.6C513.889 366.433 512.722 366.85 511.289 366.85ZM522.928 360.4H530.728V397.5H522.928V360.4ZM538.467 360.4H546.267V397.5H538.467V360.4ZM563.056 397.9C560.823 397.9 558.64 397.633 556.506 397.1C554.373 396.533 552.673 395.833 551.406 395L554.006 389.4C555.206 390.167 556.656 390.8 558.356 391.3C560.056 391.767 561.723 392 563.356 392C566.656 392 568.306 391.183 568.306 389.55C568.306 388.783 567.856 388.233 566.956 387.9C566.056 387.567 564.673 387.283 562.806 387.05C560.606 386.717 558.79 386.333 557.356 385.9C555.923 385.467 554.673 384.7 553.606 383.6C552.573 382.5 552.056 380.933 552.056 378.9C552.056 377.2 552.54 375.7 553.506 374.4C554.506 373.067 555.94 372.033 557.806 371.3C559.706 370.567 561.94 370.2 564.506 370.2C566.406 370.2 568.29 370.417 570.156 370.85C572.056 371.25 573.623 371.817 574.856 372.55L572.256 378.1C569.89 376.767 567.306 376.1 564.506 376.1C562.84 376.1 561.59 376.333 560.756 376.8C559.923 377.267 559.506 377.867 559.506 378.6C559.506 379.433 559.956 380.017 560.856 380.35C561.756 380.683 563.19 381 565.156 381.3C567.356 381.667 569.156 382.067 570.556 382.5C571.956 382.9 573.173 383.65 574.206 384.75C575.24 385.85 575.756 387.383 575.756 389.35C575.756 391.017 575.256 392.5 574.256 393.8C573.256 395.1 571.79 396.117 569.856 396.85C567.956 397.55 565.69 397.9 563.056 397.9Z" fill="#2F2E44"/>
<path d="M92.97 71.49C92.97 71.55 92.94 71.97 92.88 72.75H80.67C80.89 73.75 81.41 74.54 82.23 75.12C83.05 75.7 84.07 75.99 85.29 75.99C86.13 75.99 86.87 75.87 87.51 75.63C88.17 75.37 88.78 74.97 89.34 74.43L91.83 77.13C90.31 78.87 88.09 79.74 85.17 79.74C83.35 79.74 81.74 79.39 80.34 78.69C78.94 77.97 77.86 76.98 77.1 75.72C76.34 74.46 75.96 73.03 75.96 71.43C75.96 69.85 76.33 68.43 77.07 67.17C77.83 65.89 78.86 64.9 80.16 64.2C81.48 63.48 82.95 63.12 84.57 63.12C86.15 63.12 87.58 63.46 88.86 64.14C90.14 64.82 91.14 65.8 91.86 67.08C92.6 68.34 92.97 69.81 92.97 71.49ZM84.6 66.66C83.54 66.66 82.65 66.96 81.93 67.56C81.21 68.16 80.77 68.98 80.61 70.02H88.56C88.4 69 87.96 68.19 87.24 67.59C86.52 66.97 85.64 66.66 84.6 66.66ZM106.196 63.12C108.196 63.12 109.806 63.72 111.026 64.92C112.266 66.12 112.886 67.9 112.886 70.26V79.5H108.206V70.98C108.206 69.7 107.926 68.75 107.366 68.13C106.806 67.49 105.996 67.17 104.936 67.17C103.756 67.17 102.816 67.54 102.116 68.28C101.416 69 101.066 70.08 101.066 71.52V79.5H96.3858V63.36H100.856V65.25C101.476 64.57 102.246 64.05 103.166 63.69C104.086 63.31 105.096 63.12 106.196 63.12ZM134.254 63.36V76.8C134.254 79.76 133.484 81.96 131.944 83.4C130.404 84.84 128.154 85.56 125.194 85.56C123.634 85.56 122.154 85.37 120.754 84.99C119.354 84.61 118.194 84.06 117.274 83.34L119.134 79.98C119.814 80.54 120.674 80.98 121.714 81.3C122.754 81.64 123.794 81.81 124.834 81.81C126.454 81.81 127.644 81.44 128.404 80.7C129.184 79.98 129.574 78.88 129.574 77.4V76.71C128.354 78.05 126.654 78.72 124.474 78.72C122.994 78.72 121.634 78.4 120.394 77.76C119.174 77.1 118.204 76.18 117.484 75C116.764 73.82 116.404 72.46 116.404 70.92C116.404 69.38 116.764 68.02 117.484 66.84C118.204 65.66 119.174 64.75 120.394 64.11C121.634 63.45 122.994 63.12 124.474 63.12C126.814 63.12 128.594 63.89 129.814 65.43V63.36H134.254ZM125.404 74.88C126.644 74.88 127.654 74.52 128.434 73.8C129.234 73.06 129.634 72.1 129.634 70.92C129.634 69.74 129.234 68.79 128.434 68.07C127.654 67.33 126.644 66.96 125.404 66.96C124.164 66.96 123.144 67.33 122.344 68.07C121.544 68.79 121.144 69.74 121.144 70.92C121.144 72.1 121.544 73.06 122.344 73.8C123.144 74.52 124.164 74.88 125.404 74.88ZM138.91 57.24H143.59V79.5H138.91V57.24ZM148.233 63.36H152.913V79.5H148.233V63.36ZM150.573 61.11C149.713 61.11 149.013 60.86 148.473 60.36C147.933 59.86 147.663 59.24 147.663 58.5C147.663 57.76 147.933 57.14 148.473 56.64C149.013 56.14 149.713 55.89 150.573 55.89C151.433 55.89 152.133 56.13 152.673 56.61C153.213 57.09 153.483 57.69 153.483 58.41C153.483 59.19 153.213 59.84 152.673 60.36C152.133 60.86 151.433 61.11 150.573 61.11ZM162.986 79.74C161.646 79.74 160.336 79.58 159.056 79.26C157.776 78.92 156.756 78.5 155.996 78L157.556 74.64C158.276 75.1 159.146 75.48 160.166 75.78C161.186 76.06 162.186 76.2 163.166 76.2C165.146 76.2 166.136 75.71 166.136 74.73C166.136 74.27 165.866 73.94 165.326 73.74C164.786 73.54 163.956 73.37 162.836 73.23C161.516 73.03 160.426 72.8 159.566 72.54C158.706 72.28 157.956 71.82 157.316 71.16C156.696 70.5 156.386 69.56 156.386 68.34C156.386 67.32 156.676 66.42 157.256 65.64C157.856 64.84 158.716 64.22 159.836 63.78C160.976 63.34 162.316 63.12 163.856 63.12C164.996 63.12 166.126 63.25 167.246 63.51C168.386 63.75 169.326 64.09 170.066 64.53L168.506 67.86C167.086 67.06 165.536 66.66 163.856 66.66C162.856 66.66 162.106 66.8 161.606 67.08C161.106 67.36 160.856 67.72 160.856 68.16C160.856 68.66 161.126 69.01 161.666 69.21C162.206 69.41 163.066 69.6 164.246 69.78C165.566 70 166.646 70.24 167.486 70.5C168.326 70.74 169.056 71.19 169.676 71.85C170.296 72.51 170.606 73.43 170.606 74.61C170.606 75.61 170.306 76.5 169.706 77.28C169.106 78.06 168.226 78.67 167.066 79.11C165.926 79.53 164.566 79.74 162.986 79.74ZM183.604 63.12C185.604 63.12 187.214 63.72 188.434 64.92C189.674 66.12 190.294 67.9 190.294 70.26V79.5H185.614V70.98C185.614 69.7 185.334 68.75 184.774 68.13C184.214 67.49 183.404 67.17 182.344 67.17C181.164 67.17 180.224 67.54 179.524 68.28C178.824 69 178.474 70.08 178.474 71.52V79.5H173.794V57.24H178.474V65.04C179.094 64.42 179.844 63.95 180.724 63.63C181.604 63.29 182.564 63.12 183.604 63.12ZM204.646 63.12C206.646 63.12 208.256 63.72 209.476 64.92C210.716 66.12 211.336 67.9 211.336 70.26V79.5H206.656V70.98C206.656 69.7 206.376 68.75 205.816 68.13C205.256 67.49 204.446 67.17 203.386 67.17C202.206 67.17 201.266 67.54 200.566 68.28C199.866 69 199.516 70.08 199.516 71.52V79.5H194.836V63.36H199.306V65.25C199.926 64.57 200.696 64.05 201.616 63.69C202.536 63.31 203.546 63.12 204.646 63.12ZM231.864 71.49C231.864 71.55 231.834 71.97 231.774 72.75H219.564C219.784 73.75 220.304 74.54 221.124 75.12C221.944 75.7 222.964 75.99 224.184 75.99C225.024 75.99 225.764 75.87 226.404 75.63C227.064 75.37 227.674 74.97 228.234 74.43L230.724 77.13C229.204 78.87 226.984 79.74 224.064 79.74C222.244 79.74 220.634 79.39 219.234 78.69C217.834 77.97 216.754 76.98 215.994 75.72C215.234 74.46 214.854 73.03 214.854 71.43C214.854 69.85 215.224 68.43 215.964 67.17C216.724 65.89 217.754 64.9 219.054 64.2C220.374 63.48 221.844 63.12 223.464 63.12C225.044 63.12 226.474 63.46 227.754 64.14C229.034 64.82 230.034 65.8 230.754 67.08C231.494 68.34 231.864 69.81 231.864 71.49ZM223.494 66.66C222.434 66.66 221.544 66.96 220.824 67.56C220.104 68.16 219.664 68.98 219.504 70.02H227.454C227.294 69 226.854 68.19 226.134 67.59C225.414 66.97 224.534 66.66 223.494 66.66ZM239.75 65.49C240.31 64.71 241.06 64.12 242 63.72C242.96 63.32 244.06 63.12 245.3 63.12V67.44C244.78 67.4 244.43 67.38 244.25 67.38C242.91 67.38 241.86 67.76 241.1 68.52C240.34 69.26 239.96 70.38 239.96 71.88V79.5H235.28V63.36H239.75V65.49ZM264.676 57.24V79.5H260.206V77.64C259.046 79.04 257.366 79.74 255.166 79.74C253.646 79.74 252.266 79.4 251.026 78.72C249.806 78.04 248.846 77.07 248.146 75.81C247.446 74.55 247.096 73.09 247.096 71.43C247.096 69.77 247.446 68.31 248.146 67.05C248.846 65.79 249.806 64.82 251.026 64.14C252.266 63.46 253.646 63.12 255.166 63.12C257.226 63.12 258.836 63.77 259.996 65.07V57.24H264.676ZM255.976 75.9C257.156 75.9 258.136 75.5 258.916 74.7C259.696 73.88 260.086 72.79 260.086 71.43C260.086 70.07 259.696 68.99 258.916 68.19C258.136 67.37 257.156 66.96 255.976 66.96C254.776 66.96 253.786 67.37 253.006 68.19C252.226 68.99 251.836 70.07 251.836 71.43C251.836 72.79 252.226 73.88 253.006 74.7C253.786 75.5 254.776 75.9 255.976 75.9ZM271.078 79.74C270.258 79.74 269.568 79.46 269.008 78.9C268.448 78.34 268.168 77.64 268.168 76.8C268.168 75.94 268.448 75.25 269.008 74.73C269.568 74.19 270.258 73.92 271.078 73.92C271.898 73.92 272.588 74.19 273.148 74.73C273.708 75.25 273.988 75.94 273.988 76.8C273.988 77.64 273.708 78.34 273.148 78.9C272.588 79.46 271.898 79.74 271.078 79.74ZM284.934 79.74C283.234 79.74 281.704 79.39 280.344 78.69C279.004 77.97 277.954 76.98 277.194 75.72C276.434 74.46 276.054 73.03 276.054 71.43C276.054 69.83 276.434 68.4 277.194 67.14C277.954 65.88 279.004 64.9 280.344 64.2C281.704 63.48 283.234 63.12 284.934 63.12C286.634 63.12 288.154 63.48 289.494 64.2C290.834 64.9 291.884 65.88 292.644 67.14C293.404 68.4 293.784 69.83 293.784 71.43C293.784 73.03 293.404 74.46 292.644 75.72C291.884 76.98 290.834 77.97 289.494 78.69C288.154 79.39 286.634 79.74 284.934 79.74ZM284.934 75.9C286.134 75.9 287.114 75.5 287.874 74.7C288.654 73.88 289.044 72.79 289.044 71.43C289.044 70.07 288.654 68.99 287.874 68.19C287.114 67.37 286.134 66.96 284.934 66.96C283.734 66.96 282.744 67.37 281.964 68.19C281.184 68.99 280.794 70.07 280.794 71.43C280.794 72.79 281.184 73.88 281.964 74.7C282.744 75.5 283.734 75.9 284.934 75.9ZM301.682 65.49C302.242 64.71 302.992 64.12 303.932 63.72C304.892 63.32 305.992 63.12 307.232 63.12V67.44C306.712 67.4 306.362 67.38 306.182 67.38C304.842 67.38 303.792 67.76 303.032 68.52C302.272 69.26 301.892 70.38 301.892 71.88V79.5H297.212V63.36H301.682V65.49ZM326.819 63.36V76.8C326.819 79.76 326.049 81.96 324.509 83.4C322.969 84.84 320.719 85.56 317.759 85.56C316.199 85.56 314.719 85.37 313.319 84.99C311.919 84.61 310.759 84.06 309.839 83.34L311.699 79.98C312.379 80.54 313.239 80.98 314.279 81.3C315.319 81.64 316.359 81.81 317.399 81.81C319.019 81.81 320.209 81.44 320.969 80.7C321.749 79.98 322.139 78.88 322.139 77.4V76.71C320.919 78.05 319.219 78.72 317.039 78.72C315.559 78.72 314.199 78.4 312.959 77.76C311.739 77.1 310.769 76.18 310.049 75C309.329 73.82 308.969 72.46 308.969 70.92C308.969 69.38 309.329 68.02 310.049 66.84C310.769 65.66 311.739 64.75 312.959 64.11C314.199 63.45 315.559 63.12 317.039 63.12C319.379 63.12 321.159 63.89 322.379 65.43V63.36H326.819ZM317.969 74.88C319.209 74.88 320.219 74.52 320.999 73.8C321.799 73.06 322.199 72.1 322.199 70.92C322.199 69.74 321.799 68.79 320.999 68.07C320.219 67.33 319.209 66.96 317.969 66.96C316.729 66.96 315.709 67.33 314.909 68.07C314.109 68.79 313.709 69.74 313.709 70.92C313.709 72.1 314.109 73.06 314.909 73.8C315.709 74.52 316.729 74.88 317.969 74.88Z" fill="#848499"/>
<circle cx="1006.33" cy="264.33" r="375" transform="rotate(-45 1006.33 264.33)" fill="#FABA4F"/>
<path d="M1006.33 264.33L1271.5 529.495C1417.94 383.048 1417.94 145.612 1271.5 -0.83496L1006.33 264.33Z" fill="#F9A922"/>
<path d="M1006.33 264.33L1271.5 -0.835048C1125.05 -147.282 887.612 -147.282 741.165 -0.834961L1006.33 264.33Z" fill="#F9B33C"/>
<path d="M1006.33 264.33L741.165 -0.834917C594.718 145.612 594.718 383.049 741.165 529.495L1006.33 264.33Z" fill="#F9BC55"/>
<path d="M1006.33 264.33L741.165 529.495C887.612 675.942 1125.05 675.942 1271.5 529.495L1006.33 264.33Z" fill="#F9C56E"/>
<circle cx="1006.33" cy="264.33" r="375" transform="rotate(-45 1006.33 264.33)" fill="url(#paint0_linear)"/>
<g clip-path="url(#clip1)" filter="url(#filter0_d)">
<path d="M1087.46 441.076L951.146 475.493L971.391 452.548L982.863 438.376L1102.31 414.757L1107.71 419.481L1087.46 441.076Z" fill="#535461"/>
<path d="M1107.71 419.48L973.415 450.523L972.741 418.131L1011.21 403.284L1088.14 390.462H1110.41L1107.71 419.48Z" fill="#D6D6E3"/>
<path d="M1010.53 235.922L873.538 244.695V219.051L882.986 161.689L887.71 157.64L1024.7 161.689L1010.53 235.922Z" fill="#D6D6E3"/>
<path d="M1042.92 107.026H1049.67L1051.02 156.29L1028.75 164.388L1015.26 235.247L1076.67 360.769L1113.78 389.787V417.456L1091.51 439.726L1090.16 541.628L1083.42 542.977L1084.77 441.75L1107.04 418.131L1107.71 389.787L1071.94 361.444L1009.18 235.922L1022.68 164.388L1044.95 154.94L1042.92 107.026Z" fill="#D6D6E3"/>
<path d="M1048.32 107.026H1055.07L1056.42 156.29L1034.15 164.388L1020.65 235.247L1082.07 360.769L1119.18 389.787V417.456L1096.91 439.726L1095.56 541.628L1088.81 542.977L1090.16 441.75L1112.43 418.131L1113.11 389.787L1075.99 361.444L1014.58 235.922L1028.08 164.388L1050.35 154.94L1048.32 107.026Z" fill="#535461"/>
<path d="M1048.66 151.228L1045.29 155.952L1026.39 164.725L876.575 160.676L891.084 156.29L906.606 149.541L904.581 144.143L1048.66 151.228Z" fill="#A8A8A8"/>
<path d="M1073.97 363.468L936.974 385.738L909.305 327.026L871.514 242.67L1010.53 235.922L1073.97 363.468Z" fill="#6C63FF"/>
<g opacity="0.1">
<path opacity="0.1" d="M1003.11 260.217L910.655 267.64L958.569 362.119L1048.32 348.622L1003.11 260.217Z" fill="white"/>
</g>
<g opacity="0.1">
<path opacity="0.1" d="M996.731 267.08L992.649 267.411L994.761 271.575L998.722 270.981L996.731 267.08Z" fill="white"/>
</g>
<g opacity="0.1">
<path opacity="0.1" d="M996.057 306.221L991.974 306.551L994.086 310.715L998.047 310.121L996.057 306.221Z" fill="white"/>
</g>
<g opacity="0.1">
<path opacity="0.1" d="M973.787 271.804L969.704 272.134L971.816 276.298L975.777 275.704L973.787 271.804Z" fill="white"/>
</g>
<g opacity="0.1">
<path opacity="0.1" d="M931.271 273.828L927.189 274.159L929.301 278.323L933.262 277.729L931.271 273.828Z" fill="white"/>
</g>
<g opacity="0.1">
<path opacity="0.1" d="M988.633 279.227L984.55 279.557L986.663 283.721L990.624 283.127L988.633 279.227Z" fill="white"/>
</g>
<g opacity="0.1">
<path opacity="0.1" d="M973.787 320.393L969.704 320.723L971.816 324.887L975.777 324.293L973.787 320.393Z" fill="white"/>
</g>
<g opacity="0.1">
<path opacity="0.1" d="M1010.23 296.773L1006.15 297.104L1008.26 301.268L1012.22 300.674L1010.23 296.773Z" fill="white"/>
</g>
<g opacity="0.1">
<path opacity="0.1" d="M948.142 271.804L944.06 272.134L946.172 276.298L950.133 275.704L948.142 271.804Z" fill="white"/>
</g>
<g opacity="0.1">
<path opacity="0.1" d="M980.535 294.748L976.452 295.079L978.565 299.243L982.526 298.649L980.535 294.748Z" fill="white"/>
</g>
<g opacity="0.1">
<path opacity="0.1" d="M985.259 269.104L981.176 269.435L983.289 273.599L987.25 273.005L985.259 269.104Z" fill="white"/>
</g>
<g opacity="0.1">
<path opacity="0.1" d="M964.339 292.724L960.256 293.054L962.368 297.218L966.33 296.624L964.339 292.724Z" fill="white"/>
</g>
<g opacity="0.1">
<path opacity="0.1" d="M959.615 271.804L955.532 272.134L957.644 276.298L961.606 275.704L959.615 271.804Z" fill="white"/>
</g>
<g opacity="0.1">
<path opacity="0.1" d="M1002.13 281.252L998.047 281.583L1000.16 285.746L1004.12 285.153L1002.13 281.252Z" fill="white"/>
</g>
<path d="M1110.41 390.462L976.79 417.456L939.984 385.252L1073.63 362.456L1110.41 390.462Z" fill="#D6D6E3"/>
<path d="M1085.44 437.701V542.977L953.17 588.867L951.146 479.542L956.544 469.372L980.839 463.345L1085.44 437.701Z" fill="#535461"/>
<path d="M1068.23 375.616C1065.06 375.616 1062.5 374.105 1062.5 372.241C1062.5 370.378 1065.06 368.867 1068.23 368.867C1071.4 368.867 1073.97 370.378 1073.97 372.241C1073.97 374.105 1071.4 375.616 1068.23 375.616Z" fill="#575988"/>
<path d="M1063.51 383.039C1060.34 383.039 1057.77 381.528 1057.77 379.664C1057.77 377.801 1060.34 376.29 1063.51 376.29C1066.68 376.29 1069.24 377.801 1069.24 379.664C1069.24 381.528 1066.68 383.039 1063.51 383.039Z" fill="#FA595F"/>
<path d="M1079.7 381.014C1076.54 381.014 1073.97 379.503 1073.97 377.64C1073.97 375.776 1076.54 374.266 1079.7 374.266C1082.87 374.266 1085.44 375.776 1085.44 377.64C1085.44 379.503 1082.87 381.014 1079.7 381.014Z" fill="#FFD037"/>
<path d="M1006.82 387.762C1003.65 387.762 1001.08 386.251 1001.08 384.388C1001.08 382.524 1003.65 381.014 1006.82 381.014C1009.99 381.014 1012.56 382.524 1012.56 384.388C1012.56 386.251 1009.99 387.762 1006.82 387.762Z" fill="#575988"/>
<path d="M1018.29 393.836C1015.12 393.836 1012.56 392.326 1012.56 390.462C1012.56 388.599 1015.12 387.088 1018.29 387.088C1021.46 387.088 1024.03 388.599 1024.03 390.462C1024.03 392.326 1021.46 393.836 1018.29 393.836Z" fill="#FFD037"/>
<path d="M1039.89 384.388C1035.23 384.388 1031.45 382.575 1031.45 380.339C1031.45 378.103 1035.23 376.29 1039.89 376.29C1044.55 376.29 1048.32 378.103 1048.32 380.339C1048.32 382.575 1044.55 384.388 1039.89 384.388Z" fill="#A8A8A8"/>
<path d="M1000.75 395.186C997.579 395.186 995.011 393.675 995.011 391.812C995.011 389.948 997.579 388.438 1000.75 388.438C1003.91 388.438 1006.48 389.948 1006.48 391.812C1006.48 393.675 1003.91 395.186 1000.75 395.186Z" fill="#FA595F"/>
<path d="M1037.53 379.671H1041.57L1045.06 366.228C1045.2 365.662 1045.22 365.071 1045.1 364.499C1044.98 363.927 1044.74 363.389 1044.38 362.927C1044.02 362.465 1043.56 362.091 1043.04 361.834C1042.51 361.577 1041.94 361.443 1041.35 361.443C1040.34 361.443 1039.36 361.846 1038.65 362.564C1037.93 363.282 1037.53 364.255 1037.53 365.27V379.671Z" fill="#A8A8A8"/>
<path d="M979.152 395.186C974.493 395.186 970.716 393.373 970.716 391.137C970.716 388.901 974.493 387.088 979.152 387.088C983.811 387.088 987.587 388.901 987.587 391.137C987.587 393.373 983.811 395.186 979.152 395.186Z" fill="#A8A8A8"/>
<path d="M976.79 390.469H980.839L984.321 377.026C984.467 376.46 984.482 375.869 984.364 375.297C984.247 374.724 984 374.187 983.642 373.725C983.284 373.263 982.826 372.889 982.301 372.632C981.777 372.375 981.2 372.241 980.616 372.241C979.601 372.241 978.628 372.644 977.91 373.362C977.193 374.08 976.79 375.053 976.79 376.068V390.469Z" fill="#A8A8A8"/>
<path d="M1043.6 107.026L904.581 95.5537L907.955 146.167L1046.97 152.916L1043.6 107.026Z" fill="#535461"/>
<path d="M905.256 95.5537L841.146 100.278L849.919 529.48L948.109 592.578L954.857 587.854L955.195 475.492L976.79 451.198V417.456L938.998 384.388L874.888 241.995L883.998 160.676H879.274L909.305 150.216L905.256 95.5537Z" fill="#D6D6E3"/>
<path d="M899.182 96.2285L834.397 100.278L843.17 529.48L948.446 592.241V475.492L970.041 451.198V417.456L932.25 384.388L868.139 241.995L879.612 160.339L902.557 150.216L899.182 96.2285Z" fill="#535461"/>
<path d="M1013.16 356.247C1022.6 375.818 1045.86 370.743 1045.86 370.743C1047.06 369.63 1054.58 367.767 1060.28 366.478C1063.94 365.648 1066.85 365.068 1066.85 365.068L1058.86 353.939L1052.88 355.168L1043.95 357.003C1043.95 357.003 1003.68 336.684 1013.16 356.247Z" fill="url(#paint1_linear)"/>
<g opacity="0.08">
<path opacity="0.08" d="M1013.16 356.247C1022.6 375.818 1045.86 370.743 1045.86 370.743C1047.06 369.63 1054.58 367.767 1060.28 366.478C1063.94 365.648 1066.85 365.068 1066.85 365.068L1058.86 353.939L1052.88 355.168L1043.95 357.003C1043.95 357.003 1003.68 336.684 1013.16 356.247Z" fill="url(#paint2_linear)"/>
</g>
<g opacity="0.1">
<path opacity="0.1" d="M1052.87 355.168L1060.3 366.485C1063.95 365.655 1066.86 365.075 1066.86 365.075L1058.88 353.946L1052.87 355.168Z" fill="url(#paint3_linear)"/>
</g>
<path d="M1135.86 314.717C1135.86 314.717 1101.06 369.103 1063.8 368.974L1053.67 353.453C1053.67 353.453 1087.78 329.091 1092.32 316.39C1093.99 311.666 1097.45 305.195 1101.13 298.844C1112.45 279.389 1142.97 292.096 1136.26 313.475C1136.13 313.898 1136 314.312 1135.86 314.717Z" fill="url(#paint4_linear)"/>
<g opacity="0.05">
<path opacity="0.05" d="M1135.86 314.717C1135.86 314.717 1101.06 369.103 1063.8 368.974L1053.67 353.453C1053.67 353.453 1087.78 329.091 1092.32 316.39C1093.99 311.666 1097.45 305.195 1101.13 298.844C1112.45 279.389 1142.97 292.096 1136.26 313.475C1136.13 313.898 1136 314.312 1135.86 314.717Z" fill="url(#paint5_linear)"/>
</g>
<g opacity="0.1">
<path opacity="0.1" d="M1066.53 434.496C1074.35 436.001 1088.17 438.579 1102.34 440.819C1109.76 441.993 1117.27 443.073 1124.05 443.856C1134.5 445.064 1143.24 445.57 1147.29 444.625L1148.25 430.453L1108.1 412.698L1105.21 426.816H1066.55C1066.55 426.816 1066.55 429.758 1066.53 434.496Z" fill="url(#paint6_linear)"/>
</g>
<g opacity="0.1">
<path opacity="0.1" d="M1074.47 382.822C1103.1 365.398 1117.91 316.647 1117.91 316.647C1117.91 316.222 1117.91 315.803 1117.95 315.392C1118.6 293.034 1085.68 288.728 1080.09 310.425C1078.27 317.49 1076.71 324.657 1076.39 329.611C1076.21 331.433 1075.79 333.224 1075.14 334.935C1074.71 344.156 1074.81 353.394 1075.43 362.604C1075.86 369.358 1075.54 376.14 1074.47 382.822Z" fill="url(#paint7_linear)"/>
</g>
<g opacity="0.1">
<path opacity="0.1" d="M1116.74 242.657C1112.08 250.357 1108.4 258.111 1098.94 259.427C1094.3 253.537 1088.91 248.282 1082.9 243.797L1113.26 229.68C1113.26 229.68 1111.48 234.498 1116.74 242.657Z" fill="url(#paint8_linear)"/>
</g>
<path d="M1093.16 256.991C1076.14 256.991 1062.35 243.536 1062.35 226.94C1062.35 210.343 1076.14 196.889 1093.16 196.889C1110.18 196.889 1123.97 210.343 1123.97 226.94C1123.97 243.536 1110.18 256.991 1093.16 256.991Z" fill="url(#paint9_linear)"/>
<g opacity="0.1">
<path opacity="0.1" d="M1062.7 236.367C1061.43 236.422 1060.17 236.087 1059.09 235.409C1057.61 234.336 1057.14 232.413 1056.8 230.644C1056 226.467 1055.37 222.067 1056.8 218.045C1057.72 215.386 1059.5 213.085 1060.74 210.561C1063.51 205.048 1064 198.414 1067.95 193.629C1070.41 190.633 1079.07 193.629 1082.69 192.117C1090.46 188.851 1093.84 182.224 1102.3 182.231C1105.41 182.155 1108.51 182.542 1111.5 183.378C1115.28 184.546 1118.63 186.752 1121.74 189.175C1127.14 193.373 1132.43 199.136 1131.95 205.871C1131.64 210.17 1129.01 213.969 1127.47 217.978C1124.88 224.726 1125.35 232.311 1127.22 239.303C1128.02 242.279 1128.93 245.835 1126.81 248.11C1125.47 249.533 1123.33 249.938 1121.42 249.628C1119.51 249.206 1117.69 248.476 1116.02 247.468C1112.98 245.856 1109.9 244.216 1107.45 241.847C1105.82 240.281 1104.51 238.432 1102.97 236.792C1099.94 233.656 1096.51 230.934 1092.78 228.694C1089.79 226.899 1086.7 228.019 1083.56 229.187C1076.67 231.717 1070.29 236.502 1062.7 236.367Z" fill="url(#paint10_linear)"/>
</g>
<g opacity="0.05">
<path opacity="0.05" d="M1074.47 382.822C1075.54 376.151 1075.86 369.381 1075.43 362.638C1074.81 353.428 1074.71 344.19 1075.14 334.969C1075.56 324.171 1076.41 313.489 1077.23 305.006C1078.44 292.2 1084.57 280.362 1094.32 271.979C1096.49 270.123 1098.42 268.753 1099.72 268.416C1101.35 267.984 1103.34 266.688 1105.31 265.116C1111.93 259.831 1103.51 270.123 1101.35 271.979C1091.59 280.362 1085.46 292.2 1084.25 305.006C1083.44 313.489 1082.59 324.171 1082.17 334.969C1081.74 344.19 1081.83 353.428 1082.45 362.638C1082.88 369.381 1082.56 376.151 1081.49 382.822C1077.86 407.407 1067.04 431.85 1067.04 431.85C1067.04 431.85 1119.86 442.519 1144.44 443.653C1125.17 445.003 1060.05 431.85 1060.05 431.85C1060.05 431.85 1070.84 407.393 1074.47 382.822Z" fill="url(#paint11_linear)"/>
</g>
<path d="M1010.07 387.229C1024.54 403.621 1045.54 392.695 1045.54 392.695C1046.4 391.305 1053.13 387.56 1058.27 384.833C1061.57 383.086 1064.22 381.763 1064.22 381.763L1053.48 373.111L1048.05 375.851L1039.95 379.941C1039.95 379.941 995.577 370.837 1010.07 387.229Z" fill="url(#paint12_linear)"/>
<g opacity="0.1">
<path opacity="0.1" d="M1048.05 375.851L1058.27 384.833C1061.57 383.086 1064.22 381.763 1064.22 381.763L1053.48 373.111L1048.05 375.851Z" fill="url(#paint13_linear)"/>
</g>
<path d="M1116.97 315.284C1116.97 315.284 1098.3 376.755 1062.35 386.318L1048.34 374.022C1048.34 374.022 1074.53 341.67 1075.45 328.247C1075.78 323.287 1077.34 316.1 1079.15 309.062C1084.74 287.372 1117.66 291.671 1117.02 314.028C1117 314.442 1116.99 314.861 1116.97 315.284Z" fill="url(#paint14_linear)"/>
<path opacity="0.05" d="M1153.15 375.163C1153.15 375.163 1141 365.6 1129.8 372.889C1118.61 380.177 1102.26 379.266 1099.93 379.718" fill="url(#paint15_linear)"/>
<path d="M1016.65 355.248C1025.66 374.333 1047.78 369.42 1047.78 369.42C1048.92 368.334 1056.08 366.518 1061.5 365.263C1064.98 364.453 1067.75 363.913 1067.75 363.913L1060.15 353.055L1054.45 354.256L1045.95 356.045C1045.95 356.045 1007.64 336.157 1016.65 355.248Z" fill="#F7C4A7"/>
<path opacity="0.08" d="M1016.65 355.248C1025.66 374.333 1047.78 369.42 1047.78 369.42C1048.92 368.334 1056.08 366.518 1061.5 365.263C1064.98 364.453 1067.75 363.913 1067.75 363.913L1060.15 353.055L1054.45 354.256L1045.95 356.045C1045.95 356.045 1007.64 336.157 1016.65 355.248Z" fill="black"/>
<path opacity="0.1" d="M1054.45 354.189L1061.5 365.229C1064.98 364.42 1067.75 363.88 1067.75 363.88L1060.15 353.021L1054.45 354.189Z" fill="black"/>
<path d="M1133.43 314.724C1133.43 314.724 1100.31 367.794 1064.85 367.659L1055.21 352.542C1055.21 352.542 1087.66 328.774 1091.98 316.377C1093.57 311.802 1096.86 305.458 1100.36 299.277C1111.16 280.3 1140.18 292.697 1133.8 313.556C1133.68 313.939 1133.55 314.328 1133.43 314.724Z" fill="#575988"/>
<path opacity="0.05" d="M1133.43 314.724C1133.43 314.724 1100.31 367.794 1064.85 367.659L1055.21 352.542C1055.21 352.542 1087.66 328.774 1091.98 316.377C1093.57 311.802 1096.86 305.458 1100.36 299.277C1111.16 280.3 1140.18 292.697 1133.8 313.556C1133.68 313.939 1133.55 314.328 1133.43 314.724Z" fill="black"/>
<path d="M1154.99 623.163L1153.44 641.599C1153.44 641.599 1102.57 632.934 1103.01 615.611C1103.46 598.288 1154.99 623.163 1154.99 623.163Z" fill="#535461"/>
<path opacity="0.1" d="M1154.99 623.163L1153.44 641.599C1153.44 641.599 1102.57 632.934 1103.01 615.611C1103.46 598.288 1154.99 623.163 1154.99 623.163Z" fill="black"/>
<path d="M1095.45 628.939L1096.35 644.94C1096.35 644.94 1025.7 639.608 1028.37 624.505C1031.03 609.402 1068.35 617.838 1068.35 617.838L1095.45 628.939Z" fill="#535461"/>
<path d="M1094.57 472.55C1094.57 472.55 1098.75 484.387 1104.08 497.978C1109.18 510.976 1115.34 525.586 1119.9 532.969C1129.2 548.079 1130.55 594.724 1130.55 594.724C1132.32 602.276 1123.44 616.94 1123.44 616.94C1141.21 636.045 1157.65 624.937 1157.65 624.937C1154.54 619.161 1159.87 602.721 1159.87 602.721C1159.87 602.721 1152.76 526.747 1148.32 523.197C1143.87 519.648 1140.33 501.872 1140.33 501.872L1144.3 441.48L1145.21 427.68L1107 410.35L1104.23 424.123L1101.53 437.762L1094.57 472.55Z" fill="#6A5C99"/>
<path opacity="0.1" d="M1094.57 472.55C1094.57 472.55 1098.75 484.387 1104.08 497.978C1109.18 510.976 1115.34 525.586 1119.9 532.969C1129.2 548.079 1130.55 594.724 1130.55 594.724C1132.32 602.276 1123.44 616.94 1123.44 616.94C1141.21 636.045 1157.65 624.937 1157.65 624.937C1154.54 619.161 1159.87 602.721 1159.87 602.721C1159.87 602.721 1152.76 526.747 1148.32 523.197C1143.87 519.648 1140.33 501.872 1140.33 501.872L1144.3 441.48L1145.21 427.68L1107 410.35L1104.23 424.123L1101.53 437.762L1094.57 472.55Z" fill="black"/>
<path d="M1061.25 619.606C1069.24 633.825 1097.24 632.043 1097.24 632.043V590.277C1097.24 590.277 1105.23 543.625 1100.79 532.962C1096.35 522.3 1102.57 502.749 1102.57 502.749L1104.08 497.971L1122.2 440.717L1127.45 424.116H1067.47C1067.47 424.116 1067.47 426.957 1067.47 431.587C1067.39 449.355 1067.03 493.423 1065.26 503.647C1063.04 516.53 1069.26 524.972 1069.26 524.972C1069.26 524.972 1065.71 577.394 1068.82 593.806C1071.93 610.219 1061.25 619.606 1061.25 619.606Z" fill="#6A5C99"/>
<path d="M1110.56 229.086C1110.56 229.086 1119.9 254.852 1138.56 264.178C1157.22 273.504 1107.9 276.177 1107.9 276.177C1107.9 276.177 1099.9 256.606 1081.69 242.853L1110.56 229.086Z" fill="#F7C4A7"/>
<path opacity="0.1" d="M1067.45 431.594C1074.89 433.038 1088.03 435.575 1101.53 437.762C1108.59 438.909 1115.73 439.962 1122.2 440.724C1132.14 441.899 1140.46 442.398 1144.31 441.473L1145.22 427.673L1107.01 410.343L1104.23 424.123H1067.44C1067.44 424.123 1067.47 426.964 1067.45 431.594Z" fill="black"/>
<path d="M1061.25 428.989C1061.25 428.989 1136.33 444.51 1145.66 439.651C1154.98 434.792 1157.21 422.321 1154.54 408.554C1151.88 394.788 1154.54 360.573 1159.43 317.032C1161.89 295.106 1156.47 280.394 1150.47 271.183C1147.89 267.239 1144.37 264.001 1140.22 261.762C1136.07 259.523 1131.43 258.354 1126.72 258.361C1118.57 258.332 1110.66 261.119 1104.33 266.25C1102.45 267.781 1100.56 269.043 1099.01 269.469C1097.79 269.799 1095.95 271.135 1093.9 272.944C1084.56 281.218 1078.74 292.745 1077.63 305.168C1076.85 313.442 1076.04 323.868 1075.64 334.409C1075.23 343.405 1075.32 352.417 1075.9 361.403C1076.32 367.98 1076.01 374.583 1074.99 381.095C1071.54 405.16 1061.25 428.989 1061.25 428.989Z" fill="#575988"/>
<path opacity="0.1" d="M1075 381.176C1102.25 364.176 1116.34 316.607 1116.34 316.607C1116.34 316.195 1116.34 315.783 1116.39 315.385C1117 293.574 1085.67 289.37 1080.35 310.54C1078.62 317.437 1077.15 324.421 1076.84 329.26C1076.67 331.036 1076.27 332.783 1075.65 334.456C1075.24 343.452 1075.32 352.464 1075.91 361.45C1076.33 368.039 1076.02 374.653 1075 381.176Z" fill="black"/>
<path opacity="0.1" d="M1115.23 244.412C1110.8 251.923 1107.29 259.495 1098.29 260.77C1093.89 255.04 1088.75 249.912 1083.02 245.519L1111.89 231.745C1111.89 231.745 1110.23 236.456 1115.23 244.412Z" fill="black"/>
<path d="M1092.79 258.408C1076.59 258.408 1063.47 245.28 1063.47 229.086C1063.47 212.892 1076.59 199.764 1092.79 199.764C1108.98 199.764 1122.11 212.892 1122.11 229.086C1122.11 245.28 1108.98 258.408 1092.79 258.408Z" fill="#F7C4A7"/>
<path opacity="0.1" d="M1063.8 238.278C1062.59 238.327 1061.38 237.997 1060.36 237.333C1058.96 236.287 1058.51 234.404 1058.19 232.683C1057.43 228.634 1056.84 224.315 1058.19 220.388C1059.07 217.79 1060.73 215.549 1061.94 213.086C1064.58 207.687 1065.05 201.236 1068.8 196.566C1071.15 193.644 1079.38 196.566 1082.83 195.088C1090.25 191.902 1093.44 185.437 1101.49 185.444C1104.46 185.368 1107.42 185.746 1110.27 186.564C1113.87 187.698 1117.06 189.871 1120.01 192.22C1125.17 196.316 1130.19 201.937 1129.73 208.51C1129.43 212.708 1126.94 216.379 1125.47 220.32C1123 226.92 1123.44 234.31 1125.23 241.126C1125.98 244.028 1126.86 247.496 1124.84 249.723C1123.59 251.107 1121.52 251.512 1119.68 251.201C1117.86 250.791 1116.11 250.079 1114.52 249.096C1111.63 247.523 1108.7 245.924 1106.37 243.616C1104.82 242.084 1103.57 240.282 1102.1 238.683C1099.23 235.631 1095.97 232.974 1092.4 230.78C1089.56 229.032 1086.63 230.105 1083.63 231.259C1077.09 233.743 1071.03 238.413 1063.8 238.278Z" fill="black"/>
<path d="M1064.25 237.832C1063.03 237.885 1061.83 237.56 1060.81 236.901C1059.4 235.855 1058.95 233.972 1058.64 232.251C1057.87 228.202 1057.29 223.883 1058.64 219.956C1059.51 217.357 1061.18 215.117 1062.39 212.654C1065.03 207.255 1065.49 200.803 1069.24 196.134C1071.59 193.211 1079.37 196.586 1082.83 195.101C1090.25 191.916 1093.88 184.978 1101.94 184.978C1104.9 184.902 1107.86 185.28 1110.71 186.099C1114.32 187.232 1117.5 189.405 1120.46 191.754C1125.61 195.85 1130.63 201.472 1130.18 208.045C1129.88 212.242 1127.38 215.913 1125.91 219.854C1123.44 226.454 1123.89 233.844 1125.67 240.66C1126.43 243.562 1127.3 247.03 1125.29 249.257C1124.03 250.641 1121.97 251.046 1120.13 250.735C1118.3 250.325 1116.56 249.613 1114.96 248.63C1112.08 247.057 1109.15 245.458 1106.81 243.15C1105.27 241.618 1104.02 239.816 1102.55 238.217C1099.65 235.168 1096.35 232.52 1092.76 230.341C1089.91 228.594 1086.99 229.667 1083.98 230.821C1077.54 233.284 1071.47 237.967 1064.25 237.832Z" fill="#632652"/>
<path opacity="0.05" d="M1075 381.176C1076.01 374.67 1076.3 368.074 1075.88 361.504C1075.3 352.518 1075.21 343.506 1075.62 334.51C1076.02 323.969 1076.83 313.55 1077.61 305.269C1078.72 292.846 1084.54 281.32 1093.88 273.045C1095.93 271.23 1097.77 269.9 1098.99 269.57C1100.54 269.145 1102.43 267.883 1104.31 266.351C1110.62 261.195 1102.6 271.237 1100.54 273.045C1091.2 281.32 1085.38 292.846 1084.27 305.269C1083.49 313.543 1082.68 323.969 1082.28 334.51C1081.87 343.506 1081.96 352.518 1082.54 361.504C1082.96 368.082 1082.65 374.685 1081.63 381.196C1078.18 405.18 1067.88 429.029 1067.88 429.029C1067.88 429.029 1118.14 439.435 1141.53 440.549C1123.2 441.899 1061.22 429.029 1061.22 429.029C1061.22 429.029 1071.54 405.16 1075 381.176Z" fill="black"/>
<path d="M1013.71 385.475C1027.48 401.469 1047.45 390.806 1047.45 390.806C1048.26 389.456 1054.67 385.792 1059.6 383.14C1062.74 381.432 1065.26 380.144 1065.26 380.144L1055.04 371.701L1049.87 374.401L1042.14 378.375C1042.14 378.375 999.937 369.481 1013.71 385.475Z" fill="#F7C4A7"/>
<path opacity="0.1" d="M1049.86 374.374L1059.59 383.147C1062.72 381.439 1065.24 380.15 1065.24 380.15L1055.02 371.708L1049.86 374.374Z" fill="black"/>
<path d="M1115.45 315.278C1115.45 315.278 1097.68 375.258 1063.49 384.584L1050.16 372.586C1050.16 372.586 1075.13 341.023 1075.96 327.924C1076.28 323.085 1077.75 316.094 1079.48 309.204C1084.8 288.041 1116.13 292.238 1115.51 314.049C1115.49 314.454 1115.47 314.864 1115.45 315.278Z" fill="#575988"/>
<path opacity="0.05" d="M1149.88 373.699C1149.88 373.699 1138.33 364.366 1127.67 371.479C1117 378.592 1101.45 377.701 1099.23 378.146" fill="black"/>
<path fill-rule="evenodd" clip-rule="evenodd" d="M904.581 95.5537L904.899 95.58L905.256 95.5537L905.26 95.6097L1043.6 107.026L1048.32 107.026H1049.67H1055.07L1056.42 156.29L1034.15 164.388L1020.65 235.247L1071.62 339.412L1071.71 339.329C1073.82 335.082 1075.25 331.205 1075.45 328.247C1075.46 328.174 1075.46 328.099 1075.47 328.024C1075.93 319.669 1076.59 311.66 1077.23 305.006C1078.44 292.2 1084.56 280.362 1094.32 271.979C1096.49 270.123 1098.42 268.753 1099.72 268.416C1100.7 268.155 1101.81 267.581 1102.97 266.822C1101.82 264.935 1100.47 262.856 1098.89 260.674C1098.69 260.709 1098.49 260.741 1098.29 260.77C1097.62 259.901 1096.94 259.047 1096.24 258.207C1095.11 258.339 1093.96 258.408 1092.79 258.408C1081.1 258.408 1071.01 251.572 1066.3 241.681C1065.67 240.586 1065.1 239.447 1064.61 238.272C1064.34 238.28 1064.08 238.282 1063.8 238.277C1062.59 238.326 1061.38 237.996 1060.36 237.332C1059.65 236.802 1059.18 236.057 1058.86 235.227C1057.56 234.128 1057.12 232.317 1056.8 230.645C1056 226.467 1055.37 222.067 1056.8 218.045C1057.37 216.41 1058.26 214.91 1059.15 213.411C1059.71 212.472 1060.26 211.533 1060.74 210.561C1061.83 208.388 1062.57 206.04 1063.3 203.701C1064.43 200.105 1065.56 196.528 1067.95 193.629C1069.36 191.914 1072.8 192.162 1076.16 192.405C1078.67 192.586 1081.14 192.764 1082.69 192.118C1085.71 190.846 1088.07 189.065 1090.33 187.364C1093.86 184.696 1097.13 182.227 1102.3 182.231C1105.41 182.155 1108.51 182.542 1111.5 183.378C1115.28 184.546 1118.63 186.753 1121.74 189.175C1127.14 193.373 1132.43 199.136 1131.95 205.871C1131.74 208.811 1130.44 211.518 1129.15 214.218C1128.55 215.465 1127.96 216.711 1127.47 217.978C1124.88 224.726 1125.35 232.311 1127.22 239.303C1128.02 242.279 1128.93 245.835 1126.81 248.11C1126.41 248.541 1125.92 248.879 1125.4 249.132C1125.36 249.174 1125.33 249.215 1125.29 249.257C1125.19 249.365 1125.09 249.466 1124.98 249.563C1124.94 249.616 1124.89 249.67 1124.84 249.722C1124.34 250.278 1123.7 250.676 1123.01 250.933C1125.15 253.625 1127.58 256.246 1130.28 258.58C1133.75 259.015 1137.12 260.09 1140.22 261.762C1144.37 264.001 1147.89 267.239 1150.48 271.182C1156.47 280.394 1161.89 295.106 1159.43 317.032C1154.54 360.573 1151.88 394.787 1154.54 408.554C1157 421.246 1155.3 432.837 1147.71 438.377L1147.29 444.625C1146.42 444.827 1145.34 444.963 1144.07 445.04L1140.33 501.872C1140.33 501.872 1143.87 519.647 1148.32 523.197C1152.76 526.747 1159.87 602.721 1159.87 602.721C1159.87 602.721 1154.54 619.16 1157.65 624.937C1157.65 624.937 1156.59 625.653 1154.72 626.409L1153.44 641.599C1153.44 641.599 1102.57 632.934 1103.01 615.611C1103.22 607.63 1114.26 608.605 1126.12 611.978C1128.57 607.019 1131.66 599.468 1130.55 594.724C1130.55 594.724 1129.2 548.079 1119.9 532.969C1115.34 525.586 1109.18 510.976 1104.08 497.978L1104.08 497.975L1102.57 502.749C1102.57 502.749 1096.35 522.3 1100.79 532.962C1105.23 543.625 1097.24 590.277 1097.24 590.277V632.043C1097.24 632.043 1096.65 632.081 1095.63 632.101L1096.35 644.94C1096.35 644.94 1025.7 639.608 1028.37 624.505C1030.44 612.756 1053.49 615.252 1063.62 616.94C1066.57 613.069 1070.96 605.102 1068.82 593.807C1067.12 584.828 1067.41 565.073 1068.03 549.019L953.648 588.701L948.109 592.578L849.918 529.48L841.145 100.278L904.584 95.6032L904.581 95.5537ZM940.405 385.18L939.982 385.249L939.985 385.252L940.405 385.18Z" fill="url(#paint16_linear)"/>
</g>
</g>
<defs>
<filter id="filter0_d" x="813.938" y="55.5" width="386.626" height="610" filterUnits="userSpaceOnUse" color-interpolation-filters="sRGB">
<feFlood flood-opacity="0" result="BackgroundImageFix"/>
<feColorMatrix in="SourceAlpha" type="matrix" values="0 0 0 0 0 0 0 0 0 0 0 0 0 0 0 0 0 0 127 0"/>
<feOffset dx="10" dy="-10"/>
<feGaussianBlur stdDeviation="15"/>
<feColorMatrix type="matrix" values="0 0 0 0 0.517647 0 0 0 0 0.517647 0 0 0 0 0.6 0 0 0 0.05 0"/>
<feBlend mode="normal" in2="BackgroundImageFix" result="effect1_dropShadow"/>
<feBlend mode="normal" in="SourceGraphic" in2="effect1_dropShadow" result="shape"/>
</filter>
<linearGradient id="paint0_linear" x1="631.33" y1="-110.67" x2="1495.32" y2="469.596" gradientUnits="userSpaceOnUse">
<stop stop-color="white" stop-opacity="0.2"/>
<stop offset="1" stop-color="white" stop-opacity="0"/>
</linearGradient>
<linearGradient id="paint1_linear" x1="-27782.5" y1="10977.1" x2="-27782.5" y2="10152.4" gradientUnits="userSpaceOnUse">
<stop stop-color="#808080" stop-opacity="0.25"/>
<stop offset="0.54" stop-color="#808080" stop-opacity="0.12"/>
<stop offset="1" stop-color="#808080" stop-opacity="0.1"/>
</linearGradient>
<linearGradient id="paint2_linear" x1="-27782.5" y1="10977.1" x2="-27782.5" y2="10152.4" gradientUnits="userSpaceOnUse">
<stop stop-color="#808080" stop-opacity="0.25"/>
<stop offset="0.54" stop-color="#808080" stop-opacity="0.12"/>
<stop offset="1" stop-color="#808080" stop-opacity="0.1"/>
</linearGradient>
<linearGradient id="paint3_linear" x1="-5826.5" y1="5913.21" x2="-5826.5" y2="5680.25" gradientUnits="userSpaceOnUse">
<stop stop-color="#808080" stop-opacity="0.25"/>
<stop offset="0.54" stop-color="#808080" stop-opacity="0.12"/>
<stop offset="1" stop-color="#808080" stop-opacity="0.1"/>
</linearGradient>
<linearGradient id="paint4_linear" x1="-35623" y1="35941" x2="-35623" y2="26522.9" gradientUnits="userSpaceOnUse">
<stop stop-color="#808080" stop-opacity="0.25"/>
<stop offset="0.54" stop-color="#808080" stop-opacity="0.12"/>
<stop offset="1" stop-color="#808080" stop-opacity="0.1"/>
</linearGradient>
<linearGradient id="paint5_linear" x1="-35623" y1="35941" x2="-35623" y2="26522.9" gradientUnits="userSpaceOnUse">
<stop stop-color="#808080" stop-opacity="0.25"/>
<stop offset="0.54" stop-color="#808080" stop-opacity="0.12"/>
<stop offset="1" stop-color="#808080" stop-opacity="0.1"/>
</linearGradient>
<linearGradient id="paint6_linear" x1="-33361.7" y1="18563.7" x2="-33361.7" y2="17007.6" gradientUnits="userSpaceOnUse">
<stop stop-color="#808080" stop-opacity="0.25"/>
<stop offset="0.54" stop-color="#808080" stop-opacity="0.12"/>
<stop offset="1" stop-color="#808080" stop-opacity="0.1"/>
</linearGradient>
<linearGradient id="paint7_linear" x1="-17971.7" y1="40797.1" x2="-17971.7" y2="29680.7" gradientUnits="userSpaceOnUse">
<stop stop-color="#808080" stop-opacity="0.25"/>
<stop offset="0.54" stop-color="#808080" stop-opacity="0.12"/>
<stop offset="1" stop-color="#808080" stop-opacity="0.1"/>
</linearGradient>
<linearGradient id="paint8_linear" x1="-13555.8" y1="8699.61" x2="-13555.8" y2="7388.65" gradientUnits="userSpaceOnUse">
<stop stop-color="#808080" stop-opacity="0.25"/>
<stop offset="0.54" stop-color="#808080" stop-opacity="0.12"/>
<stop offset="1" stop-color="#808080" stop-opacity="0.1"/>
</linearGradient>
<linearGradient id="paint9_linear" x1="-23459.7" y1="15180.9" x2="-23459.7" y2="9827.61" gradientUnits="userSpaceOnUse">
<stop stop-color="#808080" stop-opacity="0.25"/>
<stop offset="0.54" stop-color="#808080" stop-opacity="0.12"/>
<stop offset="1" stop-color="#808080" stop-opacity="0.1"/>
</linearGradient>
<linearGradient id="paint10_linear" x1="-32493.6" y1="18432" x2="-32493.6" y2="11680.9" gradientUnits="userSpaceOnUse">
<stop stop-color="#808080" stop-opacity="0.25"/>
<stop offset="0.54" stop-color="#808080" stop-opacity="0.12"/>
<stop offset="1" stop-color="#808080" stop-opacity="0.1"/>
</linearGradient>
<linearGradient id="paint11_linear" x1="-35142.2" y1="100753" x2="-35142.2" y2="52664.7" gradientUnits="userSpaceOnUse">
<stop stop-color="#808080" stop-opacity="0.25"/>
<stop offset="0.54" stop-color="#808080" stop-opacity="0.12"/>
<stop offset="1" stop-color="#808080" stop-opacity="0.1"/>
</linearGradient>
<linearGradient id="paint12_linear" x1="-29094" y1="11659.2" x2="-29094" y2="10865.1" gradientUnits="userSpaceOnUse">
<stop stop-color="#808080" stop-opacity="0.25"/>
<stop offset="0.54" stop-color="#808080" stop-opacity="0.12"/>
<stop offset="1" stop-color="#808080" stop-opacity="0.1"/>
</linearGradient>
<linearGradient id="paint13_linear" x1="-6992.47" y1="5889.15" x2="-6992.47" y2="5685.54" gradientUnits="userSpaceOnUse">
<stop stop-color="#808080" stop-opacity="0.25"/>
<stop offset="0.54" stop-color="#808080" stop-opacity="0.12"/>
<stop offset="1" stop-color="#808080" stop-opacity="0.1"/>
</linearGradient>
<linearGradient id="paint14_linear" x1="-30402.3" y1="43540.2" x2="-30402.3" y2="31142" gradientUnits="userSpaceOnUse">
<stop stop-color="#808080" stop-opacity="0.25"/>
<stop offset="0.54" stop-color="#808080" stop-opacity="0.12"/>
<stop offset="1" stop-color="#808080" stop-opacity="0.1"/>
</linearGradient>
<linearGradient id="paint15_linear" x1="-19811.7" y1="4800.22" x2="-19811.7" y2="4664.63" gradientUnits="userSpaceOnUse">
<stop stop-color="#808080" stop-opacity="0.25"/>
<stop offset="0.54" stop-color="#808080" stop-opacity="0.12"/>
<stop offset="1" stop-color="#808080" stop-opacity="0.1"/>
</linearGradient>
<linearGradient id="paint16_linear" x1="1160.04" y1="644.939" x2="845.22" y2="609.04" gradientUnits="userSpaceOnUse">
<stop stop-color="white" stop-opacity="0.2"/>
<stop offset="1" stop-color="white" stop-opacity="0"/>
</linearGradient>
<clipPath id="clip0">
<rect width="1236" height="695" fill="white" transform="translate(0 0.5)"/>
</clipPath>
<clipPath id="clip1">
<rect width="326.626" height="550" fill="white" transform="matrix(-1 0 0 1 1160.56 95.5)"/>
</clipPath>
</defs>
</svg>
