<svg width="695" height="926" viewBox="0 0 695 926" fill="none" xmlns="http://www.w3.org/2000/svg">
<g clip-path="url(#clip0)">
<rect width="926" height="695" transform="translate(0 926) rotate(-90)" fill="white"/>
<circle cx="540" cy="155" r="325" fill="#6666FF"/>
<ellipse cx="538.7" cy="156.3" rx="227.5" ry="227.5" fill="#8080FF"/>
<ellipse cx="540" cy="155" rx="130" ry="130" fill="#9999FF"/>
<circle cx="540" cy="155" r="325" fill="url(#paint0_linear)"/>
<g clip-path="url(#clip1)" filter="url(#filter0_d)">
<path d="M546.732 517.164L548.744 527.224L538.683 529.237L540.192 516.66L546.732 517.164Z" fill="#FFB8B8"/>
<path d="M587.914 515.333L585.636 526.726L576.263 526.952L579.256 513.055L587.914 515.333Z" fill="#FFB8B8"/>
<path d="M602.854 398.295L605.467 415.928C605.467 415.928 602.854 455.113 602.201 457.072C601.548 459.032 599.589 468.828 599.589 468.828L588.486 515.85C588.486 515.85 578.875 517.156 576.916 511.931L577.384 483.849L576.731 451.848L568.894 415.275L555.179 464.909C555.179 464.909 554.526 481.236 552.567 487.114C550.608 492.992 547.995 518.462 547.995 518.462C547.995 518.462 539.691 520.421 539.038 518.462C538.384 516.503 534.934 470.134 534.934 462.95C534.934 455.766 531.095 386.885 531.095 386.885L602.854 398.295Z" fill="#2F2E41"/>
<path d="M579.273 526.076C580.35 526.297 581.46 526.297 582.536 526.076C583.76 525.668 582.536 523.221 582.536 523.221H587.023C587.023 523.221 591.917 534.233 593.957 535.049C595.996 535.865 602.522 544.838 594.772 544.838C589.991 544.777 585.324 543.363 581.312 540.759C581.312 540.759 580.497 537.088 576.826 536.681C573.155 536.273 570.708 531.786 570.708 531.786L574.692 524.431C574.805 524.223 574.972 524.05 575.176 523.929C575.379 523.808 575.611 523.744 575.847 523.743C576.084 523.743 576.316 523.806 576.52 523.926C576.724 524.046 576.891 524.219 577.006 524.426C577.56 525.404 578.329 526.265 579.273 526.076Z" fill="#2F2E41"/>
<path d="M545.136 524.812C545.136 524.812 544.227 526.632 543.317 525.722C542.557 524.756 541.944 523.683 541.497 522.538C541.497 522.538 538.768 521.173 538.313 522.538C537.858 523.902 536.039 531.18 535.129 532.09C534.219 533 524.667 542.552 534.219 544.372C543.772 546.191 545.591 542.097 545.591 542.097C545.591 542.097 544.227 539.823 546.956 538.913C549.685 538.003 550.14 534.819 550.14 534.819L548.769 524.538C548.739 524.319 548.645 524.114 548.498 523.949C548.351 523.783 548.158 523.666 547.944 523.61C547.73 523.555 547.504 523.565 547.295 523.638C547.087 523.712 546.905 523.846 546.773 524.023C546.245 524.711 545.658 525.16 545.136 524.812Z" fill="#2F2E41"/>
<path d="M617.875 352.58L619.834 386.54C619.834 386.54 628.977 408.091 616.569 407.438C604.16 406.785 611.997 385.887 611.997 385.887L599.849 355.578L617.875 352.58Z" fill="#FFB8B8"/>
<path d="M517.301 342.783L515.342 376.743C515.342 376.743 506.198 398.295 518.607 397.642C531.015 396.989 523.178 376.09 523.178 376.09L535.327 345.781L517.301 342.783Z" fill="#FFB8B8"/>
<path d="M569.547 268.986C578.925 268.986 586.527 261.383 586.527 252.005C586.527 242.628 578.925 235.025 569.547 235.025C560.169 235.025 552.567 242.628 552.567 252.005C552.567 261.383 560.169 268.986 569.547 268.986Z" fill="#FFB8B8"/>
<path d="M582.935 258.863C582.935 258.863 578.364 277.149 587.507 281.721C596.65 286.292 558.771 292.823 556.159 281.721L557.465 276.496C557.465 276.496 562.69 269.965 561.384 264.087L582.935 258.863Z" fill="#FFB8B8"/>
<path d="M572.813 282.047C572.813 282.047 561.544 283.099 558.035 275.716C558.035 275.716 531.669 277.475 525.791 301.639C532.612 301.835 541.074 379.456 529.894 387.193C520.819 393.473 545.554 403.145 579.996 403.52L606.12 402.214C601.249 398.017 589.593 343.406 596.976 344.09C596.976 344.09 616.569 313.395 614.61 308.823C612.65 304.252 609.513 286.226 584.305 278.912C584.305 278.912 583.915 282.7 572.813 282.047Z" fill="#E6E6E6"/>
<path d="M606.12 297.721L614.61 308.823C614.61 308.823 623.1 355.192 620.487 355.845C617.875 356.498 602.201 361.722 599.589 359.763C596.977 357.804 585.221 319.272 585.221 319.272L606.12 297.721Z" fill="#E6E6E6"/>
<path d="M536.893 294.456L525.791 301.639C525.791 301.639 509.464 347.355 514.035 349.314C518.607 351.273 544.077 349.967 544.077 349.967L536.893 294.456Z" fill="#E6E6E6"/>
<path d="M588.108 236.809C588.108 236.809 582.226 224.066 570.953 227.007C559.681 229.948 553.309 234.359 552.819 238.77C552.329 243.181 553.064 249.797 553.064 249.797C553.064 249.797 554.289 240.73 562.131 242.691C569.973 244.651 582.226 243.181 582.226 243.181L584.187 260.825C584.187 260.825 586.392 257.639 588.843 259.6C591.293 261.56 595.95 240.73 588.108 236.809Z" fill="#2F2E41"/>
<path d="M466.798 145H82C76.4772 145 72 149.477 72 155V393.621C72 399.144 76.4771 403.621 82 403.621H466.798C472.32 403.621 476.798 399.144 476.798 393.621V155C476.798 149.477 472.32 145 466.798 145Z" fill="#E6E6E6"/>
<path d="M460.113 177.667H89.3812C86.6198 177.667 84.3812 179.906 84.3812 182.667V383.557C84.3812 386.318 86.6198 388.557 89.3812 388.557H460.113C462.875 388.557 465.113 386.318 465.113 383.557V182.667C465.113 179.906 462.875 177.667 460.113 177.667Z" fill="white"/>
<path d="M72 155C72 149.477 76.4772 145 82 145H466.798C472.32 145 476.798 149.477 476.798 155V162.197H72V155Z" fill="#2F2E44"/>
<path d="M85.4107 156.951C87.1669 156.951 88.5906 155.528 88.5906 153.771C88.5906 152.015 87.1669 150.591 85.4107 150.591C83.6544 150.591 82.2307 152.015 82.2307 153.771C82.2307 155.528 83.6544 156.951 85.4107 156.951Z" fill="white"/>
<path d="M97.4801 156.951C99.2364 156.951 100.66 155.528 100.66 153.771C100.66 152.015 99.2364 150.591 97.4801 150.591C95.7239 150.591 94.3002 152.015 94.3002 153.771C94.3002 155.528 95.7239 156.951 97.4801 156.951Z" fill="white"/>
<path d="M109.55 156.951C111.306 156.951 112.73 155.528 112.73 153.771C112.73 152.015 111.306 150.591 109.55 150.591C107.793 150.591 106.37 152.015 106.37 153.771C106.37 155.528 107.793 156.951 109.55 156.951Z" fill="white"/>
<path d="M327.24 210.045H121.774C119.013 210.045 116.774 212.284 116.774 215.045V326.245C116.774 329.007 119.013 331.245 121.774 331.245H327.24C330.002 331.245 332.24 329.007 332.24 326.245V215.045C332.24 212.284 330.002 210.045 327.24 210.045Z" fill="#6C63FF"/>
<path d="M439.358 210.045H367.305C364.544 210.045 362.305 212.284 362.305 215.045V251.2C362.305 253.961 364.544 256.2 367.305 256.2H439.358C442.119 256.2 444.358 253.961 444.358 251.2V215.045C444.358 212.284 442.119 210.045 439.358 210.045Z" fill="#E6E6E6"/>
<path d="M439.358 270.802H367.305C364.544 270.802 362.305 273.04 362.305 275.802V311.956C362.305 314.718 364.544 316.956 367.305 316.956H439.358C442.119 316.956 444.358 314.718 444.358 311.956V275.802C444.358 273.04 442.119 270.802 439.358 270.802Z" fill="#E6E6E6"/>
<path d="M439.358 331.558H367.305C364.544 331.558 362.305 333.797 362.305 336.558V372.713C362.305 375.474 364.544 377.713 367.305 377.713H439.358C442.119 377.713 444.358 375.474 444.358 372.713V336.558C444.358 333.797 442.119 331.558 439.358 331.558Z" fill="#E6E6E6"/>
<path d="M262.72 351.602H119.274C117.893 351.602 116.774 352.721 116.774 354.102V359.123C116.774 360.504 117.893 361.623 119.274 361.623H262.72C264.101 361.623 265.22 360.504 265.22 359.123V354.102C265.22 352.721 264.101 351.602 262.72 351.602Z" fill="#E6E6E6"/>
<path d="M246.837 268.507C248.504 269.47 248.504 271.875 246.837 272.837L209.69 294.284C208.024 295.246 205.94 294.044 205.94 292.119L205.94 249.226C205.94 247.301 208.024 246.098 209.69 247.061L246.837 268.507Z" fill="white"/>
<path fill-rule="evenodd" clip-rule="evenodd" d="M82 145C76.8223 145 72.5637 148.935 72.0516 153.978C72.0175 154.314 72 154.655 72 155V162.197V393.621C72 399.144 76.4771 403.621 82 403.621H466.798C472.32 403.621 476.798 399.144 476.798 393.621L476.798 162.197L476.798 155C476.798 150.34 473.61 146.425 469.297 145.315C468.498 145.109 467.661 145 466.798 145H82ZM570.953 227.007C582.226 224.066 588.107 236.809 588.107 236.809C595.949 240.73 591.293 261.56 588.843 259.6C586.392 257.639 584.187 260.825 584.187 260.825L584.167 260.647C583.582 261.634 582.9 262.557 582.134 263.403C581.57 267.893 581.365 274.689 584.305 278.916L584.305 278.912C606.561 285.37 611.613 300.177 613.839 306.703C614.135 307.568 614.38 308.288 614.61 308.823C614.696 309.025 614.741 309.279 614.747 309.578C615.83 315.572 622.902 355.241 620.487 355.845C620.037 355.958 619.197 356.206 618.103 356.531L619.834 386.54C619.834 386.54 628.977 408.091 616.569 407.438C604.16 406.785 611.997 385.887 611.997 385.887L601.702 360.2C600.74 360.203 600.001 360.073 599.589 359.763C598.717 359.11 596.829 354.387 594.698 348.382C593.526 361.245 602.115 398.764 606.12 402.214L603.455 402.347L605.467 415.928C605.467 415.928 602.854 455.113 602.201 457.072C601.548 459.031 599.589 468.828 599.589 468.828L588.487 515.849C588.487 515.849 588.232 515.884 587.797 515.919L586.337 523.221H587.023C587.023 523.221 591.917 534.233 593.957 535.049C595.996 535.865 602.522 544.838 594.772 544.838C589.991 544.776 585.324 543.362 581.312 540.759C581.312 540.759 580.497 537.088 576.826 536.68C573.155 536.273 570.708 531.786 570.708 531.786L574.692 524.43C574.805 524.223 574.972 524.049 575.176 523.929C575.379 523.808 575.611 523.744 575.847 523.743C576.084 523.743 576.316 523.806 576.52 523.926C576.647 524.001 576.76 524.096 576.854 524.207L578.965 514.406C578.056 513.815 577.322 513.013 576.916 511.931L577.384 483.849L576.731 451.848L568.894 415.275L555.179 464.909C555.179 464.909 554.526 481.236 552.567 487.114C550.608 492.992 547.996 518.462 547.996 518.462C547.996 518.462 547.624 518.549 547.033 518.669L548.026 523.635C548.207 523.698 548.37 523.805 548.498 523.949C548.645 524.114 548.739 524.32 548.769 524.539L550.14 534.82C550.14 534.82 549.685 538.004 546.956 538.913C544.226 539.823 545.591 542.098 545.591 542.098C545.591 542.098 543.772 546.191 534.219 544.372C524.667 542.552 534.219 533 535.129 532.09C535.811 531.408 537.005 527.143 537.752 524.478C538 523.59 538.199 522.879 538.313 522.538C538.488 522.014 538.997 521.893 539.559 521.941L539.896 519.132C539.453 518.996 539.144 518.781 539.038 518.462C538.385 516.503 534.934 470.134 534.934 462.95C534.934 457.227 532.498 412.351 531.507 394.334C527.645 391.896 526.784 389.345 529.895 387.193C534.689 383.875 535.871 367.701 535.119 350.294C534.592 350.307 534.052 350.32 533.504 350.331L523.179 376.09C523.179 376.09 531.016 396.989 518.607 397.642C506.198 398.295 515.342 376.744 515.342 376.744L516.888 349.937C515.636 349.781 514.648 349.577 514.035 349.314C509.482 347.363 525.662 302 525.79 301.642L525.791 301.639C531.669 277.475 558.035 275.716 558.035 275.716L558.035 275.716C559.081 274.206 561.229 270.7 561.552 266.989C556.205 264.13 552.567 258.493 552.567 252.005C552.567 250.791 552.695 249.607 552.937 248.465C552.751 246.305 552.465 241.96 552.819 238.77C553.309 234.359 559.681 229.948 570.953 227.007Z" fill="url(#paint1_linear)"/>
</g>
<path d="M160.742 652.5V659H133.642V624H160.092V630.5H141.692V638.1H157.942V644.4H141.692V652.5H160.742ZM183.487 631.7C186.82 631.7 189.504 632.7 191.537 634.7C193.604 636.7 194.637 639.667 194.637 643.6V659H186.837V644.8C186.837 642.667 186.37 641.083 185.437 640.05C184.504 638.983 183.154 638.45 181.387 638.45C179.42 638.45 177.854 639.067 176.687 640.3C175.52 641.5 174.937 643.3 174.937 645.7V659H167.137V632.1H174.587V635.25C175.62 634.117 176.904 633.25 178.437 632.65C179.97 632.017 181.654 631.7 183.487 631.7ZM202.207 632.1H210.007V659H202.207V632.1ZM206.107 628.35C204.674 628.35 203.507 627.933 202.607 627.1C201.707 626.267 201.257 625.233 201.257 624C201.257 622.767 201.707 621.733 202.607 620.9C203.507 620.067 204.674 619.65 206.107 619.65C207.541 619.65 208.707 620.05 209.607 620.85C210.507 621.65 210.957 622.65 210.957 623.85C210.957 625.15 210.507 626.233 209.607 627.1C208.707 627.933 207.541 628.35 206.107 628.35ZM252.196 631.7C255.563 631.7 258.23 632.7 260.196 634.7C262.196 636.667 263.196 639.633 263.196 643.6V659H255.396V644.8C255.396 642.667 254.946 641.083 254.046 640.05C253.18 638.983 251.93 638.45 250.296 638.45C248.463 638.45 247.013 639.05 245.946 640.25C244.88 641.417 244.346 643.167 244.346 645.5V659H236.546V644.8C236.546 640.567 234.846 638.45 231.446 638.45C229.646 638.45 228.213 639.05 227.146 640.25C226.08 641.417 225.546 643.167 225.546 645.5V659H217.746V632.1H225.196V635.2C226.196 634.067 227.413 633.2 228.846 632.6C230.313 632 231.913 631.7 233.646 631.7C235.546 631.7 237.263 632.083 238.796 632.85C240.33 633.583 241.563 634.667 242.496 636.1C243.596 634.7 244.98 633.617 246.646 632.85C248.346 632.083 250.196 631.7 252.196 631.7ZM312.048 632.1L300.698 659H292.648L281.348 632.1H289.398L296.848 650.4L304.548 632.1H312.048ZM315.731 632.1H323.531V659H315.731V632.1ZM319.631 628.35C318.198 628.35 317.031 627.933 316.131 627.1C315.231 626.267 314.781 625.233 314.781 624C314.781 622.767 315.231 621.733 316.131 620.9C317.031 620.067 318.198 619.65 319.631 619.65C321.064 619.65 322.231 620.05 323.131 620.85C324.031 621.65 324.481 622.65 324.481 623.85C324.481 625.15 324.031 626.233 323.131 627.1C322.231 627.933 321.064 628.35 319.631 628.35ZM348.62 657.7C347.853 658.267 346.903 658.7 345.77 659C344.67 659.267 343.503 659.4 342.27 659.4C339.07 659.4 336.587 658.583 334.82 656.95C333.087 655.317 332.22 652.917 332.22 649.75V638.7H328.07V632.7H332.22V626.15H340.02V632.7H346.72V638.7H340.02V649.65C340.02 650.783 340.303 651.667 340.87 652.3C341.47 652.9 342.303 653.2 343.37 653.2C344.603 653.2 345.653 652.867 346.52 652.2L348.62 657.7ZM364.348 631.7C368.515 631.7 371.715 632.7 373.948 634.7C376.182 636.667 377.298 639.65 377.298 643.65V659H369.998V655.65C368.532 658.15 365.798 659.4 361.798 659.4C359.732 659.4 357.932 659.05 356.398 658.35C354.898 657.65 353.748 656.683 352.948 655.45C352.148 654.217 351.748 652.817 351.748 651.25C351.748 648.75 352.682 646.783 354.548 645.35C356.448 643.917 359.365 643.2 363.298 643.2H369.498C369.498 641.5 368.982 640.2 367.948 639.3C366.915 638.367 365.365 637.9 363.298 637.9C361.865 637.9 360.448 638.133 359.048 638.6C357.682 639.033 356.515 639.633 355.548 640.4L352.748 634.95C354.215 633.917 355.965 633.117 357.998 632.55C360.065 631.983 362.182 631.7 364.348 631.7ZM363.748 654.15C365.082 654.15 366.265 653.85 367.298 653.25C368.332 652.617 369.065 651.7 369.498 650.5V647.75H364.148C360.948 647.75 359.348 648.8 359.348 650.9C359.348 651.9 359.732 652.7 360.498 653.3C361.298 653.867 362.382 654.15 363.748 654.15ZM411.501 645.65C411.501 645.75 411.451 646.45 411.351 647.75H391.001C391.367 649.417 392.234 650.733 393.601 651.7C394.967 652.667 396.667 653.15 398.701 653.15C400.101 653.15 401.334 652.95 402.401 652.55C403.501 652.117 404.517 651.45 405.451 650.55L409.601 655.05C407.067 657.95 403.367 659.4 398.501 659.4C395.467 659.4 392.784 658.817 390.451 657.65C388.117 656.45 386.317 654.8 385.051 652.7C383.784 650.6 383.151 648.217 383.151 645.55C383.151 642.917 383.767 640.55 385.001 638.45C386.267 636.317 387.984 634.667 390.151 633.5C392.351 632.3 394.801 631.7 397.501 631.7C400.134 631.7 402.517 632.267 404.651 633.4C406.784 634.533 408.451 636.167 409.651 638.3C410.884 640.4 411.501 642.85 411.501 645.65ZM397.551 637.6C395.784 637.6 394.301 638.1 393.101 639.1C391.901 640.1 391.167 641.467 390.901 643.2H404.151C403.884 641.5 403.151 640.15 401.951 639.15C400.751 638.117 399.284 637.6 397.551 637.6ZM458.954 632.1V659H451.554V655.8C450.521 656.967 449.287 657.867 447.854 658.5C446.421 659.1 444.871 659.4 443.204 659.4C439.671 659.4 436.871 658.383 434.804 656.35C432.737 654.317 431.704 651.3 431.704 647.3V632.1H439.504V646.15C439.504 650.483 441.321 652.65 444.954 652.65C446.821 652.65 448.321 652.05 449.454 650.85C450.587 649.617 451.154 647.8 451.154 645.4V632.1H458.954ZM474.13 635.65C475.063 634.35 476.313 633.367 477.88 632.7C479.48 632.033 481.313 631.7 483.38 631.7V638.9C482.513 638.833 481.93 638.8 481.63 638.8C479.397 638.8 477.647 639.433 476.38 640.7C475.113 641.933 474.48 643.8 474.48 646.3V659H466.68V632.1H474.13V635.65ZM504.868 631.7C508.201 631.7 510.885 632.7 512.918 634.7C514.985 636.7 516.018 639.667 516.018 643.6V659H508.218V644.8C508.218 642.667 507.751 641.083 506.818 640.05C505.885 638.983 504.535 638.45 502.768 638.45C500.801 638.45 499.235 639.067 498.068 640.3C496.901 641.5 496.318 643.3 496.318 645.7V659H488.518V632.1H495.968V635.25C497.001 634.117 498.285 633.25 499.818 632.65C501.351 632.017 503.035 631.7 504.868 631.7ZM534.438 631.7C538.605 631.7 541.805 632.7 544.038 634.7C546.272 636.667 547.388 639.65 547.388 643.65V659H540.088V655.65C538.622 658.15 535.888 659.4 531.888 659.4C529.822 659.4 528.022 659.05 526.488 658.35C524.988 657.65 523.838 656.683 523.038 655.45C522.238 654.217 521.838 652.817 521.838 651.25C521.838 648.75 522.772 646.783 524.638 645.35C526.538 643.917 529.455 643.2 533.388 643.2H539.588C539.588 641.5 539.072 640.2 538.038 639.3C537.005 638.367 535.455 637.9 533.388 637.9C531.955 637.9 530.538 638.133 529.138 638.6C527.772 639.033 526.605 639.633 525.638 640.4L522.838 634.95C524.305 633.917 526.055 633.117 528.088 632.55C530.155 631.983 532.272 631.7 534.438 631.7ZM533.838 654.15C535.172 654.15 536.355 653.85 537.388 653.25C538.422 652.617 539.155 651.7 539.588 650.5V647.75H534.238C531.038 647.75 529.438 648.8 529.438 650.9C529.438 651.9 529.822 652.7 530.588 653.3C531.388 653.867 532.472 654.15 533.838 654.15ZM168.96 719.7C168.193 720.267 167.243 720.7 166.11 721C165.01 721.267 163.843 721.4 162.61 721.4C159.41 721.4 156.926 720.583 155.16 718.95C153.426 717.317 152.56 714.917 152.56 711.75V700.7H148.41V694.7H152.56V688.15H160.36V694.7H167.06V700.7H160.36V711.65C160.36 712.783 160.643 713.667 161.21 714.3C161.81 714.9 162.643 715.2 163.71 715.2C164.943 715.2 165.993 714.867 166.86 714.2L168.96 719.7ZM173.838 694.1H181.638V721H173.838V694.1ZM177.738 690.35C176.305 690.35 175.138 689.933 174.238 689.1C173.338 688.267 172.888 687.233 172.888 686C172.888 684.767 173.338 683.733 174.238 682.9C175.138 682.067 176.305 681.65 177.738 681.65C179.172 681.65 180.338 682.05 181.238 682.85C182.138 683.65 182.588 684.65 182.588 685.85C182.588 687.15 182.138 688.233 181.238 689.1C180.338 689.933 179.172 690.35 177.738 690.35ZM205.727 693.7C209.061 693.7 211.744 694.7 213.777 696.7C215.844 698.7 216.877 701.667 216.877 705.6V721H209.077V706.8C209.077 704.667 208.611 703.083 207.677 702.05C206.744 700.983 205.394 700.45 203.627 700.45C201.661 700.45 200.094 701.067 198.927 702.3C197.761 703.5 197.177 705.3 197.177 707.7V721H189.377V694.1H196.827V697.25C197.861 696.117 199.144 695.25 200.677 694.65C202.211 694.017 203.894 693.7 205.727 693.7ZM237.741 721.4C234.874 721.4 232.291 720.817 229.991 719.65C227.724 718.45 225.941 716.8 224.641 714.7C223.374 712.6 222.741 710.217 222.741 707.55C222.741 704.883 223.374 702.5 224.641 700.4C225.941 698.3 227.724 696.667 229.991 695.5C232.291 694.3 234.874 693.7 237.741 693.7C240.574 693.7 243.041 694.3 245.141 695.5C247.274 696.667 248.824 698.35 249.791 700.55L243.741 703.8C242.341 701.333 240.324 700.1 237.691 700.1C235.657 700.1 233.974 700.767 232.641 702.1C231.307 703.433 230.641 705.25 230.641 707.55C230.641 709.85 231.307 711.667 232.641 713C233.974 714.333 235.657 715 237.691 715C240.357 715 242.374 713.767 243.741 711.3L249.791 714.6C248.824 716.733 247.274 718.4 245.141 719.6C243.041 720.8 240.574 721.4 237.741 721.4ZM254.782 694.1H262.582V721H254.782V694.1ZM258.682 690.35C257.248 690.35 256.082 689.933 255.182 689.1C254.282 688.267 253.832 687.233 253.832 686C253.832 684.767 254.282 683.733 255.182 682.9C256.082 682.067 257.248 681.65 258.682 681.65C260.115 681.65 261.282 682.05 262.182 682.85C263.082 683.65 263.532 684.65 263.532 685.85C263.532 687.15 263.082 688.233 262.182 689.1C261.282 689.933 260.115 690.35 258.682 690.35ZM297.721 683.9V721H290.271V717.9C288.337 720.233 285.537 721.4 281.871 721.4C279.337 721.4 277.037 720.833 274.971 719.7C272.937 718.567 271.337 716.95 270.171 714.85C269.004 712.75 268.421 710.317 268.421 707.55C268.421 704.783 269.004 702.35 270.171 700.25C271.337 698.15 272.937 696.533 274.971 695.4C277.037 694.267 279.337 693.7 281.871 693.7C285.304 693.7 287.987 694.783 289.921 696.95V683.9H297.721ZM283.221 715C285.187 715 286.821 714.333 288.121 713C289.421 711.633 290.071 709.817 290.071 707.55C290.071 705.283 289.421 703.483 288.121 702.15C286.821 700.783 285.187 700.1 283.221 700.1C281.221 700.1 279.571 700.783 278.271 702.15C276.971 703.483 276.321 705.283 276.321 707.55C276.321 709.817 276.971 711.633 278.271 713C279.571 714.333 281.221 715 283.221 715ZM332.54 694.1V721H325.14V717.8C324.107 718.967 322.873 719.867 321.44 720.5C320.007 721.1 318.457 721.4 316.79 721.4C313.257 721.4 310.457 720.383 308.39 718.35C306.323 716.317 305.29 713.3 305.29 709.3V694.1H313.09V708.15C313.09 712.483 314.907 714.65 318.54 714.65C320.407 714.65 321.907 714.05 323.04 712.85C324.173 711.617 324.74 709.8 324.74 707.4V694.1H332.54ZM356.616 693.7C359.949 693.7 362.633 694.7 364.666 696.7C366.733 698.7 367.766 701.667 367.766 705.6V721H359.966V706.8C359.966 704.667 359.499 703.083 358.566 702.05C357.633 700.983 356.283 700.45 354.516 700.45C352.549 700.45 350.983 701.067 349.816 702.3C348.649 703.5 348.066 705.3 348.066 707.7V721H340.266V694.1H347.716V697.25C348.749 696.117 350.033 695.25 351.566 694.65C353.099 694.017 354.783 693.7 356.616 693.7ZM392.686 719.7C391.92 720.267 390.97 720.7 389.836 721C388.736 721.267 387.57 721.4 386.336 721.4C383.136 721.4 380.653 720.583 378.886 718.95C377.153 717.317 376.286 714.917 376.286 711.75V700.7H372.136V694.7H376.286V688.15H384.086V694.7H390.786V700.7H384.086V711.65C384.086 712.783 384.37 713.667 384.936 714.3C385.536 714.9 386.37 715.2 387.436 715.2C388.67 715.2 389.72 714.867 390.586 714.2L392.686 719.7ZM423.075 693.7C427.242 693.7 430.442 694.7 432.675 696.7C434.908 698.667 436.025 701.65 436.025 705.65V721H428.725V717.65C427.258 720.15 424.525 721.4 420.525 721.4C418.458 721.4 416.658 721.05 415.125 720.35C413.625 719.65 412.475 718.683 411.675 717.45C410.875 716.217 410.475 714.817 410.475 713.25C410.475 710.75 411.408 708.783 413.275 707.35C415.175 705.917 418.092 705.2 422.025 705.2H428.225C428.225 703.5 427.708 702.2 426.675 701.3C425.642 700.367 424.092 699.9 422.025 699.9C420.592 699.9 419.175 700.133 417.775 700.6C416.408 701.033 415.242 701.633 414.275 702.4L411.475 696.95C412.942 695.917 414.692 695.117 416.725 694.55C418.792 693.983 420.908 693.7 423.075 693.7ZM422.475 716.15C423.808 716.15 424.992 715.85 426.025 715.25C427.058 714.617 427.792 713.7 428.225 712.5V709.75H422.875C419.675 709.75 418.075 710.8 418.075 712.9C418.075 713.9 418.458 714.7 419.225 715.3C420.025 715.867 421.108 716.15 422.475 716.15ZM478.034 693.7C481.401 693.7 484.068 694.7 486.034 696.7C488.034 698.667 489.034 701.633 489.034 705.6V721H481.234V706.8C481.234 704.667 480.784 703.083 479.884 702.05C479.018 700.983 477.768 700.45 476.134 700.45C474.301 700.45 472.851 701.05 471.784 702.25C470.718 703.417 470.184 705.167 470.184 707.5V721H462.384V706.8C462.384 702.567 460.684 700.45 457.284 700.45C455.484 700.45 454.051 701.05 452.984 702.25C451.918 703.417 451.384 705.167 451.384 707.5V721H443.584V694.1H451.034V697.2C452.034 696.067 453.251 695.2 454.684 694.6C456.151 694 457.751 693.7 459.484 693.7C461.384 693.7 463.101 694.083 464.634 694.85C466.168 695.583 467.401 696.667 468.334 698.1C469.434 696.7 470.818 695.617 472.484 694.85C474.184 694.083 476.034 693.7 478.034 693.7ZM523.169 707.65C523.169 707.75 523.119 708.45 523.019 709.75H502.669C503.035 711.417 503.902 712.733 505.269 713.7C506.635 714.667 508.335 715.15 510.369 715.15C511.769 715.15 513.002 714.95 514.069 714.55C515.169 714.117 516.185 713.45 517.119 712.55L521.269 717.05C518.735 719.95 515.035 721.4 510.169 721.4C507.135 721.4 504.452 720.817 502.119 719.65C499.785 718.45 497.985 716.8 496.719 714.7C495.452 712.6 494.819 710.217 494.819 707.55C494.819 704.917 495.435 702.55 496.669 700.45C497.935 698.317 499.652 696.667 501.819 695.5C504.019 694.3 506.469 693.7 509.169 693.7C511.802 693.7 514.185 694.267 516.319 695.4C518.452 696.533 520.119 698.167 521.319 700.3C522.552 702.4 523.169 704.85 523.169 707.65ZM509.219 699.6C507.452 699.6 505.969 700.1 504.769 701.1C503.569 702.1 502.835 703.467 502.569 705.2H515.819C515.552 703.5 514.819 702.15 513.619 701.15C512.419 700.117 510.952 699.6 509.219 699.6ZM546.212 719.7C545.445 720.267 544.495 720.7 543.362 721C542.262 721.267 541.095 721.4 539.862 721.4C536.662 721.4 534.178 720.583 532.412 718.95C530.678 717.317 529.812 714.917 529.812 711.75V700.7H525.662V694.7H529.812V688.15H537.612V694.7H544.312V700.7H537.612V711.65C537.612 712.783 537.895 713.667 538.462 714.3C539.062 714.9 539.895 715.2 540.962 715.2C542.195 715.2 543.245 714.867 544.112 714.2L546.212 719.7Z" fill="#2F2E44"/>
<path d="M251.975 67.325C251.975 67.375 251.95 67.725 251.9 68.375H241.725C241.908 69.2083 242.342 69.8667 243.025 70.35C243.708 70.8333 244.558 71.075 245.575 71.075C246.275 71.075 246.892 70.975 247.425 70.775C247.975 70.5583 248.483 70.225 248.95 69.775L251.025 72.025C249.758 73.475 247.908 74.2 245.475 74.2C243.958 74.2 242.617 73.9083 241.45 73.325C240.283 72.725 239.383 71.9 238.75 70.85C238.117 69.8 237.8 68.6083 237.8 67.275C237.8 65.9583 238.108 64.775 238.725 63.725C239.358 62.6583 240.217 61.8333 241.3 61.25C242.4 60.65 243.625 60.35 244.975 60.35C246.292 60.35 247.483 60.6333 248.55 61.2C249.617 61.7667 250.45 62.5833 251.05 63.65C251.667 64.7 251.975 65.925 251.975 67.325ZM245 63.3C244.117 63.3 243.375 63.55 242.775 64.05C242.175 64.55 241.808 65.2333 241.675 66.1H248.3C248.167 65.25 247.8 64.575 247.2 64.075C246.6 63.5583 245.867 63.3 245 63.3ZM262.996 60.35C264.663 60.35 266.005 60.85 267.021 61.85C268.055 62.85 268.571 64.3333 268.571 66.3V74H264.671V66.9C264.671 65.8333 264.438 65.0417 263.971 64.525C263.505 63.9917 262.83 63.725 261.946 63.725C260.963 63.725 260.18 64.0333 259.596 64.65C259.013 65.25 258.721 66.15 258.721 67.35V74H254.821V60.55H258.546V62.125C259.063 61.5583 259.705 61.125 260.471 60.825C261.238 60.5083 262.08 60.35 262.996 60.35ZM286.378 60.55V71.75C286.378 74.2167 285.736 76.05 284.453 77.25C283.17 78.45 281.295 79.05 278.828 79.05C277.528 79.05 276.295 78.8917 275.128 78.575C273.961 78.2583 272.995 77.8 272.228 77.2L273.778 74.4C274.345 74.8667 275.061 75.2333 275.928 75.5C276.795 75.7833 277.661 75.925 278.528 75.925C279.878 75.925 280.87 75.6167 281.503 75C282.153 74.4 282.478 73.4833 282.478 72.25V71.675C281.461 72.7917 280.045 73.35 278.228 73.35C276.995 73.35 275.861 73.0833 274.828 72.55C273.811 72 273.003 71.2333 272.403 70.25C271.803 69.2667 271.503 68.1333 271.503 66.85C271.503 65.5667 271.803 64.4333 272.403 63.45C273.003 62.4667 273.811 61.7083 274.828 61.175C275.861 60.625 276.995 60.35 278.228 60.35C280.178 60.35 281.661 60.9917 282.678 62.275V60.55H286.378ZM279.003 70.15C280.036 70.15 280.878 69.85 281.528 69.25C282.195 68.6333 282.528 67.8333 282.528 66.85C282.528 65.8667 282.195 65.075 281.528 64.475C280.878 63.8583 280.036 63.55 279.003 63.55C277.97 63.55 277.12 63.8583 276.453 64.475C275.786 65.075 275.453 65.8667 275.453 66.85C275.453 67.8333 275.786 68.6333 276.453 69.25C277.12 69.85 277.97 70.15 279.003 70.15ZM290.258 55.45H294.158V74H290.258V55.45ZM298.028 60.55H301.928V74H298.028V60.55ZM299.978 58.675C299.261 58.675 298.678 58.4667 298.228 58.05C297.778 57.6333 297.553 57.1167 297.553 56.5C297.553 55.8833 297.778 55.3667 298.228 54.95C298.678 54.5333 299.261 54.325 299.978 54.325C300.694 54.325 301.278 54.525 301.728 54.925C302.178 55.325 302.403 55.825 302.403 56.425C302.403 57.075 302.178 57.6167 301.728 58.05C301.278 58.4667 300.694 58.675 299.978 58.675ZM310.322 74.2C309.205 74.2 308.114 74.0667 307.047 73.8C305.98 73.5167 305.13 73.1667 304.497 72.75L305.797 69.95C306.397 70.3333 307.122 70.65 307.972 70.9C308.822 71.1333 309.655 71.25 310.472 71.25C312.122 71.25 312.947 70.8417 312.947 70.025C312.947 69.6417 312.722 69.3667 312.272 69.2C311.822 69.0333 311.13 68.8917 310.197 68.775C309.097 68.6083 308.189 68.4167 307.472 68.2C306.755 67.9833 306.13 67.6 305.597 67.05C305.08 66.5 304.822 65.7167 304.822 64.7C304.822 63.85 305.064 63.1 305.547 62.45C306.047 61.7833 306.764 61.2667 307.697 60.9C308.647 60.5333 309.764 60.35 311.047 60.35C311.997 60.35 312.939 60.4583 313.872 60.675C314.822 60.875 315.605 61.1583 316.222 61.525L314.922 64.3C313.739 63.6333 312.447 63.3 311.047 63.3C310.214 63.3 309.589 63.4167 309.172 63.65C308.755 63.8833 308.547 64.1833 308.547 64.55C308.547 64.9667 308.772 65.2583 309.222 65.425C309.672 65.5917 310.389 65.75 311.372 65.9C312.472 66.0833 313.372 66.2833 314.072 66.5C314.772 66.7 315.38 67.075 315.897 67.625C316.414 68.175 316.672 68.9417 316.672 69.925C316.672 70.7583 316.422 71.5 315.922 72.15C315.422 72.8 314.689 73.3083 313.722 73.675C312.772 74.025 311.639 74.2 310.322 74.2ZM327.503 60.35C329.17 60.35 330.512 60.85 331.528 61.85C332.562 62.85 333.078 64.3333 333.078 66.3V74H329.178V66.9C329.178 65.8333 328.945 65.0417 328.478 64.525C328.012 63.9917 327.337 63.725 326.453 63.725C325.47 63.725 324.687 64.0333 324.103 64.65C323.52 65.25 323.228 66.15 323.228 67.35V74H319.328V55.45H323.228V61.95C323.745 61.4333 324.37 61.0417 325.103 60.775C325.837 60.4917 326.637 60.35 327.503 60.35ZM345.038 60.35C346.705 60.35 348.047 60.85 349.063 61.85C350.097 62.85 350.613 64.3333 350.613 66.3V74H346.713V66.9C346.713 65.8333 346.48 65.0417 346.013 64.525C345.547 63.9917 344.872 63.725 343.988 63.725C343.005 63.725 342.222 64.0333 341.638 64.65C341.055 65.25 340.763 66.15 340.763 67.35V74H336.863V60.55H340.588V62.125C341.105 61.5583 341.747 61.125 342.513 60.825C343.28 60.5083 344.122 60.35 345.038 60.35ZM367.72 67.325C367.72 67.375 367.695 67.725 367.645 68.375H357.47C357.653 69.2083 358.087 69.8667 358.77 70.35C359.453 70.8333 360.303 71.075 361.32 71.075C362.02 71.075 362.637 70.975 363.17 70.775C363.72 70.5583 364.228 70.225 364.695 69.775L366.77 72.025C365.503 73.475 363.653 74.2 361.22 74.2C359.703 74.2 358.362 73.9083 357.195 73.325C356.028 72.725 355.128 71.9 354.495 70.85C353.862 69.8 353.545 68.6083 353.545 67.275C353.545 65.9583 353.853 64.775 354.47 63.725C355.103 62.6583 355.962 61.8333 357.045 61.25C358.145 60.65 359.37 60.35 360.72 60.35C362.037 60.35 363.228 60.6333 364.295 61.2C365.362 61.7667 366.195 62.5833 366.795 63.65C367.412 64.7 367.72 65.925 367.72 67.325ZM360.745 63.3C359.862 63.3 359.12 63.55 358.52 64.05C357.92 64.55 357.553 65.2333 357.42 66.1H364.045C363.912 65.25 363.545 64.575 362.945 64.075C362.345 63.5583 361.612 63.3 360.745 63.3ZM374.292 62.325C374.758 61.675 375.383 61.1833 376.167 60.85C376.967 60.5167 377.883 60.35 378.917 60.35V63.95C378.483 63.9167 378.192 63.9 378.042 63.9C376.925 63.9 376.05 64.2167 375.417 64.85C374.783 65.4667 374.467 66.4 374.467 67.65V74H370.567V60.55H374.292V62.325ZM395.063 55.45V74H391.338V72.45C390.372 73.6167 388.972 74.2 387.138 74.2C385.872 74.2 384.722 73.9167 383.688 73.35C382.672 72.7833 381.872 71.975 381.288 70.925C380.705 69.875 380.413 68.6583 380.413 67.275C380.413 65.8917 380.705 64.675 381.288 63.625C381.872 62.575 382.672 61.7667 383.688 61.2C384.722 60.6333 385.872 60.35 387.138 60.35C388.855 60.35 390.197 60.8917 391.163 61.975V55.45H395.063ZM387.813 71C388.797 71 389.613 70.6667 390.263 70C390.913 69.3167 391.238 68.4083 391.238 67.275C391.238 66.1417 390.913 65.2417 390.263 64.575C389.613 63.8917 388.797 63.55 387.813 63.55C386.813 63.55 385.988 63.8917 385.338 64.575C384.688 65.2417 384.363 66.1417 384.363 67.275C384.363 68.4083 384.688 69.3167 385.338 70C385.988 70.6667 386.813 71 387.813 71ZM400.398 74.2C399.715 74.2 399.14 73.9667 398.673 73.5C398.206 73.0333 397.973 72.45 397.973 71.75C397.973 71.0333 398.206 70.4583 398.673 70.025C399.14 69.575 399.715 69.35 400.398 69.35C401.081 69.35 401.656 69.575 402.123 70.025C402.59 70.4583 402.823 71.0333 402.823 71.75C402.823 72.45 402.59 73.0333 402.123 73.5C401.656 73.9667 401.081 74.2 400.398 74.2ZM411.945 74.2C410.528 74.2 409.253 73.9083 408.12 73.325C407.003 72.725 406.128 71.9 405.495 70.85C404.862 69.8 404.545 68.6083 404.545 67.275C404.545 65.9417 404.862 64.75 405.495 63.7C406.128 62.65 407.003 61.8333 408.12 61.25C409.253 60.65 410.528 60.35 411.945 60.35C413.362 60.35 414.628 60.65 415.745 61.25C416.862 61.8333 417.737 62.65 418.37 63.7C419.003 64.75 419.32 65.9417 419.32 67.275C419.32 68.6083 419.003 69.8 418.37 70.85C417.737 71.9 416.862 72.725 415.745 73.325C414.628 73.9083 413.362 74.2 411.945 74.2ZM411.945 71C412.945 71 413.762 70.6667 414.395 70C415.045 69.3167 415.37 68.4083 415.37 67.275C415.37 66.1417 415.045 65.2417 414.395 64.575C413.762 63.8917 412.945 63.55 411.945 63.55C410.945 63.55 410.12 63.8917 409.47 64.575C408.82 65.2417 408.495 66.1417 408.495 67.275C408.495 68.4083 408.82 69.3167 409.47 70C410.12 70.6667 410.945 71 411.945 71ZM425.902 62.325C426.369 61.675 426.994 61.1833 427.777 60.85C428.577 60.5167 429.494 60.35 430.527 60.35V63.95C430.094 63.9167 429.802 63.9 429.652 63.9C428.535 63.9 427.66 64.2167 427.027 64.85C426.394 65.4667 426.077 66.4 426.077 67.65V74H422.177V60.55H425.902V62.325ZM446.849 60.55V71.75C446.849 74.2167 446.207 76.05 444.924 77.25C443.64 78.45 441.765 79.05 439.299 79.05C437.999 79.05 436.765 78.8917 435.599 78.575C434.432 78.2583 433.465 77.8 432.699 77.2L434.249 74.4C434.815 74.8667 435.532 75.2333 436.399 75.5C437.265 75.7833 438.132 75.925 438.999 75.925C440.349 75.925 441.34 75.6167 441.974 75C442.624 74.4 442.949 73.4833 442.949 72.25V71.675C441.932 72.7917 440.515 73.35 438.699 73.35C437.465 73.35 436.332 73.0833 435.299 72.55C434.282 72 433.474 71.2333 432.874 70.25C432.274 69.2667 431.974 68.1333 431.974 66.85C431.974 65.5667 432.274 64.4333 432.874 63.45C433.474 62.4667 434.282 61.7083 435.299 61.175C436.332 60.625 437.465 60.35 438.699 60.35C440.649 60.35 442.132 60.9917 443.149 62.275V60.55H446.849ZM439.474 70.15C440.507 70.15 441.349 69.85 441.999 69.25C442.665 68.6333 442.999 67.8333 442.999 66.85C442.999 65.8667 442.665 65.075 441.999 64.475C441.349 63.8583 440.507 63.55 439.474 63.55C438.44 63.55 437.59 63.8583 436.924 64.475C436.257 65.075 435.924 65.8667 435.924 66.85C435.924 67.8333 436.257 68.6333 436.924 69.25C437.59 69.85 438.44 70.15 439.474 70.15Z" fill="white"/>
</g>
<defs>
<filter id="filter0_d" x="52" y="105" width="611.724" height="460" filterUnits="userSpaceOnUse" color-interpolation-filters="sRGB">
<feFlood flood-opacity="0" result="BackgroundImageFix"/>
<feColorMatrix in="SourceAlpha" type="matrix" values="0 0 0 0 0 0 0 0 0 0 0 0 0 0 0 0 0 0 127 0"/>
<feOffset dx="10" dy="-10"/>
<feGaussianBlur stdDeviation="15"/>
<feColorMatrix type="matrix" values="0 0 0 0 0.517647 0 0 0 0 0.517647 0 0 0 0 0.6 0 0 0 0.05 0"/>
<feBlend mode="normal" in2="BackgroundImageFix" result="effect1_dropShadow"/>
<feBlend mode="normal" in="SourceGraphic" in2="effect1_dropShadow" result="shape"/>
</filter>
<linearGradient id="paint0_linear" x1="215" y1="-170" x2="963.795" y2="332.897" gradientUnits="userSpaceOnUse">
<stop stop-color="white" stop-opacity="0.2"/>
<stop offset="1" stop-color="white" stop-opacity="0"/>
</linearGradient>
<linearGradient id="paint1_linear" x1="72" y1="544.838" x2="585.47" y2="405.81" gradientUnits="userSpaceOnUse">
<stop stop-color="white" stop-opacity="0.2"/>
<stop offset="1" stop-color="white" stop-opacity="0"/>
</linearGradient>
<clipPath id="clip0">
<rect width="926" height="695" fill="white" transform="translate(0 926) rotate(-90)"/>
</clipPath>
<clipPath id="clip1">
<rect width="551.724" height="400" fill="white" transform="translate(72 145)"/>
</clipPath>
</defs>
</svg>
