<svg width="1620" height="696" viewBox="0 0 1620 696" fill="none" xmlns="http://www.w3.org/2000/svg">
<g clip-path="url(#clip0)">
<rect width="1620" height="695" transform="translate(0 0.5)" fill="white"/>
<path d="M105.395 285H126.065C131.005 285 135.36 285.953 139.13 287.86C142.943 289.723 145.89 292.367 147.97 295.79C150.093 299.213 151.155 303.2 151.155 307.75C151.155 312.3 150.093 316.287 147.97 319.71C145.89 323.133 142.943 325.798 139.13 327.705C135.36 329.568 131.005 330.5 126.065 330.5H105.395V285ZM125.545 321.855C130.095 321.855 133.713 320.598 136.4 318.085C139.13 315.528 140.495 312.083 140.495 307.75C140.495 303.417 139.13 299.993 136.4 297.48C133.713 294.923 130.095 293.645 125.545 293.645H115.925V321.855H125.545ZM159.031 295.53H169.171V330.5H159.031V295.53ZM164.101 290.655C162.238 290.655 160.721 290.113 159.551 289.03C158.381 287.947 157.796 286.603 157.796 285C157.796 283.397 158.381 282.053 159.551 280.97C160.721 279.887 162.238 279.345 164.101 279.345C165.965 279.345 167.481 279.865 168.651 280.905C169.821 281.945 170.406 283.245 170.406 284.805C170.406 286.495 169.821 287.903 168.651 289.03C167.481 290.113 165.965 290.655 164.101 290.655ZM190.997 331.02C188.094 331.02 185.255 330.673 182.482 329.98C179.709 329.243 177.499 328.333 175.852 327.25L179.232 319.97C180.792 320.967 182.677 321.79 184.887 322.44C187.097 323.047 189.264 323.35 191.387 323.35C195.677 323.35 197.822 322.288 197.822 320.165C197.822 319.168 197.237 318.453 196.067 318.02C194.897 317.587 193.099 317.218 190.672 316.915C187.812 316.482 185.45 315.983 183.587 315.42C181.724 314.857 180.099 313.86 178.712 312.43C177.369 311 176.697 308.963 176.697 306.32C176.697 304.11 177.325 302.16 178.582 300.47C179.882 298.737 181.745 297.393 184.172 296.44C186.642 295.487 189.545 295.01 192.882 295.01C195.352 295.01 197.8 295.292 200.227 295.855C202.697 296.375 204.734 297.112 206.337 298.065L202.957 305.28C199.88 303.547 196.522 302.68 192.882 302.68C190.715 302.68 189.09 302.983 188.007 303.59C186.924 304.197 186.382 304.977 186.382 305.93C186.382 307.013 186.967 307.772 188.137 308.205C189.307 308.638 191.17 309.05 193.727 309.44C196.587 309.917 198.927 310.437 200.747 311C202.567 311.52 204.149 312.495 205.492 313.925C206.835 315.355 207.507 317.348 207.507 319.905C207.507 322.072 206.857 324 205.557 325.69C204.257 327.38 202.35 328.702 199.837 329.655C197.367 330.565 194.42 331.02 190.997 331.02ZM231.313 331.02C227.587 331.02 224.228 330.262 221.238 328.745C218.292 327.185 215.973 325.04 214.283 322.31C212.637 319.58 211.813 316.482 211.813 313.015C211.813 309.548 212.637 306.45 214.283 303.72C215.973 300.99 218.292 298.867 221.238 297.35C224.228 295.79 227.587 295.01 231.313 295.01C234.997 295.01 238.203 295.79 240.933 297.35C243.707 298.867 245.722 301.055 246.978 303.915L239.113 308.14C237.293 304.933 234.672 303.33 231.248 303.33C228.605 303.33 226.417 304.197 224.683 305.93C222.95 307.663 222.083 310.025 222.083 313.015C222.083 316.005 222.95 318.367 224.683 320.1C226.417 321.833 228.605 322.7 231.248 322.7C234.715 322.7 237.337 321.097 239.113 317.89L246.978 322.18C245.722 324.953 243.707 327.12 240.933 328.68C238.203 330.24 234.997 331.02 231.313 331.02ZM269.662 331.02C265.979 331.02 262.664 330.262 259.717 328.745C256.814 327.185 254.539 325.04 252.892 322.31C251.246 319.58 250.422 316.482 250.422 313.015C250.422 309.548 251.246 306.45 252.892 303.72C254.539 300.99 256.814 298.867 259.717 297.35C262.664 295.79 265.979 295.01 269.662 295.01C273.346 295.01 276.639 295.79 279.542 297.35C282.446 298.867 284.721 300.99 286.367 303.72C288.014 306.45 288.837 309.548 288.837 313.015C288.837 316.482 288.014 319.58 286.367 322.31C284.721 325.04 282.446 327.185 279.542 328.745C276.639 330.262 273.346 331.02 269.662 331.02ZM269.662 322.7C272.262 322.7 274.386 321.833 276.032 320.1C277.722 318.323 278.567 315.962 278.567 313.015C278.567 310.068 277.722 307.728 276.032 305.995C274.386 304.218 272.262 303.33 269.662 303.33C267.062 303.33 264.917 304.218 263.227 305.995C261.537 307.728 260.692 310.068 260.692 313.015C260.692 315.962 261.537 318.323 263.227 320.1C264.917 321.833 267.062 322.7 269.662 322.7ZM330.023 295.53L315.268 330.5H304.803L290.113 295.53H300.578L310.263 319.32L320.273 295.53H330.023ZM368.113 313.145C368.113 313.275 368.048 314.185 367.918 315.875H341.463C341.94 318.042 343.067 319.753 344.843 321.01C346.62 322.267 348.83 322.895 351.473 322.895C353.293 322.895 354.897 322.635 356.283 322.115C357.713 321.552 359.035 320.685 360.248 319.515L365.643 325.365C362.35 329.135 357.54 331.02 351.213 331.02C347.27 331.02 343.782 330.262 340.748 328.745C337.715 327.185 335.375 325.04 333.728 322.31C332.082 319.58 331.258 316.482 331.258 313.015C331.258 309.592 332.06 306.515 333.663 303.785C335.31 301.012 337.542 298.867 340.358 297.35C343.218 295.79 346.403 295.01 349.913 295.01C353.337 295.01 356.435 295.747 359.208 297.22C361.982 298.693 364.148 300.817 365.708 303.59C367.312 306.32 368.113 309.505 368.113 313.145ZM349.978 302.68C347.682 302.68 345.753 303.33 344.193 304.63C342.633 305.93 341.68 307.707 341.333 309.96H358.558C358.212 307.75 357.258 305.995 355.698 304.695C354.138 303.352 352.232 302.68 349.978 302.68ZM385.199 300.145C386.413 298.455 388.038 297.177 390.074 296.31C392.154 295.443 394.538 295.01 397.224 295.01V304.37C396.098 304.283 395.339 304.24 394.949 304.24C392.046 304.24 389.771 305.063 388.124 306.71C386.478 308.313 385.654 310.74 385.654 313.99V330.5H375.514V295.53H385.199V300.145ZM457.471 313.145C457.471 313.275 457.406 314.185 457.276 315.875H430.821C431.297 318.042 432.424 319.753 434.201 321.01C435.977 322.267 438.187 322.895 440.831 322.895C442.651 322.895 444.254 322.635 445.641 322.115C447.071 321.552 448.392 320.685 449.606 319.515L455.001 325.365C451.707 329.135 446.897 331.02 440.571 331.02C436.627 331.02 433.139 330.262 430.106 328.745C427.072 327.185 424.732 325.04 423.086 322.31C421.439 319.58 420.616 316.482 420.616 313.015C420.616 309.592 421.417 306.515 423.021 303.785C424.667 301.012 426.899 298.867 429.716 297.35C432.576 295.79 435.761 295.01 439.271 295.01C442.694 295.01 445.792 295.747 448.566 297.22C451.339 298.693 453.506 300.817 455.066 303.59C456.669 306.32 457.471 309.505 457.471 313.145ZM439.336 302.68C437.039 302.68 435.111 303.33 433.551 304.63C431.991 305.93 431.037 307.707 430.691 309.96H447.916C447.569 307.75 446.616 305.995 445.056 304.695C443.496 303.352 441.589 302.68 439.336 302.68ZM486.126 295.01C490.46 295.01 493.948 296.31 496.591 298.91C499.278 301.51 500.621 305.367 500.621 310.48V330.5H490.481V312.04C490.481 309.267 489.875 307.208 488.661 305.865C487.448 304.478 485.693 303.785 483.396 303.785C480.84 303.785 478.803 304.587 477.286 306.19C475.77 307.75 475.011 310.09 475.011 313.21V330.5H464.871V295.53H474.556V299.625C475.9 298.152 477.568 297.025 479.561 296.245C481.555 295.422 483.743 295.01 486.126 295.01ZM546.919 295.53V324.65C546.919 331.063 545.25 335.83 541.914 338.95C538.577 342.07 533.702 343.63 527.289 343.63C523.909 343.63 520.702 343.218 517.669 342.395C514.635 341.572 512.122 340.38 510.129 338.82L514.159 331.54C515.632 332.753 517.495 333.707 519.749 334.4C522.002 335.137 524.255 335.505 526.509 335.505C530.019 335.505 532.597 334.703 534.244 333.1C535.934 331.54 536.779 329.157 536.779 325.95V324.455C534.135 327.358 530.452 328.81 525.729 328.81C522.522 328.81 519.575 328.117 516.889 326.73C514.245 325.3 512.144 323.307 510.584 320.75C509.024 318.193 508.244 315.247 508.244 311.91C508.244 308.573 509.024 305.627 510.584 303.07C512.144 300.513 514.245 298.542 516.889 297.155C519.575 295.725 522.522 295.01 525.729 295.01C530.799 295.01 534.655 296.678 537.299 300.015V295.53H546.919ZM527.744 320.49C530.43 320.49 532.619 319.71 534.309 318.15C536.042 316.547 536.909 314.467 536.909 311.91C536.909 309.353 536.042 307.295 534.309 305.735C532.619 304.132 530.43 303.33 527.744 303.33C525.057 303.33 522.847 304.132 521.114 305.735C519.38 307.295 518.514 309.353 518.514 311.91C518.514 314.467 519.38 316.547 521.114 318.15C522.847 319.71 525.057 320.49 527.744 320.49ZM557.006 282.27H567.146V330.5H557.006V282.27ZM577.207 295.53H587.347V330.5H577.207V295.53ZM582.277 290.655C580.414 290.655 578.897 290.113 577.727 289.03C576.557 287.947 575.972 286.603 575.972 285C575.972 283.397 576.557 282.053 577.727 280.97C578.897 279.887 580.414 279.345 582.277 279.345C584.14 279.345 585.657 279.865 586.827 280.905C587.997 281.945 588.582 283.245 588.582 284.805C588.582 286.495 587.997 287.903 586.827 289.03C585.657 290.113 584.14 290.655 582.277 290.655ZM609.173 331.02C606.27 331.02 603.431 330.673 600.658 329.98C597.885 329.243 595.675 328.333 594.028 327.25L597.408 319.97C598.968 320.967 600.853 321.79 603.063 322.44C605.273 323.047 607.44 323.35 609.563 323.35C613.853 323.35 615.998 322.288 615.998 320.165C615.998 319.168 615.413 318.453 614.243 318.02C613.073 317.587 611.275 317.218 608.848 316.915C605.988 316.482 603.626 315.983 601.763 315.42C599.9 314.857 598.275 313.86 596.888 312.43C595.545 311 594.873 308.963 594.873 306.32C594.873 304.11 595.501 302.16 596.758 300.47C598.058 298.737 599.921 297.393 602.348 296.44C604.818 295.487 607.721 295.01 611.058 295.01C613.528 295.01 615.976 295.292 618.403 295.855C620.873 296.375 622.91 297.112 624.513 298.065L621.133 305.28C618.056 303.547 614.698 302.68 611.058 302.68C608.891 302.68 607.266 302.983 606.183 303.59C605.1 304.197 604.558 304.977 604.558 305.93C604.558 307.013 605.143 307.772 606.313 308.205C607.483 308.638 609.346 309.05 611.903 309.44C614.763 309.917 617.103 310.437 618.923 311C620.743 311.52 622.325 312.495 623.668 313.925C625.011 315.355 625.683 317.348 625.683 319.905C625.683 322.072 625.033 324 623.733 325.69C622.433 327.38 620.526 328.702 618.013 329.655C615.543 330.565 612.596 331.02 609.173 331.02ZM653.844 295.01C658.178 295.01 661.666 296.31 664.309 298.91C666.996 301.51 668.339 305.367 668.339 310.48V330.5H658.199V312.04C658.199 309.267 657.593 307.208 656.379 305.865C655.166 304.478 653.411 303.785 651.114 303.785C648.558 303.785 646.521 304.587 645.004 306.19C643.488 307.75 642.729 310.09 642.729 313.21V330.5H632.589V282.27H642.729V299.17C644.073 297.827 645.698 296.808 647.604 296.115C649.511 295.378 651.591 295.01 653.844 295.01ZM160.84 376.53L148.165 411.5H138.415L130.55 389.79L122.425 411.5H112.675L100.065 376.53H109.62L117.875 400.19L126.455 376.53H135.035L143.355 400.19L151.87 376.53H160.84ZM166.204 376.53H176.344V411.5H166.204V376.53ZM171.274 371.655C169.411 371.655 167.894 371.113 166.724 370.03C165.554 368.947 164.969 367.603 164.969 366C164.969 364.397 165.554 363.053 166.724 361.97C167.894 360.887 169.411 360.345 171.274 360.345C173.137 360.345 174.654 360.865 175.824 361.905C176.994 362.945 177.579 364.245 177.579 365.805C177.579 367.495 176.994 368.903 175.824 370.03C174.654 371.113 173.137 371.655 171.274 371.655ZM208.96 409.81C207.963 410.547 206.728 411.11 205.255 411.5C203.825 411.847 202.308 412.02 200.705 412.02C196.545 412.02 193.316 410.958 191.02 408.835C188.766 406.712 187.64 403.592 187.64 399.475V385.11H182.245V377.31H187.64V368.795H197.78V377.31H206.49V385.11H197.78V399.345C197.78 400.818 198.148 401.967 198.885 402.79C199.665 403.57 200.748 403.96 202.135 403.96C203.738 403.96 205.103 403.527 206.23 402.66L208.96 409.81ZM236.557 376.01C240.89 376.01 244.379 377.31 247.022 379.91C249.709 382.51 251.052 386.367 251.052 391.48V411.5H240.912V393.04C240.912 390.267 240.305 388.208 239.092 386.865C237.879 385.478 236.124 384.785 233.827 384.785C231.27 384.785 229.234 385.587 227.717 387.19C226.2 388.75 225.442 391.09 225.442 394.21V411.5H215.302V363.27H225.442V380.17C226.785 378.827 228.41 377.808 230.317 377.115C232.224 376.378 234.304 376.01 236.557 376.01ZM324.736 376.01C329.113 376.01 332.58 377.31 335.136 379.91C337.736 382.467 339.036 386.323 339.036 391.48V411.5H328.896V393.04C328.896 390.267 328.311 388.208 327.141 386.865C326.015 385.478 324.39 384.785 322.266 384.785C319.883 384.785 317.998 385.565 316.611 387.125C315.225 388.642 314.531 390.917 314.531 393.95V411.5H304.391V393.04C304.391 387.537 302.181 384.785 297.761 384.785C295.421 384.785 293.558 385.565 292.171 387.125C290.785 388.642 290.091 390.917 290.091 393.95V411.5H279.951V376.53H289.636V380.56C290.936 379.087 292.518 377.96 294.381 377.18C296.288 376.4 298.368 376.01 300.621 376.01C303.091 376.01 305.323 376.508 307.316 377.505C309.31 378.458 310.913 379.867 312.126 381.73C313.556 379.91 315.355 378.502 317.521 377.505C319.731 376.508 322.136 376.01 324.736 376.01ZM382.851 376.53L367.056 413.645C365.452 417.675 363.459 420.513 361.076 422.16C358.736 423.807 355.897 424.63 352.561 424.63C350.741 424.63 348.942 424.348 347.166 423.785C345.389 423.222 343.937 422.442 342.811 421.445L346.516 414.23C347.296 414.923 348.184 415.465 349.181 415.855C350.221 416.245 351.239 416.44 352.236 416.44C353.622 416.44 354.749 416.093 355.616 415.4C356.482 414.75 357.262 413.645 357.956 412.085L358.086 411.76L342.941 376.53H353.406L363.221 400.255L373.101 376.53H382.851ZM441.406 376.53L426.651 411.5H416.186L401.496 376.53H411.961L421.646 400.32L431.656 376.53H441.406ZM446.194 376.53H456.334V411.5H446.194V376.53ZM451.264 371.655C449.401 371.655 447.884 371.113 446.714 370.03C445.544 368.947 444.959 367.603 444.959 366C444.959 364.397 445.544 363.053 446.714 361.97C447.884 360.887 449.401 360.345 451.264 360.345C453.127 360.345 454.644 360.865 455.814 361.905C456.984 362.945 457.569 364.245 457.569 365.805C457.569 367.495 456.984 368.903 455.814 370.03C454.644 371.113 453.127 371.655 451.264 371.655ZM502.015 363.27V411.5H492.33V407.47C489.817 410.503 486.177 412.02 481.41 412.02C478.117 412.02 475.127 411.283 472.44 409.81C469.797 408.337 467.717 406.235 466.2 403.505C464.683 400.775 463.925 397.612 463.925 394.015C463.925 390.418 464.683 387.255 466.2 384.525C467.717 381.795 469.797 379.693 472.44 378.22C475.127 376.747 478.117 376.01 481.41 376.01C485.873 376.01 489.362 377.418 491.875 380.235V363.27H502.015ZM483.165 403.7C485.722 403.7 487.845 402.833 489.535 401.1C491.225 399.323 492.07 396.962 492.07 394.015C492.07 391.068 491.225 388.728 489.535 386.995C487.845 385.218 485.722 384.33 483.165 384.33C480.565 384.33 478.42 385.218 476.73 386.995C475.04 388.728 474.195 391.068 474.195 394.015C474.195 396.962 475.04 399.323 476.73 401.1C478.42 402.833 480.565 403.7 483.165 403.7ZM546.305 394.145C546.305 394.275 546.24 395.185 546.11 396.875H519.655C520.131 399.042 521.258 400.753 523.035 402.01C524.811 403.267 527.021 403.895 529.665 403.895C531.485 403.895 533.088 403.635 534.475 403.115C535.905 402.552 537.226 401.685 538.44 400.515L543.835 406.365C540.541 410.135 535.731 412.02 529.405 412.02C525.461 412.02 521.973 411.262 518.94 409.745C515.906 408.185 513.566 406.04 511.92 403.31C510.273 400.58 509.45 397.482 509.45 394.015C509.45 390.592 510.251 387.515 511.855 384.785C513.501 382.012 515.733 379.867 518.55 378.35C521.41 376.79 524.595 376.01 528.105 376.01C531.528 376.01 534.626 376.747 537.4 378.22C540.173 379.693 542.34 381.817 543.9 384.59C545.503 387.32 546.305 390.505 546.305 394.145ZM528.17 383.68C525.873 383.68 523.945 384.33 522.385 385.63C520.825 386.93 519.871 388.707 519.525 390.96H536.75C536.403 388.75 535.45 386.995 533.89 385.695C532.33 384.352 530.423 383.68 528.17 383.68ZM570.346 412.02C566.662 412.02 563.347 411.262 560.401 409.745C557.497 408.185 555.222 406.04 553.576 403.31C551.929 400.58 551.106 397.482 551.106 394.015C551.106 390.548 551.929 387.45 553.576 384.72C555.222 381.99 557.497 379.867 560.401 378.35C563.347 376.79 566.662 376.01 570.346 376.01C574.029 376.01 577.322 376.79 580.226 378.35C583.129 379.867 585.404 381.99 587.051 384.72C588.697 387.45 589.521 390.548 589.521 394.015C589.521 397.482 588.697 400.58 587.051 403.31C585.404 406.04 583.129 408.185 580.226 409.745C577.322 411.262 574.029 412.02 570.346 412.02ZM570.346 403.7C572.946 403.7 575.069 402.833 576.716 401.1C578.406 399.323 579.251 396.962 579.251 394.015C579.251 391.068 578.406 388.728 576.716 386.995C575.069 385.218 572.946 384.33 570.346 384.33C567.746 384.33 565.601 385.218 563.911 386.995C562.221 388.728 561.376 391.068 561.376 394.015C561.376 396.962 562.221 399.323 563.911 401.1C565.601 402.833 567.746 403.7 570.346 403.7ZM608.713 412.02C605.81 412.02 602.972 411.673 600.198 410.98C597.425 410.243 595.215 409.333 593.568 408.25L596.948 400.97C598.508 401.967 600.393 402.79 602.603 403.44C604.813 404.047 606.98 404.35 609.103 404.35C613.393 404.35 615.538 403.288 615.538 401.165C615.538 400.168 614.953 399.453 613.783 399.02C612.613 398.587 610.815 398.218 608.388 397.915C605.528 397.482 603.167 396.983 601.303 396.42C599.44 395.857 597.815 394.86 596.428 393.43C595.085 392 594.413 389.963 594.413 387.32C594.413 385.11 595.042 383.16 596.298 381.47C597.598 379.737 599.462 378.393 601.888 377.44C604.358 376.487 607.262 376.01 610.598 376.01C613.068 376.01 615.517 376.292 617.943 376.855C620.413 377.375 622.45 378.112 624.053 379.065L620.673 386.28C617.597 384.547 614.238 383.68 610.598 383.68C608.432 383.68 606.807 383.983 605.723 384.59C604.64 385.197 604.098 385.977 604.098 386.93C604.098 388.013 604.683 388.772 605.853 389.205C607.023 389.638 608.887 390.05 611.443 390.44C614.303 390.917 616.643 391.437 618.463 392C620.283 392.52 621.865 393.495 623.208 394.925C624.552 396.355 625.223 398.348 625.223 400.905C625.223 403.072 624.573 405 623.273 406.69C621.973 408.38 620.067 409.702 617.553 410.655C615.083 411.565 612.137 412.02 608.713 412.02Z" fill="#2F2E44"/>
<path d="M117.97 96.49C117.97 96.55 117.94 96.97 117.88 97.75H105.67C105.89 98.75 106.41 99.54 107.23 100.12C108.05 100.7 109.07 100.99 110.29 100.99C111.13 100.99 111.87 100.87 112.51 100.63C113.17 100.37 113.78 99.97 114.34 99.43L116.83 102.13C115.31 103.87 113.09 104.74 110.17 104.74C108.35 104.74 106.74 104.39 105.34 103.69C103.94 102.97 102.86 101.98 102.1 100.72C101.34 99.46 100.96 98.03 100.96 96.43C100.96 94.85 101.33 93.43 102.07 92.17C102.83 90.89 103.86 89.9 105.16 89.2C106.48 88.48 107.95 88.12 109.57 88.12C111.15 88.12 112.58 88.46 113.86 89.14C115.14 89.82 116.14 90.8 116.86 92.08C117.6 93.34 117.97 94.81 117.97 96.49ZM109.6 91.66C108.54 91.66 107.65 91.96 106.93 92.56C106.21 93.16 105.77 93.98 105.61 95.02H113.56C113.4 94 112.96 93.19 112.24 92.59C111.52 91.97 110.64 91.66 109.6 91.66ZM131.196 88.12C133.196 88.12 134.806 88.72 136.026 89.92C137.266 91.12 137.886 92.9 137.886 95.26V104.5H133.206V95.98C133.206 94.7 132.926 93.75 132.366 93.13C131.806 92.49 130.996 92.17 129.936 92.17C128.756 92.17 127.816 92.54 127.116 93.28C126.416 94 126.066 95.08 126.066 96.52V104.5H121.386V88.36H125.856V90.25C126.476 89.57 127.246 89.05 128.166 88.69C129.086 88.31 130.096 88.12 131.196 88.12ZM159.254 88.36V101.8C159.254 104.76 158.484 106.96 156.944 108.4C155.404 109.84 153.154 110.56 150.194 110.56C148.634 110.56 147.154 110.37 145.754 109.99C144.354 109.61 143.194 109.06 142.274 108.34L144.134 104.98C144.814 105.54 145.674 105.98 146.714 106.3C147.754 106.64 148.794 106.81 149.834 106.81C151.454 106.81 152.644 106.44 153.404 105.7C154.184 104.98 154.574 103.88 154.574 102.4V101.71C153.354 103.05 151.654 103.72 149.474 103.72C147.994 103.72 146.634 103.4 145.394 102.76C144.174 102.1 143.204 101.18 142.484 100C141.764 98.82 141.404 97.46 141.404 95.92C141.404 94.38 141.764 93.02 142.484 91.84C143.204 90.66 144.174 89.75 145.394 89.11C146.634 88.45 147.994 88.12 149.474 88.12C151.814 88.12 153.594 88.89 154.814 90.43V88.36H159.254ZM150.404 99.88C151.644 99.88 152.654 99.52 153.434 98.8C154.234 98.06 154.634 97.1 154.634 95.92C154.634 94.74 154.234 93.79 153.434 93.07C152.654 92.33 151.644 91.96 150.404 91.96C149.164 91.96 148.144 92.33 147.344 93.07C146.544 93.79 146.144 94.74 146.144 95.92C146.144 97.1 146.544 98.06 147.344 98.8C148.144 99.52 149.164 99.88 150.404 99.88ZM163.91 82.24H168.59V104.5H163.91V82.24ZM173.233 88.36H177.913V104.5H173.233V88.36ZM175.573 86.11C174.713 86.11 174.013 85.86 173.473 85.36C172.933 84.86 172.663 84.24 172.663 83.5C172.663 82.76 172.933 82.14 173.473 81.64C174.013 81.14 174.713 80.89 175.573 80.89C176.433 80.89 177.133 81.13 177.673 81.61C178.213 82.09 178.483 82.69 178.483 83.41C178.483 84.19 178.213 84.84 177.673 85.36C177.133 85.86 176.433 86.11 175.573 86.11ZM187.986 104.74C186.646 104.74 185.336 104.58 184.056 104.26C182.776 103.92 181.756 103.5 180.996 103L182.556 99.64C183.276 100.1 184.146 100.48 185.166 100.78C186.186 101.06 187.186 101.2 188.166 101.2C190.146 101.2 191.136 100.71 191.136 99.73C191.136 99.27 190.866 98.94 190.326 98.74C189.786 98.54 188.956 98.37 187.836 98.23C186.516 98.03 185.426 97.8 184.566 97.54C183.706 97.28 182.956 96.82 182.316 96.16C181.696 95.5 181.386 94.56 181.386 93.34C181.386 92.32 181.676 91.42 182.256 90.64C182.856 89.84 183.716 89.22 184.836 88.78C185.976 88.34 187.316 88.12 188.856 88.12C189.996 88.12 191.126 88.25 192.246 88.51C193.386 88.75 194.326 89.09 195.066 89.53L193.506 92.86C192.086 92.06 190.536 91.66 188.856 91.66C187.856 91.66 187.106 91.8 186.606 92.08C186.106 92.36 185.856 92.72 185.856 93.16C185.856 93.66 186.126 94.01 186.666 94.21C187.206 94.41 188.066 94.6 189.246 94.78C190.566 95 191.646 95.24 192.486 95.5C193.326 95.74 194.056 96.19 194.676 96.85C195.296 97.51 195.606 98.43 195.606 99.61C195.606 100.61 195.306 101.5 194.706 102.28C194.106 103.06 193.226 103.67 192.066 104.11C190.926 104.53 189.566 104.74 187.986 104.74ZM208.604 88.12C210.604 88.12 212.214 88.72 213.434 89.92C214.674 91.12 215.294 92.9 215.294 95.26V104.5H210.614V95.98C210.614 94.7 210.334 93.75 209.774 93.13C209.214 92.49 208.404 92.17 207.344 92.17C206.164 92.17 205.224 92.54 204.524 93.28C203.824 94 203.474 95.08 203.474 96.52V104.5H198.794V82.24H203.474V90.04C204.094 89.42 204.844 88.95 205.724 88.63C206.604 88.29 207.564 88.12 208.604 88.12ZM229.646 88.12C231.646 88.12 233.256 88.72 234.476 89.92C235.716 91.12 236.336 92.9 236.336 95.26V104.5H231.656V95.98C231.656 94.7 231.376 93.75 230.816 93.13C230.256 92.49 229.446 92.17 228.386 92.17C227.206 92.17 226.266 92.54 225.566 93.28C224.866 94 224.516 95.08 224.516 96.52V104.5H219.836V88.36H224.306V90.25C224.926 89.57 225.696 89.05 226.616 88.69C227.536 88.31 228.546 88.12 229.646 88.12ZM256.864 96.49C256.864 96.55 256.834 96.97 256.774 97.75H244.564C244.784 98.75 245.304 99.54 246.124 100.12C246.944 100.7 247.964 100.99 249.184 100.99C250.024 100.99 250.764 100.87 251.404 100.63C252.064 100.37 252.674 99.97 253.234 99.43L255.724 102.13C254.204 103.87 251.984 104.74 249.064 104.74C247.244 104.74 245.634 104.39 244.234 103.69C242.834 102.97 241.754 101.98 240.994 100.72C240.234 99.46 239.854 98.03 239.854 96.43C239.854 94.85 240.224 93.43 240.964 92.17C241.724 90.89 242.754 89.9 244.054 89.2C245.374 88.48 246.844 88.12 248.464 88.12C250.044 88.12 251.474 88.46 252.754 89.14C254.034 89.82 255.034 90.8 255.754 92.08C256.494 93.34 256.864 94.81 256.864 96.49ZM248.494 91.66C247.434 91.66 246.544 91.96 245.824 92.56C245.104 93.16 244.664 93.98 244.504 95.02H252.454C252.294 94 251.854 93.19 251.134 92.59C250.414 91.97 249.534 91.66 248.494 91.66ZM264.75 90.49C265.31 89.71 266.06 89.12 267 88.72C267.96 88.32 269.06 88.12 270.3 88.12V92.44C269.78 92.4 269.43 92.38 269.25 92.38C267.91 92.38 266.86 92.76 266.1 93.52C265.34 94.26 264.96 95.38 264.96 96.88V104.5H260.28V88.36H264.75V90.49ZM289.676 82.24V104.5H285.206V102.64C284.046 104.04 282.366 104.74 280.166 104.74C278.646 104.74 277.266 104.4 276.026 103.72C274.806 103.04 273.846 102.07 273.146 100.81C272.446 99.55 272.096 98.09 272.096 96.43C272.096 94.77 272.446 93.31 273.146 92.05C273.846 90.79 274.806 89.82 276.026 89.14C277.266 88.46 278.646 88.12 280.166 88.12C282.226 88.12 283.836 88.77 284.996 90.07V82.24H289.676ZM280.976 100.9C282.156 100.9 283.136 100.5 283.916 99.7C284.696 98.88 285.086 97.79 285.086 96.43C285.086 95.07 284.696 93.99 283.916 93.19C283.136 92.37 282.156 91.96 280.976 91.96C279.776 91.96 278.786 92.37 278.006 93.19C277.226 93.99 276.836 95.07 276.836 96.43C276.836 97.79 277.226 98.88 278.006 99.7C278.786 100.5 279.776 100.9 280.976 100.9ZM296.078 104.74C295.258 104.74 294.568 104.46 294.008 103.9C293.448 103.34 293.168 102.64 293.168 101.8C293.168 100.94 293.448 100.25 294.008 99.73C294.568 99.19 295.258 98.92 296.078 98.92C296.898 98.92 297.588 99.19 298.148 99.73C298.708 100.25 298.988 100.94 298.988 101.8C298.988 102.64 298.708 103.34 298.148 103.9C297.588 104.46 296.898 104.74 296.078 104.74ZM309.934 104.74C308.234 104.74 306.704 104.39 305.344 103.69C304.004 102.97 302.954 101.98 302.194 100.72C301.434 99.46 301.054 98.03 301.054 96.43C301.054 94.83 301.434 93.4 302.194 92.14C302.954 90.88 304.004 89.9 305.344 89.2C306.704 88.48 308.234 88.12 309.934 88.12C311.634 88.12 313.154 88.48 314.494 89.2C315.834 89.9 316.884 90.88 317.644 92.14C318.404 93.4 318.784 94.83 318.784 96.43C318.784 98.03 318.404 99.46 317.644 100.72C316.884 101.98 315.834 102.97 314.494 103.69C313.154 104.39 311.634 104.74 309.934 104.74ZM309.934 100.9C311.134 100.9 312.114 100.5 312.874 99.7C313.654 98.88 314.044 97.79 314.044 96.43C314.044 95.07 313.654 93.99 312.874 93.19C312.114 92.37 311.134 91.96 309.934 91.96C308.734 91.96 307.744 92.37 306.964 93.19C306.184 93.99 305.794 95.07 305.794 96.43C305.794 97.79 306.184 98.88 306.964 99.7C307.744 100.5 308.734 100.9 309.934 100.9ZM326.682 90.49C327.242 89.71 327.992 89.12 328.932 88.72C329.892 88.32 330.992 88.12 332.232 88.12V92.44C331.712 92.4 331.362 92.38 331.182 92.38C329.842 92.38 328.792 92.76 328.032 93.52C327.272 94.26 326.892 95.38 326.892 96.88V104.5H322.212V88.36H326.682V90.49ZM351.819 88.36V101.8C351.819 104.76 351.049 106.96 349.509 108.4C347.969 109.84 345.719 110.56 342.759 110.56C341.199 110.56 339.719 110.37 338.319 109.99C336.919 109.61 335.759 109.06 334.839 108.34L336.699 104.98C337.379 105.54 338.239 105.98 339.279 106.3C340.319 106.64 341.359 106.81 342.399 106.81C344.019 106.81 345.209 106.44 345.969 105.7C346.749 104.98 347.139 103.88 347.139 102.4V101.71C345.919 103.05 344.219 103.72 342.039 103.72C340.559 103.72 339.199 103.4 337.959 102.76C336.739 102.1 335.769 101.18 335.049 100C334.329 98.82 333.969 97.46 333.969 95.92C333.969 94.38 334.329 93.02 335.049 91.84C335.769 90.66 336.739 89.75 337.959 89.11C339.199 88.45 340.559 88.12 342.039 88.12C344.379 88.12 346.159 88.89 347.379 90.43V88.36H351.819ZM342.969 99.88C344.209 99.88 345.219 99.52 345.999 98.8C346.799 98.06 347.199 97.1 347.199 95.92C347.199 94.74 346.799 93.79 345.999 93.07C345.219 92.33 344.209 91.96 342.969 91.96C341.729 91.96 340.709 92.33 339.909 93.07C339.109 93.79 338.709 94.74 338.709 95.92C338.709 97.1 339.109 98.06 339.909 98.8C340.709 99.52 341.729 99.88 342.969 99.88Z" fill="#848499"/>
<circle cx="1445" cy="175.5" r="375" fill="#6666FF"/>
<circle cx="1443.5" cy="177" r="262.5" fill="#8080FF"/>
<ellipse cx="1445" cy="175.5" rx="150" ry="150" fill="#9999FF"/>
<circle cx="1445" cy="175.5" r="375" fill="url(#paint0_linear)"/>
<g filter="url(#filter0_d)">
<path d="M1424.85 611.205L1427.36 623.78L1414.8 626.296L1416.68 610.575L1424.85 611.205Z" fill="#FFB8B8"/>
<path d="M1476.28 608.917L1473.43 623.157L1461.73 623.44L1465.47 606.068L1476.28 608.917Z" fill="#FFB8B8"/>
<path d="M1494.94 462.619L1498.2 484.661C1498.2 484.661 1494.94 533.641 1494.12 536.091C1493.31 538.54 1490.86 550.785 1490.86 550.785L1476.99 609.562C1476.99 609.562 1464.99 611.195 1462.55 604.664L1463.13 569.561L1462.31 529.56L1452.53 483.844L1435.4 545.887C1435.4 545.887 1434.58 566.295 1432.14 573.643C1429.69 580.99 1426.43 612.827 1426.43 612.827C1426.43 612.827 1416.06 615.276 1415.24 612.827C1414.43 610.378 1410.12 552.418 1410.12 543.438C1410.12 534.458 1405.32 448.356 1405.32 448.356L1494.94 462.619Z" fill="#2F2E41"/>
<path d="M1465.49 622.345C1466.83 622.621 1468.22 622.621 1469.56 622.345C1471.09 621.835 1469.56 618.776 1469.56 618.776H1475.17C1475.17 618.776 1481.28 632.542 1483.83 633.561C1486.37 634.581 1494.52 645.798 1484.84 645.798C1478.87 645.721 1473.05 643.953 1468.04 640.699C1468.04 640.699 1467.02 636.111 1462.43 635.601C1457.85 635.091 1454.79 629.483 1454.79 629.483L1459.77 620.288C1459.91 620.029 1460.12 619.812 1460.37 619.661C1460.63 619.51 1460.92 619.43 1461.21 619.429C1461.51 619.429 1461.8 619.508 1462.05 619.658C1462.31 619.808 1462.51 620.024 1462.66 620.282C1463.35 621.505 1464.31 622.581 1465.49 622.345Z" fill="#2F2E41"/>
<path d="M1422.86 620.765C1422.86 620.765 1421.72 623.04 1420.59 621.902C1419.64 620.695 1418.87 619.354 1418.31 617.922C1418.31 617.922 1414.91 616.216 1414.34 617.922C1413.77 619.628 1411.5 628.725 1410.36 629.863C1409.23 631 1397.3 642.94 1409.23 645.215C1421.15 647.489 1423.43 642.372 1423.43 642.372C1423.43 642.372 1421.72 639.529 1425.13 638.391C1428.54 637.254 1429.11 633.274 1429.11 633.274L1427.4 620.423C1427.36 620.149 1427.24 619.893 1427.06 619.686C1426.87 619.479 1426.63 619.332 1426.36 619.263C1426.1 619.194 1425.82 619.206 1425.55 619.298C1425.29 619.39 1425.07 619.557 1424.9 619.779C1424.24 620.638 1423.51 621.2 1422.86 620.765Z" fill="#2F2E41"/>
<path d="M1513.7 405.475L1516.14 447.925C1516.14 447.925 1527.56 474.864 1512.06 474.048C1496.57 473.232 1506.36 447.108 1506.36 447.108L1491.18 409.222L1513.7 405.475Z" fill="#FFB8B8"/>
<path d="M1388.1 393.229L1385.65 435.679C1385.65 435.679 1374.23 462.619 1389.73 461.802C1405.22 460.986 1395.44 434.863 1395.44 434.863L1410.61 396.977L1388.1 393.229Z" fill="#FFB8B8"/>
<path d="M1453.34 300.982C1465.05 300.982 1474.55 291.479 1474.55 279.757C1474.55 268.035 1465.05 258.532 1453.34 258.532C1441.63 258.532 1432.14 268.035 1432.14 279.757C1432.14 291.479 1441.63 300.982 1453.34 300.982Z" fill="#FFB8B8"/>
<path d="M1470.06 288.328C1470.06 288.328 1464.35 311.186 1475.77 316.9C1487.19 322.615 1439.89 330.778 1436.62 316.9L1438.26 310.37C1438.26 310.37 1444.78 302.206 1443.15 294.859L1470.06 288.328Z" fill="#FFB8B8"/>
<path d="M1457.42 317.308C1457.42 317.308 1443.35 318.624 1438.97 309.395C1438.97 309.395 1406.04 311.594 1398.7 341.799C1407.22 342.043 1417.79 439.07 1403.82 448.741C1392.49 456.591 1423.38 468.682 1466.39 469.149L1499.02 467.517C1492.93 462.272 1478.38 394.007 1487.6 394.862C1487.6 394.862 1512.06 356.493 1509.62 350.779C1507.17 345.064 1503.25 322.532 1471.77 313.39C1471.77 313.39 1471.29 318.125 1457.42 317.308Z" fill="#E6E6E6"/>
<path d="M1499.02 336.901L1509.62 350.779C1509.62 350.779 1520.22 408.74 1516.96 409.556C1513.7 410.372 1494.12 416.903 1490.86 414.454C1487.6 412.005 1472.92 363.84 1472.92 363.84L1499.02 336.901Z" fill="#E6E6E6"/>
<path d="M1412.56 332.819L1398.7 341.799C1398.7 341.799 1378.31 398.944 1384.02 401.393C1389.73 403.842 1421.54 402.209 1421.54 402.209L1412.56 332.819Z" fill="#E6E6E6"/>
<path d="M1476.52 260.762C1476.52 260.762 1469.18 244.833 1455.1 248.509C1441.02 252.185 1433.06 257.698 1432.45 263.212C1431.84 268.726 1432.76 276.997 1432.76 276.997C1432.76 276.997 1434.29 265.663 1444.08 268.113C1453.88 270.564 1469.18 268.726 1469.18 268.726L1471.62 290.781C1471.62 290.781 1474.38 286.799 1477.44 289.25C1480.5 291.7 1486.31 265.663 1476.52 260.762Z" fill="#2F2E41"/>
<path d="M1327.52 146H842C836.477 146 832 150.477 832 156V459.276C832 464.799 836.477 469.276 842 469.276H1327.52C1333.04 469.276 1337.52 464.799 1337.52 459.276V156C1337.52 150.477 1333.04 146 1327.52 146Z" fill="#E6E6E6"/>
<path d="M1317.92 186.834H852.462C849.7 186.834 847.462 189.073 847.462 191.834V445.446C847.462 448.207 849.7 450.446 852.462 450.446H1317.92C1320.69 450.446 1322.92 448.207 1322.92 445.446V191.834C1322.92 189.073 1320.69 186.834 1317.92 186.834Z" fill="white"/>
<path d="M832 156C832 150.477 836.477 146 842 146H1327.52C1333.04 146 1337.52 150.477 1337.52 156V167.497H832V156Z" fill="#2F2E44"/>
<path d="M848.747 160.939C850.941 160.939 852.719 159.159 852.719 156.964C852.719 154.768 850.941 152.989 848.747 152.989C846.554 152.989 844.776 154.768 844.776 156.964C844.776 159.159 846.554 160.939 848.747 160.939Z" fill="white"/>
<path d="M863.82 160.939C866.013 160.939 867.791 159.159 867.791 156.964C867.791 154.768 866.013 152.989 863.82 152.989C861.627 152.989 859.849 154.768 859.849 156.964C859.849 159.159 861.627 160.939 863.82 160.939Z" fill="white"/>
<path d="M878.892 160.939C881.086 160.939 882.864 159.159 882.864 156.964C882.864 154.768 881.086 152.989 878.892 152.989C876.699 152.989 874.921 154.768 874.921 156.964C874.921 159.159 876.699 160.939 878.892 160.939Z" fill="white"/>
<path d="M1151.99 227.307H892.914C890.153 227.307 887.914 229.545 887.914 232.307V373.806C887.914 376.568 890.153 378.806 892.914 378.806H1151.99C1154.75 378.806 1156.99 376.568 1156.99 373.806V232.307C1156.99 229.545 1154.75 227.307 1151.99 227.307Z" fill="#6C63FF"/>
<path d="M1292 227.307H1199.54C1196.78 227.307 1194.54 229.545 1194.54 232.307V280C1194.54 282.761 1196.78 285 1199.54 285H1292.01C1294.77 285 1297.01 282.761 1297.01 280V232.307C1297.01 229.545 1294.77 227.307 1292 227.307Z" fill="#E6E6E6"/>
<path d="M1292 303.252H1199.54C1196.78 303.252 1194.54 305.491 1194.54 308.252V355.945C1194.54 358.707 1196.78 360.945 1199.54 360.945H1292.01C1294.77 360.945 1297.01 358.707 1297.01 355.945V308.252C1297.01 305.491 1294.77 303.252 1292 303.252Z" fill="#E6E6E6"/>
<path d="M1292 379.197H1199.54C1196.78 379.197 1194.54 381.436 1194.54 384.197V431.89C1194.54 434.652 1196.78 436.89 1199.54 436.89H1292.01C1294.77 436.89 1297.01 434.652 1297.01 431.89V384.197C1297.01 381.436 1294.77 379.197 1292 379.197Z" fill="#E6E6E6"/>
<path d="M1070.8 404.252H890.414C889.034 404.252 887.914 405.371 887.914 406.752V414.279C887.914 415.66 889.034 416.779 890.414 416.779H1070.8C1072.18 416.779 1073.3 415.66 1073.3 414.279V406.752C1073.3 405.371 1072.18 404.252 1070.8 404.252Z" fill="#E6E6E6"/>
<path d="M1051.28 300.926C1052.94 301.889 1052.94 304.293 1051.28 305.255L1003.02 333.144C1001.35 334.107 999.266 332.905 999.266 330.98L999.266 275.202C999.266 273.277 1001.35 272.074 1003.02 273.037L1051.28 300.926Z" fill="white"/>
<path fill-rule="evenodd" clip-rule="evenodd" d="M842 146C841.31 146 840.636 146.07 839.985 146.203C835.428 147.136 832 151.167 832 156V156V167.497V459.276C832 464.799 836.477 469.276 842 469.276H1327.52C1333.04 469.276 1337.52 464.799 1337.52 459.276L1337.52 167.497L1337.52 156C1337.52 150.477 1333.04 146 1327.52 146H842ZM1455.1 248.509C1469.18 244.833 1476.52 260.762 1476.52 260.762C1486.31 265.663 1480.5 291.7 1477.44 289.25C1474.38 286.799 1471.62 290.781 1471.62 290.781L1471.6 290.559C1470.87 291.793 1470.02 292.947 1469.06 294.004C1468.36 299.617 1468.1 308.112 1471.77 313.394L1471.77 313.39C1499.57 321.462 1505.88 339.971 1508.66 348.128C1509.02 349.21 1509.33 350.11 1509.62 350.779C1509.73 351.032 1509.78 351.348 1509.79 351.723C1511.14 359.215 1519.97 408.802 1516.96 409.556C1516.4 409.697 1515.35 410.008 1513.98 410.414L1516.14 447.925C1516.14 447.925 1527.56 474.864 1512.06 474.048C1496.57 473.231 1506.36 447.108 1506.36 447.108L1493.5 415.001C1492.3 415.004 1491.37 414.841 1490.86 414.454C1489.77 413.637 1487.41 407.733 1484.75 400.227C1483.29 416.307 1494.01 463.205 1499.02 467.517L1495.69 467.684L1498.2 484.66C1498.2 484.66 1494.94 533.641 1494.12 536.09C1493.31 538.539 1490.86 550.785 1490.86 550.785L1476.99 609.562C1476.99 609.562 1476.68 609.605 1476.13 609.649L1474.31 618.776H1475.17C1475.17 618.776 1481.28 632.541 1483.83 633.561C1486.37 634.581 1494.52 645.797 1484.84 645.797C1478.87 645.721 1473.05 643.953 1468.04 640.699C1468.04 640.699 1467.02 636.11 1462.43 635.6C1457.85 635.091 1454.79 629.482 1454.79 629.482L1459.77 620.288C1459.91 620.028 1460.12 619.812 1460.37 619.661C1460.63 619.51 1460.92 619.43 1461.21 619.429C1461.51 619.429 1461.8 619.507 1462.05 619.657C1462.21 619.751 1462.35 619.87 1462.47 620.009L1465.1 607.758C1463.97 607.019 1463.05 606.016 1462.55 604.664L1463.13 569.561L1462.31 529.56L1452.53 483.844L1435.4 545.887C1435.4 545.887 1434.58 566.295 1432.14 573.642C1429.69 580.99 1426.43 612.827 1426.43 612.827C1426.43 612.827 1425.97 612.937 1425.23 613.086L1426.47 619.294C1426.69 619.372 1426.9 619.507 1427.06 619.686C1427.24 619.893 1427.36 620.149 1427.4 620.423L1429.11 633.274C1429.11 633.274 1428.54 637.255 1425.13 638.392C1421.72 639.529 1423.43 642.372 1423.43 642.372C1423.43 642.372 1421.15 647.489 1409.23 645.215C1397.3 642.94 1409.23 631 1410.36 629.863C1411.21 629.01 1412.7 623.68 1413.64 620.348C1413.95 619.237 1414.2 618.349 1414.34 617.922C1414.56 617.268 1415.19 617.116 1415.89 617.177L1416.31 613.665C1415.76 613.495 1415.38 613.226 1415.24 612.827C1414.43 610.378 1410.12 552.417 1410.12 543.438C1410.12 536.284 1407.08 480.189 1405.84 457.667C1401.02 454.62 1399.94 451.431 1403.82 448.741C1409.81 444.594 1411.29 424.376 1410.35 402.618C1410.01 402.626 1409.67 402.635 1409.32 402.643L1408.98 402.65L1408.69 402.656L1408.33 402.664L1395.44 434.863C1395.44 434.863 1405.22 460.986 1389.73 461.803C1374.23 462.619 1385.65 435.679 1385.65 435.679L1387.58 402.171C1386.02 401.976 1384.78 401.721 1384.02 401.393C1378.34 398.955 1398.51 342.33 1398.7 341.803L1398.7 341.799C1406.04 311.594 1438.97 309.395 1438.97 309.395C1440.27 307.507 1442.96 303.126 1443.36 298.486C1436.68 294.913 1432.14 287.866 1432.14 279.757C1432.14 278.239 1432.3 276.758 1432.6 275.331C1432.37 272.631 1432.01 267.201 1432.45 263.212C1433.06 257.698 1441.02 252.185 1455.1 248.509Z" fill="url(#paint1_linear)"/>
</g>
</g>
<defs>
<filter id="filter0_d" x="812" y="106" width="749" height="560" filterUnits="userSpaceOnUse" color-interpolation-filters="sRGB">
<feFlood flood-opacity="0" result="BackgroundImageFix"/>
<feColorMatrix in="SourceAlpha" type="matrix" values="0 0 0 0 0 0 0 0 0 0 0 0 0 0 0 0 0 0 127 0"/>
<feOffset dx="10" dy="-10"/>
<feGaussianBlur stdDeviation="15"/>
<feColorMatrix type="matrix" values="0 0 0 0 0.517647 0 0 0 0 0.517647 0 0 0 0 0.6 0 0 0 0.05 0"/>
<feBlend mode="normal" in2="BackgroundImageFix" result="effect1_dropShadow"/>
<feBlend mode="normal" in="SourceGraphic" in2="effect1_dropShadow" result="shape"/>
</filter>
<linearGradient id="paint0_linear" x1="1070" y1="-199.5" x2="1933.99" y2="380.766" gradientUnits="userSpaceOnUse">
<stop stop-color="white" stop-opacity="0.2"/>
<stop offset="1" stop-color="white" stop-opacity="0"/>
</linearGradient>
<linearGradient id="paint1_linear" x1="832" y1="645.797" x2="1473.31" y2="472.32" gradientUnits="userSpaceOnUse">
<stop stop-color="white" stop-opacity="0.2"/>
<stop offset="1" stop-color="white" stop-opacity="0"/>
</linearGradient>
<clipPath id="clip0">
<rect width="1620" height="695" fill="white" transform="translate(0 0.5)"/>
</clipPath>
</defs>
</svg>
