<svg width="695" height="926" viewBox="0 0 695 926" fill="none" xmlns="http://www.w3.org/2000/svg">
<g clip-path="url(#clip0)">
<rect width="926" height="695" transform="translate(0 926) rotate(-90)" fill="white"/>
<circle cx="520" cy="175" r="325" transform="rotate(45 520 175)" fill="#28D3BE"/>
<path fill-rule="evenodd" clip-rule="evenodd" d="M290.19 404.81C417.111 531.73 622.889 531.73 749.81 404.81C876.73 277.889 876.73 72.1108 749.81 -54.8096L290.19 404.81Z" fill="#1DD1BB"/>
<path fill-rule="evenodd" clip-rule="evenodd" d="M749.81 -54.8098C622.889 -181.73 417.111 -181.73 290.19 -54.8098C163.27 72.1106 163.27 277.889 290.19 404.81L749.81 -54.8098Z" fill="#5CD1C3"/>
<circle cx="520" cy="175" r="325" transform="rotate(45 520 175)" fill="url(#paint0_linear)"/>
<g clip-path="url(#clip1)">
<path d="M339.638 162.691L339.669 162.685L335.096 135.949L309.808 143.983L313.591 167.896C312.288 167.072 310.735 166.739 309.208 166.955C307.682 167.171 306.282 167.923 305.258 169.076C304.235 170.229 303.655 171.708 303.622 173.25C303.589 174.791 304.105 176.294 305.078 177.49C306.051 178.686 307.418 179.496 308.934 179.778C310.449 180.059 312.016 179.792 313.353 179.024C314.69 178.257 315.711 177.039 316.233 175.588C316.755 174.138 316.744 172.549 316.202 171.105L316.225 171.102L312.165 145.438L333.432 138.682L337.047 159.817C335.713 159.028 334.14 158.743 332.613 159.014C331.087 159.284 329.708 160.093 328.727 161.293C327.745 162.493 327.226 164.005 327.263 165.554C327.301 167.104 327.892 168.589 328.93 169.741C329.968 170.892 331.384 171.633 332.922 171.83C334.46 172.027 336.017 171.667 337.312 170.814C338.607 169.962 339.553 168.674 339.98 167.183C340.407 165.693 340.285 164.099 339.638 162.691Z" fill="#6C63FF"/>
<path d="M585.732 197.381L585.763 197.384L588.811 170.432L562.286 171.11L559.265 195.132C558.243 193.978 556.843 193.225 555.317 193.007C553.791 192.79 552.237 193.123 550.933 193.945C549.629 194.768 548.661 196.028 548.2 197.499C547.739 198.97 547.817 200.557 548.418 201.977C549.02 203.396 550.107 204.555 551.485 205.247C552.862 205.939 554.441 206.119 555.939 205.754C557.437 205.389 558.756 204.503 559.661 203.255C560.567 202.007 560.998 200.478 560.88 198.941L560.903 198.944L564.145 173.164L586.452 172.594L584.043 193.9C582.981 192.77 581.549 192.059 580.008 191.894C578.467 191.729 576.917 192.122 575.64 193.001C574.364 193.881 573.444 195.188 573.049 196.687C572.653 198.186 572.808 199.777 573.485 201.172C574.161 202.567 575.315 203.673 576.737 204.29C578.159 204.907 579.755 204.995 581.236 204.536C582.717 204.078 583.985 203.104 584.81 201.791C585.634 200.479 585.961 198.914 585.732 197.381Z" fill="#6C63FF"/>
<path d="M374.173 192.105L374.191 192.103L370.933 171.512L369.324 171.766L372.149 189.617C371.138 188.978 369.934 188.72 368.75 188.887C367.567 189.055 366.481 189.638 365.688 190.532C364.894 191.426 364.445 192.573 364.419 193.768C364.394 194.963 364.794 196.128 365.548 197.056C366.303 197.983 367.362 198.612 368.538 198.83C369.713 199.048 370.928 198.841 371.964 198.246C373.001 197.65 373.792 196.706 374.197 195.581C374.602 194.457 374.593 193.225 374.173 192.105Z" fill="#6C63FF"/>
<path d="M526.457 185.253C526.171 184.174 525.534 183.222 524.646 182.545C523.759 181.868 522.672 181.505 521.556 181.514C520.44 181.523 519.358 181.903 518.482 182.594C517.606 183.285 516.984 184.248 516.715 185.332C516.446 186.415 516.545 187.557 516.997 188.577C517.448 189.598 518.226 190.44 519.208 190.969C520.19 191.499 521.321 191.688 522.422 191.504C523.523 191.321 524.531 190.777 525.289 189.958L527.181 207.931L528.801 207.761L526.619 187.028L526.6 187.03C526.659 186.434 526.611 185.832 526.457 185.253Z" fill="#6C63FF"/>
<path d="M420.992 488.93L430.525 503.23L444.825 492.109L435.292 480.191L420.992 488.93Z" fill="#FFB8B8"/>
<path d="M432.367 495.558C432.367 495.558 418.714 496.192 422.562 503.409C426.411 510.627 429.413 551.35 440.398 548.991C451.382 546.631 461.341 534.15 461.219 525.557C461.097 516.965 459.722 513.239 459.722 513.239C459.722 513.239 456.777 507.551 458.738 505.981C460.699 504.41 461.439 494.484 456.769 491.465C452.098 488.446 438.6 484.451 438.6 484.451C438.6 484.451 437.233 496.811 432.367 495.558Z" fill="#2F2E41"/>
<path d="M439.264 522.298L436.086 539.775L452.769 541.364V527.859L439.264 522.298Z" fill="#FFB8B8"/>
<path d="M405.103 285.556C405.103 285.556 396.365 314.95 393.981 332.427C393.981 332.427 346.315 396.777 355.054 424.582C363.793 452.387 389.215 507.998 389.215 507.998C389.215 507.998 432.114 490.52 440.853 480.987L409.076 435.704C409.076 435.704 413.842 430.143 406.692 426.965C399.542 423.788 405.898 419.815 405.898 419.815C405.898 419.815 419.403 374.533 432.909 369.766L479.78 360.233C479.78 360.233 476.603 292.706 465.48 280.789C465.48 280.789 409.87 281.584 405.103 285.556Z" fill="#2F2E41"/>
<path d="M443.236 532.625C443.236 532.625 435.292 521.503 431.32 528.653C427.347 535.803 394.776 560.431 402.72 568.375C410.664 576.319 426.553 577.908 433.703 573.141C440.853 568.375 443.236 565.197 443.236 565.197C443.236 565.197 446.414 559.636 448.797 560.431C451.181 561.225 459.919 556.458 459.919 550.897C459.919 545.336 455.947 531.831 455.947 531.831C455.947 531.831 444.825 537.392 443.236 532.625Z" fill="#2F2E41"/>
<path d="M431.32 364.205L442.442 460.331C442.442 460.331 436.086 487.342 434.497 507.998C432.909 528.653 434.497 527.859 434.497 527.859C434.497 527.859 470.247 542.158 476.603 532.625C482.958 523.092 479.78 360.232 479.78 360.232L460.714 342.755L431.32 364.205Z" fill="#2F2E41"/>
<path d="M411.926 149.606C420.173 130.147 441.167 126.472 441.167 126.472C441.167 126.472 461.381 121.079 478.263 146.762C493.998 170.7 514.289 193.128 488.556 202.683L481.759 188.407L480.943 204.836C477.201 205.616 473.419 206.19 469.615 206.556C441.071 209.455 414.165 214.277 413.666 203.961C413.004 190.249 403.99 168.331 411.926 149.606Z" fill="#2F2E41"/>
<path d="M445.62 187.84C458.343 187.84 468.658 177.525 468.658 164.801C468.658 152.077 458.343 141.763 445.62 141.763C432.896 141.763 422.581 152.077 422.581 164.801C422.581 177.525 432.896 187.84 445.62 187.84Z" fill="#FFB8B8"/>
<path d="M438.867 179.498C438.867 179.498 438.47 202.934 436.086 208.495C433.703 214.056 478.589 204.126 478.589 204.126C478.589 204.126 462.7 193.004 460.317 177.909L438.867 179.498Z" fill="#FFB8B8"/>
<path d="M442.442 198.962L438.103 195.771L407.487 197.373L401.131 267.283C401.131 267.283 382.859 288.733 405.103 288.733C427.347 288.733 448.003 278.405 463.892 285.555C479.78 292.705 493.286 210.084 493.286 210.084L469.535 195.771C469.535 195.771 459.125 208.495 442.442 198.962Z" fill="#575A89"/>
<path d="M416.225 255.367L460.714 264.9V275.228L416.225 276.817C416.225 276.817 411.459 258.545 416.225 255.367Z" fill="#FFB8B8"/>
<path d="M416.225 201.345L407.487 197.373C407.487 197.373 397.159 199.756 396.365 208.495C395.57 217.234 380.476 273.639 392.392 276.022C404.309 278.406 420.198 278.406 420.198 278.406C420.198 278.406 409.87 264.106 422.581 256.161L413.048 251.395C413.048 251.395 403.514 229.945 409.87 218.823C416.225 207.701 416.225 201.345 416.225 201.345Z" fill="#575A89"/>
<path d="M416.589 142.537L437.628 131.516L466.684 136.024L472.695 162.575L457.731 161.999L453.55 152.245V161.838L446.646 161.573L442.638 146.043L440.133 162.575L415.587 162.074L416.589 142.537Z" fill="#2F2E41"/>
<path d="M468.791 169.969C471.131 169.969 473.028 166.649 473.028 162.554C473.028 158.459 471.131 155.14 468.791 155.14C466.451 155.14 464.554 158.459 464.554 162.554C464.554 166.649 466.451 169.969 468.791 169.969Z" fill="#FFB8B8"/>
<path d="M469.198 167.804C470.795 167.804 472.089 166.509 472.089 164.912C472.089 163.315 470.795 162.021 469.198 162.021C467.601 162.021 466.306 163.315 466.306 164.912C466.306 166.509 467.601 167.804 469.198 167.804Z" fill="white"/>
<path d="M470.439 165.887C470.699 165.887 470.91 165.255 470.91 164.477C470.91 163.698 470.699 163.066 470.439 163.066C470.18 163.066 469.969 163.698 469.969 164.477C469.969 165.255 470.18 165.887 470.439 165.887Z" fill="#2F2E41"/>
<path d="M470.365 173.305C470.168 173.305 469.98 173.228 469.842 173.089C469.703 172.95 469.625 172.762 469.625 172.566L468.885 166.647H471.104V172.566C471.104 172.663 471.085 172.759 471.048 172.849C471.011 172.939 470.956 173.02 470.888 173.089C470.819 173.158 470.737 173.212 470.648 173.249C470.558 173.286 470.462 173.305 470.365 173.305Z" fill="white"/>
<path opacity="0.1" d="M412.669 222.899L405.168 255.407H422.672L408.919 252.282L412.669 222.899Z" fill="black"/>
<path d="M503.043 276.601L502.876 276.451L506.983 271.895C507.295 271.549 507.536 271.144 507.691 270.705C507.847 270.265 507.915 269.8 507.891 269.334C507.867 268.869 507.751 268.412 507.55 267.991C507.35 267.571 507.069 267.193 506.722 266.881L497.069 258.181C496.723 257.869 496.319 257.629 495.879 257.473C495.44 257.317 494.974 257.249 494.509 257.273C494.043 257.298 493.587 257.413 493.166 257.614C492.745 257.814 492.368 258.096 492.056 258.442L469.528 283.438C469.216 283.784 468.975 284.188 468.82 284.628C468.664 285.067 468.596 285.533 468.62 285.998C468.644 286.464 468.76 286.92 468.96 287.341C469.161 287.762 469.442 288.139 469.789 288.451L479.442 297.151C479.788 297.463 480.192 297.704 480.632 297.86C481.071 298.016 481.537 298.083 482.002 298.059C482.468 298.035 482.924 297.919 483.345 297.719C483.766 297.518 484.143 297.237 484.455 296.891L499.953 279.694L500.12 279.844L503.043 276.601Z" fill="#3F3D56"/>
<path d="M495.47 272.116C496.733 272.116 497.758 271.092 497.758 269.829C497.758 268.565 496.733 267.541 495.47 267.541C494.206 267.541 493.182 268.565 493.182 269.829C493.182 271.092 494.206 272.116 495.47 272.116Z" fill="#6C63FF"/>
<path d="M479.606 268.449C479.606 268.449 506.688 275.004 500.448 284.349C494.209 293.695 469.574 276.613 469.574 276.613L479.606 268.449Z" fill="#FFB8B8"/>
<path d="M486.136 210.084H493.286C493.286 210.084 501.23 218.823 499.641 226.767C498.052 234.711 493.286 272.05 493.286 272.05C493.286 272.05 469.453 294.294 457.536 282.378C445.62 270.461 454.358 259.339 454.358 259.339C454.358 259.339 470.247 272.05 478.986 255.367L486.136 210.084Z" fill="#575A89"/>
<path d="M479.03 264.248L484.502 210.188C484.502 210.188 495.979 176.059 484.776 175.223C473.572 174.386 472.785 207.563 472.785 207.563L453.271 266.719C453.271 266.719 463.98 277.207 479.03 264.248Z" fill="#FFB8B8"/>
<path fill-rule="evenodd" clip-rule="evenodd" d="M441.167 126.472C441.167 126.472 420.173 130.147 411.926 149.606C406.315 162.845 409.177 177.679 411.57 190.082C412.041 192.523 412.493 194.87 412.86 197.092L407.487 197.373L407.487 197.373C407.487 197.373 397.159 199.756 396.365 208.495C396.189 210.427 395.315 214.687 394.188 220.178C390.217 239.529 383.11 274.166 392.392 276.022C393.348 276.214 394.329 276.389 395.326 276.551C392.954 282.202 392.969 288.403 404.184 288.72C401.878 296.78 395.89 318.427 393.981 332.427C393.981 332.427 346.315 396.776 355.054 424.582C363.793 452.387 389.215 507.997 389.215 507.997C389.215 507.997 408.04 500.328 423.29 492.378L426.184 496.72C423.181 497.766 420.602 499.735 422.562 503.41C423.769 505.672 424.892 511.226 426.204 517.714C427.091 522.104 428.066 526.921 429.21 531.435C427.289 533.613 424.437 536.397 421.283 539.476C410.909 549.603 397.266 562.92 402.72 568.375C410.664 576.319 426.553 577.908 433.703 573.141C440.853 568.374 443.236 565.197 443.236 565.197C443.236 565.197 446.414 559.636 448.797 560.43C451.181 561.225 459.919 556.458 459.919 550.897C459.919 547.477 458.417 541.052 457.26 536.612C457.634 536.057 457.985 535.497 458.312 534.934C466.362 536.435 473.982 536.556 476.603 532.625C482.958 523.092 479.78 360.232 479.78 360.232C479.78 360.232 477.387 309.371 469.484 288.141C469.579 288.25 469.681 288.354 469.789 288.451L479.442 297.151C479.788 297.463 480.192 297.704 480.632 297.859C481.071 298.015 481.537 298.083 482.002 298.059C482.468 298.035 482.924 297.919 483.345 297.719C483.766 297.518 484.143 297.237 484.455 296.89L493.273 287.106C496.338 287.329 498.934 286.617 500.448 284.35C501.678 282.508 501.613 280.776 500.718 279.18L503.043 276.601L502.876 276.451L506.983 271.895C507.295 271.548 507.536 271.144 507.691 270.704C507.847 270.265 507.915 269.799 507.891 269.334C507.867 268.868 507.751 268.412 507.55 267.991C507.35 267.57 507.069 267.193 506.722 266.881L497.069 258.181C496.723 257.869 496.319 257.628 495.879 257.472C495.662 257.395 495.438 257.34 495.21 257.306C496.721 245.932 498.718 231.384 499.641 226.767C501.23 218.823 493.286 210.084 493.286 210.084L485.897 205.631C486.344 204.068 486.853 202.192 487.35 200.15L488.556 202.683C510.923 194.378 498.52 176.348 484.56 156.055L484.56 156.054L484.559 156.054L484.559 156.053L484.558 156.052L484.558 156.051L484.557 156.051L484.556 156.05L484.556 156.049L484.555 156.048L484.554 156.047L484.553 156.045C482.454 152.993 480.32 149.89 478.263 146.762C461.381 121.079 441.167 126.472 441.167 126.472ZM468.616 285.736L468.513 285.749C468.549 285.829 468.584 285.91 468.62 285.991C468.615 285.906 468.614 285.821 468.616 285.736ZM339.638 162.69L339.669 162.685L335.096 135.949L309.808 143.983L313.591 167.896C312.288 167.072 310.735 166.738 309.208 166.954C307.682 167.17 306.282 167.922 305.258 169.075C304.235 170.228 303.655 171.708 303.622 173.249C303.589 174.79 304.105 176.293 305.078 177.489C306.051 178.685 307.418 179.496 308.934 179.777C310.449 180.058 312.016 179.791 313.353 179.024C314.69 178.257 315.711 177.039 316.233 175.588C316.755 174.137 316.744 172.548 316.202 171.105L316.225 171.101L312.165 145.438L333.432 138.682L337.047 159.817C335.713 159.027 334.14 158.742 332.613 159.013C331.087 159.284 329.708 160.092 328.727 161.292C327.745 162.492 327.226 164.004 327.263 165.554C327.301 167.104 327.892 168.589 328.93 169.74C329.968 170.892 331.384 171.633 332.922 171.83C334.46 172.027 336.017 171.666 337.312 170.814C338.607 169.961 339.553 168.673 339.98 167.183C340.407 165.693 340.285 164.099 339.638 162.69ZM585.732 197.38L585.763 197.384L588.811 170.432L562.286 171.11L559.265 195.132C558.243 193.977 556.843 193.225 555.317 193.007C553.791 192.79 552.237 193.122 550.933 193.945C549.629 194.768 548.661 196.027 548.2 197.499C547.739 198.97 547.817 200.557 548.418 201.976C549.02 203.396 550.107 204.555 551.485 205.247C552.862 205.939 554.441 206.119 555.939 205.754C557.437 205.389 558.756 204.503 559.661 203.255C560.567 202.007 560.998 200.478 560.88 198.94L560.903 198.943L564.145 173.164L586.452 172.593L584.043 193.899C582.981 192.77 581.549 192.059 580.008 191.894C578.467 191.729 576.917 192.122 575.64 193.001C574.364 193.881 573.444 195.188 573.049 196.687C572.653 198.186 572.808 199.777 573.485 201.172C574.161 202.567 575.315 203.673 576.737 204.29C578.159 204.907 579.755 204.994 581.236 204.536C582.717 204.077 583.985 203.104 584.81 201.791C585.634 200.478 585.961 198.914 585.732 197.38ZM374.191 192.103L374.173 192.106C374.593 193.225 374.602 194.457 374.197 195.582C373.792 196.707 373.001 197.651 371.964 198.246C370.927 198.841 369.713 199.048 368.538 198.83C367.362 198.612 366.303 197.983 365.548 197.056C364.794 196.129 364.394 194.964 364.419 193.768C364.445 192.573 364.894 191.426 365.688 190.532C366.481 189.638 367.567 189.055 368.75 188.888C369.934 188.72 371.138 188.979 372.149 189.618L369.324 171.767L370.933 171.512L374.191 192.103ZM526.457 185.253C526.171 184.175 525.534 183.222 524.646 182.545C523.759 181.868 522.672 181.506 521.556 181.515C520.44 181.524 519.358 181.904 518.482 182.595C517.606 183.286 516.984 184.249 516.715 185.332C516.446 186.415 516.545 187.557 516.996 188.577C517.448 189.598 518.226 190.44 519.208 190.97C520.19 191.5 521.321 191.688 522.422 191.505C523.522 191.321 524.531 190.777 525.289 189.958L527.181 207.931L528.801 207.761L526.618 187.028L526.6 187.03C526.659 186.434 526.611 185.832 526.457 185.253ZM442.442 460.331C442.442 460.331 440.67 467.861 438.764 478.009L409.075 435.704C409.075 435.704 413.842 430.143 406.692 426.965C399.542 423.787 405.898 419.815 405.898 419.815C405.898 419.815 418.809 376.526 432.007 370.143L442.442 460.331Z" fill="url(#paint1_linear)"/>
</g>
<path d="M122.771 659.6C117.771 659.6 113.871 658.217 111.071 655.45C108.305 652.683 106.921 648.733 106.921 643.6V624H115.021V643.3C115.021 649.567 117.621 652.7 122.821 652.7C125.355 652.7 127.288 651.95 128.621 650.45C129.955 648.917 130.621 646.533 130.621 643.3V624H138.621V643.6C138.621 648.733 137.221 652.683 134.421 655.45C131.655 658.217 127.771 659.6 122.771 659.6ZM155.626 659.4C153.392 659.4 151.209 659.133 149.076 658.6C146.942 658.033 145.242 657.333 143.976 656.5L146.576 650.9C147.776 651.667 149.226 652.3 150.926 652.8C152.626 653.267 154.292 653.5 155.926 653.5C159.226 653.5 160.876 652.683 160.876 651.05C160.876 650.283 160.426 649.733 159.526 649.4C158.626 649.067 157.242 648.783 155.376 648.55C153.176 648.217 151.359 647.833 149.926 647.4C148.492 646.967 147.242 646.2 146.176 645.1C145.142 644 144.626 642.433 144.626 640.4C144.626 638.7 145.109 637.2 146.076 635.9C147.076 634.567 148.509 633.533 150.376 632.8C152.276 632.067 154.509 631.7 157.076 631.7C158.976 631.7 160.859 631.917 162.726 632.35C164.626 632.75 166.192 633.317 167.426 634.05L164.826 639.6C162.459 638.267 159.876 637.6 157.076 637.6C155.409 637.6 154.159 637.833 153.326 638.3C152.492 638.767 152.076 639.367 152.076 640.1C152.076 640.933 152.526 641.517 153.426 641.85C154.326 642.183 155.759 642.5 157.726 642.8C159.926 643.167 161.726 643.567 163.126 644C164.526 644.4 165.742 645.15 166.776 646.25C167.809 647.35 168.326 648.883 168.326 650.85C168.326 652.517 167.826 654 166.826 655.3C165.826 656.6 164.359 657.617 162.426 658.35C160.526 659.05 158.259 659.4 155.626 659.4ZM199.988 645.65C199.988 645.75 199.938 646.45 199.838 647.75H179.488C179.855 649.417 180.721 650.733 182.088 651.7C183.455 652.667 185.155 653.15 187.188 653.15C188.588 653.15 189.821 652.95 190.888 652.55C191.988 652.117 193.005 651.45 193.938 650.55L198.088 655.05C195.555 657.95 191.855 659.4 186.988 659.4C183.955 659.4 181.271 658.817 178.938 657.65C176.605 656.45 174.805 654.8 173.538 652.7C172.271 650.6 171.638 648.217 171.638 645.55C171.638 642.917 172.255 640.55 173.488 638.45C174.755 636.317 176.471 634.667 178.638 633.5C180.838 632.3 183.288 631.7 185.988 631.7C188.621 631.7 191.005 632.267 193.138 633.4C195.271 634.533 196.938 636.167 198.138 638.3C199.371 640.4 199.988 642.85 199.988 645.65ZM186.038 637.6C184.271 637.6 182.788 638.1 181.588 639.1C180.388 640.1 179.655 641.467 179.388 643.2H192.638C192.371 641.5 191.638 640.15 190.438 639.15C189.238 638.117 187.771 637.6 186.038 637.6ZM214.231 632.7H221.131V638.7H214.431V659H206.631V638.7H202.481V632.7H206.631V631.5C206.631 628.433 207.531 626 209.331 624.2C211.164 622.4 213.731 621.5 217.031 621.5C218.198 621.5 219.298 621.633 220.331 621.9C221.398 622.133 222.281 622.483 222.981 622.95L220.931 628.6C220.031 627.967 218.981 627.65 217.781 627.65C215.414 627.65 214.231 628.95 214.231 631.55V632.7ZM252.617 632.1V659H245.217V655.8C244.184 656.967 242.95 657.867 241.517 658.5C240.084 659.1 238.534 659.4 236.867 659.4C233.334 659.4 230.534 658.383 228.467 656.35C226.4 654.317 225.367 651.3 225.367 647.3V632.1H233.167V646.15C233.167 650.483 234.984 652.65 238.617 652.65C240.484 652.65 241.984 652.05 243.117 650.85C244.25 649.617 244.817 647.8 244.817 645.4V632.1H252.617ZM260.343 621.9H268.143V659H260.343V621.9ZM297.992 635.65C298.926 634.35 300.176 633.367 301.742 632.7C303.342 632.033 305.176 631.7 307.242 631.7V638.9C306.376 638.833 305.792 638.8 305.492 638.8C303.259 638.8 301.509 639.433 300.242 640.7C298.976 641.933 298.342 643.8 298.342 646.3V659H290.542V632.1H297.992V635.65ZM338.486 645.65C338.486 645.75 338.436 646.45 338.336 647.75H317.986C318.353 649.417 319.219 650.733 320.586 651.7C321.953 652.667 323.653 653.15 325.686 653.15C327.086 653.15 328.319 652.95 329.386 652.55C330.486 652.117 331.503 651.45 332.436 650.55L336.586 655.05C334.053 657.95 330.353 659.4 325.486 659.4C322.453 659.4 319.769 658.817 317.436 657.65C315.103 656.45 313.303 654.8 312.036 652.7C310.769 650.6 310.136 648.217 310.136 645.55C310.136 642.917 310.753 640.55 311.986 638.45C313.253 636.317 314.969 634.667 317.136 633.5C319.336 632.3 321.786 631.7 324.486 631.7C327.119 631.7 329.503 632.267 331.636 633.4C333.769 634.533 335.436 636.167 336.636 638.3C337.869 640.4 338.486 642.85 338.486 645.65ZM324.536 637.6C322.769 637.6 321.286 638.1 320.086 639.1C318.886 640.1 318.153 641.467 317.886 643.2H331.136C330.869 641.5 330.136 640.15 328.936 639.15C327.736 638.117 326.269 637.6 324.536 637.6ZM357.179 659.4C354.312 659.4 351.729 658.817 349.429 657.65C347.162 656.45 345.379 654.8 344.079 652.7C342.812 650.6 342.179 648.217 342.179 645.55C342.179 642.883 342.812 640.5 344.079 638.4C345.379 636.3 347.162 634.667 349.429 633.5C351.729 632.3 354.312 631.7 357.179 631.7C360.012 631.7 362.479 632.3 364.579 633.5C366.712 634.667 368.262 636.35 369.229 638.55L363.179 641.8C361.779 639.333 359.762 638.1 357.129 638.1C355.096 638.1 353.412 638.767 352.079 640.1C350.746 641.433 350.079 643.25 350.079 645.55C350.079 647.85 350.746 649.667 352.079 651C353.412 652.333 355.096 653 357.129 653C359.796 653 361.812 651.767 363.179 649.3L369.229 652.6C368.262 654.733 366.712 656.4 364.579 657.6C362.479 658.8 360.012 659.4 357.179 659.4ZM386.678 659.4C383.845 659.4 381.295 658.817 379.028 657.65C376.795 656.45 375.045 654.8 373.778 652.7C372.512 650.6 371.878 648.217 371.878 645.55C371.878 642.883 372.512 640.5 373.778 638.4C375.045 636.3 376.795 634.667 379.028 633.5C381.295 632.3 383.845 631.7 386.678 631.7C389.512 631.7 392.045 632.3 394.278 633.5C396.512 634.667 398.262 636.3 399.528 638.4C400.795 640.5 401.428 642.883 401.428 645.55C401.428 648.217 400.795 650.6 399.528 652.7C398.262 654.8 396.512 656.45 394.278 657.65C392.045 658.817 389.512 659.4 386.678 659.4ZM386.678 653C388.678 653 390.312 652.333 391.578 651C392.878 649.633 393.528 647.817 393.528 645.55C393.528 643.283 392.878 641.483 391.578 640.15C390.312 638.783 388.678 638.1 386.678 638.1C384.678 638.1 383.028 638.783 381.728 640.15C380.428 641.483 379.778 643.283 379.778 645.55C379.778 647.817 380.428 649.633 381.728 651C383.028 652.333 384.678 653 386.678 653ZM414.592 635.65C415.525 634.35 416.775 633.367 418.342 632.7C419.942 632.033 421.775 631.7 423.842 631.7V638.9C422.975 638.833 422.392 638.8 422.092 638.8C419.859 638.8 418.109 639.433 416.842 640.7C415.575 641.933 414.942 643.8 414.942 646.3V659H407.142V632.1H414.592V635.65ZM456.136 621.9V659H448.686V655.9C446.752 658.233 443.952 659.4 440.286 659.4C437.752 659.4 435.452 658.833 433.386 657.7C431.352 656.567 429.752 654.95 428.586 652.85C427.419 650.75 426.836 648.317 426.836 645.55C426.836 642.783 427.419 640.35 428.586 638.25C429.752 636.15 431.352 634.533 433.386 633.4C435.452 632.267 437.752 631.7 440.286 631.7C443.719 631.7 446.402 632.783 448.336 634.95V621.9H456.136ZM441.636 653C443.602 653 445.236 652.333 446.536 651C447.836 649.633 448.486 647.817 448.486 645.55C448.486 643.283 447.836 641.483 446.536 640.15C445.236 638.783 443.602 638.1 441.636 638.1C439.636 638.1 437.986 638.783 436.686 640.15C435.386 641.483 434.736 643.283 434.736 645.55C434.736 647.817 435.386 649.633 436.686 651C437.986 652.333 439.636 653 441.636 653ZM472.905 659.4C470.672 659.4 468.488 659.133 466.355 658.6C464.222 658.033 462.522 657.333 461.255 656.5L463.855 650.9C465.055 651.667 466.505 652.3 468.205 652.8C469.905 653.267 471.572 653.5 473.205 653.5C476.505 653.5 478.155 652.683 478.155 651.05C478.155 650.283 477.705 649.733 476.805 649.4C475.905 649.067 474.522 648.783 472.655 648.55C470.455 648.217 468.638 647.833 467.205 647.4C465.772 646.967 464.522 646.2 463.455 645.1C462.422 644 461.905 642.433 461.905 640.4C461.905 638.7 462.388 637.2 463.355 635.9C464.355 634.567 465.788 633.533 467.655 632.8C469.555 632.067 471.788 631.7 474.355 631.7C476.255 631.7 478.138 631.917 480.005 632.35C481.905 632.75 483.472 633.317 484.705 634.05L482.105 639.6C479.738 638.267 477.155 637.6 474.355 637.6C472.688 637.6 471.438 637.833 470.605 638.3C469.772 638.767 469.355 639.367 469.355 640.1C469.355 640.933 469.805 641.517 470.705 641.85C471.605 642.183 473.038 642.5 475.005 642.8C477.205 643.167 479.005 643.567 480.405 644C481.805 644.4 483.022 645.15 484.055 646.25C485.088 647.35 485.605 648.883 485.605 650.85C485.605 652.517 485.105 654 484.105 655.3C483.105 656.6 481.638 657.617 479.705 658.35C477.805 659.05 475.538 659.4 472.905 659.4ZM514.128 632.7H521.028V638.7H514.328V659H506.528V638.7H502.378V632.7H506.528V631.5C506.528 628.433 507.428 626 509.228 624.2C511.061 622.4 513.628 621.5 516.928 621.5C518.094 621.5 519.194 621.633 520.228 621.9C521.294 622.133 522.178 622.483 522.878 622.95L520.828 628.6C519.928 627.967 518.878 627.65 517.678 627.65C515.311 627.65 514.128 628.95 514.128 631.55V632.7ZM537.872 659.4C535.038 659.4 532.488 658.817 530.222 657.65C527.988 656.45 526.238 654.8 524.972 652.7C523.705 650.6 523.072 648.217 523.072 645.55C523.072 642.883 523.705 640.5 524.972 638.4C526.238 636.3 527.988 634.667 530.222 633.5C532.488 632.3 535.038 631.7 537.872 631.7C540.705 631.7 543.238 632.3 545.472 633.5C547.705 634.667 549.455 636.3 550.722 638.4C551.988 640.5 552.622 642.883 552.622 645.55C552.622 648.217 551.988 650.6 550.722 652.7C549.455 654.8 547.705 656.45 545.472 657.65C543.238 658.817 540.705 659.4 537.872 659.4ZM537.872 653C539.872 653 541.505 652.333 542.772 651C544.072 649.633 544.722 647.817 544.722 645.55C544.722 643.283 544.072 641.483 542.772 640.15C541.505 638.783 539.872 638.1 537.872 638.1C535.872 638.1 534.222 638.783 532.922 640.15C531.622 641.483 530.972 643.283 530.972 645.55C530.972 647.817 531.622 649.633 532.922 651C534.222 652.333 535.872 653 537.872 653ZM565.785 635.65C566.719 634.35 567.969 633.367 569.535 632.7C571.135 632.033 572.969 631.7 575.035 631.7V638.9C574.169 638.833 573.585 638.8 573.285 638.8C571.052 638.8 569.302 639.433 568.035 640.7C566.769 641.933 566.135 643.8 566.135 646.3V659H558.335V632.1H565.785V635.65ZM71.5342 693.7C74.0342 693.7 76.3008 694.283 78.3342 695.45C80.4008 696.583 82.0175 698.2 83.1842 700.3C84.3508 702.367 84.9342 704.783 84.9342 707.55C84.9342 710.317 84.3508 712.75 83.1842 714.85C82.0175 716.917 80.4008 718.533 78.3342 719.7C76.3008 720.833 74.0342 721.4 71.5342 721.4C67.8342 721.4 65.0175 720.233 63.0842 717.9V721H55.6342V683.9H63.4342V696.95C65.4008 694.783 68.1008 693.7 71.5342 693.7ZM70.1842 715C72.1842 715 73.8175 714.333 75.0842 713C76.3842 711.633 77.0342 709.817 77.0342 707.55C77.0342 705.283 76.3842 703.483 75.0842 702.15C73.8175 700.783 72.1842 700.1 70.1842 700.1C68.1842 700.1 66.5342 700.783 65.2342 702.15C63.9675 703.483 63.3342 705.283 63.3342 707.55C63.3342 709.817 63.9675 711.633 65.2342 713C66.5342 714.333 68.1842 715 70.1842 715ZM117.006 707.65C117.006 707.75 116.956 708.45 116.856 709.75H96.5057C96.8723 711.417 97.739 712.733 99.1057 713.7C100.472 714.667 102.172 715.15 104.206 715.15C105.606 715.15 106.839 714.95 107.906 714.55C109.006 714.117 110.022 713.45 110.956 712.55L115.106 717.05C112.572 719.95 108.872 721.4 104.006 721.4C100.972 721.4 98.289 720.817 95.9557 719.65C93.6223 718.45 91.8223 716.8 90.5557 714.7C89.289 712.6 88.6557 710.217 88.6557 707.55C88.6557 704.917 89.2723 702.55 90.5057 700.45C91.7723 698.317 93.489 696.667 95.6557 695.5C97.8557 694.3 100.306 693.7 103.006 693.7C105.639 693.7 108.022 694.267 110.156 695.4C112.289 696.533 113.956 698.167 115.156 700.3C116.389 702.4 117.006 704.85 117.006 707.65ZM103.056 699.6C101.289 699.6 99.8057 700.1 98.6057 701.1C97.4057 702.1 96.6723 703.467 96.4057 705.2H109.656C109.389 703.5 108.656 702.15 107.456 701.15C106.256 700.117 104.789 699.6 103.056 699.6ZM131.749 721.4C129.515 721.4 127.332 721.133 125.199 720.6C123.065 720.033 121.365 719.333 120.099 718.5L122.699 712.9C123.899 713.667 125.349 714.3 127.049 714.8C128.749 715.267 130.415 715.5 132.049 715.5C135.349 715.5 136.999 714.683 136.999 713.05C136.999 712.283 136.549 711.733 135.649 711.4C134.749 711.067 133.365 710.783 131.499 710.55C129.299 710.217 127.482 709.833 126.049 709.4C124.615 708.967 123.365 708.2 122.299 707.1C121.265 706 120.749 704.433 120.749 702.4C120.749 700.7 121.232 699.2 122.199 697.9C123.199 696.567 124.632 695.533 126.499 694.8C128.399 694.067 130.632 693.7 133.199 693.7C135.099 693.7 136.982 693.917 138.849 694.35C140.749 694.75 142.315 695.317 143.549 696.05L140.949 701.6C138.582 700.267 135.999 699.6 133.199 699.6C131.532 699.6 130.282 699.833 129.449 700.3C128.615 700.767 128.199 701.367 128.199 702.1C128.199 702.933 128.649 703.517 129.549 703.85C130.449 704.183 131.882 704.5 133.849 704.8C136.049 705.167 137.849 705.567 139.249 706C140.649 706.4 141.865 707.15 142.899 708.25C143.932 709.35 144.449 710.883 144.449 712.85C144.449 714.517 143.949 716 142.949 717.3C141.949 718.6 140.482 719.617 138.549 720.35C136.649 721.05 134.382 721.4 131.749 721.4ZM167.111 719.7C166.344 720.267 165.394 720.7 164.261 721C163.161 721.267 161.994 721.4 160.761 721.4C157.561 721.4 155.078 720.583 153.311 718.95C151.578 717.317 150.711 714.917 150.711 711.75V700.7H146.561V694.7H150.711V688.15H158.511V694.7H165.211V700.7H158.511V711.65C158.511 712.783 158.794 713.667 159.361 714.3C159.961 714.9 160.794 715.2 161.861 715.2C163.094 715.2 164.144 714.867 165.011 714.2L167.111 719.7ZM195.7 721.4C193.466 721.4 191.283 721.133 189.15 720.6C187.016 720.033 185.316 719.333 184.05 718.5L186.65 712.9C187.85 713.667 189.3 714.3 191 714.8C192.7 715.267 194.366 715.5 196 715.5C199.3 715.5 200.95 714.683 200.95 713.05C200.95 712.283 200.5 711.733 199.6 711.4C198.7 711.067 197.316 710.783 195.45 710.55C193.25 710.217 191.433 709.833 190 709.4C188.566 708.967 187.316 708.2 186.25 707.1C185.216 706 184.7 704.433 184.7 702.4C184.7 700.7 185.183 699.2 186.15 697.9C187.15 696.567 188.583 695.533 190.45 694.8C192.35 694.067 194.583 693.7 197.15 693.7C199.05 693.7 200.933 693.917 202.8 694.35C204.7 694.75 206.266 695.317 207.5 696.05L204.9 701.6C202.533 700.267 199.95 699.6 197.15 699.6C195.483 699.6 194.233 699.833 193.4 700.3C192.566 700.767 192.15 701.367 192.15 702.1C192.15 702.933 192.6 703.517 193.5 703.85C194.4 704.183 195.833 704.5 197.8 704.8C200 705.167 201.8 705.567 203.2 706C204.6 706.4 205.816 707.15 206.85 708.25C207.883 709.35 208.4 710.883 208.4 712.85C208.4 714.517 207.9 716 206.9 717.3C205.9 718.6 204.433 719.617 202.5 720.35C200.6 721.05 198.333 721.4 195.7 721.4ZM231.062 719.7C230.296 720.267 229.346 720.7 228.212 721C227.112 721.267 225.946 721.4 224.712 721.4C221.512 721.4 219.029 720.583 217.262 718.95C215.529 717.317 214.662 714.917 214.662 711.75V700.7H210.512V694.7H214.662V688.15H222.462V694.7H229.162V700.7H222.462V711.65C222.462 712.783 222.746 713.667 223.312 714.3C223.912 714.9 224.746 715.2 225.812 715.2C227.046 715.2 228.096 714.867 228.962 714.2L231.062 719.7ZM263.041 694.1V721H255.641V717.8C254.607 718.967 253.374 719.867 251.941 720.5C250.507 721.1 248.957 721.4 247.291 721.4C243.757 721.4 240.957 720.383 238.891 718.35C236.824 716.317 235.791 713.3 235.791 709.3V694.1H243.591V708.15C243.591 712.483 245.407 714.65 249.041 714.65C250.907 714.65 252.407 714.05 253.541 712.85C254.674 711.617 255.241 709.8 255.241 707.4V694.1H263.041ZM298.167 683.9V721H290.717V717.9C288.784 720.233 285.984 721.4 282.317 721.4C279.784 721.4 277.484 720.833 275.417 719.7C273.384 718.567 271.784 716.95 270.617 714.85C269.45 712.75 268.867 710.317 268.867 707.55C268.867 704.783 269.45 702.35 270.617 700.25C271.784 698.15 273.384 696.533 275.417 695.4C277.484 694.267 279.784 693.7 282.317 693.7C285.75 693.7 288.434 694.783 290.367 696.95V683.9H298.167ZM283.667 715C285.634 715 287.267 714.333 288.567 713C289.867 711.633 290.517 709.817 290.517 707.55C290.517 705.283 289.867 703.483 288.567 702.15C287.267 700.783 285.634 700.1 283.667 700.1C281.667 700.1 280.017 700.783 278.717 702.15C277.417 703.483 276.767 705.283 276.767 707.55C276.767 709.817 277.417 711.633 278.717 713C280.017 714.333 281.667 715 283.667 715ZM332.586 694.1L320.436 722.65C319.203 725.75 317.669 727.933 315.836 729.2C314.036 730.467 311.853 731.1 309.286 731.1C307.886 731.1 306.503 730.883 305.136 730.45C303.769 730.017 302.653 729.417 301.786 728.65L304.636 723.1C305.236 723.633 305.919 724.05 306.686 724.35C307.486 724.65 308.269 724.8 309.036 724.8C310.103 724.8 310.969 724.533 311.636 724C312.303 723.5 312.903 722.65 313.436 721.45L313.536 721.2L301.886 694.1H309.936L317.486 712.35L325.086 694.1H332.586ZM377.279 707.65C377.279 707.75 377.229 708.45 377.129 709.75H356.779C357.146 711.417 358.012 712.733 359.379 713.7C360.746 714.667 362.446 715.15 364.479 715.15C365.879 715.15 367.112 714.95 368.179 714.55C369.279 714.117 370.296 713.45 371.229 712.55L375.379 717.05C372.846 719.95 369.146 721.4 364.279 721.4C361.246 721.4 358.562 720.817 356.229 719.65C353.896 718.45 352.096 716.8 350.829 714.7C349.562 712.6 348.929 710.217 348.929 707.55C348.929 704.917 349.546 702.55 350.779 700.45C352.046 698.317 353.762 696.667 355.929 695.5C358.129 694.3 360.579 693.7 363.279 693.7C365.912 693.7 368.296 694.267 370.429 695.4C372.562 696.533 374.229 698.167 375.429 700.3C376.662 702.4 377.279 704.85 377.279 707.65ZM363.329 699.6C361.562 699.6 360.079 700.1 358.879 701.1C357.679 702.1 356.946 703.467 356.679 705.2H369.929C369.662 703.5 368.929 702.15 367.729 701.15C366.529 700.117 365.062 699.6 363.329 699.6ZM399.34 721L393.44 712.75L387.34 721H378.84L389.19 707.45L379.19 694.1H387.94L393.64 701.95L399.49 694.1H407.79L397.79 707.25L408.19 721H399.34ZM428.376 693.7C430.876 693.7 433.143 694.283 435.176 695.45C437.243 696.583 438.859 698.2 440.026 700.3C441.193 702.367 441.776 704.783 441.776 707.55C441.776 710.317 441.193 712.75 440.026 714.85C438.859 716.917 437.243 718.533 435.176 719.7C433.143 720.833 430.876 721.4 428.376 721.4C424.943 721.4 422.243 720.317 420.276 718.15V730.7H412.476V694.1H419.926V697.2C421.859 694.867 424.676 693.7 428.376 693.7ZM427.026 715C429.026 715 430.659 714.333 431.926 713C433.226 711.633 433.876 709.817 433.876 707.55C433.876 705.283 433.226 703.483 431.926 702.15C430.659 700.783 429.026 700.1 427.026 700.1C425.026 700.1 423.376 700.783 422.076 702.15C420.809 703.483 420.176 705.283 420.176 707.55C420.176 709.817 420.809 711.633 422.076 713C423.376 714.333 425.026 715 427.026 715ZM473.847 707.65C473.847 707.75 473.797 708.45 473.697 709.75H453.347C453.714 711.417 454.581 712.733 455.947 713.7C457.314 714.667 459.014 715.15 461.047 715.15C462.447 715.15 463.681 714.95 464.747 714.55C465.847 714.117 466.864 713.45 467.797 712.55L471.947 717.05C469.414 719.95 465.714 721.4 460.847 721.4C457.814 721.4 455.131 720.817 452.797 719.65C450.464 718.45 448.664 716.8 447.397 714.7C446.131 712.6 445.497 710.217 445.497 707.55C445.497 704.917 446.114 702.55 447.347 700.45C448.614 698.317 450.331 696.667 452.497 695.5C454.697 694.3 457.147 693.7 459.847 693.7C462.481 693.7 464.864 694.267 466.997 695.4C469.131 696.533 470.797 698.167 471.997 700.3C473.231 702.4 473.847 704.85 473.847 707.65ZM459.897 699.6C458.131 699.6 456.647 700.1 455.447 701.1C454.247 702.1 453.514 703.467 453.247 705.2H466.497C466.231 703.5 465.497 702.15 464.297 701.15C463.097 700.117 461.631 699.6 459.897 699.6ZM486.99 697.65C487.924 696.35 489.174 695.367 490.74 694.7C492.34 694.033 494.174 693.7 496.24 693.7V700.9C495.374 700.833 494.79 700.8 494.49 700.8C492.257 700.8 490.507 701.433 489.24 702.7C487.974 703.933 487.34 705.8 487.34 708.3V721H479.54V694.1H486.99V697.65ZM501.378 694.1H509.178V721H501.378V694.1ZM505.278 690.35C503.845 690.35 502.678 689.933 501.778 689.1C500.878 688.267 500.428 687.233 500.428 686C500.428 684.767 500.878 683.733 501.778 682.9C502.678 682.067 503.845 681.65 505.278 681.65C506.712 681.65 507.878 682.05 508.778 682.85C509.678 683.65 510.128 684.65 510.128 685.85C510.128 687.15 509.678 688.233 508.778 689.1C507.878 689.933 506.712 690.35 505.278 690.35ZM543.267 707.65C543.267 707.75 543.217 708.45 543.117 709.75H522.767C523.134 711.417 524.001 712.733 525.367 713.7C526.734 714.667 528.434 715.15 530.467 715.15C531.867 715.15 533.101 714.95 534.167 714.55C535.267 714.117 536.284 713.45 537.217 712.55L541.367 717.05C538.834 719.95 535.134 721.4 530.267 721.4C527.234 721.4 524.551 720.817 522.217 719.65C519.884 718.45 518.084 716.8 516.817 714.7C515.551 712.6 514.917 710.217 514.917 707.55C514.917 704.917 515.534 702.55 516.767 700.45C518.034 698.317 519.751 696.667 521.917 695.5C524.117 694.3 526.567 693.7 529.267 693.7C531.901 693.7 534.284 694.267 536.417 695.4C538.551 696.533 540.217 698.167 541.417 700.3C542.651 702.4 543.267 704.85 543.267 707.65ZM529.317 699.6C527.551 699.6 526.067 700.1 524.867 701.1C523.667 702.1 522.934 703.467 522.667 705.2H535.917C535.651 703.5 534.917 702.15 533.717 701.15C532.517 700.117 531.051 699.6 529.317 699.6ZM565.31 693.7C568.644 693.7 571.327 694.7 573.36 696.7C575.427 698.7 576.46 701.667 576.46 705.6V721H568.66V706.8C568.66 704.667 568.194 703.083 567.26 702.05C566.327 700.983 564.977 700.45 563.21 700.45C561.244 700.45 559.677 701.067 558.51 702.3C557.344 703.5 556.76 705.3 556.76 707.7V721H548.96V694.1H556.41V697.25C557.444 696.117 558.727 695.25 560.26 694.65C561.794 694.017 563.477 693.7 565.31 693.7ZM597.324 721.4C594.457 721.4 591.874 720.817 589.574 719.65C587.307 718.45 585.524 716.8 584.224 714.7C582.957 712.6 582.324 710.217 582.324 707.55C582.324 704.883 582.957 702.5 584.224 700.4C585.524 698.3 587.307 696.667 589.574 695.5C591.874 694.3 594.457 693.7 597.324 693.7C600.157 693.7 602.624 694.3 604.724 695.5C606.857 696.667 608.407 698.35 609.374 700.55L603.324 703.8C601.924 701.333 599.907 700.1 597.274 700.1C595.24 700.1 593.557 700.767 592.224 702.1C590.89 703.433 590.224 705.25 590.224 707.55C590.224 709.85 590.89 711.667 592.224 713C593.557 714.333 595.24 715 597.274 715C599.94 715 601.957 713.767 603.324 711.3L609.374 714.6C608.407 716.733 606.857 718.4 604.724 719.6C602.624 720.8 600.157 721.4 597.324 721.4ZM640.373 707.65C640.373 707.75 640.323 708.45 640.223 709.75H619.873C620.24 711.417 621.106 712.733 622.473 713.7C623.84 714.667 625.54 715.15 627.573 715.15C628.973 715.15 630.206 714.95 631.273 714.55C632.373 714.117 633.39 713.45 634.323 712.55L638.473 717.05C635.94 719.95 632.24 721.4 627.373 721.4C624.34 721.4 621.656 720.817 619.323 719.65C616.99 718.45 615.19 716.8 613.923 714.7C612.656 712.6 612.023 710.217 612.023 707.55C612.023 704.917 612.64 702.55 613.873 700.45C615.14 698.317 616.856 696.667 619.023 695.5C621.223 694.3 623.673 693.7 626.373 693.7C629.006 693.7 631.39 694.267 633.523 695.4C635.656 696.533 637.323 698.167 638.523 700.3C639.756 702.4 640.373 704.85 640.373 707.65ZM626.423 699.6C624.656 699.6 623.173 700.1 621.973 701.1C620.773 702.1 620.04 703.467 619.773 705.2H633.023C632.756 703.5 632.023 702.15 630.823 701.15C629.623 700.117 628.156 699.6 626.423 699.6Z" fill="#2F2E44"/>
<path d="M251.975 67.325C251.975 67.375 251.95 67.725 251.9 68.375H241.725C241.908 69.2083 242.342 69.8667 243.025 70.35C243.708 70.8333 244.558 71.075 245.575 71.075C246.275 71.075 246.892 70.975 247.425 70.775C247.975 70.5583 248.483 70.225 248.95 69.775L251.025 72.025C249.758 73.475 247.908 74.2 245.475 74.2C243.958 74.2 242.617 73.9083 241.45 73.325C240.283 72.725 239.383 71.9 238.75 70.85C238.117 69.8 237.8 68.6083 237.8 67.275C237.8 65.9583 238.108 64.775 238.725 63.725C239.358 62.6583 240.217 61.8333 241.3 61.25C242.4 60.65 243.625 60.35 244.975 60.35C246.292 60.35 247.483 60.6333 248.55 61.2C249.617 61.7667 250.45 62.5833 251.05 63.65C251.667 64.7 251.975 65.925 251.975 67.325ZM245 63.3C244.117 63.3 243.375 63.55 242.775 64.05C242.175 64.55 241.808 65.2333 241.675 66.1H248.3C248.167 65.25 247.8 64.575 247.2 64.075C246.6 63.5583 245.867 63.3 245 63.3ZM262.996 60.35C264.663 60.35 266.005 60.85 267.021 61.85C268.055 62.85 268.571 64.3333 268.571 66.3V74H264.671V66.9C264.671 65.8333 264.438 65.0417 263.971 64.525C263.505 63.9917 262.83 63.725 261.946 63.725C260.963 63.725 260.18 64.0333 259.596 64.65C259.013 65.25 258.721 66.15 258.721 67.35V74H254.821V60.55H258.546V62.125C259.063 61.5583 259.705 61.125 260.471 60.825C261.238 60.5083 262.08 60.35 262.996 60.35ZM286.378 60.55V71.75C286.378 74.2167 285.736 76.05 284.453 77.25C283.17 78.45 281.295 79.05 278.828 79.05C277.528 79.05 276.295 78.8917 275.128 78.575C273.961 78.2583 272.995 77.8 272.228 77.2L273.778 74.4C274.345 74.8667 275.061 75.2333 275.928 75.5C276.795 75.7833 277.661 75.925 278.528 75.925C279.878 75.925 280.87 75.6167 281.503 75C282.153 74.4 282.478 73.4833 282.478 72.25V71.675C281.461 72.7917 280.045 73.35 278.228 73.35C276.995 73.35 275.861 73.0833 274.828 72.55C273.811 72 273.003 71.2333 272.403 70.25C271.803 69.2667 271.503 68.1333 271.503 66.85C271.503 65.5667 271.803 64.4333 272.403 63.45C273.003 62.4667 273.811 61.7083 274.828 61.175C275.861 60.625 276.995 60.35 278.228 60.35C280.178 60.35 281.661 60.9917 282.678 62.275V60.55H286.378ZM279.003 70.15C280.036 70.15 280.878 69.85 281.528 69.25C282.195 68.6333 282.528 67.8333 282.528 66.85C282.528 65.8667 282.195 65.075 281.528 64.475C280.878 63.8583 280.036 63.55 279.003 63.55C277.97 63.55 277.12 63.8583 276.453 64.475C275.786 65.075 275.453 65.8667 275.453 66.85C275.453 67.8333 275.786 68.6333 276.453 69.25C277.12 69.85 277.97 70.15 279.003 70.15ZM290.258 55.45H294.158V74H290.258V55.45ZM298.028 60.55H301.928V74H298.028V60.55ZM299.978 58.675C299.261 58.675 298.678 58.4667 298.228 58.05C297.778 57.6333 297.553 57.1167 297.553 56.5C297.553 55.8833 297.778 55.3667 298.228 54.95C298.678 54.5333 299.261 54.325 299.978 54.325C300.694 54.325 301.278 54.525 301.728 54.925C302.178 55.325 302.403 55.825 302.403 56.425C302.403 57.075 302.178 57.6167 301.728 58.05C301.278 58.4667 300.694 58.675 299.978 58.675ZM310.322 74.2C309.205 74.2 308.114 74.0667 307.047 73.8C305.98 73.5167 305.13 73.1667 304.497 72.75L305.797 69.95C306.397 70.3333 307.122 70.65 307.972 70.9C308.822 71.1333 309.655 71.25 310.472 71.25C312.122 71.25 312.947 70.8417 312.947 70.025C312.947 69.6417 312.722 69.3667 312.272 69.2C311.822 69.0333 311.13 68.8917 310.197 68.775C309.097 68.6083 308.189 68.4167 307.472 68.2C306.755 67.9833 306.13 67.6 305.597 67.05C305.08 66.5 304.822 65.7167 304.822 64.7C304.822 63.85 305.064 63.1 305.547 62.45C306.047 61.7833 306.764 61.2667 307.697 60.9C308.647 60.5333 309.764 60.35 311.047 60.35C311.997 60.35 312.939 60.4583 313.872 60.675C314.822 60.875 315.605 61.1583 316.222 61.525L314.922 64.3C313.739 63.6333 312.447 63.3 311.047 63.3C310.214 63.3 309.589 63.4167 309.172 63.65C308.755 63.8833 308.547 64.1833 308.547 64.55C308.547 64.9667 308.772 65.2583 309.222 65.425C309.672 65.5917 310.389 65.75 311.372 65.9C312.472 66.0833 313.372 66.2833 314.072 66.5C314.772 66.7 315.38 67.075 315.897 67.625C316.414 68.175 316.672 68.9417 316.672 69.925C316.672 70.7583 316.422 71.5 315.922 72.15C315.422 72.8 314.689 73.3083 313.722 73.675C312.772 74.025 311.639 74.2 310.322 74.2ZM327.503 60.35C329.17 60.35 330.512 60.85 331.528 61.85C332.562 62.85 333.078 64.3333 333.078 66.3V74H329.178V66.9C329.178 65.8333 328.945 65.0417 328.478 64.525C328.012 63.9917 327.337 63.725 326.453 63.725C325.47 63.725 324.687 64.0333 324.103 64.65C323.52 65.25 323.228 66.15 323.228 67.35V74H319.328V55.45H323.228V61.95C323.745 61.4333 324.37 61.0417 325.103 60.775C325.837 60.4917 326.637 60.35 327.503 60.35ZM345.038 60.35C346.705 60.35 348.047 60.85 349.063 61.85C350.097 62.85 350.613 64.3333 350.613 66.3V74H346.713V66.9C346.713 65.8333 346.48 65.0417 346.013 64.525C345.547 63.9917 344.872 63.725 343.988 63.725C343.005 63.725 342.222 64.0333 341.638 64.65C341.055 65.25 340.763 66.15 340.763 67.35V74H336.863V60.55H340.588V62.125C341.105 61.5583 341.747 61.125 342.513 60.825C343.28 60.5083 344.122 60.35 345.038 60.35ZM367.72 67.325C367.72 67.375 367.695 67.725 367.645 68.375H357.47C357.653 69.2083 358.087 69.8667 358.77 70.35C359.453 70.8333 360.303 71.075 361.32 71.075C362.02 71.075 362.637 70.975 363.17 70.775C363.72 70.5583 364.228 70.225 364.695 69.775L366.77 72.025C365.503 73.475 363.653 74.2 361.22 74.2C359.703 74.2 358.362 73.9083 357.195 73.325C356.028 72.725 355.128 71.9 354.495 70.85C353.862 69.8 353.545 68.6083 353.545 67.275C353.545 65.9583 353.853 64.775 354.47 63.725C355.103 62.6583 355.962 61.8333 357.045 61.25C358.145 60.65 359.37 60.35 360.72 60.35C362.037 60.35 363.228 60.6333 364.295 61.2C365.362 61.7667 366.195 62.5833 366.795 63.65C367.412 64.7 367.72 65.925 367.72 67.325ZM360.745 63.3C359.862 63.3 359.12 63.55 358.52 64.05C357.92 64.55 357.553 65.2333 357.42 66.1H364.045C363.912 65.25 363.545 64.575 362.945 64.075C362.345 63.5583 361.612 63.3 360.745 63.3ZM374.292 62.325C374.758 61.675 375.383 61.1833 376.167 60.85C376.967 60.5167 377.883 60.35 378.917 60.35V63.95C378.483 63.9167 378.192 63.9 378.042 63.9C376.925 63.9 376.05 64.2167 375.417 64.85C374.783 65.4667 374.467 66.4 374.467 67.65V74H370.567V60.55H374.292V62.325ZM395.063 55.45V74H391.338V72.45C390.372 73.6167 388.972 74.2 387.138 74.2C385.872 74.2 384.722 73.9167 383.688 73.35C382.672 72.7833 381.872 71.975 381.288 70.925C380.705 69.875 380.413 68.6583 380.413 67.275C380.413 65.8917 380.705 64.675 381.288 63.625C381.872 62.575 382.672 61.7667 383.688 61.2C384.722 60.6333 385.872 60.35 387.138 60.35C388.855 60.35 390.197 60.8917 391.163 61.975V55.45H395.063ZM387.813 71C388.797 71 389.613 70.6667 390.263 70C390.913 69.3167 391.238 68.4083 391.238 67.275C391.238 66.1417 390.913 65.2417 390.263 64.575C389.613 63.8917 388.797 63.55 387.813 63.55C386.813 63.55 385.988 63.8917 385.338 64.575C384.688 65.2417 384.363 66.1417 384.363 67.275C384.363 68.4083 384.688 69.3167 385.338 70C385.988 70.6667 386.813 71 387.813 71ZM400.398 74.2C399.715 74.2 399.14 73.9667 398.673 73.5C398.206 73.0333 397.973 72.45 397.973 71.75C397.973 71.0333 398.206 70.4583 398.673 70.025C399.14 69.575 399.715 69.35 400.398 69.35C401.081 69.35 401.656 69.575 402.123 70.025C402.59 70.4583 402.823 71.0333 402.823 71.75C402.823 72.45 402.59 73.0333 402.123 73.5C401.656 73.9667 401.081 74.2 400.398 74.2ZM411.945 74.2C410.528 74.2 409.253 73.9083 408.12 73.325C407.003 72.725 406.128 71.9 405.495 70.85C404.862 69.8 404.545 68.6083 404.545 67.275C404.545 65.9417 404.862 64.75 405.495 63.7C406.128 62.65 407.003 61.8333 408.12 61.25C409.253 60.65 410.528 60.35 411.945 60.35C413.362 60.35 414.628 60.65 415.745 61.25C416.862 61.8333 417.737 62.65 418.37 63.7C419.003 64.75 419.32 65.9417 419.32 67.275C419.32 68.6083 419.003 69.8 418.37 70.85C417.737 71.9 416.862 72.725 415.745 73.325C414.628 73.9083 413.362 74.2 411.945 74.2ZM411.945 71C412.945 71 413.762 70.6667 414.395 70C415.045 69.3167 415.37 68.4083 415.37 67.275C415.37 66.1417 415.045 65.2417 414.395 64.575C413.762 63.8917 412.945 63.55 411.945 63.55C410.945 63.55 410.12 63.8917 409.47 64.575C408.82 65.2417 408.495 66.1417 408.495 67.275C408.495 68.4083 408.82 69.3167 409.47 70C410.12 70.6667 410.945 71 411.945 71ZM425.902 62.325C426.369 61.675 426.994 61.1833 427.777 60.85C428.577 60.5167 429.494 60.35 430.527 60.35V63.95C430.094 63.9167 429.802 63.9 429.652 63.9C428.535 63.9 427.66 64.2167 427.027 64.85C426.394 65.4667 426.077 66.4 426.077 67.65V74H422.177V60.55H425.902V62.325ZM446.849 60.55V71.75C446.849 74.2167 446.207 76.05 444.924 77.25C443.64 78.45 441.765 79.05 439.299 79.05C437.999 79.05 436.765 78.8917 435.599 78.575C434.432 78.2583 433.465 77.8 432.699 77.2L434.249 74.4C434.815 74.8667 435.532 75.2333 436.399 75.5C437.265 75.7833 438.132 75.925 438.999 75.925C440.349 75.925 441.34 75.6167 441.974 75C442.624 74.4 442.949 73.4833 442.949 72.25V71.675C441.932 72.7917 440.515 73.35 438.699 73.35C437.465 73.35 436.332 73.0833 435.299 72.55C434.282 72 433.474 71.2333 432.874 70.25C432.274 69.2667 431.974 68.1333 431.974 66.85C431.974 65.5667 432.274 64.4333 432.874 63.45C433.474 62.4667 434.282 61.7083 435.299 61.175C436.332 60.625 437.465 60.35 438.699 60.35C440.649 60.35 442.132 60.9917 443.149 62.275V60.55H446.849ZM439.474 70.15C440.507 70.15 441.349 69.85 441.999 69.25C442.665 68.6333 442.999 67.8333 442.999 66.85C442.999 65.8667 442.665 65.075 441.999 64.475C441.349 63.8583 440.507 63.55 439.474 63.55C438.44 63.55 437.59 63.8583 436.924 64.475C436.257 65.075 435.924 65.8667 435.924 66.85C435.924 67.8333 436.257 68.6333 436.924 69.25C437.59 69.85 438.44 70.15 439.474 70.15Z" fill="white"/>
</g>
<defs>
<linearGradient id="paint0_linear" x1="195" y1="-150" x2="943.795" y2="352.898" gradientUnits="userSpaceOnUse">
<stop stop-color="white" stop-opacity="0.2"/>
<stop offset="1" stop-color="white" stop-opacity="0"/>
</linearGradient>
<linearGradient id="paint1_linear" x1="303.621" y1="575.822" x2="584.472" y2="540.842" gradientUnits="userSpaceOnUse">
<stop stop-color="white" stop-opacity="0.2"/>
<stop offset="1" stop-color="white" stop-opacity="0"/>
</linearGradient>
<clipPath id="clip0">
<rect width="926" height="695" fill="white" transform="translate(0 926) rotate(-90)"/>
</clipPath>
<clipPath id="clip1">
<rect width="290.407" height="450" fill="white" transform="translate(303.621 126)"/>
</clipPath>
</defs>
</svg>
