<svg width="1620" height="696" viewBox="0 0 1620 696" fill="none" xmlns="http://www.w3.org/2000/svg">
<g clip-path="url(#clip0)">
<rect width="1620" height="695" transform="translate(0 0.5)" fill="white"/>
<path d="M127.43 331.28C122.707 331.28 118.438 330.262 114.625 328.225C110.855 326.188 107.887 323.393 105.72 319.84C103.597 316.243 102.535 312.213 102.535 307.75C102.535 303.287 103.597 299.278 105.72 295.725C107.887 292.128 110.855 289.312 114.625 287.275C118.438 285.238 122.707 284.22 127.43 284.22C132.153 284.22 136.4 285.238 140.17 287.275C143.94 289.312 146.908 292.128 149.075 295.725C151.242 299.278 152.325 303.287 152.325 307.75C152.325 312.213 151.242 316.243 149.075 319.84C146.908 323.393 143.94 326.188 140.17 328.225C136.4 330.262 132.153 331.28 127.43 331.28ZM127.43 322.31C130.117 322.31 132.543 321.703 134.71 320.49C136.877 319.233 138.567 317.5 139.78 315.29C141.037 313.08 141.665 310.567 141.665 307.75C141.665 304.933 141.037 302.42 139.78 300.21C138.567 298 136.877 296.288 134.71 295.075C132.543 293.818 130.117 293.19 127.43 293.19C124.743 293.19 122.317 293.818 120.15 295.075C117.983 296.288 116.272 298 115.015 300.21C113.802 302.42 113.195 304.933 113.195 307.75C113.195 310.567 113.802 313.08 115.015 315.29C116.272 317.5 117.983 319.233 120.15 320.49C122.317 321.703 124.743 322.31 127.43 322.31ZM195.404 295.53V330.5H185.784V326.34C184.44 327.857 182.837 329.027 180.974 329.85C179.11 330.63 177.095 331.02 174.929 331.02C170.335 331.02 166.695 329.698 164.009 327.055C161.322 324.412 159.979 320.49 159.979 315.29V295.53H170.119V313.795C170.119 319.428 172.48 322.245 177.204 322.245C179.63 322.245 181.58 321.465 183.054 319.905C184.527 318.302 185.264 315.94 185.264 312.82V295.53H195.404ZM215.133 300.145C216.346 298.455 217.971 297.177 220.008 296.31C222.088 295.443 224.471 295.01 227.158 295.01V304.37C226.031 304.283 225.273 304.24 224.883 304.24C221.979 304.24 219.704 305.063 218.058 306.71C216.411 308.313 215.588 310.74 215.588 313.99V330.5H205.448V295.53H215.133V300.145ZM274.404 295.01C278.737 295.01 282.226 296.31 284.869 298.91C287.556 301.51 288.899 305.367 288.899 310.48V330.5H278.759V312.04C278.759 309.267 278.152 307.208 276.939 305.865C275.726 304.478 273.971 303.785 271.674 303.785C269.117 303.785 267.081 304.587 265.564 306.19C264.047 307.75 263.289 310.09 263.289 313.21V330.5H253.149V282.27H263.289V299.17C264.632 297.827 266.257 296.808 268.164 296.115C270.071 295.378 272.151 295.01 274.404 295.01ZM333.376 313.145C333.376 313.275 333.311 314.185 333.181 315.875H306.726C307.203 318.042 308.33 319.753 310.106 321.01C311.883 322.267 314.093 322.895 316.736 322.895C318.556 322.895 320.16 322.635 321.546 322.115C322.976 321.552 324.298 320.685 325.511 319.515L330.906 325.365C327.613 329.135 322.803 331.02 316.476 331.02C312.533 331.02 309.045 330.262 306.011 328.745C302.978 327.185 300.638 325.04 298.991 322.31C297.345 319.58 296.521 316.482 296.521 313.015C296.521 309.592 297.323 306.515 298.926 303.785C300.573 301.012 302.805 298.867 305.621 297.35C308.481 295.79 311.666 295.01 315.176 295.01C318.6 295.01 321.698 295.747 324.471 297.22C327.245 298.693 329.411 300.817 330.971 303.59C332.575 306.32 333.376 309.505 333.376 313.145ZM315.241 302.68C312.945 302.68 311.016 303.33 309.456 304.63C307.896 305.93 306.943 307.707 306.596 309.96H323.821C323.475 307.75 322.521 305.995 320.961 304.695C319.401 303.352 317.495 302.68 315.241 302.68ZM340.777 282.27H350.917V330.5H340.777V282.27ZM381.648 295.01C384.898 295.01 387.845 295.768 390.488 297.285C393.175 298.758 395.276 300.86 396.793 303.59C398.31 306.277 399.068 309.418 399.068 313.015C399.068 316.612 398.31 319.775 396.793 322.505C395.276 325.192 393.175 327.293 390.488 328.81C387.845 330.283 384.898 331.02 381.648 331.02C377.185 331.02 373.675 329.612 371.118 326.795V343.11H360.978V295.53H370.663V299.56C373.176 296.527 376.838 295.01 381.648 295.01ZM379.893 322.7C382.493 322.7 384.616 321.833 386.263 320.1C387.953 318.323 388.798 315.962 388.798 313.015C388.798 310.068 387.953 307.728 386.263 305.995C384.616 304.218 382.493 303.33 379.893 303.33C377.293 303.33 375.148 304.218 373.458 305.995C371.811 307.728 370.988 310.068 370.988 313.015C370.988 315.962 371.811 318.323 373.458 320.1C375.148 321.833 377.293 322.7 379.893 322.7ZM417.621 296.31H426.591V304.11H417.881V330.5H407.741V304.11H402.346V296.31H407.741V294.75C407.741 290.763 408.911 287.6 411.251 285.26C413.634 282.92 416.971 281.75 421.261 281.75C422.778 281.75 424.208 281.923 425.551 282.27C426.938 282.573 428.086 283.028 428.996 283.635L426.331 290.98C425.161 290.157 423.796 289.745 422.236 289.745C419.159 289.745 417.621 291.435 417.621 294.815V296.31ZM467.523 295.53V330.5H457.903V326.34C456.559 327.857 454.956 329.027 453.093 329.85C451.229 330.63 449.214 331.02 447.048 331.02C442.454 331.02 438.814 329.698 436.128 327.055C433.441 324.412 432.098 320.49 432.098 315.29V295.53H442.238V313.795C442.238 319.428 444.599 322.245 449.323 322.245C451.749 322.245 453.699 321.465 455.173 319.905C456.646 318.302 457.383 315.94 457.383 312.82V295.53H467.523ZM477.567 282.27H487.707V330.5H477.567V282.27ZM516.826 282.27H526.966V330.5H516.826V282.27ZM537.026 295.53H547.166V330.5H537.026V295.53ZM542.096 290.655C540.233 290.655 538.716 290.113 537.546 289.03C536.376 287.947 535.791 286.603 535.791 285C535.791 283.397 536.376 282.053 537.546 280.97C538.716 279.887 540.233 279.345 542.096 279.345C543.96 279.345 545.476 279.865 546.646 280.905C547.816 281.945 548.401 283.245 548.401 284.805C548.401 286.495 547.816 287.903 546.646 289.03C545.476 290.113 543.96 290.655 542.096 290.655ZM577.897 295.01C581.147 295.01 584.094 295.768 586.737 297.285C589.424 298.758 591.526 300.86 593.042 303.59C594.559 306.277 595.317 309.418 595.317 313.015C595.317 316.612 594.559 319.775 593.042 322.505C591.526 325.192 589.424 327.293 586.737 328.81C584.094 330.283 581.147 331.02 577.897 331.02C573.087 331.02 569.426 329.503 566.912 326.47V330.5H557.227V282.27H567.367V299.235C569.924 296.418 573.434 295.01 577.897 295.01ZM576.142 322.7C578.742 322.7 580.866 321.833 582.512 320.1C584.202 318.323 585.047 315.962 585.047 313.015C585.047 310.068 584.202 307.728 582.512 305.995C580.866 304.218 578.742 303.33 576.142 303.33C573.542 303.33 571.397 304.218 569.707 305.995C568.061 307.728 567.237 310.068 567.237 313.015C567.237 315.962 568.061 318.323 569.707 320.1C571.397 321.833 573.542 322.7 576.142 322.7ZM612.44 300.145C613.654 298.455 615.279 297.177 617.315 296.31C619.395 295.443 621.779 295.01 624.465 295.01V304.37C623.339 304.283 622.58 304.24 622.19 304.24C619.287 304.24 617.012 305.063 615.365 306.71C613.719 308.313 612.895 310.74 612.895 313.99V330.5H602.755V295.53H612.44V300.145ZM645.059 295.01C650.476 295.01 654.636 296.31 657.539 298.91C660.442 301.467 661.894 305.345 661.894 310.545V330.5H652.404V326.145C650.497 329.395 646.944 331.02 641.744 331.02C639.057 331.02 636.717 330.565 634.724 329.655C632.774 328.745 631.279 327.488 630.239 325.885C629.199 324.282 628.679 322.462 628.679 320.425C628.679 317.175 629.892 314.618 632.319 312.755C634.789 310.892 638.581 309.96 643.694 309.96H651.754C651.754 307.75 651.082 306.06 649.739 304.89C648.396 303.677 646.381 303.07 643.694 303.07C641.831 303.07 639.989 303.373 638.169 303.98C636.392 304.543 634.876 305.323 633.619 306.32L629.979 299.235C631.886 297.892 634.161 296.852 636.804 296.115C639.491 295.378 642.242 295.01 645.059 295.01ZM644.279 324.195C646.012 324.195 647.551 323.805 648.894 323.025C650.237 322.202 651.191 321.01 651.754 319.45V315.875H644.799C640.639 315.875 638.559 317.24 638.559 319.97C638.559 321.27 639.057 322.31 640.054 323.09C641.094 323.827 642.502 324.195 644.279 324.195ZM681.406 300.145C682.62 298.455 684.245 297.177 686.281 296.31C688.361 295.443 690.745 295.01 693.431 295.01V304.37C692.305 304.283 691.546 304.24 691.156 304.24C688.253 304.24 685.978 305.063 684.331 306.71C682.685 308.313 681.861 310.74 681.861 313.99V330.5H671.721V295.53H681.406V300.145ZM736.027 295.53L720.232 332.645C718.628 336.675 716.635 339.513 714.252 341.16C711.912 342.807 709.073 343.63 705.737 343.63C703.917 343.63 702.118 343.348 700.342 342.785C698.565 342.222 697.113 341.442 695.987 340.445L699.692 333.23C700.472 333.923 701.36 334.465 702.357 334.855C703.397 335.245 704.415 335.44 705.412 335.44C706.798 335.44 707.925 335.093 708.792 334.4C709.658 333.75 710.438 332.645 711.132 331.085L711.262 330.76L696.117 295.53H706.582L716.397 319.255L726.277 295.53H736.027ZM160.84 376.53L148.165 411.5H138.415L130.55 389.79L122.425 411.5H112.675L100.065 376.53H109.62L117.875 400.19L126.455 376.53H135.035L143.355 400.19L151.87 376.53H160.84ZM166.204 376.53H176.344V411.5H166.204V376.53ZM171.274 371.655C169.411 371.655 167.894 371.113 166.724 370.03C165.554 368.947 164.969 367.603 164.969 366C164.969 364.397 165.554 363.053 166.724 361.97C167.894 360.887 169.411 360.345 171.274 360.345C173.137 360.345 174.654 360.865 175.824 361.905C176.994 362.945 177.579 364.245 177.579 365.805C177.579 367.495 176.994 368.903 175.824 370.03C174.654 371.113 173.137 371.655 171.274 371.655ZM208.96 409.81C207.963 410.547 206.728 411.11 205.255 411.5C203.825 411.847 202.308 412.02 200.705 412.02C196.545 412.02 193.316 410.958 191.02 408.835C188.766 406.712 187.64 403.592 187.64 399.475V385.11H182.245V377.31H187.64V368.795H197.78V377.31H206.49V385.11H197.78V399.345C197.78 400.818 198.148 401.967 198.885 402.79C199.665 403.57 200.748 403.96 202.135 403.96C203.738 403.96 205.103 403.527 206.23 402.66L208.96 409.81ZM236.557 376.01C240.89 376.01 244.379 377.31 247.022 379.91C249.709 382.51 251.052 386.367 251.052 391.48V411.5H240.912V393.04C240.912 390.267 240.305 388.208 239.092 386.865C237.879 385.478 236.124 384.785 233.827 384.785C231.27 384.785 229.234 385.587 227.717 387.19C226.2 388.75 225.442 391.09 225.442 394.21V411.5H215.302V363.27H225.442V380.17C226.785 378.827 228.41 377.808 230.317 377.115C232.224 376.378 234.304 376.01 236.557 376.01ZM301.206 376.01C305.54 376.01 309.028 377.31 311.671 379.91C314.358 382.51 315.701 386.367 315.701 391.48V411.5H305.561V393.04C305.561 390.267 304.955 388.208 303.741 386.865C302.528 385.478 300.773 384.785 298.476 384.785C295.92 384.785 293.883 385.587 292.366 387.19C290.85 388.75 290.091 391.09 290.091 394.21V411.5H279.951V363.27H290.091V380.17C291.435 378.827 293.06 377.808 294.966 377.115C296.873 376.378 298.953 376.01 301.206 376.01ZM339.648 376.01C345.065 376.01 349.225 377.31 352.128 379.91C355.031 382.467 356.483 386.345 356.483 391.545V411.5H346.993V407.145C345.086 410.395 341.533 412.02 336.333 412.02C333.646 412.02 331.306 411.565 329.313 410.655C327.363 409.745 325.868 408.488 324.828 406.885C323.788 405.282 323.268 403.462 323.268 401.425C323.268 398.175 324.481 395.618 326.908 393.755C329.378 391.892 333.17 390.96 338.283 390.96H346.343C346.343 388.75 345.671 387.06 344.328 385.89C342.985 384.677 340.97 384.07 338.283 384.07C336.42 384.07 334.578 384.373 332.758 384.98C330.981 385.543 329.465 386.323 328.208 387.32L324.568 380.235C326.475 378.892 328.75 377.852 331.393 377.115C334.08 376.378 336.831 376.01 339.648 376.01ZM338.868 405.195C340.601 405.195 342.14 404.805 343.483 404.025C344.826 403.202 345.78 402.01 346.343 400.45V396.875H339.388C335.228 396.875 333.148 398.24 333.148 400.97C333.148 402.27 333.646 403.31 334.643 404.09C335.683 404.827 337.091 405.195 338.868 405.195ZM387.565 376.01C391.898 376.01 395.387 377.31 398.03 379.91C400.717 382.51 402.06 386.367 402.06 391.48V411.5H391.92V393.04C391.92 390.267 391.313 388.208 390.1 386.865C388.887 385.478 387.132 384.785 384.835 384.785C382.278 384.785 380.242 385.587 378.725 387.19C377.208 388.75 376.45 391.09 376.45 394.21V411.5H366.31V376.53H375.995V380.625C377.338 379.152 379.007 378.025 381 377.245C382.993 376.422 385.182 376.01 387.565 376.01ZM447.902 363.27V411.5H438.217V407.47C435.704 410.503 432.064 412.02 427.297 412.02C424.004 412.02 421.014 411.283 418.327 409.81C415.684 408.337 413.604 406.235 412.087 403.505C410.571 400.775 409.812 397.612 409.812 394.015C409.812 390.418 410.571 387.255 412.087 384.525C413.604 381.795 415.684 379.693 418.327 378.22C421.014 376.747 424.004 376.01 427.297 376.01C431.761 376.01 435.249 377.418 437.762 380.235V363.27H447.902ZM429.052 403.7C431.609 403.7 433.732 402.833 435.422 401.1C437.112 399.323 437.957 396.962 437.957 394.015C437.957 391.068 437.112 388.728 435.422 386.995C433.732 385.218 431.609 384.33 429.052 384.33C426.452 384.33 424.307 385.218 422.617 386.995C420.927 388.728 420.082 391.068 420.082 394.015C420.082 396.962 420.927 399.323 422.617 401.1C424.307 402.833 426.452 403.7 429.052 403.7ZM492.647 376.53L476.852 413.645C475.249 417.675 473.256 420.513 470.872 422.16C468.532 423.807 465.694 424.63 462.357 424.63C460.537 424.63 458.739 424.348 456.962 423.785C455.186 423.222 453.734 422.442 452.607 421.445L456.312 414.23C457.092 414.923 457.981 415.465 458.977 415.855C460.017 416.245 461.036 416.44 462.032 416.44C463.419 416.44 464.546 416.093 465.412 415.4C466.279 414.75 467.059 413.645 467.752 412.085L467.882 411.76L452.737 376.53H463.202L473.017 400.255L482.897 376.53H492.647ZM533.393 412.02C529.666 412.02 526.308 411.262 523.318 409.745C520.371 408.185 518.053 406.04 516.363 403.31C514.716 400.58 513.893 397.482 513.893 394.015C513.893 390.548 514.716 387.45 516.363 384.72C518.053 381.99 520.371 379.867 523.318 378.35C526.308 376.79 529.666 376.01 533.393 376.01C537.076 376.01 540.283 376.79 543.013 378.35C545.786 379.867 547.801 382.055 549.058 384.915L541.193 389.14C539.373 385.933 536.751 384.33 533.328 384.33C530.685 384.33 528.496 385.197 526.763 386.93C525.03 388.663 524.163 391.025 524.163 394.015C524.163 397.005 525.03 399.367 526.763 401.1C528.496 402.833 530.685 403.7 533.328 403.7C536.795 403.7 539.416 402.097 541.193 398.89L549.058 403.18C547.801 405.953 545.786 408.12 543.013 409.68C540.283 411.24 537.076 412.02 533.393 412.02ZM571.742 412.02C568.059 412.02 564.744 411.262 561.797 409.745C558.894 408.185 556.619 406.04 554.972 403.31C553.325 400.58 552.502 397.482 552.502 394.015C552.502 390.548 553.325 387.45 554.972 384.72C556.619 381.99 558.894 379.867 561.797 378.35C564.744 376.79 568.059 376.01 571.742 376.01C575.425 376.01 578.719 376.79 581.622 378.35C584.525 379.867 586.8 381.99 588.447 384.72C590.094 387.45 590.917 390.548 590.917 394.015C590.917 397.482 590.094 400.58 588.447 403.31C586.8 406.04 584.525 408.185 581.622 409.745C578.719 411.262 575.425 412.02 571.742 412.02ZM571.742 403.7C574.342 403.7 576.465 402.833 578.112 401.1C579.802 399.323 580.647 396.962 580.647 394.015C580.647 391.068 579.802 388.728 578.112 386.995C576.465 385.218 574.342 384.33 571.742 384.33C569.142 384.33 566.997 385.218 565.307 386.995C563.617 388.728 562.772 391.068 562.772 394.015C562.772 396.962 563.617 399.323 565.307 401.1C566.997 402.833 569.142 403.7 571.742 403.7ZM619.6 376.01C623.933 376.01 627.422 377.31 630.065 379.91C632.752 382.51 634.095 386.367 634.095 391.48V411.5H623.955V393.04C623.955 390.267 623.348 388.208 622.135 386.865C620.922 385.478 619.167 384.785 616.87 384.785C614.313 384.785 612.277 385.587 610.76 387.19C609.243 388.75 608.485 391.09 608.485 394.21V411.5H598.345V376.53H608.03V380.625C609.373 379.152 611.042 378.025 613.035 377.245C615.028 376.422 617.217 376.01 619.6 376.01ZM666.491 409.81C665.495 410.547 664.26 411.11 662.786 411.5C661.356 411.847 659.84 412.02 658.236 412.02C654.076 412.02 650.848 410.958 648.551 408.835C646.298 406.712 645.171 403.592 645.171 399.475V385.11H639.776V377.31H645.171V368.795H655.311V377.31H664.021V385.11H655.311V399.345C655.311 400.818 655.68 401.967 656.416 402.79C657.196 403.57 658.28 403.96 659.666 403.96C661.27 403.96 662.635 403.527 663.761 402.66L666.491 409.81ZM706.009 394.145C706.009 394.275 705.944 395.185 705.814 396.875H679.359C679.836 399.042 680.963 400.753 682.739 402.01C684.516 403.267 686.726 403.895 689.369 403.895C691.189 403.895 692.793 403.635 694.179 403.115C695.609 402.552 696.931 401.685 698.144 400.515L703.539 406.365C700.246 410.135 695.436 412.02 689.109 412.02C685.166 412.02 681.678 411.262 678.644 409.745C675.611 408.185 673.271 406.04 671.624 403.31C669.978 400.58 669.154 397.482 669.154 394.015C669.154 390.592 669.956 387.515 671.559 384.785C673.206 382.012 675.438 379.867 678.254 378.35C681.114 376.79 684.299 376.01 687.809 376.01C691.233 376.01 694.331 376.747 697.104 378.22C699.878 379.693 702.044 381.817 703.604 384.59C705.208 387.32 706.009 390.505 706.009 394.145ZM687.874 383.68C685.578 383.68 683.649 384.33 682.089 385.63C680.529 386.93 679.576 388.707 679.229 390.96H696.454C696.108 388.75 695.154 386.995 693.594 385.695C692.034 384.352 690.128 383.68 687.874 383.68ZM734.665 376.01C738.998 376.01 742.487 377.31 745.13 379.91C747.817 382.51 749.16 386.367 749.16 391.48V411.5H739.02V393.04C739.02 390.267 738.413 388.208 737.2 386.865C735.987 385.478 734.232 384.785 731.935 384.785C729.378 384.785 727.342 385.587 725.825 387.19C724.308 388.75 723.55 391.09 723.55 394.21V411.5H713.41V376.53H723.095V380.625C724.438 379.152 726.107 378.025 728.1 377.245C730.093 376.422 732.282 376.01 734.665 376.01ZM781.556 409.81C780.56 410.547 779.325 411.11 777.851 411.5C776.421 411.847 774.905 412.02 773.301 412.02C769.141 412.02 765.913 410.958 763.616 408.835C761.363 406.712 760.236 403.592 760.236 399.475V385.11H754.841V377.31H760.236V368.795H770.376V377.31H779.086V385.11H770.376V399.345C770.376 400.818 770.745 401.967 771.481 402.79C772.261 403.57 773.345 403.96 774.731 403.96C776.335 403.96 777.7 403.527 778.826 402.66L781.556 409.81Z" fill="#2F2E44"/>
<path d="M117.97 96.49C117.97 96.55 117.94 96.97 117.88 97.75H105.67C105.89 98.75 106.41 99.54 107.23 100.12C108.05 100.7 109.07 100.99 110.29 100.99C111.13 100.99 111.87 100.87 112.51 100.63C113.17 100.37 113.78 99.97 114.34 99.43L116.83 102.13C115.31 103.87 113.09 104.74 110.17 104.74C108.35 104.74 106.74 104.39 105.34 103.69C103.94 102.97 102.86 101.98 102.1 100.72C101.34 99.46 100.96 98.03 100.96 96.43C100.96 94.85 101.33 93.43 102.07 92.17C102.83 90.89 103.86 89.9 105.16 89.2C106.48 88.48 107.95 88.12 109.57 88.12C111.15 88.12 112.58 88.46 113.86 89.14C115.14 89.82 116.14 90.8 116.86 92.08C117.6 93.34 117.97 94.81 117.97 96.49ZM109.6 91.66C108.54 91.66 107.65 91.96 106.93 92.56C106.21 93.16 105.77 93.98 105.61 95.02H113.56C113.4 94 112.96 93.19 112.24 92.59C111.52 91.97 110.64 91.66 109.6 91.66ZM131.196 88.12C133.196 88.12 134.806 88.72 136.026 89.92C137.266 91.12 137.886 92.9 137.886 95.26V104.5H133.206V95.98C133.206 94.7 132.926 93.75 132.366 93.13C131.806 92.49 130.996 92.17 129.936 92.17C128.756 92.17 127.816 92.54 127.116 93.28C126.416 94 126.066 95.08 126.066 96.52V104.5H121.386V88.36H125.856V90.25C126.476 89.57 127.246 89.05 128.166 88.69C129.086 88.31 130.096 88.12 131.196 88.12ZM159.254 88.36V101.8C159.254 104.76 158.484 106.96 156.944 108.4C155.404 109.84 153.154 110.56 150.194 110.56C148.634 110.56 147.154 110.37 145.754 109.99C144.354 109.61 143.194 109.06 142.274 108.34L144.134 104.98C144.814 105.54 145.674 105.98 146.714 106.3C147.754 106.64 148.794 106.81 149.834 106.81C151.454 106.81 152.644 106.44 153.404 105.7C154.184 104.98 154.574 103.88 154.574 102.4V101.71C153.354 103.05 151.654 103.72 149.474 103.72C147.994 103.72 146.634 103.4 145.394 102.76C144.174 102.1 143.204 101.18 142.484 100C141.764 98.82 141.404 97.46 141.404 95.92C141.404 94.38 141.764 93.02 142.484 91.84C143.204 90.66 144.174 89.75 145.394 89.11C146.634 88.45 147.994 88.12 149.474 88.12C151.814 88.12 153.594 88.89 154.814 90.43V88.36H159.254ZM150.404 99.88C151.644 99.88 152.654 99.52 153.434 98.8C154.234 98.06 154.634 97.1 154.634 95.92C154.634 94.74 154.234 93.79 153.434 93.07C152.654 92.33 151.644 91.96 150.404 91.96C149.164 91.96 148.144 92.33 147.344 93.07C146.544 93.79 146.144 94.74 146.144 95.92C146.144 97.1 146.544 98.06 147.344 98.8C148.144 99.52 149.164 99.88 150.404 99.88ZM163.91 82.24H168.59V104.5H163.91V82.24ZM173.233 88.36H177.913V104.5H173.233V88.36ZM175.573 86.11C174.713 86.11 174.013 85.86 173.473 85.36C172.933 84.86 172.663 84.24 172.663 83.5C172.663 82.76 172.933 82.14 173.473 81.64C174.013 81.14 174.713 80.89 175.573 80.89C176.433 80.89 177.133 81.13 177.673 81.61C178.213 82.09 178.483 82.69 178.483 83.41C178.483 84.19 178.213 84.84 177.673 85.36C177.133 85.86 176.433 86.11 175.573 86.11ZM187.986 104.74C186.646 104.74 185.336 104.58 184.056 104.26C182.776 103.92 181.756 103.5 180.996 103L182.556 99.64C183.276 100.1 184.146 100.48 185.166 100.78C186.186 101.06 187.186 101.2 188.166 101.2C190.146 101.2 191.136 100.71 191.136 99.73C191.136 99.27 190.866 98.94 190.326 98.74C189.786 98.54 188.956 98.37 187.836 98.23C186.516 98.03 185.426 97.8 184.566 97.54C183.706 97.28 182.956 96.82 182.316 96.16C181.696 95.5 181.386 94.56 181.386 93.34C181.386 92.32 181.676 91.42 182.256 90.64C182.856 89.84 183.716 89.22 184.836 88.78C185.976 88.34 187.316 88.12 188.856 88.12C189.996 88.12 191.126 88.25 192.246 88.51C193.386 88.75 194.326 89.09 195.066 89.53L193.506 92.86C192.086 92.06 190.536 91.66 188.856 91.66C187.856 91.66 187.106 91.8 186.606 92.08C186.106 92.36 185.856 92.72 185.856 93.16C185.856 93.66 186.126 94.01 186.666 94.21C187.206 94.41 188.066 94.6 189.246 94.78C190.566 95 191.646 95.24 192.486 95.5C193.326 95.74 194.056 96.19 194.676 96.85C195.296 97.51 195.606 98.43 195.606 99.61C195.606 100.61 195.306 101.5 194.706 102.28C194.106 103.06 193.226 103.67 192.066 104.11C190.926 104.53 189.566 104.74 187.986 104.74ZM208.604 88.12C210.604 88.12 212.214 88.72 213.434 89.92C214.674 91.12 215.294 92.9 215.294 95.26V104.5H210.614V95.98C210.614 94.7 210.334 93.75 209.774 93.13C209.214 92.49 208.404 92.17 207.344 92.17C206.164 92.17 205.224 92.54 204.524 93.28C203.824 94 203.474 95.08 203.474 96.52V104.5H198.794V82.24H203.474V90.04C204.094 89.42 204.844 88.95 205.724 88.63C206.604 88.29 207.564 88.12 208.604 88.12ZM229.646 88.12C231.646 88.12 233.256 88.72 234.476 89.92C235.716 91.12 236.336 92.9 236.336 95.26V104.5H231.656V95.98C231.656 94.7 231.376 93.75 230.816 93.13C230.256 92.49 229.446 92.17 228.386 92.17C227.206 92.17 226.266 92.54 225.566 93.28C224.866 94 224.516 95.08 224.516 96.52V104.5H219.836V88.36H224.306V90.25C224.926 89.57 225.696 89.05 226.616 88.69C227.536 88.31 228.546 88.12 229.646 88.12ZM256.864 96.49C256.864 96.55 256.834 96.97 256.774 97.75H244.564C244.784 98.75 245.304 99.54 246.124 100.12C246.944 100.7 247.964 100.99 249.184 100.99C250.024 100.99 250.764 100.87 251.404 100.63C252.064 100.37 252.674 99.97 253.234 99.43L255.724 102.13C254.204 103.87 251.984 104.74 249.064 104.74C247.244 104.74 245.634 104.39 244.234 103.69C242.834 102.97 241.754 101.98 240.994 100.72C240.234 99.46 239.854 98.03 239.854 96.43C239.854 94.85 240.224 93.43 240.964 92.17C241.724 90.89 242.754 89.9 244.054 89.2C245.374 88.48 246.844 88.12 248.464 88.12C250.044 88.12 251.474 88.46 252.754 89.14C254.034 89.82 255.034 90.8 255.754 92.08C256.494 93.34 256.864 94.81 256.864 96.49ZM248.494 91.66C247.434 91.66 246.544 91.96 245.824 92.56C245.104 93.16 244.664 93.98 244.504 95.02H252.454C252.294 94 251.854 93.19 251.134 92.59C250.414 91.97 249.534 91.66 248.494 91.66ZM264.75 90.49C265.31 89.71 266.06 89.12 267 88.72C267.96 88.32 269.06 88.12 270.3 88.12V92.44C269.78 92.4 269.43 92.38 269.25 92.38C267.91 92.38 266.86 92.76 266.1 93.52C265.34 94.26 264.96 95.38 264.96 96.88V104.5H260.28V88.36H264.75V90.49ZM289.676 82.24V104.5H285.206V102.64C284.046 104.04 282.366 104.74 280.166 104.74C278.646 104.74 277.266 104.4 276.026 103.72C274.806 103.04 273.846 102.07 273.146 100.81C272.446 99.55 272.096 98.09 272.096 96.43C272.096 94.77 272.446 93.31 273.146 92.05C273.846 90.79 274.806 89.82 276.026 89.14C277.266 88.46 278.646 88.12 280.166 88.12C282.226 88.12 283.836 88.77 284.996 90.07V82.24H289.676ZM280.976 100.9C282.156 100.9 283.136 100.5 283.916 99.7C284.696 98.88 285.086 97.79 285.086 96.43C285.086 95.07 284.696 93.99 283.916 93.19C283.136 92.37 282.156 91.96 280.976 91.96C279.776 91.96 278.786 92.37 278.006 93.19C277.226 93.99 276.836 95.07 276.836 96.43C276.836 97.79 277.226 98.88 278.006 99.7C278.786 100.5 279.776 100.9 280.976 100.9ZM296.078 104.74C295.258 104.74 294.568 104.46 294.008 103.9C293.448 103.34 293.168 102.64 293.168 101.8C293.168 100.94 293.448 100.25 294.008 99.73C294.568 99.19 295.258 98.92 296.078 98.92C296.898 98.92 297.588 99.19 298.148 99.73C298.708 100.25 298.988 100.94 298.988 101.8C298.988 102.64 298.708 103.34 298.148 103.9C297.588 104.46 296.898 104.74 296.078 104.74ZM309.934 104.74C308.234 104.74 306.704 104.39 305.344 103.69C304.004 102.97 302.954 101.98 302.194 100.72C301.434 99.46 301.054 98.03 301.054 96.43C301.054 94.83 301.434 93.4 302.194 92.14C302.954 90.88 304.004 89.9 305.344 89.2C306.704 88.48 308.234 88.12 309.934 88.12C311.634 88.12 313.154 88.48 314.494 89.2C315.834 89.9 316.884 90.88 317.644 92.14C318.404 93.4 318.784 94.83 318.784 96.43C318.784 98.03 318.404 99.46 317.644 100.72C316.884 101.98 315.834 102.97 314.494 103.69C313.154 104.39 311.634 104.74 309.934 104.74ZM309.934 100.9C311.134 100.9 312.114 100.5 312.874 99.7C313.654 98.88 314.044 97.79 314.044 96.43C314.044 95.07 313.654 93.99 312.874 93.19C312.114 92.37 311.134 91.96 309.934 91.96C308.734 91.96 307.744 92.37 306.964 93.19C306.184 93.99 305.794 95.07 305.794 96.43C305.794 97.79 306.184 98.88 306.964 99.7C307.744 100.5 308.734 100.9 309.934 100.9ZM326.682 90.49C327.242 89.71 327.992 89.12 328.932 88.72C329.892 88.32 330.992 88.12 332.232 88.12V92.44C331.712 92.4 331.362 92.38 331.182 92.38C329.842 92.38 328.792 92.76 328.032 93.52C327.272 94.26 326.892 95.38 326.892 96.88V104.5H322.212V88.36H326.682V90.49ZM351.819 88.36V101.8C351.819 104.76 351.049 106.96 349.509 108.4C347.969 109.84 345.719 110.56 342.759 110.56C341.199 110.56 339.719 110.37 338.319 109.99C336.919 109.61 335.759 109.06 334.839 108.34L336.699 104.98C337.379 105.54 338.239 105.98 339.279 106.3C340.319 106.64 341.359 106.81 342.399 106.81C344.019 106.81 345.209 106.44 345.969 105.7C346.749 104.98 347.139 103.88 347.139 102.4V101.71C345.919 103.05 344.219 103.72 342.039 103.72C340.559 103.72 339.199 103.4 337.959 102.76C336.739 102.1 335.769 101.18 335.049 100C334.329 98.82 333.969 97.46 333.969 95.92C333.969 94.38 334.329 93.02 335.049 91.84C335.769 90.66 336.739 89.75 337.959 89.11C339.199 88.45 340.559 88.12 342.039 88.12C344.379 88.12 346.159 88.89 347.379 90.43V88.36H351.819ZM342.969 99.88C344.209 99.88 345.219 99.52 345.999 98.8C346.799 98.06 347.199 97.1 347.199 95.92C347.199 94.74 346.799 93.79 345.999 93.07C345.219 92.33 344.209 91.96 342.969 91.96C341.729 91.96 340.709 92.33 339.909 93.07C339.109 93.79 338.709 94.74 338.709 95.92C338.709 97.1 339.109 98.06 339.909 98.8C340.709 99.52 341.729 99.88 342.969 99.88Z" fill="#848499"/>
<circle cx="1337" cy="246.5" r="375" transform="rotate(-45 1337 246.5)" fill="#FF8BA4"/>
<path d="M965.75 193.448L1390.05 617.751C1277.27 633.779 1158.59 598.417 1071.84 511.665C985.083 424.913 949.721 306.23 965.75 193.448Z" fill="#FF99B0"/>
<path d="M965.75 193.448C973.423 139.453 992.876 86.8113 1024.11 39.6723L1543.83 559.394C1496.69 590.625 1444.05 610.077 1390.05 617.75L965.75 193.448Z" fill="#FF8CA6"/>
<path d="M1130.17 -66.3936L1649.89 453.328C1636.24 473.942 1620.33 493.503 1602.16 511.665C1584 529.827 1564.44 545.737 1543.83 559.394L1024.11 39.6724C1037.76 19.0586 1053.67 -0.502851 1071.83 -18.6648C1090 -36.8268 1109.56 -52.7364 1130.17 -66.3936Z" fill="#FF809C"/>
<path d="M1283.95 -124.75L1708.25 299.553C1700.58 353.547 1681.12 406.189 1649.89 453.328L1130.17 -66.3936C1177.31 -97.6243 1229.95 -117.077 1283.95 -124.75Z" fill="#FF7392"/>
<path d="M1708.25 299.553C1724.28 186.77 1688.92 68.0878 1602.17 -18.6646C1515.41 -105.417 1396.73 -140.779 1283.95 -124.75L1708.25 299.553Z" fill="#FF6688"/>
<circle cx="1337" cy="246.5" r="375" transform="rotate(-45 1337 246.5)" fill="url(#paint0_linear)"/>
<g filter="url(#filter0_d)">
<path d="M1379.93 398.92L1376.78 407.953C1376.78 407.953 1357.06 429.782 1371.26 432.793C1385.45 435.804 1387.03 409.458 1387.03 409.458L1390.97 401.931L1379.93 398.92Z" fill="#FFB8B8"/>
<path d="M1402.01 289.773C1402.01 289.773 1397.28 289.02 1395.7 307.086C1394.13 325.152 1393.34 356.767 1393.34 356.767L1375.2 401.178L1398.07 407.953L1409.11 357.52L1402.01 289.773Z" fill="#575A89"/>
<path d="M1391.76 558.5L1389.39 572.802H1410.69L1409.9 558.5H1391.76Z" fill="#FFB8B8"/>
<path d="M1460.36 574.308L1458.79 593.88L1472.98 595.385V572.803L1460.36 574.308Z" fill="#FFB8B8"/>
<path d="M1400.43 371.821L1382.3 471.183L1387.03 561.512H1411.47V479.463L1435.13 437.31L1454.06 490.001L1458.79 578.072L1485.6 573.555L1479.29 487.743C1479.29 487.743 1474.56 373.327 1469.83 371.821C1465.1 370.316 1400.43 371.821 1400.43 371.821Z" fill="#333244"/>
<path d="M1394.13 568.286C1394.13 568.286 1394.13 560.759 1387.82 565.275C1381.51 569.792 1373.62 578.072 1373.62 578.072C1373.62 578.072 1343.66 593.879 1364.95 596.137C1386.24 598.396 1399.65 585.599 1399.65 585.599L1402.01 587.857C1402.01 587.857 1414.63 585.599 1414.63 582.588C1414.54 580.065 1414.27 577.551 1413.84 575.061C1413.84 575.061 1412.18 562.293 1410.25 564.913C1408.32 567.533 1397.28 572.803 1394.13 568.286Z" fill="#333244"/>
<path d="M1473.77 589.362C1473.77 589.362 1459.58 582.588 1456.42 588.61C1453.27 594.631 1450.9 606.675 1450.9 606.675C1450.9 606.675 1440.65 625.494 1458.79 623.988C1476.92 622.483 1476.14 612.697 1476.14 610.439C1476.14 608.181 1475.35 602.912 1476.14 600.653C1476.92 598.395 1473.77 589.362 1473.77 589.362Z" fill="#333244"/>
<path d="M1442.62 260.039C1454.82 260.039 1464.7 250.603 1464.7 238.962C1464.7 227.322 1454.82 217.886 1442.62 217.886C1430.43 217.886 1420.54 227.322 1420.54 238.962C1420.54 250.603 1430.43 260.039 1442.62 260.039Z" fill="#FFB8B8"/>
<path d="M1428.03 249.125L1427.24 276.224L1455.63 273.965V249.125H1428.03Z" fill="#FFB8B8"/>
<path d="M1457.21 260.416C1457.21 260.416 1443.8 268.696 1439.86 270.202C1435.92 271.707 1427.24 264.18 1427.24 264.18C1427.24 264.18 1424.88 265.685 1424.88 267.191C1424.88 268.696 1423.3 274.718 1423.3 274.718L1404.38 334.184L1405.95 376.338C1405.95 376.338 1463.52 381.607 1469.83 374.832C1476.14 368.058 1466.67 270.954 1466.67 270.954L1457.21 260.416Z" fill="#E6E6E6"/>
<path d="M1509.25 439.567C1500.58 444.837 1472.19 451.611 1472.19 451.611C1472.19 451.611 1469.09 387.892 1458 377.843C1446.97 367.839 1428.96 295.719 1445.15 283.178C1445.22 283.114 1445.3 283.053 1445.38 282.998L1455.63 260.416C1455.63 260.416 1457.21 258.157 1460.36 261.168C1462.92 263.778 1465.29 266.544 1467.46 269.448L1467.91 269.621L1489.54 277.728L1480.87 314.613C1480.87 314.613 1517.93 434.298 1509.25 439.567Z" fill="#575A89"/>
<path opacity="0.1" d="M1467.91 269.622L1461.94 290.525L1445.15 283.178C1445.23 283.114 1445.3 283.053 1445.38 282.998L1455.63 260.416C1455.63 260.416 1457.21 258.157 1460.36 261.168C1462.92 263.778 1465.29 266.544 1467.46 269.448L1467.91 269.622Z" fill="black"/>
<path d="M1426.85 263.804L1424.48 289.397L1424.36 290.564L1406.35 454.247C1406.35 454.247 1390.58 448.978 1385.06 442.956C1379.54 436.934 1397.67 369.94 1397.67 369.94L1399.25 285.633C1399.25 285.633 1413.24 276.231 1418.96 271.068C1420.3 269.863 1421.18 268.892 1421.33 268.32C1422.12 265.309 1426.85 263.804 1426.85 263.804Z" fill="#575A89"/>
<path opacity="0.1" d="M1426.85 263.804L1424.48 289.397L1424.36 290.564L1413.05 289.02L1418.96 271.068C1420.3 269.863 1421.18 268.892 1421.33 268.32C1422.12 265.309 1426.85 263.804 1426.85 263.804Z" fill="black"/>
<path d="M1469.04 390.64L1460.36 398.167C1460.36 398.167 1464.31 413.975 1469.04 414.727C1469.04 414.727 1472.19 410.211 1472.98 406.447C1473.77 402.683 1480.87 398.92 1480.87 398.92L1469.04 390.64Z" fill="#FFB8B8"/>
<path d="M1479.29 276.224L1489.54 277.729C1489.54 277.729 1523.45 332.679 1519.51 352.25C1515.56 371.821 1484.02 405.695 1484.02 405.695L1464.31 390.64L1493.48 353.003L1478.5 307.839L1479.29 276.224Z" fill="#575A89"/>
<path d="M1420.49 241.33C1420.49 241.33 1420.49 222.743 1425.22 218.518H1430.9C1430.9 218.518 1437.53 209.225 1446.04 212.604C1454.56 215.984 1468.76 221.898 1467.81 231.192C1466.86 240.485 1463.91 246.49 1463.91 246.49C1463.91 246.49 1462.34 246.49 1458.82 241.438C1454.12 234.687 1464.97 236.791 1450.78 234.256C1436.58 231.722 1428.06 228.342 1426.17 231.722C1424.28 235.101 1420.49 241.33 1420.49 241.33Z" fill="#2F2E41"/>
<path d="M1430.81 219.78C1430.81 219.78 1431.56 214.347 1434.68 213.178L1430.81 219.78Z" fill="#2F2E41"/>
<path d="M1430.79 220.897C1430.79 220.897 1429.22 215.628 1431.58 213.369L1430.79 220.897Z" fill="#2F2E41"/>
<path d="M1338.95 174.5H907.33C901.807 174.5 897.33 178.977 897.33 184.5V438.557C897.33 444.08 901.807 448.557 907.33 448.557H1338.95C1344.47 448.557 1348.95 444.08 1348.95 438.557V184.5C1348.95 178.977 1344.47 174.5 1338.95 174.5Z" fill="#EBEEF2"/>
<path d="M1348.95 195.581V188.052H1335.07V174.5H1329.03V188.052H917.254V174.5H911.216V188.052H897.33V195.581H911.216V427.476H897.33V435.005H911.216V448.557H917.254V435.005H1329.03V448.557H1335.07V435.005H1348.95V427.476H1335.07V195.581H1348.95ZM1329.03 427.476H917.254V195.581H1329.03L1329.03 427.476Z" fill="#D0D4D9"/>
<path d="M1246.04 210.632H1163.04C1160.28 210.632 1158.04 212.87 1158.04 215.632V290.081C1158.04 292.842 1160.28 295.081 1163.04 295.081H1246.04C1248.8 295.081 1251.04 292.842 1251.04 290.081V215.632C1251.04 212.87 1248.8 210.632 1246.04 210.632Z" fill="#C2C6CC"/>
<path d="M1237.97 220.72H1171.11C1169.73 220.72 1168.61 221.839 1168.61 223.22V270.68C1168.61 272.061 1169.73 273.18 1171.11 273.18H1237.97C1239.35 273.18 1240.47 272.061 1240.47 270.68V223.22C1240.47 221.839 1239.35 220.72 1237.97 220.72Z" fill="#6C63FF"/>
<path d="M1207.11 229.341H1186.92C1185.54 229.341 1184.42 230.46 1184.42 231.841V250.891C1184.42 252.272 1185.54 253.391 1186.92 253.391H1207.11C1208.5 253.391 1209.61 252.272 1209.61 250.891V231.841C1209.61 230.46 1208.5 229.341 1207.11 229.341Z" fill="#F2F2F2"/>
<path d="M1196.57 235.355C1195.18 235.355 1194.07 236.475 1194.07 237.855V262.059C1194.07 263.44 1195.18 264.559 1196.57 264.559H1222.16C1223.54 264.559 1224.66 263.44 1224.66 262.059V237.855C1224.66 236.475 1223.54 235.355 1222.16 235.355H1196.57ZM1223.33 260.792C1223.33 262.173 1222.21 263.292 1220.83 263.292H1197.89C1196.51 263.292 1195.39 262.173 1195.39 260.792V239.122C1195.39 237.741 1196.51 236.622 1197.89 236.622H1220.83C1222.21 236.622 1223.33 237.741 1223.33 239.122V260.792Z" fill="#3F3D56"/>
<path d="M1206.64 278.388H1169.52C1168.97 278.388 1168.54 278.827 1168.54 279.37C1168.54 279.912 1168.97 280.352 1169.52 280.352H1206.64C1207.19 280.352 1207.63 279.912 1207.63 279.37C1207.63 278.827 1207.19 278.388 1206.64 278.388Z" fill="#F2F2F2"/>
<path d="M1204.54 219.469C1206.81 219.469 1208.65 217.71 1208.65 215.541C1208.65 213.372 1206.81 211.613 1204.54 211.613C1202.27 211.613 1200.42 213.372 1200.42 215.541C1200.42 217.71 1202.27 219.469 1204.54 219.469Z" fill="#3F3D56"/>
<path d="M1281.12 332.433H1198.11C1195.35 332.433 1193.11 334.671 1193.11 337.433V411.882C1193.11 414.643 1195.35 416.882 1198.11 416.882H1281.12C1283.88 416.882 1286.12 414.643 1286.12 411.882V337.433C1286.12 334.671 1283.88 332.433 1281.12 332.433Z" fill="#C2C6CC"/>
<path d="M1273.05 342.521H1206.18C1204.8 342.521 1203.68 343.641 1203.68 345.021V392.482C1203.68 393.862 1204.8 394.982 1206.18 394.982H1273.05C1274.43 394.982 1275.55 393.862 1275.55 392.482V345.021C1275.55 343.641 1274.43 342.521 1273.05 342.521Z" fill="#6C63FF"/>
<path d="M1241.72 401.171H1204.59C1204.05 401.171 1203.61 401.611 1203.61 402.153C1203.61 402.695 1204.05 403.135 1204.59 403.135H1241.72C1242.26 403.135 1242.7 402.695 1242.7 402.153C1242.7 401.611 1242.26 401.171 1241.72 401.171Z" fill="#F2F2F2"/>
<path d="M1241.72 407.062H1204.59C1204.05 407.062 1203.61 407.502 1203.61 408.044C1203.61 408.587 1204.05 409.026 1204.59 409.026H1241.72C1242.26 409.026 1242.7 408.587 1242.7 408.044C1242.7 407.502 1242.26 407.062 1241.72 407.062Z" fill="#F2F2F2"/>
<path d="M1216.47 376.622C1221.01 376.622 1224.7 373.105 1224.7 368.766C1224.7 364.427 1221.01 360.91 1216.47 360.91C1211.92 360.91 1208.24 364.427 1208.24 368.766C1208.24 373.105 1211.92 376.622 1216.47 376.622Z" fill="#3F3D56"/>
<path d="M1239.62 376.622C1244.16 376.622 1247.85 373.105 1247.85 368.766C1247.85 364.427 1244.16 360.91 1239.62 360.91C1235.07 360.91 1231.39 364.427 1231.39 368.766C1231.39 373.105 1235.07 376.622 1239.62 376.622Z" fill="#F2F2F2"/>
<path d="M1262.76 376.622C1267.31 376.622 1270.99 373.105 1270.99 368.766C1270.99 364.427 1267.31 360.91 1262.76 360.91C1258.22 360.91 1254.53 364.427 1254.53 368.766C1254.53 373.105 1258.22 376.622 1262.76 376.622Z" fill="#FF6584"/>
<path d="M1239.62 341.271C1241.89 341.271 1243.73 339.512 1243.73 337.343C1243.73 335.174 1241.89 333.415 1239.62 333.415C1237.34 333.415 1235.5 335.174 1235.5 337.343C1235.5 339.512 1237.34 341.271 1239.62 341.271Z" fill="#3F3D56"/>
<path d="M1138.78 306.047H1055.78C1053.02 306.047 1050.78 308.285 1050.78 311.047V385.496C1050.78 388.258 1053.02 390.496 1055.78 390.496H1138.78C1141.54 390.496 1143.78 388.258 1143.78 385.496V311.047C1143.78 308.285 1141.54 306.047 1138.78 306.047Z" fill="#C2C6CC"/>
<path d="M1130.71 316.135H1063.85C1062.47 316.135 1061.35 317.254 1061.35 318.635V366.095C1061.35 367.476 1062.47 368.595 1063.85 368.595H1130.71C1132.09 368.595 1133.21 367.476 1133.21 366.095V318.635C1133.21 317.254 1132.09 316.135 1130.71 316.135Z" fill="#6C63FF"/>
<path d="M1092.49 365.152C1102.13 365.152 1109.94 357.695 1109.94 348.496C1109.94 339.298 1102.13 331.841 1092.49 331.841C1082.86 331.841 1075.05 339.298 1075.05 348.496C1075.05 357.695 1082.86 365.152 1092.49 365.152Z" fill="#F2F2F2"/>
<path d="M1097.64 361.343C1093.31 361.343 1089.08 360.119 1085.48 357.824C1081.89 355.53 1079.08 352.268 1077.43 348.452C1075.77 344.637 1075.34 340.438 1076.18 336.387C1077.03 332.337 1079.11 328.616 1082.17 325.695C1085.23 322.775 1089.13 320.786 1093.37 319.98C1097.61 319.175 1102.01 319.588 1106.01 321.169C1110.01 322.749 1113.42 325.426 1115.83 328.86C1118.23 332.294 1119.51 336.331 1119.51 340.461C1119.51 345.998 1117.2 351.305 1113.1 355.22C1109 359.135 1103.44 361.337 1097.64 361.343ZM1097.64 320.338C1093.47 320.338 1089.39 321.519 1085.93 323.73C1082.46 325.941 1079.76 329.084 1078.16 332.761C1076.57 336.438 1076.15 340.484 1076.96 344.387C1077.77 348.29 1079.78 351.876 1082.73 354.69C1085.68 357.504 1089.44 359.421 1093.52 360.197C1097.61 360.974 1101.85 360.575 1105.7 359.052C1109.56 357.529 1112.85 354.95 1115.16 351.641C1117.48 348.332 1118.72 344.441 1118.72 340.461C1118.71 335.126 1116.49 330.011 1112.54 326.239C1108.58 322.466 1103.23 320.344 1097.64 320.338Z" fill="#3F3D56"/>
<path d="M1099.38 379.694H1062.26C1061.71 379.694 1061.27 380.134 1061.27 380.676C1061.27 381.219 1061.71 381.658 1062.26 381.658H1099.38C1099.93 381.658 1100.37 381.219 1100.37 380.676C1100.37 380.134 1099.93 379.694 1099.38 379.694Z" fill="#F2F2F2"/>
<path d="M1114.81 373.803H1062.26C1061.71 373.803 1061.27 374.242 1061.27 374.785C1061.27 375.327 1061.71 375.767 1062.26 375.767H1114.81C1115.36 375.767 1115.8 375.327 1115.8 374.785C1115.8 374.242 1115.36 373.803 1114.81 373.803Z" fill="#F2F2F2"/>
<path d="M1097.28 314.884C1099.55 314.884 1101.39 313.125 1101.39 310.956C1101.39 308.787 1099.55 307.028 1097.28 307.028C1095.01 307.028 1093.16 308.787 1093.16 310.956C1093.16 313.125 1095.01 314.884 1097.28 314.884Z" fill="#3F3D56"/>
<path d="M1036.56 209.126H953.557C950.796 209.126 948.557 211.365 948.557 214.126V288.575C948.557 291.337 950.796 293.575 953.557 293.575H1036.56C1039.32 293.575 1041.56 291.337 1041.56 288.575V214.126C1041.56 211.365 1039.32 209.126 1036.56 209.126Z" fill="#C2C6CC"/>
<path d="M1028.49 219.215H961.626C960.245 219.215 959.126 220.334 959.126 221.715V269.175C959.126 270.556 960.245 271.675 961.626 271.675H1028.49C1029.87 271.675 1030.99 270.556 1030.99 269.175V221.715C1030.99 220.334 1029.87 219.215 1028.49 219.215Z" fill="#6C63FF"/>
<path d="M1000.6 260.283H989.515C988.308 260.283 987.328 261.262 987.328 262.47C987.328 263.678 988.308 264.657 989.515 264.657H1000.6C1001.81 264.657 1002.79 263.678 1002.79 262.47C1002.79 261.262 1001.81 260.283 1000.6 260.283Z" fill="#3F3D56"/>
<path d="M1020.54 226.232H969.575C969.057 226.232 968.637 226.652 968.637 227.17C968.637 227.687 969.057 228.107 969.575 228.107H1020.54C1021.06 228.107 1021.48 227.687 1021.48 227.17C1021.48 226.652 1021.06 226.232 1020.54 226.232Z" fill="#3F3D56"/>
<path d="M1020.54 232.168H969.575C969.057 232.168 968.637 232.588 968.637 233.105C968.637 233.623 969.057 234.042 969.575 234.042H1020.54C1021.06 234.042 1021.48 233.623 1021.48 233.105C1021.48 232.588 1021.06 232.168 1020.54 232.168Z" fill="#3F3D56"/>
<path d="M1020.54 238.104H969.575C969.057 238.104 968.637 238.523 968.637 239.041C968.637 239.558 969.057 239.978 969.575 239.978H1020.54C1021.06 239.978 1021.48 239.558 1021.48 239.041C1021.48 238.523 1021.06 238.104 1020.54 238.104Z" fill="#3F3D56"/>
<path d="M1020.54 244.039H969.575C969.057 244.039 968.637 244.459 968.637 244.976C968.637 245.494 969.057 245.913 969.575 245.913H1020.54C1021.06 245.913 1021.48 245.494 1021.48 244.976C1021.48 244.459 1021.06 244.039 1020.54 244.039Z" fill="#3F3D56"/>
<path d="M1020.54 249.975H969.575C969.057 249.975 968.637 250.394 968.637 250.912C968.637 251.429 969.057 251.849 969.575 251.849H1020.54C1021.06 251.849 1021.48 251.429 1021.48 250.912C1021.48 250.394 1021.06 249.975 1020.54 249.975Z" fill="#3F3D56"/>
<path d="M997.163 276.882H960.036C959.494 276.882 959.054 277.321 959.054 277.864C959.054 278.406 959.494 278.846 960.036 278.846H997.163C997.705 278.846 998.145 278.406 998.145 277.864C998.145 277.321 997.705 276.882 997.163 276.882Z" fill="#F2F2F2"/>
<path d="M1012.59 281.792H960.036C959.494 281.792 959.054 282.232 959.054 282.774C959.054 283.316 959.494 283.756 960.036 283.756H1012.59C1013.14 283.756 1013.58 283.316 1013.58 282.774C1013.58 282.232 1013.14 281.792 1012.59 281.792Z" fill="#F2F2F2"/>
<path d="M995.059 217.963C997.331 217.963 999.174 216.205 999.174 214.035C999.174 211.866 997.331 210.107 995.059 210.107C992.786 210.107 990.944 211.866 990.944 214.035C990.944 216.205 992.786 217.963 995.059 217.963Z" fill="#3F3D56"/>
<path fill-rule="evenodd" clip-rule="evenodd" d="M910.365 174.5H906.479C900.956 174.5 896.479 178.977 896.479 184.5V188.052V195.581V427.476V435.005V438.557C896.479 444.08 900.956 448.557 906.479 448.557H910.365H916.403H1328.18H1334.21H1338.1C1343.62 448.557 1348.1 444.08 1348.1 438.557L1348.1 435.005V427.476V195.581V188.052L1348.1 184.5C1348.1 178.977 1343.62 174.5 1338.1 174.5H1334.21H1328.18H916.403H910.365ZM1420.81 236.176C1420.76 237.614 1420.76 238.507 1420.76 238.507L1420.91 238.245C1421.47 243.623 1424.15 248.406 1428.14 251.824L1427.85 261.645C1427.63 261.462 1427.51 261.356 1427.51 261.356C1427.51 261.356 1427.32 261.476 1427.05 261.682L1427.11 260.98C1427.11 260.98 1426.82 261.074 1426.36 261.262C1424.99 261.827 1422.19 263.238 1421.59 265.496C1421.44 266.068 1420.56 267.039 1419.22 268.244C1413.5 273.407 1399.51 282.809 1399.51 282.809L1399.39 289.346C1398.09 291.59 1396.69 295.92 1395.97 304.262C1394.39 322.328 1393.6 353.943 1393.6 353.943L1375.46 398.355L1379.04 399.413L1377.04 405.129C1377.04 405.129 1357.33 426.958 1371.52 429.969C1385.71 432.98 1387.29 406.634 1387.29 406.634L1389.21 402.977C1385.53 419.972 1382.64 437.213 1385.32 440.132C1385.9 440.765 1386.59 441.39 1387.37 442.001L1382.56 468.359L1387.29 558.688H1391.53L1391.14 561.033C1390.33 561.134 1389.33 561.556 1388.08 562.452C1381.77 566.968 1373.89 575.248 1373.89 575.248C1373.89 575.248 1343.92 591.056 1365.21 593.314C1386.5 595.572 1399.91 582.776 1399.91 582.776L1402.27 585.034C1402.27 585.034 1414.89 582.776 1414.89 579.765C1414.8 577.242 1414.54 574.727 1414.1 572.237C1414.1 572.237 1412.44 559.469 1410.51 562.089L1410.33 558.688H1411.74V476.639L1435.39 434.486L1454.32 487.178L1459.05 575.248L1460.34 575.03L1459.65 583.564C1458.36 583.906 1457.31 584.596 1456.68 585.786C1453.53 591.808 1451.16 603.852 1451.16 603.852C1451.16 603.852 1440.91 622.67 1459.05 621.165C1476.53 619.714 1476.43 610.569 1476.4 607.889L1476.4 607.877C1476.4 607.781 1476.4 607.694 1476.4 607.616C1476.4 606.95 1476.33 606.023 1476.25 604.989C1476.07 602.513 1475.84 599.423 1476.4 597.83C1477.19 595.572 1474.03 586.539 1474.03 586.539C1474.03 586.539 1473.75 586.402 1473.24 586.184V572.857L1485.86 570.732L1479.55 484.919C1479.55 484.919 1478.86 468.202 1477.74 447.463C1486.38 445.23 1503.19 440.587 1509.52 436.744C1513.37 434.404 1508.2 409.506 1501.27 382.544C1509.43 371.811 1517.85 358.932 1519.77 349.427C1523.7 329.921 1490.03 275.271 1489.81 274.907L1489.8 274.905L1468.17 266.798L1467.72 266.625C1465.82 264.084 1463.77 261.648 1461.58 259.331C1461.26 259 1460.95 258.671 1460.63 258.345C1458.26 256.087 1456.78 256.792 1456.19 257.286C1455.99 257.451 1455.9 257.592 1455.9 257.592L1455.9 253.169C1459.37 250.746 1462.08 247.377 1463.6 243.459C1463.99 243.667 1464.18 243.667 1464.18 243.667C1464.18 243.667 1467.13 237.662 1468.07 228.368C1469.02 219.074 1454.82 213.16 1446.31 209.781C1440.55 207.494 1435.65 211.008 1433.09 213.52L1434.94 210.354C1432.93 211.112 1431.9 213.657 1431.42 215.356C1431.39 215.401 1431.36 215.441 1431.33 215.477L1431.84 210.546C1430.53 211.805 1430.43 213.999 1430.61 215.695H1425.49C1422.19 218.642 1421.19 228.582 1420.89 234.322C1420.83 234.921 1420.81 235.527 1420.81 236.139L1420.81 236.176ZM1493.75 350.179L1492.81 351.387C1488.49 336.144 1484.55 323.013 1482.54 316.386L1493.75 350.179Z" fill="url(#paint1_linear)"/>
</g>
</g>
<defs>
<filter id="filter0_d" x="876" y="134.5" width="684.58" height="510" filterUnits="userSpaceOnUse" color-interpolation-filters="sRGB">
<feFlood flood-opacity="0" result="BackgroundImageFix"/>
<feColorMatrix in="SourceAlpha" type="matrix" values="0 0 0 0 0 0 0 0 0 0 0 0 0 0 0 0 0 0 127 0"/>
<feOffset dx="10" dy="-10"/>
<feGaussianBlur stdDeviation="15"/>
<feColorMatrix type="matrix" values="0 0 0 0 0.517647 0 0 0 0 0.517647 0 0 0 0 0.6 0 0 0 0.05 0"/>
<feBlend mode="normal" in2="BackgroundImageFix" result="effect1_dropShadow"/>
<feBlend mode="normal" in="SourceGraphic" in2="effect1_dropShadow" result="shape"/>
</filter>
<linearGradient id="paint0_linear" x1="962" y1="-128.5" x2="1825.99" y2="451.766" gradientUnits="userSpaceOnUse">
<stop stop-color="white" stop-opacity="0.2"/>
<stop offset="1" stop-color="white" stop-opacity="0"/>
</linearGradient>
<linearGradient id="paint1_linear" x1="896.479" y1="621.251" x2="1476.51" y2="462.193" gradientUnits="userSpaceOnUse">
<stop stop-color="white" stop-opacity="0.2"/>
<stop offset="1" stop-color="white" stop-opacity="0"/>
</linearGradient>
<clipPath id="clip0">
<rect width="1620" height="695" fill="white" transform="translate(0 0.5)"/>
</clipPath>
</defs>
</svg>
