<svg width="1620" height="696" viewBox="0 0 1620 696" fill="none" xmlns="http://www.w3.org/2000/svg">
<g clip-path="url(#clip0)">
<rect width="1620" height="695" transform="translate(0 0.5)" fill="white"/>
<path d="M140.625 322.05V330.5H105.395V285H139.78V293.45H115.86V303.33H136.985V311.52H115.86V322.05H140.625ZM170.193 295.01C174.527 295.01 178.015 296.31 180.658 298.91C183.345 301.51 184.688 305.367 184.688 310.48V330.5H174.548V312.04C174.548 309.267 173.942 307.208 172.728 305.865C171.515 304.478 169.76 303.785 167.463 303.785C164.907 303.785 162.87 304.587 161.353 306.19C159.837 307.75 159.078 310.09 159.078 313.21V330.5H148.938V295.53H158.623V299.625C159.967 298.152 161.635 297.025 163.628 296.245C165.622 295.422 167.81 295.01 170.193 295.01ZM194.53 295.53H204.67V330.5H194.53V295.53ZM199.6 290.655C197.736 290.655 196.22 290.113 195.05 289.03C193.88 287.947 193.295 286.603 193.295 285C193.295 283.397 193.88 282.053 195.05 280.97C196.22 279.887 197.736 279.345 199.6 279.345C201.463 279.345 202.98 279.865 204.15 280.905C205.32 281.945 205.905 283.245 205.905 284.805C205.905 286.495 205.32 287.903 204.15 289.03C202.98 290.113 201.463 290.655 199.6 290.655ZM259.516 295.01C263.892 295.01 267.359 296.31 269.916 298.91C272.516 301.467 273.816 305.323 273.816 310.48V330.5H263.676V312.04C263.676 309.267 263.091 307.208 261.921 305.865C260.794 304.478 259.169 303.785 257.046 303.785C254.662 303.785 252.777 304.565 251.391 306.125C250.004 307.642 249.311 309.917 249.311 312.95V330.5H239.171V312.04C239.171 306.537 236.961 303.785 232.541 303.785C230.201 303.785 228.337 304.565 226.951 306.125C225.564 307.642 224.871 309.917 224.871 312.95V330.5H214.731V295.53H224.416V299.56C225.716 298.087 227.297 296.96 229.161 296.18C231.067 295.4 233.147 295.01 235.401 295.01C237.871 295.01 240.102 295.508 242.096 296.505C244.089 297.458 245.692 298.867 246.906 300.73C248.336 298.91 250.134 297.502 252.301 296.505C254.511 295.508 256.916 295.01 259.516 295.01ZM337.323 295.53L322.568 330.5H312.103L297.413 295.53H307.878L317.563 319.32L327.573 295.53H337.323ZM342.11 295.53H352.25V330.5H342.11V295.53ZM347.18 290.655C345.317 290.655 343.8 290.113 342.63 289.03C341.46 287.947 340.875 286.603 340.875 285C340.875 283.397 341.46 282.053 342.63 280.97C343.8 279.887 345.317 279.345 347.18 279.345C349.044 279.345 350.56 279.865 351.73 280.905C352.9 281.945 353.485 283.245 353.485 284.805C353.485 286.495 352.9 287.903 351.73 289.03C350.56 290.113 349.044 290.655 347.18 290.655ZM384.866 328.81C383.869 329.547 382.634 330.11 381.161 330.5C379.731 330.847 378.214 331.02 376.611 331.02C372.451 331.02 369.223 329.958 366.926 327.835C364.673 325.712 363.546 322.592 363.546 318.475V304.11H358.151V296.31H363.546V287.795H373.686V296.31H382.396V304.11H373.686V318.345C373.686 319.818 374.054 320.967 374.791 321.79C375.571 322.57 376.654 322.96 378.041 322.96C379.644 322.96 381.009 322.527 382.136 321.66L384.866 328.81ZM405.313 295.01C410.73 295.01 414.89 296.31 417.793 298.91C420.696 301.467 422.148 305.345 422.148 310.545V330.5H412.658V326.145C410.751 329.395 407.198 331.02 401.998 331.02C399.311 331.02 396.971 330.565 394.978 329.655C393.028 328.745 391.533 327.488 390.493 325.885C389.453 324.282 388.933 322.462 388.933 320.425C388.933 317.175 390.146 314.618 392.573 312.755C395.043 310.892 398.835 309.96 403.948 309.96H412.008C412.008 307.75 411.336 306.06 409.993 304.89C408.65 303.677 406.635 303.07 403.948 303.07C402.085 303.07 400.243 303.373 398.423 303.98C396.646 304.543 395.13 305.323 393.873 306.32L390.233 299.235C392.14 297.892 394.415 296.852 397.058 296.115C399.745 295.378 402.496 295.01 405.313 295.01ZM404.533 324.195C406.266 324.195 407.805 323.805 409.148 323.025C410.491 322.202 411.445 321.01 412.008 319.45V315.875H405.053C400.893 315.875 398.813 317.24 398.813 319.97C398.813 321.27 399.311 322.31 400.308 323.09C401.348 323.827 402.756 324.195 404.533 324.195ZM466.611 313.145C466.611 313.275 466.546 314.185 466.416 315.875H439.961C440.438 318.042 441.565 319.753 443.341 321.01C445.118 322.267 447.328 322.895 449.971 322.895C451.791 322.895 453.395 322.635 454.781 322.115C456.211 321.552 457.533 320.685 458.746 319.515L464.141 325.365C460.848 329.135 456.038 331.02 449.711 331.02C445.768 331.02 442.28 330.262 439.246 328.745C436.213 327.185 433.873 325.04 432.226 322.31C430.58 319.58 429.756 316.482 429.756 313.015C429.756 309.592 430.558 306.515 432.161 303.785C433.808 301.012 436.04 298.867 438.856 297.35C441.716 295.79 444.901 295.01 448.411 295.01C451.835 295.01 454.933 295.747 457.706 297.22C460.48 298.693 462.646 300.817 464.206 303.59C465.81 306.32 466.611 309.505 466.611 313.145ZM448.476 302.68C446.18 302.68 444.251 303.33 442.691 304.63C441.131 305.93 440.178 307.707 439.831 309.96H457.056C456.71 307.75 455.756 305.995 454.196 304.695C452.636 303.352 450.73 302.68 448.476 302.68ZM528.3 295.53V330.5H518.68V326.34C517.337 327.857 515.734 329.027 513.87 329.85C512.007 330.63 509.992 331.02 507.825 331.02C503.232 331.02 499.592 329.698 496.905 327.055C494.219 324.412 492.875 320.49 492.875 315.29V295.53H503.015V313.795C503.015 319.428 505.377 322.245 510.1 322.245C512.527 322.245 514.477 321.465 515.95 319.905C517.424 318.302 518.16 315.94 518.16 312.82V295.53H528.3ZM548.029 300.145C549.243 298.455 550.868 297.177 552.904 296.31C554.984 295.443 557.368 295.01 560.054 295.01V304.37C558.928 304.283 558.169 304.24 557.779 304.24C554.876 304.24 552.601 305.063 550.954 306.71C549.308 308.313 548.484 310.74 548.484 313.99V330.5H538.344V295.53H548.029V300.145ZM587.989 295.01C592.322 295.01 595.81 296.31 598.454 298.91C601.14 301.51 602.484 305.367 602.484 310.48V330.5H592.344V312.04C592.344 309.267 591.737 307.208 590.524 305.865C589.31 304.478 587.555 303.785 585.259 303.785C582.702 303.785 580.665 304.587 579.149 306.19C577.632 307.75 576.874 310.09 576.874 313.21V330.5H566.734V295.53H576.419V299.625C577.762 298.152 579.43 297.025 581.424 296.245C583.417 295.422 585.605 295.01 587.989 295.01ZM626.43 295.01C631.847 295.01 636.007 296.31 638.91 298.91C641.813 301.467 643.265 305.345 643.265 310.545V330.5H633.775V326.145C631.868 329.395 628.315 331.02 623.115 331.02C620.428 331.02 618.088 330.565 616.095 329.655C614.145 328.745 612.65 327.488 611.61 325.885C610.57 324.282 610.05 322.462 610.05 320.425C610.05 317.175 611.263 314.618 613.69 312.755C616.16 310.892 619.952 309.96 625.065 309.96H633.125C633.125 307.75 632.453 306.06 631.11 304.89C629.767 303.677 627.752 303.07 625.065 303.07C623.202 303.07 621.36 303.373 619.54 303.98C617.763 304.543 616.247 305.323 614.99 306.32L611.35 299.235C613.257 297.892 615.532 296.852 618.175 296.115C620.862 295.378 623.613 295.01 626.43 295.01ZM625.65 324.195C627.383 324.195 628.922 323.805 630.265 323.025C631.608 322.202 632.562 321.01 633.125 319.45V315.875H626.17C622.01 315.875 619.93 317.24 619.93 319.97C619.93 321.27 620.428 322.31 621.425 323.09C622.465 323.827 623.873 324.195 625.65 324.195ZM127.235 409.81C126.238 410.547 125.003 411.11 123.53 411.5C122.1 411.847 120.583 412.02 118.98 412.02C114.82 412.02 111.592 410.958 109.295 408.835C107.042 406.712 105.915 403.592 105.915 399.475V385.11H100.52V377.31H105.915V368.795H116.055V377.31H124.765V385.11H116.055V399.345C116.055 400.818 116.423 401.967 117.16 402.79C117.94 403.57 119.023 403.96 120.41 403.96C122.013 403.96 123.378 403.527 124.505 402.66L127.235 409.81ZM133.577 376.53H143.717V411.5H133.577V376.53ZM138.647 371.655C136.784 371.655 135.267 371.113 134.097 370.03C132.927 368.947 132.342 367.603 132.342 366C132.342 364.397 132.927 363.053 134.097 361.97C135.267 360.887 136.784 360.345 138.647 360.345C140.51 360.345 142.027 360.865 143.197 361.905C144.367 362.945 144.952 364.245 144.952 365.805C144.952 367.495 144.367 368.903 143.197 370.03C142.027 371.113 140.51 371.655 138.647 371.655ZM175.033 376.01C179.366 376.01 182.855 377.31 185.498 379.91C188.185 382.51 189.528 386.367 189.528 391.48V411.5H179.388V393.04C179.388 390.267 178.781 388.208 177.568 386.865C176.355 385.478 174.6 384.785 172.303 384.785C169.746 384.785 167.71 385.587 166.193 387.19C164.676 388.75 163.918 391.09 163.918 394.21V411.5H153.778V376.53H163.463V380.625C164.806 379.152 166.475 378.025 168.468 377.245C170.461 376.422 172.65 376.01 175.033 376.01ZM216.65 412.02C212.923 412.02 209.565 411.262 206.575 409.745C203.628 408.185 201.31 406.04 199.62 403.31C197.973 400.58 197.15 397.482 197.15 394.015C197.15 390.548 197.973 387.45 199.62 384.72C201.31 381.99 203.628 379.867 206.575 378.35C209.565 376.79 212.923 376.01 216.65 376.01C220.333 376.01 223.54 376.79 226.27 378.35C229.043 379.867 231.058 382.055 232.315 384.915L224.45 389.14C222.63 385.933 220.008 384.33 216.585 384.33C213.942 384.33 211.753 385.197 210.02 386.93C208.287 388.663 207.42 391.025 207.42 394.015C207.42 397.005 208.287 399.367 210.02 401.1C211.753 402.833 213.942 403.7 216.585 403.7C220.052 403.7 222.673 402.097 224.45 398.89L232.315 403.18C231.058 405.953 229.043 408.12 226.27 409.68C223.54 411.24 220.333 412.02 216.65 412.02ZM238.803 376.53H248.943V411.5H238.803V376.53ZM243.873 371.655C242.01 371.655 240.493 371.113 239.323 370.03C238.153 368.947 237.568 367.603 237.568 366C237.568 364.397 238.153 363.053 239.323 361.97C240.493 360.887 242.01 360.345 243.873 360.345C245.737 360.345 247.253 360.865 248.423 361.905C249.593 362.945 250.178 364.245 250.178 365.805C250.178 367.495 249.593 368.903 248.423 370.03C247.253 371.113 245.737 371.655 243.873 371.655ZM294.624 363.27V411.5H284.939V407.47C282.426 410.503 278.786 412.02 274.019 412.02C270.726 412.02 267.736 411.283 265.049 409.81C262.406 408.337 260.326 406.235 258.809 403.505C257.293 400.775 256.534 397.612 256.534 394.015C256.534 390.418 257.293 387.255 258.809 384.525C260.326 381.795 262.406 379.693 265.049 378.22C267.736 376.747 270.726 376.01 274.019 376.01C278.483 376.01 281.971 377.418 284.484 380.235V363.27H294.624ZM275.774 403.7C278.331 403.7 280.454 402.833 282.144 401.1C283.834 399.323 284.679 396.962 284.679 394.015C284.679 391.068 283.834 388.728 282.144 386.995C280.454 385.218 278.331 384.33 275.774 384.33C273.174 384.33 271.029 385.218 269.339 386.995C267.649 388.728 266.804 391.068 266.804 394.015C266.804 396.962 267.649 399.323 269.339 401.1C271.029 402.833 273.174 403.7 275.774 403.7ZM339.889 376.53V411.5H330.269V407.34C328.926 408.857 327.322 410.027 325.459 410.85C323.596 411.63 321.581 412.02 319.414 412.02C314.821 412.02 311.181 410.698 308.494 408.055C305.807 405.412 304.464 401.49 304.464 396.29V376.53H314.604V394.795C314.604 400.428 316.966 403.245 321.689 403.245C324.116 403.245 326.066 402.465 327.539 400.905C329.012 399.302 329.749 396.94 329.749 393.82V376.53H339.889ZM371.188 376.01C375.521 376.01 379.01 377.31 381.653 379.91C384.34 382.51 385.683 386.367 385.683 391.48V411.5H375.543V393.04C375.543 390.267 374.936 388.208 373.723 386.865C372.51 385.478 370.755 384.785 368.458 384.785C365.901 384.785 363.865 385.587 362.348 387.19C360.831 388.75 360.073 391.09 360.073 394.21V411.5H349.933V376.53H359.618V380.625C360.961 379.152 362.63 378.025 364.623 377.245C366.616 376.422 368.805 376.01 371.188 376.01ZM418.08 409.81C417.083 410.547 415.848 411.11 414.375 411.5C412.945 411.847 411.428 412.02 409.825 412.02C405.665 412.02 402.436 410.958 400.14 408.835C397.886 406.712 396.76 403.592 396.76 399.475V385.11H391.365V377.31H396.76V368.795H406.9V377.31H415.61V385.11H406.9V399.345C406.9 400.818 407.268 401.967 408.005 402.79C408.785 403.57 409.868 403.96 411.255 403.96C412.858 403.96 414.223 403.527 415.35 402.66L418.08 409.81ZM457.585 376.01C463.001 376.01 467.161 377.31 470.065 379.91C472.968 382.467 474.42 386.345 474.42 391.545V411.5H464.93V407.145C463.023 410.395 459.47 412.02 454.27 412.02C451.583 412.02 449.243 411.565 447.25 410.655C445.3 409.745 443.805 408.488 442.765 406.885C441.725 405.282 441.205 403.462 441.205 401.425C441.205 398.175 442.418 395.618 444.845 393.755C447.315 391.892 451.106 390.96 456.22 390.96H464.28C464.28 388.75 463.608 387.06 462.265 385.89C460.921 384.677 458.906 384.07 456.22 384.07C454.356 384.07 452.515 384.373 450.695 384.98C448.918 385.543 447.401 386.323 446.145 387.32L442.505 380.235C444.411 378.892 446.686 377.852 449.33 377.115C452.016 376.378 454.768 376.01 457.585 376.01ZM456.805 405.195C458.538 405.195 460.076 404.805 461.42 404.025C462.763 403.202 463.716 402.01 464.28 400.45V396.875H457.325C453.165 396.875 451.085 398.24 451.085 400.97C451.085 402.27 451.583 403.31 452.58 404.09C453.62 404.827 455.028 405.195 456.805 405.195ZM529.032 376.01C533.409 376.01 536.875 377.31 539.432 379.91C542.032 382.467 543.332 386.323 543.332 391.48V411.5H533.192V393.04C533.192 390.267 532.607 388.208 531.437 386.865C530.31 385.478 528.685 384.785 526.562 384.785C524.179 384.785 522.294 385.565 520.907 387.125C519.52 388.642 518.827 390.917 518.827 393.95V411.5H508.687V393.04C508.687 387.537 506.477 384.785 502.057 384.785C499.717 384.785 497.854 385.565 496.467 387.125C495.08 388.642 494.387 390.917 494.387 393.95V411.5H484.247V376.53H493.932V380.56C495.232 379.087 496.814 377.96 498.677 377.18C500.584 376.4 502.664 376.01 504.917 376.01C507.387 376.01 509.619 376.508 511.612 377.505C513.605 378.458 515.209 379.867 516.422 381.73C517.852 379.91 519.65 378.502 521.817 377.505C524.027 376.508 526.432 376.01 529.032 376.01ZM587.707 394.145C587.707 394.275 587.642 395.185 587.512 396.875H561.057C561.533 399.042 562.66 400.753 564.437 402.01C566.213 403.267 568.423 403.895 571.067 403.895C572.887 403.895 574.49 403.635 575.877 403.115C577.307 402.552 578.628 401.685 579.842 400.515L585.237 406.365C581.943 410.135 577.133 412.02 570.807 412.02C566.863 412.02 563.375 411.262 560.342 409.745C557.308 408.185 554.968 406.04 553.322 403.31C551.675 400.58 550.852 397.482 550.852 394.015C550.852 390.592 551.653 387.515 553.257 384.785C554.903 382.012 557.135 379.867 559.952 378.35C562.812 376.79 565.997 376.01 569.507 376.01C572.93 376.01 576.028 376.747 578.802 378.22C581.575 379.693 583.742 381.817 585.302 384.59C586.905 387.32 587.707 390.505 587.707 394.145ZM569.572 383.68C567.275 383.68 565.347 384.33 563.787 385.63C562.227 386.93 561.273 388.707 560.927 390.96H578.152C577.805 388.75 576.852 386.995 575.292 385.695C573.732 384.352 571.825 383.68 569.572 383.68ZM617.663 409.81C616.666 410.547 615.431 411.11 613.958 411.5C612.528 411.847 611.011 412.02 609.408 412.02C605.248 412.02 602.019 410.958 599.723 408.835C597.469 406.712 596.343 403.592 596.343 399.475V385.11H590.948V377.31H596.343V368.795H606.483V377.31H615.193V385.11H606.483V399.345C606.483 400.818 606.851 401.967 607.588 402.79C608.368 403.57 609.451 403.96 610.838 403.96C612.441 403.96 613.806 403.527 614.933 402.66L617.663 409.81Z" fill="#2F2E44"/>
<path d="M117.97 96.49C117.97 96.55 117.94 96.97 117.88 97.75H105.67C105.89 98.75 106.41 99.54 107.23 100.12C108.05 100.7 109.07 100.99 110.29 100.99C111.13 100.99 111.87 100.87 112.51 100.63C113.17 100.37 113.78 99.97 114.34 99.43L116.83 102.13C115.31 103.87 113.09 104.74 110.17 104.74C108.35 104.74 106.74 104.39 105.34 103.69C103.94 102.97 102.86 101.98 102.1 100.72C101.34 99.46 100.96 98.03 100.96 96.43C100.96 94.85 101.33 93.43 102.07 92.17C102.83 90.89 103.86 89.9 105.16 89.2C106.48 88.48 107.95 88.12 109.57 88.12C111.15 88.12 112.58 88.46 113.86 89.14C115.14 89.82 116.14 90.8 116.86 92.08C117.6 93.34 117.97 94.81 117.97 96.49ZM109.6 91.66C108.54 91.66 107.65 91.96 106.93 92.56C106.21 93.16 105.77 93.98 105.61 95.02H113.56C113.4 94 112.96 93.19 112.24 92.59C111.52 91.97 110.64 91.66 109.6 91.66ZM131.196 88.12C133.196 88.12 134.806 88.72 136.026 89.92C137.266 91.12 137.886 92.9 137.886 95.26V104.5H133.206V95.98C133.206 94.7 132.926 93.75 132.366 93.13C131.806 92.49 130.996 92.17 129.936 92.17C128.756 92.17 127.816 92.54 127.116 93.28C126.416 94 126.066 95.08 126.066 96.52V104.5H121.386V88.36H125.856V90.25C126.476 89.57 127.246 89.05 128.166 88.69C129.086 88.31 130.096 88.12 131.196 88.12ZM159.254 88.36V101.8C159.254 104.76 158.484 106.96 156.944 108.4C155.404 109.84 153.154 110.56 150.194 110.56C148.634 110.56 147.154 110.37 145.754 109.99C144.354 109.61 143.194 109.06 142.274 108.34L144.134 104.98C144.814 105.54 145.674 105.98 146.714 106.3C147.754 106.64 148.794 106.81 149.834 106.81C151.454 106.81 152.644 106.44 153.404 105.7C154.184 104.98 154.574 103.88 154.574 102.4V101.71C153.354 103.05 151.654 103.72 149.474 103.72C147.994 103.72 146.634 103.4 145.394 102.76C144.174 102.1 143.204 101.18 142.484 100C141.764 98.82 141.404 97.46 141.404 95.92C141.404 94.38 141.764 93.02 142.484 91.84C143.204 90.66 144.174 89.75 145.394 89.11C146.634 88.45 147.994 88.12 149.474 88.12C151.814 88.12 153.594 88.89 154.814 90.43V88.36H159.254ZM150.404 99.88C151.644 99.88 152.654 99.52 153.434 98.8C154.234 98.06 154.634 97.1 154.634 95.92C154.634 94.74 154.234 93.79 153.434 93.07C152.654 92.33 151.644 91.96 150.404 91.96C149.164 91.96 148.144 92.33 147.344 93.07C146.544 93.79 146.144 94.74 146.144 95.92C146.144 97.1 146.544 98.06 147.344 98.8C148.144 99.52 149.164 99.88 150.404 99.88ZM163.91 82.24H168.59V104.5H163.91V82.24ZM173.233 88.36H177.913V104.5H173.233V88.36ZM175.573 86.11C174.713 86.11 174.013 85.86 173.473 85.36C172.933 84.86 172.663 84.24 172.663 83.5C172.663 82.76 172.933 82.14 173.473 81.64C174.013 81.14 174.713 80.89 175.573 80.89C176.433 80.89 177.133 81.13 177.673 81.61C178.213 82.09 178.483 82.69 178.483 83.41C178.483 84.19 178.213 84.84 177.673 85.36C177.133 85.86 176.433 86.11 175.573 86.11ZM187.986 104.74C186.646 104.74 185.336 104.58 184.056 104.26C182.776 103.92 181.756 103.5 180.996 103L182.556 99.64C183.276 100.1 184.146 100.48 185.166 100.78C186.186 101.06 187.186 101.2 188.166 101.2C190.146 101.2 191.136 100.71 191.136 99.73C191.136 99.27 190.866 98.94 190.326 98.74C189.786 98.54 188.956 98.37 187.836 98.23C186.516 98.03 185.426 97.8 184.566 97.54C183.706 97.28 182.956 96.82 182.316 96.16C181.696 95.5 181.386 94.56 181.386 93.34C181.386 92.32 181.676 91.42 182.256 90.64C182.856 89.84 183.716 89.22 184.836 88.78C185.976 88.34 187.316 88.12 188.856 88.12C189.996 88.12 191.126 88.25 192.246 88.51C193.386 88.75 194.326 89.09 195.066 89.53L193.506 92.86C192.086 92.06 190.536 91.66 188.856 91.66C187.856 91.66 187.106 91.8 186.606 92.08C186.106 92.36 185.856 92.72 185.856 93.16C185.856 93.66 186.126 94.01 186.666 94.21C187.206 94.41 188.066 94.6 189.246 94.78C190.566 95 191.646 95.24 192.486 95.5C193.326 95.74 194.056 96.19 194.676 96.85C195.296 97.51 195.606 98.43 195.606 99.61C195.606 100.61 195.306 101.5 194.706 102.28C194.106 103.06 193.226 103.67 192.066 104.11C190.926 104.53 189.566 104.74 187.986 104.74ZM208.604 88.12C210.604 88.12 212.214 88.72 213.434 89.92C214.674 91.12 215.294 92.9 215.294 95.26V104.5H210.614V95.98C210.614 94.7 210.334 93.75 209.774 93.13C209.214 92.49 208.404 92.17 207.344 92.17C206.164 92.17 205.224 92.54 204.524 93.28C203.824 94 203.474 95.08 203.474 96.52V104.5H198.794V82.24H203.474V90.04C204.094 89.42 204.844 88.95 205.724 88.63C206.604 88.29 207.564 88.12 208.604 88.12ZM229.646 88.12C231.646 88.12 233.256 88.72 234.476 89.92C235.716 91.12 236.336 92.9 236.336 95.26V104.5H231.656V95.98C231.656 94.7 231.376 93.75 230.816 93.13C230.256 92.49 229.446 92.17 228.386 92.17C227.206 92.17 226.266 92.54 225.566 93.28C224.866 94 224.516 95.08 224.516 96.52V104.5H219.836V88.36H224.306V90.25C224.926 89.57 225.696 89.05 226.616 88.69C227.536 88.31 228.546 88.12 229.646 88.12ZM256.864 96.49C256.864 96.55 256.834 96.97 256.774 97.75H244.564C244.784 98.75 245.304 99.54 246.124 100.12C246.944 100.7 247.964 100.99 249.184 100.99C250.024 100.99 250.764 100.87 251.404 100.63C252.064 100.37 252.674 99.97 253.234 99.43L255.724 102.13C254.204 103.87 251.984 104.74 249.064 104.74C247.244 104.74 245.634 104.39 244.234 103.69C242.834 102.97 241.754 101.98 240.994 100.72C240.234 99.46 239.854 98.03 239.854 96.43C239.854 94.85 240.224 93.43 240.964 92.17C241.724 90.89 242.754 89.9 244.054 89.2C245.374 88.48 246.844 88.12 248.464 88.12C250.044 88.12 251.474 88.46 252.754 89.14C254.034 89.82 255.034 90.8 255.754 92.08C256.494 93.34 256.864 94.81 256.864 96.49ZM248.494 91.66C247.434 91.66 246.544 91.96 245.824 92.56C245.104 93.16 244.664 93.98 244.504 95.02H252.454C252.294 94 251.854 93.19 251.134 92.59C250.414 91.97 249.534 91.66 248.494 91.66ZM264.75 90.49C265.31 89.71 266.06 89.12 267 88.72C267.96 88.32 269.06 88.12 270.3 88.12V92.44C269.78 92.4 269.43 92.38 269.25 92.38C267.91 92.38 266.86 92.76 266.1 93.52C265.34 94.26 264.96 95.38 264.96 96.88V104.5H260.28V88.36H264.75V90.49ZM289.676 82.24V104.5H285.206V102.64C284.046 104.04 282.366 104.74 280.166 104.74C278.646 104.74 277.266 104.4 276.026 103.72C274.806 103.04 273.846 102.07 273.146 100.81C272.446 99.55 272.096 98.09 272.096 96.43C272.096 94.77 272.446 93.31 273.146 92.05C273.846 90.79 274.806 89.82 276.026 89.14C277.266 88.46 278.646 88.12 280.166 88.12C282.226 88.12 283.836 88.77 284.996 90.07V82.24H289.676ZM280.976 100.9C282.156 100.9 283.136 100.5 283.916 99.7C284.696 98.88 285.086 97.79 285.086 96.43C285.086 95.07 284.696 93.99 283.916 93.19C283.136 92.37 282.156 91.96 280.976 91.96C279.776 91.96 278.786 92.37 278.006 93.19C277.226 93.99 276.836 95.07 276.836 96.43C276.836 97.79 277.226 98.88 278.006 99.7C278.786 100.5 279.776 100.9 280.976 100.9ZM296.078 104.74C295.258 104.74 294.568 104.46 294.008 103.9C293.448 103.34 293.168 102.64 293.168 101.8C293.168 100.94 293.448 100.25 294.008 99.73C294.568 99.19 295.258 98.92 296.078 98.92C296.898 98.92 297.588 99.19 298.148 99.73C298.708 100.25 298.988 100.94 298.988 101.8C298.988 102.64 298.708 103.34 298.148 103.9C297.588 104.46 296.898 104.74 296.078 104.74ZM309.934 104.74C308.234 104.74 306.704 104.39 305.344 103.69C304.004 102.97 302.954 101.98 302.194 100.72C301.434 99.46 301.054 98.03 301.054 96.43C301.054 94.83 301.434 93.4 302.194 92.14C302.954 90.88 304.004 89.9 305.344 89.2C306.704 88.48 308.234 88.12 309.934 88.12C311.634 88.12 313.154 88.48 314.494 89.2C315.834 89.9 316.884 90.88 317.644 92.14C318.404 93.4 318.784 94.83 318.784 96.43C318.784 98.03 318.404 99.46 317.644 100.72C316.884 101.98 315.834 102.97 314.494 103.69C313.154 104.39 311.634 104.74 309.934 104.74ZM309.934 100.9C311.134 100.9 312.114 100.5 312.874 99.7C313.654 98.88 314.044 97.79 314.044 96.43C314.044 95.07 313.654 93.99 312.874 93.19C312.114 92.37 311.134 91.96 309.934 91.96C308.734 91.96 307.744 92.37 306.964 93.19C306.184 93.99 305.794 95.07 305.794 96.43C305.794 97.79 306.184 98.88 306.964 99.7C307.744 100.5 308.734 100.9 309.934 100.9ZM326.682 90.49C327.242 89.71 327.992 89.12 328.932 88.72C329.892 88.32 330.992 88.12 332.232 88.12V92.44C331.712 92.4 331.362 92.38 331.182 92.38C329.842 92.38 328.792 92.76 328.032 93.52C327.272 94.26 326.892 95.38 326.892 96.88V104.5H322.212V88.36H326.682V90.49ZM351.819 88.36V101.8C351.819 104.76 351.049 106.96 349.509 108.4C347.969 109.84 345.719 110.56 342.759 110.56C341.199 110.56 339.719 110.37 338.319 109.99C336.919 109.61 335.759 109.06 334.839 108.34L336.699 104.98C337.379 105.54 338.239 105.98 339.279 106.3C340.319 106.64 341.359 106.81 342.399 106.81C344.019 106.81 345.209 106.44 345.969 105.7C346.749 104.98 347.139 103.88 347.139 102.4V101.71C345.919 103.05 344.219 103.72 342.039 103.72C340.559 103.72 339.199 103.4 337.959 102.76C336.739 102.1 335.769 101.18 335.049 100C334.329 98.82 333.969 97.46 333.969 95.92C333.969 94.38 334.329 93.02 335.049 91.84C335.769 90.66 336.739 89.75 337.959 89.11C339.199 88.45 340.559 88.12 342.039 88.12C344.379 88.12 346.159 88.89 347.379 90.43V88.36H351.819ZM342.969 99.88C344.209 99.88 345.219 99.52 345.999 98.8C346.799 98.06 347.199 97.1 347.199 95.92C347.199 94.74 346.799 93.79 345.999 93.07C345.219 92.33 344.209 91.96 342.969 91.96C341.729 91.96 340.709 92.33 339.909 93.07C339.109 93.79 338.709 94.74 338.709 95.92C338.709 97.1 339.109 98.06 339.909 98.8C340.709 99.52 341.729 99.88 342.969 99.88Z" fill="#848499"/>
<circle cx="1395" cy="224.5" r="375" transform="rotate(45 1395 224.5)" fill="#28D3BE"/>
<path fill-rule="evenodd" clip-rule="evenodd" d="M1129.83 489.665C1276.28 636.112 1513.72 636.112 1660.16 489.665C1806.61 343.218 1806.61 105.782 1660.16 -40.665L1129.83 489.665Z" fill="#1DD1BB"/>
<path fill-rule="evenodd" clip-rule="evenodd" d="M1660.17 -40.6649C1513.72 -187.112 1276.28 -187.112 1129.84 -40.665C983.388 105.782 983.388 343.218 1129.83 489.665L1660.17 -40.6649Z" fill="#5CD1C3"/>
<circle cx="1395" cy="224.5" r="375" transform="rotate(45 1395 224.5)" fill="url(#paint0_linear)"/>
<g clip-path="url(#clip1)">
<path d="M1208.64 140.344L1208.68 140.338L1203.09 107.66L1172.18 117.479L1176.81 146.707C1175.21 145.7 1173.32 145.292 1171.45 145.556C1169.58 145.82 1167.87 146.739 1166.62 148.148C1165.37 149.557 1164.66 151.366 1164.62 153.249C1164.58 155.133 1165.21 156.97 1166.4 158.432C1167.59 159.893 1169.26 160.885 1171.11 161.228C1172.97 161.572 1174.88 161.246 1176.52 160.308C1178.15 159.37 1179.4 157.881 1180.04 156.108C1180.67 154.335 1180.66 152.393 1180 150.629L1180.03 150.624L1175.06 119.258L1201.06 111L1205.48 136.832C1203.84 135.867 1201.92 135.519 1200.06 135.85C1198.19 136.181 1196.51 137.169 1195.31 138.636C1194.11 140.102 1193.47 141.95 1193.52 143.844C1193.56 145.738 1194.29 147.554 1195.55 148.961C1196.82 150.368 1198.55 151.274 1200.43 151.515C1202.31 151.756 1204.22 151.315 1205.8 150.273C1207.38 149.231 1208.54 147.657 1209.06 145.835C1209.58 144.014 1209.43 142.066 1208.64 140.344Z" fill="#6C63FF"/>
<path d="M1509.42 182.743L1509.46 182.747L1513.19 149.805L1480.77 150.634L1477.07 179.994C1475.83 178.584 1474.12 177.663 1472.25 177.398C1470.38 177.132 1468.49 177.538 1466.89 178.544C1465.3 179.55 1464.11 181.089 1463.55 182.887C1462.99 184.685 1463.08 186.625 1463.82 188.36C1464.55 190.095 1465.88 191.512 1467.57 192.358C1469.25 193.203 1471.18 193.423 1473.01 192.977C1474.84 192.531 1476.45 191.448 1477.56 189.923C1478.67 188.397 1479.19 186.528 1479.05 184.649L1479.08 184.653L1483.04 153.145L1510.3 152.447L1507.36 178.488C1506.06 177.108 1504.31 176.238 1502.43 176.037C1500.54 175.835 1498.65 176.316 1497.09 177.39C1495.53 178.465 1494.41 180.063 1493.92 181.895C1493.44 183.727 1493.63 185.672 1494.45 187.377C1495.28 189.081 1496.69 190.433 1498.43 191.188C1500.17 191.942 1502.12 192.049 1503.93 191.488C1505.74 190.928 1507.29 189.738 1508.3 188.133C1509.3 186.529 1509.7 184.617 1509.42 182.743Z" fill="#6C63FF"/>
<path d="M1250.85 176.296L1250.87 176.293L1246.89 151.126L1244.93 151.437L1248.38 173.255C1247.14 172.474 1245.67 172.158 1244.22 172.363C1242.78 172.567 1241.45 173.28 1240.48 174.373C1239.51 175.465 1238.96 176.867 1238.93 178.328C1238.9 179.789 1239.39 181.213 1240.31 182.346C1241.23 183.48 1242.53 184.248 1243.96 184.514C1245.4 184.781 1246.88 184.528 1248.15 183.801C1249.42 183.073 1250.39 181.919 1250.88 180.544C1251.38 179.17 1251.37 177.664 1250.85 176.296Z" fill="#6C63FF"/>
<path d="M1436.98 167.921C1436.63 166.602 1435.85 165.438 1434.76 164.611C1433.68 163.783 1432.35 163.34 1430.99 163.351C1429.62 163.362 1428.3 163.827 1427.23 164.671C1426.16 165.516 1425.4 166.693 1425.07 168.017C1424.74 169.34 1424.86 170.736 1425.41 171.983C1425.96 173.231 1426.92 174.26 1428.12 174.907C1429.32 175.555 1430.7 175.785 1432.04 175.561C1433.39 175.337 1434.62 174.672 1435.55 173.67L1437.86 195.638L1439.84 195.43L1437.17 170.09L1437.15 170.092C1437.22 169.364 1437.16 168.628 1436.98 167.921Z" fill="#6C63FF"/>
<path d="M1308.07 539.082L1319.73 556.56L1337.2 542.967L1325.55 528.401L1308.07 539.082Z" fill="#FFB8B8"/>
<path d="M1321.98 547.182C1321.98 547.182 1305.29 547.958 1309.99 556.779C1314.7 565.6 1318.37 615.373 1331.79 612.489C1345.22 609.605 1357.39 594.35 1357.24 583.848C1357.09 573.347 1355.41 568.792 1355.41 568.792C1355.41 568.792 1351.81 561.841 1354.21 559.921C1356.6 558.002 1357.51 545.869 1351.8 542.18C1346.09 538.49 1329.59 533.607 1329.59 533.607C1329.59 533.607 1327.92 548.714 1321.98 547.182Z" fill="#2F2E41"/>
<path d="M1330.41 579.863L1326.52 601.225L1346.91 603.166V586.66L1330.41 579.863Z" fill="#FFB8B8"/>
<path d="M1288.65 290.512C1288.65 290.512 1277.97 326.439 1275.06 347.8C1275.06 347.8 1216.8 426.449 1227.48 460.433C1238.16 494.418 1269.24 562.386 1269.24 562.386C1269.24 562.386 1321.67 541.025 1332.35 529.373L1293.51 474.027C1293.51 474.027 1299.34 467.23 1290.6 463.346C1281.86 459.462 1289.63 454.608 1289.63 454.608C1289.63 454.608 1306.13 399.262 1322.64 393.436L1379.93 381.784C1379.93 381.784 1376.04 299.251 1362.45 284.687C1362.45 284.687 1294.48 285.658 1288.65 290.512Z" fill="#2F2E41"/>
<path d="M1335.26 592.486C1335.26 592.486 1325.55 578.892 1320.7 587.631C1315.84 596.37 1276.03 626.47 1285.74 636.18C1295.45 645.89 1314.87 647.832 1323.61 642.006C1332.35 636.18 1335.26 632.296 1335.26 632.296C1335.26 632.296 1339.15 625.499 1342.06 626.47C1344.97 627.441 1355.65 621.615 1355.65 614.818C1355.65 608.022 1350.8 591.515 1350.8 591.515C1350.8 591.515 1337.2 598.312 1335.26 592.486Z" fill="#2F2E41"/>
<path d="M1320.7 386.639L1334.29 504.128C1334.29 504.128 1326.52 537.141 1324.58 562.386C1322.64 587.632 1324.58 586.661 1324.58 586.661C1324.58 586.661 1368.28 604.138 1376.04 592.486C1383.81 580.835 1379.93 381.784 1379.93 381.784L1356.62 360.423L1320.7 386.639Z" fill="#2F2E41"/>
<path d="M1296.99 124.352C1307.07 100.568 1332.73 96.0765 1332.73 96.0765C1332.73 96.0765 1357.44 89.4854 1378.07 120.875C1397.3 150.133 1422.1 177.546 1390.65 189.224L1382.34 171.776L1381.35 191.856C1376.77 192.808 1372.15 193.51 1367.5 193.957C1332.62 197.501 1299.73 203.394 1299.12 190.786C1298.31 174.026 1287.29 147.237 1296.99 124.352Z" fill="#2F2E41"/>
<path d="M1338.17 171.082C1353.73 171.082 1366.33 158.475 1366.33 142.924C1366.33 127.373 1353.73 114.766 1338.17 114.766C1322.62 114.766 1310.02 127.373 1310.02 142.924C1310.02 158.475 1322.62 171.082 1338.17 171.082Z" fill="#FFB8B8"/>
<path d="M1329.92 160.886C1329.92 160.886 1329.44 189.53 1326.52 196.327C1323.61 203.124 1378.47 190.987 1378.47 190.987C1378.47 190.987 1359.05 177.393 1356.14 158.944L1329.92 160.886Z" fill="#FFB8B8"/>
<path d="M1334.29 184.676L1328.99 180.775L1291.57 182.734L1283.8 268.18C1283.8 268.18 1261.47 294.396 1288.65 294.396C1315.84 294.396 1341.09 281.773 1360.51 290.512C1379.93 299.251 1396.43 198.269 1396.43 198.269L1367.4 180.775C1367.4 180.775 1354.68 196.327 1334.29 184.676Z" fill="#575A89"/>
<path d="M1302.25 253.615L1356.62 265.267V277.89L1302.25 279.832C1302.25 279.832 1296.42 257.499 1302.25 253.615Z" fill="#FFB8B8"/>
<path d="M1302.25 187.588L1291.57 182.733C1291.57 182.733 1278.95 185.646 1277.97 196.327C1277 207.008 1258.55 275.947 1273.12 278.86C1287.68 281.773 1307.1 281.773 1307.1 281.773C1307.1 281.773 1294.48 264.295 1310.02 254.586L1298.36 248.76C1298.36 248.76 1286.71 222.543 1294.48 208.95C1302.25 195.356 1302.25 187.588 1302.25 187.588Z" fill="#575A89"/>
<path d="M1302.69 115.711L1328.41 102.241L1363.92 107.752L1371.27 140.202L1352.98 139.499L1347.87 127.577V139.302L1339.43 138.978L1334.53 119.997L1331.47 140.202L1301.47 139.59L1302.69 115.711Z" fill="#2F2E41"/>
<path d="M1366.5 149.24C1369.36 149.24 1371.67 145.183 1371.67 140.178C1371.67 135.173 1369.36 131.115 1366.5 131.115C1363.64 131.115 1361.32 135.173 1361.32 140.178C1361.32 145.183 1363.64 149.24 1366.5 149.24Z" fill="#FFB8B8"/>
<path d="M1366.99 146.594C1368.94 146.594 1370.53 145.011 1370.53 143.06C1370.53 141.108 1368.94 139.525 1366.99 139.525C1365.04 139.525 1363.46 141.108 1363.46 143.06C1363.46 145.011 1365.04 146.594 1366.99 146.594Z" fill="white"/>
<path d="M1368.51 144.251C1368.83 144.251 1369.08 143.479 1369.08 142.527C1369.08 141.575 1368.83 140.804 1368.51 140.804C1368.19 140.804 1367.94 141.575 1367.94 142.527C1367.94 143.479 1368.19 144.251 1368.51 144.251Z" fill="#2F2E41"/>
<path d="M1368.42 153.317C1368.18 153.317 1367.95 153.222 1367.78 153.052C1367.61 152.883 1367.51 152.653 1367.51 152.413L1366.61 145.18H1369.32V152.413C1369.32 152.532 1369.3 152.649 1369.25 152.759C1369.21 152.869 1369.14 152.968 1369.06 153.052C1368.97 153.136 1368.87 153.203 1368.76 153.248C1368.66 153.294 1368.54 153.317 1368.42 153.317Z" fill="white"/>
<path opacity="0.1" d="M1297.9 213.933L1288.73 253.665H1310.13L1293.32 249.844L1297.9 213.933Z" fill="black"/>
<path d="M1408.36 279.568L1408.16 279.385L1413.17 273.816C1413.56 273.393 1413.85 272.898 1414.04 272.361C1414.23 271.824 1414.31 271.255 1414.28 270.686C1414.25 270.117 1414.11 269.56 1413.87 269.045C1413.62 268.531 1413.28 268.07 1412.86 267.688L1401.06 257.055C1400.63 256.674 1400.14 256.379 1399.6 256.189C1399.07 255.999 1398.5 255.916 1397.93 255.945C1397.36 255.975 1396.8 256.116 1396.29 256.361C1395.77 256.606 1395.31 256.95 1394.93 257.374L1367.4 287.924C1367.02 288.347 1366.72 288.841 1366.53 289.378C1366.34 289.915 1366.26 290.485 1366.29 291.054C1366.32 291.623 1366.46 292.18 1366.7 292.695C1366.95 293.209 1367.29 293.67 1367.71 294.052L1379.51 304.685C1379.94 305.066 1380.43 305.361 1380.97 305.551C1381.5 305.741 1382.07 305.824 1382.64 305.795C1383.21 305.765 1383.77 305.624 1384.28 305.379C1384.8 305.134 1385.26 304.79 1385.64 304.366L1404.58 283.349L1404.79 283.532L1408.36 279.568Z" fill="#3F3D56"/>
<path d="M1399.1 274.086C1400.65 274.086 1401.9 272.834 1401.9 271.29C1401.9 269.746 1400.65 268.494 1399.1 268.494C1397.56 268.494 1396.31 269.746 1396.31 271.29C1396.31 272.834 1397.56 274.086 1399.1 274.086Z" fill="#6C63FF"/>
<path d="M1379.71 269.604C1379.71 269.604 1412.81 277.616 1405.19 289.038C1397.56 300.46 1367.45 279.583 1367.45 279.583L1379.71 269.604Z" fill="#FFB8B8"/>
<path d="M1387.69 198.27H1396.43C1396.43 198.27 1406.14 208.95 1404.2 218.66C1402.26 228.37 1396.43 274.006 1396.43 274.006C1396.43 274.006 1367.3 301.193 1352.74 286.628C1338.17 272.064 1348.86 258.47 1348.86 258.47C1348.86 258.47 1368.28 274.006 1378.96 253.615L1387.69 198.27Z" fill="#575A89"/>
<path d="M1379.01 264.469L1385.7 198.396C1385.7 198.396 1399.73 156.683 1386.03 155.661C1372.34 154.638 1371.38 195.188 1371.38 195.188L1347.53 267.489C1347.53 267.489 1360.62 280.309 1379.01 264.469Z" fill="#FFB8B8"/>
<path fill-rule="evenodd" clip-rule="evenodd" d="M1332.73 96.0765C1332.73 96.0765 1307.07 100.568 1296.99 124.352C1290.14 140.532 1293.63 158.664 1296.56 173.823C1297.13 176.806 1297.69 179.674 1298.14 182.39L1291.57 182.734L1291.57 182.734C1291.57 182.734 1278.95 185.647 1277.97 196.328C1277.76 198.688 1276.69 203.895 1275.31 210.606L1275.31 210.606L1275.31 210.606L1275.31 210.606L1275.31 210.606L1275.31 210.606C1270.46 234.258 1261.77 276.592 1273.12 278.861C1274.29 279.094 1275.49 279.309 1276.71 279.507C1273.81 286.413 1273.82 293.992 1287.53 294.38C1284.71 304.231 1277.39 330.688 1275.06 347.8C1275.06 347.8 1216.8 426.449 1227.48 460.433C1238.16 494.417 1269.24 562.386 1269.24 562.386C1269.24 562.386 1292.24 553.011 1310.88 543.296L1314.42 548.602C1310.75 549.881 1307.6 552.287 1309.99 556.779C1311.47 559.544 1312.84 566.332 1314.44 574.262C1315.53 579.627 1316.72 585.515 1318.12 591.031C1315.77 593.694 1312.29 597.096 1308.43 600.859C1295.75 613.236 1279.08 629.514 1285.74 636.18C1295.45 645.89 1314.87 647.832 1323.61 642.006C1332.35 636.18 1335.26 632.296 1335.26 632.296C1335.26 632.296 1339.15 625.499 1342.06 626.47C1344.97 627.441 1355.65 621.615 1355.65 614.818C1355.65 610.638 1353.82 602.786 1352.4 597.359C1352.86 596.681 1353.29 595.996 1353.69 595.308C1363.53 597.142 1372.84 597.291 1376.04 592.486C1383.81 580.834 1379.93 381.784 1379.93 381.784C1379.93 381.784 1377 319.62 1367.34 293.672C1367.46 293.805 1367.58 293.932 1367.71 294.051L1379.51 304.684C1379.94 305.066 1380.43 305.36 1380.97 305.55C1381.5 305.741 1382.07 305.824 1382.64 305.794C1383.21 305.765 1383.77 305.623 1384.28 305.378C1384.8 305.133 1385.26 304.789 1385.64 304.366L1396.42 292.408C1400.16 292.68 1403.34 291.81 1405.19 289.038C1406.69 286.788 1406.61 284.67 1405.52 282.72L1408.36 279.567L1408.16 279.384L1413.17 273.816C1413.56 273.392 1413.85 272.898 1414.04 272.361C1414.23 271.824 1414.31 271.255 1414.28 270.686C1414.25 270.117 1414.11 269.559 1413.87 269.045C1413.62 268.53 1413.28 268.069 1412.86 267.688L1401.06 257.055C1400.63 256.673 1400.14 256.379 1399.6 256.189C1399.34 256.094 1399.06 256.026 1398.79 255.985C1400.63 242.083 1403.07 224.303 1404.2 218.66C1406.14 208.95 1396.43 198.269 1396.43 198.269L1387.4 192.827C1387.95 190.916 1388.57 188.624 1389.18 186.128L1390.65 189.224C1417.99 179.073 1402.83 157.037 1385.77 132.233L1385.77 132.233L1385.77 132.233L1385.77 132.232L1385.77 132.232L1385.77 132.232C1383.2 128.499 1380.59 124.703 1378.07 120.875C1357.44 89.4854 1332.73 96.0765 1332.73 96.0765ZM1366.22 290.742C1366.2 290.744 1366.18 290.747 1366.16 290.749C1366.2 290.847 1366.24 290.946 1366.29 291.045C1366.28 290.941 1366.28 290.837 1366.28 290.733C1366.26 290.736 1366.24 290.739 1366.22 290.742ZM1208.64 140.344L1208.68 140.337L1203.09 107.66L1172.18 117.479L1176.81 146.706C1175.21 145.699 1173.32 145.291 1171.45 145.555C1169.58 145.819 1167.87 146.738 1166.62 148.148C1165.37 149.557 1164.66 151.365 1164.62 153.249C1164.58 155.133 1165.21 156.97 1166.4 158.431C1167.59 159.893 1169.26 160.884 1171.11 161.228C1172.97 161.571 1174.88 161.245 1176.52 160.307C1178.15 159.369 1179.4 157.881 1180.04 156.108C1180.67 154.335 1180.66 152.393 1180 150.628L1180.03 150.624L1175.06 119.258L1201.06 111L1205.48 136.831C1203.84 135.867 1201.92 135.518 1200.06 135.849C1198.19 136.18 1196.51 137.169 1195.31 138.635C1194.11 140.102 1193.47 141.95 1193.52 143.844C1193.56 145.738 1194.29 147.553 1195.55 148.96C1196.82 150.367 1198.55 151.274 1200.43 151.514C1202.31 151.755 1204.22 151.315 1205.8 150.273C1207.38 149.231 1208.54 147.656 1209.06 145.835C1209.58 144.013 1209.43 142.065 1208.64 140.344ZM1509.42 182.743L1509.46 182.747L1513.19 149.805L1480.77 150.634L1477.07 179.994C1475.83 178.584 1474.12 177.663 1472.25 177.398C1470.38 177.132 1468.49 177.538 1466.89 178.544C1465.3 179.55 1464.11 181.089 1463.55 182.887C1462.99 184.685 1463.08 186.625 1463.82 188.36C1464.55 190.095 1465.88 191.512 1467.57 192.358C1469.25 193.203 1471.18 193.423 1473.01 192.977C1474.84 192.531 1476.45 191.448 1477.56 189.923C1478.67 188.397 1479.19 186.528 1479.05 184.649L1479.08 184.653L1483.04 153.145L1510.3 152.447L1507.36 178.488C1506.06 177.108 1504.31 176.238 1502.43 176.037C1500.54 175.835 1498.65 176.316 1497.09 177.39C1495.53 178.465 1494.41 180.063 1493.92 181.895C1493.44 183.727 1493.63 185.672 1494.45 187.377C1495.28 189.081 1496.69 190.433 1498.43 191.188C1500.17 191.942 1502.12 192.049 1503.93 191.488C1505.74 190.928 1507.29 189.738 1508.3 188.133C1509.3 186.529 1509.7 184.617 1509.42 182.743ZM1250.87 176.293L1250.85 176.296C1251.37 177.664 1251.38 179.17 1250.88 180.544C1250.39 181.919 1249.42 183.073 1248.15 183.801C1246.88 184.528 1245.4 184.781 1243.96 184.514C1242.53 184.248 1241.23 183.48 1240.31 182.346C1239.39 181.213 1238.9 179.789 1238.93 178.328C1238.96 176.867 1239.51 175.465 1240.48 174.373C1241.45 173.28 1242.78 172.567 1244.22 172.363C1245.67 172.158 1247.14 172.474 1248.38 173.255L1244.93 151.437L1246.89 151.126L1250.87 176.293ZM1436.98 167.921C1436.63 166.602 1435.85 165.438 1434.76 164.611C1433.68 163.783 1432.35 163.34 1430.99 163.351C1429.62 163.362 1428.3 163.827 1427.23 164.671C1426.16 165.516 1425.4 166.693 1425.07 168.017C1424.74 169.34 1424.86 170.736 1425.41 171.983C1425.96 173.231 1426.92 174.26 1428.12 174.907C1429.32 175.555 1430.7 175.785 1432.04 175.561C1433.39 175.337 1434.62 174.672 1435.55 173.67L1437.86 195.638L1439.84 195.43L1437.17 170.09L1437.15 170.092C1437.22 169.364 1437.16 168.628 1436.98 167.921ZM1334.29 504.127C1334.29 504.127 1332.13 513.33 1329.8 525.734L1293.51 474.027C1293.51 474.027 1299.34 467.23 1290.6 463.346C1281.86 459.462 1289.63 454.607 1289.63 454.607C1289.63 454.607 1305.41 401.698 1321.54 393.897L1334.29 504.127Z" fill="url(#paint1_linear)"/>
</g>
</g>
<defs>
<linearGradient id="paint0_linear" x1="1020" y1="-150.5" x2="1883.99" y2="429.766" gradientUnits="userSpaceOnUse">
<stop stop-color="white" stop-opacity="0.2"/>
<stop offset="1" stop-color="white" stop-opacity="0"/>
</linearGradient>
<linearGradient id="paint1_linear" x1="1164.62" y1="645.283" x2="1507.88" y2="602.529" gradientUnits="userSpaceOnUse">
<stop stop-color="white" stop-opacity="0.2"/>
<stop offset="1" stop-color="white" stop-opacity="0"/>
</linearGradient>
<clipPath id="clip0">
<rect width="1620" height="695" fill="white" transform="translate(0 0.5)"/>
</clipPath>
<clipPath id="clip1">
<rect width="354.942" height="550" fill="white" transform="translate(1164.62 95.5)"/>
</clipPath>
</defs>
</svg>
