<svg width="1620" height="696" viewBox="0 0 1620 696" fill="none" xmlns="http://www.w3.org/2000/svg">
<g clip-path="url(#clip0)">
<rect width="1620" height="695" transform="translate(0 0.5)" fill="white"/>
<path d="M174.165 285L159.28 330.5H147.97L137.96 299.69L127.625 330.5H116.38L101.43 285H112.35L122.62 316.98L133.345 285H143.095L153.495 317.24L164.09 285H174.165ZM191.481 295.01C196.898 295.01 201.058 296.31 203.961 298.91C206.864 301.467 208.316 305.345 208.316 310.545V330.5H198.826V326.145C196.919 329.395 193.366 331.02 188.166 331.02C185.479 331.02 183.139 330.565 181.146 329.655C179.196 328.745 177.701 327.488 176.661 325.885C175.621 324.282 175.101 322.462 175.101 320.425C175.101 317.175 176.314 314.618 178.741 312.755C181.211 310.892 185.003 309.96 190.116 309.96H198.176C198.176 307.75 197.504 306.06 196.161 304.89C194.818 303.677 192.803 303.07 190.116 303.07C188.253 303.07 186.411 303.373 184.591 303.98C182.814 304.543 181.298 305.323 180.041 306.32L176.401 299.235C178.308 297.892 180.583 296.852 183.226 296.115C185.913 295.378 188.664 295.01 191.481 295.01ZM190.701 324.195C192.434 324.195 193.973 323.805 195.316 323.025C196.659 322.202 197.613 321.01 198.176 319.45V315.875H191.221C187.061 315.875 184.981 317.24 184.981 319.97C184.981 321.27 185.479 322.31 186.476 323.09C187.516 323.827 188.924 324.195 190.701 324.195ZM240.698 328.81C239.701 329.547 238.466 330.11 236.993 330.5C235.563 330.847 234.046 331.02 232.443 331.02C228.283 331.02 225.055 329.958 222.758 327.835C220.505 325.712 219.378 322.592 219.378 318.475V304.11H213.983V296.31H219.378V287.795H229.518V296.31H238.228V304.11H229.518V318.345C229.518 319.818 229.886 320.967 230.623 321.79C231.403 322.57 232.486 322.96 233.873 322.96C235.476 322.96 236.841 322.527 237.968 321.66L240.698 328.81ZM262.861 331.02C259.134 331.02 255.776 330.262 252.786 328.745C249.839 327.185 247.521 325.04 245.831 322.31C244.184 319.58 243.361 316.482 243.361 313.015C243.361 309.548 244.184 306.45 245.831 303.72C247.521 300.99 249.839 298.867 252.786 297.35C255.776 295.79 259.134 295.01 262.861 295.01C266.544 295.01 269.751 295.79 272.481 297.35C275.254 298.867 277.269 301.055 278.526 303.915L270.661 308.14C268.841 304.933 266.219 303.33 262.796 303.33C260.153 303.33 257.964 304.197 256.231 305.93C254.498 307.663 253.631 310.025 253.631 313.015C253.631 316.005 254.498 318.367 256.231 320.1C257.964 321.833 260.153 322.7 262.796 322.7C266.263 322.7 268.884 321.097 270.661 317.89L278.526 322.18C277.269 324.953 275.254 327.12 272.481 328.68C269.751 330.24 266.544 331.02 262.861 331.02ZM306.015 295.01C310.349 295.01 313.837 296.31 316.48 298.91C319.167 301.51 320.51 305.367 320.51 310.48V330.5H310.37V312.04C310.37 309.267 309.764 307.208 308.55 305.865C307.337 304.478 305.582 303.785 303.285 303.785C300.729 303.785 298.692 304.587 297.175 306.19C295.659 307.75 294.9 310.09 294.9 313.21V330.5H284.76V282.27H294.9V299.17C296.244 297.827 297.869 296.808 299.775 296.115C301.682 295.378 303.762 295.01 306.015 295.01ZM394.195 295.01C398.572 295.01 402.038 296.31 404.595 298.91C407.195 301.467 408.495 305.323 408.495 310.48V330.5H398.355V312.04C398.355 309.267 397.77 307.208 396.6 305.865C395.473 304.478 393.848 303.785 391.725 303.785C389.342 303.785 387.457 304.565 386.07 306.125C384.683 307.642 383.99 309.917 383.99 312.95V330.5H373.85V312.04C373.85 306.537 371.64 303.785 367.22 303.785C364.88 303.785 363.017 304.565 361.63 306.125C360.243 307.642 359.55 309.917 359.55 312.95V330.5H349.41V295.53H359.095V299.56C360.395 298.087 361.977 296.96 363.84 296.18C365.747 295.4 367.827 295.01 370.08 295.01C372.55 295.01 374.782 295.508 376.775 296.505C378.768 297.458 380.372 298.867 381.585 300.73C383.015 298.91 384.813 297.502 386.98 296.505C389.19 295.508 391.595 295.01 394.195 295.01ZM452.309 295.53L436.514 332.645C434.911 336.675 432.917 339.513 430.534 341.16C428.194 342.807 425.356 343.63 422.019 343.63C420.199 343.63 418.401 343.348 416.624 342.785C414.847 342.222 413.396 341.442 412.269 340.445L415.974 333.23C416.754 333.923 417.642 334.465 418.639 334.855C419.679 335.245 420.697 335.44 421.694 335.44C423.081 335.44 424.207 335.093 425.074 334.4C425.941 333.75 426.721 332.645 427.414 331.085L427.544 330.76L412.399 295.53H422.864L432.679 319.255L442.559 295.53H452.309ZM510.865 295.53L496.11 330.5H485.645L470.955 295.53H481.42L491.105 319.32L501.115 295.53H510.865ZM515.653 295.53H525.793V330.5H515.653V295.53ZM520.723 290.655C518.859 290.655 517.343 290.113 516.173 289.03C515.003 287.947 514.418 286.603 514.418 285C514.418 283.397 515.003 282.053 516.173 280.97C517.343 279.887 518.859 279.345 520.723 279.345C522.586 279.345 524.103 279.865 525.273 280.905C526.443 281.945 527.028 283.245 527.028 284.805C527.028 286.495 526.443 287.903 525.273 289.03C524.103 290.113 522.586 290.655 520.723 290.655ZM571.473 282.27V330.5H561.788V326.47C559.275 329.503 555.635 331.02 550.868 331.02C547.575 331.02 544.585 330.283 541.898 328.81C539.255 327.337 537.175 325.235 535.658 322.505C534.142 319.775 533.383 316.612 533.383 313.015C533.383 309.418 534.142 306.255 535.658 303.525C537.175 300.795 539.255 298.693 541.898 297.22C544.585 295.747 547.575 295.01 550.868 295.01C555.332 295.01 558.82 296.418 561.333 299.235V282.27H571.473ZM552.623 322.7C555.18 322.7 557.303 321.833 558.993 320.1C560.683 318.323 561.528 315.962 561.528 313.015C561.528 310.068 560.683 307.728 558.993 305.995C557.303 304.218 555.18 303.33 552.623 303.33C550.023 303.33 547.878 304.218 546.188 305.995C544.498 307.728 543.653 310.068 543.653 313.015C543.653 315.962 544.498 318.323 546.188 320.1C547.878 321.833 550.023 322.7 552.623 322.7ZM615.763 313.145C615.763 313.275 615.698 314.185 615.568 315.875H589.113C589.59 318.042 590.717 319.753 592.493 321.01C594.27 322.267 596.48 322.895 599.123 322.895C600.943 322.895 602.547 322.635 603.933 322.115C605.363 321.552 606.685 320.685 607.898 319.515L613.293 325.365C610 329.135 605.19 331.02 598.863 331.02C594.92 331.02 591.432 330.262 588.398 328.745C585.365 327.185 583.025 325.04 581.378 322.31C579.732 319.58 578.908 316.482 578.908 313.015C578.908 309.592 579.71 306.515 581.313 303.785C582.96 301.012 585.192 298.867 588.008 297.35C590.868 295.79 594.053 295.01 597.563 295.01C600.987 295.01 604.085 295.747 606.858 297.22C609.632 298.693 611.798 300.817 613.358 303.59C614.962 306.32 615.763 309.505 615.763 313.145ZM597.628 302.68C595.332 302.68 593.403 303.33 591.843 304.63C590.283 305.93 589.33 307.707 588.983 309.96H606.208C605.862 307.75 604.908 305.995 603.348 304.695C601.788 303.352 599.882 302.68 597.628 302.68ZM639.804 331.02C636.121 331.02 632.806 330.262 629.859 328.745C626.956 327.185 624.681 325.04 623.034 322.31C621.388 319.58 620.564 316.482 620.564 313.015C620.564 309.548 621.388 306.45 623.034 303.72C624.681 300.99 626.956 298.867 629.859 297.35C632.806 295.79 636.121 295.01 639.804 295.01C643.488 295.01 646.781 295.79 649.684 297.35C652.588 298.867 654.863 300.99 656.509 303.72C658.156 306.45 658.979 309.548 658.979 313.015C658.979 316.482 658.156 319.58 656.509 322.31C654.863 325.04 652.588 327.185 649.684 328.745C646.781 330.262 643.488 331.02 639.804 331.02ZM639.804 322.7C642.404 322.7 644.528 321.833 646.174 320.1C647.864 318.323 648.709 315.962 648.709 313.015C648.709 310.068 647.864 307.728 646.174 305.995C644.528 304.218 642.404 303.33 639.804 303.33C637.204 303.33 635.059 304.218 633.369 305.995C631.679 307.728 630.834 310.068 630.834 313.015C630.834 315.962 631.679 318.323 633.369 320.1C635.059 321.833 637.204 322.7 639.804 322.7ZM678.172 331.02C675.269 331.02 672.43 330.673 669.657 329.98C666.884 329.243 664.674 328.333 663.027 327.25L666.407 319.97C667.967 320.967 669.852 321.79 672.062 322.44C674.272 323.047 676.439 323.35 678.562 323.35C682.852 323.35 684.997 322.288 684.997 320.165C684.997 319.168 684.412 318.453 683.242 318.02C682.072 317.587 680.274 317.218 677.847 316.915C674.987 316.482 672.625 315.983 670.762 315.42C668.899 314.857 667.274 313.86 665.887 312.43C664.544 311 663.872 308.963 663.872 306.32C663.872 304.11 664.5 302.16 665.757 300.47C667.057 298.737 668.92 297.393 671.347 296.44C673.817 295.487 676.72 295.01 680.057 295.01C682.527 295.01 684.975 295.292 687.402 295.855C689.872 296.375 691.909 297.112 693.512 298.065L690.132 305.28C687.055 303.547 683.697 302.68 680.057 302.68C677.89 302.68 676.265 302.983 675.182 303.59C674.099 304.197 673.557 304.977 673.557 305.93C673.557 307.013 674.142 307.772 675.312 308.205C676.482 308.638 678.345 309.05 680.902 309.44C683.762 309.917 686.102 310.437 687.922 311C689.742 311.52 691.324 312.495 692.667 313.925C694.01 315.355 694.682 317.348 694.682 319.905C694.682 322.072 694.032 324 692.732 325.69C691.432 327.38 689.525 328.702 687.012 329.655C684.542 330.565 681.595 331.02 678.172 331.02ZM127.235 409.81C126.238 410.547 125.003 411.11 123.53 411.5C122.1 411.847 120.583 412.02 118.98 412.02C114.82 412.02 111.592 410.958 109.295 408.835C107.042 406.712 105.915 403.592 105.915 399.475V385.11H100.52V377.31H105.915V368.795H116.055V377.31H124.765V385.11H116.055V399.345C116.055 400.818 116.423 401.967 117.16 402.79C117.94 403.57 119.023 403.96 120.41 403.96C122.013 403.96 123.378 403.527 124.505 402.66L127.235 409.81ZM149.138 412.02C145.455 412.02 142.14 411.262 139.193 409.745C136.29 408.185 134.015 406.04 132.368 403.31C130.721 400.58 129.898 397.482 129.898 394.015C129.898 390.548 130.721 387.45 132.368 384.72C134.015 381.99 136.29 379.867 139.193 378.35C142.14 376.79 145.455 376.01 149.138 376.01C152.821 376.01 156.115 376.79 159.018 378.35C161.921 379.867 164.196 381.99 165.843 384.72C167.49 387.45 168.313 390.548 168.313 394.015C168.313 397.482 167.49 400.58 165.843 403.31C164.196 406.04 161.921 408.185 159.018 409.745C156.115 411.262 152.821 412.02 149.138 412.02ZM149.138 403.7C151.738 403.7 153.861 402.833 155.508 401.1C157.198 399.323 158.043 396.962 158.043 394.015C158.043 391.068 157.198 388.728 155.508 386.995C153.861 385.218 151.738 384.33 149.138 384.33C146.538 384.33 144.393 385.218 142.703 386.995C141.013 388.728 140.168 391.068 140.168 394.015C140.168 396.962 141.013 399.323 142.703 401.1C144.393 402.833 146.538 403.7 149.138 403.7ZM194.799 363.27H204.939V411.5H194.799V363.27ZM249.255 394.145C249.255 394.275 249.19 395.185 249.06 396.875H222.605C223.081 399.042 224.208 400.753 225.985 402.01C227.761 403.267 229.971 403.895 232.615 403.895C234.435 403.895 236.038 403.635 237.425 403.115C238.855 402.552 240.176 401.685 241.39 400.515L246.785 406.365C243.491 410.135 238.681 412.02 232.355 412.02C228.411 412.02 224.923 411.262 221.89 409.745C218.856 408.185 216.516 406.04 214.87 403.31C213.223 400.58 212.4 397.482 212.4 394.015C212.4 390.592 213.201 387.515 214.805 384.785C216.451 382.012 218.683 379.867 221.5 378.35C224.36 376.79 227.545 376.01 231.055 376.01C234.478 376.01 237.576 376.747 240.35 378.22C243.123 379.693 245.29 381.817 246.85 384.59C248.453 387.32 249.255 390.505 249.255 394.145ZM231.12 383.68C228.823 383.68 226.895 384.33 225.335 385.63C223.775 386.93 222.821 388.707 222.475 390.96H239.7C239.353 388.75 238.4 386.995 236.84 385.695C235.28 384.352 233.373 383.68 231.12 383.68ZM269.808 376.01C275.225 376.01 279.385 377.31 282.288 379.91C285.192 382.467 286.643 386.345 286.643 391.545V411.5H277.153V407.145C275.247 410.395 271.693 412.02 266.493 412.02C263.807 412.02 261.467 411.565 259.473 410.655C257.523 409.745 256.028 408.488 254.988 406.885C253.948 405.282 253.428 403.462 253.428 401.425C253.428 398.175 254.642 395.618 257.068 393.755C259.538 391.892 263.33 390.96 268.443 390.96H276.503C276.503 388.75 275.832 387.06 274.488 385.89C273.145 384.677 271.13 384.07 268.443 384.07C266.58 384.07 264.738 384.373 262.918 384.98C261.142 385.543 259.625 386.323 258.368 387.32L254.728 380.235C256.635 378.892 258.91 377.852 261.553 377.115C264.24 376.378 266.992 376.01 269.808 376.01ZM269.028 405.195C270.762 405.195 272.3 404.805 273.643 404.025C274.987 403.202 275.94 402.01 276.503 400.45V396.875H269.548C265.388 396.875 263.308 398.24 263.308 400.97C263.308 402.27 263.807 403.31 264.803 404.09C265.843 404.827 267.252 405.195 269.028 405.195ZM306.156 381.145C307.369 379.455 308.994 378.177 311.031 377.31C313.111 376.443 315.494 376.01 318.181 376.01V385.37C317.054 385.283 316.296 385.24 315.906 385.24C313.002 385.24 310.727 386.063 309.081 387.71C307.434 389.313 306.611 391.74 306.611 394.99V411.5H296.471V376.53H306.156V381.145ZM346.115 376.01C350.448 376.01 353.937 377.31 356.58 379.91C359.267 382.51 360.61 386.367 360.61 391.48V411.5H350.47V393.04C350.47 390.267 349.863 388.208 348.65 386.865C347.437 385.478 345.682 384.785 343.385 384.785C340.828 384.785 338.792 385.587 337.275 387.19C335.758 388.75 335 391.09 335 394.21V411.5H324.86V376.53H334.545V380.625C335.888 379.152 337.557 378.025 339.55 377.245C341.543 376.422 343.732 376.01 346.115 376.01Z" fill="#2F2E44"/>
<path d="M117.97 96.49C117.97 96.55 117.94 96.97 117.88 97.75H105.67C105.89 98.75 106.41 99.54 107.23 100.12C108.05 100.7 109.07 100.99 110.29 100.99C111.13 100.99 111.87 100.87 112.51 100.63C113.17 100.37 113.78 99.97 114.34 99.43L116.83 102.13C115.31 103.87 113.09 104.74 110.17 104.74C108.35 104.74 106.74 104.39 105.34 103.69C103.94 102.97 102.86 101.98 102.1 100.72C101.34 99.46 100.96 98.03 100.96 96.43C100.96 94.85 101.33 93.43 102.07 92.17C102.83 90.89 103.86 89.9 105.16 89.2C106.48 88.48 107.95 88.12 109.57 88.12C111.15 88.12 112.58 88.46 113.86 89.14C115.14 89.82 116.14 90.8 116.86 92.08C117.6 93.34 117.97 94.81 117.97 96.49ZM109.6 91.66C108.54 91.66 107.65 91.96 106.93 92.56C106.21 93.16 105.77 93.98 105.61 95.02H113.56C113.4 94 112.96 93.19 112.24 92.59C111.52 91.97 110.64 91.66 109.6 91.66ZM131.196 88.12C133.196 88.12 134.806 88.72 136.026 89.92C137.266 91.12 137.886 92.9 137.886 95.26V104.5H133.206V95.98C133.206 94.7 132.926 93.75 132.366 93.13C131.806 92.49 130.996 92.17 129.936 92.17C128.756 92.17 127.816 92.54 127.116 93.28C126.416 94 126.066 95.08 126.066 96.52V104.5H121.386V88.36H125.856V90.25C126.476 89.57 127.246 89.05 128.166 88.69C129.086 88.31 130.096 88.12 131.196 88.12ZM159.254 88.36V101.8C159.254 104.76 158.484 106.96 156.944 108.4C155.404 109.84 153.154 110.56 150.194 110.56C148.634 110.56 147.154 110.37 145.754 109.99C144.354 109.61 143.194 109.06 142.274 108.34L144.134 104.98C144.814 105.54 145.674 105.98 146.714 106.3C147.754 106.64 148.794 106.81 149.834 106.81C151.454 106.81 152.644 106.44 153.404 105.7C154.184 104.98 154.574 103.88 154.574 102.4V101.71C153.354 103.05 151.654 103.72 149.474 103.72C147.994 103.72 146.634 103.4 145.394 102.76C144.174 102.1 143.204 101.18 142.484 100C141.764 98.82 141.404 97.46 141.404 95.92C141.404 94.38 141.764 93.02 142.484 91.84C143.204 90.66 144.174 89.75 145.394 89.11C146.634 88.45 147.994 88.12 149.474 88.12C151.814 88.12 153.594 88.89 154.814 90.43V88.36H159.254ZM150.404 99.88C151.644 99.88 152.654 99.52 153.434 98.8C154.234 98.06 154.634 97.1 154.634 95.92C154.634 94.74 154.234 93.79 153.434 93.07C152.654 92.33 151.644 91.96 150.404 91.96C149.164 91.96 148.144 92.33 147.344 93.07C146.544 93.79 146.144 94.74 146.144 95.92C146.144 97.1 146.544 98.06 147.344 98.8C148.144 99.52 149.164 99.88 150.404 99.88ZM163.91 82.24H168.59V104.5H163.91V82.24ZM173.233 88.36H177.913V104.5H173.233V88.36ZM175.573 86.11C174.713 86.11 174.013 85.86 173.473 85.36C172.933 84.86 172.663 84.24 172.663 83.5C172.663 82.76 172.933 82.14 173.473 81.64C174.013 81.14 174.713 80.89 175.573 80.89C176.433 80.89 177.133 81.13 177.673 81.61C178.213 82.09 178.483 82.69 178.483 83.41C178.483 84.19 178.213 84.84 177.673 85.36C177.133 85.86 176.433 86.11 175.573 86.11ZM187.986 104.74C186.646 104.74 185.336 104.58 184.056 104.26C182.776 103.92 181.756 103.5 180.996 103L182.556 99.64C183.276 100.1 184.146 100.48 185.166 100.78C186.186 101.06 187.186 101.2 188.166 101.2C190.146 101.2 191.136 100.71 191.136 99.73C191.136 99.27 190.866 98.94 190.326 98.74C189.786 98.54 188.956 98.37 187.836 98.23C186.516 98.03 185.426 97.8 184.566 97.54C183.706 97.28 182.956 96.82 182.316 96.16C181.696 95.5 181.386 94.56 181.386 93.34C181.386 92.32 181.676 91.42 182.256 90.64C182.856 89.84 183.716 89.22 184.836 88.78C185.976 88.34 187.316 88.12 188.856 88.12C189.996 88.12 191.126 88.25 192.246 88.51C193.386 88.75 194.326 89.09 195.066 89.53L193.506 92.86C192.086 92.06 190.536 91.66 188.856 91.66C187.856 91.66 187.106 91.8 186.606 92.08C186.106 92.36 185.856 92.72 185.856 93.16C185.856 93.66 186.126 94.01 186.666 94.21C187.206 94.41 188.066 94.6 189.246 94.78C190.566 95 191.646 95.24 192.486 95.5C193.326 95.74 194.056 96.19 194.676 96.85C195.296 97.51 195.606 98.43 195.606 99.61C195.606 100.61 195.306 101.5 194.706 102.28C194.106 103.06 193.226 103.67 192.066 104.11C190.926 104.53 189.566 104.74 187.986 104.74ZM208.604 88.12C210.604 88.12 212.214 88.72 213.434 89.92C214.674 91.12 215.294 92.9 215.294 95.26V104.5H210.614V95.98C210.614 94.7 210.334 93.75 209.774 93.13C209.214 92.49 208.404 92.17 207.344 92.17C206.164 92.17 205.224 92.54 204.524 93.28C203.824 94 203.474 95.08 203.474 96.52V104.5H198.794V82.24H203.474V90.04C204.094 89.42 204.844 88.95 205.724 88.63C206.604 88.29 207.564 88.12 208.604 88.12ZM229.646 88.12C231.646 88.12 233.256 88.72 234.476 89.92C235.716 91.12 236.336 92.9 236.336 95.26V104.5H231.656V95.98C231.656 94.7 231.376 93.75 230.816 93.13C230.256 92.49 229.446 92.17 228.386 92.17C227.206 92.17 226.266 92.54 225.566 93.28C224.866 94 224.516 95.08 224.516 96.52V104.5H219.836V88.36H224.306V90.25C224.926 89.57 225.696 89.05 226.616 88.69C227.536 88.31 228.546 88.12 229.646 88.12ZM256.864 96.49C256.864 96.55 256.834 96.97 256.774 97.75H244.564C244.784 98.75 245.304 99.54 246.124 100.12C246.944 100.7 247.964 100.99 249.184 100.99C250.024 100.99 250.764 100.87 251.404 100.63C252.064 100.37 252.674 99.97 253.234 99.43L255.724 102.13C254.204 103.87 251.984 104.74 249.064 104.74C247.244 104.74 245.634 104.39 244.234 103.69C242.834 102.97 241.754 101.98 240.994 100.72C240.234 99.46 239.854 98.03 239.854 96.43C239.854 94.85 240.224 93.43 240.964 92.17C241.724 90.89 242.754 89.9 244.054 89.2C245.374 88.48 246.844 88.12 248.464 88.12C250.044 88.12 251.474 88.46 252.754 89.14C254.034 89.82 255.034 90.8 255.754 92.08C256.494 93.34 256.864 94.81 256.864 96.49ZM248.494 91.66C247.434 91.66 246.544 91.96 245.824 92.56C245.104 93.16 244.664 93.98 244.504 95.02H252.454C252.294 94 251.854 93.19 251.134 92.59C250.414 91.97 249.534 91.66 248.494 91.66ZM264.75 90.49C265.31 89.71 266.06 89.12 267 88.72C267.96 88.32 269.06 88.12 270.3 88.12V92.44C269.78 92.4 269.43 92.38 269.25 92.38C267.91 92.38 266.86 92.76 266.1 93.52C265.34 94.26 264.96 95.38 264.96 96.88V104.5H260.28V88.36H264.75V90.49ZM289.676 82.24V104.5H285.206V102.64C284.046 104.04 282.366 104.74 280.166 104.74C278.646 104.74 277.266 104.4 276.026 103.72C274.806 103.04 273.846 102.07 273.146 100.81C272.446 99.55 272.096 98.09 272.096 96.43C272.096 94.77 272.446 93.31 273.146 92.05C273.846 90.79 274.806 89.82 276.026 89.14C277.266 88.46 278.646 88.12 280.166 88.12C282.226 88.12 283.836 88.77 284.996 90.07V82.24H289.676ZM280.976 100.9C282.156 100.9 283.136 100.5 283.916 99.7C284.696 98.88 285.086 97.79 285.086 96.43C285.086 95.07 284.696 93.99 283.916 93.19C283.136 92.37 282.156 91.96 280.976 91.96C279.776 91.96 278.786 92.37 278.006 93.19C277.226 93.99 276.836 95.07 276.836 96.43C276.836 97.79 277.226 98.88 278.006 99.7C278.786 100.5 279.776 100.9 280.976 100.9ZM296.078 104.74C295.258 104.74 294.568 104.46 294.008 103.9C293.448 103.34 293.168 102.64 293.168 101.8C293.168 100.94 293.448 100.25 294.008 99.73C294.568 99.19 295.258 98.92 296.078 98.92C296.898 98.92 297.588 99.19 298.148 99.73C298.708 100.25 298.988 100.94 298.988 101.8C298.988 102.64 298.708 103.34 298.148 103.9C297.588 104.46 296.898 104.74 296.078 104.74ZM309.934 104.74C308.234 104.74 306.704 104.39 305.344 103.69C304.004 102.97 302.954 101.98 302.194 100.72C301.434 99.46 301.054 98.03 301.054 96.43C301.054 94.83 301.434 93.4 302.194 92.14C302.954 90.88 304.004 89.9 305.344 89.2C306.704 88.48 308.234 88.12 309.934 88.12C311.634 88.12 313.154 88.48 314.494 89.2C315.834 89.9 316.884 90.88 317.644 92.14C318.404 93.4 318.784 94.83 318.784 96.43C318.784 98.03 318.404 99.46 317.644 100.72C316.884 101.98 315.834 102.97 314.494 103.69C313.154 104.39 311.634 104.74 309.934 104.74ZM309.934 100.9C311.134 100.9 312.114 100.5 312.874 99.7C313.654 98.88 314.044 97.79 314.044 96.43C314.044 95.07 313.654 93.99 312.874 93.19C312.114 92.37 311.134 91.96 309.934 91.96C308.734 91.96 307.744 92.37 306.964 93.19C306.184 93.99 305.794 95.07 305.794 96.43C305.794 97.79 306.184 98.88 306.964 99.7C307.744 100.5 308.734 100.9 309.934 100.9ZM326.682 90.49C327.242 89.71 327.992 89.12 328.932 88.72C329.892 88.32 330.992 88.12 332.232 88.12V92.44C331.712 92.4 331.362 92.38 331.182 92.38C329.842 92.38 328.792 92.76 328.032 93.52C327.272 94.26 326.892 95.38 326.892 96.88V104.5H322.212V88.36H326.682V90.49ZM351.819 88.36V101.8C351.819 104.76 351.049 106.96 349.509 108.4C347.969 109.84 345.719 110.56 342.759 110.56C341.199 110.56 339.719 110.37 338.319 109.99C336.919 109.61 335.759 109.06 334.839 108.34L336.699 104.98C337.379 105.54 338.239 105.98 339.279 106.3C340.319 106.64 341.359 106.81 342.399 106.81C344.019 106.81 345.209 106.44 345.969 105.7C346.749 104.98 347.139 103.88 347.139 102.4V101.71C345.919 103.05 344.219 103.72 342.039 103.72C340.559 103.72 339.199 103.4 337.959 102.76C336.739 102.1 335.769 101.18 335.049 100C334.329 98.82 333.969 97.46 333.969 95.92C333.969 94.38 334.329 93.02 335.049 91.84C335.769 90.66 336.739 89.75 337.959 89.11C339.199 88.45 340.559 88.12 342.039 88.12C344.379 88.12 346.159 88.89 347.379 90.43V88.36H351.819ZM342.969 99.88C344.209 99.88 345.219 99.52 345.999 98.8C346.799 98.06 347.199 97.1 347.199 95.92C347.199 94.74 346.799 93.79 345.999 93.07C345.219 92.33 344.209 91.96 342.969 91.96C341.729 91.96 340.709 92.33 339.909 93.07C339.109 93.79 338.709 94.74 338.709 95.92C338.709 97.1 339.109 98.06 339.909 98.8C340.709 99.52 341.729 99.88 342.969 99.88Z" fill="#848499"/>
<circle cx="1445" cy="175.5" r="375" fill="#6666FF"/>
<circle cx="1443.5" cy="177" r="262.5" fill="#8080FF"/>
<ellipse cx="1445" cy="175.5" rx="150" ry="150" fill="#9999FF"/>
<circle cx="1445" cy="175.5" r="375" fill="url(#paint0_linear)"/>
<g clip-path="url(#clip1)" filter="url(#filter0_d)">
<path d="M1414.76 607.225L1417.52 621.058L1403.69 623.825L1405.76 606.532L1414.76 607.225Z" fill="#FFB8B8"/>
<path d="M1471.38 604.708L1468.25 620.372L1455.36 620.683L1459.48 601.575L1471.38 604.708Z" fill="#FFB8B8"/>
<path d="M1491.92 443.781L1495.52 468.026C1495.52 468.026 1491.92 521.905 1491.03 524.599C1490.13 527.293 1487.43 540.763 1487.43 540.763L1472.17 605.418C1472.17 605.418 1458.95 607.214 1456.26 600.03L1456.9 561.417L1456.01 517.415L1445.23 467.128L1426.37 535.375C1426.37 535.375 1425.47 557.825 1422.78 565.907C1420.09 573.989 1416.49 609.01 1416.49 609.01C1416.49 609.01 1405.07 611.704 1404.18 609.01C1403.28 606.316 1398.53 542.559 1398.53 532.681C1398.53 522.804 1393.26 428.091 1393.26 428.091L1491.92 443.781Z" fill="#2F2E41"/>
<path d="M1459.5 619.479C1460.98 619.783 1462.51 619.783 1463.99 619.479C1465.67 618.918 1463.99 615.553 1463.99 615.553H1470.16C1470.16 615.553 1476.89 630.696 1479.69 631.817C1482.49 632.939 1491.47 645.277 1480.81 645.277C1474.24 645.193 1467.82 643.248 1462.3 639.669C1462.3 639.669 1461.18 634.621 1456.14 634.061C1451.09 633.5 1447.72 627.331 1447.72 627.331L1453.2 617.217C1453.36 616.931 1453.59 616.693 1453.87 616.527C1454.15 616.361 1454.47 616.273 1454.79 616.272C1455.12 616.271 1455.43 616.358 1455.71 616.523C1455.99 616.688 1456.23 616.926 1456.38 617.21C1457.14 618.556 1458.2 619.739 1459.5 619.479Z" fill="#2F2E41"/>
<path d="M1412.56 617.742C1412.56 617.742 1411.31 620.244 1410.06 618.993C1409.02 617.665 1408.17 616.189 1407.56 614.615C1407.56 614.615 1403.81 612.738 1403.18 614.615C1402.56 616.491 1400.05 626.498 1398.8 627.749C1397.55 629 1384.42 642.134 1397.55 644.636C1410.69 647.138 1413.19 641.509 1413.19 641.509C1413.19 641.509 1411.31 638.382 1415.06 637.131C1418.82 635.88 1419.44 631.502 1419.44 631.502L1417.56 617.366C1417.52 617.064 1417.39 616.782 1417.18 616.555C1416.98 616.328 1416.72 616.166 1416.42 616.09C1416.13 616.014 1415.82 616.027 1415.53 616.128C1415.24 616.229 1414.99 616.413 1414.81 616.657C1414.09 617.602 1413.28 618.22 1412.56 617.742Z" fill="#2F2E41"/>
<path d="M1512.58 380.922L1515.27 427.617C1515.27 427.617 1527.84 457.251 1510.78 456.353C1493.72 455.455 1504.5 426.719 1504.5 426.719L1487.79 385.044L1512.58 380.922Z" fill="#FFB8B8"/>
<path d="M1374.29 367.452L1371.59 414.147C1371.59 414.147 1359.02 443.781 1376.08 442.883C1393.15 441.985 1382.37 413.249 1382.37 413.249L1399.08 371.574L1374.29 367.452Z" fill="#FFB8B8"/>
<path d="M1446.13 265.98C1459.02 265.98 1469.47 255.527 1469.47 242.632C1469.47 229.738 1459.02 219.285 1446.13 219.285C1433.23 219.285 1422.78 229.738 1422.78 242.632C1422.78 255.527 1433.23 265.98 1446.13 265.98Z" fill="#FFB8B8"/>
<path d="M1464.54 252.061C1464.54 252.061 1458.25 277.205 1470.82 283.49C1483.39 289.776 1431.31 298.756 1427.72 283.49L1429.51 276.307C1429.51 276.307 1436.7 267.327 1434.9 259.245L1464.54 252.061Z" fill="#FFB8B8"/>
<path d="M1450.62 283.94C1450.62 283.94 1435.12 285.387 1430.3 275.234C1430.3 275.234 1394.04 277.654 1385.96 310.879C1395.34 311.148 1406.98 417.878 1391.6 428.515C1379.13 437.15 1413.14 450.45 1460.5 450.965L1496.41 449.169C1489.72 443.399 1473.69 368.308 1483.84 369.248C1483.84 369.248 1510.78 327.043 1508.09 320.757C1505.39 314.471 1501.08 289.686 1466.42 279.629C1466.42 279.629 1465.88 284.838 1450.62 283.94Z" fill="#E6E6E6"/>
<path d="M1496.41 305.491L1508.09 320.757C1508.09 320.757 1519.76 384.514 1516.17 385.412C1512.58 386.31 1491.03 393.494 1487.43 390.8C1483.84 388.106 1467.68 335.125 1467.68 335.125L1496.41 305.491Z" fill="#E6E6E6"/>
<path d="M1401.23 301.001L1385.96 310.879C1385.96 310.879 1363.51 373.738 1369.8 376.432C1376.08 379.126 1411.11 377.33 1411.11 377.33L1401.23 301.001Z" fill="#E6E6E6"/>
<path d="M1471.65 221.738C1471.65 221.738 1463.56 204.216 1448.06 208.26C1432.56 212.303 1423.8 218.368 1423.13 224.433C1422.45 230.499 1423.46 239.597 1423.46 239.597C1423.46 239.597 1425.15 227.129 1435.93 229.825C1446.71 232.52 1463.56 230.499 1463.56 230.499L1466.26 254.76C1466.26 254.76 1469.29 250.379 1472.66 253.075C1476.03 255.77 1482.43 227.129 1471.65 221.738Z" fill="#2F2E41"/>
<path d="M1308.6 95.5H772C766.477 95.5 762 99.9772 762 105.5V441.103C762 446.626 766.477 451.103 772 451.103H1308.6C1314.12 451.103 1318.6 446.626 1318.6 441.103V105.5C1318.6 99.9772 1314.12 95.5 1308.6 95.5Z" fill="#E6E6E6"/>
<path d="M1297.53 140.417H784.024C781.263 140.417 779.024 142.656 779.024 145.417V425.391C779.024 428.152 781.263 430.391 784.024 430.391H1297.53C1300.29 430.391 1302.53 428.152 1302.53 425.391V145.417C1302.53 142.656 1300.29 140.417 1297.53 140.417Z" fill="white"/>
<path d="M762 105.5C762 99.9772 766.477 95.5 772 95.5H1308.6C1314.12 95.5 1318.6 99.9772 1318.6 105.5V119.146H762V105.5Z" fill="#2F2E44"/>
<path d="M780.44 111.933C782.854 111.933 784.812 109.975 784.812 107.56C784.812 105.146 782.854 103.188 780.44 103.188C778.025 103.188 776.067 105.146 776.067 107.56C776.067 109.975 778.025 111.933 780.44 111.933Z" fill="white"/>
<path d="M797.035 111.933C799.45 111.933 801.408 109.975 801.408 107.56C801.408 105.146 799.45 103.188 797.035 103.188C794.62 103.188 792.663 105.146 792.663 107.56C792.663 109.975 794.62 111.933 797.035 111.933Z" fill="white"/>
<path d="M813.631 111.933C816.046 111.933 818.003 109.975 818.003 107.56C818.003 105.146 816.046 103.188 813.631 103.188C811.216 103.188 809.258 105.146 809.258 107.56C809.258 109.975 811.216 111.933 813.631 111.933Z" fill="white"/>
<path d="M1114.83 184.938H828.564C825.803 184.938 823.564 187.176 823.564 189.938V346.587C823.564 349.349 825.803 351.587 828.564 351.587H1114.83C1117.59 351.587 1119.83 349.349 1119.83 346.587V189.938C1119.83 187.176 1117.59 184.938 1114.83 184.938Z" fill="#6C63FF"/>
<path d="M1268.99 184.938H1166.17C1163.41 184.938 1161.17 187.176 1161.17 189.937V243.4C1161.17 246.161 1163.41 248.4 1166.17 248.4H1268.99C1271.75 248.4 1273.99 246.161 1273.99 243.4V189.938C1273.99 187.176 1271.75 184.938 1268.99 184.938Z" fill="#E6E6E6"/>
<path d="M1268.99 268.477H1166.17C1163.41 268.477 1161.17 270.716 1161.17 273.477V326.94C1161.17 329.701 1163.41 331.94 1166.17 331.94H1268.99C1271.75 331.94 1273.99 329.701 1273.99 326.94V273.477C1273.99 270.716 1271.75 268.477 1268.99 268.477Z" fill="#E6E6E6"/>
<path d="M1268.99 352.017H1166.17C1163.41 352.017 1161.17 354.256 1161.17 357.017V410.48C1161.17 413.241 1163.41 415.48 1166.17 415.48H1268.99C1271.75 415.48 1273.99 413.241 1273.99 410.48V357.017C1273.99 354.256 1271.75 352.017 1268.99 352.017Z" fill="#E6E6E6"/>
<path d="M1025.18 379.577H826.064C824.684 379.577 823.564 380.696 823.564 382.077V390.857C823.564 392.238 824.684 393.357 826.064 393.357H1025.18C1026.56 393.357 1027.68 392.238 1027.68 390.857V382.077C1027.68 380.696 1026.56 379.577 1025.18 379.577Z" fill="#E6E6E6"/>
<path d="M1003.81 266.135C1005.47 267.097 1005.47 269.502 1003.81 270.465L949.918 301.578C948.251 302.54 946.168 301.337 946.168 299.413L946.168 237.187C946.168 235.262 948.251 234.059 949.918 235.022L1003.81 266.135Z" fill="white"/>
<path fill-rule="evenodd" clip-rule="evenodd" d="M772 95.5C766.477 95.5 762 99.9772 762 105.5V119.146V441.103C762 446.626 766.477 451.103 772 451.103H1308.6C1314.12 451.103 1318.6 446.626 1318.6 441.103V119.146V105.5C1318.6 101.358 1316.08 97.8039 1312.49 96.2858C1311.29 95.7801 1309.98 95.5003 1308.6 95.5H1308.6H772ZM1448.06 208.26C1463.56 204.216 1471.65 221.738 1471.65 221.738C1482.43 227.129 1476.03 255.77 1472.66 253.075C1469.29 250.379 1466.26 254.76 1466.26 254.76L1466.23 254.515C1465.43 255.872 1464.49 257.142 1463.43 258.304C1462.66 264.479 1462.38 273.823 1466.42 279.634L1466.42 279.629C1497.02 288.508 1503.97 308.868 1507.03 317.841C1507.44 319.031 1507.77 320.021 1508.09 320.757C1508.21 321.035 1508.27 321.383 1508.28 321.795C1509.77 330.036 1519.49 384.582 1516.17 385.412C1515.55 385.567 1514.4 385.909 1512.89 386.355L1515.27 427.617C1515.27 427.617 1527.84 457.251 1510.78 456.353C1493.72 455.455 1504.5 426.719 1504.5 426.719L1490.34 391.401C1489.02 391.404 1488 391.225 1487.43 390.8C1486.24 389.901 1483.64 383.407 1480.71 375.15C1479.1 392.838 1490.91 444.426 1496.41 449.169L1492.75 449.352L1495.52 468.026C1495.52 468.026 1491.92 521.905 1491.03 524.599C1490.13 527.293 1487.43 540.763 1487.43 540.763L1472.17 605.418C1472.17 605.418 1471.82 605.466 1471.22 605.514L1469.21 615.553H1470.16C1470.16 615.553 1476.89 630.696 1479.69 631.817C1482.49 632.939 1491.47 645.277 1480.81 645.277C1474.24 645.193 1467.82 643.248 1462.3 639.669C1462.3 639.669 1461.18 634.621 1456.14 634.061C1451.09 633.5 1447.72 627.331 1447.72 627.331L1453.2 617.217C1453.36 616.931 1453.59 616.693 1453.87 616.527C1454.15 616.361 1454.47 616.273 1454.79 616.272C1455.12 616.271 1455.43 616.358 1455.71 616.523C1455.89 616.626 1456.04 616.757 1456.17 616.91L1459.08 603.434C1457.83 602.621 1456.82 601.518 1456.26 600.03L1456.9 561.417L1456.01 517.415L1445.23 467.128L1426.37 535.375C1426.37 535.375 1425.47 557.825 1422.78 565.907C1420.09 573.989 1416.49 609.01 1416.49 609.01C1416.49 609.01 1415.98 609.13 1415.17 609.295L1416.54 616.124C1416.79 616.209 1417.01 616.357 1417.18 616.555C1417.39 616.782 1417.52 617.064 1417.56 617.366L1419.44 631.502C1419.44 631.502 1418.82 635.88 1415.06 637.131C1411.31 638.382 1413.19 641.509 1413.19 641.509C1413.19 641.509 1410.69 647.138 1397.55 644.636C1384.42 642.135 1397.55 629 1398.8 627.749C1399.74 626.811 1401.38 620.947 1402.41 617.282C1402.75 616.061 1403.02 615.084 1403.18 614.615C1403.42 613.895 1404.12 613.727 1404.89 613.794L1405.36 609.932C1404.75 609.744 1404.32 609.448 1404.18 609.01C1403.28 606.316 1398.53 542.559 1398.53 532.681C1398.53 524.812 1395.18 463.108 1393.82 438.334C1388.51 434.981 1387.33 431.474 1391.6 428.515C1398.2 423.953 1399.82 401.714 1398.79 377.78C1398.06 377.798 1397.32 377.815 1396.57 377.83L1382.37 413.249C1382.37 413.249 1393.15 441.985 1376.08 442.883C1359.02 443.781 1371.59 414.147 1371.59 414.147L1373.72 377.288C1372 377.073 1370.64 376.793 1369.8 376.432C1363.54 373.752 1385.73 311.518 1385.96 310.884L1385.96 310.883L1385.96 310.879C1394.04 277.654 1430.3 275.234 1430.3 275.234C1431.74 273.157 1434.69 268.338 1435.13 263.235C1427.78 259.304 1422.78 251.552 1422.78 242.632C1422.78 240.963 1422.96 239.334 1423.29 237.764C1423.03 234.794 1422.64 228.821 1423.13 224.433C1423.8 218.368 1432.56 212.303 1448.06 208.26Z" fill="url(#paint1_linear)"/>
</g>
</g>
<defs>
<filter id="filter0_d" x="742" y="55.5" width="818.621" height="610" filterUnits="userSpaceOnUse" color-interpolation-filters="sRGB">
<feFlood flood-opacity="0" result="BackgroundImageFix"/>
<feColorMatrix in="SourceAlpha" type="matrix" values="0 0 0 0 0 0 0 0 0 0 0 0 0 0 0 0 0 0 127 0"/>
<feOffset dx="10" dy="-10"/>
<feGaussianBlur stdDeviation="15"/>
<feColorMatrix type="matrix" values="0 0 0 0 0.517647 0 0 0 0 0.517647 0 0 0 0 0.6 0 0 0 0.05 0"/>
<feBlend mode="normal" in2="BackgroundImageFix" result="effect1_dropShadow"/>
<feBlend mode="normal" in="SourceGraphic" in2="effect1_dropShadow" result="shape"/>
</filter>
<linearGradient id="paint0_linear" x1="1070" y1="-199.5" x2="1933.99" y2="380.766" gradientUnits="userSpaceOnUse">
<stop stop-color="white" stop-opacity="0.2"/>
<stop offset="1" stop-color="white" stop-opacity="0"/>
</linearGradient>
<linearGradient id="paint1_linear" x1="762" y1="645.277" x2="1468.02" y2="454.114" gradientUnits="userSpaceOnUse">
<stop stop-color="white" stop-opacity="0.2"/>
<stop offset="1" stop-color="white" stop-opacity="0"/>
</linearGradient>
<clipPath id="clip0">
<rect width="1620" height="695" fill="white" transform="translate(0 0.5)"/>
</clipPath>
<clipPath id="clip1">
<rect width="758.621" height="550" fill="white" transform="translate(762 95.5)"/>
</clipPath>
</defs>
</svg>
