<svg width="695" height="926" viewBox="0 0 695 926" fill="none" xmlns="http://www.w3.org/2000/svg">
<g clip-path="url(#clip0)">
<rect width="926" height="695" transform="translate(0 926) rotate(-90)" fill="white"/>
<g filter="url(#filter0_d)">
<path fill-rule="evenodd" clip-rule="evenodd" d="M512.598 531.37C414.853 545.261 311.995 514.614 236.81 439.429C161.624 364.244 130.977 261.386 144.869 163.641L512.598 531.37Z" fill="#FF99B0"/>
<path fill-rule="evenodd" clip-rule="evenodd" d="M144.869 163.641C151.52 116.846 168.378 71.2229 195.445 30.3691L645.871 480.794C605.017 507.861 559.394 524.72 512.599 531.37L144.869 163.641Z" fill="#FF8CA6"/>
<path fill-rule="evenodd" clip-rule="evenodd" d="M287.369 -61.5554L737.794 388.87C725.958 406.735 712.169 423.689 696.429 439.429C680.689 455.169 663.735 468.958 645.87 480.794L195.445 30.3685C207.281 12.5032 221.069 -4.45006 236.81 -20.1905C252.55 -35.9308 269.503 -49.7192 287.369 -61.5554Z" fill="#FF809C"/>
<path fill-rule="evenodd" clip-rule="evenodd" d="M420.641 -112.131L788.37 255.599C781.72 302.394 764.861 348.017 737.794 388.871L287.369 -61.5547C328.223 -88.6214 373.846 -105.48 420.641 -112.131Z" fill="#FF7392"/>
<path fill-rule="evenodd" clip-rule="evenodd" d="M788.37 255.597C802.252 157.914 771.653 55.1241 696.571 -20.0487L696.286 -20.3335C621.114 -95.4152 518.324 -126.015 420.64 -112.132L788.37 255.597Z" fill="#FF6688"/>
<circle cx="466.619" cy="209.619" r="325" transform="rotate(-45 466.619 209.619)" fill="url(#paint0_linear)"/>
</g>
<g filter="url(#filter1_d)">
<path d="M505.335 345.935L502.639 354.022C502.639 354.022 485.79 373.567 497.922 376.263C510.053 378.959 511.401 355.37 511.401 355.37L514.771 348.63L505.335 345.935Z" fill="#FFB8B8"/>
<path d="M524.206 248.21C524.206 248.21 520.163 247.536 518.815 263.711C517.467 279.886 516.793 308.193 516.793 308.193L501.292 347.957L520.837 354.023L530.272 308.867L524.206 248.21Z" fill="#575A89"/>
<path d="M515.445 488.816L513.423 501.622H531.62L530.946 488.816H515.445Z" fill="#FFB8B8"/>
<path d="M574.08 502.969L572.732 520.492L584.863 521.84V501.621L574.08 502.969Z" fill="#FFB8B8"/>
<path d="M522.858 321.672L507.357 410.636L511.401 491.512H532.294V418.05L552.513 380.307L568.688 427.485L572.732 506.339L595.647 502.296L590.255 425.463C590.255 425.463 586.211 323.02 582.168 321.672C578.124 320.324 522.858 321.672 522.858 321.672Z" fill="#333244"/>
<path d="M517.467 497.578C517.467 497.578 517.467 490.838 512.075 494.882C506.683 498.926 499.944 506.339 499.944 506.339C499.944 506.339 474.333 520.493 492.53 522.515C510.727 524.536 522.184 513.079 522.184 513.079L524.206 515.101C524.206 515.101 534.99 513.079 534.99 510.383C534.912 508.124 534.687 505.873 534.316 503.644C534.316 503.644 532.898 492.211 531.248 494.558C529.598 496.904 520.163 501.622 517.467 497.578Z" fill="#333244"/>
<path d="M585.537 516.448C585.537 516.448 573.406 510.383 570.71 515.774C568.014 521.166 565.992 531.95 565.992 531.95C565.992 531.95 557.231 548.799 572.732 547.451C588.233 546.103 587.559 537.341 587.559 535.319C587.559 533.297 586.885 528.58 587.559 526.558C588.233 524.536 585.537 516.448 585.537 516.448Z" fill="#333244"/>
<path d="M558.916 221.588C569.338 221.588 577.787 213.139 577.787 202.717C577.787 192.295 569.338 183.846 558.916 183.846C548.493 183.846 540.045 192.295 540.045 202.717C540.045 213.139 548.493 221.588 558.916 221.588Z" fill="#FFB8B8"/>
<path d="M546.447 211.815L545.773 236.078L570.036 234.056V211.815H546.447Z" fill="#FFB8B8"/>
<path d="M571.384 221.925C571.384 221.925 559.927 229.338 556.557 230.686C553.187 232.034 545.773 225.295 545.773 225.295C545.773 225.295 543.751 226.643 543.751 227.991C543.751 229.338 542.403 234.73 542.403 234.73L526.228 287.974L527.576 325.716C527.576 325.716 576.776 330.434 582.168 324.368C587.559 318.302 579.472 231.36 579.472 231.36L571.384 221.925Z" fill="#E6E6E6"/>
<path d="M615.866 382.329C608.452 387.047 584.19 393.113 584.19 393.113C584.19 393.113 581.541 336.062 572.058 327.064C562.629 318.107 547.236 253.534 561.079 242.306C561.141 242.248 561.206 242.194 561.275 242.144L570.036 221.925C570.036 221.925 571.384 219.903 574.08 222.599C576.261 224.936 578.287 227.412 580.146 230.013L580.53 230.168L599.017 237.426L591.603 270.451C591.603 270.451 623.28 377.612 615.866 382.329Z" fill="#575A89"/>
<path opacity="0.1" d="M580.53 230.168L575.428 248.884L561.079 242.306C561.141 242.248 561.206 242.194 561.275 242.144L570.036 221.925C570.036 221.925 571.384 219.903 574.08 222.599C576.261 224.936 578.287 227.412 580.146 230.013L580.53 230.168Z" fill="black"/>
<path d="M545.436 224.958L543.415 247.873L543.307 248.918L527.913 395.472C527.913 395.472 514.434 390.754 509.716 385.362C504.998 379.971 520.5 319.987 520.5 319.987L521.848 244.503C521.848 244.503 533.804 236.085 538.69 231.462C539.836 230.383 540.591 229.514 540.719 229.002C541.393 226.306 545.436 224.958 545.436 224.958Z" fill="#575A89"/>
<path opacity="0.1" d="M545.436 224.958L543.414 247.873L543.307 248.918L533.642 247.536L538.69 231.462C539.836 230.383 540.591 229.514 540.719 229.002C541.393 226.306 545.436 224.958 545.436 224.958Z" fill="black"/>
<path d="M581.494 338.521L574.08 345.261C574.08 345.261 577.45 359.414 581.494 360.088C581.494 360.088 584.189 356.045 584.863 352.675C585.537 349.305 591.603 345.935 591.603 345.935L581.494 338.521Z" fill="#FFB8B8"/>
<path d="M590.255 236.078L599.017 237.426C599.017 237.426 627.997 286.626 624.628 304.149C621.258 321.672 594.299 352.001 594.299 352.001L577.45 338.521L602.387 304.823L589.581 264.385L590.255 236.078Z" fill="#575A89"/>
<path d="M540.002 204.837C540.002 204.837 540.002 188.194 544.046 184.412H548.899C548.899 184.412 554.561 176.091 561.841 179.117C569.12 182.142 581.253 187.438 580.444 195.759C579.635 204.08 577.113 209.457 577.113 209.457C577.113 209.457 575.765 209.457 572.76 204.933C568.746 198.888 578.018 200.772 565.885 198.503C553.753 196.234 546.473 193.208 544.855 196.234C543.238 199.259 540.002 204.837 540.002 204.837Z" fill="#2F2E41"/>
<path d="M548.819 185.541C548.819 185.541 549.466 180.677 552.126 179.63L548.819 185.541Z" fill="#2F2E41"/>
<path d="M548.808 186.542C548.808 186.542 547.458 181.825 549.479 179.802L548.808 186.542Z" fill="#2F2E41"/>
<path d="M445.994 145H80C74.4771 145 70 149.477 70 155V380.378C70 385.901 74.4771 390.378 80 390.378H445.994C451.517 390.378 455.994 385.901 455.994 380.378V155C455.994 149.477 451.517 145 445.994 145Z" fill="#EBEEF2"/>
<path d="M455.994 163.875V157.134H444.126V145H438.965V157.134H87.0291V145H81.8688V157.134H70V163.875H81.8688V371.503H70V378.244H81.8688V390.378H87.0291V378.244H438.965V390.378H444.126V378.244H455.994V371.503H444.126V163.875H455.994ZM438.965 371.503H87.0291V163.875H438.965L438.965 371.503Z" fill="#D0D4D9"/>
<path d="M367.311 177.351H297.823C295.062 177.351 292.823 179.589 292.823 182.351V247.963C292.823 250.724 295.062 252.963 297.823 252.963H367.311C370.073 252.963 372.311 250.724 372.311 247.963V182.351C372.311 179.589 370.073 177.351 367.311 177.351Z" fill="#C2C6CC"/>
<path d="M360.779 186.383H304.356C302.975 186.383 301.856 187.502 301.856 188.883V230.853C301.856 232.234 302.975 233.353 304.356 233.353H360.779C362.159 233.353 363.279 232.234 363.279 230.853V188.883C363.279 187.502 362.159 186.383 360.779 186.383Z" fill="#6C63FF"/>
<path d="M334.405 194.103H317.872C316.491 194.103 315.372 195.222 315.372 196.603V213.136C315.372 214.517 316.491 215.636 317.872 215.636H334.405C335.786 215.636 336.905 214.517 336.905 213.136V196.603C336.905 195.222 335.786 194.103 334.405 194.103Z" fill="#F2F2F2"/>
<path d="M326.115 199.487C324.734 199.487 323.615 200.607 323.615 201.987V223.135C323.615 224.516 324.734 225.635 326.115 225.635H347.263C348.643 225.635 349.763 224.516 349.763 223.135V201.987C349.763 200.607 348.643 199.487 347.263 199.487H326.115ZM348.628 222.001C348.628 223.381 347.509 224.501 346.128 224.501H327.249C325.868 224.501 324.749 223.381 324.749 222.001V203.121C324.749 201.741 325.868 200.621 327.249 200.621H346.128C347.509 200.621 348.628 201.741 348.628 203.121V222.001Z" fill="#3F3D56"/>
<path d="M334.326 238.016H302.674C302.189 238.016 301.795 238.409 301.795 238.895C301.795 239.38 302.189 239.774 302.674 239.774H334.326C334.811 239.774 335.205 239.38 335.205 238.895C335.205 238.409 334.811 238.016 334.326 238.016Z" fill="#F2F2F2"/>
<path d="M332.567 185.263C334.509 185.263 336.084 183.689 336.084 181.746C336.084 179.804 334.509 178.229 332.567 178.229C330.625 178.229 329.05 179.804 329.05 181.746C329.05 183.689 330.625 185.263 332.567 185.263Z" fill="#3F3D56"/>
<path d="M397.29 286.406H327.802C325.04 286.406 322.802 288.645 322.802 291.406V357.018C322.802 359.78 325.04 362.018 327.802 362.018H397.29C400.052 362.018 402.29 359.78 402.29 357.018V291.406C402.29 288.645 400.052 286.406 397.29 286.406Z" fill="#C2C6CC"/>
<path d="M390.758 295.438H334.335C332.954 295.438 331.835 296.558 331.835 297.938V339.909C331.835 341.29 332.954 342.409 334.335 342.409H390.758C392.138 342.409 393.258 341.29 393.258 339.909V297.938C393.258 296.558 392.138 295.438 390.758 295.438Z" fill="#6C63FF"/>
<path d="M364.305 347.95H332.653C332.168 347.95 331.774 348.344 331.774 348.829C331.774 349.315 332.168 349.709 332.653 349.709H364.305C364.79 349.709 365.184 349.315 365.184 348.829C365.184 348.344 364.79 347.95 364.305 347.95Z" fill="#F2F2F2"/>
<path d="M364.305 353.226H332.653C332.168 353.226 331.774 353.619 331.774 354.105C331.774 354.59 332.168 354.984 332.653 354.984H364.305C364.79 354.984 365.184 354.59 365.184 354.105C365.184 353.619 364.79 353.226 364.305 353.226Z" fill="#F2F2F2"/>
<path d="M342.764 325.97C346.649 325.97 349.798 322.821 349.798 318.936C349.798 315.051 346.649 311.902 342.764 311.902C338.879 311.902 335.73 315.051 335.73 318.936C335.73 322.821 338.879 325.97 342.764 325.97Z" fill="#3F3D56"/>
<path d="M362.546 325.97C366.431 325.97 369.58 322.821 369.58 318.936C369.58 315.051 366.431 311.902 362.546 311.902C358.662 311.902 355.513 315.051 355.513 318.936C355.513 322.821 358.662 325.97 362.546 325.97Z" fill="#F2F2F2"/>
<path d="M382.328 325.97C386.213 325.97 389.362 322.821 389.362 318.936C389.362 315.051 386.213 311.902 382.328 311.902C378.444 311.902 375.295 315.051 375.295 318.936C375.295 322.821 378.444 325.97 382.328 325.97Z" fill="#FF6584"/>
<path d="M362.546 294.319C364.488 294.319 366.063 292.744 366.063 290.802C366.063 288.86 364.488 287.285 362.546 287.285C360.604 287.285 359.029 288.86 359.029 290.802C359.029 292.744 360.604 294.319 362.546 294.319Z" fill="#3F3D56"/>
<path d="M275.638 262.78H206.15C203.388 262.78 201.15 265.019 201.15 267.78V333.392C201.15 336.154 203.388 338.392 206.15 338.392H275.638C278.4 338.392 280.638 336.154 280.638 333.392V267.78C280.638 265.019 278.4 262.78 275.638 262.78Z" fill="#C2C6CC"/>
<path d="M269.105 271.813H212.682C211.302 271.813 210.182 272.933 210.182 274.313V316.284C210.182 317.665 211.302 318.784 212.682 318.784H269.105C270.486 318.784 271.605 317.665 271.605 316.284V274.313C271.605 272.933 270.486 271.813 269.105 271.813Z" fill="#6C63FF"/>
<path d="M236.804 315.7C245.04 315.7 251.716 309.024 251.716 300.788C251.716 292.552 245.04 285.875 236.804 285.875C228.568 285.875 221.891 292.552 221.891 300.788C221.891 309.024 228.568 315.7 236.804 315.7Z" fill="#F2F2F2"/>
<path d="M241.199 312.29C237.501 312.29 233.887 311.194 230.812 309.139C227.737 307.085 225.341 304.165 223.926 300.748C222.51 297.332 222.14 293.573 222.862 289.946C223.583 286.319 225.364 282.987 227.979 280.373C230.593 277.758 233.925 275.977 237.552 275.256C241.179 274.534 244.938 274.905 248.354 276.32C251.771 277.735 254.691 280.131 256.745 283.206C258.8 286.281 259.896 289.895 259.896 293.593C259.891 298.55 257.919 303.303 254.414 306.808C250.909 310.313 246.156 312.285 241.199 312.29ZM241.199 275.576C237.636 275.576 234.152 276.633 231.19 278.613C228.227 280.593 225.917 283.406 224.554 286.699C223.19 289.991 222.833 293.613 223.528 297.108C224.224 300.603 225.94 303.814 228.459 306.333C230.979 308.853 234.189 310.569 237.684 311.264C241.179 311.959 244.802 311.603 248.094 310.239C251.386 308.875 254.2 306.566 256.18 303.603C258.16 300.64 259.216 297.157 259.216 293.593C259.211 288.817 257.311 284.237 253.933 280.859C250.556 277.482 245.976 275.582 241.199 275.576Z" fill="#3F3D56"/>
<path d="M242.652 328.722H211.001C210.515 328.722 210.121 329.115 210.121 329.601C210.121 330.086 210.515 330.48 211.001 330.48H242.652C243.138 330.48 243.531 330.086 243.531 329.601C243.531 329.115 243.138 328.722 242.652 328.722Z" fill="#F2F2F2"/>
<path d="M255.84 323.446H211.001C210.515 323.446 210.121 323.84 210.121 324.326C210.121 324.811 210.515 325.205 211.001 325.205H255.84C256.326 325.205 256.719 324.811 256.719 324.326C256.719 323.84 256.326 323.446 255.84 323.446Z" fill="#F2F2F2"/>
<path d="M240.894 270.694C242.836 270.694 244.411 269.119 244.411 267.177C244.411 265.235 242.836 263.66 240.894 263.66C238.951 263.66 237.377 265.235 237.377 267.177C237.377 269.119 238.951 270.694 240.894 270.694Z" fill="#3F3D56"/>
<path d="M188.272 176.003H118.783C116.022 176.003 113.783 178.242 113.783 181.003V246.615C113.783 249.376 116.022 251.615 118.783 251.615H188.272C191.033 251.615 193.272 249.376 193.272 246.615V181.003C193.272 178.242 191.033 176.003 188.272 176.003Z" fill="#C2C6CC"/>
<path d="M181.739 185.035H125.316C123.935 185.035 122.816 186.154 122.816 187.535V229.506C122.816 230.886 123.935 232.006 125.316 232.006H181.739C183.12 232.006 184.239 230.886 184.239 229.506V187.535C184.239 186.154 183.12 185.035 181.739 185.035Z" fill="#6C63FF"/>
<path d="M158.176 221.807H148.878C147.797 221.807 146.921 222.683 146.921 223.765C146.921 224.846 147.797 225.722 148.878 225.722H158.176C159.258 225.722 160.134 224.846 160.134 223.765C160.134 222.683 159.258 221.807 158.176 221.807Z" fill="#3F3D56"/>
<path d="M175.27 191.319H131.785C131.321 191.319 130.946 191.695 130.946 192.158C130.946 192.622 131.321 192.998 131.785 192.998H175.27C175.734 192.998 176.109 192.622 176.109 192.158C176.109 191.695 175.734 191.319 175.27 191.319Z" fill="#3F3D56"/>
<path d="M175.27 196.633H131.785C131.321 196.633 130.946 197.008 130.946 197.472C130.946 197.935 131.321 198.311 131.785 198.311H175.27C175.734 198.311 176.109 197.935 176.109 197.472C176.109 197.008 175.734 196.633 175.27 196.633Z" fill="#3F3D56"/>
<path d="M175.27 201.947H131.785C131.321 201.947 130.946 202.323 130.946 202.786C130.946 203.25 131.321 203.625 131.785 203.625H175.27C175.734 203.625 176.109 203.25 176.109 202.786C176.109 202.323 175.734 201.947 175.27 201.947Z" fill="#3F3D56"/>
<path d="M175.27 207.262H131.785C131.321 207.262 130.946 207.637 130.946 208.101C130.946 208.564 131.321 208.94 131.785 208.94H175.27C175.734 208.94 176.109 208.564 176.109 208.101C176.109 207.637 175.734 207.262 175.27 207.262Z" fill="#3F3D56"/>
<path d="M175.27 212.576H131.785C131.321 212.576 130.946 212.952 130.946 213.415C130.946 213.879 131.321 214.254 131.785 214.254H175.27C175.734 214.254 176.109 213.879 176.109 213.415C176.109 212.952 175.734 212.576 175.27 212.576Z" fill="#3F3D56"/>
<path d="M155.286 236.668H123.634C123.149 236.668 122.755 237.062 122.755 237.547C122.755 238.033 123.149 238.426 123.634 238.426H155.286C155.771 238.426 156.165 238.033 156.165 237.547C156.165 237.062 155.771 236.668 155.286 236.668Z" fill="#F2F2F2"/>
<path d="M168.474 241.063H123.634C123.149 241.063 122.755 241.457 122.755 241.943C122.755 242.428 123.149 242.822 123.634 242.822H168.474C168.96 242.822 169.353 242.428 169.353 241.943C169.353 241.457 168.96 241.063 168.474 241.063Z" fill="#F2F2F2"/>
<path d="M153.528 183.916C155.47 183.916 157.044 182.341 157.044 180.399C157.044 178.456 155.47 176.882 153.528 176.882C151.585 176.882 150.011 178.456 150.011 180.399C150.011 182.341 151.585 183.916 153.528 183.916Z" fill="#3F3D56"/>
<path fill-rule="evenodd" clip-rule="evenodd" d="M81.8688 145H80C74.4771 145 70 149.477 70 155V157.134V163.875V371.503V378.244V380.378C70 385.901 74.4771 390.378 80 390.378H81.8688H87.0291H438.965H444.126H445.994C451.517 390.378 455.994 385.901 455.994 380.378V378.244V371.503V163.875V157.134V155C455.994 149.477 451.517 145 445.994 145H444.126H438.965H87.0291H81.8688ZM540.27 200.221C540.227 201.509 540.227 202.309 540.227 202.309L540.363 202.074C540.84 206.889 543.128 211.172 546.535 214.232L546.291 223.025C546.221 222.965 546.163 222.914 546.118 222.874L546.071 222.832L546.032 222.797L545.998 222.767C545.998 222.767 545.837 222.874 545.606 223.059L545.661 222.43C545.661 222.43 545.409 222.514 545.019 222.683C543.85 223.188 541.449 224.452 540.944 226.474L540.944 226.474C540.815 226.986 540.061 227.856 538.915 228.934C534.029 233.557 522.073 241.975 522.073 241.975L521.968 247.828C520.86 249.837 519.662 253.713 519.04 261.183C517.692 277.358 517.018 305.665 517.018 305.665L501.517 345.429L504.57 346.377L502.864 351.494C502.864 351.494 486.015 371.039 498.147 373.735C510.278 376.431 511.626 352.842 511.626 352.842L513.263 349.567C510.118 364.784 507.655 380.221 509.941 382.834C510.437 383.401 511.03 383.961 511.694 384.508L507.582 408.108L511.626 488.984H515.244L514.913 491.084C514.226 491.174 513.369 491.552 512.3 492.354C506.908 496.398 500.169 503.811 500.169 503.811C500.169 503.811 474.558 517.965 492.755 519.987C510.952 522.008 522.41 510.551 522.41 510.551L524.431 512.573C524.431 512.573 535.215 510.551 535.215 507.855C535.137 505.596 534.912 503.345 534.541 501.115C534.541 501.115 533.124 489.684 531.474 492.029L531.313 488.984H532.519V415.522L552.738 377.779L568.913 424.957L572.957 503.811L574.061 503.616L573.473 511.257C572.37 511.563 571.468 512.181 570.935 513.247C568.239 518.638 566.217 529.422 566.217 529.422C566.217 529.422 557.456 546.271 572.957 544.923C587.9 543.624 587.812 535.435 587.786 533.036L587.785 532.949C587.785 532.893 587.784 532.84 587.784 532.792C587.784 532.196 587.726 531.366 587.661 530.439V530.439C587.504 528.223 587.309 525.456 587.784 524.03C588.458 522.008 585.762 513.921 585.762 513.921C585.762 513.921 585.517 513.798 585.088 513.603V501.67L595.872 499.767L590.48 422.935C590.48 422.935 589.89 407.967 588.934 389.398C596.317 387.399 610.684 383.242 616.091 379.801C619.383 377.706 614.968 355.414 609.041 331.273C616.015 321.663 623.216 310.132 624.853 301.621C628.211 284.157 599.438 235.232 599.243 234.9L599.242 234.898L580.755 227.639L580.371 227.484C578.744 225.209 576.99 223.029 575.116 220.954C574.848 220.657 574.578 220.363 574.305 220.071C572.283 218.049 571.019 218.681 570.514 219.123C570.345 219.27 570.261 219.397 570.261 219.397L570.261 219.397V215.437C573.231 213.267 575.544 210.251 576.843 206.742C577.177 206.929 577.338 206.929 577.338 206.929C577.338 206.929 579.86 201.552 580.669 193.231C581.478 184.91 569.345 179.614 562.066 176.589C557.141 174.542 552.957 177.687 550.765 179.937L552.351 177.102C550.628 177.78 549.75 180.059 549.345 181.581C549.315 181.62 549.288 181.657 549.264 181.689L549.704 177.274C548.577 178.401 548.498 180.366 548.649 181.884H544.271C541.449 184.523 540.596 193.424 540.339 198.563C540.293 199.099 540.27 199.641 540.27 200.189L540.27 200.221ZM602.612 302.295L601.812 303.376C598.122 289.729 594.752 277.972 593.03 272.038L602.612 302.295Z" fill="url(#paint1_linear)"/>
</g>
<path d="M168.572 664.5V671H141.472V636H167.922V642.5H149.522V650.1H165.772V656.4H149.522V664.5H168.572ZM191.317 643.7C194.651 643.7 197.334 644.7 199.367 646.7C201.434 648.7 202.467 651.667 202.467 655.6V671H194.667V656.8C194.667 654.667 194.201 653.083 193.267 652.05C192.334 650.983 190.984 650.45 189.217 650.45C187.251 650.45 185.684 651.067 184.517 652.3C183.351 653.5 182.767 655.3 182.767 657.7V671H174.967V644.1H182.417V647.25C183.451 646.117 184.734 645.25 186.267 644.65C187.801 644.017 189.484 643.7 191.317 643.7ZM210.038 644.1H217.838V671H210.038V644.1ZM213.938 640.35C212.504 640.35 211.338 639.933 210.438 639.1C209.538 638.267 209.088 637.233 209.088 636C209.088 634.767 209.538 633.733 210.438 632.9C211.338 632.067 212.504 631.65 213.938 631.65C215.371 631.65 216.538 632.05 217.438 632.85C218.338 633.65 218.788 634.65 218.788 635.85C218.788 637.15 218.338 638.233 217.438 639.1C216.538 639.933 215.371 640.35 213.938 640.35ZM260.027 643.7C263.393 643.7 266.06 644.7 268.027 646.7C270.027 648.667 271.027 651.633 271.027 655.6V671H263.227V656.8C263.227 654.667 262.777 653.083 261.877 652.05C261.01 650.983 259.76 650.45 258.127 650.45C256.293 650.45 254.843 651.05 253.777 652.25C252.71 653.417 252.177 655.167 252.177 657.5V671H244.377V656.8C244.377 652.567 242.677 650.45 239.277 650.45C237.477 650.45 236.043 651.05 234.977 652.25C233.91 653.417 233.377 655.167 233.377 657.5V671H225.577V644.1H233.027V647.2C234.027 646.067 235.243 645.2 236.677 644.6C238.143 644 239.743 643.7 241.477 643.7C243.377 643.7 245.093 644.083 246.627 644.85C248.16 645.583 249.393 646.667 250.327 648.1C251.427 646.7 252.81 645.617 254.477 644.85C256.177 644.083 258.027 643.7 260.027 643.7ZM319.878 644.1L308.528 671H300.478L289.178 644.1H297.228L304.678 662.4L312.378 644.1H319.878ZM323.561 644.1H331.361V671H323.561V644.1ZM327.461 640.35C326.028 640.35 324.861 639.933 323.961 639.1C323.061 638.267 322.611 637.233 322.611 636C322.611 634.767 323.061 633.733 323.961 632.9C324.861 632.067 326.028 631.65 327.461 631.65C328.894 631.65 330.061 632.05 330.961 632.85C331.861 633.65 332.311 634.65 332.311 635.85C332.311 637.15 331.861 638.233 330.961 639.1C330.061 639.933 328.894 640.35 327.461 640.35ZM356.45 669.7C355.683 670.267 354.733 670.7 353.6 671C352.5 671.267 351.333 671.4 350.1 671.4C346.9 671.4 344.417 670.583 342.65 668.95C340.917 667.317 340.05 664.917 340.05 661.75V650.7H335.9V644.7H340.05V638.15H347.85V644.7H354.55V650.7H347.85V661.65C347.85 662.783 348.133 663.667 348.7 664.3C349.3 664.9 350.133 665.2 351.2 665.2C352.433 665.2 353.483 664.867 354.35 664.2L356.45 669.7ZM372.179 643.7C376.345 643.7 379.545 644.7 381.779 646.7C384.012 648.667 385.129 651.65 385.129 655.65V671H377.829V667.65C376.362 670.15 373.629 671.4 369.629 671.4C367.562 671.4 365.762 671.05 364.229 670.35C362.729 669.65 361.579 668.683 360.779 667.45C359.979 666.217 359.579 664.817 359.579 663.25C359.579 660.75 360.512 658.783 362.379 657.35C364.279 655.917 367.195 655.2 371.129 655.2H377.329C377.329 653.5 376.812 652.2 375.779 651.3C374.745 650.367 373.195 649.9 371.129 649.9C369.695 649.9 368.279 650.133 366.879 650.6C365.512 651.033 364.345 651.633 363.379 652.4L360.579 646.95C362.045 645.917 363.795 645.117 365.829 644.55C367.895 643.983 370.012 643.7 372.179 643.7ZM371.579 666.15C372.912 666.15 374.095 665.85 375.129 665.25C376.162 664.617 376.895 663.7 377.329 662.5V659.75H371.979C368.779 659.75 367.179 660.8 367.179 662.9C367.179 663.9 367.562 664.7 368.329 665.3C369.129 665.867 370.212 666.15 371.579 666.15ZM419.331 657.65C419.331 657.75 419.281 658.45 419.181 659.75H398.831C399.198 661.417 400.064 662.733 401.431 663.7C402.798 664.667 404.498 665.15 406.531 665.15C407.931 665.15 409.164 664.95 410.231 664.55C411.331 664.117 412.348 663.45 413.281 662.55L417.431 667.05C414.898 669.95 411.198 671.4 406.331 671.4C403.298 671.4 400.614 670.817 398.281 669.65C395.948 668.45 394.148 666.8 392.881 664.7C391.614 662.6 390.981 660.217 390.981 657.55C390.981 654.917 391.598 652.55 392.831 650.45C394.098 648.317 395.814 646.667 397.981 645.5C400.181 644.3 402.631 643.7 405.331 643.7C407.964 643.7 410.348 644.267 412.481 645.4C414.614 646.533 416.281 648.167 417.481 650.3C418.714 652.4 419.331 654.85 419.331 657.65ZM405.381 649.6C403.614 649.6 402.131 650.1 400.931 651.1C399.731 652.1 398.998 653.467 398.731 655.2H411.981C411.714 653.5 410.981 652.15 409.781 651.15C408.581 650.117 407.114 649.6 405.381 649.6ZM466.784 644.1V671H459.384V667.8C458.351 668.967 457.117 669.867 455.684 670.5C454.251 671.1 452.701 671.4 451.034 671.4C447.501 671.4 444.701 670.383 442.634 668.35C440.567 666.317 439.534 663.3 439.534 659.3V644.1H447.334V658.15C447.334 662.483 449.151 664.65 452.784 664.65C454.651 664.65 456.151 664.05 457.284 662.85C458.417 661.617 458.984 659.8 458.984 657.4V644.1H466.784ZM481.96 647.65C482.893 646.35 484.143 645.367 485.71 644.7C487.31 644.033 489.143 643.7 491.21 643.7V650.9C490.343 650.833 489.76 650.8 489.46 650.8C487.227 650.8 485.477 651.433 484.21 652.7C482.943 653.933 482.31 655.8 482.31 658.3V671H474.51V644.1H481.96V647.65ZM512.698 643.7C516.031 643.7 518.715 644.7 520.748 646.7C522.815 648.7 523.848 651.667 523.848 655.6V671H516.048V656.8C516.048 654.667 515.581 653.083 514.648 652.05C513.715 650.983 512.365 650.45 510.598 650.45C508.631 650.45 507.065 651.067 505.898 652.3C504.731 653.5 504.148 655.3 504.148 657.7V671H496.348V644.1H503.798V647.25C504.831 646.117 506.115 645.25 507.648 644.65C509.181 644.017 510.865 643.7 512.698 643.7ZM542.268 643.7C546.435 643.7 549.635 644.7 551.868 646.7C554.102 648.667 555.218 651.65 555.218 655.65V671H547.918V667.65C546.452 670.15 543.718 671.4 539.718 671.4C537.652 671.4 535.852 671.05 534.318 670.35C532.818 669.65 531.668 668.683 530.868 667.45C530.068 666.217 529.668 664.817 529.668 663.25C529.668 660.75 530.602 658.783 532.468 657.35C534.368 655.917 537.285 655.2 541.218 655.2H547.418C547.418 653.5 546.902 652.2 545.868 651.3C544.835 650.367 543.285 649.9 541.218 649.9C539.785 649.9 538.368 650.133 536.968 650.6C535.602 651.033 534.435 651.633 533.468 652.4L530.668 646.95C532.135 645.917 533.885 645.117 535.918 644.55C537.985 643.983 540.102 643.7 542.268 643.7ZM541.668 666.15C543.002 666.15 544.185 665.85 545.218 665.25C546.252 664.617 546.985 663.7 547.418 662.5V659.75H542.068C538.868 659.75 537.268 660.8 537.268 662.9C537.268 663.9 537.652 664.7 538.418 665.3C539.218 665.867 540.302 666.15 541.668 666.15ZM169.46 731.7C168.693 732.267 167.743 732.7 166.61 733C165.51 733.267 164.343 733.4 163.11 733.4C159.91 733.4 157.426 732.583 155.66 730.95C153.926 729.317 153.06 726.917 153.06 723.75V712.7H148.91V706.7H153.06V700.15H160.86V706.7H167.56V712.7H160.86V723.65C160.86 724.783 161.143 725.667 161.71 726.3C162.31 726.9 163.143 727.2 164.21 727.2C165.443 727.2 166.493 726.867 167.36 726.2L169.46 731.7ZM174.338 706.1H182.138V733H174.338V706.1ZM178.238 702.35C176.805 702.35 175.638 701.933 174.738 701.1C173.838 700.267 173.388 699.233 173.388 698C173.388 696.767 173.838 695.733 174.738 694.9C175.638 694.067 176.805 693.65 178.238 693.65C179.672 693.65 180.838 694.05 181.738 694.85C182.638 695.65 183.088 696.65 183.088 697.85C183.088 699.15 182.638 700.233 181.738 701.1C180.838 701.933 179.672 702.35 178.238 702.35ZM206.227 705.7C209.561 705.7 212.244 706.7 214.277 708.7C216.344 710.7 217.377 713.667 217.377 717.6V733H209.577V718.8C209.577 716.667 209.111 715.083 208.177 714.05C207.244 712.983 205.894 712.45 204.127 712.45C202.161 712.45 200.594 713.067 199.427 714.3C198.261 715.5 197.677 717.3 197.677 719.7V733H189.877V706.1H197.327V709.25C198.361 708.117 199.644 707.25 201.177 706.65C202.711 706.017 204.394 705.7 206.227 705.7ZM238.241 733.4C235.374 733.4 232.791 732.817 230.491 731.65C228.224 730.45 226.441 728.8 225.141 726.7C223.874 724.6 223.241 722.217 223.241 719.55C223.241 716.883 223.874 714.5 225.141 712.4C226.441 710.3 228.224 708.667 230.491 707.5C232.791 706.3 235.374 705.7 238.241 705.7C241.074 705.7 243.541 706.3 245.641 707.5C247.774 708.667 249.324 710.35 250.291 712.55L244.241 715.8C242.841 713.333 240.824 712.1 238.191 712.1C236.157 712.1 234.474 712.767 233.141 714.1C231.807 715.433 231.141 717.25 231.141 719.55C231.141 721.85 231.807 723.667 233.141 725C234.474 726.333 236.157 727 238.191 727C240.857 727 242.874 725.767 244.241 723.3L250.291 726.6C249.324 728.733 247.774 730.4 245.641 731.6C243.541 732.8 241.074 733.4 238.241 733.4ZM255.282 706.1H263.082V733H255.282V706.1ZM259.182 702.35C257.748 702.35 256.582 701.933 255.682 701.1C254.782 700.267 254.332 699.233 254.332 698C254.332 696.767 254.782 695.733 255.682 694.9C256.582 694.067 257.748 693.65 259.182 693.65C260.615 693.65 261.782 694.05 262.682 694.85C263.582 695.65 264.032 696.65 264.032 697.85C264.032 699.15 263.582 700.233 262.682 701.1C261.782 701.933 260.615 702.35 259.182 702.35ZM298.221 695.9V733H290.771V729.9C288.837 732.233 286.037 733.4 282.371 733.4C279.837 733.4 277.537 732.833 275.471 731.7C273.437 730.567 271.837 728.95 270.671 726.85C269.504 724.75 268.921 722.317 268.921 719.55C268.921 716.783 269.504 714.35 270.671 712.25C271.837 710.15 273.437 708.533 275.471 707.4C277.537 706.267 279.837 705.7 282.371 705.7C285.804 705.7 288.487 706.783 290.421 708.95V695.9H298.221ZM283.721 727C285.687 727 287.321 726.333 288.621 725C289.921 723.633 290.571 721.817 290.571 719.55C290.571 717.283 289.921 715.483 288.621 714.15C287.321 712.783 285.687 712.1 283.721 712.1C281.721 712.1 280.071 712.783 278.771 714.15C277.471 715.483 276.821 717.283 276.821 719.55C276.821 721.817 277.471 723.633 278.771 725C280.071 726.333 281.721 727 283.721 727ZM333.04 706.1V733H325.64V729.8C324.607 730.967 323.373 731.867 321.94 732.5C320.507 733.1 318.957 733.4 317.29 733.4C313.757 733.4 310.957 732.383 308.89 730.35C306.823 728.317 305.79 725.3 305.79 721.3V706.1H313.59V720.15C313.59 724.483 315.407 726.65 319.04 726.65C320.907 726.65 322.407 726.05 323.54 724.85C324.673 723.617 325.24 721.8 325.24 719.4V706.1H333.04ZM357.116 705.7C360.449 705.7 363.133 706.7 365.166 708.7C367.233 710.7 368.266 713.667 368.266 717.6V733H360.466V718.8C360.466 716.667 359.999 715.083 359.066 714.05C358.133 712.983 356.783 712.45 355.016 712.45C353.049 712.45 351.483 713.067 350.316 714.3C349.149 715.5 348.566 717.3 348.566 719.7V733H340.766V706.1H348.216V709.25C349.249 708.117 350.533 707.25 352.066 706.65C353.599 706.017 355.283 705.7 357.116 705.7ZM393.186 731.7C392.42 732.267 391.47 732.7 390.336 733C389.236 733.267 388.07 733.4 386.836 733.4C383.636 733.4 381.153 732.583 379.386 730.95C377.653 729.317 376.786 726.917 376.786 723.75V712.7H372.636V706.7H376.786V700.15H384.586V706.7H391.286V712.7H384.586V723.65C384.586 724.783 384.87 725.667 385.436 726.3C386.036 726.9 386.87 727.2 387.936 727.2C389.17 727.2 390.22 726.867 391.086 726.2L393.186 731.7ZM423.575 705.7C427.742 705.7 430.942 706.7 433.175 708.7C435.408 710.667 436.525 713.65 436.525 717.65V733H429.225V729.65C427.758 732.15 425.025 733.4 421.025 733.4C418.958 733.4 417.158 733.05 415.625 732.35C414.125 731.65 412.975 730.683 412.175 729.45C411.375 728.217 410.975 726.817 410.975 725.25C410.975 722.75 411.908 720.783 413.775 719.35C415.675 717.917 418.592 717.2 422.525 717.2H428.725C428.725 715.5 428.208 714.2 427.175 713.3C426.142 712.367 424.592 711.9 422.525 711.9C421.092 711.9 419.675 712.133 418.275 712.6C416.908 713.033 415.742 713.633 414.775 714.4L411.975 708.95C413.442 707.917 415.192 707.117 417.225 706.55C419.292 705.983 421.408 705.7 423.575 705.7ZM422.975 728.15C424.308 728.15 425.492 727.85 426.525 727.25C427.558 726.617 428.292 725.7 428.725 724.5V721.75H423.375C420.175 721.75 418.575 722.8 418.575 724.9C418.575 725.9 418.958 726.7 419.725 727.3C420.525 727.867 421.608 728.15 422.975 728.15ZM478.534 705.7C481.901 705.7 484.568 706.7 486.534 708.7C488.534 710.667 489.534 713.633 489.534 717.6V733H481.734V718.8C481.734 716.667 481.284 715.083 480.384 714.05C479.518 712.983 478.268 712.45 476.634 712.45C474.801 712.45 473.351 713.05 472.284 714.25C471.218 715.417 470.684 717.167 470.684 719.5V733H462.884V718.8C462.884 714.567 461.184 712.45 457.784 712.45C455.984 712.45 454.551 713.05 453.484 714.25C452.418 715.417 451.884 717.167 451.884 719.5V733H444.084V706.1H451.534V709.2C452.534 708.067 453.751 707.2 455.184 706.6C456.651 706 458.251 705.7 459.984 705.7C461.884 705.7 463.601 706.083 465.134 706.85C466.668 707.583 467.901 708.667 468.834 710.1C469.934 708.7 471.318 707.617 472.984 706.85C474.684 706.083 476.534 705.7 478.534 705.7ZM523.669 719.65C523.669 719.75 523.619 720.45 523.519 721.75H503.169C503.535 723.417 504.402 724.733 505.769 725.7C507.135 726.667 508.835 727.15 510.869 727.15C512.269 727.15 513.502 726.95 514.569 726.55C515.669 726.117 516.685 725.45 517.619 724.55L521.769 729.05C519.235 731.95 515.535 733.4 510.669 733.4C507.635 733.4 504.952 732.817 502.619 731.65C500.285 730.45 498.485 728.8 497.219 726.7C495.952 724.6 495.319 722.217 495.319 719.55C495.319 716.917 495.935 714.55 497.169 712.45C498.435 710.317 500.152 708.667 502.319 707.5C504.519 706.3 506.969 705.7 509.669 705.7C512.302 705.7 514.685 706.267 516.819 707.4C518.952 708.533 520.619 710.167 521.819 712.3C523.052 714.4 523.669 716.85 523.669 719.65ZM509.719 711.6C507.952 711.6 506.469 712.1 505.269 713.1C504.069 714.1 503.335 715.467 503.069 717.2H516.319C516.052 715.5 515.319 714.15 514.119 713.15C512.919 712.117 511.452 711.6 509.719 711.6ZM546.712 731.7C545.945 732.267 544.995 732.7 543.862 733C542.762 733.267 541.595 733.4 540.362 733.4C537.162 733.4 534.678 732.583 532.912 730.95C531.178 729.317 530.312 726.917 530.312 723.75V712.7H526.162V706.7H530.312V700.15H538.112V706.7H544.812V712.7H538.112V723.65C538.112 724.783 538.395 725.667 538.962 726.3C539.562 726.9 540.395 727.2 541.462 727.2C542.695 727.2 543.745 726.867 544.612 726.2L546.712 731.7Z" fill="#2F2E44"/>
<path d="M256.975 67.325C256.975 67.375 256.95 67.725 256.9 68.375H246.725C246.908 69.2083 247.342 69.8667 248.025 70.35C248.708 70.8333 249.558 71.075 250.575 71.075C251.275 71.075 251.892 70.975 252.425 70.775C252.975 70.5583 253.483 70.225 253.95 69.775L256.025 72.025C254.758 73.475 252.908 74.2 250.475 74.2C248.958 74.2 247.617 73.9083 246.45 73.325C245.283 72.725 244.383 71.9 243.75 70.85C243.117 69.8 242.8 68.6083 242.8 67.275C242.8 65.9583 243.108 64.775 243.725 63.725C244.358 62.6583 245.217 61.8333 246.3 61.25C247.4 60.65 248.625 60.35 249.975 60.35C251.292 60.35 252.483 60.6333 253.55 61.2C254.617 61.7667 255.45 62.5833 256.05 63.65C256.667 64.7 256.975 65.925 256.975 67.325ZM250 63.3C249.117 63.3 248.375 63.55 247.775 64.05C247.175 64.55 246.808 65.2333 246.675 66.1H253.3C253.167 65.25 252.8 64.575 252.2 64.075C251.6 63.5583 250.867 63.3 250 63.3ZM267.996 60.35C269.663 60.35 271.005 60.85 272.021 61.85C273.055 62.85 273.571 64.3333 273.571 66.3V74H269.671V66.9C269.671 65.8333 269.438 65.0417 268.971 64.525C268.505 63.9917 267.83 63.725 266.946 63.725C265.963 63.725 265.18 64.0333 264.596 64.65C264.013 65.25 263.721 66.15 263.721 67.35V74H259.821V60.55H263.546V62.125C264.063 61.5583 264.705 61.125 265.471 60.825C266.238 60.5083 267.08 60.35 267.996 60.35ZM291.378 60.55V71.75C291.378 74.2167 290.736 76.05 289.453 77.25C288.17 78.45 286.295 79.05 283.828 79.05C282.528 79.05 281.295 78.8917 280.128 78.575C278.961 78.2583 277.995 77.8 277.228 77.2L278.778 74.4C279.345 74.8667 280.061 75.2333 280.928 75.5C281.795 75.7833 282.661 75.925 283.528 75.925C284.878 75.925 285.87 75.6167 286.503 75C287.153 74.4 287.478 73.4833 287.478 72.25V71.675C286.461 72.7917 285.045 73.35 283.228 73.35C281.995 73.35 280.861 73.0833 279.828 72.55C278.811 72 278.003 71.2333 277.403 70.25C276.803 69.2667 276.503 68.1333 276.503 66.85C276.503 65.5667 276.803 64.4333 277.403 63.45C278.003 62.4667 278.811 61.7083 279.828 61.175C280.861 60.625 281.995 60.35 283.228 60.35C285.178 60.35 286.661 60.9917 287.678 62.275V60.55H291.378ZM284.003 70.15C285.036 70.15 285.878 69.85 286.528 69.25C287.195 68.6333 287.528 67.8333 287.528 66.85C287.528 65.8667 287.195 65.075 286.528 64.475C285.878 63.8583 285.036 63.55 284.003 63.55C282.97 63.55 282.12 63.8583 281.453 64.475C280.786 65.075 280.453 65.8667 280.453 66.85C280.453 67.8333 280.786 68.6333 281.453 69.25C282.12 69.85 282.97 70.15 284.003 70.15ZM295.258 55.45H299.158V74H295.258V55.45ZM303.027 60.55H306.927V74H303.027V60.55ZM304.977 58.675C304.261 58.675 303.677 58.4667 303.227 58.05C302.777 57.6333 302.552 57.1167 302.552 56.5C302.552 55.8833 302.777 55.3667 303.227 54.95C303.677 54.5333 304.261 54.325 304.977 54.325C305.694 54.325 306.277 54.525 306.727 54.925C307.177 55.325 307.402 55.825 307.402 56.425C307.402 57.075 307.177 57.6167 306.727 58.05C306.277 58.4667 305.694 58.675 304.977 58.675ZM315.322 74.2C314.205 74.2 313.114 74.0667 312.047 73.8C310.98 73.5167 310.13 73.1667 309.497 72.75L310.797 69.95C311.397 70.3333 312.122 70.65 312.972 70.9C313.822 71.1333 314.655 71.25 315.472 71.25C317.122 71.25 317.947 70.8417 317.947 70.025C317.947 69.6417 317.722 69.3667 317.272 69.2C316.822 69.0333 316.13 68.8917 315.197 68.775C314.097 68.6083 313.189 68.4167 312.472 68.2C311.755 67.9833 311.13 67.6 310.597 67.05C310.08 66.5 309.822 65.7167 309.822 64.7C309.822 63.85 310.064 63.1 310.547 62.45C311.047 61.7833 311.764 61.2667 312.697 60.9C313.647 60.5333 314.764 60.35 316.047 60.35C316.997 60.35 317.939 60.4583 318.872 60.675C319.822 60.875 320.605 61.1583 321.222 61.525L319.922 64.3C318.739 63.6333 317.447 63.3 316.047 63.3C315.214 63.3 314.589 63.4167 314.172 63.65C313.755 63.8833 313.547 64.1833 313.547 64.55C313.547 64.9667 313.772 65.2583 314.222 65.425C314.672 65.5917 315.389 65.75 316.372 65.9C317.472 66.0833 318.372 66.2833 319.072 66.5C319.772 66.7 320.38 67.075 320.897 67.625C321.414 68.175 321.672 68.9417 321.672 69.925C321.672 70.7583 321.422 71.5 320.922 72.15C320.422 72.8 319.689 73.3083 318.722 73.675C317.772 74.025 316.639 74.2 315.322 74.2ZM332.503 60.35C334.17 60.35 335.512 60.85 336.528 61.85C337.562 62.85 338.078 64.3333 338.078 66.3V74H334.178V66.9C334.178 65.8333 333.945 65.0417 333.478 64.525C333.012 63.9917 332.337 63.725 331.453 63.725C330.47 63.725 329.687 64.0333 329.103 64.65C328.52 65.25 328.228 66.15 328.228 67.35V74H324.328V55.45H328.228V61.95C328.745 61.4333 329.37 61.0417 330.103 60.775C330.837 60.4917 331.637 60.35 332.503 60.35ZM350.038 60.35C351.705 60.35 353.047 60.85 354.063 61.85C355.097 62.85 355.613 64.3333 355.613 66.3V74H351.713V66.9C351.713 65.8333 351.48 65.0417 351.013 64.525C350.547 63.9917 349.872 63.725 348.988 63.725C348.005 63.725 347.222 64.0333 346.638 64.65C346.055 65.25 345.763 66.15 345.763 67.35V74H341.863V60.55H345.588V62.125C346.105 61.5583 346.747 61.125 347.513 60.825C348.28 60.5083 349.122 60.35 350.038 60.35ZM372.72 67.325C372.72 67.375 372.695 67.725 372.645 68.375H362.47C362.653 69.2083 363.087 69.8667 363.77 70.35C364.453 70.8333 365.303 71.075 366.32 71.075C367.02 71.075 367.637 70.975 368.17 70.775C368.72 70.5583 369.228 70.225 369.695 69.775L371.77 72.025C370.503 73.475 368.653 74.2 366.22 74.2C364.703 74.2 363.362 73.9083 362.195 73.325C361.028 72.725 360.128 71.9 359.495 70.85C358.862 69.8 358.545 68.6083 358.545 67.275C358.545 65.9583 358.853 64.775 359.47 63.725C360.103 62.6583 360.962 61.8333 362.045 61.25C363.145 60.65 364.37 60.35 365.72 60.35C367.037 60.35 368.228 60.6333 369.295 61.2C370.362 61.7667 371.195 62.5833 371.795 63.65C372.412 64.7 372.72 65.925 372.72 67.325ZM365.745 63.3C364.862 63.3 364.12 63.55 363.52 64.05C362.92 64.55 362.553 65.2333 362.42 66.1H369.045C368.912 65.25 368.545 64.575 367.945 64.075C367.345 63.5583 366.612 63.3 365.745 63.3ZM379.292 62.325C379.758 61.675 380.383 61.1833 381.167 60.85C381.967 60.5167 382.883 60.35 383.917 60.35V63.95C383.483 63.9167 383.192 63.9 383.042 63.9C381.925 63.9 381.05 64.2167 380.417 64.85C379.783 65.4667 379.467 66.4 379.467 67.65V74H375.567V60.55H379.292V62.325ZM400.063 55.45V74H396.338V72.45C395.372 73.6167 393.972 74.2 392.138 74.2C390.872 74.2 389.722 73.9167 388.688 73.35C387.672 72.7833 386.872 71.975 386.288 70.925C385.705 69.875 385.413 68.6583 385.413 67.275C385.413 65.8917 385.705 64.675 386.288 63.625C386.872 62.575 387.672 61.7667 388.688 61.2C389.722 60.6333 390.872 60.35 392.138 60.35C393.855 60.35 395.197 60.8917 396.163 61.975V55.45H400.063ZM392.813 71C393.797 71 394.613 70.6667 395.263 70C395.913 69.3167 396.238 68.4083 396.238 67.275C396.238 66.1417 395.913 65.2417 395.263 64.575C394.613 63.8917 393.797 63.55 392.813 63.55C391.813 63.55 390.988 63.8917 390.338 64.575C389.688 65.2417 389.363 66.1417 389.363 67.275C389.363 68.4083 389.688 69.3167 390.338 70C390.988 70.6667 391.813 71 392.813 71ZM405.398 74.2C404.715 74.2 404.14 73.9667 403.673 73.5C403.206 73.0333 402.973 72.45 402.973 71.75C402.973 71.0333 403.206 70.4583 403.673 70.025C404.14 69.575 404.715 69.35 405.398 69.35C406.081 69.35 406.656 69.575 407.123 70.025C407.59 70.4583 407.823 71.0333 407.823 71.75C407.823 72.45 407.59 73.0333 407.123 73.5C406.656 73.9667 406.081 74.2 405.398 74.2ZM416.945 74.2C415.528 74.2 414.253 73.9083 413.12 73.325C412.003 72.725 411.128 71.9 410.495 70.85C409.862 69.8 409.545 68.6083 409.545 67.275C409.545 65.9417 409.862 64.75 410.495 63.7C411.128 62.65 412.003 61.8333 413.12 61.25C414.253 60.65 415.528 60.35 416.945 60.35C418.362 60.35 419.628 60.65 420.745 61.25C421.862 61.8333 422.737 62.65 423.37 63.7C424.003 64.75 424.32 65.9417 424.32 67.275C424.32 68.6083 424.003 69.8 423.37 70.85C422.737 71.9 421.862 72.725 420.745 73.325C419.628 73.9083 418.362 74.2 416.945 74.2ZM416.945 71C417.945 71 418.762 70.6667 419.395 70C420.045 69.3167 420.37 68.4083 420.37 67.275C420.37 66.1417 420.045 65.2417 419.395 64.575C418.762 63.8917 417.945 63.55 416.945 63.55C415.945 63.55 415.12 63.8917 414.47 64.575C413.82 65.2417 413.495 66.1417 413.495 67.275C413.495 68.4083 413.82 69.3167 414.47 70C415.12 70.6667 415.945 71 416.945 71ZM430.902 62.325C431.369 61.675 431.994 61.1833 432.777 60.85C433.577 60.5167 434.494 60.35 435.527 60.35V63.95C435.094 63.9167 434.802 63.9 434.652 63.9C433.535 63.9 432.66 64.2167 432.027 64.85C431.394 65.4667 431.077 66.4 431.077 67.65V74H427.177V60.55H430.902V62.325ZM451.849 60.55V71.75C451.849 74.2167 451.207 76.05 449.924 77.25C448.64 78.45 446.765 79.05 444.299 79.05C442.999 79.05 441.765 78.8917 440.599 78.575C439.432 78.2583 438.465 77.8 437.699 77.2L439.249 74.4C439.815 74.8667 440.532 75.2333 441.399 75.5C442.265 75.7833 443.132 75.925 443.999 75.925C445.349 75.925 446.34 75.6167 446.974 75C447.624 74.4 447.949 73.4833 447.949 72.25V71.675C446.932 72.7917 445.515 73.35 443.699 73.35C442.465 73.35 441.332 73.0833 440.299 72.55C439.282 72 438.474 71.2333 437.874 70.25C437.274 69.2667 436.974 68.1333 436.974 66.85C436.974 65.5667 437.274 64.4333 437.874 63.45C438.474 62.4667 439.282 61.7083 440.299 61.175C441.332 60.625 442.465 60.35 443.699 60.35C445.649 60.35 447.132 60.9917 448.149 62.275V60.55H451.849ZM444.474 70.15C445.507 70.15 446.349 69.85 446.999 69.25C447.665 68.6333 447.999 67.8333 447.999 66.85C447.999 65.8667 447.665 65.075 446.999 64.475C446.349 63.8583 445.507 63.55 444.474 63.55C443.44 63.55 442.59 63.8583 441.924 64.475C441.257 65.075 440.924 65.8667 440.924 66.85C440.924 67.8333 441.257 68.6333 441.924 69.25C442.59 69.85 443.44 70.15 444.474 70.15Z" fill="white"/>
</g>
<defs>
<filter id="filter0_d" x="-33" y="-290" width="1019.24" height="1019.24" filterUnits="userSpaceOnUse" color-interpolation-filters="sRGB">
<feFlood flood-opacity="0" result="BackgroundImageFix"/>
<feColorMatrix in="SourceAlpha" type="matrix" values="0 0 0 0 0 0 0 0 0 0 0 0 0 0 0 0 0 0 127 0"/>
<feOffset dx="10" dy="10"/>
<feGaussianBlur stdDeviation="25"/>
<feColorMatrix type="matrix" values="0 0 0 0 1 0 0 0 0 0.4 0 0 0 0 0.533333 0 0 0 0.15 0"/>
<feBlend mode="normal" in2="BackgroundImageFix" result="effect1_dropShadow"/>
<feBlend mode="normal" in="SourceGraphic" in2="effect1_dropShadow" result="shape"/>
</filter>
<filter id="filter1_d" x="50" y="105" width="615.182" height="462.527" filterUnits="userSpaceOnUse" color-interpolation-filters="sRGB">
<feFlood flood-opacity="0" result="BackgroundImageFix"/>
<feColorMatrix in="SourceAlpha" type="matrix" values="0 0 0 0 0 0 0 0 0 0 0 0 0 0 0 0 0 0 127 0"/>
<feOffset dx="10" dy="-10"/>
<feGaussianBlur stdDeviation="15"/>
<feColorMatrix type="matrix" values="0 0 0 0 0.517647 0 0 0 0 0.517647 0 0 0 0 0.6 0 0 0 0.05 0"/>
<feBlend mode="normal" in2="BackgroundImageFix" result="effect1_dropShadow"/>
<feBlend mode="normal" in="SourceGraphic" in2="effect1_dropShadow" result="shape"/>
</filter>
<linearGradient id="paint0_linear" x1="141.619" y1="-115.381" x2="890.415" y2="387.517" gradientUnits="userSpaceOnUse">
<stop stop-color="white" stop-opacity="0.2"/>
<stop offset="1" stop-color="white" stop-opacity="0"/>
</linearGradient>
<linearGradient id="paint1_linear" x1="70" y1="545" x2="586.748" y2="404.114" gradientUnits="userSpaceOnUse">
<stop stop-color="white" stop-opacity="0.2"/>
<stop offset="1" stop-color="white" stop-opacity="0"/>
</linearGradient>
<clipPath id="clip0">
<rect width="926" height="695" fill="white" transform="translate(0 926) rotate(-90)"/>
</clipPath>
</defs>
</svg>
