<svg width="1236" height="696" viewBox="0 0 1236 696" fill="none" xmlns="http://www.w3.org/2000/svg">
<g clip-path="url(#clip0)">
<rect width="1236" height="695" transform="translate(0 0.5)" fill="white"/>
<path d="M79.15 298.5H95.05C98.85 298.5 102.2 299.233 105.1 300.7C108.033 302.133 110.3 304.167 111.9 306.8C113.533 309.433 114.35 312.5 114.35 316C114.35 319.5 113.533 322.567 111.9 325.2C110.3 327.833 108.033 329.883 105.1 331.35C102.2 332.783 98.85 333.5 95.05 333.5H79.15V298.5ZM94.65 326.85C98.15 326.85 100.933 325.883 103 323.95C105.1 321.983 106.15 319.333 106.15 316C106.15 312.667 105.1 310.033 103 308.1C100.933 306.133 98.15 305.15 94.65 305.15H87.25V326.85H94.65ZM120.409 306.6H128.209V333.5H120.409V306.6ZM124.309 302.85C122.875 302.85 121.709 302.433 120.809 301.6C119.909 300.767 119.459 299.733 119.459 298.5C119.459 297.267 119.909 296.233 120.809 295.4C121.709 294.567 122.875 294.15 124.309 294.15C125.742 294.15 126.909 294.55 127.809 295.35C128.709 296.15 129.159 297.15 129.159 298.35C129.159 299.65 128.709 300.733 127.809 301.6C126.909 302.433 125.742 302.85 124.309 302.85ZM144.998 333.9C142.764 333.9 140.581 333.633 138.448 333.1C136.314 332.533 134.614 331.833 133.348 331L135.948 325.4C137.148 326.167 138.598 326.8 140.298 327.3C141.998 327.767 143.664 328 145.298 328C148.598 328 150.248 327.183 150.248 325.55C150.248 324.783 149.798 324.233 148.898 323.9C147.998 323.567 146.614 323.283 144.748 323.05C142.548 322.717 140.731 322.333 139.298 321.9C137.864 321.467 136.614 320.7 135.548 319.6C134.514 318.5 133.998 316.933 133.998 314.9C133.998 313.2 134.481 311.7 135.448 310.4C136.448 309.067 137.881 308.033 139.748 307.3C141.648 306.567 143.881 306.2 146.448 306.2C148.348 306.2 150.231 306.417 152.098 306.85C153.998 307.25 155.564 307.817 156.798 308.55L154.198 314.1C151.831 312.767 149.248 312.1 146.448 312.1C144.781 312.1 143.531 312.333 142.698 312.8C141.864 313.267 141.448 313.867 141.448 314.6C141.448 315.433 141.898 316.017 142.798 316.35C143.698 316.683 145.131 317 147.098 317.3C149.298 317.667 151.098 318.067 152.498 318.5C153.898 318.9 155.114 319.65 156.148 320.75C157.181 321.85 157.698 323.383 157.698 325.35C157.698 327.017 157.198 328.5 156.198 329.8C155.198 331.1 153.731 332.117 151.798 332.85C149.898 333.55 147.631 333.9 144.998 333.9ZM176.01 333.9C173.143 333.9 170.56 333.317 168.26 332.15C165.993 330.95 164.21 329.3 162.91 327.2C161.643 325.1 161.01 322.717 161.01 320.05C161.01 317.383 161.643 315 162.91 312.9C164.21 310.8 165.993 309.167 168.26 308C170.56 306.8 173.143 306.2 176.01 306.2C178.843 306.2 181.31 306.8 183.41 308C185.543 309.167 187.093 310.85 188.06 313.05L182.01 316.3C180.61 313.833 178.593 312.6 175.96 312.6C173.927 312.6 172.243 313.267 170.91 314.6C169.577 315.933 168.91 317.75 168.91 320.05C168.91 322.35 169.577 324.167 170.91 325.5C172.243 326.833 173.927 327.5 175.96 327.5C178.627 327.5 180.643 326.267 182.01 323.8L188.06 327.1C187.093 329.233 185.543 330.9 183.41 332.1C181.31 333.3 178.843 333.9 176.01 333.9ZM205.509 333.9C202.676 333.9 200.126 333.317 197.859 332.15C195.626 330.95 193.876 329.3 192.609 327.2C191.343 325.1 190.709 322.717 190.709 320.05C190.709 317.383 191.343 315 192.609 312.9C193.876 310.8 195.626 309.167 197.859 308C200.126 306.8 202.676 306.2 205.509 306.2C208.343 306.2 210.876 306.8 213.109 308C215.343 309.167 217.093 310.8 218.359 312.9C219.626 315 220.259 317.383 220.259 320.05C220.259 322.717 219.626 325.1 218.359 327.2C217.093 329.3 215.343 330.95 213.109 332.15C210.876 333.317 208.343 333.9 205.509 333.9ZM205.509 327.5C207.509 327.5 209.143 326.833 210.409 325.5C211.709 324.133 212.359 322.317 212.359 320.05C212.359 317.783 211.709 315.983 210.409 314.65C209.143 313.283 207.509 312.6 205.509 312.6C203.509 312.6 201.859 313.283 200.559 314.65C199.259 315.983 198.609 317.783 198.609 320.05C198.609 322.317 199.259 324.133 200.559 325.5C201.859 326.833 203.509 327.5 205.509 327.5ZM251.941 306.6L240.591 333.5H232.541L221.241 306.6H229.291L236.741 324.9L244.441 306.6H251.941ZM281.241 320.15C281.241 320.25 281.191 320.95 281.091 322.25H260.741C261.108 323.917 261.974 325.233 263.341 326.2C264.708 327.167 266.408 327.65 268.441 327.65C269.841 327.65 271.074 327.45 272.141 327.05C273.241 326.617 274.258 325.95 275.191 325.05L279.341 329.55C276.808 332.45 273.108 333.9 268.241 333.9C265.208 333.9 262.524 333.317 260.191 332.15C257.858 330.95 256.058 329.3 254.791 327.2C253.524 325.1 252.891 322.717 252.891 320.05C252.891 317.417 253.508 315.05 254.741 312.95C256.008 310.817 257.724 309.167 259.891 308C262.091 306.8 264.541 306.2 267.241 306.2C269.874 306.2 272.258 306.767 274.391 307.9C276.524 309.033 278.191 310.667 279.391 312.8C280.624 314.9 281.241 317.35 281.241 320.15ZM267.291 312.1C265.524 312.1 264.041 312.6 262.841 313.6C261.641 314.6 260.908 315.967 260.641 317.7H273.891C273.624 316 272.891 314.65 271.691 313.65C270.491 312.617 269.024 312.1 267.291 312.1ZM294.384 310.15C295.317 308.85 296.567 307.867 298.134 307.2C299.734 306.533 301.567 306.2 303.634 306.2V313.4C302.767 313.333 302.184 313.3 301.884 313.3C299.651 313.3 297.901 313.933 296.634 315.2C295.367 316.433 294.734 318.3 294.734 320.8V333.5H286.934V306.6H294.384V310.15ZM351.277 327V333.5H324.177V298.5H350.627V305H332.227V312.6H348.477V318.9H332.227V327H351.277ZM374.022 306.2C377.356 306.2 380.039 307.2 382.072 309.2C384.139 311.2 385.172 314.167 385.172 318.1V333.5H377.372V319.3C377.372 317.167 376.906 315.583 375.972 314.55C375.039 313.483 373.689 312.95 371.922 312.95C369.956 312.95 368.389 313.567 367.222 314.8C366.056 316 365.472 317.8 365.472 320.2V333.5H357.672V306.6H365.122V309.75C366.156 308.617 367.439 307.75 368.972 307.15C370.506 306.517 372.189 306.2 374.022 306.2ZM420.786 306.6V329C420.786 333.933 419.502 337.6 416.936 340C414.369 342.4 410.619 343.6 405.686 343.6C403.086 343.6 400.619 343.283 398.286 342.65C395.952 342.017 394.019 341.1 392.486 339.9L395.586 334.3C396.719 335.233 398.152 335.967 399.886 336.5C401.619 337.067 403.352 337.35 405.086 337.35C407.786 337.35 409.769 336.733 411.036 335.5C412.336 334.3 412.986 332.467 412.986 330V328.85C410.952 331.083 408.119 332.2 404.486 332.2C402.019 332.2 399.752 331.667 397.686 330.6C395.652 329.5 394.036 327.967 392.836 326C391.636 324.033 391.036 321.767 391.036 319.2C391.036 316.633 391.636 314.367 392.836 312.4C394.036 310.433 395.652 308.917 397.686 307.85C399.752 306.75 402.019 306.2 404.486 306.2C408.386 306.2 411.352 307.483 413.386 310.05V306.6H420.786ZM406.036 325.8C408.102 325.8 409.786 325.2 411.086 324C412.419 322.767 413.086 321.167 413.086 319.2C413.086 317.233 412.419 315.65 411.086 314.45C409.786 313.217 408.102 312.6 406.036 312.6C403.969 312.6 402.269 313.217 400.936 314.45C399.602 315.65 398.936 317.233 398.936 319.2C398.936 321.167 399.602 322.767 400.936 324C402.269 325.2 403.969 325.8 406.036 325.8ZM428.545 296.4H436.345V333.5H428.545V296.4ZM444.084 306.6H451.884V333.5H444.084V306.6ZM447.984 302.85C446.551 302.85 445.384 302.433 444.484 301.6C443.584 300.767 443.134 299.733 443.134 298.5C443.134 297.267 443.584 296.233 444.484 295.4C445.384 294.567 446.551 294.15 447.984 294.15C449.418 294.15 450.584 294.55 451.484 295.35C452.384 296.15 452.834 297.15 452.834 298.35C452.834 299.65 452.384 300.733 451.484 301.6C450.584 302.433 449.418 302.85 447.984 302.85ZM468.673 333.9C466.44 333.9 464.257 333.633 462.123 333.1C459.99 332.533 458.29 331.833 457.023 331L459.623 325.4C460.823 326.167 462.273 326.8 463.973 327.3C465.673 327.767 467.34 328 468.973 328C472.273 328 473.923 327.183 473.923 325.55C473.923 324.783 473.473 324.233 472.573 323.9C471.673 323.567 470.29 323.283 468.423 323.05C466.223 322.717 464.407 322.333 462.973 321.9C461.54 321.467 460.29 320.7 459.223 319.6C458.19 318.5 457.673 316.933 457.673 314.9C457.673 313.2 458.157 311.7 459.123 310.4C460.123 309.067 461.557 308.033 463.423 307.3C465.323 306.567 467.557 306.2 470.123 306.2C472.023 306.2 473.907 306.417 475.773 306.85C477.673 307.25 479.24 307.817 480.473 308.55L477.873 314.1C475.507 312.767 472.923 312.1 470.123 312.1C468.457 312.1 467.207 312.333 466.373 312.8C465.54 313.267 465.123 313.867 465.123 314.6C465.123 315.433 465.573 316.017 466.473 316.35C467.373 316.683 468.807 317 470.773 317.3C472.973 317.667 474.773 318.067 476.173 318.5C477.573 318.9 478.79 319.65 479.823 320.75C480.857 321.85 481.373 323.383 481.373 325.35C481.373 327.017 480.873 328.5 479.873 329.8C478.873 331.1 477.407 332.117 475.473 332.85C473.573 333.55 471.307 333.9 468.673 333.9ZM503.036 306.2C506.369 306.2 509.053 307.2 511.086 309.2C513.153 311.2 514.186 314.167 514.186 318.1V333.5H506.386V319.3C506.386 317.167 505.919 315.583 504.986 314.55C504.053 313.483 502.703 312.95 500.936 312.95C498.969 312.95 497.403 313.567 496.236 314.8C495.069 316 494.486 317.8 494.486 320.2V333.5H486.686V296.4H494.486V309.4C495.519 308.367 496.769 307.583 498.236 307.05C499.703 306.483 501.303 306.2 503.036 306.2ZM121.8 370.6L112.05 397.5H104.55L98.5 380.8L92.25 397.5H84.75L75.05 370.6H82.4L88.75 388.8L95.35 370.6H101.95L108.35 388.8L114.9 370.6H121.8ZM125.926 370.6H133.726V397.5H125.926V370.6ZM129.826 366.85C128.393 366.85 127.226 366.433 126.326 365.6C125.426 364.767 124.976 363.733 124.976 362.5C124.976 361.267 125.426 360.233 126.326 359.4C127.226 358.567 128.393 358.15 129.826 358.15C131.26 358.15 132.426 358.55 133.326 359.35C134.226 360.15 134.676 361.15 134.676 362.35C134.676 363.65 134.226 364.733 133.326 365.6C132.426 366.433 131.26 366.85 129.826 366.85ZM158.815 396.2C158.049 396.767 157.099 397.2 155.965 397.5C154.865 397.767 153.699 397.9 152.465 397.9C149.265 397.9 146.782 397.083 145.015 395.45C143.282 393.817 142.415 391.417 142.415 388.25V377.2H138.265V371.2H142.415V364.65H150.215V371.2H156.915V377.2H150.215V388.15C150.215 389.283 150.499 390.167 151.065 390.8C151.665 391.4 152.499 391.7 153.565 391.7C154.799 391.7 155.849 391.367 156.715 390.7L158.815 396.2ZM180.044 370.2C183.377 370.2 186.06 371.2 188.094 373.2C190.16 375.2 191.194 378.167 191.194 382.1V397.5H183.394V383.3C183.394 381.167 182.927 379.583 181.994 378.55C181.06 377.483 179.71 376.95 177.944 376.95C175.977 376.95 174.41 377.567 173.244 378.8C172.077 380 171.494 381.8 171.494 384.2V397.5H163.694V360.4H171.494V373.4C172.527 372.367 173.777 371.583 175.244 371.05C176.71 370.483 178.31 370.2 180.044 370.2ZM247.874 370.2C251.241 370.2 253.908 371.2 255.874 373.2C257.874 375.167 258.874 378.133 258.874 382.1V397.5H251.074V383.3C251.074 381.167 250.624 379.583 249.724 378.55C248.858 377.483 247.608 376.95 245.974 376.95C244.141 376.95 242.691 377.55 241.624 378.75C240.558 379.917 240.024 381.667 240.024 384V397.5H232.224V383.3C232.224 379.067 230.524 376.95 227.124 376.95C225.324 376.95 223.891 377.55 222.824 378.75C221.758 379.917 221.224 381.667 221.224 384V397.5H213.424V370.6H220.874V373.7C221.874 372.567 223.091 371.7 224.524 371.1C225.991 370.5 227.591 370.2 229.324 370.2C231.224 370.2 232.941 370.583 234.474 371.35C236.008 372.083 237.241 373.167 238.174 374.6C239.274 373.2 240.658 372.117 242.324 371.35C244.024 370.583 245.874 370.2 247.874 370.2ZM292.577 370.6L280.427 399.15C279.194 402.25 277.661 404.433 275.827 405.7C274.027 406.967 271.844 407.6 269.277 407.6C267.877 407.6 266.494 407.383 265.127 406.95C263.761 406.517 262.644 405.917 261.777 405.15L264.627 399.6C265.227 400.133 265.911 400.55 266.677 400.85C267.477 401.15 268.261 401.3 269.027 401.3C270.094 401.3 270.961 401.033 271.627 400.5C272.294 400 272.894 399.15 273.427 397.95L273.527 397.7L261.877 370.6H269.927L277.477 388.85L285.077 370.6H292.577ZM337.62 370.6L326.27 397.5H318.22L306.92 370.6H314.97L322.42 388.9L330.12 370.6H337.62ZM341.303 370.6H349.103V397.5H341.303V370.6ZM345.203 366.85C343.77 366.85 342.603 366.433 341.703 365.6C340.803 364.767 340.353 363.733 340.353 362.5C340.353 361.267 340.803 360.233 341.703 359.4C342.603 358.567 343.77 358.15 345.203 358.15C346.636 358.15 347.803 358.55 348.703 359.35C349.603 360.15 350.053 361.15 350.053 362.35C350.053 363.65 349.603 364.733 348.703 365.6C347.803 366.433 346.636 366.85 345.203 366.85ZM384.242 360.4V397.5H376.792V394.4C374.859 396.733 372.059 397.9 368.392 397.9C365.859 397.9 363.559 397.333 361.492 396.2C359.459 395.067 357.859 393.45 356.692 391.35C355.526 389.25 354.942 386.817 354.942 384.05C354.942 381.283 355.526 378.85 356.692 376.75C357.859 374.65 359.459 373.033 361.492 371.9C363.559 370.767 365.859 370.2 368.392 370.2C371.826 370.2 374.509 371.283 376.442 373.45V360.4H384.242ZM369.742 391.5C371.709 391.5 373.342 390.833 374.642 389.5C375.942 388.133 376.592 386.317 376.592 384.05C376.592 381.783 375.942 379.983 374.642 378.65C373.342 377.283 371.709 376.6 369.742 376.6C367.742 376.6 366.092 377.283 364.792 378.65C363.492 379.983 362.842 381.783 362.842 384.05C362.842 386.317 363.492 388.133 364.792 389.5C366.092 390.833 367.742 391.5 369.742 391.5ZM418.311 384.15C418.311 384.25 418.261 384.95 418.161 386.25H397.811C398.178 387.917 399.045 389.233 400.411 390.2C401.778 391.167 403.478 391.65 405.511 391.65C406.911 391.65 408.145 391.45 409.211 391.05C410.311 390.617 411.328 389.95 412.261 389.05L416.411 393.55C413.878 396.45 410.178 397.9 405.311 397.9C402.278 397.9 399.595 397.317 397.261 396.15C394.928 394.95 393.128 393.3 391.861 391.2C390.595 389.1 389.961 386.717 389.961 384.05C389.961 381.417 390.578 379.05 391.811 376.95C393.078 374.817 394.795 373.167 396.961 372C399.161 370.8 401.611 370.2 404.311 370.2C406.945 370.2 409.328 370.767 411.461 371.9C413.595 373.033 415.261 374.667 416.461 376.8C417.695 378.9 418.311 381.35 418.311 384.15ZM404.361 376.1C402.595 376.1 401.111 376.6 399.911 377.6C398.711 378.6 397.978 379.967 397.711 381.7H410.961C410.695 380 409.961 378.65 408.761 377.65C407.561 376.617 406.095 376.1 404.361 376.1ZM436.804 397.9C433.971 397.9 431.421 397.317 429.154 396.15C426.921 394.95 425.171 393.3 423.904 391.2C422.638 389.1 422.004 386.717 422.004 384.05C422.004 381.383 422.638 379 423.904 376.9C425.171 374.8 426.921 373.167 429.154 372C431.421 370.8 433.971 370.2 436.804 370.2C439.638 370.2 442.171 370.8 444.404 372C446.638 373.167 448.388 374.8 449.654 376.9C450.921 379 451.554 381.383 451.554 384.05C451.554 386.717 450.921 389.1 449.654 391.2C448.388 393.3 446.638 394.95 444.404 396.15C442.171 397.317 439.638 397.9 436.804 397.9ZM436.804 391.5C438.804 391.5 440.438 390.833 441.704 389.5C443.004 388.133 443.654 386.317 443.654 384.05C443.654 381.783 443.004 379.983 441.704 378.65C440.438 377.283 438.804 376.6 436.804 376.6C434.804 376.6 433.154 377.283 431.854 378.65C430.554 379.983 429.904 381.783 429.904 384.05C429.904 386.317 430.554 388.133 431.854 389.5C433.154 390.833 434.804 391.5 436.804 391.5ZM466.318 397.9C464.085 397.9 461.901 397.633 459.768 397.1C457.635 396.533 455.935 395.833 454.668 395L457.268 389.4C458.468 390.167 459.918 390.8 461.618 391.3C463.318 391.767 464.985 392 466.618 392C469.918 392 471.568 391.183 471.568 389.55C471.568 388.783 471.118 388.233 470.218 387.9C469.318 387.567 467.935 387.283 466.068 387.05C463.868 386.717 462.051 386.333 460.618 385.9C459.185 385.467 457.935 384.7 456.868 383.6C455.835 382.5 455.318 380.933 455.318 378.9C455.318 377.2 455.801 375.7 456.768 374.4C457.768 373.067 459.201 372.033 461.068 371.3C462.968 370.567 465.201 370.2 467.768 370.2C469.668 370.2 471.551 370.417 473.418 370.85C475.318 371.25 476.885 371.817 478.118 372.55L475.518 378.1C473.151 376.767 470.568 376.1 467.768 376.1C466.101 376.1 464.851 376.333 464.018 376.8C463.185 377.267 462.768 377.867 462.768 378.6C462.768 379.433 463.218 380.017 464.118 380.35C465.018 380.683 466.451 381 468.418 381.3C470.618 381.667 472.418 382.067 473.818 382.5C475.218 382.9 476.435 383.65 477.468 384.75C478.501 385.85 479.018 387.383 479.018 389.35C479.018 391.017 478.518 392.5 477.518 393.8C476.518 395.1 475.051 396.117 473.118 396.85C471.218 397.55 468.951 397.9 466.318 397.9Z" fill="#2F2E44"/>
<path d="M92.97 71.49C92.97 71.55 92.94 71.97 92.88 72.75H80.67C80.89 73.75 81.41 74.54 82.23 75.12C83.05 75.7 84.07 75.99 85.29 75.99C86.13 75.99 86.87 75.87 87.51 75.63C88.17 75.37 88.78 74.97 89.34 74.43L91.83 77.13C90.31 78.87 88.09 79.74 85.17 79.74C83.35 79.74 81.74 79.39 80.34 78.69C78.94 77.97 77.86 76.98 77.1 75.72C76.34 74.46 75.96 73.03 75.96 71.43C75.96 69.85 76.33 68.43 77.07 67.17C77.83 65.89 78.86 64.9 80.16 64.2C81.48 63.48 82.95 63.12 84.57 63.12C86.15 63.12 87.58 63.46 88.86 64.14C90.14 64.82 91.14 65.8 91.86 67.08C92.6 68.34 92.97 69.81 92.97 71.49ZM84.6 66.66C83.54 66.66 82.65 66.96 81.93 67.56C81.21 68.16 80.77 68.98 80.61 70.02H88.56C88.4 69 87.96 68.19 87.24 67.59C86.52 66.97 85.64 66.66 84.6 66.66ZM106.196 63.12C108.196 63.12 109.806 63.72 111.026 64.92C112.266 66.12 112.886 67.9 112.886 70.26V79.5H108.206V70.98C108.206 69.7 107.926 68.75 107.366 68.13C106.806 67.49 105.996 67.17 104.936 67.17C103.756 67.17 102.816 67.54 102.116 68.28C101.416 69 101.066 70.08 101.066 71.52V79.5H96.3858V63.36H100.856V65.25C101.476 64.57 102.246 64.05 103.166 63.69C104.086 63.31 105.096 63.12 106.196 63.12ZM134.254 63.36V76.8C134.254 79.76 133.484 81.96 131.944 83.4C130.404 84.84 128.154 85.56 125.194 85.56C123.634 85.56 122.154 85.37 120.754 84.99C119.354 84.61 118.194 84.06 117.274 83.34L119.134 79.98C119.814 80.54 120.674 80.98 121.714 81.3C122.754 81.64 123.794 81.81 124.834 81.81C126.454 81.81 127.644 81.44 128.404 80.7C129.184 79.98 129.574 78.88 129.574 77.4V76.71C128.354 78.05 126.654 78.72 124.474 78.72C122.994 78.72 121.634 78.4 120.394 77.76C119.174 77.1 118.204 76.18 117.484 75C116.764 73.82 116.404 72.46 116.404 70.92C116.404 69.38 116.764 68.02 117.484 66.84C118.204 65.66 119.174 64.75 120.394 64.11C121.634 63.45 122.994 63.12 124.474 63.12C126.814 63.12 128.594 63.89 129.814 65.43V63.36H134.254ZM125.404 74.88C126.644 74.88 127.654 74.52 128.434 73.8C129.234 73.06 129.634 72.1 129.634 70.92C129.634 69.74 129.234 68.79 128.434 68.07C127.654 67.33 126.644 66.96 125.404 66.96C124.164 66.96 123.144 67.33 122.344 68.07C121.544 68.79 121.144 69.74 121.144 70.92C121.144 72.1 121.544 73.06 122.344 73.8C123.144 74.52 124.164 74.88 125.404 74.88ZM138.91 57.24H143.59V79.5H138.91V57.24ZM148.233 63.36H152.913V79.5H148.233V63.36ZM150.573 61.11C149.713 61.11 149.013 60.86 148.473 60.36C147.933 59.86 147.663 59.24 147.663 58.5C147.663 57.76 147.933 57.14 148.473 56.64C149.013 56.14 149.713 55.89 150.573 55.89C151.433 55.89 152.133 56.13 152.673 56.61C153.213 57.09 153.483 57.69 153.483 58.41C153.483 59.19 153.213 59.84 152.673 60.36C152.133 60.86 151.433 61.11 150.573 61.11ZM162.986 79.74C161.646 79.74 160.336 79.58 159.056 79.26C157.776 78.92 156.756 78.5 155.996 78L157.556 74.64C158.276 75.1 159.146 75.48 160.166 75.78C161.186 76.06 162.186 76.2 163.166 76.2C165.146 76.2 166.136 75.71 166.136 74.73C166.136 74.27 165.866 73.94 165.326 73.74C164.786 73.54 163.956 73.37 162.836 73.23C161.516 73.03 160.426 72.8 159.566 72.54C158.706 72.28 157.956 71.82 157.316 71.16C156.696 70.5 156.386 69.56 156.386 68.34C156.386 67.32 156.676 66.42 157.256 65.64C157.856 64.84 158.716 64.22 159.836 63.78C160.976 63.34 162.316 63.12 163.856 63.12C164.996 63.12 166.126 63.25 167.246 63.51C168.386 63.75 169.326 64.09 170.066 64.53L168.506 67.86C167.086 67.06 165.536 66.66 163.856 66.66C162.856 66.66 162.106 66.8 161.606 67.08C161.106 67.36 160.856 67.72 160.856 68.16C160.856 68.66 161.126 69.01 161.666 69.21C162.206 69.41 163.066 69.6 164.246 69.78C165.566 70 166.646 70.24 167.486 70.5C168.326 70.74 169.056 71.19 169.676 71.85C170.296 72.51 170.606 73.43 170.606 74.61C170.606 75.61 170.306 76.5 169.706 77.28C169.106 78.06 168.226 78.67 167.066 79.11C165.926 79.53 164.566 79.74 162.986 79.74ZM183.604 63.12C185.604 63.12 187.214 63.72 188.434 64.92C189.674 66.12 190.294 67.9 190.294 70.26V79.5H185.614V70.98C185.614 69.7 185.334 68.75 184.774 68.13C184.214 67.49 183.404 67.17 182.344 67.17C181.164 67.17 180.224 67.54 179.524 68.28C178.824 69 178.474 70.08 178.474 71.52V79.5H173.794V57.24H178.474V65.04C179.094 64.42 179.844 63.95 180.724 63.63C181.604 63.29 182.564 63.12 183.604 63.12ZM204.646 63.12C206.646 63.12 208.256 63.72 209.476 64.92C210.716 66.12 211.336 67.9 211.336 70.26V79.5H206.656V70.98C206.656 69.7 206.376 68.75 205.816 68.13C205.256 67.49 204.446 67.17 203.386 67.17C202.206 67.17 201.266 67.54 200.566 68.28C199.866 69 199.516 70.08 199.516 71.52V79.5H194.836V63.36H199.306V65.25C199.926 64.57 200.696 64.05 201.616 63.69C202.536 63.31 203.546 63.12 204.646 63.12ZM231.864 71.49C231.864 71.55 231.834 71.97 231.774 72.75H219.564C219.784 73.75 220.304 74.54 221.124 75.12C221.944 75.7 222.964 75.99 224.184 75.99C225.024 75.99 225.764 75.87 226.404 75.63C227.064 75.37 227.674 74.97 228.234 74.43L230.724 77.13C229.204 78.87 226.984 79.74 224.064 79.74C222.244 79.74 220.634 79.39 219.234 78.69C217.834 77.97 216.754 76.98 215.994 75.72C215.234 74.46 214.854 73.03 214.854 71.43C214.854 69.85 215.224 68.43 215.964 67.17C216.724 65.89 217.754 64.9 219.054 64.2C220.374 63.48 221.844 63.12 223.464 63.12C225.044 63.12 226.474 63.46 227.754 64.14C229.034 64.82 230.034 65.8 230.754 67.08C231.494 68.34 231.864 69.81 231.864 71.49ZM223.494 66.66C222.434 66.66 221.544 66.96 220.824 67.56C220.104 68.16 219.664 68.98 219.504 70.02H227.454C227.294 69 226.854 68.19 226.134 67.59C225.414 66.97 224.534 66.66 223.494 66.66ZM239.75 65.49C240.31 64.71 241.06 64.12 242 63.72C242.96 63.32 244.06 63.12 245.3 63.12V67.44C244.78 67.4 244.43 67.38 244.25 67.38C242.91 67.38 241.86 67.76 241.1 68.52C240.34 69.26 239.96 70.38 239.96 71.88V79.5H235.28V63.36H239.75V65.49ZM264.676 57.24V79.5H260.206V77.64C259.046 79.04 257.366 79.74 255.166 79.74C253.646 79.74 252.266 79.4 251.026 78.72C249.806 78.04 248.846 77.07 248.146 75.81C247.446 74.55 247.096 73.09 247.096 71.43C247.096 69.77 247.446 68.31 248.146 67.05C248.846 65.79 249.806 64.82 251.026 64.14C252.266 63.46 253.646 63.12 255.166 63.12C257.226 63.12 258.836 63.77 259.996 65.07V57.24H264.676ZM255.976 75.9C257.156 75.9 258.136 75.5 258.916 74.7C259.696 73.88 260.086 72.79 260.086 71.43C260.086 70.07 259.696 68.99 258.916 68.19C258.136 67.37 257.156 66.96 255.976 66.96C254.776 66.96 253.786 67.37 253.006 68.19C252.226 68.99 251.836 70.07 251.836 71.43C251.836 72.79 252.226 73.88 253.006 74.7C253.786 75.5 254.776 75.9 255.976 75.9ZM271.078 79.74C270.258 79.74 269.568 79.46 269.008 78.9C268.448 78.34 268.168 77.64 268.168 76.8C268.168 75.94 268.448 75.25 269.008 74.73C269.568 74.19 270.258 73.92 271.078 73.92C271.898 73.92 272.588 74.19 273.148 74.73C273.708 75.25 273.988 75.94 273.988 76.8C273.988 77.64 273.708 78.34 273.148 78.9C272.588 79.46 271.898 79.74 271.078 79.74ZM284.934 79.74C283.234 79.74 281.704 79.39 280.344 78.69C279.004 77.97 277.954 76.98 277.194 75.72C276.434 74.46 276.054 73.03 276.054 71.43C276.054 69.83 276.434 68.4 277.194 67.14C277.954 65.88 279.004 64.9 280.344 64.2C281.704 63.48 283.234 63.12 284.934 63.12C286.634 63.12 288.154 63.48 289.494 64.2C290.834 64.9 291.884 65.88 292.644 67.14C293.404 68.4 293.784 69.83 293.784 71.43C293.784 73.03 293.404 74.46 292.644 75.72C291.884 76.98 290.834 77.97 289.494 78.69C288.154 79.39 286.634 79.74 284.934 79.74ZM284.934 75.9C286.134 75.9 287.114 75.5 287.874 74.7C288.654 73.88 289.044 72.79 289.044 71.43C289.044 70.07 288.654 68.99 287.874 68.19C287.114 67.37 286.134 66.96 284.934 66.96C283.734 66.96 282.744 67.37 281.964 68.19C281.184 68.99 280.794 70.07 280.794 71.43C280.794 72.79 281.184 73.88 281.964 74.7C282.744 75.5 283.734 75.9 284.934 75.9ZM301.682 65.49C302.242 64.71 302.992 64.12 303.932 63.72C304.892 63.32 305.992 63.12 307.232 63.12V67.44C306.712 67.4 306.362 67.38 306.182 67.38C304.842 67.38 303.792 67.76 303.032 68.52C302.272 69.26 301.892 70.38 301.892 71.88V79.5H297.212V63.36H301.682V65.49ZM326.819 63.36V76.8C326.819 79.76 326.049 81.96 324.509 83.4C322.969 84.84 320.719 85.56 317.759 85.56C316.199 85.56 314.719 85.37 313.319 84.99C311.919 84.61 310.759 84.06 309.839 83.34L311.699 79.98C312.379 80.54 313.239 80.98 314.279 81.3C315.319 81.64 316.359 81.81 317.399 81.81C319.019 81.81 320.209 81.44 320.969 80.7C321.749 79.98 322.139 78.88 322.139 77.4V76.71C320.919 78.05 319.219 78.72 317.039 78.72C315.559 78.72 314.199 78.4 312.959 77.76C311.739 77.1 310.769 76.18 310.049 75C309.329 73.82 308.969 72.46 308.969 70.92C308.969 69.38 309.329 68.02 310.049 66.84C310.769 65.66 311.739 64.75 312.959 64.11C314.199 63.45 315.559 63.12 317.039 63.12C319.379 63.12 321.159 63.89 322.379 65.43V63.36H326.819ZM317.969 74.88C319.209 74.88 320.219 74.52 320.999 73.8C321.799 73.06 322.199 72.1 322.199 70.92C322.199 69.74 321.799 68.79 320.999 68.07C320.219 67.33 319.209 66.96 317.969 66.96C316.729 66.96 315.709 67.33 314.909 68.07C314.109 68.79 313.709 69.74 313.709 70.92C313.709 72.1 314.109 73.06 314.909 73.8C315.709 74.52 316.729 74.88 317.969 74.88Z" fill="#848499"/>
<circle cx="1061" cy="175.5" r="375" fill="#6666FF"/>
<circle cx="1059.5" cy="177" r="262.5" fill="#8080FF"/>
<ellipse cx="1061" cy="175.5" rx="150" ry="150" fill="#9999FF"/>
<circle cx="1061" cy="175.5" r="375" fill="url(#paint0_linear)"/>
<g filter="url(#filter0_d)">
<path d="M1077.27 589.728L1079.46 600.669L1068.52 602.857L1070.16 589.18L1077.27 589.728Z" fill="#FFB8B8"/>
<path d="M1122.06 587.737L1119.58 600.127L1109.39 600.373L1112.64 585.259L1122.06 587.737Z" fill="#FFB8B8"/>
<path d="M1138.3 460.458L1141.14 479.634C1141.14 479.634 1138.3 522.248 1137.59 524.378C1136.88 526.509 1134.75 537.162 1134.75 537.162L1122.68 588.299C1122.68 588.299 1112.23 589.719 1110.1 584.037L1110.61 553.498L1109.9 518.697L1101.37 478.924L1086.46 532.901C1086.46 532.901 1085.75 550.657 1083.62 557.049C1081.49 563.441 1078.65 591.139 1078.65 591.139C1078.65 591.139 1069.61 593.27 1068.9 591.139C1068.19 589.009 1064.44 538.583 1064.44 530.77C1064.44 522.958 1060.27 448.049 1060.27 448.049L1138.3 460.458Z" fill="#2F2E41"/>
<path d="M1112.66 599.42C1113.83 599.661 1115.04 599.661 1116.21 599.42C1117.54 598.976 1116.21 596.315 1116.21 596.315H1121.09C1121.09 596.315 1126.41 608.291 1128.63 609.178C1130.85 610.065 1137.94 619.824 1129.51 619.824C1124.31 619.757 1119.24 618.219 1114.88 615.388C1114.88 615.388 1113.99 611.396 1110 610.953C1106.01 610.509 1103.34 605.63 1103.34 605.63L1107.68 597.631C1107.8 597.405 1107.98 597.216 1108.2 597.085C1108.42 596.954 1108.68 596.884 1108.93 596.883C1109.19 596.883 1109.44 596.952 1109.67 597.082C1109.89 597.213 1110.07 597.4 1110.19 597.626C1110.8 598.69 1111.63 599.625 1112.66 599.42Z" fill="#2F2E41"/>
<path d="M1075.54 598.046C1075.54 598.046 1074.55 600.025 1073.56 599.035C1072.73 597.985 1072.06 596.818 1071.58 595.573C1071.58 595.573 1068.61 594.089 1068.12 595.573C1067.62 597.057 1065.64 604.971 1064.65 605.961C1063.66 606.95 1053.28 617.338 1063.66 619.317C1074.05 621.296 1076.03 616.844 1076.03 616.844C1076.03 616.844 1074.55 614.37 1077.51 613.381C1080.48 612.392 1080.98 608.929 1080.98 608.929L1079.49 597.748C1079.45 597.51 1079.35 597.287 1079.19 597.107C1079.03 596.927 1078.82 596.799 1078.59 596.739C1078.36 596.679 1078.11 596.69 1077.88 596.77C1077.66 596.85 1077.46 596.995 1077.32 597.188C1076.74 597.936 1076.1 598.424 1075.54 598.046Z" fill="#2F2E41"/>
<path d="M1154.64 410.743L1156.77 447.674C1156.77 447.674 1166.71 471.112 1153.22 470.401C1139.72 469.691 1148.25 446.964 1148.25 446.964L1135.04 414.003L1154.64 410.743Z" fill="#FFB8B8"/>
<path d="M1045.26 400.089L1043.13 437.021C1043.13 437.021 1033.19 460.458 1046.69 459.748C1060.18 459.038 1051.66 436.311 1051.66 436.311L1064.87 403.35L1045.26 400.089Z" fill="#FFB8B8"/>
<path d="M1102.08 319.834C1112.28 319.834 1120.55 311.567 1120.55 301.368C1120.55 291.17 1112.28 282.902 1102.08 282.902C1091.88 282.902 1083.62 291.17 1083.62 301.368C1083.62 311.567 1091.88 319.834 1102.08 319.834Z" fill="#FFB8B8"/>
<path d="M1116.64 308.826C1116.64 308.826 1111.67 328.712 1121.61 333.684C1131.56 338.655 1090.36 345.757 1087.52 333.684L1088.94 328.002C1088.94 328.002 1094.63 320.899 1093.2 314.507L1116.64 308.826Z" fill="#FFB8B8"/>
<path d="M1105.63 334.038C1105.63 334.038 1093.38 335.183 1089.56 327.153C1089.56 327.153 1060.89 329.067 1054.5 355.345C1061.92 355.557 1071.12 439.971 1058.96 448.384C1049.09 455.214 1075.99 465.733 1113.45 466.14L1141.86 464.72C1136.56 460.156 1123.88 400.766 1131.91 401.51C1131.91 401.51 1153.22 368.129 1151.09 363.158C1148.96 358.186 1145.55 338.583 1118.13 330.629C1118.13 330.629 1117.71 334.749 1105.63 334.038Z" fill="#E6E6E6"/>
<path d="M1141.86 351.084L1151.09 363.158C1151.09 363.158 1160.32 413.584 1157.48 414.294C1154.64 415.004 1137.59 420.686 1134.75 418.555C1131.91 416.425 1119.13 374.521 1119.13 374.521L1141.86 351.084Z" fill="#E6E6E6"/>
<path d="M1066.57 347.533L1054.5 355.345C1054.5 355.345 1036.74 405.061 1041.71 407.191C1046.69 409.322 1074.38 407.902 1074.38 407.902L1066.57 347.533Z" fill="#E6E6E6"/>
<path d="M1122.27 284.843C1122.27 284.843 1115.87 270.985 1103.61 274.183C1091.35 277.381 1084.42 282.178 1083.89 286.975C1083.36 291.772 1084.16 298.967 1084.16 298.967C1084.16 298.967 1085.49 289.107 1094.02 291.239C1102.55 293.371 1115.87 291.772 1115.87 291.772L1118 310.96C1118 310.96 1120.4 307.495 1123.07 309.627C1125.73 311.759 1130.8 289.107 1122.27 284.843Z" fill="#2F2E41"/>
<path d="M991.217 185H571C565.477 185 561 189.477 561 195V456.25C561 461.773 565.477 466.25 571 466.25H991.217C996.74 466.25 1001.22 461.773 1001.22 456.25V195C1001.22 189.477 996.74 185 991.217 185Z" fill="#E6E6E6"/>
<path d="M983.511 220.526H579.465C576.703 220.526 574.465 222.764 574.465 225.526V444.868C574.465 447.63 576.703 449.868 579.465 449.868H983.511C986.272 449.868 988.511 447.63 988.511 444.868V225.526C988.511 222.764 986.272 220.526 983.511 220.526Z" fill="white"/>
<path d="M561 195C561 189.477 565.477 185 571 185H991.217C996.74 185 1001.22 189.477 1001.22 195V203.702H561V195Z" fill="#2F2E44"/>
<path d="M575.584 197.997C577.494 197.997 579.042 196.449 579.042 194.539C579.042 192.629 577.494 191.081 575.584 191.081C573.674 191.081 572.126 192.629 572.126 194.539C572.126 196.449 573.674 197.997 575.584 197.997Z" fill="white"/>
<path d="M588.71 197.997C590.62 197.997 592.168 196.449 592.168 194.539C592.168 192.629 590.62 191.081 588.71 191.081C586.8 191.081 585.251 192.629 585.251 194.539C585.251 196.449 586.8 197.997 588.71 197.997Z" fill="white"/>
<path d="M601.835 197.997C603.745 197.997 605.293 196.449 605.293 194.539C605.293 192.629 603.745 191.081 601.835 191.081C599.925 191.081 598.377 192.629 598.377 194.539C598.377 196.449 599.925 197.997 601.835 197.997Z" fill="white"/>
<path d="M839.011 255.737H614.692C611.93 255.737 609.692 257.975 609.692 260.737V382.542C609.692 385.303 611.93 387.542 614.692 387.542H839.011C841.773 387.542 844.011 385.303 844.011 382.542V260.737C844.011 257.975 841.773 255.737 839.011 255.737Z" fill="#6C63FF"/>
<path d="M960.939 255.737H881.707C878.946 255.737 876.707 257.975 876.707 260.737V300.93C876.707 303.691 878.946 305.93 881.707 305.93H960.939C963.7 305.93 965.939 303.691 965.939 300.93V260.737C965.939 257.975 963.7 255.737 960.939 255.737Z" fill="#E6E6E6"/>
<path d="M960.939 321.81H881.707C878.946 321.81 876.707 324.048 876.707 326.81V367.003C876.707 369.764 878.946 372.003 881.707 372.003H960.939C963.7 372.003 965.939 369.764 965.939 367.003V326.81C965.939 324.048 963.7 321.81 960.939 321.81Z" fill="#E6E6E6"/>
<path d="M960.939 387.882H881.707C878.946 387.882 876.707 390.12 876.707 392.882V433.075C876.707 435.836 878.946 438.075 881.707 438.075H960.939C963.7 438.075 965.939 435.836 965.939 433.075V392.882C965.939 390.12 963.7 387.882 960.939 387.882Z" fill="#E6E6E6"/>
<path d="M768.627 409.679H612.192C610.811 409.679 609.692 410.798 609.692 412.179V418.078C609.692 419.458 610.811 420.578 612.192 420.578H768.627C770.008 420.578 771.127 419.458 771.127 418.078V412.179C771.127 410.798 770.008 409.679 768.627 409.679Z" fill="#E6E6E6"/>
<path d="M751.464 319.503C753.13 320.466 753.13 322.871 751.464 323.834L710.41 347.536C708.743 348.498 706.66 347.295 706.66 345.371L706.66 297.966C706.66 296.042 708.743 294.839 710.41 295.801L751.464 319.503Z" fill="white"/>
<path fill-rule="evenodd" clip-rule="evenodd" d="M571 185C565.477 185 561 189.477 561 195V203.702V456.25C561 461.773 565.477 466.25 571 466.25H991.217C996.74 466.25 1001.22 461.773 1001.22 456.25V203.702V195C1001.22 189.477 996.74 185 991.217 185H571ZM1103.61 274.183C1115.87 270.985 1122.27 284.843 1122.27 284.843C1130.79 289.107 1125.73 311.759 1123.07 309.627C1120.4 307.495 1118 310.96 1118 310.96L1117.98 310.766C1117.35 311.84 1116.6 312.844 1115.77 313.763C1115.16 318.647 1114.93 326.037 1118.13 330.633L1118.13 330.629C1142.33 337.652 1147.83 353.755 1150.25 360.852L1150.25 360.853L1150.25 360.855C1150.57 361.795 1150.84 362.576 1151.09 363.158C1151.18 363.378 1151.23 363.653 1151.24 363.979C1152.41 370.497 1160.11 413.637 1157.48 414.294C1156.99 414.416 1156.08 414.687 1154.89 415.04L1156.77 447.674C1156.77 447.674 1166.71 471.112 1153.22 470.402C1139.72 469.691 1148.25 446.964 1148.25 446.964L1137.05 419.03C1136 419.033 1135.2 418.892 1134.75 418.555C1133.81 417.844 1131.75 412.708 1129.43 406.178C1128.16 420.167 1137.5 460.969 1141.86 464.72L1138.96 464.865L1141.15 479.634C1141.15 479.634 1138.3 522.248 1137.59 524.379C1136.88 526.509 1134.75 537.163 1134.75 537.163L1122.68 588.299C1122.68 588.299 1122.4 588.336 1121.93 588.375L1120.34 596.315H1121.09C1121.09 596.315 1126.41 608.291 1128.63 609.178C1130.85 610.065 1137.94 619.824 1129.51 619.824C1124.31 619.757 1119.24 618.219 1114.88 615.388C1114.88 615.388 1113.99 611.396 1110 610.952C1106.01 610.509 1103.34 605.63 1103.34 605.63L1107.68 597.63C1107.8 597.405 1107.98 597.216 1108.2 597.085C1108.42 596.953 1108.68 596.884 1108.93 596.883C1109.19 596.883 1109.44 596.951 1109.67 597.082C1109.8 597.163 1109.93 597.267 1110.03 597.388L1112.32 586.729C1111.34 586.086 1110.54 585.214 1110.1 584.037L1110.61 553.498L1109.9 518.697L1101.37 478.924L1086.46 532.901C1086.46 532.901 1085.75 550.657 1083.62 557.049C1081.49 563.441 1078.65 591.14 1078.65 591.14C1078.65 591.14 1078.24 591.235 1077.6 591.365L1078.68 596.766C1078.88 596.834 1079.05 596.951 1079.19 597.107C1079.35 597.287 1079.45 597.51 1079.49 597.748L1080.98 608.929C1080.98 608.929 1080.48 612.391 1077.51 613.381C1074.55 614.37 1076.03 616.844 1076.03 616.844C1076.03 616.844 1074.05 621.296 1063.66 619.317C1053.28 617.338 1063.66 606.95 1064.65 605.961C1065.39 605.219 1066.69 600.583 1067.5 597.685L1067.5 597.683L1067.51 597.682L1067.51 597.681C1067.78 596.716 1067.99 595.943 1068.12 595.573C1068.31 595.003 1068.86 594.871 1069.47 594.924L1069.84 591.869C1069.36 591.72 1069.02 591.486 1068.9 591.14C1068.19 589.009 1064.44 538.583 1064.44 530.771C1064.44 524.547 1061.79 475.744 1060.71 456.151C1056.51 453.499 1055.58 450.725 1058.96 448.385C1064.17 444.776 1065.46 427.187 1064.64 408.258C1064.07 408.272 1063.48 408.285 1062.89 408.298L1051.66 436.311C1051.66 436.311 1060.18 459.038 1046.69 459.748C1033.19 460.458 1043.13 437.021 1043.13 437.021L1044.82 407.869C1043.45 407.699 1042.38 407.477 1041.71 407.192C1036.76 405.07 1054.34 355.785 1054.5 355.348L1054.5 355.345C1060.89 329.067 1089.56 327.154 1089.56 327.154C1090.7 325.511 1093.04 321.699 1093.39 317.663C1087.57 314.554 1083.62 308.423 1083.62 301.368C1083.62 300.048 1083.76 298.76 1084.02 297.518C1083.82 295.169 1083.51 290.444 1083.89 286.975C1084.42 282.178 1091.35 277.381 1103.61 274.183Z" fill="url(#paint1_linear)"/>
</g>
</g>
<defs>
<filter id="filter0_d" x="541" y="145" width="660" height="495" filterUnits="userSpaceOnUse" color-interpolation-filters="sRGB">
<feFlood flood-opacity="0" result="BackgroundImageFix"/>
<feColorMatrix in="SourceAlpha" type="matrix" values="0 0 0 0 0 0 0 0 0 0 0 0 0 0 0 0 0 0 127 0"/>
<feOffset dx="10" dy="-10"/>
<feGaussianBlur stdDeviation="15"/>
<feColorMatrix type="matrix" values="0 0 0 0 0.517647 0 0 0 0 0.517647 0 0 0 0 0.6 0 0 0 0.05 0"/>
<feBlend mode="normal" in2="BackgroundImageFix" result="effect1_dropShadow"/>
<feBlend mode="normal" in="SourceGraphic" in2="effect1_dropShadow" result="shape"/>
</filter>
<linearGradient id="paint0_linear" x1="686" y1="-199.5" x2="1549.99" y2="380.766" gradientUnits="userSpaceOnUse">
<stop stop-color="white" stop-opacity="0.2"/>
<stop offset="1" stop-color="white" stop-opacity="0"/>
</linearGradient>
<linearGradient id="paint1_linear" x1="561" y1="619.824" x2="1119.4" y2="468.631" gradientUnits="userSpaceOnUse">
<stop stop-color="white" stop-opacity="0.2"/>
<stop offset="1" stop-color="white" stop-opacity="0"/>
</linearGradient>
<clipPath id="clip0">
<rect width="1236" height="695" fill="white" transform="translate(0 0.5)"/>
</clipPath>
</defs>
</svg>
