<svg width="1620" height="695" viewBox="0 0 1620 695" fill="none" xmlns="http://www.w3.org/2000/svg">
<g clip-path="url(#clip0)">
<rect width="1620" height="695" fill="white"/>
<path d="M140.625 321.55V330H105.395V284.5H139.78V292.95H115.86V302.83H136.985V311.02H115.86V321.55H140.625ZM170.193 294.51C174.527 294.51 178.015 295.81 180.658 298.41C183.345 301.01 184.688 304.867 184.688 309.98V330H174.548V311.54C174.548 308.767 173.942 306.708 172.728 305.365C171.515 303.978 169.76 303.285 167.463 303.285C164.907 303.285 162.87 304.087 161.353 305.69C159.837 307.25 159.078 309.59 159.078 312.71V330H148.938V295.03H158.623V299.125C159.967 297.652 161.635 296.525 163.628 295.745C165.622 294.922 167.81 294.51 170.193 294.51ZM194.53 295.03H204.67V330H194.53V295.03ZM199.6 290.155C197.736 290.155 196.22 289.613 195.05 288.53C193.88 287.447 193.295 286.103 193.295 284.5C193.295 282.897 193.88 281.553 195.05 280.47C196.22 279.387 197.736 278.845 199.6 278.845C201.463 278.845 202.98 279.365 204.15 280.405C205.32 281.445 205.905 282.745 205.905 284.305C205.905 285.995 205.32 287.403 204.15 288.53C202.98 289.613 201.463 290.155 199.6 290.155ZM259.516 294.51C263.892 294.51 267.359 295.81 269.916 298.41C272.516 300.967 273.816 304.823 273.816 309.98V330H263.676V311.54C263.676 308.767 263.091 306.708 261.921 305.365C260.794 303.978 259.169 303.285 257.046 303.285C254.662 303.285 252.777 304.065 251.391 305.625C250.004 307.142 249.311 309.417 249.311 312.45V330H239.171V311.54C239.171 306.037 236.961 303.285 232.541 303.285C230.201 303.285 228.337 304.065 226.951 305.625C225.564 307.142 224.871 309.417 224.871 312.45V330H214.731V295.03H224.416V299.06C225.716 297.587 227.297 296.46 229.161 295.68C231.067 294.9 233.147 294.51 235.401 294.51C237.871 294.51 240.102 295.008 242.096 296.005C244.089 296.958 245.692 298.367 246.906 300.23C248.336 298.41 250.134 297.002 252.301 296.005C254.511 295.008 256.916 294.51 259.516 294.51ZM337.323 295.03L322.568 330H312.103L297.413 295.03H307.878L317.563 318.82L327.573 295.03H337.323ZM342.11 295.03H352.25V330H342.11V295.03ZM347.18 290.155C345.317 290.155 343.8 289.613 342.63 288.53C341.46 287.447 340.875 286.103 340.875 284.5C340.875 282.897 341.46 281.553 342.63 280.47C343.8 279.387 345.317 278.845 347.18 278.845C349.044 278.845 350.56 279.365 351.73 280.405C352.9 281.445 353.485 282.745 353.485 284.305C353.485 285.995 352.9 287.403 351.73 288.53C350.56 289.613 349.044 290.155 347.18 290.155ZM384.866 328.31C383.869 329.047 382.634 329.61 381.161 330C379.731 330.347 378.214 330.52 376.611 330.52C372.451 330.52 369.223 329.458 366.926 327.335C364.673 325.212 363.546 322.092 363.546 317.975V303.61H358.151V295.81H363.546V287.295H373.686V295.81H382.396V303.61H373.686V317.845C373.686 319.318 374.054 320.467 374.791 321.29C375.571 322.07 376.654 322.46 378.041 322.46C379.644 322.46 381.009 322.027 382.136 321.16L384.866 328.31ZM405.313 294.51C410.73 294.51 414.89 295.81 417.793 298.41C420.696 300.967 422.148 304.845 422.148 310.045V330H412.658V325.645C410.751 328.895 407.198 330.52 401.998 330.52C399.311 330.52 396.971 330.065 394.978 329.155C393.028 328.245 391.533 326.988 390.493 325.385C389.453 323.782 388.933 321.962 388.933 319.925C388.933 316.675 390.146 314.118 392.573 312.255C395.043 310.392 398.835 309.46 403.948 309.46H412.008C412.008 307.25 411.336 305.56 409.993 304.39C408.65 303.177 406.635 302.57 403.948 302.57C402.085 302.57 400.243 302.873 398.423 303.48C396.646 304.043 395.13 304.823 393.873 305.82L390.233 298.735C392.14 297.392 394.415 296.352 397.058 295.615C399.745 294.878 402.496 294.51 405.313 294.51ZM404.533 323.695C406.266 323.695 407.805 323.305 409.148 322.525C410.491 321.702 411.445 320.51 412.008 318.95V315.375H405.053C400.893 315.375 398.813 316.74 398.813 319.47C398.813 320.77 399.311 321.81 400.308 322.59C401.348 323.327 402.756 323.695 404.533 323.695ZM466.611 312.645C466.611 312.775 466.546 313.685 466.416 315.375H439.961C440.438 317.542 441.565 319.253 443.341 320.51C445.118 321.767 447.328 322.395 449.971 322.395C451.791 322.395 453.395 322.135 454.781 321.615C456.211 321.052 457.533 320.185 458.746 319.015L464.141 324.865C460.848 328.635 456.038 330.52 449.711 330.52C445.768 330.52 442.28 329.762 439.246 328.245C436.213 326.685 433.873 324.54 432.226 321.81C430.58 319.08 429.756 315.982 429.756 312.515C429.756 309.092 430.558 306.015 432.161 303.285C433.808 300.512 436.04 298.367 438.856 296.85C441.716 295.29 444.901 294.51 448.411 294.51C451.835 294.51 454.933 295.247 457.706 296.72C460.48 298.193 462.646 300.317 464.206 303.09C465.81 305.82 466.611 309.005 466.611 312.645ZM448.476 302.18C446.18 302.18 444.251 302.83 442.691 304.13C441.131 305.43 440.178 307.207 439.831 309.46H457.056C456.71 307.25 455.756 305.495 454.196 304.195C452.636 302.852 450.73 302.18 448.476 302.18ZM528.3 295.03V330H518.68V325.84C517.337 327.357 515.734 328.527 513.87 329.35C512.007 330.13 509.992 330.52 507.825 330.52C503.232 330.52 499.592 329.198 496.905 326.555C494.219 323.912 492.875 319.99 492.875 314.79V295.03H503.015V313.295C503.015 318.928 505.377 321.745 510.1 321.745C512.527 321.745 514.477 320.965 515.95 319.405C517.424 317.802 518.16 315.44 518.16 312.32V295.03H528.3ZM548.029 299.645C549.243 297.955 550.868 296.677 552.904 295.81C554.984 294.943 557.368 294.51 560.054 294.51V303.87C558.928 303.783 558.169 303.74 557.779 303.74C554.876 303.74 552.601 304.563 550.954 306.21C549.308 307.813 548.484 310.24 548.484 313.49V330H538.344V295.03H548.029V299.645ZM587.989 294.51C592.322 294.51 595.81 295.81 598.454 298.41C601.14 301.01 602.484 304.867 602.484 309.98V330H592.344V311.54C592.344 308.767 591.737 306.708 590.524 305.365C589.31 303.978 587.555 303.285 585.259 303.285C582.702 303.285 580.665 304.087 579.149 305.69C577.632 307.25 576.874 309.59 576.874 312.71V330H566.734V295.03H576.419V299.125C577.762 297.652 579.43 296.525 581.424 295.745C583.417 294.922 585.605 294.51 587.989 294.51ZM626.43 294.51C631.847 294.51 636.007 295.81 638.91 298.41C641.813 300.967 643.265 304.845 643.265 310.045V330H633.775V325.645C631.868 328.895 628.315 330.52 623.115 330.52C620.428 330.52 618.088 330.065 616.095 329.155C614.145 328.245 612.65 326.988 611.61 325.385C610.57 323.782 610.05 321.962 610.05 319.925C610.05 316.675 611.263 314.118 613.69 312.255C616.16 310.392 619.952 309.46 625.065 309.46H633.125C633.125 307.25 632.453 305.56 631.11 304.39C629.767 303.177 627.752 302.57 625.065 302.57C623.202 302.57 621.36 302.873 619.54 303.48C617.763 304.043 616.247 304.823 614.99 305.82L611.35 298.735C613.257 297.392 615.532 296.352 618.175 295.615C620.862 294.878 623.613 294.51 626.43 294.51ZM625.65 323.695C627.383 323.695 628.922 323.305 630.265 322.525C631.608 321.702 632.562 320.51 633.125 318.95V315.375H626.17C622.01 315.375 619.93 316.74 619.93 319.47C619.93 320.77 620.428 321.81 621.425 322.59C622.465 323.327 623.873 323.695 625.65 323.695ZM127.235 409.31C126.238 410.047 125.003 410.61 123.53 411C122.1 411.347 120.583 411.52 118.98 411.52C114.82 411.52 111.592 410.458 109.295 408.335C107.042 406.212 105.915 403.092 105.915 398.975V384.61H100.52V376.81H105.915V368.295H116.055V376.81H124.765V384.61H116.055V398.845C116.055 400.318 116.423 401.467 117.16 402.29C117.94 403.07 119.023 403.46 120.41 403.46C122.013 403.46 123.378 403.027 124.505 402.16L127.235 409.31ZM133.577 376.03H143.717V411H133.577V376.03ZM138.647 371.155C136.784 371.155 135.267 370.613 134.097 369.53C132.927 368.447 132.342 367.103 132.342 365.5C132.342 363.897 132.927 362.553 134.097 361.47C135.267 360.387 136.784 359.845 138.647 359.845C140.51 359.845 142.027 360.365 143.197 361.405C144.367 362.445 144.952 363.745 144.952 365.305C144.952 366.995 144.367 368.403 143.197 369.53C142.027 370.613 140.51 371.155 138.647 371.155ZM175.033 375.51C179.366 375.51 182.855 376.81 185.498 379.41C188.185 382.01 189.528 385.867 189.528 390.98V411H179.388V392.54C179.388 389.767 178.781 387.708 177.568 386.365C176.355 384.978 174.6 384.285 172.303 384.285C169.746 384.285 167.71 385.087 166.193 386.69C164.676 388.25 163.918 390.59 163.918 393.71V411H153.778V376.03H163.463V380.125C164.806 378.652 166.475 377.525 168.468 376.745C170.461 375.922 172.65 375.51 175.033 375.51ZM216.65 411.52C212.923 411.52 209.565 410.762 206.575 409.245C203.628 407.685 201.31 405.54 199.62 402.81C197.973 400.08 197.15 396.982 197.15 393.515C197.15 390.048 197.973 386.95 199.62 384.22C201.31 381.49 203.628 379.367 206.575 377.85C209.565 376.29 212.923 375.51 216.65 375.51C220.333 375.51 223.54 376.29 226.27 377.85C229.043 379.367 231.058 381.555 232.315 384.415L224.45 388.64C222.63 385.433 220.008 383.83 216.585 383.83C213.942 383.83 211.753 384.697 210.02 386.43C208.287 388.163 207.42 390.525 207.42 393.515C207.42 396.505 208.287 398.867 210.02 400.6C211.753 402.333 213.942 403.2 216.585 403.2C220.052 403.2 222.673 401.597 224.45 398.39L232.315 402.68C231.058 405.453 229.043 407.62 226.27 409.18C223.54 410.74 220.333 411.52 216.65 411.52ZM238.803 376.03H248.943V411H238.803V376.03ZM243.873 371.155C242.01 371.155 240.493 370.613 239.323 369.53C238.153 368.447 237.568 367.103 237.568 365.5C237.568 363.897 238.153 362.553 239.323 361.47C240.493 360.387 242.01 359.845 243.873 359.845C245.737 359.845 247.253 360.365 248.423 361.405C249.593 362.445 250.178 363.745 250.178 365.305C250.178 366.995 249.593 368.403 248.423 369.53C247.253 370.613 245.737 371.155 243.873 371.155ZM294.624 362.77V411H284.939V406.97C282.426 410.003 278.786 411.52 274.019 411.52C270.726 411.52 267.736 410.783 265.049 409.31C262.406 407.837 260.326 405.735 258.809 403.005C257.293 400.275 256.534 397.112 256.534 393.515C256.534 389.918 257.293 386.755 258.809 384.025C260.326 381.295 262.406 379.193 265.049 377.72C267.736 376.247 270.726 375.51 274.019 375.51C278.483 375.51 281.971 376.918 284.484 379.735V362.77H294.624ZM275.774 403.2C278.331 403.2 280.454 402.333 282.144 400.6C283.834 398.823 284.679 396.462 284.679 393.515C284.679 390.568 283.834 388.228 282.144 386.495C280.454 384.718 278.331 383.83 275.774 383.83C273.174 383.83 271.029 384.718 269.339 386.495C267.649 388.228 266.804 390.568 266.804 393.515C266.804 396.462 267.649 398.823 269.339 400.6C271.029 402.333 273.174 403.2 275.774 403.2ZM339.889 376.03V411H330.269V406.84C328.926 408.357 327.322 409.527 325.459 410.35C323.596 411.13 321.581 411.52 319.414 411.52C314.821 411.52 311.181 410.198 308.494 407.555C305.807 404.912 304.464 400.99 304.464 395.79V376.03H314.604V394.295C314.604 399.928 316.966 402.745 321.689 402.745C324.116 402.745 326.066 401.965 327.539 400.405C329.012 398.802 329.749 396.44 329.749 393.32V376.03H339.889ZM371.188 375.51C375.521 375.51 379.01 376.81 381.653 379.41C384.34 382.01 385.683 385.867 385.683 390.98V411H375.543V392.54C375.543 389.767 374.936 387.708 373.723 386.365C372.51 384.978 370.755 384.285 368.458 384.285C365.901 384.285 363.865 385.087 362.348 386.69C360.831 388.25 360.073 390.59 360.073 393.71V411H349.933V376.03H359.618V380.125C360.961 378.652 362.63 377.525 364.623 376.745C366.616 375.922 368.805 375.51 371.188 375.51ZM418.08 409.31C417.083 410.047 415.848 410.61 414.375 411C412.945 411.347 411.428 411.52 409.825 411.52C405.665 411.52 402.436 410.458 400.14 408.335C397.886 406.212 396.76 403.092 396.76 398.975V384.61H391.365V376.81H396.76V368.295H406.9V376.81H415.61V384.61H406.9V398.845C406.9 400.318 407.268 401.467 408.005 402.29C408.785 403.07 409.868 403.46 411.255 403.46C412.858 403.46 414.223 403.027 415.35 402.16L418.08 409.31ZM457.585 375.51C463.001 375.51 467.161 376.81 470.065 379.41C472.968 381.967 474.42 385.845 474.42 391.045V411H464.93V406.645C463.023 409.895 459.47 411.52 454.27 411.52C451.583 411.52 449.243 411.065 447.25 410.155C445.3 409.245 443.805 407.988 442.765 406.385C441.725 404.782 441.205 402.962 441.205 400.925C441.205 397.675 442.418 395.118 444.845 393.255C447.315 391.392 451.106 390.46 456.22 390.46H464.28C464.28 388.25 463.608 386.56 462.265 385.39C460.921 384.177 458.906 383.57 456.22 383.57C454.356 383.57 452.515 383.873 450.695 384.48C448.918 385.043 447.401 385.823 446.145 386.82L442.505 379.735C444.411 378.392 446.686 377.352 449.33 376.615C452.016 375.878 454.768 375.51 457.585 375.51ZM456.805 404.695C458.538 404.695 460.076 404.305 461.42 403.525C462.763 402.702 463.716 401.51 464.28 399.95V396.375H457.325C453.165 396.375 451.085 397.74 451.085 400.47C451.085 401.77 451.583 402.81 452.58 403.59C453.62 404.327 455.028 404.695 456.805 404.695ZM529.032 375.51C533.409 375.51 536.875 376.81 539.432 379.41C542.032 381.967 543.332 385.823 543.332 390.98V411H533.192V392.54C533.192 389.767 532.607 387.708 531.437 386.365C530.31 384.978 528.685 384.285 526.562 384.285C524.179 384.285 522.294 385.065 520.907 386.625C519.52 388.142 518.827 390.417 518.827 393.45V411H508.687V392.54C508.687 387.037 506.477 384.285 502.057 384.285C499.717 384.285 497.854 385.065 496.467 386.625C495.08 388.142 494.387 390.417 494.387 393.45V411H484.247V376.03H493.932V380.06C495.232 378.587 496.814 377.46 498.677 376.68C500.584 375.9 502.664 375.51 504.917 375.51C507.387 375.51 509.619 376.008 511.612 377.005C513.605 377.958 515.209 379.367 516.422 381.23C517.852 379.41 519.65 378.002 521.817 377.005C524.027 376.008 526.432 375.51 529.032 375.51ZM587.707 393.645C587.707 393.775 587.642 394.685 587.512 396.375H561.057C561.533 398.542 562.66 400.253 564.437 401.51C566.213 402.767 568.423 403.395 571.067 403.395C572.887 403.395 574.49 403.135 575.877 402.615C577.307 402.052 578.628 401.185 579.842 400.015L585.237 405.865C581.943 409.635 577.133 411.52 570.807 411.52C566.863 411.52 563.375 410.762 560.342 409.245C557.308 407.685 554.968 405.54 553.322 402.81C551.675 400.08 550.852 396.982 550.852 393.515C550.852 390.092 551.653 387.015 553.257 384.285C554.903 381.512 557.135 379.367 559.952 377.85C562.812 376.29 565.997 375.51 569.507 375.51C572.93 375.51 576.028 376.247 578.802 377.72C581.575 379.193 583.742 381.317 585.302 384.09C586.905 386.82 587.707 390.005 587.707 393.645ZM569.572 383.18C567.275 383.18 565.347 383.83 563.787 385.13C562.227 386.43 561.273 388.207 560.927 390.46H578.152C577.805 388.25 576.852 386.495 575.292 385.195C573.732 383.852 571.825 383.18 569.572 383.18ZM617.663 409.31C616.666 410.047 615.431 410.61 613.958 411C612.528 411.347 611.011 411.52 609.408 411.52C605.248 411.52 602.019 410.458 599.723 408.335C597.469 406.212 596.343 403.092 596.343 398.975V384.61H590.948V376.81H596.343V368.295H606.483V376.81H615.193V384.61H606.483V398.845C606.483 400.318 606.851 401.467 607.588 402.29C608.368 403.07 609.451 403.46 610.838 403.46C612.441 403.46 613.806 403.027 614.933 402.16L617.663 409.31Z" fill="#2F2E44"/>
<path d="M117.97 95.99C117.97 96.05 117.94 96.47 117.88 97.25H105.67C105.89 98.25 106.41 99.04 107.23 99.62C108.05 100.2 109.07 100.49 110.29 100.49C111.13 100.49 111.87 100.37 112.51 100.13C113.17 99.87 113.78 99.47 114.34 98.93L116.83 101.63C115.31 103.37 113.09 104.24 110.17 104.24C108.35 104.24 106.74 103.89 105.34 103.19C103.94 102.47 102.86 101.48 102.1 100.22C101.34 98.96 100.96 97.53 100.96 95.93C100.96 94.35 101.33 92.93 102.07 91.67C102.83 90.39 103.86 89.4 105.16 88.7C106.48 87.98 107.95 87.62 109.57 87.62C111.15 87.62 112.58 87.96 113.86 88.64C115.14 89.32 116.14 90.3 116.86 91.58C117.6 92.84 117.97 94.31 117.97 95.99ZM109.6 91.16C108.54 91.16 107.65 91.46 106.93 92.06C106.21 92.66 105.77 93.48 105.61 94.52H113.56C113.4 93.5 112.96 92.69 112.24 92.09C111.52 91.47 110.64 91.16 109.6 91.16ZM131.196 87.62C133.196 87.62 134.806 88.22 136.026 89.42C137.266 90.62 137.886 92.4 137.886 94.76V104H133.206V95.48C133.206 94.2 132.926 93.25 132.366 92.63C131.806 91.99 130.996 91.67 129.936 91.67C128.756 91.67 127.816 92.04 127.116 92.78C126.416 93.5 126.066 94.58 126.066 96.02V104H121.386V87.86H125.856V89.75C126.476 89.07 127.246 88.55 128.166 88.19C129.086 87.81 130.096 87.62 131.196 87.62ZM159.254 87.86V101.3C159.254 104.26 158.484 106.46 156.944 107.9C155.404 109.34 153.154 110.06 150.194 110.06C148.634 110.06 147.154 109.87 145.754 109.49C144.354 109.11 143.194 108.56 142.274 107.84L144.134 104.48C144.814 105.04 145.674 105.48 146.714 105.8C147.754 106.14 148.794 106.31 149.834 106.31C151.454 106.31 152.644 105.94 153.404 105.2C154.184 104.48 154.574 103.38 154.574 101.9V101.21C153.354 102.55 151.654 103.22 149.474 103.22C147.994 103.22 146.634 102.9 145.394 102.26C144.174 101.6 143.204 100.68 142.484 99.5C141.764 98.32 141.404 96.96 141.404 95.42C141.404 93.88 141.764 92.52 142.484 91.34C143.204 90.16 144.174 89.25 145.394 88.61C146.634 87.95 147.994 87.62 149.474 87.62C151.814 87.62 153.594 88.39 154.814 89.93V87.86H159.254ZM150.404 99.38C151.644 99.38 152.654 99.02 153.434 98.3C154.234 97.56 154.634 96.6 154.634 95.42C154.634 94.24 154.234 93.29 153.434 92.57C152.654 91.83 151.644 91.46 150.404 91.46C149.164 91.46 148.144 91.83 147.344 92.57C146.544 93.29 146.144 94.24 146.144 95.42C146.144 96.6 146.544 97.56 147.344 98.3C148.144 99.02 149.164 99.38 150.404 99.38ZM163.91 81.74H168.59V104H163.91V81.74ZM173.233 87.86H177.913V104H173.233V87.86ZM175.573 85.61C174.713 85.61 174.013 85.36 173.473 84.86C172.933 84.36 172.663 83.74 172.663 83C172.663 82.26 172.933 81.64 173.473 81.14C174.013 80.64 174.713 80.39 175.573 80.39C176.433 80.39 177.133 80.63 177.673 81.11C178.213 81.59 178.483 82.19 178.483 82.91C178.483 83.69 178.213 84.34 177.673 84.86C177.133 85.36 176.433 85.61 175.573 85.61ZM187.986 104.24C186.646 104.24 185.336 104.08 184.056 103.76C182.776 103.42 181.756 103 180.996 102.5L182.556 99.14C183.276 99.6 184.146 99.98 185.166 100.28C186.186 100.56 187.186 100.7 188.166 100.7C190.146 100.7 191.136 100.21 191.136 99.23C191.136 98.77 190.866 98.44 190.326 98.24C189.786 98.04 188.956 97.87 187.836 97.73C186.516 97.53 185.426 97.3 184.566 97.04C183.706 96.78 182.956 96.32 182.316 95.66C181.696 95 181.386 94.06 181.386 92.84C181.386 91.82 181.676 90.92 182.256 90.14C182.856 89.34 183.716 88.72 184.836 88.28C185.976 87.84 187.316 87.62 188.856 87.62C189.996 87.62 191.126 87.75 192.246 88.01C193.386 88.25 194.326 88.59 195.066 89.03L193.506 92.36C192.086 91.56 190.536 91.16 188.856 91.16C187.856 91.16 187.106 91.3 186.606 91.58C186.106 91.86 185.856 92.22 185.856 92.66C185.856 93.16 186.126 93.51 186.666 93.71C187.206 93.91 188.066 94.1 189.246 94.28C190.566 94.5 191.646 94.74 192.486 95C193.326 95.24 194.056 95.69 194.676 96.35C195.296 97.01 195.606 97.93 195.606 99.11C195.606 100.11 195.306 101 194.706 101.78C194.106 102.56 193.226 103.17 192.066 103.61C190.926 104.03 189.566 104.24 187.986 104.24ZM208.604 87.62C210.604 87.62 212.214 88.22 213.434 89.42C214.674 90.62 215.294 92.4 215.294 94.76V104H210.614V95.48C210.614 94.2 210.334 93.25 209.774 92.63C209.214 91.99 208.404 91.67 207.344 91.67C206.164 91.67 205.224 92.04 204.524 92.78C203.824 93.5 203.474 94.58 203.474 96.02V104H198.794V81.74H203.474V89.54C204.094 88.92 204.844 88.45 205.724 88.13C206.604 87.79 207.564 87.62 208.604 87.62ZM229.646 87.62C231.646 87.62 233.256 88.22 234.476 89.42C235.716 90.62 236.336 92.4 236.336 94.76V104H231.656V95.48C231.656 94.2 231.376 93.25 230.816 92.63C230.256 91.99 229.446 91.67 228.386 91.67C227.206 91.67 226.266 92.04 225.566 92.78C224.866 93.5 224.516 94.58 224.516 96.02V104H219.836V87.86H224.306V89.75C224.926 89.07 225.696 88.55 226.616 88.19C227.536 87.81 228.546 87.62 229.646 87.62ZM256.864 95.99C256.864 96.05 256.834 96.47 256.774 97.25H244.564C244.784 98.25 245.304 99.04 246.124 99.62C246.944 100.2 247.964 100.49 249.184 100.49C250.024 100.49 250.764 100.37 251.404 100.13C252.064 99.87 252.674 99.47 253.234 98.93L255.724 101.63C254.204 103.37 251.984 104.24 249.064 104.24C247.244 104.24 245.634 103.89 244.234 103.19C242.834 102.47 241.754 101.48 240.994 100.22C240.234 98.96 239.854 97.53 239.854 95.93C239.854 94.35 240.224 92.93 240.964 91.67C241.724 90.39 242.754 89.4 244.054 88.7C245.374 87.98 246.844 87.62 248.464 87.62C250.044 87.62 251.474 87.96 252.754 88.64C254.034 89.32 255.034 90.3 255.754 91.58C256.494 92.84 256.864 94.31 256.864 95.99ZM248.494 91.16C247.434 91.16 246.544 91.46 245.824 92.06C245.104 92.66 244.664 93.48 244.504 94.52H252.454C252.294 93.5 251.854 92.69 251.134 92.09C250.414 91.47 249.534 91.16 248.494 91.16ZM264.75 89.99C265.31 89.21 266.06 88.62 267 88.22C267.96 87.82 269.06 87.62 270.3 87.62V91.94C269.78 91.9 269.43 91.88 269.25 91.88C267.91 91.88 266.86 92.26 266.1 93.02C265.34 93.76 264.96 94.88 264.96 96.38V104H260.28V87.86H264.75V89.99ZM289.676 81.74V104H285.206V102.14C284.046 103.54 282.366 104.24 280.166 104.24C278.646 104.24 277.266 103.9 276.026 103.22C274.806 102.54 273.846 101.57 273.146 100.31C272.446 99.05 272.096 97.59 272.096 95.93C272.096 94.27 272.446 92.81 273.146 91.55C273.846 90.29 274.806 89.32 276.026 88.64C277.266 87.96 278.646 87.62 280.166 87.62C282.226 87.62 283.836 88.27 284.996 89.57V81.74H289.676ZM280.976 100.4C282.156 100.4 283.136 100 283.916 99.2C284.696 98.38 285.086 97.29 285.086 95.93C285.086 94.57 284.696 93.49 283.916 92.69C283.136 91.87 282.156 91.46 280.976 91.46C279.776 91.46 278.786 91.87 278.006 92.69C277.226 93.49 276.836 94.57 276.836 95.93C276.836 97.29 277.226 98.38 278.006 99.2C278.786 100 279.776 100.4 280.976 100.4ZM296.078 104.24C295.258 104.24 294.568 103.96 294.008 103.4C293.448 102.84 293.168 102.14 293.168 101.3C293.168 100.44 293.448 99.75 294.008 99.23C294.568 98.69 295.258 98.42 296.078 98.42C296.898 98.42 297.588 98.69 298.148 99.23C298.708 99.75 298.988 100.44 298.988 101.3C298.988 102.14 298.708 102.84 298.148 103.4C297.588 103.96 296.898 104.24 296.078 104.24ZM309.934 104.24C308.234 104.24 306.704 103.89 305.344 103.19C304.004 102.47 302.954 101.48 302.194 100.22C301.434 98.96 301.054 97.53 301.054 95.93C301.054 94.33 301.434 92.9 302.194 91.64C302.954 90.38 304.004 89.4 305.344 88.7C306.704 87.98 308.234 87.62 309.934 87.62C311.634 87.62 313.154 87.98 314.494 88.7C315.834 89.4 316.884 90.38 317.644 91.64C318.404 92.9 318.784 94.33 318.784 95.93C318.784 97.53 318.404 98.96 317.644 100.22C316.884 101.48 315.834 102.47 314.494 103.19C313.154 103.89 311.634 104.24 309.934 104.24ZM309.934 100.4C311.134 100.4 312.114 100 312.874 99.2C313.654 98.38 314.044 97.29 314.044 95.93C314.044 94.57 313.654 93.49 312.874 92.69C312.114 91.87 311.134 91.46 309.934 91.46C308.734 91.46 307.744 91.87 306.964 92.69C306.184 93.49 305.794 94.57 305.794 95.93C305.794 97.29 306.184 98.38 306.964 99.2C307.744 100 308.734 100.4 309.934 100.4ZM326.682 89.99C327.242 89.21 327.992 88.62 328.932 88.22C329.892 87.82 330.992 87.62 332.232 87.62V91.94C331.712 91.9 331.362 91.88 331.182 91.88C329.842 91.88 328.792 92.26 328.032 93.02C327.272 93.76 326.892 94.88 326.892 96.38V104H322.212V87.86H326.682V89.99ZM351.819 87.86V101.3C351.819 104.26 351.049 106.46 349.509 107.9C347.969 109.34 345.719 110.06 342.759 110.06C341.199 110.06 339.719 109.87 338.319 109.49C336.919 109.11 335.759 108.56 334.839 107.84L336.699 104.48C337.379 105.04 338.239 105.48 339.279 105.8C340.319 106.14 341.359 106.31 342.399 106.31C344.019 106.31 345.209 105.94 345.969 105.2C346.749 104.48 347.139 103.38 347.139 101.9V101.21C345.919 102.55 344.219 103.22 342.039 103.22C340.559 103.22 339.199 102.9 337.959 102.26C336.739 101.6 335.769 100.68 335.049 99.5C334.329 98.32 333.969 96.96 333.969 95.42C333.969 93.88 334.329 92.52 335.049 91.34C335.769 90.16 336.739 89.25 337.959 88.61C339.199 87.95 340.559 87.62 342.039 87.62C344.379 87.62 346.159 88.39 347.379 89.93V87.86H351.819ZM342.969 99.38C344.209 99.38 345.219 99.02 345.999 98.3C346.799 97.56 347.199 96.6 347.199 95.42C347.199 94.24 346.799 93.29 345.999 92.57C345.219 91.83 344.209 91.46 342.969 91.46C341.729 91.46 340.709 91.83 339.909 92.57C339.109 93.29 338.709 94.24 338.709 95.42C338.709 96.6 339.109 97.56 339.909 98.3C340.709 99.02 341.729 99.38 342.969 99.38Z" fill="#848499"/>
<g filter="url(#filter0_d)">
<path fill-rule="evenodd" clip-rule="evenodd" d="M1130.17 489.495C1276.61 635.942 1514.05 635.942 1660.5 489.495C1806.94 343.048 1806.94 105.612 1660.5 -40.835L1130.17 489.495Z" fill="#1DD1BB"/>
<path fill-rule="evenodd" clip-rule="evenodd" d="M1660.5 -40.8349C1514.05 -187.281 1276.61 -187.282 1130.17 -40.8349C983.718 105.612 983.718 343.049 1130.17 489.495L1660.5 -40.8349Z" fill="#5CD1C3"/>
<circle cx="1395.33" cy="224.33" r="375" transform="rotate(45 1395.33 224.33)" fill="url(#paint0_linear)"/>
</g>
<g clip-path="url(#clip1)">
<path d="M1209.02 139.844L1209.06 139.838L1203.47 107.16L1172.56 116.979L1177.19 146.207C1175.59 145.2 1173.69 144.792 1171.83 145.056C1169.96 145.32 1168.25 146.239 1167 147.648C1165.75 149.057 1165.04 150.866 1165 152.749C1164.96 154.633 1165.59 156.47 1166.78 157.932C1167.97 159.393 1169.64 160.385 1171.49 160.728C1173.35 161.072 1175.26 160.746 1176.9 159.808C1178.53 158.87 1179.78 157.381 1180.41 155.608C1181.05 153.835 1181.04 151.893 1180.38 150.129L1180.41 150.124L1175.44 118.758L1201.44 110.5L1205.85 136.332C1204.22 135.367 1202.3 135.019 1200.44 135.35C1198.57 135.681 1196.88 136.669 1195.69 138.136C1194.49 139.602 1193.85 141.45 1193.9 143.344C1193.94 145.238 1194.66 147.054 1195.93 148.461C1197.2 149.868 1198.93 150.774 1200.81 151.015C1202.69 151.256 1204.6 150.815 1206.18 149.773C1207.76 148.731 1208.92 147.157 1209.44 145.335C1209.96 143.514 1209.81 141.566 1209.02 139.844V139.844Z" fill="#6C63FF"/>
<path d="M1509.8 182.243L1509.84 182.247L1513.57 149.305L1481.15 150.134L1477.45 179.494C1476.2 178.084 1474.49 177.163 1472.63 176.898C1470.76 176.632 1468.86 177.038 1467.27 178.044C1465.68 179.05 1464.49 180.589 1463.93 182.387C1463.37 184.185 1463.46 186.125 1464.2 187.86C1464.93 189.595 1466.26 191.012 1467.95 191.858C1469.63 192.703 1471.56 192.923 1473.39 192.477C1475.22 192.031 1476.83 190.948 1477.94 189.423C1479.05 187.897 1479.57 186.028 1479.43 184.149L1479.46 184.153L1483.42 152.645L1510.68 151.947L1507.74 177.988C1506.44 176.608 1504.69 175.738 1502.81 175.537C1500.92 175.335 1499.03 175.816 1497.47 176.89C1495.91 177.965 1494.78 179.563 1494.3 181.395C1493.82 183.227 1494.01 185.172 1494.83 186.877C1495.66 188.581 1497.07 189.933 1498.81 190.688C1500.55 191.442 1502.5 191.549 1504.31 190.988C1506.12 190.428 1507.67 189.238 1508.68 187.633C1509.68 186.029 1510.08 184.117 1509.8 182.243V182.243Z" fill="#6C63FF"/>
<path d="M1251.23 175.796L1251.25 175.793L1247.27 150.626L1245.3 150.937L1248.76 172.755C1247.52 171.974 1246.05 171.658 1244.6 171.863C1243.16 172.067 1241.83 172.78 1240.86 173.873C1239.89 174.965 1239.34 176.367 1239.31 177.828C1239.28 179.289 1239.77 180.713 1240.69 181.846C1241.61 182.98 1242.91 183.748 1244.34 184.014C1245.78 184.281 1247.26 184.028 1248.53 183.301C1249.8 182.573 1250.77 181.419 1251.26 180.044C1251.75 178.67 1251.74 177.164 1251.23 175.796V175.796Z" fill="#6C63FF"/>
<path d="M1437.36 167.421C1437.01 166.102 1436.23 164.938 1435.14 164.111C1434.06 163.283 1432.73 162.84 1431.36 162.851C1430 162.862 1428.68 163.327 1427.61 164.171C1426.54 165.016 1425.78 166.193 1425.45 167.517C1425.12 168.84 1425.24 170.236 1425.79 171.483C1426.34 172.731 1427.3 173.76 1428.5 174.407C1429.7 175.055 1431.08 175.285 1432.42 175.061C1433.77 174.837 1435 174.172 1435.93 173.17L1438.24 195.138L1440.22 194.93L1437.55 169.59L1437.53 169.592C1437.6 168.864 1437.54 168.128 1437.36 167.421V167.421Z" fill="#6C63FF"/>
<path d="M1308.45 538.582L1320.11 556.06L1337.58 542.467L1325.93 527.901L1308.45 538.582Z" fill="#FFB8B8"/>
<path d="M1322.36 546.682C1322.36 546.682 1305.67 547.458 1310.37 556.279C1315.08 565.1 1318.75 614.873 1332.17 611.989C1345.6 609.105 1357.77 593.85 1357.62 583.348C1357.47 572.847 1355.79 568.292 1355.79 568.292C1355.79 568.292 1352.19 561.341 1354.59 559.421C1356.98 557.502 1357.89 545.369 1352.18 541.68C1346.47 537.99 1329.97 533.107 1329.97 533.107C1329.97 533.107 1328.3 548.214 1322.36 546.682Z" fill="#2F2E41"/>
<path d="M1330.79 579.363L1326.9 600.725L1347.29 602.666V586.16L1330.79 579.363Z" fill="#FFB8B8"/>
<path d="M1289.03 290.012C1289.03 290.012 1278.35 325.939 1275.44 347.3C1275.44 347.3 1217.18 425.949 1227.86 459.933C1238.54 493.918 1269.61 561.886 1269.61 561.886C1269.61 561.886 1322.05 540.525 1332.73 528.873L1293.89 473.527C1293.89 473.527 1299.72 466.73 1290.98 462.846C1282.24 458.962 1290.01 454.108 1290.01 454.108C1290.01 454.108 1306.51 398.762 1323.02 392.936L1380.31 381.284C1380.31 381.284 1376.42 298.751 1362.83 284.187C1362.83 284.187 1294.86 285.158 1289.03 290.012Z" fill="#2F2E41"/>
<path d="M1335.64 591.986C1335.64 591.986 1325.93 578.392 1321.08 587.131C1316.22 595.87 1276.41 625.97 1286.12 635.68C1295.83 645.39 1315.25 647.332 1323.99 641.506C1332.73 635.68 1335.64 631.796 1335.64 631.796C1335.64 631.796 1339.53 624.999 1342.44 625.97C1345.35 626.941 1356.03 621.115 1356.03 614.318C1356.03 607.522 1351.18 591.015 1351.18 591.015C1351.18 591.015 1337.58 597.812 1335.64 591.986Z" fill="#2F2E41"/>
<path d="M1321.08 386.139L1334.67 503.627C1334.67 503.627 1326.9 536.641 1324.96 561.886C1323.02 587.132 1324.96 586.161 1324.96 586.161C1324.96 586.161 1368.65 603.638 1376.42 591.986C1384.19 580.335 1380.31 381.284 1380.31 381.284L1357 359.923L1321.08 386.139Z" fill="#2F2E41"/>
<path d="M1297.37 123.852C1307.45 100.068 1333.11 95.5765 1333.11 95.5765C1333.11 95.5765 1357.82 88.9854 1378.45 120.375C1397.68 149.633 1422.48 177.046 1391.03 188.724L1382.72 171.276L1381.73 191.356C1377.15 192.308 1372.53 193.01 1367.88 193.457C1333 197.001 1300.11 202.894 1299.5 190.286C1298.69 173.526 1287.67 146.737 1297.37 123.852Z" fill="#2F2E41"/>
<path d="M1338.55 170.582C1354.11 170.582 1366.71 157.975 1366.71 142.424C1366.71 126.873 1354.11 114.266 1338.55 114.266C1323 114.266 1310.4 126.873 1310.4 142.424C1310.4 157.975 1323 170.582 1338.55 170.582Z" fill="#FFB8B8"/>
<path d="M1330.3 160.386C1330.3 160.386 1329.82 189.03 1326.9 195.827C1323.99 202.624 1378.85 190.487 1378.85 190.487C1378.85 190.487 1359.43 176.893 1356.52 158.444L1330.3 160.386Z" fill="#FFB8B8"/>
<path d="M1334.67 184.176L1329.37 180.275L1291.95 182.234L1284.18 267.68C1284.18 267.68 1261.85 293.896 1289.03 293.896C1316.22 293.896 1341.47 281.273 1360.89 290.012C1380.31 298.751 1396.81 197.769 1396.81 197.769L1367.78 180.275C1367.78 180.275 1355.06 195.827 1334.67 184.176Z" fill="#575A89"/>
<path d="M1302.63 253.115L1357 264.767V277.39L1302.63 279.332C1302.63 279.332 1296.8 256.999 1302.63 253.115Z" fill="#FFB8B8"/>
<path d="M1302.63 187.088L1291.95 182.233C1291.95 182.233 1279.32 185.146 1278.35 195.827C1277.38 206.508 1258.93 275.447 1273.5 278.36C1288.06 281.273 1307.48 281.273 1307.48 281.273C1307.48 281.273 1294.86 263.795 1310.4 254.086L1298.74 248.26C1298.74 248.26 1287.09 222.043 1294.86 208.45C1302.63 194.856 1302.63 187.088 1302.63 187.088Z" fill="#575A89"/>
<path d="M1303.07 115.211L1328.79 101.741L1364.3 107.252L1371.65 139.702L1353.36 138.999L1348.25 127.077V138.802L1339.81 138.478L1334.91 119.497L1331.85 139.702L1301.85 139.09L1303.07 115.211Z" fill="#2F2E41"/>
<path d="M1366.87 148.74C1369.73 148.74 1372.05 144.683 1372.05 139.678C1372.05 134.673 1369.73 130.615 1366.87 130.615C1364.01 130.615 1361.7 134.673 1361.7 139.678C1361.7 144.683 1364.01 148.74 1366.87 148.74Z" fill="#FFB8B8"/>
<path d="M1367.37 146.094C1369.32 146.094 1370.91 144.511 1370.91 142.56C1370.91 140.608 1369.32 139.025 1367.37 139.025C1365.42 139.025 1363.84 140.608 1363.84 142.56C1363.84 144.511 1365.42 146.094 1367.37 146.094Z" fill="white"/>
<path d="M1368.89 143.751C1369.21 143.751 1369.46 142.979 1369.46 142.027C1369.46 141.075 1369.21 140.304 1368.89 140.304C1368.57 140.304 1368.32 141.075 1368.32 142.027C1368.32 142.979 1368.57 143.751 1368.89 143.751Z" fill="#2F2E41"/>
<path d="M1368.8 152.817C1368.56 152.817 1368.33 152.722 1368.16 152.552C1367.99 152.383 1367.89 152.153 1367.89 151.913L1366.99 144.68H1369.7V151.913C1369.7 152.032 1369.68 152.149 1369.63 152.259C1369.59 152.369 1369.52 152.468 1369.44 152.552C1369.35 152.636 1369.25 152.703 1369.14 152.748C1369.03 152.794 1368.92 152.817 1368.8 152.817V152.817Z" fill="white"/>
<path opacity="0.1" d="M1298.28 213.433L1289.11 253.165H1310.51L1293.7 249.344L1298.28 213.433Z" fill="black"/>
<path d="M1408.74 279.068L1408.53 278.885L1413.55 273.316C1413.94 272.893 1414.23 272.398 1414.42 271.861C1414.61 271.324 1414.69 270.755 1414.66 270.186C1414.63 269.617 1414.49 269.06 1414.25 268.545C1414 268.031 1413.66 267.57 1413.24 267.188L1401.44 256.555C1401.01 256.174 1400.52 255.879 1399.98 255.689C1399.45 255.499 1398.88 255.416 1398.31 255.445C1397.74 255.475 1397.18 255.616 1396.67 255.861C1396.15 256.106 1395.69 256.45 1395.31 256.874L1367.78 287.424C1367.39 287.847 1367.1 288.341 1366.91 288.878C1366.72 289.415 1366.64 289.985 1366.67 290.554C1366.7 291.123 1366.84 291.68 1367.08 292.195C1367.33 292.709 1367.67 293.17 1368.09 293.552L1379.89 304.185C1380.32 304.566 1380.81 304.861 1381.35 305.051C1381.88 305.241 1382.45 305.324 1383.02 305.295C1383.59 305.265 1384.15 305.124 1384.66 304.879C1385.18 304.634 1385.64 304.29 1386.02 303.866L1404.96 282.849L1405.17 283.032L1408.74 279.068Z" fill="#3F3D56"/>
<path d="M1399.48 273.586C1401.03 273.586 1402.28 272.334 1402.28 270.79C1402.28 269.246 1401.03 267.994 1399.48 267.994C1397.94 267.994 1396.69 269.246 1396.69 270.79C1396.69 272.334 1397.94 273.586 1399.48 273.586Z" fill="#6C63FF"/>
<path d="M1380.09 269.104C1380.09 269.104 1413.19 277.116 1405.57 288.538C1397.94 299.96 1367.83 279.083 1367.83 279.083L1380.09 269.104Z" fill="#FFB8B8"/>
<path d="M1388.07 197.77H1396.81C1396.81 197.77 1406.52 208.45 1404.58 218.16C1402.64 227.87 1396.81 273.506 1396.81 273.506C1396.81 273.506 1367.68 300.693 1353.12 286.128C1338.55 271.564 1349.24 257.97 1349.24 257.97C1349.24 257.97 1368.65 273.506 1379.34 253.115L1388.07 197.77Z" fill="#575A89"/>
<path d="M1379.39 263.969L1386.08 197.896C1386.08 197.896 1400.11 156.183 1386.41 155.161C1372.72 154.138 1371.76 194.688 1371.76 194.688L1347.91 266.989C1347.91 266.989 1360.99 279.809 1379.39 263.969Z" fill="#FFB8B8"/>
<path fill-rule="evenodd" clip-rule="evenodd" d="M1333.11 95.5765C1333.11 95.5765 1307.45 100.068 1297.37 123.852C1290.52 140.032 1294.01 158.164 1296.94 173.323C1297.51 176.306 1298.07 179.174 1298.51 181.89L1291.95 182.234L1291.95 182.234C1291.95 182.234 1279.32 185.147 1278.35 195.828C1278.14 198.188 1277.07 203.395 1275.69 210.106L1275.69 210.106L1275.69 210.106L1275.69 210.106L1275.69 210.106L1275.69 210.106C1270.84 233.758 1262.15 276.092 1273.5 278.361C1274.67 278.594 1275.87 278.809 1277.08 279.007C1274.19 285.913 1274.2 293.492 1287.91 293.88C1285.09 303.731 1277.77 330.188 1275.44 347.3C1275.44 347.3 1217.18 425.949 1227.86 459.933C1238.54 493.917 1269.61 561.886 1269.61 561.886C1269.61 561.886 1292.62 552.511 1311.26 542.796L1314.8 548.102C1311.13 549.381 1307.98 551.787 1310.37 556.279C1311.85 559.044 1313.22 565.832 1314.82 573.762C1315.91 579.127 1317.1 585.015 1318.5 590.531C1316.15 593.194 1312.66 596.596 1308.81 600.359C1296.13 612.736 1279.46 629.014 1286.12 635.68C1295.83 645.39 1315.25 647.332 1323.99 641.506C1332.73 635.68 1335.64 631.796 1335.64 631.796C1335.64 631.796 1339.53 624.999 1342.44 625.97C1345.35 626.941 1356.03 621.115 1356.03 614.318C1356.03 610.138 1354.2 602.286 1352.78 596.859C1353.24 596.181 1353.67 595.496 1354.07 594.808C1363.91 596.642 1373.22 596.791 1376.42 591.986C1384.19 580.334 1380.31 381.284 1380.31 381.284C1380.31 381.284 1377.38 319.12 1367.72 293.172C1367.84 293.305 1367.96 293.432 1368.09 293.551L1379.89 304.184C1380.32 304.566 1380.81 304.86 1381.35 305.05C1381.88 305.241 1382.45 305.324 1383.02 305.294C1383.59 305.265 1384.15 305.123 1384.66 304.878C1385.18 304.633 1385.64 304.289 1386.02 303.866L1396.8 291.908C1400.54 292.18 1403.72 291.31 1405.57 288.538C1407.07 286.288 1406.99 284.17 1405.9 282.22L1408.74 279.067L1408.53 278.884L1413.55 273.316C1413.94 272.892 1414.23 272.398 1414.42 271.861C1414.61 271.324 1414.69 270.755 1414.66 270.186C1414.63 269.617 1414.49 269.059 1414.25 268.545C1414 268.03 1413.66 267.569 1413.24 267.188L1401.44 256.555C1401.01 256.173 1400.52 255.879 1399.98 255.689C1399.72 255.594 1399.44 255.526 1399.17 255.485C1401.01 241.583 1403.45 223.803 1404.58 218.16C1406.52 208.45 1396.81 197.769 1396.81 197.769L1387.78 192.327C1388.33 190.416 1388.95 188.124 1389.56 185.628L1391.03 188.724C1418.37 178.573 1403.21 156.537 1386.15 131.733L1386.15 131.733L1386.15 131.733L1386.15 131.732L1386.15 131.732L1386.15 131.732C1383.58 127.999 1380.97 124.203 1378.45 120.375C1357.82 88.9854 1333.11 95.5765 1333.11 95.5765ZM1366.6 290.242C1366.58 290.244 1366.56 290.247 1366.54 290.249C1366.58 290.347 1366.62 290.446 1366.67 290.545C1366.66 290.441 1366.66 290.337 1366.66 290.233C1366.64 290.236 1366.62 290.239 1366.6 290.242ZM1209.02 139.844L1209.06 139.837L1203.47 107.16L1172.56 116.979L1177.19 146.206C1175.59 145.199 1173.69 144.791 1171.83 145.055C1169.96 145.319 1168.25 146.238 1167 147.648C1165.75 149.057 1165.04 150.865 1165 152.749C1164.96 154.633 1165.59 156.47 1166.78 157.931C1167.97 159.393 1169.64 160.384 1171.49 160.728C1173.35 161.071 1175.26 160.745 1176.9 159.807C1178.53 158.869 1179.78 157.381 1180.41 155.608C1181.05 153.835 1181.04 151.893 1180.38 150.128L1180.41 150.124L1175.44 118.758L1201.44 110.5L1205.85 136.331C1204.22 135.367 1202.3 135.018 1200.44 135.349C1198.57 135.68 1196.88 136.669 1195.69 138.135C1194.49 139.602 1193.85 141.45 1193.9 143.344C1193.94 145.238 1194.66 147.053 1195.93 148.46C1197.2 149.867 1198.93 150.774 1200.81 151.014C1202.69 151.255 1204.6 150.815 1206.18 149.773C1207.76 148.731 1208.92 147.156 1209.44 145.335C1209.96 143.513 1209.81 141.565 1209.02 139.844ZM1509.8 182.243L1509.84 182.247L1513.57 149.305L1481.15 150.134L1477.45 179.494C1476.2 178.084 1474.49 177.163 1472.63 176.898C1470.76 176.632 1468.86 177.038 1467.27 178.044C1465.68 179.05 1464.49 180.589 1463.93 182.387C1463.37 184.185 1463.46 186.125 1464.2 187.86C1464.93 189.595 1466.26 191.012 1467.95 191.858C1469.63 192.703 1471.56 192.923 1473.39 192.477C1475.22 192.031 1476.83 190.948 1477.94 189.423C1479.05 187.897 1479.57 186.028 1479.43 184.149L1479.46 184.153L1483.42 152.645L1510.68 151.947L1507.74 177.988C1506.44 176.608 1504.69 175.738 1502.81 175.537C1500.92 175.335 1499.03 175.816 1497.47 176.89C1495.91 177.965 1494.78 179.563 1494.3 181.395C1493.82 183.227 1494.01 185.172 1494.83 186.877C1495.66 188.581 1497.07 189.933 1498.81 190.688C1500.55 191.442 1502.5 191.549 1504.31 190.988C1506.12 190.428 1507.67 189.238 1508.68 187.633C1509.68 186.029 1510.08 184.117 1509.8 182.243ZM1251.25 175.793L1251.23 175.796C1251.74 177.164 1251.75 178.67 1251.26 180.044C1250.77 181.419 1249.8 182.573 1248.53 183.301C1247.26 184.028 1245.78 184.281 1244.34 184.014C1242.91 183.748 1241.61 182.98 1240.69 181.846C1239.77 180.713 1239.28 179.289 1239.31 177.828C1239.34 176.367 1239.89 174.965 1240.86 173.873C1241.83 172.78 1243.16 172.067 1244.6 171.863C1246.05 171.658 1247.52 171.974 1248.76 172.755L1245.3 150.937L1247.27 150.626L1251.25 175.793ZM1437.36 167.421C1437.01 166.102 1436.23 164.938 1435.14 164.111C1434.06 163.283 1432.73 162.84 1431.36 162.851C1430 162.862 1428.68 163.327 1427.61 164.171C1426.54 165.016 1425.78 166.193 1425.45 167.517C1425.12 168.84 1425.24 170.236 1425.79 171.483C1426.34 172.731 1427.3 173.76 1428.5 174.407C1429.7 175.055 1431.08 175.285 1432.42 175.061C1433.77 174.837 1435 174.172 1435.93 173.17L1438.24 195.138L1440.22 194.93L1437.55 169.59L1437.53 169.592C1437.6 168.864 1437.54 168.128 1437.36 167.421ZM1334.67 503.627C1334.67 503.627 1332.5 512.83 1330.17 525.234L1293.89 473.527C1293.89 473.527 1299.72 466.73 1290.98 462.846C1282.24 458.962 1290.01 454.107 1290.01 454.107C1290.01 454.107 1305.79 401.198 1321.92 393.397L1334.67 503.627Z" fill="url(#paint1_linear)"/>
</g>
</g>
<defs>
<filter id="filter0_d" x="825" y="-346" width="1160.66" height="1160.66" filterUnits="userSpaceOnUse" color-interpolation-filters="sRGB">
<feFlood flood-opacity="0" result="BackgroundImageFix"/>
<feColorMatrix in="SourceAlpha" type="matrix" values="0 0 0 0 0 0 0 0 0 0 0 0 0 0 0 0 0 0 127 0"/>
<feOffset dx="10" dy="10"/>
<feGaussianBlur stdDeviation="25"/>
<feColorMatrix type="matrix" values="0 0 0 0 0.113725 0 0 0 0 0.819608 0 0 0 0 0.733333 0 0 0 0.15 0"/>
<feBlend mode="normal" in2="BackgroundImageFix" result="effect1_dropShadow"/>
<feBlend mode="normal" in="SourceGraphic" in2="effect1_dropShadow" result="shape"/>
</filter>
<linearGradient id="paint0_linear" x1="1020.33" y1="-150.67" x2="1884.32" y2="429.596" gradientUnits="userSpaceOnUse">
<stop stop-color="white" stop-opacity="0.2"/>
<stop offset="1" stop-color="white" stop-opacity="0"/>
</linearGradient>
<linearGradient id="paint1_linear" x1="1165" y1="644.783" x2="1508.26" y2="602.029" gradientUnits="userSpaceOnUse">
<stop stop-color="white" stop-opacity="0.2"/>
<stop offset="1" stop-color="white" stop-opacity="0"/>
</linearGradient>
<clipPath id="clip0">
<rect width="1620" height="695" fill="white"/>
</clipPath>
<clipPath id="clip1">
<rect width="354.942" height="550" fill="white" transform="translate(1165 95)"/>
</clipPath>
</defs>
</svg>
