<svg width="1236" height="696" viewBox="0 0 1236 696" fill="none" xmlns="http://www.w3.org/2000/svg">
<g clip-path="url(#clip0)">
<rect width="1236" height="695" transform="translate(0 0.5)" fill="white"/>
<path d="M86.4 305.1H75.2V298.5H105.7V305.1H94.5V333.5H86.4V305.1ZM126.358 306.2C129.692 306.2 132.375 307.2 134.408 309.2C136.475 311.2 137.508 314.167 137.508 318.1V333.5H129.708V319.3C129.708 317.167 129.242 315.583 128.308 314.55C127.375 313.483 126.025 312.95 124.258 312.95C122.292 312.95 120.725 313.567 119.558 314.8C118.392 316 117.808 317.8 117.808 320.2V333.5H110.008V296.4H117.808V309.4C118.842 308.367 120.092 307.583 121.558 307.05C123.025 306.483 124.625 306.2 126.358 306.2ZM171.721 320.15C171.721 320.25 171.671 320.95 171.571 322.25H151.221C151.588 323.917 152.455 325.233 153.821 326.2C155.188 327.167 156.888 327.65 158.921 327.65C160.321 327.65 161.555 327.45 162.621 327.05C163.721 326.617 164.738 325.95 165.671 325.05L169.821 329.55C167.288 332.45 163.588 333.9 158.721 333.9C155.688 333.9 153.005 333.317 150.671 332.15C148.338 330.95 146.538 329.3 145.271 327.2C144.005 325.1 143.371 322.717 143.371 320.05C143.371 317.417 143.988 315.05 145.221 312.95C146.488 310.817 148.205 309.167 150.371 308C152.571 306.8 155.021 306.2 157.721 306.2C160.355 306.2 162.738 306.767 164.871 307.9C167.005 309.033 168.671 310.667 169.871 312.8C171.105 314.9 171.721 317.35 171.721 320.15ZM157.771 312.1C156.005 312.1 154.521 312.6 153.321 313.6C152.121 314.6 151.388 315.967 151.121 317.7H164.371C164.105 316 163.371 314.65 162.171 313.65C160.971 312.617 159.505 312.1 157.771 312.1ZM207.975 306.2C210.475 306.2 212.741 306.783 214.775 307.95C216.841 309.083 218.458 310.7 219.625 312.8C220.791 314.867 221.375 317.283 221.375 320.05C221.375 322.817 220.791 325.25 219.625 327.35C218.458 329.417 216.841 331.033 214.775 332.2C212.741 333.333 210.475 333.9 207.975 333.9C204.275 333.9 201.458 332.733 199.525 330.4V333.5H192.075V296.4H199.875V309.45C201.841 307.283 204.541 306.2 207.975 306.2ZM206.625 327.5C208.625 327.5 210.258 326.833 211.525 325.5C212.825 324.133 213.475 322.317 213.475 320.05C213.475 317.783 212.825 315.983 211.525 314.65C210.258 313.283 208.625 312.6 206.625 312.6C204.625 312.6 202.975 313.283 201.675 314.65C200.408 315.983 199.775 317.783 199.775 320.05C199.775 322.317 200.408 324.133 201.675 325.5C202.975 326.833 204.625 327.5 206.625 327.5ZM253.446 320.15C253.446 320.25 253.396 320.95 253.296 322.25H232.946C233.313 323.917 234.179 325.233 235.546 326.2C236.913 327.167 238.613 327.65 240.646 327.65C242.046 327.65 243.279 327.45 244.346 327.05C245.446 326.617 246.463 325.95 247.396 325.05L251.546 329.55C249.013 332.45 245.313 333.9 240.446 333.9C237.413 333.9 234.729 333.317 232.396 332.15C230.063 330.95 228.263 329.3 226.996 327.2C225.729 325.1 225.096 322.717 225.096 320.05C225.096 317.417 225.713 315.05 226.946 312.95C228.213 310.817 229.929 309.167 232.096 308C234.296 306.8 236.746 306.2 239.446 306.2C242.079 306.2 244.463 306.767 246.596 307.9C248.729 309.033 250.396 310.667 251.596 312.8C252.829 314.9 253.446 317.35 253.446 320.15ZM239.496 312.1C237.729 312.1 236.246 312.6 235.046 313.6C233.846 314.6 233.113 315.967 232.846 317.7H246.096C245.829 316 245.096 314.65 243.896 313.65C242.696 312.617 241.229 312.1 239.496 312.1ZM268.189 333.9C265.956 333.9 263.772 333.633 261.639 333.1C259.506 332.533 257.806 331.833 256.539 331L259.139 325.4C260.339 326.167 261.789 326.8 263.489 327.3C265.189 327.767 266.856 328 268.489 328C271.789 328 273.439 327.183 273.439 325.55C273.439 324.783 272.989 324.233 272.089 323.9C271.189 323.567 269.806 323.283 267.939 323.05C265.739 322.717 263.922 322.333 262.489 321.9C261.056 321.467 259.806 320.7 258.739 319.6C257.706 318.5 257.189 316.933 257.189 314.9C257.189 313.2 257.672 311.7 258.639 310.4C259.639 309.067 261.072 308.033 262.939 307.3C264.839 306.567 267.072 306.2 269.639 306.2C271.539 306.2 273.422 306.417 275.289 306.85C277.189 307.25 278.756 307.817 279.989 308.55L277.389 314.1C275.022 312.767 272.439 312.1 269.639 312.1C267.972 312.1 266.722 312.333 265.889 312.8C265.056 313.267 264.639 313.867 264.639 314.6C264.639 315.433 265.089 316.017 265.989 316.35C266.889 316.683 268.322 317 270.289 317.3C272.489 317.667 274.289 318.067 275.689 318.5C277.089 318.9 278.306 319.65 279.339 320.75C280.372 321.85 280.889 323.383 280.889 325.35C280.889 327.017 280.389 328.5 279.389 329.8C278.389 331.1 276.922 332.117 274.989 332.85C273.089 333.55 270.822 333.9 268.189 333.9ZM303.552 332.2C302.785 332.767 301.835 333.2 300.702 333.5C299.602 333.767 298.435 333.9 297.202 333.9C294.002 333.9 291.518 333.083 289.752 331.45C288.018 329.817 287.152 327.417 287.152 324.25V313.2H283.002V307.2H287.152V300.65H294.952V307.2H301.652V313.2H294.952V324.15C294.952 325.283 295.235 326.167 295.802 326.8C296.402 327.4 297.235 327.7 298.302 327.7C299.535 327.7 300.585 327.367 301.452 326.7L303.552 332.2ZM332.14 333.9C329.907 333.9 327.724 333.633 325.59 333.1C323.457 332.533 321.757 331.833 320.49 331L323.09 325.4C324.29 326.167 325.74 326.8 327.44 327.3C329.14 327.767 330.807 328 332.44 328C335.74 328 337.39 327.183 337.39 325.55C337.39 324.783 336.94 324.233 336.04 323.9C335.14 323.567 333.757 323.283 331.89 323.05C329.69 322.717 327.874 322.333 326.44 321.9C325.007 321.467 323.757 320.7 322.69 319.6C321.657 318.5 321.14 316.933 321.14 314.9C321.14 313.2 321.624 311.7 322.59 310.4C323.59 309.067 325.024 308.033 326.89 307.3C328.79 306.567 331.024 306.2 333.59 306.2C335.49 306.2 337.374 306.417 339.24 306.85C341.14 307.25 342.707 307.817 343.94 308.55L341.34 314.1C338.974 312.767 336.39 312.1 333.59 312.1C331.924 312.1 330.674 312.333 329.84 312.8C329.007 313.267 328.59 313.867 328.59 314.6C328.59 315.433 329.04 316.017 329.94 316.35C330.84 316.683 332.274 317 334.24 317.3C336.44 317.667 338.24 318.067 339.64 318.5C341.04 318.9 342.257 319.65 343.29 320.75C344.324 321.85 344.84 323.383 344.84 325.35C344.84 327.017 344.34 328.5 343.34 329.8C342.34 331.1 340.874 332.117 338.94 332.85C337.04 333.55 334.774 333.9 332.14 333.9ZM367.503 332.2C366.736 332.767 365.786 333.2 364.653 333.5C363.553 333.767 362.386 333.9 361.153 333.9C357.953 333.9 355.469 333.083 353.703 331.45C351.969 329.817 351.103 327.417 351.103 324.25V313.2H346.953V307.2H351.103V300.65H358.903V307.2H365.603V313.2H358.903V324.15C358.903 325.283 359.186 326.167 359.753 326.8C360.353 327.4 361.186 327.7 362.253 327.7C363.486 327.7 364.536 327.367 365.403 326.7L367.503 332.2ZM399.481 306.6V333.5H392.081V330.3C391.048 331.467 389.815 332.367 388.381 333C386.948 333.6 385.398 333.9 383.731 333.9C380.198 333.9 377.398 332.883 375.331 330.85C373.265 328.817 372.231 325.8 372.231 321.8V306.6H380.031V320.65C380.031 324.983 381.848 327.15 385.481 327.15C387.348 327.15 388.848 326.55 389.981 325.35C391.115 324.117 391.681 322.3 391.681 319.9V306.6H399.481ZM415.757 307.2H422.657V313.2H415.957V333.5H408.157V313.2H404.007V307.2H408.157V306C408.157 302.933 409.057 300.5 410.857 298.7C412.691 296.9 415.257 296 418.557 296C419.724 296 420.824 296.133 421.857 296.4C422.924 296.633 423.807 296.983 424.507 297.45L422.457 303.1C421.557 302.467 420.507 302.15 419.307 302.15C416.941 302.15 415.757 303.45 415.757 306.05V307.2ZM435.593 307.2H442.493V313.2H435.793V333.5H427.993V313.2H423.843V307.2H427.993V306C427.993 302.933 428.893 300.5 430.693 298.7C432.527 296.9 435.093 296 438.393 296C439.56 296 440.66 296.133 441.693 296.4C442.76 296.633 443.643 296.983 444.343 297.45L442.293 303.1C441.393 302.467 440.343 302.15 439.143 302.15C436.777 302.15 435.593 303.45 435.593 306.05V307.2ZM470.089 307.2H476.989V313.2H470.289V333.5H462.489V313.2H458.339V307.2H462.489V306C462.489 302.933 463.389 300.5 465.189 298.7C467.023 296.9 469.589 296 472.889 296C474.056 296 475.156 296.133 476.189 296.4C477.256 296.633 478.139 296.983 478.839 297.45L476.789 303.1C475.889 302.467 474.839 302.15 473.639 302.15C471.273 302.15 470.089 303.45 470.089 306.05V307.2ZM493.834 333.9C491 333.9 488.45 333.317 486.184 332.15C483.95 330.95 482.2 329.3 480.934 327.2C479.667 325.1 479.034 322.717 479.034 320.05C479.034 317.383 479.667 315 480.934 312.9C482.2 310.8 483.95 309.167 486.184 308C488.45 306.8 491 306.2 493.834 306.2C496.667 306.2 499.2 306.8 501.434 308C503.667 309.167 505.417 310.8 506.684 312.9C507.95 315 508.584 317.383 508.584 320.05C508.584 322.717 507.95 325.1 506.684 327.2C505.417 329.3 503.667 330.95 501.434 332.15C499.2 333.317 496.667 333.9 493.834 333.9ZM493.834 327.5C495.834 327.5 497.467 326.833 498.734 325.5C500.034 324.133 500.684 322.317 500.684 320.05C500.684 317.783 500.034 315.983 498.734 314.65C497.467 313.283 495.834 312.6 493.834 312.6C491.834 312.6 490.184 313.283 488.884 314.65C487.584 315.983 486.934 317.783 486.934 320.05C486.934 322.317 487.584 324.133 488.884 325.5C490.184 326.833 491.834 327.5 493.834 327.5ZM521.747 310.15C522.681 308.85 523.931 307.867 525.497 307.2C527.097 306.533 528.931 306.2 530.997 306.2V313.4C530.131 313.333 529.547 313.3 529.247 313.3C527.014 313.3 525.264 313.933 523.997 315.2C522.731 316.433 522.097 318.3 522.097 320.8V333.5H514.297V306.6H521.747V310.15ZM78.6 360.4H86.4V397.5H78.6V360.4ZM120.489 384.15C120.489 384.25 120.439 384.95 120.339 386.25H99.9891C100.356 387.917 101.222 389.233 102.589 390.2C103.956 391.167 105.656 391.65 107.689 391.65C109.089 391.65 110.322 391.45 111.389 391.05C112.489 390.617 113.506 389.95 114.439 389.05L118.589 393.55C116.056 396.45 112.356 397.9 107.489 397.9C104.456 397.9 101.772 397.317 99.4391 396.15C97.1057 394.95 95.3057 393.3 94.0391 391.2C92.7724 389.1 92.1391 386.717 92.1391 384.05C92.1391 381.417 92.7557 379.05 93.9891 376.95C95.2557 374.817 96.9724 373.167 99.1391 372C101.339 370.8 103.789 370.2 106.489 370.2C109.122 370.2 111.506 370.767 113.639 371.9C115.772 373.033 117.439 374.667 118.639 376.8C119.872 378.9 120.489 381.35 120.489 384.15ZM106.539 376.1C104.772 376.1 103.289 376.6 102.089 377.6C100.889 378.6 100.156 379.967 99.8891 381.7H113.139C112.872 380 112.139 378.65 110.939 377.65C109.739 376.617 108.272 376.1 106.539 376.1ZM136.3 370.2C140.466 370.2 143.666 371.2 145.9 373.2C148.133 375.167 149.25 378.15 149.25 382.15V397.5H141.95V394.15C140.483 396.65 137.75 397.9 133.75 397.9C131.683 397.9 129.883 397.55 128.35 396.85C126.85 396.15 125.7 395.183 124.9 393.95C124.1 392.717 123.7 391.317 123.7 389.75C123.7 387.25 124.633 385.283 126.5 383.85C128.4 382.417 131.316 381.7 135.25 381.7H141.45C141.45 380 140.933 378.7 139.9 377.8C138.866 376.867 137.316 376.4 135.25 376.4C133.816 376.4 132.4 376.633 131 377.1C129.633 377.533 128.466 378.133 127.5 378.9L124.7 373.45C126.166 372.417 127.916 371.617 129.95 371.05C132.016 370.483 134.133 370.2 136.3 370.2ZM135.7 392.65C137.033 392.65 138.216 392.35 139.25 391.75C140.283 391.117 141.016 390.2 141.45 389V386.25H136.1C132.9 386.25 131.3 387.3 131.3 389.4C131.3 390.4 131.683 391.2 132.45 391.8C133.25 392.367 134.333 392.65 135.7 392.65ZM164.259 374.15C165.192 372.85 166.442 371.867 168.009 371.2C169.609 370.533 171.442 370.2 173.509 370.2V377.4C172.642 377.333 172.059 377.3 171.759 377.3C169.526 377.3 167.776 377.933 166.509 379.2C165.242 380.433 164.609 382.3 164.609 384.8V397.5H156.809V370.6H164.259V374.15ZM194.997 370.2C198.33 370.2 201.014 371.2 203.047 373.2C205.114 375.2 206.147 378.167 206.147 382.1V397.5H198.347V383.3C198.347 381.167 197.88 379.583 196.947 378.55C196.014 377.483 194.664 376.95 192.897 376.95C190.93 376.95 189.364 377.567 188.197 378.8C187.03 380 186.447 381.8 186.447 384.2V397.5H178.647V370.6H186.097V373.75C187.13 372.617 188.414 371.75 189.947 371.15C191.48 370.517 193.164 370.2 194.997 370.2ZM213.717 370.6H221.517V397.5H213.717V370.6ZM217.617 366.85C216.184 366.85 215.017 366.433 214.117 365.6C213.217 364.767 212.767 363.733 212.767 362.5C212.767 361.267 213.217 360.233 214.117 359.4C215.017 358.567 216.184 358.15 217.617 358.15C219.051 358.15 220.217 358.55 221.117 359.35C222.017 360.15 222.467 361.15 222.467 362.35C222.467 363.65 222.017 364.733 221.117 365.6C220.217 366.433 219.051 366.85 217.617 366.85ZM245.606 370.2C248.94 370.2 251.623 371.2 253.656 373.2C255.723 375.2 256.756 378.167 256.756 382.1V397.5H248.956V383.3C248.956 381.167 248.49 379.583 247.556 378.55C246.623 377.483 245.273 376.95 243.506 376.95C241.54 376.95 239.973 377.567 238.806 378.8C237.64 380 237.056 381.8 237.056 384.2V397.5H229.256V370.6H236.706V373.75C237.74 372.617 239.023 371.75 240.556 371.15C242.09 370.517 243.773 370.2 245.606 370.2ZM292.37 370.6V393C292.37 397.933 291.086 401.6 288.52 404C285.953 406.4 282.203 407.6 277.27 407.6C274.67 407.6 272.203 407.283 269.87 406.65C267.536 406.017 265.603 405.1 264.07 403.9L267.17 398.3C268.303 399.233 269.736 399.967 271.47 400.5C273.203 401.067 274.936 401.35 276.67 401.35C279.37 401.35 281.353 400.733 282.62 399.5C283.92 398.3 284.57 396.467 284.57 394V392.85C282.536 395.083 279.703 396.2 276.07 396.2C273.603 396.2 271.336 395.667 269.27 394.6C267.236 393.5 265.62 391.967 264.42 390C263.22 388.033 262.62 385.767 262.62 383.2C262.62 380.633 263.22 378.367 264.42 376.4C265.62 374.433 267.236 372.917 269.27 371.85C271.336 370.75 273.603 370.2 276.07 370.2C279.97 370.2 282.936 371.483 284.97 374.05V370.6H292.37ZM277.62 389.8C279.686 389.8 281.37 389.2 282.67 388C284.003 386.767 284.67 385.167 284.67 383.2C284.67 381.233 284.003 379.65 282.67 378.45C281.37 377.217 279.686 376.6 277.62 376.6C275.553 376.6 273.853 377.217 272.52 378.45C271.186 379.65 270.52 381.233 270.52 383.2C270.52 385.167 271.186 386.767 272.52 388C273.853 389.2 275.553 389.8 277.62 389.8ZM341.139 384.15C341.139 384.25 341.089 384.95 340.989 386.25H320.639C321.006 387.917 321.873 389.233 323.239 390.2C324.606 391.167 326.306 391.65 328.339 391.65C329.739 391.65 330.973 391.45 332.039 391.05C333.139 390.617 334.156 389.95 335.089 389.05L339.239 393.55C336.706 396.45 333.006 397.9 328.139 397.9C325.106 397.9 322.423 397.317 320.089 396.15C317.756 394.95 315.956 393.3 314.689 391.2C313.423 389.1 312.789 386.717 312.789 384.05C312.789 381.417 313.406 379.05 314.639 376.95C315.906 374.817 317.623 373.167 319.789 372C321.989 370.8 324.439 370.2 327.139 370.2C329.773 370.2 332.156 370.767 334.289 371.9C336.423 373.033 338.089 374.667 339.289 376.8C340.523 378.9 341.139 381.35 341.139 384.15ZM327.189 376.1C325.423 376.1 323.939 376.6 322.739 377.6C321.539 378.6 320.806 379.967 320.539 381.7H333.789C333.523 380 332.789 378.65 331.589 377.65C330.389 376.617 328.923 376.1 327.189 376.1ZM363.182 370.2C366.516 370.2 369.199 371.2 371.232 373.2C373.299 375.2 374.332 378.167 374.332 382.1V397.5H366.532V383.3C366.532 381.167 366.066 379.583 365.132 378.55C364.199 377.483 362.849 376.95 361.082 376.95C359.116 376.95 357.549 377.567 356.382 378.8C355.216 380 354.632 381.8 354.632 384.2V397.5H346.832V370.6H354.282V373.75C355.316 372.617 356.599 371.75 358.132 371.15C359.666 370.517 361.349 370.2 363.182 370.2ZM409.946 370.6V393C409.946 397.933 408.662 401.6 406.096 404C403.529 406.4 399.779 407.6 394.846 407.6C392.246 407.6 389.779 407.283 387.446 406.65C385.112 406.017 383.179 405.1 381.646 403.9L384.746 398.3C385.879 399.233 387.312 399.967 389.046 400.5C390.779 401.067 392.512 401.35 394.246 401.35C396.946 401.35 398.929 400.733 400.196 399.5C401.496 398.3 402.146 396.467 402.146 394V392.85C400.112 395.083 397.279 396.2 393.646 396.2C391.179 396.2 388.912 395.667 386.846 394.6C384.812 393.5 383.196 391.967 381.996 390C380.796 388.033 380.196 385.767 380.196 383.2C380.196 380.633 380.796 378.367 381.996 376.4C383.196 374.433 384.812 372.917 386.846 371.85C388.912 370.75 391.179 370.2 393.646 370.2C397.546 370.2 400.512 371.483 402.546 374.05V370.6H409.946ZM395.196 389.8C397.262 389.8 398.946 389.2 400.246 388C401.579 386.767 402.246 385.167 402.246 383.2C402.246 381.233 401.579 379.65 400.246 378.45C398.946 377.217 397.262 376.6 395.196 376.6C393.129 376.6 391.429 377.217 390.096 378.45C388.762 379.65 388.096 381.233 388.096 383.2C388.096 385.167 388.762 386.767 390.096 388C391.429 389.2 393.129 389.8 395.196 389.8ZM417.705 360.4H425.505V397.5H417.705V360.4ZM433.245 370.6H441.045V397.5H433.245V370.6ZM437.145 366.85C435.711 366.85 434.545 366.433 433.645 365.6C432.745 364.767 432.295 363.733 432.295 362.5C432.295 361.267 432.745 360.233 433.645 359.4C434.545 358.567 435.711 358.15 437.145 358.15C438.578 358.15 439.745 358.55 440.645 359.35C441.545 360.15 441.995 361.15 441.995 362.35C441.995 363.65 441.545 364.733 440.645 365.6C439.745 366.433 438.578 366.85 437.145 366.85ZM457.834 397.9C455.6 397.9 453.417 397.633 451.284 397.1C449.15 396.533 447.45 395.833 446.184 395L448.784 389.4C449.984 390.167 451.434 390.8 453.134 391.3C454.834 391.767 456.5 392 458.134 392C461.434 392 463.084 391.183 463.084 389.55C463.084 388.783 462.634 388.233 461.734 387.9C460.834 387.567 459.45 387.283 457.584 387.05C455.384 386.717 453.567 386.333 452.134 385.9C450.7 385.467 449.45 384.7 448.384 383.6C447.35 382.5 446.834 380.933 446.834 378.9C446.834 377.2 447.317 375.7 448.284 374.4C449.284 373.067 450.717 372.033 452.584 371.3C454.484 370.567 456.717 370.2 459.284 370.2C461.184 370.2 463.067 370.417 464.934 370.85C466.834 371.25 468.4 371.817 469.634 372.55L467.034 378.1C464.667 376.767 462.084 376.1 459.284 376.1C457.617 376.1 456.367 376.333 455.534 376.8C454.7 377.267 454.284 377.867 454.284 378.6C454.284 379.433 454.734 380.017 455.634 380.35C456.534 380.683 457.967 381 459.934 381.3C462.134 381.667 463.934 382.067 465.334 382.5C466.734 382.9 467.95 383.65 468.984 384.75C470.017 385.85 470.534 387.383 470.534 389.35C470.534 391.017 470.034 392.5 469.034 393.8C468.034 395.1 466.567 396.117 464.634 396.85C462.734 397.55 460.467 397.9 457.834 397.9ZM492.196 370.2C495.529 370.2 498.213 371.2 500.246 373.2C502.313 375.2 503.346 378.167 503.346 382.1V397.5H495.546V383.3C495.546 381.167 495.079 379.583 494.146 378.55C493.213 377.483 491.863 376.95 490.096 376.95C488.129 376.95 486.563 377.567 485.396 378.8C484.229 380 483.646 381.8 483.646 384.2V397.5H475.846V360.4H483.646V373.4C484.679 372.367 485.929 371.583 487.396 371.05C488.863 370.483 490.463 370.2 492.196 370.2Z" fill="#2F2E44"/>
<path d="M92.97 71.49C92.97 71.55 92.94 71.97 92.88 72.75H80.67C80.89 73.75 81.41 74.54 82.23 75.12C83.05 75.7 84.07 75.99 85.29 75.99C86.13 75.99 86.87 75.87 87.51 75.63C88.17 75.37 88.78 74.97 89.34 74.43L91.83 77.13C90.31 78.87 88.09 79.74 85.17 79.74C83.35 79.74 81.74 79.39 80.34 78.69C78.94 77.97 77.86 76.98 77.1 75.72C76.34 74.46 75.96 73.03 75.96 71.43C75.96 69.85 76.33 68.43 77.07 67.17C77.83 65.89 78.86 64.9 80.16 64.2C81.48 63.48 82.95 63.12 84.57 63.12C86.15 63.12 87.58 63.46 88.86 64.14C90.14 64.82 91.14 65.8 91.86 67.08C92.6 68.34 92.97 69.81 92.97 71.49ZM84.6 66.66C83.54 66.66 82.65 66.96 81.93 67.56C81.21 68.16 80.77 68.98 80.61 70.02H88.56C88.4 69 87.96 68.19 87.24 67.59C86.52 66.97 85.64 66.66 84.6 66.66ZM106.196 63.12C108.196 63.12 109.806 63.72 111.026 64.92C112.266 66.12 112.886 67.9 112.886 70.26V79.5H108.206V70.98C108.206 69.7 107.926 68.75 107.366 68.13C106.806 67.49 105.996 67.17 104.936 67.17C103.756 67.17 102.816 67.54 102.116 68.28C101.416 69 101.066 70.08 101.066 71.52V79.5H96.3858V63.36H100.856V65.25C101.476 64.57 102.246 64.05 103.166 63.69C104.086 63.31 105.096 63.12 106.196 63.12ZM134.254 63.36V76.8C134.254 79.76 133.484 81.96 131.944 83.4C130.404 84.84 128.154 85.56 125.194 85.56C123.634 85.56 122.154 85.37 120.754 84.99C119.354 84.61 118.194 84.06 117.274 83.34L119.134 79.98C119.814 80.54 120.674 80.98 121.714 81.3C122.754 81.64 123.794 81.81 124.834 81.81C126.454 81.81 127.644 81.44 128.404 80.7C129.184 79.98 129.574 78.88 129.574 77.4V76.71C128.354 78.05 126.654 78.72 124.474 78.72C122.994 78.72 121.634 78.4 120.394 77.76C119.174 77.1 118.204 76.18 117.484 75C116.764 73.82 116.404 72.46 116.404 70.92C116.404 69.38 116.764 68.02 117.484 66.84C118.204 65.66 119.174 64.75 120.394 64.11C121.634 63.45 122.994 63.12 124.474 63.12C126.814 63.12 128.594 63.89 129.814 65.43V63.36H134.254ZM125.404 74.88C126.644 74.88 127.654 74.52 128.434 73.8C129.234 73.06 129.634 72.1 129.634 70.92C129.634 69.74 129.234 68.79 128.434 68.07C127.654 67.33 126.644 66.96 125.404 66.96C124.164 66.96 123.144 67.33 122.344 68.07C121.544 68.79 121.144 69.74 121.144 70.92C121.144 72.1 121.544 73.06 122.344 73.8C123.144 74.52 124.164 74.88 125.404 74.88ZM138.91 57.24H143.59V79.5H138.91V57.24ZM148.233 63.36H152.913V79.5H148.233V63.36ZM150.573 61.11C149.713 61.11 149.013 60.86 148.473 60.36C147.933 59.86 147.663 59.24 147.663 58.5C147.663 57.76 147.933 57.14 148.473 56.64C149.013 56.14 149.713 55.89 150.573 55.89C151.433 55.89 152.133 56.13 152.673 56.61C153.213 57.09 153.483 57.69 153.483 58.41C153.483 59.19 153.213 59.84 152.673 60.36C152.133 60.86 151.433 61.11 150.573 61.11ZM162.986 79.74C161.646 79.74 160.336 79.58 159.056 79.26C157.776 78.92 156.756 78.5 155.996 78L157.556 74.64C158.276 75.1 159.146 75.48 160.166 75.78C161.186 76.06 162.186 76.2 163.166 76.2C165.146 76.2 166.136 75.71 166.136 74.73C166.136 74.27 165.866 73.94 165.326 73.74C164.786 73.54 163.956 73.37 162.836 73.23C161.516 73.03 160.426 72.8 159.566 72.54C158.706 72.28 157.956 71.82 157.316 71.16C156.696 70.5 156.386 69.56 156.386 68.34C156.386 67.32 156.676 66.42 157.256 65.64C157.856 64.84 158.716 64.22 159.836 63.78C160.976 63.34 162.316 63.12 163.856 63.12C164.996 63.12 166.126 63.25 167.246 63.51C168.386 63.75 169.326 64.09 170.066 64.53L168.506 67.86C167.086 67.06 165.536 66.66 163.856 66.66C162.856 66.66 162.106 66.8 161.606 67.08C161.106 67.36 160.856 67.72 160.856 68.16C160.856 68.66 161.126 69.01 161.666 69.21C162.206 69.41 163.066 69.6 164.246 69.78C165.566 70 166.646 70.24 167.486 70.5C168.326 70.74 169.056 71.19 169.676 71.85C170.296 72.51 170.606 73.43 170.606 74.61C170.606 75.61 170.306 76.5 169.706 77.28C169.106 78.06 168.226 78.67 167.066 79.11C165.926 79.53 164.566 79.74 162.986 79.74ZM183.604 63.12C185.604 63.12 187.214 63.72 188.434 64.92C189.674 66.12 190.294 67.9 190.294 70.26V79.5H185.614V70.98C185.614 69.7 185.334 68.75 184.774 68.13C184.214 67.49 183.404 67.17 182.344 67.17C181.164 67.17 180.224 67.54 179.524 68.28C178.824 69 178.474 70.08 178.474 71.52V79.5H173.794V57.24H178.474V65.04C179.094 64.42 179.844 63.95 180.724 63.63C181.604 63.29 182.564 63.12 183.604 63.12ZM204.646 63.12C206.646 63.12 208.256 63.72 209.476 64.92C210.716 66.12 211.336 67.9 211.336 70.26V79.5H206.656V70.98C206.656 69.7 206.376 68.75 205.816 68.13C205.256 67.49 204.446 67.17 203.386 67.17C202.206 67.17 201.266 67.54 200.566 68.28C199.866 69 199.516 70.08 199.516 71.52V79.5H194.836V63.36H199.306V65.25C199.926 64.57 200.696 64.05 201.616 63.69C202.536 63.31 203.546 63.12 204.646 63.12ZM231.864 71.49C231.864 71.55 231.834 71.97 231.774 72.75H219.564C219.784 73.75 220.304 74.54 221.124 75.12C221.944 75.7 222.964 75.99 224.184 75.99C225.024 75.99 225.764 75.87 226.404 75.63C227.064 75.37 227.674 74.97 228.234 74.43L230.724 77.13C229.204 78.87 226.984 79.74 224.064 79.74C222.244 79.74 220.634 79.39 219.234 78.69C217.834 77.97 216.754 76.98 215.994 75.72C215.234 74.46 214.854 73.03 214.854 71.43C214.854 69.85 215.224 68.43 215.964 67.17C216.724 65.89 217.754 64.9 219.054 64.2C220.374 63.48 221.844 63.12 223.464 63.12C225.044 63.12 226.474 63.46 227.754 64.14C229.034 64.82 230.034 65.8 230.754 67.08C231.494 68.34 231.864 69.81 231.864 71.49ZM223.494 66.66C222.434 66.66 221.544 66.96 220.824 67.56C220.104 68.16 219.664 68.98 219.504 70.02H227.454C227.294 69 226.854 68.19 226.134 67.59C225.414 66.97 224.534 66.66 223.494 66.66ZM239.75 65.49C240.31 64.71 241.06 64.12 242 63.72C242.96 63.32 244.06 63.12 245.3 63.12V67.44C244.78 67.4 244.43 67.38 244.25 67.38C242.91 67.38 241.86 67.76 241.1 68.52C240.34 69.26 239.96 70.38 239.96 71.88V79.5H235.28V63.36H239.75V65.49ZM264.676 57.24V79.5H260.206V77.64C259.046 79.04 257.366 79.74 255.166 79.74C253.646 79.74 252.266 79.4 251.026 78.72C249.806 78.04 248.846 77.07 248.146 75.81C247.446 74.55 247.096 73.09 247.096 71.43C247.096 69.77 247.446 68.31 248.146 67.05C248.846 65.79 249.806 64.82 251.026 64.14C252.266 63.46 253.646 63.12 255.166 63.12C257.226 63.12 258.836 63.77 259.996 65.07V57.24H264.676ZM255.976 75.9C257.156 75.9 258.136 75.5 258.916 74.7C259.696 73.88 260.086 72.79 260.086 71.43C260.086 70.07 259.696 68.99 258.916 68.19C258.136 67.37 257.156 66.96 255.976 66.96C254.776 66.96 253.786 67.37 253.006 68.19C252.226 68.99 251.836 70.07 251.836 71.43C251.836 72.79 252.226 73.88 253.006 74.7C253.786 75.5 254.776 75.9 255.976 75.9ZM271.078 79.74C270.258 79.74 269.568 79.46 269.008 78.9C268.448 78.34 268.168 77.64 268.168 76.8C268.168 75.94 268.448 75.25 269.008 74.73C269.568 74.19 270.258 73.92 271.078 73.92C271.898 73.92 272.588 74.19 273.148 74.73C273.708 75.25 273.988 75.94 273.988 76.8C273.988 77.64 273.708 78.34 273.148 78.9C272.588 79.46 271.898 79.74 271.078 79.74ZM284.934 79.74C283.234 79.74 281.704 79.39 280.344 78.69C279.004 77.97 277.954 76.98 277.194 75.72C276.434 74.46 276.054 73.03 276.054 71.43C276.054 69.83 276.434 68.4 277.194 67.14C277.954 65.88 279.004 64.9 280.344 64.2C281.704 63.48 283.234 63.12 284.934 63.12C286.634 63.12 288.154 63.48 289.494 64.2C290.834 64.9 291.884 65.88 292.644 67.14C293.404 68.4 293.784 69.83 293.784 71.43C293.784 73.03 293.404 74.46 292.644 75.72C291.884 76.98 290.834 77.97 289.494 78.69C288.154 79.39 286.634 79.74 284.934 79.74ZM284.934 75.9C286.134 75.9 287.114 75.5 287.874 74.7C288.654 73.88 289.044 72.79 289.044 71.43C289.044 70.07 288.654 68.99 287.874 68.19C287.114 67.37 286.134 66.96 284.934 66.96C283.734 66.96 282.744 67.37 281.964 68.19C281.184 68.99 280.794 70.07 280.794 71.43C280.794 72.79 281.184 73.88 281.964 74.7C282.744 75.5 283.734 75.9 284.934 75.9ZM301.682 65.49C302.242 64.71 302.992 64.12 303.932 63.72C304.892 63.32 305.992 63.12 307.232 63.12V67.44C306.712 67.4 306.362 67.38 306.182 67.38C304.842 67.38 303.792 67.76 303.032 68.52C302.272 69.26 301.892 70.38 301.892 71.88V79.5H297.212V63.36H301.682V65.49ZM326.819 63.36V76.8C326.819 79.76 326.049 81.96 324.509 83.4C322.969 84.84 320.719 85.56 317.759 85.56C316.199 85.56 314.719 85.37 313.319 84.99C311.919 84.61 310.759 84.06 309.839 83.34L311.699 79.98C312.379 80.54 313.239 80.98 314.279 81.3C315.319 81.64 316.359 81.81 317.399 81.81C319.019 81.81 320.209 81.44 320.969 80.7C321.749 79.98 322.139 78.88 322.139 77.4V76.71C320.919 78.05 319.219 78.72 317.039 78.72C315.559 78.72 314.199 78.4 312.959 77.76C311.739 77.1 310.769 76.18 310.049 75C309.329 73.82 308.969 72.46 308.969 70.92C308.969 69.38 309.329 68.02 310.049 66.84C310.769 65.66 311.739 64.75 312.959 64.11C314.199 63.45 315.559 63.12 317.039 63.12C319.379 63.12 321.159 63.89 322.379 65.43V63.36H326.819ZM317.969 74.88C319.209 74.88 320.219 74.52 320.999 73.8C321.799 73.06 322.199 72.1 322.199 70.92C322.199 69.74 321.799 68.79 320.999 68.07C320.219 67.33 319.209 66.96 317.969 66.96C316.729 66.96 315.709 67.33 314.909 68.07C314.109 68.79 313.709 69.74 313.709 70.92C313.709 72.1 314.109 73.06 314.909 73.8C315.709 74.52 316.729 74.88 317.969 74.88Z" fill="#848499"/>
<circle cx="1061" cy="175.5" r="375" fill="#9E7DDF"/>
<path d="M1061 550.5C1268.11 550.5 1436 382.607 1436 175.5C1436 90.692 1407.85 12.4593 1360.38 -50.3623L835.138 474.878C897.959 522.348 976.192 550.5 1061 550.5Z" fill="#A685E2"/>
<path d="M717.298 325.717L1041.52 1.5L1391.97 351.958C1328.85 470.107 1204.31 550.5 1061 550.5C907.31 550.5 775.214 458.044 717.298 325.717Z" fill="#B397E6"/>
<path d="M697.6 82.585L1153.92 538.9C1124.2 546.474 1093.07 550.5 1061 550.5C853.893 550.5 686 382.607 686 175.5C686 143.429 690.026 112.298 697.6 82.585Z" fill="#C1AAEB"/>
<circle cx="1061" cy="175.5" r="375" fill="url(#paint0_linear)"/>
<g clip-path="url(#clip1)">
<path d="M677.39 644.328L649 564.838C649 564.838 680.229 580.452 681.648 600.325C681.648 600.325 674.551 500.961 660.356 479.669C660.356 479.669 683.068 482.508 708.618 593.227C708.618 593.227 712.877 465.474 674.551 428.567C674.551 428.567 727.071 471.152 731.33 563.418V644.328H677.39Z" fill="#F2F2F2"/>
<path d="M1034.34 479.941C1103.26 479.941 1159.13 424.067 1159.13 355.144C1159.13 286.22 1103.26 230.347 1034.34 230.347C965.412 230.347 909.538 286.22 909.538 355.144C909.538 424.067 965.412 479.941 1034.34 479.941Z" fill="#F2F2F2"/>
<path d="M1067.02 644.778C1066.83 644.455 1062.17 636.679 1060.55 620.531C1059.07 605.717 1060.03 580.746 1072.98 545.913C1097.51 479.925 1067.32 426.681 1067.01 426.151L1068.5 425.287C1068.58 425.422 1076.37 438.996 1080.97 460.612C1087.05 489.271 1084.84 519.068 1074.59 546.513C1050.1 612.389 1068.31 643.574 1068.49 643.881L1067.02 644.778Z" fill="#3F3D56"/>
<path d="M1022.29 337.93H727.937V644.328H1022.29V337.93Z" fill="#3F3D56"/>
<path d="M991.918 370.854H757.234V435.152H991.918V370.854Z" fill="#E6E6E6"/>
<path d="M762.591 428.722H986.559V377.284H762.591V428.722Z" fill="white"/>
<path d="M791.478 421.804C802.087 421.804 810.688 413.204 810.688 402.594C810.688 391.985 802.087 383.384 791.478 383.384C780.868 383.384 772.267 391.985 772.267 402.594C772.267 413.204 780.868 421.804 791.478 421.804Z" fill="#6C63FF"/>
<path d="M972.628 395.076H822.602V399.252H972.628V395.076Z" fill="#6C63FF"/>
<path d="M972.628 405.935H822.602V410.111H972.628V405.935Z" fill="#6C63FF"/>
<path d="M991.918 461.942H757.233V526.239H991.918V461.942Z" fill="#E6E6E6"/>
<path d="M762.591 519.809H986.559V469.443H762.591V519.809Z" fill="white"/>
<path d="M791.477 513.879C802.087 513.879 810.687 505.278 810.687 494.668C810.687 484.059 802.087 475.458 791.477 475.458C780.868 475.458 772.267 484.059 772.267 494.668C772.267 505.278 780.868 513.879 791.477 513.879Z" fill="#CCCCCC"/>
<path d="M972.628 487.151H822.601V491.328H972.628V487.151Z" fill="#CCCCCC"/>
<path d="M972.628 498.01H822.601V502.186H972.628V498.01Z" fill="#CCCCCC"/>
<path d="M991.918 546.6H757.233V610.897H991.918V546.6Z" fill="#E6E6E6"/>
<path d="M762.591 604.467H986.559V553.029H762.591V604.467Z" fill="white"/>
<path d="M791.477 598.354C802.087 598.354 810.688 589.754 810.688 579.144C810.688 568.534 802.087 559.934 791.477 559.934C780.868 559.934 772.267 568.534 772.267 579.144C772.267 589.754 780.868 598.354 791.477 598.354Z" fill="#CCCCCC"/>
<path d="M972.628 571.627H822.601V575.803H972.628V571.627Z" fill="#CCCCCC"/>
<path d="M972.628 582.484H822.601V586.661H972.628V582.484Z" fill="#CCCCCC"/>
<path d="M1057.43 422.276C1063.61 422.276 1068.62 417.267 1068.62 411.087C1068.62 404.908 1063.61 399.898 1057.43 399.898C1051.25 399.898 1046.24 404.908 1046.24 411.087C1046.24 417.267 1051.25 422.276 1057.43 422.276Z" fill="#6C63FF"/>
<path d="M1092.72 463.588C1098.9 463.588 1103.91 458.579 1103.91 452.4C1103.91 446.22 1098.9 441.211 1092.72 441.211C1086.54 441.211 1081.53 446.22 1081.53 452.4C1081.53 458.579 1086.54 463.588 1092.72 463.588Z" fill="#3F3D56"/>
<path d="M1068.62 491.129C1074.8 491.129 1079.81 486.12 1079.81 479.941C1079.81 473.761 1074.8 468.752 1068.62 468.752C1062.44 468.752 1057.43 473.761 1057.43 479.941C1057.43 486.12 1062.44 491.129 1068.62 491.129Z" fill="#6C63FF"/>
<path d="M1097.88 514.368C1104.06 514.368 1109.07 509.358 1109.07 503.179C1109.07 497 1104.06 491.99 1097.88 491.99C1091.7 491.99 1086.69 497 1086.69 503.179C1086.69 509.358 1091.7 514.368 1097.88 514.368Z" fill="#6C63FF"/>
<path d="M1060.01 550.516C1066.19 550.516 1071.2 545.507 1071.2 539.327C1071.2 533.148 1066.19 528.139 1060.01 528.139C1053.83 528.139 1048.82 533.148 1048.82 539.327C1048.82 545.507 1053.83 550.516 1060.01 550.516Z" fill="#3F3D56"/>
<path d="M1067.65 645.19C1067.65 645.19 1056.46 617.648 1090.03 596.992L1067.65 645.19Z" fill="#3F3D56"/>
<path d="M1067.5 644.69C1067.5 644.69 1062.41 615.402 1022.99 615.653L1067.5 644.69Z" fill="#3F3D56"/>
<path d="M912.162 171.821C912.162 171.821 940.564 159.445 953.904 172.518C967.245 185.592 918.187 181.288 912.162 171.821Z" fill="#3F3D56"/>
<path d="M961.204 113.128C951.66 97 932.776 96.2483 932.776 96.2483C932.776 96.2483 914.376 93.8953 902.571 118.458C891.569 141.352 876.385 163.457 900.127 168.816L904.415 155.469L907.071 169.81C910.452 170.053 913.843 170.111 917.23 169.984C942.656 169.163 966.87 170.224 966.09 161.1C965.054 148.971 970.388 128.646 961.204 113.128Z" fill="#2F2E41"/>
<path d="M974.56 405.493C974.56 405.493 962.511 427.871 954.765 427.871C947.019 427.871 947.879 442.502 949.601 445.945C951.322 449.387 955.625 457.133 948.74 468.322C946.335 472.23 946.765 476.664 948.344 480.778C952.766 492.307 969.967 488.814 969.418 476.479C969.412 476.343 969.405 476.206 969.396 476.068C968.536 462.297 975.421 440.781 982.306 435.617C989.192 430.453 995.216 416.682 995.216 416.682L974.56 405.493Z" fill="#FFB8B8"/>
<path d="M891.935 400.329C891.935 400.329 903.985 422.706 911.731 422.706C919.477 422.706 918.616 437.338 916.895 440.781C915.173 444.223 910.87 451.969 917.755 463.158C920.16 467.066 919.73 471.499 918.152 475.614C913.73 487.143 896.529 483.65 897.077 471.315C897.083 471.179 897.091 471.042 897.099 470.904C897.96 457.133 891.075 435.617 884.189 430.453C877.304 425.289 871.279 411.518 871.279 411.518L891.935 400.329Z" fill="#FFB8B8"/>
<path d="M901.403 290.164L896.239 301.352C896.239 301.352 820.5 326.312 827.386 355.575C834.271 384.837 867.837 430.453 873.001 428.732C878.165 427.01 905.707 421.846 906.567 407.215C907.428 392.583 886.772 366.763 886.772 366.763L915.174 340.943L956.504 340.083L991.774 366.763C991.774 366.763 954.765 399.469 971.118 412.379C987.47 425.289 1011.57 433.896 1015.01 428.732C1018.45 423.568 1057.18 346.968 1051.16 340.082C1045.14 333.197 984.028 307.377 984.028 307.377L967.675 284.139L903.985 280.696L901.403 290.164Z" fill="#2F2E41"/>
<path d="M916.895 148.152C916.895 148.152 921.198 176.554 912.591 179.997C903.985 183.44 929.805 198.071 929.805 198.071H944.436L953.904 178.276C953.904 178.276 945.297 162.784 950.461 148.152C955.625 133.521 916.895 148.152 916.895 148.152Z" fill="#FFB8B8"/>
<path opacity="0.1" d="M916.895 148.152C916.895 148.152 921.198 176.554 912.591 179.997C903.985 183.44 929.805 198.071 929.805 198.071H944.436L953.904 178.276C953.904 178.276 945.297 162.784 950.461 148.152C955.625 133.521 916.895 148.152 916.895 148.152Z" fill="black"/>
<path d="M910.871 172.252C910.871 172.252 920.338 182.58 922.06 184.301C923.781 186.023 931.527 195.49 947.88 181.719C964.232 167.949 965.954 184.301 965.954 184.301V287.582C965.954 287.582 952.183 281.557 940.994 287.582C929.806 293.606 906.567 285.86 906.567 285.86L902.264 179.137L910.871 172.252Z" fill="white"/>
<path d="M917.193 172.251C917.193 172.251 909.15 168.808 902.264 172.251C895.379 175.693 871.28 192.907 873.001 200.653C874.723 208.399 897.1 262.621 881.608 288.441C866.116 314.261 863.534 321.147 863.534 321.147L901.404 301.351C901.404 301.351 930.666 283.277 928.084 272.089C925.502 260.9 917.193 172.251 917.193 172.251Z" fill="#6C63FF"/>
<path d="M951.332 172.252C951.332 172.252 969.396 173.973 970.256 175.695C971.117 177.416 997.367 184.732 995.646 192.478C993.925 200.224 970.256 269.508 980.584 282.418C990.912 295.328 1008.13 313.402 1002.1 315.123C996.076 316.845 985.748 312.541 975.42 315.123C965.092 317.705 940.994 296.188 943.576 272.95C946.158 249.712 943.596 178.277 951.332 172.252Z" fill="#6C63FF"/>
<path d="M908.288 336.639V345.246C908.288 345.246 903.985 365.041 917.755 364.181C931.526 363.32 922.919 340.082 922.919 340.082L922.059 332.336L908.288 336.639Z" fill="#FFB8B8"/>
<path d="M947.019 337.5C947.019 337.5 937.551 357.295 947.019 359.017C956.486 360.738 963.371 347.828 963.371 344.385C963.371 340.943 947.019 337.5 947.019 337.5Z" fill="#FFB8B8"/>
<path d="M959.498 139.976C960.449 139.976 961.22 138.435 961.22 136.534C961.22 134.632 960.449 133.091 959.498 133.091C958.547 133.091 957.777 134.632 957.777 136.534C957.777 138.435 958.547 139.976 959.498 139.976Z" fill="#FFB8B8"/>
<path d="M908.719 139.976C909.669 139.976 910.44 138.435 910.44 136.534C910.44 134.632 909.669 133.091 908.719 133.091C907.768 133.091 906.997 134.632 906.997 136.534C906.997 138.435 907.768 139.976 908.719 139.976Z" fill="#FFB8B8"/>
<path d="M974.56 183.44C974.56 183.44 996.077 183.44 995.216 192.047C994.355 200.654 965.953 348.689 965.953 348.689C965.953 348.689 953.904 337.5 943.576 340.082L974.56 183.44Z" fill="#6C63FF"/>
<path d="M891.076 186.021C891.076 186.021 869.559 190.325 869.559 203.235C869.559 216.145 900.543 340.081 904.846 340.081C909.15 340.081 925.502 337.499 925.502 333.196C925.502 328.893 891.076 186.021 891.076 186.021Z" fill="#6C63FF"/>
<path opacity="0.2" d="M895.809 211.411L915.174 287.142C915.174 287.142 906.137 220.878 895.809 211.411Z" fill="black"/>
<path opacity="0.2" d="M971.132 200.771L951.547 299.785C951.547 299.785 957.807 206.482 971.132 200.771Z" fill="black"/>
<path d="M934.108 161.923C947.893 161.923 959.068 150.748 959.068 136.963C959.068 123.179 947.893 112.004 934.108 112.004C920.324 112.004 909.149 123.179 909.149 136.963C909.149 150.748 920.324 161.923 934.108 161.923Z" fill="#FFB8B8"/>
<path d="M956.984 111.573L938.328 101.801L912.565 105.798L907.235 129.34L920.504 128.83L924.21 120.181V128.688L930.333 128.452L933.886 114.682L936.108 129.34L957.872 128.897L956.984 111.573Z" fill="#2F2E41"/>
<path d="M932.776 96.2483C932.776 96.2483 951.66 97 961.204 113.128C967.698 124.099 966.934 137.473 966.295 148.655C966.03 153.289 965.787 157.546 966.09 161.1C966.497 165.862 960.095 167.85 950.266 168.778C950.372 169.176 950.481 169.565 950.592 169.944C951.772 170.664 952.882 171.517 953.904 172.518C958.925 173.067 969.599 174.381 970.256 175.694C970.503 176.188 972.843 177.143 976.012 178.437C983.883 181.651 996.873 186.955 995.646 192.477C995.474 193.25 995.084 194.637 994.53 196.52C993.22 204.293 990.217 220.612 986.629 239.79C1001.33 233.704 1017.44 230.346 1034.34 230.346C1103.26 230.346 1159.13 286.22 1159.13 355.144C1159.13 406.919 1127.6 451.331 1082.7 470.225C1086.46 495.878 1083.7 522.124 1074.59 546.513C1055.96 596.618 1062.04 626.655 1066.09 638.299C1065.01 628.806 1066.85 611.257 1090.03 596.992L1068.36 643.652C1068.39 643.696 1068.41 643.734 1068.43 643.766C1068.44 643.794 1068.46 643.816 1068.47 643.834C1068.48 643.86 1068.49 643.875 1068.49 643.881L1068.16 644.082L1067.65 645.189C1067.65 645.189 1067.65 645.179 1067.64 645.158L1067.62 645.107C1067.6 645.071 1067.59 645.023 1067.56 644.964L1067.54 644.897C1067.53 644.867 1067.52 644.835 1067.51 644.801C1067.49 644.759 1067.48 644.713 1067.46 644.664L1067.34 644.586L1067.02 644.778C1066.99 644.73 1066.87 644.522 1066.67 644.151L1022.99 615.653C1046.25 615.505 1057.56 625.645 1062.92 633.982C1061.98 630.416 1061.1 625.944 1060.55 620.531C1059.07 605.717 1060.03 580.745 1072.98 545.913C1083.54 517.489 1083.96 491.431 1080.98 470.931C1079.65 471.468 1078.31 471.983 1076.95 472.475C1078.73 474.455 1079.81 477.072 1079.81 479.941C1079.81 486.12 1074.8 491.13 1068.62 491.13C1062.44 491.13 1057.43 486.12 1057.43 479.941C1057.43 479.198 1057.5 478.471 1057.64 477.768C1050.09 479.195 1042.3 479.941 1034.34 479.941C1030.27 479.941 1026.25 479.746 1022.29 479.366V644.329L677.39 644.329L649 564.838C649 564.838 680.229 580.452 681.648 600.325C681.648 600.325 674.551 500.961 660.356 479.669C660.356 479.669 683.068 482.508 708.618 593.227C708.618 593.227 712.877 465.474 674.551 428.568C674.551 428.568 715.331 461.633 727.937 532.62V337.93H832.488C840.094 328.219 854.313 319.662 867.395 313.271C870.061 308.236 874.46 300.354 881.608 288.441C883.581 285.153 884.94 281.405 885.805 277.35C877.44 244.499 869.559 209.746 869.559 203.235C869.559 197.821 873.344 193.92 877.739 191.216C884.782 183.41 897.553 174.607 902.264 172.251C906.287 170.239 910.706 170.579 913.684 171.208C914.531 170.883 915.703 170.454 917.122 169.988C913.771 170.11 910.416 170.051 907.071 169.81L904.415 155.469L900.127 168.816C879.491 164.158 888.262 146.85 898.135 127.368L898.135 127.367L898.137 127.363C899.623 124.432 901.133 121.451 902.571 118.458C914.376 93.8953 932.776 96.2483 932.776 96.2483Z" fill="url(#paint1_linear)"/>
<path d="M1097.88 514.368C1104.06 514.368 1109.07 509.358 1109.07 503.179C1109.07 497 1104.06 491.99 1097.88 491.99C1091.7 491.99 1086.69 497 1086.69 503.179C1086.69 509.358 1091.7 514.368 1097.88 514.368Z" fill="url(#paint2_linear)"/>
<path d="M1071.2 539.327C1071.2 545.506 1066.19 550.515 1060.01 550.515C1053.83 550.515 1048.82 545.506 1048.82 539.327C1048.82 533.147 1053.83 528.138 1060.01 528.138C1066.19 528.138 1071.2 533.147 1071.2 539.327Z" fill="url(#paint3_linear)"/>
</g>
</g>
<defs>
<linearGradient id="paint0_linear" x1="686" y1="-199.5" x2="1549.99" y2="380.766" gradientUnits="userSpaceOnUse">
<stop stop-color="white" stop-opacity="0.2"/>
<stop offset="1" stop-color="white" stop-opacity="0"/>
</linearGradient>
<linearGradient id="paint1_linear" x1="649" y1="645.189" x2="1142.71" y2="555.065" gradientUnits="userSpaceOnUse">
<stop stop-color="white" stop-opacity="0.2"/>
<stop offset="1" stop-color="white" stop-opacity="0"/>
</linearGradient>
<linearGradient id="paint2_linear" x1="649" y1="645.189" x2="1142.71" y2="555.065" gradientUnits="userSpaceOnUse">
<stop stop-color="white" stop-opacity="0.2"/>
<stop offset="1" stop-color="white" stop-opacity="0"/>
</linearGradient>
<linearGradient id="paint3_linear" x1="649" y1="645.189" x2="1142.71" y2="555.065" gradientUnits="userSpaceOnUse">
<stop stop-color="white" stop-opacity="0.2"/>
<stop offset="1" stop-color="white" stop-opacity="0"/>
</linearGradient>
<clipPath id="clip0">
<rect width="1236" height="695" fill="white" transform="translate(0 0.5)"/>
</clipPath>
<clipPath id="clip1">
<rect width="511.071" height="550" fill="white" transform="translate(649 95.5)"/>
</clipPath>
</defs>
</svg>
