<svg width="1236" height="696" viewBox="0 0 1236 696" fill="none" xmlns="http://www.w3.org/2000/svg">
<g clip-path="url(#clip0)">
<rect width="1236" height="695" transform="translate(0 0.5)" fill="white"/>
<path d="M96.1 334.1C92.4667 334.1 89.1833 333.317 86.25 331.75C83.35 330.183 81.0667 328.033 79.4 325.3C77.7667 322.533 76.95 319.433 76.95 316C76.95 312.567 77.7667 309.483 79.4 306.75C81.0667 303.983 83.35 301.817 86.25 300.25C89.1833 298.683 92.4667 297.9 96.1 297.9C99.7333 297.9 103 298.683 105.9 300.25C108.8 301.817 111.083 303.983 112.75 306.75C114.417 309.483 115.25 312.567 115.25 316C115.25 319.433 114.417 322.533 112.75 325.3C111.083 328.033 108.8 330.183 105.9 331.75C103 333.317 99.7333 334.1 96.1 334.1ZM96.1 327.2C98.1667 327.2 100.033 326.733 101.7 325.8C103.367 324.833 104.667 323.5 105.6 321.8C106.567 320.1 107.05 318.167 107.05 316C107.05 313.833 106.567 311.9 105.6 310.2C104.667 308.5 103.367 307.183 101.7 306.25C100.033 305.283 98.1667 304.8 96.1 304.8C94.0333 304.8 92.1667 305.283 90.5 306.25C88.8333 307.183 87.5167 308.5 86.55 310.2C85.6167 311.9 85.15 313.833 85.15 316C85.15 318.167 85.6167 320.1 86.55 321.8C87.5167 323.5 88.8333 324.833 90.5 325.8C92.1667 326.733 94.0333 327.2 96.1 327.2ZM147.888 306.6V333.5H140.488V330.3C139.454 331.467 138.221 332.367 136.788 333C135.354 333.6 133.804 333.9 132.138 333.9C128.604 333.9 125.804 332.883 123.738 330.85C121.671 328.817 120.638 325.8 120.638 321.8V306.6H128.438V320.65C128.438 324.983 130.254 327.15 133.888 327.15C135.754 327.15 137.254 326.55 138.388 325.35C139.521 324.117 140.088 322.3 140.088 319.9V306.6H147.888ZM162.564 310.15C163.497 308.85 164.747 307.867 166.314 307.2C167.914 306.533 169.747 306.2 171.814 306.2V313.4C170.947 313.333 170.364 313.3 170.064 313.3C167.83 313.3 166.08 313.933 164.814 315.2C163.547 316.433 162.914 318.3 162.914 320.8V333.5H155.114V306.6H162.564V310.15ZM207.157 306.2C210.49 306.2 213.174 307.2 215.207 309.2C217.274 311.2 218.307 314.167 218.307 318.1V333.5H210.507V319.3C210.507 317.167 210.04 315.583 209.107 314.55C208.174 313.483 206.824 312.95 205.057 312.95C203.09 312.95 201.524 313.567 200.357 314.8C199.19 316 198.607 317.8 198.607 320.2V333.5H190.807V296.4H198.607V309.4C199.64 308.367 200.89 307.583 202.357 307.05C203.824 306.483 205.424 306.2 207.157 306.2ZM252.02 320.15C252.02 320.25 251.97 320.95 251.87 322.25H231.52C231.887 323.917 232.754 325.233 234.12 326.2C235.487 327.167 237.187 327.65 239.22 327.65C240.62 327.65 241.854 327.45 242.92 327.05C244.02 326.617 245.037 325.95 245.97 325.05L250.12 329.55C247.587 332.45 243.887 333.9 239.02 333.9C235.987 333.9 233.304 333.317 230.97 332.15C228.637 330.95 226.837 329.3 225.57 327.2C224.304 325.1 223.67 322.717 223.67 320.05C223.67 317.417 224.287 315.05 225.52 312.95C226.787 310.817 228.504 309.167 230.67 308C232.87 306.8 235.32 306.2 238.02 306.2C240.654 306.2 243.037 306.767 245.17 307.9C247.304 309.033 248.97 310.667 250.17 312.8C251.404 314.9 252.02 317.35 252.02 320.15ZM238.07 312.1C236.304 312.1 234.82 312.6 233.62 313.6C232.42 314.6 231.687 315.967 231.42 317.7H244.67C244.404 316 243.67 314.65 242.47 313.65C241.27 312.617 239.804 312.1 238.07 312.1ZM257.213 296.4H265.013V333.5H257.213V296.4ZM288.152 306.2C290.652 306.2 292.919 306.783 294.952 307.95C297.019 309.083 298.636 310.7 299.802 312.8C300.969 314.867 301.552 317.283 301.552 320.05C301.552 322.817 300.969 325.25 299.802 327.35C298.636 329.417 297.019 331.033 294.952 332.2C292.919 333.333 290.652 333.9 288.152 333.9C284.719 333.9 282.019 332.817 280.052 330.65V343.2H272.252V306.6H279.702V309.7C281.636 307.367 284.452 306.2 288.152 306.2ZM286.802 327.5C288.802 327.5 290.436 326.833 291.702 325.5C293.002 324.133 293.652 322.317 293.652 320.05C293.652 317.783 293.002 315.983 291.702 314.65C290.436 313.283 288.802 312.6 286.802 312.6C284.802 312.6 283.152 313.283 281.852 314.65C280.586 315.983 279.952 317.783 279.952 320.05C279.952 322.317 280.586 324.133 281.852 325.5C283.152 326.833 284.802 327.5 286.802 327.5ZM315.324 307.2H322.224V313.2H315.524V333.5H307.724V313.2H303.574V307.2H307.724V306C307.724 302.933 308.624 300.5 310.424 298.7C312.257 296.9 314.824 296 318.124 296C319.29 296 320.39 296.133 321.424 296.4C322.49 296.633 323.374 296.983 324.074 297.45L322.024 303.1C321.124 302.467 320.074 302.15 318.874 302.15C316.507 302.15 315.324 303.45 315.324 306.05V307.2ZM353.21 306.6V333.5H345.81V330.3C344.776 331.467 343.543 332.367 342.11 333C340.676 333.6 339.126 333.9 337.46 333.9C333.926 333.9 331.126 332.883 329.06 330.85C326.993 328.817 325.96 325.8 325.96 321.8V306.6H333.76V320.65C333.76 324.983 335.576 327.15 339.21 327.15C341.076 327.15 342.576 326.55 343.71 325.35C344.843 324.117 345.41 322.3 345.41 319.9V306.6H353.21ZM360.436 296.4H368.236V333.5H360.436V296.4ZM389.635 296.4H397.435V333.5H389.635V296.4ZM404.674 306.6H412.474V333.5H404.674V306.6ZM408.574 302.85C407.141 302.85 405.974 302.433 405.074 301.6C404.174 300.767 403.724 299.733 403.724 298.5C403.724 297.267 404.174 296.233 405.074 295.4C405.974 294.567 407.141 294.15 408.574 294.15C410.008 294.15 411.174 294.55 412.074 295.35C412.974 296.15 413.424 297.15 413.424 298.35C413.424 299.65 412.974 300.733 412.074 301.6C411.174 302.433 410.008 302.85 408.574 302.85ZM435.613 306.2C438.113 306.2 440.38 306.783 442.413 307.95C444.48 309.083 446.097 310.7 447.263 312.8C448.43 314.867 449.013 317.283 449.013 320.05C449.013 322.817 448.43 325.25 447.263 327.35C446.097 329.417 444.48 331.033 442.413 332.2C440.38 333.333 438.113 333.9 435.613 333.9C431.913 333.9 429.097 332.733 427.163 330.4V333.5H419.713V296.4H427.513V309.45C429.48 307.283 432.18 306.2 435.613 306.2ZM434.263 327.5C436.263 327.5 437.897 326.833 439.163 325.5C440.463 324.133 441.113 322.317 441.113 320.05C441.113 317.783 440.463 315.983 439.163 314.65C437.897 313.283 436.263 312.6 434.263 312.6C432.263 312.6 430.613 313.283 429.313 314.65C428.047 315.983 427.413 317.783 427.413 320.05C427.413 322.317 428.047 324.133 429.313 325.5C430.613 326.833 432.263 327.5 434.263 327.5ZM461.685 310.15C462.618 308.85 463.868 307.867 465.435 307.2C467.035 306.533 468.868 306.2 470.935 306.2V313.4C470.068 313.333 469.485 313.3 469.185 313.3C466.951 313.3 465.201 313.933 463.935 315.2C462.668 316.433 462.035 318.3 462.035 320.8V333.5H454.235V306.6H461.685V310.15ZM486.276 306.2C490.443 306.2 493.643 307.2 495.876 309.2C498.11 311.167 499.226 314.15 499.226 318.15V333.5H491.926V330.15C490.46 332.65 487.726 333.9 483.726 333.9C481.66 333.9 479.86 333.55 478.326 332.85C476.826 332.15 475.676 331.183 474.876 329.95C474.076 328.717 473.676 327.317 473.676 325.75C473.676 323.25 474.61 321.283 476.476 319.85C478.376 318.417 481.293 317.7 485.226 317.7H491.426C491.426 316 490.91 314.7 489.876 313.8C488.843 312.867 487.293 312.4 485.226 312.4C483.793 312.4 482.376 312.633 480.976 313.1C479.61 313.533 478.443 314.133 477.476 314.9L474.676 309.45C476.143 308.417 477.893 307.617 479.926 307.05C481.993 306.483 484.11 306.2 486.276 306.2ZM485.676 328.65C487.01 328.65 488.193 328.35 489.226 327.75C490.26 327.117 490.993 326.2 491.426 325V322.25H486.076C482.876 322.25 481.276 323.3 481.276 325.4C481.276 326.4 481.66 327.2 482.426 327.8C483.226 328.367 484.31 328.65 485.676 328.65ZM513.736 310.15C514.669 308.85 515.919 307.867 517.486 307.2C519.086 306.533 520.919 306.2 522.986 306.2V313.4C522.119 313.333 521.536 313.3 521.236 313.3C519.002 313.3 517.252 313.933 515.986 315.2C514.719 316.433 514.086 318.3 514.086 320.8V333.5H506.286V306.6H513.736V310.15ZM555.251 306.6L543.101 335.15C541.868 338.25 540.335 340.433 538.501 341.7C536.701 342.967 534.518 343.6 531.951 343.6C530.551 343.6 529.168 343.383 527.801 342.95C526.435 342.517 525.318 341.917 524.451 341.15L527.301 335.6C527.901 336.133 528.585 336.55 529.351 336.85C530.151 337.15 530.935 337.3 531.701 337.3C532.768 337.3 533.635 337.033 534.301 336.5C534.968 336 535.568 335.15 536.101 333.95L536.201 333.7L524.551 306.6H532.601L540.151 324.85L547.751 306.6H555.251ZM121.8 370.6L112.05 397.5H104.55L98.5 380.8L92.25 397.5H84.75L75.05 370.6H82.4L88.75 388.8L95.35 370.6H101.95L108.35 388.8L114.9 370.6H121.8ZM125.426 370.6H133.226V397.5H125.426V370.6ZM129.326 366.85C127.893 366.85 126.726 366.433 125.826 365.6C124.926 364.767 124.476 363.733 124.476 362.5C124.476 361.267 124.926 360.233 125.826 359.4C126.726 358.567 127.893 358.15 129.326 358.15C130.76 358.15 131.926 358.55 132.826 359.35C133.726 360.15 134.176 361.15 134.176 362.35C134.176 363.65 133.726 364.733 132.826 365.6C131.926 366.433 130.76 366.85 129.326 366.85ZM157.815 396.2C157.049 396.767 156.099 397.2 154.965 397.5C153.865 397.767 152.699 397.9 151.465 397.9C148.265 397.9 145.782 397.083 144.015 395.45C142.282 393.817 141.415 391.417 141.415 388.25V377.2H137.265V371.2H141.415V364.65H149.215V371.2H155.915V377.2H149.215V388.15C149.215 389.283 149.499 390.167 150.065 390.8C150.665 391.4 151.499 391.7 152.565 391.7C153.799 391.7 154.849 391.367 155.715 390.7L157.815 396.2ZM178.544 370.2C181.877 370.2 184.56 371.2 186.594 373.2C188.66 375.2 189.694 378.167 189.694 382.1V397.5H181.894V383.3C181.894 381.167 181.427 379.583 180.494 378.55C179.56 377.483 178.21 376.95 176.444 376.95C174.477 376.95 172.91 377.567 171.744 378.8C170.577 380 169.994 381.8 169.994 384.2V397.5H162.194V360.4H169.994V373.4C171.027 372.367 172.277 371.583 173.744 371.05C175.21 370.483 176.81 370.2 178.544 370.2ZM227.274 370.2C230.608 370.2 233.291 371.2 235.324 373.2C237.391 375.2 238.424 378.167 238.424 382.1V397.5H230.624V383.3C230.624 381.167 230.158 379.583 229.224 378.55C228.291 377.483 226.941 376.95 225.174 376.95C223.208 376.95 221.641 377.567 220.474 378.8C219.308 380 218.724 381.8 218.724 384.2V397.5H210.924V360.4H218.724V373.4C219.758 372.367 221.008 371.583 222.474 371.05C223.941 370.483 225.541 370.2 227.274 370.2ZM256.345 370.2C260.511 370.2 263.711 371.2 265.945 373.2C268.178 375.167 269.295 378.15 269.295 382.15V397.5H261.995V394.15C260.528 396.65 257.795 397.9 253.795 397.9C251.728 397.9 249.928 397.55 248.395 396.85C246.895 396.15 245.745 395.183 244.945 393.95C244.145 392.717 243.745 391.317 243.745 389.75C243.745 387.25 244.678 385.283 246.545 383.85C248.445 382.417 251.361 381.7 255.295 381.7H261.495C261.495 380 260.978 378.7 259.945 377.8C258.911 376.867 257.361 376.4 255.295 376.4C253.861 376.4 252.445 376.633 251.045 377.1C249.678 377.533 248.511 378.133 247.545 378.9L244.745 373.45C246.211 372.417 247.961 371.617 249.995 371.05C252.061 370.483 254.178 370.2 256.345 370.2ZM255.745 392.65C257.078 392.65 258.261 392.35 259.295 391.75C260.328 391.117 261.061 390.2 261.495 389V386.25H256.145C252.945 386.25 251.345 387.3 251.345 389.4C251.345 390.4 251.728 391.2 252.495 391.8C253.295 392.367 254.378 392.65 255.745 392.65ZM292.704 370.2C296.037 370.2 298.721 371.2 300.754 373.2C302.821 375.2 303.854 378.167 303.854 382.1V397.5H296.054V383.3C296.054 381.167 295.587 379.583 294.654 378.55C293.721 377.483 292.371 376.95 290.604 376.95C288.637 376.95 287.071 377.567 285.904 378.8C284.737 380 284.154 381.8 284.154 384.2V397.5H276.354V370.6H283.804V373.75C284.837 372.617 286.121 371.75 287.654 371.15C289.187 370.517 290.871 370.2 292.704 370.2ZM338.617 360.4V397.5H331.167V394.4C329.234 396.733 326.434 397.9 322.767 397.9C320.234 397.9 317.934 397.333 315.867 396.2C313.834 395.067 312.234 393.45 311.067 391.35C309.901 389.25 309.317 386.817 309.317 384.05C309.317 381.283 309.901 378.85 311.067 376.75C312.234 374.65 313.834 373.033 315.867 371.9C317.934 370.767 320.234 370.2 322.767 370.2C326.201 370.2 328.884 371.283 330.817 373.45V360.4H338.617ZM324.117 391.5C326.084 391.5 327.717 390.833 329.017 389.5C330.317 388.133 330.967 386.317 330.967 384.05C330.967 381.783 330.317 379.983 329.017 378.65C327.717 377.283 326.084 376.6 324.117 376.6C322.117 376.6 320.467 377.283 319.167 378.65C317.867 379.983 317.217 381.783 317.217 384.05C317.217 386.317 317.867 388.133 319.167 389.5C320.467 390.833 322.117 391.5 324.117 391.5ZM372.536 370.6L360.386 399.15C359.153 402.25 357.62 404.433 355.786 405.7C353.986 406.967 351.803 407.6 349.236 407.6C347.836 407.6 346.453 407.383 345.086 406.95C343.72 406.517 342.603 405.917 341.736 405.15L344.586 399.6C345.186 400.133 345.87 400.55 346.636 400.85C347.436 401.15 348.22 401.3 348.986 401.3C350.053 401.3 350.92 401.033 351.586 400.5C352.253 400 352.853 399.15 353.386 397.95L353.486 397.7L341.836 370.6H349.886L357.436 388.85L365.036 370.6H372.536ZM402.879 397.9C400.013 397.9 397.429 397.317 395.129 396.15C392.863 394.95 391.079 393.3 389.779 391.2C388.513 389.1 387.879 386.717 387.879 384.05C387.879 381.383 388.513 379 389.779 376.9C391.079 374.8 392.863 373.167 395.129 372C397.429 370.8 400.013 370.2 402.879 370.2C405.713 370.2 408.179 370.8 410.279 372C412.413 373.167 413.963 374.85 414.929 377.05L408.879 380.3C407.479 377.833 405.463 376.6 402.829 376.6C400.796 376.6 399.113 377.267 397.779 378.6C396.446 379.933 395.779 381.75 395.779 384.05C395.779 386.35 396.446 388.167 397.779 389.5C399.113 390.833 400.796 391.5 402.829 391.5C405.496 391.5 407.513 390.267 408.879 387.8L414.929 391.1C413.963 393.233 412.413 394.9 410.279 396.1C408.179 397.3 405.713 397.9 402.879 397.9ZM431.879 397.9C429.045 397.9 426.495 397.317 424.229 396.15C421.995 394.95 420.245 393.3 418.979 391.2C417.712 389.1 417.079 386.717 417.079 384.05C417.079 381.383 417.712 379 418.979 376.9C420.245 374.8 421.995 373.167 424.229 372C426.495 370.8 429.045 370.2 431.879 370.2C434.712 370.2 437.245 370.8 439.479 372C441.712 373.167 443.462 374.8 444.729 376.9C445.995 379 446.629 381.383 446.629 384.05C446.629 386.717 445.995 389.1 444.729 391.2C443.462 393.3 441.712 394.95 439.479 396.15C437.245 397.317 434.712 397.9 431.879 397.9ZM431.879 391.5C433.879 391.5 435.512 390.833 436.779 389.5C438.079 388.133 438.729 386.317 438.729 384.05C438.729 381.783 438.079 379.983 436.779 378.65C435.512 377.283 433.879 376.6 431.879 376.6C429.879 376.6 428.229 377.283 426.929 378.65C425.629 379.983 424.979 381.783 424.979 384.05C424.979 386.317 425.629 388.133 426.929 389.5C428.229 390.833 429.879 391.5 431.879 391.5ZM468.192 370.2C471.526 370.2 474.209 371.2 476.242 373.2C478.309 375.2 479.342 378.167 479.342 382.1V397.5H471.542V383.3C471.542 381.167 471.076 379.583 470.142 378.55C469.209 377.483 467.859 376.95 466.092 376.95C464.126 376.95 462.559 377.567 461.392 378.8C460.226 380 459.642 381.8 459.642 384.2V397.5H451.842V370.6H459.292V373.75C460.326 372.617 461.609 371.75 463.142 371.15C464.676 370.517 466.359 370.2 468.192 370.2ZM503.763 396.2C502.996 396.767 502.046 397.2 500.913 397.5C499.813 397.767 498.646 397.9 497.413 397.9C494.213 397.9 491.729 397.083 489.963 395.45C488.229 393.817 487.363 391.417 487.363 388.25V377.2H483.213V371.2H487.363V364.65H495.163V371.2H501.863V377.2H495.163V388.15C495.163 389.283 495.446 390.167 496.012 390.8C496.613 391.4 497.446 391.7 498.513 391.7C499.746 391.7 500.796 391.367 501.663 390.7L503.763 396.2ZM533.661 384.15C533.661 384.25 533.611 384.95 533.511 386.25H513.161C513.528 387.917 514.394 389.233 515.761 390.2C517.128 391.167 518.828 391.65 520.861 391.65C522.261 391.65 523.494 391.45 524.561 391.05C525.661 390.617 526.678 389.95 527.611 389.05L531.761 393.55C529.228 396.45 525.528 397.9 520.661 397.9C517.628 397.9 514.944 397.317 512.611 396.15C510.278 394.95 508.478 393.3 507.211 391.2C505.944 389.1 505.311 386.717 505.311 384.05C505.311 381.417 505.928 379.05 507.161 376.95C508.428 374.817 510.144 373.167 512.311 372C514.511 370.8 516.961 370.2 519.661 370.2C522.294 370.2 524.678 370.767 526.811 371.9C528.944 373.033 530.611 374.667 531.811 376.8C533.044 378.9 533.661 381.35 533.661 384.15ZM519.711 376.1C517.944 376.1 516.461 376.6 515.261 377.6C514.061 378.6 513.328 379.967 513.061 381.7H526.311C526.044 380 525.311 378.65 524.111 377.65C522.911 376.617 521.444 376.1 519.711 376.1ZM555.204 370.2C558.537 370.2 561.221 371.2 563.254 373.2C565.321 375.2 566.354 378.167 566.354 382.1V397.5H558.554V383.3C558.554 381.167 558.087 379.583 557.154 378.55C556.221 377.483 554.871 376.95 553.104 376.95C551.137 376.95 549.571 377.567 548.404 378.8C547.237 380 546.654 381.8 546.654 384.2V397.5H538.854V370.6H546.304V373.75C547.337 372.617 548.621 371.75 550.154 371.15C551.687 370.517 553.371 370.2 555.204 370.2ZM590.774 396.2C590.008 396.767 589.058 397.2 587.924 397.5C586.824 397.767 585.658 397.9 584.424 397.9C581.224 397.9 578.741 397.083 576.974 395.45C575.241 393.817 574.374 391.417 574.374 388.25V377.2H570.224V371.2H574.374V364.65H582.174V371.2H588.874V377.2H582.174V388.15C582.174 389.283 582.458 390.167 583.024 390.8C583.624 391.4 584.458 391.7 585.524 391.7C586.758 391.7 587.808 391.367 588.674 390.7L590.774 396.2Z" fill="#2F2E44"/>
<path d="M92.97 71.49C92.97 71.55 92.94 71.97 92.88 72.75H80.67C80.89 73.75 81.41 74.54 82.23 75.12C83.05 75.7 84.07 75.99 85.29 75.99C86.13 75.99 86.87 75.87 87.51 75.63C88.17 75.37 88.78 74.97 89.34 74.43L91.83 77.13C90.31 78.87 88.09 79.74 85.17 79.74C83.35 79.74 81.74 79.39 80.34 78.69C78.94 77.97 77.86 76.98 77.1 75.72C76.34 74.46 75.96 73.03 75.96 71.43C75.96 69.85 76.33 68.43 77.07 67.17C77.83 65.89 78.86 64.9 80.16 64.2C81.48 63.48 82.95 63.12 84.57 63.12C86.15 63.12 87.58 63.46 88.86 64.14C90.14 64.82 91.14 65.8 91.86 67.08C92.6 68.34 92.97 69.81 92.97 71.49ZM84.6 66.66C83.54 66.66 82.65 66.96 81.93 67.56C81.21 68.16 80.77 68.98 80.61 70.02H88.56C88.4 69 87.96 68.19 87.24 67.59C86.52 66.97 85.64 66.66 84.6 66.66ZM106.196 63.12C108.196 63.12 109.806 63.72 111.026 64.92C112.266 66.12 112.886 67.9 112.886 70.26V79.5H108.206V70.98C108.206 69.7 107.926 68.75 107.366 68.13C106.806 67.49 105.996 67.17 104.936 67.17C103.756 67.17 102.816 67.54 102.116 68.28C101.416 69 101.066 70.08 101.066 71.52V79.5H96.3858V63.36H100.856V65.25C101.476 64.57 102.246 64.05 103.166 63.69C104.086 63.31 105.096 63.12 106.196 63.12ZM134.254 63.36V76.8C134.254 79.76 133.484 81.96 131.944 83.4C130.404 84.84 128.154 85.56 125.194 85.56C123.634 85.56 122.154 85.37 120.754 84.99C119.354 84.61 118.194 84.06 117.274 83.34L119.134 79.98C119.814 80.54 120.674 80.98 121.714 81.3C122.754 81.64 123.794 81.81 124.834 81.81C126.454 81.81 127.644 81.44 128.404 80.7C129.184 79.98 129.574 78.88 129.574 77.4V76.71C128.354 78.05 126.654 78.72 124.474 78.72C122.994 78.72 121.634 78.4 120.394 77.76C119.174 77.1 118.204 76.18 117.484 75C116.764 73.82 116.404 72.46 116.404 70.92C116.404 69.38 116.764 68.02 117.484 66.84C118.204 65.66 119.174 64.75 120.394 64.11C121.634 63.45 122.994 63.12 124.474 63.12C126.814 63.12 128.594 63.89 129.814 65.43V63.36H134.254ZM125.404 74.88C126.644 74.88 127.654 74.52 128.434 73.8C129.234 73.06 129.634 72.1 129.634 70.92C129.634 69.74 129.234 68.79 128.434 68.07C127.654 67.33 126.644 66.96 125.404 66.96C124.164 66.96 123.144 67.33 122.344 68.07C121.544 68.79 121.144 69.74 121.144 70.92C121.144 72.1 121.544 73.06 122.344 73.8C123.144 74.52 124.164 74.88 125.404 74.88ZM138.91 57.24H143.59V79.5H138.91V57.24ZM148.233 63.36H152.913V79.5H148.233V63.36ZM150.573 61.11C149.713 61.11 149.013 60.86 148.473 60.36C147.933 59.86 147.663 59.24 147.663 58.5C147.663 57.76 147.933 57.14 148.473 56.64C149.013 56.14 149.713 55.89 150.573 55.89C151.433 55.89 152.133 56.13 152.673 56.61C153.213 57.09 153.483 57.69 153.483 58.41C153.483 59.19 153.213 59.84 152.673 60.36C152.133 60.86 151.433 61.11 150.573 61.11ZM162.986 79.74C161.646 79.74 160.336 79.58 159.056 79.26C157.776 78.92 156.756 78.5 155.996 78L157.556 74.64C158.276 75.1 159.146 75.48 160.166 75.78C161.186 76.06 162.186 76.2 163.166 76.2C165.146 76.2 166.136 75.71 166.136 74.73C166.136 74.27 165.866 73.94 165.326 73.74C164.786 73.54 163.956 73.37 162.836 73.23C161.516 73.03 160.426 72.8 159.566 72.54C158.706 72.28 157.956 71.82 157.316 71.16C156.696 70.5 156.386 69.56 156.386 68.34C156.386 67.32 156.676 66.42 157.256 65.64C157.856 64.84 158.716 64.22 159.836 63.78C160.976 63.34 162.316 63.12 163.856 63.12C164.996 63.12 166.126 63.25 167.246 63.51C168.386 63.75 169.326 64.09 170.066 64.53L168.506 67.86C167.086 67.06 165.536 66.66 163.856 66.66C162.856 66.66 162.106 66.8 161.606 67.08C161.106 67.36 160.856 67.72 160.856 68.16C160.856 68.66 161.126 69.01 161.666 69.21C162.206 69.41 163.066 69.6 164.246 69.78C165.566 70 166.646 70.24 167.486 70.5C168.326 70.74 169.056 71.19 169.676 71.85C170.296 72.51 170.606 73.43 170.606 74.61C170.606 75.61 170.306 76.5 169.706 77.28C169.106 78.06 168.226 78.67 167.066 79.11C165.926 79.53 164.566 79.74 162.986 79.74ZM183.604 63.12C185.604 63.12 187.214 63.72 188.434 64.92C189.674 66.12 190.294 67.9 190.294 70.26V79.5H185.614V70.98C185.614 69.7 185.334 68.75 184.774 68.13C184.214 67.49 183.404 67.17 182.344 67.17C181.164 67.17 180.224 67.54 179.524 68.28C178.824 69 178.474 70.08 178.474 71.52V79.5H173.794V57.24H178.474V65.04C179.094 64.42 179.844 63.95 180.724 63.63C181.604 63.29 182.564 63.12 183.604 63.12ZM204.646 63.12C206.646 63.12 208.256 63.72 209.476 64.92C210.716 66.12 211.336 67.9 211.336 70.26V79.5H206.656V70.98C206.656 69.7 206.376 68.75 205.816 68.13C205.256 67.49 204.446 67.17 203.386 67.17C202.206 67.17 201.266 67.54 200.566 68.28C199.866 69 199.516 70.08 199.516 71.52V79.5H194.836V63.36H199.306V65.25C199.926 64.57 200.696 64.05 201.616 63.69C202.536 63.31 203.546 63.12 204.646 63.12ZM231.864 71.49C231.864 71.55 231.834 71.97 231.774 72.75H219.564C219.784 73.75 220.304 74.54 221.124 75.12C221.944 75.7 222.964 75.99 224.184 75.99C225.024 75.99 225.764 75.87 226.404 75.63C227.064 75.37 227.674 74.97 228.234 74.43L230.724 77.13C229.204 78.87 226.984 79.74 224.064 79.74C222.244 79.74 220.634 79.39 219.234 78.69C217.834 77.97 216.754 76.98 215.994 75.72C215.234 74.46 214.854 73.03 214.854 71.43C214.854 69.85 215.224 68.43 215.964 67.17C216.724 65.89 217.754 64.9 219.054 64.2C220.374 63.48 221.844 63.12 223.464 63.12C225.044 63.12 226.474 63.46 227.754 64.14C229.034 64.82 230.034 65.8 230.754 67.08C231.494 68.34 231.864 69.81 231.864 71.49ZM223.494 66.66C222.434 66.66 221.544 66.96 220.824 67.56C220.104 68.16 219.664 68.98 219.504 70.02H227.454C227.294 69 226.854 68.19 226.134 67.59C225.414 66.97 224.534 66.66 223.494 66.66ZM239.75 65.49C240.31 64.71 241.06 64.12 242 63.72C242.96 63.32 244.06 63.12 245.3 63.12V67.44C244.78 67.4 244.43 67.38 244.25 67.38C242.91 67.38 241.86 67.76 241.1 68.52C240.34 69.26 239.96 70.38 239.96 71.88V79.5H235.28V63.36H239.75V65.49ZM264.676 57.24V79.5H260.206V77.64C259.046 79.04 257.366 79.74 255.166 79.74C253.646 79.74 252.266 79.4 251.026 78.72C249.806 78.04 248.846 77.07 248.146 75.81C247.446 74.55 247.096 73.09 247.096 71.43C247.096 69.77 247.446 68.31 248.146 67.05C248.846 65.79 249.806 64.82 251.026 64.14C252.266 63.46 253.646 63.12 255.166 63.12C257.226 63.12 258.836 63.77 259.996 65.07V57.24H264.676ZM255.976 75.9C257.156 75.9 258.136 75.5 258.916 74.7C259.696 73.88 260.086 72.79 260.086 71.43C260.086 70.07 259.696 68.99 258.916 68.19C258.136 67.37 257.156 66.96 255.976 66.96C254.776 66.96 253.786 67.37 253.006 68.19C252.226 68.99 251.836 70.07 251.836 71.43C251.836 72.79 252.226 73.88 253.006 74.7C253.786 75.5 254.776 75.9 255.976 75.9ZM271.078 79.74C270.258 79.74 269.568 79.46 269.008 78.9C268.448 78.34 268.168 77.64 268.168 76.8C268.168 75.94 268.448 75.25 269.008 74.73C269.568 74.19 270.258 73.92 271.078 73.92C271.898 73.92 272.588 74.19 273.148 74.73C273.708 75.25 273.988 75.94 273.988 76.8C273.988 77.64 273.708 78.34 273.148 78.9C272.588 79.46 271.898 79.74 271.078 79.74ZM284.934 79.74C283.234 79.74 281.704 79.39 280.344 78.69C279.004 77.97 277.954 76.98 277.194 75.72C276.434 74.46 276.054 73.03 276.054 71.43C276.054 69.83 276.434 68.4 277.194 67.14C277.954 65.88 279.004 64.9 280.344 64.2C281.704 63.48 283.234 63.12 284.934 63.12C286.634 63.12 288.154 63.48 289.494 64.2C290.834 64.9 291.884 65.88 292.644 67.14C293.404 68.4 293.784 69.83 293.784 71.43C293.784 73.03 293.404 74.46 292.644 75.72C291.884 76.98 290.834 77.97 289.494 78.69C288.154 79.39 286.634 79.74 284.934 79.74ZM284.934 75.9C286.134 75.9 287.114 75.5 287.874 74.7C288.654 73.88 289.044 72.79 289.044 71.43C289.044 70.07 288.654 68.99 287.874 68.19C287.114 67.37 286.134 66.96 284.934 66.96C283.734 66.96 282.744 67.37 281.964 68.19C281.184 68.99 280.794 70.07 280.794 71.43C280.794 72.79 281.184 73.88 281.964 74.7C282.744 75.5 283.734 75.9 284.934 75.9ZM301.682 65.49C302.242 64.71 302.992 64.12 303.932 63.72C304.892 63.32 305.992 63.12 307.232 63.12V67.44C306.712 67.4 306.362 67.38 306.182 67.38C304.842 67.38 303.792 67.76 303.032 68.52C302.272 69.26 301.892 70.38 301.892 71.88V79.5H297.212V63.36H301.682V65.49ZM326.819 63.36V76.8C326.819 79.76 326.049 81.96 324.509 83.4C322.969 84.84 320.719 85.56 317.759 85.56C316.199 85.56 314.719 85.37 313.319 84.99C311.919 84.61 310.759 84.06 309.839 83.34L311.699 79.98C312.379 80.54 313.239 80.98 314.279 81.3C315.319 81.64 316.359 81.81 317.399 81.81C319.019 81.81 320.209 81.44 320.969 80.7C321.749 79.98 322.139 78.88 322.139 77.4V76.71C320.919 78.05 319.219 78.72 317.039 78.72C315.559 78.72 314.199 78.4 312.959 77.76C311.739 77.1 310.769 76.18 310.049 75C309.329 73.82 308.969 72.46 308.969 70.92C308.969 69.38 309.329 68.02 310.049 66.84C310.769 65.66 311.739 64.75 312.959 64.11C314.199 63.45 315.559 63.12 317.039 63.12C319.379 63.12 321.159 63.89 322.379 65.43V63.36H326.819ZM317.969 74.88C319.209 74.88 320.219 74.52 320.999 73.8C321.799 73.06 322.199 72.1 322.199 70.92C322.199 69.74 321.799 68.79 320.999 68.07C320.219 67.33 319.209 66.96 317.969 66.96C316.729 66.96 315.709 67.33 314.909 68.07C314.109 68.79 313.709 69.74 313.709 70.92C313.709 72.1 314.109 73.06 314.909 73.8C315.709 74.52 316.729 74.88 317.969 74.88Z" fill="#848499"/>
<circle cx="1004.32" cy="232.5" r="362.5" transform="rotate(-45 1004.32 232.5)" fill="#FF8BA4"/>
<path d="M645.447 181.216L1055.61 591.375C946.583 606.87 831.857 572.686 747.996 488.826C664.136 404.965 629.952 290.239 645.447 181.216Z" fill="#FF99B0"/>
<path d="M645.447 181.216C652.865 129.021 671.669 78.1339 701.858 32.5662L1204.26 534.964C1158.69 565.154 1107.8 583.957 1055.61 591.375L645.447 181.216Z" fill="#FF8CA6"/>
<path d="M804.389 -69.9636L1306.79 432.434C1293.58 452.361 1278.21 471.27 1260.65 488.827C1243.09 506.383 1224.18 521.762 1204.26 534.964L701.858 32.5669C715.06 12.6402 730.44 -6.26919 747.996 -23.8258C765.553 -41.3824 784.462 -56.7616 804.389 -69.9636Z" fill="#FF809C"/>
<path d="M953.038 -126.375L1363.2 283.784C1355.78 335.979 1336.98 386.866 1306.79 432.434L804.389 -69.9639C849.957 -100.154 900.844 -118.957 953.038 -126.375Z" fill="#FF7392"/>
<path d="M1363.2 283.784C1378.69 174.761 1344.51 60.0349 1260.65 -23.8257C1176.79 -107.686 1062.06 -141.869 953.038 -126.375L1363.2 283.784Z" fill="#FF6688"/>
<circle cx="1004.32" cy="232.5" r="362.5" transform="rotate(-45 1004.32 232.5)" fill="url(#paint0_linear)"/>
<g filter="url(#filter0_d)">
<path d="M1061.02 419.484L1058.22 427.514C1058.22 427.514 1040.7 446.918 1053.31 449.594C1065.92 452.27 1067.33 428.852 1067.33 428.852L1070.83 422.161L1061.02 419.484Z" fill="#FFB8B8"/>
<path d="M1080.64 322.465C1080.64 322.465 1076.44 321.796 1075.03 337.854C1073.63 353.913 1072.93 382.015 1072.93 382.015L1056.82 421.492L1077.14 427.514L1086.95 382.684L1080.64 322.465Z" fill="#575A89"/>
<path d="M1071.53 561.334L1069.43 574.047H1088.35L1087.65 561.334H1071.53Z" fill="#FFB8B8"/>
<path d="M1132.49 575.385L1131.09 592.782L1143.7 594.12V574.047L1132.49 575.385Z" fill="#FFB8B8"/>
<path d="M1079.24 395.397L1063.12 483.718L1067.33 564.01H1089.05V491.078L1110.07 453.608L1126.89 500.445L1131.09 578.73L1154.92 574.716L1149.31 498.438C1149.31 498.438 1145.11 396.735 1140.9 395.397C1136.7 394.058 1079.24 395.397 1079.24 395.397Z" fill="#333244"/>
<path d="M1073.63 570.032C1073.63 570.032 1073.63 563.341 1068.03 567.356C1062.42 571.371 1055.41 578.731 1055.41 578.731C1055.41 578.731 1028.79 592.782 1047.71 594.789C1066.63 596.796 1078.54 585.422 1078.54 585.422L1080.64 587.429C1080.64 587.429 1091.85 585.422 1091.85 582.745C1091.77 580.503 1091.54 578.268 1091.15 576.054C1091.15 576.054 1089.68 564.705 1087.96 567.034C1086.25 569.363 1076.44 574.047 1073.63 570.032Z" fill="#333244"/>
<path d="M1144.4 588.767C1144.4 588.767 1131.79 582.745 1128.99 588.098C1126.19 593.451 1124.08 604.156 1124.08 604.156C1124.08 604.156 1114.97 620.884 1131.09 619.546C1147.21 618.208 1146.51 609.509 1146.51 607.502C1146.51 605.495 1145.81 600.811 1146.51 598.804C1147.21 596.796 1144.4 588.767 1144.4 588.767Z" fill="#333244"/>
<path d="M1116.73 296.035C1127.56 296.035 1136.35 287.647 1136.35 277.3C1136.35 266.953 1127.56 258.565 1116.73 258.565C1105.89 258.565 1097.11 266.953 1097.11 277.3C1097.11 287.647 1105.89 296.035 1116.73 296.035Z" fill="#FFB8B8"/>
<path d="M1103.76 286.333L1103.06 310.421L1128.29 308.413V286.333H1103.76Z" fill="#FFB8B8"/>
<path d="M1129.69 296.37C1129.69 296.37 1117.78 303.73 1114.27 305.068C1110.77 306.407 1103.06 299.716 1103.06 299.716C1103.06 299.716 1100.96 301.054 1100.96 302.392C1100.96 303.73 1099.56 309.083 1099.56 309.083L1082.74 361.942L1084.14 399.412C1084.14 399.412 1135.3 404.095 1140.9 398.073C1146.51 392.052 1138.1 305.738 1138.1 305.738L1129.69 296.37Z" fill="#E6E6E6"/>
<path d="M1175.94 455.616C1168.23 460.3 1143 466.322 1143 466.322C1143 466.322 1140.25 409.682 1130.39 400.75C1120.59 391.858 1104.58 327.751 1118.98 316.604C1119.04 316.546 1119.11 316.493 1119.18 316.443L1128.29 296.37C1128.29 296.37 1129.69 294.363 1132.49 297.039C1134.76 299.359 1136.87 301.818 1138.8 304.399L1139.2 304.553L1158.42 311.759L1150.71 344.545C1150.71 344.545 1183.64 450.933 1175.94 455.616Z" fill="#575A89"/>
<path opacity="0.1" d="M1139.2 304.553L1133.89 323.134L1118.98 316.604C1119.04 316.546 1119.11 316.493 1119.18 316.443L1128.29 296.37C1128.29 296.37 1129.69 294.363 1132.49 297.039C1134.76 299.359 1136.87 301.818 1138.8 304.399L1139.2 304.553Z" fill="black"/>
<path d="M1102.71 299.381L1100.61 322.13L1100.5 323.167L1084.49 468.664C1084.49 468.664 1070.48 463.98 1065.57 458.627C1060.67 453.274 1076.79 393.724 1076.79 393.724L1078.19 318.785C1078.19 318.785 1090.62 310.428 1095.7 305.838C1096.89 304.767 1097.67 303.904 1097.81 303.395C1098.51 300.719 1102.71 299.381 1102.71 299.381Z" fill="#575A89"/>
<path opacity="0.1" d="M1102.71 299.381L1100.61 322.13L1100.5 323.167L1090.45 321.796L1095.7 305.838C1096.89 304.767 1097.67 303.904 1097.81 303.395C1098.51 300.719 1102.71 299.381 1102.71 299.381Z" fill="black"/>
<path d="M1140.2 412.124L1132.49 418.815C1132.49 418.815 1136 432.866 1140.2 433.535C1140.2 433.535 1143 429.521 1143.7 426.175C1144.4 422.83 1150.71 419.484 1150.71 419.484L1140.2 412.124Z" fill="#FFB8B8"/>
<path d="M1149.31 310.421L1158.42 311.759C1158.42 311.759 1188.55 360.603 1185.05 378C1181.54 395.397 1153.51 425.506 1153.51 425.506L1136 412.124L1161.92 378.669L1148.61 338.523L1149.31 310.421Z" fill="#575A89"/>
<path d="M1097.06 279.405C1097.06 279.405 1097.06 262.883 1101.27 259.128H1106.31C1106.31 259.128 1112.2 250.867 1119.77 253.871C1127.34 256.875 1139.95 262.132 1139.11 270.393C1138.27 278.654 1135.65 283.992 1135.65 283.992C1135.65 283.992 1134.24 283.992 1131.12 279.501C1126.95 273.499 1136.59 275.37 1123.97 273.117C1111.36 270.864 1103.79 267.86 1102.11 270.864C1100.43 273.868 1097.06 279.405 1097.06 279.405Z" fill="#2F2E41"/>
<path d="M1106.23 260.248C1106.23 260.248 1106.9 255.42 1109.67 254.38L1106.23 260.248Z" fill="#2F2E41"/>
<path d="M1106.22 261.242C1106.22 261.242 1104.81 256.559 1106.91 254.551L1106.22 261.242Z" fill="#2F2E41"/>
<path d="M1023.49 220H642.181C636.659 220 632.181 224.477 632.181 230V453.606C632.181 459.129 636.659 463.606 642.181 463.606H1023.49C1029.01 463.606 1033.49 459.129 1033.49 453.606V230C1033.49 224.477 1029.01 220 1023.49 220Z" fill="#EBEEF2"/>
<path d="M1033.49 238.739V232.046H1021.15V220H1015.79V232.046H649.886V220H644.521V232.046H632.181V238.739H644.521V444.868H632.181V451.56H644.521V463.606H649.886V451.56H1015.79V463.606H1021.15V451.56H1033.49V444.868H1021.15V238.739H1033.49ZM1015.79 444.868H649.886V238.739H1015.79L1015.79 444.868Z" fill="#D0D4D9"/>
<path d="M941.489 252.117H868.846C866.085 252.117 863.846 254.356 863.846 257.117V322.183C863.846 324.945 866.085 327.183 868.846 327.183H941.489C944.25 327.183 946.489 324.945 946.489 322.183V257.117C946.489 254.356 944.25 252.117 941.489 252.117Z" fill="#C2C6CC"/>
<path d="M934.597 261.085H875.737C874.356 261.085 873.237 262.204 873.237 263.585V305.216C873.237 306.597 874.356 307.716 875.737 307.716H934.597C935.978 307.716 937.097 306.597 937.097 305.216V263.585C937.097 262.204 935.978 261.085 934.597 261.085Z" fill="#6C63FF"/>
<path d="M907.177 268.748H889.79C888.409 268.748 887.29 269.867 887.29 271.248V287.626C887.29 289.007 888.409 290.126 889.79 290.126H907.177C908.558 290.126 909.677 289.007 909.677 287.626V271.248C909.677 269.867 908.558 268.748 907.177 268.748Z" fill="#F2F2F2"/>
<path d="M898.36 274.094C896.979 274.094 895.86 275.213 895.86 276.594V297.553C895.86 298.933 896.979 300.053 898.36 300.053H920.545C921.926 300.053 923.045 298.933 923.045 297.553V276.594C923.045 275.213 921.926 274.094 920.545 274.094H898.36ZM921.866 296.427C921.866 297.807 920.747 298.927 919.366 298.927H899.539C898.158 298.927 897.039 297.807 897.039 296.427V277.72C897.039 276.339 898.158 275.22 899.539 275.22H919.366C920.747 275.22 921.866 276.339 921.866 277.72V296.427Z" fill="#3F3D56"/>
<path d="M907.037 312.345H874.047C873.565 312.345 873.174 312.736 873.174 313.218C873.174 313.7 873.565 314.09 874.047 314.09H907.037C907.519 314.09 907.91 313.7 907.91 313.218C907.91 312.736 907.519 312.345 907.037 312.345Z" fill="#F2F2F2"/>
<path d="M905.167 259.972C907.187 259.972 908.824 258.409 908.824 256.481C908.824 254.552 907.187 252.989 905.167 252.989C903.148 252.989 901.511 254.552 901.511 256.481C901.511 258.409 903.148 259.972 905.167 259.972Z" fill="#3F3D56"/>
<path d="M972.657 360.385H900.015C897.253 360.385 895.015 362.623 895.015 365.385V430.451C895.015 433.212 897.253 435.451 900.015 435.451H972.657C975.419 435.451 977.657 433.212 977.657 430.451V365.385C977.657 362.623 975.419 360.385 972.657 360.385Z" fill="#C2C6CC"/>
<path d="M965.766 369.352H906.906C905.525 369.352 904.406 370.471 904.406 371.852V413.483C904.406 414.864 905.525 415.983 906.906 415.983H965.766C967.147 415.983 968.266 414.864 968.266 413.483V371.852C968.266 370.471 967.147 369.352 965.766 369.352Z" fill="#6C63FF"/>
<path d="M938.205 421.484H905.215C904.733 421.484 904.343 421.875 904.343 422.357C904.343 422.839 904.733 423.23 905.215 423.23H938.205C938.687 423.23 939.078 422.839 939.078 422.357C939.078 421.875 938.687 421.484 938.205 421.484Z" fill="#F2F2F2"/>
<path d="M938.205 426.723H905.215C904.733 426.723 904.343 427.113 904.343 427.596C904.343 428.078 904.733 428.468 905.215 428.468H938.205C938.687 428.468 939.078 428.078 939.078 427.596C939.078 427.113 938.687 426.723 938.205 426.723Z" fill="#F2F2F2"/>
<path d="M915.769 399.663C919.807 399.663 923.081 396.537 923.081 392.68C923.081 388.824 919.807 385.697 915.769 385.697C911.73 385.697 908.456 388.824 908.456 392.68C908.456 396.537 911.73 399.663 915.769 399.663Z" fill="#3F3D56"/>
<path d="M936.336 399.663C940.375 399.663 943.649 396.537 943.649 392.68C943.649 388.824 940.375 385.697 936.336 385.697C932.297 385.697 929.023 388.824 929.023 392.68C929.023 396.537 932.297 399.663 936.336 399.663Z" fill="#F2F2F2"/>
<path d="M956.903 399.663C960.942 399.663 964.216 396.537 964.216 392.68C964.216 388.824 960.942 385.697 956.903 385.697C952.864 385.697 949.59 388.824 949.59 392.68C949.59 396.537 952.864 399.663 956.903 399.663Z" fill="#FF6584"/>
<path d="M936.336 368.241C938.355 368.241 939.992 366.678 939.992 364.749C939.992 362.821 938.355 361.258 936.336 361.258C934.316 361.258 932.679 362.821 932.679 364.749C932.679 366.678 934.316 368.241 936.336 368.241Z" fill="#3F3D56"/>
<path d="M846.178 336.93H773.535C770.774 336.93 768.535 339.168 768.535 341.93V406.996C768.535 409.757 770.774 411.996 773.535 411.996H846.178C848.939 411.996 851.178 409.757 851.178 406.996V341.93C851.178 339.168 848.939 336.93 846.178 336.93Z" fill="#C2C6CC"/>
<path d="M839.286 345.897H780.426C779.046 345.897 777.926 347.017 777.926 348.397V390.029C777.926 391.41 779.046 392.529 780.426 392.529H839.286C840.667 392.529 841.786 391.41 841.786 390.029V348.397C841.786 347.017 840.667 345.897 839.286 345.897Z" fill="#6C63FF"/>
<path d="M805.604 389.468C814.167 389.468 821.108 382.84 821.108 374.663C821.108 366.487 814.167 359.858 805.604 359.858C797.041 359.858 790.1 366.487 790.1 374.663C790.1 382.84 797.041 389.468 805.604 389.468Z" fill="#F2F2F2"/>
<path d="M810.174 386.083C806.329 386.083 802.571 384.994 799.374 382.955C796.178 380.915 793.686 378.016 792.215 374.624C790.744 371.232 790.359 367.5 791.109 363.9C791.859 360.299 793.71 356.992 796.429 354.396C799.147 351.8 802.611 350.032 806.382 349.316C810.152 348.599 814.061 348.967 817.613 350.372C821.165 351.777 824.201 354.156 826.337 357.208C828.473 360.261 829.613 363.85 829.613 367.521C829.607 372.442 827.557 377.16 823.913 380.64C820.269 384.12 815.328 386.077 810.174 386.083ZM810.174 349.634C806.469 349.634 802.847 350.683 799.767 352.648C796.687 354.614 794.286 357.407 792.868 360.676C791.45 363.944 791.079 367.541 791.802 371.01C792.525 374.48 794.309 377.667 796.928 380.169C799.548 382.67 802.886 384.374 806.52 385.064C810.153 385.754 813.92 385.4 817.342 384.046C820.765 382.692 823.691 380.4 825.749 377.458C827.807 374.517 828.906 371.059 828.906 367.521C828.9 362.779 826.925 358.232 823.413 354.879C819.902 351.526 815.14 349.639 810.174 349.634Z" fill="#3F3D56"/>
<path d="M811.726 402.395H778.736C778.254 402.395 777.863 402.785 777.863 403.267C777.863 403.749 778.254 404.14 778.736 404.14H811.726C812.208 404.14 812.598 403.749 812.598 403.267C812.598 402.785 812.208 402.395 811.726 402.395Z" fill="#F2F2F2"/>
<path d="M825.437 397.158H778.736C778.254 397.158 777.863 397.549 777.863 398.031C777.863 398.513 778.254 398.904 778.736 398.904H825.437C825.919 398.904 826.31 398.513 826.31 398.031C826.31 397.549 825.919 397.158 825.437 397.158Z" fill="#F2F2F2"/>
<path d="M809.856 344.786C811.876 344.786 813.513 343.222 813.513 341.294C813.513 339.366 811.876 337.803 809.856 337.803C807.837 337.803 806.2 339.366 806.2 341.294C806.2 343.222 807.837 344.786 809.856 344.786Z" fill="#3F3D56"/>
<path d="M755.345 250.778H682.702C679.941 250.778 677.702 253.017 677.702 255.778V320.844C677.702 323.606 679.941 325.844 682.702 325.844H755.345C758.106 325.844 760.345 323.606 760.345 320.844V255.778C760.345 253.017 758.106 250.778 755.345 250.778Z" fill="#C2C6CC"/>
<path d="M748.454 259.746H689.593C688.213 259.746 687.093 260.865 687.093 262.246V303.877C687.093 305.258 688.213 306.377 689.593 306.377H748.454C749.834 306.377 750.954 305.258 750.954 303.877V262.246C750.954 260.865 749.834 259.746 748.454 259.746Z" fill="#6C63FF"/>
<path d="M723.949 296.252H714.098C713.024 296.252 712.154 297.122 712.154 298.196C712.154 299.269 713.024 300.139 714.098 300.139H723.949C725.022 300.139 725.892 299.269 725.892 298.196C725.892 297.122 725.022 296.252 723.949 296.252Z" fill="#3F3D56"/>
<path d="M741.668 265.984H696.379C695.918 265.984 695.545 266.357 695.545 266.817C695.545 267.277 695.918 267.65 696.379 267.65H741.668C742.128 267.65 742.501 267.277 742.501 266.817C742.501 266.357 742.128 265.984 741.668 265.984Z" fill="#3F3D56"/>
<path d="M741.668 271.261H696.379C695.918 271.261 695.545 271.634 695.545 272.094C695.545 272.554 695.918 272.927 696.379 272.927H741.668C742.128 272.927 742.501 272.554 742.501 272.094C742.501 271.634 742.128 271.261 741.668 271.261Z" fill="#3F3D56"/>
<path d="M741.668 276.536H696.379C695.918 276.536 695.545 276.909 695.545 277.369C695.545 277.829 695.918 278.202 696.379 278.202H741.668C742.128 278.202 742.501 277.829 742.501 277.369C742.501 276.909 742.128 276.536 741.668 276.536Z" fill="#3F3D56"/>
<path d="M741.668 281.812H696.379C695.918 281.812 695.545 282.185 695.545 282.646C695.545 283.106 695.918 283.479 696.379 283.479H741.668C742.128 283.479 742.501 283.106 742.501 282.646C742.501 282.185 742.128 281.812 741.668 281.812Z" fill="#3F3D56"/>
<path d="M741.668 287.088H696.379C695.918 287.088 695.545 287.461 695.545 287.921C695.545 288.381 695.918 288.754 696.379 288.754H741.668C742.128 288.754 742.501 288.381 742.501 287.921C742.501 287.461 742.128 287.088 741.668 287.088Z" fill="#3F3D56"/>
<path d="M720.893 311.006H687.903C687.421 311.006 687.03 311.397 687.03 311.879C687.03 312.361 687.421 312.752 687.903 312.752H720.893C721.375 312.752 721.766 312.361 721.766 311.879C721.766 311.397 721.375 311.006 720.893 311.006Z" fill="#F2F2F2"/>
<path d="M734.604 315.37H687.903C687.421 315.37 687.03 315.761 687.03 316.243C687.03 316.725 687.421 317.116 687.903 317.116H734.604C735.086 317.116 735.477 316.725 735.477 316.243C735.477 315.761 735.086 315.37 734.604 315.37Z" fill="#F2F2F2"/>
<path d="M719.023 258.634C721.043 258.634 722.68 257.071 722.68 255.143C722.68 253.215 721.043 251.651 719.023 251.651C717.004 251.651 715.367 253.215 715.367 255.143C715.367 257.071 717.004 258.634 719.023 258.634Z" fill="#3F3D56"/>
<path fill-rule="evenodd" clip-rule="evenodd" d="M643.765 220H641.425C635.902 220 631.425 224.477 631.425 230V232.046V238.739V444.868V451.56V453.606C631.425 459.129 635.902 463.606 641.425 463.606H643.765H649.13H1015.03H1020.4H1022.74C1028.26 463.606 1032.74 459.129 1032.74 453.606V451.56V444.868V238.739V232.046V230C1032.74 224.477 1028.26 220 1022.74 220H1020.4H1015.03H649.13H643.765ZM1097.34 274.823C1097.3 276.101 1097.3 276.895 1097.3 276.895L1097.44 276.662C1097.93 281.442 1100.31 285.694 1103.85 288.732L1103.6 297.462C1103.4 297.299 1103.3 297.206 1103.3 297.206C1103.3 297.206 1103.13 297.312 1102.89 297.495L1102.95 296.871C1102.95 296.871 1102.68 296.954 1102.28 297.122C1101.06 297.624 1098.57 298.878 1098.04 300.885C1097.91 301.394 1097.12 302.257 1095.93 303.328C1090.85 307.918 1078.42 316.275 1078.42 316.275L1078.31 322.086C1077.16 324.08 1075.92 327.928 1075.27 335.344C1073.87 351.403 1073.17 379.505 1073.17 379.505L1057.05 418.982L1060.22 419.923L1058.45 425.004C1058.45 425.004 1040.93 444.407 1053.55 447.084C1066.16 449.76 1067.56 426.342 1067.56 426.342L1069.26 423.09C1065.99 438.197 1063.43 453.523 1065.81 456.117C1066.32 456.68 1066.94 457.235 1067.63 457.779L1063.36 481.208L1067.56 561.5H1071.32L1070.98 563.585C1070.26 563.675 1069.37 564.05 1068.26 564.846C1062.66 568.86 1055.65 576.221 1055.65 576.221C1055.65 576.221 1029.02 590.272 1047.94 592.279C1066.86 594.286 1078.77 582.912 1078.77 582.912L1080.87 584.919C1080.87 584.919 1092.09 582.912 1092.09 580.235C1092 577.993 1091.77 575.758 1091.38 573.544C1091.38 573.544 1089.91 562.196 1088.2 564.524L1088.03 561.5H1089.28V488.568L1110.3 451.099L1127.12 497.936L1131.33 576.22L1132.47 576.027L1131.86 583.613C1130.71 583.916 1129.78 584.53 1129.22 585.588C1126.42 590.941 1124.32 601.646 1124.32 601.646C1124.32 601.646 1115.21 618.374 1131.33 617.036C1146.86 615.746 1146.77 607.616 1146.74 605.234L1146.74 605.226C1146.74 605.14 1146.74 605.062 1146.74 604.992C1146.74 604.4 1146.68 603.576 1146.61 602.657C1146.45 600.456 1146.25 597.709 1146.74 596.293C1147.44 594.286 1144.64 586.257 1144.64 586.257C1144.64 586.257 1144.38 586.135 1143.94 585.942V574.095L1155.15 572.206L1149.54 495.928C1149.54 495.928 1148.93 481.068 1147.94 462.633C1155.61 460.649 1170.55 456.521 1176.17 453.106C1179.59 451.026 1175 428.895 1168.84 404.928C1176.09 395.388 1183.58 383.94 1185.28 375.49C1188.77 358.149 1158.84 309.561 1158.65 309.25L1158.65 309.249L1139.43 302.043L1139.03 301.889C1137.34 299.63 1135.52 297.465 1133.57 295.405C1133.29 295.111 1133.01 294.819 1132.73 294.529C1130.62 292.521 1129.31 293.149 1128.78 293.588C1128.61 293.734 1128.52 293.86 1128.52 293.86L1128.52 293.86V289.928C1131.61 287.774 1134.01 284.779 1135.36 281.296C1135.71 281.481 1135.88 281.481 1135.88 281.481C1135.88 281.481 1138.5 276.144 1139.34 267.883C1140.18 259.622 1127.57 254.365 1120 251.361C1114.88 249.328 1110.53 252.451 1108.25 254.685L1109.9 251.87C1108.11 252.544 1107.2 254.806 1106.78 256.317C1106.74 256.356 1106.72 256.392 1106.69 256.424L1107.15 252.041C1105.98 253.16 1105.9 255.11 1106.05 256.618H1101.5C1098.57 259.238 1097.68 268.073 1097.41 273.175C1097.36 273.708 1097.34 274.246 1097.34 274.79L1097.34 274.823ZM1162.16 376.159L1161.32 377.233C1157.49 363.683 1153.98 352.011 1152.19 346.12L1162.16 376.159Z" fill="url(#paint1_linear)"/>
</g>
</g>
<defs>
<filter id="filter0_d" x="611" y="180" width="615" height="460" filterUnits="userSpaceOnUse" color-interpolation-filters="sRGB">
<feFlood flood-opacity="0" result="BackgroundImageFix"/>
<feColorMatrix in="SourceAlpha" type="matrix" values="0 0 0 0 0 0 0 0 0 0 0 0 0 0 0 0 0 0 127 0"/>
<feOffset dx="10" dy="-10"/>
<feGaussianBlur stdDeviation="15"/>
<feColorMatrix type="matrix" values="0 0 0 0 0.517647 0 0 0 0 0.517647 0 0 0 0 0.6 0 0 0 0.05 0"/>
<feBlend mode="normal" in2="BackgroundImageFix" result="effect1_dropShadow"/>
<feBlend mode="normal" in="SourceGraphic" in2="effect1_dropShadow" result="shape"/>
</filter>
<linearGradient id="paint0_linear" x1="641.822" y1="-130" x2="1477.02" y2="430.924" gradientUnits="userSpaceOnUse">
<stop stop-color="white" stop-opacity="0.2"/>
<stop offset="1" stop-color="white" stop-opacity="0"/>
</linearGradient>
<linearGradient id="paint1_linear" x1="631.425" y1="617.112" x2="1146.86" y2="475.813" gradientUnits="userSpaceOnUse">
<stop stop-color="white" stop-opacity="0.2"/>
<stop offset="1" stop-color="white" stop-opacity="0"/>
</linearGradient>
<clipPath id="clip0">
<rect width="1236" height="695" fill="white" transform="translate(0 0.5)"/>
</clipPath>
</defs>
</svg>
