<svg width="695" height="926" viewBox="0 0 695 926" fill="none" xmlns="http://www.w3.org/2000/svg">
<g clip-path="url(#clip0)">
<rect width="926" height="695" transform="translate(0 926) rotate(-90)" fill="white"/>
<ellipse cx="540" cy="155" rx="325" ry="325" fill="#9E7DDF"/>
<path d="M540 480C719.493 480 865 334.493 865 155C865 81.5 840.601 13.6984 799.461 -40.7471L344.253 414.461C398.698 455.601 466.5 480 540 480Z" fill="#A685E2"/>
<path d="M242.125 285.188L523.113 4.2002L826.843 307.93C772.137 410.326 664.205 480 540 480C406.802 480 292.319 399.872 242.125 285.188Z" fill="#B397E6"/>
<path d="M225.054 74.4736L620.527 469.947C594.775 476.511 567.795 480 540 480C360.507 480 215 334.493 215 155C215 127.205 218.489 100.225 225.054 74.4736Z" fill="#C1AAEB"/>
<ellipse cx="540" cy="155" rx="325" ry="325" fill="url(#paint0_linear)"/>
<path d="M122.455 630.6H111.255V624H141.755V630.6H130.555V659H122.455V630.6ZM162.413 631.7C165.746 631.7 168.43 632.7 170.463 634.7C172.53 636.7 173.563 639.667 173.563 643.6V659H165.763V644.8C165.763 642.667 165.296 641.083 164.363 640.05C163.43 638.983 162.08 638.45 160.313 638.45C158.346 638.45 156.78 639.067 155.613 640.3C154.446 641.5 153.863 643.3 153.863 645.7V659H146.063V621.9H153.863V634.9C154.896 633.867 156.146 633.083 157.613 632.55C159.08 631.983 160.68 631.7 162.413 631.7ZM207.776 645.65C207.776 645.75 207.726 646.45 207.626 647.75H187.276C187.643 649.417 188.51 650.733 189.876 651.7C191.243 652.667 192.943 653.15 194.976 653.15C196.376 653.15 197.61 652.95 198.676 652.55C199.776 652.117 200.793 651.45 201.726 650.55L205.876 655.05C203.343 657.95 199.643 659.4 194.776 659.4C191.743 659.4 189.06 658.817 186.726 657.65C184.393 656.45 182.593 654.8 181.326 652.7C180.06 650.6 179.426 648.217 179.426 645.55C179.426 642.917 180.043 640.55 181.276 638.45C182.543 636.317 184.26 634.667 186.426 633.5C188.626 632.3 191.076 631.7 193.776 631.7C196.41 631.7 198.793 632.267 200.926 633.4C203.06 634.533 204.726 636.167 205.926 638.3C207.16 640.4 207.776 642.85 207.776 645.65ZM193.826 637.6C192.06 637.6 190.576 638.1 189.376 639.1C188.176 640.1 187.443 641.467 187.176 643.2H200.426C200.16 641.5 199.426 640.15 198.226 639.15C197.026 638.117 195.56 637.6 193.826 637.6ZM244.029 631.7C246.529 631.7 248.796 632.283 250.829 633.45C252.896 634.583 254.513 636.2 255.679 638.3C256.846 640.367 257.429 642.783 257.429 645.55C257.429 648.317 256.846 650.75 255.679 652.85C254.513 654.917 252.896 656.533 250.829 657.7C248.796 658.833 246.529 659.4 244.029 659.4C240.329 659.4 237.513 658.233 235.579 655.9V659H228.129V621.9H235.929V634.95C237.896 632.783 240.596 631.7 244.029 631.7ZM242.679 653C244.679 653 246.313 652.333 247.579 651C248.879 649.633 249.529 647.817 249.529 645.55C249.529 643.283 248.879 641.483 247.579 640.15C246.313 638.783 244.679 638.1 242.679 638.1C240.679 638.1 239.029 638.783 237.729 640.15C236.463 641.483 235.829 643.283 235.829 645.55C235.829 647.817 236.463 649.633 237.729 651C239.029 652.333 240.679 653 242.679 653ZM289.501 645.65C289.501 645.75 289.451 646.45 289.351 647.75H269.001C269.367 649.417 270.234 650.733 271.601 651.7C272.967 652.667 274.667 653.15 276.701 653.15C278.101 653.15 279.334 652.95 280.401 652.55C281.501 652.117 282.517 651.45 283.451 650.55L287.601 655.05C285.067 657.95 281.367 659.4 276.501 659.4C273.467 659.4 270.784 658.817 268.451 657.65C266.117 656.45 264.317 654.8 263.051 652.7C261.784 650.6 261.151 648.217 261.151 645.55C261.151 642.917 261.767 640.55 263.001 638.45C264.267 636.317 265.984 634.667 268.151 633.5C270.351 632.3 272.801 631.7 275.501 631.7C278.134 631.7 280.517 632.267 282.651 633.4C284.784 634.533 286.451 636.167 287.651 638.3C288.884 640.4 289.501 642.85 289.501 645.65ZM275.551 637.6C273.784 637.6 272.301 638.1 271.101 639.1C269.901 640.1 269.167 641.467 268.901 643.2H282.151C281.884 641.5 281.151 640.15 279.951 639.15C278.751 638.117 277.284 637.6 275.551 637.6ZM304.244 659.4C302.01 659.4 299.827 659.133 297.694 658.6C295.56 658.033 293.86 657.333 292.594 656.5L295.194 650.9C296.394 651.667 297.844 652.3 299.544 652.8C301.244 653.267 302.91 653.5 304.544 653.5C307.844 653.5 309.494 652.683 309.494 651.05C309.494 650.283 309.044 649.733 308.144 649.4C307.244 649.067 305.86 648.783 303.994 648.55C301.794 648.217 299.977 647.833 298.544 647.4C297.11 646.967 295.86 646.2 294.794 645.1C293.76 644 293.244 642.433 293.244 640.4C293.244 638.7 293.727 637.2 294.694 635.9C295.694 634.567 297.127 633.533 298.994 632.8C300.894 632.067 303.127 631.7 305.694 631.7C307.594 631.7 309.477 631.917 311.344 632.35C313.244 632.75 314.81 633.317 316.044 634.05L313.444 639.6C311.077 638.267 308.494 637.6 305.694 637.6C304.027 637.6 302.777 637.833 301.944 638.3C301.11 638.767 300.694 639.367 300.694 640.1C300.694 640.933 301.144 641.517 302.044 641.85C302.944 642.183 304.377 642.5 306.344 642.8C308.544 643.167 310.344 643.567 311.744 644C313.144 644.4 314.36 645.15 315.394 646.25C316.427 647.35 316.944 648.883 316.944 650.85C316.944 652.517 316.444 654 315.444 655.3C314.444 656.6 312.977 657.617 311.044 658.35C309.144 659.05 306.877 659.4 304.244 659.4ZM339.606 657.7C338.84 658.267 337.89 658.7 336.756 659C335.656 659.267 334.49 659.4 333.256 659.4C330.056 659.4 327.573 658.583 325.806 656.95C324.073 655.317 323.206 652.917 323.206 649.75V638.7H319.056V632.7H323.206V626.15H331.006V632.7H337.706V638.7H331.006V649.65C331.006 650.783 331.29 651.667 331.856 652.3C332.456 652.9 333.29 653.2 334.356 653.2C335.59 653.2 336.64 652.867 337.506 652.2L339.606 657.7ZM368.195 659.4C365.962 659.4 363.778 659.133 361.645 658.6C359.512 658.033 357.812 657.333 356.545 656.5L359.145 650.9C360.345 651.667 361.795 652.3 363.495 652.8C365.195 653.267 366.862 653.5 368.495 653.5C371.795 653.5 373.445 652.683 373.445 651.05C373.445 650.283 372.995 649.733 372.095 649.4C371.195 649.067 369.812 648.783 367.945 648.55C365.745 648.217 363.928 647.833 362.495 647.4C361.062 646.967 359.812 646.2 358.745 645.1C357.712 644 357.195 642.433 357.195 640.4C357.195 638.7 357.678 637.2 358.645 635.9C359.645 634.567 361.078 633.533 362.945 632.8C364.845 632.067 367.078 631.7 369.645 631.7C371.545 631.7 373.428 631.917 375.295 632.35C377.195 632.75 378.762 633.317 379.995 634.05L377.395 639.6C375.028 638.267 372.445 637.6 369.645 637.6C367.978 637.6 366.728 637.833 365.895 638.3C365.062 638.767 364.645 639.367 364.645 640.1C364.645 640.933 365.095 641.517 365.995 641.85C366.895 642.183 368.328 642.5 370.295 642.8C372.495 643.167 374.295 643.567 375.695 644C377.095 644.4 378.312 645.15 379.345 646.25C380.378 647.35 380.895 648.883 380.895 650.85C380.895 652.517 380.395 654 379.395 655.3C378.395 656.6 376.928 657.617 374.995 658.35C373.095 659.05 370.828 659.4 368.195 659.4ZM403.557 657.7C402.791 658.267 401.841 658.7 400.707 659C399.607 659.267 398.441 659.4 397.207 659.4C394.007 659.4 391.524 658.583 389.757 656.95C388.024 655.317 387.157 652.917 387.157 649.75V638.7H383.007V632.7H387.157V626.15H394.957V632.7H401.657V638.7H394.957V649.65C394.957 650.783 395.241 651.667 395.807 652.3C396.407 652.9 397.241 653.2 398.307 653.2C399.541 653.2 400.591 652.867 401.457 652.2L403.557 657.7ZM435.536 632.1V659H428.136V655.8C427.103 656.967 425.869 657.867 424.436 658.5C423.003 659.1 421.453 659.4 419.786 659.4C416.253 659.4 413.453 658.383 411.386 656.35C409.319 654.317 408.286 651.3 408.286 647.3V632.1H416.086V646.15C416.086 650.483 417.903 652.65 421.536 652.65C423.403 652.65 424.903 652.05 426.036 650.85C427.169 649.617 427.736 647.8 427.736 645.4V632.1H435.536ZM451.812 632.7H458.712V638.7H452.012V659H444.212V638.7H440.062V632.7H444.212V631.5C444.212 628.433 445.112 626 446.912 624.2C448.745 622.4 451.312 621.5 454.612 621.5C455.779 621.5 456.879 621.633 457.912 621.9C458.979 622.133 459.862 622.483 460.562 622.95L458.512 628.6C457.612 627.967 456.562 627.65 455.362 627.65C452.995 627.65 451.812 628.95 451.812 631.55V632.7ZM471.648 632.7H478.548V638.7H471.848V659H464.048V638.7H459.898V632.7H464.048V631.5C464.048 628.433 464.948 626 466.748 624.2C468.581 622.4 471.148 621.5 474.448 621.5C475.615 621.5 476.715 621.633 477.748 621.9C478.815 622.133 479.698 622.483 480.398 622.95L478.348 628.6C477.448 627.967 476.398 627.65 475.198 627.65C472.831 627.65 471.648 628.95 471.648 631.55V632.7ZM506.144 632.7H513.044V638.7H506.344V659H498.544V638.7H494.394V632.7H498.544V631.5C498.544 628.433 499.444 626 501.244 624.2C503.077 622.4 505.644 621.5 508.944 621.5C510.111 621.5 511.211 621.633 512.244 621.9C513.311 622.133 514.194 622.483 514.894 622.95L512.844 628.6C511.944 627.967 510.894 627.65 509.694 627.65C507.327 627.65 506.144 628.95 506.144 631.55V632.7ZM529.888 659.4C527.055 659.4 524.505 658.817 522.238 657.65C520.005 656.45 518.255 654.8 516.988 652.7C515.722 650.6 515.088 648.217 515.088 645.55C515.088 642.883 515.722 640.5 516.988 638.4C518.255 636.3 520.005 634.667 522.238 633.5C524.505 632.3 527.055 631.7 529.888 631.7C532.722 631.7 535.255 632.3 537.488 633.5C539.722 634.667 541.472 636.3 542.738 638.4C544.005 640.5 544.638 642.883 544.638 645.55C544.638 648.217 544.005 650.6 542.738 652.7C541.472 654.8 539.722 656.45 537.488 657.65C535.255 658.817 532.722 659.4 529.888 659.4ZM529.888 653C531.888 653 533.522 652.333 534.788 651C536.088 649.633 536.738 647.817 536.738 645.55C536.738 643.283 536.088 641.483 534.788 640.15C533.522 638.783 531.888 638.1 529.888 638.1C527.888 638.1 526.238 638.783 524.938 640.15C523.638 641.483 522.988 643.283 522.988 645.55C522.988 647.817 523.638 649.633 524.938 651C526.238 652.333 527.888 653 529.888 653ZM557.802 635.65C558.735 634.35 559.985 633.367 561.552 632.7C563.152 632.033 564.985 631.7 567.052 631.7V638.9C566.185 638.833 565.602 638.8 565.302 638.8C563.069 638.8 561.319 639.433 560.052 640.7C558.785 641.933 558.152 643.8 558.152 646.3V659H550.352V632.1H557.802V635.65ZM134.692 683.9H142.492V721H134.692V683.9ZM176.581 707.65C176.581 707.75 176.531 708.45 176.431 709.75H156.081C156.448 711.417 157.314 712.733 158.681 713.7C160.048 714.667 161.748 715.15 163.781 715.15C165.181 715.15 166.414 714.95 167.481 714.55C168.581 714.117 169.598 713.45 170.531 712.55L174.681 717.05C172.148 719.95 168.448 721.4 163.581 721.4C160.548 721.4 157.864 720.817 155.531 719.65C153.198 718.45 151.398 716.8 150.131 714.7C148.864 712.6 148.231 710.217 148.231 707.55C148.231 704.917 148.848 702.55 150.081 700.45C151.348 698.317 153.064 696.667 155.231 695.5C157.431 694.3 159.881 693.7 162.581 693.7C165.214 693.7 167.598 694.267 169.731 695.4C171.864 696.533 173.531 698.167 174.731 700.3C175.964 702.4 176.581 704.85 176.581 707.65ZM162.631 699.6C160.864 699.6 159.381 700.1 158.181 701.1C156.981 702.1 156.248 703.467 155.981 705.2H169.231C168.964 703.5 168.231 702.15 167.031 701.15C165.831 700.117 164.364 699.6 162.631 699.6ZM192.391 693.7C196.558 693.7 199.758 694.7 201.991 696.7C204.225 698.667 205.341 701.65 205.341 705.65V721H198.041V717.65C196.575 720.15 193.841 721.4 189.841 721.4C187.775 721.4 185.975 721.05 184.441 720.35C182.941 719.65 181.791 718.683 180.991 717.45C180.191 716.217 179.791 714.817 179.791 713.25C179.791 710.75 180.725 708.783 182.591 707.35C184.491 705.917 187.408 705.2 191.341 705.2H197.541C197.541 703.5 197.025 702.2 195.991 701.3C194.958 700.367 193.408 699.9 191.341 699.9C189.908 699.9 188.491 700.133 187.091 700.6C185.725 701.033 184.558 701.633 183.591 702.4L180.791 696.95C182.258 695.917 184.008 695.117 186.041 694.55C188.108 693.983 190.225 693.7 192.391 693.7ZM191.791 716.15C193.125 716.15 194.308 715.85 195.341 715.25C196.375 714.617 197.108 713.7 197.541 712.5V709.75H192.191C188.991 709.75 187.391 710.8 187.391 712.9C187.391 713.9 187.775 714.7 188.541 715.3C189.341 715.867 190.425 716.15 191.791 716.15ZM220.351 697.65C221.284 696.35 222.534 695.367 224.101 694.7C225.701 694.033 227.534 693.7 229.601 693.7V700.9C228.734 700.833 228.151 700.8 227.851 700.8C225.617 700.8 223.867 701.433 222.601 702.7C221.334 703.933 220.701 705.8 220.701 708.3V721H212.901V694.1H220.351V697.65ZM251.089 693.7C254.422 693.7 257.105 694.7 259.139 696.7C261.205 698.7 262.239 701.667 262.239 705.6V721H254.439V706.8C254.439 704.667 253.972 703.083 253.039 702.05C252.105 700.983 250.755 700.45 248.989 700.45C247.022 700.45 245.455 701.067 244.289 702.3C243.122 703.5 242.539 705.3 242.539 707.7V721H234.739V694.1H242.189V697.25C243.222 696.117 244.505 695.25 246.039 694.65C247.572 694.017 249.255 693.7 251.089 693.7ZM269.809 694.1H277.609V721H269.809V694.1ZM273.709 690.35C272.276 690.35 271.109 689.933 270.209 689.1C269.309 688.267 268.859 687.233 268.859 686C268.859 684.767 269.309 683.733 270.209 682.9C271.109 682.067 272.276 681.65 273.709 681.65C275.142 681.65 276.309 682.05 277.209 682.85C278.109 683.65 278.559 684.65 278.559 685.85C278.559 687.15 278.109 688.233 277.209 689.1C276.309 689.933 275.142 690.35 273.709 690.35ZM301.698 693.7C305.031 693.7 307.715 694.7 309.748 696.7C311.815 698.7 312.848 701.667 312.848 705.6V721H305.048V706.8C305.048 704.667 304.581 703.083 303.648 702.05C302.715 700.983 301.365 700.45 299.598 700.45C297.631 700.45 296.065 701.067 294.898 702.3C293.731 703.5 293.148 705.3 293.148 707.7V721H285.348V694.1H292.798V697.25C293.831 696.117 295.115 695.25 296.648 694.65C298.181 694.017 299.865 693.7 301.698 693.7ZM348.461 694.1V716.5C348.461 721.433 347.178 725.1 344.611 727.5C342.045 729.9 338.295 731.1 333.361 731.1C330.761 731.1 328.295 730.783 325.961 730.15C323.628 729.517 321.695 728.6 320.161 727.4L323.261 721.8C324.395 722.733 325.828 723.467 327.561 724C329.295 724.567 331.028 724.85 332.761 724.85C335.461 724.85 337.445 724.233 338.711 723C340.011 721.8 340.661 719.967 340.661 717.5V716.35C338.628 718.583 335.795 719.7 332.161 719.7C329.695 719.7 327.428 719.167 325.361 718.1C323.328 717 321.711 715.467 320.511 713.5C319.311 711.533 318.711 709.267 318.711 706.7C318.711 704.133 319.311 701.867 320.511 699.9C321.711 697.933 323.328 696.417 325.361 695.35C327.428 694.25 329.695 693.7 332.161 693.7C336.061 693.7 339.028 694.983 341.061 697.55V694.1H348.461ZM333.711 713.3C335.778 713.3 337.461 712.7 338.761 711.5C340.095 710.267 340.761 708.667 340.761 706.7C340.761 704.733 340.095 703.15 338.761 701.95C337.461 700.717 335.778 700.1 333.711 700.1C331.645 700.1 329.945 700.717 328.611 701.95C327.278 703.15 326.611 704.733 326.611 706.7C326.611 708.667 327.278 710.267 328.611 711.5C329.945 712.7 331.645 713.3 333.711 713.3ZM397.231 707.65C397.231 707.75 397.181 708.45 397.081 709.75H376.731C377.098 711.417 377.965 712.733 379.331 713.7C380.698 714.667 382.398 715.15 384.431 715.15C385.831 715.15 387.065 714.95 388.131 714.55C389.231 714.117 390.248 713.45 391.181 712.55L395.331 717.05C392.798 719.95 389.098 721.4 384.231 721.4C381.198 721.4 378.515 720.817 376.181 719.65C373.848 718.45 372.048 716.8 370.781 714.7C369.515 712.6 368.881 710.217 368.881 707.55C368.881 704.917 369.498 702.55 370.731 700.45C371.998 698.317 373.715 696.667 375.881 695.5C378.081 694.3 380.531 693.7 383.231 693.7C385.865 693.7 388.248 694.267 390.381 695.4C392.515 696.533 394.181 698.167 395.381 700.3C396.615 702.4 397.231 704.85 397.231 707.65ZM383.281 699.6C381.515 699.6 380.031 700.1 378.831 701.1C377.631 702.1 376.898 703.467 376.631 705.2H389.881C389.615 703.5 388.881 702.15 387.681 701.15C386.481 700.117 385.015 699.6 383.281 699.6ZM419.274 693.7C422.608 693.7 425.291 694.7 427.324 696.7C429.391 698.7 430.424 701.667 430.424 705.6V721H422.624V706.8C422.624 704.667 422.158 703.083 421.224 702.05C420.291 700.983 418.941 700.45 417.174 700.45C415.208 700.45 413.641 701.067 412.474 702.3C411.308 703.5 410.724 705.3 410.724 707.7V721H402.924V694.1H410.374V697.25C411.408 696.117 412.691 695.25 414.224 694.65C415.758 694.017 417.441 693.7 419.274 693.7ZM466.038 694.1V716.5C466.038 721.433 464.754 725.1 462.188 727.5C459.621 729.9 455.871 731.1 450.938 731.1C448.338 731.1 445.871 730.783 443.538 730.15C441.204 729.517 439.271 728.6 437.738 727.4L440.838 721.8C441.971 722.733 443.404 723.467 445.138 724C446.871 724.567 448.604 724.85 450.338 724.85C453.038 724.85 455.021 724.233 456.288 723C457.588 721.8 458.238 719.967 458.238 717.5V716.35C456.204 718.583 453.371 719.7 449.738 719.7C447.271 719.7 445.004 719.167 442.938 718.1C440.904 717 439.288 715.467 438.088 713.5C436.888 711.533 436.288 709.267 436.288 706.7C436.288 704.133 436.888 701.867 438.088 699.9C439.288 697.933 440.904 696.417 442.938 695.35C445.004 694.25 447.271 693.7 449.738 693.7C453.638 693.7 456.604 694.983 458.638 697.55V694.1H466.038ZM451.288 713.3C453.354 713.3 455.038 712.7 456.338 711.5C457.671 710.267 458.338 708.667 458.338 706.7C458.338 704.733 457.671 703.15 456.338 701.95C455.038 700.717 453.354 700.1 451.288 700.1C449.221 700.1 447.521 700.717 446.188 701.95C444.854 703.15 444.188 704.733 444.188 706.7C444.188 708.667 444.854 710.267 446.188 711.5C447.521 712.7 449.221 713.3 451.288 713.3ZM473.797 683.9H481.597V721H473.797V683.9ZM489.336 694.1H497.136V721H489.336V694.1ZM493.236 690.35C491.803 690.35 490.636 689.933 489.736 689.1C488.836 688.267 488.386 687.233 488.386 686C488.386 684.767 488.836 683.733 489.736 682.9C490.636 682.067 491.803 681.65 493.236 681.65C494.67 681.65 495.836 682.05 496.736 682.85C497.636 683.65 498.086 684.65 498.086 685.85C498.086 687.15 497.636 688.233 496.736 689.1C495.836 689.933 494.67 690.35 493.236 690.35ZM513.925 721.4C511.692 721.4 509.509 721.133 507.375 720.6C505.242 720.033 503.542 719.333 502.275 718.5L504.875 712.9C506.075 713.667 507.525 714.3 509.225 714.8C510.925 715.267 512.592 715.5 514.225 715.5C517.525 715.5 519.175 714.683 519.175 713.05C519.175 712.283 518.725 711.733 517.825 711.4C516.925 711.067 515.542 710.783 513.675 710.55C511.475 710.217 509.659 709.833 508.225 709.4C506.792 708.967 505.542 708.2 504.475 707.1C503.442 706 502.925 704.433 502.925 702.4C502.925 700.7 503.409 699.2 504.375 697.9C505.375 696.567 506.809 695.533 508.675 694.8C510.575 694.067 512.809 693.7 515.375 693.7C517.275 693.7 519.159 693.917 521.025 694.35C522.925 694.75 524.492 695.317 525.725 696.05L523.125 701.6C520.759 700.267 518.175 699.6 515.375 699.6C513.709 699.6 512.459 699.833 511.625 700.3C510.792 700.767 510.375 701.367 510.375 702.1C510.375 702.933 510.825 703.517 511.725 703.85C512.625 704.183 514.059 704.5 516.025 704.8C518.225 705.167 520.025 705.567 521.425 706C522.825 706.4 524.042 707.15 525.075 708.25C526.109 709.35 526.625 710.883 526.625 712.85C526.625 714.517 526.125 716 525.125 717.3C524.125 718.6 522.659 719.617 520.725 720.35C518.825 721.05 516.559 721.4 513.925 721.4ZM548.288 693.7C551.621 693.7 554.305 694.7 556.338 696.7C558.405 698.7 559.438 701.667 559.438 705.6V721H551.638V706.8C551.638 704.667 551.171 703.083 550.238 702.05C549.305 700.983 547.955 700.45 546.188 700.45C544.221 700.45 542.655 701.067 541.488 702.3C540.321 703.5 539.738 705.3 539.738 707.7V721H531.938V683.9H539.738V696.9C540.771 695.867 542.021 695.083 543.488 694.55C544.955 693.983 546.555 693.7 548.288 693.7Z" fill="#2F2E44"/>
<path d="M251.975 67.325C251.975 67.375 251.95 67.725 251.9 68.375H241.725C241.908 69.2083 242.342 69.8667 243.025 70.35C243.708 70.8333 244.558 71.075 245.575 71.075C246.275 71.075 246.892 70.975 247.425 70.775C247.975 70.5583 248.483 70.225 248.95 69.775L251.025 72.025C249.758 73.475 247.908 74.2 245.475 74.2C243.958 74.2 242.617 73.9083 241.45 73.325C240.283 72.725 239.383 71.9 238.75 70.85C238.117 69.8 237.8 68.6083 237.8 67.275C237.8 65.9583 238.108 64.775 238.725 63.725C239.358 62.6583 240.217 61.8333 241.3 61.25C242.4 60.65 243.625 60.35 244.975 60.35C246.292 60.35 247.483 60.6333 248.55 61.2C249.617 61.7667 250.45 62.5833 251.05 63.65C251.667 64.7 251.975 65.925 251.975 67.325ZM245 63.3C244.117 63.3 243.375 63.55 242.775 64.05C242.175 64.55 241.808 65.2333 241.675 66.1H248.3C248.167 65.25 247.8 64.575 247.2 64.075C246.6 63.5583 245.867 63.3 245 63.3ZM262.996 60.35C264.663 60.35 266.005 60.85 267.021 61.85C268.055 62.85 268.571 64.3333 268.571 66.3V74H264.671V66.9C264.671 65.8333 264.438 65.0417 263.971 64.525C263.505 63.9917 262.83 63.725 261.946 63.725C260.963 63.725 260.18 64.0333 259.596 64.65C259.013 65.25 258.721 66.15 258.721 67.35V74H254.821V60.55H258.546V62.125C259.063 61.5583 259.705 61.125 260.471 60.825C261.238 60.5083 262.08 60.35 262.996 60.35ZM286.378 60.55V71.75C286.378 74.2167 285.736 76.05 284.453 77.25C283.17 78.45 281.295 79.05 278.828 79.05C277.528 79.05 276.295 78.8917 275.128 78.575C273.961 78.2583 272.995 77.8 272.228 77.2L273.778 74.4C274.345 74.8667 275.061 75.2333 275.928 75.5C276.795 75.7833 277.661 75.925 278.528 75.925C279.878 75.925 280.87 75.6167 281.503 75C282.153 74.4 282.478 73.4833 282.478 72.25V71.675C281.461 72.7917 280.045 73.35 278.228 73.35C276.995 73.35 275.861 73.0833 274.828 72.55C273.811 72 273.003 71.2333 272.403 70.25C271.803 69.2667 271.503 68.1333 271.503 66.85C271.503 65.5667 271.803 64.4333 272.403 63.45C273.003 62.4667 273.811 61.7083 274.828 61.175C275.861 60.625 276.995 60.35 278.228 60.35C280.178 60.35 281.661 60.9917 282.678 62.275V60.55H286.378ZM279.003 70.15C280.036 70.15 280.878 69.85 281.528 69.25C282.195 68.6333 282.528 67.8333 282.528 66.85C282.528 65.8667 282.195 65.075 281.528 64.475C280.878 63.8583 280.036 63.55 279.003 63.55C277.97 63.55 277.12 63.8583 276.453 64.475C275.786 65.075 275.453 65.8667 275.453 66.85C275.453 67.8333 275.786 68.6333 276.453 69.25C277.12 69.85 277.97 70.15 279.003 70.15ZM290.258 55.45H294.158V74H290.258V55.45ZM298.028 60.55H301.928V74H298.028V60.55ZM299.978 58.675C299.261 58.675 298.678 58.4667 298.228 58.05C297.778 57.6333 297.553 57.1167 297.553 56.5C297.553 55.8833 297.778 55.3667 298.228 54.95C298.678 54.5333 299.261 54.325 299.978 54.325C300.694 54.325 301.278 54.525 301.728 54.925C302.178 55.325 302.403 55.825 302.403 56.425C302.403 57.075 302.178 57.6167 301.728 58.05C301.278 58.4667 300.694 58.675 299.978 58.675ZM310.322 74.2C309.205 74.2 308.114 74.0667 307.047 73.8C305.98 73.5167 305.13 73.1667 304.497 72.75L305.797 69.95C306.397 70.3333 307.122 70.65 307.972 70.9C308.822 71.1333 309.655 71.25 310.472 71.25C312.122 71.25 312.947 70.8417 312.947 70.025C312.947 69.6417 312.722 69.3667 312.272 69.2C311.822 69.0333 311.13 68.8917 310.197 68.775C309.097 68.6083 308.189 68.4167 307.472 68.2C306.755 67.9833 306.13 67.6 305.597 67.05C305.08 66.5 304.822 65.7167 304.822 64.7C304.822 63.85 305.064 63.1 305.547 62.45C306.047 61.7833 306.764 61.2667 307.697 60.9C308.647 60.5333 309.764 60.35 311.047 60.35C311.997 60.35 312.939 60.4583 313.872 60.675C314.822 60.875 315.605 61.1583 316.222 61.525L314.922 64.3C313.739 63.6333 312.447 63.3 311.047 63.3C310.214 63.3 309.589 63.4167 309.172 63.65C308.755 63.8833 308.547 64.1833 308.547 64.55C308.547 64.9667 308.772 65.2583 309.222 65.425C309.672 65.5917 310.389 65.75 311.372 65.9C312.472 66.0833 313.372 66.2833 314.072 66.5C314.772 66.7 315.38 67.075 315.897 67.625C316.414 68.175 316.672 68.9417 316.672 69.925C316.672 70.7583 316.422 71.5 315.922 72.15C315.422 72.8 314.689 73.3083 313.722 73.675C312.772 74.025 311.639 74.2 310.322 74.2ZM327.503 60.35C329.17 60.35 330.512 60.85 331.528 61.85C332.562 62.85 333.078 64.3333 333.078 66.3V74H329.178V66.9C329.178 65.8333 328.945 65.0417 328.478 64.525C328.012 63.9917 327.337 63.725 326.453 63.725C325.47 63.725 324.687 64.0333 324.103 64.65C323.52 65.25 323.228 66.15 323.228 67.35V74H319.328V55.45H323.228V61.95C323.745 61.4333 324.37 61.0417 325.103 60.775C325.837 60.4917 326.637 60.35 327.503 60.35ZM345.038 60.35C346.705 60.35 348.047 60.85 349.063 61.85C350.097 62.85 350.613 64.3333 350.613 66.3V74H346.713V66.9C346.713 65.8333 346.48 65.0417 346.013 64.525C345.547 63.9917 344.872 63.725 343.988 63.725C343.005 63.725 342.222 64.0333 341.638 64.65C341.055 65.25 340.763 66.15 340.763 67.35V74H336.863V60.55H340.588V62.125C341.105 61.5583 341.747 61.125 342.513 60.825C343.28 60.5083 344.122 60.35 345.038 60.35ZM367.72 67.325C367.72 67.375 367.695 67.725 367.645 68.375H357.47C357.653 69.2083 358.087 69.8667 358.77 70.35C359.453 70.8333 360.303 71.075 361.32 71.075C362.02 71.075 362.637 70.975 363.17 70.775C363.72 70.5583 364.228 70.225 364.695 69.775L366.77 72.025C365.503 73.475 363.653 74.2 361.22 74.2C359.703 74.2 358.362 73.9083 357.195 73.325C356.028 72.725 355.128 71.9 354.495 70.85C353.862 69.8 353.545 68.6083 353.545 67.275C353.545 65.9583 353.853 64.775 354.47 63.725C355.103 62.6583 355.962 61.8333 357.045 61.25C358.145 60.65 359.37 60.35 360.72 60.35C362.037 60.35 363.228 60.6333 364.295 61.2C365.362 61.7667 366.195 62.5833 366.795 63.65C367.412 64.7 367.72 65.925 367.72 67.325ZM360.745 63.3C359.862 63.3 359.12 63.55 358.52 64.05C357.92 64.55 357.553 65.2333 357.42 66.1H364.045C363.912 65.25 363.545 64.575 362.945 64.075C362.345 63.5583 361.612 63.3 360.745 63.3ZM374.292 62.325C374.758 61.675 375.383 61.1833 376.167 60.85C376.967 60.5167 377.883 60.35 378.917 60.35V63.95C378.483 63.9167 378.192 63.9 378.042 63.9C376.925 63.9 376.05 64.2167 375.417 64.85C374.783 65.4667 374.467 66.4 374.467 67.65V74H370.567V60.55H374.292V62.325ZM395.063 55.45V74H391.338V72.45C390.372 73.6167 388.972 74.2 387.138 74.2C385.872 74.2 384.722 73.9167 383.688 73.35C382.672 72.7833 381.872 71.975 381.288 70.925C380.705 69.875 380.413 68.6583 380.413 67.275C380.413 65.8917 380.705 64.675 381.288 63.625C381.872 62.575 382.672 61.7667 383.688 61.2C384.722 60.6333 385.872 60.35 387.138 60.35C388.855 60.35 390.197 60.8917 391.163 61.975V55.45H395.063ZM387.813 71C388.797 71 389.613 70.6667 390.263 70C390.913 69.3167 391.238 68.4083 391.238 67.275C391.238 66.1417 390.913 65.2417 390.263 64.575C389.613 63.8917 388.797 63.55 387.813 63.55C386.813 63.55 385.988 63.8917 385.338 64.575C384.688 65.2417 384.363 66.1417 384.363 67.275C384.363 68.4083 384.688 69.3167 385.338 70C385.988 70.6667 386.813 71 387.813 71ZM400.398 74.2C399.715 74.2 399.14 73.9667 398.673 73.5C398.206 73.0333 397.973 72.45 397.973 71.75C397.973 71.0333 398.206 70.4583 398.673 70.025C399.14 69.575 399.715 69.35 400.398 69.35C401.081 69.35 401.656 69.575 402.123 70.025C402.59 70.4583 402.823 71.0333 402.823 71.75C402.823 72.45 402.59 73.0333 402.123 73.5C401.656 73.9667 401.081 74.2 400.398 74.2ZM411.945 74.2C410.528 74.2 409.253 73.9083 408.12 73.325C407.003 72.725 406.128 71.9 405.495 70.85C404.862 69.8 404.545 68.6083 404.545 67.275C404.545 65.9417 404.862 64.75 405.495 63.7C406.128 62.65 407.003 61.8333 408.12 61.25C409.253 60.65 410.528 60.35 411.945 60.35C413.362 60.35 414.628 60.65 415.745 61.25C416.862 61.8333 417.737 62.65 418.37 63.7C419.003 64.75 419.32 65.9417 419.32 67.275C419.32 68.6083 419.003 69.8 418.37 70.85C417.737 71.9 416.862 72.725 415.745 73.325C414.628 73.9083 413.362 74.2 411.945 74.2ZM411.945 71C412.945 71 413.762 70.6667 414.395 70C415.045 69.3167 415.37 68.4083 415.37 67.275C415.37 66.1417 415.045 65.2417 414.395 64.575C413.762 63.8917 412.945 63.55 411.945 63.55C410.945 63.55 410.12 63.8917 409.47 64.575C408.82 65.2417 408.495 66.1417 408.495 67.275C408.495 68.4083 408.82 69.3167 409.47 70C410.12 70.6667 410.945 71 411.945 71ZM425.902 62.325C426.369 61.675 426.994 61.1833 427.777 60.85C428.577 60.5167 429.494 60.35 430.527 60.35V63.95C430.094 63.9167 429.802 63.9 429.652 63.9C428.535 63.9 427.66 64.2167 427.027 64.85C426.394 65.4667 426.077 66.4 426.077 67.65V74H422.177V60.55H425.902V62.325ZM446.849 60.55V71.75C446.849 74.2167 446.207 76.05 444.924 77.25C443.64 78.45 441.765 79.05 439.299 79.05C437.999 79.05 436.765 78.8917 435.599 78.575C434.432 78.2583 433.465 77.8 432.699 77.2L434.249 74.4C434.815 74.8667 435.532 75.2333 436.399 75.5C437.265 75.7833 438.132 75.925 438.999 75.925C440.349 75.925 441.34 75.6167 441.974 75C442.624 74.4 442.949 73.4833 442.949 72.25V71.675C441.932 72.7917 440.515 73.35 438.699 73.35C437.465 73.35 436.332 73.0833 435.299 72.55C434.282 72 433.474 71.2333 432.874 70.25C432.274 69.2667 431.974 68.1333 431.974 66.85C431.974 65.5667 432.274 64.4333 432.874 63.45C433.474 62.4667 434.282 61.7083 435.299 61.175C436.332 60.625 437.465 60.35 438.699 60.35C440.649 60.35 442.132 60.9917 443.149 62.275V60.55H446.849ZM439.474 70.15C440.507 70.15 441.349 69.85 441.999 69.25C442.665 68.6333 442.999 67.8333 442.999 66.85C442.999 65.8667 442.665 65.075 441.999 64.475C441.349 63.8583 440.507 63.55 439.474 63.55C438.44 63.55 437.59 63.8583 436.924 64.475C436.257 65.075 435.924 65.8667 435.924 66.85C435.924 67.8333 436.257 68.6333 436.924 69.25C437.59 69.85 438.44 70.15 439.474 70.15Z" fill="white"/>
<path d="M249.228 556.042L226 491.004C226 491.004 251.551 503.779 252.712 520.038C252.712 520.038 246.905 438.741 235.291 421.32C235.291 421.32 253.873 423.643 274.779 514.231C274.779 514.231 278.263 409.706 246.905 379.51C246.905 379.51 289.877 414.352 293.361 489.842V556.042H249.228Z" fill="#F2F2F2"/>
<path d="M541.275 421.543C597.667 421.543 643.381 375.828 643.381 319.436C643.381 263.044 597.667 217.329 541.275 217.329C484.883 217.329 439.168 263.044 439.168 319.436C439.168 375.828 484.883 421.543 541.275 421.543Z" fill="#F2F2F2"/>
<path d="M568.019 556.409C567.858 556.145 564.047 549.782 562.726 536.571C561.515 524.449 562.294 504.019 572.89 475.519C592.963 421.529 568.263 377.966 568.011 377.532L569.23 376.825C569.294 376.935 575.667 388.042 579.432 405.728C584.407 429.175 582.595 453.555 574.21 476.01C554.171 529.908 569.069 555.423 569.221 555.675L568.019 556.409Z" fill="#3F3D56"/>
<path d="M531.416 305.352H290.585V556.041H531.416V305.352Z" fill="#3F3D56"/>
<path d="M506.569 332.29H314.555V384.897H506.569V332.29Z" fill="#E6E6E6"/>
<path d="M318.938 379.636H502.185V337.551H318.938V379.636Z" fill="white"/>
<path d="M342.573 373.976C351.253 373.976 358.29 366.939 358.29 358.259C358.29 349.578 351.253 342.541 342.573 342.541C333.892 342.541 326.855 349.578 326.855 358.259C326.855 366.939 333.892 373.976 342.573 373.976Z" fill="#6C63FF"/>
<path d="M490.787 352.108H368.038V355.525H490.787V352.108Z" fill="#6C63FF"/>
<path d="M490.787 360.992H368.038V364.409H490.787V360.992Z" fill="#6C63FF"/>
<path d="M506.569 406.816H314.554V459.423H506.569V406.816Z" fill="#E6E6E6"/>
<path d="M318.938 454.163H502.185V412.954H318.938V454.163Z" fill="white"/>
<path d="M342.572 449.31C351.253 449.31 358.29 442.273 358.29 433.593C358.29 424.912 351.253 417.875 342.572 417.875C333.892 417.875 326.855 424.912 326.855 433.593C326.855 442.273 333.892 449.31 342.572 449.31Z" fill="#CCCCCC"/>
<path d="M490.787 427.442H368.038V430.859H490.787V427.442Z" fill="#CCCCCC"/>
<path d="M490.787 436.326H368.038V439.743H490.787V436.326Z" fill="#CCCCCC"/>
<path d="M506.569 476.082H314.554V528.689H506.569V476.082Z" fill="#E6E6E6"/>
<path d="M318.938 523.428H502.185V481.343H318.938V523.428Z" fill="white"/>
<path d="M342.572 518.427C351.253 518.427 358.29 511.39 358.29 502.71C358.29 494.029 351.253 486.992 342.572 486.992C333.892 486.992 326.855 494.029 326.855 502.71C326.855 511.39 333.892 518.427 342.572 518.427Z" fill="#CCCCCC"/>
<path d="M490.787 496.559H368.038V499.975H490.787V496.559Z" fill="#CCCCCC"/>
<path d="M490.787 505.442H368.038V508.859H490.787V505.442Z" fill="#CCCCCC"/>
<path d="M560.171 374.363C565.226 374.363 569.325 370.264 569.325 365.208C569.325 360.152 565.226 356.054 560.171 356.054C555.115 356.054 551.016 360.152 551.016 365.208C551.016 370.264 555.115 374.363 560.171 374.363Z" fill="#6C63FF"/>
<path d="M589.042 408.162C594.098 408.162 598.196 404.064 598.196 399.008C598.196 393.952 594.098 389.854 589.042 389.854C583.986 389.854 579.887 393.952 579.887 399.008C579.887 404.064 583.986 408.162 589.042 408.162Z" fill="#3F3D56"/>
<path d="M569.324 430.697C574.38 430.697 578.479 426.599 578.479 421.543C578.479 416.487 574.38 412.389 569.324 412.389C564.269 412.389 560.17 416.487 560.17 421.543C560.17 426.599 564.269 430.697 569.324 430.697Z" fill="#6C63FF"/>
<path d="M593.267 449.71C598.323 449.71 602.422 445.612 602.422 440.556C602.422 435.5 598.323 431.401 593.267 431.401C588.211 431.401 584.113 435.5 584.113 440.556C584.113 445.612 588.211 449.71 593.267 449.71Z" fill="#6C63FF"/>
<path d="M562.283 479.285C567.339 479.285 571.437 475.187 571.437 470.131C571.437 465.075 567.339 460.977 562.283 460.977C557.227 460.977 553.128 465.075 553.128 470.131C553.128 475.187 557.227 479.285 562.283 479.285Z" fill="#3F3D56"/>
<path d="M568.532 556.746C568.532 556.746 559.377 534.212 586.841 517.312L568.532 556.746Z" fill="#3F3D56"/>
<path d="M568.408 556.337C568.408 556.337 564.242 532.374 531.996 532.579L568.408 556.337Z" fill="#3F3D56"/>
<path d="M441.314 169.444C441.314 169.444 464.552 159.319 475.467 170.015C486.382 180.711 446.244 177.19 441.314 169.444Z" fill="#3F3D56"/>
<path d="M481.44 121.423C473.631 108.227 458.181 107.612 458.181 107.612C458.181 107.612 443.125 105.687 433.468 125.784C424.466 144.515 412.042 162.601 431.467 166.986L434.976 156.065L437.149 167.799C439.915 167.998 442.69 168.046 445.461 167.941C466.264 167.27 486.076 168.138 485.438 160.673C484.59 150.749 488.954 134.119 481.44 121.423Z" fill="#2F2E41"/>
<path d="M492.367 360.631C492.367 360.631 482.509 378.94 476.171 378.94C469.834 378.94 470.538 390.911 471.946 393.728C473.355 396.544 476.875 402.882 471.242 412.036C469.274 415.234 469.626 418.861 470.917 422.228C474.535 431.66 488.609 428.803 488.16 418.71C488.155 418.599 488.149 418.487 488.142 418.374C487.438 407.107 493.072 389.502 498.705 385.277C504.339 381.052 509.268 369.785 509.268 369.785L492.367 360.631Z" fill="#FFB8B8"/>
<path d="M424.765 356.405C424.765 356.405 434.624 374.714 440.961 374.714C447.299 374.714 446.595 386.685 445.187 389.502C443.778 392.319 440.257 398.656 445.891 407.811C447.859 411.008 447.507 414.636 446.215 418.002C442.597 427.435 428.523 424.577 428.972 414.484C428.977 414.373 428.983 414.261 428.99 414.148C429.695 402.881 424.061 385.277 418.428 381.052C412.794 376.827 407.865 365.56 407.865 365.56L424.765 356.405Z" fill="#FFB8B8"/>
<path d="M432.512 266.269L428.287 275.424C428.287 275.424 366.318 295.845 371.952 319.788C377.585 343.73 405.049 381.052 409.274 379.643C413.499 378.235 436.033 374.01 436.737 362.039C437.441 350.067 420.541 328.942 420.541 328.942L443.779 307.816L477.594 307.112L506.451 328.942C506.451 328.942 476.171 355.701 489.551 366.264C502.93 376.826 522.647 383.868 525.464 379.643C528.281 375.418 559.969 312.746 555.04 307.112C550.111 301.479 500.113 280.353 500.113 280.353L486.734 261.34L434.624 258.523L432.512 266.269Z" fill="#2F2E41"/>
<path d="M445.187 150.079C445.187 150.079 448.708 173.317 441.666 176.134C434.624 178.951 455.749 190.922 455.749 190.922H467.721L475.467 174.726C475.467 174.726 468.425 162.05 472.65 150.079C476.875 138.108 445.187 150.079 445.187 150.079Z" fill="#FFB8B8"/>
<path opacity="0.1" d="M445.187 150.079C445.187 150.079 448.708 173.317 441.666 176.134C434.624 178.951 455.749 190.922 455.749 190.922H467.721L475.467 174.726C475.467 174.726 468.425 162.05 472.65 150.079C476.875 138.108 445.187 150.079 445.187 150.079Z" fill="black"/>
<path d="M440.258 169.797C440.258 169.797 448.004 178.247 449.412 179.655C450.821 181.064 457.158 188.81 470.538 177.543C483.917 166.276 485.326 179.655 485.326 179.655V264.158C485.326 264.158 474.059 259.228 464.904 264.158C455.75 269.087 436.737 262.749 436.737 262.749L433.216 175.43L440.258 169.797Z" fill="white"/>
<path d="M445.431 169.797C445.431 169.797 438.85 166.98 433.216 169.797C427.583 172.614 407.865 186.697 409.274 193.035C410.682 199.373 428.991 243.736 416.316 264.862C403.64 285.987 401.528 291.621 401.528 291.621L432.512 275.424C432.512 275.424 456.454 260.637 454.342 251.482C452.229 242.328 445.431 169.797 445.431 169.797Z" fill="#6C63FF"/>
<path d="M473.362 169.797C473.362 169.797 488.142 171.205 488.846 172.614C489.55 174.022 511.028 180.008 509.619 186.345C508.211 192.683 488.846 249.37 497.296 259.932C505.746 270.495 519.83 285.283 514.901 286.692C509.972 288.1 501.521 284.579 493.071 286.692C484.621 288.804 464.904 271.199 467.016 252.186C469.129 233.173 467.033 174.726 473.362 169.797Z" fill="#6C63FF"/>
<path d="M438.145 304.296V311.338C438.145 311.338 434.624 327.534 445.891 326.83C457.158 326.126 450.116 307.113 450.116 307.113L449.412 300.775L438.145 304.296Z" fill="#FFB8B8"/>
<path d="M469.833 305C469.833 305 462.087 321.196 469.833 322.605C477.579 324.013 483.213 313.45 483.213 310.633C483.213 307.817 469.833 305 469.833 305Z" fill="#FFB8B8"/>
<path d="M480.044 143.389C480.822 143.389 481.452 142.128 481.452 140.573C481.452 139.017 480.822 137.756 480.044 137.756C479.266 137.756 478.636 139.017 478.636 140.573C478.636 142.128 479.266 143.389 480.044 143.389Z" fill="#FFB8B8"/>
<path d="M438.497 143.389C439.275 143.389 439.906 142.128 439.906 140.573C439.906 139.017 439.275 137.756 438.497 137.756C437.719 137.756 437.089 139.017 437.089 140.573C437.089 142.128 437.719 143.389 438.497 143.389Z" fill="#FFB8B8"/>
<path d="M492.367 178.951C492.367 178.951 509.972 178.951 509.268 185.993C508.563 193.035 485.325 314.155 485.325 314.155C485.325 314.155 475.467 305 467.017 307.113L492.367 178.951Z" fill="#6C63FF"/>
<path d="M424.062 181.063C424.062 181.063 406.457 184.584 406.457 195.147C406.457 205.71 431.808 307.113 435.329 307.113C438.85 307.113 452.229 305 452.229 301.479C452.229 297.958 424.062 181.063 424.062 181.063Z" fill="#6C63FF"/>
<path opacity="0.2" d="M427.935 201.837L443.779 263.799C443.779 263.799 436.385 209.583 427.935 201.837Z" fill="black"/>
<path opacity="0.2" d="M489.563 193.131L473.538 274.143C473.538 274.143 478.66 197.804 489.563 193.131Z" fill="black"/>
<path d="M459.271 161.347C470.549 161.347 479.692 152.204 479.692 140.925C479.692 129.647 470.549 120.504 459.271 120.504C447.992 120.504 438.849 129.647 438.849 140.925C438.849 152.204 447.992 161.347 459.271 161.347Z" fill="#FFB8B8"/>
<path d="M477.987 120.151L462.723 112.155L441.644 115.426L437.283 134.688L448.139 134.27L451.172 127.194V134.154L456.181 133.961L459.089 122.694L460.906 134.688L478.714 134.325L477.987 120.151Z" fill="#2F2E41"/>
<path d="M458.181 107.612C458.181 107.612 473.631 108.227 481.44 121.423C486.753 130.399 486.127 141.342 485.605 150.491C485.388 154.282 485.189 157.765 485.438 160.673C485.771 164.569 480.533 166.195 472.49 166.955C472.577 167.281 472.666 167.599 472.757 167.909C473.722 168.498 474.631 169.195 475.467 170.015C479.575 170.464 488.309 171.539 488.846 172.613C489.048 173.018 490.962 173.799 493.556 174.858C499.996 177.487 510.624 181.827 509.619 186.345C509.479 186.978 509.159 188.112 508.706 189.652C507.635 196.013 505.178 209.364 502.242 225.055C514.267 220.076 527.45 217.329 541.275 217.329C597.667 217.329 643.381 263.044 643.381 319.436C643.381 361.798 617.584 398.134 580.842 413.593C583.922 434.582 581.662 456.056 574.21 476.01C558.968 517.006 563.938 541.581 567.258 551.109C566.372 543.341 567.875 528.983 586.84 517.311L569.116 555.488C569.136 555.524 569.153 555.555 569.168 555.581C569.18 555.604 569.191 555.622 569.199 555.637C569.211 555.658 569.219 555.671 569.221 555.675L568.952 555.84L568.532 556.746C568.532 556.746 568.528 556.737 568.521 556.72L568.505 556.678C568.494 556.649 568.479 556.61 568.462 556.561L568.442 556.506C568.433 556.482 568.424 556.456 568.414 556.428C568.402 556.393 568.389 556.356 568.375 556.316L568.277 556.252L568.019 556.409C567.996 556.37 567.893 556.2 567.732 555.896L531.996 532.58C551.026 532.459 560.277 540.755 564.663 547.576C563.892 544.658 563.169 540.999 562.726 536.571C561.515 524.45 562.294 504.019 572.89 475.519C581.536 452.264 581.875 430.943 579.44 414.171C578.35 414.61 577.251 415.031 576.143 415.434C577.595 417.054 578.479 419.195 578.479 421.543C578.479 426.598 574.38 430.697 569.324 430.697C564.269 430.697 560.17 426.598 560.17 421.543C560.17 420.934 560.229 420.34 560.342 419.765C554.165 420.932 547.791 421.542 541.275 421.542C537.949 421.542 534.66 421.383 531.416 421.073V556.042L249.228 556.042L226 491.004C226 491.004 251.551 503.779 252.712 520.038C252.712 520.038 246.905 438.741 235.291 421.32C235.291 421.32 253.873 423.643 274.779 514.231C274.779 514.231 278.263 409.706 246.905 379.51C246.905 379.51 280.271 406.563 290.585 464.644V305.352H376.127C382.35 297.406 393.983 290.405 404.687 285.177C406.868 281.057 410.468 274.608 416.316 264.861C417.93 262.171 419.042 259.104 419.75 255.787C412.906 228.909 406.457 200.474 406.457 195.147C406.457 190.717 409.554 187.525 413.15 185.313C418.913 178.926 429.361 171.724 433.216 169.796C436.508 168.15 440.123 168.428 442.56 168.943C443.253 168.677 444.211 168.326 445.373 167.944C442.631 168.044 439.886 167.996 437.149 167.799L434.976 156.065L431.467 166.986C414.583 163.175 421.76 149.013 429.838 133.073L429.838 133.073L429.84 133.069C431.055 130.671 432.29 128.233 433.468 125.784C443.125 105.687 458.181 107.612 458.181 107.612Z" fill="url(#paint1_linear)"/>
<path d="M593.267 449.71C598.323 449.71 602.422 445.611 602.422 440.556C602.422 435.5 598.323 431.401 593.267 431.401C588.211 431.401 584.113 435.5 584.113 440.556C584.113 445.611 588.211 449.71 593.267 449.71Z" fill="url(#paint2_linear)"/>
<path d="M571.437 470.131C571.437 475.187 567.339 479.285 562.283 479.285C557.227 479.285 553.128 475.187 553.128 470.131C553.128 465.075 557.227 460.977 562.283 460.977C567.339 460.977 571.437 465.075 571.437 470.131Z" fill="url(#paint3_linear)"/>
</g>
<defs>
<linearGradient id="paint0_linear" x1="215" y1="-170" x2="963.795" y2="332.898" gradientUnits="userSpaceOnUse">
<stop stop-color="white" stop-opacity="0.2"/>
<stop offset="1" stop-color="white" stop-opacity="0"/>
</linearGradient>
<linearGradient id="paint1_linear" x1="226" y1="556.746" x2="629.946" y2="483.008" gradientUnits="userSpaceOnUse">
<stop stop-color="white" stop-opacity="0.2"/>
<stop offset="1" stop-color="white" stop-opacity="0"/>
</linearGradient>
<linearGradient id="paint2_linear" x1="226" y1="556.746" x2="629.946" y2="483.008" gradientUnits="userSpaceOnUse">
<stop stop-color="white" stop-opacity="0.2"/>
<stop offset="1" stop-color="white" stop-opacity="0"/>
</linearGradient>
<linearGradient id="paint3_linear" x1="226" y1="556.746" x2="629.946" y2="483.008" gradientUnits="userSpaceOnUse">
<stop stop-color="white" stop-opacity="0.2"/>
<stop offset="1" stop-color="white" stop-opacity="0"/>
</linearGradient>
<clipPath id="clip0">
<rect width="926" height="695" fill="white" transform="translate(0 926) rotate(-90)"/>
</clipPath>
</defs>
</svg>
