<svg width="695" height="926" viewBox="0 0 695 926" fill="none" xmlns="http://www.w3.org/2000/svg">
<g clip-path="url(#clip0)">
<rect width="926" height="695" transform="translate(0 926) rotate(-90)" fill="white"/>
<circle cx="540" cy="155" r="325" fill="#6666FF"/>
<ellipse cx="538.7" cy="156.3" rx="227.5" ry="227.5" fill="#8080FF"/>
<ellipse cx="540" cy="155" rx="130" ry="130" fill="#9999FF"/>
<circle cx="540" cy="155" r="325" fill="url(#paint0_linear)"/>
<g clip-path="url(#clip1)" filter="url(#filter0_d)">
<path d="M546.732 517.164L548.744 527.224L538.683 529.237L540.192 516.66L546.732 517.164Z" fill="#FFB8B8"/>
<path d="M587.914 515.333L585.636 526.726L576.263 526.952L579.256 513.055L587.914 515.333Z" fill="#FFB8B8"/>
<path d="M602.854 398.295L605.467 415.928C605.467 415.928 602.854 455.113 602.201 457.072C601.548 459.032 599.589 468.828 599.589 468.828L588.486 515.85C588.486 515.85 578.875 517.156 576.916 511.931L577.384 483.849L576.731 451.848L568.894 415.275L555.179 464.909C555.179 464.909 554.526 481.236 552.567 487.114C550.608 492.992 547.995 518.462 547.995 518.462C547.995 518.462 539.691 520.421 539.038 518.462C538.384 516.503 534.934 470.134 534.934 462.95C534.934 455.766 531.095 386.885 531.095 386.885L602.854 398.295Z" fill="#2F2E41"/>
<path d="M579.273 526.076C580.35 526.297 581.46 526.297 582.536 526.076C583.76 525.668 582.536 523.221 582.536 523.221H587.023C587.023 523.221 591.917 534.233 593.957 535.049C595.996 535.865 602.522 544.838 594.772 544.838C589.991 544.777 585.324 543.363 581.312 540.759C581.312 540.759 580.497 537.088 576.826 536.681C573.155 536.273 570.708 531.786 570.708 531.786L574.692 524.431C574.805 524.223 574.972 524.05 575.176 523.929C575.379 523.808 575.611 523.744 575.847 523.743C576.084 523.743 576.316 523.806 576.52 523.926C576.724 524.046 576.891 524.219 577.006 524.426C577.56 525.404 578.329 526.265 579.273 526.076Z" fill="#2F2E41"/>
<path d="M545.136 524.812C545.136 524.812 544.227 526.632 543.317 525.722C542.557 524.756 541.944 523.683 541.497 522.538C541.497 522.538 538.768 521.173 538.313 522.538C537.858 523.902 536.039 531.18 535.129 532.09C534.219 533 524.667 542.552 534.219 544.372C543.772 546.191 545.591 542.097 545.591 542.097C545.591 542.097 544.227 539.823 546.956 538.913C549.685 538.003 550.14 534.819 550.14 534.819L548.769 524.538C548.739 524.319 548.645 524.114 548.498 523.949C548.351 523.783 548.158 523.666 547.944 523.61C547.73 523.555 547.504 523.565 547.295 523.638C547.087 523.712 546.905 523.846 546.773 524.023C546.245 524.711 545.658 525.16 545.136 524.812Z" fill="#2F2E41"/>
<path d="M617.875 352.58L619.834 386.54C619.834 386.54 628.977 408.091 616.569 407.438C604.16 406.785 611.997 385.887 611.997 385.887L599.849 355.578L617.875 352.58Z" fill="#FFB8B8"/>
<path d="M517.301 342.783L515.342 376.743C515.342 376.743 506.198 398.295 518.607 397.642C531.015 396.989 523.178 376.09 523.178 376.09L535.327 345.781L517.301 342.783Z" fill="#FFB8B8"/>
<path d="M569.547 268.986C578.925 268.986 586.527 261.383 586.527 252.005C586.527 242.628 578.925 235.025 569.547 235.025C560.169 235.025 552.567 242.628 552.567 252.005C552.567 261.383 560.169 268.986 569.547 268.986Z" fill="#FFB8B8"/>
<path d="M582.935 258.863C582.935 258.863 578.364 277.149 587.507 281.721C596.65 286.292 558.771 292.823 556.159 281.721L557.465 276.496C557.465 276.496 562.69 269.965 561.384 264.087L582.935 258.863Z" fill="#FFB8B8"/>
<path d="M572.813 282.047C572.813 282.047 561.544 283.099 558.035 275.716C558.035 275.716 531.669 277.475 525.791 301.639C532.612 301.835 541.074 379.456 529.894 387.193C520.819 393.473 545.554 403.145 579.996 403.52L606.12 402.214C601.249 398.017 589.593 343.406 596.976 344.09C596.976 344.09 616.569 313.395 614.61 308.823C612.65 304.252 609.513 286.226 584.305 278.912C584.305 278.912 583.915 282.7 572.813 282.047Z" fill="#E6E6E6"/>
<path d="M606.12 297.721L614.61 308.823C614.61 308.823 623.1 355.192 620.487 355.845C617.875 356.498 602.201 361.722 599.589 359.763C596.977 357.804 585.221 319.272 585.221 319.272L606.12 297.721Z" fill="#E6E6E6"/>
<path d="M536.893 294.456L525.791 301.639C525.791 301.639 509.464 347.355 514.035 349.314C518.607 351.273 544.077 349.967 544.077 349.967L536.893 294.456Z" fill="#E6E6E6"/>
<path d="M588.108 236.809C588.108 236.809 582.226 224.066 570.953 227.007C559.681 229.948 553.309 234.359 552.819 238.77C552.329 243.181 553.064 249.797 553.064 249.797C553.064 249.797 554.289 240.73 562.131 242.691C569.973 244.651 582.226 243.181 582.226 243.181L584.187 260.825C584.187 260.825 586.392 257.639 588.843 259.6C591.293 261.56 595.95 240.73 588.108 236.809Z" fill="#2F2E41"/>
<path d="M466.798 145H82C76.4772 145 72 149.477 72 155V393.621C72 399.144 76.4771 403.621 82 403.621H466.798C472.32 403.621 476.798 399.144 476.798 393.621V155C476.798 149.477 472.32 145 466.798 145Z" fill="#E6E6E6"/>
<path d="M460.113 177.667H89.3812C86.6198 177.667 84.3812 179.906 84.3812 182.667V383.557C84.3812 386.318 86.6198 388.557 89.3812 388.557H460.113C462.875 388.557 465.113 386.318 465.113 383.557V182.667C465.113 179.906 462.875 177.667 460.113 177.667Z" fill="white"/>
<path d="M72 155C72 149.477 76.4772 145 82 145H466.798C472.32 145 476.798 149.477 476.798 155V162.197H72V155Z" fill="#2F2E44"/>
<path d="M85.4107 156.951C87.1669 156.951 88.5906 155.528 88.5906 153.771C88.5906 152.015 87.1669 150.591 85.4107 150.591C83.6544 150.591 82.2307 152.015 82.2307 153.771C82.2307 155.528 83.6544 156.951 85.4107 156.951Z" fill="white"/>
<path d="M97.4801 156.951C99.2364 156.951 100.66 155.528 100.66 153.771C100.66 152.015 99.2364 150.591 97.4801 150.591C95.7239 150.591 94.3002 152.015 94.3002 153.771C94.3002 155.528 95.7239 156.951 97.4801 156.951Z" fill="white"/>
<path d="M109.55 156.951C111.306 156.951 112.73 155.528 112.73 153.771C112.73 152.015 111.306 150.591 109.55 150.591C107.793 150.591 106.37 152.015 106.37 153.771C106.37 155.528 107.793 156.951 109.55 156.951Z" fill="white"/>
<path d="M327.24 210.045H121.774C119.013 210.045 116.774 212.284 116.774 215.045V326.245C116.774 329.007 119.013 331.245 121.774 331.245H327.24C330.002 331.245 332.24 329.007 332.24 326.245V215.045C332.24 212.284 330.002 210.045 327.24 210.045Z" fill="#6C63FF"/>
<path d="M439.358 210.045H367.305C364.544 210.045 362.305 212.284 362.305 215.045V251.2C362.305 253.961 364.544 256.2 367.305 256.2H439.358C442.119 256.2 444.358 253.961 444.358 251.2V215.045C444.358 212.284 442.119 210.045 439.358 210.045Z" fill="#E6E6E6"/>
<path d="M439.358 270.802H367.305C364.544 270.802 362.305 273.04 362.305 275.802V311.956C362.305 314.718 364.544 316.956 367.305 316.956H439.358C442.119 316.956 444.358 314.718 444.358 311.956V275.802C444.358 273.04 442.119 270.802 439.358 270.802Z" fill="#E6E6E6"/>
<path d="M439.358 331.558H367.305C364.544 331.558 362.305 333.797 362.305 336.558V372.713C362.305 375.474 364.544 377.713 367.305 377.713H439.358C442.119 377.713 444.358 375.474 444.358 372.713V336.558C444.358 333.797 442.119 331.558 439.358 331.558Z" fill="#E6E6E6"/>
<path d="M262.72 351.602H119.274C117.893 351.602 116.774 352.721 116.774 354.102V359.123C116.774 360.504 117.893 361.623 119.274 361.623H262.72C264.101 361.623 265.22 360.504 265.22 359.123V354.102C265.22 352.721 264.101 351.602 262.72 351.602Z" fill="#E6E6E6"/>
<path d="M246.837 268.507C248.504 269.47 248.504 271.875 246.837 272.837L209.69 294.284C208.024 295.246 205.94 294.044 205.94 292.119L205.94 249.226C205.94 247.301 208.024 246.098 209.69 247.061L246.837 268.507Z" fill="white"/>
<path fill-rule="evenodd" clip-rule="evenodd" d="M82 145C76.8223 145 72.5637 148.935 72.0516 153.978C72.0175 154.314 72 154.655 72 155V162.197V393.621C72 399.144 76.4771 403.621 82 403.621H466.798C472.32 403.621 476.798 399.144 476.798 393.621L476.798 162.197L476.798 155C476.798 150.34 473.61 146.425 469.297 145.315C468.498 145.109 467.661 145 466.798 145H82ZM570.953 227.007C582.226 224.066 588.107 236.809 588.107 236.809C595.949 240.73 591.293 261.56 588.843 259.6C586.392 257.639 584.187 260.825 584.187 260.825L584.167 260.647C583.582 261.634 582.9 262.557 582.134 263.403C581.57 267.893 581.365 274.689 584.305 278.916L584.305 278.912C606.561 285.37 611.613 300.177 613.839 306.703C614.135 307.568 614.38 308.288 614.61 308.823C614.696 309.025 614.741 309.279 614.747 309.578C615.83 315.572 622.902 355.241 620.487 355.845C620.037 355.958 619.197 356.206 618.103 356.531L619.834 386.54C619.834 386.54 628.977 408.091 616.569 407.438C604.16 406.785 611.997 385.887 611.997 385.887L601.702 360.2C600.74 360.203 600.001 360.073 599.589 359.763C598.717 359.11 596.829 354.387 594.698 348.382C593.526 361.245 602.115 398.764 606.12 402.214L603.455 402.347L605.467 415.928C605.467 415.928 602.854 455.113 602.201 457.072C601.548 459.031 599.589 468.828 599.589 468.828L588.487 515.849C588.487 515.849 588.232 515.884 587.797 515.919L586.337 523.221H587.023C587.023 523.221 591.917 534.233 593.957 535.049C595.996 535.865 602.522 544.838 594.772 544.838C589.991 544.776 585.324 543.362 581.312 540.759C581.312 540.759 580.497 537.088 576.826 536.68C573.155 536.273 570.708 531.786 570.708 531.786L574.692 524.43C574.805 524.223 574.972 524.049 575.176 523.929C575.379 523.808 575.611 523.744 575.847 523.743C576.084 523.743 576.316 523.806 576.52 523.926C576.647 524.001 576.76 524.096 576.854 524.207L578.965 514.406C578.056 513.815 577.322 513.013 576.916 511.931L577.384 483.849L576.731 451.848L568.894 415.275L555.179 464.909C555.179 464.909 554.526 481.236 552.567 487.114C550.608 492.992 547.996 518.462 547.996 518.462C547.996 518.462 547.624 518.549 547.033 518.669L548.026 523.635C548.207 523.698 548.37 523.805 548.498 523.949C548.645 524.114 548.739 524.32 548.769 524.539L550.14 534.82C550.14 534.82 549.685 538.004 546.956 538.913C544.226 539.823 545.591 542.098 545.591 542.098C545.591 542.098 543.772 546.191 534.219 544.372C524.667 542.552 534.219 533 535.129 532.09C535.811 531.408 537.005 527.143 537.752 524.478C538 523.59 538.199 522.879 538.313 522.538C538.488 522.014 538.997 521.893 539.559 521.941L539.896 519.132C539.453 518.996 539.144 518.781 539.038 518.462C538.385 516.503 534.934 470.134 534.934 462.95C534.934 457.227 532.498 412.351 531.507 394.334C527.645 391.896 526.784 389.345 529.895 387.193C534.689 383.875 535.871 367.701 535.119 350.294C534.592 350.307 534.052 350.32 533.504 350.331L523.179 376.09C523.179 376.09 531.016 396.989 518.607 397.642C506.198 398.295 515.342 376.744 515.342 376.744L516.888 349.937C515.636 349.781 514.648 349.577 514.035 349.314C509.482 347.363 525.662 302 525.79 301.642L525.791 301.639C531.669 277.475 558.035 275.716 558.035 275.716L558.035 275.716C559.081 274.206 561.229 270.7 561.552 266.989C556.205 264.13 552.567 258.493 552.567 252.005C552.567 250.791 552.695 249.607 552.937 248.465C552.751 246.305 552.465 241.96 552.819 238.77C553.309 234.359 559.681 229.948 570.953 227.007Z" fill="url(#paint1_linear)"/>
</g>
<path d="M123.493 624H139.393C143.193 624 146.543 624.733 149.443 626.2C152.376 627.633 154.643 629.667 156.243 632.3C157.876 634.933 158.693 638 158.693 641.5C158.693 645 157.876 648.067 156.243 650.7C154.643 653.333 152.376 655.383 149.443 656.85C146.543 658.283 143.193 659 139.393 659H123.493V624ZM138.993 652.35C142.493 652.35 145.276 651.383 147.343 649.45C149.443 647.483 150.493 644.833 150.493 641.5C150.493 638.167 149.443 635.533 147.343 633.6C145.276 631.633 142.493 630.65 138.993 630.65H131.593V652.35H138.993ZM164.751 632.1H172.551V659H164.751V632.1ZM168.651 628.35C167.218 628.35 166.051 627.933 165.151 627.1C164.251 626.267 163.801 625.233 163.801 624C163.801 622.767 164.251 621.733 165.151 620.9C166.051 620.067 167.218 619.65 168.651 619.65C170.085 619.65 171.251 620.05 172.151 620.85C173.051 621.65 173.501 622.65 173.501 623.85C173.501 625.15 173.051 626.233 172.151 627.1C171.251 627.933 170.085 628.35 168.651 628.35ZM189.34 659.4C187.107 659.4 184.924 659.133 182.79 658.6C180.657 658.033 178.957 657.333 177.69 656.5L180.29 650.9C181.49 651.667 182.94 652.3 184.64 652.8C186.34 653.267 188.007 653.5 189.64 653.5C192.94 653.5 194.59 652.683 194.59 651.05C194.59 650.283 194.14 649.733 193.24 649.4C192.34 649.067 190.957 648.783 189.09 648.55C186.89 648.217 185.074 647.833 183.64 647.4C182.207 646.967 180.957 646.2 179.89 645.1C178.857 644 178.34 642.433 178.34 640.4C178.34 638.7 178.824 637.2 179.79 635.9C180.79 634.567 182.224 633.533 184.09 632.8C185.99 632.067 188.224 631.7 190.79 631.7C192.69 631.7 194.574 631.917 196.44 632.35C198.34 632.75 199.907 633.317 201.14 634.05L198.54 639.6C196.174 638.267 193.59 637.6 190.79 637.6C189.124 637.6 187.874 637.833 187.04 638.3C186.207 638.767 185.79 639.367 185.79 640.1C185.79 640.933 186.24 641.517 187.14 641.85C188.04 642.183 189.474 642.5 191.44 642.8C193.64 643.167 195.44 643.567 196.84 644C198.24 644.4 199.457 645.15 200.49 646.25C201.524 647.35 202.04 648.883 202.04 650.85C202.04 652.517 201.54 654 200.54 655.3C199.54 656.6 198.074 657.617 196.14 658.35C194.24 659.05 191.974 659.4 189.34 659.4ZM220.353 659.4C217.486 659.4 214.903 658.817 212.603 657.65C210.336 656.45 208.553 654.8 207.253 652.7C205.986 650.6 205.353 648.217 205.353 645.55C205.353 642.883 205.986 640.5 207.253 638.4C208.553 636.3 210.336 634.667 212.603 633.5C214.903 632.3 217.486 631.7 220.353 631.7C223.186 631.7 225.653 632.3 227.753 633.5C229.886 634.667 231.436 636.35 232.403 638.55L226.353 641.8C224.953 639.333 222.936 638.1 220.303 638.1C218.27 638.1 216.586 638.767 215.253 640.1C213.92 641.433 213.253 643.25 213.253 645.55C213.253 647.85 213.92 649.667 215.253 651C216.586 652.333 218.27 653 220.303 653C222.97 653 224.986 651.767 226.353 649.3L232.403 652.6C231.436 654.733 229.886 656.4 227.753 657.6C225.653 658.8 223.186 659.4 220.353 659.4ZM249.852 659.4C247.019 659.4 244.469 658.817 242.202 657.65C239.969 656.45 238.219 654.8 236.952 652.7C235.685 650.6 235.052 648.217 235.052 645.55C235.052 642.883 235.685 640.5 236.952 638.4C238.219 636.3 239.969 634.667 242.202 633.5C244.469 632.3 247.019 631.7 249.852 631.7C252.685 631.7 255.219 632.3 257.452 633.5C259.685 634.667 261.435 636.3 262.702 638.4C263.969 640.5 264.602 642.883 264.602 645.55C264.602 648.217 263.969 650.6 262.702 652.7C261.435 654.8 259.685 656.45 257.452 657.65C255.219 658.817 252.685 659.4 249.852 659.4ZM249.852 653C251.852 653 253.485 652.333 254.752 651C256.052 649.633 256.702 647.817 256.702 645.55C256.702 643.283 256.052 641.483 254.752 640.15C253.485 638.783 251.852 638.1 249.852 638.1C247.852 638.1 246.202 638.783 244.902 640.15C243.602 641.483 242.952 643.283 242.952 645.55C242.952 647.817 243.602 649.633 244.902 651C246.202 652.333 247.852 653 249.852 653ZM296.283 632.1L284.933 659H276.883L265.583 632.1H273.633L281.083 650.4L288.783 632.1H296.283ZM325.584 645.65C325.584 645.75 325.534 646.45 325.434 647.75H305.084C305.45 649.417 306.317 650.733 307.684 651.7C309.05 652.667 310.75 653.15 312.784 653.15C314.184 653.15 315.417 652.95 316.484 652.55C317.584 652.117 318.6 651.45 319.534 650.55L323.684 655.05C321.15 657.95 317.45 659.4 312.584 659.4C309.55 659.4 306.867 658.817 304.534 657.65C302.2 656.45 300.4 654.8 299.134 652.7C297.867 650.6 297.234 648.217 297.234 645.55C297.234 642.917 297.85 640.55 299.084 638.45C300.35 636.317 302.067 634.667 304.234 633.5C306.434 632.3 308.884 631.7 311.584 631.7C314.217 631.7 316.6 632.267 318.734 633.4C320.867 634.533 322.534 636.167 323.734 638.3C324.967 640.4 325.584 642.85 325.584 645.65ZM311.634 637.6C309.867 637.6 308.384 638.1 307.184 639.1C305.984 640.1 305.25 641.467 304.984 643.2H318.234C317.967 641.5 317.234 640.15 316.034 639.15C314.834 638.117 313.367 637.6 311.634 637.6ZM338.727 635.65C339.66 634.35 340.91 633.367 342.477 632.7C344.077 632.033 345.91 631.7 347.977 631.7V638.9C347.11 638.833 346.527 638.8 346.227 638.8C343.993 638.8 342.243 639.433 340.977 640.7C339.71 641.933 339.077 643.8 339.077 646.3V659H331.277V632.1H338.727V635.65ZM394.32 645.65C394.32 645.75 394.27 646.45 394.17 647.75H373.82C374.187 649.417 375.053 650.733 376.42 651.7C377.787 652.667 379.487 653.15 381.52 653.15C382.92 653.15 384.153 652.95 385.22 652.55C386.32 652.117 387.337 651.45 388.27 650.55L392.42 655.05C389.887 657.95 386.187 659.4 381.32 659.4C378.287 659.4 375.603 658.817 373.27 657.65C370.937 656.45 369.137 654.8 367.87 652.7C366.603 650.6 365.97 648.217 365.97 645.55C365.97 642.917 366.587 640.55 367.82 638.45C369.087 636.317 370.803 634.667 372.97 633.5C375.17 632.3 377.62 631.7 380.32 631.7C382.953 631.7 385.337 632.267 387.47 633.4C389.603 634.533 391.27 636.167 392.47 638.3C393.703 640.4 394.32 642.85 394.32 645.65ZM380.37 637.6C378.603 637.6 377.12 638.1 375.92 639.1C374.72 640.1 373.987 641.467 373.72 643.2H386.97C386.703 641.5 385.97 640.15 384.77 639.15C383.57 638.117 382.103 637.6 380.37 637.6ZM416.363 631.7C419.696 631.7 422.38 632.7 424.413 634.7C426.48 636.7 427.513 639.667 427.513 643.6V659H419.713V644.8C419.713 642.667 419.246 641.083 418.313 640.05C417.38 638.983 416.03 638.45 414.263 638.45C412.296 638.45 410.73 639.067 409.563 640.3C408.396 641.5 407.813 643.3 407.813 645.7V659H400.013V632.1H407.463V635.25C408.496 634.117 409.78 633.25 411.313 632.65C412.846 632.017 414.53 631.7 416.363 631.7ZM463.126 632.1V654.5C463.126 659.433 461.843 663.1 459.276 665.5C456.71 667.9 452.96 669.1 448.026 669.1C445.426 669.1 442.96 668.783 440.626 668.15C438.293 667.517 436.36 666.6 434.826 665.4L437.926 659.8C439.06 660.733 440.493 661.467 442.226 662C443.96 662.567 445.693 662.85 447.426 662.85C450.126 662.85 452.11 662.233 453.376 661C454.676 659.8 455.326 657.967 455.326 655.5V654.35C453.293 656.583 450.46 657.7 446.826 657.7C444.36 657.7 442.093 657.167 440.026 656.1C437.993 655 436.376 653.467 435.176 651.5C433.976 649.533 433.376 647.267 433.376 644.7C433.376 642.133 433.976 639.867 435.176 637.9C436.376 635.933 437.993 634.417 440.026 633.35C442.093 632.25 444.36 631.7 446.826 631.7C450.726 631.7 453.693 632.983 455.726 635.55V632.1H463.126ZM448.376 651.3C450.443 651.3 452.126 650.7 453.426 649.5C454.76 648.267 455.426 646.667 455.426 644.7C455.426 642.733 454.76 641.15 453.426 639.95C452.126 638.717 450.443 638.1 448.376 638.1C446.31 638.1 444.61 638.717 443.276 639.95C441.943 641.15 441.276 642.733 441.276 644.7C441.276 646.667 441.943 648.267 443.276 649.5C444.61 650.7 446.31 651.3 448.376 651.3ZM470.886 621.9H478.686V659H470.886V621.9ZM486.425 632.1H494.225V659H486.425V632.1ZM490.325 628.35C488.892 628.35 487.725 627.933 486.825 627.1C485.925 626.267 485.475 625.233 485.475 624C485.475 622.767 485.925 621.733 486.825 620.9C487.725 620.067 488.892 619.65 490.325 619.65C491.759 619.65 492.925 620.05 493.825 620.85C494.725 621.65 495.175 622.65 495.175 623.85C495.175 625.15 494.725 626.233 493.825 627.1C492.925 627.933 491.759 628.35 490.325 628.35ZM511.014 659.4C508.781 659.4 506.598 659.133 504.464 658.6C502.331 658.033 500.631 657.333 499.364 656.5L501.964 650.9C503.164 651.667 504.614 652.3 506.314 652.8C508.014 653.267 509.681 653.5 511.314 653.5C514.614 653.5 516.264 652.683 516.264 651.05C516.264 650.283 515.814 649.733 514.914 649.4C514.014 649.067 512.631 648.783 510.764 648.55C508.564 648.217 506.748 647.833 505.314 647.4C503.881 646.967 502.631 646.2 501.564 645.1C500.531 644 500.014 642.433 500.014 640.4C500.014 638.7 500.498 637.2 501.464 635.9C502.464 634.567 503.898 633.533 505.764 632.8C507.664 632.067 509.898 631.7 512.464 631.7C514.364 631.7 516.248 631.917 518.114 632.35C520.014 632.75 521.581 633.317 522.814 634.05L520.214 639.6C517.848 638.267 515.264 637.6 512.464 637.6C510.798 637.6 509.548 637.833 508.714 638.3C507.881 638.767 507.464 639.367 507.464 640.1C507.464 640.933 507.914 641.517 508.814 641.85C509.714 642.183 511.148 642.5 513.114 642.8C515.314 643.167 517.114 643.567 518.514 644C519.914 644.4 521.131 645.15 522.164 646.25C523.198 647.35 523.714 648.883 523.714 650.85C523.714 652.517 523.214 654 522.214 655.3C521.214 656.6 519.748 657.617 517.814 658.35C515.914 659.05 513.648 659.4 511.014 659.4ZM545.377 631.7C548.71 631.7 551.393 632.7 553.427 634.7C555.493 636.7 556.527 639.667 556.527 643.6V659H548.727V644.8C548.727 642.667 548.26 641.083 547.327 640.05C546.393 638.983 545.043 638.45 543.277 638.45C541.31 638.45 539.743 639.067 538.577 640.3C537.41 641.5 536.827 643.3 536.827 645.7V659H529.027V621.9H536.827V634.9C537.86 633.867 539.11 633.083 540.577 632.55C542.043 631.983 543.643 631.7 545.377 631.7ZM191.185 694.1L181.435 721H173.935L167.885 704.3L161.635 721H154.135L144.435 694.1H151.785L158.135 712.3L164.735 694.1H171.335L177.735 712.3L184.285 694.1H191.185ZM195.311 694.1H203.111V721H195.311V694.1ZM199.211 690.35C197.778 690.35 196.611 689.933 195.711 689.1C194.811 688.267 194.361 687.233 194.361 686C194.361 684.767 194.811 683.733 195.711 682.9C196.611 682.067 197.778 681.65 199.211 681.65C200.644 681.65 201.811 682.05 202.711 682.85C203.611 683.65 204.061 684.65 204.061 685.85C204.061 687.15 203.611 688.233 202.711 689.1C201.811 689.933 200.644 690.35 199.211 690.35ZM228.2 719.7C227.433 720.267 226.483 720.7 225.35 721C224.25 721.267 223.083 721.4 221.85 721.4C218.65 721.4 216.167 720.583 214.4 718.95C212.667 717.317 211.8 714.917 211.8 711.75V700.7H207.65V694.7H211.8V688.15H219.6V694.7H226.3V700.7H219.6V711.65C219.6 712.783 219.883 713.667 220.45 714.3C221.05 714.9 221.883 715.2 222.95 715.2C224.183 715.2 225.233 714.867 226.1 714.2L228.2 719.7ZM249.429 693.7C252.762 693.7 255.445 694.7 257.479 696.7C259.545 698.7 260.579 701.667 260.579 705.6V721H252.779V706.8C252.779 704.667 252.312 703.083 251.379 702.05C250.445 700.983 249.095 700.45 247.329 700.45C245.362 700.45 243.795 701.067 242.629 702.3C241.462 703.5 240.879 705.3 240.879 707.7V721H233.079V683.9H240.879V696.9C241.912 695.867 243.162 695.083 244.629 694.55C246.095 693.983 247.695 693.7 249.429 693.7ZM317.259 693.7C320.626 693.7 323.292 694.7 325.259 696.7C327.259 698.667 328.259 701.633 328.259 705.6V721H320.459V706.8C320.459 704.667 320.009 703.083 319.109 702.05C318.242 700.983 316.992 700.45 315.359 700.45C313.526 700.45 312.076 701.05 311.009 702.25C309.942 703.417 309.409 705.167 309.409 707.5V721H301.609V706.8C301.609 702.567 299.909 700.45 296.509 700.45C294.709 700.45 293.276 701.05 292.209 702.25C291.142 703.417 290.609 705.167 290.609 707.5V721H282.809V694.1H290.259V697.2C291.259 696.067 292.476 695.2 293.909 694.6C295.376 694 296.976 693.7 298.709 693.7C300.609 693.7 302.326 694.083 303.859 694.85C305.392 695.583 306.626 696.667 307.559 698.1C308.659 696.7 310.042 695.617 311.709 694.85C313.409 694.083 315.259 693.7 317.259 693.7ZM361.962 694.1L349.812 722.65C348.579 725.75 347.045 727.933 345.212 729.2C343.412 730.467 341.229 731.1 338.662 731.1C337.262 731.1 335.879 730.883 334.512 730.45C333.145 730.017 332.029 729.417 331.162 728.65L334.012 723.1C334.612 723.633 335.295 724.05 336.062 724.35C336.862 724.65 337.645 724.8 338.412 724.8C339.479 724.8 340.345 724.533 341.012 724C341.679 723.5 342.279 722.65 342.812 721.45L342.912 721.2L331.262 694.1H339.312L346.862 712.35L354.462 694.1H361.962ZM407.005 694.1L395.655 721H387.605L376.305 694.1H384.355L391.805 712.4L399.505 694.1H407.005ZM410.688 694.1H418.488V721H410.688V694.1ZM414.588 690.35C413.155 690.35 411.988 689.933 411.088 689.1C410.188 688.267 409.738 687.233 409.738 686C409.738 684.767 410.188 683.733 411.088 682.9C411.988 682.067 413.155 681.65 414.588 681.65C416.021 681.65 417.188 682.05 418.088 682.85C418.988 683.65 419.438 684.65 419.438 685.85C419.438 687.15 418.988 688.233 418.088 689.1C417.188 689.933 416.021 690.35 414.588 690.35ZM453.627 683.9V721H446.177V717.9C444.244 720.233 441.444 721.4 437.777 721.4C435.244 721.4 432.944 720.833 430.877 719.7C428.844 718.567 427.244 716.95 426.077 714.85C424.91 712.75 424.327 710.317 424.327 707.55C424.327 704.783 424.91 702.35 426.077 700.25C427.244 698.15 428.844 696.533 430.877 695.4C432.944 694.267 435.244 693.7 437.777 693.7C441.21 693.7 443.894 694.783 445.827 696.95V683.9H453.627ZM439.127 715C441.094 715 442.727 714.333 444.027 713C445.327 711.633 445.977 709.817 445.977 707.55C445.977 705.283 445.327 703.483 444.027 702.15C442.727 700.783 441.094 700.1 439.127 700.1C437.127 700.1 435.477 700.783 434.177 702.15C432.877 703.483 432.227 705.283 432.227 707.55C432.227 709.817 432.877 711.633 434.177 713C435.477 714.333 437.127 715 439.127 715ZM487.696 707.65C487.696 707.75 487.646 708.45 487.546 709.75H467.196C467.563 711.417 468.429 712.733 469.796 713.7C471.163 714.667 472.863 715.15 474.896 715.15C476.296 715.15 477.529 714.95 478.596 714.55C479.696 714.117 480.713 713.45 481.646 712.55L485.796 717.05C483.263 719.95 479.563 721.4 474.696 721.4C471.663 721.4 468.979 720.817 466.646 719.65C464.313 718.45 462.513 716.8 461.246 714.7C459.979 712.6 459.346 710.217 459.346 707.55C459.346 704.917 459.963 702.55 461.196 700.45C462.463 698.317 464.179 696.667 466.346 695.5C468.546 694.3 470.996 693.7 473.696 693.7C476.329 693.7 478.713 694.267 480.846 695.4C482.979 696.533 484.646 698.167 485.846 700.3C487.079 702.4 487.696 704.85 487.696 707.65ZM473.746 699.6C471.979 699.6 470.496 700.1 469.296 701.1C468.096 702.1 467.363 703.467 467.096 705.2H480.346C480.079 703.5 479.346 702.15 478.146 701.15C476.946 700.117 475.479 699.6 473.746 699.6ZM506.189 721.4C503.356 721.4 500.806 720.817 498.539 719.65C496.306 718.45 494.556 716.8 493.289 714.7C492.022 712.6 491.389 710.217 491.389 707.55C491.389 704.883 492.022 702.5 493.289 700.4C494.556 698.3 496.306 696.667 498.539 695.5C500.806 694.3 503.356 693.7 506.189 693.7C509.022 693.7 511.556 694.3 513.789 695.5C516.022 696.667 517.772 698.3 519.039 700.4C520.306 702.5 520.939 704.883 520.939 707.55C520.939 710.217 520.306 712.6 519.039 714.7C517.772 716.8 516.022 718.45 513.789 719.65C511.556 720.817 509.022 721.4 506.189 721.4ZM506.189 715C508.189 715 509.822 714.333 511.089 713C512.389 711.633 513.039 709.817 513.039 707.55C513.039 705.283 512.389 703.483 511.089 702.15C509.822 700.783 508.189 700.1 506.189 700.1C504.189 700.1 502.539 700.783 501.239 702.15C499.939 703.483 499.289 705.283 499.289 707.55C499.289 709.817 499.939 711.633 501.239 713C502.539 714.333 504.189 715 506.189 715ZM535.703 721.4C533.469 721.4 531.286 721.133 529.153 720.6C527.019 720.033 525.319 719.333 524.053 718.5L526.653 712.9C527.853 713.667 529.303 714.3 531.003 714.8C532.703 715.267 534.369 715.5 536.003 715.5C539.303 715.5 540.953 714.683 540.953 713.05C540.953 712.283 540.503 711.733 539.603 711.4C538.703 711.067 537.319 710.783 535.453 710.55C533.253 710.217 531.436 709.833 530.003 709.4C528.569 708.967 527.319 708.2 526.253 707.1C525.219 706 524.703 704.433 524.703 702.4C524.703 700.7 525.186 699.2 526.153 697.9C527.153 696.567 528.586 695.533 530.453 694.8C532.353 694.067 534.586 693.7 537.153 693.7C539.053 693.7 540.936 693.917 542.803 694.35C544.703 694.75 546.269 695.317 547.503 696.05L544.903 701.6C542.536 700.267 539.953 699.6 537.153 699.6C535.486 699.6 534.236 699.833 533.403 700.3C532.569 700.767 532.153 701.367 532.153 702.1C532.153 702.933 532.603 703.517 533.503 703.85C534.403 704.183 535.836 704.5 537.803 704.8C540.003 705.167 541.803 705.567 543.203 706C544.603 706.4 545.819 707.15 546.853 708.25C547.886 709.35 548.403 710.883 548.403 712.85C548.403 714.517 547.903 716 546.903 717.3C545.903 718.6 544.436 719.617 542.503 720.35C540.603 721.05 538.336 721.4 535.703 721.4Z" fill="#2F2E44"/>
<path d="M251.975 67.325C251.975 67.375 251.95 67.725 251.9 68.375H241.725C241.908 69.2083 242.342 69.8667 243.025 70.35C243.708 70.8333 244.558 71.075 245.575 71.075C246.275 71.075 246.892 70.975 247.425 70.775C247.975 70.5583 248.483 70.225 248.95 69.775L251.025 72.025C249.758 73.475 247.908 74.2 245.475 74.2C243.958 74.2 242.617 73.9083 241.45 73.325C240.283 72.725 239.383 71.9 238.75 70.85C238.117 69.8 237.8 68.6083 237.8 67.275C237.8 65.9583 238.108 64.775 238.725 63.725C239.358 62.6583 240.217 61.8333 241.3 61.25C242.4 60.65 243.625 60.35 244.975 60.35C246.292 60.35 247.483 60.6333 248.55 61.2C249.617 61.7667 250.45 62.5833 251.05 63.65C251.667 64.7 251.975 65.925 251.975 67.325ZM245 63.3C244.117 63.3 243.375 63.55 242.775 64.05C242.175 64.55 241.808 65.2333 241.675 66.1H248.3C248.167 65.25 247.8 64.575 247.2 64.075C246.6 63.5583 245.867 63.3 245 63.3ZM262.996 60.35C264.663 60.35 266.005 60.85 267.021 61.85C268.055 62.85 268.571 64.3333 268.571 66.3V74H264.671V66.9C264.671 65.8333 264.438 65.0417 263.971 64.525C263.505 63.9917 262.83 63.725 261.946 63.725C260.963 63.725 260.18 64.0333 259.596 64.65C259.013 65.25 258.721 66.15 258.721 67.35V74H254.821V60.55H258.546V62.125C259.063 61.5583 259.705 61.125 260.471 60.825C261.238 60.5083 262.08 60.35 262.996 60.35ZM286.378 60.55V71.75C286.378 74.2167 285.736 76.05 284.453 77.25C283.17 78.45 281.295 79.05 278.828 79.05C277.528 79.05 276.295 78.8917 275.128 78.575C273.961 78.2583 272.995 77.8 272.228 77.2L273.778 74.4C274.345 74.8667 275.061 75.2333 275.928 75.5C276.795 75.7833 277.661 75.925 278.528 75.925C279.878 75.925 280.87 75.6167 281.503 75C282.153 74.4 282.478 73.4833 282.478 72.25V71.675C281.461 72.7917 280.045 73.35 278.228 73.35C276.995 73.35 275.861 73.0833 274.828 72.55C273.811 72 273.003 71.2333 272.403 70.25C271.803 69.2667 271.503 68.1333 271.503 66.85C271.503 65.5667 271.803 64.4333 272.403 63.45C273.003 62.4667 273.811 61.7083 274.828 61.175C275.861 60.625 276.995 60.35 278.228 60.35C280.178 60.35 281.661 60.9917 282.678 62.275V60.55H286.378ZM279.003 70.15C280.036 70.15 280.878 69.85 281.528 69.25C282.195 68.6333 282.528 67.8333 282.528 66.85C282.528 65.8667 282.195 65.075 281.528 64.475C280.878 63.8583 280.036 63.55 279.003 63.55C277.97 63.55 277.12 63.8583 276.453 64.475C275.786 65.075 275.453 65.8667 275.453 66.85C275.453 67.8333 275.786 68.6333 276.453 69.25C277.12 69.85 277.97 70.15 279.003 70.15ZM290.258 55.45H294.158V74H290.258V55.45ZM298.028 60.55H301.928V74H298.028V60.55ZM299.978 58.675C299.261 58.675 298.678 58.4667 298.228 58.05C297.778 57.6333 297.553 57.1167 297.553 56.5C297.553 55.8833 297.778 55.3667 298.228 54.95C298.678 54.5333 299.261 54.325 299.978 54.325C300.694 54.325 301.278 54.525 301.728 54.925C302.178 55.325 302.403 55.825 302.403 56.425C302.403 57.075 302.178 57.6167 301.728 58.05C301.278 58.4667 300.694 58.675 299.978 58.675ZM310.322 74.2C309.205 74.2 308.114 74.0667 307.047 73.8C305.98 73.5167 305.13 73.1667 304.497 72.75L305.797 69.95C306.397 70.3333 307.122 70.65 307.972 70.9C308.822 71.1333 309.655 71.25 310.472 71.25C312.122 71.25 312.947 70.8417 312.947 70.025C312.947 69.6417 312.722 69.3667 312.272 69.2C311.822 69.0333 311.13 68.8917 310.197 68.775C309.097 68.6083 308.189 68.4167 307.472 68.2C306.755 67.9833 306.13 67.6 305.597 67.05C305.08 66.5 304.822 65.7167 304.822 64.7C304.822 63.85 305.064 63.1 305.547 62.45C306.047 61.7833 306.764 61.2667 307.697 60.9C308.647 60.5333 309.764 60.35 311.047 60.35C311.997 60.35 312.939 60.4583 313.872 60.675C314.822 60.875 315.605 61.1583 316.222 61.525L314.922 64.3C313.739 63.6333 312.447 63.3 311.047 63.3C310.214 63.3 309.589 63.4167 309.172 63.65C308.755 63.8833 308.547 64.1833 308.547 64.55C308.547 64.9667 308.772 65.2583 309.222 65.425C309.672 65.5917 310.389 65.75 311.372 65.9C312.472 66.0833 313.372 66.2833 314.072 66.5C314.772 66.7 315.38 67.075 315.897 67.625C316.414 68.175 316.672 68.9417 316.672 69.925C316.672 70.7583 316.422 71.5 315.922 72.15C315.422 72.8 314.689 73.3083 313.722 73.675C312.772 74.025 311.639 74.2 310.322 74.2ZM327.503 60.35C329.17 60.35 330.512 60.85 331.528 61.85C332.562 62.85 333.078 64.3333 333.078 66.3V74H329.178V66.9C329.178 65.8333 328.945 65.0417 328.478 64.525C328.012 63.9917 327.337 63.725 326.453 63.725C325.47 63.725 324.687 64.0333 324.103 64.65C323.52 65.25 323.228 66.15 323.228 67.35V74H319.328V55.45H323.228V61.95C323.745 61.4333 324.37 61.0417 325.103 60.775C325.837 60.4917 326.637 60.35 327.503 60.35ZM345.038 60.35C346.705 60.35 348.047 60.85 349.063 61.85C350.097 62.85 350.613 64.3333 350.613 66.3V74H346.713V66.9C346.713 65.8333 346.48 65.0417 346.013 64.525C345.547 63.9917 344.872 63.725 343.988 63.725C343.005 63.725 342.222 64.0333 341.638 64.65C341.055 65.25 340.763 66.15 340.763 67.35V74H336.863V60.55H340.588V62.125C341.105 61.5583 341.747 61.125 342.513 60.825C343.28 60.5083 344.122 60.35 345.038 60.35ZM367.72 67.325C367.72 67.375 367.695 67.725 367.645 68.375H357.47C357.653 69.2083 358.087 69.8667 358.77 70.35C359.453 70.8333 360.303 71.075 361.32 71.075C362.02 71.075 362.637 70.975 363.17 70.775C363.72 70.5583 364.228 70.225 364.695 69.775L366.77 72.025C365.503 73.475 363.653 74.2 361.22 74.2C359.703 74.2 358.362 73.9083 357.195 73.325C356.028 72.725 355.128 71.9 354.495 70.85C353.862 69.8 353.545 68.6083 353.545 67.275C353.545 65.9583 353.853 64.775 354.47 63.725C355.103 62.6583 355.962 61.8333 357.045 61.25C358.145 60.65 359.37 60.35 360.72 60.35C362.037 60.35 363.228 60.6333 364.295 61.2C365.362 61.7667 366.195 62.5833 366.795 63.65C367.412 64.7 367.72 65.925 367.72 67.325ZM360.745 63.3C359.862 63.3 359.12 63.55 358.52 64.05C357.92 64.55 357.553 65.2333 357.42 66.1H364.045C363.912 65.25 363.545 64.575 362.945 64.075C362.345 63.5583 361.612 63.3 360.745 63.3ZM374.292 62.325C374.758 61.675 375.383 61.1833 376.167 60.85C376.967 60.5167 377.883 60.35 378.917 60.35V63.95C378.483 63.9167 378.192 63.9 378.042 63.9C376.925 63.9 376.05 64.2167 375.417 64.85C374.783 65.4667 374.467 66.4 374.467 67.65V74H370.567V60.55H374.292V62.325ZM395.063 55.45V74H391.338V72.45C390.372 73.6167 388.972 74.2 387.138 74.2C385.872 74.2 384.722 73.9167 383.688 73.35C382.672 72.7833 381.872 71.975 381.288 70.925C380.705 69.875 380.413 68.6583 380.413 67.275C380.413 65.8917 380.705 64.675 381.288 63.625C381.872 62.575 382.672 61.7667 383.688 61.2C384.722 60.6333 385.872 60.35 387.138 60.35C388.855 60.35 390.197 60.8917 391.163 61.975V55.45H395.063ZM387.813 71C388.797 71 389.613 70.6667 390.263 70C390.913 69.3167 391.238 68.4083 391.238 67.275C391.238 66.1417 390.913 65.2417 390.263 64.575C389.613 63.8917 388.797 63.55 387.813 63.55C386.813 63.55 385.988 63.8917 385.338 64.575C384.688 65.2417 384.363 66.1417 384.363 67.275C384.363 68.4083 384.688 69.3167 385.338 70C385.988 70.6667 386.813 71 387.813 71ZM400.398 74.2C399.715 74.2 399.14 73.9667 398.673 73.5C398.206 73.0333 397.973 72.45 397.973 71.75C397.973 71.0333 398.206 70.4583 398.673 70.025C399.14 69.575 399.715 69.35 400.398 69.35C401.081 69.35 401.656 69.575 402.123 70.025C402.59 70.4583 402.823 71.0333 402.823 71.75C402.823 72.45 402.59 73.0333 402.123 73.5C401.656 73.9667 401.081 74.2 400.398 74.2ZM411.945 74.2C410.528 74.2 409.253 73.9083 408.12 73.325C407.003 72.725 406.128 71.9 405.495 70.85C404.862 69.8 404.545 68.6083 404.545 67.275C404.545 65.9417 404.862 64.75 405.495 63.7C406.128 62.65 407.003 61.8333 408.12 61.25C409.253 60.65 410.528 60.35 411.945 60.35C413.362 60.35 414.628 60.65 415.745 61.25C416.862 61.8333 417.737 62.65 418.37 63.7C419.003 64.75 419.32 65.9417 419.32 67.275C419.32 68.6083 419.003 69.8 418.37 70.85C417.737 71.9 416.862 72.725 415.745 73.325C414.628 73.9083 413.362 74.2 411.945 74.2ZM411.945 71C412.945 71 413.762 70.6667 414.395 70C415.045 69.3167 415.37 68.4083 415.37 67.275C415.37 66.1417 415.045 65.2417 414.395 64.575C413.762 63.8917 412.945 63.55 411.945 63.55C410.945 63.55 410.12 63.8917 409.47 64.575C408.82 65.2417 408.495 66.1417 408.495 67.275C408.495 68.4083 408.82 69.3167 409.47 70C410.12 70.6667 410.945 71 411.945 71ZM425.902 62.325C426.369 61.675 426.994 61.1833 427.777 60.85C428.577 60.5167 429.494 60.35 430.527 60.35V63.95C430.094 63.9167 429.802 63.9 429.652 63.9C428.535 63.9 427.66 64.2167 427.027 64.85C426.394 65.4667 426.077 66.4 426.077 67.65V74H422.177V60.55H425.902V62.325ZM446.849 60.55V71.75C446.849 74.2167 446.207 76.05 444.924 77.25C443.64 78.45 441.765 79.05 439.299 79.05C437.999 79.05 436.765 78.8917 435.599 78.575C434.432 78.2583 433.465 77.8 432.699 77.2L434.249 74.4C434.815 74.8667 435.532 75.2333 436.399 75.5C437.265 75.7833 438.132 75.925 438.999 75.925C440.349 75.925 441.34 75.6167 441.974 75C442.624 74.4 442.949 73.4833 442.949 72.25V71.675C441.932 72.7917 440.515 73.35 438.699 73.35C437.465 73.35 436.332 73.0833 435.299 72.55C434.282 72 433.474 71.2333 432.874 70.25C432.274 69.2667 431.974 68.1333 431.974 66.85C431.974 65.5667 432.274 64.4333 432.874 63.45C433.474 62.4667 434.282 61.7083 435.299 61.175C436.332 60.625 437.465 60.35 438.699 60.35C440.649 60.35 442.132 60.9917 443.149 62.275V60.55H446.849ZM439.474 70.15C440.507 70.15 441.349 69.85 441.999 69.25C442.665 68.6333 442.999 67.8333 442.999 66.85C442.999 65.8667 442.665 65.075 441.999 64.475C441.349 63.8583 440.507 63.55 439.474 63.55C438.44 63.55 437.59 63.8583 436.924 64.475C436.257 65.075 435.924 65.8667 435.924 66.85C435.924 67.8333 436.257 68.6333 436.924 69.25C437.59 69.85 438.44 70.15 439.474 70.15Z" fill="white"/>
</g>
<defs>
<filter id="filter0_d" x="52" y="105" width="611.724" height="460" filterUnits="userSpaceOnUse" color-interpolation-filters="sRGB">
<feFlood flood-opacity="0" result="BackgroundImageFix"/>
<feColorMatrix in="SourceAlpha" type="matrix" values="0 0 0 0 0 0 0 0 0 0 0 0 0 0 0 0 0 0 127 0"/>
<feOffset dx="10" dy="-10"/>
<feGaussianBlur stdDeviation="15"/>
<feColorMatrix type="matrix" values="0 0 0 0 0.517647 0 0 0 0 0.517647 0 0 0 0 0.6 0 0 0 0.05 0"/>
<feBlend mode="normal" in2="BackgroundImageFix" result="effect1_dropShadow"/>
<feBlend mode="normal" in="SourceGraphic" in2="effect1_dropShadow" result="shape"/>
</filter>
<linearGradient id="paint0_linear" x1="215" y1="-170" x2="963.795" y2="332.897" gradientUnits="userSpaceOnUse">
<stop stop-color="white" stop-opacity="0.2"/>
<stop offset="1" stop-color="white" stop-opacity="0"/>
</linearGradient>
<linearGradient id="paint1_linear" x1="72" y1="544.838" x2="585.47" y2="405.81" gradientUnits="userSpaceOnUse">
<stop stop-color="white" stop-opacity="0.2"/>
<stop offset="1" stop-color="white" stop-opacity="0"/>
</linearGradient>
<clipPath id="clip0">
<rect width="926" height="695" fill="white" transform="translate(0 926) rotate(-90)"/>
</clipPath>
<clipPath id="clip1">
<rect width="551.724" height="400" fill="white" transform="translate(72 145)"/>
</clipPath>
</defs>
</svg>
