<svg width="1620" height="695" viewBox="0 0 1620 695" fill="none" xmlns="http://www.w3.org/2000/svg">
<g clip-path="url(#clip0)">
<rect width="1620" height="695" fill="white"/>
<path d="M140.625 321.55V330H105.395V284.5H139.78V292.95H115.86V302.83H136.985V311.02H115.86V321.55H140.625ZM170.193 294.51C174.527 294.51 178.015 295.81 180.658 298.41C183.345 301.01 184.688 304.867 184.688 309.98V330H174.548V311.54C174.548 308.767 173.942 306.708 172.728 305.365C171.515 303.978 169.76 303.285 167.463 303.285C164.907 303.285 162.87 304.087 161.353 305.69C159.837 307.25 159.078 309.59 159.078 312.71V330H148.938V295.03H158.623V299.125C159.967 297.652 161.635 296.525 163.628 295.745C165.622 294.922 167.81 294.51 170.193 294.51ZM194.53 295.03H204.67V330H194.53V295.03ZM199.6 290.155C197.736 290.155 196.22 289.613 195.05 288.53C193.88 287.447 193.295 286.103 193.295 284.5C193.295 282.897 193.88 281.553 195.05 280.47C196.22 279.387 197.736 278.845 199.6 278.845C201.463 278.845 202.98 279.365 204.15 280.405C205.32 281.445 205.905 282.745 205.905 284.305C205.905 285.995 205.32 287.403 204.15 288.53C202.98 289.613 201.463 290.155 199.6 290.155ZM259.516 294.51C263.892 294.51 267.359 295.81 269.916 298.41C272.516 300.967 273.816 304.823 273.816 309.98V330H263.676V311.54C263.676 308.767 263.091 306.708 261.921 305.365C260.794 303.978 259.169 303.285 257.046 303.285C254.662 303.285 252.777 304.065 251.391 305.625C250.004 307.142 249.311 309.417 249.311 312.45V330H239.171V311.54C239.171 306.037 236.961 303.285 232.541 303.285C230.201 303.285 228.337 304.065 226.951 305.625C225.564 307.142 224.871 309.417 224.871 312.45V330H214.731V295.03H224.416V299.06C225.716 297.587 227.297 296.46 229.161 295.68C231.067 294.9 233.147 294.51 235.401 294.51C237.871 294.51 240.102 295.008 242.096 296.005C244.089 296.958 245.692 298.367 246.906 300.23C248.336 298.41 250.134 297.002 252.301 296.005C254.511 295.008 256.916 294.51 259.516 294.51ZM337.323 295.03L322.568 330H312.103L297.413 295.03H307.878L317.563 318.82L327.573 295.03H337.323ZM342.11 295.03H352.25V330H342.11V295.03ZM347.18 290.155C345.317 290.155 343.8 289.613 342.63 288.53C341.46 287.447 340.875 286.103 340.875 284.5C340.875 282.897 341.46 281.553 342.63 280.47C343.8 279.387 345.317 278.845 347.18 278.845C349.044 278.845 350.56 279.365 351.73 280.405C352.9 281.445 353.485 282.745 353.485 284.305C353.485 285.995 352.9 287.403 351.73 288.53C350.56 289.613 349.044 290.155 347.18 290.155ZM384.866 328.31C383.869 329.047 382.634 329.61 381.161 330C379.731 330.347 378.214 330.52 376.611 330.52C372.451 330.52 369.223 329.458 366.926 327.335C364.673 325.212 363.546 322.092 363.546 317.975V303.61H358.151V295.81H363.546V287.295H373.686V295.81H382.396V303.61H373.686V317.845C373.686 319.318 374.054 320.467 374.791 321.29C375.571 322.07 376.654 322.46 378.041 322.46C379.644 322.46 381.009 322.027 382.136 321.16L384.866 328.31ZM405.313 294.51C410.73 294.51 414.89 295.81 417.793 298.41C420.696 300.967 422.148 304.845 422.148 310.045V330H412.658V325.645C410.751 328.895 407.198 330.52 401.998 330.52C399.311 330.52 396.971 330.065 394.978 329.155C393.028 328.245 391.533 326.988 390.493 325.385C389.453 323.782 388.933 321.962 388.933 319.925C388.933 316.675 390.146 314.118 392.573 312.255C395.043 310.392 398.835 309.46 403.948 309.46H412.008C412.008 307.25 411.336 305.56 409.993 304.39C408.65 303.177 406.635 302.57 403.948 302.57C402.085 302.57 400.243 302.873 398.423 303.48C396.646 304.043 395.13 304.823 393.873 305.82L390.233 298.735C392.14 297.392 394.415 296.352 397.058 295.615C399.745 294.878 402.496 294.51 405.313 294.51ZM404.533 323.695C406.266 323.695 407.805 323.305 409.148 322.525C410.491 321.702 411.445 320.51 412.008 318.95V315.375H405.053C400.893 315.375 398.813 316.74 398.813 319.47C398.813 320.77 399.311 321.81 400.308 322.59C401.348 323.327 402.756 323.695 404.533 323.695ZM466.611 312.645C466.611 312.775 466.546 313.685 466.416 315.375H439.961C440.438 317.542 441.565 319.253 443.341 320.51C445.118 321.767 447.328 322.395 449.971 322.395C451.791 322.395 453.395 322.135 454.781 321.615C456.211 321.052 457.533 320.185 458.746 319.015L464.141 324.865C460.848 328.635 456.038 330.52 449.711 330.52C445.768 330.52 442.28 329.762 439.246 328.245C436.213 326.685 433.873 324.54 432.226 321.81C430.58 319.08 429.756 315.982 429.756 312.515C429.756 309.092 430.558 306.015 432.161 303.285C433.808 300.512 436.04 298.367 438.856 296.85C441.716 295.29 444.901 294.51 448.411 294.51C451.835 294.51 454.933 295.247 457.706 296.72C460.48 298.193 462.646 300.317 464.206 303.09C465.81 305.82 466.611 309.005 466.611 312.645ZM448.476 302.18C446.18 302.18 444.251 302.83 442.691 304.13C441.131 305.43 440.178 307.207 439.831 309.46H457.056C456.71 307.25 455.756 305.495 454.196 304.195C452.636 302.852 450.73 302.18 448.476 302.18ZM528.3 295.03V330H518.68V325.84C517.337 327.357 515.734 328.527 513.87 329.35C512.007 330.13 509.992 330.52 507.825 330.52C503.232 330.52 499.592 329.198 496.905 326.555C494.219 323.912 492.875 319.99 492.875 314.79V295.03H503.015V313.295C503.015 318.928 505.377 321.745 510.1 321.745C512.527 321.745 514.477 320.965 515.95 319.405C517.424 317.802 518.16 315.44 518.16 312.32V295.03H528.3ZM548.029 299.645C549.243 297.955 550.868 296.677 552.904 295.81C554.984 294.943 557.368 294.51 560.054 294.51V303.87C558.928 303.783 558.169 303.74 557.779 303.74C554.876 303.74 552.601 304.563 550.954 306.21C549.308 307.813 548.484 310.24 548.484 313.49V330H538.344V295.03H548.029V299.645ZM587.989 294.51C592.322 294.51 595.81 295.81 598.454 298.41C601.14 301.01 602.484 304.867 602.484 309.98V330H592.344V311.54C592.344 308.767 591.737 306.708 590.524 305.365C589.31 303.978 587.555 303.285 585.259 303.285C582.702 303.285 580.665 304.087 579.149 305.69C577.632 307.25 576.874 309.59 576.874 312.71V330H566.734V295.03H576.419V299.125C577.762 297.652 579.43 296.525 581.424 295.745C583.417 294.922 585.605 294.51 587.989 294.51ZM626.43 294.51C631.847 294.51 636.007 295.81 638.91 298.41C641.813 300.967 643.265 304.845 643.265 310.045V330H633.775V325.645C631.868 328.895 628.315 330.52 623.115 330.52C620.428 330.52 618.088 330.065 616.095 329.155C614.145 328.245 612.65 326.988 611.61 325.385C610.57 323.782 610.05 321.962 610.05 319.925C610.05 316.675 611.263 314.118 613.69 312.255C616.16 310.392 619.952 309.46 625.065 309.46H633.125C633.125 307.25 632.453 305.56 631.11 304.39C629.767 303.177 627.752 302.57 625.065 302.57C623.202 302.57 621.36 302.873 619.54 303.48C617.763 304.043 616.247 304.823 614.99 305.82L611.35 298.735C613.257 297.392 615.532 296.352 618.175 295.615C620.862 294.878 623.613 294.51 626.43 294.51ZM625.65 323.695C627.383 323.695 628.922 323.305 630.265 322.525C631.608 321.702 632.562 320.51 633.125 318.95V315.375H626.17C622.01 315.375 619.93 316.74 619.93 319.47C619.93 320.77 620.428 321.81 621.425 322.59C622.465 323.327 623.873 323.695 625.65 323.695ZM127.235 409.31C126.238 410.047 125.003 410.61 123.53 411C122.1 411.347 120.583 411.52 118.98 411.52C114.82 411.52 111.592 410.458 109.295 408.335C107.042 406.212 105.915 403.092 105.915 398.975V384.61H100.52V376.81H105.915V368.295H116.055V376.81H124.765V384.61H116.055V398.845C116.055 400.318 116.423 401.467 117.16 402.29C117.94 403.07 119.023 403.46 120.41 403.46C122.013 403.46 123.378 403.027 124.505 402.16L127.235 409.31ZM133.577 376.03H143.717V411H133.577V376.03ZM138.647 371.155C136.784 371.155 135.267 370.613 134.097 369.53C132.927 368.447 132.342 367.103 132.342 365.5C132.342 363.897 132.927 362.553 134.097 361.47C135.267 360.387 136.784 359.845 138.647 359.845C140.51 359.845 142.027 360.365 143.197 361.405C144.367 362.445 144.952 363.745 144.952 365.305C144.952 366.995 144.367 368.403 143.197 369.53C142.027 370.613 140.51 371.155 138.647 371.155ZM175.033 375.51C179.366 375.51 182.855 376.81 185.498 379.41C188.185 382.01 189.528 385.867 189.528 390.98V411H179.388V392.54C179.388 389.767 178.781 387.708 177.568 386.365C176.355 384.978 174.6 384.285 172.303 384.285C169.746 384.285 167.71 385.087 166.193 386.69C164.676 388.25 163.918 390.59 163.918 393.71V411H153.778V376.03H163.463V380.125C164.806 378.652 166.475 377.525 168.468 376.745C170.461 375.922 172.65 375.51 175.033 375.51ZM216.65 411.52C212.923 411.52 209.565 410.762 206.575 409.245C203.628 407.685 201.31 405.54 199.62 402.81C197.973 400.08 197.15 396.982 197.15 393.515C197.15 390.048 197.973 386.95 199.62 384.22C201.31 381.49 203.628 379.367 206.575 377.85C209.565 376.29 212.923 375.51 216.65 375.51C220.333 375.51 223.54 376.29 226.27 377.85C229.043 379.367 231.058 381.555 232.315 384.415L224.45 388.64C222.63 385.433 220.008 383.83 216.585 383.83C213.942 383.83 211.753 384.697 210.02 386.43C208.287 388.163 207.42 390.525 207.42 393.515C207.42 396.505 208.287 398.867 210.02 400.6C211.753 402.333 213.942 403.2 216.585 403.2C220.052 403.2 222.673 401.597 224.45 398.39L232.315 402.68C231.058 405.453 229.043 407.62 226.27 409.18C223.54 410.74 220.333 411.52 216.65 411.52ZM238.803 376.03H248.943V411H238.803V376.03ZM243.873 371.155C242.01 371.155 240.493 370.613 239.323 369.53C238.153 368.447 237.568 367.103 237.568 365.5C237.568 363.897 238.153 362.553 239.323 361.47C240.493 360.387 242.01 359.845 243.873 359.845C245.737 359.845 247.253 360.365 248.423 361.405C249.593 362.445 250.178 363.745 250.178 365.305C250.178 366.995 249.593 368.403 248.423 369.53C247.253 370.613 245.737 371.155 243.873 371.155ZM294.624 362.77V411H284.939V406.97C282.426 410.003 278.786 411.52 274.019 411.52C270.726 411.52 267.736 410.783 265.049 409.31C262.406 407.837 260.326 405.735 258.809 403.005C257.293 400.275 256.534 397.112 256.534 393.515C256.534 389.918 257.293 386.755 258.809 384.025C260.326 381.295 262.406 379.193 265.049 377.72C267.736 376.247 270.726 375.51 274.019 375.51C278.483 375.51 281.971 376.918 284.484 379.735V362.77H294.624ZM275.774 403.2C278.331 403.2 280.454 402.333 282.144 400.6C283.834 398.823 284.679 396.462 284.679 393.515C284.679 390.568 283.834 388.228 282.144 386.495C280.454 384.718 278.331 383.83 275.774 383.83C273.174 383.83 271.029 384.718 269.339 386.495C267.649 388.228 266.804 390.568 266.804 393.515C266.804 396.462 267.649 398.823 269.339 400.6C271.029 402.333 273.174 403.2 275.774 403.2ZM339.889 376.03V411H330.269V406.84C328.926 408.357 327.322 409.527 325.459 410.35C323.596 411.13 321.581 411.52 319.414 411.52C314.821 411.52 311.181 410.198 308.494 407.555C305.807 404.912 304.464 400.99 304.464 395.79V376.03H314.604V394.295C314.604 399.928 316.966 402.745 321.689 402.745C324.116 402.745 326.066 401.965 327.539 400.405C329.012 398.802 329.749 396.44 329.749 393.32V376.03H339.889ZM371.188 375.51C375.521 375.51 379.01 376.81 381.653 379.41C384.34 382.01 385.683 385.867 385.683 390.98V411H375.543V392.54C375.543 389.767 374.936 387.708 373.723 386.365C372.51 384.978 370.755 384.285 368.458 384.285C365.901 384.285 363.865 385.087 362.348 386.69C360.831 388.25 360.073 390.59 360.073 393.71V411H349.933V376.03H359.618V380.125C360.961 378.652 362.63 377.525 364.623 376.745C366.616 375.922 368.805 375.51 371.188 375.51ZM418.08 409.31C417.083 410.047 415.848 410.61 414.375 411C412.945 411.347 411.428 411.52 409.825 411.52C405.665 411.52 402.436 410.458 400.14 408.335C397.886 406.212 396.76 403.092 396.76 398.975V384.61H391.365V376.81H396.76V368.295H406.9V376.81H415.61V384.61H406.9V398.845C406.9 400.318 407.268 401.467 408.005 402.29C408.785 403.07 409.868 403.46 411.255 403.46C412.858 403.46 414.223 403.027 415.35 402.16L418.08 409.31ZM457.585 375.51C463.001 375.51 467.161 376.81 470.065 379.41C472.968 381.967 474.42 385.845 474.42 391.045V411H464.93V406.645C463.023 409.895 459.47 411.52 454.27 411.52C451.583 411.52 449.243 411.065 447.25 410.155C445.3 409.245 443.805 407.988 442.765 406.385C441.725 404.782 441.205 402.962 441.205 400.925C441.205 397.675 442.418 395.118 444.845 393.255C447.315 391.392 451.106 390.46 456.22 390.46H464.28C464.28 388.25 463.608 386.56 462.265 385.39C460.921 384.177 458.906 383.57 456.22 383.57C454.356 383.57 452.515 383.873 450.695 384.48C448.918 385.043 447.401 385.823 446.145 386.82L442.505 379.735C444.411 378.392 446.686 377.352 449.33 376.615C452.016 375.878 454.768 375.51 457.585 375.51ZM456.805 404.695C458.538 404.695 460.076 404.305 461.42 403.525C462.763 402.702 463.716 401.51 464.28 399.95V396.375H457.325C453.165 396.375 451.085 397.74 451.085 400.47C451.085 401.77 451.583 402.81 452.58 403.59C453.62 404.327 455.028 404.695 456.805 404.695ZM529.032 375.51C533.409 375.51 536.875 376.81 539.432 379.41C542.032 381.967 543.332 385.823 543.332 390.98V411H533.192V392.54C533.192 389.767 532.607 387.708 531.437 386.365C530.31 384.978 528.685 384.285 526.562 384.285C524.179 384.285 522.294 385.065 520.907 386.625C519.52 388.142 518.827 390.417 518.827 393.45V411H508.687V392.54C508.687 387.037 506.477 384.285 502.057 384.285C499.717 384.285 497.854 385.065 496.467 386.625C495.08 388.142 494.387 390.417 494.387 393.45V411H484.247V376.03H493.932V380.06C495.232 378.587 496.814 377.46 498.677 376.68C500.584 375.9 502.664 375.51 504.917 375.51C507.387 375.51 509.619 376.008 511.612 377.005C513.605 377.958 515.209 379.367 516.422 381.23C517.852 379.41 519.65 378.002 521.817 377.005C524.027 376.008 526.432 375.51 529.032 375.51ZM587.707 393.645C587.707 393.775 587.642 394.685 587.512 396.375H561.057C561.533 398.542 562.66 400.253 564.437 401.51C566.213 402.767 568.423 403.395 571.067 403.395C572.887 403.395 574.49 403.135 575.877 402.615C577.307 402.052 578.628 401.185 579.842 400.015L585.237 405.865C581.943 409.635 577.133 411.52 570.807 411.52C566.863 411.52 563.375 410.762 560.342 409.245C557.308 407.685 554.968 405.54 553.322 402.81C551.675 400.08 550.852 396.982 550.852 393.515C550.852 390.092 551.653 387.015 553.257 384.285C554.903 381.512 557.135 379.367 559.952 377.85C562.812 376.29 565.997 375.51 569.507 375.51C572.93 375.51 576.028 376.247 578.802 377.72C581.575 379.193 583.742 381.317 585.302 384.09C586.905 386.82 587.707 390.005 587.707 393.645ZM569.572 383.18C567.275 383.18 565.347 383.83 563.787 385.13C562.227 386.43 561.273 388.207 560.927 390.46H578.152C577.805 388.25 576.852 386.495 575.292 385.195C573.732 383.852 571.825 383.18 569.572 383.18ZM617.663 409.31C616.666 410.047 615.431 410.61 613.958 411C612.528 411.347 611.011 411.52 609.408 411.52C605.248 411.52 602.019 410.458 599.723 408.335C597.469 406.212 596.343 403.092 596.343 398.975V384.61H590.948V376.81H596.343V368.295H606.483V376.81H615.193V384.61H606.483V398.845C606.483 400.318 606.851 401.467 607.588 402.29C608.368 403.07 609.451 403.46 610.838 403.46C612.441 403.46 613.806 403.027 614.933 402.16L617.663 409.31Z" fill="#2F2E44"/>
<path d="M117.97 95.99C117.97 96.05 117.94 96.47 117.88 97.25H105.67C105.89 98.25 106.41 99.04 107.23 99.62C108.05 100.2 109.07 100.49 110.29 100.49C111.13 100.49 111.87 100.37 112.51 100.13C113.17 99.87 113.78 99.47 114.34 98.93L116.83 101.63C115.31 103.37 113.09 104.24 110.17 104.24C108.35 104.24 106.74 103.89 105.34 103.19C103.94 102.47 102.86 101.48 102.1 100.22C101.34 98.96 100.96 97.53 100.96 95.93C100.96 94.35 101.33 92.93 102.07 91.67C102.83 90.39 103.86 89.4 105.16 88.7C106.48 87.98 107.95 87.62 109.57 87.62C111.15 87.62 112.58 87.96 113.86 88.64C115.14 89.32 116.14 90.3 116.86 91.58C117.6 92.84 117.97 94.31 117.97 95.99ZM109.6 91.16C108.54 91.16 107.65 91.46 106.93 92.06C106.21 92.66 105.77 93.48 105.61 94.52H113.56C113.4 93.5 112.96 92.69 112.24 92.09C111.52 91.47 110.64 91.16 109.6 91.16ZM131.196 87.62C133.196 87.62 134.806 88.22 136.026 89.42C137.266 90.62 137.886 92.4 137.886 94.76V104H133.206V95.48C133.206 94.2 132.926 93.25 132.366 92.63C131.806 91.99 130.996 91.67 129.936 91.67C128.756 91.67 127.816 92.04 127.116 92.78C126.416 93.5 126.066 94.58 126.066 96.02V104H121.386V87.86H125.856V89.75C126.476 89.07 127.246 88.55 128.166 88.19C129.086 87.81 130.096 87.62 131.196 87.62ZM159.254 87.86V101.3C159.254 104.26 158.484 106.46 156.944 107.9C155.404 109.34 153.154 110.06 150.194 110.06C148.634 110.06 147.154 109.87 145.754 109.49C144.354 109.11 143.194 108.56 142.274 107.84L144.134 104.48C144.814 105.04 145.674 105.48 146.714 105.8C147.754 106.14 148.794 106.31 149.834 106.31C151.454 106.31 152.644 105.94 153.404 105.2C154.184 104.48 154.574 103.38 154.574 101.9V101.21C153.354 102.55 151.654 103.22 149.474 103.22C147.994 103.22 146.634 102.9 145.394 102.26C144.174 101.6 143.204 100.68 142.484 99.5C141.764 98.32 141.404 96.96 141.404 95.42C141.404 93.88 141.764 92.52 142.484 91.34C143.204 90.16 144.174 89.25 145.394 88.61C146.634 87.95 147.994 87.62 149.474 87.62C151.814 87.62 153.594 88.39 154.814 89.93V87.86H159.254ZM150.404 99.38C151.644 99.38 152.654 99.02 153.434 98.3C154.234 97.56 154.634 96.6 154.634 95.42C154.634 94.24 154.234 93.29 153.434 92.57C152.654 91.83 151.644 91.46 150.404 91.46C149.164 91.46 148.144 91.83 147.344 92.57C146.544 93.29 146.144 94.24 146.144 95.42C146.144 96.6 146.544 97.56 147.344 98.3C148.144 99.02 149.164 99.38 150.404 99.38ZM163.91 81.74H168.59V104H163.91V81.74ZM173.233 87.86H177.913V104H173.233V87.86ZM175.573 85.61C174.713 85.61 174.013 85.36 173.473 84.86C172.933 84.36 172.663 83.74 172.663 83C172.663 82.26 172.933 81.64 173.473 81.14C174.013 80.64 174.713 80.39 175.573 80.39C176.433 80.39 177.133 80.63 177.673 81.11C178.213 81.59 178.483 82.19 178.483 82.91C178.483 83.69 178.213 84.34 177.673 84.86C177.133 85.36 176.433 85.61 175.573 85.61ZM187.986 104.24C186.646 104.24 185.336 104.08 184.056 103.76C182.776 103.42 181.756 103 180.996 102.5L182.556 99.14C183.276 99.6 184.146 99.98 185.166 100.28C186.186 100.56 187.186 100.7 188.166 100.7C190.146 100.7 191.136 100.21 191.136 99.23C191.136 98.77 190.866 98.44 190.326 98.24C189.786 98.04 188.956 97.87 187.836 97.73C186.516 97.53 185.426 97.3 184.566 97.04C183.706 96.78 182.956 96.32 182.316 95.66C181.696 95 181.386 94.06 181.386 92.84C181.386 91.82 181.676 90.92 182.256 90.14C182.856 89.34 183.716 88.72 184.836 88.28C185.976 87.84 187.316 87.62 188.856 87.62C189.996 87.62 191.126 87.75 192.246 88.01C193.386 88.25 194.326 88.59 195.066 89.03L193.506 92.36C192.086 91.56 190.536 91.16 188.856 91.16C187.856 91.16 187.106 91.3 186.606 91.58C186.106 91.86 185.856 92.22 185.856 92.66C185.856 93.16 186.126 93.51 186.666 93.71C187.206 93.91 188.066 94.1 189.246 94.28C190.566 94.5 191.646 94.74 192.486 95C193.326 95.24 194.056 95.69 194.676 96.35C195.296 97.01 195.606 97.93 195.606 99.11C195.606 100.11 195.306 101 194.706 101.78C194.106 102.56 193.226 103.17 192.066 103.61C190.926 104.03 189.566 104.24 187.986 104.24ZM208.604 87.62C210.604 87.62 212.214 88.22 213.434 89.42C214.674 90.62 215.294 92.4 215.294 94.76V104H210.614V95.48C210.614 94.2 210.334 93.25 209.774 92.63C209.214 91.99 208.404 91.67 207.344 91.67C206.164 91.67 205.224 92.04 204.524 92.78C203.824 93.5 203.474 94.58 203.474 96.02V104H198.794V81.74H203.474V89.54C204.094 88.92 204.844 88.45 205.724 88.13C206.604 87.79 207.564 87.62 208.604 87.62ZM229.646 87.62C231.646 87.62 233.256 88.22 234.476 89.42C235.716 90.62 236.336 92.4 236.336 94.76V104H231.656V95.48C231.656 94.2 231.376 93.25 230.816 92.63C230.256 91.99 229.446 91.67 228.386 91.67C227.206 91.67 226.266 92.04 225.566 92.78C224.866 93.5 224.516 94.58 224.516 96.02V104H219.836V87.86H224.306V89.75C224.926 89.07 225.696 88.55 226.616 88.19C227.536 87.81 228.546 87.62 229.646 87.62ZM256.864 95.99C256.864 96.05 256.834 96.47 256.774 97.25H244.564C244.784 98.25 245.304 99.04 246.124 99.62C246.944 100.2 247.964 100.49 249.184 100.49C250.024 100.49 250.764 100.37 251.404 100.13C252.064 99.87 252.674 99.47 253.234 98.93L255.724 101.63C254.204 103.37 251.984 104.24 249.064 104.24C247.244 104.24 245.634 103.89 244.234 103.19C242.834 102.47 241.754 101.48 240.994 100.22C240.234 98.96 239.854 97.53 239.854 95.93C239.854 94.35 240.224 92.93 240.964 91.67C241.724 90.39 242.754 89.4 244.054 88.7C245.374 87.98 246.844 87.62 248.464 87.62C250.044 87.62 251.474 87.96 252.754 88.64C254.034 89.32 255.034 90.3 255.754 91.58C256.494 92.84 256.864 94.31 256.864 95.99ZM248.494 91.16C247.434 91.16 246.544 91.46 245.824 92.06C245.104 92.66 244.664 93.48 244.504 94.52H252.454C252.294 93.5 251.854 92.69 251.134 92.09C250.414 91.47 249.534 91.16 248.494 91.16ZM264.75 89.99C265.31 89.21 266.06 88.62 267 88.22C267.96 87.82 269.06 87.62 270.3 87.62V91.94C269.78 91.9 269.43 91.88 269.25 91.88C267.91 91.88 266.86 92.26 266.1 93.02C265.34 93.76 264.96 94.88 264.96 96.38V104H260.28V87.86H264.75V89.99ZM289.676 81.74V104H285.206V102.14C284.046 103.54 282.366 104.24 280.166 104.24C278.646 104.24 277.266 103.9 276.026 103.22C274.806 102.54 273.846 101.57 273.146 100.31C272.446 99.05 272.096 97.59 272.096 95.93C272.096 94.27 272.446 92.81 273.146 91.55C273.846 90.29 274.806 89.32 276.026 88.64C277.266 87.96 278.646 87.62 280.166 87.62C282.226 87.62 283.836 88.27 284.996 89.57V81.74H289.676ZM280.976 100.4C282.156 100.4 283.136 100 283.916 99.2C284.696 98.38 285.086 97.29 285.086 95.93C285.086 94.57 284.696 93.49 283.916 92.69C283.136 91.87 282.156 91.46 280.976 91.46C279.776 91.46 278.786 91.87 278.006 92.69C277.226 93.49 276.836 94.57 276.836 95.93C276.836 97.29 277.226 98.38 278.006 99.2C278.786 100 279.776 100.4 280.976 100.4ZM296.078 104.24C295.258 104.24 294.568 103.96 294.008 103.4C293.448 102.84 293.168 102.14 293.168 101.3C293.168 100.44 293.448 99.75 294.008 99.23C294.568 98.69 295.258 98.42 296.078 98.42C296.898 98.42 297.588 98.69 298.148 99.23C298.708 99.75 298.988 100.44 298.988 101.3C298.988 102.14 298.708 102.84 298.148 103.4C297.588 103.96 296.898 104.24 296.078 104.24ZM309.934 104.24C308.234 104.24 306.704 103.89 305.344 103.19C304.004 102.47 302.954 101.48 302.194 100.22C301.434 98.96 301.054 97.53 301.054 95.93C301.054 94.33 301.434 92.9 302.194 91.64C302.954 90.38 304.004 89.4 305.344 88.7C306.704 87.98 308.234 87.62 309.934 87.62C311.634 87.62 313.154 87.98 314.494 88.7C315.834 89.4 316.884 90.38 317.644 91.64C318.404 92.9 318.784 94.33 318.784 95.93C318.784 97.53 318.404 98.96 317.644 100.22C316.884 101.48 315.834 102.47 314.494 103.19C313.154 103.89 311.634 104.24 309.934 104.24ZM309.934 100.4C311.134 100.4 312.114 100 312.874 99.2C313.654 98.38 314.044 97.29 314.044 95.93C314.044 94.57 313.654 93.49 312.874 92.69C312.114 91.87 311.134 91.46 309.934 91.46C308.734 91.46 307.744 91.87 306.964 92.69C306.184 93.49 305.794 94.57 305.794 95.93C305.794 97.29 306.184 98.38 306.964 99.2C307.744 100 308.734 100.4 309.934 100.4ZM326.682 89.99C327.242 89.21 327.992 88.62 328.932 88.22C329.892 87.82 330.992 87.62 332.232 87.62V91.94C331.712 91.9 331.362 91.88 331.182 91.88C329.842 91.88 328.792 92.26 328.032 93.02C327.272 93.76 326.892 94.88 326.892 96.38V104H322.212V87.86H326.682V89.99ZM351.819 87.86V101.3C351.819 104.26 351.049 106.46 349.509 107.9C347.969 109.34 345.719 110.06 342.759 110.06C341.199 110.06 339.719 109.87 338.319 109.49C336.919 109.11 335.759 108.56 334.839 107.84L336.699 104.48C337.379 105.04 338.239 105.48 339.279 105.8C340.319 106.14 341.359 106.31 342.399 106.31C344.019 106.31 345.209 105.94 345.969 105.2C346.749 104.48 347.139 103.38 347.139 101.9V101.21C345.919 102.55 344.219 103.22 342.039 103.22C340.559 103.22 339.199 102.9 337.959 102.26C336.739 101.6 335.769 100.68 335.049 99.5C334.329 98.32 333.969 96.96 333.969 95.42C333.969 93.88 334.329 92.52 335.049 91.34C335.769 90.16 336.739 89.25 337.959 88.61C339.199 87.95 340.559 87.62 342.039 87.62C344.379 87.62 346.159 88.39 347.379 89.93V87.86H351.819ZM342.969 99.38C344.209 99.38 345.219 99.02 345.999 98.3C346.799 97.56 347.199 96.6 347.199 95.42C347.199 94.24 346.799 93.29 345.999 92.57C345.219 91.83 344.209 91.46 342.969 91.46C341.729 91.46 340.709 91.83 339.909 92.57C339.109 93.29 338.709 94.24 338.709 95.42C338.709 96.6 339.109 97.56 339.909 98.3C340.709 99.02 341.729 99.38 342.969 99.38Z" fill="#848499"/>
<g filter="url(#filter0_d)">
<path fill-rule="evenodd" clip-rule="evenodd" d="M966.08 193.278L1390.38 617.581C1277.6 633.609 1158.92 598.248 1072.17 511.495C985.413 424.743 950.051 306.061 966.08 193.278Z" fill="#FF99B0"/>
<path fill-rule="evenodd" clip-rule="evenodd" d="M1024.44 39.5023L1544.16 559.224C1497.02 590.455 1444.38 609.907 1390.38 617.581L966.08 193.278C973.753 139.283 993.205 86.6414 1024.44 39.5023Z" fill="#FF8CA6"/>
<path fill-rule="evenodd" clip-rule="evenodd" d="M1130.5 -66.5635L1650.22 453.158C1636.57 473.772 1620.66 493.333 1602.5 511.495C1584.33 529.657 1564.77 545.567 1544.16 559.224L1024.44 39.5025C1038.09 18.8887 1054 -0.672773 1072.16 -18.8348C1090.33 -36.9968 1109.89 -52.9063 1130.5 -66.5635Z" fill="#FF809C"/>
<path fill-rule="evenodd" clip-rule="evenodd" d="M1284.28 -124.92L1708.58 299.383C1700.91 353.377 1681.45 406.019 1650.22 453.158L1130.5 -66.5635C1177.64 -97.7943 1230.28 -117.246 1284.28 -124.92Z" fill="#FF7392"/>
<path fill-rule="evenodd" clip-rule="evenodd" d="M1708.58 299.383C1724.61 186.6 1689.25 67.9178 1602.5 -18.8345C1515.74 -105.587 1397.06 -140.949 1284.28 -124.92L1708.58 299.383Z" fill="#FF6688"/>
<circle cx="1337.33" cy="246.33" r="375" transform="rotate(-45 1337.33 246.33)" fill="url(#paint0_linear)"/>
</g>
<g filter="url(#filter1_d)">
<path d="M1354.59 371.286L1350.88 382.407C1350.88 382.407 1327.71 409.281 1344.39 412.988C1361.07 416.695 1362.93 384.26 1362.93 384.26L1367.56 374.993L1354.59 371.286Z" fill="#FFB8B8"/>
<path d="M1380.53 236.914C1380.53 236.914 1374.97 235.987 1373.12 258.228C1371.27 280.469 1370.34 319.39 1370.34 319.39L1349.03 374.066L1375.9 382.406L1388.87 320.317L1380.53 236.914Z" fill="#575A89"/>
<path d="M1368.49 567.748L1365.71 585.356H1390.73L1389.8 567.748H1368.49Z" fill="#FFB8B8"/>
<path d="M1449.11 587.209L1447.26 611.303L1463.94 613.157V585.355L1449.11 587.209Z" fill="#FFB8B8"/>
<path d="M1378.68 337.924L1357.37 460.249L1362.93 571.454H1391.65V470.443L1419.46 418.548L1441.7 483.417L1447.26 591.842L1478.76 586.281L1471.35 480.637C1471.35 480.637 1465.79 339.778 1460.23 337.924C1454.67 336.071 1378.68 337.924 1378.68 337.924Z" fill="#333244"/>
<path d="M1371.27 579.795C1371.27 579.795 1371.27 570.528 1363.85 576.088C1356.44 581.648 1347.17 591.842 1347.17 591.842C1347.17 591.842 1311.96 611.303 1336.98 614.083C1362 616.863 1377.75 601.109 1377.75 601.109L1380.53 603.889C1380.53 603.889 1395.36 601.109 1395.36 597.402C1395.25 594.296 1394.94 591.201 1394.43 588.135C1394.43 588.135 1392.49 572.416 1390.22 575.642C1387.95 578.868 1374.97 585.355 1371.27 579.795Z" fill="#333244"/>
<path d="M1464.86 605.743C1464.86 605.743 1448.18 597.402 1444.48 604.816C1440.77 612.23 1437.99 627.057 1437.99 627.057C1437.99 627.057 1425.94 650.224 1447.26 648.371C1468.57 646.518 1467.64 634.47 1467.64 631.69C1467.64 628.91 1466.72 622.423 1467.64 619.643C1468.57 616.863 1464.86 605.743 1464.86 605.743Z" fill="#333244"/>
<path d="M1428.26 200.309C1442.59 200.309 1454.21 188.691 1454.21 174.361C1454.21 160.03 1442.59 148.413 1428.26 148.413C1413.93 148.413 1402.31 160.03 1402.31 174.361C1402.31 188.691 1413.93 200.309 1428.26 200.309Z" fill="#FFB8B8"/>
<path d="M1411.11 186.872L1410.19 220.233L1443.55 217.453V186.872H1411.11Z" fill="#FFB8B8"/>
<path d="M1445.4 200.772C1445.4 200.772 1429.65 210.966 1425.02 212.82C1420.38 214.673 1410.19 205.406 1410.19 205.406C1410.19 205.406 1407.41 207.259 1407.41 209.113C1407.41 210.966 1405.55 218.38 1405.55 218.38L1383.31 291.59L1385.17 343.485C1385.17 343.485 1452.82 349.972 1460.23 341.632C1467.64 333.291 1456.52 213.746 1456.52 213.746L1445.4 200.772Z" fill="#E6E6E6"/>
<path d="M1506.57 421.328C1496.37 427.815 1463.01 436.155 1463.01 436.155C1463.01 436.155 1459.37 357.71 1446.33 345.338C1433.37 333.023 1412.2 244.235 1431.23 228.796C1431.32 228.716 1431.41 228.642 1431.5 228.574L1443.55 200.772C1443.55 200.772 1445.4 197.992 1449.11 201.699C1452.11 204.912 1454.89 208.317 1457.45 211.893L1457.98 212.106L1483.4 222.087L1473.2 267.495C1473.2 267.495 1516.76 414.841 1506.57 421.328Z" fill="#575A89"/>
<path opacity="0.1" d="M1457.98 212.106L1450.96 237.841L1431.23 228.796C1431.32 228.716 1431.41 228.642 1431.5 228.574L1443.55 200.772C1443.55 200.772 1445.4 197.992 1449.11 201.699C1452.11 204.912 1454.89 208.317 1457.45 211.893L1457.98 212.106Z" fill="black"/>
<path d="M1409.73 204.942L1406.95 236.45L1406.8 237.887L1385.63 439.399C1385.63 439.399 1367.1 432.912 1360.61 425.498C1354.12 418.085 1375.44 335.608 1375.44 335.608L1377.29 231.817C1377.29 231.817 1393.73 220.242 1400.45 213.885C1402.02 212.402 1403.06 211.207 1403.24 210.503C1404.16 206.796 1409.73 204.942 1409.73 204.942Z" fill="#575A89"/>
<path opacity="0.1" d="M1409.73 204.942L1406.95 236.45L1406.8 237.887L1393.51 235.987L1400.45 213.885C1402.02 212.402 1403.06 211.207 1403.24 210.503C1404.16 206.796 1409.73 204.942 1409.73 204.942Z" fill="black"/>
<path d="M1459.3 361.092L1449.11 370.359C1449.11 370.359 1453.74 389.82 1459.3 390.746C1459.3 390.746 1463.01 385.186 1463.94 380.553C1464.86 375.919 1473.2 371.286 1473.2 371.286L1459.3 361.092Z" fill="#FFB8B8"/>
<path d="M1471.35 220.233L1483.4 222.087C1483.4 222.087 1523.25 289.736 1518.61 313.831C1513.98 337.925 1476.91 379.627 1476.91 379.627L1453.74 361.093L1488.03 314.757L1470.42 259.155L1471.35 220.233Z" fill="#575A89"/>
<path d="M1402.25 177.276C1402.25 177.276 1402.25 154.393 1407.81 149.192H1414.49C1414.49 149.192 1422.27 137.75 1432.28 141.911C1442.29 146.071 1458.97 153.352 1457.86 164.794C1456.75 176.236 1453.28 183.628 1453.28 183.628C1453.28 183.628 1451.43 183.628 1447.3 177.408C1441.78 169.097 1454.52 171.688 1437.84 168.567C1421.16 165.447 1411.15 161.286 1408.93 165.447C1406.7 169.607 1402.25 177.276 1402.25 177.276Z" fill="#2F2E41"/>
<path d="M1414.38 150.745C1414.38 150.745 1415.27 144.057 1418.92 142.617L1414.38 150.745Z" fill="#2F2E41"/>
<path d="M1414.36 152.121C1414.36 152.121 1412.5 145.635 1415.28 142.854L1414.36 152.121Z" fill="#2F2E41"/>
<path d="M1276.74 95H766C760.477 95 756 99.4772 756 105V422.395C756 427.918 760.477 432.395 766 432.395H1276.74C1282.27 432.395 1286.74 427.918 1286.74 422.395V105C1286.74 99.4772 1282.27 95 1276.74 95Z" fill="#EBEEF2"/>
<path d="M1286.74 120.953V111.684H1270.42V95H1263.33V111.684H779.415V95H772.32V111.684H756V120.953H772.32V406.441H756V415.711H772.32V432.395H779.415V415.711H1263.33V432.395H1270.42V415.711H1286.74V406.441H1270.42V120.953H1286.74ZM1263.33 406.441H779.415V120.953H1263.33L1263.33 406.441Z" fill="#D0D4D9"/>
<path d="M1166.68 139.481H1067.38C1064.62 139.481 1062.38 141.72 1062.38 144.481V238.448C1062.38 241.209 1064.62 243.448 1067.38 243.448H1166.68C1169.44 243.448 1171.68 241.209 1171.68 238.448V144.481C1171.68 141.72 1169.44 139.481 1166.68 139.481Z" fill="#C2C6CC"/>
<path d="M1156.76 151.902H1077.3C1075.92 151.902 1074.8 153.022 1074.8 154.402V213.987C1074.8 215.367 1075.92 216.487 1077.3 216.487H1156.76C1158.14 216.487 1159.26 215.367 1159.26 213.987V154.402C1159.26 153.022 1158.14 151.902 1156.76 151.902Z" fill="#6C63FF"/>
<path d="M1120.49 162.516H1095.89C1094.51 162.516 1093.39 163.635 1093.39 165.016V189.624C1093.39 191.005 1094.51 192.124 1095.89 192.124H1120.49C1121.88 192.124 1122.99 191.005 1122.99 189.624V165.016C1122.99 163.635 1121.88 162.516 1120.49 162.516Z" fill="#F2F2F2"/>
<path d="M1107.22 169.92C1105.84 169.92 1104.72 171.039 1104.72 172.42V203.373C1104.72 204.754 1105.84 205.873 1107.22 205.873H1138.17C1139.55 205.873 1140.67 204.754 1140.67 203.373V172.42C1140.67 171.039 1139.55 169.92 1138.17 169.92H1107.22ZM1139.11 201.813C1139.11 203.194 1137.99 204.313 1136.61 204.313H1108.78C1107.4 204.313 1106.28 203.194 1106.28 201.813V173.979C1106.28 172.599 1107.4 171.479 1108.78 171.479H1136.61C1137.99 171.479 1139.11 172.599 1139.11 173.979V201.813Z" fill="#3F3D56"/>
<path d="M1119.45 222.896H1075.93C1075.26 222.896 1074.72 223.438 1074.72 224.105C1074.72 224.773 1075.26 225.314 1075.93 225.314H1119.45C1120.12 225.314 1120.66 224.773 1120.66 224.105C1120.66 223.438 1120.12 222.896 1119.45 222.896Z" fill="#F2F2F2"/>
<path d="M1117.03 150.362C1119.7 150.362 1121.87 148.197 1121.87 145.526C1121.87 142.855 1119.7 140.69 1117.03 140.69C1114.36 140.69 1112.19 142.855 1112.19 145.526C1112.19 148.197 1114.36 150.362 1117.03 150.362Z" fill="#3F3D56"/>
<path d="M1207.9 289.433H1108.6C1105.84 289.433 1103.6 291.671 1103.6 294.433V388.399C1103.6 391.16 1105.84 393.399 1108.6 393.399H1207.9C1210.66 393.399 1212.9 391.16 1212.9 388.399V294.433C1212.9 291.671 1210.66 289.433 1207.9 289.433Z" fill="#C2C6CC"/>
<path d="M1197.98 301.853H1118.52C1117.14 301.853 1116.02 302.972 1116.02 304.353V363.937C1116.02 365.318 1117.14 366.437 1118.52 366.437H1197.98C1199.36 366.437 1200.48 365.318 1200.48 363.937V304.353C1200.48 302.972 1199.36 301.853 1197.98 301.853Z" fill="#6C63FF"/>
<path d="M1160.67 374.057H1117.15C1116.48 374.057 1115.94 374.598 1115.94 375.266C1115.94 375.933 1116.48 376.474 1117.15 376.474H1160.67C1161.34 376.474 1161.88 375.933 1161.88 375.266C1161.88 374.598 1161.34 374.057 1160.67 374.057Z" fill="#F2F2F2"/>
<path d="M1160.67 381.311H1117.15C1116.48 381.311 1115.94 381.852 1115.94 382.519C1115.94 383.187 1116.48 383.728 1117.15 383.728H1160.67C1161.34 383.728 1161.88 383.187 1161.88 382.519C1161.88 381.852 1161.34 381.311 1160.67 381.311Z" fill="#F2F2F2"/>
<path d="M1131.05 343.834C1136.39 343.834 1140.72 339.504 1140.72 334.163C1140.72 328.821 1136.39 324.491 1131.05 324.491C1125.71 324.491 1121.38 328.821 1121.38 334.163C1121.38 339.504 1125.71 343.834 1131.05 343.834Z" fill="#3F3D56"/>
<path d="M1158.25 343.834C1163.59 343.834 1167.92 339.504 1167.92 334.163C1167.92 328.821 1163.59 324.491 1158.25 324.491C1152.91 324.491 1148.58 328.821 1148.58 334.163C1148.58 339.504 1152.91 343.834 1158.25 343.834Z" fill="#F2F2F2"/>
<path d="M1185.45 343.834C1190.79 343.834 1195.12 339.504 1195.12 334.163C1195.12 328.821 1190.79 324.491 1185.45 324.491C1180.11 324.491 1175.78 328.821 1175.78 334.163C1175.78 339.504 1180.11 343.834 1185.45 343.834Z" fill="#FF6584"/>
<path d="M1158.25 300.313C1160.92 300.313 1163.09 298.148 1163.09 295.477C1163.09 292.807 1160.92 290.642 1158.25 290.642C1155.58 290.642 1153.42 292.807 1153.42 295.477C1153.42 298.148 1155.58 300.313 1158.25 300.313Z" fill="#3F3D56"/>
<path d="M1040.63 256.948H941.331C938.569 256.948 936.331 259.187 936.331 261.948V355.915C936.331 358.676 938.569 360.915 941.331 360.915H1040.63C1043.39 360.915 1045.63 358.676 1045.63 355.915V261.948C1045.63 259.187 1043.39 256.948 1040.63 256.948Z" fill="#C2C6CC"/>
<path d="M1030.71 269.368H951.251C949.87 269.368 948.751 270.487 948.751 271.868V331.453C948.751 332.833 949.87 333.953 951.251 333.953H1030.71C1032.09 333.953 1033.21 332.833 1033.21 331.453V271.868C1033.21 270.487 1032.09 269.368 1030.71 269.368Z" fill="#6C63FF"/>
<path d="M985.355 329.714C996.68 329.714 1005.86 320.533 1005.86 309.209C1005.86 297.884 996.68 288.704 985.355 288.704C974.031 288.704 964.851 297.884 964.851 309.209C964.851 320.533 974.031 329.714 985.355 329.714Z" fill="#F2F2F2"/>
<path d="M991.399 325.025C986.314 325.025 981.344 323.517 977.116 320.692C972.889 317.867 969.594 313.852 967.648 309.155C965.702 304.457 965.193 299.288 966.185 294.301C967.177 289.314 969.625 284.734 973.221 281.138C976.816 277.543 981.397 275.094 986.384 274.102C991.37 273.11 996.54 273.62 1001.24 275.565C1005.93 277.511 1009.95 280.806 1012.77 285.034C1015.6 289.262 1017.11 294.232 1017.11 299.317C1017.1 306.132 1014.39 312.667 1009.57 317.487C1004.75 322.306 998.215 325.017 991.399 325.025ZM991.399 274.543C986.499 274.543 981.71 275.996 977.636 278.718C973.562 281.44 970.386 285.31 968.511 289.836C966.636 294.363 966.146 299.344 967.102 304.15C968.058 308.955 970.417 313.369 973.882 316.834C977.346 320.299 981.76 322.658 986.566 323.614C991.372 324.57 996.353 324.079 1000.88 322.204C1005.41 320.329 1009.28 317.154 1012 313.08C1014.72 309.006 1016.17 304.216 1016.17 299.317C1016.17 292.749 1013.55 286.452 1008.91 281.807C1004.26 277.163 997.967 274.551 991.399 274.543Z" fill="#3F3D56"/>
<path d="M993.397 347.616H949.876C949.208 347.616 948.667 348.157 948.667 348.825C948.667 349.493 949.208 350.034 949.876 350.034H993.397C994.064 350.034 994.606 349.493 994.606 348.825C994.606 348.157 994.064 347.616 993.397 347.616Z" fill="#F2F2F2"/>
<path d="M1011.53 340.363H949.876C949.208 340.363 948.667 340.905 948.667 341.572C948.667 342.24 949.208 342.781 949.876 342.781H1011.53C1012.2 342.781 1012.74 342.24 1012.74 341.572C1012.74 340.905 1012.2 340.363 1011.53 340.363Z" fill="#F2F2F2"/>
<path d="M990.979 267.829C993.65 267.829 995.815 265.664 995.815 262.993C995.815 260.322 993.65 258.157 990.979 258.157C988.308 258.157 986.143 260.322 986.143 262.993C986.143 265.664 988.308 267.829 990.979 267.829Z" fill="#3F3D56"/>
<path d="M920.499 137.628H821.202C818.441 137.628 816.202 139.867 816.202 142.628V236.594C816.202 239.356 818.441 241.594 821.202 241.594H920.499C923.26 241.594 925.499 239.356 925.499 236.594V142.628C925.499 139.867 923.26 137.628 920.499 137.628Z" fill="#C2C6CC"/>
<path d="M910.579 150.049H831.122C829.741 150.049 828.622 151.168 828.622 152.549V212.133C828.622 213.514 829.741 214.633 831.122 214.633H910.579C911.959 214.633 913.079 213.514 913.079 212.133V152.549C913.079 151.168 911.959 150.049 910.579 150.049Z" fill="#6C63FF"/>
<path d="M877.435 200.608H864.266C862.885 200.608 861.766 201.728 861.766 203.108V203.493C861.766 204.873 862.885 205.993 864.266 205.993H877.435C878.815 205.993 879.935 204.873 879.935 203.493V203.108C879.935 201.728 878.815 200.608 877.435 200.608Z" fill="#3F3D56"/>
<path d="M900.746 158.688H840.954C840.317 158.688 839.8 159.205 839.8 159.842C839.8 160.479 840.317 160.996 840.954 160.996H900.746C901.384 160.996 901.9 160.479 901.9 159.842C901.9 159.205 901.384 158.688 900.746 158.688Z" fill="#3F3D56"/>
<path d="M900.746 165.996H840.954C840.317 165.996 839.8 166.513 839.8 167.15C839.8 167.787 840.317 168.304 840.954 168.304H900.746C901.384 168.304 901.9 167.787 901.9 167.15C901.9 166.513 901.384 165.996 900.746 165.996Z" fill="#3F3D56"/>
<path d="M900.746 173.303H840.954C840.317 173.303 839.8 173.819 839.8 174.456C839.8 175.094 840.317 175.61 840.954 175.61H900.746C901.384 175.61 901.9 175.094 901.9 174.456C901.9 173.819 901.384 173.303 900.746 173.303Z" fill="#3F3D56"/>
<path d="M900.746 180.61H840.954C840.317 180.61 839.8 181.127 839.8 181.764C839.8 182.401 840.317 182.918 840.954 182.918H900.746C901.384 182.918 901.9 182.401 901.9 181.764C901.9 181.127 901.384 180.61 900.746 180.61Z" fill="#3F3D56"/>
<path d="M900.746 187.917H840.954C840.317 187.917 839.8 188.434 839.8 189.071C839.8 189.708 840.317 190.225 840.954 190.225H900.746C901.384 190.225 901.9 189.708 901.9 189.071C901.9 188.434 901.384 187.917 900.746 187.917Z" fill="#3F3D56"/>
<path d="M873.268 221.043H829.747C829.08 221.043 828.538 221.584 828.538 222.252C828.538 222.92 829.08 223.461 829.747 223.461H873.268C873.936 223.461 874.477 222.92 874.477 222.252C874.477 221.584 873.936 221.043 873.268 221.043Z" fill="#F2F2F2"/>
<path d="M891.402 227.088H829.747C829.08 227.088 828.538 227.629 828.538 228.297C828.538 228.964 829.08 229.506 829.747 229.506H891.402C892.069 229.506 892.611 228.964 892.611 228.297C892.611 227.629 892.069 227.088 891.402 227.088Z" fill="#F2F2F2"/>
<path d="M870.851 148.508C873.521 148.508 875.686 146.343 875.686 143.673C875.686 141.002 873.521 138.837 870.851 138.837C868.18 138.837 866.015 141.002 866.015 143.673C866.015 146.343 868.18 148.508 870.851 148.508Z" fill="#3F3D56"/>
<path fill-rule="evenodd" clip-rule="evenodd" d="M772.32 95H766C760.477 95 756 99.4772 756 105V111.684V120.953V406.441V415.711V422.395C756 427.918 760.477 432.395 766 432.395H772.32H779.415H1263.33H1270.42H1276.74C1282.27 432.395 1286.74 427.918 1286.74 422.395V415.711V406.441V120.953V111.684V105C1286.74 99.4772 1282.27 95 1276.74 95H1270.42H1263.33H779.415H772.32ZM1402.62 170.928C1402.56 172.7 1402.56 173.799 1402.56 173.799L1402.61 173.71L1402.75 173.477C1403.41 180.098 1406.55 185.986 1411.24 190.194L1410.9 202.285C1410.85 202.24 1410.8 202.2 1410.76 202.163L1410.69 202.104L1410.65 202.062C1410.61 202.032 1410.58 202.007 1410.56 201.987C1410.52 201.949 1410.5 201.93 1410.5 201.93C1410.5 201.93 1410.28 202.077 1409.96 202.331L1410.03 201.466C1410.03 201.466 1409.69 201.582 1409.15 201.814C1407.54 202.509 1404.24 204.246 1403.55 207.026C1403.37 207.731 1402.33 208.926 1400.76 210.409C1394.04 216.766 1377.6 228.341 1377.6 228.341L1377.46 236.388C1375.93 239.151 1374.29 244.481 1373.43 254.752C1371.58 276.993 1370.65 315.914 1370.65 315.914L1349.34 370.59L1353.53 371.893L1351.19 378.93C1351.19 378.93 1328.02 405.804 1344.7 409.511C1361.38 413.218 1363.24 380.783 1363.24 380.783L1365.49 376.28C1361.16 397.203 1357.78 418.429 1360.92 422.022C1361.6 422.802 1362.42 423.571 1363.33 424.324L1357.68 456.773L1363.24 567.978H1368.21L1367.76 570.865C1366.81 570.99 1365.63 571.509 1364.16 572.612C1356.75 578.172 1347.48 588.366 1347.48 588.366C1347.48 588.366 1312.27 607.826 1337.29 610.606C1362.31 613.387 1378.06 597.633 1378.06 597.633L1380.84 600.413C1380.84 600.413 1395.67 597.633 1395.67 593.926C1395.56 590.82 1395.25 587.724 1394.74 584.659C1394.74 584.659 1392.8 568.941 1390.53 572.165L1390.31 567.978H1391.96V466.967L1419.77 415.071L1442.01 479.941L1447.57 588.365L1449.08 588.098L1448.28 598.604C1446.76 599.024 1445.52 599.874 1444.79 601.339C1441.08 608.753 1438.3 623.58 1438.3 623.58C1438.3 623.58 1426.25 646.748 1447.57 644.894C1468.11 643.108 1467.99 631.849 1467.96 628.549L1467.95 628.41C1467.95 628.34 1467.95 628.275 1467.95 628.214C1467.95 627.394 1467.87 626.253 1467.78 624.979C1467.57 621.932 1467.3 618.127 1467.95 616.167C1468.88 613.386 1465.17 602.266 1465.17 602.266C1465.17 602.266 1465.06 602.211 1464.86 602.113C1464.7 602.04 1464.5 601.944 1464.25 601.829V585.422L1479.07 582.805L1471.66 477.161C1471.66 477.161 1470.85 456.579 1469.53 431.047C1479.69 428.299 1499.44 422.582 1506.88 417.852C1511.4 414.971 1505.33 384.319 1497.18 351.126C1506.77 337.912 1516.67 322.056 1518.92 310.354C1523.54 286.336 1483.96 219.039 1483.71 218.612L1483.71 218.61L1458.29 208.629L1457.76 208.416C1455.52 205.288 1453.11 202.289 1450.53 199.436C1450.17 199.029 1449.79 198.624 1449.42 198.222C1446.64 195.442 1444.9 196.311 1444.21 196.919C1443.98 197.122 1443.86 197.296 1443.86 197.296L1443.86 197.296V191.851C1447.94 188.867 1451.12 184.719 1452.91 179.896C1453.37 180.152 1453.59 180.152 1453.59 180.152C1453.59 180.152 1457.06 172.759 1458.17 161.318C1459.28 149.876 1442.6 142.595 1432.59 138.434C1425.82 135.62 1420.07 139.945 1417.05 143.038L1419.23 139.14C1416.86 140.073 1415.66 143.206 1415.1 145.298C1415.08 145.328 1415.06 145.357 1415.04 145.384L1414.99 145.448L1415.59 139.377C1414.04 140.927 1413.93 143.628 1414.14 145.715H1408.12C1404.24 149.344 1403.07 161.584 1402.72 168.649C1402.65 169.386 1402.62 170.132 1402.62 170.885L1402.62 170.928ZM1488.34 311.281L1487.24 312.767C1482.17 294.003 1477.53 277.839 1475.17 269.68L1488.34 311.281Z" fill="url(#paint1_linear)"/>
</g>
</g>
<defs>
<filter id="filter0_d" x="767" y="-324" width="1160.66" height="1160.66" filterUnits="userSpaceOnUse" color-interpolation-filters="sRGB">
<feFlood flood-opacity="0" result="BackgroundImageFix"/>
<feColorMatrix in="SourceAlpha" type="matrix" values="0 0 0 0 0 0 0 0 0 0 0 0 0 0 0 0 0 0 127 0"/>
<feOffset dx="10" dy="10"/>
<feGaussianBlur stdDeviation="25"/>
<feColorMatrix type="matrix" values="0 0 0 0 1 0 0 0 0 0.4 0 0 0 0 0.533333 0 0 0 0.15 0"/>
<feBlend mode="normal" in2="BackgroundImageFix" result="effect1_dropShadow"/>
<feBlend mode="normal" in="SourceGraphic" in2="effect1_dropShadow" result="shape"/>
</filter>
<filter id="filter1_d" x="736" y="55" width="823.375" height="613.477" filterUnits="userSpaceOnUse" color-interpolation-filters="sRGB">
<feFlood flood-opacity="0" result="BackgroundImageFix"/>
<feColorMatrix in="SourceAlpha" type="matrix" values="0 0 0 0 0 0 0 0 0 0 0 0 0 0 0 0 0 0 127 0"/>
<feOffset dx="10" dy="-10"/>
<feGaussianBlur stdDeviation="15"/>
<feColorMatrix type="matrix" values="0 0 0 0 0.517647 0 0 0 0 0.517647 0 0 0 0 0.6 0 0 0 0.05 0"/>
<feBlend mode="normal" in2="BackgroundImageFix" result="effect1_dropShadow"/>
<feBlend mode="normal" in="SourceGraphic" in2="effect1_dropShadow" result="shape"/>
</filter>
<linearGradient id="paint0_linear" x1="962.33" y1="-128.67" x2="1826.32" y2="451.596" gradientUnits="userSpaceOnUse">
<stop stop-color="white" stop-opacity="0.2"/>
<stop offset="1" stop-color="white" stop-opacity="0"/>
</linearGradient>
<linearGradient id="paint1_linear" x1="756" y1="645" x2="1466.53" y2="451.282" gradientUnits="userSpaceOnUse">
<stop stop-color="white" stop-opacity="0.2"/>
<stop offset="1" stop-color="white" stop-opacity="0"/>
</linearGradient>
<clipPath id="clip0">
<rect width="1620" height="695" fill="white"/>
</clipPath>
</defs>
</svg>
