<svg width="1620" height="696" viewBox="0 0 1620 696" fill="none" xmlns="http://www.w3.org/2000/svg">
<g clip-path="url(#clip0)">
<rect width="1620" height="695" transform="translate(0 0.5)" fill="white"/>
<path d="M127.17 331.28C122.533 331.28 118.33 330.283 114.56 328.29C110.833 326.253 107.887 323.458 105.72 319.905C103.597 316.308 102.535 312.257 102.535 307.75C102.535 303.243 103.597 299.213 105.72 295.66C107.887 292.063 110.833 289.268 114.56 287.275C118.33 285.238 122.555 284.22 127.235 284.22C131.178 284.22 134.732 284.913 137.895 286.3C141.102 287.687 143.788 289.68 145.955 292.28L139.195 298.52C136.118 294.967 132.305 293.19 127.755 293.19C124.938 293.19 122.425 293.818 120.215 295.075C118.005 296.288 116.272 298 115.015 300.21C113.802 302.42 113.195 304.933 113.195 307.75C113.195 310.567 113.802 313.08 115.015 315.29C116.272 317.5 118.005 319.233 120.215 320.49C122.425 321.703 124.938 322.31 127.755 322.31C132.305 322.31 136.118 320.512 139.195 316.915L145.955 323.155C143.788 325.798 141.102 327.813 137.895 329.2C134.688 330.587 131.113 331.28 127.17 331.28ZM174.256 295.01C178.589 295.01 182.078 296.31 184.721 298.91C187.408 301.51 188.751 305.367 188.751 310.48V330.5H178.611V312.04C178.611 309.267 178.004 307.208 176.791 305.865C175.578 304.478 173.823 303.785 171.526 303.785C168.969 303.785 166.933 304.587 165.416 306.19C163.899 307.75 163.141 310.09 163.141 313.21V330.5H153.001V282.27H163.141V299.17C164.484 297.827 166.109 296.808 168.016 296.115C169.923 295.378 172.003 295.01 174.256 295.01ZM233.228 313.145C233.228 313.275 233.163 314.185 233.033 315.875H206.578C207.055 318.042 208.182 319.753 209.958 321.01C211.735 322.267 213.945 322.895 216.588 322.895C218.408 322.895 220.012 322.635 221.398 322.115C222.828 321.552 224.15 320.685 225.363 319.515L230.758 325.365C227.465 329.135 222.655 331.02 216.328 331.02C212.385 331.02 208.897 330.262 205.863 328.745C202.83 327.185 200.49 325.04 198.843 322.31C197.197 319.58 196.373 316.482 196.373 313.015C196.373 309.592 197.175 306.515 198.778 303.785C200.425 301.012 202.657 298.867 205.473 297.35C208.333 295.79 211.518 295.01 215.028 295.01C218.452 295.01 221.55 295.747 224.323 297.22C227.097 298.693 229.263 300.817 230.823 303.59C232.427 306.32 233.228 309.505 233.228 313.145ZM215.093 302.68C212.797 302.68 210.868 303.33 209.308 304.63C207.748 305.93 206.795 307.707 206.448 309.96H223.673C223.327 307.75 222.373 305.995 220.813 304.695C219.253 303.352 217.347 302.68 215.093 302.68ZM257.529 331.02C253.802 331.02 250.444 330.262 247.454 328.745C244.507 327.185 242.189 325.04 240.499 322.31C238.852 319.58 238.029 316.482 238.029 313.015C238.029 309.548 238.852 306.45 240.499 303.72C242.189 300.99 244.507 298.867 247.454 297.35C250.444 295.79 253.802 295.01 257.529 295.01C261.212 295.01 264.419 295.79 267.149 297.35C269.922 298.867 271.937 301.055 273.194 303.915L265.329 308.14C263.509 304.933 260.887 303.33 257.464 303.33C254.821 303.33 252.632 304.197 250.899 305.93C249.166 307.663 248.299 310.025 248.299 313.015C248.299 316.005 249.166 318.367 250.899 320.1C252.632 321.833 254.821 322.7 257.464 322.7C260.931 322.7 263.552 321.097 265.329 317.89L273.194 322.18C271.937 324.953 269.922 327.12 267.149 328.68C264.419 330.24 261.212 331.02 257.529 331.02ZM294.443 316.785L289.568 321.595V330.5H279.428V282.27H289.568V309.57L304.388 295.53H316.478L301.918 310.35L317.778 330.5H305.493L294.443 316.785ZM358.687 331.02C355.003 331.02 351.688 330.262 348.742 328.745C345.838 327.185 343.563 325.04 341.917 322.31C340.27 319.58 339.447 316.482 339.447 313.015C339.447 309.548 340.27 306.45 341.917 303.72C343.563 300.99 345.838 298.867 348.742 297.35C351.688 295.79 355.003 295.01 358.687 295.01C362.37 295.01 365.663 295.79 368.567 297.35C371.47 298.867 373.745 300.99 375.392 303.72C377.038 306.45 377.862 309.548 377.862 313.015C377.862 316.482 377.038 319.58 375.392 322.31C373.745 325.04 371.47 327.185 368.567 328.745C365.663 330.262 362.37 331.02 358.687 331.02ZM358.687 322.7C361.287 322.7 363.41 321.833 365.057 320.1C366.747 318.323 367.592 315.962 367.592 313.015C367.592 310.068 366.747 307.728 365.057 305.995C363.41 304.218 361.287 303.33 358.687 303.33C356.087 303.33 353.942 304.218 352.252 305.995C350.562 307.728 349.717 310.068 349.717 313.015C349.717 315.962 350.562 318.323 352.252 320.1C353.942 321.833 356.087 322.7 358.687 322.7ZM420.52 295.53V330.5H410.9V326.34C409.556 327.857 407.953 329.027 406.09 329.85C404.226 330.63 402.211 331.02 400.045 331.02C395.451 331.02 391.811 329.698 389.125 327.055C386.438 324.412 385.095 320.49 385.095 315.29V295.53H395.235V313.795C395.235 319.428 397.596 322.245 402.32 322.245C404.746 322.245 406.696 321.465 408.17 319.905C409.643 318.302 410.38 315.94 410.38 312.82V295.53H420.52ZM453.119 328.81C452.122 329.547 450.887 330.11 449.414 330.5C447.984 330.847 446.467 331.02 444.864 331.02C440.704 331.02 437.475 329.958 435.179 327.835C432.925 325.712 431.799 322.592 431.799 318.475V304.11H426.404V296.31H431.799V287.795H441.939V296.31H450.649V304.11H441.939V318.345C441.939 319.818 442.307 320.967 443.044 321.79C443.824 322.57 444.907 322.96 446.294 322.96C447.897 322.96 449.262 322.527 450.389 321.66L453.119 328.81ZM523.304 295.01C527.681 295.01 531.147 296.31 533.704 298.91C536.304 301.467 537.604 305.323 537.604 310.48V330.5H527.464V312.04C527.464 309.267 526.879 307.208 525.709 305.865C524.582 304.478 522.957 303.785 520.834 303.785C518.451 303.785 516.566 304.565 515.179 306.125C513.792 307.642 513.099 309.917 513.099 312.95V330.5H502.959V312.04C502.959 306.537 500.749 303.785 496.329 303.785C493.989 303.785 492.126 304.565 490.739 306.125C489.352 307.642 488.659 309.917 488.659 312.95V330.5H478.519V295.53H488.204V299.56C489.504 298.087 491.086 296.96 492.949 296.18C494.856 295.4 496.936 295.01 499.189 295.01C501.659 295.01 503.891 295.508 505.884 296.505C507.877 297.458 509.481 298.867 510.694 300.73C512.124 298.91 513.922 297.502 516.089 296.505C518.299 295.508 520.704 295.01 523.304 295.01ZM581.418 295.53L565.623 332.645C564.02 336.675 562.026 339.513 559.643 341.16C557.303 342.807 554.465 343.63 551.128 343.63C549.308 343.63 547.51 343.348 545.733 342.785C543.956 342.222 542.505 341.442 541.378 340.445L545.083 333.23C545.863 333.923 546.751 334.465 547.748 334.855C548.788 335.245 549.806 335.44 550.803 335.44C552.19 335.44 553.316 335.093 554.183 334.4C555.05 333.75 555.83 332.645 556.523 331.085L556.653 330.76L541.508 295.53H551.973L561.788 319.255L571.668 295.53H581.418ZM622.164 331.02C618.437 331.02 615.079 330.262 612.089 328.745C609.142 327.185 606.824 325.04 605.134 322.31C603.487 319.58 602.664 316.482 602.664 313.015C602.664 309.548 603.487 306.45 605.134 303.72C606.824 300.99 609.142 298.867 612.089 297.35C615.079 295.79 618.437 295.01 622.164 295.01C625.847 295.01 629.054 295.79 631.784 297.35C634.557 298.867 636.572 301.055 637.829 303.915L629.964 308.14C628.144 304.933 625.522 303.33 622.099 303.33C619.455 303.33 617.267 304.197 615.534 305.93C613.8 307.663 612.934 310.025 612.934 313.015C612.934 316.005 613.8 318.367 615.534 320.1C617.267 321.833 619.455 322.7 622.099 322.7C625.565 322.7 628.187 321.097 629.964 317.89L637.829 322.18C636.572 324.953 634.557 327.12 631.784 328.68C629.054 330.24 625.847 331.02 622.164 331.02ZM665.318 295.01C669.652 295.01 673.14 296.31 675.783 298.91C678.47 301.51 679.813 305.367 679.813 310.48V330.5H669.673V312.04C669.673 309.267 669.067 307.208 667.853 305.865C666.64 304.478 664.885 303.785 662.588 303.785C660.032 303.785 657.995 304.587 656.478 306.19C654.962 307.75 654.203 310.09 654.203 313.21V330.5H644.063V282.27H654.203V299.17C655.547 297.827 657.172 296.808 659.078 296.115C660.985 295.378 663.065 295.01 665.318 295.01ZM703.76 295.01C709.176 295.01 713.336 296.31 716.24 298.91C719.143 301.467 720.595 305.345 720.595 310.545V330.5H711.105V326.145C709.198 329.395 705.645 331.02 700.445 331.02C697.758 331.02 695.418 330.565 693.425 329.655C691.475 328.745 689.98 327.488 688.94 325.885C687.9 324.282 687.38 322.462 687.38 320.425C687.38 317.175 688.593 314.618 691.02 312.755C693.49 310.892 697.281 309.96 702.395 309.96H710.455C710.455 307.75 709.783 306.06 708.44 304.89C707.096 303.677 705.081 303.07 702.395 303.07C700.531 303.07 698.69 303.373 696.87 303.98C695.093 304.543 693.576 305.323 692.32 306.32L688.68 299.235C690.586 297.892 692.861 296.852 695.505 296.115C698.191 295.378 700.943 295.01 703.76 295.01ZM702.98 324.195C704.713 324.195 706.251 323.805 707.595 323.025C708.938 322.202 709.891 321.01 710.455 319.45V315.875H703.5C699.34 315.875 697.26 317.24 697.26 319.97C697.26 321.27 697.758 322.31 698.755 323.09C699.795 323.827 701.203 324.195 702.98 324.195ZM740.107 300.145C741.32 298.455 742.945 297.177 744.982 296.31C747.062 295.443 749.445 295.01 752.132 295.01V304.37C751.005 304.283 750.247 304.24 749.857 304.24C746.953 304.24 744.678 305.063 743.032 306.71C741.385 308.313 740.562 310.74 740.562 313.99V330.5H730.422V295.53H740.107V300.145ZM782.572 328.81C781.575 329.547 780.34 330.11 778.867 330.5C777.437 330.847 775.92 331.02 774.317 331.02C770.157 331.02 766.929 329.958 764.632 327.835C762.379 325.712 761.252 322.592 761.252 318.475V304.11H755.857V296.31H761.252V287.795H771.392V296.31H780.102V304.11H771.392V318.345C771.392 319.818 771.76 320.967 772.497 321.79C773.277 322.57 774.36 322.96 775.747 322.96C777.35 322.96 778.715 322.527 779.842 321.66L782.572 328.81ZM800.679 331.02C797.776 331.02 794.938 330.673 792.164 329.98C789.391 329.243 787.181 328.333 785.534 327.25L788.914 319.97C790.474 320.967 792.359 321.79 794.569 322.44C796.779 323.047 798.946 323.35 801.069 323.35C805.359 323.35 807.504 322.288 807.504 320.165C807.504 319.168 806.919 318.453 805.749 318.02C804.579 317.587 802.781 317.218 800.354 316.915C797.494 316.482 795.133 315.983 793.269 315.42C791.406 314.857 789.781 313.86 788.394 312.43C787.051 311 786.379 308.963 786.379 306.32C786.379 304.11 787.008 302.16 788.264 300.47C789.564 298.737 791.428 297.393 793.854 296.44C796.324 295.487 799.228 295.01 802.564 295.01C805.034 295.01 807.483 295.292 809.909 295.855C812.379 296.375 814.416 297.112 816.019 298.065L812.639 305.28C809.563 303.547 806.204 302.68 802.564 302.68C800.398 302.68 798.773 302.983 797.689 303.59C796.606 304.197 796.064 304.977 796.064 305.93C796.064 307.013 796.649 307.772 797.819 308.205C798.989 308.638 800.853 309.05 803.409 309.44C806.269 309.917 808.609 310.437 810.429 311C812.249 311.52 813.831 312.495 815.174 313.925C816.518 315.355 817.189 317.348 817.189 319.905C817.189 322.072 816.539 324 815.239 325.69C813.939 327.38 812.033 328.702 809.519 329.655C807.049 330.565 804.103 331.02 800.679 331.02ZM127.235 409.81C126.238 410.547 125.003 411.11 123.53 411.5C122.1 411.847 120.583 412.02 118.98 412.02C114.82 412.02 111.592 410.958 109.295 408.835C107.042 406.712 105.915 403.592 105.915 399.475V385.11H100.52V377.31H105.915V368.795H116.055V377.31H124.765V385.11H116.055V399.345C116.055 400.818 116.423 401.967 117.16 402.79C117.94 403.57 119.023 403.96 120.41 403.96C122.013 403.96 123.378 403.527 124.505 402.66L127.235 409.81ZM149.138 412.02C145.455 412.02 142.14 411.262 139.193 409.745C136.29 408.185 134.015 406.04 132.368 403.31C130.721 400.58 129.898 397.482 129.898 394.015C129.898 390.548 130.721 387.45 132.368 384.72C134.015 381.99 136.29 379.867 139.193 378.35C142.14 376.79 145.455 376.01 149.138 376.01C152.821 376.01 156.115 376.79 159.018 378.35C161.921 379.867 164.196 381.99 165.843 384.72C167.49 387.45 168.313 390.548 168.313 394.015C168.313 397.482 167.49 400.58 165.843 403.31C164.196 406.04 161.921 408.185 159.018 409.745C156.115 411.262 152.821 412.02 149.138 412.02ZM149.138 403.7C151.738 403.7 153.861 402.833 155.508 401.1C157.198 399.323 158.043 396.962 158.043 394.015C158.043 391.068 157.198 388.728 155.508 386.995C153.861 385.218 151.738 384.33 149.138 384.33C146.538 384.33 144.393 385.218 142.703 386.995C141.013 388.728 140.168 391.068 140.168 394.015C140.168 396.962 141.013 399.323 142.703 401.1C144.393 402.833 146.538 403.7 149.138 403.7ZM205.914 377.31H214.884V385.11H206.174V411.5H196.034V385.11H190.639V377.31H196.034V375.75C196.034 371.763 197.204 368.6 199.544 366.26C201.927 363.92 205.264 362.75 209.554 362.75C211.071 362.75 212.501 362.923 213.844 363.27C215.231 363.573 216.379 364.028 217.289 364.635L214.624 371.98C213.454 371.157 212.089 370.745 210.529 370.745C207.452 370.745 205.914 372.435 205.914 375.815V377.31ZM225.154 376.53H235.294V411.5H225.154V376.53ZM230.224 371.655C228.361 371.655 226.844 371.113 225.674 370.03C224.504 368.947 223.919 367.603 223.919 366C223.919 364.397 224.504 363.053 225.674 361.97C226.844 360.887 228.361 360.345 230.224 360.345C232.087 360.345 233.604 360.865 234.774 361.905C235.944 362.945 236.529 364.245 236.529 365.805C236.529 367.495 235.944 368.903 234.774 370.03C233.604 371.113 232.087 371.655 230.224 371.655ZM266.597 376.01C270.93 376.01 274.418 377.31 277.062 379.91C279.748 382.51 281.092 386.367 281.092 391.48V411.5H270.952V393.04C270.952 390.267 270.345 388.208 269.132 386.865C267.918 385.478 266.163 384.785 263.867 384.785C261.31 384.785 259.273 385.587 257.757 387.19C256.24 388.75 255.482 391.09 255.482 394.21V411.5H245.342V376.53H255.027V380.625C256.37 379.152 258.038 378.025 260.032 377.245C262.025 376.422 264.213 376.01 266.597 376.01ZM326.934 363.27V411.5H317.249V407.47C314.735 410.503 311.095 412.02 306.329 412.02C303.035 412.02 300.045 411.283 297.359 409.81C294.715 408.337 292.635 406.235 291.119 403.505C289.602 400.775 288.844 397.612 288.844 394.015C288.844 390.418 289.602 387.255 291.119 384.525C292.635 381.795 294.715 379.693 297.359 378.22C300.045 376.747 303.035 376.01 306.329 376.01C310.792 376.01 314.28 377.418 316.794 380.235V363.27H326.934ZM308.084 403.7C310.64 403.7 312.764 402.833 314.454 401.1C316.144 399.323 316.989 396.962 316.989 394.015C316.989 391.068 316.144 388.728 314.454 386.995C312.764 385.218 310.64 384.33 308.084 384.33C305.484 384.33 303.339 385.218 301.649 386.995C299.959 388.728 299.114 391.068 299.114 394.015C299.114 396.962 299.959 399.323 301.649 401.1C303.339 402.833 305.484 403.7 308.084 403.7ZM367.792 412.02C364.889 412.02 362.05 411.673 359.277 410.98C356.504 410.243 354.294 409.333 352.647 408.25L356.027 400.97C357.587 401.967 359.472 402.79 361.682 403.44C363.892 404.047 366.059 404.35 368.182 404.35C372.472 404.35 374.617 403.288 374.617 401.165C374.617 400.168 374.032 399.453 372.862 399.02C371.692 398.587 369.894 398.218 367.467 397.915C364.607 397.482 362.245 396.983 360.382 396.42C358.519 395.857 356.894 394.86 355.507 393.43C354.164 392 353.492 389.963 353.492 387.32C353.492 385.11 354.12 383.16 355.377 381.47C356.677 379.737 358.54 378.393 360.967 377.44C363.437 376.487 366.34 376.01 369.677 376.01C372.147 376.01 374.595 376.292 377.022 376.855C379.492 377.375 381.529 378.112 383.132 379.065L379.752 386.28C376.675 384.547 373.317 383.68 369.677 383.68C367.51 383.68 365.885 383.983 364.802 384.59C363.719 385.197 363.177 385.977 363.177 386.93C363.177 388.013 363.762 388.772 364.932 389.205C366.102 389.638 367.965 390.05 370.522 390.44C373.382 390.917 375.722 391.437 377.542 392C379.362 392.52 380.944 393.495 382.287 394.925C383.63 396.355 384.302 398.348 384.302 400.905C384.302 403.072 383.652 405 382.352 406.69C381.052 408.38 379.145 409.702 376.632 410.655C374.162 411.565 371.215 412.02 367.792 412.02ZM407.848 412.02C404.165 412.02 400.85 411.262 397.903 409.745C395 408.185 392.725 406.04 391.078 403.31C389.431 400.58 388.608 397.482 388.608 394.015C388.608 390.548 389.431 387.45 391.078 384.72C392.725 381.99 395 379.867 397.903 378.35C400.85 376.79 404.165 376.01 407.848 376.01C411.531 376.01 414.825 376.79 417.728 378.35C420.631 379.867 422.906 381.99 424.553 384.72C426.2 387.45 427.023 390.548 427.023 394.015C427.023 397.482 426.2 400.58 424.553 403.31C422.906 406.04 420.631 408.185 417.728 409.745C414.825 411.262 411.531 412.02 407.848 412.02ZM407.848 403.7C410.448 403.7 412.571 402.833 414.218 401.1C415.908 399.323 416.753 396.962 416.753 394.015C416.753 391.068 415.908 388.728 414.218 386.995C412.571 385.218 410.448 384.33 407.848 384.33C405.248 384.33 403.103 385.218 401.413 386.995C399.723 388.728 398.878 391.068 398.878 394.015C398.878 396.962 399.723 399.323 401.413 401.1C403.103 402.833 405.248 403.7 407.848 403.7ZM479.236 376.01C483.613 376.01 487.079 377.31 489.636 379.91C492.236 382.467 493.536 386.323 493.536 391.48V411.5H483.396V393.04C483.396 390.267 482.811 388.208 481.641 386.865C480.514 385.478 478.889 384.785 476.766 384.785C474.383 384.785 472.498 385.565 471.111 387.125C469.724 388.642 469.031 390.917 469.031 393.95V411.5H458.891V393.04C458.891 387.537 456.681 384.785 452.261 384.785C449.921 384.785 448.058 385.565 446.671 387.125C445.284 388.642 444.591 390.917 444.591 393.95V411.5H434.451V376.53H444.136V380.56C445.436 379.087 447.018 377.96 448.881 377.18C450.788 376.4 452.868 376.01 455.121 376.01C457.591 376.01 459.823 376.508 461.816 377.505C463.809 378.458 465.413 379.867 466.626 381.73C468.056 379.91 469.854 378.502 472.021 377.505C474.231 376.508 476.636 376.01 479.236 376.01ZM537.911 394.145C537.911 394.275 537.846 395.185 537.716 396.875H511.261C511.737 399.042 512.864 400.753 514.641 402.01C516.417 403.267 518.627 403.895 521.271 403.895C523.091 403.895 524.694 403.635 526.081 403.115C527.511 402.552 528.832 401.685 530.046 400.515L535.441 406.365C532.147 410.135 527.337 412.02 521.011 412.02C517.067 412.02 513.579 411.262 510.546 409.745C507.512 408.185 505.172 406.04 503.526 403.31C501.879 400.58 501.056 397.482 501.056 394.015C501.056 390.592 501.857 387.515 503.461 384.785C505.107 382.012 507.339 379.867 510.156 378.35C513.016 376.79 516.201 376.01 519.711 376.01C523.134 376.01 526.232 376.747 529.006 378.22C531.779 379.693 533.946 381.817 535.506 384.59C537.109 387.32 537.911 390.505 537.911 394.145ZM519.776 383.68C517.479 383.68 515.551 384.33 513.991 385.63C512.431 386.93 511.477 388.707 511.131 390.96H528.356C528.009 388.75 527.056 386.995 525.496 385.695C523.936 384.352 522.029 383.68 519.776 383.68ZM609.155 376.01C613.531 376.01 616.998 377.31 619.555 379.91C622.155 382.467 623.455 386.323 623.455 391.48V411.5H613.315V393.04C613.315 390.267 612.73 388.208 611.56 386.865C610.433 385.478 608.808 384.785 606.685 384.785C604.301 384.785 602.416 385.565 601.03 387.125C599.643 388.642 598.95 390.917 598.95 393.95V411.5H588.81V393.04C588.81 387.537 586.6 384.785 582.18 384.785C579.84 384.785 577.976 385.565 576.59 387.125C575.203 388.642 574.51 390.917 574.51 393.95V411.5H564.37V376.53H574.055V380.56C575.355 379.087 576.936 377.96 578.8 377.18C580.706 376.4 582.786 376.01 585.04 376.01C587.51 376.01 589.741 376.508 591.735 377.505C593.728 378.458 595.331 379.867 596.545 381.73C597.975 379.91 599.773 378.502 601.94 377.505C604.15 376.508 606.555 376.01 609.155 376.01ZM650.214 412.02C646.531 412.02 643.216 411.262 640.269 409.745C637.366 408.185 635.091 406.04 633.444 403.31C631.798 400.58 630.974 397.482 630.974 394.015C630.974 390.548 631.798 387.45 633.444 384.72C635.091 381.99 637.366 379.867 640.269 378.35C643.216 376.79 646.531 376.01 650.214 376.01C653.898 376.01 657.191 376.79 660.094 378.35C662.998 379.867 665.273 381.99 666.919 384.72C668.566 387.45 669.389 390.548 669.389 394.015C669.389 397.482 668.566 400.58 666.919 403.31C665.273 406.04 662.998 408.185 660.094 409.745C657.191 411.262 653.898 412.02 650.214 412.02ZM650.214 403.7C652.814 403.7 654.938 402.833 656.584 401.1C658.274 399.323 659.119 396.962 659.119 394.015C659.119 391.068 658.274 388.728 656.584 386.995C654.938 385.218 652.814 384.33 650.214 384.33C647.614 384.33 645.469 385.218 643.779 386.995C642.089 388.728 641.244 391.068 641.244 394.015C641.244 396.962 642.089 399.323 643.779 401.1C645.469 402.833 647.614 403.7 650.214 403.7ZM686.502 381.145C687.715 379.455 689.34 378.177 691.377 377.31C693.457 376.443 695.84 376.01 698.527 376.01V385.37C697.4 385.283 696.642 385.24 696.252 385.24C693.349 385.24 691.074 386.063 689.427 387.71C687.78 389.313 686.957 391.74 686.957 394.99V411.5H676.817V376.53H686.502V381.145ZM739.144 394.145C739.144 394.275 739.079 395.185 738.949 396.875H712.494C712.971 399.042 714.097 400.753 715.874 402.01C717.651 403.267 719.861 403.895 722.504 403.895C724.324 403.895 725.927 403.635 727.314 403.115C728.744 402.552 730.066 401.685 731.279 400.515L736.674 406.365C733.381 410.135 728.571 412.02 722.244 412.02C718.301 412.02 714.812 411.262 711.779 409.745C708.746 408.185 706.406 406.04 704.759 403.31C703.112 400.58 702.289 397.482 702.289 394.015C702.289 390.592 703.091 387.515 704.694 384.785C706.341 382.012 708.572 379.867 711.389 378.35C714.249 376.79 717.434 376.01 720.944 376.01C724.367 376.01 727.466 376.747 730.239 378.22C733.012 379.693 735.179 381.817 736.739 384.59C738.342 387.32 739.144 390.505 739.144 394.145ZM721.009 383.68C718.712 383.68 716.784 384.33 715.224 385.63C713.664 386.93 712.711 388.707 712.364 390.96H729.589C729.242 388.75 728.289 386.995 726.729 385.695C725.169 384.352 723.262 383.68 721.009 383.68Z" fill="#2F2E44"/>
<path d="M117.97 96.49C117.97 96.55 117.94 96.97 117.88 97.75H105.67C105.89 98.75 106.41 99.54 107.23 100.12C108.05 100.7 109.07 100.99 110.29 100.99C111.13 100.99 111.87 100.87 112.51 100.63C113.17 100.37 113.78 99.97 114.34 99.43L116.83 102.13C115.31 103.87 113.09 104.74 110.17 104.74C108.35 104.74 106.74 104.39 105.34 103.69C103.94 102.97 102.86 101.98 102.1 100.72C101.34 99.46 100.96 98.03 100.96 96.43C100.96 94.85 101.33 93.43 102.07 92.17C102.83 90.89 103.86 89.9 105.16 89.2C106.48 88.48 107.95 88.12 109.57 88.12C111.15 88.12 112.58 88.46 113.86 89.14C115.14 89.82 116.14 90.8 116.86 92.08C117.6 93.34 117.97 94.81 117.97 96.49ZM109.6 91.66C108.54 91.66 107.65 91.96 106.93 92.56C106.21 93.16 105.77 93.98 105.61 95.02H113.56C113.4 94 112.96 93.19 112.24 92.59C111.52 91.97 110.64 91.66 109.6 91.66ZM131.196 88.12C133.196 88.12 134.806 88.72 136.026 89.92C137.266 91.12 137.886 92.9 137.886 95.26V104.5H133.206V95.98C133.206 94.7 132.926 93.75 132.366 93.13C131.806 92.49 130.996 92.17 129.936 92.17C128.756 92.17 127.816 92.54 127.116 93.28C126.416 94 126.066 95.08 126.066 96.52V104.5H121.386V88.36H125.856V90.25C126.476 89.57 127.246 89.05 128.166 88.69C129.086 88.31 130.096 88.12 131.196 88.12ZM159.254 88.36V101.8C159.254 104.76 158.484 106.96 156.944 108.4C155.404 109.84 153.154 110.56 150.194 110.56C148.634 110.56 147.154 110.37 145.754 109.99C144.354 109.61 143.194 109.06 142.274 108.34L144.134 104.98C144.814 105.54 145.674 105.98 146.714 106.3C147.754 106.64 148.794 106.81 149.834 106.81C151.454 106.81 152.644 106.44 153.404 105.7C154.184 104.98 154.574 103.88 154.574 102.4V101.71C153.354 103.05 151.654 103.72 149.474 103.72C147.994 103.72 146.634 103.4 145.394 102.76C144.174 102.1 143.204 101.18 142.484 100C141.764 98.82 141.404 97.46 141.404 95.92C141.404 94.38 141.764 93.02 142.484 91.84C143.204 90.66 144.174 89.75 145.394 89.11C146.634 88.45 147.994 88.12 149.474 88.12C151.814 88.12 153.594 88.89 154.814 90.43V88.36H159.254ZM150.404 99.88C151.644 99.88 152.654 99.52 153.434 98.8C154.234 98.06 154.634 97.1 154.634 95.92C154.634 94.74 154.234 93.79 153.434 93.07C152.654 92.33 151.644 91.96 150.404 91.96C149.164 91.96 148.144 92.33 147.344 93.07C146.544 93.79 146.144 94.74 146.144 95.92C146.144 97.1 146.544 98.06 147.344 98.8C148.144 99.52 149.164 99.88 150.404 99.88ZM163.91 82.24H168.59V104.5H163.91V82.24ZM173.233 88.36H177.913V104.5H173.233V88.36ZM175.573 86.11C174.713 86.11 174.013 85.86 173.473 85.36C172.933 84.86 172.663 84.24 172.663 83.5C172.663 82.76 172.933 82.14 173.473 81.64C174.013 81.14 174.713 80.89 175.573 80.89C176.433 80.89 177.133 81.13 177.673 81.61C178.213 82.09 178.483 82.69 178.483 83.41C178.483 84.19 178.213 84.84 177.673 85.36C177.133 85.86 176.433 86.11 175.573 86.11ZM187.986 104.74C186.646 104.74 185.336 104.58 184.056 104.26C182.776 103.92 181.756 103.5 180.996 103L182.556 99.64C183.276 100.1 184.146 100.48 185.166 100.78C186.186 101.06 187.186 101.2 188.166 101.2C190.146 101.2 191.136 100.71 191.136 99.73C191.136 99.27 190.866 98.94 190.326 98.74C189.786 98.54 188.956 98.37 187.836 98.23C186.516 98.03 185.426 97.8 184.566 97.54C183.706 97.28 182.956 96.82 182.316 96.16C181.696 95.5 181.386 94.56 181.386 93.34C181.386 92.32 181.676 91.42 182.256 90.64C182.856 89.84 183.716 89.22 184.836 88.78C185.976 88.34 187.316 88.12 188.856 88.12C189.996 88.12 191.126 88.25 192.246 88.51C193.386 88.75 194.326 89.09 195.066 89.53L193.506 92.86C192.086 92.06 190.536 91.66 188.856 91.66C187.856 91.66 187.106 91.8 186.606 92.08C186.106 92.36 185.856 92.72 185.856 93.16C185.856 93.66 186.126 94.01 186.666 94.21C187.206 94.41 188.066 94.6 189.246 94.78C190.566 95 191.646 95.24 192.486 95.5C193.326 95.74 194.056 96.19 194.676 96.85C195.296 97.51 195.606 98.43 195.606 99.61C195.606 100.61 195.306 101.5 194.706 102.28C194.106 103.06 193.226 103.67 192.066 104.11C190.926 104.53 189.566 104.74 187.986 104.74ZM208.604 88.12C210.604 88.12 212.214 88.72 213.434 89.92C214.674 91.12 215.294 92.9 215.294 95.26V104.5H210.614V95.98C210.614 94.7 210.334 93.75 209.774 93.13C209.214 92.49 208.404 92.17 207.344 92.17C206.164 92.17 205.224 92.54 204.524 93.28C203.824 94 203.474 95.08 203.474 96.52V104.5H198.794V82.24H203.474V90.04C204.094 89.42 204.844 88.95 205.724 88.63C206.604 88.29 207.564 88.12 208.604 88.12ZM229.646 88.12C231.646 88.12 233.256 88.72 234.476 89.92C235.716 91.12 236.336 92.9 236.336 95.26V104.5H231.656V95.98C231.656 94.7 231.376 93.75 230.816 93.13C230.256 92.49 229.446 92.17 228.386 92.17C227.206 92.17 226.266 92.54 225.566 93.28C224.866 94 224.516 95.08 224.516 96.52V104.5H219.836V88.36H224.306V90.25C224.926 89.57 225.696 89.05 226.616 88.69C227.536 88.31 228.546 88.12 229.646 88.12ZM256.864 96.49C256.864 96.55 256.834 96.97 256.774 97.75H244.564C244.784 98.75 245.304 99.54 246.124 100.12C246.944 100.7 247.964 100.99 249.184 100.99C250.024 100.99 250.764 100.87 251.404 100.63C252.064 100.37 252.674 99.97 253.234 99.43L255.724 102.13C254.204 103.87 251.984 104.74 249.064 104.74C247.244 104.74 245.634 104.39 244.234 103.69C242.834 102.97 241.754 101.98 240.994 100.72C240.234 99.46 239.854 98.03 239.854 96.43C239.854 94.85 240.224 93.43 240.964 92.17C241.724 90.89 242.754 89.9 244.054 89.2C245.374 88.48 246.844 88.12 248.464 88.12C250.044 88.12 251.474 88.46 252.754 89.14C254.034 89.82 255.034 90.8 255.754 92.08C256.494 93.34 256.864 94.81 256.864 96.49ZM248.494 91.66C247.434 91.66 246.544 91.96 245.824 92.56C245.104 93.16 244.664 93.98 244.504 95.02H252.454C252.294 94 251.854 93.19 251.134 92.59C250.414 91.97 249.534 91.66 248.494 91.66ZM264.75 90.49C265.31 89.71 266.06 89.12 267 88.72C267.96 88.32 269.06 88.12 270.3 88.12V92.44C269.78 92.4 269.43 92.38 269.25 92.38C267.91 92.38 266.86 92.76 266.1 93.52C265.34 94.26 264.96 95.38 264.96 96.88V104.5H260.28V88.36H264.75V90.49ZM289.676 82.24V104.5H285.206V102.64C284.046 104.04 282.366 104.74 280.166 104.74C278.646 104.74 277.266 104.4 276.026 103.72C274.806 103.04 273.846 102.07 273.146 100.81C272.446 99.55 272.096 98.09 272.096 96.43C272.096 94.77 272.446 93.31 273.146 92.05C273.846 90.79 274.806 89.82 276.026 89.14C277.266 88.46 278.646 88.12 280.166 88.12C282.226 88.12 283.836 88.77 284.996 90.07V82.24H289.676ZM280.976 100.9C282.156 100.9 283.136 100.5 283.916 99.7C284.696 98.88 285.086 97.79 285.086 96.43C285.086 95.07 284.696 93.99 283.916 93.19C283.136 92.37 282.156 91.96 280.976 91.96C279.776 91.96 278.786 92.37 278.006 93.19C277.226 93.99 276.836 95.07 276.836 96.43C276.836 97.79 277.226 98.88 278.006 99.7C278.786 100.5 279.776 100.9 280.976 100.9ZM296.078 104.74C295.258 104.74 294.568 104.46 294.008 103.9C293.448 103.34 293.168 102.64 293.168 101.8C293.168 100.94 293.448 100.25 294.008 99.73C294.568 99.19 295.258 98.92 296.078 98.92C296.898 98.92 297.588 99.19 298.148 99.73C298.708 100.25 298.988 100.94 298.988 101.8C298.988 102.64 298.708 103.34 298.148 103.9C297.588 104.46 296.898 104.74 296.078 104.74ZM309.934 104.74C308.234 104.74 306.704 104.39 305.344 103.69C304.004 102.97 302.954 101.98 302.194 100.72C301.434 99.46 301.054 98.03 301.054 96.43C301.054 94.83 301.434 93.4 302.194 92.14C302.954 90.88 304.004 89.9 305.344 89.2C306.704 88.48 308.234 88.12 309.934 88.12C311.634 88.12 313.154 88.48 314.494 89.2C315.834 89.9 316.884 90.88 317.644 92.14C318.404 93.4 318.784 94.83 318.784 96.43C318.784 98.03 318.404 99.46 317.644 100.72C316.884 101.98 315.834 102.97 314.494 103.69C313.154 104.39 311.634 104.74 309.934 104.74ZM309.934 100.9C311.134 100.9 312.114 100.5 312.874 99.7C313.654 98.88 314.044 97.79 314.044 96.43C314.044 95.07 313.654 93.99 312.874 93.19C312.114 92.37 311.134 91.96 309.934 91.96C308.734 91.96 307.744 92.37 306.964 93.19C306.184 93.99 305.794 95.07 305.794 96.43C305.794 97.79 306.184 98.88 306.964 99.7C307.744 100.5 308.734 100.9 309.934 100.9ZM326.682 90.49C327.242 89.71 327.992 89.12 328.932 88.72C329.892 88.32 330.992 88.12 332.232 88.12V92.44C331.712 92.4 331.362 92.38 331.182 92.38C329.842 92.38 328.792 92.76 328.032 93.52C327.272 94.26 326.892 95.38 326.892 96.88V104.5H322.212V88.36H326.682V90.49ZM351.819 88.36V101.8C351.819 104.76 351.049 106.96 349.509 108.4C347.969 109.84 345.719 110.56 342.759 110.56C341.199 110.56 339.719 110.37 338.319 109.99C336.919 109.61 335.759 109.06 334.839 108.34L336.699 104.98C337.379 105.54 338.239 105.98 339.279 106.3C340.319 106.64 341.359 106.81 342.399 106.81C344.019 106.81 345.209 106.44 345.969 105.7C346.749 104.98 347.139 103.88 347.139 102.4V101.71C345.919 103.05 344.219 103.72 342.039 103.72C340.559 103.72 339.199 103.4 337.959 102.76C336.739 102.1 335.769 101.18 335.049 100C334.329 98.82 333.969 97.46 333.969 95.92C333.969 94.38 334.329 93.02 335.049 91.84C335.769 90.66 336.739 89.75 337.959 89.11C339.199 88.45 340.559 88.12 342.039 88.12C344.379 88.12 346.159 88.89 347.379 90.43V88.36H351.819ZM342.969 99.88C344.209 99.88 345.219 99.52 345.999 98.8C346.799 98.06 347.199 97.1 347.199 95.92C347.199 94.74 346.799 93.79 345.999 93.07C345.219 92.33 344.209 91.96 342.969 91.96C341.729 91.96 340.709 92.33 339.909 93.07C339.109 93.79 338.709 94.74 338.709 95.92C338.709 97.1 339.109 98.06 339.909 98.8C340.709 99.52 341.729 99.88 342.969 99.88Z" fill="#848499"/>
<circle cx="1337" cy="246.5" r="375" transform="rotate(-45 1337 246.5)" fill="#FF8BA4"/>
<path d="M965.75 193.448L1390.05 617.751C1277.27 633.779 1158.59 598.417 1071.84 511.665C985.083 424.913 949.721 306.23 965.75 193.448Z" fill="#FF99B0"/>
<path d="M965.75 193.448C973.423 139.453 992.876 86.8113 1024.11 39.6723L1543.83 559.394C1496.69 590.625 1444.05 610.077 1390.05 617.75L965.75 193.448Z" fill="#FF8CA6"/>
<path d="M1130.17 -66.3936L1649.89 453.328C1636.24 473.942 1620.33 493.503 1602.16 511.665C1584 529.827 1564.44 545.737 1543.83 559.394L1024.11 39.6724C1037.76 19.0586 1053.67 -0.502851 1071.83 -18.6648C1090 -36.8268 1109.56 -52.7364 1130.17 -66.3936Z" fill="#FF809C"/>
<path d="M1283.95 -124.75L1708.25 299.553C1700.58 353.547 1681.12 406.189 1649.89 453.328L1130.17 -66.3936C1177.31 -97.6243 1229.95 -117.077 1283.95 -124.75Z" fill="#FF7392"/>
<path d="M1708.25 299.553C1724.28 186.77 1688.92 68.0878 1602.17 -18.6646C1515.41 -105.417 1396.73 -140.779 1283.95 -124.75L1708.25 299.553Z" fill="#FF6688"/>
<circle cx="1337" cy="246.5" r="375" transform="rotate(-45 1337 246.5)" fill="url(#paint0_linear)"/>
<g filter="url(#filter0_d)">
<path d="M1379.93 398.92L1376.78 407.953C1376.78 407.953 1357.06 429.782 1371.26 432.793C1385.45 435.804 1387.03 409.458 1387.03 409.458L1390.97 401.931L1379.93 398.92Z" fill="#FFB8B8"/>
<path d="M1402.01 289.773C1402.01 289.773 1397.28 289.02 1395.7 307.086C1394.13 325.152 1393.34 356.767 1393.34 356.767L1375.2 401.178L1398.07 407.953L1409.11 357.52L1402.01 289.773Z" fill="#575A89"/>
<path d="M1391.76 558.5L1389.39 572.802H1410.69L1409.9 558.5H1391.76Z" fill="#FFB8B8"/>
<path d="M1460.36 574.308L1458.79 593.88L1472.98 595.385V572.803L1460.36 574.308Z" fill="#FFB8B8"/>
<path d="M1400.43 371.821L1382.3 471.183L1387.03 561.512H1411.47V479.463L1435.13 437.31L1454.06 490.001L1458.79 578.072L1485.6 573.555L1479.29 487.743C1479.29 487.743 1474.56 373.327 1469.83 371.821C1465.1 370.316 1400.43 371.821 1400.43 371.821Z" fill="#333244"/>
<path d="M1394.13 568.286C1394.13 568.286 1394.13 560.759 1387.82 565.275C1381.51 569.792 1373.62 578.072 1373.62 578.072C1373.62 578.072 1343.66 593.879 1364.95 596.137C1386.24 598.396 1399.65 585.599 1399.65 585.599L1402.01 587.857C1402.01 587.857 1414.63 585.599 1414.63 582.588C1414.54 580.065 1414.27 577.551 1413.84 575.061C1413.84 575.061 1412.18 562.293 1410.25 564.913C1408.32 567.533 1397.28 572.803 1394.13 568.286Z" fill="#333244"/>
<path d="M1473.77 589.362C1473.77 589.362 1459.58 582.588 1456.42 588.61C1453.27 594.631 1450.9 606.675 1450.9 606.675C1450.9 606.675 1440.65 625.494 1458.79 623.988C1476.92 622.483 1476.14 612.697 1476.14 610.439C1476.14 608.181 1475.35 602.912 1476.14 600.653C1476.92 598.395 1473.77 589.362 1473.77 589.362Z" fill="#333244"/>
<path d="M1442.62 260.039C1454.82 260.039 1464.7 250.603 1464.7 238.962C1464.7 227.322 1454.82 217.886 1442.62 217.886C1430.43 217.886 1420.54 227.322 1420.54 238.962C1420.54 250.603 1430.43 260.039 1442.62 260.039Z" fill="#FFB8B8"/>
<path d="M1428.03 249.125L1427.24 276.224L1455.63 273.965V249.125H1428.03Z" fill="#FFB8B8"/>
<path d="M1457.21 260.416C1457.21 260.416 1443.8 268.696 1439.86 270.202C1435.92 271.707 1427.24 264.18 1427.24 264.18C1427.24 264.18 1424.88 265.685 1424.88 267.191C1424.88 268.696 1423.3 274.718 1423.3 274.718L1404.38 334.184L1405.95 376.338C1405.95 376.338 1463.52 381.607 1469.83 374.832C1476.14 368.058 1466.67 270.954 1466.67 270.954L1457.21 260.416Z" fill="#E6E6E6"/>
<path d="M1509.25 439.567C1500.58 444.837 1472.19 451.611 1472.19 451.611C1472.19 451.611 1469.09 387.892 1458 377.843C1446.97 367.839 1428.96 295.719 1445.15 283.178C1445.22 283.114 1445.3 283.053 1445.38 282.998L1455.63 260.416C1455.63 260.416 1457.21 258.157 1460.36 261.168C1462.92 263.778 1465.29 266.544 1467.46 269.448L1467.91 269.621L1489.54 277.728L1480.87 314.613C1480.87 314.613 1517.93 434.298 1509.25 439.567Z" fill="#575A89"/>
<path opacity="0.1" d="M1467.91 269.622L1461.94 290.525L1445.15 283.178C1445.23 283.114 1445.3 283.053 1445.38 282.998L1455.63 260.416C1455.63 260.416 1457.21 258.157 1460.36 261.168C1462.92 263.778 1465.29 266.544 1467.46 269.448L1467.91 269.622Z" fill="black"/>
<path d="M1426.85 263.804L1424.48 289.397L1424.36 290.564L1406.35 454.247C1406.35 454.247 1390.58 448.978 1385.06 442.956C1379.54 436.934 1397.67 369.94 1397.67 369.94L1399.25 285.633C1399.25 285.633 1413.24 276.231 1418.96 271.068C1420.3 269.863 1421.18 268.892 1421.33 268.32C1422.12 265.309 1426.85 263.804 1426.85 263.804Z" fill="#575A89"/>
<path opacity="0.1" d="M1426.85 263.804L1424.48 289.397L1424.36 290.564L1413.05 289.02L1418.96 271.068C1420.3 269.863 1421.18 268.892 1421.33 268.32C1422.12 265.309 1426.85 263.804 1426.85 263.804Z" fill="black"/>
<path d="M1469.04 390.64L1460.36 398.167C1460.36 398.167 1464.31 413.975 1469.04 414.727C1469.04 414.727 1472.19 410.211 1472.98 406.447C1473.77 402.683 1480.87 398.92 1480.87 398.92L1469.04 390.64Z" fill="#FFB8B8"/>
<path d="M1479.29 276.224L1489.54 277.729C1489.54 277.729 1523.45 332.679 1519.51 352.25C1515.56 371.821 1484.02 405.695 1484.02 405.695L1464.31 390.64L1493.48 353.003L1478.5 307.839L1479.29 276.224Z" fill="#575A89"/>
<path d="M1420.49 241.33C1420.49 241.33 1420.49 222.743 1425.22 218.518H1430.9C1430.9 218.518 1437.53 209.225 1446.04 212.604C1454.56 215.984 1468.76 221.898 1467.81 231.192C1466.86 240.485 1463.91 246.49 1463.91 246.49C1463.91 246.49 1462.34 246.49 1458.82 241.438C1454.12 234.687 1464.97 236.791 1450.78 234.256C1436.58 231.722 1428.06 228.342 1426.17 231.722C1424.28 235.101 1420.49 241.33 1420.49 241.33Z" fill="#2F2E41"/>
<path d="M1430.81 219.78C1430.81 219.78 1431.56 214.347 1434.68 213.178L1430.81 219.78Z" fill="#2F2E41"/>
<path d="M1430.79 220.897C1430.79 220.897 1429.22 215.628 1431.58 213.369L1430.79 220.897Z" fill="#2F2E41"/>
<path d="M1338.95 174.5H907.33C901.807 174.5 897.33 178.977 897.33 184.5V438.557C897.33 444.08 901.807 448.557 907.33 448.557H1338.95C1344.47 448.557 1348.95 444.08 1348.95 438.557V184.5C1348.95 178.977 1344.47 174.5 1338.95 174.5Z" fill="#EBEEF2"/>
<path d="M1348.95 195.581V188.052H1335.07V174.5H1329.03V188.052H917.254V174.5H911.216V188.052H897.33V195.581H911.216V427.476H897.33V435.005H911.216V448.557H917.254V435.005H1329.03V448.557H1335.07V435.005H1348.95V427.476H1335.07V195.581H1348.95ZM1329.03 427.476H917.254V195.581H1329.03L1329.03 427.476Z" fill="#D0D4D9"/>
<path d="M1246.04 210.632H1163.04C1160.28 210.632 1158.04 212.87 1158.04 215.632V290.081C1158.04 292.842 1160.28 295.081 1163.04 295.081H1246.04C1248.8 295.081 1251.04 292.842 1251.04 290.081V215.632C1251.04 212.87 1248.8 210.632 1246.04 210.632Z" fill="#C2C6CC"/>
<path d="M1237.97 220.72H1171.11C1169.73 220.72 1168.61 221.839 1168.61 223.22V270.68C1168.61 272.061 1169.73 273.18 1171.11 273.18H1237.97C1239.35 273.18 1240.47 272.061 1240.47 270.68V223.22C1240.47 221.839 1239.35 220.72 1237.97 220.72Z" fill="#6C63FF"/>
<path d="M1207.11 229.341H1186.92C1185.54 229.341 1184.42 230.46 1184.42 231.841V250.891C1184.42 252.272 1185.54 253.391 1186.92 253.391H1207.11C1208.5 253.391 1209.61 252.272 1209.61 250.891V231.841C1209.61 230.46 1208.5 229.341 1207.11 229.341Z" fill="#F2F2F2"/>
<path d="M1196.57 235.355C1195.18 235.355 1194.07 236.475 1194.07 237.855V262.059C1194.07 263.44 1195.18 264.559 1196.57 264.559H1222.16C1223.54 264.559 1224.66 263.44 1224.66 262.059V237.855C1224.66 236.475 1223.54 235.355 1222.16 235.355H1196.57ZM1223.33 260.792C1223.33 262.173 1222.21 263.292 1220.83 263.292H1197.89C1196.51 263.292 1195.39 262.173 1195.39 260.792V239.122C1195.39 237.741 1196.51 236.622 1197.89 236.622H1220.83C1222.21 236.622 1223.33 237.741 1223.33 239.122V260.792Z" fill="#3F3D56"/>
<path d="M1206.64 278.388H1169.52C1168.97 278.388 1168.54 278.827 1168.54 279.37C1168.54 279.912 1168.97 280.352 1169.52 280.352H1206.64C1207.19 280.352 1207.63 279.912 1207.63 279.37C1207.63 278.827 1207.19 278.388 1206.64 278.388Z" fill="#F2F2F2"/>
<path d="M1204.54 219.469C1206.81 219.469 1208.65 217.71 1208.65 215.541C1208.65 213.372 1206.81 211.613 1204.54 211.613C1202.27 211.613 1200.42 213.372 1200.42 215.541C1200.42 217.71 1202.27 219.469 1204.54 219.469Z" fill="#3F3D56"/>
<path d="M1281.12 332.433H1198.11C1195.35 332.433 1193.11 334.671 1193.11 337.433V411.882C1193.11 414.643 1195.35 416.882 1198.11 416.882H1281.12C1283.88 416.882 1286.12 414.643 1286.12 411.882V337.433C1286.12 334.671 1283.88 332.433 1281.12 332.433Z" fill="#C2C6CC"/>
<path d="M1273.05 342.521H1206.18C1204.8 342.521 1203.68 343.641 1203.68 345.021V392.482C1203.68 393.862 1204.8 394.982 1206.18 394.982H1273.05C1274.43 394.982 1275.55 393.862 1275.55 392.482V345.021C1275.55 343.641 1274.43 342.521 1273.05 342.521Z" fill="#6C63FF"/>
<path d="M1241.72 401.171H1204.59C1204.05 401.171 1203.61 401.611 1203.61 402.153C1203.61 402.695 1204.05 403.135 1204.59 403.135H1241.72C1242.26 403.135 1242.7 402.695 1242.7 402.153C1242.7 401.611 1242.26 401.171 1241.72 401.171Z" fill="#F2F2F2"/>
<path d="M1241.72 407.062H1204.59C1204.05 407.062 1203.61 407.502 1203.61 408.044C1203.61 408.587 1204.05 409.026 1204.59 409.026H1241.72C1242.26 409.026 1242.7 408.587 1242.7 408.044C1242.7 407.502 1242.26 407.062 1241.72 407.062Z" fill="#F2F2F2"/>
<path d="M1216.47 376.622C1221.01 376.622 1224.7 373.105 1224.7 368.766C1224.7 364.427 1221.01 360.91 1216.47 360.91C1211.92 360.91 1208.24 364.427 1208.24 368.766C1208.24 373.105 1211.92 376.622 1216.47 376.622Z" fill="#3F3D56"/>
<path d="M1239.62 376.622C1244.16 376.622 1247.85 373.105 1247.85 368.766C1247.85 364.427 1244.16 360.91 1239.62 360.91C1235.07 360.91 1231.39 364.427 1231.39 368.766C1231.39 373.105 1235.07 376.622 1239.62 376.622Z" fill="#F2F2F2"/>
<path d="M1262.76 376.622C1267.31 376.622 1270.99 373.105 1270.99 368.766C1270.99 364.427 1267.31 360.91 1262.76 360.91C1258.22 360.91 1254.53 364.427 1254.53 368.766C1254.53 373.105 1258.22 376.622 1262.76 376.622Z" fill="#FF6584"/>
<path d="M1239.62 341.271C1241.89 341.271 1243.73 339.512 1243.73 337.343C1243.73 335.174 1241.89 333.415 1239.62 333.415C1237.34 333.415 1235.5 335.174 1235.5 337.343C1235.5 339.512 1237.34 341.271 1239.62 341.271Z" fill="#3F3D56"/>
<path d="M1138.78 306.047H1055.78C1053.02 306.047 1050.78 308.285 1050.78 311.047V385.496C1050.78 388.258 1053.02 390.496 1055.78 390.496H1138.78C1141.54 390.496 1143.78 388.258 1143.78 385.496V311.047C1143.78 308.285 1141.54 306.047 1138.78 306.047Z" fill="#C2C6CC"/>
<path d="M1130.71 316.135H1063.85C1062.47 316.135 1061.35 317.254 1061.35 318.635V366.095C1061.35 367.476 1062.47 368.595 1063.85 368.595H1130.71C1132.09 368.595 1133.21 367.476 1133.21 366.095V318.635C1133.21 317.254 1132.09 316.135 1130.71 316.135Z" fill="#6C63FF"/>
<path d="M1092.49 365.152C1102.13 365.152 1109.94 357.695 1109.94 348.496C1109.94 339.298 1102.13 331.841 1092.49 331.841C1082.86 331.841 1075.05 339.298 1075.05 348.496C1075.05 357.695 1082.86 365.152 1092.49 365.152Z" fill="#F2F2F2"/>
<path d="M1097.64 361.343C1093.31 361.343 1089.08 360.119 1085.48 357.824C1081.89 355.53 1079.08 352.268 1077.43 348.452C1075.77 344.637 1075.34 340.438 1076.18 336.387C1077.03 332.337 1079.11 328.616 1082.17 325.695C1085.23 322.775 1089.13 320.786 1093.37 319.98C1097.61 319.175 1102.01 319.588 1106.01 321.169C1110.01 322.749 1113.42 325.426 1115.83 328.86C1118.23 332.294 1119.51 336.331 1119.51 340.461C1119.51 345.998 1117.2 351.305 1113.1 355.22C1109 359.135 1103.44 361.337 1097.64 361.343ZM1097.64 320.338C1093.47 320.338 1089.39 321.519 1085.93 323.73C1082.46 325.941 1079.76 329.084 1078.16 332.761C1076.57 336.438 1076.15 340.484 1076.96 344.387C1077.77 348.29 1079.78 351.876 1082.73 354.69C1085.68 357.504 1089.44 359.421 1093.52 360.197C1097.61 360.974 1101.85 360.575 1105.7 359.052C1109.56 357.529 1112.85 354.95 1115.16 351.641C1117.48 348.332 1118.72 344.441 1118.72 340.461C1118.71 335.126 1116.49 330.011 1112.54 326.239C1108.58 322.466 1103.23 320.344 1097.64 320.338Z" fill="#3F3D56"/>
<path d="M1099.38 379.694H1062.26C1061.71 379.694 1061.27 380.134 1061.27 380.676C1061.27 381.219 1061.71 381.658 1062.26 381.658H1099.38C1099.93 381.658 1100.37 381.219 1100.37 380.676C1100.37 380.134 1099.93 379.694 1099.38 379.694Z" fill="#F2F2F2"/>
<path d="M1114.81 373.803H1062.26C1061.71 373.803 1061.27 374.242 1061.27 374.785C1061.27 375.327 1061.71 375.767 1062.26 375.767H1114.81C1115.36 375.767 1115.8 375.327 1115.8 374.785C1115.8 374.242 1115.36 373.803 1114.81 373.803Z" fill="#F2F2F2"/>
<path d="M1097.28 314.884C1099.55 314.884 1101.39 313.125 1101.39 310.956C1101.39 308.787 1099.55 307.028 1097.28 307.028C1095.01 307.028 1093.16 308.787 1093.16 310.956C1093.16 313.125 1095.01 314.884 1097.28 314.884Z" fill="#3F3D56"/>
<path d="M1036.56 209.126H953.557C950.796 209.126 948.557 211.365 948.557 214.126V288.575C948.557 291.337 950.796 293.575 953.557 293.575H1036.56C1039.32 293.575 1041.56 291.337 1041.56 288.575V214.126C1041.56 211.365 1039.32 209.126 1036.56 209.126Z" fill="#C2C6CC"/>
<path d="M1028.49 219.215H961.626C960.245 219.215 959.126 220.334 959.126 221.715V269.175C959.126 270.556 960.245 271.675 961.626 271.675H1028.49C1029.87 271.675 1030.99 270.556 1030.99 269.175V221.715C1030.99 220.334 1029.87 219.215 1028.49 219.215Z" fill="#6C63FF"/>
<path d="M1000.6 260.283H989.515C988.308 260.283 987.328 261.262 987.328 262.47C987.328 263.678 988.308 264.657 989.515 264.657H1000.6C1001.81 264.657 1002.79 263.678 1002.79 262.47C1002.79 261.262 1001.81 260.283 1000.6 260.283Z" fill="#3F3D56"/>
<path d="M1020.54 226.232H969.575C969.057 226.232 968.637 226.652 968.637 227.17C968.637 227.687 969.057 228.107 969.575 228.107H1020.54C1021.06 228.107 1021.48 227.687 1021.48 227.17C1021.48 226.652 1021.06 226.232 1020.54 226.232Z" fill="#3F3D56"/>
<path d="M1020.54 232.168H969.575C969.057 232.168 968.637 232.588 968.637 233.105C968.637 233.623 969.057 234.042 969.575 234.042H1020.54C1021.06 234.042 1021.48 233.623 1021.48 233.105C1021.48 232.588 1021.06 232.168 1020.54 232.168Z" fill="#3F3D56"/>
<path d="M1020.54 238.104H969.575C969.057 238.104 968.637 238.523 968.637 239.041C968.637 239.558 969.057 239.978 969.575 239.978H1020.54C1021.06 239.978 1021.48 239.558 1021.48 239.041C1021.48 238.523 1021.06 238.104 1020.54 238.104Z" fill="#3F3D56"/>
<path d="M1020.54 244.039H969.575C969.057 244.039 968.637 244.459 968.637 244.976C968.637 245.494 969.057 245.913 969.575 245.913H1020.54C1021.06 245.913 1021.48 245.494 1021.48 244.976C1021.48 244.459 1021.06 244.039 1020.54 244.039Z" fill="#3F3D56"/>
<path d="M1020.54 249.975H969.575C969.057 249.975 968.637 250.394 968.637 250.912C968.637 251.429 969.057 251.849 969.575 251.849H1020.54C1021.06 251.849 1021.48 251.429 1021.48 250.912C1021.48 250.394 1021.06 249.975 1020.54 249.975Z" fill="#3F3D56"/>
<path d="M997.163 276.882H960.036C959.494 276.882 959.054 277.321 959.054 277.864C959.054 278.406 959.494 278.846 960.036 278.846H997.163C997.705 278.846 998.145 278.406 998.145 277.864C998.145 277.321 997.705 276.882 997.163 276.882Z" fill="#F2F2F2"/>
<path d="M1012.59 281.792H960.036C959.494 281.792 959.054 282.232 959.054 282.774C959.054 283.316 959.494 283.756 960.036 283.756H1012.59C1013.14 283.756 1013.58 283.316 1013.58 282.774C1013.58 282.232 1013.14 281.792 1012.59 281.792Z" fill="#F2F2F2"/>
<path d="M995.059 217.963C997.331 217.963 999.174 216.205 999.174 214.035C999.174 211.866 997.331 210.107 995.059 210.107C992.786 210.107 990.944 211.866 990.944 214.035C990.944 216.205 992.786 217.963 995.059 217.963Z" fill="#3F3D56"/>
<path fill-rule="evenodd" clip-rule="evenodd" d="M910.365 174.5H906.479C900.956 174.5 896.479 178.977 896.479 184.5V188.052V195.581V427.476V435.005V438.557C896.479 444.08 900.956 448.557 906.479 448.557H910.365H916.403H1328.18H1334.21H1338.1C1343.62 448.557 1348.1 444.08 1348.1 438.557L1348.1 435.005V427.476V195.581V188.052L1348.1 184.5C1348.1 178.977 1343.62 174.5 1338.1 174.5H1334.21H1328.18H916.403H910.365ZM1420.81 236.176C1420.76 237.614 1420.76 238.507 1420.76 238.507L1420.91 238.245C1421.47 243.623 1424.15 248.406 1428.14 251.824L1427.85 261.645C1427.63 261.462 1427.51 261.356 1427.51 261.356C1427.51 261.356 1427.32 261.476 1427.05 261.682L1427.11 260.98C1427.11 260.98 1426.82 261.074 1426.36 261.262C1424.99 261.827 1422.19 263.238 1421.59 265.496C1421.44 266.068 1420.56 267.039 1419.22 268.244C1413.5 273.407 1399.51 282.809 1399.51 282.809L1399.39 289.346C1398.09 291.59 1396.69 295.92 1395.97 304.262C1394.39 322.328 1393.6 353.943 1393.6 353.943L1375.46 398.355L1379.04 399.413L1377.04 405.129C1377.04 405.129 1357.33 426.958 1371.52 429.969C1385.71 432.98 1387.29 406.634 1387.29 406.634L1389.21 402.977C1385.53 419.972 1382.64 437.213 1385.32 440.132C1385.9 440.765 1386.59 441.39 1387.37 442.001L1382.56 468.359L1387.29 558.688H1391.53L1391.14 561.033C1390.33 561.134 1389.33 561.556 1388.08 562.452C1381.77 566.968 1373.89 575.248 1373.89 575.248C1373.89 575.248 1343.92 591.056 1365.21 593.314C1386.5 595.572 1399.91 582.776 1399.91 582.776L1402.27 585.034C1402.27 585.034 1414.89 582.776 1414.89 579.765C1414.8 577.242 1414.54 574.727 1414.1 572.237C1414.1 572.237 1412.44 559.469 1410.51 562.089L1410.33 558.688H1411.74V476.639L1435.39 434.486L1454.32 487.178L1459.05 575.248L1460.34 575.03L1459.65 583.564C1458.36 583.906 1457.31 584.596 1456.68 585.786C1453.53 591.808 1451.16 603.852 1451.16 603.852C1451.16 603.852 1440.91 622.67 1459.05 621.165C1476.53 619.714 1476.43 610.569 1476.4 607.889L1476.4 607.877C1476.4 607.781 1476.4 607.694 1476.4 607.616C1476.4 606.95 1476.33 606.023 1476.25 604.989C1476.07 602.513 1475.84 599.423 1476.4 597.83C1477.19 595.572 1474.03 586.539 1474.03 586.539C1474.03 586.539 1473.75 586.402 1473.24 586.184V572.857L1485.86 570.732L1479.55 484.919C1479.55 484.919 1478.86 468.202 1477.74 447.463C1486.38 445.23 1503.19 440.587 1509.52 436.744C1513.37 434.404 1508.2 409.506 1501.27 382.544C1509.43 371.811 1517.85 358.932 1519.77 349.427C1523.7 329.921 1490.03 275.271 1489.81 274.907L1489.8 274.905L1468.17 266.798L1467.72 266.625C1465.82 264.084 1463.77 261.648 1461.58 259.331C1461.26 259 1460.95 258.671 1460.63 258.345C1458.26 256.087 1456.78 256.792 1456.19 257.286C1455.99 257.451 1455.9 257.592 1455.9 257.592L1455.9 253.169C1459.37 250.746 1462.08 247.377 1463.6 243.459C1463.99 243.667 1464.18 243.667 1464.18 243.667C1464.18 243.667 1467.13 237.662 1468.07 228.368C1469.02 219.074 1454.82 213.16 1446.31 209.781C1440.55 207.494 1435.65 211.008 1433.09 213.52L1434.94 210.354C1432.93 211.112 1431.9 213.657 1431.42 215.356C1431.39 215.401 1431.36 215.441 1431.33 215.477L1431.84 210.546C1430.53 211.805 1430.43 213.999 1430.61 215.695H1425.49C1422.19 218.642 1421.19 228.582 1420.89 234.322C1420.83 234.921 1420.81 235.527 1420.81 236.139L1420.81 236.176ZM1493.75 350.179L1492.81 351.387C1488.49 336.144 1484.55 323.013 1482.54 316.386L1493.75 350.179Z" fill="url(#paint1_linear)"/>
</g>
</g>
<defs>
<filter id="filter0_d" x="876" y="134.5" width="684.58" height="510" filterUnits="userSpaceOnUse" color-interpolation-filters="sRGB">
<feFlood flood-opacity="0" result="BackgroundImageFix"/>
<feColorMatrix in="SourceAlpha" type="matrix" values="0 0 0 0 0 0 0 0 0 0 0 0 0 0 0 0 0 0 127 0"/>
<feOffset dx="10" dy="-10"/>
<feGaussianBlur stdDeviation="15"/>
<feColorMatrix type="matrix" values="0 0 0 0 0.517647 0 0 0 0 0.517647 0 0 0 0 0.6 0 0 0 0.05 0"/>
<feBlend mode="normal" in2="BackgroundImageFix" result="effect1_dropShadow"/>
<feBlend mode="normal" in="SourceGraphic" in2="effect1_dropShadow" result="shape"/>
</filter>
<linearGradient id="paint0_linear" x1="962" y1="-128.5" x2="1825.99" y2="451.766" gradientUnits="userSpaceOnUse">
<stop stop-color="white" stop-opacity="0.2"/>
<stop offset="1" stop-color="white" stop-opacity="0"/>
</linearGradient>
<linearGradient id="paint1_linear" x1="896.479" y1="621.251" x2="1476.51" y2="462.193" gradientUnits="userSpaceOnUse">
<stop stop-color="white" stop-opacity="0.2"/>
<stop offset="1" stop-color="white" stop-opacity="0"/>
</linearGradient>
<clipPath id="clip0">
<rect width="1620" height="695" fill="white" transform="translate(0 0.5)"/>
</clipPath>
</defs>
</svg>
