<svg width="1236" height="696" viewBox="0 0 1236 696" fill="none" xmlns="http://www.w3.org/2000/svg">
<g clip-path="url(#clip0)">
<rect width="1236" height="695" transform="translate(0 0.5)" fill="white"/>
<path d="M94.7 334.6C89.7 334.6 85.8 333.217 83 330.45C80.2333 327.683 78.85 323.733 78.85 318.6V299H86.95V318.3C86.95 324.567 89.55 327.7 94.75 327.7C97.2833 327.7 99.2167 326.95 100.55 325.45C101.883 323.917 102.55 321.533 102.55 318.3V299H110.55V318.6C110.55 323.733 109.15 327.683 106.35 330.45C103.583 333.217 99.7 334.6 94.7 334.6ZM127.554 334.4C125.321 334.4 123.138 334.133 121.004 333.6C118.871 333.033 117.171 332.333 115.904 331.5L118.504 325.9C119.704 326.667 121.154 327.3 122.854 327.8C124.554 328.267 126.221 328.5 127.854 328.5C131.154 328.5 132.804 327.683 132.804 326.05C132.804 325.283 132.354 324.733 131.454 324.4C130.554 324.067 129.171 323.783 127.304 323.55C125.104 323.217 123.288 322.833 121.854 322.4C120.421 321.967 119.171 321.2 118.104 320.1C117.071 319 116.554 317.433 116.554 315.4C116.554 313.7 117.038 312.2 118.004 310.9C119.004 309.567 120.438 308.533 122.304 307.8C124.204 307.067 126.438 306.7 129.004 306.7C130.904 306.7 132.788 306.917 134.654 307.35C136.554 307.75 138.121 308.317 139.354 309.05L136.754 314.6C134.388 313.267 131.804 312.6 129.004 312.6C127.338 312.6 126.088 312.833 125.254 313.3C124.421 313.767 124.004 314.367 124.004 315.1C124.004 315.933 124.454 316.517 125.354 316.85C126.254 317.183 127.688 317.5 129.654 317.8C131.854 318.167 133.654 318.567 135.054 319C136.454 319.4 137.671 320.15 138.704 321.25C139.738 322.35 140.254 323.883 140.254 325.85C140.254 327.517 139.754 329 138.754 330.3C137.754 331.6 136.288 332.617 134.354 333.35C132.454 334.05 130.188 334.4 127.554 334.4ZM171.917 320.65C171.917 320.75 171.867 321.45 171.767 322.75H151.417C151.783 324.417 152.65 325.733 154.017 326.7C155.383 327.667 157.083 328.15 159.117 328.15C160.517 328.15 161.75 327.95 162.817 327.55C163.917 327.117 164.933 326.45 165.867 325.55L170.017 330.05C167.483 332.95 163.783 334.4 158.917 334.4C155.883 334.4 153.2 333.817 150.867 332.65C148.533 331.45 146.733 329.8 145.467 327.7C144.2 325.6 143.567 323.217 143.567 320.55C143.567 317.917 144.183 315.55 145.417 313.45C146.683 311.317 148.4 309.667 150.567 308.5C152.767 307.3 155.217 306.7 157.917 306.7C160.55 306.7 162.933 307.267 165.067 308.4C167.2 309.533 168.867 311.167 170.067 313.3C171.3 315.4 171.917 317.85 171.917 320.65ZM157.967 312.6C156.2 312.6 154.717 313.1 153.517 314.1C152.317 315.1 151.583 316.467 151.317 318.2H164.567C164.3 316.5 163.567 315.15 162.367 314.15C161.167 313.117 159.7 312.6 157.967 312.6ZM186.16 307.7H193.06V313.7H186.36V334H178.56V313.7H174.41V307.7H178.56V306.5C178.56 303.433 179.46 301 181.26 299.2C183.093 297.4 185.66 296.5 188.96 296.5C190.126 296.5 191.226 296.633 192.26 296.9C193.326 297.133 194.21 297.483 194.91 297.95L192.86 303.6C191.96 302.967 190.91 302.65 189.71 302.65C187.343 302.65 186.16 303.95 186.16 306.55V307.7ZM224.546 307.1V334H217.146V330.8C216.112 331.967 214.879 332.867 213.446 333.5C212.012 334.1 210.462 334.4 208.796 334.4C205.262 334.4 202.462 333.383 200.396 331.35C198.329 329.317 197.296 326.3 197.296 322.3V307.1H205.096V321.15C205.096 325.483 206.912 327.65 210.546 327.65C212.412 327.65 213.912 327.05 215.046 325.85C216.179 324.617 216.746 322.8 216.746 320.4V307.1H224.546ZM232.272 296.9H240.072V334H232.272V296.9ZM269.921 310.65C270.854 309.35 272.104 308.367 273.671 307.7C275.271 307.033 277.104 306.7 279.171 306.7V313.9C278.304 313.833 277.721 313.8 277.421 313.8C275.188 313.8 273.438 314.433 272.171 315.7C270.904 316.933 270.271 318.8 270.271 321.3V334H262.471V307.1H269.921V310.65ZM310.415 320.65C310.415 320.75 310.365 321.45 310.265 322.75H289.915C290.282 324.417 291.148 325.733 292.515 326.7C293.882 327.667 295.582 328.15 297.615 328.15C299.015 328.15 300.248 327.95 301.315 327.55C302.415 327.117 303.432 326.45 304.365 325.55L308.515 330.05C305.982 332.95 302.282 334.4 297.415 334.4C294.382 334.4 291.698 333.817 289.365 332.65C287.032 331.45 285.232 329.8 283.965 327.7C282.698 325.6 282.065 323.217 282.065 320.55C282.065 317.917 282.682 315.55 283.915 313.45C285.182 311.317 286.898 309.667 289.065 308.5C291.265 307.3 293.715 306.7 296.415 306.7C299.048 306.7 301.432 307.267 303.565 308.4C305.698 309.533 307.365 311.167 308.565 313.3C309.798 315.4 310.415 317.85 310.415 320.65ZM296.465 312.6C294.698 312.6 293.215 313.1 292.015 314.1C290.815 315.1 290.082 316.467 289.815 318.2H303.065C302.798 316.5 302.065 315.15 300.865 314.15C299.665 313.117 298.198 312.6 296.465 312.6ZM329.108 334.4C326.241 334.4 323.658 333.817 321.358 332.65C319.091 331.45 317.308 329.8 316.008 327.7C314.741 325.6 314.108 323.217 314.108 320.55C314.108 317.883 314.741 315.5 316.008 313.4C317.308 311.3 319.091 309.667 321.358 308.5C323.658 307.3 326.241 306.7 329.108 306.7C331.941 306.7 334.408 307.3 336.508 308.5C338.641 309.667 340.191 311.35 341.158 313.55L335.108 316.8C333.708 314.333 331.691 313.1 329.058 313.1C327.024 313.1 325.341 313.767 324.008 315.1C322.674 316.433 322.008 318.25 322.008 320.55C322.008 322.85 322.674 324.667 324.008 326C325.341 327.333 327.024 328 329.058 328C331.724 328 333.741 326.767 335.108 324.3L341.158 327.6C340.191 329.733 338.641 331.4 336.508 332.6C334.408 333.8 331.941 334.4 329.108 334.4ZM358.607 334.4C355.774 334.4 353.224 333.817 350.957 332.65C348.724 331.45 346.974 329.8 345.707 327.7C344.44 325.6 343.807 323.217 343.807 320.55C343.807 317.883 344.44 315.5 345.707 313.4C346.974 311.3 348.724 309.667 350.957 308.5C353.224 307.3 355.774 306.7 358.607 306.7C361.44 306.7 363.974 307.3 366.207 308.5C368.44 309.667 370.19 311.3 371.457 313.4C372.724 315.5 373.357 317.883 373.357 320.55C373.357 323.217 372.724 325.6 371.457 327.7C370.19 329.8 368.44 331.45 366.207 332.65C363.974 333.817 361.44 334.4 358.607 334.4ZM358.607 328C360.607 328 362.24 327.333 363.507 326C364.807 324.633 365.457 322.817 365.457 320.55C365.457 318.283 364.807 316.483 363.507 315.15C362.24 313.783 360.607 313.1 358.607 313.1C356.607 313.1 354.957 313.783 353.657 315.15C352.357 316.483 351.707 318.283 351.707 320.55C351.707 322.817 352.357 324.633 353.657 326C354.957 327.333 356.607 328 358.607 328ZM386.521 310.65C387.454 309.35 388.704 308.367 390.271 307.7C391.871 307.033 393.704 306.7 395.771 306.7V313.9C394.904 313.833 394.321 313.8 394.021 313.8C391.787 313.8 390.037 314.433 388.771 315.7C387.504 316.933 386.871 318.8 386.871 321.3V334H379.071V307.1H386.521V310.65ZM428.064 296.9V334H420.614V330.9C418.681 333.233 415.881 334.4 412.214 334.4C409.681 334.4 407.381 333.833 405.314 332.7C403.281 331.567 401.681 329.95 400.514 327.85C399.348 325.75 398.764 323.317 398.764 320.55C398.764 317.783 399.348 315.35 400.514 313.25C401.681 311.15 403.281 309.533 405.314 308.4C407.381 307.267 409.681 306.7 412.214 306.7C415.648 306.7 418.331 307.783 420.264 309.95V296.9H428.064ZM413.564 328C415.531 328 417.164 327.333 418.464 326C419.764 324.633 420.414 322.817 420.414 320.55C420.414 318.283 419.764 316.483 418.464 315.15C417.164 313.783 415.531 313.1 413.564 313.1C411.564 313.1 409.914 313.783 408.614 315.15C407.314 316.483 406.664 318.283 406.664 320.55C406.664 322.817 407.314 324.633 408.614 326C409.914 327.333 411.564 328 413.564 328ZM444.834 334.4C442.6 334.4 440.417 334.133 438.284 333.6C436.15 333.033 434.45 332.333 433.184 331.5L435.784 325.9C436.984 326.667 438.434 327.3 440.134 327.8C441.834 328.267 443.5 328.5 445.134 328.5C448.434 328.5 450.084 327.683 450.084 326.05C450.084 325.283 449.634 324.733 448.734 324.4C447.834 324.067 446.45 323.783 444.584 323.55C442.384 323.217 440.567 322.833 439.134 322.4C437.7 321.967 436.45 321.2 435.384 320.1C434.35 319 433.834 317.433 433.834 315.4C433.834 313.7 434.317 312.2 435.284 310.9C436.284 309.567 437.717 308.533 439.584 307.8C441.484 307.067 443.717 306.7 446.284 306.7C448.184 306.7 450.067 306.917 451.934 307.35C453.834 307.75 455.4 308.317 456.634 309.05L454.034 314.6C451.667 313.267 449.084 312.6 446.284 312.6C444.617 312.6 443.367 312.833 442.534 313.3C441.7 313.767 441.284 314.367 441.284 315.1C441.284 315.933 441.734 316.517 442.634 316.85C443.534 317.183 444.967 317.5 446.934 317.8C449.134 318.167 450.934 318.567 452.334 319C453.734 319.4 454.95 320.15 455.984 321.25C457.017 322.35 457.534 323.883 457.534 325.85C457.534 327.517 457.034 329 456.034 330.3C455.034 331.6 453.567 332.617 451.634 333.35C449.734 334.05 447.467 334.4 444.834 334.4ZM486.056 307.7H492.956V313.7H486.256V334H478.456V313.7H474.306V307.7H478.456V306.5C478.456 303.433 479.356 301 481.156 299.2C482.99 297.4 485.556 296.5 488.856 296.5C490.023 296.5 491.123 296.633 492.156 296.9C493.223 297.133 494.106 297.483 494.806 297.95L492.756 303.6C491.856 302.967 490.806 302.65 489.606 302.65C487.24 302.65 486.056 303.95 486.056 306.55V307.7ZM509.8 334.4C506.967 334.4 504.417 333.817 502.15 332.65C499.917 331.45 498.167 329.8 496.9 327.7C495.634 325.6 495 323.217 495 320.55C495 317.883 495.634 315.5 496.9 313.4C498.167 311.3 499.917 309.667 502.15 308.5C504.417 307.3 506.967 306.7 509.8 306.7C512.634 306.7 515.167 307.3 517.4 308.5C519.634 309.667 521.384 311.3 522.65 313.4C523.917 315.5 524.55 317.883 524.55 320.55C524.55 323.217 523.917 325.6 522.65 327.7C521.384 329.8 519.634 331.45 517.4 332.65C515.167 333.817 512.634 334.4 509.8 334.4ZM509.8 328C511.8 328 513.434 327.333 514.7 326C516 324.633 516.65 322.817 516.65 320.55C516.65 318.283 516 316.483 514.7 315.15C513.434 313.783 511.8 313.1 509.8 313.1C507.8 313.1 506.15 313.783 504.85 315.15C503.55 316.483 502.9 318.283 502.9 320.55C502.9 322.817 503.55 324.633 504.85 326C506.15 327.333 507.8 328 509.8 328ZM537.714 310.65C538.647 309.35 539.897 308.367 541.464 307.7C543.064 307.033 544.897 306.7 546.964 306.7V313.9C546.097 313.833 545.514 313.8 545.214 313.8C542.981 313.8 541.231 314.433 539.964 315.7C538.697 316.933 538.064 318.8 538.064 321.3V334H530.264V307.1H537.714V310.65ZM94.5 370.7C97 370.7 99.2667 371.283 101.3 372.45C103.367 373.583 104.983 375.2 106.15 377.3C107.317 379.367 107.9 381.783 107.9 384.55C107.9 387.317 107.317 389.75 106.15 391.85C104.983 393.917 103.367 395.533 101.3 396.7C99.2667 397.833 97 398.4 94.5 398.4C90.8 398.4 87.9833 397.233 86.05 394.9V398H78.6V360.9H86.4V373.95C88.3667 371.783 91.0667 370.7 94.5 370.7ZM93.15 392C95.15 392 96.7833 391.333 98.05 390C99.35 388.633 100 386.817 100 384.55C100 382.283 99.35 380.483 98.05 379.15C96.7833 377.783 95.15 377.1 93.15 377.1C91.15 377.1 89.5 377.783 88.2 379.15C86.9333 380.483 86.3 382.283 86.3 384.55C86.3 386.817 86.9333 388.633 88.2 390C89.5 391.333 91.15 392 93.15 392ZM139.971 384.65C139.971 384.75 139.921 385.45 139.821 386.75H119.471C119.838 388.417 120.705 389.733 122.071 390.7C123.438 391.667 125.138 392.15 127.171 392.15C128.571 392.15 129.805 391.95 130.871 391.55C131.971 391.117 132.988 390.45 133.921 389.55L138.071 394.05C135.538 396.95 131.838 398.4 126.971 398.4C123.938 398.4 121.255 397.817 118.921 396.65C116.588 395.45 114.788 393.8 113.521 391.7C112.255 389.6 111.621 387.217 111.621 384.55C111.621 381.917 112.238 379.55 113.471 377.45C114.738 375.317 116.455 373.667 118.621 372.5C120.821 371.3 123.271 370.7 125.971 370.7C128.605 370.7 130.988 371.267 133.121 372.4C135.255 373.533 136.921 375.167 138.121 377.3C139.355 379.4 139.971 381.85 139.971 384.65ZM126.021 376.6C124.255 376.6 122.771 377.1 121.571 378.1C120.371 379.1 119.638 380.467 119.371 382.2H132.621C132.355 380.5 131.621 379.15 130.421 378.15C129.221 377.117 127.755 376.6 126.021 376.6ZM154.714 398.4C152.481 398.4 150.298 398.133 148.164 397.6C146.031 397.033 144.331 396.333 143.064 395.5L145.664 389.9C146.864 390.667 148.314 391.3 150.014 391.8C151.714 392.267 153.381 392.5 155.014 392.5C158.314 392.5 159.964 391.683 159.964 390.05C159.964 389.283 159.514 388.733 158.614 388.4C157.714 388.067 156.331 387.783 154.464 387.55C152.264 387.217 150.448 386.833 149.014 386.4C147.581 385.967 146.331 385.2 145.264 384.1C144.231 383 143.714 381.433 143.714 379.4C143.714 377.7 144.198 376.2 145.164 374.9C146.164 373.567 147.598 372.533 149.464 371.8C151.364 371.067 153.598 370.7 156.164 370.7C158.064 370.7 159.948 370.917 161.814 371.35C163.714 371.75 165.281 372.317 166.514 373.05L163.914 378.6C161.548 377.267 158.964 376.6 156.164 376.6C154.498 376.6 153.248 376.833 152.414 377.3C151.581 377.767 151.164 378.367 151.164 379.1C151.164 379.933 151.614 380.517 152.514 380.85C153.414 381.183 154.848 381.5 156.814 381.8C159.014 382.167 160.814 382.567 162.214 383C163.614 383.4 164.831 384.15 165.864 385.25C166.898 386.35 167.414 387.883 167.414 389.85C167.414 391.517 166.914 393 165.914 394.3C164.914 395.6 163.448 396.617 161.514 397.35C159.614 398.05 157.348 398.4 154.714 398.4ZM190.077 396.7C189.31 397.267 188.36 397.7 187.227 398C186.127 398.267 184.96 398.4 183.727 398.4C180.527 398.4 178.044 397.583 176.277 395.95C174.544 394.317 173.677 391.917 173.677 388.75V377.7H169.527V371.7H173.677V365.15H181.477V371.7H188.177V377.7H181.477V388.65C181.477 389.783 181.76 390.667 182.327 391.3C182.927 391.9 183.76 392.2 184.827 392.2C186.06 392.2 187.11 391.867 187.977 391.2L190.077 396.7ZM218.666 398.4C216.432 398.4 214.249 398.133 212.116 397.6C209.982 397.033 208.282 396.333 207.016 395.5L209.616 389.9C210.816 390.667 212.266 391.3 213.966 391.8C215.666 392.267 217.332 392.5 218.966 392.5C222.266 392.5 223.916 391.683 223.916 390.05C223.916 389.283 223.466 388.733 222.566 388.4C221.666 388.067 220.282 387.783 218.416 387.55C216.216 387.217 214.399 386.833 212.966 386.4C211.532 385.967 210.282 385.2 209.216 384.1C208.182 383 207.666 381.433 207.666 379.4C207.666 377.7 208.149 376.2 209.116 374.9C210.116 373.567 211.549 372.533 213.416 371.8C215.316 371.067 217.549 370.7 220.116 370.7C222.016 370.7 223.899 370.917 225.766 371.35C227.666 371.75 229.232 372.317 230.466 373.05L227.866 378.6C225.499 377.267 222.916 376.6 220.116 376.6C218.449 376.6 217.199 376.833 216.366 377.3C215.532 377.767 215.116 378.367 215.116 379.1C215.116 379.933 215.566 380.517 216.466 380.85C217.366 381.183 218.799 381.5 220.766 381.8C222.966 382.167 224.766 382.567 226.166 383C227.566 383.4 228.782 384.15 229.816 385.25C230.849 386.35 231.366 387.883 231.366 389.85C231.366 391.517 230.866 393 229.866 394.3C228.866 395.6 227.399 396.617 225.466 397.35C223.566 398.05 221.299 398.4 218.666 398.4ZM254.028 396.7C253.261 397.267 252.311 397.7 251.178 398C250.078 398.267 248.911 398.4 247.678 398.4C244.478 398.4 241.995 397.583 240.228 395.95C238.495 394.317 237.628 391.917 237.628 388.75V377.7H233.478V371.7H237.628V365.15H245.428V371.7H252.128V377.7H245.428V388.65C245.428 389.783 245.711 390.667 246.278 391.3C246.878 391.9 247.711 392.2 248.778 392.2C250.011 392.2 251.061 391.867 251.928 391.2L254.028 396.7ZM286.007 371.1V398H278.607V394.8C277.573 395.967 276.34 396.867 274.907 397.5C273.473 398.1 271.923 398.4 270.257 398.4C266.723 398.4 263.923 397.383 261.857 395.35C259.79 393.317 258.757 390.3 258.757 386.3V371.1H266.557V385.15C266.557 389.483 268.373 391.65 272.007 391.65C273.873 391.65 275.373 391.05 276.507 389.85C277.64 388.617 278.207 386.8 278.207 384.4V371.1H286.007ZM321.133 360.9V398H313.683V394.9C311.749 397.233 308.949 398.4 305.283 398.4C302.749 398.4 300.449 397.833 298.383 396.7C296.349 395.567 294.749 393.95 293.583 391.85C292.416 389.75 291.833 387.317 291.833 384.55C291.833 381.783 292.416 379.35 293.583 377.25C294.749 375.15 296.349 373.533 298.383 372.4C300.449 371.267 302.749 370.7 305.283 370.7C308.716 370.7 311.399 371.783 313.333 373.95V360.9H321.133ZM306.633 392C308.599 392 310.233 391.333 311.533 390C312.833 388.633 313.483 386.817 313.483 384.55C313.483 382.283 312.833 380.483 311.533 379.15C310.233 377.783 308.599 377.1 306.633 377.1C304.633 377.1 302.983 377.783 301.683 379.15C300.383 380.483 299.733 382.283 299.733 384.55C299.733 386.817 300.383 388.633 301.683 390C302.983 391.333 304.633 392 306.633 392ZM355.552 371.1L343.402 399.65C342.169 402.75 340.635 404.933 338.802 406.2C337.002 407.467 334.819 408.1 332.252 408.1C330.852 408.1 329.469 407.883 328.102 407.45C326.735 407.017 325.619 406.417 324.752 405.65L327.602 400.1C328.202 400.633 328.885 401.05 329.652 401.35C330.452 401.65 331.235 401.8 332.002 401.8C333.069 401.8 333.935 401.533 334.602 401C335.269 400.5 335.869 399.65 336.402 398.45L336.502 398.2L324.852 371.1H332.902L340.452 389.35L348.052 371.1H355.552ZM400.245 384.65C400.245 384.75 400.195 385.45 400.095 386.75H379.745C380.112 388.417 380.978 389.733 382.345 390.7C383.712 391.667 385.412 392.15 387.445 392.15C388.845 392.15 390.078 391.95 391.145 391.55C392.245 391.117 393.262 390.45 394.195 389.55L398.345 394.05C395.812 396.95 392.112 398.4 387.245 398.4C384.212 398.4 381.528 397.817 379.195 396.65C376.862 395.45 375.062 393.8 373.795 391.7C372.528 389.6 371.895 387.217 371.895 384.55C371.895 381.917 372.512 379.55 373.745 377.45C375.012 375.317 376.728 373.667 378.895 372.5C381.095 371.3 383.545 370.7 386.245 370.7C388.878 370.7 391.262 371.267 393.395 372.4C395.528 373.533 397.195 375.167 398.395 377.3C399.628 379.4 400.245 381.85 400.245 384.65ZM386.295 376.6C384.528 376.6 383.045 377.1 381.845 378.1C380.645 379.1 379.912 380.467 379.645 382.2H392.895C392.628 380.5 391.895 379.15 390.695 378.15C389.495 377.117 388.028 376.6 386.295 376.6ZM422.305 398L416.405 389.75L410.305 398H401.805L412.155 384.45L402.155 371.1H410.905L416.605 378.95L422.455 371.1H430.755L420.755 384.25L431.155 398H422.305ZM451.342 370.7C453.842 370.7 456.108 371.283 458.142 372.45C460.208 373.583 461.825 375.2 462.992 377.3C464.158 379.367 464.742 381.783 464.742 384.55C464.742 387.317 464.158 389.75 462.992 391.85C461.825 393.917 460.208 395.533 458.142 396.7C456.108 397.833 453.842 398.4 451.342 398.4C447.908 398.4 445.208 397.317 443.242 395.15V407.7H435.442V371.1H442.892V374.2C444.825 371.867 447.642 370.7 451.342 370.7ZM449.992 392C451.992 392 453.625 391.333 454.892 390C456.192 388.633 456.842 386.817 456.842 384.55C456.842 382.283 456.192 380.483 454.892 379.15C453.625 377.783 451.992 377.1 449.992 377.1C447.992 377.1 446.342 377.783 445.042 379.15C443.775 380.483 443.142 382.283 443.142 384.55C443.142 386.817 443.775 388.633 445.042 390C446.342 391.333 447.992 392 449.992 392ZM496.813 384.65C496.813 384.75 496.763 385.45 496.663 386.75H476.313C476.68 388.417 477.547 389.733 478.913 390.7C480.28 391.667 481.98 392.15 484.013 392.15C485.413 392.15 486.647 391.95 487.713 391.55C488.813 391.117 489.83 390.45 490.763 389.55L494.913 394.05C492.38 396.95 488.68 398.4 483.813 398.4C480.78 398.4 478.097 397.817 475.763 396.65C473.43 395.45 471.63 393.8 470.363 391.7C469.097 389.6 468.463 387.217 468.463 384.55C468.463 381.917 469.08 379.55 470.313 377.45C471.58 375.317 473.297 373.667 475.463 372.5C477.663 371.3 480.113 370.7 482.813 370.7C485.447 370.7 487.83 371.267 489.963 372.4C492.097 373.533 493.763 375.167 494.963 377.3C496.197 379.4 496.813 381.85 496.813 384.65ZM482.863 376.6C481.097 376.6 479.613 377.1 478.413 378.1C477.213 379.1 476.48 380.467 476.213 382.2H489.463C489.197 380.5 488.463 379.15 487.263 378.15C486.063 377.117 484.597 376.6 482.863 376.6ZM509.956 374.65C510.89 373.35 512.14 372.367 513.706 371.7C515.306 371.033 517.14 370.7 519.206 370.7V377.9C518.34 377.833 517.756 377.8 517.456 377.8C515.223 377.8 513.473 378.433 512.206 379.7C510.94 380.933 510.306 382.8 510.306 385.3V398H502.506V371.1H509.956V374.65ZM524.344 371.1H532.144V398H524.344V371.1ZM528.244 367.35C526.811 367.35 525.644 366.933 524.744 366.1C523.844 365.267 523.394 364.233 523.394 363C523.394 361.767 523.844 360.733 524.744 359.9C525.644 359.067 526.811 358.65 528.244 358.65C529.677 358.65 530.844 359.05 531.744 359.85C532.644 360.65 533.094 361.65 533.094 362.85C533.094 364.15 532.644 365.233 531.744 366.1C530.844 366.933 529.677 367.35 528.244 367.35ZM566.233 384.65C566.233 384.75 566.183 385.45 566.083 386.75H545.733C546.1 388.417 546.967 389.733 548.333 390.7C549.7 391.667 551.4 392.15 553.433 392.15C554.833 392.15 556.067 391.95 557.133 391.55C558.233 391.117 559.25 390.45 560.183 389.55L564.333 394.05C561.8 396.95 558.1 398.4 553.233 398.4C550.2 398.4 547.517 397.817 545.183 396.65C542.85 395.45 541.05 393.8 539.783 391.7C538.517 389.6 537.883 387.217 537.883 384.55C537.883 381.917 538.5 379.55 539.733 377.45C541 375.317 542.717 373.667 544.883 372.5C547.083 371.3 549.533 370.7 552.233 370.7C554.867 370.7 557.25 371.267 559.383 372.4C561.517 373.533 563.183 375.167 564.383 377.3C565.617 379.4 566.233 381.85 566.233 384.65ZM552.283 376.6C550.517 376.6 549.033 377.1 547.833 378.1C546.633 379.1 545.9 380.467 545.633 382.2H558.883C558.617 380.5 557.883 379.15 556.683 378.15C555.483 377.117 554.017 376.6 552.283 376.6ZM588.276 370.7C591.61 370.7 594.293 371.7 596.326 373.7C598.393 375.7 599.426 378.667 599.426 382.6V398H591.626V383.8C591.626 381.667 591.16 380.083 590.226 379.05C589.293 377.983 587.943 377.45 586.176 377.45C584.21 377.45 582.643 378.067 581.476 379.3C580.31 380.5 579.726 382.3 579.726 384.7V398H571.926V371.1H579.376V374.25C580.41 373.117 581.693 372.25 583.226 371.65C584.76 371.017 586.443 370.7 588.276 370.7ZM620.289 398.4C617.423 398.4 614.839 397.817 612.539 396.65C610.273 395.45 608.489 393.8 607.189 391.7C605.923 389.6 605.289 387.217 605.289 384.55C605.289 381.883 605.923 379.5 607.189 377.4C608.489 375.3 610.273 373.667 612.539 372.5C614.839 371.3 617.423 370.7 620.289 370.7C623.123 370.7 625.589 371.3 627.689 372.5C629.823 373.667 631.373 375.35 632.339 377.55L626.289 380.8C624.889 378.333 622.873 377.1 620.239 377.1C618.206 377.1 616.523 377.767 615.189 379.1C613.856 380.433 613.189 382.25 613.189 384.55C613.189 386.85 613.856 388.667 615.189 390C616.523 391.333 618.206 392 620.239 392C622.906 392 624.923 390.767 626.289 388.3L632.339 391.6C631.373 393.733 629.823 395.4 627.689 396.6C625.589 397.8 623.123 398.4 620.289 398.4ZM663.339 384.65C663.339 384.75 663.289 385.45 663.189 386.75H642.839C643.205 388.417 644.072 389.733 645.439 390.7C646.805 391.667 648.505 392.15 650.539 392.15C651.939 392.15 653.172 391.95 654.239 391.55C655.339 391.117 656.355 390.45 657.289 389.55L661.439 394.05C658.905 396.95 655.205 398.4 650.339 398.4C647.305 398.4 644.622 397.817 642.289 396.65C639.955 395.45 638.155 393.8 636.889 391.7C635.622 389.6 634.989 387.217 634.989 384.55C634.989 381.917 635.605 379.55 636.839 377.45C638.105 375.317 639.822 373.667 641.989 372.5C644.189 371.3 646.639 370.7 649.339 370.7C651.972 370.7 654.355 371.267 656.489 372.4C658.622 373.533 660.289 375.167 661.489 377.3C662.722 379.4 663.339 381.85 663.339 384.65ZM649.389 376.6C647.622 376.6 646.139 377.1 644.939 378.1C643.739 379.1 643.005 380.467 642.739 382.2H655.989C655.722 380.5 654.989 379.15 653.789 378.15C652.589 377.117 651.122 376.6 649.389 376.6Z" fill="#2F2E44"/>
<path d="M92.97 71.99C92.97 72.05 92.94 72.47 92.88 73.25H80.67C80.89 74.25 81.41 75.04 82.23 75.62C83.05 76.2 84.07 76.49 85.29 76.49C86.13 76.49 86.87 76.37 87.51 76.13C88.17 75.87 88.78 75.47 89.34 74.93L91.83 77.63C90.31 79.37 88.09 80.24 85.17 80.24C83.35 80.24 81.74 79.89 80.34 79.19C78.94 78.47 77.86 77.48 77.1 76.22C76.34 74.96 75.96 73.53 75.96 71.93C75.96 70.35 76.33 68.93 77.07 67.67C77.83 66.39 78.86 65.4 80.16 64.7C81.48 63.98 82.95 63.62 84.57 63.62C86.15 63.62 87.58 63.96 88.86 64.64C90.14 65.32 91.14 66.3 91.86 67.58C92.6 68.84 92.97 70.31 92.97 71.99ZM84.6 67.16C83.54 67.16 82.65 67.46 81.93 68.06C81.21 68.66 80.77 69.48 80.61 70.52H88.56C88.4 69.5 87.96 68.69 87.24 68.09C86.52 67.47 85.64 67.16 84.6 67.16ZM106.196 63.62C108.196 63.62 109.806 64.22 111.026 65.42C112.266 66.62 112.886 68.4 112.886 70.76V80H108.206V71.48C108.206 70.2 107.926 69.25 107.366 68.63C106.806 67.99 105.996 67.67 104.936 67.67C103.756 67.67 102.816 68.04 102.116 68.78C101.416 69.5 101.066 70.58 101.066 72.02V80H96.3858V63.86H100.856V65.75C101.476 65.07 102.246 64.55 103.166 64.19C104.086 63.81 105.096 63.62 106.196 63.62ZM134.254 63.86V77.3C134.254 80.26 133.484 82.46 131.944 83.9C130.404 85.34 128.154 86.06 125.194 86.06C123.634 86.06 122.154 85.87 120.754 85.49C119.354 85.11 118.194 84.56 117.274 83.84L119.134 80.48C119.814 81.04 120.674 81.48 121.714 81.8C122.754 82.14 123.794 82.31 124.834 82.31C126.454 82.31 127.644 81.94 128.404 81.2C129.184 80.48 129.574 79.38 129.574 77.9V77.21C128.354 78.55 126.654 79.22 124.474 79.22C122.994 79.22 121.634 78.9 120.394 78.26C119.174 77.6 118.204 76.68 117.484 75.5C116.764 74.32 116.404 72.96 116.404 71.42C116.404 69.88 116.764 68.52 117.484 67.34C118.204 66.16 119.174 65.25 120.394 64.61C121.634 63.95 122.994 63.62 124.474 63.62C126.814 63.62 128.594 64.39 129.814 65.93V63.86H134.254ZM125.404 75.38C126.644 75.38 127.654 75.02 128.434 74.3C129.234 73.56 129.634 72.6 129.634 71.42C129.634 70.24 129.234 69.29 128.434 68.57C127.654 67.83 126.644 67.46 125.404 67.46C124.164 67.46 123.144 67.83 122.344 68.57C121.544 69.29 121.144 70.24 121.144 71.42C121.144 72.6 121.544 73.56 122.344 74.3C123.144 75.02 124.164 75.38 125.404 75.38ZM138.91 57.74H143.59V80H138.91V57.74ZM148.233 63.86H152.913V80H148.233V63.86ZM150.573 61.61C149.713 61.61 149.013 61.36 148.473 60.86C147.933 60.36 147.663 59.74 147.663 59C147.663 58.26 147.933 57.64 148.473 57.14C149.013 56.64 149.713 56.39 150.573 56.39C151.433 56.39 152.133 56.63 152.673 57.11C153.213 57.59 153.483 58.19 153.483 58.91C153.483 59.69 153.213 60.34 152.673 60.86C152.133 61.36 151.433 61.61 150.573 61.61ZM162.986 80.24C161.646 80.24 160.336 80.08 159.056 79.76C157.776 79.42 156.756 79 155.996 78.5L157.556 75.14C158.276 75.6 159.146 75.98 160.166 76.28C161.186 76.56 162.186 76.7 163.166 76.7C165.146 76.7 166.136 76.21 166.136 75.23C166.136 74.77 165.866 74.44 165.326 74.24C164.786 74.04 163.956 73.87 162.836 73.73C161.516 73.53 160.426 73.3 159.566 73.04C158.706 72.78 157.956 72.32 157.316 71.66C156.696 71 156.386 70.06 156.386 68.84C156.386 67.82 156.676 66.92 157.256 66.14C157.856 65.34 158.716 64.72 159.836 64.28C160.976 63.84 162.316 63.62 163.856 63.62C164.996 63.62 166.126 63.75 167.246 64.01C168.386 64.25 169.326 64.59 170.066 65.03L168.506 68.36C167.086 67.56 165.536 67.16 163.856 67.16C162.856 67.16 162.106 67.3 161.606 67.58C161.106 67.86 160.856 68.22 160.856 68.66C160.856 69.16 161.126 69.51 161.666 69.71C162.206 69.91 163.066 70.1 164.246 70.28C165.566 70.5 166.646 70.74 167.486 71C168.326 71.24 169.056 71.69 169.676 72.35C170.296 73.01 170.606 73.93 170.606 75.11C170.606 76.11 170.306 77 169.706 77.78C169.106 78.56 168.226 79.17 167.066 79.61C165.926 80.03 164.566 80.24 162.986 80.24ZM183.604 63.62C185.604 63.62 187.214 64.22 188.434 65.42C189.674 66.62 190.294 68.4 190.294 70.76V80H185.614V71.48C185.614 70.2 185.334 69.25 184.774 68.63C184.214 67.99 183.404 67.67 182.344 67.67C181.164 67.67 180.224 68.04 179.524 68.78C178.824 69.5 178.474 70.58 178.474 72.02V80H173.794V57.74H178.474V65.54C179.094 64.92 179.844 64.45 180.724 64.13C181.604 63.79 182.564 63.62 183.604 63.62ZM204.646 63.62C206.646 63.62 208.256 64.22 209.476 65.42C210.716 66.62 211.336 68.4 211.336 70.76V80H206.656V71.48C206.656 70.2 206.376 69.25 205.816 68.63C205.256 67.99 204.446 67.67 203.386 67.67C202.206 67.67 201.266 68.04 200.566 68.78C199.866 69.5 199.516 70.58 199.516 72.02V80H194.836V63.86H199.306V65.75C199.926 65.07 200.696 64.55 201.616 64.19C202.536 63.81 203.546 63.62 204.646 63.62ZM231.864 71.99C231.864 72.05 231.834 72.47 231.774 73.25H219.564C219.784 74.25 220.304 75.04 221.124 75.62C221.944 76.2 222.964 76.49 224.184 76.49C225.024 76.49 225.764 76.37 226.404 76.13C227.064 75.87 227.674 75.47 228.234 74.93L230.724 77.63C229.204 79.37 226.984 80.24 224.064 80.24C222.244 80.24 220.634 79.89 219.234 79.19C217.834 78.47 216.754 77.48 215.994 76.22C215.234 74.96 214.854 73.53 214.854 71.93C214.854 70.35 215.224 68.93 215.964 67.67C216.724 66.39 217.754 65.4 219.054 64.7C220.374 63.98 221.844 63.62 223.464 63.62C225.044 63.62 226.474 63.96 227.754 64.64C229.034 65.32 230.034 66.3 230.754 67.58C231.494 68.84 231.864 70.31 231.864 71.99ZM223.494 67.16C222.434 67.16 221.544 67.46 220.824 68.06C220.104 68.66 219.664 69.48 219.504 70.52H227.454C227.294 69.5 226.854 68.69 226.134 68.09C225.414 67.47 224.534 67.16 223.494 67.16ZM239.75 65.99C240.31 65.21 241.06 64.62 242 64.22C242.96 63.82 244.06 63.62 245.3 63.62V67.94C244.78 67.9 244.43 67.88 244.25 67.88C242.91 67.88 241.86 68.26 241.1 69.02C240.34 69.76 239.96 70.88 239.96 72.38V80H235.28V63.86H239.75V65.99ZM264.676 57.74V80H260.206V78.14C259.046 79.54 257.366 80.24 255.166 80.24C253.646 80.24 252.266 79.9 251.026 79.22C249.806 78.54 248.846 77.57 248.146 76.31C247.446 75.05 247.096 73.59 247.096 71.93C247.096 70.27 247.446 68.81 248.146 67.55C248.846 66.29 249.806 65.32 251.026 64.64C252.266 63.96 253.646 63.62 255.166 63.62C257.226 63.62 258.836 64.27 259.996 65.57V57.74H264.676ZM255.976 76.4C257.156 76.4 258.136 76 258.916 75.2C259.696 74.38 260.086 73.29 260.086 71.93C260.086 70.57 259.696 69.49 258.916 68.69C258.136 67.87 257.156 67.46 255.976 67.46C254.776 67.46 253.786 67.87 253.006 68.69C252.226 69.49 251.836 70.57 251.836 71.93C251.836 73.29 252.226 74.38 253.006 75.2C253.786 76 254.776 76.4 255.976 76.4ZM271.078 80.24C270.258 80.24 269.568 79.96 269.008 79.4C268.448 78.84 268.168 78.14 268.168 77.3C268.168 76.44 268.448 75.75 269.008 75.23C269.568 74.69 270.258 74.42 271.078 74.42C271.898 74.42 272.588 74.69 273.148 75.23C273.708 75.75 273.988 76.44 273.988 77.3C273.988 78.14 273.708 78.84 273.148 79.4C272.588 79.96 271.898 80.24 271.078 80.24ZM284.934 80.24C283.234 80.24 281.704 79.89 280.344 79.19C279.004 78.47 277.954 77.48 277.194 76.22C276.434 74.96 276.054 73.53 276.054 71.93C276.054 70.33 276.434 68.9 277.194 67.64C277.954 66.38 279.004 65.4 280.344 64.7C281.704 63.98 283.234 63.62 284.934 63.62C286.634 63.62 288.154 63.98 289.494 64.7C290.834 65.4 291.884 66.38 292.644 67.64C293.404 68.9 293.784 70.33 293.784 71.93C293.784 73.53 293.404 74.96 292.644 76.22C291.884 77.48 290.834 78.47 289.494 79.19C288.154 79.89 286.634 80.24 284.934 80.24ZM284.934 76.4C286.134 76.4 287.114 76 287.874 75.2C288.654 74.38 289.044 73.29 289.044 71.93C289.044 70.57 288.654 69.49 287.874 68.69C287.114 67.87 286.134 67.46 284.934 67.46C283.734 67.46 282.744 67.87 281.964 68.69C281.184 69.49 280.794 70.57 280.794 71.93C280.794 73.29 281.184 74.38 281.964 75.2C282.744 76 283.734 76.4 284.934 76.4ZM301.682 65.99C302.242 65.21 302.992 64.62 303.932 64.22C304.892 63.82 305.992 63.62 307.232 63.62V67.94C306.712 67.9 306.362 67.88 306.182 67.88C304.842 67.88 303.792 68.26 303.032 69.02C302.272 69.76 301.892 70.88 301.892 72.38V80H297.212V63.86H301.682V65.99ZM326.819 63.86V77.3C326.819 80.26 326.049 82.46 324.509 83.9C322.969 85.34 320.719 86.06 317.759 86.06C316.199 86.06 314.719 85.87 313.319 85.49C311.919 85.11 310.759 84.56 309.839 83.84L311.699 80.48C312.379 81.04 313.239 81.48 314.279 81.8C315.319 82.14 316.359 82.31 317.399 82.31C319.019 82.31 320.209 81.94 320.969 81.2C321.749 80.48 322.139 79.38 322.139 77.9V77.21C320.919 78.55 319.219 79.22 317.039 79.22C315.559 79.22 314.199 78.9 312.959 78.26C311.739 77.6 310.769 76.68 310.049 75.5C309.329 74.32 308.969 72.96 308.969 71.42C308.969 69.88 309.329 68.52 310.049 67.34C310.769 66.16 311.739 65.25 312.959 64.61C314.199 63.95 315.559 63.62 317.039 63.62C319.379 63.62 321.159 64.39 322.379 65.93V63.86H326.819ZM317.969 75.38C319.209 75.38 320.219 75.02 320.999 74.3C321.799 73.56 322.199 72.6 322.199 71.42C322.199 70.24 321.799 69.29 320.999 68.57C320.219 67.83 319.209 67.46 317.969 67.46C316.729 67.46 315.709 67.83 314.909 68.57C314.109 69.29 313.709 70.24 313.709 71.42C313.709 72.6 314.109 73.56 314.909 74.3C315.709 75.02 316.729 75.38 317.969 75.38Z" fill="#848499"/>
<circle cx="1026" cy="210.5" r="375" transform="rotate(45 1026 210.5)" fill="#28D3BE"/>
<path fill-rule="evenodd" clip-rule="evenodd" d="M760.835 475.665C907.282 622.112 1144.72 622.112 1291.16 475.665C1437.61 329.218 1437.61 91.7815 1291.17 -54.665L760.835 475.665Z" fill="#1DD1BB"/>
<path fill-rule="evenodd" clip-rule="evenodd" d="M1291.16 -54.6649C1144.72 -201.112 907.282 -201.112 760.835 -54.665C614.388 91.7816 614.388 329.218 760.835 475.665L1291.16 -54.6649Z" fill="#5CD1C3"/>
<circle cx="1026" cy="210.5" r="375" transform="rotate(45 1026 210.5)" fill="url(#paint0_linear)"/>
<g clip-path="url(#clip1)">
<path d="M849.642 140.344L849.68 140.338L844.09 107.66L813.182 117.479L817.807 146.707C816.214 145.7 814.315 145.292 812.45 145.556C810.584 145.82 808.873 146.739 807.622 148.148C806.372 149.557 805.663 151.366 805.622 153.249C805.582 155.133 806.213 156.97 807.402 158.432C808.591 159.893 810.262 160.885 812.114 161.228C813.967 161.572 815.881 161.246 817.516 160.308C819.15 159.37 820.398 157.881 821.036 156.108C821.673 154.335 821.66 152.393 820.998 150.629L821.027 150.624L816.063 119.258L842.057 111L846.475 136.832C844.844 135.867 842.922 135.519 841.056 135.85C839.191 136.181 837.505 137.169 836.306 138.636C835.106 140.102 834.472 141.95 834.517 143.844C834.563 145.738 835.285 147.554 836.554 148.961C837.823 150.368 839.554 151.274 841.433 151.515C843.313 151.756 845.216 151.315 846.799 150.273C848.381 149.231 849.538 147.657 850.06 145.835C850.581 144.014 850.433 142.066 849.642 140.344Z" fill="#6C63FF"/>
<path d="M1150.42 182.743L1150.46 182.747L1154.19 149.805L1121.77 150.634L1118.07 179.994C1116.83 178.584 1115.12 177.663 1113.25 177.398C1111.38 177.132 1109.49 177.538 1107.89 178.544C1106.3 179.55 1105.11 181.089 1104.55 182.887C1103.99 184.685 1104.08 186.625 1104.82 188.36C1105.55 190.095 1106.88 191.512 1108.57 192.358C1110.25 193.203 1112.18 193.423 1114.01 192.977C1115.84 192.531 1117.45 191.448 1118.56 189.923C1119.67 188.397 1120.19 186.528 1120.05 184.649L1120.08 184.653L1124.04 153.145L1151.3 152.447L1148.36 178.488C1147.06 177.108 1145.31 176.238 1143.43 176.037C1141.54 175.835 1139.65 176.316 1138.09 177.39C1136.53 178.465 1135.41 180.063 1134.92 181.895C1134.44 183.727 1134.63 185.672 1135.45 187.377C1136.28 189.081 1137.69 190.433 1139.43 191.188C1141.17 191.942 1143.12 192.049 1144.93 191.488C1146.74 190.928 1148.29 189.738 1149.3 188.133C1150.3 186.529 1150.7 184.617 1150.42 182.743Z" fill="#6C63FF"/>
<path d="M891.852 176.296L891.874 176.293L887.892 151.126L885.925 151.437L889.377 173.255C888.142 172.474 886.67 172.158 885.224 172.363C883.777 172.567 882.45 173.28 881.48 174.373C880.511 175.465 879.961 176.867 879.93 178.328C879.899 179.789 880.388 181.213 881.31 182.346C882.232 183.48 883.527 184.248 884.964 184.514C886.4 184.781 887.885 184.528 889.152 183.801C890.419 183.073 891.386 181.919 891.881 180.544C892.375 179.17 892.365 177.664 891.852 176.296Z" fill="#6C63FF"/>
<path d="M1077.98 167.921C1077.63 166.602 1076.85 165.438 1075.76 164.611C1074.68 163.783 1073.35 163.34 1071.99 163.351C1070.62 163.362 1069.3 163.827 1068.23 164.671C1067.16 165.516 1066.4 166.693 1066.07 168.017C1065.74 169.34 1065.86 170.736 1066.41 171.983C1066.96 173.231 1067.92 174.26 1069.12 174.907C1070.32 175.555 1071.7 175.785 1073.04 175.561C1074.39 175.337 1075.62 174.672 1076.55 173.67L1078.86 195.638L1080.84 195.43L1078.17 170.09L1078.15 170.092C1078.22 169.364 1078.16 168.628 1077.98 167.921Z" fill="#6C63FF"/>
<path d="M949.075 539.082L960.726 556.56L978.204 542.967L966.552 528.401L949.075 539.082Z" fill="#FFB8B8"/>
<path d="M962.977 547.182C962.977 547.182 946.29 547.958 950.994 556.779C955.698 565.6 959.367 615.373 972.793 612.489C986.218 609.605 998.39 594.35 998.241 583.848C998.092 573.347 996.411 568.792 996.411 568.792C996.411 568.792 992.811 561.841 995.208 559.921C997.605 558.002 998.51 545.869 992.802 542.18C987.093 538.49 970.595 533.607 970.595 533.607C970.595 533.607 968.924 548.714 962.977 547.182Z" fill="#2F2E41"/>
<path d="M971.407 579.863L967.523 601.225L987.914 603.166V586.66L971.407 579.863Z" fill="#FFB8B8"/>
<path d="M929.655 290.512C929.655 290.512 918.974 326.439 916.061 347.8C916.061 347.8 857.803 426.449 868.483 460.433C879.164 494.418 910.235 562.386 910.235 562.386C910.235 562.386 962.668 541.025 973.349 529.373L934.51 474.027C934.51 474.027 940.336 467.23 931.597 463.346C922.858 459.462 930.626 454.608 930.626 454.608C930.626 454.608 947.133 399.262 963.639 393.436L1020.93 381.784C1020.93 381.784 1017.04 299.251 1003.45 284.687C1003.45 284.687 935.481 285.658 929.655 290.512Z" fill="#2F2E41"/>
<path d="M976.262 592.486C976.262 592.486 966.552 578.892 961.697 587.631C956.842 596.37 917.032 626.47 926.742 636.18C936.452 645.89 955.871 647.832 964.61 642.006C973.349 636.18 976.262 632.296 976.262 632.296C976.262 632.296 980.146 625.499 983.059 626.47C985.972 627.441 996.652 621.615 996.652 614.818C996.652 608.022 991.798 591.515 991.798 591.515C991.798 591.515 978.204 598.312 976.262 592.486Z" fill="#2F2E41"/>
<path d="M961.697 386.639L975.291 504.128C975.291 504.128 967.523 537.141 965.581 562.386C963.639 587.632 965.581 586.661 965.581 586.661C965.581 586.661 1009.28 604.138 1017.04 592.486C1024.81 580.835 1020.93 381.784 1020.93 381.784L997.623 360.423L961.697 386.639Z" fill="#2F2E41"/>
<path d="M937.993 124.352C948.074 100.568 973.733 96.0765 973.733 96.0765C973.733 96.0765 998.439 89.4854 1019.07 120.875C1038.3 150.133 1063.1 177.546 1031.65 189.224L1023.34 171.776L1022.35 191.856C1017.77 192.808 1013.15 193.51 1008.5 193.957C973.616 197.501 940.73 203.394 940.121 190.786C939.311 174.026 928.294 147.237 937.993 124.352Z" fill="#2F2E41"/>
<path d="M979.175 171.082C994.726 171.082 1007.33 158.475 1007.33 142.924C1007.33 127.373 994.726 114.766 979.175 114.766C963.623 114.766 951.017 127.373 951.017 142.924C951.017 158.475 963.623 171.082 979.175 171.082Z" fill="#FFB8B8"/>
<path d="M970.922 160.886C970.922 160.886 970.436 189.53 967.523 196.327C964.61 203.124 1019.47 190.987 1019.47 190.987C1019.47 190.987 1000.05 177.393 997.138 158.944L970.922 160.886Z" fill="#FFB8B8"/>
<path d="M975.291 184.676L969.988 180.775L932.568 182.734L924.8 268.18C924.8 268.18 902.468 294.396 929.655 294.396C956.842 294.396 982.088 281.773 1001.51 290.512C1020.93 299.251 1037.43 198.269 1037.43 198.269L1008.4 180.775C1008.4 180.775 995.681 196.327 975.291 184.676Z" fill="#575A89"/>
<path d="M943.249 253.615L997.623 265.267V277.89L943.249 279.832C943.249 279.832 937.423 257.499 943.249 253.615Z" fill="#FFB8B8"/>
<path d="M943.249 187.588L932.568 182.733C932.568 182.733 919.945 185.646 918.974 196.327C918.003 207.008 899.555 275.947 914.119 278.86C928.684 281.773 948.104 281.773 948.104 281.773C948.104 281.773 935.481 264.295 951.017 254.586L939.365 248.76C939.365 248.76 927.713 222.543 935.481 208.95C943.249 195.356 943.249 187.588 943.249 187.588Z" fill="#575A89"/>
<path d="M943.693 115.711L969.408 102.241L1004.92 107.752L1012.27 140.202L993.978 139.499L988.868 127.577V139.302L980.429 138.978L975.531 119.997L972.47 140.202L942.468 139.59L943.693 115.711Z" fill="#2F2E41"/>
<path d="M1007.5 149.24C1010.36 149.24 1012.67 145.183 1012.67 140.178C1012.67 135.173 1010.36 131.115 1007.5 131.115C1004.64 131.115 1002.32 135.173 1002.32 140.178C1002.32 145.183 1004.64 149.24 1007.5 149.24Z" fill="#FFB8B8"/>
<path d="M1007.99 146.594C1009.94 146.594 1011.53 145.011 1011.53 143.06C1011.53 141.108 1009.94 139.525 1007.99 139.525C1006.04 139.525 1004.46 141.108 1004.46 143.06C1004.46 145.011 1006.04 146.594 1007.99 146.594Z" fill="white"/>
<path d="M1009.51 144.251C1009.83 144.251 1010.08 143.479 1010.08 142.527C1010.08 141.575 1009.83 140.804 1009.51 140.804C1009.19 140.804 1008.94 141.575 1008.94 142.527C1008.94 143.479 1009.19 144.251 1009.51 144.251Z" fill="#2F2E41"/>
<path d="M1009.42 153.317C1009.18 153.317 1008.95 153.222 1008.78 153.052C1008.61 152.883 1008.51 152.653 1008.51 152.413L1007.61 145.18H1010.32V152.413C1010.32 152.532 1010.3 152.649 1010.25 152.759C1010.21 152.869 1010.14 152.968 1010.06 153.052C1009.97 153.136 1009.87 153.203 1009.76 153.248C1009.66 153.294 1009.54 153.317 1009.42 153.317Z" fill="white"/>
<path opacity="0.1" d="M938.902 213.933L929.734 253.665H951.128L934.318 249.844L938.902 213.933Z" fill="black"/>
<path d="M1049.36 279.568L1049.16 279.385L1054.17 273.816C1054.56 273.393 1054.85 272.898 1055.04 272.361C1055.23 271.824 1055.31 271.255 1055.28 270.686C1055.25 270.117 1055.11 269.56 1054.87 269.045C1054.62 268.531 1054.28 268.07 1053.86 267.688L1042.06 257.055C1041.63 256.674 1041.14 256.379 1040.6 256.189C1040.07 255.999 1039.5 255.916 1038.93 255.945C1038.36 255.975 1037.8 256.116 1037.29 256.361C1036.77 256.606 1036.31 256.95 1035.93 257.374L1008.4 287.924C1008.02 288.347 1007.72 288.841 1007.53 289.378C1007.34 289.915 1007.26 290.485 1007.29 291.054C1007.32 291.623 1007.46 292.18 1007.7 292.695C1007.95 293.209 1008.29 293.67 1008.71 294.052L1020.51 304.685C1020.94 305.066 1021.43 305.361 1021.97 305.551C1022.5 305.741 1023.07 305.824 1023.64 305.795C1024.21 305.765 1024.77 305.624 1025.28 305.379C1025.8 305.134 1026.26 304.79 1026.64 304.366L1045.58 283.349L1045.79 283.532L1049.36 279.568Z" fill="#3F3D56"/>
<path d="M1040.1 274.086C1041.65 274.086 1042.9 272.834 1042.9 271.29C1042.9 269.746 1041.65 268.494 1040.1 268.494C1038.56 268.494 1037.31 269.746 1037.31 271.29C1037.31 272.834 1038.56 274.086 1040.1 274.086Z" fill="#6C63FF"/>
<path d="M1020.71 269.604C1020.71 269.604 1053.81 277.616 1046.19 289.038C1038.56 300.46 1008.45 279.583 1008.45 279.583L1020.71 269.604Z" fill="#FFB8B8"/>
<path d="M1028.69 198.27H1037.43C1037.43 198.27 1047.14 208.95 1045.2 218.66C1043.26 228.37 1037.43 274.006 1037.43 274.006C1037.43 274.006 1008.3 301.193 993.74 286.628C979.175 272.064 989.856 258.47 989.856 258.47C989.856 258.47 1009.28 274.006 1019.96 253.615L1028.69 198.27Z" fill="#575A89"/>
<path d="M1020.01 264.469L1026.7 198.396C1026.7 198.396 1040.73 156.683 1027.03 155.661C1013.34 154.638 1012.38 195.188 1012.38 195.188L988.527 267.489C988.527 267.489 1001.62 280.309 1020.01 264.469Z" fill="#FFB8B8"/>
<path fill-rule="evenodd" clip-rule="evenodd" d="M973.733 96.0765C973.733 96.0765 948.073 100.568 937.993 124.352C931.136 140.532 934.634 158.664 937.558 173.823C938.134 176.806 938.687 179.674 939.135 182.39L932.568 182.734L932.568 182.734C932.568 182.734 919.945 185.647 918.974 196.328C918.76 198.688 917.691 203.895 916.314 210.606L916.314 210.606L916.314 210.606L916.314 210.606L916.314 210.606L916.314 210.606C911.461 234.258 902.774 276.592 914.12 278.861C915.288 279.094 916.487 279.309 917.705 279.507C914.806 286.413 914.824 293.992 928.532 294.38C925.713 304.231 918.395 330.688 916.061 347.8C916.061 347.8 857.803 426.449 868.483 460.433C879.164 494.417 910.235 562.386 910.235 562.386C910.235 562.386 933.245 553.011 951.883 543.296L955.421 548.602C951.75 549.881 948.598 552.287 950.994 556.779C952.468 559.544 953.841 566.332 955.444 574.262C956.529 579.627 957.72 585.515 959.119 591.031C956.771 593.694 953.285 597.096 949.43 600.859C936.751 613.236 920.076 629.514 926.742 636.18C936.452 645.89 955.872 647.832 964.61 642.006C973.349 636.18 976.262 632.296 976.262 632.296C976.262 632.296 980.146 625.499 983.059 626.47C985.972 627.441 996.653 621.615 996.653 614.818C996.653 610.638 994.816 602.786 993.402 597.359C993.859 596.681 994.289 595.996 994.688 595.308C1004.53 597.142 1013.84 597.291 1017.04 592.486C1024.81 580.834 1020.93 381.784 1020.93 381.784C1020.93 381.784 1018 319.62 1008.34 293.672C1008.46 293.805 1008.58 293.932 1008.71 294.051L1020.51 304.684C1020.94 305.066 1021.43 305.36 1021.97 305.55C1022.5 305.741 1023.07 305.824 1023.64 305.794C1024.21 305.765 1024.77 305.623 1025.28 305.378C1025.8 305.133 1026.26 304.789 1026.64 304.366L1037.42 292.408C1041.16 292.68 1044.34 291.81 1046.19 289.038C1047.69 286.788 1047.61 284.67 1046.52 282.72L1049.36 279.567L1049.16 279.384L1054.17 273.816C1054.56 273.392 1054.85 272.898 1055.04 272.361C1055.23 271.824 1055.31 271.255 1055.28 270.686C1055.25 270.117 1055.11 269.559 1054.87 269.045C1054.62 268.53 1054.28 268.069 1053.86 267.688L1042.06 257.055C1041.63 256.673 1041.14 256.379 1040.6 256.189C1040.34 256.094 1040.06 256.026 1039.79 255.985C1041.63 242.083 1044.07 224.303 1045.2 218.66C1047.14 208.95 1037.43 198.269 1037.43 198.269L1028.4 192.827C1028.95 190.916 1029.57 188.624 1030.18 186.128L1031.65 189.224C1058.99 179.073 1043.83 157.037 1026.77 132.233L1026.77 132.233L1026.77 132.233L1026.77 132.232L1026.77 132.232L1026.77 132.232C1024.2 128.499 1021.59 124.703 1019.07 120.875C998.439 89.4854 973.733 96.0765 973.733 96.0765ZM1007.22 290.742C1007.2 290.744 1007.18 290.747 1007.16 290.749C1007.2 290.847 1007.24 290.946 1007.29 291.045C1007.28 290.941 1007.28 290.837 1007.28 290.733C1007.26 290.736 1007.24 290.739 1007.22 290.742ZM849.642 140.344L849.68 140.337L844.09 107.66L813.182 117.479L817.807 146.706C816.214 145.699 814.315 145.291 812.45 145.555C810.584 145.819 808.873 146.738 807.622 148.148C806.372 149.557 805.663 151.365 805.622 153.249C805.582 155.133 806.213 156.97 807.402 158.431C808.591 159.893 810.262 160.884 812.114 161.228C813.967 161.571 815.881 161.245 817.516 160.307C819.15 159.369 820.398 157.881 821.036 156.108C821.673 154.335 821.66 152.393 820.998 150.628L821.027 150.624L816.063 119.258L842.057 111L846.475 136.831C844.844 135.867 842.922 135.518 841.056 135.849C839.191 136.18 837.505 137.169 836.306 138.635C835.106 140.102 834.472 141.95 834.517 143.844C834.563 145.738 835.285 147.553 836.554 148.96C837.823 150.367 839.554 151.274 841.433 151.514C843.313 151.755 845.216 151.315 846.799 150.273C848.381 149.231 849.538 147.656 850.06 145.835C850.581 144.013 850.433 142.065 849.642 140.344ZM1150.42 182.743L1150.46 182.747L1154.19 149.805L1121.77 150.634L1118.07 179.994C1116.83 178.584 1115.12 177.663 1113.25 177.398C1111.38 177.132 1109.49 177.538 1107.89 178.544C1106.3 179.55 1105.11 181.089 1104.55 182.887C1103.99 184.685 1104.08 186.625 1104.82 188.36C1105.55 190.095 1106.88 191.512 1108.57 192.358C1110.25 193.203 1112.18 193.423 1114.01 192.977C1115.84 192.531 1117.45 191.448 1118.56 189.923C1119.67 188.397 1120.19 186.528 1120.05 184.649L1120.08 184.653L1124.04 153.145L1151.3 152.447L1148.36 178.488C1147.06 177.108 1145.31 176.238 1143.43 176.037C1141.54 175.835 1139.65 176.316 1138.09 177.39C1136.53 178.465 1135.41 180.063 1134.92 181.895C1134.44 183.727 1134.63 185.672 1135.45 187.377C1136.28 189.081 1137.69 190.433 1139.43 191.188C1141.17 191.942 1143.12 192.049 1144.93 191.488C1146.74 190.928 1148.29 189.738 1149.3 188.133C1150.3 186.529 1150.7 184.617 1150.42 182.743ZM891.874 176.293L891.852 176.296C892.365 177.664 892.375 179.17 891.881 180.544C891.386 181.919 890.419 183.073 889.152 183.801C887.885 184.528 886.4 184.781 884.964 184.514C883.527 184.248 882.232 183.48 881.31 182.346C880.388 181.213 879.899 179.789 879.93 178.328C879.961 176.867 880.511 175.465 881.48 174.373C882.45 173.28 883.777 172.567 885.223 172.363C886.67 172.158 888.142 172.474 889.377 173.255L885.925 151.437L887.892 151.126L891.874 176.293ZM1077.98 167.921C1077.63 166.602 1076.85 165.438 1075.76 164.611C1074.68 163.783 1073.35 163.34 1071.99 163.351C1070.62 163.362 1069.3 163.827 1068.23 164.671C1067.16 165.516 1066.4 166.693 1066.07 168.017C1065.74 169.34 1065.86 170.736 1066.41 171.983C1066.96 173.231 1067.92 174.26 1069.12 174.907C1070.32 175.555 1071.7 175.785 1073.04 175.561C1074.39 175.337 1075.62 174.672 1076.55 173.67L1078.86 195.638L1080.84 195.43L1078.17 170.09L1078.15 170.092C1078.22 169.364 1078.16 168.628 1077.98 167.921ZM975.291 504.127C975.291 504.127 973.126 513.33 970.796 525.734L934.51 474.027C934.51 474.027 940.336 467.23 931.597 463.346C922.858 459.462 930.626 454.607 930.626 454.607C930.626 454.607 946.406 401.698 962.537 393.897L975.291 504.127Z" fill="url(#paint1_linear)"/>
</g>
</g>
<defs>
<linearGradient id="paint0_linear" x1="651" y1="-164.5" x2="1514.99" y2="415.766" gradientUnits="userSpaceOnUse">
<stop stop-color="white" stop-opacity="0.2"/>
<stop offset="1" stop-color="white" stop-opacity="0"/>
</linearGradient>
<linearGradient id="paint1_linear" x1="805.621" y1="645.283" x2="1148.88" y2="602.529" gradientUnits="userSpaceOnUse">
<stop stop-color="white" stop-opacity="0.2"/>
<stop offset="1" stop-color="white" stop-opacity="0"/>
</linearGradient>
<clipPath id="clip0">
<rect width="1236" height="695" fill="white" transform="translate(0 0.5)"/>
</clipPath>
<clipPath id="clip1">
<rect width="354.942" height="550" fill="white" transform="translate(805.621 95.5)"/>
</clipPath>
</defs>
</svg>
