<svg width="695" height="926" viewBox="0 0 695 926" fill="none" xmlns="http://www.w3.org/2000/svg">
<g clip-path="url(#clip0)">
<rect width="926" height="695" transform="translate(0 926) rotate(-90)" fill="white"/>
<circle cx="465.29" cy="230.001" r="325" transform="rotate(-45 465.29 230.001)" fill="#FABA4F"/>
<path d="M465.29 230.001L695.1 459.811C822.02 332.89 822.02 127.112 695.1 0.191255L465.29 230.001Z" fill="#F9A922"/>
<path d="M465.29 230.001L695.1 0.191301C568.179 -126.729 362.401 -126.729 235.48 0.191406L465.29 230.001Z" fill="#F9B33C"/>
<path d="M465.29 230.001L235.48 0.191298C108.56 127.112 108.56 332.89 235.48 459.811L465.29 230.001Z" fill="#F9BC55"/>
<path d="M465.29 230.001L235.48 459.811C362.401 586.731 568.179 586.731 695.1 459.811L465.29 230.001Z" fill="#F9C56E"/>
<circle cx="465.29" cy="230.001" r="325" transform="rotate(-45 465.29 230.001)" fill="url(#paint0_linear)"/>
<g filter="url(#filter0_d)">
<path d="M509.192 403.744L397.658 431.903L414.222 413.13L423.609 401.535L521.339 382.21L525.756 386.075L509.192 403.744Z" fill="#535461"/>
<path d="M525.756 386.074L415.879 411.473L415.327 384.97L446.799 372.823L509.744 362.332H527.965L525.756 386.074Z" fill="#D6D6E3"/>
<path d="M446.247 235.891L334.161 243.069V222.087L341.891 175.155L345.756 171.842L457.842 175.155L446.247 235.891Z" fill="#D6D6E3"/>
<path d="M472.75 130.431H478.271L479.376 170.737L461.155 177.363L450.112 235.339L500.357 338.038L530.725 361.78V384.418L512.504 402.639L511.4 486.013L505.879 487.118L506.983 404.296L525.204 384.971L525.756 361.78L496.492 338.59L445.143 235.891L456.185 177.363L474.406 169.633L472.75 130.431Z" fill="#D6D6E3"/>
<path d="M477.167 130.431H482.689L483.793 170.737L465.572 177.363L454.529 235.339L504.774 338.038L535.143 361.78V384.418L516.922 402.639L515.817 486.013L510.296 487.118L511.4 404.296L529.621 384.971L530.173 361.78L499.805 338.59L449.56 235.891L460.603 177.363L478.823 169.633L477.167 130.431Z" fill="#535461"/>
<path d="M477.443 166.596L474.682 170.461L459.222 177.639L336.646 174.326L348.517 170.737L361.216 165.216L359.56 160.799L477.443 166.596Z" fill="#A8A8A8"/>
<path d="M498.149 340.246L386.063 358.467L363.425 310.43L332.504 241.412L446.247 235.891L498.149 340.246Z" fill="#6C63FF"/>
<g opacity="0.1">
<path opacity="0.1" d="M440.173 255.769L364.529 261.842L403.731 339.143L477.167 328.1L440.173 255.769Z" fill="white"/>
</g>
<g opacity="0.1">
<path opacity="0.1" d="M434.955 261.384L431.615 261.654L433.343 265.061L436.584 264.575L434.955 261.384Z" fill="white"/>
</g>
<g opacity="0.1">
<path opacity="0.1" d="M434.403 293.408L431.063 293.679L432.791 297.086L436.032 296.6L434.403 293.408Z" fill="white"/>
</g>
<g opacity="0.1">
<path opacity="0.1" d="M416.182 265.248L412.842 265.519L414.57 268.925L417.811 268.439L416.182 265.248Z" fill="white"/>
</g>
<g opacity="0.1">
<path opacity="0.1" d="M381.397 266.905L378.057 267.176L379.785 270.583L383.026 270.097L381.397 266.905Z" fill="white"/>
</g>
<g opacity="0.1">
<path opacity="0.1" d="M428.33 271.322L424.989 271.593L426.717 275L429.958 274.514L428.33 271.322Z" fill="white"/>
</g>
<g opacity="0.1">
<path opacity="0.1" d="M416.182 305.003L412.842 305.273L414.57 308.68L417.811 308.194L416.182 305.003Z" fill="white"/>
</g>
<g opacity="0.1">
<path opacity="0.1" d="M445.998 285.678L442.658 285.948L444.386 289.355L447.627 288.869L445.998 285.678Z" fill="white"/>
</g>
<g opacity="0.1">
<path opacity="0.1" d="M395.201 265.248L391.86 265.519L393.589 268.925L396.83 268.439L395.201 265.248Z" fill="white"/>
</g>
<g opacity="0.1">
<path opacity="0.1" d="M421.704 284.021L418.363 284.292L420.092 287.699L423.333 287.213L421.704 284.021Z" fill="white"/>
</g>
<g opacity="0.1">
<path opacity="0.1" d="M425.569 263.04L422.228 263.311L423.957 266.717L427.198 266.231L425.569 263.04Z" fill="white"/>
</g>
<g opacity="0.1">
<path opacity="0.1" d="M408.452 282.365L405.112 282.636L406.84 286.043L410.081 285.557L408.452 282.365Z" fill="white"/>
</g>
<g opacity="0.1">
<path opacity="0.1" d="M404.587 265.248L401.247 265.519L402.975 268.925L406.216 268.439L404.587 265.248Z" fill="white"/>
</g>
<g opacity="0.1">
<path opacity="0.1" d="M439.373 272.979L436.032 273.249L437.76 276.656L441.001 276.17L439.373 272.979Z" fill="white"/>
</g>
<path d="M527.965 362.332L418.639 384.418L388.525 358.069L497.873 339.418L527.965 362.332Z" fill="#D6D6E3"/>
<path d="M507.535 400.982V487.117L399.314 524.663L397.658 435.216L402.075 426.895L421.952 421.964L507.535 400.982Z" fill="#535461"/>
<path d="M493.455 350.186C490.863 350.186 488.762 348.95 488.762 347.425C488.762 345.9 490.863 344.664 493.455 344.664C496.047 344.664 498.149 345.9 498.149 347.425C498.149 348.95 496.047 350.186 493.455 350.186Z" fill="#575988"/>
<path d="M489.59 356.259C486.998 356.259 484.897 355.023 484.897 353.498C484.897 351.973 486.998 350.737 489.59 350.737C492.182 350.737 494.284 351.973 494.284 353.498C494.284 355.023 492.182 356.259 489.59 356.259Z" fill="#FA595F"/>
<path d="M502.842 354.603C500.25 354.603 498.149 353.367 498.149 351.842C498.149 350.317 500.25 349.081 502.842 349.081C505.434 349.081 507.535 350.317 507.535 351.842C507.535 353.367 505.434 354.603 502.842 354.603Z" fill="#FFD037"/>
<path d="M443.21 360.124C440.618 360.124 438.517 358.888 438.517 357.363C438.517 355.839 440.618 354.603 443.21 354.603C445.802 354.603 447.903 355.839 447.903 357.363C447.903 358.888 445.802 360.124 443.21 360.124Z" fill="#575988"/>
<path d="M452.596 365.093C450.004 365.093 447.903 363.857 447.903 362.332C447.903 360.807 450.004 359.571 452.596 359.571C455.188 359.571 457.29 360.807 457.29 362.332C457.29 363.857 455.188 365.093 452.596 365.093Z" fill="#FFD037"/>
<path d="M470.265 357.363C466.453 357.363 463.363 355.88 463.363 354.05C463.363 352.221 466.453 350.737 470.265 350.737C474.077 350.737 477.167 352.221 477.167 354.05C477.167 355.88 474.077 357.363 470.265 357.363Z" fill="#A8A8A8"/>
<path d="M438.241 366.197C435.649 366.197 433.547 364.961 433.547 363.437C433.547 361.912 435.649 360.676 438.241 360.676C440.833 360.676 442.934 361.912 442.934 363.437C442.934 364.961 440.833 366.197 438.241 366.197Z" fill="#FA595F"/>
<path d="M468.333 353.503H471.645L474.495 342.505C474.614 342.042 474.626 341.558 474.53 341.09C474.434 340.622 474.232 340.182 473.939 339.804C473.646 339.426 473.271 339.12 472.842 338.91C472.413 338.699 471.941 338.59 471.463 338.59C470.633 338.59 469.837 338.92 469.25 339.507C468.662 340.094 468.333 340.89 468.333 341.721V353.503Z" fill="#A8A8A8"/>
<path d="M420.572 366.197C416.76 366.197 413.67 364.714 413.67 362.884C413.67 361.055 416.76 359.571 420.572 359.571C424.384 359.571 427.474 361.055 427.474 362.884C427.474 364.714 424.384 366.197 420.572 366.197Z" fill="#A8A8A8"/>
<path d="M418.639 362.338H421.952L424.801 351.34C424.921 350.877 424.933 350.393 424.837 349.925C424.741 349.457 424.538 349.017 424.246 348.639C423.953 348.261 423.578 347.955 423.149 347.745C422.72 347.534 422.248 347.425 421.77 347.425C420.94 347.425 420.143 347.755 419.556 348.342C418.969 348.929 418.639 349.725 418.639 350.555V362.338Z" fill="#A8A8A8"/>
<path d="M473.302 130.43L359.56 121.044L362.32 162.455L476.063 167.976L473.302 130.43Z" fill="#535461"/>
<path d="M360.112 121.044L307.658 124.909L314.836 476.075L395.173 527.7L400.695 523.835L400.971 431.903L418.639 412.026V384.418L387.719 357.363L335.265 240.86L342.719 174.326H338.854L363.425 165.768L360.112 121.044Z" fill="#D6D6E3"/>
<path d="M355.143 121.597L302.136 124.91L309.314 476.075L395.449 527.425V431.903L413.118 412.026V384.419L382.198 357.364L329.744 240.86L339.13 174.051L357.903 165.768L355.143 121.597Z" fill="#535461"/>
<path d="M448.395 334.338C456.125 350.35 475.152 346.198 475.152 346.198C476.134 345.287 482.285 343.763 486.951 342.709C489.944 342.03 492.323 341.555 492.323 341.555L485.792 332.45L480.894 333.455L473.589 334.957C473.589 334.957 440.637 318.331 448.395 334.338Z" fill="url(#paint1_linear)"/>
<g opacity="0.08">
<path opacity="0.08" d="M448.395 334.338C456.125 350.35 475.152 346.198 475.152 346.198C476.134 345.287 482.285 343.763 486.951 342.709C489.944 342.03 492.323 341.555 492.323 341.555L485.792 332.45L480.894 333.455L473.589 334.957C473.589 334.957 440.637 318.331 448.395 334.338Z" fill="url(#paint2_linear)"/>
</g>
<g opacity="0.1">
<path opacity="0.1" d="M480.888 333.455L486.962 342.715C489.955 342.036 492.334 341.561 492.334 341.561L485.803 332.456L480.888 333.455Z" fill="url(#paint3_linear)"/>
</g>
<path d="M548.792 300.36C548.792 300.36 520.317 344.857 489.828 344.752L481.546 332.053C481.546 332.053 509.451 312.12 513.161 301.729C514.531 297.864 517.358 292.569 520.373 287.373C529.632 271.455 554.606 281.852 549.117 299.344C549.011 299.69 548.902 300.028 548.792 300.36Z" fill="url(#paint4_linear)"/>
<g opacity="0.05">
<path opacity="0.05" d="M548.792 300.36C548.792 300.36 520.317 344.857 489.828 344.752L481.546 332.053C481.546 332.053 509.451 312.12 513.161 301.729C514.531 297.864 517.358 292.569 520.373 287.373C529.632 271.455 554.606 281.852 549.117 299.344C549.011 299.69 548.902 300.028 548.792 300.36Z" fill="url(#paint5_linear)"/>
</g>
<g opacity="0.1">
<path opacity="0.1" d="M492.064 398.36C498.458 399.591 509.771 401.7 521.361 403.533C527.434 404.494 533.574 405.378 539.129 406.018C547.676 407.006 554.826 407.42 558.139 406.647L558.923 395.052L526.076 380.525L523.707 392.076H492.08C492.08 392.076 492.08 394.484 492.064 398.36Z" fill="url(#paint6_linear)"/>
</g>
<g opacity="0.1">
<path opacity="0.1" d="M498.557 356.083C521.985 341.826 534.099 301.939 534.099 301.939C534.099 301.591 534.099 301.249 534.138 300.912C534.662 282.619 507.728 279.097 503.157 296.848C501.671 302.629 500.396 308.493 500.131 312.546C499.986 314.037 499.643 315.502 499.109 316.902C498.758 324.447 498.835 332.005 499.341 339.54C499.698 345.066 499.435 350.615 498.557 356.083Z" fill="url(#paint7_linear)"/>
</g>
<g opacity="0.1">
<path opacity="0.1" d="M533.144 241.401C529.334 247.701 526.319 254.045 518.584 255.122C514.786 250.303 510.371 246.003 505.454 242.334L530.3 230.783C530.3 230.783 528.843 234.726 533.144 241.401Z" fill="url(#paint8_linear)"/>
</g>
<path d="M513.852 253.128C499.928 253.128 488.641 242.12 488.641 228.541C488.641 214.962 499.928 203.954 513.852 203.954C527.775 203.954 539.063 214.962 539.063 228.541C539.063 242.12 527.775 253.128 513.852 253.128Z" fill="url(#paint9_linear)"/>
<g opacity="0.1">
<path opacity="0.1" d="M488.933 236.255C487.89 236.3 486.858 236.026 485.974 235.471C484.765 234.593 484.378 233.019 484.102 231.573C483.445 228.155 482.931 224.555 484.102 221.264C484.858 219.089 486.311 217.206 487.327 215.141C489.59 210.63 489.993 205.202 493.223 201.287C495.239 198.836 502.323 201.287 505.282 200.051C511.643 197.378 514.404 191.956 521.333 191.962C523.873 191.9 526.407 192.216 528.854 192.9C531.951 193.856 534.69 195.661 537.235 197.643C541.652 201.078 545.981 205.793 545.589 211.303C545.335 214.821 543.187 217.929 541.923 221.209C539.803 226.73 540.189 232.937 541.719 238.657C542.37 241.092 543.116 244.002 541.387 245.862C540.283 247.027 538.533 247.359 536.97 247.105C535.412 246.759 533.92 246.163 532.553 245.338C530.068 244.018 527.55 242.676 525.541 240.738C524.21 239.457 523.139 237.945 521.874 236.603C519.399 234.037 516.595 231.809 513.537 229.977C511.091 228.508 508.568 229.425 506 230.38C500.357 232.451 495.139 236.365 488.933 236.255Z" fill="url(#paint10_linear)"/>
</g>
<g opacity="0.05">
<path opacity="0.05" d="M498.557 356.082C499.433 350.624 499.696 345.084 499.341 339.567C498.835 332.032 498.758 324.474 499.109 316.929C499.452 308.095 500.147 299.355 500.815 292.414C501.806 281.937 506.819 272.251 514.801 265.392C516.574 263.874 518.153 262.753 519.219 262.477C520.549 262.123 522.178 261.063 523.79 259.777C529.212 255.453 522.322 263.874 520.549 265.392C512.567 272.251 507.554 281.937 506.563 292.414C505.901 299.355 505.2 308.095 504.857 316.929C504.506 324.474 504.583 332.032 505.089 339.567C505.444 345.084 505.181 350.624 504.305 356.082C501.335 376.197 492.484 396.196 492.484 396.196C492.484 396.196 535.695 404.925 555.804 405.853C540.046 406.957 486.758 396.196 486.758 396.196C486.758 396.196 495.587 376.186 498.557 356.082Z" fill="url(#paint11_linear)"/>
</g>
<path d="M445.866 359.688C457.709 373.099 474.892 364.16 474.892 364.16C475.593 363.023 481.104 359.958 485.306 357.727C488.006 356.297 490.17 355.215 490.17 355.215L481.385 348.137L476.941 350.378L470.315 353.724C470.315 353.724 434.011 346.276 445.866 359.688Z" fill="url(#paint12_linear)"/>
<g opacity="0.1">
<path opacity="0.1" d="M476.941 350.378L485.306 357.727C488.006 356.297 490.17 355.215 490.17 355.215L481.385 348.137L476.941 350.378Z" fill="url(#paint13_linear)"/>
</g>
<path d="M533.331 300.824C533.331 300.824 518.054 351.119 488.641 358.943L477.184 348.882C477.184 348.882 498.612 322.412 499.363 311.43C499.634 307.372 500.904 301.492 502.389 295.733C506.961 277.987 533.895 281.504 533.37 299.797C533.359 300.135 533.346 300.478 533.331 300.824Z" fill="url(#paint14_linear)"/>
<path opacity="0.05" d="M562.932 349.816C562.932 349.816 552.993 341.992 543.833 347.955C534.673 353.918 521.3 353.173 519.39 353.543" fill="url(#paint15_linear)"/>
<path d="M451.255 333.521C458.626 349.136 476.72 345.117 476.72 345.117C477.658 344.228 483.511 342.742 487.945 341.715C490.794 341.053 493.058 340.611 493.058 340.611L486.841 331.727L482.18 332.71L475.229 334.173C475.229 334.173 443.884 317.901 451.255 333.521Z" fill="#F7C4A7"/>
<path opacity="0.08" d="M451.255 333.521C458.626 349.136 476.72 345.117 476.72 345.117C477.658 344.228 483.511 342.742 487.945 341.715C490.794 341.053 493.058 340.611 493.058 340.611L486.841 331.727L482.18 332.71L475.229 334.173C475.229 334.173 443.884 317.901 451.255 333.521Z" fill="black"/>
<path opacity="0.1" d="M482.18 332.654L487.945 341.688C490.794 341.025 493.058 340.583 493.058 340.583L486.841 331.699L482.18 332.654Z" fill="black"/>
<path d="M546.798 300.365C546.798 300.365 519.699 343.786 490.689 343.676L482.799 331.307C482.799 331.307 509.352 311.861 512.885 301.718C514.188 297.974 516.877 292.784 519.743 287.727C528.577 272.2 552.32 282.343 547.102 299.41C547.003 299.723 546.901 300.041 546.798 300.365Z" fill="#575988"/>
<path opacity="0.05" d="M546.798 300.365C546.798 300.365 519.699 343.786 490.689 343.676L482.799 331.307C482.799 331.307 509.352 311.861 512.885 301.718C514.188 297.974 516.877 292.784 519.743 287.727C528.577 272.2 552.32 282.343 547.102 299.41C547.003 299.723 546.901 300.041 546.798 300.365Z" fill="black"/>
<path d="M564.439 552.724L563.169 567.809C563.169 567.809 521.549 560.719 521.913 546.546C522.277 532.372 564.439 552.724 564.439 552.724Z" fill="#535461"/>
<path opacity="0.1" d="M564.439 552.724L563.169 567.809C563.169 567.809 521.549 560.719 521.913 546.546C522.277 532.372 564.439 552.724 564.439 552.724Z" fill="black"/>
<path d="M515.729 557.451L516.458 570.542C516.458 570.542 458.659 566.18 460.84 553.823C463.021 541.466 493.555 548.368 493.555 548.368L515.729 557.451Z" fill="#535461"/>
<path d="M515.006 429.496C515.006 429.496 518.423 439.181 522.785 450.301C526.96 460.935 531.995 472.889 535.728 478.93C543.336 491.292 544.441 529.457 544.441 529.457C545.893 535.635 538.627 547.633 538.627 547.633C553.165 563.265 566.615 554.176 566.615 554.176C564.069 549.45 568.431 536 568.431 536C568.431 536 562.617 473.839 558.979 470.935C555.34 468.03 552.441 453.487 552.441 453.487L555.693 404.075L556.439 392.784L525.176 378.604L522.907 389.874L520.698 401.033L515.006 429.496Z" fill="#6A5C99"/>
<path opacity="0.1" d="M515.006 429.496C515.006 429.496 518.423 439.181 522.785 450.301C526.96 460.935 531.995 472.889 535.728 478.93C543.336 491.292 544.441 529.457 544.441 529.457C545.893 535.635 538.627 547.633 538.627 547.633C553.165 563.265 566.615 554.176 566.615 554.176C564.069 549.45 568.431 536 568.431 536C568.431 536 562.617 473.839 558.979 470.935C555.34 468.03 552.441 453.487 552.441 453.487L555.693 404.075L556.439 392.784L525.176 378.604L522.907 389.874L520.698 401.033L515.006 429.496Z" fill="black"/>
<path d="M487.741 549.814C494.284 561.448 517.187 559.99 517.187 559.99V525.818C517.187 525.818 523.73 487.648 520.096 478.924C516.463 470.2 521.549 454.204 521.549 454.204L522.785 450.295L537.611 403.451L541.906 389.868H492.831C492.831 389.868 492.831 392.193 492.831 395.98C492.771 410.518 492.473 446.574 491.026 454.939C489.209 465.479 494.3 472.387 494.3 472.387C494.3 472.387 491.39 515.277 493.936 528.706C496.481 542.134 487.741 549.814 487.741 549.814Z" fill="#6A5C99"/>
<path d="M528.092 230.298C528.092 230.298 535.728 251.379 550.995 259.01C566.262 266.64 525.911 268.827 525.911 268.827C525.911 268.827 519.368 252.814 504.465 241.562L528.092 230.298Z" fill="#F7C4A7"/>
<path opacity="0.1" d="M492.815 395.986C498.899 397.167 509.655 399.243 520.698 401.032C526.474 401.971 532.321 402.832 537.611 403.456C545.744 404.417 552.552 404.826 555.704 404.069L556.45 392.778L525.187 378.599L522.907 389.873H492.809C492.809 389.873 492.831 392.198 492.815 395.986Z" fill="black"/>
<path d="M487.741 393.855C487.741 393.855 549.172 406.554 556.803 402.579C564.434 398.604 566.256 388.4 564.075 377.136C561.894 365.872 564.075 337.878 568.072 302.254C570.088 284.315 565.649 272.278 560.745 264.741C558.634 261.514 555.75 258.865 552.357 257.033C548.963 255.201 545.166 254.245 541.31 254.25C534.642 254.227 528.17 256.507 522.99 260.705C521.455 261.958 519.903 262.991 518.639 263.339C517.639 263.609 516.138 264.702 514.453 266.182C506.817 272.952 502.055 282.383 501.141 292.547C500.506 299.316 499.844 307.847 499.518 316.472C499.182 323.832 499.253 331.205 499.733 338.558C500.071 343.939 499.821 349.342 498.988 354.669C496.166 374.359 487.741 393.855 487.741 393.855Z" fill="#575988"/>
<path opacity="0.1" d="M498.993 354.735C521.289 340.827 532.818 301.906 532.818 301.906C532.818 301.569 532.818 301.232 532.857 300.907C533.354 283.061 507.723 279.621 503.372 296.942C501.958 302.585 500.749 308.3 500.495 312.259C500.358 313.712 500.032 315.142 499.523 316.51C499.187 323.871 499.259 331.244 499.739 338.596C500.079 343.987 499.829 349.399 498.993 354.735Z" fill="black"/>
<path opacity="0.1" d="M531.907 242.836C528.285 248.982 525.414 255.177 518.048 256.221C514.447 251.532 510.246 247.336 505.553 243.742L529.179 232.473C529.179 232.473 527.815 236.327 531.907 242.836Z" fill="black"/>
<path d="M513.548 254.288C500.298 254.288 489.557 243.547 489.557 230.297C489.557 217.048 500.298 206.307 513.548 206.307C526.798 206.307 537.539 217.048 537.539 230.297C537.539 243.547 526.798 254.288 513.548 254.288Z" fill="#F7C4A7"/>
<path opacity="0.1" d="M489.833 237.817C488.837 237.857 487.853 237.587 487.017 237.044C485.869 236.189 485.499 234.648 485.239 233.24C484.615 229.927 484.135 226.394 485.239 223.18C485.957 221.054 487.321 219.221 488.309 217.206C490.468 212.789 490.849 207.51 493.919 203.689C495.841 201.298 502.577 203.689 505.398 202.48C511.472 199.874 514.078 194.584 520.671 194.59C523.096 194.528 525.517 194.837 527.849 195.506C530.797 196.434 533.403 198.212 535.822 200.133C540.04 203.485 544.148 208.084 543.773 213.462C543.53 216.897 541.487 219.9 540.283 223.125C538.262 228.525 538.627 234.571 540.09 240.148C540.708 242.522 541.42 245.36 539.775 247.182C538.748 248.314 537.058 248.645 535.551 248.391C534.057 248.055 532.63 247.473 531.327 246.668C528.964 245.382 526.568 244.073 524.657 242.185C523.393 240.932 522.371 239.457 521.168 238.149C518.82 235.652 516.152 233.478 513.233 231.683C510.903 230.253 508.512 231.131 506.055 232.075C500.705 234.107 495.741 237.928 489.833 237.817Z" fill="black"/>
<path d="M490.198 237.453C489.203 237.496 488.219 237.23 487.382 236.691C486.233 235.835 485.863 234.295 485.604 232.887C484.98 229.574 484.499 226.04 485.604 222.827C486.322 220.701 487.685 218.868 488.674 216.853C490.833 212.435 491.214 207.157 494.284 203.336C496.205 200.945 502.566 203.706 505.398 202.491C511.472 199.885 514.442 194.209 521.035 194.209C523.46 194.147 525.881 194.456 528.213 195.126C531.161 196.053 533.768 197.831 536.186 199.753C540.404 203.104 544.512 207.703 544.137 213.081C543.894 216.516 541.851 219.519 540.647 222.744C538.626 228.144 538.991 234.19 540.454 239.767C541.072 242.141 541.785 244.979 540.139 246.801C539.112 247.933 537.423 248.264 535.915 248.01C534.422 247.674 532.994 247.092 531.692 246.287C529.328 245.001 526.932 243.692 525.022 241.804C523.757 240.551 522.736 239.076 521.532 237.768C519.16 235.274 516.465 233.107 513.52 231.324C511.19 229.894 508.799 230.772 506.342 231.716C501.069 233.732 496.106 237.564 490.198 237.453Z" fill="#632652"/>
<path opacity="0.05" d="M498.993 354.735C499.818 349.412 500.061 344.015 499.717 338.64C499.237 331.287 499.165 323.914 499.501 316.554C499.827 307.929 500.49 299.404 501.125 292.629C502.039 282.465 506.801 273.034 514.437 266.264C516.121 264.779 517.623 263.691 518.622 263.421C519.887 263.073 521.438 262.04 522.973 260.787C528.136 256.569 521.576 264.785 519.887 266.264C512.25 273.034 507.489 282.465 506.574 292.629C505.939 299.399 505.277 307.929 504.951 316.554C504.615 323.914 504.687 331.287 505.166 338.64C505.504 344.021 505.254 349.424 504.421 354.751C501.594 374.375 493.168 393.888 493.168 393.888C493.168 393.888 534.292 402.402 553.424 403.313C538.428 404.417 487.719 393.888 487.719 393.888C487.719 393.888 496.166 374.358 498.993 354.735Z" fill="black"/>
<path d="M448.847 358.252C460.117 371.338 476.455 362.614 476.455 362.614C477.117 361.509 482.363 358.511 486.393 356.341C488.961 354.944 491.02 353.89 491.02 353.89L482.661 346.982L478.431 349.191L472.109 352.443C472.109 352.443 437.578 345.166 448.847 358.252Z" fill="#F7C4A7"/>
<path opacity="0.1" d="M478.42 349.169L486.382 356.347C488.95 354.95 491.009 353.896 491.009 353.896L482.65 346.988L478.42 349.169Z" fill="black"/>
<path d="M532.089 300.817C532.089 300.817 517.551 349.892 489.574 357.523L478.669 347.706C478.669 347.706 499.098 321.882 499.777 311.165C500.037 307.206 501.241 301.486 502.66 295.848C507.011 278.533 532.641 281.967 532.139 299.813C532.12 300.144 532.104 300.479 532.089 300.817Z" fill="#575988"/>
<path opacity="0.05" d="M560.26 348.617C560.26 348.617 550.807 340.981 542.083 346.8C533.359 352.62 520.638 351.891 518.821 352.256" fill="black"/>
<path fill-rule="evenodd" clip-rule="evenodd" d="M359.56 121.044L359.82 121.065L360.112 121.044L360.115 121.09L473.302 130.43L477.167 130.43H478.271H482.688L483.793 170.737L465.572 177.363L454.529 235.338L496.225 320.564L496.305 320.497C498.028 317.022 499.198 313.85 499.363 311.43L499.369 311.344L499.376 311.247C499.75 304.411 500.291 297.858 500.815 292.414C501.806 281.936 506.819 272.251 514.801 265.392C516.574 263.873 518.153 262.753 519.218 262.476C520.021 262.263 520.931 261.794 521.881 261.172C520.94 259.629 519.829 257.928 518.54 256.142C518.378 256.171 518.214 256.197 518.048 256.221C517.503 255.51 516.943 254.811 516.37 254.124C515.445 254.232 514.503 254.288 513.548 254.288C503.987 254.288 495.733 248.695 491.878 240.603C491.359 239.707 490.897 238.775 490.495 237.813C490.276 237.82 490.055 237.822 489.833 237.817C488.837 237.857 487.853 237.587 487.017 237.044C486.435 236.611 486.053 236.001 485.784 235.322C484.723 234.423 484.363 232.941 484.102 231.573C483.445 228.155 482.931 224.555 484.102 221.264C484.567 219.926 485.295 218.699 486.024 217.472C486.479 216.704 486.935 215.936 487.326 215.141C488.219 213.363 488.822 211.442 489.423 209.528C490.347 206.586 491.267 203.659 493.223 201.288C494.377 199.884 497.19 200.087 499.941 200.286C501.996 200.434 504.017 200.58 505.282 200.051C507.759 199.01 509.69 197.553 511.533 196.161L511.533 196.161C514.425 193.979 517.102 191.958 521.333 191.962C523.873 191.9 526.407 192.216 528.853 192.9C531.951 193.856 534.69 195.661 537.235 197.643C541.652 201.078 545.981 205.793 545.589 211.303C545.415 213.709 544.356 215.924 543.299 218.133C542.81 219.153 542.322 220.173 541.923 221.209C539.803 226.73 540.189 232.937 541.719 238.657C542.37 241.092 543.115 244.002 541.387 245.862C541.053 246.216 540.658 246.492 540.228 246.699C540.199 246.733 540.17 246.767 540.139 246.801C540.059 246.889 539.975 246.973 539.887 247.051C539.851 247.095 539.814 247.139 539.775 247.182C539.362 247.637 538.842 247.962 538.27 248.173C540.027 250.375 542.011 252.52 544.223 254.429C547.063 254.785 549.823 255.664 552.357 257.032C555.751 258.864 558.634 261.513 560.746 264.74C565.649 272.277 570.088 284.314 568.073 302.253C564.075 337.878 561.894 365.871 564.075 377.135C566.086 387.52 564.694 397.003 558.485 401.536L558.14 406.647C557.429 406.813 556.541 406.924 555.502 406.987L552.441 453.486C552.441 453.486 555.34 468.03 558.979 470.934C562.617 473.838 568.431 535.999 568.431 535.999C568.431 535.999 564.069 549.449 566.615 554.176C566.615 554.176 565.748 554.762 564.216 555.38L563.169 567.808C563.169 567.808 521.549 560.719 521.913 546.545C522.081 540.016 531.119 540.813 540.818 543.573C542.825 539.515 545.353 533.337 544.441 529.456C544.441 529.456 543.336 491.292 535.728 478.929C531.995 472.889 526.96 460.935 522.785 450.3L522.784 450.298L521.549 454.204C521.549 454.204 516.463 470.2 520.096 478.924C523.73 487.648 517.187 525.818 517.187 525.818V559.99C517.187 559.99 516.709 560.02 515.873 560.037L516.458 570.541C516.458 570.541 458.659 566.179 460.84 553.822C462.537 544.209 481.392 546.252 489.683 547.633C492.094 544.466 495.687 537.947 493.936 528.705C492.543 521.359 492.783 505.196 493.287 492.061L399.705 524.528L395.173 527.7L314.836 476.075L307.658 124.909L359.562 121.084L359.56 121.044ZM388.867 358.011L388.524 358.067L388.527 358.069L388.867 358.011Z" fill="url(#paint16_linear)"/>
</g>
<path d="M134.541 624C137.641 624 140.325 624.517 142.591 625.55C144.891 626.583 146.658 628.05 147.891 629.95C149.125 631.85 149.741 634.1 149.741 636.7C149.741 639.267 149.125 641.517 147.891 643.45C146.658 645.35 144.891 646.817 142.591 647.85C140.325 648.85 137.641 649.35 134.541 649.35H127.491V659H119.391V624H134.541ZM134.091 642.75C136.525 642.75 138.375 642.233 139.641 641.2C140.908 640.133 141.541 638.633 141.541 636.7C141.541 634.733 140.908 633.233 139.641 632.2C138.375 631.133 136.525 630.6 134.091 630.6H127.491V642.75H134.091ZM155.962 621.9H163.762V659H155.962V621.9ZM182.351 631.7C186.518 631.7 189.718 632.7 191.951 634.7C194.185 636.667 195.301 639.65 195.301 643.65V659H188.001V655.65C186.535 658.15 183.801 659.4 179.801 659.4C177.735 659.4 175.935 659.05 174.401 658.35C172.901 657.65 171.751 656.683 170.951 655.45C170.151 654.217 169.751 652.817 169.751 651.25C169.751 648.75 170.685 646.783 172.551 645.35C174.451 643.917 177.368 643.2 181.301 643.2H187.501C187.501 641.5 186.985 640.2 185.951 639.3C184.918 638.367 183.368 637.9 181.301 637.9C179.868 637.9 178.451 638.133 177.051 638.6C175.685 639.033 174.518 639.633 173.551 640.4L170.751 634.95C172.218 633.917 173.968 633.117 176.001 632.55C178.068 631.983 180.185 631.7 182.351 631.7ZM181.751 654.15C183.085 654.15 184.268 653.85 185.301 653.25C186.335 652.617 187.068 651.7 187.501 650.5V647.75H182.151C178.951 647.75 177.351 648.8 177.351 650.9C177.351 651.9 177.735 652.7 178.501 653.3C179.301 653.867 180.385 654.15 181.751 654.15ZM229.072 632.1L216.922 660.65C215.689 663.75 214.156 665.933 212.322 667.2C210.522 668.467 208.339 669.1 205.772 669.1C204.372 669.1 202.989 668.883 201.622 668.45C200.256 668.017 199.139 667.417 198.272 666.65L201.122 661.1C201.722 661.633 202.406 662.05 203.172 662.35C203.972 662.65 204.756 662.8 205.522 662.8C206.589 662.8 207.456 662.533 208.122 662C208.789 661.5 209.389 660.65 209.922 659.45L210.022 659.2L198.372 632.1H206.422L213.972 650.35L221.572 632.1H229.072ZM258.265 631.7C262.432 631.7 265.632 632.7 267.865 634.7C270.099 636.667 271.215 639.65 271.215 643.65V659H263.915V655.65C262.449 658.15 259.715 659.4 255.715 659.4C253.649 659.4 251.849 659.05 250.315 658.35C248.815 657.65 247.665 656.683 246.865 655.45C246.065 654.217 245.665 652.817 245.665 651.25C245.665 648.75 246.599 646.783 248.465 645.35C250.365 643.917 253.282 643.2 257.215 643.2H263.415C263.415 641.5 262.899 640.2 261.865 639.3C260.832 638.367 259.282 637.9 257.215 637.9C255.782 637.9 254.365 638.133 252.965 638.6C251.599 639.033 250.432 639.633 249.465 640.4L246.665 634.95C248.132 633.917 249.882 633.117 251.915 632.55C253.982 631.983 256.099 631.7 258.265 631.7ZM257.665 654.15C258.999 654.15 260.182 653.85 261.215 653.25C262.249 652.617 262.982 651.7 263.415 650.5V647.75H258.065C254.865 647.75 253.265 648.8 253.265 650.9C253.265 651.9 253.649 652.7 254.415 653.3C255.215 653.867 256.299 654.15 257.665 654.15ZM295.125 631.7C298.458 631.7 301.141 632.7 303.175 634.7C305.241 636.7 306.275 639.667 306.275 643.6V659H298.475V644.8C298.475 642.667 298.008 641.083 297.075 640.05C296.141 638.983 294.791 638.45 293.025 638.45C291.058 638.45 289.491 639.067 288.325 640.3C287.158 641.5 286.575 643.3 286.575 645.7V659H278.775V632.1H286.225V635.25C287.258 634.117 288.541 633.25 290.075 632.65C291.608 632.017 293.291 631.7 295.125 631.7ZM341.538 621.9V659H334.088V655.9C332.155 658.233 329.355 659.4 325.688 659.4C323.155 659.4 320.855 658.833 318.788 657.7C316.755 656.567 315.155 654.95 313.988 652.85C312.821 650.75 312.238 648.317 312.238 645.55C312.238 642.783 312.821 640.35 313.988 638.25C315.155 636.15 316.755 634.533 318.788 633.4C320.855 632.267 323.155 631.7 325.688 631.7C329.121 631.7 331.805 632.783 333.738 634.95V621.9H341.538ZM327.038 653C329.005 653 330.638 652.333 331.938 651C333.238 649.633 333.888 647.817 333.888 645.55C333.888 643.283 333.238 641.483 331.938 640.15C330.638 638.783 329.005 638.1 327.038 638.1C325.038 638.1 323.388 638.783 322.088 640.15C320.788 641.483 320.138 643.283 320.138 645.55C320.138 647.817 320.788 649.633 322.088 651C323.388 652.333 325.038 653 327.038 653ZM372.967 659.4C370.734 659.4 368.551 659.133 366.417 658.6C364.284 658.033 362.584 657.333 361.317 656.5L363.917 650.9C365.117 651.667 366.567 652.3 368.267 652.8C369.967 653.267 371.634 653.5 373.267 653.5C376.567 653.5 378.217 652.683 378.217 651.05C378.217 650.283 377.767 649.733 376.867 649.4C375.967 649.067 374.584 648.783 372.717 648.55C370.517 648.217 368.701 647.833 367.267 647.4C365.834 646.967 364.584 646.2 363.517 645.1C362.484 644 361.967 642.433 361.967 640.4C361.967 638.7 362.451 637.2 363.417 635.9C364.417 634.567 365.851 633.533 367.717 632.8C369.617 632.067 371.851 631.7 374.417 631.7C376.317 631.7 378.201 631.917 380.067 632.35C381.967 632.75 383.534 633.317 384.767 634.05L382.167 639.6C379.801 638.267 377.217 637.6 374.417 637.6C372.751 637.6 371.501 637.833 370.667 638.3C369.834 638.767 369.417 639.367 369.417 640.1C369.417 640.933 369.867 641.517 370.767 641.85C371.667 642.183 373.101 642.5 375.067 642.8C377.267 643.167 379.067 643.567 380.467 644C381.867 644.4 383.084 645.15 384.117 646.25C385.151 647.35 385.667 648.883 385.667 650.85C385.667 652.517 385.167 654 384.167 655.3C383.167 656.6 381.701 657.617 379.767 658.35C377.867 659.05 375.601 659.4 372.967 659.4ZM408.33 657.7C407.563 658.267 406.613 658.7 405.48 659C404.38 659.267 403.213 659.4 401.98 659.4C398.78 659.4 396.297 658.583 394.53 656.95C392.797 655.317 391.93 652.917 391.93 649.75V638.7H387.78V632.7H391.93V626.15H399.73V632.7H406.43V638.7H399.73V649.65C399.73 650.783 400.013 651.667 400.58 652.3C401.18 652.9 402.013 653.2 403.08 653.2C404.313 653.2 405.363 652.867 406.23 652.2L408.33 657.7ZM440.308 632.1V659H432.908V655.8C431.875 656.967 430.642 657.867 429.208 658.5C427.775 659.1 426.225 659.4 424.558 659.4C421.025 659.4 418.225 658.383 416.158 656.35C414.092 654.317 413.058 651.3 413.058 647.3V632.1H420.858V646.15C420.858 650.483 422.675 652.65 426.308 652.65C428.175 652.65 429.675 652.05 430.808 650.85C431.942 649.617 432.508 647.8 432.508 645.4V632.1H440.308ZM475.435 621.9V659H467.985V655.9C466.051 658.233 463.251 659.4 459.585 659.4C457.051 659.4 454.751 658.833 452.685 657.7C450.651 656.567 449.051 654.95 447.885 652.85C446.718 650.75 446.135 648.317 446.135 645.55C446.135 642.783 446.718 640.35 447.885 638.25C449.051 636.15 450.651 634.533 452.685 633.4C454.751 632.267 457.051 631.7 459.585 631.7C463.018 631.7 465.701 632.783 467.635 634.95V621.9H475.435ZM460.935 653C462.901 653 464.535 652.333 465.835 651C467.135 649.633 467.785 647.817 467.785 645.55C467.785 643.283 467.135 641.483 465.835 640.15C464.535 638.783 462.901 638.1 460.935 638.1C458.935 638.1 457.285 638.783 455.985 640.15C454.685 641.483 454.035 643.283 454.035 645.55C454.035 647.817 454.685 649.633 455.985 651C457.285 652.333 458.935 653 460.935 653ZM509.854 632.1L497.704 660.65C496.47 663.75 494.937 665.933 493.104 667.2C491.304 668.467 489.12 669.1 486.554 669.1C485.154 669.1 483.77 668.883 482.404 668.45C481.037 668.017 479.92 667.417 479.054 666.65L481.904 661.1C482.504 661.633 483.187 662.05 483.954 662.35C484.754 662.65 485.537 662.8 486.304 662.8C487.37 662.8 488.237 662.533 488.904 662C489.57 661.5 490.17 660.65 490.704 659.45L490.804 659.2L479.154 632.1H487.204L494.754 650.35L502.354 632.1H509.854ZM545.547 657.7C544.78 658.267 543.83 658.7 542.697 659C541.597 659.267 540.43 659.4 539.197 659.4C535.997 659.4 533.513 658.583 531.747 656.95C530.013 655.317 529.147 652.917 529.147 649.75V638.7H524.997V632.7H529.147V626.15H536.947V632.7H543.647V638.7H536.947V649.65C536.947 650.783 537.23 651.667 537.797 652.3C538.397 652.9 539.23 653.2 540.297 653.2C541.53 653.2 542.58 652.867 543.447 652.2L545.547 657.7ZM562.395 659.4C559.562 659.4 557.012 658.817 554.745 657.65C552.512 656.45 550.762 654.8 549.495 652.7C548.228 650.6 547.595 648.217 547.595 645.55C547.595 642.883 548.228 640.5 549.495 638.4C550.762 636.3 552.512 634.667 554.745 633.5C557.012 632.3 559.562 631.7 562.395 631.7C565.228 631.7 567.762 632.3 569.995 633.5C572.228 634.667 573.978 636.3 575.245 638.4C576.512 640.5 577.145 642.883 577.145 645.55C577.145 648.217 576.512 650.6 575.245 652.7C573.978 654.8 572.228 656.45 569.995 657.65C567.762 658.817 565.228 659.4 562.395 659.4ZM562.395 653C564.395 653 566.028 652.333 567.295 651C568.595 649.633 569.245 647.817 569.245 645.55C569.245 643.283 568.595 641.483 567.295 640.15C566.028 638.783 564.395 638.1 562.395 638.1C560.395 638.1 558.745 638.783 557.445 640.15C556.145 641.483 555.495 643.283 555.495 645.55C555.495 647.817 556.145 649.633 557.445 651C558.745 652.333 560.395 653 562.395 653ZM99.6156 694.1H107.416V721H99.6156V694.1ZM103.516 690.35C102.082 690.35 100.916 689.933 100.016 689.1C99.1156 688.267 98.6656 687.233 98.6656 686C98.6656 684.767 99.1156 683.733 100.016 682.9C100.916 682.067 102.082 681.65 103.516 681.65C104.949 681.65 106.116 682.05 107.016 682.85C107.916 683.65 108.366 684.65 108.366 685.85C108.366 687.15 107.916 688.233 107.016 689.1C106.116 689.933 104.949 690.35 103.516 690.35ZM149.605 693.7C152.971 693.7 155.638 694.7 157.605 696.7C159.605 698.667 160.605 701.633 160.605 705.6V721H152.805V706.8C152.805 704.667 152.355 703.083 151.455 702.05C150.588 700.983 149.338 700.45 147.705 700.45C145.871 700.45 144.421 701.05 143.355 702.25C142.288 703.417 141.755 705.167 141.755 707.5V721H133.955V706.8C133.955 702.567 132.255 700.45 128.855 700.45C127.055 700.45 125.621 701.05 124.555 702.25C123.488 703.417 122.955 705.167 122.955 707.5V721H115.155V694.1H122.605V697.2C123.605 696.067 124.821 695.2 126.255 694.6C127.721 694 129.321 693.7 131.055 693.7C132.955 693.7 134.671 694.083 136.205 694.85C137.738 695.583 138.971 696.667 139.905 698.1C141.005 696.7 142.388 695.617 144.055 694.85C145.755 694.083 147.605 693.7 149.605 693.7ZM183.996 693.7C186.496 693.7 188.763 694.283 190.796 695.45C192.863 696.583 194.479 698.2 195.646 700.3C196.813 702.367 197.396 704.783 197.396 707.55C197.396 710.317 196.813 712.75 195.646 714.85C194.479 716.917 192.863 718.533 190.796 719.7C188.763 720.833 186.496 721.4 183.996 721.4C180.563 721.4 177.863 720.317 175.896 718.15V730.7H168.096V694.1H175.546V697.2C177.479 694.867 180.296 693.7 183.996 693.7ZM182.646 715C184.646 715 186.279 714.333 187.546 713C188.846 711.633 189.496 709.817 189.496 707.55C189.496 705.283 188.846 703.483 187.546 702.15C186.279 700.783 184.646 700.1 182.646 700.1C180.646 700.1 178.996 700.783 177.696 702.15C176.429 703.483 175.796 705.283 175.796 707.55C175.796 709.817 176.429 711.633 177.696 713C178.996 714.333 180.646 715 182.646 715ZM210.568 697.65C211.501 696.35 212.751 695.367 214.318 694.7C215.918 694.033 217.751 693.7 219.818 693.7V700.9C218.951 700.833 218.368 700.8 218.068 700.8C215.834 700.8 214.084 701.433 212.818 702.7C211.551 703.933 210.918 705.8 210.918 708.3V721H203.118V694.1H210.568V697.65ZM237.511 721.4C234.678 721.4 232.128 720.817 229.861 719.65C227.628 718.45 225.878 716.8 224.611 714.7C223.345 712.6 222.711 710.217 222.711 707.55C222.711 704.883 223.345 702.5 224.611 700.4C225.878 698.3 227.628 696.667 229.861 695.5C232.128 694.3 234.678 693.7 237.511 693.7C240.345 693.7 242.878 694.3 245.111 695.5C247.345 696.667 249.095 698.3 250.361 700.4C251.628 702.5 252.261 704.883 252.261 707.55C252.261 710.217 251.628 712.6 250.361 714.7C249.095 716.8 247.345 718.45 245.111 719.65C242.878 720.817 240.345 721.4 237.511 721.4ZM237.511 715C239.511 715 241.145 714.333 242.411 713C243.711 711.633 244.361 709.817 244.361 707.55C244.361 705.283 243.711 703.483 242.411 702.15C241.145 700.783 239.511 700.1 237.511 700.1C235.511 700.1 233.861 700.783 232.561 702.15C231.261 703.483 230.611 705.283 230.611 707.55C230.611 709.817 231.261 711.633 232.561 713C233.861 714.333 235.511 715 237.511 715ZM283.943 694.1L272.593 721H264.543L253.243 694.1H261.293L268.743 712.4L276.443 694.1H283.943ZM313.243 707.65C313.243 707.75 313.193 708.45 313.093 709.75H292.743C293.11 711.417 293.976 712.733 295.343 713.7C296.71 714.667 298.41 715.15 300.443 715.15C301.843 715.15 303.076 714.95 304.143 714.55C305.243 714.117 306.26 713.45 307.193 712.55L311.343 717.05C308.81 719.95 305.11 721.4 300.243 721.4C297.21 721.4 294.526 720.817 292.193 719.65C289.86 718.45 288.06 716.8 286.793 714.7C285.526 712.6 284.893 710.217 284.893 707.55C284.893 704.917 285.51 702.55 286.743 700.45C288.01 698.317 289.726 696.667 291.893 695.5C294.093 694.3 296.543 693.7 299.243 693.7C301.876 693.7 304.26 694.267 306.393 695.4C308.526 696.533 310.193 698.167 311.393 700.3C312.626 702.4 313.243 704.85 313.243 707.65ZM299.293 699.6C297.526 699.6 296.043 700.1 294.843 701.1C293.643 702.1 292.91 703.467 292.643 705.2H305.893C305.626 703.5 304.893 702.15 303.693 701.15C302.493 700.117 301.026 699.6 299.293 699.6ZM360.296 694.1L348.146 722.65C346.913 725.75 345.379 727.933 343.546 729.2C341.746 730.467 339.563 731.1 336.996 731.1C335.596 731.1 334.213 730.883 332.846 730.45C331.479 730.017 330.363 729.417 329.496 728.65L332.346 723.1C332.946 723.633 333.629 724.05 334.396 724.35C335.196 724.65 335.979 724.8 336.746 724.8C337.813 724.8 338.679 724.533 339.346 724C340.013 723.5 340.613 722.65 341.146 721.45L341.246 721.2L329.596 694.1H337.646L345.196 712.35L352.796 694.1H360.296ZM376.046 721.4C373.213 721.4 370.663 720.817 368.396 719.65C366.163 718.45 364.413 716.8 363.146 714.7C361.88 712.6 361.246 710.217 361.246 707.55C361.246 704.883 361.88 702.5 363.146 700.4C364.413 698.3 366.163 696.667 368.396 695.5C370.663 694.3 373.213 693.7 376.046 693.7C378.88 693.7 381.413 694.3 383.646 695.5C385.88 696.667 387.63 698.3 388.896 700.4C390.163 702.5 390.796 704.883 390.796 707.55C390.796 710.217 390.163 712.6 388.896 714.7C387.63 716.8 385.88 718.45 383.646 719.65C381.413 720.817 378.88 721.4 376.046 721.4ZM376.046 715C378.046 715 379.68 714.333 380.946 713C382.246 711.633 382.896 709.817 382.896 707.55C382.896 705.283 382.246 703.483 380.946 702.15C379.68 700.783 378.046 700.1 376.046 700.1C374.046 700.1 372.396 700.783 371.096 702.15C369.796 703.483 369.146 705.283 369.146 707.55C369.146 709.817 369.796 711.633 371.096 713C372.396 714.333 374.046 715 376.046 715ZM423.61 694.1V721H416.21V717.8C415.177 718.967 413.943 719.867 412.51 720.5C411.077 721.1 409.527 721.4 407.86 721.4C404.327 721.4 401.527 720.383 399.46 718.35C397.393 716.317 396.36 713.3 396.36 709.3V694.1H404.16V708.15C404.16 712.483 405.977 714.65 409.61 714.65C411.477 714.65 412.977 714.05 414.11 712.85C415.243 711.617 415.81 709.8 415.81 707.4V694.1H423.61ZM438.786 697.65C439.72 696.35 440.97 695.367 442.536 694.7C444.136 694.033 445.97 693.7 448.036 693.7V700.9C447.17 700.833 446.586 700.8 446.286 700.8C444.053 700.8 442.303 701.433 441.036 702.7C439.77 703.933 439.136 705.8 439.136 708.3V721H431.336V694.1H438.786V697.65ZM477.08 721.4C474.846 721.4 472.663 721.133 470.53 720.6C468.396 720.033 466.696 719.333 465.43 718.5L468.03 712.9C469.23 713.667 470.68 714.3 472.38 714.8C474.08 715.267 475.746 715.5 477.38 715.5C480.68 715.5 482.33 714.683 482.33 713.05C482.33 712.283 481.88 711.733 480.98 711.4C480.08 711.067 478.696 710.783 476.83 710.55C474.63 710.217 472.813 709.833 471.38 709.4C469.946 708.967 468.696 708.2 467.63 707.1C466.596 706 466.08 704.433 466.08 702.4C466.08 700.7 466.563 699.2 467.53 697.9C468.53 696.567 469.963 695.533 471.83 694.8C473.73 694.067 475.963 693.7 478.53 693.7C480.43 693.7 482.313 693.917 484.18 694.35C486.08 694.75 487.646 695.317 488.88 696.05L486.28 701.6C483.913 700.267 481.33 699.6 478.53 699.6C476.863 699.6 475.613 699.833 474.78 700.3C473.946 700.767 473.53 701.367 473.53 702.1C473.53 702.933 473.98 703.517 474.88 703.85C475.78 704.183 477.213 704.5 479.18 704.8C481.38 705.167 483.18 705.567 484.58 706C485.98 706.4 487.196 707.15 488.23 708.25C489.263 709.35 489.78 710.883 489.78 712.85C489.78 714.517 489.28 716 488.28 717.3C487.28 718.6 485.813 719.617 483.88 720.35C481.98 721.05 479.713 721.4 477.08 721.4ZM506.642 710.45L502.892 714.15V721H495.092V683.9H502.892V704.9L514.292 694.1H523.592L512.392 705.5L524.592 721H515.142L506.642 710.45ZM528.405 694.1H536.205V721H528.405V694.1ZM532.305 690.35C530.871 690.35 529.705 689.933 528.805 689.1C527.905 688.267 527.455 687.233 527.455 686C527.455 684.767 527.905 683.733 528.805 682.9C529.705 682.067 530.871 681.65 532.305 681.65C533.738 681.65 534.905 682.05 535.805 682.85C536.705 683.65 537.155 684.65 537.155 685.85C537.155 687.15 536.705 688.233 535.805 689.1C534.905 689.933 533.738 690.35 532.305 690.35ZM543.944 683.9H551.744V721H543.944V683.9ZM559.483 683.9H567.283V721H559.483V683.9ZM584.072 721.4C581.839 721.4 579.655 721.133 577.522 720.6C575.389 720.033 573.689 719.333 572.422 718.5L575.022 712.9C576.222 713.667 577.672 714.3 579.372 714.8C581.072 715.267 582.739 715.5 584.372 715.5C587.672 715.5 589.322 714.683 589.322 713.05C589.322 712.283 588.872 711.733 587.972 711.4C587.072 711.067 585.689 710.783 583.822 710.55C581.622 710.217 579.805 709.833 578.372 709.4C576.939 708.967 575.689 708.2 574.622 707.1C573.589 706 573.072 704.433 573.072 702.4C573.072 700.7 573.555 699.2 574.522 697.9C575.522 696.567 576.955 695.533 578.822 694.8C580.722 694.067 582.955 693.7 585.522 693.7C587.422 693.7 589.305 693.917 591.172 694.35C593.072 694.75 594.639 695.317 595.872 696.05L593.272 701.6C590.905 700.267 588.322 699.6 585.522 699.6C583.855 699.6 582.605 699.833 581.772 700.3C580.939 700.767 580.522 701.367 580.522 702.1C580.522 702.933 580.972 703.517 581.872 703.85C582.772 704.183 584.205 704.5 586.172 704.8C588.372 705.167 590.172 705.567 591.572 706C592.972 706.4 594.189 707.15 595.222 708.25C596.255 709.35 596.772 710.883 596.772 712.85C596.772 714.517 596.272 716 595.272 717.3C594.272 718.6 592.805 719.617 590.872 720.35C588.972 721.05 586.705 721.4 584.072 721.4Z" fill="#2F2E44"/>
<path d="M251.975 67.325C251.975 67.375 251.95 67.725 251.9 68.375H241.725C241.908 69.2083 242.342 69.8667 243.025 70.35C243.708 70.8333 244.558 71.075 245.575 71.075C246.275 71.075 246.892 70.975 247.425 70.775C247.975 70.5583 248.483 70.225 248.95 69.775L251.025 72.025C249.758 73.475 247.908 74.2 245.475 74.2C243.958 74.2 242.617 73.9083 241.45 73.325C240.283 72.725 239.383 71.9 238.75 70.85C238.117 69.8 237.8 68.6083 237.8 67.275C237.8 65.9583 238.108 64.775 238.725 63.725C239.358 62.6583 240.217 61.8333 241.3 61.25C242.4 60.65 243.625 60.35 244.975 60.35C246.292 60.35 247.483 60.6333 248.55 61.2C249.617 61.7667 250.45 62.5833 251.05 63.65C251.667 64.7 251.975 65.925 251.975 67.325ZM245 63.3C244.117 63.3 243.375 63.55 242.775 64.05C242.175 64.55 241.808 65.2333 241.675 66.1H248.3C248.167 65.25 247.8 64.575 247.2 64.075C246.6 63.5583 245.867 63.3 245 63.3ZM262.996 60.35C264.663 60.35 266.005 60.85 267.021 61.85C268.055 62.85 268.571 64.3333 268.571 66.3V74H264.671V66.9C264.671 65.8333 264.438 65.0417 263.971 64.525C263.505 63.9917 262.83 63.725 261.946 63.725C260.963 63.725 260.18 64.0333 259.596 64.65C259.013 65.25 258.721 66.15 258.721 67.35V74H254.821V60.55H258.546V62.125C259.063 61.5583 259.705 61.125 260.471 60.825C261.238 60.5083 262.08 60.35 262.996 60.35ZM286.378 60.55V71.75C286.378 74.2167 285.736 76.05 284.453 77.25C283.17 78.45 281.295 79.05 278.828 79.05C277.528 79.05 276.295 78.8917 275.128 78.575C273.961 78.2583 272.995 77.8 272.228 77.2L273.778 74.4C274.345 74.8667 275.061 75.2333 275.928 75.5C276.795 75.7833 277.661 75.925 278.528 75.925C279.878 75.925 280.87 75.6167 281.503 75C282.153 74.4 282.478 73.4833 282.478 72.25V71.675C281.461 72.7917 280.045 73.35 278.228 73.35C276.995 73.35 275.861 73.0833 274.828 72.55C273.811 72 273.003 71.2333 272.403 70.25C271.803 69.2667 271.503 68.1333 271.503 66.85C271.503 65.5667 271.803 64.4333 272.403 63.45C273.003 62.4667 273.811 61.7083 274.828 61.175C275.861 60.625 276.995 60.35 278.228 60.35C280.178 60.35 281.661 60.9917 282.678 62.275V60.55H286.378ZM279.003 70.15C280.036 70.15 280.878 69.85 281.528 69.25C282.195 68.6333 282.528 67.8333 282.528 66.85C282.528 65.8667 282.195 65.075 281.528 64.475C280.878 63.8583 280.036 63.55 279.003 63.55C277.97 63.55 277.12 63.8583 276.453 64.475C275.786 65.075 275.453 65.8667 275.453 66.85C275.453 67.8333 275.786 68.6333 276.453 69.25C277.12 69.85 277.97 70.15 279.003 70.15ZM290.258 55.45H294.158V74H290.258V55.45ZM298.028 60.55H301.928V74H298.028V60.55ZM299.978 58.675C299.261 58.675 298.678 58.4667 298.228 58.05C297.778 57.6333 297.553 57.1167 297.553 56.5C297.553 55.8833 297.778 55.3667 298.228 54.95C298.678 54.5333 299.261 54.325 299.978 54.325C300.694 54.325 301.278 54.525 301.728 54.925C302.178 55.325 302.403 55.825 302.403 56.425C302.403 57.075 302.178 57.6167 301.728 58.05C301.278 58.4667 300.694 58.675 299.978 58.675ZM310.322 74.2C309.205 74.2 308.114 74.0667 307.047 73.8C305.98 73.5167 305.13 73.1667 304.497 72.75L305.797 69.95C306.397 70.3333 307.122 70.65 307.972 70.9C308.822 71.1333 309.655 71.25 310.472 71.25C312.122 71.25 312.947 70.8417 312.947 70.025C312.947 69.6417 312.722 69.3667 312.272 69.2C311.822 69.0333 311.13 68.8917 310.197 68.775C309.097 68.6083 308.189 68.4167 307.472 68.2C306.755 67.9833 306.13 67.6 305.597 67.05C305.08 66.5 304.822 65.7167 304.822 64.7C304.822 63.85 305.064 63.1 305.547 62.45C306.047 61.7833 306.764 61.2667 307.697 60.9C308.647 60.5333 309.764 60.35 311.047 60.35C311.997 60.35 312.939 60.4583 313.872 60.675C314.822 60.875 315.605 61.1583 316.222 61.525L314.922 64.3C313.739 63.6333 312.447 63.3 311.047 63.3C310.214 63.3 309.589 63.4167 309.172 63.65C308.755 63.8833 308.547 64.1833 308.547 64.55C308.547 64.9667 308.772 65.2583 309.222 65.425C309.672 65.5917 310.389 65.75 311.372 65.9C312.472 66.0833 313.372 66.2833 314.072 66.5C314.772 66.7 315.38 67.075 315.897 67.625C316.414 68.175 316.672 68.9417 316.672 69.925C316.672 70.7583 316.422 71.5 315.922 72.15C315.422 72.8 314.689 73.3083 313.722 73.675C312.772 74.025 311.639 74.2 310.322 74.2ZM327.503 60.35C329.17 60.35 330.512 60.85 331.528 61.85C332.562 62.85 333.078 64.3333 333.078 66.3V74H329.178V66.9C329.178 65.8333 328.945 65.0417 328.478 64.525C328.012 63.9917 327.337 63.725 326.453 63.725C325.47 63.725 324.687 64.0333 324.103 64.65C323.52 65.25 323.228 66.15 323.228 67.35V74H319.328V55.45H323.228V61.95C323.745 61.4333 324.37 61.0417 325.103 60.775C325.837 60.4917 326.637 60.35 327.503 60.35ZM345.038 60.35C346.705 60.35 348.047 60.85 349.063 61.85C350.097 62.85 350.613 64.3333 350.613 66.3V74H346.713V66.9C346.713 65.8333 346.48 65.0417 346.013 64.525C345.547 63.9917 344.872 63.725 343.988 63.725C343.005 63.725 342.222 64.0333 341.638 64.65C341.055 65.25 340.763 66.15 340.763 67.35V74H336.863V60.55H340.588V62.125C341.105 61.5583 341.747 61.125 342.513 60.825C343.28 60.5083 344.122 60.35 345.038 60.35ZM367.72 67.325C367.72 67.375 367.695 67.725 367.645 68.375H357.47C357.653 69.2083 358.087 69.8667 358.77 70.35C359.453 70.8333 360.303 71.075 361.32 71.075C362.02 71.075 362.637 70.975 363.17 70.775C363.72 70.5583 364.228 70.225 364.695 69.775L366.77 72.025C365.503 73.475 363.653 74.2 361.22 74.2C359.703 74.2 358.362 73.9083 357.195 73.325C356.028 72.725 355.128 71.9 354.495 70.85C353.862 69.8 353.545 68.6083 353.545 67.275C353.545 65.9583 353.853 64.775 354.47 63.725C355.103 62.6583 355.962 61.8333 357.045 61.25C358.145 60.65 359.37 60.35 360.72 60.35C362.037 60.35 363.228 60.6333 364.295 61.2C365.362 61.7667 366.195 62.5833 366.795 63.65C367.412 64.7 367.72 65.925 367.72 67.325ZM360.745 63.3C359.862 63.3 359.12 63.55 358.52 64.05C357.92 64.55 357.553 65.2333 357.42 66.1H364.045C363.912 65.25 363.545 64.575 362.945 64.075C362.345 63.5583 361.612 63.3 360.745 63.3ZM374.292 62.325C374.758 61.675 375.383 61.1833 376.167 60.85C376.967 60.5167 377.883 60.35 378.917 60.35V63.95C378.483 63.9167 378.192 63.9 378.042 63.9C376.925 63.9 376.05 64.2167 375.417 64.85C374.783 65.4667 374.467 66.4 374.467 67.65V74H370.567V60.55H374.292V62.325ZM395.063 55.45V74H391.338V72.45C390.372 73.6167 388.972 74.2 387.138 74.2C385.872 74.2 384.722 73.9167 383.688 73.35C382.672 72.7833 381.872 71.975 381.288 70.925C380.705 69.875 380.413 68.6583 380.413 67.275C380.413 65.8917 380.705 64.675 381.288 63.625C381.872 62.575 382.672 61.7667 383.688 61.2C384.722 60.6333 385.872 60.35 387.138 60.35C388.855 60.35 390.197 60.8917 391.163 61.975V55.45H395.063ZM387.813 71C388.797 71 389.613 70.6667 390.263 70C390.913 69.3167 391.238 68.4083 391.238 67.275C391.238 66.1417 390.913 65.2417 390.263 64.575C389.613 63.8917 388.797 63.55 387.813 63.55C386.813 63.55 385.988 63.8917 385.338 64.575C384.688 65.2417 384.363 66.1417 384.363 67.275C384.363 68.4083 384.688 69.3167 385.338 70C385.988 70.6667 386.813 71 387.813 71ZM400.398 74.2C399.715 74.2 399.14 73.9667 398.673 73.5C398.206 73.0333 397.973 72.45 397.973 71.75C397.973 71.0333 398.206 70.4583 398.673 70.025C399.14 69.575 399.715 69.35 400.398 69.35C401.081 69.35 401.656 69.575 402.123 70.025C402.59 70.4583 402.823 71.0333 402.823 71.75C402.823 72.45 402.59 73.0333 402.123 73.5C401.656 73.9667 401.081 74.2 400.398 74.2ZM411.945 74.2C410.528 74.2 409.253 73.9083 408.12 73.325C407.003 72.725 406.128 71.9 405.495 70.85C404.862 69.8 404.545 68.6083 404.545 67.275C404.545 65.9417 404.862 64.75 405.495 63.7C406.128 62.65 407.003 61.8333 408.12 61.25C409.253 60.65 410.528 60.35 411.945 60.35C413.362 60.35 414.628 60.65 415.745 61.25C416.862 61.8333 417.737 62.65 418.37 63.7C419.003 64.75 419.32 65.9417 419.32 67.275C419.32 68.6083 419.003 69.8 418.37 70.85C417.737 71.9 416.862 72.725 415.745 73.325C414.628 73.9083 413.362 74.2 411.945 74.2ZM411.945 71C412.945 71 413.762 70.6667 414.395 70C415.045 69.3167 415.37 68.4083 415.37 67.275C415.37 66.1417 415.045 65.2417 414.395 64.575C413.762 63.8917 412.945 63.55 411.945 63.55C410.945 63.55 410.12 63.8917 409.47 64.575C408.82 65.2417 408.495 66.1417 408.495 67.275C408.495 68.4083 408.82 69.3167 409.47 70C410.12 70.6667 410.945 71 411.945 71ZM425.902 62.325C426.369 61.675 426.994 61.1833 427.777 60.85C428.577 60.5167 429.494 60.35 430.527 60.35V63.95C430.094 63.9167 429.802 63.9 429.652 63.9C428.535 63.9 427.66 64.2167 427.027 64.85C426.394 65.4667 426.077 66.4 426.077 67.65V74H422.177V60.55H425.902V62.325ZM446.849 60.55V71.75C446.849 74.2167 446.207 76.05 444.924 77.25C443.64 78.45 441.765 79.05 439.299 79.05C437.999 79.05 436.765 78.8917 435.599 78.575C434.432 78.2583 433.465 77.8 432.699 77.2L434.249 74.4C434.815 74.8667 435.532 75.2333 436.399 75.5C437.265 75.7833 438.132 75.925 438.999 75.925C440.349 75.925 441.34 75.6167 441.974 75C442.624 74.4 442.949 73.4833 442.949 72.25V71.675C441.932 72.7917 440.515 73.35 438.699 73.35C437.465 73.35 436.332 73.0833 435.299 72.55C434.282 72 433.474 71.2333 432.874 70.25C432.274 69.2667 431.974 68.1333 431.974 66.85C431.974 65.5667 432.274 64.4333 432.874 63.45C433.474 62.4667 434.282 61.7083 435.299 61.175C436.332 60.625 437.465 60.35 438.699 60.35C440.649 60.35 442.132 60.9917 443.149 62.275V60.55H446.849ZM439.474 70.15C440.507 70.15 441.349 69.85 441.999 69.25C442.665 68.6333 442.999 67.8333 442.999 66.85C442.999 65.8667 442.665 65.075 441.999 64.475C441.349 63.8583 440.507 63.55 439.474 63.55C438.44 63.55 437.59 63.8583 436.924 64.475C436.257 65.075 435.924 65.8667 435.924 66.85C435.924 67.8333 436.257 68.6333 436.924 69.25C437.59 69.85 438.44 70.15 439.474 70.15Z" fill="white"/>
</g>
<defs>
<filter id="filter0_d" x="281.761" y="81" width="327.239" height="510" filterUnits="userSpaceOnUse" color-interpolation-filters="sRGB">
<feFlood flood-opacity="0" result="BackgroundImageFix"/>
<feColorMatrix in="SourceAlpha" type="matrix" values="0 0 0 0 0 0 0 0 0 0 0 0 0 0 0 0 0 0 127 0"/>
<feOffset dx="10" dy="-10"/>
<feGaussianBlur stdDeviation="15"/>
<feColorMatrix type="matrix" values="0 0 0 0 0.517647 0 0 0 0 0.517647 0 0 0 0 0.6 0 0 0 0.05 0"/>
<feBlend mode="normal" in2="BackgroundImageFix" result="effect1_dropShadow"/>
<feBlend mode="normal" in="SourceGraphic" in2="effect1_dropShadow" result="shape"/>
</filter>
<linearGradient id="paint0_linear" x1="140.29" y1="-94.999" x2="889.085" y2="407.898" gradientUnits="userSpaceOnUse">
<stop stop-color="white" stop-opacity="0.2"/>
<stop offset="1" stop-color="white" stop-opacity="0"/>
</linearGradient>
<linearGradient id="paint1_linear" x1="-23111.7" y1="9024.13" x2="-23111.7" y2="8349.34" gradientUnits="userSpaceOnUse">
<stop stop-color="#808080" stop-opacity="0.25"/>
<stop offset="0.54" stop-color="#808080" stop-opacity="0.12"/>
<stop offset="1" stop-color="#808080" stop-opacity="0.1"/>
</linearGradient>
<linearGradient id="paint2_linear" x1="-23111.7" y1="9024.13" x2="-23111.7" y2="8349.34" gradientUnits="userSpaceOnUse">
<stop stop-color="#808080" stop-opacity="0.25"/>
<stop offset="0.54" stop-color="#808080" stop-opacity="0.12"/>
<stop offset="1" stop-color="#808080" stop-opacity="0.1"/>
</linearGradient>
<linearGradient id="paint3_linear" x1="-5147.69" y1="4880.96" x2="-5147.69" y2="4690.35" gradientUnits="userSpaceOnUse">
<stop stop-color="#808080" stop-opacity="0.25"/>
<stop offset="0.54" stop-color="#808080" stop-opacity="0.12"/>
<stop offset="1" stop-color="#808080" stop-opacity="0.1"/>
</linearGradient>
<linearGradient id="paint4_linear" x1="-29526.7" y1="29449.1" x2="-29526.7" y2="21743.4" gradientUnits="userSpaceOnUse">
<stop stop-color="#808080" stop-opacity="0.25"/>
<stop offset="0.54" stop-color="#808080" stop-opacity="0.12"/>
<stop offset="1" stop-color="#808080" stop-opacity="0.1"/>
</linearGradient>
<linearGradient id="paint5_linear" x1="-29526.7" y1="29449.1" x2="-29526.7" y2="21743.4" gradientUnits="userSpaceOnUse">
<stop stop-color="#808080" stop-opacity="0.25"/>
<stop offset="0.54" stop-color="#808080" stop-opacity="0.12"/>
<stop offset="1" stop-color="#808080" stop-opacity="0.1"/>
</linearGradient>
<linearGradient id="paint6_linear" x1="-27676.5" y1="15231.3" x2="-27676.5" y2="13958.2" gradientUnits="userSpaceOnUse">
<stop stop-color="#808080" stop-opacity="0.25"/>
<stop offset="0.54" stop-color="#808080" stop-opacity="0.12"/>
<stop offset="1" stop-color="#808080" stop-opacity="0.1"/>
</linearGradient>
<linearGradient id="paint7_linear" x1="-15084.7" y1="33422.3" x2="-15084.7" y2="24327.1" gradientUnits="userSpaceOnUse">
<stop stop-color="#808080" stop-opacity="0.25"/>
<stop offset="0.54" stop-color="#808080" stop-opacity="0.12"/>
<stop offset="1" stop-color="#808080" stop-opacity="0.1"/>
</linearGradient>
<linearGradient id="paint8_linear" x1="-11471.7" y1="7160.73" x2="-11471.7" y2="6088.12" gradientUnits="userSpaceOnUse">
<stop stop-color="#808080" stop-opacity="0.25"/>
<stop offset="0.54" stop-color="#808080" stop-opacity="0.12"/>
<stop offset="1" stop-color="#808080" stop-opacity="0.1"/>
</linearGradient>
<linearGradient id="paint9_linear" x1="-19574.8" y1="12463.6" x2="-19574.8" y2="8083.63" gradientUnits="userSpaceOnUse">
<stop stop-color="#808080" stop-opacity="0.25"/>
<stop offset="0.54" stop-color="#808080" stop-opacity="0.12"/>
<stop offset="1" stop-color="#808080" stop-opacity="0.1"/>
</linearGradient>
<linearGradient id="paint10_linear" x1="-26966.2" y1="15123.6" x2="-26966.2" y2="9599.98" gradientUnits="userSpaceOnUse">
<stop stop-color="#808080" stop-opacity="0.25"/>
<stop offset="0.54" stop-color="#808080" stop-opacity="0.12"/>
<stop offset="1" stop-color="#808080" stop-opacity="0.1"/>
</linearGradient>
<linearGradient id="paint11_linear" x1="-29133.3" y1="82477.5" x2="-29133.3" y2="43132.1" gradientUnits="userSpaceOnUse">
<stop stop-color="#808080" stop-opacity="0.25"/>
<stop offset="0.54" stop-color="#808080" stop-opacity="0.12"/>
<stop offset="1" stop-color="#808080" stop-opacity="0.1"/>
</linearGradient>
<linearGradient id="paint12_linear" x1="-24184.8" y1="9582.21" x2="-24184.8" y2="8932.51" gradientUnits="userSpaceOnUse">
<stop stop-color="#808080" stop-opacity="0.25"/>
<stop offset="0.54" stop-color="#808080" stop-opacity="0.12"/>
<stop offset="1" stop-color="#808080" stop-opacity="0.1"/>
</linearGradient>
<linearGradient id="paint13_linear" x1="-6101.66" y1="4861.27" x2="-6101.66" y2="4694.68" gradientUnits="userSpaceOnUse">
<stop stop-color="#808080" stop-opacity="0.25"/>
<stop offset="0.54" stop-color="#808080" stop-opacity="0.12"/>
<stop offset="1" stop-color="#808080" stop-opacity="0.1"/>
</linearGradient>
<linearGradient id="paint14_linear" x1="-25255.2" y1="35666.7" x2="-25255.2" y2="25522.7" gradientUnits="userSpaceOnUse">
<stop stop-color="#808080" stop-opacity="0.25"/>
<stop offset="0.54" stop-color="#808080" stop-opacity="0.12"/>
<stop offset="1" stop-color="#808080" stop-opacity="0.1"/>
</linearGradient>
<linearGradient id="paint15_linear" x1="-16590.1" y1="3970.33" x2="-16590.1" y2="3859.39" gradientUnits="userSpaceOnUse">
<stop stop-color="#808080" stop-opacity="0.25"/>
<stop offset="0.54" stop-color="#808080" stop-opacity="0.12"/>
<stop offset="1" stop-color="#808080" stop-opacity="0.1"/>
</linearGradient>
<linearGradient id="paint16_linear" x1="568.57" y1="570.541" x2="310.991" y2="541.169" gradientUnits="userSpaceOnUse">
<stop stop-color="white" stop-opacity="0.2"/>
<stop offset="1" stop-color="white" stop-opacity="0"/>
</linearGradient>
<clipPath id="clip0">
<rect width="926" height="695" fill="white" transform="translate(0 926) rotate(-90)"/>
</clipPath>
</defs>
</svg>
