<svg width="1620" height="696" viewBox="0 0 1620 696" fill="none" xmlns="http://www.w3.org/2000/svg">
<g clip-path="url(#clip0)">
<rect width="1620" height="695" transform="translate(0 0.5)" fill="white"/>
<path d="M125.09 285C129.12 285 132.608 285.672 135.555 287.015C138.545 288.358 140.842 290.265 142.445 292.735C144.048 295.205 144.85 298.13 144.85 301.51C144.85 304.847 144.048 307.772 142.445 310.285C140.842 312.755 138.545 314.662 135.555 316.005C132.608 317.305 129.12 317.955 125.09 317.955H115.925V330.5H105.395V285H125.09ZM124.505 309.375C127.668 309.375 130.073 308.703 131.72 307.36C133.367 305.973 134.19 304.023 134.19 301.51C134.19 298.953 133.367 297.003 131.72 295.66C130.073 294.273 127.668 293.58 124.505 293.58H115.925V309.375H124.505ZM152.937 282.27H163.077V330.5H152.937V282.27ZM187.243 295.01C192.66 295.01 196.82 296.31 199.723 298.91C202.627 301.467 204.078 305.345 204.078 310.545V330.5H194.588V326.145C192.682 329.395 189.128 331.02 183.928 331.02C181.242 331.02 178.902 330.565 176.908 329.655C174.958 328.745 173.463 327.488 172.423 325.885C171.383 324.282 170.863 322.462 170.863 320.425C170.863 317.175 172.077 314.618 174.503 312.755C176.973 310.892 180.765 309.96 185.878 309.96H193.938C193.938 307.75 193.267 306.06 191.923 304.89C190.58 303.677 188.565 303.07 185.878 303.07C184.015 303.07 182.173 303.373 180.353 303.98C178.577 304.543 177.06 305.323 175.803 306.32L172.163 299.235C174.07 297.892 176.345 296.852 178.988 296.115C181.675 295.378 184.427 295.01 187.243 295.01ZM186.463 324.195C188.197 324.195 189.735 323.805 191.078 323.025C192.422 322.202 193.375 321.01 193.938 319.45V315.875H186.983C182.823 315.875 180.743 317.24 180.743 319.97C180.743 321.27 181.242 322.31 182.238 323.09C183.278 323.827 184.687 324.195 186.463 324.195ZM247.981 295.53L232.186 332.645C230.582 336.675 228.589 339.513 226.206 341.16C223.866 342.807 221.027 343.63 217.691 343.63C215.871 343.63 214.072 343.348 212.296 342.785C210.519 342.222 209.067 341.442 207.941 340.445L211.646 333.23C212.426 333.923 213.314 334.465 214.311 334.855C215.351 335.245 216.369 335.44 217.366 335.44C218.752 335.44 219.879 335.093 220.746 334.4C221.612 333.75 222.392 332.645 223.086 331.085L223.216 330.76L208.071 295.53H218.536L228.351 319.255L238.231 295.53H247.981ZM285.931 295.01C291.348 295.01 295.508 296.31 298.411 298.91C301.315 301.467 302.766 305.345 302.766 310.545V330.5H293.276V326.145C291.37 329.395 287.816 331.02 282.616 331.02C279.93 331.02 277.59 330.565 275.596 329.655C273.646 328.745 272.151 327.488 271.111 325.885C270.071 324.282 269.551 322.462 269.551 320.425C269.551 317.175 270.765 314.618 273.191 312.755C275.661 310.892 279.453 309.96 284.566 309.96H292.626C292.626 307.75 291.955 306.06 290.611 304.89C289.268 303.677 287.253 303.07 284.566 303.07C282.703 303.07 280.861 303.373 279.041 303.98C277.265 304.543 275.748 305.323 274.491 306.32L270.851 299.235C272.758 297.892 275.033 296.852 277.676 296.115C280.363 295.378 283.115 295.01 285.931 295.01ZM285.151 324.195C286.885 324.195 288.423 323.805 289.766 323.025C291.11 322.202 292.063 321.01 292.626 319.45V315.875H285.671C281.511 315.875 279.431 317.24 279.431 319.97C279.431 321.27 279.93 322.31 280.926 323.09C281.966 323.827 283.375 324.195 285.151 324.195ZM333.849 295.01C338.182 295.01 341.67 296.31 344.314 298.91C347 301.51 348.344 305.367 348.344 310.48V330.5H338.204V312.04C338.204 309.267 337.597 307.208 336.384 305.865C335.17 304.478 333.415 303.785 331.119 303.785C328.562 303.785 326.525 304.587 325.009 306.19C323.492 307.75 322.734 310.09 322.734 313.21V330.5H312.594V295.53H322.279V299.625C323.622 298.152 325.29 297.025 327.284 296.245C329.277 295.422 331.465 295.01 333.849 295.01ZM394.186 282.27V330.5H384.501V326.47C381.988 329.503 378.348 331.02 373.581 331.02C370.288 331.02 367.298 330.283 364.611 328.81C361.968 327.337 359.888 325.235 358.371 322.505C356.854 319.775 356.096 316.612 356.096 313.015C356.096 309.418 356.854 306.255 358.371 303.525C359.888 300.795 361.968 298.693 364.611 297.22C367.298 295.747 370.288 295.01 373.581 295.01C378.044 295.01 381.533 296.418 384.046 299.235V282.27H394.186ZM375.336 322.7C377.893 322.7 380.016 321.833 381.706 320.1C383.396 318.323 384.241 315.962 384.241 313.015C384.241 310.068 383.396 307.728 381.706 305.995C380.016 304.218 377.893 303.33 375.336 303.33C372.736 303.33 370.591 304.218 368.901 305.995C367.211 307.728 366.366 310.068 366.366 313.015C366.366 315.962 367.211 318.323 368.901 320.1C370.591 321.833 372.736 322.7 375.336 322.7ZM435.044 331.02C432.141 331.02 429.302 330.673 426.529 329.98C423.756 329.243 421.546 328.333 419.899 327.25L423.279 319.97C424.839 320.967 426.724 321.79 428.934 322.44C431.144 323.047 433.311 323.35 435.434 323.35C439.724 323.35 441.869 322.288 441.869 320.165C441.869 319.168 441.284 318.453 440.114 318.02C438.944 317.587 437.146 317.218 434.719 316.915C431.859 316.482 429.497 315.983 427.634 315.42C425.771 314.857 424.146 313.86 422.759 312.43C421.416 311 420.744 308.963 420.744 306.32C420.744 304.11 421.372 302.16 422.629 300.47C423.929 298.737 425.792 297.393 428.219 296.44C430.689 295.487 433.592 295.01 436.929 295.01C439.399 295.01 441.847 295.292 444.274 295.855C446.744 296.375 448.781 297.112 450.384 298.065L447.004 305.28C443.927 303.547 440.569 302.68 436.929 302.68C434.762 302.68 433.137 302.983 432.054 303.59C430.971 304.197 430.429 304.977 430.429 305.93C430.429 307.013 431.014 307.772 432.184 308.205C433.354 308.638 435.217 309.05 437.774 309.44C440.634 309.917 442.974 310.437 444.794 311C446.614 311.52 448.196 312.495 449.539 313.925C450.882 315.355 451.554 317.348 451.554 319.905C451.554 322.072 450.904 324 449.604 325.69C448.304 327.38 446.397 328.702 443.884 329.655C441.414 330.565 438.467 331.02 435.044 331.02ZM481.015 328.81C480.019 329.547 478.784 330.11 477.31 330.5C475.88 330.847 474.364 331.02 472.76 331.02C468.6 331.02 465.372 329.958 463.075 327.835C460.822 325.712 459.695 322.592 459.695 318.475V304.11H454.3V296.31H459.695V287.795H469.835V296.31H478.545V304.11H469.835V318.345C469.835 319.818 470.204 320.967 470.94 321.79C471.72 322.57 472.804 322.96 474.19 322.96C475.794 322.96 477.159 322.527 478.285 321.66L481.015 328.81ZM522.587 295.53V330.5H512.967V326.34C511.624 327.857 510.021 329.027 508.157 329.85C506.294 330.63 504.279 331.02 502.112 331.02C497.519 331.02 493.879 329.698 491.192 327.055C488.506 324.412 487.162 320.49 487.162 315.29V295.53H497.302V313.795C497.302 319.428 499.664 322.245 504.387 322.245C506.814 322.245 508.764 321.465 510.237 319.905C511.711 318.302 512.447 315.94 512.447 312.82V295.53H522.587ZM568.251 282.27V330.5H558.566V326.47C556.053 329.503 552.413 331.02 547.646 331.02C544.353 331.02 541.363 330.283 538.676 328.81C536.033 327.337 533.953 325.235 532.436 322.505C530.92 319.775 530.161 316.612 530.161 313.015C530.161 309.418 530.92 306.255 532.436 303.525C533.953 300.795 536.033 298.693 538.676 297.22C541.363 295.747 544.353 295.01 547.646 295.01C552.11 295.01 555.598 296.418 558.111 299.235V282.27H568.251ZM549.401 322.7C551.958 322.7 554.081 321.833 555.771 320.1C557.461 318.323 558.306 315.962 558.306 313.015C558.306 310.068 557.461 307.728 555.771 305.995C554.081 304.218 551.958 303.33 549.401 303.33C546.801 303.33 544.656 304.218 542.966 305.995C541.276 307.728 540.431 310.068 540.431 313.015C540.431 315.962 541.276 318.323 542.966 320.1C544.656 321.833 546.801 322.7 549.401 322.7ZM612.996 295.53L597.201 332.645C595.598 336.675 593.605 339.513 591.221 341.16C588.881 342.807 586.043 343.63 582.706 343.63C580.886 343.63 579.088 343.348 577.311 342.785C575.535 342.222 574.083 341.442 572.956 340.445L576.661 333.23C577.441 333.923 578.33 334.465 579.326 334.855C580.366 335.245 581.385 335.44 582.381 335.44C583.768 335.44 584.895 335.093 585.761 334.4C586.628 333.75 587.408 332.645 588.101 331.085L588.231 330.76L573.086 295.53H583.551L593.366 319.255L603.246 295.53H612.996ZM659.397 328.81C658.4 329.547 657.165 330.11 655.692 330.5C654.262 330.847 652.745 331.02 651.142 331.02C646.982 331.02 643.754 329.958 641.457 327.835C639.204 325.712 638.077 322.592 638.077 318.475V304.11H632.682V296.31H638.077V287.795H648.217V296.31H656.927V304.11H648.217V318.345C648.217 319.818 648.585 320.967 649.322 321.79C650.102 322.57 651.185 322.96 652.572 322.96C654.175 322.96 655.54 322.527 656.667 321.66L659.397 328.81ZM681.3 331.02C677.617 331.02 674.302 330.262 671.355 328.745C668.452 327.185 666.177 325.04 664.53 322.31C662.883 319.58 662.06 316.482 662.06 313.015C662.06 309.548 662.883 306.45 664.53 303.72C666.177 300.99 668.452 298.867 671.355 297.35C674.302 295.79 677.617 295.01 681.3 295.01C684.983 295.01 688.277 295.79 691.18 297.35C694.083 298.867 696.358 300.99 698.005 303.72C699.652 306.45 700.475 309.548 700.475 313.015C700.475 316.482 699.652 319.58 698.005 322.31C696.358 325.04 694.083 327.185 691.18 328.745C688.277 330.262 684.983 331.02 681.3 331.02ZM681.3 322.7C683.9 322.7 686.023 321.833 687.67 320.1C689.36 318.323 690.205 315.962 690.205 313.015C690.205 310.068 689.36 307.728 687.67 305.995C686.023 304.218 683.9 303.33 681.3 303.33C678.7 303.33 676.555 304.218 674.865 305.995C673.175 307.728 672.33 310.068 672.33 313.015C672.33 315.962 673.175 318.323 674.865 320.1C676.555 321.833 678.7 322.7 681.3 322.7ZM104.68 376.53H114.82V411.5H104.68V376.53ZM109.75 371.655C107.887 371.655 106.37 371.113 105.2 370.03C104.03 368.947 103.445 367.603 103.445 366C103.445 364.397 104.03 363.053 105.2 361.97C106.37 360.887 107.887 360.345 109.75 360.345C111.613 360.345 113.13 360.865 114.3 361.905C115.47 362.945 116.055 364.245 116.055 365.805C116.055 367.495 115.47 368.903 114.3 370.03C113.13 371.113 111.613 371.655 109.75 371.655ZM169.666 376.01C174.042 376.01 177.509 377.31 180.066 379.91C182.666 382.467 183.966 386.323 183.966 391.48V411.5H173.826V393.04C173.826 390.267 173.241 388.208 172.071 386.865C170.944 385.478 169.319 384.785 167.196 384.785C164.812 384.785 162.927 385.565 161.541 387.125C160.154 388.642 159.461 390.917 159.461 393.95V411.5H149.321V393.04C149.321 387.537 147.111 384.785 142.691 384.785C140.351 384.785 138.487 385.565 137.101 387.125C135.714 388.642 135.021 390.917 135.021 393.95V411.5H124.881V376.53H134.566V380.56C135.866 379.087 137.447 377.96 139.311 377.18C141.217 376.4 143.297 376.01 145.551 376.01C148.021 376.01 150.252 376.508 152.246 377.505C154.239 378.458 155.842 379.867 157.056 381.73C158.486 379.91 160.284 378.502 162.451 377.505C164.661 376.508 167.066 376.01 169.666 376.01ZM214.375 376.01C217.625 376.01 220.571 376.768 223.215 378.285C225.901 379.758 228.003 381.86 229.52 384.59C231.036 387.277 231.795 390.418 231.795 394.015C231.795 397.612 231.036 400.775 229.52 403.505C228.003 406.192 225.901 408.293 223.215 409.81C220.571 411.283 217.625 412.02 214.375 412.02C209.911 412.02 206.401 410.612 203.845 407.795V424.11H193.705V376.53H203.39V380.56C205.903 377.527 209.565 376.01 214.375 376.01ZM212.62 403.7C215.22 403.7 217.343 402.833 218.99 401.1C220.68 399.323 221.525 396.962 221.525 394.015C221.525 391.068 220.68 388.728 218.99 386.995C217.343 385.218 215.22 384.33 212.62 384.33C210.02 384.33 207.875 385.218 206.185 386.995C204.538 388.728 203.715 391.068 203.715 394.015C203.715 396.962 204.538 399.323 206.185 401.1C207.875 402.833 210.02 403.7 212.62 403.7ZM248.918 381.145C250.131 379.455 251.756 378.177 253.793 377.31C255.873 376.443 258.256 376.01 260.943 376.01V385.37C259.816 385.283 259.058 385.24 258.668 385.24C255.764 385.24 253.489 386.063 251.843 387.71C250.196 389.313 249.373 391.74 249.373 394.99V411.5H239.233V376.53H248.918V381.145ZM283.944 412.02C280.261 412.02 276.946 411.262 273.999 409.745C271.096 408.185 268.821 406.04 267.174 403.31C265.528 400.58 264.704 397.482 264.704 394.015C264.704 390.548 265.528 387.45 267.174 384.72C268.821 381.99 271.096 379.867 273.999 378.35C276.946 376.79 280.261 376.01 283.944 376.01C287.628 376.01 290.921 376.79 293.824 378.35C296.728 379.867 299.003 381.99 300.649 384.72C302.296 387.45 303.119 390.548 303.119 394.015C303.119 397.482 302.296 400.58 300.649 403.31C299.003 406.04 296.728 408.185 293.824 409.745C290.921 411.262 287.628 412.02 283.944 412.02ZM283.944 403.7C286.544 403.7 288.668 402.833 290.314 401.1C292.004 399.323 292.849 396.962 292.849 394.015C292.849 391.068 292.004 388.728 290.314 386.995C288.668 385.218 286.544 384.33 283.944 384.33C281.344 384.33 279.199 385.218 277.509 386.995C275.819 388.728 274.974 391.068 274.974 394.015C274.974 396.962 275.819 399.323 277.509 401.1C279.199 402.833 281.344 403.7 283.944 403.7ZM344.305 376.53L329.55 411.5H319.085L304.395 376.53H314.86L324.545 400.32L334.555 376.53H344.305ZM382.396 394.145C382.396 394.275 382.331 395.185 382.201 396.875H355.746C356.222 399.042 357.349 400.753 359.126 402.01C360.902 403.267 363.112 403.895 365.756 403.895C367.576 403.895 369.179 403.635 370.566 403.115C371.996 402.552 373.317 401.685 374.531 400.515L379.926 406.365C376.632 410.135 371.822 412.02 365.496 412.02C361.552 412.02 358.064 411.262 355.031 409.745C351.997 408.185 349.657 406.04 348.011 403.31C346.364 400.58 345.541 397.482 345.541 394.015C345.541 390.592 346.342 387.515 347.946 384.785C349.592 382.012 351.824 379.867 354.641 378.35C357.501 376.79 360.686 376.01 364.196 376.01C367.619 376.01 370.717 376.747 373.491 378.22C376.264 379.693 378.431 381.817 379.991 384.59C381.594 387.32 382.396 390.505 382.396 394.145ZM364.261 383.68C361.964 383.68 360.036 384.33 358.476 385.63C356.916 386.93 355.962 388.707 355.616 390.96H372.841C372.494 388.75 371.541 386.995 369.981 385.695C368.421 384.352 366.514 383.68 364.261 383.68ZM443.565 376.53L427.77 413.645C426.166 417.675 424.173 420.513 421.79 422.16C419.45 423.807 416.611 424.63 413.275 424.63C411.455 424.63 409.656 424.348 407.88 423.785C406.103 423.222 404.651 422.442 403.525 421.445L407.23 414.23C408.01 414.923 408.898 415.465 409.895 415.855C410.935 416.245 411.953 416.44 412.95 416.44C414.336 416.44 415.463 416.093 416.33 415.4C417.196 414.75 417.976 413.645 418.67 412.085L418.8 411.76L403.655 376.53H414.12L423.935 400.255L433.815 376.53H443.565ZM464.04 412.02C460.357 412.02 457.042 411.262 454.095 409.745C451.192 408.185 448.917 406.04 447.27 403.31C445.623 400.58 444.8 397.482 444.8 394.015C444.8 390.548 445.623 387.45 447.27 384.72C448.917 381.99 451.192 379.867 454.095 378.35C457.042 376.79 460.357 376.01 464.04 376.01C467.723 376.01 471.017 376.79 473.92 378.35C476.823 379.867 479.098 381.99 480.745 384.72C482.392 387.45 483.215 390.548 483.215 394.015C483.215 397.482 482.392 400.58 480.745 403.31C479.098 406.04 476.823 408.185 473.92 409.745C471.017 411.262 467.723 412.02 464.04 412.02ZM464.04 403.7C466.64 403.7 468.763 402.833 470.41 401.1C472.1 399.323 472.945 396.962 472.945 394.015C472.945 391.068 472.1 388.728 470.41 386.995C468.763 385.218 466.64 384.33 464.04 384.33C461.44 384.33 459.295 385.218 457.605 386.995C455.915 388.728 455.07 391.068 455.07 394.015C455.07 396.962 455.915 399.323 457.605 401.1C459.295 402.833 461.44 403.7 464.04 403.7ZM525.873 376.53V411.5H516.253V407.34C514.91 408.857 513.306 410.027 511.443 410.85C509.58 411.63 507.565 412.02 505.398 412.02C500.805 412.02 497.165 410.698 494.478 408.055C491.791 405.412 490.448 401.49 490.448 396.29V376.53H500.588V394.795C500.588 400.428 502.95 403.245 507.673 403.245C510.1 403.245 512.05 402.465 513.523 400.905C514.996 399.302 515.733 396.94 515.733 393.82V376.53H525.873ZM545.602 381.145C546.815 379.455 548.44 378.177 550.477 377.31C552.557 376.443 554.94 376.01 557.627 376.01V385.37C556.5 385.283 555.742 385.24 555.352 385.24C552.449 385.24 550.174 386.063 548.527 387.71C546.88 389.313 546.057 391.74 546.057 394.99V411.5H535.917V376.53H545.602V381.145ZM595.383 412.02C592.48 412.02 589.642 411.673 586.868 410.98C584.095 410.243 581.885 409.333 580.238 408.25L583.618 400.97C585.178 401.967 587.063 402.79 589.273 403.44C591.483 404.047 593.65 404.35 595.773 404.35C600.063 404.35 602.208 403.288 602.208 401.165C602.208 400.168 601.623 399.453 600.453 399.02C599.283 398.587 597.485 398.218 595.058 397.915C592.198 397.482 589.837 396.983 587.973 396.42C586.11 395.857 584.485 394.86 583.098 393.43C581.755 392 581.083 389.963 581.083 387.32C581.083 385.11 581.712 383.16 582.968 381.47C584.268 379.737 586.132 378.393 588.558 377.44C591.028 376.487 593.932 376.01 597.268 376.01C599.738 376.01 602.187 376.292 604.613 376.855C607.083 377.375 609.12 378.112 610.723 379.065L607.343 386.28C604.267 384.547 600.908 383.68 597.268 383.68C595.102 383.68 593.477 383.983 592.393 384.59C591.31 385.197 590.768 385.977 590.768 386.93C590.768 388.013 591.353 388.772 592.523 389.205C593.693 389.638 595.557 390.05 598.113 390.44C600.973 390.917 603.313 391.437 605.133 392C606.953 392.52 608.535 393.495 609.878 394.925C611.222 396.355 611.893 398.348 611.893 400.905C611.893 403.072 611.243 405 609.943 406.69C608.643 408.38 606.737 409.702 604.223 410.655C601.753 411.565 598.807 412.02 595.383 412.02ZM633.815 397.785L628.94 402.595V411.5H618.8V363.27H628.94V390.57L643.76 376.53H655.85L641.29 391.35L657.15 411.5H644.865L633.815 397.785ZM662.106 376.53H672.246V411.5H662.106V376.53ZM667.176 371.655C665.312 371.655 663.796 371.113 662.626 370.03C661.456 368.947 660.871 367.603 660.871 366C660.871 364.397 661.456 363.053 662.626 361.97C663.796 360.887 665.312 360.345 667.176 360.345C669.039 360.345 670.556 360.865 671.726 361.905C672.896 362.945 673.481 364.245 673.481 365.805C673.481 367.495 672.896 368.903 671.726 370.03C670.556 371.113 669.039 371.655 667.176 371.655ZM682.307 363.27H692.447V411.5H682.307V363.27ZM702.507 363.27H712.647V411.5H702.507V363.27ZM734.473 412.02C731.57 412.02 728.731 411.673 725.958 410.98C723.185 410.243 720.975 409.333 719.328 408.25L722.708 400.97C724.268 401.967 726.153 402.79 728.363 403.44C730.573 404.047 732.74 404.35 734.863 404.35C739.153 404.35 741.298 403.288 741.298 401.165C741.298 400.168 740.713 399.453 739.543 399.02C738.373 398.587 736.575 398.218 734.148 397.915C731.288 397.482 728.926 396.983 727.063 396.42C725.2 395.857 723.575 394.86 722.188 393.43C720.845 392 720.173 389.963 720.173 387.32C720.173 385.11 720.801 383.16 722.058 381.47C723.358 379.737 725.221 378.393 727.648 377.44C730.118 376.487 733.021 376.01 736.358 376.01C738.828 376.01 741.276 376.292 743.703 376.855C746.173 377.375 748.21 378.112 749.813 379.065L746.433 386.28C743.356 384.547 739.998 383.68 736.358 383.68C734.191 383.68 732.566 383.983 731.483 384.59C730.4 385.197 729.858 385.977 729.858 386.93C729.858 388.013 730.443 388.772 731.613 389.205C732.783 389.638 734.646 390.05 737.203 390.44C740.063 390.917 742.403 391.437 744.223 392C746.043 392.52 747.625 393.495 748.968 394.925C750.311 396.355 750.983 398.348 750.983 400.905C750.983 403.072 750.333 405 749.033 406.69C747.733 408.38 745.826 409.702 743.313 410.655C740.843 411.565 737.896 412.02 734.473 412.02Z" fill="#2F2E44"/>
<path d="M117.97 96.49C117.97 96.55 117.94 96.97 117.88 97.75H105.67C105.89 98.75 106.41 99.54 107.23 100.12C108.05 100.7 109.07 100.99 110.29 100.99C111.13 100.99 111.87 100.87 112.51 100.63C113.17 100.37 113.78 99.97 114.34 99.43L116.83 102.13C115.31 103.87 113.09 104.74 110.17 104.74C108.35 104.74 106.74 104.39 105.34 103.69C103.94 102.97 102.86 101.98 102.1 100.72C101.34 99.46 100.96 98.03 100.96 96.43C100.96 94.85 101.33 93.43 102.07 92.17C102.83 90.89 103.86 89.9 105.16 89.2C106.48 88.48 107.95 88.12 109.57 88.12C111.15 88.12 112.58 88.46 113.86 89.14C115.14 89.82 116.14 90.8 116.86 92.08C117.6 93.34 117.97 94.81 117.97 96.49ZM109.6 91.66C108.54 91.66 107.65 91.96 106.93 92.56C106.21 93.16 105.77 93.98 105.61 95.02H113.56C113.4 94 112.96 93.19 112.24 92.59C111.52 91.97 110.64 91.66 109.6 91.66ZM131.196 88.12C133.196 88.12 134.806 88.72 136.026 89.92C137.266 91.12 137.886 92.9 137.886 95.26V104.5H133.206V95.98C133.206 94.7 132.926 93.75 132.366 93.13C131.806 92.49 130.996 92.17 129.936 92.17C128.756 92.17 127.816 92.54 127.116 93.28C126.416 94 126.066 95.08 126.066 96.52V104.5H121.386V88.36H125.856V90.25C126.476 89.57 127.246 89.05 128.166 88.69C129.086 88.31 130.096 88.12 131.196 88.12ZM159.254 88.36V101.8C159.254 104.76 158.484 106.96 156.944 108.4C155.404 109.84 153.154 110.56 150.194 110.56C148.634 110.56 147.154 110.37 145.754 109.99C144.354 109.61 143.194 109.06 142.274 108.34L144.134 104.98C144.814 105.54 145.674 105.98 146.714 106.3C147.754 106.64 148.794 106.81 149.834 106.81C151.454 106.81 152.644 106.44 153.404 105.7C154.184 104.98 154.574 103.88 154.574 102.4V101.71C153.354 103.05 151.654 103.72 149.474 103.72C147.994 103.72 146.634 103.4 145.394 102.76C144.174 102.1 143.204 101.18 142.484 100C141.764 98.82 141.404 97.46 141.404 95.92C141.404 94.38 141.764 93.02 142.484 91.84C143.204 90.66 144.174 89.75 145.394 89.11C146.634 88.45 147.994 88.12 149.474 88.12C151.814 88.12 153.594 88.89 154.814 90.43V88.36H159.254ZM150.404 99.88C151.644 99.88 152.654 99.52 153.434 98.8C154.234 98.06 154.634 97.1 154.634 95.92C154.634 94.74 154.234 93.79 153.434 93.07C152.654 92.33 151.644 91.96 150.404 91.96C149.164 91.96 148.144 92.33 147.344 93.07C146.544 93.79 146.144 94.74 146.144 95.92C146.144 97.1 146.544 98.06 147.344 98.8C148.144 99.52 149.164 99.88 150.404 99.88ZM163.91 82.24H168.59V104.5H163.91V82.24ZM173.233 88.36H177.913V104.5H173.233V88.36ZM175.573 86.11C174.713 86.11 174.013 85.86 173.473 85.36C172.933 84.86 172.663 84.24 172.663 83.5C172.663 82.76 172.933 82.14 173.473 81.64C174.013 81.14 174.713 80.89 175.573 80.89C176.433 80.89 177.133 81.13 177.673 81.61C178.213 82.09 178.483 82.69 178.483 83.41C178.483 84.19 178.213 84.84 177.673 85.36C177.133 85.86 176.433 86.11 175.573 86.11ZM187.986 104.74C186.646 104.74 185.336 104.58 184.056 104.26C182.776 103.92 181.756 103.5 180.996 103L182.556 99.64C183.276 100.1 184.146 100.48 185.166 100.78C186.186 101.06 187.186 101.2 188.166 101.2C190.146 101.2 191.136 100.71 191.136 99.73C191.136 99.27 190.866 98.94 190.326 98.74C189.786 98.54 188.956 98.37 187.836 98.23C186.516 98.03 185.426 97.8 184.566 97.54C183.706 97.28 182.956 96.82 182.316 96.16C181.696 95.5 181.386 94.56 181.386 93.34C181.386 92.32 181.676 91.42 182.256 90.64C182.856 89.84 183.716 89.22 184.836 88.78C185.976 88.34 187.316 88.12 188.856 88.12C189.996 88.12 191.126 88.25 192.246 88.51C193.386 88.75 194.326 89.09 195.066 89.53L193.506 92.86C192.086 92.06 190.536 91.66 188.856 91.66C187.856 91.66 187.106 91.8 186.606 92.08C186.106 92.36 185.856 92.72 185.856 93.16C185.856 93.66 186.126 94.01 186.666 94.21C187.206 94.41 188.066 94.6 189.246 94.78C190.566 95 191.646 95.24 192.486 95.5C193.326 95.74 194.056 96.19 194.676 96.85C195.296 97.51 195.606 98.43 195.606 99.61C195.606 100.61 195.306 101.5 194.706 102.28C194.106 103.06 193.226 103.67 192.066 104.11C190.926 104.53 189.566 104.74 187.986 104.74ZM208.604 88.12C210.604 88.12 212.214 88.72 213.434 89.92C214.674 91.12 215.294 92.9 215.294 95.26V104.5H210.614V95.98C210.614 94.7 210.334 93.75 209.774 93.13C209.214 92.49 208.404 92.17 207.344 92.17C206.164 92.17 205.224 92.54 204.524 93.28C203.824 94 203.474 95.08 203.474 96.52V104.5H198.794V82.24H203.474V90.04C204.094 89.42 204.844 88.95 205.724 88.63C206.604 88.29 207.564 88.12 208.604 88.12ZM229.646 88.12C231.646 88.12 233.256 88.72 234.476 89.92C235.716 91.12 236.336 92.9 236.336 95.26V104.5H231.656V95.98C231.656 94.7 231.376 93.75 230.816 93.13C230.256 92.49 229.446 92.17 228.386 92.17C227.206 92.17 226.266 92.54 225.566 93.28C224.866 94 224.516 95.08 224.516 96.52V104.5H219.836V88.36H224.306V90.25C224.926 89.57 225.696 89.05 226.616 88.69C227.536 88.31 228.546 88.12 229.646 88.12ZM256.864 96.49C256.864 96.55 256.834 96.97 256.774 97.75H244.564C244.784 98.75 245.304 99.54 246.124 100.12C246.944 100.7 247.964 100.99 249.184 100.99C250.024 100.99 250.764 100.87 251.404 100.63C252.064 100.37 252.674 99.97 253.234 99.43L255.724 102.13C254.204 103.87 251.984 104.74 249.064 104.74C247.244 104.74 245.634 104.39 244.234 103.69C242.834 102.97 241.754 101.98 240.994 100.72C240.234 99.46 239.854 98.03 239.854 96.43C239.854 94.85 240.224 93.43 240.964 92.17C241.724 90.89 242.754 89.9 244.054 89.2C245.374 88.48 246.844 88.12 248.464 88.12C250.044 88.12 251.474 88.46 252.754 89.14C254.034 89.82 255.034 90.8 255.754 92.08C256.494 93.34 256.864 94.81 256.864 96.49ZM248.494 91.66C247.434 91.66 246.544 91.96 245.824 92.56C245.104 93.16 244.664 93.98 244.504 95.02H252.454C252.294 94 251.854 93.19 251.134 92.59C250.414 91.97 249.534 91.66 248.494 91.66ZM264.75 90.49C265.31 89.71 266.06 89.12 267 88.72C267.96 88.32 269.06 88.12 270.3 88.12V92.44C269.78 92.4 269.43 92.38 269.25 92.38C267.91 92.38 266.86 92.76 266.1 93.52C265.34 94.26 264.96 95.38 264.96 96.88V104.5H260.28V88.36H264.75V90.49ZM289.676 82.24V104.5H285.206V102.64C284.046 104.04 282.366 104.74 280.166 104.74C278.646 104.74 277.266 104.4 276.026 103.72C274.806 103.04 273.846 102.07 273.146 100.81C272.446 99.55 272.096 98.09 272.096 96.43C272.096 94.77 272.446 93.31 273.146 92.05C273.846 90.79 274.806 89.82 276.026 89.14C277.266 88.46 278.646 88.12 280.166 88.12C282.226 88.12 283.836 88.77 284.996 90.07V82.24H289.676ZM280.976 100.9C282.156 100.9 283.136 100.5 283.916 99.7C284.696 98.88 285.086 97.79 285.086 96.43C285.086 95.07 284.696 93.99 283.916 93.19C283.136 92.37 282.156 91.96 280.976 91.96C279.776 91.96 278.786 92.37 278.006 93.19C277.226 93.99 276.836 95.07 276.836 96.43C276.836 97.79 277.226 98.88 278.006 99.7C278.786 100.5 279.776 100.9 280.976 100.9ZM296.078 104.74C295.258 104.74 294.568 104.46 294.008 103.9C293.448 103.34 293.168 102.64 293.168 101.8C293.168 100.94 293.448 100.25 294.008 99.73C294.568 99.19 295.258 98.92 296.078 98.92C296.898 98.92 297.588 99.19 298.148 99.73C298.708 100.25 298.988 100.94 298.988 101.8C298.988 102.64 298.708 103.34 298.148 103.9C297.588 104.46 296.898 104.74 296.078 104.74ZM309.934 104.74C308.234 104.74 306.704 104.39 305.344 103.69C304.004 102.97 302.954 101.98 302.194 100.72C301.434 99.46 301.054 98.03 301.054 96.43C301.054 94.83 301.434 93.4 302.194 92.14C302.954 90.88 304.004 89.9 305.344 89.2C306.704 88.48 308.234 88.12 309.934 88.12C311.634 88.12 313.154 88.48 314.494 89.2C315.834 89.9 316.884 90.88 317.644 92.14C318.404 93.4 318.784 94.83 318.784 96.43C318.784 98.03 318.404 99.46 317.644 100.72C316.884 101.98 315.834 102.97 314.494 103.69C313.154 104.39 311.634 104.74 309.934 104.74ZM309.934 100.9C311.134 100.9 312.114 100.5 312.874 99.7C313.654 98.88 314.044 97.79 314.044 96.43C314.044 95.07 313.654 93.99 312.874 93.19C312.114 92.37 311.134 91.96 309.934 91.96C308.734 91.96 307.744 92.37 306.964 93.19C306.184 93.99 305.794 95.07 305.794 96.43C305.794 97.79 306.184 98.88 306.964 99.7C307.744 100.5 308.734 100.9 309.934 100.9ZM326.682 90.49C327.242 89.71 327.992 89.12 328.932 88.72C329.892 88.32 330.992 88.12 332.232 88.12V92.44C331.712 92.4 331.362 92.38 331.182 92.38C329.842 92.38 328.792 92.76 328.032 93.52C327.272 94.26 326.892 95.38 326.892 96.88V104.5H322.212V88.36H326.682V90.49ZM351.819 88.36V101.8C351.819 104.76 351.049 106.96 349.509 108.4C347.969 109.84 345.719 110.56 342.759 110.56C341.199 110.56 339.719 110.37 338.319 109.99C336.919 109.61 335.759 109.06 334.839 108.34L336.699 104.98C337.379 105.54 338.239 105.98 339.279 106.3C340.319 106.64 341.359 106.81 342.399 106.81C344.019 106.81 345.209 106.44 345.969 105.7C346.749 104.98 347.139 103.88 347.139 102.4V101.71C345.919 103.05 344.219 103.72 342.039 103.72C340.559 103.72 339.199 103.4 337.959 102.76C336.739 102.1 335.769 101.18 335.049 100C334.329 98.82 333.969 97.46 333.969 95.92C333.969 94.38 334.329 93.02 335.049 91.84C335.769 90.66 336.739 89.75 337.959 89.11C339.199 88.45 340.559 88.12 342.039 88.12C344.379 88.12 346.159 88.89 347.379 90.43V88.36H351.819ZM342.969 99.88C344.209 99.88 345.219 99.52 345.999 98.8C346.799 98.06 347.199 97.1 347.199 95.92C347.199 94.74 346.799 93.79 345.999 93.07C345.219 92.33 344.209 91.96 342.969 91.96C341.729 91.96 340.709 92.33 339.909 93.07C339.109 93.79 338.709 94.74 338.709 95.92C338.709 97.1 339.109 98.06 339.909 98.8C340.709 99.52 341.729 99.88 342.969 99.88Z" fill="#848499"/>
<circle cx="1355" cy="264.5" r="375" transform="rotate(-45 1355 264.5)" fill="#FABA4F"/>
<path d="M1355 264.5L1620.17 529.665C1766.61 383.218 1766.61 145.782 1620.17 -0.665038L1355 264.5Z" fill="#F9A922"/>
<path d="M1355 264.5L1620.16 -0.665126C1473.72 -147.112 1236.28 -147.112 1089.83 -0.665039L1355 264.5Z" fill="#F9B33C"/>
<path d="M1355 264.5L1089.83 -0.664995C943.388 145.782 943.388 383.218 1089.83 529.665L1355 264.5Z" fill="#F9BC55"/>
<path d="M1355 264.5L1089.83 529.665C1236.28 676.112 1473.72 676.112 1620.16 529.665L1355 264.5Z" fill="#F9C56E"/>
<circle cx="1355" cy="264.5" r="375" transform="rotate(-45 1355 264.5)" fill="url(#paint0_linear)"/>
<g clip-path="url(#clip1)" filter="url(#filter0_d)">
<path d="M1446.46 441.076L1310.15 475.493L1330.39 452.548L1341.86 438.376L1461.31 414.757L1466.71 419.481L1446.46 441.076Z" fill="#535461"/>
<path d="M1466.71 419.48L1332.42 450.523L1331.74 418.131L1370.21 403.284L1447.14 390.462H1469.41L1466.71 419.48Z" fill="#D6D6E3"/>
<path d="M1369.53 235.922L1232.54 244.695V219.051L1241.99 161.689L1246.71 157.64L1383.7 161.689L1369.53 235.922Z" fill="#D6D6E3"/>
<path d="M1401.92 107.026H1408.67L1410.02 156.29L1387.75 164.388L1374.26 235.247L1435.67 360.769L1472.78 389.787V417.456L1450.51 439.726L1449.16 541.628L1442.42 542.977L1443.77 441.75L1466.04 418.131L1466.71 389.787L1430.94 361.444L1368.18 235.922L1381.68 164.388L1403.95 154.94L1401.92 107.026Z" fill="#D6D6E3"/>
<path d="M1407.32 107.026H1414.07L1415.42 156.29L1393.15 164.388L1379.65 235.247L1441.07 360.769L1478.18 389.787V417.456L1455.91 439.726L1454.56 541.628L1447.81 542.977L1449.16 441.75L1471.43 418.131L1472.11 389.787L1434.99 361.444L1373.58 235.922L1387.08 164.388L1409.35 154.94L1407.32 107.026Z" fill="#535461"/>
<path d="M1407.66 151.228L1404.29 155.952L1385.39 164.725L1235.58 160.676L1250.08 156.29L1265.61 149.541L1263.58 144.143L1407.66 151.228Z" fill="#A8A8A8"/>
<path d="M1432.97 363.468L1295.97 385.738L1268.31 327.026L1230.51 242.67L1369.53 235.922L1432.97 363.468Z" fill="#6C63FF"/>
<g opacity="0.1">
<path opacity="0.1" d="M1362.11 260.217L1269.65 267.64L1317.57 362.119L1407.32 348.622L1362.11 260.217Z" fill="white"/>
</g>
<g opacity="0.1">
<path opacity="0.1" d="M1355.73 267.08L1351.65 267.411L1353.76 271.575L1357.72 270.981L1355.73 267.08Z" fill="white"/>
</g>
<g opacity="0.1">
<path opacity="0.1" d="M1355.06 306.221L1350.97 306.551L1353.09 310.715L1357.05 310.121L1355.06 306.221Z" fill="white"/>
</g>
<g opacity="0.1">
<path opacity="0.1" d="M1332.79 271.804L1328.7 272.134L1330.82 276.298L1334.78 275.704L1332.79 271.804Z" fill="white"/>
</g>
<g opacity="0.1">
<path opacity="0.1" d="M1290.27 273.828L1286.19 274.159L1288.3 278.323L1292.26 277.729L1290.27 273.828Z" fill="white"/>
</g>
<g opacity="0.1">
<path opacity="0.1" d="M1347.63 279.227L1343.55 279.557L1345.66 283.721L1349.62 283.127L1347.63 279.227Z" fill="white"/>
</g>
<g opacity="0.1">
<path opacity="0.1" d="M1332.79 320.393L1328.7 320.723L1330.82 324.887L1334.78 324.293L1332.79 320.393Z" fill="white"/>
</g>
<g opacity="0.1">
<path opacity="0.1" d="M1369.23 296.773L1365.15 297.104L1367.26 301.268L1371.22 300.674L1369.23 296.773Z" fill="white"/>
</g>
<g opacity="0.1">
<path opacity="0.1" d="M1307.14 271.804L1303.06 272.134L1305.17 276.298L1309.13 275.704L1307.14 271.804Z" fill="white"/>
</g>
<g opacity="0.1">
<path opacity="0.1" d="M1339.54 294.748L1335.45 295.079L1337.56 299.243L1341.53 298.649L1339.54 294.748Z" fill="white"/>
</g>
<g opacity="0.1">
<path opacity="0.1" d="M1344.26 269.104L1340.18 269.435L1342.29 273.599L1346.25 273.005L1344.26 269.104Z" fill="white"/>
</g>
<g opacity="0.1">
<path opacity="0.1" d="M1323.34 292.724L1319.26 293.054L1321.37 297.218L1325.33 296.624L1323.34 292.724Z" fill="white"/>
</g>
<g opacity="0.1">
<path opacity="0.1" d="M1318.61 271.804L1314.53 272.134L1316.64 276.298L1320.61 275.704L1318.61 271.804Z" fill="white"/>
</g>
<g opacity="0.1">
<path opacity="0.1" d="M1361.13 281.252L1357.05 281.583L1359.16 285.746L1363.12 285.153L1361.13 281.252Z" fill="white"/>
</g>
<path d="M1469.41 390.462L1335.79 417.456L1298.98 385.252L1432.63 362.456L1469.41 390.462Z" fill="#D6D6E3"/>
<path d="M1444.44 437.701V542.977L1312.17 588.867L1310.15 479.542L1315.54 469.372L1339.84 463.345L1444.44 437.701Z" fill="#535461"/>
<path d="M1427.23 375.616C1424.06 375.616 1421.5 374.105 1421.5 372.241C1421.5 370.378 1424.06 368.867 1427.23 368.867C1430.4 368.867 1432.97 370.378 1432.97 372.241C1432.97 374.105 1430.4 375.616 1427.23 375.616Z" fill="#575988"/>
<path d="M1422.51 383.039C1419.34 383.039 1416.77 381.528 1416.77 379.664C1416.77 377.801 1419.34 376.29 1422.51 376.29C1425.68 376.29 1428.24 377.801 1428.24 379.664C1428.24 381.528 1425.68 383.039 1422.51 383.039Z" fill="#FA595F"/>
<path d="M1438.7 381.014C1435.54 381.014 1432.97 379.503 1432.97 377.64C1432.97 375.776 1435.54 374.266 1438.7 374.266C1441.87 374.266 1444.44 375.776 1444.44 377.64C1444.44 379.503 1441.87 381.014 1438.7 381.014Z" fill="#FFD037"/>
<path d="M1365.82 387.762C1362.65 387.762 1360.08 386.251 1360.08 384.388C1360.08 382.524 1362.65 381.014 1365.82 381.014C1368.99 381.014 1371.56 382.524 1371.56 384.388C1371.56 386.251 1368.99 387.762 1365.82 387.762Z" fill="#575988"/>
<path d="M1377.29 393.836C1374.12 393.836 1371.56 392.326 1371.56 390.462C1371.56 388.599 1374.12 387.088 1377.29 387.088C1380.46 387.088 1383.03 388.599 1383.03 390.462C1383.03 392.326 1380.46 393.836 1377.29 393.836Z" fill="#FFD037"/>
<path d="M1398.89 384.388C1394.23 384.388 1390.45 382.575 1390.45 380.339C1390.45 378.103 1394.23 376.29 1398.89 376.29C1403.55 376.29 1407.32 378.103 1407.32 380.339C1407.32 382.575 1403.55 384.388 1398.89 384.388Z" fill="#A8A8A8"/>
<path d="M1359.75 395.186C1356.58 395.186 1354.01 393.675 1354.01 391.812C1354.01 389.948 1356.58 388.438 1359.75 388.438C1362.91 388.438 1365.48 389.948 1365.48 391.812C1365.48 393.675 1362.91 395.186 1359.75 395.186Z" fill="#FA595F"/>
<path d="M1396.53 379.671H1400.57L1404.06 366.228C1404.2 365.662 1404.22 365.071 1404.1 364.499C1403.98 363.927 1403.74 363.389 1403.38 362.927C1403.02 362.465 1402.56 362.091 1402.04 361.834C1401.51 361.577 1400.94 361.443 1400.35 361.443C1399.34 361.443 1398.36 361.846 1397.65 362.564C1396.93 363.282 1396.53 364.255 1396.53 365.27V379.671Z" fill="#A8A8A8"/>
<path d="M1338.15 395.186C1333.49 395.186 1329.72 393.373 1329.72 391.137C1329.72 388.901 1333.49 387.088 1338.15 387.088C1342.81 387.088 1346.59 388.901 1346.59 391.137C1346.59 393.373 1342.81 395.186 1338.15 395.186Z" fill="#A8A8A8"/>
<path d="M1335.79 390.469H1339.84L1343.32 377.026C1343.47 376.46 1343.48 375.869 1343.36 375.297C1343.25 374.724 1343 374.187 1342.64 373.725C1342.28 373.263 1341.83 372.889 1341.3 372.632C1340.78 372.375 1340.2 372.241 1339.62 372.241C1338.6 372.241 1337.63 372.644 1336.91 373.362C1336.19 374.08 1335.79 375.053 1335.79 376.068V390.469Z" fill="#A8A8A8"/>
<path d="M1402.6 107.026L1263.58 95.5537L1266.96 146.167L1405.97 152.916L1402.6 107.026Z" fill="#535461"/>
<path d="M1264.26 95.5537L1200.15 100.278L1208.92 529.48L1307.11 592.578L1313.86 587.854L1314.19 475.492L1335.79 451.198V417.456L1298 384.388L1233.89 241.995L1243 160.676H1238.27L1268.31 150.216L1264.26 95.5537Z" fill="#D6D6E3"/>
<path d="M1258.18 96.2285L1193.4 100.278L1202.17 529.48L1307.45 592.241V475.492L1329.04 451.198V417.456L1291.25 384.388L1227.14 241.995L1238.61 160.339L1261.56 150.216L1258.18 96.2285Z" fill="#535461"/>
<path d="M1372.16 356.247C1381.6 375.818 1404.86 370.743 1404.86 370.743C1406.06 369.63 1413.58 367.767 1419.28 366.478C1422.94 365.648 1425.85 365.068 1425.85 365.068L1417.86 353.939L1411.88 355.168L1402.95 357.003C1402.95 357.003 1362.68 336.684 1372.16 356.247Z" fill="url(#paint1_linear)"/>
<g opacity="0.08">
<path opacity="0.08" d="M1372.16 356.247C1381.6 375.818 1404.86 370.743 1404.86 370.743C1406.06 369.63 1413.58 367.767 1419.28 366.478C1422.94 365.648 1425.85 365.068 1425.85 365.068L1417.86 353.939L1411.88 355.168L1402.95 357.003C1402.95 357.003 1362.68 336.684 1372.16 356.247Z" fill="url(#paint2_linear)"/>
</g>
<g opacity="0.1">
<path opacity="0.1" d="M1411.87 355.168L1419.3 366.485C1422.95 365.655 1425.86 365.075 1425.86 365.075L1417.88 353.946L1411.87 355.168Z" fill="url(#paint3_linear)"/>
</g>
<path d="M1494.86 314.717C1494.86 314.717 1460.06 369.103 1422.8 368.974L1412.67 353.453C1412.67 353.453 1446.78 329.091 1451.32 316.39C1452.99 311.666 1456.45 305.195 1460.13 298.844C1471.45 279.389 1501.97 292.096 1495.26 313.475C1495.13 313.898 1495 314.312 1494.86 314.717Z" fill="url(#paint4_linear)"/>
<g opacity="0.05">
<path opacity="0.05" d="M1494.86 314.717C1494.86 314.717 1460.06 369.103 1422.8 368.974L1412.67 353.453C1412.67 353.453 1446.78 329.091 1451.32 316.39C1452.99 311.666 1456.45 305.195 1460.13 298.844C1471.45 279.389 1501.97 292.096 1495.26 313.475C1495.13 313.898 1495 314.312 1494.86 314.717Z" fill="url(#paint5_linear)"/>
</g>
<g opacity="0.1">
<path opacity="0.1" d="M1425.53 434.496C1433.35 436.001 1447.17 438.579 1461.34 440.819C1468.76 441.993 1476.27 443.073 1483.05 443.856C1493.5 445.064 1502.24 445.57 1506.29 444.625L1507.25 430.453L1467.1 412.698L1464.21 426.816H1425.55C1425.55 426.816 1425.55 429.758 1425.53 434.496Z" fill="url(#paint6_linear)"/>
</g>
<g opacity="0.1">
<path opacity="0.1" d="M1433.47 382.822C1462.1 365.398 1476.91 316.647 1476.91 316.647C1476.91 316.222 1476.91 315.803 1476.95 315.392C1477.6 293.034 1444.68 288.728 1439.09 310.425C1437.27 317.49 1435.71 324.657 1435.39 329.611C1435.21 331.433 1434.79 333.224 1434.14 334.935C1433.71 344.156 1433.81 353.394 1434.43 362.604C1434.86 369.358 1434.54 376.14 1433.47 382.822Z" fill="url(#paint7_linear)"/>
</g>
<g opacity="0.1">
<path opacity="0.1" d="M1475.74 242.657C1471.08 250.357 1467.4 258.111 1457.94 259.427C1453.3 253.537 1447.91 248.282 1441.9 243.797L1472.26 229.68C1472.26 229.68 1470.48 234.498 1475.74 242.657Z" fill="url(#paint8_linear)"/>
</g>
<path d="M1452.16 256.991C1435.14 256.991 1421.35 243.536 1421.35 226.94C1421.35 210.343 1435.14 196.889 1452.16 196.889C1469.18 196.889 1482.97 210.343 1482.97 226.94C1482.97 243.536 1469.18 256.991 1452.16 256.991Z" fill="url(#paint9_linear)"/>
<g opacity="0.1">
<path opacity="0.1" d="M1421.7 236.367C1420.43 236.422 1419.17 236.087 1418.09 235.409C1416.61 234.336 1416.14 232.413 1415.8 230.644C1415 226.467 1414.37 222.067 1415.8 218.045C1416.72 215.386 1418.5 213.085 1419.74 210.561C1422.51 205.048 1423 198.414 1426.95 193.629C1429.41 190.633 1438.07 193.629 1441.69 192.117C1449.46 188.851 1452.84 182.224 1461.3 182.231C1464.41 182.155 1467.51 182.542 1470.5 183.378C1474.28 184.546 1477.63 186.752 1480.74 189.175C1486.14 193.373 1491.43 199.136 1490.95 205.871C1490.64 210.17 1488.01 213.969 1486.47 217.978C1483.88 224.726 1484.35 232.311 1486.22 239.303C1487.02 242.279 1487.93 245.835 1485.81 248.11C1484.47 249.533 1482.33 249.938 1480.42 249.628C1478.51 249.206 1476.69 248.476 1475.02 247.468C1471.98 245.856 1468.9 244.216 1466.45 241.847C1464.82 240.281 1463.51 238.432 1461.97 236.792C1458.94 233.656 1455.51 230.934 1451.78 228.694C1448.79 226.899 1445.7 228.019 1442.56 229.187C1435.67 231.717 1429.29 236.502 1421.7 236.367Z" fill="url(#paint10_linear)"/>
</g>
<g opacity="0.05">
<path opacity="0.05" d="M1433.47 382.822C1434.54 376.151 1434.86 369.381 1434.43 362.638C1433.81 353.428 1433.71 344.19 1434.14 334.969C1434.56 324.171 1435.41 313.489 1436.23 305.006C1437.44 292.2 1443.57 280.362 1453.32 271.979C1455.49 270.123 1457.42 268.753 1458.72 268.416C1460.35 267.984 1462.34 266.688 1464.31 265.116C1470.93 259.831 1462.51 270.123 1460.35 271.979C1450.59 280.362 1444.46 292.2 1443.25 305.006C1442.44 313.489 1441.59 324.171 1441.17 334.969C1440.74 344.19 1440.83 353.428 1441.45 362.638C1441.88 369.381 1441.56 376.151 1440.49 382.822C1436.86 407.407 1426.04 431.85 1426.04 431.85C1426.04 431.85 1478.86 442.519 1503.44 443.653C1484.17 445.003 1419.05 431.85 1419.05 431.85C1419.05 431.85 1429.84 407.393 1433.47 382.822Z" fill="url(#paint11_linear)"/>
</g>
<path d="M1369.07 387.229C1383.54 403.621 1404.54 392.695 1404.54 392.695C1405.4 391.305 1412.13 387.56 1417.27 384.833C1420.57 383.086 1423.22 381.763 1423.22 381.763L1412.48 373.111L1407.05 375.851L1398.95 379.941C1398.95 379.941 1354.58 370.837 1369.07 387.229Z" fill="url(#paint12_linear)"/>
<g opacity="0.1">
<path opacity="0.1" d="M1407.05 375.851L1417.27 384.833C1420.57 383.086 1423.22 381.763 1423.22 381.763L1412.48 373.111L1407.05 375.851Z" fill="url(#paint13_linear)"/>
</g>
<path d="M1475.97 315.284C1475.97 315.284 1457.3 376.755 1421.35 386.318L1407.34 374.022C1407.34 374.022 1433.53 341.67 1434.45 328.247C1434.78 323.287 1436.34 316.1 1438.15 309.062C1443.74 287.372 1476.66 291.671 1476.02 314.028C1476 314.442 1475.99 314.861 1475.97 315.284Z" fill="url(#paint14_linear)"/>
<path opacity="0.05" d="M1512.15 375.163C1512.15 375.163 1500 365.6 1488.8 372.889C1477.61 380.177 1461.26 379.266 1458.93 379.718" fill="url(#paint15_linear)"/>
<path d="M1375.65 355.248C1384.66 374.333 1406.78 369.42 1406.78 369.42C1407.92 368.334 1415.08 366.518 1420.5 365.263C1423.98 364.453 1426.75 363.913 1426.75 363.913L1419.15 353.055L1413.45 354.256L1404.95 356.045C1404.95 356.045 1366.64 336.157 1375.65 355.248Z" fill="#F7C4A7"/>
<path opacity="0.08" d="M1375.65 355.248C1384.66 374.333 1406.78 369.42 1406.78 369.42C1407.92 368.334 1415.08 366.518 1420.5 365.263C1423.98 364.453 1426.75 363.913 1426.75 363.913L1419.15 353.055L1413.45 354.256L1404.95 356.045C1404.95 356.045 1366.64 336.157 1375.65 355.248Z" fill="black"/>
<path opacity="0.1" d="M1413.45 354.189L1420.5 365.229C1423.98 364.42 1426.75 363.88 1426.75 363.88L1419.15 353.021L1413.45 354.189Z" fill="black"/>
<path d="M1492.43 314.724C1492.43 314.724 1459.31 367.794 1423.85 367.659L1414.21 352.542C1414.21 352.542 1446.66 328.774 1450.98 316.377C1452.57 311.802 1455.86 305.458 1459.36 299.277C1470.16 280.3 1499.18 292.697 1492.8 313.556C1492.68 313.939 1492.55 314.328 1492.43 314.724Z" fill="#575988"/>
<path opacity="0.05" d="M1492.43 314.724C1492.43 314.724 1459.31 367.794 1423.85 367.659L1414.21 352.542C1414.21 352.542 1446.66 328.774 1450.98 316.377C1452.57 311.802 1455.86 305.458 1459.36 299.277C1470.16 280.3 1499.18 292.697 1492.8 313.556C1492.68 313.939 1492.55 314.328 1492.43 314.724Z" fill="black"/>
<path d="M1513.99 623.163L1512.44 641.599C1512.44 641.599 1461.57 632.934 1462.01 615.611C1462.46 598.288 1513.99 623.163 1513.99 623.163Z" fill="#535461"/>
<path opacity="0.1" d="M1513.99 623.163L1512.44 641.599C1512.44 641.599 1461.57 632.934 1462.01 615.611C1462.46 598.288 1513.99 623.163 1513.99 623.163Z" fill="black"/>
<path d="M1454.45 628.939L1455.35 644.94C1455.35 644.94 1384.7 639.608 1387.37 624.505C1390.03 609.402 1427.35 617.838 1427.35 617.838L1454.45 628.939Z" fill="#535461"/>
<path d="M1453.57 472.55C1453.57 472.55 1457.75 484.387 1463.08 497.978C1468.18 510.976 1474.34 525.586 1478.9 532.969C1488.2 548.079 1489.55 594.724 1489.55 594.724C1491.32 602.276 1482.44 616.94 1482.44 616.94C1500.21 636.045 1516.65 624.937 1516.65 624.937C1513.54 619.161 1518.87 602.721 1518.87 602.721C1518.87 602.721 1511.76 526.747 1507.32 523.197C1502.87 519.648 1499.33 501.872 1499.33 501.872L1503.3 441.48L1504.21 427.68L1466 410.35L1463.23 424.123L1460.53 437.762L1453.57 472.55Z" fill="#6A5C99"/>
<path opacity="0.1" d="M1453.57 472.55C1453.57 472.55 1457.75 484.387 1463.08 497.978C1468.18 510.976 1474.34 525.586 1478.9 532.969C1488.2 548.079 1489.55 594.724 1489.55 594.724C1491.32 602.276 1482.44 616.94 1482.44 616.94C1500.21 636.045 1516.65 624.937 1516.65 624.937C1513.54 619.161 1518.87 602.721 1518.87 602.721C1518.87 602.721 1511.76 526.747 1507.32 523.197C1502.87 519.648 1499.33 501.872 1499.33 501.872L1503.3 441.48L1504.21 427.68L1466 410.35L1463.23 424.123L1460.53 437.762L1453.57 472.55Z" fill="black"/>
<path d="M1420.25 619.606C1428.24 633.825 1456.24 632.043 1456.24 632.043V590.277C1456.24 590.277 1464.23 543.625 1459.79 532.962C1455.35 522.3 1461.57 502.749 1461.57 502.749L1463.08 497.971L1481.2 440.717L1486.45 424.116H1426.47C1426.47 424.116 1426.47 426.957 1426.47 431.587C1426.39 449.355 1426.03 493.423 1424.26 503.647C1422.04 516.53 1428.26 524.972 1428.26 524.972C1428.26 524.972 1424.71 577.394 1427.82 593.806C1430.93 610.219 1420.25 619.606 1420.25 619.606Z" fill="#6A5C99"/>
<path d="M1469.56 229.086C1469.56 229.086 1478.9 254.852 1497.56 264.178C1516.22 273.504 1466.9 276.177 1466.9 276.177C1466.9 276.177 1458.9 256.606 1440.69 242.853L1469.56 229.086Z" fill="#F7C4A7"/>
<path opacity="0.1" d="M1426.45 431.594C1433.89 433.038 1447.03 435.575 1460.53 437.762C1467.59 438.909 1474.73 439.962 1481.2 440.724C1491.14 441.899 1499.46 442.398 1503.31 441.473L1504.22 427.673L1466.01 410.343L1463.23 424.123H1426.44C1426.44 424.123 1426.47 426.964 1426.45 431.594Z" fill="black"/>
<path d="M1420.25 428.989C1420.25 428.989 1495.33 444.51 1504.66 439.651C1513.98 434.792 1516.21 422.321 1513.54 408.554C1510.88 394.788 1513.54 360.573 1518.43 317.032C1520.89 295.106 1515.47 280.394 1509.47 271.183C1506.89 267.239 1503.37 264.001 1499.22 261.762C1495.07 259.523 1490.43 258.354 1485.72 258.361C1477.57 258.332 1469.66 261.119 1463.33 266.25C1461.45 267.781 1459.56 269.043 1458.01 269.469C1456.79 269.799 1454.95 271.135 1452.9 272.944C1443.56 281.218 1437.74 292.745 1436.63 305.168C1435.85 313.442 1435.04 323.868 1434.64 334.409C1434.23 343.405 1434.32 352.417 1434.9 361.403C1435.32 367.98 1435.01 374.583 1433.99 381.095C1430.54 405.16 1420.25 428.989 1420.25 428.989Z" fill="#575988"/>
<path opacity="0.1" d="M1434 381.176C1461.25 364.176 1475.34 316.607 1475.34 316.607C1475.34 316.195 1475.34 315.783 1475.39 315.385C1476 293.574 1444.67 289.37 1439.35 310.54C1437.62 317.437 1436.15 324.421 1435.84 329.26C1435.67 331.036 1435.27 332.783 1434.65 334.456C1434.24 343.452 1434.32 352.464 1434.91 361.45C1435.33 368.039 1435.02 374.653 1434 381.176Z" fill="black"/>
<path opacity="0.1" d="M1474.23 244.412C1469.8 251.923 1466.29 259.495 1457.29 260.77C1452.89 255.04 1447.75 249.912 1442.02 245.519L1470.89 231.745C1470.89 231.745 1469.23 236.456 1474.23 244.412Z" fill="black"/>
<path d="M1451.79 258.408C1435.59 258.408 1422.47 245.28 1422.47 229.086C1422.47 212.892 1435.59 199.764 1451.79 199.764C1467.98 199.764 1481.11 212.892 1481.11 229.086C1481.11 245.28 1467.98 258.408 1451.79 258.408Z" fill="#F7C4A7"/>
<path opacity="0.1" d="M1422.8 238.278C1421.59 238.327 1420.38 237.997 1419.36 237.333C1417.96 236.287 1417.51 234.404 1417.19 232.683C1416.43 228.634 1415.84 224.315 1417.19 220.388C1418.07 217.79 1419.73 215.549 1420.94 213.086C1423.58 207.687 1424.05 201.236 1427.8 196.566C1430.15 193.644 1438.38 196.566 1441.83 195.088C1449.25 191.902 1452.44 185.437 1460.49 185.444C1463.46 185.368 1466.42 185.746 1469.27 186.564C1472.87 187.698 1476.06 189.871 1479.01 192.22C1484.17 196.316 1489.19 201.937 1488.73 208.51C1488.43 212.708 1485.94 216.379 1484.47 220.32C1482 226.92 1482.44 234.31 1484.23 241.126C1484.98 244.028 1485.86 247.496 1483.84 249.723C1482.59 251.107 1480.52 251.512 1478.68 251.201C1476.86 250.791 1475.11 250.079 1473.52 249.096C1470.63 247.523 1467.7 245.924 1465.37 243.616C1463.82 242.084 1462.57 240.282 1461.1 238.683C1458.23 235.631 1454.97 232.974 1451.4 230.78C1448.56 229.032 1445.63 230.105 1442.63 231.259C1436.09 233.743 1430.03 238.413 1422.8 238.278Z" fill="black"/>
<path d="M1423.25 237.832C1422.03 237.885 1420.83 237.56 1419.81 236.901C1418.4 235.855 1417.95 233.972 1417.63 232.251C1416.87 228.202 1416.29 223.883 1417.63 219.956C1418.51 217.357 1420.18 215.117 1421.39 212.654C1424.03 207.255 1424.49 200.803 1428.24 196.134C1430.59 193.211 1438.37 196.586 1441.83 195.101C1449.25 191.916 1452.88 184.978 1460.94 184.978C1463.9 184.902 1466.86 185.28 1469.71 186.099C1473.32 187.232 1476.5 189.405 1479.46 191.754C1484.61 195.85 1489.63 201.472 1489.18 208.045C1488.88 212.242 1486.38 215.913 1484.91 219.854C1482.44 226.454 1482.89 233.844 1484.67 240.66C1485.43 243.562 1486.3 247.03 1484.29 249.257C1483.03 250.641 1480.97 251.046 1479.13 250.735C1477.3 250.325 1475.56 249.613 1473.96 248.63C1471.08 247.057 1468.15 245.458 1465.81 243.15C1464.27 241.618 1463.02 239.816 1461.55 238.217C1458.65 235.168 1455.35 232.52 1451.76 230.341C1448.91 228.594 1445.99 229.667 1442.98 230.821C1436.54 233.284 1430.47 237.967 1423.25 237.832Z" fill="#632652"/>
<path opacity="0.05" d="M1434 381.176C1435.01 374.67 1435.3 368.074 1434.88 361.504C1434.3 352.518 1434.21 343.506 1434.62 334.51C1435.02 323.969 1435.83 313.55 1436.61 305.269C1437.72 292.846 1443.54 281.32 1452.88 273.045C1454.93 271.23 1456.77 269.9 1457.99 269.57C1459.54 269.145 1461.43 267.883 1463.31 266.351C1469.62 261.195 1461.6 271.237 1459.54 273.045C1450.2 281.32 1444.38 292.846 1443.27 305.269C1442.49 313.543 1441.68 323.969 1441.28 334.51C1440.87 343.506 1440.96 352.518 1441.54 361.504C1441.96 368.082 1441.65 374.685 1440.63 381.196C1437.18 405.18 1426.88 429.029 1426.88 429.029C1426.88 429.029 1477.14 439.435 1500.53 440.549C1482.2 441.899 1420.22 429.029 1420.22 429.029C1420.22 429.029 1430.54 405.16 1434 381.176Z" fill="black"/>
<path d="M1372.71 385.475C1386.48 401.469 1406.45 390.806 1406.45 390.806C1407.26 389.456 1413.67 385.792 1418.6 383.14C1421.74 381.432 1424.26 380.144 1424.26 380.144L1414.04 371.701L1408.87 374.401L1401.14 378.375C1401.14 378.375 1358.94 369.481 1372.71 385.475Z" fill="#F7C4A7"/>
<path opacity="0.1" d="M1408.86 374.374L1418.59 383.147C1421.72 381.439 1424.24 380.15 1424.24 380.15L1414.02 371.708L1408.86 374.374Z" fill="black"/>
<path d="M1474.45 315.278C1474.45 315.278 1456.68 375.258 1422.49 384.584L1409.16 372.586C1409.16 372.586 1434.13 341.023 1434.96 327.924C1435.28 323.085 1436.75 316.094 1438.48 309.204C1443.8 288.041 1475.13 292.238 1474.51 314.049C1474.49 314.454 1474.47 314.864 1474.45 315.278Z" fill="#575988"/>
<path opacity="0.05" d="M1508.88 373.699C1508.88 373.699 1497.33 364.366 1486.67 371.479C1476 378.592 1460.45 377.701 1458.23 378.146" fill="black"/>
<path fill-rule="evenodd" clip-rule="evenodd" d="M1263.58 95.5537L1263.9 95.58L1264.26 95.5537L1264.26 95.6097L1402.6 107.026L1407.32 107.026H1408.67H1414.07L1415.42 156.29L1393.15 164.388L1379.65 235.247L1430.62 339.412L1430.71 339.329C1432.82 335.082 1434.25 331.205 1434.45 328.247C1434.46 328.174 1434.46 328.099 1434.47 328.024C1434.93 319.669 1435.59 311.66 1436.23 305.006C1437.44 292.2 1443.56 280.362 1453.32 271.979C1455.49 270.123 1457.42 268.753 1458.72 268.416C1459.7 268.155 1460.81 267.581 1461.97 266.822C1460.82 264.935 1459.47 262.856 1457.89 260.674C1457.69 260.709 1457.49 260.741 1457.29 260.77C1456.62 259.901 1455.94 259.047 1455.24 258.207C1454.11 258.339 1452.96 258.408 1451.79 258.408C1440.1 258.408 1430.01 251.572 1425.3 241.681C1424.67 240.586 1424.1 239.447 1423.61 238.272C1423.34 238.28 1423.08 238.282 1422.8 238.277C1421.59 238.326 1420.38 237.996 1419.36 237.332C1418.65 236.802 1418.18 236.057 1417.86 235.227C1416.56 234.128 1416.12 232.317 1415.8 230.645C1415 226.467 1414.37 222.067 1415.8 218.045C1416.37 216.41 1417.26 214.91 1418.15 213.411C1418.71 212.472 1419.26 211.533 1419.74 210.561C1420.83 208.388 1421.57 206.04 1422.3 203.701C1423.43 200.105 1424.56 196.528 1426.95 193.629C1428.36 191.914 1431.8 192.162 1435.16 192.405C1437.67 192.586 1440.14 192.764 1441.69 192.118C1444.71 190.846 1447.07 189.065 1449.33 187.364C1452.86 184.696 1456.13 182.227 1461.3 182.231C1464.41 182.155 1467.51 182.542 1470.5 183.378C1474.28 184.546 1477.63 186.753 1480.74 189.175C1486.14 193.373 1491.43 199.136 1490.95 205.871C1490.74 208.811 1489.44 211.518 1488.15 214.218C1487.55 215.465 1486.96 216.711 1486.47 217.978C1483.88 224.726 1484.35 232.311 1486.22 239.303C1487.02 242.279 1487.93 245.835 1485.81 248.11C1485.41 248.541 1484.92 248.879 1484.4 249.132C1484.36 249.174 1484.33 249.215 1484.29 249.257C1484.19 249.365 1484.09 249.466 1483.98 249.563C1483.94 249.616 1483.89 249.67 1483.84 249.722C1483.34 250.278 1482.7 250.676 1482.01 250.933C1484.15 253.625 1486.58 256.246 1489.28 258.58C1492.75 259.015 1496.12 260.09 1499.22 261.762C1503.37 264.001 1506.89 267.239 1509.48 271.182C1515.47 280.394 1520.89 295.106 1518.43 317.032C1513.54 360.573 1510.88 394.787 1513.54 408.554C1516 421.246 1514.3 432.837 1506.71 438.377L1506.29 444.625C1505.42 444.827 1504.34 444.963 1503.07 445.04L1499.33 501.872C1499.33 501.872 1502.87 519.647 1507.32 523.197C1511.76 526.747 1518.87 602.721 1518.87 602.721C1518.87 602.721 1513.54 619.16 1516.65 624.937C1516.65 624.937 1515.59 625.653 1513.72 626.409L1512.44 641.599C1512.44 641.599 1461.57 632.934 1462.01 615.611C1462.22 607.63 1473.26 608.605 1485.12 611.978C1487.57 607.019 1490.66 599.468 1489.55 594.724C1489.55 594.724 1488.2 548.079 1478.9 532.969C1474.34 525.586 1468.18 510.976 1463.08 497.978L1463.08 497.975L1461.57 502.749C1461.57 502.749 1455.35 522.3 1459.79 532.962C1464.23 543.625 1456.24 590.277 1456.24 590.277V632.043C1456.24 632.043 1455.65 632.081 1454.63 632.101L1455.35 644.94C1455.35 644.94 1384.7 639.608 1387.37 624.505C1389.44 612.756 1412.49 615.252 1422.62 616.94C1425.57 613.069 1429.96 605.102 1427.82 593.807C1426.12 584.828 1426.41 565.073 1427.02 549.019L1312.65 588.701L1307.11 592.578L1208.92 529.48L1200.15 100.278L1263.58 95.6032L1263.58 95.5537ZM1299.41 385.18L1298.98 385.249L1298.99 385.252L1299.41 385.18Z" fill="url(#paint16_linear)"/>
</g>
</g>
<defs>
<filter id="filter0_d" x="1172.94" y="55.5" width="386.626" height="610" filterUnits="userSpaceOnUse" color-interpolation-filters="sRGB">
<feFlood flood-opacity="0" result="BackgroundImageFix"/>
<feColorMatrix in="SourceAlpha" type="matrix" values="0 0 0 0 0 0 0 0 0 0 0 0 0 0 0 0 0 0 127 0"/>
<feOffset dx="10" dy="-10"/>
<feGaussianBlur stdDeviation="15"/>
<feColorMatrix type="matrix" values="0 0 0 0 0.517647 0 0 0 0 0.517647 0 0 0 0 0.6 0 0 0 0.05 0"/>
<feBlend mode="normal" in2="BackgroundImageFix" result="effect1_dropShadow"/>
<feBlend mode="normal" in="SourceGraphic" in2="effect1_dropShadow" result="shape"/>
</filter>
<linearGradient id="paint0_linear" x1="980" y1="-110.5" x2="1843.99" y2="469.766" gradientUnits="userSpaceOnUse">
<stop stop-color="white" stop-opacity="0.2"/>
<stop offset="1" stop-color="white" stop-opacity="0"/>
</linearGradient>
<linearGradient id="paint1_linear" x1="-27423.5" y1="10977.1" x2="-27423.5" y2="10152.4" gradientUnits="userSpaceOnUse">
<stop stop-color="#808080" stop-opacity="0.25"/>
<stop offset="0.54" stop-color="#808080" stop-opacity="0.12"/>
<stop offset="1" stop-color="#808080" stop-opacity="0.1"/>
</linearGradient>
<linearGradient id="paint2_linear" x1="-27423.5" y1="10977.1" x2="-27423.5" y2="10152.4" gradientUnits="userSpaceOnUse">
<stop stop-color="#808080" stop-opacity="0.25"/>
<stop offset="0.54" stop-color="#808080" stop-opacity="0.12"/>
<stop offset="1" stop-color="#808080" stop-opacity="0.1"/>
</linearGradient>
<linearGradient id="paint3_linear" x1="-5467.5" y1="5913.21" x2="-5467.5" y2="5680.25" gradientUnits="userSpaceOnUse">
<stop stop-color="#808080" stop-opacity="0.25"/>
<stop offset="0.54" stop-color="#808080" stop-opacity="0.12"/>
<stop offset="1" stop-color="#808080" stop-opacity="0.1"/>
</linearGradient>
<linearGradient id="paint4_linear" x1="-35264" y1="35941" x2="-35264" y2="26522.9" gradientUnits="userSpaceOnUse">
<stop stop-color="#808080" stop-opacity="0.25"/>
<stop offset="0.54" stop-color="#808080" stop-opacity="0.12"/>
<stop offset="1" stop-color="#808080" stop-opacity="0.1"/>
</linearGradient>
<linearGradient id="paint5_linear" x1="-35264" y1="35941" x2="-35264" y2="26522.9" gradientUnits="userSpaceOnUse">
<stop stop-color="#808080" stop-opacity="0.25"/>
<stop offset="0.54" stop-color="#808080" stop-opacity="0.12"/>
<stop offset="1" stop-color="#808080" stop-opacity="0.1"/>
</linearGradient>
<linearGradient id="paint6_linear" x1="-33002.7" y1="18563.7" x2="-33002.7" y2="17007.6" gradientUnits="userSpaceOnUse">
<stop stop-color="#808080" stop-opacity="0.25"/>
<stop offset="0.54" stop-color="#808080" stop-opacity="0.12"/>
<stop offset="1" stop-color="#808080" stop-opacity="0.1"/>
</linearGradient>
<linearGradient id="paint7_linear" x1="-17612.7" y1="40797.1" x2="-17612.7" y2="29680.7" gradientUnits="userSpaceOnUse">
<stop stop-color="#808080" stop-opacity="0.25"/>
<stop offset="0.54" stop-color="#808080" stop-opacity="0.12"/>
<stop offset="1" stop-color="#808080" stop-opacity="0.1"/>
</linearGradient>
<linearGradient id="paint8_linear" x1="-13196.8" y1="8699.61" x2="-13196.8" y2="7388.65" gradientUnits="userSpaceOnUse">
<stop stop-color="#808080" stop-opacity="0.25"/>
<stop offset="0.54" stop-color="#808080" stop-opacity="0.12"/>
<stop offset="1" stop-color="#808080" stop-opacity="0.1"/>
</linearGradient>
<linearGradient id="paint9_linear" x1="-23100.7" y1="15180.9" x2="-23100.7" y2="9827.61" gradientUnits="userSpaceOnUse">
<stop stop-color="#808080" stop-opacity="0.25"/>
<stop offset="0.54" stop-color="#808080" stop-opacity="0.12"/>
<stop offset="1" stop-color="#808080" stop-opacity="0.1"/>
</linearGradient>
<linearGradient id="paint10_linear" x1="-32134.6" y1="18432" x2="-32134.6" y2="11680.9" gradientUnits="userSpaceOnUse">
<stop stop-color="#808080" stop-opacity="0.25"/>
<stop offset="0.54" stop-color="#808080" stop-opacity="0.12"/>
<stop offset="1" stop-color="#808080" stop-opacity="0.1"/>
</linearGradient>
<linearGradient id="paint11_linear" x1="-34783.2" y1="100753" x2="-34783.2" y2="52664.7" gradientUnits="userSpaceOnUse">
<stop stop-color="#808080" stop-opacity="0.25"/>
<stop offset="0.54" stop-color="#808080" stop-opacity="0.12"/>
<stop offset="1" stop-color="#808080" stop-opacity="0.1"/>
</linearGradient>
<linearGradient id="paint12_linear" x1="-28735" y1="11659.2" x2="-28735" y2="10865.1" gradientUnits="userSpaceOnUse">
<stop stop-color="#808080" stop-opacity="0.25"/>
<stop offset="0.54" stop-color="#808080" stop-opacity="0.12"/>
<stop offset="1" stop-color="#808080" stop-opacity="0.1"/>
</linearGradient>
<linearGradient id="paint13_linear" x1="-6633.47" y1="5889.15" x2="-6633.47" y2="5685.54" gradientUnits="userSpaceOnUse">
<stop stop-color="#808080" stop-opacity="0.25"/>
<stop offset="0.54" stop-color="#808080" stop-opacity="0.12"/>
<stop offset="1" stop-color="#808080" stop-opacity="0.1"/>
</linearGradient>
<linearGradient id="paint14_linear" x1="-30043.3" y1="43540.2" x2="-30043.3" y2="31142" gradientUnits="userSpaceOnUse">
<stop stop-color="#808080" stop-opacity="0.25"/>
<stop offset="0.54" stop-color="#808080" stop-opacity="0.12"/>
<stop offset="1" stop-color="#808080" stop-opacity="0.1"/>
</linearGradient>
<linearGradient id="paint15_linear" x1="-19452.7" y1="4800.22" x2="-19452.7" y2="4664.63" gradientUnits="userSpaceOnUse">
<stop stop-color="#808080" stop-opacity="0.25"/>
<stop offset="0.54" stop-color="#808080" stop-opacity="0.12"/>
<stop offset="1" stop-color="#808080" stop-opacity="0.1"/>
</linearGradient>
<linearGradient id="paint16_linear" x1="1519.04" y1="644.939" x2="1204.22" y2="609.04" gradientUnits="userSpaceOnUse">
<stop stop-color="white" stop-opacity="0.2"/>
<stop offset="1" stop-color="white" stop-opacity="0"/>
</linearGradient>
<clipPath id="clip0">
<rect width="1620" height="695" fill="white" transform="translate(0 0.5)"/>
</clipPath>
<clipPath id="clip1">
<rect width="326.626" height="550" fill="white" transform="matrix(-1 0 0 1 1519.56 95.5)"/>
</clipPath>
</defs>
</svg>
