<svg width="1236" height="696" viewBox="0 0 1236 696" fill="none" xmlns="http://www.w3.org/2000/svg">
<g clip-path="url(#clip0)">
<rect width="1236" height="695" transform="translate(0 0.5)" fill="white"/>
<path d="M93.81 330.04C90.6 330.04 87.69 329.35 85.08 327.97C82.5 326.56 80.46 324.625 78.96 322.165C77.49 319.675 76.755 316.87 76.755 313.75C76.755 310.63 77.49 307.84 78.96 305.38C80.46 302.89 82.5 300.955 85.08 299.575C87.69 298.165 90.615 297.46 93.855 297.46C96.585 297.46 99.045 297.94 101.235 298.9C103.455 299.86 105.315 301.24 106.815 303.04L102.135 307.36C100.005 304.9 97.365 303.67 94.215 303.67C92.265 303.67 90.525 304.105 88.995 304.975C87.465 305.815 86.265 307 85.395 308.53C84.555 310.06 84.135 311.8 84.135 313.75C84.135 315.7 84.555 317.44 85.395 318.97C86.265 320.5 87.465 321.7 88.995 322.57C90.525 323.41 92.265 323.83 94.215 323.83C97.365 323.83 100.005 322.585 102.135 320.095L106.815 324.415C105.315 326.245 103.455 327.64 101.235 328.6C99.015 329.56 96.54 330.04 93.81 330.04ZM126.408 304.93C129.408 304.93 131.823 305.83 133.653 307.63C135.513 309.43 136.443 312.1 136.443 315.64V329.5H129.423V316.72C129.423 314.8 129.003 313.375 128.163 312.445C127.323 311.485 126.108 311.005 124.518 311.005C122.748 311.005 121.338 311.56 120.288 312.67C119.238 313.75 118.713 315.37 118.713 317.53V329.5H111.693V296.11H118.713V307.81C119.643 306.88 120.768 306.175 122.088 305.695C123.408 305.185 124.848 304.93 126.408 304.93ZM167.235 317.485C167.235 317.575 167.19 318.205 167.1 319.375H148.785C149.115 320.875 149.895 322.06 151.125 322.93C152.355 323.8 153.885 324.235 155.715 324.235C156.975 324.235 158.085 324.055 159.045 323.695C160.035 323.305 160.95 322.705 161.79 321.895L165.525 325.945C163.245 328.555 159.915 329.86 155.535 329.86C152.805 329.86 150.39 329.335 148.29 328.285C146.19 327.205 144.57 325.72 143.43 323.83C142.29 321.94 141.72 319.795 141.72 317.395C141.72 315.025 142.275 312.895 143.385 311.005C144.525 309.085 146.07 307.6 148.02 306.55C150 305.47 152.205 304.93 154.635 304.93C157.005 304.93 159.15 305.44 161.07 306.46C162.99 307.48 164.49 308.95 165.57 310.87C166.68 312.76 167.235 314.965 167.235 317.485ZM154.68 310.24C153.09 310.24 151.755 310.69 150.675 311.59C149.595 312.49 148.935 313.72 148.695 315.28H160.62C160.38 313.75 159.72 312.535 158.64 311.635C157.56 310.705 156.24 310.24 154.68 310.24ZM184.059 329.86C181.479 329.86 179.154 329.335 177.084 328.285C175.044 327.205 173.439 325.72 172.269 323.83C171.129 321.94 170.559 319.795 170.559 317.395C170.559 314.995 171.129 312.85 172.269 310.96C173.439 309.07 175.044 307.6 177.084 306.55C179.154 305.47 181.479 304.93 184.059 304.93C186.609 304.93 188.829 305.47 190.719 306.55C192.639 307.6 194.034 309.115 194.904 311.095L189.459 314.02C188.199 311.8 186.384 310.69 184.014 310.69C182.184 310.69 180.669 311.29 179.469 312.49C178.269 313.69 177.669 315.325 177.669 317.395C177.669 319.465 178.269 321.1 179.469 322.3C180.669 323.5 182.184 324.1 184.014 324.1C186.414 324.1 188.229 322.99 189.459 320.77L194.904 323.74C194.034 325.66 192.639 327.16 190.719 328.24C188.829 329.32 186.609 329.86 184.059 329.86ZM209.615 320.005L206.24 323.335V329.5H199.22V296.11H206.24V315.01L216.5 305.29H224.87L214.79 315.55L225.77 329.5H217.265L209.615 320.005ZM254.091 329.86C251.541 329.86 249.246 329.335 247.206 328.285C245.196 327.205 243.621 325.72 242.481 323.83C241.341 321.94 240.771 319.795 240.771 317.395C240.771 314.995 241.341 312.85 242.481 310.96C243.621 309.07 245.196 307.6 247.206 306.55C249.246 305.47 251.541 304.93 254.091 304.93C256.641 304.93 258.921 305.47 260.931 306.55C262.941 307.6 264.516 309.07 265.656 310.96C266.796 312.85 267.366 314.995 267.366 317.395C267.366 319.795 266.796 321.94 265.656 323.83C264.516 325.72 262.941 327.205 260.931 328.285C258.921 329.335 256.641 329.86 254.091 329.86ZM254.091 324.1C255.891 324.1 257.361 323.5 258.501 322.3C259.671 321.07 260.256 319.435 260.256 317.395C260.256 315.355 259.671 313.735 258.501 312.535C257.361 311.305 255.891 310.69 254.091 310.69C252.291 310.69 250.806 311.305 249.636 312.535C248.466 313.735 247.881 315.355 247.881 317.395C247.881 319.435 248.466 321.07 249.636 322.3C250.806 323.5 252.291 324.1 254.091 324.1ZM296.898 305.29V329.5H290.238V326.62C289.308 327.67 288.198 328.48 286.908 329.05C285.618 329.59 284.223 329.86 282.723 329.86C279.543 329.86 277.023 328.945 275.163 327.115C273.303 325.285 272.373 322.57 272.373 318.97V305.29H279.393V317.935C279.393 321.835 281.028 323.785 284.298 323.785C285.978 323.785 287.328 323.245 288.348 322.165C289.368 321.055 289.878 319.42 289.878 317.26V305.29H296.898ZM319.467 328.33C318.777 328.84 317.922 329.23 316.902 329.5C315.912 329.74 314.862 329.86 313.752 329.86C310.872 329.86 308.637 329.125 307.047 327.655C305.487 326.185 304.707 324.025 304.707 321.175V311.23H300.972V305.83H304.707V299.935H311.727V305.83H317.757V311.23H311.727V321.085C311.727 322.105 311.982 322.9 312.492 323.47C313.032 324.01 313.782 324.28 314.742 324.28C315.852 324.28 316.797 323.98 317.577 323.38L319.467 328.33ZM368.057 304.93C371.087 304.93 373.487 305.83 375.257 307.63C377.057 309.4 377.957 312.07 377.957 315.64V329.5H370.937V316.72C370.937 314.8 370.532 313.375 369.722 312.445C368.942 311.485 367.817 311.005 366.347 311.005C364.697 311.005 363.392 311.545 362.432 312.625C361.472 313.675 360.992 315.25 360.992 317.35V329.5H353.972V316.72C353.972 312.91 352.442 311.005 349.382 311.005C347.762 311.005 346.472 311.545 345.512 312.625C344.552 313.675 344.072 315.25 344.072 317.35V329.5H337.052V305.29H343.757V308.08C344.657 307.06 345.752 306.28 347.042 305.74C348.362 305.2 349.802 304.93 351.362 304.93C353.072 304.93 354.617 305.275 355.997 305.965C357.377 306.625 358.487 307.6 359.327 308.89C360.317 307.63 361.562 306.655 363.062 305.965C364.592 305.275 366.257 304.93 368.057 304.93ZM408.289 305.29L397.354 330.985C396.244 333.775 394.864 335.74 393.214 336.88C391.594 338.02 389.629 338.59 387.319 338.59C386.059 338.59 384.814 338.395 383.584 338.005C382.354 337.615 381.349 337.075 380.569 336.385L383.134 331.39C383.674 331.87 384.289 332.245 384.979 332.515C385.699 332.785 386.404 332.92 387.094 332.92C388.054 332.92 388.834 332.68 389.434 332.2C390.034 331.75 390.574 330.985 391.054 329.905L391.144 329.68L380.659 305.29H387.904L394.699 321.715L401.539 305.29H408.289ZM436.498 329.86C433.918 329.86 431.593 329.335 429.523 328.285C427.483 327.205 425.878 325.72 424.708 323.83C423.568 321.94 422.998 319.795 422.998 317.395C422.998 314.995 423.568 312.85 424.708 310.96C425.878 309.07 427.483 307.6 429.523 306.55C431.593 305.47 433.918 304.93 436.498 304.93C439.048 304.93 441.268 305.47 443.158 306.55C445.078 307.6 446.473 309.115 447.343 311.095L441.898 314.02C440.638 311.8 438.823 310.69 436.453 310.69C434.623 310.69 433.108 311.29 431.908 312.49C430.708 313.69 430.108 315.325 430.108 317.395C430.108 319.465 430.708 321.1 431.908 322.3C433.108 323.5 434.623 324.1 436.453 324.1C438.853 324.1 440.668 322.99 441.898 320.77L447.343 323.74C446.473 325.66 445.078 327.16 443.158 328.24C441.268 329.32 439.048 329.86 436.498 329.86ZM466.374 304.93C469.374 304.93 471.789 305.83 473.619 307.63C475.479 309.43 476.409 312.1 476.409 315.64V329.5H469.389V316.72C469.389 314.8 468.969 313.375 468.129 312.445C467.289 311.485 466.074 311.005 464.484 311.005C462.714 311.005 461.304 311.56 460.254 312.67C459.204 313.75 458.679 315.37 458.679 317.53V329.5H451.659V296.11H458.679V307.81C459.609 306.88 460.734 306.175 462.054 305.695C463.374 305.185 464.814 304.93 466.374 304.93ZM492.987 304.93C496.737 304.93 499.617 305.83 501.627 307.63C503.637 309.4 504.642 312.085 504.642 315.685V329.5H498.072V326.485C496.752 328.735 494.292 329.86 490.692 329.86C488.832 329.86 487.212 329.545 485.832 328.915C484.482 328.285 483.447 327.415 482.727 326.305C482.007 325.195 481.647 323.935 481.647 322.525C481.647 320.275 482.487 318.505 484.167 317.215C485.877 315.925 488.502 315.28 492.042 315.28H497.622C497.622 313.75 497.157 312.58 496.227 311.77C495.297 310.93 493.902 310.51 492.042 310.51C490.752 310.51 489.477 310.72 488.217 311.14C486.987 311.53 485.937 312.07 485.067 312.76L482.547 307.855C483.867 306.925 485.442 306.205 487.272 305.695C489.132 305.185 491.037 304.93 492.987 304.93ZM492.447 325.135C493.647 325.135 494.712 324.865 495.642 324.325C496.572 323.755 497.232 322.93 497.622 321.85V319.375H492.807C489.927 319.375 488.487 320.32 488.487 322.21C488.487 323.11 488.832 323.83 489.522 324.37C490.242 324.88 491.217 325.135 492.447 325.135ZM518.151 308.485C518.991 307.315 520.116 306.43 521.526 305.83C522.966 305.23 524.616 304.93 526.476 304.93V311.41C525.696 311.35 525.171 311.32 524.901 311.32C522.891 311.32 521.316 311.89 520.176 313.03C519.036 314.14 518.466 315.82 518.466 318.07V329.5H511.446V305.29H518.151V308.485ZM547.55 328.33C546.86 328.84 546.005 329.23 544.985 329.5C543.995 329.74 542.945 329.86 541.835 329.86C538.955 329.86 536.72 329.125 535.13 327.655C533.57 326.185 532.79 324.025 532.79 321.175V311.23H529.055V305.83H532.79V299.935H539.81V305.83H545.84V311.23H539.81V321.085C539.81 322.105 540.065 322.9 540.575 323.47C541.115 324.01 541.865 324.28 542.825 324.28C543.935 324.28 544.88 323.98 545.66 323.38L547.55 328.33ZM560.086 329.86C558.076 329.86 556.111 329.62 554.191 329.14C552.271 328.63 550.741 328 549.601 327.25L551.941 322.21C553.021 322.9 554.326 323.47 555.856 323.92C557.386 324.34 558.886 324.55 560.356 324.55C563.326 324.55 564.811 323.815 564.811 322.345C564.811 321.655 564.406 321.16 563.596 320.86C562.786 320.56 561.541 320.305 559.861 320.095C557.881 319.795 556.246 319.45 554.956 319.06C553.666 318.67 552.541 317.98 551.581 316.99C550.651 316 550.186 314.59 550.186 312.76C550.186 311.23 550.621 309.88 551.491 308.71C552.391 307.51 553.681 306.58 555.361 305.92C557.071 305.26 559.081 304.93 561.391 304.93C563.101 304.93 564.796 305.125 566.476 305.515C568.186 305.875 569.596 306.385 570.706 307.045L568.366 312.04C566.236 310.84 563.911 310.24 561.391 310.24C559.891 310.24 558.766 310.45 558.016 310.87C557.266 311.29 556.891 311.83 556.891 312.49C556.891 313.24 557.296 313.765 558.106 314.065C558.916 314.365 560.206 314.65 561.976 314.92C563.956 315.25 565.576 315.61 566.836 316C568.096 316.36 569.191 317.035 570.121 318.025C571.051 319.015 571.516 320.395 571.516 322.165C571.516 323.665 571.066 325 570.166 326.17C569.266 327.34 567.946 328.255 566.206 328.915C564.496 329.545 562.456 329.86 560.086 329.86ZM93.855 385.33C93.165 385.84 92.31 386.23 91.29 386.5C90.3 386.74 89.25 386.86 88.14 386.86C85.26 386.86 83.025 386.125 81.435 384.655C79.875 383.185 79.095 381.025 79.095 378.175V368.23H75.36V362.83H79.095V356.935H86.115V362.83H92.145V368.23H86.115V378.085C86.115 379.105 86.37 379.9 86.88 380.47C87.42 381.01 88.17 381.28 89.13 381.28C90.24 381.28 91.185 380.98 91.965 380.38L93.855 385.33ZM109.019 386.86C106.469 386.86 104.174 386.335 102.134 385.285C100.124 384.205 98.5486 382.72 97.4086 380.83C96.2686 378.94 95.6986 376.795 95.6986 374.395C95.6986 371.995 96.2686 369.85 97.4086 367.96C98.5486 366.07 100.124 364.6 102.134 363.55C104.174 362.47 106.469 361.93 109.019 361.93C111.569 361.93 113.849 362.47 115.859 363.55C117.869 364.6 119.444 366.07 120.584 367.96C121.724 369.85 122.294 371.995 122.294 374.395C122.294 376.795 121.724 378.94 120.584 380.83C119.444 382.72 117.869 384.205 115.859 385.285C113.849 386.335 111.569 386.86 109.019 386.86ZM109.019 381.1C110.819 381.1 112.289 380.5 113.429 379.3C114.599 378.07 115.184 376.435 115.184 374.395C115.184 372.355 114.599 370.735 113.429 369.535C112.289 368.305 110.819 367.69 109.019 367.69C107.219 367.69 105.734 368.305 104.564 369.535C103.394 370.735 102.809 372.355 102.809 374.395C102.809 376.435 103.394 378.07 104.564 379.3C105.734 380.5 107.219 381.1 109.019 381.1ZM148.325 362.83H154.535V368.23H148.505V386.5H141.485V368.23H137.75V362.83H141.485V361.75C141.485 358.99 142.295 356.8 143.915 355.18C145.565 353.56 147.875 352.75 150.845 352.75C151.895 352.75 152.885 352.87 153.815 353.11C154.775 353.32 155.57 353.635 156.2 354.055L154.355 359.14C153.545 358.57 152.6 358.285 151.52 358.285C149.39 358.285 148.325 359.455 148.325 361.795V362.83ZM161.645 362.29H168.665V386.5H161.645V362.29ZM165.155 358.915C163.865 358.915 162.815 358.54 162.005 357.79C161.195 357.04 160.79 356.11 160.79 355C160.79 353.89 161.195 352.96 162.005 352.21C162.815 351.46 163.865 351.085 165.155 351.085C166.445 351.085 167.495 351.445 168.305 352.165C169.115 352.885 169.52 353.785 169.52 354.865C169.52 356.035 169.115 357.01 168.305 357.79C167.495 358.54 166.445 358.915 165.155 358.915ZM190.336 361.93C193.336 361.93 195.751 362.83 197.581 364.63C199.441 366.43 200.371 369.1 200.371 372.64V386.5H193.351V373.72C193.351 371.8 192.931 370.375 192.091 369.445C191.251 368.485 190.036 368.005 188.446 368.005C186.676 368.005 185.266 368.56 184.216 369.67C183.166 370.75 182.641 372.37 182.641 374.53V386.5H175.621V362.29H182.326V365.125C183.256 364.105 184.411 363.325 185.791 362.785C187.171 362.215 188.686 361.93 190.336 361.93ZM232.108 353.11V386.5H225.403V383.71C223.663 385.81 221.143 386.86 217.843 386.86C215.563 386.86 213.493 386.35 211.633 385.33C209.803 384.31 208.363 382.855 207.313 380.965C206.263 379.075 205.738 376.885 205.738 374.395C205.738 371.905 206.263 369.715 207.313 367.825C208.363 365.935 209.803 364.48 211.633 363.46C213.493 362.44 215.563 361.93 217.843 361.93C220.933 361.93 223.348 362.905 225.088 364.855V353.11H232.108ZM219.058 381.1C220.828 381.1 222.298 380.5 223.468 379.3C224.638 378.07 225.223 376.435 225.223 374.395C225.223 372.355 224.638 370.735 223.468 369.535C222.298 368.305 220.828 367.69 219.058 367.69C217.258 367.69 215.773 368.305 214.603 369.535C213.433 370.735 212.848 372.355 212.848 374.395C212.848 376.435 213.433 378.07 214.603 379.3C215.773 380.5 217.258 381.1 219.058 381.1ZM260.394 386.86C258.384 386.86 256.419 386.62 254.499 386.14C252.579 385.63 251.049 385 249.909 384.25L252.249 379.21C253.329 379.9 254.634 380.47 256.164 380.92C257.694 381.34 259.194 381.55 260.664 381.55C263.634 381.55 265.119 380.815 265.119 379.345C265.119 378.655 264.714 378.16 263.904 377.86C263.094 377.56 261.849 377.305 260.169 377.095C258.189 376.795 256.554 376.45 255.264 376.06C253.974 375.67 252.849 374.98 251.889 373.99C250.959 373 250.494 371.59 250.494 369.76C250.494 368.23 250.929 366.88 251.799 365.71C252.699 364.51 253.989 363.58 255.669 362.92C257.379 362.26 259.389 361.93 261.699 361.93C263.409 361.93 265.104 362.125 266.784 362.515C268.494 362.875 269.904 363.385 271.014 364.045L268.674 369.04C266.544 367.84 264.219 367.24 261.699 367.24C260.199 367.24 259.074 367.45 258.324 367.87C257.574 368.29 257.199 368.83 257.199 369.49C257.199 370.24 257.604 370.765 258.414 371.065C259.224 371.365 260.514 371.65 262.284 371.92C264.264 372.25 265.884 372.61 267.144 373C268.404 373.36 269.499 374.035 270.429 375.025C271.359 376.015 271.824 377.395 271.824 379.165C271.824 380.665 271.374 382 270.474 383.17C269.574 384.34 268.254 385.255 266.514 385.915C264.804 386.545 262.764 386.86 260.394 386.86ZM288.126 386.86C285.576 386.86 283.281 386.335 281.241 385.285C279.231 384.205 277.656 382.72 276.516 380.83C275.376 378.94 274.806 376.795 274.806 374.395C274.806 371.995 275.376 369.85 276.516 367.96C277.656 366.07 279.231 364.6 281.241 363.55C283.281 362.47 285.576 361.93 288.126 361.93C290.676 361.93 292.956 362.47 294.966 363.55C296.976 364.6 298.551 366.07 299.691 367.96C300.831 369.85 301.401 371.995 301.401 374.395C301.401 376.795 300.831 378.94 299.691 380.83C298.551 382.72 296.976 384.205 294.966 385.285C292.956 386.335 290.676 386.86 288.126 386.86ZM288.126 381.1C289.926 381.1 291.396 380.5 292.536 379.3C293.706 378.07 294.291 376.435 294.291 374.395C294.291 372.355 293.706 370.735 292.536 369.535C291.396 368.305 289.926 367.69 288.126 367.69C286.326 367.69 284.841 368.305 283.671 369.535C282.501 370.735 281.916 372.355 281.916 374.395C281.916 376.435 282.501 378.07 283.671 379.3C284.841 380.5 286.326 381.1 288.126 381.1ZM337.548 361.93C340.578 361.93 342.978 362.83 344.748 364.63C346.548 366.4 347.448 369.07 347.448 372.64V386.5H340.428V373.72C340.428 371.8 340.023 370.375 339.213 369.445C338.433 368.485 337.308 368.005 335.838 368.005C334.188 368.005 332.883 368.545 331.923 369.625C330.963 370.675 330.483 372.25 330.483 374.35V386.5H323.463V373.72C323.463 369.91 321.933 368.005 318.873 368.005C317.253 368.005 315.963 368.545 315.003 369.625C314.043 370.675 313.563 372.25 313.563 374.35V386.5H306.543V362.29H313.248V365.08C314.148 364.06 315.243 363.28 316.533 362.74C317.853 362.2 319.293 361.93 320.853 361.93C322.563 361.93 324.108 362.275 325.488 362.965C326.868 363.625 327.978 364.6 328.818 365.89C329.808 364.63 331.053 363.655 332.553 362.965C334.083 362.275 335.748 361.93 337.548 361.93ZM378.169 374.485C378.169 374.575 378.124 375.205 378.034 376.375H359.719C360.049 377.875 360.829 379.06 362.059 379.93C363.289 380.8 364.819 381.235 366.649 381.235C367.909 381.235 369.019 381.055 369.979 380.695C370.969 380.305 371.884 379.705 372.724 378.895L376.459 382.945C374.179 385.555 370.849 386.86 366.469 386.86C363.739 386.86 361.324 386.335 359.224 385.285C357.124 384.205 355.504 382.72 354.364 380.83C353.224 378.94 352.654 376.795 352.654 374.395C352.654 372.025 353.209 369.895 354.319 368.005C355.459 366.085 357.004 364.6 358.954 363.55C360.934 362.47 363.139 361.93 365.569 361.93C367.939 361.93 370.084 362.44 372.004 363.46C373.924 364.48 375.424 365.95 376.504 367.87C377.614 369.76 378.169 371.965 378.169 374.485ZM365.614 367.24C364.024 367.24 362.689 367.69 361.609 368.59C360.529 369.49 359.869 370.72 359.629 372.28H371.554C371.314 370.75 370.654 369.535 369.574 368.635C368.494 367.705 367.174 367.24 365.614 367.24ZM427.492 361.93C430.522 361.93 432.922 362.83 434.692 364.63C436.492 366.4 437.392 369.07 437.392 372.64V386.5H430.372V373.72C430.372 371.8 429.967 370.375 429.157 369.445C428.377 368.485 427.252 368.005 425.782 368.005C424.132 368.005 422.827 368.545 421.867 369.625C420.907 370.675 420.427 372.25 420.427 374.35V386.5H413.407V373.72C413.407 369.91 411.877 368.005 408.817 368.005C407.197 368.005 405.907 368.545 404.947 369.625C403.987 370.675 403.507 372.25 403.507 374.35V386.5H396.487V362.29H403.192V365.08C404.092 364.06 405.187 363.28 406.477 362.74C407.797 362.2 409.237 361.93 410.797 361.93C412.507 361.93 414.052 362.275 415.432 362.965C416.812 363.625 417.922 364.6 418.762 365.89C419.752 364.63 420.997 363.655 422.497 362.965C424.027 362.275 425.692 361.93 427.492 361.93ZM455.918 386.86C453.368 386.86 451.073 386.335 449.033 385.285C447.023 384.205 445.448 382.72 444.308 380.83C443.168 378.94 442.598 376.795 442.598 374.395C442.598 371.995 443.168 369.85 444.308 367.96C445.448 366.07 447.023 364.6 449.033 363.55C451.073 362.47 453.368 361.93 455.918 361.93C458.468 361.93 460.748 362.47 462.758 363.55C464.768 364.6 466.343 366.07 467.483 367.96C468.623 369.85 469.193 371.995 469.193 374.395C469.193 376.795 468.623 378.94 467.483 380.83C466.343 382.72 464.768 384.205 462.758 385.285C460.748 386.335 458.468 386.86 455.918 386.86ZM455.918 381.1C457.718 381.1 459.188 380.5 460.328 379.3C461.498 378.07 462.083 376.435 462.083 374.395C462.083 372.355 461.498 370.735 460.328 369.535C459.188 368.305 457.718 367.69 455.918 367.69C454.118 367.69 452.633 368.305 451.463 369.535C450.293 370.735 449.708 372.355 449.708 374.395C449.708 376.435 450.293 378.07 451.463 379.3C452.633 380.5 454.118 381.1 455.918 381.1ZM481.04 365.485C481.88 364.315 483.005 363.43 484.415 362.83C485.855 362.23 487.505 361.93 489.365 361.93V368.41C488.585 368.35 488.06 368.32 487.79 368.32C485.78 368.32 484.205 368.89 483.065 370.03C481.925 371.14 481.355 372.82 481.355 375.07V386.5H474.335V362.29H481.04V365.485ZM517.484 374.485C517.484 374.575 517.439 375.205 517.349 376.375H499.034C499.364 377.875 500.144 379.06 501.374 379.93C502.604 380.8 504.134 381.235 505.964 381.235C507.224 381.235 508.334 381.055 509.294 380.695C510.284 380.305 511.199 379.705 512.039 378.895L515.774 382.945C513.494 385.555 510.164 386.86 505.784 386.86C503.054 386.86 500.639 386.335 498.539 385.285C496.439 384.205 494.819 382.72 493.679 380.83C492.539 378.94 491.969 376.795 491.969 374.395C491.969 372.025 492.524 369.895 493.634 368.005C494.774 366.085 496.319 364.6 498.269 363.55C500.249 362.47 502.454 361.93 504.884 361.93C507.254 361.93 509.399 362.44 511.319 363.46C513.239 364.48 514.739 365.95 515.819 367.87C516.929 369.76 517.484 371.965 517.484 374.485ZM504.929 367.24C503.339 367.24 502.004 367.69 500.924 368.59C499.844 369.49 499.184 370.72 498.944 372.28H510.869C510.629 370.75 509.969 369.535 508.889 368.635C507.809 367.705 506.489 367.24 504.929 367.24Z" fill="#2F2E44"/>
<path d="M92.97 71.49C92.97 71.55 92.94 71.97 92.88 72.75H80.67C80.89 73.75 81.41 74.54 82.23 75.12C83.05 75.7 84.07 75.99 85.29 75.99C86.13 75.99 86.87 75.87 87.51 75.63C88.17 75.37 88.78 74.97 89.34 74.43L91.83 77.13C90.31 78.87 88.09 79.74 85.17 79.74C83.35 79.74 81.74 79.39 80.34 78.69C78.94 77.97 77.86 76.98 77.1 75.72C76.34 74.46 75.96 73.03 75.96 71.43C75.96 69.85 76.33 68.43 77.07 67.17C77.83 65.89 78.86 64.9 80.16 64.2C81.48 63.48 82.95 63.12 84.57 63.12C86.15 63.12 87.58 63.46 88.86 64.14C90.14 64.82 91.14 65.8 91.86 67.08C92.6 68.34 92.97 69.81 92.97 71.49ZM84.6 66.66C83.54 66.66 82.65 66.96 81.93 67.56C81.21 68.16 80.77 68.98 80.61 70.02H88.56C88.4 69 87.96 68.19 87.24 67.59C86.52 66.97 85.64 66.66 84.6 66.66ZM106.196 63.12C108.196 63.12 109.806 63.72 111.026 64.92C112.266 66.12 112.886 67.9 112.886 70.26V79.5H108.206V70.98C108.206 69.7 107.926 68.75 107.366 68.13C106.806 67.49 105.996 67.17 104.936 67.17C103.756 67.17 102.816 67.54 102.116 68.28C101.416 69 101.066 70.08 101.066 71.52V79.5H96.3858V63.36H100.856V65.25C101.476 64.57 102.246 64.05 103.166 63.69C104.086 63.31 105.096 63.12 106.196 63.12ZM134.254 63.36V76.8C134.254 79.76 133.484 81.96 131.944 83.4C130.404 84.84 128.154 85.56 125.194 85.56C123.634 85.56 122.154 85.37 120.754 84.99C119.354 84.61 118.194 84.06 117.274 83.34L119.134 79.98C119.814 80.54 120.674 80.98 121.714 81.3C122.754 81.64 123.794 81.81 124.834 81.81C126.454 81.81 127.644 81.44 128.404 80.7C129.184 79.98 129.574 78.88 129.574 77.4V76.71C128.354 78.05 126.654 78.72 124.474 78.72C122.994 78.72 121.634 78.4 120.394 77.76C119.174 77.1 118.204 76.18 117.484 75C116.764 73.82 116.404 72.46 116.404 70.92C116.404 69.38 116.764 68.02 117.484 66.84C118.204 65.66 119.174 64.75 120.394 64.11C121.634 63.45 122.994 63.12 124.474 63.12C126.814 63.12 128.594 63.89 129.814 65.43V63.36H134.254ZM125.404 74.88C126.644 74.88 127.654 74.52 128.434 73.8C129.234 73.06 129.634 72.1 129.634 70.92C129.634 69.74 129.234 68.79 128.434 68.07C127.654 67.33 126.644 66.96 125.404 66.96C124.164 66.96 123.144 67.33 122.344 68.07C121.544 68.79 121.144 69.74 121.144 70.92C121.144 72.1 121.544 73.06 122.344 73.8C123.144 74.52 124.164 74.88 125.404 74.88ZM138.91 57.24H143.59V79.5H138.91V57.24ZM148.233 63.36H152.913V79.5H148.233V63.36ZM150.573 61.11C149.713 61.11 149.013 60.86 148.473 60.36C147.933 59.86 147.663 59.24 147.663 58.5C147.663 57.76 147.933 57.14 148.473 56.64C149.013 56.14 149.713 55.89 150.573 55.89C151.433 55.89 152.133 56.13 152.673 56.61C153.213 57.09 153.483 57.69 153.483 58.41C153.483 59.19 153.213 59.84 152.673 60.36C152.133 60.86 151.433 61.11 150.573 61.11ZM162.986 79.74C161.646 79.74 160.336 79.58 159.056 79.26C157.776 78.92 156.756 78.5 155.996 78L157.556 74.64C158.276 75.1 159.146 75.48 160.166 75.78C161.186 76.06 162.186 76.2 163.166 76.2C165.146 76.2 166.136 75.71 166.136 74.73C166.136 74.27 165.866 73.94 165.326 73.74C164.786 73.54 163.956 73.37 162.836 73.23C161.516 73.03 160.426 72.8 159.566 72.54C158.706 72.28 157.956 71.82 157.316 71.16C156.696 70.5 156.386 69.56 156.386 68.34C156.386 67.32 156.676 66.42 157.256 65.64C157.856 64.84 158.716 64.22 159.836 63.78C160.976 63.34 162.316 63.12 163.856 63.12C164.996 63.12 166.126 63.25 167.246 63.51C168.386 63.75 169.326 64.09 170.066 64.53L168.506 67.86C167.086 67.06 165.536 66.66 163.856 66.66C162.856 66.66 162.106 66.8 161.606 67.08C161.106 67.36 160.856 67.72 160.856 68.16C160.856 68.66 161.126 69.01 161.666 69.21C162.206 69.41 163.066 69.6 164.246 69.78C165.566 70 166.646 70.24 167.486 70.5C168.326 70.74 169.056 71.19 169.676 71.85C170.296 72.51 170.606 73.43 170.606 74.61C170.606 75.61 170.306 76.5 169.706 77.28C169.106 78.06 168.226 78.67 167.066 79.11C165.926 79.53 164.566 79.74 162.986 79.74ZM183.604 63.12C185.604 63.12 187.214 63.72 188.434 64.92C189.674 66.12 190.294 67.9 190.294 70.26V79.5H185.614V70.98C185.614 69.7 185.334 68.75 184.774 68.13C184.214 67.49 183.404 67.17 182.344 67.17C181.164 67.17 180.224 67.54 179.524 68.28C178.824 69 178.474 70.08 178.474 71.52V79.5H173.794V57.24H178.474V65.04C179.094 64.42 179.844 63.95 180.724 63.63C181.604 63.29 182.564 63.12 183.604 63.12ZM204.646 63.12C206.646 63.12 208.256 63.72 209.476 64.92C210.716 66.12 211.336 67.9 211.336 70.26V79.5H206.656V70.98C206.656 69.7 206.376 68.75 205.816 68.13C205.256 67.49 204.446 67.17 203.386 67.17C202.206 67.17 201.266 67.54 200.566 68.28C199.866 69 199.516 70.08 199.516 71.52V79.5H194.836V63.36H199.306V65.25C199.926 64.57 200.696 64.05 201.616 63.69C202.536 63.31 203.546 63.12 204.646 63.12ZM231.864 71.49C231.864 71.55 231.834 71.97 231.774 72.75H219.564C219.784 73.75 220.304 74.54 221.124 75.12C221.944 75.7 222.964 75.99 224.184 75.99C225.024 75.99 225.764 75.87 226.404 75.63C227.064 75.37 227.674 74.97 228.234 74.43L230.724 77.13C229.204 78.87 226.984 79.74 224.064 79.74C222.244 79.74 220.634 79.39 219.234 78.69C217.834 77.97 216.754 76.98 215.994 75.72C215.234 74.46 214.854 73.03 214.854 71.43C214.854 69.85 215.224 68.43 215.964 67.17C216.724 65.89 217.754 64.9 219.054 64.2C220.374 63.48 221.844 63.12 223.464 63.12C225.044 63.12 226.474 63.46 227.754 64.14C229.034 64.82 230.034 65.8 230.754 67.08C231.494 68.34 231.864 69.81 231.864 71.49ZM223.494 66.66C222.434 66.66 221.544 66.96 220.824 67.56C220.104 68.16 219.664 68.98 219.504 70.02H227.454C227.294 69 226.854 68.19 226.134 67.59C225.414 66.97 224.534 66.66 223.494 66.66ZM239.75 65.49C240.31 64.71 241.06 64.12 242 63.72C242.96 63.32 244.06 63.12 245.3 63.12V67.44C244.78 67.4 244.43 67.38 244.25 67.38C242.91 67.38 241.86 67.76 241.1 68.52C240.34 69.26 239.96 70.38 239.96 71.88V79.5H235.28V63.36H239.75V65.49ZM264.676 57.24V79.5H260.206V77.64C259.046 79.04 257.366 79.74 255.166 79.74C253.646 79.74 252.266 79.4 251.026 78.72C249.806 78.04 248.846 77.07 248.146 75.81C247.446 74.55 247.096 73.09 247.096 71.43C247.096 69.77 247.446 68.31 248.146 67.05C248.846 65.79 249.806 64.82 251.026 64.14C252.266 63.46 253.646 63.12 255.166 63.12C257.226 63.12 258.836 63.77 259.996 65.07V57.24H264.676ZM255.976 75.9C257.156 75.9 258.136 75.5 258.916 74.7C259.696 73.88 260.086 72.79 260.086 71.43C260.086 70.07 259.696 68.99 258.916 68.19C258.136 67.37 257.156 66.96 255.976 66.96C254.776 66.96 253.786 67.37 253.006 68.19C252.226 68.99 251.836 70.07 251.836 71.43C251.836 72.79 252.226 73.88 253.006 74.7C253.786 75.5 254.776 75.9 255.976 75.9ZM271.078 79.74C270.258 79.74 269.568 79.46 269.008 78.9C268.448 78.34 268.168 77.64 268.168 76.8C268.168 75.94 268.448 75.25 269.008 74.73C269.568 74.19 270.258 73.92 271.078 73.92C271.898 73.92 272.588 74.19 273.148 74.73C273.708 75.25 273.988 75.94 273.988 76.8C273.988 77.64 273.708 78.34 273.148 78.9C272.588 79.46 271.898 79.74 271.078 79.74ZM284.934 79.74C283.234 79.74 281.704 79.39 280.344 78.69C279.004 77.97 277.954 76.98 277.194 75.72C276.434 74.46 276.054 73.03 276.054 71.43C276.054 69.83 276.434 68.4 277.194 67.14C277.954 65.88 279.004 64.9 280.344 64.2C281.704 63.48 283.234 63.12 284.934 63.12C286.634 63.12 288.154 63.48 289.494 64.2C290.834 64.9 291.884 65.88 292.644 67.14C293.404 68.4 293.784 69.83 293.784 71.43C293.784 73.03 293.404 74.46 292.644 75.72C291.884 76.98 290.834 77.97 289.494 78.69C288.154 79.39 286.634 79.74 284.934 79.74ZM284.934 75.9C286.134 75.9 287.114 75.5 287.874 74.7C288.654 73.88 289.044 72.79 289.044 71.43C289.044 70.07 288.654 68.99 287.874 68.19C287.114 67.37 286.134 66.96 284.934 66.96C283.734 66.96 282.744 67.37 281.964 68.19C281.184 68.99 280.794 70.07 280.794 71.43C280.794 72.79 281.184 73.88 281.964 74.7C282.744 75.5 283.734 75.9 284.934 75.9ZM301.682 65.49C302.242 64.71 302.992 64.12 303.932 63.72C304.892 63.32 305.992 63.12 307.232 63.12V67.44C306.712 67.4 306.362 67.38 306.182 67.38C304.842 67.38 303.792 67.76 303.032 68.52C302.272 69.26 301.892 70.38 301.892 71.88V79.5H297.212V63.36H301.682V65.49ZM326.819 63.36V76.8C326.819 79.76 326.049 81.96 324.509 83.4C322.969 84.84 320.719 85.56 317.759 85.56C316.199 85.56 314.719 85.37 313.319 84.99C311.919 84.61 310.759 84.06 309.839 83.34L311.699 79.98C312.379 80.54 313.239 80.98 314.279 81.3C315.319 81.64 316.359 81.81 317.399 81.81C319.019 81.81 320.209 81.44 320.969 80.7C321.749 79.98 322.139 78.88 322.139 77.4V76.71C320.919 78.05 319.219 78.72 317.039 78.72C315.559 78.72 314.199 78.4 312.959 77.76C311.739 77.1 310.769 76.18 310.049 75C309.329 73.82 308.969 72.46 308.969 70.92C308.969 69.38 309.329 68.02 310.049 66.84C310.769 65.66 311.739 64.75 312.959 64.11C314.199 63.45 315.559 63.12 317.039 63.12C319.379 63.12 321.159 63.89 322.379 65.43V63.36H326.819ZM317.969 74.88C319.209 74.88 320.219 74.52 320.999 73.8C321.799 73.06 322.199 72.1 322.199 70.92C322.199 69.74 321.799 68.79 320.999 68.07C320.219 67.33 319.209 66.96 317.969 66.96C316.729 66.96 315.709 67.33 314.909 68.07C314.109 68.79 313.709 69.74 313.709 70.92C313.709 72.1 314.109 73.06 314.909 73.8C315.709 74.52 316.729 74.88 317.969 74.88Z" fill="#848499"/>
<circle cx="970" cy="238.5" r="375" transform="rotate(-45 970 238.5)" fill="#FF8BA4"/>
<path d="M598.75 185.448L1023.05 609.751C910.27 625.779 791.587 590.417 704.835 503.665C618.083 416.913 582.721 298.23 598.75 185.448Z" fill="#FF99B0"/>
<path d="M598.75 185.448C606.423 131.453 625.875 78.8113 657.106 31.6723L1176.83 551.394C1129.69 582.625 1077.05 602.077 1023.05 609.75L598.75 185.448Z" fill="#FF8CA6"/>
<path d="M763.172 -74.3936L1282.89 445.328C1269.24 465.942 1253.33 485.503 1235.17 503.665C1217 521.827 1197.44 537.737 1176.83 551.394L657.106 31.6724C670.763 11.0586 686.673 -8.50285 704.835 -26.6648C722.997 -44.8268 742.558 -60.7364 763.172 -74.3936Z" fill="#FF809C"/>
<path d="M916.948 -132.75L1341.25 291.553C1333.58 345.547 1314.12 398.189 1282.89 445.328L763.172 -74.3936C810.311 -105.624 862.953 -125.077 916.948 -132.75Z" fill="#FF7392"/>
<path d="M1341.25 291.553C1357.28 178.77 1321.92 60.0878 1235.17 -26.6646C1148.41 -113.417 1029.73 -148.779 916.948 -132.75L1341.25 291.553Z" fill="#FF6688"/>
<circle cx="970" cy="238.5" r="375" transform="rotate(-45 970 238.5)" fill="url(#paint0_linear)"/>
<g filter="url(#filter0_d)">
<path d="M1044.93 398.92L1041.78 407.953C1041.78 407.953 1022.06 429.782 1036.26 432.793C1050.45 435.804 1052.03 409.458 1052.03 409.458L1055.97 401.931L1044.93 398.92Z" fill="#FFB8B8"/>
<path d="M1067.01 289.773C1067.01 289.773 1062.28 289.02 1060.7 307.086C1059.13 325.152 1058.34 356.767 1058.34 356.767L1040.2 401.178L1063.07 407.953L1074.11 357.52L1067.01 289.773Z" fill="#575A89"/>
<path d="M1056.76 558.5L1054.39 572.802H1075.69L1074.9 558.5H1056.76Z" fill="#FFB8B8"/>
<path d="M1125.36 574.308L1123.79 593.88L1137.98 595.385V572.803L1125.36 574.308Z" fill="#FFB8B8"/>
<path d="M1065.43 371.821L1047.3 471.183L1052.03 561.512H1076.47V479.463L1100.13 437.31L1119.06 490.001L1123.79 578.072L1150.6 573.555L1144.29 487.743C1144.29 487.743 1139.56 373.327 1134.83 371.821C1130.1 370.316 1065.43 371.821 1065.43 371.821Z" fill="#333244"/>
<path d="M1059.13 568.286C1059.13 568.286 1059.13 560.759 1052.82 565.275C1046.51 569.792 1038.62 578.072 1038.62 578.072C1038.62 578.072 1008.66 593.879 1029.95 596.137C1051.24 598.396 1064.65 585.599 1064.65 585.599L1067.01 587.857C1067.01 587.857 1079.63 585.599 1079.63 582.588C1079.54 580.065 1079.27 577.551 1078.84 575.061C1078.84 575.061 1077.18 562.293 1075.25 564.913C1073.32 567.533 1062.28 572.803 1059.13 568.286Z" fill="#333244"/>
<path d="M1138.77 589.362C1138.77 589.362 1124.58 582.588 1121.42 588.61C1118.27 594.631 1115.9 606.675 1115.9 606.675C1115.9 606.675 1105.65 625.494 1123.79 623.988C1141.92 622.483 1141.14 612.697 1141.14 610.439C1141.14 608.181 1140.35 602.912 1141.14 600.653C1141.92 598.395 1138.77 589.362 1138.77 589.362Z" fill="#333244"/>
<path d="M1107.62 260.039C1119.82 260.039 1129.7 250.603 1129.7 238.962C1129.7 227.322 1119.82 217.886 1107.62 217.886C1095.43 217.886 1085.54 227.322 1085.54 238.962C1085.54 250.603 1095.43 260.039 1107.62 260.039Z" fill="#FFB8B8"/>
<path d="M1093.03 249.125L1092.24 276.224L1120.63 273.965V249.125H1093.03Z" fill="#FFB8B8"/>
<path d="M1122.21 260.416C1122.21 260.416 1108.8 268.696 1104.86 270.202C1100.92 271.707 1092.24 264.18 1092.24 264.18C1092.24 264.18 1089.88 265.685 1089.88 267.191C1089.88 268.696 1088.3 274.718 1088.3 274.718L1069.38 334.184L1070.95 376.338C1070.95 376.338 1128.52 381.607 1134.83 374.832C1141.14 368.058 1131.67 270.954 1131.67 270.954L1122.21 260.416Z" fill="#E6E6E6"/>
<path d="M1174.25 439.567C1165.58 444.837 1137.19 451.611 1137.19 451.611C1137.19 451.611 1134.09 387.892 1123 377.843C1111.97 367.839 1093.96 295.719 1110.15 283.178C1110.23 283.114 1110.3 283.053 1110.38 282.998L1120.63 260.416C1120.63 260.416 1122.21 258.157 1125.36 261.168C1127.92 263.778 1130.29 266.544 1132.46 269.448L1132.91 269.621L1154.54 277.728L1145.87 314.613C1145.87 314.613 1182.93 434.298 1174.25 439.567Z" fill="#575A89"/>
<path opacity="0.1" d="M1132.91 269.622L1126.94 290.525L1110.15 283.178C1110.23 283.114 1110.3 283.053 1110.38 282.998L1120.63 260.416C1120.63 260.416 1122.21 258.157 1125.36 261.168C1127.92 263.778 1130.29 266.544 1132.46 269.448L1132.91 269.622Z" fill="black"/>
<path d="M1091.85 263.804L1089.48 289.397L1089.36 290.564L1071.35 454.247C1071.35 454.247 1055.58 448.978 1050.06 442.956C1044.54 436.934 1062.67 369.94 1062.67 369.94L1064.25 285.633C1064.25 285.633 1078.24 276.231 1083.96 271.068C1085.3 269.863 1086.18 268.892 1086.33 268.32C1087.12 265.309 1091.85 263.804 1091.85 263.804Z" fill="#575A89"/>
<path opacity="0.1" d="M1091.85 263.804L1089.48 289.397L1089.36 290.564L1078.05 289.02L1083.96 271.068C1085.3 269.863 1086.18 268.892 1086.33 268.32C1087.12 265.309 1091.85 263.804 1091.85 263.804Z" fill="black"/>
<path d="M1134.04 390.64L1125.36 398.167C1125.36 398.167 1129.31 413.975 1134.04 414.727C1134.04 414.727 1137.19 410.211 1137.98 406.447C1138.77 402.683 1145.87 398.92 1145.87 398.92L1134.04 390.64Z" fill="#FFB8B8"/>
<path d="M1144.29 276.224L1154.54 277.729C1154.54 277.729 1188.45 332.679 1184.51 352.25C1180.56 371.821 1149.02 405.695 1149.02 405.695L1129.31 390.64L1158.48 353.003L1143.5 307.839L1144.29 276.224Z" fill="#575A89"/>
<path d="M1085.49 241.33C1085.49 241.33 1085.49 222.743 1090.22 218.518H1095.9C1095.9 218.518 1102.53 209.225 1111.04 212.604C1119.56 215.984 1133.76 221.898 1132.81 231.192C1131.86 240.485 1128.91 246.49 1128.91 246.49C1128.91 246.49 1127.34 246.49 1123.82 241.438C1119.12 234.687 1129.97 236.791 1115.78 234.256C1101.58 231.722 1093.06 228.342 1091.17 231.722C1089.28 235.101 1085.49 241.33 1085.49 241.33Z" fill="#2F2E41"/>
<path d="M1095.81 219.78C1095.81 219.78 1096.56 214.347 1099.68 213.178L1095.81 219.78Z" fill="#2F2E41"/>
<path d="M1095.79 220.897C1095.79 220.897 1094.22 215.628 1096.58 213.369L1095.79 220.897Z" fill="#2F2E41"/>
<path d="M1003.95 174.5H572.33C566.807 174.5 562.33 178.977 562.33 184.5V438.557C562.33 444.08 566.807 448.557 572.33 448.557H1003.95C1009.47 448.557 1013.95 444.08 1013.95 438.557V184.5C1013.95 178.977 1009.47 174.5 1003.95 174.5Z" fill="#EBEEF2"/>
<path d="M1013.95 195.581V188.052H1000.07V174.5H994.028V188.052H582.254V174.5H576.216V188.052H562.33V195.581H576.216V427.476H562.33V435.005H576.216V448.557H582.254V435.005H994.028V448.557H1000.07V435.005H1013.95V427.476H1000.07V195.581H1013.95ZM994.028 427.476H582.254V195.581H994.028L994.028 427.476Z" fill="#D0D4D9"/>
<path d="M911.041 210.632H828.038C825.276 210.632 823.038 212.87 823.038 215.632V290.081C823.038 292.842 825.276 295.081 828.038 295.081H911.041C913.803 295.081 916.041 292.842 916.041 290.081V215.632C916.041 212.87 913.803 210.632 911.041 210.632Z" fill="#C2C6CC"/>
<path d="M902.972 220.72H836.106C834.725 220.72 833.606 221.839 833.606 223.22V270.68C833.606 272.061 834.725 273.18 836.106 273.18H902.972C904.353 273.18 905.472 272.061 905.472 270.68V223.22C905.472 221.839 904.353 220.72 902.972 220.72Z" fill="#6C63FF"/>
<path d="M872.115 229.341H851.92C850.54 229.341 849.42 230.46 849.42 231.841V250.891C849.42 252.272 850.54 253.391 851.92 253.391H872.115C873.496 253.391 874.615 252.272 874.615 250.891V231.841C874.615 230.46 873.496 229.341 872.115 229.341Z" fill="#F2F2F2"/>
<path d="M861.565 235.355C860.184 235.355 859.065 236.475 859.065 237.855V262.059C859.065 263.44 860.184 264.559 861.565 264.559H887.158C888.539 264.559 889.658 263.44 889.658 262.059V237.855C889.658 236.475 888.539 235.355 887.158 235.355H861.565ZM888.331 260.792C888.331 262.173 887.212 263.292 885.831 263.292H862.892C861.511 263.292 860.392 262.173 860.392 260.792V239.122C860.392 237.741 861.511 236.622 862.892 236.622H885.831C887.212 236.622 888.331 237.741 888.331 239.122V260.792Z" fill="#3F3D56"/>
<path d="M871.644 278.388H834.517C833.975 278.388 833.535 278.827 833.535 279.37C833.535 279.912 833.975 280.352 834.517 280.352H871.644C872.186 280.352 872.625 279.912 872.625 279.37C872.625 278.827 872.186 278.388 871.644 278.388Z" fill="#F2F2F2"/>
<path d="M869.539 219.469C871.812 219.469 873.654 217.71 873.654 215.541C873.654 213.372 871.812 211.613 869.539 211.613C867.267 211.613 865.425 213.372 865.425 215.541C865.425 217.71 867.267 219.469 869.539 219.469Z" fill="#3F3D56"/>
<path d="M946.117 332.433H863.114C860.352 332.433 858.114 334.671 858.114 337.433V411.882C858.114 414.643 860.352 416.882 863.114 416.882H946.117C948.879 416.882 951.117 414.643 951.117 411.882V337.433C951.117 334.671 948.879 332.433 946.117 332.433Z" fill="#C2C6CC"/>
<path d="M938.049 342.521H871.182C869.802 342.521 868.682 343.641 868.682 345.021V392.482C868.682 393.862 869.802 394.982 871.182 394.982H938.049C939.429 394.982 940.549 393.862 940.549 392.482V345.021C940.549 343.641 939.429 342.521 938.049 342.521Z" fill="#6C63FF"/>
<path d="M906.72 401.171H869.593C869.051 401.171 868.611 401.611 868.611 402.153C868.611 402.695 869.051 403.135 869.593 403.135H906.72C907.262 403.135 907.702 402.695 907.702 402.153C907.702 401.611 907.262 401.171 906.72 401.171Z" fill="#F2F2F2"/>
<path d="M906.72 407.062H869.593C869.051 407.062 868.611 407.502 868.611 408.044C868.611 408.587 869.051 409.026 869.593 409.026H906.72C907.262 409.026 907.702 408.587 907.702 408.044C907.702 407.502 907.262 407.062 906.72 407.062Z" fill="#F2F2F2"/>
<path d="M881.47 376.622C886.015 376.622 889.699 373.105 889.699 368.766C889.699 364.427 886.015 360.91 881.47 360.91C876.925 360.91 873.24 364.427 873.24 368.766C873.24 373.105 876.925 376.622 881.47 376.622Z" fill="#3F3D56"/>
<path d="M904.616 376.622C909.161 376.622 912.845 373.105 912.845 368.766C912.845 364.427 909.161 360.91 904.616 360.91C900.07 360.91 896.386 364.427 896.386 368.766C896.386 373.105 900.07 376.622 904.616 376.622Z" fill="#F2F2F2"/>
<path d="M927.761 376.622C932.306 376.622 935.991 373.105 935.991 368.766C935.991 364.427 932.306 360.91 927.761 360.91C923.216 360.91 919.532 364.427 919.532 368.766C919.532 373.105 923.216 376.622 927.761 376.622Z" fill="#FF6584"/>
<path d="M904.616 341.271C906.888 341.271 908.73 339.512 908.73 337.343C908.73 335.174 906.888 333.415 904.616 333.415C902.343 333.415 900.501 335.174 900.501 337.343C900.501 339.512 902.343 341.271 904.616 341.271Z" fill="#3F3D56"/>
<path d="M803.781 306.047H720.778C718.016 306.047 715.778 308.285 715.778 311.047V385.496C715.778 388.258 718.016 390.496 720.778 390.496H803.781C806.543 390.496 808.781 388.258 808.781 385.496V311.047C808.781 308.285 806.543 306.047 803.781 306.047Z" fill="#C2C6CC"/>
<path d="M795.713 316.135H728.846C727.466 316.135 726.346 317.254 726.346 318.635V366.095C726.346 367.476 727.466 368.595 728.846 368.595H795.713C797.093 368.595 798.213 367.476 798.213 366.095V318.635C798.213 317.254 797.093 316.135 795.713 316.135Z" fill="#6C63FF"/>
<path d="M757.494 365.152C767.13 365.152 774.942 357.695 774.942 348.496C774.942 339.298 767.13 331.841 757.494 331.841C747.858 331.841 740.046 339.298 740.046 348.496C740.046 357.695 747.858 365.152 757.494 365.152Z" fill="#F2F2F2"/>
<path d="M762.637 361.343C758.31 361.343 754.081 360.119 750.483 357.824C746.886 355.53 744.082 352.268 742.426 348.452C740.77 344.637 740.337 340.438 741.181 336.387C742.025 332.337 744.109 328.616 747.168 325.695C750.228 322.775 754.126 320.786 758.369 319.98C762.612 319.175 767.011 319.588 771.008 321.169C775.006 322.749 778.422 325.426 780.826 328.86C783.23 332.294 784.513 336.331 784.513 340.461C784.506 345.998 782.199 351.305 778.098 355.22C773.997 359.135 768.437 361.337 762.637 361.343ZM762.637 320.338C758.467 320.338 754.392 321.519 750.925 323.73C747.459 325.941 744.757 329.084 743.161 332.761C741.566 336.438 741.148 340.484 741.962 344.387C742.775 348.29 744.783 351.876 747.731 354.69C750.679 357.504 754.435 359.421 758.524 360.197C762.613 360.974 766.852 360.575 770.704 359.052C774.556 357.529 777.848 354.95 780.164 351.641C782.481 348.332 783.717 344.441 783.717 340.461C783.711 335.126 781.488 330.011 777.536 326.239C773.584 322.466 768.226 320.344 762.637 320.338Z" fill="#3F3D56"/>
<path d="M764.383 379.694H727.257C726.715 379.694 726.275 380.134 726.275 380.676C726.275 381.219 726.715 381.658 727.257 381.658H764.383C764.926 381.658 765.365 381.219 765.365 380.676C765.365 380.134 764.926 379.694 764.383 379.694Z" fill="#F2F2F2"/>
<path d="M779.814 373.803H727.257C726.715 373.803 726.275 374.242 726.275 374.785C726.275 375.327 726.715 375.767 727.257 375.767H779.814C780.356 375.767 780.796 375.327 780.796 374.785C780.796 374.242 780.356 373.803 779.814 373.803Z" fill="#F2F2F2"/>
<path d="M762.279 314.884C764.552 314.884 766.394 313.125 766.394 310.956C766.394 308.787 764.552 307.028 762.279 307.028C760.007 307.028 758.165 308.787 758.165 310.956C758.165 313.125 760.007 314.884 762.279 314.884Z" fill="#3F3D56"/>
<path d="M701.561 209.126H618.557C615.796 209.126 613.557 211.365 613.557 214.126V288.575C613.557 291.337 615.796 293.575 618.557 293.575H701.561C704.322 293.575 706.561 291.337 706.561 288.575V214.126C706.561 211.365 704.322 209.126 701.561 209.126Z" fill="#C2C6CC"/>
<path d="M693.492 219.215H626.626C625.245 219.215 624.126 220.334 624.126 221.715V269.175C624.126 270.556 625.245 271.675 626.626 271.675H693.492C694.873 271.675 695.992 270.556 695.992 269.175V221.715C695.992 220.334 694.873 219.215 693.492 219.215Z" fill="#6C63FF"/>
<path d="M665.602 260.283H654.515C653.307 260.283 652.328 261.262 652.328 262.47C652.328 263.678 653.307 264.657 654.515 264.657H665.602C666.81 264.657 667.789 263.678 667.789 262.47C667.789 261.262 666.81 260.283 665.602 260.283Z" fill="#3F3D56"/>
<path d="M685.543 226.232H634.575C634.057 226.232 633.637 226.652 633.637 227.17C633.637 227.687 634.057 228.107 634.575 228.107H685.543C686.06 228.107 686.48 227.687 686.48 227.17C686.48 226.652 686.06 226.232 685.543 226.232Z" fill="#3F3D56"/>
<path d="M685.543 232.168H634.575C634.057 232.168 633.637 232.588 633.637 233.105C633.637 233.623 634.057 234.042 634.575 234.042H685.543C686.06 234.042 686.48 233.623 686.48 233.105C686.48 232.588 686.06 232.168 685.543 232.168Z" fill="#3F3D56"/>
<path d="M685.543 238.104H634.575C634.057 238.104 633.637 238.523 633.637 239.041C633.637 239.558 634.057 239.978 634.575 239.978H685.543C686.06 239.978 686.48 239.558 686.48 239.041C686.48 238.523 686.06 238.104 685.543 238.104Z" fill="#3F3D56"/>
<path d="M685.543 244.039H634.575C634.057 244.039 633.637 244.459 633.637 244.976C633.637 245.494 634.057 245.913 634.575 245.913H685.543C686.06 245.913 686.48 245.494 686.48 244.976C686.48 244.459 686.06 244.039 685.543 244.039Z" fill="#3F3D56"/>
<path d="M685.543 249.975H634.575C634.057 249.975 633.637 250.394 633.637 250.912C633.637 251.429 634.057 251.849 634.575 251.849H685.543C686.06 251.849 686.48 251.429 686.48 250.912C686.48 250.394 686.06 249.975 685.543 249.975Z" fill="#3F3D56"/>
<path d="M662.163 276.882H625.036C624.494 276.882 624.054 277.321 624.054 277.864C624.054 278.406 624.494 278.846 625.036 278.846H662.163C662.705 278.846 663.145 278.406 663.145 277.864C663.145 277.321 662.705 276.882 662.163 276.882Z" fill="#F2F2F2"/>
<path d="M677.593 281.792H625.036C624.494 281.792 624.054 282.232 624.054 282.774C624.054 283.316 624.494 283.756 625.036 283.756H677.593C678.136 283.756 678.575 283.316 678.575 282.774C678.575 282.232 678.136 281.792 677.593 281.792Z" fill="#F2F2F2"/>
<path d="M660.059 217.963C662.331 217.963 664.174 216.205 664.174 214.035C664.174 211.866 662.331 210.107 660.059 210.107C657.786 210.107 655.944 211.866 655.944 214.035C655.944 216.205 657.786 217.963 660.059 217.963Z" fill="#3F3D56"/>
<path fill-rule="evenodd" clip-rule="evenodd" d="M575.365 174.5H571.479C565.956 174.5 561.479 178.977 561.479 184.5V188.052V195.581V427.476V435.005V438.557C561.479 444.08 565.956 448.557 571.479 448.557H575.365H581.403H993.177H999.214H1003.1C1008.62 448.557 1013.1 444.08 1013.1 438.557L1013.1 435.005V427.476V195.581V188.052L1013.1 184.5C1013.1 178.977 1008.62 174.5 1003.1 174.5H999.214H993.177H581.403H575.365ZM1085.81 236.176C1085.76 237.614 1085.76 238.507 1085.76 238.507L1085.91 238.245C1086.47 243.623 1089.15 248.406 1093.14 251.824L1092.85 261.645C1092.63 261.462 1092.51 261.356 1092.51 261.356C1092.51 261.356 1092.32 261.476 1092.05 261.682L1092.11 260.98C1092.11 260.98 1091.82 261.074 1091.36 261.262C1089.99 261.827 1087.19 263.238 1086.59 265.496C1086.44 266.068 1085.56 267.039 1084.22 268.244C1078.5 273.407 1064.51 282.809 1064.51 282.809L1064.39 289.346C1063.09 291.59 1061.69 295.92 1060.97 304.262C1059.39 322.328 1058.6 353.943 1058.6 353.943L1040.46 398.355L1044.04 399.413L1042.04 405.129C1042.04 405.129 1022.33 426.958 1036.52 429.969C1050.71 432.98 1052.29 406.634 1052.29 406.634L1054.21 402.977C1050.53 419.972 1047.64 437.213 1050.32 440.132C1050.9 440.765 1051.59 441.39 1052.37 442.001L1047.56 468.359L1052.29 558.688H1056.53L1056.14 561.033C1055.33 561.134 1054.33 561.556 1053.08 562.452C1046.77 566.968 1038.89 575.248 1038.89 575.248C1038.89 575.248 1008.92 591.056 1030.21 593.314C1051.5 595.572 1064.91 582.776 1064.91 582.776L1067.27 585.034C1067.27 585.034 1079.89 582.776 1079.89 579.765C1079.8 577.242 1079.54 574.727 1079.1 572.237C1079.1 572.237 1077.44 559.469 1075.51 562.089L1075.33 558.688H1076.74V476.639L1100.39 434.486L1119.32 487.178L1124.05 575.248L1125.34 575.03L1124.65 583.564C1123.36 583.906 1122.31 584.596 1121.68 585.786C1118.53 591.808 1116.16 603.852 1116.16 603.852C1116.16 603.852 1105.91 622.67 1124.05 621.165C1141.53 619.714 1141.43 610.569 1141.4 607.889L1141.4 607.877C1141.4 607.781 1141.4 607.694 1141.4 607.616C1141.4 606.95 1141.33 606.023 1141.25 604.989C1141.07 602.513 1140.84 599.423 1141.4 597.83C1142.19 595.572 1139.03 586.539 1139.03 586.539C1139.03 586.539 1138.75 586.402 1138.24 586.184V572.857L1150.86 570.732L1144.55 484.919C1144.55 484.919 1143.86 468.202 1142.74 447.463C1151.38 445.23 1168.19 440.587 1174.52 436.744C1178.37 434.404 1173.2 409.506 1166.27 382.544C1174.43 371.811 1182.85 358.932 1184.77 349.427C1188.7 329.921 1155.03 275.271 1154.81 274.907L1154.8 274.905L1133.17 266.798L1132.72 266.625C1130.82 264.084 1128.77 261.648 1126.58 259.331C1126.26 259 1125.95 258.671 1125.63 258.345C1123.26 256.087 1121.78 256.792 1121.19 257.286C1120.99 257.451 1120.9 257.592 1120.9 257.592L1120.9 253.169C1124.37 250.746 1127.08 247.377 1128.6 243.459C1128.99 243.667 1129.18 243.667 1129.18 243.667C1129.18 243.667 1132.13 237.662 1133.07 228.368C1134.02 219.074 1119.82 213.16 1111.31 209.781C1105.55 207.494 1100.65 211.008 1098.09 213.52L1099.94 210.354C1097.93 211.112 1096.9 213.657 1096.42 215.356C1096.39 215.401 1096.36 215.441 1096.33 215.477L1096.84 210.546C1095.53 211.805 1095.43 213.999 1095.61 215.695H1090.49C1087.19 218.642 1086.19 228.582 1085.89 234.322C1085.83 234.921 1085.81 235.527 1085.81 236.139L1085.81 236.176ZM1158.75 350.179L1157.81 351.387C1153.49 336.144 1149.55 323.013 1147.54 316.386L1158.75 350.179Z" fill="url(#paint1_linear)"/>
</g>
</g>
<defs>
<filter id="filter0_d" x="541" y="134.5" width="684.58" height="510" filterUnits="userSpaceOnUse" color-interpolation-filters="sRGB">
<feFlood flood-opacity="0" result="BackgroundImageFix"/>
<feColorMatrix in="SourceAlpha" type="matrix" values="0 0 0 0 0 0 0 0 0 0 0 0 0 0 0 0 0 0 127 0"/>
<feOffset dx="10" dy="-10"/>
<feGaussianBlur stdDeviation="15"/>
<feColorMatrix type="matrix" values="0 0 0 0 0.517647 0 0 0 0 0.517647 0 0 0 0 0.6 0 0 0 0.05 0"/>
<feBlend mode="normal" in2="BackgroundImageFix" result="effect1_dropShadow"/>
<feBlend mode="normal" in="SourceGraphic" in2="effect1_dropShadow" result="shape"/>
</filter>
<linearGradient id="paint0_linear" x1="595" y1="-136.5" x2="1458.99" y2="443.766" gradientUnits="userSpaceOnUse">
<stop stop-color="white" stop-opacity="0.2"/>
<stop offset="1" stop-color="white" stop-opacity="0"/>
</linearGradient>
<linearGradient id="paint1_linear" x1="561.479" y1="621.251" x2="1141.51" y2="462.193" gradientUnits="userSpaceOnUse">
<stop stop-color="white" stop-opacity="0.2"/>
<stop offset="1" stop-color="white" stop-opacity="0"/>
</linearGradient>
<clipPath id="clip0">
<rect width="1236" height="695" fill="white" transform="translate(0 0.5)"/>
</clipPath>
</defs>
</svg>
