<svg width="1236" height="695" viewBox="0 0 1236 695" fill="none" xmlns="http://www.w3.org/2000/svg">
<g clip-path="url(#clip0)">
<rect width="1236" height="695" fill="white"/>
<path d="M106.25 326.5V333H79.15V298H105.6V304.5H87.2V312.1H103.45V318.4H87.2V326.5H106.25ZM128.995 305.7C132.328 305.7 135.012 306.7 137.045 308.7C139.112 310.7 140.145 313.667 140.145 317.6V333H132.345V318.8C132.345 316.667 131.878 315.083 130.945 314.05C130.012 312.983 128.662 312.45 126.895 312.45C124.928 312.45 123.362 313.067 122.195 314.3C121.028 315.5 120.445 317.3 120.445 319.7V333H112.645V306.1H120.095V309.25C121.128 308.117 122.412 307.25 123.945 306.65C125.478 306.017 127.162 305.7 128.995 305.7ZM147.715 306.1H155.515V333H147.715V306.1ZM151.615 302.35C150.182 302.35 149.015 301.933 148.115 301.1C147.215 300.267 146.765 299.233 146.765 298C146.765 296.767 147.215 295.733 148.115 294.9C149.015 294.067 150.182 293.65 151.615 293.65C153.049 293.65 154.215 294.05 155.115 294.85C156.015 295.65 156.465 296.65 156.465 297.85C156.465 299.15 156.015 300.233 155.115 301.1C154.215 301.933 153.049 302.35 151.615 302.35ZM197.704 305.7C201.071 305.7 203.738 306.7 205.704 308.7C207.704 310.667 208.704 313.633 208.704 317.6V333H200.904V318.8C200.904 316.667 200.454 315.083 199.554 314.05C198.688 312.983 197.438 312.45 195.804 312.45C193.971 312.45 192.521 313.05 191.454 314.25C190.388 315.417 189.854 317.167 189.854 319.5V333H182.054V318.8C182.054 314.567 180.354 312.45 176.954 312.45C175.154 312.45 173.721 313.05 172.654 314.25C171.588 315.417 171.054 317.167 171.054 319.5V333H163.254V306.1H170.704V309.2C171.704 308.067 172.921 307.2 174.354 306.6C175.821 306 177.421 305.7 179.154 305.7C181.054 305.7 182.771 306.083 184.304 306.85C185.838 307.583 187.071 308.667 188.004 310.1C189.104 308.7 190.488 307.617 192.154 306.85C193.854 306.083 195.704 305.7 197.704 305.7ZM257.556 306.1L246.206 333H238.156L226.856 306.1H234.906L242.356 324.4L250.056 306.1H257.556ZM261.239 306.1H269.039V333H261.239V306.1ZM265.139 302.35C263.705 302.35 262.539 301.933 261.639 301.1C260.739 300.267 260.289 299.233 260.289 298C260.289 296.767 260.739 295.733 261.639 294.9C262.539 294.067 263.705 293.65 265.139 293.65C266.572 293.65 267.739 294.05 268.639 294.85C269.539 295.65 269.989 296.65 269.989 297.85C269.989 299.15 269.539 300.233 268.639 301.1C267.739 301.933 266.572 302.35 265.139 302.35ZM294.128 331.7C293.361 332.267 292.411 332.7 291.278 333C290.178 333.267 289.011 333.4 287.778 333.4C284.578 333.4 282.094 332.583 280.328 330.95C278.594 329.317 277.728 326.917 277.728 323.75V312.7H273.578V306.7H277.728V300.15H285.528V306.7H292.228V312.7H285.528V323.65C285.528 324.783 285.811 325.667 286.378 326.3C286.978 326.9 287.811 327.2 288.878 327.2C290.111 327.2 291.161 326.867 292.028 326.2L294.128 331.7ZM309.856 305.7C314.023 305.7 317.223 306.7 319.456 308.7C321.69 310.667 322.806 313.65 322.806 317.65V333H315.506V329.65C314.04 332.15 311.306 333.4 307.306 333.4C305.24 333.4 303.44 333.05 301.906 332.35C300.406 331.65 299.256 330.683 298.456 329.45C297.656 328.217 297.256 326.817 297.256 325.25C297.256 322.75 298.19 320.783 300.056 319.35C301.956 317.917 304.873 317.2 308.806 317.2H315.006C315.006 315.5 314.49 314.2 313.456 313.3C312.423 312.367 310.873 311.9 308.806 311.9C307.373 311.9 305.956 312.133 304.556 312.6C303.19 313.033 302.023 313.633 301.056 314.4L298.256 308.95C299.723 307.917 301.473 307.117 303.506 306.55C305.573 305.983 307.69 305.7 309.856 305.7ZM309.256 328.15C310.59 328.15 311.773 327.85 312.806 327.25C313.84 326.617 314.573 325.7 315.006 324.5V321.75H309.656C306.456 321.75 304.856 322.8 304.856 324.9C304.856 325.9 305.24 326.7 306.006 327.3C306.806 327.867 307.89 328.15 309.256 328.15ZM357.009 319.65C357.009 319.75 356.959 320.45 356.859 321.75H336.509C336.875 323.417 337.742 324.733 339.109 325.7C340.475 326.667 342.175 327.15 344.209 327.15C345.609 327.15 346.842 326.95 347.909 326.55C349.009 326.117 350.025 325.45 350.959 324.55L355.109 329.05C352.575 331.95 348.875 333.4 344.009 333.4C340.975 333.4 338.292 332.817 335.959 331.65C333.625 330.45 331.825 328.8 330.559 326.7C329.292 324.6 328.659 322.217 328.659 319.55C328.659 316.917 329.275 314.55 330.509 312.45C331.775 310.317 333.492 308.667 335.659 307.5C337.859 306.3 340.309 305.7 343.009 305.7C345.642 305.7 348.025 306.267 350.159 307.4C352.292 308.533 353.959 310.167 355.159 312.3C356.392 314.4 357.009 316.85 357.009 319.65ZM343.059 311.6C341.292 311.6 339.809 312.1 338.609 313.1C337.409 314.1 336.675 315.467 336.409 317.2H349.659C349.392 315.5 348.659 314.15 347.459 313.15C346.259 312.117 344.792 311.6 343.059 311.6ZM404.462 306.1V333H397.062V329.8C396.028 330.967 394.795 331.867 393.362 332.5C391.928 333.1 390.378 333.4 388.712 333.4C385.178 333.4 382.378 332.383 380.312 330.35C378.245 328.317 377.212 325.3 377.212 321.3V306.1H385.012V320.15C385.012 324.483 386.828 326.65 390.462 326.65C392.328 326.65 393.828 326.05 394.962 324.85C396.095 323.617 396.662 321.8 396.662 319.4V306.1H404.462ZM419.638 309.65C420.571 308.35 421.821 307.367 423.388 306.7C424.988 306.033 426.821 305.7 428.888 305.7V312.9C428.021 312.833 427.438 312.8 427.138 312.8C424.905 312.8 423.155 313.433 421.888 314.7C420.621 315.933 419.988 317.8 419.988 320.3V333H412.188V306.1H419.638V309.65ZM450.376 305.7C453.709 305.7 456.392 306.7 458.426 308.7C460.492 310.7 461.526 313.667 461.526 317.6V333H453.726V318.8C453.726 316.667 453.259 315.083 452.326 314.05C451.392 312.983 450.042 312.45 448.276 312.45C446.309 312.45 444.742 313.067 443.576 314.3C442.409 315.5 441.826 317.3 441.826 319.7V333H434.026V306.1H441.476V309.25C442.509 308.117 443.792 307.25 445.326 306.65C446.859 306.017 448.542 305.7 450.376 305.7ZM479.946 305.7C484.113 305.7 487.313 306.7 489.546 308.7C491.779 310.667 492.896 313.65 492.896 317.65V333H485.596V329.65C484.129 332.15 481.396 333.4 477.396 333.4C475.329 333.4 473.529 333.05 471.996 332.35C470.496 331.65 469.346 330.683 468.546 329.45C467.746 328.217 467.346 326.817 467.346 325.25C467.346 322.75 468.279 320.783 470.146 319.35C472.046 317.917 474.963 317.2 478.896 317.2H485.096C485.096 315.5 484.579 314.2 483.546 313.3C482.513 312.367 480.963 311.9 478.896 311.9C477.463 311.9 476.046 312.133 474.646 312.6C473.279 313.033 472.113 313.633 471.146 314.4L468.346 308.95C469.813 307.917 471.563 307.117 473.596 306.55C475.663 305.983 477.779 305.7 479.946 305.7ZM479.346 328.15C480.679 328.15 481.863 327.85 482.896 327.25C483.929 326.617 484.663 325.7 485.096 324.5V321.75H479.746C476.546 321.75 474.946 322.8 474.946 324.9C474.946 325.9 475.329 326.7 476.096 327.3C476.896 327.867 477.979 328.15 479.346 328.15ZM95.95 395.7C95.1833 396.267 94.2333 396.7 93.1 397C92 397.267 90.8333 397.4 89.6 397.4C86.4 397.4 83.9167 396.583 82.15 394.95C80.4167 393.317 79.55 390.917 79.55 387.75V376.7H75.4V370.7H79.55V364.15H87.35V370.7H94.05V376.7H87.35V387.65C87.35 388.783 87.6333 389.667 88.2 390.3C88.8 390.9 89.6333 391.2 90.7 391.2C91.9333 391.2 92.9833 390.867 93.85 390.2L95.95 395.7ZM100.829 370.1H108.629V397H100.829V370.1ZM104.729 366.35C103.295 366.35 102.129 365.933 101.229 365.1C100.329 364.267 99.8785 363.233 99.8785 362C99.8785 360.767 100.329 359.733 101.229 358.9C102.129 358.067 103.295 357.65 104.729 357.65C106.162 357.65 107.329 358.05 108.229 358.85C109.129 359.65 109.579 360.65 109.579 361.85C109.579 363.15 109.129 364.233 108.229 365.1C107.329 365.933 106.162 366.35 104.729 366.35ZM132.718 369.7C136.051 369.7 138.734 370.7 140.768 372.7C142.834 374.7 143.868 377.667 143.868 381.6V397H136.068V382.8C136.068 380.667 135.601 379.083 134.668 378.05C133.734 376.983 132.384 376.45 130.618 376.45C128.651 376.45 127.084 377.067 125.918 378.3C124.751 379.5 124.168 381.3 124.168 383.7V397H116.368V370.1H123.818V373.25C124.851 372.117 126.134 371.25 127.668 370.65C129.201 370.017 130.884 369.7 132.718 369.7ZM164.731 397.4C161.864 397.4 159.281 396.817 156.981 395.65C154.714 394.45 152.931 392.8 151.631 390.7C150.364 388.6 149.731 386.217 149.731 383.55C149.731 380.883 150.364 378.5 151.631 376.4C152.931 374.3 154.714 372.667 156.981 371.5C159.281 370.3 161.864 369.7 164.731 369.7C167.564 369.7 170.031 370.3 172.131 371.5C174.264 372.667 175.814 374.35 176.781 376.55L170.731 379.8C169.331 377.333 167.314 376.1 164.681 376.1C162.648 376.1 160.964 376.767 159.631 378.1C158.298 379.433 157.631 381.25 157.631 383.55C157.631 385.85 158.298 387.667 159.631 389C160.964 390.333 162.648 391 164.681 391C167.348 391 169.364 389.767 170.731 387.3L176.781 390.6C175.814 392.733 174.264 394.4 172.131 395.6C170.031 396.8 167.564 397.4 164.731 397.4ZM181.772 370.1H189.572V397H181.772V370.1ZM185.672 366.35C184.239 366.35 183.072 365.933 182.172 365.1C181.272 364.267 180.822 363.233 180.822 362C180.822 360.767 181.272 359.733 182.172 358.9C183.072 358.067 184.239 357.65 185.672 357.65C187.105 357.65 188.272 358.05 189.172 358.85C190.072 359.65 190.522 360.65 190.522 361.85C190.522 363.15 190.072 364.233 189.172 365.1C188.272 365.933 187.105 366.35 185.672 366.35ZM224.711 359.9V397H217.261V393.9C215.328 396.233 212.528 397.4 208.861 397.4C206.328 397.4 204.028 396.833 201.961 395.7C199.928 394.567 198.328 392.95 197.161 390.85C195.994 388.75 195.411 386.317 195.411 383.55C195.411 380.783 195.994 378.35 197.161 376.25C198.328 374.15 199.928 372.533 201.961 371.4C204.028 370.267 206.328 369.7 208.861 369.7C212.294 369.7 214.978 370.783 216.911 372.95V359.9H224.711ZM210.211 391C212.178 391 213.811 390.333 215.111 389C216.411 387.633 217.061 385.817 217.061 383.55C217.061 381.283 216.411 379.483 215.111 378.15C213.811 376.783 212.178 376.1 210.211 376.1C208.211 376.1 206.561 376.783 205.261 378.15C203.961 379.483 203.311 381.283 203.311 383.55C203.311 385.817 203.961 387.633 205.261 389C206.561 390.333 208.211 391 210.211 391ZM259.53 370.1V397H252.13V393.8C251.097 394.967 249.863 395.867 248.43 396.5C246.997 397.1 245.447 397.4 243.78 397.4C240.247 397.4 237.447 396.383 235.38 394.35C233.313 392.317 232.28 389.3 232.28 385.3V370.1H240.08V384.15C240.08 388.483 241.897 390.65 245.53 390.65C247.397 390.65 248.897 390.05 250.03 388.85C251.163 387.617 251.73 385.8 251.73 383.4V370.1H259.53ZM283.606 369.7C286.94 369.7 289.623 370.7 291.656 372.7C293.723 374.7 294.756 377.667 294.756 381.6V397H286.956V382.8C286.956 380.667 286.49 379.083 285.556 378.05C284.623 376.983 283.273 376.45 281.506 376.45C279.54 376.45 277.973 377.067 276.806 378.3C275.64 379.5 275.056 381.3 275.056 383.7V397H267.256V370.1H274.706V373.25C275.74 372.117 277.023 371.25 278.556 370.65C280.09 370.017 281.773 369.7 283.606 369.7ZM319.677 395.7C318.91 396.267 317.96 396.7 316.827 397C315.727 397.267 314.56 397.4 313.327 397.4C310.127 397.4 307.643 396.583 305.877 394.95C304.143 393.317 303.277 390.917 303.277 387.75V376.7H299.127V370.7H303.277V364.15H311.077V370.7H317.777V376.7H311.077V387.65C311.077 388.783 311.36 389.667 311.927 390.3C312.527 390.9 313.36 391.2 314.427 391.2C315.66 391.2 316.71 390.867 317.577 390.2L319.677 395.7ZM350.065 369.7C354.232 369.7 357.432 370.7 359.665 372.7C361.899 374.667 363.015 377.65 363.015 381.65V397H355.715V393.65C354.249 396.15 351.515 397.4 347.515 397.4C345.449 397.4 343.649 397.05 342.115 396.35C340.615 395.65 339.465 394.683 338.665 393.45C337.865 392.217 337.465 390.817 337.465 389.25C337.465 386.75 338.399 384.783 340.265 383.35C342.165 381.917 345.082 381.2 349.015 381.2H355.215C355.215 379.5 354.699 378.2 353.665 377.3C352.632 376.367 351.082 375.9 349.015 375.9C347.582 375.9 346.165 376.133 344.765 376.6C343.399 377.033 342.232 377.633 341.265 378.4L338.465 372.95C339.932 371.917 341.682 371.117 343.715 370.55C345.782 369.983 347.899 369.7 350.065 369.7ZM349.465 392.15C350.799 392.15 351.982 391.85 353.015 391.25C354.049 390.617 354.782 389.7 355.215 388.5V385.75H349.865C346.665 385.75 345.065 386.8 345.065 388.9C345.065 389.9 345.449 390.7 346.215 391.3C347.015 391.867 348.099 392.15 349.465 392.15ZM405.025 369.7C408.391 369.7 411.058 370.7 413.025 372.7C415.025 374.667 416.025 377.633 416.025 381.6V397H408.225V382.8C408.225 380.667 407.775 379.083 406.875 378.05C406.008 376.983 404.758 376.45 403.125 376.45C401.291 376.45 399.841 377.05 398.775 378.25C397.708 379.417 397.175 381.167 397.175 383.5V397H389.375V382.8C389.375 378.567 387.675 376.45 384.275 376.45C382.475 376.45 381.041 377.05 379.975 378.25C378.908 379.417 378.375 381.167 378.375 383.5V397H370.575V370.1H378.025V373.2C379.025 372.067 380.241 371.2 381.675 370.6C383.141 370 384.741 369.7 386.475 369.7C388.375 369.7 390.091 370.083 391.625 370.85C393.158 371.583 394.391 372.667 395.325 374.1C396.425 372.7 397.808 371.617 399.475 370.85C401.175 370.083 403.025 369.7 405.025 369.7ZM450.159 383.65C450.159 383.75 450.109 384.45 450.009 385.75H429.659C430.026 387.417 430.892 388.733 432.259 389.7C433.626 390.667 435.326 391.15 437.359 391.15C438.759 391.15 439.992 390.95 441.059 390.55C442.159 390.117 443.176 389.45 444.109 388.55L448.259 393.05C445.726 395.95 442.026 397.4 437.159 397.4C434.126 397.4 431.442 396.817 429.109 395.65C426.776 394.45 424.976 392.8 423.709 390.7C422.442 388.6 421.809 386.217 421.809 383.55C421.809 380.917 422.426 378.55 423.659 376.45C424.926 374.317 426.642 372.667 428.809 371.5C431.009 370.3 433.459 369.7 436.159 369.7C438.792 369.7 441.176 370.267 443.309 371.4C445.442 372.533 447.109 374.167 448.309 376.3C449.542 378.4 450.159 380.85 450.159 383.65ZM436.209 375.6C434.442 375.6 432.959 376.1 431.759 377.1C430.559 378.1 429.826 379.467 429.559 381.2H442.809C442.542 379.5 441.809 378.15 440.609 377.15C439.409 376.117 437.942 375.6 436.209 375.6ZM473.202 395.7C472.435 396.267 471.485 396.7 470.352 397C469.252 397.267 468.085 397.4 466.852 397.4C463.652 397.4 461.169 396.583 459.402 394.95C457.669 393.317 456.802 390.917 456.802 387.75V376.7H452.652V370.7H456.802V364.15H464.602V370.7H471.302V376.7H464.602V387.65C464.602 388.783 464.885 389.667 465.452 390.3C466.052 390.9 466.885 391.2 467.952 391.2C469.185 391.2 470.235 390.867 471.102 390.2L473.202 395.7Z" fill="#2F2E44"/>
<path d="M92.97 70.99C92.97 71.05 92.94 71.47 92.88 72.25H80.67C80.89 73.25 81.41 74.04 82.23 74.62C83.05 75.2 84.07 75.49 85.29 75.49C86.13 75.49 86.87 75.37 87.51 75.13C88.17 74.87 88.78 74.47 89.34 73.93L91.83 76.63C90.31 78.37 88.09 79.24 85.17 79.24C83.35 79.24 81.74 78.89 80.34 78.19C78.94 77.47 77.86 76.48 77.1 75.22C76.34 73.96 75.96 72.53 75.96 70.93C75.96 69.35 76.33 67.93 77.07 66.67C77.83 65.39 78.86 64.4 80.16 63.7C81.48 62.98 82.95 62.62 84.57 62.62C86.15 62.62 87.58 62.96 88.86 63.64C90.14 64.32 91.14 65.3 91.86 66.58C92.6 67.84 92.97 69.31 92.97 70.99ZM84.6 66.16C83.54 66.16 82.65 66.46 81.93 67.06C81.21 67.66 80.77 68.48 80.61 69.52H88.56C88.4 68.5 87.96 67.69 87.24 67.09C86.52 66.47 85.64 66.16 84.6 66.16ZM106.196 62.62C108.196 62.62 109.806 63.22 111.026 64.42C112.266 65.62 112.886 67.4 112.886 69.76V79H108.206V70.48C108.206 69.2 107.926 68.25 107.366 67.63C106.806 66.99 105.996 66.67 104.936 66.67C103.756 66.67 102.816 67.04 102.116 67.78C101.416 68.5 101.066 69.58 101.066 71.02V79H96.3858V62.86H100.856V64.75C101.476 64.07 102.246 63.55 103.166 63.19C104.086 62.81 105.096 62.62 106.196 62.62ZM134.254 62.86V76.3C134.254 79.26 133.484 81.46 131.944 82.9C130.404 84.34 128.154 85.06 125.194 85.06C123.634 85.06 122.154 84.87 120.754 84.49C119.354 84.11 118.194 83.56 117.274 82.84L119.134 79.48C119.814 80.04 120.674 80.48 121.714 80.8C122.754 81.14 123.794 81.31 124.834 81.31C126.454 81.31 127.644 80.94 128.404 80.2C129.184 79.48 129.574 78.38 129.574 76.9V76.21C128.354 77.55 126.654 78.22 124.474 78.22C122.994 78.22 121.634 77.9 120.394 77.26C119.174 76.6 118.204 75.68 117.484 74.5C116.764 73.32 116.404 71.96 116.404 70.42C116.404 68.88 116.764 67.52 117.484 66.34C118.204 65.16 119.174 64.25 120.394 63.61C121.634 62.95 122.994 62.62 124.474 62.62C126.814 62.62 128.594 63.39 129.814 64.93V62.86H134.254ZM125.404 74.38C126.644 74.38 127.654 74.02 128.434 73.3C129.234 72.56 129.634 71.6 129.634 70.42C129.634 69.24 129.234 68.29 128.434 67.57C127.654 66.83 126.644 66.46 125.404 66.46C124.164 66.46 123.144 66.83 122.344 67.57C121.544 68.29 121.144 69.24 121.144 70.42C121.144 71.6 121.544 72.56 122.344 73.3C123.144 74.02 124.164 74.38 125.404 74.38ZM138.91 56.74H143.59V79H138.91V56.74ZM148.233 62.86H152.913V79H148.233V62.86ZM150.573 60.61C149.713 60.61 149.013 60.36 148.473 59.86C147.933 59.36 147.663 58.74 147.663 58C147.663 57.26 147.933 56.64 148.473 56.14C149.013 55.64 149.713 55.39 150.573 55.39C151.433 55.39 152.133 55.63 152.673 56.11C153.213 56.59 153.483 57.19 153.483 57.91C153.483 58.69 153.213 59.34 152.673 59.86C152.133 60.36 151.433 60.61 150.573 60.61ZM162.986 79.24C161.646 79.24 160.336 79.08 159.056 78.76C157.776 78.42 156.756 78 155.996 77.5L157.556 74.14C158.276 74.6 159.146 74.98 160.166 75.28C161.186 75.56 162.186 75.7 163.166 75.7C165.146 75.7 166.136 75.21 166.136 74.23C166.136 73.77 165.866 73.44 165.326 73.24C164.786 73.04 163.956 72.87 162.836 72.73C161.516 72.53 160.426 72.3 159.566 72.04C158.706 71.78 157.956 71.32 157.316 70.66C156.696 70 156.386 69.06 156.386 67.84C156.386 66.82 156.676 65.92 157.256 65.14C157.856 64.34 158.716 63.72 159.836 63.28C160.976 62.84 162.316 62.62 163.856 62.62C164.996 62.62 166.126 62.75 167.246 63.01C168.386 63.25 169.326 63.59 170.066 64.03L168.506 67.36C167.086 66.56 165.536 66.16 163.856 66.16C162.856 66.16 162.106 66.3 161.606 66.58C161.106 66.86 160.856 67.22 160.856 67.66C160.856 68.16 161.126 68.51 161.666 68.71C162.206 68.91 163.066 69.1 164.246 69.28C165.566 69.5 166.646 69.74 167.486 70C168.326 70.24 169.056 70.69 169.676 71.35C170.296 72.01 170.606 72.93 170.606 74.11C170.606 75.11 170.306 76 169.706 76.78C169.106 77.56 168.226 78.17 167.066 78.61C165.926 79.03 164.566 79.24 162.986 79.24ZM183.604 62.62C185.604 62.62 187.214 63.22 188.434 64.42C189.674 65.62 190.294 67.4 190.294 69.76V79H185.614V70.48C185.614 69.2 185.334 68.25 184.774 67.63C184.214 66.99 183.404 66.67 182.344 66.67C181.164 66.67 180.224 67.04 179.524 67.78C178.824 68.5 178.474 69.58 178.474 71.02V79H173.794V56.74H178.474V64.54C179.094 63.92 179.844 63.45 180.724 63.13C181.604 62.79 182.564 62.62 183.604 62.62ZM204.646 62.62C206.646 62.62 208.256 63.22 209.476 64.42C210.716 65.62 211.336 67.4 211.336 69.76V79H206.656V70.48C206.656 69.2 206.376 68.25 205.816 67.63C205.256 66.99 204.446 66.67 203.386 66.67C202.206 66.67 201.266 67.04 200.566 67.78C199.866 68.5 199.516 69.58 199.516 71.02V79H194.836V62.86H199.306V64.75C199.926 64.07 200.696 63.55 201.616 63.19C202.536 62.81 203.546 62.62 204.646 62.62ZM231.864 70.99C231.864 71.05 231.834 71.47 231.774 72.25H219.564C219.784 73.25 220.304 74.04 221.124 74.62C221.944 75.2 222.964 75.49 224.184 75.49C225.024 75.49 225.764 75.37 226.404 75.13C227.064 74.87 227.674 74.47 228.234 73.93L230.724 76.63C229.204 78.37 226.984 79.24 224.064 79.24C222.244 79.24 220.634 78.89 219.234 78.19C217.834 77.47 216.754 76.48 215.994 75.22C215.234 73.96 214.854 72.53 214.854 70.93C214.854 69.35 215.224 67.93 215.964 66.67C216.724 65.39 217.754 64.4 219.054 63.7C220.374 62.98 221.844 62.62 223.464 62.62C225.044 62.62 226.474 62.96 227.754 63.64C229.034 64.32 230.034 65.3 230.754 66.58C231.494 67.84 231.864 69.31 231.864 70.99ZM223.494 66.16C222.434 66.16 221.544 66.46 220.824 67.06C220.104 67.66 219.664 68.48 219.504 69.52H227.454C227.294 68.5 226.854 67.69 226.134 67.09C225.414 66.47 224.534 66.16 223.494 66.16ZM239.75 64.99C240.31 64.21 241.06 63.62 242 63.22C242.96 62.82 244.06 62.62 245.3 62.62V66.94C244.78 66.9 244.43 66.88 244.25 66.88C242.91 66.88 241.86 67.26 241.1 68.02C240.34 68.76 239.96 69.88 239.96 71.38V79H235.28V62.86H239.75V64.99ZM264.676 56.74V79H260.206V77.14C259.046 78.54 257.366 79.24 255.166 79.24C253.646 79.24 252.266 78.9 251.026 78.22C249.806 77.54 248.846 76.57 248.146 75.31C247.446 74.05 247.096 72.59 247.096 70.93C247.096 69.27 247.446 67.81 248.146 66.55C248.846 65.29 249.806 64.32 251.026 63.64C252.266 62.96 253.646 62.62 255.166 62.62C257.226 62.62 258.836 63.27 259.996 64.57V56.74H264.676ZM255.976 75.4C257.156 75.4 258.136 75 258.916 74.2C259.696 73.38 260.086 72.29 260.086 70.93C260.086 69.57 259.696 68.49 258.916 67.69C258.136 66.87 257.156 66.46 255.976 66.46C254.776 66.46 253.786 66.87 253.006 67.69C252.226 68.49 251.836 69.57 251.836 70.93C251.836 72.29 252.226 73.38 253.006 74.2C253.786 75 254.776 75.4 255.976 75.4ZM271.078 79.24C270.258 79.24 269.568 78.96 269.008 78.4C268.448 77.84 268.168 77.14 268.168 76.3C268.168 75.44 268.448 74.75 269.008 74.23C269.568 73.69 270.258 73.42 271.078 73.42C271.898 73.42 272.588 73.69 273.148 74.23C273.708 74.75 273.988 75.44 273.988 76.3C273.988 77.14 273.708 77.84 273.148 78.4C272.588 78.96 271.898 79.24 271.078 79.24ZM284.934 79.24C283.234 79.24 281.704 78.89 280.344 78.19C279.004 77.47 277.954 76.48 277.194 75.22C276.434 73.96 276.054 72.53 276.054 70.93C276.054 69.33 276.434 67.9 277.194 66.64C277.954 65.38 279.004 64.4 280.344 63.7C281.704 62.98 283.234 62.62 284.934 62.62C286.634 62.62 288.154 62.98 289.494 63.7C290.834 64.4 291.884 65.38 292.644 66.64C293.404 67.9 293.784 69.33 293.784 70.93C293.784 72.53 293.404 73.96 292.644 75.22C291.884 76.48 290.834 77.47 289.494 78.19C288.154 78.89 286.634 79.24 284.934 79.24ZM284.934 75.4C286.134 75.4 287.114 75 287.874 74.2C288.654 73.38 289.044 72.29 289.044 70.93C289.044 69.57 288.654 68.49 287.874 67.69C287.114 66.87 286.134 66.46 284.934 66.46C283.734 66.46 282.744 66.87 281.964 67.69C281.184 68.49 280.794 69.57 280.794 70.93C280.794 72.29 281.184 73.38 281.964 74.2C282.744 75 283.734 75.4 284.934 75.4ZM301.682 64.99C302.242 64.21 302.992 63.62 303.932 63.22C304.892 62.82 305.992 62.62 307.232 62.62V66.94C306.712 66.9 306.362 66.88 306.182 66.88C304.842 66.88 303.792 67.26 303.032 68.02C302.272 68.76 301.892 69.88 301.892 71.38V79H297.212V62.86H301.682V64.99ZM326.819 62.86V76.3C326.819 79.26 326.049 81.46 324.509 82.9C322.969 84.34 320.719 85.06 317.759 85.06C316.199 85.06 314.719 84.87 313.319 84.49C311.919 84.11 310.759 83.56 309.839 82.84L311.699 79.48C312.379 80.04 313.239 80.48 314.279 80.8C315.319 81.14 316.359 81.31 317.399 81.31C319.019 81.31 320.209 80.94 320.969 80.2C321.749 79.48 322.139 78.38 322.139 76.9V76.21C320.919 77.55 319.219 78.22 317.039 78.22C315.559 78.22 314.199 77.9 312.959 77.26C311.739 76.6 310.769 75.68 310.049 74.5C309.329 73.32 308.969 71.96 308.969 70.42C308.969 68.88 309.329 67.52 310.049 66.34C310.769 65.16 311.739 64.25 312.959 63.61C314.199 62.95 315.559 62.62 317.039 62.62C319.379 62.62 321.159 63.39 322.379 64.93V62.86H326.819ZM317.969 74.38C319.209 74.38 320.219 74.02 320.999 73.3C321.799 72.56 322.199 71.6 322.199 70.42C322.199 69.24 321.799 68.29 320.999 67.57C320.219 66.83 319.209 66.46 317.969 66.46C316.729 66.46 315.709 66.83 314.909 67.57C314.109 68.29 313.709 69.24 313.709 70.42C313.709 71.6 314.109 72.56 314.909 73.3C315.709 74.02 316.729 74.38 317.969 74.38Z" fill="#848499"/>
<g filter="url(#filter0_d)">
<circle cx="1061" cy="175" r="375" fill="#6666FF"/>
<circle cx="1059.5" cy="176.5" r="262.5" fill="#8080FF"/>
<ellipse cx="1061" cy="175" rx="150" ry="150" fill="#9999FF"/>
<circle cx="1061" cy="175" r="375" fill="url(#paint0_linear)"/>
</g>
<g filter="url(#filter1_d)">
<path d="M1073.64 613.684L1075.9 625.002L1064.59 627.266L1066.29 613.118L1073.64 613.684Z" fill="#FFB8B8"/>
<path d="M1119.93 611.625L1117.37 624.441L1106.83 624.696L1110.2 609.062L1119.93 611.625Z" fill="#FFB8B8"/>
<path d="M1136.72 479.957L1139.66 499.794C1139.66 499.794 1136.72 543.877 1135.99 546.081C1135.25 548.285 1133.05 559.306 1133.05 559.306L1120.57 612.206C1120.57 612.206 1109.77 613.675 1107.57 607.797L1108.09 576.205L1107.36 540.203L1098.55 499.06L1083.13 554.898C1083.13 554.898 1082.4 573.266 1080.2 579.878C1077.99 586.491 1075.06 615.144 1075.06 615.144C1075.06 615.144 1065.72 617.349 1064.99 615.144C1064.25 612.94 1060.37 560.776 1060.37 552.694C1060.37 544.612 1056.06 467.12 1056.06 467.12L1136.72 479.957Z" fill="#2F2E41"/>
<path d="M1110.22 623.71C1111.43 623.959 1112.67 623.959 1113.88 623.71C1115.26 623.251 1113.88 620.498 1113.88 620.498H1118.93C1118.93 620.498 1124.43 632.887 1126.72 633.805C1129.01 634.723 1136.35 644.818 1127.64 644.818C1122.26 644.748 1117.02 643.158 1112.51 640.229C1112.51 640.229 1111.59 636.099 1107.46 635.64C1103.34 635.182 1100.59 630.134 1100.59 630.134L1105.07 621.859C1105.19 621.626 1105.38 621.431 1105.61 621.295C1105.84 621.159 1106.1 621.087 1106.36 621.086C1106.63 621.086 1106.89 621.157 1107.12 621.292C1107.35 621.427 1107.54 621.621 1107.67 621.854C1108.29 622.955 1109.15 623.923 1110.22 623.71Z" fill="#2F2E41"/>
<path d="M1071.84 622.289C1071.84 622.289 1070.82 624.336 1069.8 623.312C1068.94 622.226 1068.25 621.019 1067.75 619.73C1067.75 619.73 1064.68 618.195 1064.17 619.73C1063.66 621.265 1061.62 629.453 1060.59 630.477C1059.57 631.5 1048.83 642.246 1059.57 644.293C1070.31 646.34 1072.35 641.735 1072.35 641.735C1072.35 641.735 1070.82 639.176 1073.89 638.152C1076.96 637.129 1077.47 633.547 1077.47 633.547L1075.93 621.981C1075.89 621.734 1075.79 621.503 1075.62 621.318C1075.46 621.132 1075.24 620.999 1075 620.937C1074.76 620.875 1074.5 620.886 1074.27 620.968C1074.04 621.051 1073.83 621.202 1073.68 621.401C1073.09 622.175 1072.43 622.68 1071.84 622.289Z" fill="#2F2E41"/>
<path d="M1153.61 428.527L1155.81 466.732C1155.81 466.732 1166.09 490.978 1152.14 490.243C1138.19 489.508 1147 465.997 1147 465.997L1133.34 431.9L1153.61 428.527Z" fill="#FFB8B8"/>
<path d="M1040.55 417.506L1038.35 455.711C1038.35 455.711 1028.07 479.957 1042.02 479.222C1055.97 478.488 1047.16 454.977 1047.16 454.977L1060.82 420.879L1040.55 417.506Z" fill="#FFB8B8"/>
<path d="M1099.28 334.483C1109.82 334.483 1118.37 325.931 1118.37 315.381C1118.37 304.831 1109.82 296.278 1099.28 296.278C1088.74 296.278 1080.2 304.831 1080.2 315.381C1080.2 325.931 1088.74 334.483 1099.28 334.483Z" fill="#FFB8B8"/>
<path d="M1114.33 323.096C1114.33 323.096 1109.19 343.668 1119.47 348.811C1129.75 353.954 1087.17 361.301 1084.23 348.811L1085.7 342.933C1085.7 342.933 1091.57 335.586 1090.11 328.973L1114.33 323.096Z" fill="#FFB8B8"/>
<path d="M1102.95 349.178C1102.95 349.178 1090.29 350.362 1086.34 342.055C1086.34 342.055 1056.7 344.035 1050.1 371.219C1057.76 371.439 1067.28 458.763 1054.71 467.467C1044.51 474.532 1072.31 485.413 1111.03 485.835L1140.39 484.365C1134.92 479.645 1121.82 418.206 1130.12 418.976C1130.12 418.976 1152.14 384.444 1149.94 379.301C1147.73 374.158 1144.21 353.879 1115.87 345.651C1115.87 345.651 1115.43 349.912 1102.95 349.178Z" fill="#E6E6E6"/>
<path d="M1140.39 366.811L1149.94 379.301C1149.94 379.301 1159.48 431.466 1156.54 432.201C1153.61 432.935 1135.99 438.813 1133.05 436.609C1130.12 434.405 1116.9 391.057 1116.9 391.057L1140.39 366.811Z" fill="#E6E6E6"/>
<path d="M1062.58 363.137L1050.1 371.219C1050.1 371.219 1031.74 422.649 1036.88 424.853C1042.02 427.057 1070.65 425.588 1070.65 425.588L1062.58 363.137Z" fill="#E6E6E6"/>
<path d="M1120.15 298.286C1120.15 298.286 1113.53 283.95 1100.86 287.258C1088.19 290.566 1081.03 295.529 1080.48 300.491C1079.93 305.453 1080.75 312.897 1080.75 312.897C1080.75 312.897 1082.13 302.697 1090.95 304.902C1099.76 307.108 1113.53 305.453 1113.53 305.453L1115.74 325.303C1115.74 325.303 1118.22 321.719 1120.97 323.925C1123.73 326.13 1128.96 302.697 1120.15 298.286Z" fill="#2F2E41"/>
<path d="M985.025 195H550C544.477 195 540 199.477 540 205V475.948C540 481.471 544.477 485.948 550 485.948H985.025C990.548 485.948 995.025 481.471 995.025 475.948V205C995.025 199.477 990.548 195 985.025 195Z" fill="#E6E6E6"/>
<path d="M976.89 231.751H558.917C556.156 231.751 553.917 233.99 553.917 236.751V464.002C553.917 466.763 556.156 469.002 558.917 469.002H976.89C979.652 469.002 981.89 466.763 981.89 464.002V236.751C981.89 233.99 979.652 231.751 976.89 231.751Z" fill="white"/>
<path d="M540 205C540 199.477 544.477 195 550 195H985.025C990.548 195 995.025 199.477 995.025 205V214.347H540V205Z" fill="#2F2E44"/>
<path d="M555.075 208.445C557.049 208.445 558.649 206.843 558.649 204.868C558.649 202.892 557.049 201.29 555.075 201.29C553.1 201.29 551.5 202.892 551.5 204.868C551.5 206.843 553.1 208.445 555.075 208.445Z" fill="white"/>
<path d="M568.642 208.445C570.616 208.445 572.216 206.843 572.216 204.868C572.216 202.892 570.616 201.29 568.642 201.29C566.668 201.29 565.067 202.892 565.067 204.868C565.067 206.843 566.668 208.445 568.642 208.445Z" fill="white"/>
<path d="M582.209 208.445C584.183 208.445 585.783 206.843 585.783 204.868C585.783 202.892 584.183 201.29 582.209 201.29C580.235 201.29 578.634 202.892 578.634 204.868C578.634 206.843 580.235 208.445 582.209 208.445Z" fill="white"/>
<path d="M827.531 268.176H595.33C592.568 268.176 590.33 270.414 590.33 273.176V399.525C590.33 402.287 592.568 404.525 595.33 404.525H827.531C830.292 404.525 832.531 402.287 832.531 399.525V273.176C832.531 270.414 830.292 268.176 827.531 268.176Z" fill="#6C63FF"/>
<path d="M953.56 268.176H871.326C868.565 268.176 866.326 270.414 866.326 273.176V315.1C866.326 317.861 868.565 320.1 871.326 320.1H953.56C956.321 320.1 958.56 317.861 958.56 315.1V273.176C958.56 270.414 956.321 268.176 953.56 268.176Z" fill="#E6E6E6"/>
<path d="M953.56 336.527H871.326C868.565 336.527 866.326 338.765 866.326 341.527V383.451C866.326 386.212 868.565 388.451 871.326 388.451H953.56C956.321 388.451 958.56 386.212 958.56 383.451V341.527C958.56 338.765 956.321 336.527 953.56 336.527Z" fill="#E6E6E6"/>
<path d="M953.56 404.878H871.326C868.565 404.878 866.326 407.117 866.326 409.878V451.802C866.326 454.563 868.565 456.802 871.326 456.802H953.56C956.321 456.802 958.56 454.563 958.56 451.802V409.878C958.56 407.117 956.321 404.878 953.56 404.878Z" fill="#E6E6E6"/>
<path d="M754.695 427.427H592.83C591.449 427.427 590.33 428.546 590.33 429.927V436.201C590.33 437.582 591.449 438.701 592.83 438.701H754.695C756.076 438.701 757.195 437.582 757.195 436.201V429.927C757.195 428.546 756.076 427.427 754.695 427.427Z" fill="#E6E6E6"/>
<path d="M737 334.217C738.666 335.179 738.666 337.583 737 338.546L694.31 363.213C692.644 364.176 690.56 362.973 690.56 361.048L690.56 311.714C690.56 309.789 692.644 308.587 694.31 309.55L737 334.217Z" fill="white"/>
<path fill-rule="evenodd" clip-rule="evenodd" d="M550 195C544.477 195 540 199.477 540 205V214.347V475.948C540 481.471 544.477 485.948 550 485.948H985.025C990.548 485.948 995.025 481.471 995.025 475.948V214.347V205C995.025 199.477 990.548 195 985.025 195H550ZM1100.86 287.258C1113.53 283.95 1120.15 298.285 1120.15 298.285C1128.96 302.697 1123.73 326.13 1120.97 323.925C1118.22 321.719 1115.74 325.303 1115.74 325.303L1115.72 325.103C1115.06 326.214 1114.29 327.252 1113.43 328.203C1112.8 333.255 1112.57 340.901 1115.87 345.655L1115.87 345.651C1140.89 352.916 1146.57 369.574 1149.07 376.915L1149.07 376.917L1149.07 376.924L1149.07 376.927C1149.4 377.896 1149.68 378.701 1149.94 379.301C1150.03 379.529 1150.08 379.814 1150.09 380.151C1151.31 386.895 1159.26 431.521 1156.54 432.201C1156.04 432.327 1155.09 432.607 1153.86 432.972L1155.81 466.732C1155.81 466.732 1166.09 490.978 1152.14 490.243C1138.19 489.508 1147 465.997 1147 465.997L1135.43 437.101C1134.35 437.104 1133.52 436.957 1133.05 436.609C1132.07 435.874 1129.95 430.56 1127.55 423.804C1126.24 438.276 1135.89 480.485 1140.39 484.365L1137.4 484.515L1139.66 499.794C1139.66 499.794 1136.72 543.877 1135.99 546.081C1135.25 548.285 1133.05 559.306 1133.05 559.306L1120.57 612.206C1120.57 612.206 1120.29 612.245 1119.8 612.284L1118.16 620.498H1118.93C1118.93 620.498 1124.43 632.887 1126.72 633.805C1129.01 634.723 1136.35 644.818 1127.64 644.818C1122.26 644.749 1117.02 643.158 1112.51 640.229C1112.51 640.229 1111.59 636.099 1107.46 635.64C1103.34 635.182 1100.59 630.134 1100.59 630.134L1105.07 621.859C1105.19 621.626 1105.38 621.431 1105.61 621.295C1105.84 621.159 1106.1 621.087 1106.36 621.086C1106.63 621.086 1106.89 621.157 1107.12 621.292C1107.26 621.376 1107.39 621.483 1107.5 621.608L1109.87 610.582C1108.85 609.917 1108.02 609.015 1107.57 607.797L1108.09 576.205L1107.36 540.204L1098.55 499.06L1083.13 554.898C1083.13 554.898 1082.4 573.266 1080.2 579.878C1077.99 586.491 1075.06 615.145 1075.06 615.145C1075.06 615.145 1074.64 615.243 1073.97 615.378L1075.09 620.965C1075.29 621.035 1075.48 621.156 1075.62 621.318C1075.79 621.504 1075.89 621.734 1075.93 621.981L1077.47 633.547C1077.47 633.547 1076.96 637.129 1073.89 638.153C1070.82 639.176 1072.35 641.735 1072.35 641.735C1072.35 641.735 1070.31 646.34 1059.57 644.293C1048.83 642.246 1059.57 631.5 1060.59 630.477C1061.36 629.709 1062.7 624.916 1063.54 621.917L1063.54 621.914L1063.54 621.913C1063.82 620.913 1064.05 620.114 1064.17 619.73C1064.37 619.141 1064.94 619.004 1065.57 619.059L1065.95 615.899C1065.45 615.745 1065.11 615.503 1064.99 615.145C1064.25 612.94 1060.37 560.776 1060.37 552.694C1060.37 546.256 1057.64 495.77 1056.52 475.501C1052.18 472.757 1051.21 469.888 1054.71 467.467C1060.1 463.734 1061.43 445.539 1060.58 425.956C1059.99 425.971 1059.38 425.985 1058.77 425.997L1047.16 454.977C1047.16 454.977 1055.97 478.488 1042.02 479.222C1028.07 479.957 1038.35 455.711 1038.35 455.711L1040.09 425.554C1038.68 425.378 1037.57 425.149 1036.88 424.854C1031.76 422.656 1049.99 371.516 1050.1 371.221L1050.1 371.22L1050.1 371.219C1056.7 344.035 1086.34 342.055 1086.34 342.055C1087.52 340.356 1089.93 336.413 1090.3 332.238C1084.28 329.021 1080.2 322.679 1080.2 315.381C1080.2 314.015 1080.34 312.683 1080.61 311.398C1080.4 308.968 1080.08 304.08 1080.48 300.491C1081.03 295.529 1088.19 290.566 1100.86 287.258Z" fill="url(#paint1_linear)"/>
</g>
</g>
<defs>
<filter id="filter0_d" x="646" y="-240" width="850" height="850" filterUnits="userSpaceOnUse" color-interpolation-filters="sRGB">
<feFlood flood-opacity="0" result="BackgroundImageFix"/>
<feColorMatrix in="SourceAlpha" type="matrix" values="0 0 0 0 0 0 0 0 0 0 0 0 0 0 0 0 0 0 127 0"/>
<feOffset dx="10" dy="10"/>
<feGaussianBlur stdDeviation="25"/>
<feColorMatrix type="matrix" values="0 0 0 0 0.423529 0 0 0 0 0.388235 0 0 0 0 1 0 0 0 0.15 0"/>
<feBlend mode="normal" in2="BackgroundImageFix" result="effect1_dropShadow"/>
<feBlend mode="normal" in="SourceGraphic" in2="effect1_dropShadow" result="shape"/>
</filter>
<filter id="filter1_d" x="520" y="155" width="680.182" height="510" filterUnits="userSpaceOnUse" color-interpolation-filters="sRGB">
<feFlood flood-opacity="0" result="BackgroundImageFix"/>
<feColorMatrix in="SourceAlpha" type="matrix" values="0 0 0 0 0 0 0 0 0 0 0 0 0 0 0 0 0 0 127 0"/>
<feOffset dx="10" dy="-10"/>
<feGaussianBlur stdDeviation="15"/>
<feColorMatrix type="matrix" values="0 0 0 0 0.517647 0 0 0 0 0.517647 0 0 0 0 0.6 0 0 0 0.05 0"/>
<feBlend mode="normal" in2="BackgroundImageFix" result="effect1_dropShadow"/>
<feBlend mode="normal" in="SourceGraphic" in2="effect1_dropShadow" result="shape"/>
</filter>
<linearGradient id="paint0_linear" x1="686" y1="-200" x2="1549.99" y2="380.266" gradientUnits="userSpaceOnUse">
<stop stop-color="white" stop-opacity="0.2"/>
<stop offset="1" stop-color="white" stop-opacity="0"/>
</linearGradient>
<linearGradient id="paint1_linear" x1="540" y1="644.818" x2="1117.25" y2="488.65" gradientUnits="userSpaceOnUse">
<stop stop-color="white" stop-opacity="0.2"/>
<stop offset="1" stop-color="white" stop-opacity="0"/>
</linearGradient>
<clipPath id="clip0">
<rect width="1236" height="695" fill="white"/>
</clipPath>
</defs>
</svg>
