<svg width="695" height="926" viewBox="0 0 695 926" fill="none" xmlns="http://www.w3.org/2000/svg">
<g clip-path="url(#clip0)">
<rect width="926" height="695" transform="translate(0 926) rotate(-90)" fill="white"/>
<g filter="url(#filter0_d)">
<path fill-rule="evenodd" clip-rule="evenodd" d="M465.62 229.619L695.429 459.429C822.35 332.508 822.35 126.73 695.429 -0.19054L465.62 229.619Z" fill="#F9A922"/>
<path fill-rule="evenodd" clip-rule="evenodd" d="M465.62 229.619L695.429 -0.190557C568.509 -127.111 362.73 -127.111 235.81 -0.190559L465.62 229.619Z" fill="#F9B33C"/>
<path fill-rule="evenodd" clip-rule="evenodd" d="M465.62 229.619L235.81 -0.190518C108.889 126.73 108.889 332.509 235.81 459.429L465.62 229.619Z" fill="#F9BC55"/>
<path fill-rule="evenodd" clip-rule="evenodd" d="M695.429 459.429L465.62 229.619L235.81 459.429C362.73 586.349 568.509 586.349 695.429 459.429Z" fill="#F9C56E"/>
<circle cx="465.619" cy="229.619" r="325" transform="rotate(-45 465.619 229.619)" fill="url(#paint0_linear)"/>
</g>
<g filter="url(#filter1_d)">
<path d="M509.431 403.744L397.897 431.903L414.461 413.13L423.848 401.535L521.578 382.21L525.995 386.075L509.431 403.744Z" fill="#535461"/>
<path d="M525.995 386.074L416.118 411.473L415.566 384.97L447.038 372.823L509.983 362.332H528.204L525.995 386.074Z" fill="#D6D6E3"/>
<path d="M446.486 235.891L334.4 243.069V222.087L342.13 175.155L345.995 171.842L458.081 175.155L446.486 235.891Z" fill="#D6D6E3"/>
<path d="M472.989 130.431H478.511L479.615 170.737L461.394 177.363L450.351 235.339L500.596 338.038L530.965 361.78V384.418L512.744 402.639L511.639 486.013L506.118 487.118L507.222 404.296L525.443 384.971L525.995 361.78L496.731 338.59L445.382 235.891L456.425 177.363L474.646 169.633L472.989 130.431Z" fill="#D6D6E3"/>
<path d="M477.406 130.431H482.928L484.032 170.737L465.811 177.363L454.768 235.339L505.014 338.038L535.382 361.78V384.418L517.161 402.639L516.057 486.013L510.535 487.118L511.639 404.296L529.86 384.971L530.412 361.78L500.044 338.59L449.799 235.891L460.842 177.363L479.063 169.633L477.406 130.431Z" fill="#535461"/>
<path d="M477.682 166.596L474.922 170.461L459.461 177.639L336.885 174.326L348.756 170.737L361.455 165.216L359.799 160.799L477.682 166.596Z" fill="#A8A8A8"/>
<path d="M498.388 340.246L386.302 358.467L363.664 310.43L332.744 241.412L446.486 235.891L498.388 340.246Z" fill="#6C63FF"/>
<g opacity="0.1">
<path opacity="0.1" d="M440.412 255.768L364.768 261.841L403.971 339.142L477.406 328.099L440.412 255.768Z" fill="white"/>
</g>
<g opacity="0.1">
<path opacity="0.1" d="M435.195 261.384L431.854 261.654L433.582 265.061L436.823 264.575L435.195 261.384Z" fill="white"/>
</g>
<g opacity="0.1">
<path opacity="0.1" d="M434.642 293.408L431.302 293.679L433.03 297.086L436.271 296.6L434.642 293.408Z" fill="white"/>
</g>
<g opacity="0.1">
<path opacity="0.1" d="M416.422 265.248L413.081 265.519L414.809 268.925L418.05 268.439L416.422 265.248Z" fill="white"/>
</g>
<g opacity="0.1">
<path opacity="0.1" d="M381.636 266.905L378.296 267.176L380.024 270.583L383.265 270.097L381.636 266.905Z" fill="white"/>
</g>
<g opacity="0.1">
<path opacity="0.1" d="M428.569 271.322L425.228 271.593L426.957 275L430.198 274.514L428.569 271.322Z" fill="white"/>
</g>
<g opacity="0.1">
<path opacity="0.1" d="M416.422 305.003L413.081 305.273L414.809 308.68L418.05 308.194L416.422 305.003Z" fill="white"/>
</g>
<g opacity="0.1">
<path opacity="0.1" d="M446.238 285.678L442.897 285.948L444.625 289.355L447.866 288.869L446.238 285.678Z" fill="white"/>
</g>
<g opacity="0.1">
<path opacity="0.1" d="M395.44 265.248L392.1 265.519L393.828 268.925L397.069 268.439L395.44 265.248Z" fill="white"/>
</g>
<g opacity="0.1">
<path opacity="0.1" d="M421.943 284.021L418.603 284.292L420.331 287.699L423.572 287.213L421.943 284.021Z" fill="white"/>
</g>
<g opacity="0.1">
<path opacity="0.1" d="M425.808 263.04L422.468 263.311L424.196 266.717L427.437 266.231L425.808 263.04Z" fill="white"/>
</g>
<g opacity="0.1">
<path opacity="0.1" d="M408.692 282.365L405.351 282.636L407.079 286.043L410.32 285.557L408.692 282.365Z" fill="white"/>
</g>
<g opacity="0.1">
<path opacity="0.1" d="M404.826 265.248L401.486 265.519L403.214 268.925L406.455 268.439L404.826 265.248Z" fill="white"/>
</g>
<g opacity="0.1">
<path opacity="0.1" d="M439.612 272.979L436.271 273.249L437.999 276.656L441.241 276.17L439.612 272.979Z" fill="white"/>
</g>
<path d="M528.204 362.332L418.879 384.418L388.765 358.069L498.112 339.418L528.204 362.332Z" fill="#D6D6E3"/>
<path d="M507.774 400.982V487.117L399.554 524.663L397.897 435.216L402.314 426.895L422.192 421.964L507.774 400.982Z" fill="#535461"/>
<path d="M493.695 350.186C491.103 350.186 489.001 348.95 489.001 347.425C489.001 345.9 491.103 344.664 493.695 344.664C496.287 344.664 498.388 345.9 498.388 347.425C498.388 348.95 496.287 350.186 493.695 350.186Z" fill="#575988"/>
<path d="M489.83 356.259C487.238 356.259 485.136 355.023 485.136 353.498C485.136 351.973 487.238 350.737 489.83 350.737C492.422 350.737 494.523 351.973 494.523 353.498C494.523 355.023 492.422 356.259 489.83 356.259Z" fill="#FA595F"/>
<path d="M503.081 354.603C500.489 354.603 498.388 353.367 498.388 351.842C498.388 350.317 500.489 349.081 503.081 349.081C505.673 349.081 507.774 350.317 507.774 351.842C507.774 353.367 505.673 354.603 503.081 354.603Z" fill="#FFD037"/>
<path d="M443.449 360.124C440.857 360.124 438.756 358.888 438.756 357.363C438.756 355.839 440.857 354.603 443.449 354.603C446.041 354.603 448.142 355.839 448.142 357.363C448.142 358.888 446.041 360.124 443.449 360.124Z" fill="#575988"/>
<path d="M452.836 365.093C450.244 365.093 448.142 363.857 448.142 362.332C448.142 360.807 450.244 359.571 452.836 359.571C455.428 359.571 457.529 360.807 457.529 362.332C457.529 363.857 455.428 365.093 452.836 365.093Z" fill="#FFD037"/>
<path d="M470.504 357.363C466.693 357.363 463.603 355.88 463.603 354.05C463.603 352.221 466.693 350.737 470.504 350.737C474.316 350.737 477.406 352.221 477.406 354.05C477.406 355.88 474.316 357.363 470.504 357.363Z" fill="#A8A8A8"/>
<path d="M438.48 366.197C435.888 366.197 433.787 364.961 433.787 363.437C433.787 361.912 435.888 360.676 438.48 360.676C441.072 360.676 443.173 361.912 443.173 363.437C443.173 364.961 441.072 366.197 438.48 366.197Z" fill="#FA595F"/>
<path d="M468.572 353.503H471.885L474.734 342.505C474.853 342.042 474.866 341.558 474.769 341.09C474.673 340.622 474.471 340.182 474.178 339.804C473.886 339.426 473.51 339.12 473.081 338.91C472.652 338.699 472.18 338.59 471.703 338.59C470.872 338.59 470.076 338.92 469.489 339.507C468.902 340.094 468.572 340.89 468.572 341.721V353.503Z" fill="#A8A8A8"/>
<path d="M420.811 366.197C416.999 366.197 413.909 364.714 413.909 362.884C413.909 361.055 416.999 359.571 420.811 359.571C424.623 359.571 427.713 361.055 427.713 362.884C427.713 364.714 424.623 366.197 420.811 366.197Z" fill="#A8A8A8"/>
<path d="M418.879 362.338H422.191L425.041 351.34C425.16 350.877 425.172 350.393 425.076 349.925C424.98 349.457 424.778 349.017 424.485 348.639C424.192 348.261 423.817 347.955 423.388 347.745C422.959 347.534 422.487 347.425 422.009 347.425C421.179 347.425 420.383 347.755 419.796 348.342C419.208 348.929 418.879 349.725 418.879 350.555V362.338Z" fill="#A8A8A8"/>
<path d="M473.541 130.43L359.799 121.044L362.56 162.455L476.302 167.976L473.541 130.43Z" fill="#535461"/>
<path d="M360.351 121.044L307.897 124.909L315.075 476.075L395.412 527.7L400.934 523.835L401.21 431.903L418.879 412.026V384.418L387.958 357.363L335.504 240.86L342.958 174.326H339.093L363.664 165.768L360.351 121.044Z" fill="#D6D6E3"/>
<path d="M355.382 121.597L302.376 124.91L309.554 476.075L395.688 527.425V431.903L413.357 412.026V384.419L382.437 357.364L329.983 240.86L339.369 174.051L358.142 165.768L355.382 121.597Z" fill="#535461"/>
<path d="M448.634 334.338C456.364 350.35 475.391 346.198 475.391 346.198C476.374 345.287 482.525 343.763 487.19 342.709C490.183 342.03 492.563 341.555 492.563 341.555L486.031 332.45L481.133 333.455L473.828 334.957C473.828 334.957 440.876 318.331 448.634 334.338Z" fill="url(#paint1_linear)"/>
<g opacity="0.08">
<path opacity="0.08" d="M448.634 334.338C456.364 350.35 475.391 346.198 475.391 346.198C476.374 345.287 482.525 343.763 487.19 342.709C490.183 342.03 492.563 341.555 492.563 341.555L486.031 332.45L481.133 333.455L473.828 334.957C473.828 334.957 440.876 318.331 448.634 334.338Z" fill="url(#paint2_linear)"/>
</g>
<g opacity="0.1">
<path opacity="0.1" d="M481.128 333.455L487.201 342.715C490.194 342.036 492.574 341.561 492.574 341.561L486.042 332.456L481.128 333.455Z" fill="url(#paint3_linear)"/>
</g>
<path d="M549.031 300.36C549.031 300.36 520.557 344.857 490.067 344.752L481.785 332.053C481.785 332.053 509.69 312.12 513.401 301.729C514.77 297.864 517.597 292.569 520.612 287.373C529.871 271.455 554.845 281.852 549.357 299.344C549.25 299.69 549.141 300.028 549.031 300.36Z" fill="url(#paint4_linear)"/>
<g opacity="0.05">
<path opacity="0.05" d="M549.031 300.36C549.031 300.36 520.557 344.857 490.067 344.752L481.785 332.053C481.785 332.053 509.69 312.12 513.401 301.729C514.77 297.864 517.597 292.569 520.612 287.373C529.871 271.455 554.845 281.852 549.357 299.344C549.25 299.69 549.141 300.028 549.031 300.36Z" fill="url(#paint5_linear)"/>
</g>
<g opacity="0.1">
<path opacity="0.1" d="M492.303 398.36C498.697 399.591 510.01 401.7 521.6 403.533C527.674 404.494 533.814 405.378 539.368 406.018C547.915 407.006 555.066 407.42 558.379 406.647L559.163 395.052L526.315 380.525L523.947 392.076H492.32C492.32 392.076 492.32 394.484 492.303 398.36Z" fill="url(#paint6_linear)"/>
</g>
<g opacity="0.1">
<path opacity="0.1" d="M498.796 356.083C522.224 341.826 534.338 301.939 534.338 301.939C534.338 301.591 534.338 301.249 534.377 300.912C534.901 282.619 507.968 279.097 503.396 296.848C501.91 302.629 500.635 308.493 500.37 312.546C500.225 314.037 499.882 315.502 499.348 316.902C498.997 324.447 499.074 332.005 499.58 339.54C499.937 345.066 499.674 350.615 498.796 356.083Z" fill="url(#paint7_linear)"/>
</g>
<g opacity="0.1">
<path opacity="0.1" d="M533.383 241.401C529.573 247.701 526.558 254.045 518.823 255.122C515.025 250.303 510.61 246.003 505.693 242.334L530.539 230.783C530.539 230.783 529.082 234.726 533.383 241.401Z" fill="url(#paint8_linear)"/>
</g>
<path d="M514.091 253.128C500.167 253.128 488.88 242.12 488.88 228.541C488.88 214.962 500.167 203.954 514.091 203.954C528.015 203.954 539.302 214.962 539.302 228.541C539.302 242.12 528.015 253.128 514.091 253.128Z" fill="url(#paint9_linear)"/>
<g opacity="0.1">
<path opacity="0.1" d="M489.173 236.255C488.129 236.3 487.097 236.026 486.213 235.471C485.004 234.593 484.617 233.019 484.341 231.573C483.684 228.155 483.171 224.555 484.341 221.264C485.098 219.089 486.55 217.206 487.566 215.141C489.83 210.63 490.233 205.202 493.463 201.287C495.478 198.836 502.562 201.287 505.522 200.051C511.882 197.378 514.643 191.956 521.573 191.962C524.112 191.9 526.646 192.216 529.093 192.9C532.19 193.856 534.929 195.661 537.474 197.643C541.892 201.078 546.22 205.793 545.828 211.303C545.574 214.821 543.426 217.929 542.162 221.209C540.042 226.73 540.428 232.937 541.958 238.657C542.609 241.092 543.355 244.002 541.626 245.862C540.522 247.027 538.772 247.359 537.209 247.105C535.651 246.759 534.159 246.163 532.792 245.338C530.307 244.018 527.79 242.676 525.78 240.738C524.449 239.457 523.378 237.945 522.114 236.603C519.638 234.037 516.835 231.809 513.776 229.977C511.33 228.508 508.807 229.425 506.239 230.38C500.596 232.451 495.379 236.365 489.173 236.255Z" fill="url(#paint10_linear)"/>
</g>
<g opacity="0.05">
<path opacity="0.05" d="M498.796 356.082C499.672 350.624 499.935 345.084 499.58 339.567C499.074 332.032 498.997 324.474 499.349 316.929C499.691 308.095 500.387 299.355 501.055 292.414C502.045 281.937 507.058 272.251 515.041 265.392C516.813 263.874 518.392 262.753 519.458 262.477C520.788 262.123 522.417 261.063 524.03 259.777C529.452 255.453 522.561 263.874 520.788 265.392C512.806 272.251 507.793 281.937 506.803 292.414C506.14 299.355 505.439 308.095 505.096 316.929C504.745 324.474 504.822 332.032 505.328 339.567C505.683 345.084 505.42 350.624 504.544 356.082C501.574 376.197 492.723 396.196 492.723 396.196C492.723 396.196 535.934 404.925 556.043 405.853C540.285 406.957 486.997 396.196 486.997 396.196C486.997 396.196 495.826 376.186 498.796 356.082Z" fill="url(#paint11_linear)"/>
</g>
<path d="M446.105 359.688C457.948 373.099 475.131 364.16 475.131 364.16C475.833 363.023 481.343 359.958 485.545 357.728C488.245 356.297 490.409 355.215 490.409 355.215L481.625 348.137L477.18 350.378L470.554 353.724C470.554 353.724 434.25 346.276 446.105 359.688Z" fill="url(#paint12_linear)"/>
<g opacity="0.1">
<path opacity="0.1" d="M477.18 350.378L485.545 357.727C488.245 356.297 490.409 355.215 490.409 355.215L481.625 348.137L477.18 350.378Z" fill="url(#paint13_linear)"/>
</g>
<path d="M533.571 300.824C533.571 300.824 518.293 351.119 488.88 358.943L477.423 348.882C477.423 348.882 498.852 322.412 499.603 311.43C499.873 307.372 501.143 301.492 502.628 295.733C507.2 277.987 534.134 281.504 533.609 299.797C533.598 300.135 533.585 300.478 533.571 300.824Z" fill="url(#paint14_linear)"/>
<path opacity="0.05" d="M563.171 349.816C563.171 349.816 553.233 341.992 544.072 347.955C534.912 353.918 521.539 353.173 519.629 353.543" fill="url(#paint15_linear)"/>
<path d="M451.494 333.521C458.865 349.136 476.959 345.117 476.959 345.117C477.898 344.228 483.75 342.742 488.184 341.715C491.033 341.053 493.297 340.611 493.297 340.611L487.08 331.727L482.42 332.71L475.468 334.173C475.468 334.173 444.123 317.901 451.494 333.521Z" fill="#F7C4A7"/>
<path opacity="0.08" d="M451.494 333.521C458.865 349.136 476.959 345.117 476.959 345.117C477.898 344.228 483.75 342.742 488.184 341.715C491.033 341.053 493.297 340.611 493.297 340.611L487.08 331.727L482.42 332.71L475.468 334.173C475.468 334.173 444.123 317.901 451.494 333.521Z" fill="black"/>
<path opacity="0.1" d="M482.42 332.654L488.184 341.688C491.033 341.025 493.297 340.583 493.297 340.583L487.08 331.699L482.42 332.654Z" fill="black"/>
<path d="M547.038 300.365C547.038 300.365 519.938 343.786 490.928 343.676L483.038 331.307C483.038 331.307 509.591 311.861 513.125 301.718C514.428 297.974 517.117 292.784 519.982 287.727C528.817 272.2 552.559 282.343 547.341 299.41C547.242 299.723 547.141 300.041 547.038 300.365Z" fill="#575988"/>
<path opacity="0.05" d="M547.038 300.365C547.038 300.365 519.938 343.786 490.928 343.676L483.038 331.307C483.038 331.307 509.591 311.861 513.125 301.718C514.428 297.974 517.117 292.784 519.982 287.727C528.817 272.2 552.559 282.343 547.341 299.41C547.242 299.723 547.141 300.041 547.038 300.365Z" fill="black"/>
<path d="M564.679 552.724L563.409 567.809C563.409 567.809 521.788 560.719 522.152 546.546C522.517 532.372 564.679 552.724 564.679 552.724Z" fill="#535461"/>
<path opacity="0.1" d="M564.679 552.724L563.409 567.809C563.409 567.809 521.788 560.719 522.152 546.546C522.517 532.372 564.679 552.724 564.679 552.724Z" fill="black"/>
<path d="M515.968 557.451L516.697 570.542C516.697 570.542 458.898 566.18 461.079 553.823C463.26 541.466 493.794 548.368 493.794 548.368L515.968 557.451Z" fill="#535461"/>
<path d="M515.245 429.496C515.245 429.496 518.663 439.181 523.025 450.301C527.199 460.935 532.234 472.889 535.967 478.93C543.576 491.292 544.68 529.457 544.68 529.457C546.132 535.635 538.866 547.633 538.866 547.633C553.404 563.265 566.854 554.176 566.854 554.176C564.309 549.45 568.671 536 568.671 536C568.671 536 562.857 473.839 559.218 470.935C555.579 468.03 552.68 453.487 552.68 453.487L555.933 404.075L556.678 392.784L525.415 378.604L523.146 389.874L520.938 401.033L515.245 429.496Z" fill="#6A5C99"/>
<path opacity="0.1" d="M515.245 429.496C515.245 429.496 518.663 439.181 523.025 450.301C527.199 460.935 532.234 472.889 535.967 478.93C543.576 491.292 544.68 529.457 544.68 529.457C546.132 535.635 538.866 547.633 538.866 547.633C553.404 563.265 566.854 554.176 566.854 554.176C564.309 549.45 568.671 536 568.671 536C568.671 536 562.857 473.839 559.218 470.935C555.579 468.03 552.68 453.487 552.68 453.487L555.933 404.075L556.678 392.784L525.415 378.604L523.146 389.874L520.938 401.033L515.245 429.496Z" fill="black"/>
<path d="M487.98 549.814C494.523 561.448 517.426 559.99 517.426 559.99V525.818C517.426 525.818 523.969 487.648 520.336 478.924C516.703 470.2 521.788 454.204 521.788 454.204L523.025 450.295L537.85 403.451L542.146 389.868H493.071C493.071 389.868 493.071 392.193 493.071 395.98C493.01 410.518 492.712 446.574 491.265 454.939C489.449 465.479 494.539 472.387 494.539 472.387C494.539 472.387 491.63 515.277 494.175 528.706C496.72 542.134 487.98 549.814 487.98 549.814Z" fill="#6A5C99"/>
<path d="M528.331 230.298C528.331 230.298 535.967 251.379 551.234 259.01C566.501 266.64 526.15 268.827 526.15 268.827C526.15 268.827 519.607 252.814 504.704 241.562L528.331 230.298Z" fill="#F7C4A7"/>
<path opacity="0.1" d="M493.054 395.986C499.139 397.167 509.894 399.243 520.937 401.032C526.713 401.971 532.56 402.832 537.85 403.456C545.983 404.417 552.791 404.826 555.944 404.069L556.689 392.778L525.426 378.599L523.146 389.873H493.048C493.048 389.873 493.071 392.198 493.054 395.986Z" fill="black"/>
<path d="M487.98 393.855C487.98 393.855 549.412 406.554 557.042 402.579C564.673 398.604 566.495 388.4 564.314 377.136C562.133 365.872 564.314 337.878 568.312 302.254C570.327 284.315 565.888 272.278 560.985 264.741C558.873 261.514 555.99 258.865 552.596 257.033C549.202 255.201 545.406 254.245 541.549 254.25C534.881 254.227 528.41 256.507 523.229 260.705C521.694 261.958 520.142 262.991 518.878 263.339C517.879 263.609 516.377 264.702 514.693 266.182C507.056 272.952 502.294 282.383 501.38 292.547C500.745 299.316 500.083 307.847 499.757 316.472C499.421 323.832 499.493 331.205 499.972 338.558C500.31 343.939 500.06 349.342 499.227 354.669C496.406 374.359 487.98 393.855 487.98 393.855Z" fill="#575988"/>
<path opacity="0.1" d="M499.233 354.735C521.528 340.827 533.057 301.906 533.057 301.906C533.057 301.569 533.057 301.232 533.096 300.907C533.593 283.061 507.962 279.621 503.611 296.942C502.198 302.585 500.988 308.3 500.734 312.259C500.598 313.712 500.271 315.142 499.763 316.51C499.426 323.871 499.498 331.244 499.978 338.596C500.318 343.987 500.068 349.399 499.233 354.735Z" fill="black"/>
<path opacity="0.1" d="M532.146 242.836C528.524 248.982 525.653 255.177 518.287 256.221C514.687 251.532 510.486 247.336 505.792 243.742L529.418 232.473C529.418 232.473 528.055 236.327 532.146 242.836Z" fill="black"/>
<path d="M513.787 254.288C500.537 254.288 489.796 243.547 489.796 230.297C489.796 217.048 500.537 206.307 513.787 206.307C527.037 206.307 537.778 217.048 537.778 230.297C537.778 243.547 527.037 254.288 513.787 254.288Z" fill="#F7C4A7"/>
<path opacity="0.1" d="M490.072 237.817C489.076 237.857 488.093 237.587 487.257 237.044C486.108 236.189 485.738 234.648 485.479 233.24C484.855 229.927 484.374 226.394 485.479 223.18C486.196 221.054 487.56 219.221 488.549 217.206C490.707 212.789 491.088 207.51 494.158 203.689C496.08 201.298 502.816 203.689 505.637 202.48C511.711 199.874 514.317 194.584 520.91 194.59C523.335 194.528 525.756 194.837 528.088 195.506C531.036 196.434 533.642 198.212 536.061 200.133C540.279 203.485 544.387 208.084 544.012 213.462C543.769 216.897 541.726 219.9 540.522 223.125C538.501 228.525 538.866 234.571 540.329 240.148C540.947 242.522 541.66 245.36 540.014 247.182C538.987 248.314 537.298 248.645 535.79 248.391C534.296 248.055 532.869 247.473 531.566 246.668C529.203 245.382 526.807 244.073 524.896 242.185C523.632 240.932 522.611 239.457 521.407 238.149C519.06 235.652 516.392 233.478 513.472 231.683C511.142 230.253 508.752 231.131 506.295 232.075C500.944 234.107 495.98 237.928 490.072 237.817Z" fill="black"/>
<path d="M490.437 237.453C489.442 237.496 488.458 237.23 487.621 236.691C486.472 235.835 486.102 234.295 485.843 232.887C485.219 229.574 484.739 226.04 485.843 222.827C486.561 220.701 487.925 218.868 488.913 216.853C491.072 212.435 491.453 207.157 494.523 203.336C496.444 200.945 502.805 203.706 505.637 202.491C511.711 199.885 514.682 194.209 521.274 194.209C523.7 194.147 526.12 194.456 528.452 195.126C531.401 196.053 534.007 197.831 536.425 199.753C540.644 203.104 544.752 207.703 544.376 213.081C544.133 216.516 542.09 219.519 540.887 222.744C538.866 228.144 539.23 234.19 540.693 239.767C541.312 242.141 542.024 244.979 540.379 246.801C539.352 247.933 537.662 248.264 536.155 248.01C534.661 247.674 533.233 247.092 531.931 246.287C529.568 245.001 527.171 243.692 525.261 241.804C523.996 240.551 522.975 239.076 521.771 237.768C519.399 235.274 516.704 233.107 513.76 231.324C511.429 229.894 509.039 230.772 506.582 231.716C501.309 233.732 496.345 237.564 490.437 237.453Z" fill="#632652"/>
<path opacity="0.05" d="M499.233 354.735C500.057 349.412 500.3 344.015 499.956 338.64C499.476 331.287 499.404 323.914 499.741 316.554C500.066 307.929 500.729 299.404 501.364 292.629C502.278 282.465 507.04 273.034 514.676 266.264C516.36 264.779 517.862 263.691 518.861 263.421C520.126 263.073 521.677 262.04 523.212 260.787C528.375 256.569 521.815 264.785 520.126 266.264C512.49 273.034 507.728 282.465 506.814 292.629C506.179 299.399 505.516 307.929 505.19 316.554C504.854 323.914 504.926 331.287 505.406 338.64C505.743 344.021 505.493 349.424 504.66 354.751C501.833 374.375 493.408 393.888 493.408 393.888C493.408 393.888 534.531 402.402 553.663 403.313C538.667 404.417 487.958 393.888 487.958 393.888C487.958 393.888 496.406 374.358 499.233 354.735Z" fill="black"/>
<path d="M449.087 358.252C460.356 371.338 476.694 362.614 476.694 362.614C477.356 361.509 482.602 358.511 486.633 356.341C489.2 354.944 491.26 353.89 491.26 353.89L482.9 346.982L478.671 349.191L472.348 352.443C472.348 352.443 437.817 345.166 449.087 358.252Z" fill="#F7C4A7"/>
<path opacity="0.1" d="M478.66 349.169L486.621 356.347C489.189 354.95 491.248 353.896 491.248 353.896L482.889 346.988L478.66 349.169Z" fill="black"/>
<path d="M532.328 300.817C532.328 300.817 517.79 349.892 489.813 357.523L478.908 347.706C478.908 347.706 499.338 321.882 500.017 311.165C500.276 307.206 501.48 301.486 502.899 295.848C507.25 278.533 532.88 281.967 532.378 299.813C532.36 300.144 532.343 300.479 532.328 300.817Z" fill="#575988"/>
<path opacity="0.05" d="M560.499 348.617C560.499 348.617 551.046 340.981 542.322 346.8C533.598 352.62 520.877 351.891 519.06 352.256" fill="black"/>
<path fill-rule="evenodd" clip-rule="evenodd" d="M360.059 121.065L359.799 121.044L359.802 121.084L338.752 122.635L302.375 124.909L309.553 476.075L385.927 521.605L395.412 527.7L399.944 524.528L493.526 492.061C493.023 505.196 492.782 521.359 494.175 528.705C495.927 537.947 492.333 544.466 489.922 547.633C481.631 546.252 462.776 544.209 461.079 553.822C458.898 566.179 516.697 570.541 516.697 570.541L516.112 560.037C516.949 560.02 517.426 559.99 517.426 559.99V525.818C517.426 525.818 523.969 487.648 520.336 478.924C516.702 470.2 521.788 454.204 521.788 454.204L523.024 450.298L523.025 450.3C527.199 460.935 532.234 472.889 535.967 478.929C543.576 491.292 544.68 529.456 544.68 529.456C545.592 533.337 543.064 539.515 541.058 543.573C531.358 540.813 522.32 540.016 522.152 546.545C521.788 560.719 563.409 567.808 563.409 567.808L564.455 555.38C565.987 554.762 566.854 554.176 566.854 554.176C564.309 549.449 568.671 535.999 568.671 535.999C568.671 535.999 562.856 473.838 559.218 470.934C555.579 468.03 552.68 453.486 552.68 453.486L555.741 406.987C556.781 406.925 557.668 406.813 558.379 406.648L558.724 401.536C564.933 397.003 566.325 387.52 564.314 377.135C562.133 365.871 564.314 337.878 568.312 302.253C570.327 284.314 565.888 272.277 560.985 264.74C558.873 261.513 555.99 258.864 552.596 257.032C550.062 255.664 547.303 254.785 544.462 254.429C542.25 252.52 540.266 250.375 538.51 248.173C539.082 247.962 539.601 247.637 540.014 247.182C540.053 247.139 540.09 247.095 540.127 247.051C540.214 246.973 540.299 246.889 540.379 246.801C540.409 246.767 540.439 246.733 540.467 246.699C540.898 246.492 541.292 246.216 541.626 245.862C543.355 244.002 542.609 241.092 541.958 238.657C540.428 232.937 540.042 226.73 542.162 221.209C542.562 220.173 543.049 219.153 543.538 218.133C544.595 215.924 545.655 213.709 545.828 211.303C546.22 205.793 541.891 201.078 537.474 197.643C534.929 195.661 532.19 193.856 529.093 192.9C526.646 192.216 524.112 191.9 521.572 191.962C517.341 191.958 514.664 193.979 511.773 196.161L511.772 196.161C509.929 197.553 507.998 199.01 505.522 200.051C504.256 200.58 502.236 200.434 500.18 200.286C497.43 200.087 494.616 199.884 493.463 201.288C491.506 203.659 490.587 206.586 489.663 209.528C489.061 211.442 488.458 213.363 487.566 215.141C487.175 215.936 486.719 216.704 486.263 217.472L486.263 217.472C485.535 218.699 484.806 219.926 484.341 221.264C483.171 224.555 483.684 228.155 484.341 231.573C484.602 232.941 484.962 234.423 486.023 235.322C486.292 236.001 486.674 236.611 487.256 237.044C488.092 237.587 489.076 237.857 490.072 237.817C490.294 237.822 490.515 237.82 490.734 237.813C491.136 238.775 491.598 239.707 492.117 240.603C495.972 248.695 504.227 254.288 513.787 254.288C514.742 254.288 515.684 254.232 516.61 254.124C517.182 254.811 517.742 255.51 518.287 256.221C518.454 256.197 518.618 256.171 518.78 256.142C520.068 257.928 521.179 259.629 522.12 261.172C521.17 261.794 520.26 262.263 519.458 262.476C518.392 262.753 516.813 263.873 515.04 265.392C507.058 272.251 502.045 281.936 501.055 292.414C500.53 297.858 499.989 304.411 499.615 311.247C499.611 311.308 499.607 311.369 499.602 311.43C499.437 313.85 498.268 317.022 496.545 320.497L496.465 320.564L454.768 235.338L465.811 177.363L484.032 170.737L482.928 130.43H478.51H477.406H473.541L360.354 121.09L360.351 121.044L360.059 121.065ZM388.763 358.067L389.119 358.009L388.766 358.07L388.763 358.067Z" fill="url(#paint16_linear)"/>
</g>
<path d="M168.572 664.5V671H141.472V636H167.922V642.5H149.522V650.1H165.772V656.4H149.522V664.5H168.572ZM191.317 643.7C194.651 643.7 197.334 644.7 199.367 646.7C201.434 648.7 202.467 651.667 202.467 655.6V671H194.667V656.8C194.667 654.667 194.201 653.083 193.267 652.05C192.334 650.983 190.984 650.45 189.217 650.45C187.251 650.45 185.684 651.067 184.517 652.3C183.351 653.5 182.767 655.3 182.767 657.7V671H174.967V644.1H182.417V647.25C183.451 646.117 184.734 645.25 186.267 644.65C187.801 644.017 189.484 643.7 191.317 643.7ZM210.038 644.1H217.838V671H210.038V644.1ZM213.938 640.35C212.504 640.35 211.338 639.933 210.438 639.1C209.538 638.267 209.088 637.233 209.088 636C209.088 634.767 209.538 633.733 210.438 632.9C211.338 632.067 212.504 631.65 213.938 631.65C215.371 631.65 216.538 632.05 217.438 632.85C218.338 633.65 218.788 634.65 218.788 635.85C218.788 637.15 218.338 638.233 217.438 639.1C216.538 639.933 215.371 640.35 213.938 640.35ZM260.027 643.7C263.393 643.7 266.06 644.7 268.027 646.7C270.027 648.667 271.027 651.633 271.027 655.6V671H263.227V656.8C263.227 654.667 262.777 653.083 261.877 652.05C261.01 650.983 259.76 650.45 258.127 650.45C256.293 650.45 254.843 651.05 253.777 652.25C252.71 653.417 252.177 655.167 252.177 657.5V671H244.377V656.8C244.377 652.567 242.677 650.45 239.277 650.45C237.477 650.45 236.043 651.05 234.977 652.25C233.91 653.417 233.377 655.167 233.377 657.5V671H225.577V644.1H233.027V647.2C234.027 646.067 235.243 645.2 236.677 644.6C238.143 644 239.743 643.7 241.477 643.7C243.377 643.7 245.093 644.083 246.627 644.85C248.16 645.583 249.393 646.667 250.327 648.1C251.427 646.7 252.81 645.617 254.477 644.85C256.177 644.083 258.027 643.7 260.027 643.7ZM319.878 644.1L308.528 671H300.478L289.178 644.1H297.228L304.678 662.4L312.378 644.1H319.878ZM323.561 644.1H331.361V671H323.561V644.1ZM327.461 640.35C326.028 640.35 324.861 639.933 323.961 639.1C323.061 638.267 322.611 637.233 322.611 636C322.611 634.767 323.061 633.733 323.961 632.9C324.861 632.067 326.028 631.65 327.461 631.65C328.894 631.65 330.061 632.05 330.961 632.85C331.861 633.65 332.311 634.65 332.311 635.85C332.311 637.15 331.861 638.233 330.961 639.1C330.061 639.933 328.894 640.35 327.461 640.35ZM356.45 669.7C355.683 670.267 354.733 670.7 353.6 671C352.5 671.267 351.333 671.4 350.1 671.4C346.9 671.4 344.417 670.583 342.65 668.95C340.917 667.317 340.05 664.917 340.05 661.75V650.7H335.9V644.7H340.05V638.15H347.85V644.7H354.55V650.7H347.85V661.65C347.85 662.783 348.133 663.667 348.7 664.3C349.3 664.9 350.133 665.2 351.2 665.2C352.433 665.2 353.483 664.867 354.35 664.2L356.45 669.7ZM372.179 643.7C376.345 643.7 379.545 644.7 381.779 646.7C384.012 648.667 385.129 651.65 385.129 655.65V671H377.829V667.65C376.362 670.15 373.629 671.4 369.629 671.4C367.562 671.4 365.762 671.05 364.229 670.35C362.729 669.65 361.579 668.683 360.779 667.45C359.979 666.217 359.579 664.817 359.579 663.25C359.579 660.75 360.512 658.783 362.379 657.35C364.279 655.917 367.195 655.2 371.129 655.2H377.329C377.329 653.5 376.812 652.2 375.779 651.3C374.745 650.367 373.195 649.9 371.129 649.9C369.695 649.9 368.279 650.133 366.879 650.6C365.512 651.033 364.345 651.633 363.379 652.4L360.579 646.95C362.045 645.917 363.795 645.117 365.829 644.55C367.895 643.983 370.012 643.7 372.179 643.7ZM371.579 666.15C372.912 666.15 374.095 665.85 375.129 665.25C376.162 664.617 376.895 663.7 377.329 662.5V659.75H371.979C368.779 659.75 367.179 660.8 367.179 662.9C367.179 663.9 367.562 664.7 368.329 665.3C369.129 665.867 370.212 666.15 371.579 666.15ZM419.331 657.65C419.331 657.75 419.281 658.45 419.181 659.75H398.831C399.198 661.417 400.064 662.733 401.431 663.7C402.798 664.667 404.498 665.15 406.531 665.15C407.931 665.15 409.164 664.95 410.231 664.55C411.331 664.117 412.348 663.45 413.281 662.55L417.431 667.05C414.898 669.95 411.198 671.4 406.331 671.4C403.298 671.4 400.614 670.817 398.281 669.65C395.948 668.45 394.148 666.8 392.881 664.7C391.614 662.6 390.981 660.217 390.981 657.55C390.981 654.917 391.598 652.55 392.831 650.45C394.098 648.317 395.814 646.667 397.981 645.5C400.181 644.3 402.631 643.7 405.331 643.7C407.964 643.7 410.348 644.267 412.481 645.4C414.614 646.533 416.281 648.167 417.481 650.3C418.714 652.4 419.331 654.85 419.331 657.65ZM405.381 649.6C403.614 649.6 402.131 650.1 400.931 651.1C399.731 652.1 398.998 653.467 398.731 655.2H411.981C411.714 653.5 410.981 652.15 409.781 651.15C408.581 650.117 407.114 649.6 405.381 649.6ZM466.784 644.1V671H459.384V667.8C458.351 668.967 457.117 669.867 455.684 670.5C454.251 671.1 452.701 671.4 451.034 671.4C447.501 671.4 444.701 670.383 442.634 668.35C440.567 666.317 439.534 663.3 439.534 659.3V644.1H447.334V658.15C447.334 662.483 449.151 664.65 452.784 664.65C454.651 664.65 456.151 664.05 457.284 662.85C458.417 661.617 458.984 659.8 458.984 657.4V644.1H466.784ZM481.96 647.65C482.893 646.35 484.143 645.367 485.71 644.7C487.31 644.033 489.143 643.7 491.21 643.7V650.9C490.343 650.833 489.76 650.8 489.46 650.8C487.227 650.8 485.477 651.433 484.21 652.7C482.943 653.933 482.31 655.8 482.31 658.3V671H474.51V644.1H481.96V647.65ZM512.698 643.7C516.031 643.7 518.715 644.7 520.748 646.7C522.815 648.7 523.848 651.667 523.848 655.6V671H516.048V656.8C516.048 654.667 515.581 653.083 514.648 652.05C513.715 650.983 512.365 650.45 510.598 650.45C508.631 650.45 507.065 651.067 505.898 652.3C504.731 653.5 504.148 655.3 504.148 657.7V671H496.348V644.1H503.798V647.25C504.831 646.117 506.115 645.25 507.648 644.65C509.181 644.017 510.865 643.7 512.698 643.7ZM542.268 643.7C546.435 643.7 549.635 644.7 551.868 646.7C554.102 648.667 555.218 651.65 555.218 655.65V671H547.918V667.65C546.452 670.15 543.718 671.4 539.718 671.4C537.652 671.4 535.852 671.05 534.318 670.35C532.818 669.65 531.668 668.683 530.868 667.45C530.068 666.217 529.668 664.817 529.668 663.25C529.668 660.75 530.602 658.783 532.468 657.35C534.368 655.917 537.285 655.2 541.218 655.2H547.418C547.418 653.5 546.902 652.2 545.868 651.3C544.835 650.367 543.285 649.9 541.218 649.9C539.785 649.9 538.368 650.133 536.968 650.6C535.602 651.033 534.435 651.633 533.468 652.4L530.668 646.95C532.135 645.917 533.885 645.117 535.918 644.55C537.985 643.983 540.102 643.7 542.268 643.7ZM541.668 666.15C543.002 666.15 544.185 665.85 545.218 665.25C546.252 664.617 546.985 663.7 547.418 662.5V659.75H542.068C538.868 659.75 537.268 660.8 537.268 662.9C537.268 663.9 537.652 664.7 538.418 665.3C539.218 665.867 540.302 666.15 541.668 666.15ZM169.46 731.7C168.693 732.267 167.743 732.7 166.61 733C165.51 733.267 164.343 733.4 163.11 733.4C159.91 733.4 157.426 732.583 155.66 730.95C153.926 729.317 153.06 726.917 153.06 723.75V712.7H148.91V706.7H153.06V700.15H160.86V706.7H167.56V712.7H160.86V723.65C160.86 724.783 161.143 725.667 161.71 726.3C162.31 726.9 163.143 727.2 164.21 727.2C165.443 727.2 166.493 726.867 167.36 726.2L169.46 731.7ZM174.338 706.1H182.138V733H174.338V706.1ZM178.238 702.35C176.805 702.35 175.638 701.933 174.738 701.1C173.838 700.267 173.388 699.233 173.388 698C173.388 696.767 173.838 695.733 174.738 694.9C175.638 694.067 176.805 693.65 178.238 693.65C179.672 693.65 180.838 694.05 181.738 694.85C182.638 695.65 183.088 696.65 183.088 697.85C183.088 699.15 182.638 700.233 181.738 701.1C180.838 701.933 179.672 702.35 178.238 702.35ZM206.227 705.7C209.561 705.7 212.244 706.7 214.277 708.7C216.344 710.7 217.377 713.667 217.377 717.6V733H209.577V718.8C209.577 716.667 209.111 715.083 208.177 714.05C207.244 712.983 205.894 712.45 204.127 712.45C202.161 712.45 200.594 713.067 199.427 714.3C198.261 715.5 197.677 717.3 197.677 719.7V733H189.877V706.1H197.327V709.25C198.361 708.117 199.644 707.25 201.177 706.65C202.711 706.017 204.394 705.7 206.227 705.7ZM238.241 733.4C235.374 733.4 232.791 732.817 230.491 731.65C228.224 730.45 226.441 728.8 225.141 726.7C223.874 724.6 223.241 722.217 223.241 719.55C223.241 716.883 223.874 714.5 225.141 712.4C226.441 710.3 228.224 708.667 230.491 707.5C232.791 706.3 235.374 705.7 238.241 705.7C241.074 705.7 243.541 706.3 245.641 707.5C247.774 708.667 249.324 710.35 250.291 712.55L244.241 715.8C242.841 713.333 240.824 712.1 238.191 712.1C236.157 712.1 234.474 712.767 233.141 714.1C231.807 715.433 231.141 717.25 231.141 719.55C231.141 721.85 231.807 723.667 233.141 725C234.474 726.333 236.157 727 238.191 727C240.857 727 242.874 725.767 244.241 723.3L250.291 726.6C249.324 728.733 247.774 730.4 245.641 731.6C243.541 732.8 241.074 733.4 238.241 733.4ZM255.282 706.1H263.082V733H255.282V706.1ZM259.182 702.35C257.748 702.35 256.582 701.933 255.682 701.1C254.782 700.267 254.332 699.233 254.332 698C254.332 696.767 254.782 695.733 255.682 694.9C256.582 694.067 257.748 693.65 259.182 693.65C260.615 693.65 261.782 694.05 262.682 694.85C263.582 695.65 264.032 696.65 264.032 697.85C264.032 699.15 263.582 700.233 262.682 701.1C261.782 701.933 260.615 702.35 259.182 702.35ZM298.221 695.9V733H290.771V729.9C288.837 732.233 286.037 733.4 282.371 733.4C279.837 733.4 277.537 732.833 275.471 731.7C273.437 730.567 271.837 728.95 270.671 726.85C269.504 724.75 268.921 722.317 268.921 719.55C268.921 716.783 269.504 714.35 270.671 712.25C271.837 710.15 273.437 708.533 275.471 707.4C277.537 706.267 279.837 705.7 282.371 705.7C285.804 705.7 288.487 706.783 290.421 708.95V695.9H298.221ZM283.721 727C285.687 727 287.321 726.333 288.621 725C289.921 723.633 290.571 721.817 290.571 719.55C290.571 717.283 289.921 715.483 288.621 714.15C287.321 712.783 285.687 712.1 283.721 712.1C281.721 712.1 280.071 712.783 278.771 714.15C277.471 715.483 276.821 717.283 276.821 719.55C276.821 721.817 277.471 723.633 278.771 725C280.071 726.333 281.721 727 283.721 727ZM333.04 706.1V733H325.64V729.8C324.607 730.967 323.373 731.867 321.94 732.5C320.507 733.1 318.957 733.4 317.29 733.4C313.757 733.4 310.957 732.383 308.89 730.35C306.823 728.317 305.79 725.3 305.79 721.3V706.1H313.59V720.15C313.59 724.483 315.407 726.65 319.04 726.65C320.907 726.65 322.407 726.05 323.54 724.85C324.673 723.617 325.24 721.8 325.24 719.4V706.1H333.04ZM357.116 705.7C360.449 705.7 363.133 706.7 365.166 708.7C367.233 710.7 368.266 713.667 368.266 717.6V733H360.466V718.8C360.466 716.667 359.999 715.083 359.066 714.05C358.133 712.983 356.783 712.45 355.016 712.45C353.049 712.45 351.483 713.067 350.316 714.3C349.149 715.5 348.566 717.3 348.566 719.7V733H340.766V706.1H348.216V709.25C349.249 708.117 350.533 707.25 352.066 706.65C353.599 706.017 355.283 705.7 357.116 705.7ZM393.186 731.7C392.42 732.267 391.47 732.7 390.336 733C389.236 733.267 388.07 733.4 386.836 733.4C383.636 733.4 381.153 732.583 379.386 730.95C377.653 729.317 376.786 726.917 376.786 723.75V712.7H372.636V706.7H376.786V700.15H384.586V706.7H391.286V712.7H384.586V723.65C384.586 724.783 384.87 725.667 385.436 726.3C386.036 726.9 386.87 727.2 387.936 727.2C389.17 727.2 390.22 726.867 391.086 726.2L393.186 731.7ZM423.575 705.7C427.742 705.7 430.942 706.7 433.175 708.7C435.408 710.667 436.525 713.65 436.525 717.65V733H429.225V729.65C427.758 732.15 425.025 733.4 421.025 733.4C418.958 733.4 417.158 733.05 415.625 732.35C414.125 731.65 412.975 730.683 412.175 729.45C411.375 728.217 410.975 726.817 410.975 725.25C410.975 722.75 411.908 720.783 413.775 719.35C415.675 717.917 418.592 717.2 422.525 717.2H428.725C428.725 715.5 428.208 714.2 427.175 713.3C426.142 712.367 424.592 711.9 422.525 711.9C421.092 711.9 419.675 712.133 418.275 712.6C416.908 713.033 415.742 713.633 414.775 714.4L411.975 708.95C413.442 707.917 415.192 707.117 417.225 706.55C419.292 705.983 421.408 705.7 423.575 705.7ZM422.975 728.15C424.308 728.15 425.492 727.85 426.525 727.25C427.558 726.617 428.292 725.7 428.725 724.5V721.75H423.375C420.175 721.75 418.575 722.8 418.575 724.9C418.575 725.9 418.958 726.7 419.725 727.3C420.525 727.867 421.608 728.15 422.975 728.15ZM478.534 705.7C481.901 705.7 484.568 706.7 486.534 708.7C488.534 710.667 489.534 713.633 489.534 717.6V733H481.734V718.8C481.734 716.667 481.284 715.083 480.384 714.05C479.518 712.983 478.268 712.45 476.634 712.45C474.801 712.45 473.351 713.05 472.284 714.25C471.218 715.417 470.684 717.167 470.684 719.5V733H462.884V718.8C462.884 714.567 461.184 712.45 457.784 712.45C455.984 712.45 454.551 713.05 453.484 714.25C452.418 715.417 451.884 717.167 451.884 719.5V733H444.084V706.1H451.534V709.2C452.534 708.067 453.751 707.2 455.184 706.6C456.651 706 458.251 705.7 459.984 705.7C461.884 705.7 463.601 706.083 465.134 706.85C466.668 707.583 467.901 708.667 468.834 710.1C469.934 708.7 471.318 707.617 472.984 706.85C474.684 706.083 476.534 705.7 478.534 705.7ZM523.669 719.65C523.669 719.75 523.619 720.45 523.519 721.75H503.169C503.535 723.417 504.402 724.733 505.769 725.7C507.135 726.667 508.835 727.15 510.869 727.15C512.269 727.15 513.502 726.95 514.569 726.55C515.669 726.117 516.685 725.45 517.619 724.55L521.769 729.05C519.235 731.95 515.535 733.4 510.669 733.4C507.635 733.4 504.952 732.817 502.619 731.65C500.285 730.45 498.485 728.8 497.219 726.7C495.952 724.6 495.319 722.217 495.319 719.55C495.319 716.917 495.935 714.55 497.169 712.45C498.435 710.317 500.152 708.667 502.319 707.5C504.519 706.3 506.969 705.7 509.669 705.7C512.302 705.7 514.685 706.267 516.819 707.4C518.952 708.533 520.619 710.167 521.819 712.3C523.052 714.4 523.669 716.85 523.669 719.65ZM509.719 711.6C507.952 711.6 506.469 712.1 505.269 713.1C504.069 714.1 503.335 715.467 503.069 717.2H516.319C516.052 715.5 515.319 714.15 514.119 713.15C512.919 712.117 511.452 711.6 509.719 711.6ZM546.712 731.7C545.945 732.267 544.995 732.7 543.862 733C542.762 733.267 541.595 733.4 540.362 733.4C537.162 733.4 534.678 732.583 532.912 730.95C531.178 729.317 530.312 726.917 530.312 723.75V712.7H526.162V706.7H530.312V700.15H538.112V706.7H544.812V712.7H538.112V723.65C538.112 724.783 538.395 725.667 538.962 726.3C539.562 726.9 540.395 727.2 541.462 727.2C542.695 727.2 543.745 726.867 544.612 726.2L546.712 731.7Z" fill="#2F2E44"/>
<path d="M252.975 67.325C252.975 67.375 252.95 67.725 252.9 68.375H242.725C242.908 69.2083 243.342 69.8667 244.025 70.35C244.708 70.8333 245.558 71.075 246.575 71.075C247.275 71.075 247.892 70.975 248.425 70.775C248.975 70.5583 249.483 70.225 249.95 69.775L252.025 72.025C250.758 73.475 248.908 74.2 246.475 74.2C244.958 74.2 243.617 73.9083 242.45 73.325C241.283 72.725 240.383 71.9 239.75 70.85C239.117 69.8 238.8 68.6083 238.8 67.275C238.8 65.9583 239.108 64.775 239.725 63.725C240.358 62.6583 241.217 61.8333 242.3 61.25C243.4 60.65 244.625 60.35 245.975 60.35C247.292 60.35 248.483 60.6333 249.55 61.2C250.617 61.7667 251.45 62.5833 252.05 63.65C252.667 64.7 252.975 65.925 252.975 67.325ZM246 63.3C245.117 63.3 244.375 63.55 243.775 64.05C243.175 64.55 242.808 65.2333 242.675 66.1H249.3C249.167 65.25 248.8 64.575 248.2 64.075C247.6 63.5583 246.867 63.3 246 63.3ZM263.996 60.35C265.663 60.35 267.005 60.85 268.021 61.85C269.055 62.85 269.571 64.3333 269.571 66.3V74H265.671V66.9C265.671 65.8333 265.438 65.0417 264.971 64.525C264.505 63.9917 263.83 63.725 262.946 63.725C261.963 63.725 261.18 64.0333 260.596 64.65C260.013 65.25 259.721 66.15 259.721 67.35V74H255.821V60.55H259.546V62.125C260.063 61.5583 260.705 61.125 261.471 60.825C262.238 60.5083 263.08 60.35 263.996 60.35ZM287.378 60.55V71.75C287.378 74.2167 286.736 76.05 285.453 77.25C284.17 78.45 282.295 79.05 279.828 79.05C278.528 79.05 277.295 78.8917 276.128 78.575C274.961 78.2583 273.995 77.8 273.228 77.2L274.778 74.4C275.345 74.8667 276.061 75.2333 276.928 75.5C277.795 75.7833 278.661 75.925 279.528 75.925C280.878 75.925 281.87 75.6167 282.503 75C283.153 74.4 283.478 73.4833 283.478 72.25V71.675C282.461 72.7917 281.045 73.35 279.228 73.35C277.995 73.35 276.861 73.0833 275.828 72.55C274.811 72 274.003 71.2333 273.403 70.25C272.803 69.2667 272.503 68.1333 272.503 66.85C272.503 65.5667 272.803 64.4333 273.403 63.45C274.003 62.4667 274.811 61.7083 275.828 61.175C276.861 60.625 277.995 60.35 279.228 60.35C281.178 60.35 282.661 60.9917 283.678 62.275V60.55H287.378ZM280.003 70.15C281.036 70.15 281.878 69.85 282.528 69.25C283.195 68.6333 283.528 67.8333 283.528 66.85C283.528 65.8667 283.195 65.075 282.528 64.475C281.878 63.8583 281.036 63.55 280.003 63.55C278.97 63.55 278.12 63.8583 277.453 64.475C276.786 65.075 276.453 65.8667 276.453 66.85C276.453 67.8333 276.786 68.6333 277.453 69.25C278.12 69.85 278.97 70.15 280.003 70.15ZM291.258 55.45H295.158V74H291.258V55.45ZM299.028 60.55H302.928V74H299.028V60.55ZM300.978 58.675C300.261 58.675 299.678 58.4667 299.228 58.05C298.778 57.6333 298.553 57.1167 298.553 56.5C298.553 55.8833 298.778 55.3667 299.228 54.95C299.678 54.5333 300.261 54.325 300.978 54.325C301.694 54.325 302.278 54.525 302.728 54.925C303.178 55.325 303.403 55.825 303.403 56.425C303.403 57.075 303.178 57.6167 302.728 58.05C302.278 58.4667 301.694 58.675 300.978 58.675ZM311.322 74.2C310.205 74.2 309.114 74.0667 308.047 73.8C306.98 73.5167 306.13 73.1667 305.497 72.75L306.797 69.95C307.397 70.3333 308.122 70.65 308.972 70.9C309.822 71.1333 310.655 71.25 311.472 71.25C313.122 71.25 313.947 70.8417 313.947 70.025C313.947 69.6417 313.722 69.3667 313.272 69.2C312.822 69.0333 312.13 68.8917 311.197 68.775C310.097 68.6083 309.189 68.4167 308.472 68.2C307.755 67.9833 307.13 67.6 306.597 67.05C306.08 66.5 305.822 65.7167 305.822 64.7C305.822 63.85 306.064 63.1 306.547 62.45C307.047 61.7833 307.764 61.2667 308.697 60.9C309.647 60.5333 310.764 60.35 312.047 60.35C312.997 60.35 313.939 60.4583 314.872 60.675C315.822 60.875 316.605 61.1583 317.222 61.525L315.922 64.3C314.739 63.6333 313.447 63.3 312.047 63.3C311.214 63.3 310.589 63.4167 310.172 63.65C309.755 63.8833 309.547 64.1833 309.547 64.55C309.547 64.9667 309.772 65.2583 310.222 65.425C310.672 65.5917 311.389 65.75 312.372 65.9C313.472 66.0833 314.372 66.2833 315.072 66.5C315.772 66.7 316.38 67.075 316.897 67.625C317.414 68.175 317.672 68.9417 317.672 69.925C317.672 70.7583 317.422 71.5 316.922 72.15C316.422 72.8 315.689 73.3083 314.722 73.675C313.772 74.025 312.639 74.2 311.322 74.2ZM328.503 60.35C330.17 60.35 331.512 60.85 332.528 61.85C333.562 62.85 334.078 64.3333 334.078 66.3V74H330.178V66.9C330.178 65.8333 329.945 65.0417 329.478 64.525C329.012 63.9917 328.337 63.725 327.453 63.725C326.47 63.725 325.687 64.0333 325.103 64.65C324.52 65.25 324.228 66.15 324.228 67.35V74H320.328V55.45H324.228V61.95C324.745 61.4333 325.37 61.0417 326.103 60.775C326.837 60.4917 327.637 60.35 328.503 60.35ZM346.038 60.35C347.705 60.35 349.047 60.85 350.063 61.85C351.097 62.85 351.613 64.3333 351.613 66.3V74H347.713V66.9C347.713 65.8333 347.48 65.0417 347.013 64.525C346.547 63.9917 345.872 63.725 344.988 63.725C344.005 63.725 343.222 64.0333 342.638 64.65C342.055 65.25 341.763 66.15 341.763 67.35V74H337.863V60.55H341.588V62.125C342.105 61.5583 342.747 61.125 343.513 60.825C344.28 60.5083 345.122 60.35 346.038 60.35ZM368.72 67.325C368.72 67.375 368.695 67.725 368.645 68.375H358.47C358.653 69.2083 359.087 69.8667 359.77 70.35C360.453 70.8333 361.303 71.075 362.32 71.075C363.02 71.075 363.637 70.975 364.17 70.775C364.72 70.5583 365.228 70.225 365.695 69.775L367.77 72.025C366.503 73.475 364.653 74.2 362.22 74.2C360.703 74.2 359.362 73.9083 358.195 73.325C357.028 72.725 356.128 71.9 355.495 70.85C354.862 69.8 354.545 68.6083 354.545 67.275C354.545 65.9583 354.853 64.775 355.47 63.725C356.103 62.6583 356.962 61.8333 358.045 61.25C359.145 60.65 360.37 60.35 361.72 60.35C363.037 60.35 364.228 60.6333 365.295 61.2C366.362 61.7667 367.195 62.5833 367.795 63.65C368.412 64.7 368.72 65.925 368.72 67.325ZM361.745 63.3C360.862 63.3 360.12 63.55 359.52 64.05C358.92 64.55 358.553 65.2333 358.42 66.1H365.045C364.912 65.25 364.545 64.575 363.945 64.075C363.345 63.5583 362.612 63.3 361.745 63.3ZM375.292 62.325C375.758 61.675 376.383 61.1833 377.167 60.85C377.967 60.5167 378.883 60.35 379.917 60.35V63.95C379.483 63.9167 379.192 63.9 379.042 63.9C377.925 63.9 377.05 64.2167 376.417 64.85C375.783 65.4667 375.467 66.4 375.467 67.65V74H371.567V60.55H375.292V62.325ZM396.063 55.45V74H392.338V72.45C391.372 73.6167 389.972 74.2 388.138 74.2C386.872 74.2 385.722 73.9167 384.688 73.35C383.672 72.7833 382.872 71.975 382.288 70.925C381.705 69.875 381.413 68.6583 381.413 67.275C381.413 65.8917 381.705 64.675 382.288 63.625C382.872 62.575 383.672 61.7667 384.688 61.2C385.722 60.6333 386.872 60.35 388.138 60.35C389.855 60.35 391.197 60.8917 392.163 61.975V55.45H396.063ZM388.813 71C389.797 71 390.613 70.6667 391.263 70C391.913 69.3167 392.238 68.4083 392.238 67.275C392.238 66.1417 391.913 65.2417 391.263 64.575C390.613 63.8917 389.797 63.55 388.813 63.55C387.813 63.55 386.988 63.8917 386.338 64.575C385.688 65.2417 385.363 66.1417 385.363 67.275C385.363 68.4083 385.688 69.3167 386.338 70C386.988 70.6667 387.813 71 388.813 71ZM401.398 74.2C400.715 74.2 400.14 73.9667 399.673 73.5C399.206 73.0333 398.973 72.45 398.973 71.75C398.973 71.0333 399.206 70.4583 399.673 70.025C400.14 69.575 400.715 69.35 401.398 69.35C402.081 69.35 402.656 69.575 403.123 70.025C403.59 70.4583 403.823 71.0333 403.823 71.75C403.823 72.45 403.59 73.0333 403.123 73.5C402.656 73.9667 402.081 74.2 401.398 74.2ZM412.945 74.2C411.528 74.2 410.253 73.9083 409.12 73.325C408.003 72.725 407.128 71.9 406.495 70.85C405.862 69.8 405.545 68.6083 405.545 67.275C405.545 65.9417 405.862 64.75 406.495 63.7C407.128 62.65 408.003 61.8333 409.12 61.25C410.253 60.65 411.528 60.35 412.945 60.35C414.362 60.35 415.628 60.65 416.745 61.25C417.862 61.8333 418.737 62.65 419.37 63.7C420.003 64.75 420.32 65.9417 420.32 67.275C420.32 68.6083 420.003 69.8 419.37 70.85C418.737 71.9 417.862 72.725 416.745 73.325C415.628 73.9083 414.362 74.2 412.945 74.2ZM412.945 71C413.945 71 414.762 70.6667 415.395 70C416.045 69.3167 416.37 68.4083 416.37 67.275C416.37 66.1417 416.045 65.2417 415.395 64.575C414.762 63.8917 413.945 63.55 412.945 63.55C411.945 63.55 411.12 63.8917 410.47 64.575C409.82 65.2417 409.495 66.1417 409.495 67.275C409.495 68.4083 409.82 69.3167 410.47 70C411.12 70.6667 411.945 71 412.945 71ZM426.902 62.325C427.369 61.675 427.994 61.1833 428.777 60.85C429.577 60.5167 430.494 60.35 431.527 60.35V63.95C431.094 63.9167 430.802 63.9 430.652 63.9C429.535 63.9 428.66 64.2167 428.027 64.85C427.394 65.4667 427.077 66.4 427.077 67.65V74H423.177V60.55H426.902V62.325ZM447.849 60.55V71.75C447.849 74.2167 447.207 76.05 445.924 77.25C444.64 78.45 442.765 79.05 440.299 79.05C438.999 79.05 437.765 78.8917 436.599 78.575C435.432 78.2583 434.465 77.8 433.699 77.2L435.249 74.4C435.815 74.8667 436.532 75.2333 437.399 75.5C438.265 75.7833 439.132 75.925 439.999 75.925C441.349 75.925 442.34 75.6167 442.974 75C443.624 74.4 443.949 73.4833 443.949 72.25V71.675C442.932 72.7917 441.515 73.35 439.699 73.35C438.465 73.35 437.332 73.0833 436.299 72.55C435.282 72 434.474 71.2333 433.874 70.25C433.274 69.2667 432.974 68.1333 432.974 66.85C432.974 65.5667 433.274 64.4333 433.874 63.45C434.474 62.4667 435.282 61.7083 436.299 61.175C437.332 60.625 438.465 60.35 439.699 60.35C441.649 60.35 443.132 60.9917 444.149 62.275V60.55H447.849ZM440.474 70.15C441.507 70.15 442.349 69.85 442.999 69.25C443.665 68.6333 443.999 67.8333 443.999 66.85C443.999 65.8667 443.665 65.075 442.999 64.475C442.349 63.8583 441.507 63.55 440.474 63.55C439.44 63.55 438.59 63.8583 437.924 64.475C437.257 65.075 436.924 65.8667 436.924 66.85C436.924 67.8333 437.257 68.6333 437.924 69.25C438.59 69.85 439.44 70.15 440.474 70.15Z" fill="white"/>
</g>
<defs>
<filter id="filter0_d" x="-33.9999" y="-270" width="1019.24" height="1019.24" filterUnits="userSpaceOnUse" color-interpolation-filters="sRGB">
<feFlood flood-opacity="0" result="BackgroundImageFix"/>
<feColorMatrix in="SourceAlpha" type="matrix" values="0 0 0 0 0 0 0 0 0 0 0 0 0 0 0 0 0 0 127 0"/>
<feOffset dx="10" dy="10"/>
<feGaussianBlur stdDeviation="25"/>
<feColorMatrix type="matrix" values="0 0 0 0 0.976471 0 0 0 0 0.662745 0 0 0 0 0.133333 0 0 0 0.15 0"/>
<feBlend mode="normal" in2="BackgroundImageFix" result="effect1_dropShadow"/>
<feBlend mode="normal" in="SourceGraphic" in2="effect1_dropShadow" result="shape"/>
</filter>
<filter id="filter1_d" x="282" y="81" width="327.239" height="510" filterUnits="userSpaceOnUse" color-interpolation-filters="sRGB">
<feFlood flood-opacity="0" result="BackgroundImageFix"/>
<feColorMatrix in="SourceAlpha" type="matrix" values="0 0 0 0 0 0 0 0 0 0 0 0 0 0 0 0 0 0 127 0"/>
<feOffset dx="10" dy="-10"/>
<feGaussianBlur stdDeviation="15"/>
<feColorMatrix type="matrix" values="0 0 0 0 0.517647 0 0 0 0 0.517647 0 0 0 0 0.6 0 0 0 0.05 0"/>
<feBlend mode="normal" in2="BackgroundImageFix" result="effect1_dropShadow"/>
<feBlend mode="normal" in="SourceGraphic" in2="effect1_dropShadow" result="shape"/>
</filter>
<linearGradient id="paint0_linear" x1="140.619" y1="-95.3809" x2="889.415" y2="407.517" gradientUnits="userSpaceOnUse">
<stop stop-color="white" stop-opacity="0.2"/>
<stop offset="1" stop-color="white" stop-opacity="0"/>
</linearGradient>
<linearGradient id="paint1_linear" x1="-23111.5" y1="9024.13" x2="-23111.5" y2="8349.34" gradientUnits="userSpaceOnUse">
<stop stop-color="#808080" stop-opacity="0.25"/>
<stop offset="0.54" stop-color="#808080" stop-opacity="0.12"/>
<stop offset="1" stop-color="#808080" stop-opacity="0.1"/>
</linearGradient>
<linearGradient id="paint2_linear" x1="-23111.5" y1="9024.13" x2="-23111.5" y2="8349.34" gradientUnits="userSpaceOnUse">
<stop stop-color="#808080" stop-opacity="0.25"/>
<stop offset="0.54" stop-color="#808080" stop-opacity="0.12"/>
<stop offset="1" stop-color="#808080" stop-opacity="0.1"/>
</linearGradient>
<linearGradient id="paint3_linear" x1="-5147.45" y1="4880.95" x2="-5147.45" y2="4690.34" gradientUnits="userSpaceOnUse">
<stop stop-color="#808080" stop-opacity="0.25"/>
<stop offset="0.54" stop-color="#808080" stop-opacity="0.12"/>
<stop offset="1" stop-color="#808080" stop-opacity="0.1"/>
</linearGradient>
<linearGradient id="paint4_linear" x1="-29526.4" y1="29449.1" x2="-29526.4" y2="21743.4" gradientUnits="userSpaceOnUse">
<stop stop-color="#808080" stop-opacity="0.25"/>
<stop offset="0.54" stop-color="#808080" stop-opacity="0.12"/>
<stop offset="1" stop-color="#808080" stop-opacity="0.1"/>
</linearGradient>
<linearGradient id="paint5_linear" x1="-29526.4" y1="29449.1" x2="-29526.4" y2="21743.4" gradientUnits="userSpaceOnUse">
<stop stop-color="#808080" stop-opacity="0.25"/>
<stop offset="0.54" stop-color="#808080" stop-opacity="0.12"/>
<stop offset="1" stop-color="#808080" stop-opacity="0.1"/>
</linearGradient>
<linearGradient id="paint6_linear" x1="-27676.3" y1="15231.3" x2="-27676.3" y2="13958.2" gradientUnits="userSpaceOnUse">
<stop stop-color="#808080" stop-opacity="0.25"/>
<stop offset="0.54" stop-color="#808080" stop-opacity="0.12"/>
<stop offset="1" stop-color="#808080" stop-opacity="0.1"/>
</linearGradient>
<linearGradient id="paint7_linear" x1="-15084.4" y1="33422.3" x2="-15084.4" y2="24327.1" gradientUnits="userSpaceOnUse">
<stop stop-color="#808080" stop-opacity="0.25"/>
<stop offset="0.54" stop-color="#808080" stop-opacity="0.12"/>
<stop offset="1" stop-color="#808080" stop-opacity="0.1"/>
</linearGradient>
<linearGradient id="paint8_linear" x1="-11471.4" y1="7160.73" x2="-11471.4" y2="6088.12" gradientUnits="userSpaceOnUse">
<stop stop-color="#808080" stop-opacity="0.25"/>
<stop offset="0.54" stop-color="#808080" stop-opacity="0.12"/>
<stop offset="1" stop-color="#808080" stop-opacity="0.1"/>
</linearGradient>
<linearGradient id="paint9_linear" x1="-19574.6" y1="12463.6" x2="-19574.6" y2="8083.63" gradientUnits="userSpaceOnUse">
<stop stop-color="#808080" stop-opacity="0.25"/>
<stop offset="0.54" stop-color="#808080" stop-opacity="0.12"/>
<stop offset="1" stop-color="#808080" stop-opacity="0.1"/>
</linearGradient>
<linearGradient id="paint10_linear" x1="-26966" y1="15123.6" x2="-26966" y2="9599.97" gradientUnits="userSpaceOnUse">
<stop stop-color="#808080" stop-opacity="0.25"/>
<stop offset="0.54" stop-color="#808080" stop-opacity="0.12"/>
<stop offset="1" stop-color="#808080" stop-opacity="0.1"/>
</linearGradient>
<linearGradient id="paint11_linear" x1="-29133" y1="82477.5" x2="-29133" y2="43132.1" gradientUnits="userSpaceOnUse">
<stop stop-color="#808080" stop-opacity="0.25"/>
<stop offset="0.54" stop-color="#808080" stop-opacity="0.12"/>
<stop offset="1" stop-color="#808080" stop-opacity="0.1"/>
</linearGradient>
<linearGradient id="paint12_linear" x1="-24184.5" y1="9582.22" x2="-24184.5" y2="8932.52" gradientUnits="userSpaceOnUse">
<stop stop-color="#808080" stop-opacity="0.25"/>
<stop offset="0.54" stop-color="#808080" stop-opacity="0.12"/>
<stop offset="1" stop-color="#808080" stop-opacity="0.1"/>
</linearGradient>
<linearGradient id="paint13_linear" x1="-6101.42" y1="4861.27" x2="-6101.42" y2="4694.68" gradientUnits="userSpaceOnUse">
<stop stop-color="#808080" stop-opacity="0.25"/>
<stop offset="0.54" stop-color="#808080" stop-opacity="0.12"/>
<stop offset="1" stop-color="#808080" stop-opacity="0.1"/>
</linearGradient>
<linearGradient id="paint14_linear" x1="-25255" y1="35666.7" x2="-25255" y2="25522.7" gradientUnits="userSpaceOnUse">
<stop stop-color="#808080" stop-opacity="0.25"/>
<stop offset="0.54" stop-color="#808080" stop-opacity="0.12"/>
<stop offset="1" stop-color="#808080" stop-opacity="0.1"/>
</linearGradient>
<linearGradient id="paint15_linear" x1="-16589.9" y1="3970.33" x2="-16589.9" y2="3859.39" gradientUnits="userSpaceOnUse">
<stop stop-color="#808080" stop-opacity="0.25"/>
<stop offset="0.54" stop-color="#808080" stop-opacity="0.12"/>
<stop offset="1" stop-color="#808080" stop-opacity="0.1"/>
</linearGradient>
<linearGradient id="paint16_linear" x1="568.809" y1="570.541" x2="305.924" y2="539.93" gradientUnits="userSpaceOnUse">
<stop stop-color="white" stop-opacity="0.2"/>
<stop offset="1" stop-color="white" stop-opacity="0"/>
</linearGradient>
<clipPath id="clip0">
<rect width="926" height="695" fill="white" transform="translate(0 926) rotate(-90)"/>
</clipPath>
</defs>
</svg>
