<svg width="695" height="926" viewBox="0 0 695 926" fill="none" xmlns="http://www.w3.org/2000/svg">
<g clip-path="url(#clip0)">
<rect width="926" height="695" transform="translate(0 926) rotate(-90)" fill="white"/>
<circle cx="467" cy="211" r="325" transform="rotate(-45 467 211)" fill="#FF8BA4"/>
<path d="M145.25 165.021L512.979 532.751C415.234 546.642 312.376 515.995 237.19 440.81C162.005 365.625 131.358 262.767 145.25 165.021Z" fill="#FF99B0"/>
<path d="M145.25 165.021C151.9 118.226 168.759 72.6028 195.825 31.749L646.251 482.174C605.397 509.241 559.774 526.1 512.979 532.75L145.25 165.021Z" fill="#FF8CA6"/>
<path d="M287.749 -60.1745L738.175 390.251C726.338 408.116 712.55 425.069 696.81 440.81C681.069 456.55 664.116 470.338 646.251 482.175L195.825 31.7494C207.662 13.8841 221.45 -3.0692 237.19 -18.8096C252.931 -34.55 269.884 -48.3383 287.749 -60.1745Z" fill="#FF809C"/>
<path d="M421.021 -110.751L788.75 256.979C782.1 303.774 765.241 349.397 738.175 390.251L287.749 -60.1748C328.603 -87.2415 374.226 -104.1 421.021 -110.751Z" fill="#FF7392"/>
<path d="M788.75 256.979C802.642 159.234 771.995 56.376 696.81 -18.8093C621.624 -93.9947 518.766 -124.642 421.021 -110.75L788.75 256.979Z" fill="#FF6688"/>
<circle cx="467" cy="211" r="325" transform="rotate(-45 467 211)" fill="url(#paint0_linear)"/>
<g filter="url(#filter0_d)">
<path d="M500.161 351.484L497.357 359.514C497.357 359.514 479.834 378.918 492.451 381.594C505.068 384.27 506.469 360.852 506.469 360.852L509.974 354.161L500.161 351.484Z" fill="#FFB8B8"/>
<path d="M519.787 254.465C519.787 254.465 515.582 253.796 514.18 269.854C512.778 285.913 512.077 314.015 512.077 314.015L495.955 353.492L516.283 359.514L526.096 314.684L519.787 254.465Z" fill="#575A89"/>
<path d="M510.675 493.334L508.573 506.047H527.498L526.797 493.334H510.675Z" fill="#FFB8B8"/>
<path d="M571.657 507.385L570.255 524.782L582.872 526.12V506.047L571.657 507.385Z" fill="#FFB8B8"/>
<path d="M518.386 327.397L502.264 415.718L506.47 496.01H528.199V423.078L549.227 385.608L566.049 432.445L570.255 510.73L594.087 506.716L588.48 430.438C588.48 430.438 584.274 328.735 580.068 327.397C575.863 326.058 518.386 327.397 518.386 327.397Z" fill="#333244"/>
<path d="M512.778 502.032C512.778 502.032 512.778 495.341 507.17 499.356C501.563 503.371 494.554 510.731 494.554 510.731C494.554 510.731 467.918 524.782 486.843 526.789C505.769 528.796 517.685 517.422 517.685 517.422L519.787 519.429C519.787 519.429 531.002 517.422 531.002 514.745C530.921 512.503 530.687 510.268 530.302 508.054C530.302 508.054 528.827 496.705 527.111 499.034C525.395 501.363 515.582 506.047 512.778 502.032Z" fill="#333244"/>
<path d="M583.573 520.767C583.573 520.767 570.956 514.745 568.152 520.098C565.349 525.451 563.246 536.156 563.246 536.156C563.246 536.156 554.134 552.884 570.255 551.546C586.377 550.208 585.676 541.509 585.676 539.502C585.676 537.495 584.975 532.811 585.676 530.804C586.377 528.796 583.573 520.767 583.573 520.767Z" fill="#333244"/>
<path d="M555.886 228.035C566.725 228.035 575.512 219.647 575.512 209.3C575.512 198.953 566.725 190.565 555.886 190.565C545.046 190.565 536.259 198.953 536.259 209.3C536.259 219.647 545.046 228.035 555.886 228.035Z" fill="#FFB8B8"/>
<path d="M542.918 218.333L542.217 242.421L567.451 240.413V218.333H542.918Z" fill="#FFB8B8"/>
<path d="M568.853 228.37C568.853 228.37 556.937 235.73 553.432 237.068C549.928 238.407 542.217 231.716 542.217 231.716C542.217 231.716 540.115 233.054 540.115 234.392C540.115 235.73 538.713 241.083 538.713 241.083L521.89 293.942L523.292 331.412C523.292 331.412 574.461 336.095 580.068 330.073C585.676 324.052 577.264 237.738 577.264 237.738L568.853 228.37Z" fill="#E6E6E6"/>
<path d="M615.115 387.616C607.405 392.3 582.171 398.322 582.171 398.322C582.171 398.322 579.416 341.682 569.554 332.75C559.748 323.858 543.738 259.751 558.136 248.604C558.2 248.546 558.268 248.493 558.339 248.443L567.451 228.37C567.451 228.37 568.853 226.363 571.657 229.039C573.925 231.359 576.032 233.818 577.965 236.399L578.365 236.553L597.592 243.759L589.881 276.545C589.881 276.545 622.826 382.933 615.115 387.616Z" fill="#575A89"/>
<path opacity="0.1" d="M578.365 236.553L573.059 255.134L558.136 248.604C558.2 248.546 558.268 248.493 558.339 248.443L567.451 228.37C567.451 228.37 568.853 226.363 571.657 229.039C573.925 231.359 576.032 233.818 577.965 236.399L578.365 236.553Z" fill="black"/>
<path d="M541.867 231.381L539.764 254.13L539.652 255.167L523.643 400.664C523.643 400.664 509.624 395.98 504.717 390.627C499.811 385.274 515.932 325.724 515.932 325.724L517.334 250.785C517.334 250.785 529.769 242.428 534.851 237.838C536.042 236.767 536.827 235.904 536.96 235.395C537.661 232.719 541.867 231.381 541.867 231.381Z" fill="#575A89"/>
<path opacity="0.1" d="M541.867 231.381L539.764 254.13L539.652 255.167L529.601 253.796L534.851 237.838C536.042 236.767 536.827 235.904 536.96 235.395C537.661 232.719 541.867 231.381 541.867 231.381Z" fill="black"/>
<path d="M579.367 344.124L571.657 350.815C571.657 350.815 575.162 364.866 579.367 365.535C579.367 365.535 582.171 361.521 582.872 358.175C583.573 354.83 589.881 351.484 589.881 351.484L579.367 344.124Z" fill="#FFB8B8"/>
<path d="M588.48 242.421L597.592 243.759C597.592 243.759 627.732 292.603 624.228 310C620.723 327.397 592.685 357.506 592.685 357.506L575.162 344.124L601.096 310.669L587.779 270.523L588.48 242.421Z" fill="#575A89"/>
<path d="M536.215 211.405C536.215 211.405 536.215 194.883 540.421 191.128H545.469C545.469 191.128 551.357 182.867 558.928 185.871C566.499 188.875 579.117 194.132 578.276 202.393C577.435 210.654 574.811 215.992 574.811 215.992C574.811 215.992 573.409 215.992 570.285 211.501C566.109 205.499 575.752 207.37 563.134 205.117C550.516 202.864 542.945 199.86 541.263 202.864C539.58 205.868 536.215 211.405 536.215 211.405Z" fill="#2F2E41"/>
<path d="M545.385 192.248C545.385 192.248 546.057 187.42 548.825 186.38L545.385 192.248Z" fill="#2F2E41"/>
<path d="M545.373 193.242C545.373 193.242 543.969 188.559 546.071 186.551L545.373 193.242Z" fill="#2F2E41"/>
<path d="M462.624 152H81.1819C75.659 152 71.1819 156.477 71.1819 162V385.606C71.1819 391.129 75.659 395.606 81.1818 395.606H462.624C468.147 395.606 472.624 391.129 472.624 385.606V162C472.624 156.477 468.147 152 462.624 152Z" fill="#EBEEF2"/>
<path d="M472.624 170.739V164.046H460.28V152H454.913V164.046H88.8925V152H83.5257V164.046H71.1819V170.739H83.5257V376.868H71.1819V383.56H83.5257V395.606H88.8925V383.56H454.913V395.606H460.28V383.56H472.624V376.868H460.28V170.739H472.624ZM454.913 376.868H88.8925V170.739H454.913L454.913 376.868Z" fill="#D0D4D9"/>
<path d="M380.592 184.117H307.922C305.161 184.117 302.922 186.356 302.922 189.117V254.183C302.922 256.945 305.161 259.183 307.922 259.183H380.592C383.354 259.183 385.592 256.945 385.592 254.183V189.117C385.592 186.356 383.354 184.117 380.592 184.117Z" fill="#C2C6CC"/>
<path d="M373.698 193.085H314.817C313.436 193.085 312.317 194.204 312.317 195.585V237.216C312.317 238.597 313.436 239.716 314.817 239.716H373.698C375.078 239.716 376.198 238.597 376.198 237.216V195.585C376.198 194.204 375.078 193.085 373.698 193.085Z" fill="#6C63FF"/>
<path d="M346.269 200.748H328.874C327.493 200.748 326.374 201.867 326.374 203.248V219.626C326.374 221.007 327.493 222.126 328.874 222.126H346.269C347.649 222.126 348.769 221.007 348.769 219.626V203.248C348.769 201.867 347.649 200.748 346.269 200.748Z" fill="#F2F2F2"/>
<path d="M337.447 206.094C336.066 206.094 334.947 207.213 334.947 208.594V229.553C334.947 230.933 336.066 232.053 337.447 232.053H359.641C361.022 232.053 362.141 230.933 362.141 229.553V208.594C362.141 207.213 361.022 206.094 359.641 206.094H337.447ZM360.961 228.427C360.961 229.807 359.842 230.927 358.461 230.927H338.626C337.245 230.927 336.126 229.807 336.126 228.427V209.72C336.126 208.339 337.245 207.22 338.626 207.22H358.461C359.842 207.22 360.961 208.339 360.961 209.72V228.427Z" fill="#3F3D56"/>
<path d="M346.128 244.345H313.126C312.644 244.345 312.253 244.736 312.253 245.218C312.253 245.7 312.644 246.09 313.126 246.09H346.128C346.61 246.09 347 245.7 347 245.218C347 244.736 346.61 244.345 346.128 244.345Z" fill="#F2F2F2"/>
<path d="M344.257 191.972C346.277 191.972 347.915 190.409 347.915 188.481C347.915 186.552 346.277 184.989 344.257 184.989C342.237 184.989 340.6 186.552 340.6 188.481C340.6 190.409 342.237 191.972 344.257 191.972Z" fill="#3F3D56"/>
<path d="M411.771 292.385H339.101C336.34 292.385 334.101 294.623 334.101 297.385V362.451C334.101 365.212 336.34 367.451 339.101 367.451H411.771C414.532 367.451 416.771 365.212 416.771 362.451V297.385C416.771 294.623 414.532 292.385 411.771 292.385Z" fill="#C2C6CC"/>
<path d="M404.877 301.352H345.995C344.615 301.352 343.495 302.471 343.495 303.852V345.483C343.495 346.864 344.615 347.983 345.995 347.983H404.877C406.257 347.983 407.377 346.864 407.377 345.483V303.852C407.377 302.471 406.257 301.352 404.877 301.352Z" fill="#6C63FF"/>
<path d="M377.306 353.484H344.305C343.823 353.484 343.432 353.875 343.432 354.357C343.432 354.839 343.823 355.23 344.305 355.23H377.306C377.788 355.23 378.179 354.839 378.179 354.357C378.179 353.875 377.788 353.484 377.306 353.484Z" fill="#F2F2F2"/>
<path d="M377.306 358.723H344.305C343.823 358.723 343.432 359.113 343.432 359.596C343.432 360.078 343.823 360.468 344.305 360.468H377.306C377.788 360.468 378.179 360.078 378.179 359.596C378.179 359.113 377.788 358.723 377.306 358.723Z" fill="#F2F2F2"/>
<path d="M354.862 331.663C358.902 331.663 362.177 328.537 362.177 324.68C362.177 320.824 358.902 317.697 354.862 317.697C350.822 317.697 347.547 320.824 347.547 324.68C347.547 328.537 350.822 331.663 354.862 331.663Z" fill="#3F3D56"/>
<path d="M375.436 331.663C379.476 331.663 382.751 328.537 382.751 324.68C382.751 320.824 379.476 317.697 375.436 317.697C371.396 317.697 368.121 320.824 368.121 324.68C368.121 328.537 371.396 331.663 375.436 331.663Z" fill="#F2F2F2"/>
<path d="M396.01 331.663C400.05 331.663 403.325 328.537 403.325 324.68C403.325 320.824 400.05 317.697 396.01 317.697C391.97 317.697 388.695 320.824 388.695 324.68C388.695 328.537 391.97 331.663 396.01 331.663Z" fill="#FF6584"/>
<path d="M375.436 300.241C377.456 300.241 379.094 298.678 379.094 296.749C379.094 294.821 377.456 293.258 375.436 293.258C373.416 293.258 371.778 294.821 371.778 296.749C371.778 298.678 373.416 300.241 375.436 300.241Z" fill="#3F3D56"/>
<path d="M285.25 268.93H212.58C209.819 268.93 207.58 271.168 207.58 273.93V338.996C207.58 341.757 209.819 343.996 212.58 343.996H285.25C288.011 343.996 290.25 341.757 290.25 338.996V273.93C290.25 271.168 288.011 268.93 285.25 268.93Z" fill="#C2C6CC"/>
<path d="M278.356 277.897H219.474C218.094 277.897 216.974 279.017 216.974 280.397V322.029C216.974 323.41 218.094 324.529 219.474 324.529H278.356C279.736 324.529 280.856 323.41 280.856 322.029V280.397C280.856 279.017 279.736 277.897 278.356 277.897Z" fill="#6C63FF"/>
<path d="M244.661 321.468C253.227 321.468 260.171 314.84 260.171 306.663C260.171 298.487 253.227 291.858 244.661 291.858C236.096 291.858 229.152 298.487 229.152 306.663C229.152 314.84 236.096 321.468 244.661 321.468Z" fill="#F2F2F2"/>
<path d="M249.233 318.083C245.387 318.083 241.627 316.994 238.43 314.955C235.232 312.915 232.739 310.016 231.268 306.624C229.796 303.232 229.411 299.5 230.161 295.9C230.911 292.299 232.763 288.992 235.483 286.396C238.202 283.8 241.667 282.032 245.439 281.316C249.211 280.599 253.121 280.967 256.674 282.372C260.227 283.777 263.264 286.156 265.401 289.208C267.537 292.261 268.678 295.85 268.678 299.521C268.672 304.442 266.621 309.16 262.976 312.64C259.331 316.12 254.388 318.077 249.233 318.083ZM249.233 281.634C245.527 281.634 241.904 282.683 238.822 284.648C235.741 286.614 233.339 289.407 231.921 292.676C230.503 295.944 230.132 299.541 230.855 303.01C231.578 306.48 233.362 309.667 235.983 312.169C238.603 314.67 241.942 316.374 245.577 317.064C249.212 317.754 252.98 317.4 256.403 316.046C259.827 314.692 262.754 312.4 264.813 309.458C266.872 306.517 267.971 303.059 267.971 299.521C267.965 294.779 265.989 290.232 262.476 286.879C258.963 283.526 254.201 281.639 249.233 281.634Z" fill="#3F3D56"/>
<path d="M250.785 334.395H217.784C217.302 334.395 216.911 334.785 216.911 335.267C216.911 335.749 217.302 336.14 217.784 336.14H250.785C251.267 336.14 251.658 335.749 251.658 335.267C251.658 334.785 251.267 334.395 250.785 334.395Z" fill="#F2F2F2"/>
<path d="M264.501 329.158H217.784C217.302 329.158 216.911 329.549 216.911 330.031C216.911 330.513 217.302 330.904 217.784 330.904H264.501C264.983 330.904 265.374 330.513 265.374 330.031C265.374 329.549 264.983 329.158 264.501 329.158Z" fill="#F2F2F2"/>
<path d="M248.915 276.786C250.935 276.786 252.573 275.222 252.573 273.294C252.573 271.366 250.935 269.803 248.915 269.803C246.895 269.803 245.257 271.366 245.257 273.294C245.257 275.222 246.895 276.786 248.915 276.786Z" fill="#3F3D56"/>
<path d="M194.387 182.778H121.717C118.956 182.778 116.717 185.017 116.717 187.778V252.844C116.717 255.606 118.956 257.844 121.717 257.844H194.387C197.149 257.844 199.387 255.606 199.387 252.844V187.778C199.387 185.017 197.149 182.778 194.387 182.778Z" fill="#C2C6CC"/>
<path d="M187.493 191.746H128.612C127.231 191.746 126.112 192.865 126.112 194.246V235.877C126.112 237.258 127.231 238.377 128.612 238.377H187.493C188.874 238.377 189.993 237.258 189.993 235.877V194.246C189.993 192.865 188.874 191.746 187.493 191.746Z" fill="#6C63FF"/>
<path d="M162.98 228.252H153.125C152.051 228.252 151.181 229.122 151.181 230.196C151.181 231.269 152.051 232.139 153.125 232.139H162.98C164.053 232.139 164.924 231.269 164.924 230.196C164.924 229.122 164.053 228.252 162.98 228.252Z" fill="#3F3D56"/>
<path d="M180.705 197.984H135.4C134.94 197.984 134.567 198.357 134.567 198.817C134.567 199.277 134.94 199.65 135.4 199.65H180.705C181.165 199.65 181.538 199.277 181.538 198.817C181.538 198.357 181.165 197.984 180.705 197.984Z" fill="#3F3D56"/>
<path d="M180.705 203.261H135.4C134.94 203.261 134.567 203.634 134.567 204.094C134.567 204.554 134.94 204.927 135.4 204.927H180.705C181.165 204.927 181.538 204.554 181.538 204.094C181.538 203.634 181.165 203.261 180.705 203.261Z" fill="#3F3D56"/>
<path d="M180.705 208.536H135.4C134.94 208.536 134.567 208.909 134.567 209.369C134.567 209.829 134.94 210.202 135.4 210.202H180.705C181.165 210.202 181.538 209.829 181.538 209.369C181.538 208.909 181.165 208.536 180.705 208.536Z" fill="#3F3D56"/>
<path d="M180.705 213.812H135.4C134.94 213.812 134.567 214.185 134.567 214.646C134.567 215.106 134.94 215.479 135.4 215.479H180.705C181.165 215.479 181.538 215.106 181.538 214.646C181.538 214.185 181.165 213.812 180.705 213.812Z" fill="#3F3D56"/>
<path d="M180.705 219.088H135.4C134.94 219.088 134.567 219.461 134.567 219.921C134.567 220.381 134.94 220.754 135.4 220.754H180.705C181.165 220.754 181.538 220.381 181.538 219.921C181.538 219.461 181.165 219.088 180.705 219.088Z" fill="#3F3D56"/>
<path d="M159.923 243.006H126.921C126.439 243.006 126.048 243.397 126.048 243.879C126.048 244.361 126.439 244.752 126.921 244.752H159.922C160.405 244.752 160.795 244.361 160.795 243.879C160.795 243.397 160.405 243.006 159.923 243.006Z" fill="#F2F2F2"/>
<path d="M173.638 247.37H126.921C126.439 247.37 126.048 247.761 126.048 248.243C126.048 248.725 126.439 249.116 126.921 249.116H173.638C174.12 249.116 174.511 248.725 174.511 248.243C174.511 247.761 174.12 247.37 173.638 247.37Z" fill="#F2F2F2"/>
<path d="M158.052 190.634C160.072 190.634 161.71 189.071 161.71 187.143C161.71 185.215 160.072 183.651 158.052 183.651C156.032 183.651 154.395 185.215 154.395 187.143C154.395 189.071 156.032 190.634 158.052 190.634Z" fill="#3F3D56"/>
<path fill-rule="evenodd" clip-rule="evenodd" d="M82.7693 152H80.4255C74.9026 152 70.4255 156.477 70.4255 162V164.046V170.739V376.868V383.56V385.606C70.4255 391.129 74.9026 395.606 80.4255 395.606H82.7693H88.1362H454.157H459.524H461.868C467.391 395.606 471.868 391.129 471.868 385.606V383.56V376.868V170.739V164.046V162C471.868 156.477 467.391 152 461.868 152H459.524H454.157H88.1362H82.7693ZM536.494 206.822C536.449 208.101 536.449 208.895 536.449 208.895L536.59 208.662C537.087 213.442 539.466 217.694 543.009 220.732L542.755 229.462C542.662 229.385 542.589 229.323 542.538 229.279L542.481 229.231L542.451 229.206C542.451 229.206 542.284 229.312 542.043 229.495L542.101 228.871C542.101 228.871 541.838 228.954 541.433 229.122C540.217 229.624 537.72 230.878 537.195 232.885L537.194 232.886C537.061 233.394 536.276 234.257 535.085 235.328C530.003 239.918 517.568 248.275 517.568 248.275L517.46 254.086C516.307 256.08 515.061 259.929 514.414 267.344C513.012 283.403 512.311 311.505 512.311 311.505L496.189 350.982L499.365 351.923L497.591 357.004C497.591 357.004 480.068 376.407 492.685 379.084C505.302 381.76 506.703 358.342 506.703 358.342L508.406 355.091C505.135 370.197 502.573 385.523 504.951 388.117C505.467 388.68 506.084 389.235 506.775 389.779L502.498 413.208L506.704 493.5H510.467L510.122 495.585C509.407 495.675 508.516 496.05 507.405 496.846C501.797 500.86 494.788 508.221 494.788 508.221C494.788 508.221 468.152 522.272 487.077 524.279C506.003 526.286 517.919 514.912 517.919 514.912L520.021 516.919C520.021 516.919 531.236 514.912 531.236 512.235C531.155 509.993 530.921 507.758 530.536 505.544C530.536 505.544 529.061 494.196 527.345 496.524L527.179 493.5H528.433V420.568L549.461 383.099L566.284 429.936L570.489 508.22L571.637 508.027L571.026 515.613C569.878 515.916 568.941 516.53 568.386 517.588C565.583 522.941 563.48 533.646 563.48 533.646C563.48 533.646 554.368 550.374 570.489 549.036C586.03 547.746 585.939 539.616 585.912 537.234L585.912 537.226L585.911 537.203C585.911 537.126 585.91 537.056 585.91 536.992C585.91 536.401 585.849 535.577 585.781 534.659L585.781 534.657C585.618 532.456 585.416 529.709 585.91 528.293C586.611 526.286 583.807 518.257 583.807 518.257C583.807 518.257 583.724 518.217 583.571 518.148C583.455 518.095 583.298 518.025 583.106 517.942V506.095L594.321 504.206L588.714 427.928C588.714 427.928 588.099 413.068 587.105 394.633C594.784 392.649 609.726 388.521 615.349 385.106C618.773 383.026 614.181 360.895 608.017 336.928C615.27 327.388 622.759 315.94 624.462 307.49C627.955 290.149 598.018 241.561 597.827 241.25L597.826 241.249L578.599 234.043L578.199 233.889C576.266 231.307 574.159 228.849 571.891 226.529C569.788 224.521 568.474 225.149 567.948 225.588C567.773 225.734 567.685 225.86 567.685 225.86L567.685 225.86V221.928C570.774 219.774 573.179 216.779 574.53 213.296C574.878 213.481 575.045 213.481 575.045 213.481C575.045 213.481 577.669 208.144 578.51 199.883C579.351 191.622 566.733 186.365 559.162 183.361C554.041 181.328 549.689 184.451 547.409 186.685L549.059 183.87C547.267 184.544 546.353 186.806 545.932 188.317C545.901 188.356 545.873 188.392 545.848 188.424L546.305 184.041C545.134 185.16 545.051 187.11 545.208 188.618H540.655C537.72 191.238 536.833 200.074 536.565 205.176C536.518 205.708 536.493 206.246 536.493 206.79L536.494 206.822ZM601.331 308.159L600.498 309.233C596.661 295.684 593.156 284.012 591.366 278.121L601.331 308.159Z" fill="url(#paint1_linear)"/>
</g>
<path d="M84.1217 659.6C80.555 659.6 77.3217 658.833 74.4217 657.3C71.555 655.733 69.2883 653.583 67.6217 650.85C65.9883 648.083 65.1717 644.967 65.1717 641.5C65.1717 638.033 65.9883 634.933 67.6217 632.2C69.2883 629.433 71.555 627.283 74.4217 625.75C77.3217 624.183 80.5717 623.4 84.1717 623.4C87.205 623.4 89.9383 623.933 92.3717 625C94.8383 626.067 96.905 627.6 98.5717 629.6L93.3717 634.4C91.005 631.667 88.0717 630.3 84.5717 630.3C82.405 630.3 80.4717 630.783 78.7717 631.75C77.0717 632.683 75.7383 634 74.7717 635.7C73.8383 637.4 73.3717 639.333 73.3717 641.5C73.3717 643.667 73.8383 645.6 74.7717 647.3C75.7383 649 77.0717 650.333 78.7717 651.3C80.4717 652.233 82.405 652.7 84.5717 652.7C88.0717 652.7 91.005 651.317 93.3717 648.55L98.5717 653.35C96.905 655.383 94.8383 656.933 92.3717 658C89.905 659.067 87.155 659.6 84.1217 659.6ZM120.342 631.7C123.675 631.7 126.358 632.7 128.392 634.7C130.458 636.7 131.492 639.667 131.492 643.6V659H123.692V644.8C123.692 642.667 123.225 641.083 122.292 640.05C121.358 638.983 120.008 638.45 118.242 638.45C116.275 638.45 114.708 639.067 113.542 640.3C112.375 641.5 111.792 643.3 111.792 645.7V659H103.992V621.9H111.792V634.9C112.825 633.867 114.075 633.083 115.542 632.55C117.008 631.983 118.608 631.7 120.342 631.7ZM165.705 645.65C165.705 645.75 165.655 646.45 165.555 647.75H145.205C145.572 649.417 146.438 650.733 147.805 651.7C149.172 652.667 150.872 653.15 152.905 653.15C154.305 653.15 155.538 652.95 156.605 652.55C157.705 652.117 158.722 651.45 159.655 650.55L163.805 655.05C161.272 657.95 157.572 659.4 152.705 659.4C149.672 659.4 146.988 658.817 144.655 657.65C142.322 656.45 140.522 654.8 139.255 652.7C137.988 650.6 137.355 648.217 137.355 645.55C137.355 642.917 137.972 640.55 139.205 638.45C140.472 636.317 142.188 634.667 144.355 633.5C146.555 632.3 149.005 631.7 151.705 631.7C154.338 631.7 156.722 632.267 158.855 633.4C160.988 634.533 162.655 636.167 163.855 638.3C165.088 640.4 165.705 642.85 165.705 645.65ZM151.755 637.6C149.988 637.6 148.505 638.1 147.305 639.1C146.105 640.1 145.372 641.467 145.105 643.2H158.355C158.088 641.5 157.355 640.15 156.155 639.15C154.955 638.117 153.488 637.6 151.755 637.6ZM184.398 659.4C181.531 659.4 178.948 658.817 176.648 657.65C174.381 656.45 172.598 654.8 171.298 652.7C170.031 650.6 169.398 648.217 169.398 645.55C169.398 642.883 170.031 640.5 171.298 638.4C172.598 636.3 174.381 634.667 176.648 633.5C178.948 632.3 181.531 631.7 184.398 631.7C187.231 631.7 189.698 632.3 191.798 633.5C193.931 634.667 195.481 636.35 196.448 638.55L190.398 641.8C188.998 639.333 186.981 638.1 184.348 638.1C182.315 638.1 180.631 638.767 179.298 640.1C177.965 641.433 177.298 643.25 177.298 645.55C177.298 647.85 177.965 649.667 179.298 651C180.631 652.333 182.315 653 184.348 653C187.015 653 189.031 651.767 190.398 649.3L196.448 652.6C195.481 654.733 193.931 656.4 191.798 657.6C189.698 658.8 187.231 659.4 184.398 659.4ZM212.794 648.45L209.044 652.15V659H201.244V621.9H209.044V642.9L220.444 632.1H229.744L218.544 643.5L230.744 659H221.294L212.794 648.45ZM262.212 659.4C259.378 659.4 256.828 658.817 254.562 657.65C252.328 656.45 250.578 654.8 249.312 652.7C248.045 650.6 247.412 648.217 247.412 645.55C247.412 642.883 248.045 640.5 249.312 638.4C250.578 636.3 252.328 634.667 254.562 633.5C256.828 632.3 259.378 631.7 262.212 631.7C265.045 631.7 267.578 632.3 269.812 633.5C272.045 634.667 273.795 636.3 275.062 638.4C276.328 640.5 276.962 642.883 276.962 645.55C276.962 648.217 276.328 650.6 275.062 652.7C273.795 654.8 272.045 656.45 269.812 657.65C267.578 658.817 265.045 659.4 262.212 659.4ZM262.212 653C264.212 653 265.845 652.333 267.112 651C268.412 649.633 269.062 647.817 269.062 645.55C269.062 643.283 268.412 641.483 267.112 640.15C265.845 638.783 264.212 638.1 262.212 638.1C260.212 638.1 258.562 638.783 257.262 640.15C255.962 641.483 255.312 643.283 255.312 645.55C255.312 647.817 255.962 649.633 257.262 651C258.562 652.333 260.212 653 262.212 653ZM309.775 632.1V659H302.375V655.8C301.342 656.967 300.109 657.867 298.675 658.5C297.242 659.1 295.692 659.4 294.025 659.4C290.492 659.4 287.692 658.383 285.625 656.35C283.559 654.317 282.525 651.3 282.525 647.3V632.1H290.325V646.15C290.325 650.483 292.142 652.65 295.775 652.65C297.642 652.65 299.142 652.05 300.275 650.85C301.409 649.617 301.975 647.8 301.975 645.4V632.1H309.775ZM334.851 657.7C334.085 658.267 333.135 658.7 332.001 659C330.901 659.267 329.735 659.4 328.501 659.4C325.301 659.4 322.818 658.583 321.051 656.95C319.318 655.317 318.451 652.917 318.451 649.75V638.7H314.301V632.7H318.451V626.15H326.251V632.7H332.951V638.7H326.251V649.65C326.251 650.783 326.535 651.667 327.101 652.3C327.701 652.9 328.535 653.2 329.601 653.2C330.835 653.2 331.885 652.867 332.751 652.2L334.851 657.7ZM388.84 631.7C392.207 631.7 394.873 632.7 396.84 634.7C398.84 636.667 399.84 639.633 399.84 643.6V659H392.04V644.8C392.04 642.667 391.59 641.083 390.69 640.05C389.823 638.983 388.573 638.45 386.94 638.45C385.107 638.45 383.657 639.05 382.59 640.25C381.523 641.417 380.99 643.167 380.99 645.5V659H373.19V644.8C373.19 640.567 371.49 638.45 368.09 638.45C366.29 638.45 364.857 639.05 363.79 640.25C362.723 641.417 362.19 643.167 362.19 645.5V659H354.39V632.1H361.84V635.2C362.84 634.067 364.057 633.2 365.49 632.6C366.957 632 368.557 631.7 370.29 631.7C372.19 631.7 373.907 632.083 375.44 632.85C376.973 633.583 378.207 634.667 379.14 636.1C380.24 634.7 381.623 633.617 383.29 632.85C384.99 632.083 386.84 631.7 388.84 631.7ZM433.543 632.1L421.393 660.65C420.16 663.75 418.626 665.933 416.793 667.2C414.993 668.467 412.81 669.1 410.243 669.1C408.843 669.1 407.46 668.883 406.093 668.45C404.726 668.017 403.61 667.417 402.743 666.65L405.593 661.1C406.193 661.633 406.876 662.05 407.643 662.35C408.443 662.65 409.226 662.8 409.993 662.8C411.06 662.8 411.926 662.533 412.593 662C413.26 661.5 413.86 660.65 414.393 659.45L414.493 659.2L402.843 632.1H410.893L418.443 650.35L426.043 632.1H433.543ZM464.886 659.4C462.019 659.4 459.436 658.817 457.136 657.65C454.869 656.45 453.086 654.8 451.786 652.7C450.519 650.6 449.886 648.217 449.886 645.55C449.886 642.883 450.519 640.5 451.786 638.4C453.086 636.3 454.869 634.667 457.136 633.5C459.436 632.3 462.019 631.7 464.886 631.7C467.719 631.7 470.186 632.3 472.286 633.5C474.419 634.667 475.969 636.35 476.936 638.55L470.886 641.8C469.486 639.333 467.469 638.1 464.836 638.1C462.803 638.1 461.119 638.767 459.786 640.1C458.453 641.433 457.786 643.25 457.786 645.55C457.786 647.85 458.453 649.667 459.786 651C461.119 652.333 462.803 653 464.836 653C467.503 653 469.519 651.767 470.886 649.3L476.936 652.6C475.969 654.733 474.419 656.4 472.286 657.6C470.186 658.8 467.719 659.4 464.886 659.4ZM498.082 631.7C501.415 631.7 504.099 632.7 506.132 634.7C508.199 636.7 509.232 639.667 509.232 643.6V659H501.432V644.8C501.432 642.667 500.965 641.083 500.032 640.05C499.099 638.983 497.749 638.45 495.982 638.45C494.015 638.45 492.449 639.067 491.282 640.3C490.115 641.5 489.532 643.3 489.532 645.7V659H481.732V621.9H489.532V634.9C490.565 633.867 491.815 633.083 493.282 632.55C494.749 631.983 496.349 631.7 498.082 631.7ZM527.652 631.7C531.819 631.7 535.019 632.7 537.252 634.7C539.485 636.667 540.602 639.65 540.602 643.65V659H533.302V655.65C531.835 658.15 529.102 659.4 525.102 659.4C523.035 659.4 521.235 659.05 519.702 658.35C518.202 657.65 517.052 656.683 516.252 655.45C515.452 654.217 515.052 652.817 515.052 651.25C515.052 648.75 515.985 646.783 517.852 645.35C519.752 643.917 522.669 643.2 526.602 643.2H532.802C532.802 641.5 532.285 640.2 531.252 639.3C530.219 638.367 528.669 637.9 526.602 637.9C525.169 637.9 523.752 638.133 522.352 638.6C520.985 639.033 519.819 639.633 518.852 640.4L516.052 634.95C517.519 633.917 519.269 633.117 521.302 632.55C523.369 631.983 525.485 631.7 527.652 631.7ZM527.052 654.15C528.385 654.15 529.569 653.85 530.602 653.25C531.635 652.617 532.369 651.7 532.802 650.5V647.75H527.452C524.252 647.75 522.652 648.8 522.652 650.9C522.652 651.9 523.035 652.7 523.802 653.3C524.602 653.867 525.685 654.15 527.052 654.15ZM555.612 635.65C556.545 634.35 557.795 633.367 559.362 632.7C560.962 632.033 562.795 631.7 564.862 631.7V638.9C563.995 638.833 563.412 638.8 563.112 638.8C560.878 638.8 559.128 639.433 557.862 640.7C556.595 641.933 555.962 643.8 555.962 646.3V659H548.162V632.1H555.612V635.65ZM588.277 657.7C587.51 658.267 586.56 658.7 585.427 659C584.327 659.267 583.16 659.4 581.927 659.4C578.727 659.4 576.244 658.583 574.477 656.95C572.744 655.317 571.877 652.917 571.877 649.75V638.7H567.727V632.7H571.877V626.15H579.677V632.7H586.377V638.7H579.677V649.65C579.677 650.783 579.96 651.667 580.527 652.3C581.127 652.9 581.96 653.2 583.027 653.2C584.26 653.2 585.31 652.867 586.177 652.2L588.277 657.7ZM602.206 659.4C599.972 659.4 597.789 659.133 595.656 658.6C593.522 658.033 591.822 657.333 590.556 656.5L593.156 650.9C594.356 651.667 595.806 652.3 597.506 652.8C599.206 653.267 600.872 653.5 602.506 653.5C605.806 653.5 607.456 652.683 607.456 651.05C607.456 650.283 607.006 649.733 606.106 649.4C605.206 649.067 603.822 648.783 601.956 648.55C599.756 648.217 597.939 647.833 596.506 647.4C595.072 646.967 593.822 646.2 592.756 645.1C591.722 644 591.206 642.433 591.206 640.4C591.206 638.7 591.689 637.2 592.656 635.9C593.656 634.567 595.089 633.533 596.956 632.8C598.856 632.067 601.089 631.7 603.656 631.7C605.556 631.7 607.439 631.917 609.306 632.35C611.206 632.75 612.772 633.317 614.006 634.05L611.406 639.6C609.039 638.267 606.456 637.6 603.656 637.6C601.989 637.6 600.739 637.833 599.906 638.3C599.072 638.767 598.656 639.367 598.656 640.1C598.656 640.933 599.106 641.517 600.006 641.85C600.906 642.183 602.339 642.5 604.306 642.8C606.506 643.167 608.306 643.567 609.706 644C611.106 644.4 612.322 645.15 613.356 646.25C614.389 647.35 614.906 648.883 614.906 650.85C614.906 652.517 614.406 654 613.406 655.3C612.406 656.6 610.939 657.617 609.006 658.35C607.106 659.05 604.839 659.4 602.206 659.4ZM121.329 719.7C120.562 720.267 119.612 720.7 118.479 721C117.379 721.267 116.212 721.4 114.979 721.4C111.779 721.4 109.296 720.583 107.529 718.95C105.796 717.317 104.929 714.917 104.929 711.75V700.7H100.779V694.7H104.929V688.15H112.729V694.7H119.429V700.7H112.729V711.65C112.729 712.783 113.012 713.667 113.579 714.3C114.179 714.9 115.012 715.2 116.079 715.2C117.312 715.2 118.362 714.867 119.229 714.2L121.329 719.7ZM138.177 721.4C135.344 721.4 132.794 720.817 130.527 719.65C128.294 718.45 126.544 716.8 125.277 714.7C124.011 712.6 123.377 710.217 123.377 707.55C123.377 704.883 124.011 702.5 125.277 700.4C126.544 698.3 128.294 696.667 130.527 695.5C132.794 694.3 135.344 693.7 138.177 693.7C141.011 693.7 143.544 694.3 145.777 695.5C148.011 696.667 149.761 698.3 151.027 700.4C152.294 702.5 152.927 704.883 152.927 707.55C152.927 710.217 152.294 712.6 151.027 714.7C149.761 716.8 148.011 718.45 145.777 719.65C143.544 720.817 141.011 721.4 138.177 721.4ZM138.177 715C140.177 715 141.811 714.333 143.077 713C144.377 711.633 145.027 709.817 145.027 707.55C145.027 705.283 144.377 703.483 143.077 702.15C141.811 700.783 140.177 700.1 138.177 700.1C136.177 700.1 134.527 700.783 133.227 702.15C131.927 703.483 131.277 705.283 131.277 707.55C131.277 709.817 131.927 711.633 133.227 713C134.527 714.333 136.177 715 138.177 715ZM181.851 694.7H188.751V700.7H182.051V721H174.251V700.7H170.101V694.7H174.251V693.5C174.251 690.433 175.151 688 176.951 686.2C178.785 684.4 181.351 683.5 184.651 683.5C185.818 683.5 186.918 683.633 187.951 683.9C189.018 684.133 189.901 684.483 190.601 684.95L188.551 690.6C187.651 689.967 186.601 689.65 185.401 689.65C183.035 689.65 181.851 690.95 181.851 693.55V694.7ZM196.651 694.1H204.451V721H196.651V694.1ZM200.551 690.35C199.118 690.35 197.951 689.933 197.051 689.1C196.151 688.267 195.701 687.233 195.701 686C195.701 684.767 196.151 683.733 197.051 682.9C197.951 682.067 199.118 681.65 200.551 681.65C201.985 681.65 203.151 682.05 204.051 682.85C204.951 683.65 205.401 684.65 205.401 685.85C205.401 687.15 204.951 688.233 204.051 689.1C203.151 689.933 201.985 690.35 200.551 690.35ZM228.53 693.7C231.863 693.7 234.547 694.7 236.58 696.7C238.647 698.7 239.68 701.667 239.68 705.6V721H231.88V706.8C231.88 704.667 231.413 703.083 230.48 702.05C229.547 700.983 228.197 700.45 226.43 700.45C224.463 700.45 222.897 701.067 221.73 702.3C220.563 703.5 219.98 705.3 219.98 707.7V721H212.18V694.1H219.63V697.25C220.663 696.117 221.947 695.25 223.48 694.65C225.013 694.017 226.697 693.7 228.53 693.7ZM274.943 683.9V721H267.493V717.9C265.56 720.233 262.76 721.4 259.093 721.4C256.56 721.4 254.26 720.833 252.193 719.7C250.16 718.567 248.56 716.95 247.393 714.85C246.227 712.75 245.643 710.317 245.643 707.55C245.643 704.783 246.227 702.35 247.393 700.25C248.56 698.15 250.16 696.533 252.193 695.4C254.26 694.267 256.56 693.7 259.093 693.7C262.527 693.7 265.21 694.783 267.143 696.95V683.9H274.943ZM260.443 715C262.41 715 264.043 714.333 265.343 713C266.643 711.633 267.293 709.817 267.293 707.55C267.293 705.283 266.643 703.483 265.343 702.15C264.043 700.783 262.41 700.1 260.443 700.1C258.443 700.1 256.793 700.783 255.493 702.15C254.193 703.483 253.543 705.283 253.543 707.55C253.543 709.817 254.193 711.633 255.493 713C256.793 714.333 258.443 715 260.443 715ZM306.373 721.4C304.139 721.4 301.956 721.133 299.823 720.6C297.689 720.033 295.989 719.333 294.723 718.5L297.323 712.9C298.523 713.667 299.973 714.3 301.673 714.8C303.373 715.267 305.039 715.5 306.673 715.5C309.973 715.5 311.623 714.683 311.623 713.05C311.623 712.283 311.173 711.733 310.273 711.4C309.373 711.067 307.989 710.783 306.123 710.55C303.923 710.217 302.106 709.833 300.673 709.4C299.239 708.967 297.989 708.2 296.923 707.1C295.889 706 295.373 704.433 295.373 702.4C295.373 700.7 295.856 699.2 296.823 697.9C297.823 696.567 299.256 695.533 301.123 694.8C303.023 694.067 305.256 693.7 307.823 693.7C309.723 693.7 311.606 693.917 313.473 694.35C315.373 694.75 316.939 695.317 318.173 696.05L315.573 701.6C313.206 700.267 310.623 699.6 307.823 699.6C306.156 699.6 304.906 699.833 304.073 700.3C303.239 700.767 302.823 701.367 302.823 702.1C302.823 702.933 303.273 703.517 304.173 703.85C305.073 704.183 306.506 704.5 308.473 704.8C310.673 705.167 312.473 705.567 313.873 706C315.273 706.4 316.489 707.15 317.523 708.25C318.556 709.35 319.073 710.883 319.073 712.85C319.073 714.517 318.573 716 317.573 717.3C316.573 718.6 315.106 719.617 313.173 720.35C311.273 721.05 309.006 721.4 306.373 721.4ZM337.185 721.4C334.352 721.4 331.802 720.817 329.535 719.65C327.302 718.45 325.552 716.8 324.285 714.7C323.018 712.6 322.385 710.217 322.385 707.55C322.385 704.883 323.018 702.5 324.285 700.4C325.552 698.3 327.302 696.667 329.535 695.5C331.802 694.3 334.352 693.7 337.185 693.7C340.018 693.7 342.552 694.3 344.785 695.5C347.018 696.667 348.768 698.3 350.035 700.4C351.302 702.5 351.935 704.883 351.935 707.55C351.935 710.217 351.302 712.6 350.035 714.7C348.768 716.8 347.018 718.45 344.785 719.65C342.552 720.817 340.018 721.4 337.185 721.4ZM337.185 715C339.185 715 340.818 714.333 342.085 713C343.385 711.633 344.035 709.817 344.035 707.55C344.035 705.283 343.385 703.483 342.085 702.15C340.818 700.783 339.185 700.1 337.185 700.1C335.185 700.1 333.535 700.783 332.235 702.15C330.935 703.483 330.285 705.283 330.285 707.55C330.285 709.817 330.935 711.633 332.235 713C333.535 714.333 335.185 715 337.185 715ZM392.099 693.7C395.465 693.7 398.132 694.7 400.099 696.7C402.099 698.667 403.099 701.633 403.099 705.6V721H395.299V706.8C395.299 704.667 394.849 703.083 393.949 702.05C393.082 700.983 391.832 700.45 390.199 700.45C388.365 700.45 386.915 701.05 385.849 702.25C384.782 703.417 384.249 705.167 384.249 707.5V721H376.449V706.8C376.449 702.567 374.749 700.45 371.349 700.45C369.549 700.45 368.115 701.05 367.049 702.25C365.982 703.417 365.449 705.167 365.449 707.5V721H357.649V694.1H365.099V697.2C366.099 696.067 367.315 695.2 368.749 694.6C370.215 694 371.815 693.7 373.549 693.7C375.449 693.7 377.165 694.083 378.699 694.85C380.232 695.583 381.465 696.667 382.399 698.1C383.499 696.7 384.882 695.617 386.549 694.85C388.249 694.083 390.099 693.7 392.099 693.7ZM437.233 707.65C437.233 707.75 437.183 708.45 437.083 709.75H416.733C417.1 711.417 417.967 712.733 419.333 713.7C420.7 714.667 422.4 715.15 424.433 715.15C425.833 715.15 427.067 714.95 428.133 714.55C429.233 714.117 430.25 713.45 431.183 712.55L435.333 717.05C432.8 719.95 429.1 721.4 424.233 721.4C421.2 721.4 418.517 720.817 416.183 719.65C413.85 718.45 412.05 716.8 410.783 714.7C409.517 712.6 408.883 710.217 408.883 707.55C408.883 704.917 409.5 702.55 410.733 700.45C412 698.317 413.717 696.667 415.883 695.5C418.083 694.3 420.533 693.7 423.233 693.7C425.867 693.7 428.25 694.267 430.383 695.4C432.517 696.533 434.183 698.167 435.383 700.3C436.617 702.4 437.233 704.85 437.233 707.65ZM423.283 699.6C421.517 699.6 420.033 700.1 418.833 701.1C417.633 702.1 416.9 703.467 416.633 705.2H429.883C429.617 703.5 428.883 702.15 427.683 701.15C426.483 700.117 425.017 699.6 423.283 699.6ZM492.036 693.7C495.403 693.7 498.07 694.7 500.036 696.7C502.036 698.667 503.036 701.633 503.036 705.6V721H495.236V706.8C495.236 704.667 494.786 703.083 493.886 702.05C493.02 700.983 491.77 700.45 490.136 700.45C488.303 700.45 486.853 701.05 485.786 702.25C484.72 703.417 484.186 705.167 484.186 707.5V721H476.386V706.8C476.386 702.567 474.686 700.45 471.286 700.45C469.486 700.45 468.053 701.05 466.986 702.25C465.92 703.417 465.386 705.167 465.386 707.5V721H457.586V694.1H465.036V697.2C466.036 696.067 467.253 695.2 468.686 694.6C470.153 694 471.753 693.7 473.486 693.7C475.386 693.7 477.103 694.083 478.636 694.85C480.17 695.583 481.403 696.667 482.336 698.1C483.436 696.7 484.82 695.617 486.486 694.85C488.186 694.083 490.036 693.7 492.036 693.7ZM523.621 721.4C520.787 721.4 518.237 720.817 515.971 719.65C513.737 718.45 511.987 716.8 510.721 714.7C509.454 712.6 508.821 710.217 508.821 707.55C508.821 704.883 509.454 702.5 510.721 700.4C511.987 698.3 513.737 696.667 515.971 695.5C518.237 694.3 520.787 693.7 523.621 693.7C526.454 693.7 528.987 694.3 531.221 695.5C533.454 696.667 535.204 698.3 536.471 700.4C537.737 702.5 538.371 704.883 538.371 707.55C538.371 710.217 537.737 712.6 536.471 714.7C535.204 716.8 533.454 718.45 531.221 719.65C528.987 720.817 526.454 721.4 523.621 721.4ZM523.621 715C525.621 715 527.254 714.333 528.521 713C529.821 711.633 530.471 709.817 530.471 707.55C530.471 705.283 529.821 703.483 528.521 702.15C527.254 700.783 525.621 700.1 523.621 700.1C521.621 700.1 519.971 700.783 518.671 702.15C517.371 703.483 516.721 705.283 516.721 707.55C516.721 709.817 517.371 711.633 518.671 713C519.971 714.333 521.621 715 523.621 715ZM551.534 697.65C552.468 696.35 553.718 695.367 555.284 694.7C556.884 694.033 558.718 693.7 560.784 693.7V700.9C559.918 700.833 559.334 700.8 559.034 700.8C556.801 700.8 555.051 701.433 553.784 702.7C552.518 703.933 551.884 705.8 551.884 708.3V721H544.084V694.1H551.534V697.65ZM592.028 707.65C592.028 707.75 591.978 708.45 591.878 709.75H571.528C571.895 711.417 572.761 712.733 574.128 713.7C575.495 714.667 577.195 715.15 579.228 715.15C580.628 715.15 581.861 714.95 582.928 714.55C584.028 714.117 585.045 713.45 585.978 712.55L590.128 717.05C587.595 719.95 583.895 721.4 579.028 721.4C575.995 721.4 573.311 720.817 570.978 719.65C568.645 718.45 566.845 716.8 565.578 714.7C564.311 712.6 563.678 710.217 563.678 707.55C563.678 704.917 564.295 702.55 565.528 700.45C566.795 698.317 568.511 696.667 570.678 695.5C572.878 694.3 575.328 693.7 578.028 693.7C580.661 693.7 583.045 694.267 585.178 695.4C587.311 696.533 588.978 698.167 590.178 700.3C591.411 702.4 592.028 704.85 592.028 707.65ZM578.078 699.6C576.311 699.6 574.828 700.1 573.628 701.1C572.428 702.1 571.695 703.467 571.428 705.2H584.678C584.411 703.5 583.678 702.15 582.478 701.15C581.278 700.117 579.811 699.6 578.078 699.6Z" fill="#2F2E44"/>
<path d="M251.975 67.325C251.975 67.375 251.95 67.725 251.9 68.375H241.725C241.908 69.2083 242.342 69.8667 243.025 70.35C243.708 70.8333 244.558 71.075 245.575 71.075C246.275 71.075 246.892 70.975 247.425 70.775C247.975 70.5583 248.483 70.225 248.95 69.775L251.025 72.025C249.758 73.475 247.908 74.2 245.475 74.2C243.958 74.2 242.617 73.9083 241.45 73.325C240.283 72.725 239.383 71.9 238.75 70.85C238.117 69.8 237.8 68.6083 237.8 67.275C237.8 65.9583 238.108 64.775 238.725 63.725C239.358 62.6583 240.217 61.8333 241.3 61.25C242.4 60.65 243.625 60.35 244.975 60.35C246.292 60.35 247.483 60.6333 248.55 61.2C249.617 61.7667 250.45 62.5833 251.05 63.65C251.667 64.7 251.975 65.925 251.975 67.325ZM245 63.3C244.117 63.3 243.375 63.55 242.775 64.05C242.175 64.55 241.808 65.2333 241.675 66.1H248.3C248.167 65.25 247.8 64.575 247.2 64.075C246.6 63.5583 245.867 63.3 245 63.3ZM262.996 60.35C264.663 60.35 266.005 60.85 267.021 61.85C268.055 62.85 268.571 64.3333 268.571 66.3V74H264.671V66.9C264.671 65.8333 264.438 65.0417 263.971 64.525C263.505 63.9917 262.83 63.725 261.946 63.725C260.963 63.725 260.18 64.0333 259.596 64.65C259.013 65.25 258.721 66.15 258.721 67.35V74H254.821V60.55H258.546V62.125C259.063 61.5583 259.705 61.125 260.471 60.825C261.238 60.5083 262.08 60.35 262.996 60.35ZM286.378 60.55V71.75C286.378 74.2167 285.736 76.05 284.453 77.25C283.17 78.45 281.295 79.05 278.828 79.05C277.528 79.05 276.295 78.8917 275.128 78.575C273.961 78.2583 272.995 77.8 272.228 77.2L273.778 74.4C274.345 74.8667 275.061 75.2333 275.928 75.5C276.795 75.7833 277.661 75.925 278.528 75.925C279.878 75.925 280.87 75.6167 281.503 75C282.153 74.4 282.478 73.4833 282.478 72.25V71.675C281.461 72.7917 280.045 73.35 278.228 73.35C276.995 73.35 275.861 73.0833 274.828 72.55C273.811 72 273.003 71.2333 272.403 70.25C271.803 69.2667 271.503 68.1333 271.503 66.85C271.503 65.5667 271.803 64.4333 272.403 63.45C273.003 62.4667 273.811 61.7083 274.828 61.175C275.861 60.625 276.995 60.35 278.228 60.35C280.178 60.35 281.661 60.9917 282.678 62.275V60.55H286.378ZM279.003 70.15C280.036 70.15 280.878 69.85 281.528 69.25C282.195 68.6333 282.528 67.8333 282.528 66.85C282.528 65.8667 282.195 65.075 281.528 64.475C280.878 63.8583 280.036 63.55 279.003 63.55C277.97 63.55 277.12 63.8583 276.453 64.475C275.786 65.075 275.453 65.8667 275.453 66.85C275.453 67.8333 275.786 68.6333 276.453 69.25C277.12 69.85 277.97 70.15 279.003 70.15ZM290.258 55.45H294.158V74H290.258V55.45ZM298.028 60.55H301.928V74H298.028V60.55ZM299.978 58.675C299.261 58.675 298.678 58.4667 298.228 58.05C297.778 57.6333 297.553 57.1167 297.553 56.5C297.553 55.8833 297.778 55.3667 298.228 54.95C298.678 54.5333 299.261 54.325 299.978 54.325C300.694 54.325 301.278 54.525 301.728 54.925C302.178 55.325 302.403 55.825 302.403 56.425C302.403 57.075 302.178 57.6167 301.728 58.05C301.278 58.4667 300.694 58.675 299.978 58.675ZM310.322 74.2C309.205 74.2 308.114 74.0667 307.047 73.8C305.98 73.5167 305.13 73.1667 304.497 72.75L305.797 69.95C306.397 70.3333 307.122 70.65 307.972 70.9C308.822 71.1333 309.655 71.25 310.472 71.25C312.122 71.25 312.947 70.8417 312.947 70.025C312.947 69.6417 312.722 69.3667 312.272 69.2C311.822 69.0333 311.13 68.8917 310.197 68.775C309.097 68.6083 308.189 68.4167 307.472 68.2C306.755 67.9833 306.13 67.6 305.597 67.05C305.08 66.5 304.822 65.7167 304.822 64.7C304.822 63.85 305.064 63.1 305.547 62.45C306.047 61.7833 306.764 61.2667 307.697 60.9C308.647 60.5333 309.764 60.35 311.047 60.35C311.997 60.35 312.939 60.4583 313.872 60.675C314.822 60.875 315.605 61.1583 316.222 61.525L314.922 64.3C313.739 63.6333 312.447 63.3 311.047 63.3C310.214 63.3 309.589 63.4167 309.172 63.65C308.755 63.8833 308.547 64.1833 308.547 64.55C308.547 64.9667 308.772 65.2583 309.222 65.425C309.672 65.5917 310.389 65.75 311.372 65.9C312.472 66.0833 313.372 66.2833 314.072 66.5C314.772 66.7 315.38 67.075 315.897 67.625C316.414 68.175 316.672 68.9417 316.672 69.925C316.672 70.7583 316.422 71.5 315.922 72.15C315.422 72.8 314.689 73.3083 313.722 73.675C312.772 74.025 311.639 74.2 310.322 74.2ZM327.503 60.35C329.17 60.35 330.512 60.85 331.528 61.85C332.562 62.85 333.078 64.3333 333.078 66.3V74H329.178V66.9C329.178 65.8333 328.945 65.0417 328.478 64.525C328.012 63.9917 327.337 63.725 326.453 63.725C325.47 63.725 324.687 64.0333 324.103 64.65C323.52 65.25 323.228 66.15 323.228 67.35V74H319.328V55.45H323.228V61.95C323.745 61.4333 324.37 61.0417 325.103 60.775C325.837 60.4917 326.637 60.35 327.503 60.35ZM345.038 60.35C346.705 60.35 348.047 60.85 349.063 61.85C350.097 62.85 350.613 64.3333 350.613 66.3V74H346.713V66.9C346.713 65.8333 346.48 65.0417 346.013 64.525C345.547 63.9917 344.872 63.725 343.988 63.725C343.005 63.725 342.222 64.0333 341.638 64.65C341.055 65.25 340.763 66.15 340.763 67.35V74H336.863V60.55H340.588V62.125C341.105 61.5583 341.747 61.125 342.513 60.825C343.28 60.5083 344.122 60.35 345.038 60.35ZM367.72 67.325C367.72 67.375 367.695 67.725 367.645 68.375H357.47C357.653 69.2083 358.087 69.8667 358.77 70.35C359.453 70.8333 360.303 71.075 361.32 71.075C362.02 71.075 362.637 70.975 363.17 70.775C363.72 70.5583 364.228 70.225 364.695 69.775L366.77 72.025C365.503 73.475 363.653 74.2 361.22 74.2C359.703 74.2 358.362 73.9083 357.195 73.325C356.028 72.725 355.128 71.9 354.495 70.85C353.862 69.8 353.545 68.6083 353.545 67.275C353.545 65.9583 353.853 64.775 354.47 63.725C355.103 62.6583 355.962 61.8333 357.045 61.25C358.145 60.65 359.37 60.35 360.72 60.35C362.037 60.35 363.228 60.6333 364.295 61.2C365.362 61.7667 366.195 62.5833 366.795 63.65C367.412 64.7 367.72 65.925 367.72 67.325ZM360.745 63.3C359.862 63.3 359.12 63.55 358.52 64.05C357.92 64.55 357.553 65.2333 357.42 66.1H364.045C363.912 65.25 363.545 64.575 362.945 64.075C362.345 63.5583 361.612 63.3 360.745 63.3ZM374.292 62.325C374.758 61.675 375.383 61.1833 376.167 60.85C376.967 60.5167 377.883 60.35 378.917 60.35V63.95C378.483 63.9167 378.192 63.9 378.042 63.9C376.925 63.9 376.05 64.2167 375.417 64.85C374.783 65.4667 374.467 66.4 374.467 67.65V74H370.567V60.55H374.292V62.325ZM395.063 55.45V74H391.338V72.45C390.372 73.6167 388.972 74.2 387.138 74.2C385.872 74.2 384.722 73.9167 383.688 73.35C382.672 72.7833 381.872 71.975 381.288 70.925C380.705 69.875 380.413 68.6583 380.413 67.275C380.413 65.8917 380.705 64.675 381.288 63.625C381.872 62.575 382.672 61.7667 383.688 61.2C384.722 60.6333 385.872 60.35 387.138 60.35C388.855 60.35 390.197 60.8917 391.163 61.975V55.45H395.063ZM387.813 71C388.797 71 389.613 70.6667 390.263 70C390.913 69.3167 391.238 68.4083 391.238 67.275C391.238 66.1417 390.913 65.2417 390.263 64.575C389.613 63.8917 388.797 63.55 387.813 63.55C386.813 63.55 385.988 63.8917 385.338 64.575C384.688 65.2417 384.363 66.1417 384.363 67.275C384.363 68.4083 384.688 69.3167 385.338 70C385.988 70.6667 386.813 71 387.813 71ZM400.398 74.2C399.715 74.2 399.14 73.9667 398.673 73.5C398.206 73.0333 397.973 72.45 397.973 71.75C397.973 71.0333 398.206 70.4583 398.673 70.025C399.14 69.575 399.715 69.35 400.398 69.35C401.081 69.35 401.656 69.575 402.123 70.025C402.59 70.4583 402.823 71.0333 402.823 71.75C402.823 72.45 402.59 73.0333 402.123 73.5C401.656 73.9667 401.081 74.2 400.398 74.2ZM411.945 74.2C410.528 74.2 409.253 73.9083 408.12 73.325C407.003 72.725 406.128 71.9 405.495 70.85C404.862 69.8 404.545 68.6083 404.545 67.275C404.545 65.9417 404.862 64.75 405.495 63.7C406.128 62.65 407.003 61.8333 408.12 61.25C409.253 60.65 410.528 60.35 411.945 60.35C413.362 60.35 414.628 60.65 415.745 61.25C416.862 61.8333 417.737 62.65 418.37 63.7C419.003 64.75 419.32 65.9417 419.32 67.275C419.32 68.6083 419.003 69.8 418.37 70.85C417.737 71.9 416.862 72.725 415.745 73.325C414.628 73.9083 413.362 74.2 411.945 74.2ZM411.945 71C412.945 71 413.762 70.6667 414.395 70C415.045 69.3167 415.37 68.4083 415.37 67.275C415.37 66.1417 415.045 65.2417 414.395 64.575C413.762 63.8917 412.945 63.55 411.945 63.55C410.945 63.55 410.12 63.8917 409.47 64.575C408.82 65.2417 408.495 66.1417 408.495 67.275C408.495 68.4083 408.82 69.3167 409.47 70C410.12 70.6667 410.945 71 411.945 71ZM425.902 62.325C426.369 61.675 426.994 61.1833 427.777 60.85C428.577 60.5167 429.494 60.35 430.527 60.35V63.95C430.094 63.9167 429.802 63.9 429.652 63.9C428.535 63.9 427.66 64.2167 427.027 64.85C426.394 65.4667 426.077 66.4 426.077 67.65V74H422.177V60.55H425.902V62.325ZM446.849 60.55V71.75C446.849 74.2167 446.207 76.05 444.924 77.25C443.64 78.45 441.765 79.05 439.299 79.05C437.999 79.05 436.765 78.8917 435.599 78.575C434.432 78.2583 433.465 77.8 432.699 77.2L434.249 74.4C434.815 74.8667 435.532 75.2333 436.399 75.5C437.265 75.7833 438.132 75.925 438.999 75.925C440.349 75.925 441.34 75.6167 441.974 75C442.624 74.4 442.949 73.4833 442.949 72.25V71.675C441.932 72.7917 440.515 73.35 438.699 73.35C437.465 73.35 436.332 73.0833 435.299 72.55C434.282 72 433.474 71.2333 432.874 70.25C432.274 69.2667 431.974 68.1333 431.974 66.85C431.974 65.5667 432.274 64.4333 432.874 63.45C433.474 62.4667 434.282 61.7083 435.299 61.175C436.332 60.625 437.465 60.35 438.699 60.35C440.649 60.35 442.132 60.9917 443.149 62.275V60.55H446.849ZM439.474 70.15C440.507 70.15 441.349 69.85 441.999 69.25C442.665 68.6333 442.999 67.8333 442.999 66.85C442.999 65.8667 442.665 65.075 441.999 64.475C441.349 63.8583 440.507 63.55 439.474 63.55C438.44 63.55 437.59 63.8583 436.924 64.475C436.257 65.075 435.924 65.8667 435.924 66.85C435.924 67.8333 436.257 68.6333 436.924 69.25C437.59 69.85 438.44 70.15 439.474 70.15Z" fill="white"/>
</g>
<defs>
<filter id="filter0_d" x="50" y="112" width="615.182" height="460" filterUnits="userSpaceOnUse" color-interpolation-filters="sRGB">
<feFlood flood-opacity="0" result="BackgroundImageFix"/>
<feColorMatrix in="SourceAlpha" type="matrix" values="0 0 0 0 0 0 0 0 0 0 0 0 0 0 0 0 0 0 127 0"/>
<feOffset dx="10" dy="-10"/>
<feGaussianBlur stdDeviation="15"/>
<feColorMatrix type="matrix" values="0 0 0 0 0.517647 0 0 0 0 0.517647 0 0 0 0 0.6 0 0 0 0.05 0"/>
<feBlend mode="normal" in2="BackgroundImageFix" result="effect1_dropShadow"/>
<feBlend mode="normal" in="SourceGraphic" in2="effect1_dropShadow" result="shape"/>
</filter>
<linearGradient id="paint0_linear" x1="142" y1="-114" x2="890.795" y2="388.897" gradientUnits="userSpaceOnUse">
<stop stop-color="white" stop-opacity="0.2"/>
<stop offset="1" stop-color="white" stop-opacity="0"/>
</linearGradient>
<linearGradient id="paint1_linear" x1="70.4255" y1="549.112" x2="586.008" y2="407.727" gradientUnits="userSpaceOnUse">
<stop stop-color="white" stop-opacity="0.2"/>
<stop offset="1" stop-color="white" stop-opacity="0"/>
</linearGradient>
<clipPath id="clip0">
<rect width="926" height="695" fill="white" transform="translate(0 926) rotate(-90)"/>
</clipPath>
</defs>
</svg>
