<svg width="1620" height="696" viewBox="0 0 1620 696" fill="none" xmlns="http://www.w3.org/2000/svg">
<g clip-path="url(#clip0)">
<rect width="1620" height="695" transform="translate(0 0.5)" fill="white"/>
<path d="M125.61 331.28C119.11 331.28 114.04 329.482 110.4 325.885C106.803 322.288 105.005 317.153 105.005 310.48V285H115.535V310.09C115.535 318.237 118.915 322.31 125.675 322.31C128.968 322.31 131.482 321.335 133.215 319.385C134.948 317.392 135.815 314.293 135.815 310.09V285H146.215V310.48C146.215 317.153 144.395 322.288 140.755 325.885C137.158 329.482 132.11 331.28 125.61 331.28ZM168.321 331.02C165.417 331.02 162.579 330.673 159.806 329.98C157.032 329.243 154.822 328.333 153.176 327.25L156.556 319.97C158.116 320.967 160.001 321.79 162.211 322.44C164.421 323.047 166.587 323.35 168.711 323.35C173.001 323.35 175.146 322.288 175.146 320.165C175.146 319.168 174.561 318.453 173.391 318.02C172.221 317.587 170.422 317.218 167.996 316.915C165.136 316.482 162.774 315.983 160.911 315.42C159.047 314.857 157.422 313.86 156.036 312.43C154.692 311 154.021 308.963 154.021 306.32C154.021 304.11 154.649 302.16 155.906 300.47C157.206 298.737 159.069 297.393 161.496 296.44C163.966 295.487 166.869 295.01 170.206 295.01C172.676 295.01 175.124 295.292 177.551 295.855C180.021 296.375 182.057 297.112 183.661 298.065L180.281 305.28C177.204 303.547 173.846 302.68 170.206 302.68C168.039 302.68 166.414 302.983 165.331 303.59C164.247 304.197 163.706 304.977 163.706 305.93C163.706 307.013 164.291 307.772 165.461 308.205C166.631 308.638 168.494 309.05 171.051 309.44C173.911 309.917 176.251 310.437 178.071 311C179.891 311.52 181.472 312.495 182.816 313.925C184.159 315.355 184.831 317.348 184.831 319.905C184.831 322.072 184.181 324 182.881 325.69C181.581 327.38 179.674 328.702 177.161 329.655C174.691 330.565 171.744 331.02 168.321 331.02ZM225.992 313.145C225.992 313.275 225.927 314.185 225.797 315.875H199.342C199.819 318.042 200.945 319.753 202.722 321.01C204.499 322.267 206.709 322.895 209.352 322.895C211.172 322.895 212.775 322.635 214.162 322.115C215.592 321.552 216.914 320.685 218.127 319.515L223.522 325.365C220.229 329.135 215.419 331.02 209.092 331.02C205.149 331.02 201.66 330.262 198.627 328.745C195.594 327.185 193.254 325.04 191.607 322.31C189.96 319.58 189.137 316.482 189.137 313.015C189.137 309.592 189.939 306.515 191.542 303.785C193.189 301.012 195.42 298.867 198.237 297.35C201.097 295.79 204.282 295.01 207.792 295.01C211.215 295.01 214.314 295.747 217.087 297.22C219.86 298.693 222.027 300.817 223.587 303.59C225.19 306.32 225.992 309.505 225.992 313.145ZM207.857 302.68C205.56 302.68 203.632 303.33 202.072 304.63C200.512 305.93 199.559 307.707 199.212 309.96H216.437C216.09 307.75 215.137 305.995 213.577 304.695C212.017 303.352 210.11 302.68 207.857 302.68ZM244.508 296.31H253.478V304.11H244.768V330.5H234.628V304.11H229.233V296.31H234.628V294.75C234.628 290.763 235.798 287.6 238.138 285.26C240.521 282.92 243.858 281.75 248.148 281.75C249.664 281.75 251.094 281.923 252.438 282.27C253.824 282.573 254.973 283.028 255.883 283.635L253.218 290.98C252.048 290.157 250.683 289.745 249.123 289.745C246.046 289.745 244.508 291.435 244.508 294.815V296.31ZM294.409 295.53V330.5H284.789V326.34C283.446 327.857 281.843 329.027 279.979 329.85C278.116 330.63 276.101 331.02 273.934 331.02C269.341 331.02 265.701 329.698 263.014 327.055C260.328 324.412 258.984 320.49 258.984 315.29V295.53H269.124V313.795C269.124 319.428 271.486 322.245 276.209 322.245C278.636 322.245 280.586 321.465 282.059 319.905C283.533 318.302 284.269 315.94 284.269 312.82V295.53H294.409ZM304.453 282.27H314.593V330.5H304.453V282.27ZM353.397 300.145C354.611 298.455 356.236 297.177 358.272 296.31C360.352 295.443 362.736 295.01 365.422 295.01V304.37C364.296 304.283 363.537 304.24 363.147 304.24C360.244 304.24 357.969 305.063 356.322 306.71C354.676 308.313 353.852 310.74 353.852 313.99V330.5H343.712V295.53H353.397V300.145ZM406.039 313.145C406.039 313.275 405.974 314.185 405.844 315.875H379.389C379.866 318.042 380.993 319.753 382.769 321.01C384.546 322.267 386.756 322.895 389.399 322.895C391.219 322.895 392.823 322.635 394.209 322.115C395.639 321.552 396.961 320.685 398.174 319.515L403.569 325.365C400.276 329.135 395.466 331.02 389.139 331.02C385.196 331.02 381.708 330.262 378.674 328.745C375.641 327.185 373.301 325.04 371.654 322.31C370.008 319.58 369.184 316.482 369.184 313.015C369.184 309.592 369.986 306.515 371.589 303.785C373.236 301.012 375.468 298.867 378.284 297.35C381.144 295.79 384.329 295.01 387.839 295.01C391.263 295.01 394.361 295.747 397.134 297.22C399.908 298.693 402.074 300.817 403.634 303.59C405.238 306.32 406.039 309.505 406.039 313.145ZM387.904 302.68C385.608 302.68 383.679 303.33 382.119 304.63C380.559 305.93 379.606 307.707 379.259 309.96H396.484C396.138 307.75 395.184 305.995 393.624 304.695C392.064 303.352 390.158 302.68 387.904 302.68ZM430.34 331.02C426.613 331.02 423.255 330.262 420.265 328.745C417.318 327.185 415 325.04 413.31 322.31C411.663 319.58 410.84 316.482 410.84 313.015C410.84 309.548 411.663 306.45 413.31 303.72C415 300.99 417.318 298.867 420.265 297.35C423.255 295.79 426.613 295.01 430.34 295.01C434.023 295.01 437.23 295.79 439.96 297.35C442.733 298.867 444.748 301.055 446.005 303.915L438.14 308.14C436.32 304.933 433.698 303.33 430.275 303.33C427.632 303.33 425.443 304.197 423.71 305.93C421.977 307.663 421.11 310.025 421.11 313.015C421.11 316.005 421.977 318.367 423.71 320.1C425.443 321.833 427.632 322.7 430.275 322.7C433.742 322.7 436.363 321.097 438.14 317.89L446.005 322.18C444.748 324.953 442.733 327.12 439.96 328.68C437.23 330.24 434.023 331.02 430.34 331.02ZM468.689 331.02C465.006 331.02 461.691 330.262 458.744 328.745C455.841 327.185 453.566 325.04 451.919 322.31C450.272 319.58 449.449 316.482 449.449 313.015C449.449 309.548 450.272 306.45 451.919 303.72C453.566 300.99 455.841 298.867 458.744 297.35C461.691 295.79 465.006 295.01 468.689 295.01C472.372 295.01 475.666 295.79 478.569 297.35C481.472 298.867 483.747 300.99 485.394 303.72C487.041 306.45 487.864 309.548 487.864 313.015C487.864 316.482 487.041 319.58 485.394 322.31C483.747 325.04 481.472 327.185 478.569 328.745C475.666 330.262 472.372 331.02 468.689 331.02ZM468.689 322.7C471.289 322.7 473.412 321.833 475.059 320.1C476.749 318.323 477.594 315.962 477.594 313.015C477.594 310.068 476.749 307.728 475.059 305.995C473.412 304.218 471.289 303.33 468.689 303.33C466.089 303.33 463.944 304.218 462.254 305.995C460.564 307.728 459.719 310.068 459.719 313.015C459.719 315.962 460.564 318.323 462.254 320.1C463.944 321.833 466.089 322.7 468.689 322.7ZM504.977 300.145C506.19 298.455 507.815 297.177 509.852 296.31C511.932 295.443 514.315 295.01 517.002 295.01V304.37C515.875 304.283 515.117 304.24 514.727 304.24C511.824 304.24 509.549 305.063 507.902 306.71C506.255 308.313 505.432 310.74 505.432 313.99V330.5H495.292V295.53H504.977V300.145ZM558.984 282.27V330.5H549.299V326.47C546.785 329.503 543.145 331.02 538.379 331.02C535.085 331.02 532.095 330.283 529.409 328.81C526.765 327.337 524.685 325.235 523.169 322.505C521.652 319.775 520.894 316.612 520.894 313.015C520.894 309.418 521.652 306.255 523.169 303.525C524.685 300.795 526.765 298.693 529.409 297.22C532.095 295.747 535.085 295.01 538.379 295.01C542.842 295.01 546.33 296.418 548.844 299.235V282.27H558.984ZM540.134 322.7C542.69 322.7 544.814 321.833 546.504 320.1C548.194 318.323 549.039 315.962 549.039 313.015C549.039 310.068 548.194 307.728 546.504 305.995C544.814 304.218 542.69 303.33 540.134 303.33C537.534 303.33 535.389 304.218 533.699 305.995C532.009 307.728 531.164 310.068 531.164 313.015C531.164 315.962 532.009 318.323 533.699 320.1C535.389 321.833 537.534 322.7 540.134 322.7ZM580.784 331.02C577.88 331.02 575.042 330.673 572.269 329.98C569.495 329.243 567.285 328.333 565.639 327.25L569.019 319.97C570.579 320.967 572.464 321.79 574.674 322.44C576.884 323.047 579.05 323.35 581.174 323.35C585.464 323.35 587.609 322.288 587.609 320.165C587.609 319.168 587.024 318.453 585.854 318.02C584.684 317.587 582.885 317.218 580.459 316.915C577.599 316.482 575.237 315.983 573.374 315.42C571.51 314.857 569.885 313.86 568.499 312.43C567.155 311 566.484 308.963 566.484 306.32C566.484 304.11 567.112 302.16 568.369 300.47C569.669 298.737 571.532 297.393 573.959 296.44C576.429 295.487 579.332 295.01 582.669 295.01C585.139 295.01 587.587 295.292 590.014 295.855C592.484 296.375 594.52 297.112 596.124 298.065L592.744 305.28C589.667 303.547 586.309 302.68 582.669 302.68C580.502 302.68 578.877 302.983 577.794 303.59C576.71 304.197 576.169 304.977 576.169 305.93C576.169 307.013 576.754 307.772 577.924 308.205C579.094 308.638 580.957 309.05 583.514 309.44C586.374 309.917 588.714 310.437 590.534 311C592.354 311.52 593.935 312.495 595.279 313.925C596.622 315.355 597.294 317.348 597.294 319.905C597.294 322.072 596.644 324 595.344 325.69C594.044 327.38 592.137 328.702 589.624 329.655C587.154 330.565 584.207 331.02 580.784 331.02ZM634.373 296.31H643.343V304.11H634.633V330.5H624.493V304.11H619.098V296.31H624.493V294.75C624.493 290.763 625.663 287.6 628.003 285.26C630.386 282.92 633.723 281.75 638.013 281.75C639.53 281.75 640.96 281.923 642.303 282.27C643.69 282.573 644.838 283.028 645.748 283.635L643.083 290.98C641.913 290.157 640.548 289.745 638.988 289.745C635.911 289.745 634.373 291.435 634.373 294.815V296.31ZM665.241 331.02C661.557 331.02 658.242 330.262 655.296 328.745C652.392 327.185 650.117 325.04 648.471 322.31C646.824 319.58 646.001 316.482 646.001 313.015C646.001 309.548 646.824 306.45 648.471 303.72C650.117 300.99 652.392 298.867 655.296 297.35C658.242 295.79 661.557 295.01 665.241 295.01C668.924 295.01 672.217 295.79 675.121 297.35C678.024 298.867 680.299 300.99 681.946 303.72C683.592 306.45 684.416 309.548 684.416 313.015C684.416 316.482 683.592 319.58 681.946 322.31C680.299 325.04 678.024 327.185 675.121 328.745C672.217 330.262 668.924 331.02 665.241 331.02ZM665.241 322.7C667.841 322.7 669.964 321.833 671.611 320.1C673.301 318.323 674.146 315.962 674.146 313.015C674.146 310.068 673.301 307.728 671.611 305.995C669.964 304.218 667.841 303.33 665.241 303.33C662.641 303.33 660.496 304.218 658.806 305.995C657.116 307.728 656.271 310.068 656.271 313.015C656.271 315.962 657.116 318.323 658.806 320.1C660.496 321.833 662.641 322.7 665.241 322.7ZM701.528 300.145C702.742 298.455 704.367 297.177 706.403 296.31C708.483 295.443 710.867 295.01 713.553 295.01V304.37C712.427 304.283 711.668 304.24 711.278 304.24C708.375 304.24 706.1 305.063 704.453 306.71C702.807 308.313 701.983 310.74 701.983 313.99V330.5H691.843V295.53H701.528V300.145ZM125.35 376.01C128.6 376.01 131.547 376.768 134.19 378.285C136.877 379.758 138.978 381.86 140.495 384.59C142.012 387.277 142.77 390.418 142.77 394.015C142.77 397.612 142.012 400.775 140.495 403.505C138.978 406.192 136.877 408.293 134.19 409.81C131.547 411.283 128.6 412.02 125.35 412.02C120.54 412.02 116.878 410.503 114.365 407.47V411.5H104.68V363.27H114.82V380.235C117.377 377.418 120.887 376.01 125.35 376.01ZM123.595 403.7C126.195 403.7 128.318 402.833 129.965 401.1C131.655 399.323 132.5 396.962 132.5 394.015C132.5 391.068 131.655 388.728 129.965 386.995C128.318 385.218 126.195 384.33 123.595 384.33C120.995 384.33 118.85 385.218 117.16 386.995C115.513 388.728 114.69 391.068 114.69 394.015C114.69 396.962 115.513 399.323 117.16 401.1C118.85 402.833 120.995 403.7 123.595 403.7ZM184.463 394.145C184.463 394.275 184.398 395.185 184.268 396.875H157.813C158.29 399.042 159.416 400.753 161.193 402.01C162.97 403.267 165.18 403.895 167.823 403.895C169.643 403.895 171.246 403.635 172.633 403.115C174.063 402.552 175.385 401.685 176.598 400.515L181.993 406.365C178.7 410.135 173.89 412.02 167.563 412.02C163.62 412.02 160.131 411.262 157.098 409.745C154.065 408.185 151.725 406.04 150.078 403.31C148.431 400.58 147.608 397.482 147.608 394.015C147.608 390.592 148.41 387.515 150.013 384.785C151.66 382.012 153.891 379.867 156.708 378.35C159.568 376.79 162.753 376.01 166.263 376.01C169.686 376.01 172.785 376.747 175.558 378.22C178.331 379.693 180.498 381.817 182.058 384.59C183.661 387.32 184.463 390.505 184.463 394.145ZM166.328 383.68C164.031 383.68 162.103 384.33 160.543 385.63C158.983 386.93 158.03 388.707 157.683 390.96H174.908C174.561 388.75 173.608 386.995 172.048 385.695C170.488 384.352 168.581 383.68 166.328 383.68ZM203.629 412.02C200.725 412.02 197.887 411.673 195.114 410.98C192.34 410.243 190.13 409.333 188.484 408.25L191.864 400.97C193.424 401.967 195.309 402.79 197.519 403.44C199.729 404.047 201.895 404.35 204.019 404.35C208.309 404.35 210.454 403.288 210.454 401.165C210.454 400.168 209.869 399.453 208.699 399.02C207.529 398.587 205.73 398.218 203.304 397.915C200.444 397.482 198.082 396.983 196.219 396.42C194.355 395.857 192.73 394.86 191.344 393.43C190 392 189.329 389.963 189.329 387.32C189.329 385.11 189.957 383.16 191.214 381.47C192.514 379.737 194.377 378.393 196.804 377.44C199.274 376.487 202.177 376.01 205.514 376.01C207.984 376.01 210.432 376.292 212.859 376.855C215.329 377.375 217.365 378.112 218.969 379.065L215.589 386.28C212.512 384.547 209.154 383.68 205.514 383.68C203.347 383.68 201.722 383.983 200.639 384.59C199.555 385.197 199.014 385.977 199.014 386.93C199.014 388.013 199.599 388.772 200.769 389.205C201.939 389.638 203.802 390.05 206.359 390.44C209.219 390.917 211.559 391.437 213.379 392C215.199 392.52 216.78 393.495 218.124 394.925C219.467 396.355 220.139 398.348 220.139 400.905C220.139 403.072 219.489 405 218.189 406.69C216.889 408.38 214.982 409.702 212.469 410.655C209.999 411.565 207.052 412.02 203.629 412.02ZM249.6 409.81C248.603 410.547 247.368 411.11 245.895 411.5C244.465 411.847 242.948 412.02 241.345 412.02C237.185 412.02 233.957 410.958 231.66 408.835C229.407 406.712 228.28 403.592 228.28 399.475V385.11H222.885V377.31H228.28V368.795H238.42V377.31H247.13V385.11H238.42V399.345C238.42 400.818 238.788 401.967 239.525 402.79C240.305 403.57 241.388 403.96 242.775 403.96C244.378 403.96 245.743 403.527 246.87 402.66L249.6 409.81ZM286.765 412.02C283.862 412.02 281.024 411.673 278.25 410.98C275.477 410.243 273.267 409.333 271.62 408.25L275 400.97C276.56 401.967 278.445 402.79 280.655 403.44C282.865 404.047 285.032 404.35 287.155 404.35C291.445 404.35 293.59 403.288 293.59 401.165C293.59 400.168 293.005 399.453 291.835 399.02C290.665 398.587 288.867 398.218 286.44 397.915C283.58 397.482 281.219 396.983 279.355 396.42C277.492 395.857 275.867 394.86 274.48 393.43C273.137 392 272.465 389.963 272.465 387.32C272.465 385.11 273.094 383.16 274.35 381.47C275.65 379.737 277.514 378.393 279.94 377.44C282.41 376.487 285.314 376.01 288.65 376.01C291.12 376.01 293.569 376.292 295.995 376.855C298.465 377.375 300.502 378.112 302.105 379.065L298.725 386.28C295.649 384.547 292.29 383.68 288.65 383.68C286.484 383.68 284.859 383.983 283.775 384.59C282.692 385.197 282.15 385.977 282.15 386.93C282.15 388.013 282.735 388.772 283.905 389.205C285.075 389.638 286.939 390.05 289.495 390.44C292.355 390.917 294.695 391.437 296.515 392C298.335 392.52 299.917 393.495 301.26 394.925C302.604 396.355 303.275 398.348 303.275 400.905C303.275 403.072 302.625 405 301.325 406.69C300.025 408.38 298.119 409.702 295.605 410.655C293.135 411.565 290.189 412.02 286.765 412.02ZM332.737 409.81C331.74 410.547 330.505 411.11 329.032 411.5C327.602 411.847 326.085 412.02 324.482 412.02C320.322 412.02 317.093 410.958 314.797 408.835C312.543 406.712 311.417 403.592 311.417 399.475V385.11H306.022V377.31H311.417V368.795H321.557V377.31H330.267V385.11H321.557V399.345C321.557 400.818 321.925 401.967 322.662 402.79C323.442 403.57 324.525 403.96 325.912 403.96C327.515 403.96 328.88 403.527 330.007 402.66L332.737 409.81ZM374.309 376.53V411.5H364.689V407.34C363.345 408.857 361.742 410.027 359.879 410.85C358.015 411.63 356 412.02 353.834 412.02C349.24 412.02 345.6 410.698 342.914 408.055C340.227 405.412 338.884 401.49 338.884 396.29V376.53H349.024V394.795C349.024 400.428 351.385 403.245 356.109 403.245C358.535 403.245 360.485 402.465 361.959 400.905C363.432 399.302 364.169 396.94 364.169 393.82V376.53H374.309ZM419.973 363.27V411.5H410.288V407.47C407.774 410.503 404.134 412.02 399.368 412.02C396.074 412.02 393.084 411.283 390.398 409.81C387.754 408.337 385.674 406.235 384.158 403.505C382.641 400.775 381.883 397.612 381.883 394.015C381.883 390.418 382.641 387.255 384.158 384.525C385.674 381.795 387.754 379.693 390.398 378.22C393.084 376.747 396.074 376.01 399.368 376.01C403.831 376.01 407.319 377.418 409.833 380.235V363.27H419.973ZM401.123 403.7C403.679 403.7 405.803 402.833 407.493 401.1C409.183 399.323 410.028 396.962 410.028 394.015C410.028 391.068 409.183 388.728 407.493 386.995C405.803 385.218 403.679 384.33 401.123 384.33C398.523 384.33 396.378 385.218 394.688 386.995C392.998 388.728 392.153 391.068 392.153 394.015C392.153 396.962 392.998 399.323 394.688 401.1C396.378 402.833 398.523 403.7 401.123 403.7ZM464.718 376.53L448.923 413.645C447.319 417.675 445.326 420.513 442.943 422.16C440.603 423.807 437.764 424.63 434.428 424.63C432.608 424.63 430.809 424.348 429.033 423.785C427.256 423.222 425.804 422.442 424.678 421.445L428.383 414.23C429.163 414.923 430.051 415.465 431.048 415.855C432.088 416.245 433.106 416.44 434.103 416.44C435.489 416.44 436.616 416.093 437.483 415.4C438.349 414.75 439.129 413.645 439.823 412.085L439.953 411.76L424.808 376.53H435.273L445.088 400.255L454.968 376.53H464.718ZM522.818 394.145C522.818 394.275 522.753 395.185 522.623 396.875H496.168C496.645 399.042 497.772 400.753 499.548 402.01C501.325 403.267 503.535 403.895 506.178 403.895C507.998 403.895 509.602 403.635 510.988 403.115C512.418 402.552 513.74 401.685 514.953 400.515L520.348 406.365C517.055 410.135 512.245 412.02 505.918 412.02C501.975 412.02 498.487 411.262 495.453 409.745C492.42 408.185 490.08 406.04 488.433 403.31C486.787 400.58 485.963 397.482 485.963 394.015C485.963 390.592 486.765 387.515 488.368 384.785C490.015 382.012 492.247 379.867 495.063 378.35C497.923 376.79 501.108 376.01 504.618 376.01C508.042 376.01 511.14 376.747 513.913 378.22C516.687 379.693 518.853 381.817 520.413 384.59C522.017 387.32 522.818 390.505 522.818 394.145ZM504.683 383.68C502.387 383.68 500.458 384.33 498.898 385.63C497.338 386.93 496.385 388.707 496.038 390.96H513.263C512.917 388.75 511.963 386.995 510.403 385.695C508.843 384.352 506.937 383.68 504.683 383.68ZM551.497 411.5L543.827 400.775L535.897 411.5H524.847L538.302 393.885L525.302 376.53H536.677L544.087 386.735L551.692 376.53H562.482L549.482 393.625L563.002 411.5H551.497ZM589.244 376.01C592.494 376.01 595.441 376.768 598.084 378.285C600.771 379.758 602.873 381.86 604.389 384.59C605.906 387.277 606.664 390.418 606.664 394.015C606.664 397.612 605.906 400.775 604.389 403.505C602.873 406.192 600.771 408.293 598.084 409.81C595.441 411.283 592.494 412.02 589.244 412.02C584.781 412.02 581.271 410.612 578.714 407.795V424.11H568.574V376.53H578.259V380.56C580.773 377.527 584.434 376.01 589.244 376.01ZM587.489 403.7C590.089 403.7 592.213 402.833 593.859 401.1C595.549 399.323 596.394 396.962 596.394 394.015C596.394 391.068 595.549 388.728 593.859 386.995C592.213 385.218 590.089 384.33 587.489 384.33C584.889 384.33 582.744 385.218 581.054 386.995C579.408 388.728 578.584 391.068 578.584 394.015C578.584 396.962 579.408 399.323 581.054 401.1C582.744 402.833 584.889 403.7 587.489 403.7ZM648.357 394.145C648.357 394.275 648.292 395.185 648.162 396.875H621.707C622.184 399.042 623.311 400.753 625.087 402.01C626.864 403.267 629.074 403.895 631.717 403.895C633.537 403.895 635.141 403.635 636.527 403.115C637.957 402.552 639.279 401.685 640.492 400.515L645.887 406.365C642.594 410.135 637.784 412.02 631.457 412.02C627.514 412.02 624.026 411.262 620.992 409.745C617.959 408.185 615.619 406.04 613.972 403.31C612.326 400.58 611.502 397.482 611.502 394.015C611.502 390.592 612.304 387.515 613.907 384.785C615.554 382.012 617.786 379.867 620.602 378.35C623.462 376.79 626.647 376.01 630.157 376.01C633.581 376.01 636.679 376.747 639.452 378.22C642.226 379.693 644.392 381.817 645.952 384.59C647.556 387.32 648.357 390.505 648.357 394.145ZM630.222 383.68C627.926 383.68 625.997 384.33 624.437 385.63C622.877 386.93 621.924 388.707 621.577 390.96H638.802C638.456 388.75 637.502 386.995 635.942 385.695C634.382 384.352 632.476 383.68 630.222 383.68ZM665.443 381.145C666.656 379.455 668.281 378.177 670.318 377.31C672.398 376.443 674.781 376.01 677.468 376.01V385.37C676.341 385.283 675.583 385.24 675.193 385.24C672.29 385.24 670.015 386.063 668.368 387.71C666.721 389.313 665.898 391.74 665.898 394.99V411.5H655.758V376.53H665.443V381.145ZM684.147 376.53H694.287V411.5H684.147V376.53ZM689.217 371.655C687.354 371.655 685.837 371.113 684.667 370.03C683.497 368.947 682.912 367.603 682.912 366C682.912 364.397 683.497 363.053 684.667 361.97C685.837 360.887 687.354 360.345 689.217 360.345C691.081 360.345 692.597 360.865 693.767 361.905C694.937 362.945 695.522 364.245 695.522 365.805C695.522 367.495 694.937 368.903 693.767 370.03C692.597 371.113 691.081 371.655 689.217 371.655ZM738.603 394.145C738.603 394.275 738.538 395.185 738.408 396.875H711.953C712.43 399.042 713.556 400.753 715.333 402.01C717.11 403.267 719.32 403.895 721.963 403.895C723.783 403.895 725.386 403.635 726.773 403.115C728.203 402.552 729.525 401.685 730.738 400.515L736.133 406.365C732.84 410.135 728.03 412.02 721.703 412.02C717.76 412.02 714.271 411.262 711.238 409.745C708.205 408.185 705.865 406.04 704.218 403.31C702.571 400.58 701.748 397.482 701.748 394.015C701.748 390.592 702.55 387.515 704.153 384.785C705.8 382.012 708.031 379.867 710.848 378.35C713.708 376.79 716.893 376.01 720.403 376.01C723.826 376.01 726.925 376.747 729.698 378.22C732.471 379.693 734.638 381.817 736.198 384.59C737.801 387.32 738.603 390.505 738.603 394.145ZM720.468 383.68C718.171 383.68 716.243 384.33 714.683 385.63C713.123 386.93 712.17 388.707 711.823 390.96H729.048C728.701 388.75 727.748 386.995 726.188 385.695C724.628 384.352 722.721 383.68 720.468 383.68ZM767.259 376.01C771.592 376.01 775.081 377.31 777.724 379.91C780.411 382.51 781.754 386.367 781.754 391.48V411.5H771.614V393.04C771.614 390.267 771.007 388.208 769.794 386.865C768.581 385.478 766.826 384.785 764.529 384.785C761.972 384.785 759.936 385.587 758.419 387.19C756.902 388.75 756.144 391.09 756.144 394.21V411.5H746.004V376.53H755.689V380.625C757.032 379.152 758.701 378.025 760.694 377.245C762.687 376.422 764.876 376.01 767.259 376.01ZM808.876 412.02C805.15 412.02 801.791 411.262 798.801 409.745C795.855 408.185 793.536 406.04 791.846 403.31C790.2 400.58 789.376 397.482 789.376 394.015C789.376 390.548 790.2 387.45 791.846 384.72C793.536 381.99 795.855 379.867 798.801 378.35C801.791 376.79 805.15 376.01 808.876 376.01C812.56 376.01 815.766 376.79 818.496 378.35C821.27 379.867 823.285 382.055 824.541 384.915L816.676 389.14C814.856 385.933 812.235 384.33 808.811 384.33C806.168 384.33 803.98 385.197 802.246 386.93C800.513 388.663 799.646 391.025 799.646 394.015C799.646 397.005 800.513 399.367 802.246 401.1C803.98 402.833 806.168 403.7 808.811 403.7C812.278 403.7 814.9 402.097 816.676 398.89L824.541 403.18C823.285 405.953 821.27 408.12 818.496 409.68C815.766 411.24 812.56 412.02 808.876 412.02ZM864.84 394.145C864.84 394.275 864.775 395.185 864.645 396.875H838.19C838.667 399.042 839.794 400.753 841.57 402.01C843.347 403.267 845.557 403.895 848.2 403.895C850.02 403.895 851.624 403.635 853.01 403.115C854.44 402.552 855.762 401.685 856.975 400.515L862.37 406.365C859.077 410.135 854.267 412.02 847.94 412.02C843.997 412.02 840.509 411.262 837.475 409.745C834.442 408.185 832.102 406.04 830.455 403.31C828.809 400.58 827.985 397.482 827.985 394.015C827.985 390.592 828.787 387.515 830.39 384.785C832.037 382.012 834.269 379.867 837.085 378.35C839.945 376.79 843.13 376.01 846.64 376.01C850.064 376.01 853.162 376.747 855.935 378.22C858.709 379.693 860.875 381.817 862.435 384.59C864.039 387.32 864.84 390.505 864.84 394.145ZM846.705 383.68C844.409 383.68 842.48 384.33 840.92 385.63C839.36 386.93 838.407 388.707 838.06 390.96H855.285C854.939 388.75 853.985 386.995 852.425 385.695C850.865 384.352 848.959 383.68 846.705 383.68Z" fill="#2F2E44"/>
<path d="M117.97 96.49C117.97 96.55 117.94 96.97 117.88 97.75H105.67C105.89 98.75 106.41 99.54 107.23 100.12C108.05 100.7 109.07 100.99 110.29 100.99C111.13 100.99 111.87 100.87 112.51 100.63C113.17 100.37 113.78 99.97 114.34 99.43L116.83 102.13C115.31 103.87 113.09 104.74 110.17 104.74C108.35 104.74 106.74 104.39 105.34 103.69C103.94 102.97 102.86 101.98 102.1 100.72C101.34 99.46 100.96 98.03 100.96 96.43C100.96 94.85 101.33 93.43 102.07 92.17C102.83 90.89 103.86 89.9 105.16 89.2C106.48 88.48 107.95 88.12 109.57 88.12C111.15 88.12 112.58 88.46 113.86 89.14C115.14 89.82 116.14 90.8 116.86 92.08C117.6 93.34 117.97 94.81 117.97 96.49ZM109.6 91.66C108.54 91.66 107.65 91.96 106.93 92.56C106.21 93.16 105.77 93.98 105.61 95.02H113.56C113.4 94 112.96 93.19 112.24 92.59C111.52 91.97 110.64 91.66 109.6 91.66ZM131.196 88.12C133.196 88.12 134.806 88.72 136.026 89.92C137.266 91.12 137.886 92.9 137.886 95.26V104.5H133.206V95.98C133.206 94.7 132.926 93.75 132.366 93.13C131.806 92.49 130.996 92.17 129.936 92.17C128.756 92.17 127.816 92.54 127.116 93.28C126.416 94 126.066 95.08 126.066 96.52V104.5H121.386V88.36H125.856V90.25C126.476 89.57 127.246 89.05 128.166 88.69C129.086 88.31 130.096 88.12 131.196 88.12ZM159.254 88.36V101.8C159.254 104.76 158.484 106.96 156.944 108.4C155.404 109.84 153.154 110.56 150.194 110.56C148.634 110.56 147.154 110.37 145.754 109.99C144.354 109.61 143.194 109.06 142.274 108.34L144.134 104.98C144.814 105.54 145.674 105.98 146.714 106.3C147.754 106.64 148.794 106.81 149.834 106.81C151.454 106.81 152.644 106.44 153.404 105.7C154.184 104.98 154.574 103.88 154.574 102.4V101.71C153.354 103.05 151.654 103.72 149.474 103.72C147.994 103.72 146.634 103.4 145.394 102.76C144.174 102.1 143.204 101.18 142.484 100C141.764 98.82 141.404 97.46 141.404 95.92C141.404 94.38 141.764 93.02 142.484 91.84C143.204 90.66 144.174 89.75 145.394 89.11C146.634 88.45 147.994 88.12 149.474 88.12C151.814 88.12 153.594 88.89 154.814 90.43V88.36H159.254ZM150.404 99.88C151.644 99.88 152.654 99.52 153.434 98.8C154.234 98.06 154.634 97.1 154.634 95.92C154.634 94.74 154.234 93.79 153.434 93.07C152.654 92.33 151.644 91.96 150.404 91.96C149.164 91.96 148.144 92.33 147.344 93.07C146.544 93.79 146.144 94.74 146.144 95.92C146.144 97.1 146.544 98.06 147.344 98.8C148.144 99.52 149.164 99.88 150.404 99.88ZM163.91 82.24H168.59V104.5H163.91V82.24ZM173.233 88.36H177.913V104.5H173.233V88.36ZM175.573 86.11C174.713 86.11 174.013 85.86 173.473 85.36C172.933 84.86 172.663 84.24 172.663 83.5C172.663 82.76 172.933 82.14 173.473 81.64C174.013 81.14 174.713 80.89 175.573 80.89C176.433 80.89 177.133 81.13 177.673 81.61C178.213 82.09 178.483 82.69 178.483 83.41C178.483 84.19 178.213 84.84 177.673 85.36C177.133 85.86 176.433 86.11 175.573 86.11ZM187.986 104.74C186.646 104.74 185.336 104.58 184.056 104.26C182.776 103.92 181.756 103.5 180.996 103L182.556 99.64C183.276 100.1 184.146 100.48 185.166 100.78C186.186 101.06 187.186 101.2 188.166 101.2C190.146 101.2 191.136 100.71 191.136 99.73C191.136 99.27 190.866 98.94 190.326 98.74C189.786 98.54 188.956 98.37 187.836 98.23C186.516 98.03 185.426 97.8 184.566 97.54C183.706 97.28 182.956 96.82 182.316 96.16C181.696 95.5 181.386 94.56 181.386 93.34C181.386 92.32 181.676 91.42 182.256 90.64C182.856 89.84 183.716 89.22 184.836 88.78C185.976 88.34 187.316 88.12 188.856 88.12C189.996 88.12 191.126 88.25 192.246 88.51C193.386 88.75 194.326 89.09 195.066 89.53L193.506 92.86C192.086 92.06 190.536 91.66 188.856 91.66C187.856 91.66 187.106 91.8 186.606 92.08C186.106 92.36 185.856 92.72 185.856 93.16C185.856 93.66 186.126 94.01 186.666 94.21C187.206 94.41 188.066 94.6 189.246 94.78C190.566 95 191.646 95.24 192.486 95.5C193.326 95.74 194.056 96.19 194.676 96.85C195.296 97.51 195.606 98.43 195.606 99.61C195.606 100.61 195.306 101.5 194.706 102.28C194.106 103.06 193.226 103.67 192.066 104.11C190.926 104.53 189.566 104.74 187.986 104.74ZM208.604 88.12C210.604 88.12 212.214 88.72 213.434 89.92C214.674 91.12 215.294 92.9 215.294 95.26V104.5H210.614V95.98C210.614 94.7 210.334 93.75 209.774 93.13C209.214 92.49 208.404 92.17 207.344 92.17C206.164 92.17 205.224 92.54 204.524 93.28C203.824 94 203.474 95.08 203.474 96.52V104.5H198.794V82.24H203.474V90.04C204.094 89.42 204.844 88.95 205.724 88.63C206.604 88.29 207.564 88.12 208.604 88.12ZM229.646 88.12C231.646 88.12 233.256 88.72 234.476 89.92C235.716 91.12 236.336 92.9 236.336 95.26V104.5H231.656V95.98C231.656 94.7 231.376 93.75 230.816 93.13C230.256 92.49 229.446 92.17 228.386 92.17C227.206 92.17 226.266 92.54 225.566 93.28C224.866 94 224.516 95.08 224.516 96.52V104.5H219.836V88.36H224.306V90.25C224.926 89.57 225.696 89.05 226.616 88.69C227.536 88.31 228.546 88.12 229.646 88.12ZM256.864 96.49C256.864 96.55 256.834 96.97 256.774 97.75H244.564C244.784 98.75 245.304 99.54 246.124 100.12C246.944 100.7 247.964 100.99 249.184 100.99C250.024 100.99 250.764 100.87 251.404 100.63C252.064 100.37 252.674 99.97 253.234 99.43L255.724 102.13C254.204 103.87 251.984 104.74 249.064 104.74C247.244 104.74 245.634 104.39 244.234 103.69C242.834 102.97 241.754 101.98 240.994 100.72C240.234 99.46 239.854 98.03 239.854 96.43C239.854 94.85 240.224 93.43 240.964 92.17C241.724 90.89 242.754 89.9 244.054 89.2C245.374 88.48 246.844 88.12 248.464 88.12C250.044 88.12 251.474 88.46 252.754 89.14C254.034 89.82 255.034 90.8 255.754 92.08C256.494 93.34 256.864 94.81 256.864 96.49ZM248.494 91.66C247.434 91.66 246.544 91.96 245.824 92.56C245.104 93.16 244.664 93.98 244.504 95.02H252.454C252.294 94 251.854 93.19 251.134 92.59C250.414 91.97 249.534 91.66 248.494 91.66ZM264.75 90.49C265.31 89.71 266.06 89.12 267 88.72C267.96 88.32 269.06 88.12 270.3 88.12V92.44C269.78 92.4 269.43 92.38 269.25 92.38C267.91 92.38 266.86 92.76 266.1 93.52C265.34 94.26 264.96 95.38 264.96 96.88V104.5H260.28V88.36H264.75V90.49ZM289.676 82.24V104.5H285.206V102.64C284.046 104.04 282.366 104.74 280.166 104.74C278.646 104.74 277.266 104.4 276.026 103.72C274.806 103.04 273.846 102.07 273.146 100.81C272.446 99.55 272.096 98.09 272.096 96.43C272.096 94.77 272.446 93.31 273.146 92.05C273.846 90.79 274.806 89.82 276.026 89.14C277.266 88.46 278.646 88.12 280.166 88.12C282.226 88.12 283.836 88.77 284.996 90.07V82.24H289.676ZM280.976 100.9C282.156 100.9 283.136 100.5 283.916 99.7C284.696 98.88 285.086 97.79 285.086 96.43C285.086 95.07 284.696 93.99 283.916 93.19C283.136 92.37 282.156 91.96 280.976 91.96C279.776 91.96 278.786 92.37 278.006 93.19C277.226 93.99 276.836 95.07 276.836 96.43C276.836 97.79 277.226 98.88 278.006 99.7C278.786 100.5 279.776 100.9 280.976 100.9ZM296.078 104.74C295.258 104.74 294.568 104.46 294.008 103.9C293.448 103.34 293.168 102.64 293.168 101.8C293.168 100.94 293.448 100.25 294.008 99.73C294.568 99.19 295.258 98.92 296.078 98.92C296.898 98.92 297.588 99.19 298.148 99.73C298.708 100.25 298.988 100.94 298.988 101.8C298.988 102.64 298.708 103.34 298.148 103.9C297.588 104.46 296.898 104.74 296.078 104.74ZM309.934 104.74C308.234 104.74 306.704 104.39 305.344 103.69C304.004 102.97 302.954 101.98 302.194 100.72C301.434 99.46 301.054 98.03 301.054 96.43C301.054 94.83 301.434 93.4 302.194 92.14C302.954 90.88 304.004 89.9 305.344 89.2C306.704 88.48 308.234 88.12 309.934 88.12C311.634 88.12 313.154 88.48 314.494 89.2C315.834 89.9 316.884 90.88 317.644 92.14C318.404 93.4 318.784 94.83 318.784 96.43C318.784 98.03 318.404 99.46 317.644 100.72C316.884 101.98 315.834 102.97 314.494 103.69C313.154 104.39 311.634 104.74 309.934 104.74ZM309.934 100.9C311.134 100.9 312.114 100.5 312.874 99.7C313.654 98.88 314.044 97.79 314.044 96.43C314.044 95.07 313.654 93.99 312.874 93.19C312.114 92.37 311.134 91.96 309.934 91.96C308.734 91.96 307.744 92.37 306.964 93.19C306.184 93.99 305.794 95.07 305.794 96.43C305.794 97.79 306.184 98.88 306.964 99.7C307.744 100.5 308.734 100.9 309.934 100.9ZM326.682 90.49C327.242 89.71 327.992 89.12 328.932 88.72C329.892 88.32 330.992 88.12 332.232 88.12V92.44C331.712 92.4 331.362 92.38 331.182 92.38C329.842 92.38 328.792 92.76 328.032 93.52C327.272 94.26 326.892 95.38 326.892 96.88V104.5H322.212V88.36H326.682V90.49ZM351.819 88.36V101.8C351.819 104.76 351.049 106.96 349.509 108.4C347.969 109.84 345.719 110.56 342.759 110.56C341.199 110.56 339.719 110.37 338.319 109.99C336.919 109.61 335.759 109.06 334.839 108.34L336.699 104.98C337.379 105.54 338.239 105.98 339.279 106.3C340.319 106.64 341.359 106.81 342.399 106.81C344.019 106.81 345.209 106.44 345.969 105.7C346.749 104.98 347.139 103.88 347.139 102.4V101.71C345.919 103.05 344.219 103.72 342.039 103.72C340.559 103.72 339.199 103.4 337.959 102.76C336.739 102.1 335.769 101.18 335.049 100C334.329 98.82 333.969 97.46 333.969 95.92C333.969 94.38 334.329 93.02 335.049 91.84C335.769 90.66 336.739 89.75 337.959 89.11C339.199 88.45 340.559 88.12 342.039 88.12C344.379 88.12 346.159 88.89 347.379 90.43V88.36H351.819ZM342.969 99.88C344.209 99.88 345.219 99.52 345.999 98.8C346.799 98.06 347.199 97.1 347.199 95.92C347.199 94.74 346.799 93.79 345.999 93.07C345.219 92.33 344.209 91.96 342.969 91.96C341.729 91.96 340.709 92.33 339.909 93.07C339.109 93.79 338.709 94.74 338.709 95.92C338.709 97.1 339.109 98.06 339.909 98.8C340.709 99.52 341.729 99.88 342.969 99.88Z" fill="#848499"/>
<circle cx="1395" cy="224.5" r="375" transform="rotate(45 1395 224.5)" fill="#28D3BE"/>
<path fill-rule="evenodd" clip-rule="evenodd" d="M1129.83 489.665C1276.28 636.112 1513.72 636.112 1660.16 489.665C1806.61 343.218 1806.61 105.782 1660.16 -40.665L1129.83 489.665Z" fill="#1DD1BB"/>
<path fill-rule="evenodd" clip-rule="evenodd" d="M1660.17 -40.6649C1513.72 -187.112 1276.28 -187.112 1129.84 -40.665C983.388 105.782 983.388 343.218 1129.83 489.665L1660.17 -40.6649Z" fill="#5CD1C3"/>
<circle cx="1395" cy="224.5" r="375" transform="rotate(45 1395 224.5)" fill="url(#paint0_linear)"/>
<g clip-path="url(#clip1)">
<path d="M1208.64 140.344L1208.68 140.338L1203.09 107.66L1172.18 117.479L1176.81 146.707C1175.21 145.7 1173.32 145.292 1171.45 145.556C1169.58 145.82 1167.87 146.739 1166.62 148.148C1165.37 149.557 1164.66 151.366 1164.62 153.249C1164.58 155.133 1165.21 156.97 1166.4 158.432C1167.59 159.893 1169.26 160.885 1171.11 161.228C1172.97 161.572 1174.88 161.246 1176.52 160.308C1178.15 159.37 1179.4 157.881 1180.04 156.108C1180.67 154.335 1180.66 152.393 1180 150.629L1180.03 150.624L1175.06 119.258L1201.06 111L1205.48 136.832C1203.84 135.867 1201.92 135.519 1200.06 135.85C1198.19 136.181 1196.51 137.169 1195.31 138.636C1194.11 140.102 1193.47 141.95 1193.52 143.844C1193.56 145.738 1194.29 147.554 1195.55 148.961C1196.82 150.368 1198.55 151.274 1200.43 151.515C1202.31 151.756 1204.22 151.315 1205.8 150.273C1207.38 149.231 1208.54 147.657 1209.06 145.835C1209.58 144.014 1209.43 142.066 1208.64 140.344Z" fill="#6C63FF"/>
<path d="M1509.42 182.743L1509.46 182.747L1513.19 149.805L1480.77 150.634L1477.07 179.994C1475.83 178.584 1474.12 177.663 1472.25 177.398C1470.38 177.132 1468.49 177.538 1466.89 178.544C1465.3 179.55 1464.11 181.089 1463.55 182.887C1462.99 184.685 1463.08 186.625 1463.82 188.36C1464.55 190.095 1465.88 191.512 1467.57 192.358C1469.25 193.203 1471.18 193.423 1473.01 192.977C1474.84 192.531 1476.45 191.448 1477.56 189.923C1478.67 188.397 1479.19 186.528 1479.05 184.649L1479.08 184.653L1483.04 153.145L1510.3 152.447L1507.36 178.488C1506.06 177.108 1504.31 176.238 1502.43 176.037C1500.54 175.835 1498.65 176.316 1497.09 177.39C1495.53 178.465 1494.41 180.063 1493.92 181.895C1493.44 183.727 1493.63 185.672 1494.45 187.377C1495.28 189.081 1496.69 190.433 1498.43 191.188C1500.17 191.942 1502.12 192.049 1503.93 191.488C1505.74 190.928 1507.29 189.738 1508.3 188.133C1509.3 186.529 1509.7 184.617 1509.42 182.743Z" fill="#6C63FF"/>
<path d="M1250.85 176.296L1250.87 176.293L1246.89 151.126L1244.93 151.437L1248.38 173.255C1247.14 172.474 1245.67 172.158 1244.22 172.363C1242.78 172.567 1241.45 173.28 1240.48 174.373C1239.51 175.465 1238.96 176.867 1238.93 178.328C1238.9 179.789 1239.39 181.213 1240.31 182.346C1241.23 183.48 1242.53 184.248 1243.96 184.514C1245.4 184.781 1246.88 184.528 1248.15 183.801C1249.42 183.073 1250.39 181.919 1250.88 180.544C1251.38 179.17 1251.37 177.664 1250.85 176.296Z" fill="#6C63FF"/>
<path d="M1436.98 167.921C1436.63 166.602 1435.85 165.438 1434.76 164.611C1433.68 163.783 1432.35 163.34 1430.99 163.351C1429.62 163.362 1428.3 163.827 1427.23 164.671C1426.16 165.516 1425.4 166.693 1425.07 168.017C1424.74 169.34 1424.86 170.736 1425.41 171.983C1425.96 173.231 1426.92 174.26 1428.12 174.907C1429.32 175.555 1430.7 175.785 1432.04 175.561C1433.39 175.337 1434.62 174.672 1435.55 173.67L1437.86 195.638L1439.84 195.43L1437.17 170.09L1437.15 170.092C1437.22 169.364 1437.16 168.628 1436.98 167.921Z" fill="#6C63FF"/>
<path d="M1308.07 539.082L1319.73 556.56L1337.2 542.967L1325.55 528.401L1308.07 539.082Z" fill="#FFB8B8"/>
<path d="M1321.98 547.182C1321.98 547.182 1305.29 547.958 1309.99 556.779C1314.7 565.6 1318.37 615.373 1331.79 612.489C1345.22 609.605 1357.39 594.35 1357.24 583.848C1357.09 573.347 1355.41 568.792 1355.41 568.792C1355.41 568.792 1351.81 561.841 1354.21 559.921C1356.6 558.002 1357.51 545.869 1351.8 542.18C1346.09 538.49 1329.59 533.607 1329.59 533.607C1329.59 533.607 1327.92 548.714 1321.98 547.182Z" fill="#2F2E41"/>
<path d="M1330.41 579.863L1326.52 601.225L1346.91 603.166V586.66L1330.41 579.863Z" fill="#FFB8B8"/>
<path d="M1288.65 290.512C1288.65 290.512 1277.97 326.439 1275.06 347.8C1275.06 347.8 1216.8 426.449 1227.48 460.433C1238.16 494.418 1269.24 562.386 1269.24 562.386C1269.24 562.386 1321.67 541.025 1332.35 529.373L1293.51 474.027C1293.51 474.027 1299.34 467.23 1290.6 463.346C1281.86 459.462 1289.63 454.608 1289.63 454.608C1289.63 454.608 1306.13 399.262 1322.64 393.436L1379.93 381.784C1379.93 381.784 1376.04 299.251 1362.45 284.687C1362.45 284.687 1294.48 285.658 1288.65 290.512Z" fill="#2F2E41"/>
<path d="M1335.26 592.486C1335.26 592.486 1325.55 578.892 1320.7 587.631C1315.84 596.37 1276.03 626.47 1285.74 636.18C1295.45 645.89 1314.87 647.832 1323.61 642.006C1332.35 636.18 1335.26 632.296 1335.26 632.296C1335.26 632.296 1339.15 625.499 1342.06 626.47C1344.97 627.441 1355.65 621.615 1355.65 614.818C1355.65 608.022 1350.8 591.515 1350.8 591.515C1350.8 591.515 1337.2 598.312 1335.26 592.486Z" fill="#2F2E41"/>
<path d="M1320.7 386.639L1334.29 504.128C1334.29 504.128 1326.52 537.141 1324.58 562.386C1322.64 587.632 1324.58 586.661 1324.58 586.661C1324.58 586.661 1368.28 604.138 1376.04 592.486C1383.81 580.835 1379.93 381.784 1379.93 381.784L1356.62 360.423L1320.7 386.639Z" fill="#2F2E41"/>
<path d="M1296.99 124.352C1307.07 100.568 1332.73 96.0765 1332.73 96.0765C1332.73 96.0765 1357.44 89.4854 1378.07 120.875C1397.3 150.133 1422.1 177.546 1390.65 189.224L1382.34 171.776L1381.35 191.856C1376.77 192.808 1372.15 193.51 1367.5 193.957C1332.62 197.501 1299.73 203.394 1299.12 190.786C1298.31 174.026 1287.29 147.237 1296.99 124.352Z" fill="#2F2E41"/>
<path d="M1338.17 171.082C1353.73 171.082 1366.33 158.475 1366.33 142.924C1366.33 127.373 1353.73 114.766 1338.17 114.766C1322.62 114.766 1310.02 127.373 1310.02 142.924C1310.02 158.475 1322.62 171.082 1338.17 171.082Z" fill="#FFB8B8"/>
<path d="M1329.92 160.886C1329.92 160.886 1329.44 189.53 1326.52 196.327C1323.61 203.124 1378.47 190.987 1378.47 190.987C1378.47 190.987 1359.05 177.393 1356.14 158.944L1329.92 160.886Z" fill="#FFB8B8"/>
<path d="M1334.29 184.676L1328.99 180.775L1291.57 182.734L1283.8 268.18C1283.8 268.18 1261.47 294.396 1288.65 294.396C1315.84 294.396 1341.09 281.773 1360.51 290.512C1379.93 299.251 1396.43 198.269 1396.43 198.269L1367.4 180.775C1367.4 180.775 1354.68 196.327 1334.29 184.676Z" fill="#575A89"/>
<path d="M1302.25 253.615L1356.62 265.267V277.89L1302.25 279.832C1302.25 279.832 1296.42 257.499 1302.25 253.615Z" fill="#FFB8B8"/>
<path d="M1302.25 187.588L1291.57 182.733C1291.57 182.733 1278.95 185.646 1277.97 196.327C1277 207.008 1258.55 275.947 1273.12 278.86C1287.68 281.773 1307.1 281.773 1307.1 281.773C1307.1 281.773 1294.48 264.295 1310.02 254.586L1298.36 248.76C1298.36 248.76 1286.71 222.543 1294.48 208.95C1302.25 195.356 1302.25 187.588 1302.25 187.588Z" fill="#575A89"/>
<path d="M1302.69 115.711L1328.41 102.241L1363.92 107.752L1371.27 140.202L1352.98 139.499L1347.87 127.577V139.302L1339.43 138.978L1334.53 119.997L1331.47 140.202L1301.47 139.59L1302.69 115.711Z" fill="#2F2E41"/>
<path d="M1366.5 149.24C1369.36 149.24 1371.67 145.183 1371.67 140.178C1371.67 135.173 1369.36 131.115 1366.5 131.115C1363.64 131.115 1361.32 135.173 1361.32 140.178C1361.32 145.183 1363.64 149.24 1366.5 149.24Z" fill="#FFB8B8"/>
<path d="M1366.99 146.594C1368.94 146.594 1370.53 145.011 1370.53 143.06C1370.53 141.108 1368.94 139.525 1366.99 139.525C1365.04 139.525 1363.46 141.108 1363.46 143.06C1363.46 145.011 1365.04 146.594 1366.99 146.594Z" fill="white"/>
<path d="M1368.51 144.251C1368.83 144.251 1369.08 143.479 1369.08 142.527C1369.08 141.575 1368.83 140.804 1368.51 140.804C1368.19 140.804 1367.94 141.575 1367.94 142.527C1367.94 143.479 1368.19 144.251 1368.51 144.251Z" fill="#2F2E41"/>
<path d="M1368.42 153.317C1368.18 153.317 1367.95 153.222 1367.78 153.052C1367.61 152.883 1367.51 152.653 1367.51 152.413L1366.61 145.18H1369.32V152.413C1369.32 152.532 1369.3 152.649 1369.25 152.759C1369.21 152.869 1369.14 152.968 1369.06 153.052C1368.97 153.136 1368.87 153.203 1368.76 153.248C1368.66 153.294 1368.54 153.317 1368.42 153.317Z" fill="white"/>
<path opacity="0.1" d="M1297.9 213.933L1288.73 253.665H1310.13L1293.32 249.844L1297.9 213.933Z" fill="black"/>
<path d="M1408.36 279.568L1408.16 279.385L1413.17 273.816C1413.56 273.393 1413.85 272.898 1414.04 272.361C1414.23 271.824 1414.31 271.255 1414.28 270.686C1414.25 270.117 1414.11 269.56 1413.87 269.045C1413.62 268.531 1413.28 268.07 1412.86 267.688L1401.06 257.055C1400.63 256.674 1400.14 256.379 1399.6 256.189C1399.07 255.999 1398.5 255.916 1397.93 255.945C1397.36 255.975 1396.8 256.116 1396.29 256.361C1395.77 256.606 1395.31 256.95 1394.93 257.374L1367.4 287.924C1367.02 288.347 1366.72 288.841 1366.53 289.378C1366.34 289.915 1366.26 290.485 1366.29 291.054C1366.32 291.623 1366.46 292.18 1366.7 292.695C1366.95 293.209 1367.29 293.67 1367.71 294.052L1379.51 304.685C1379.94 305.066 1380.43 305.361 1380.97 305.551C1381.5 305.741 1382.07 305.824 1382.64 305.795C1383.21 305.765 1383.77 305.624 1384.28 305.379C1384.8 305.134 1385.26 304.79 1385.64 304.366L1404.58 283.349L1404.79 283.532L1408.36 279.568Z" fill="#3F3D56"/>
<path d="M1399.1 274.086C1400.65 274.086 1401.9 272.834 1401.9 271.29C1401.9 269.746 1400.65 268.494 1399.1 268.494C1397.56 268.494 1396.31 269.746 1396.31 271.29C1396.31 272.834 1397.56 274.086 1399.1 274.086Z" fill="#6C63FF"/>
<path d="M1379.71 269.604C1379.71 269.604 1412.81 277.616 1405.19 289.038C1397.56 300.46 1367.45 279.583 1367.45 279.583L1379.71 269.604Z" fill="#FFB8B8"/>
<path d="M1387.69 198.27H1396.43C1396.43 198.27 1406.14 208.95 1404.2 218.66C1402.26 228.37 1396.43 274.006 1396.43 274.006C1396.43 274.006 1367.3 301.193 1352.74 286.628C1338.17 272.064 1348.86 258.47 1348.86 258.47C1348.86 258.47 1368.28 274.006 1378.96 253.615L1387.69 198.27Z" fill="#575A89"/>
<path d="M1379.01 264.469L1385.7 198.396C1385.7 198.396 1399.73 156.683 1386.03 155.661C1372.34 154.638 1371.38 195.188 1371.38 195.188L1347.53 267.489C1347.53 267.489 1360.62 280.309 1379.01 264.469Z" fill="#FFB8B8"/>
<path fill-rule="evenodd" clip-rule="evenodd" d="M1332.73 96.0765C1332.73 96.0765 1307.07 100.568 1296.99 124.352C1290.14 140.532 1293.63 158.664 1296.56 173.823C1297.13 176.806 1297.69 179.674 1298.14 182.39L1291.57 182.734L1291.57 182.734C1291.57 182.734 1278.95 185.647 1277.97 196.328C1277.76 198.688 1276.69 203.895 1275.31 210.606L1275.31 210.606L1275.31 210.606L1275.31 210.606L1275.31 210.606L1275.31 210.606C1270.46 234.258 1261.77 276.592 1273.12 278.861C1274.29 279.094 1275.49 279.309 1276.71 279.507C1273.81 286.413 1273.82 293.992 1287.53 294.38C1284.71 304.231 1277.39 330.688 1275.06 347.8C1275.06 347.8 1216.8 426.449 1227.48 460.433C1238.16 494.417 1269.24 562.386 1269.24 562.386C1269.24 562.386 1292.24 553.011 1310.88 543.296L1314.42 548.602C1310.75 549.881 1307.6 552.287 1309.99 556.779C1311.47 559.544 1312.84 566.332 1314.44 574.262C1315.53 579.627 1316.72 585.515 1318.12 591.031C1315.77 593.694 1312.29 597.096 1308.43 600.859C1295.75 613.236 1279.08 629.514 1285.74 636.18C1295.45 645.89 1314.87 647.832 1323.61 642.006C1332.35 636.18 1335.26 632.296 1335.26 632.296C1335.26 632.296 1339.15 625.499 1342.06 626.47C1344.97 627.441 1355.65 621.615 1355.65 614.818C1355.65 610.638 1353.82 602.786 1352.4 597.359C1352.86 596.681 1353.29 595.996 1353.69 595.308C1363.53 597.142 1372.84 597.291 1376.04 592.486C1383.81 580.834 1379.93 381.784 1379.93 381.784C1379.93 381.784 1377 319.62 1367.34 293.672C1367.46 293.805 1367.58 293.932 1367.71 294.051L1379.51 304.684C1379.94 305.066 1380.43 305.36 1380.97 305.55C1381.5 305.741 1382.07 305.824 1382.64 305.794C1383.21 305.765 1383.77 305.623 1384.28 305.378C1384.8 305.133 1385.26 304.789 1385.64 304.366L1396.42 292.408C1400.16 292.68 1403.34 291.81 1405.19 289.038C1406.69 286.788 1406.61 284.67 1405.52 282.72L1408.36 279.567L1408.16 279.384L1413.17 273.816C1413.56 273.392 1413.85 272.898 1414.04 272.361C1414.23 271.824 1414.31 271.255 1414.28 270.686C1414.25 270.117 1414.11 269.559 1413.87 269.045C1413.62 268.53 1413.28 268.069 1412.86 267.688L1401.06 257.055C1400.63 256.673 1400.14 256.379 1399.6 256.189C1399.34 256.094 1399.06 256.026 1398.79 255.985C1400.63 242.083 1403.07 224.303 1404.2 218.66C1406.14 208.95 1396.43 198.269 1396.43 198.269L1387.4 192.827C1387.95 190.916 1388.57 188.624 1389.18 186.128L1390.65 189.224C1417.99 179.073 1402.83 157.037 1385.77 132.233L1385.77 132.233L1385.77 132.233L1385.77 132.232L1385.77 132.232L1385.77 132.232C1383.2 128.499 1380.59 124.703 1378.07 120.875C1357.44 89.4854 1332.73 96.0765 1332.73 96.0765ZM1366.22 290.742C1366.2 290.744 1366.18 290.747 1366.16 290.749C1366.2 290.847 1366.24 290.946 1366.29 291.045C1366.28 290.941 1366.28 290.837 1366.28 290.733C1366.26 290.736 1366.24 290.739 1366.22 290.742ZM1208.64 140.344L1208.68 140.337L1203.09 107.66L1172.18 117.479L1176.81 146.706C1175.21 145.699 1173.32 145.291 1171.45 145.555C1169.58 145.819 1167.87 146.738 1166.62 148.148C1165.37 149.557 1164.66 151.365 1164.62 153.249C1164.58 155.133 1165.21 156.97 1166.4 158.431C1167.59 159.893 1169.26 160.884 1171.11 161.228C1172.97 161.571 1174.88 161.245 1176.52 160.307C1178.15 159.369 1179.4 157.881 1180.04 156.108C1180.67 154.335 1180.66 152.393 1180 150.628L1180.03 150.624L1175.06 119.258L1201.06 111L1205.48 136.831C1203.84 135.867 1201.92 135.518 1200.06 135.849C1198.19 136.18 1196.51 137.169 1195.31 138.635C1194.11 140.102 1193.47 141.95 1193.52 143.844C1193.56 145.738 1194.29 147.553 1195.55 148.96C1196.82 150.367 1198.55 151.274 1200.43 151.514C1202.31 151.755 1204.22 151.315 1205.8 150.273C1207.38 149.231 1208.54 147.656 1209.06 145.835C1209.58 144.013 1209.43 142.065 1208.64 140.344ZM1509.42 182.743L1509.46 182.747L1513.19 149.805L1480.77 150.634L1477.07 179.994C1475.83 178.584 1474.12 177.663 1472.25 177.398C1470.38 177.132 1468.49 177.538 1466.89 178.544C1465.3 179.55 1464.11 181.089 1463.55 182.887C1462.99 184.685 1463.08 186.625 1463.82 188.36C1464.55 190.095 1465.88 191.512 1467.57 192.358C1469.25 193.203 1471.18 193.423 1473.01 192.977C1474.84 192.531 1476.45 191.448 1477.56 189.923C1478.67 188.397 1479.19 186.528 1479.05 184.649L1479.08 184.653L1483.04 153.145L1510.3 152.447L1507.36 178.488C1506.06 177.108 1504.31 176.238 1502.43 176.037C1500.54 175.835 1498.65 176.316 1497.09 177.39C1495.53 178.465 1494.41 180.063 1493.92 181.895C1493.44 183.727 1493.63 185.672 1494.45 187.377C1495.28 189.081 1496.69 190.433 1498.43 191.188C1500.17 191.942 1502.12 192.049 1503.93 191.488C1505.74 190.928 1507.29 189.738 1508.3 188.133C1509.3 186.529 1509.7 184.617 1509.42 182.743ZM1250.87 176.293L1250.85 176.296C1251.37 177.664 1251.38 179.17 1250.88 180.544C1250.39 181.919 1249.42 183.073 1248.15 183.801C1246.88 184.528 1245.4 184.781 1243.96 184.514C1242.53 184.248 1241.23 183.48 1240.31 182.346C1239.39 181.213 1238.9 179.789 1238.93 178.328C1238.96 176.867 1239.51 175.465 1240.48 174.373C1241.45 173.28 1242.78 172.567 1244.22 172.363C1245.67 172.158 1247.14 172.474 1248.38 173.255L1244.93 151.437L1246.89 151.126L1250.87 176.293ZM1436.98 167.921C1436.63 166.602 1435.85 165.438 1434.76 164.611C1433.68 163.783 1432.35 163.34 1430.99 163.351C1429.62 163.362 1428.3 163.827 1427.23 164.671C1426.16 165.516 1425.4 166.693 1425.07 168.017C1424.74 169.34 1424.86 170.736 1425.41 171.983C1425.96 173.231 1426.92 174.26 1428.12 174.907C1429.32 175.555 1430.7 175.785 1432.04 175.561C1433.39 175.337 1434.62 174.672 1435.55 173.67L1437.86 195.638L1439.84 195.43L1437.17 170.09L1437.15 170.092C1437.22 169.364 1437.16 168.628 1436.98 167.921ZM1334.29 504.127C1334.29 504.127 1332.13 513.33 1329.8 525.734L1293.51 474.027C1293.51 474.027 1299.34 467.23 1290.6 463.346C1281.86 459.462 1289.63 454.607 1289.63 454.607C1289.63 454.607 1305.41 401.698 1321.54 393.897L1334.29 504.127Z" fill="url(#paint1_linear)"/>
</g>
</g>
<defs>
<linearGradient id="paint0_linear" x1="1020" y1="-150.5" x2="1883.99" y2="429.766" gradientUnits="userSpaceOnUse">
<stop stop-color="white" stop-opacity="0.2"/>
<stop offset="1" stop-color="white" stop-opacity="0"/>
</linearGradient>
<linearGradient id="paint1_linear" x1="1164.62" y1="645.283" x2="1507.88" y2="602.529" gradientUnits="userSpaceOnUse">
<stop stop-color="white" stop-opacity="0.2"/>
<stop offset="1" stop-color="white" stop-opacity="0"/>
</linearGradient>
<clipPath id="clip0">
<rect width="1620" height="695" fill="white" transform="translate(0 0.5)"/>
</clipPath>
<clipPath id="clip1">
<rect width="354.942" height="550" fill="white" transform="translate(1164.62 95.5)"/>
</clipPath>
</defs>
</svg>
