<svg width="1620" height="696" viewBox="0 0 1620 696" fill="none" xmlns="http://www.w3.org/2000/svg">
<g clip-path="url(#clip0)">
<rect width="1620" height="695" transform="translate(0 0.5)" fill="white"/>
<path d="M114.82 293.58H100.26V285H139.91V293.58H125.35V330.5H114.82V293.58ZM166.766 295.01C171.099 295.01 174.587 296.31 177.231 298.91C179.917 301.51 181.261 305.367 181.261 310.48V330.5H171.121V312.04C171.121 309.267 170.514 307.208 169.301 305.865C168.087 304.478 166.332 303.785 164.036 303.785C161.479 303.785 159.442 304.587 157.926 306.19C156.409 307.75 155.651 310.09 155.651 313.21V330.5H145.511V282.27H155.651V299.17C156.994 297.827 158.619 296.808 160.526 296.115C162.432 295.378 164.512 295.01 166.766 295.01ZM225.738 313.145C225.738 313.275 225.673 314.185 225.543 315.875H199.088C199.565 318.042 200.691 319.753 202.468 321.01C204.245 322.267 206.455 322.895 209.098 322.895C210.918 322.895 212.521 322.635 213.908 322.115C215.338 321.552 216.66 320.685 217.873 319.515L223.268 325.365C219.975 329.135 215.165 331.02 208.838 331.02C204.895 331.02 201.406 330.262 198.373 328.745C195.34 327.185 193 325.04 191.353 322.31C189.706 319.58 188.883 316.482 188.883 313.015C188.883 309.592 189.685 306.515 191.288 303.785C192.935 301.012 195.166 298.867 197.983 297.35C200.843 295.79 204.028 295.01 207.538 295.01C210.961 295.01 214.06 295.747 216.833 297.22C219.606 298.693 221.773 300.817 223.333 303.59C224.936 306.32 225.738 309.505 225.738 313.145ZM207.603 302.68C205.306 302.68 203.378 303.33 201.818 304.63C200.258 305.93 199.305 307.707 198.958 309.96H216.183C215.836 307.75 214.883 305.995 213.323 304.695C211.763 303.352 209.856 302.68 207.603 302.68ZM272.867 295.01C276.117 295.01 279.064 295.768 281.707 297.285C284.394 298.758 286.495 300.86 288.012 303.59C289.529 306.277 290.287 309.418 290.287 313.015C290.287 316.612 289.529 319.775 288.012 322.505C286.495 325.192 284.394 327.293 281.707 328.81C279.064 330.283 276.117 331.02 272.867 331.02C268.057 331.02 264.395 329.503 261.882 326.47V330.5H252.197V282.27H262.337V299.235C264.894 296.418 268.404 295.01 272.867 295.01ZM271.112 322.7C273.712 322.7 275.835 321.833 277.482 320.1C279.172 318.323 280.017 315.962 280.017 313.015C280.017 310.068 279.172 307.728 277.482 305.995C275.835 304.218 273.712 303.33 271.112 303.33C268.512 303.33 266.367 304.218 264.677 305.995C263.03 307.728 262.207 310.068 262.207 313.015C262.207 315.962 263.03 318.323 264.677 320.1C266.367 321.833 268.512 322.7 271.112 322.7ZM331.98 313.145C331.98 313.275 331.915 314.185 331.785 315.875H305.33C305.807 318.042 306.933 319.753 308.71 321.01C310.487 322.267 312.697 322.895 315.34 322.895C317.16 322.895 318.763 322.635 320.15 322.115C321.58 321.552 322.902 320.685 324.115 319.515L329.51 325.365C326.217 329.135 321.407 331.02 315.08 331.02C311.137 331.02 307.648 330.262 304.615 328.745C301.582 327.185 299.242 325.04 297.595 322.31C295.948 319.58 295.125 316.482 295.125 313.015C295.125 309.592 295.927 306.515 297.53 303.785C299.177 301.012 301.408 298.867 304.225 297.35C307.085 295.79 310.27 295.01 313.78 295.01C317.203 295.01 320.302 295.747 323.075 297.22C325.848 298.693 328.015 300.817 329.575 303.59C331.178 306.32 331.98 309.505 331.98 313.145ZM313.845 302.68C311.548 302.68 309.62 303.33 308.06 304.63C306.5 305.93 305.547 307.707 305.2 309.96H322.425C322.078 307.75 321.125 305.995 319.565 304.695C318.005 303.352 316.098 302.68 313.845 302.68ZM351.146 331.02C348.242 331.02 345.404 330.673 342.631 329.98C339.857 329.243 337.647 328.333 336.001 327.25L339.381 319.97C340.941 320.967 342.826 321.79 345.036 322.44C347.246 323.047 349.412 323.35 351.536 323.35C355.826 323.35 357.971 322.288 357.971 320.165C357.971 319.168 357.386 318.453 356.216 318.02C355.046 317.587 353.247 317.218 350.821 316.915C347.961 316.482 345.599 315.983 343.736 315.42C341.872 314.857 340.247 313.86 338.861 312.43C337.517 311 336.846 308.963 336.846 306.32C336.846 304.11 337.474 302.16 338.731 300.47C340.031 298.737 341.894 297.393 344.321 296.44C346.791 295.487 349.694 295.01 353.031 295.01C355.501 295.01 357.949 295.292 360.376 295.855C362.846 296.375 364.882 297.112 366.486 298.065L363.106 305.28C360.029 303.547 356.671 302.68 353.031 302.68C350.864 302.68 349.239 302.983 348.156 303.59C347.072 304.197 346.531 304.977 346.531 305.93C346.531 307.013 347.116 307.772 348.286 308.205C349.456 308.638 351.319 309.05 353.876 309.44C356.736 309.917 359.076 310.437 360.896 311C362.716 311.52 364.297 312.495 365.641 313.925C366.984 315.355 367.656 317.348 367.656 319.905C367.656 322.072 367.006 324 365.706 325.69C364.406 327.38 362.499 328.702 359.986 329.655C357.516 330.565 354.569 331.02 351.146 331.02ZM397.117 328.81C396.12 329.547 394.885 330.11 393.412 330.5C391.982 330.847 390.465 331.02 388.862 331.02C384.702 331.02 381.474 329.958 379.177 327.835C376.924 325.712 375.797 322.592 375.797 318.475V304.11H370.402V296.31H375.797V287.795H385.937V296.31H394.647V304.11H385.937V318.345C385.937 319.818 386.305 320.967 387.042 321.79C387.822 322.57 388.905 322.96 390.292 322.96C391.895 322.96 393.26 322.527 394.387 321.66L397.117 328.81ZM434.282 331.02C431.379 331.02 428.541 330.673 425.767 329.98C422.994 329.243 420.784 328.333 419.137 327.25L422.517 319.97C424.077 320.967 425.962 321.79 428.172 322.44C430.382 323.047 432.549 323.35 434.672 323.35C438.962 323.35 441.107 322.288 441.107 320.165C441.107 319.168 440.522 318.453 439.352 318.02C438.182 317.587 436.384 317.218 433.957 316.915C431.097 316.482 428.736 315.983 426.872 315.42C425.009 314.857 423.384 313.86 421.997 312.43C420.654 311 419.982 308.963 419.982 306.32C419.982 304.11 420.611 302.16 421.867 300.47C423.167 298.737 425.031 297.393 427.457 296.44C429.927 295.487 432.831 295.01 436.167 295.01C438.637 295.01 441.086 295.292 443.512 295.855C445.982 296.375 448.019 297.112 449.622 298.065L446.242 305.28C443.166 303.547 439.807 302.68 436.167 302.68C434.001 302.68 432.376 302.983 431.292 303.59C430.209 304.197 429.667 304.977 429.667 305.93C429.667 307.013 430.252 307.772 431.422 308.205C432.592 308.638 434.456 309.05 437.012 309.44C439.872 309.917 442.212 310.437 444.032 311C445.852 311.52 447.434 312.495 448.777 313.925C450.121 315.355 450.792 317.348 450.792 319.905C450.792 322.072 450.142 324 448.842 325.69C447.542 327.38 445.636 328.702 443.122 329.655C440.652 330.565 437.706 331.02 434.282 331.02ZM480.254 328.81C479.257 329.547 478.022 330.11 476.549 330.5C475.119 330.847 473.602 331.02 471.999 331.02C467.839 331.02 464.61 329.958 462.314 327.835C460.06 325.712 458.934 322.592 458.934 318.475V304.11H453.539V296.31H458.934V287.795H469.074V296.31H477.784V304.11H469.074V318.345C469.074 319.818 469.442 320.967 470.179 321.79C470.959 322.57 472.042 322.96 473.429 322.96C475.032 322.96 476.397 322.527 477.524 321.66L480.254 328.81ZM521.826 295.53V330.5H512.206V326.34C510.862 327.857 509.259 329.027 507.396 329.85C505.532 330.63 503.517 331.02 501.351 331.02C496.757 331.02 493.117 329.698 490.431 327.055C487.744 324.412 486.401 320.49 486.401 315.29V295.53H496.541V313.795C496.541 319.428 498.902 322.245 503.626 322.245C506.052 322.245 508.002 321.465 509.476 319.905C510.949 318.302 511.686 315.94 511.686 312.82V295.53H521.826ZM542.985 296.31H551.955V304.11H543.245V330.5H533.105V304.11H527.71V296.31H533.105V294.75C533.105 290.763 534.275 287.6 536.615 285.26C538.998 282.92 542.335 281.75 546.625 281.75C548.141 281.75 549.571 281.923 550.915 282.27C552.301 282.573 553.45 283.028 554.36 283.635L551.695 290.98C550.525 290.157 549.16 289.745 547.6 289.745C544.523 289.745 542.985 291.435 542.985 294.815V296.31ZM568.771 296.31H577.741V304.11H569.031V330.5H558.891V304.11H553.496V296.31H558.891V294.75C558.891 290.763 560.061 287.6 562.401 285.26C564.785 282.92 568.121 281.75 572.411 281.75C573.928 281.75 575.358 281.923 576.701 282.27C578.088 282.573 579.236 283.028 580.146 283.635L577.481 290.98C576.311 290.157 574.946 289.745 573.386 289.745C570.31 289.745 568.771 291.435 568.771 294.815V296.31ZM613.616 296.31H622.586V304.11H613.876V330.5H603.736V304.11H598.341V296.31H603.736V294.75C603.736 290.763 604.906 287.6 607.246 285.26C609.63 282.92 612.966 281.75 617.256 281.75C618.773 281.75 620.203 281.923 621.546 282.27C622.933 282.573 624.081 283.028 624.991 283.635L622.326 290.98C621.156 290.157 619.791 289.745 618.231 289.745C615.155 289.745 613.616 291.435 613.616 294.815V296.31ZM644.484 331.02C640.8 331.02 637.485 330.262 634.539 328.745C631.635 327.185 629.36 325.04 627.714 322.31C626.067 319.58 625.244 316.482 625.244 313.015C625.244 309.548 626.067 306.45 627.714 303.72C629.36 300.99 631.635 298.867 634.539 297.35C637.485 295.79 640.8 295.01 644.484 295.01C648.167 295.01 651.46 295.79 654.364 297.35C657.267 298.867 659.542 300.99 661.189 303.72C662.835 306.45 663.659 309.548 663.659 313.015C663.659 316.482 662.835 319.58 661.189 322.31C659.542 325.04 657.267 327.185 654.364 328.745C651.46 330.262 648.167 331.02 644.484 331.02ZM644.484 322.7C647.084 322.7 649.207 321.833 650.854 320.1C652.544 318.323 653.389 315.962 653.389 313.015C653.389 310.068 652.544 307.728 650.854 305.995C649.207 304.218 647.084 303.33 644.484 303.33C641.884 303.33 639.739 304.218 638.049 305.995C636.359 307.728 635.514 310.068 635.514 313.015C635.514 315.962 636.359 318.323 638.049 320.1C639.739 321.833 641.884 322.7 644.484 322.7ZM680.771 300.145C681.985 298.455 683.61 297.177 685.646 296.31C687.726 295.443 690.11 295.01 692.796 295.01V304.37C691.67 304.283 690.911 304.24 690.521 304.24C687.618 304.24 685.343 305.063 683.696 306.71C682.05 308.313 681.226 310.74 681.226 313.99V330.5H671.086V295.53H680.771V300.145ZM104.68 363.27H114.82V411.5H104.68V363.27ZM159.136 394.145C159.136 394.275 159.071 395.185 158.941 396.875H132.486C132.962 399.042 134.089 400.753 135.866 402.01C137.642 403.267 139.852 403.895 142.496 403.895C144.316 403.895 145.919 403.635 147.306 403.115C148.736 402.552 150.057 401.685 151.271 400.515L156.666 406.365C153.372 410.135 148.562 412.02 142.236 412.02C138.292 412.02 134.804 411.262 131.771 409.745C128.737 408.185 126.397 406.04 124.751 403.31C123.104 400.58 122.281 397.482 122.281 394.015C122.281 390.592 123.082 387.515 124.686 384.785C126.332 382.012 128.564 379.867 131.381 378.35C134.241 376.79 137.426 376.01 140.936 376.01C144.359 376.01 147.457 376.747 150.231 378.22C153.004 379.693 155.171 381.817 156.731 384.59C158.334 387.32 159.136 390.505 159.136 394.145ZM141.001 383.68C138.704 383.68 136.776 384.33 135.216 385.63C133.656 386.93 132.702 388.707 132.356 390.96H149.581C149.234 388.75 148.281 386.995 146.721 385.695C145.161 384.352 143.254 383.68 141.001 383.68ZM179.689 376.01C185.106 376.01 189.266 377.31 192.169 379.91C195.073 382.467 196.524 386.345 196.524 391.545V411.5H187.034V407.145C185.128 410.395 181.574 412.02 176.374 412.02C173.688 412.02 171.348 411.565 169.354 410.655C167.404 409.745 165.909 408.488 164.869 406.885C163.829 405.282 163.309 403.462 163.309 401.425C163.309 398.175 164.523 395.618 166.949 393.755C169.419 391.892 173.211 390.96 178.324 390.96H186.384C186.384 388.75 185.713 387.06 184.369 385.89C183.026 384.677 181.011 384.07 178.324 384.07C176.461 384.07 174.619 384.373 172.799 384.98C171.023 385.543 169.506 386.323 168.249 387.32L164.609 380.235C166.516 378.892 168.791 377.852 171.434 377.115C174.121 376.378 176.873 376.01 179.689 376.01ZM178.909 405.195C180.643 405.195 182.181 404.805 183.524 404.025C184.868 403.202 185.821 402.01 186.384 400.45V396.875H179.429C175.269 396.875 173.189 398.24 173.189 400.97C173.189 402.27 173.688 403.31 174.684 404.09C175.724 404.827 177.133 405.195 178.909 405.195ZM216.037 381.145C217.25 379.455 218.875 378.177 220.912 377.31C222.992 376.443 225.375 376.01 228.062 376.01V385.37C226.935 385.283 226.177 385.24 225.787 385.24C222.883 385.24 220.608 386.063 218.962 387.71C217.315 389.313 216.492 391.74 216.492 394.99V411.5H206.352V376.53H216.037V381.145ZM255.996 376.01C260.329 376.01 263.818 377.31 266.461 379.91C269.148 382.51 270.491 386.367 270.491 391.48V411.5H260.351V393.04C260.351 390.267 259.744 388.208 258.531 386.865C257.318 385.478 255.563 384.785 253.266 384.785C250.709 384.785 248.673 385.587 247.156 387.19C245.639 388.75 244.881 391.09 244.881 394.21V411.5H234.741V376.53H244.426V380.625C245.769 379.152 247.438 378.025 249.431 377.245C251.424 376.422 253.613 376.01 255.996 376.01ZM280.332 376.53H290.472V411.5H280.332V376.53ZM285.402 371.655C283.539 371.655 282.022 371.113 280.852 370.03C279.682 368.947 279.097 367.603 279.097 366C279.097 364.397 279.682 363.053 280.852 361.97C282.022 360.887 283.539 360.345 285.402 360.345C287.266 360.345 288.782 360.865 289.952 361.905C291.122 362.945 291.707 364.245 291.707 365.805C291.707 367.495 291.122 368.903 289.952 370.03C288.782 371.113 287.266 371.655 285.402 371.655ZM321.788 376.01C326.121 376.01 329.61 377.31 332.253 379.91C334.94 382.51 336.283 386.367 336.283 391.48V411.5H326.143V393.04C326.143 390.267 325.536 388.208 324.323 386.865C323.11 385.478 321.355 384.785 319.058 384.785C316.501 384.785 314.465 385.587 312.948 387.19C311.431 388.75 310.673 391.09 310.673 394.21V411.5H300.533V376.53H310.218V380.625C311.561 379.152 313.23 378.025 315.223 377.245C317.216 376.422 319.405 376.01 321.788 376.01ZM382.58 376.53V405.65C382.58 412.063 380.912 416.83 377.575 419.95C374.239 423.07 369.364 424.63 362.95 424.63C359.57 424.63 356.364 424.218 353.33 423.395C350.297 422.572 347.784 421.38 345.79 419.82L349.82 412.54C351.294 413.753 353.157 414.707 355.41 415.4C357.664 416.137 359.917 416.505 362.17 416.505C365.68 416.505 368.259 415.703 369.905 414.1C371.595 412.54 372.44 410.157 372.44 406.95V405.455C369.797 408.358 366.114 409.81 361.39 409.81C358.184 409.81 355.237 409.117 352.55 407.73C349.907 406.3 347.805 404.307 346.245 401.75C344.685 399.193 343.905 396.247 343.905 392.91C343.905 389.573 344.685 386.627 346.245 384.07C347.805 381.513 349.907 379.542 352.55 378.155C355.237 376.725 358.184 376.01 361.39 376.01C366.46 376.01 370.317 377.678 372.96 381.015V376.53H382.58ZM363.405 401.49C366.092 401.49 368.28 400.71 369.97 399.15C371.704 397.547 372.57 395.467 372.57 392.91C372.57 390.353 371.704 388.295 369.97 386.735C368.28 385.132 366.092 384.33 363.405 384.33C360.719 384.33 358.509 385.132 356.775 386.735C355.042 388.295 354.175 390.353 354.175 392.91C354.175 395.467 355.042 397.547 356.775 399.15C358.509 400.71 360.719 401.49 363.405 401.49ZM445.981 394.145C445.981 394.275 445.916 395.185 445.786 396.875H419.331C419.808 399.042 420.935 400.753 422.711 402.01C424.488 403.267 426.698 403.895 429.341 403.895C431.161 403.895 432.765 403.635 434.151 403.115C435.581 402.552 436.903 401.685 438.116 400.515L443.511 406.365C440.218 410.135 435.408 412.02 429.081 412.02C425.138 412.02 421.65 411.262 418.616 409.745C415.583 408.185 413.243 406.04 411.596 403.31C409.95 400.58 409.126 397.482 409.126 394.015C409.126 390.592 409.928 387.515 411.531 384.785C413.178 382.012 415.41 379.867 418.226 378.35C421.086 376.79 424.271 376.01 427.781 376.01C431.205 376.01 434.303 376.747 437.076 378.22C439.85 379.693 442.016 381.817 443.576 384.59C445.18 387.32 445.981 390.505 445.981 394.145ZM427.846 383.68C425.55 383.68 423.621 384.33 422.061 385.63C420.501 386.93 419.548 388.707 419.201 390.96H436.426C436.08 388.75 435.126 386.995 433.566 385.695C432.006 384.352 430.1 383.68 427.846 383.68ZM474.637 376.01C478.97 376.01 482.459 377.31 485.102 379.91C487.789 382.51 489.132 386.367 489.132 391.48V411.5H478.992V393.04C478.992 390.267 478.385 388.208 477.172 386.865C475.959 385.478 474.204 384.785 471.907 384.785C469.35 384.785 467.314 385.587 465.797 387.19C464.28 388.75 463.522 391.09 463.522 394.21V411.5H453.382V376.53H463.067V380.625C464.41 379.152 466.079 378.025 468.072 377.245C470.065 376.422 472.254 376.01 474.637 376.01ZM535.429 376.53V405.65C535.429 412.063 533.761 416.83 530.424 419.95C527.088 423.07 522.213 424.63 515.799 424.63C512.419 424.63 509.213 424.218 506.179 423.395C503.146 422.572 500.633 421.38 498.639 419.82L502.669 412.54C504.143 413.753 506.006 414.707 508.259 415.4C510.513 416.137 512.766 416.505 515.019 416.505C518.529 416.505 521.108 415.703 522.754 414.1C524.444 412.54 525.289 410.157 525.289 406.95V405.455C522.646 408.358 518.963 409.81 514.239 409.81C511.033 409.81 508.086 409.117 505.399 407.73C502.756 406.3 500.654 404.307 499.094 401.75C497.534 399.193 496.754 396.247 496.754 392.91C496.754 389.573 497.534 386.627 499.094 384.07C500.654 381.513 502.756 379.542 505.399 378.155C508.086 376.725 511.033 376.01 514.239 376.01C519.309 376.01 523.166 377.678 525.809 381.015V376.53H535.429ZM516.254 401.49C518.941 401.49 521.129 400.71 522.819 399.15C524.553 397.547 525.419 395.467 525.419 392.91C525.419 390.353 524.553 388.295 522.819 386.735C521.129 385.132 518.941 384.33 516.254 384.33C513.568 384.33 511.358 385.132 509.624 386.735C507.891 388.295 507.024 390.353 507.024 392.91C507.024 395.467 507.891 397.547 509.624 399.15C511.358 400.71 513.568 401.49 516.254 401.49ZM545.517 363.27H555.657V411.5H545.517V363.27ZM565.718 376.53H575.858V411.5H565.718V376.53ZM570.788 371.655C568.925 371.655 567.408 371.113 566.238 370.03C565.068 368.947 564.483 367.603 564.483 366C564.483 364.397 565.068 363.053 566.238 361.97C567.408 360.887 568.925 360.345 570.788 360.345C572.651 360.345 574.168 360.865 575.338 361.905C576.508 362.945 577.093 364.245 577.093 365.805C577.093 367.495 576.508 368.903 575.338 370.03C574.168 371.113 572.651 371.655 570.788 371.655ZM597.684 412.02C594.78 412.02 591.942 411.673 589.169 410.98C586.395 410.243 584.185 409.333 582.539 408.25L585.919 400.97C587.479 401.967 589.364 402.79 591.574 403.44C593.784 404.047 595.95 404.35 598.074 404.35C602.364 404.35 604.509 403.288 604.509 401.165C604.509 400.168 603.924 399.453 602.754 399.02C601.584 398.587 599.785 398.218 597.359 397.915C594.499 397.482 592.137 396.983 590.274 396.42C588.41 395.857 586.785 394.86 585.399 393.43C584.055 392 583.384 389.963 583.384 387.32C583.384 385.11 584.012 383.16 585.269 381.47C586.569 379.737 588.432 378.393 590.859 377.44C593.329 376.487 596.232 376.01 599.569 376.01C602.039 376.01 604.487 376.292 606.914 376.855C609.384 377.375 611.42 378.112 613.024 379.065L609.644 386.28C606.567 384.547 603.209 383.68 599.569 383.68C597.402 383.68 595.777 383.983 594.694 384.59C593.61 385.197 593.069 385.977 593.069 386.93C593.069 388.013 593.654 388.772 594.824 389.205C595.994 389.638 597.857 390.05 600.414 390.44C603.274 390.917 605.614 391.437 607.434 392C609.254 392.52 610.835 393.495 612.179 394.925C613.522 396.355 614.194 398.348 614.194 400.905C614.194 403.072 613.544 405 612.244 406.69C610.944 408.38 609.037 409.702 606.524 410.655C604.054 411.565 601.107 412.02 597.684 412.02ZM642.355 376.01C646.688 376.01 650.177 377.31 652.82 379.91C655.507 382.51 656.85 386.367 656.85 391.48V411.5H646.71V393.04C646.71 390.267 646.103 388.208 644.89 386.865C643.677 385.478 641.922 384.785 639.625 384.785C637.068 384.785 635.032 385.587 633.515 387.19C631.998 388.75 631.24 391.09 631.24 394.21V411.5H621.1V363.27H631.24V380.17C632.583 378.827 634.208 377.808 636.115 377.115C638.022 376.378 640.102 376.01 642.355 376.01Z" fill="#2F2E44"/>
<path d="M117.97 96.49C117.97 96.55 117.94 96.97 117.88 97.75H105.67C105.89 98.75 106.41 99.54 107.23 100.12C108.05 100.7 109.07 100.99 110.29 100.99C111.13 100.99 111.87 100.87 112.51 100.63C113.17 100.37 113.78 99.97 114.34 99.43L116.83 102.13C115.31 103.87 113.09 104.74 110.17 104.74C108.35 104.74 106.74 104.39 105.34 103.69C103.94 102.97 102.86 101.98 102.1 100.72C101.34 99.46 100.96 98.03 100.96 96.43C100.96 94.85 101.33 93.43 102.07 92.17C102.83 90.89 103.86 89.9 105.16 89.2C106.48 88.48 107.95 88.12 109.57 88.12C111.15 88.12 112.58 88.46 113.86 89.14C115.14 89.82 116.14 90.8 116.86 92.08C117.6 93.34 117.97 94.81 117.97 96.49ZM109.6 91.66C108.54 91.66 107.65 91.96 106.93 92.56C106.21 93.16 105.77 93.98 105.61 95.02H113.56C113.4 94 112.96 93.19 112.24 92.59C111.52 91.97 110.64 91.66 109.6 91.66ZM131.196 88.12C133.196 88.12 134.806 88.72 136.026 89.92C137.266 91.12 137.886 92.9 137.886 95.26V104.5H133.206V95.98C133.206 94.7 132.926 93.75 132.366 93.13C131.806 92.49 130.996 92.17 129.936 92.17C128.756 92.17 127.816 92.54 127.116 93.28C126.416 94 126.066 95.08 126.066 96.52V104.5H121.386V88.36H125.856V90.25C126.476 89.57 127.246 89.05 128.166 88.69C129.086 88.31 130.096 88.12 131.196 88.12ZM159.254 88.36V101.8C159.254 104.76 158.484 106.96 156.944 108.4C155.404 109.84 153.154 110.56 150.194 110.56C148.634 110.56 147.154 110.37 145.754 109.99C144.354 109.61 143.194 109.06 142.274 108.34L144.134 104.98C144.814 105.54 145.674 105.98 146.714 106.3C147.754 106.64 148.794 106.81 149.834 106.81C151.454 106.81 152.644 106.44 153.404 105.7C154.184 104.98 154.574 103.88 154.574 102.4V101.71C153.354 103.05 151.654 103.72 149.474 103.72C147.994 103.72 146.634 103.4 145.394 102.76C144.174 102.1 143.204 101.18 142.484 100C141.764 98.82 141.404 97.46 141.404 95.92C141.404 94.38 141.764 93.02 142.484 91.84C143.204 90.66 144.174 89.75 145.394 89.11C146.634 88.45 147.994 88.12 149.474 88.12C151.814 88.12 153.594 88.89 154.814 90.43V88.36H159.254ZM150.404 99.88C151.644 99.88 152.654 99.52 153.434 98.8C154.234 98.06 154.634 97.1 154.634 95.92C154.634 94.74 154.234 93.79 153.434 93.07C152.654 92.33 151.644 91.96 150.404 91.96C149.164 91.96 148.144 92.33 147.344 93.07C146.544 93.79 146.144 94.74 146.144 95.92C146.144 97.1 146.544 98.06 147.344 98.8C148.144 99.52 149.164 99.88 150.404 99.88ZM163.91 82.24H168.59V104.5H163.91V82.24ZM173.233 88.36H177.913V104.5H173.233V88.36ZM175.573 86.11C174.713 86.11 174.013 85.86 173.473 85.36C172.933 84.86 172.663 84.24 172.663 83.5C172.663 82.76 172.933 82.14 173.473 81.64C174.013 81.14 174.713 80.89 175.573 80.89C176.433 80.89 177.133 81.13 177.673 81.61C178.213 82.09 178.483 82.69 178.483 83.41C178.483 84.19 178.213 84.84 177.673 85.36C177.133 85.86 176.433 86.11 175.573 86.11ZM187.986 104.74C186.646 104.74 185.336 104.58 184.056 104.26C182.776 103.92 181.756 103.5 180.996 103L182.556 99.64C183.276 100.1 184.146 100.48 185.166 100.78C186.186 101.06 187.186 101.2 188.166 101.2C190.146 101.2 191.136 100.71 191.136 99.73C191.136 99.27 190.866 98.94 190.326 98.74C189.786 98.54 188.956 98.37 187.836 98.23C186.516 98.03 185.426 97.8 184.566 97.54C183.706 97.28 182.956 96.82 182.316 96.16C181.696 95.5 181.386 94.56 181.386 93.34C181.386 92.32 181.676 91.42 182.256 90.64C182.856 89.84 183.716 89.22 184.836 88.78C185.976 88.34 187.316 88.12 188.856 88.12C189.996 88.12 191.126 88.25 192.246 88.51C193.386 88.75 194.326 89.09 195.066 89.53L193.506 92.86C192.086 92.06 190.536 91.66 188.856 91.66C187.856 91.66 187.106 91.8 186.606 92.08C186.106 92.36 185.856 92.72 185.856 93.16C185.856 93.66 186.126 94.01 186.666 94.21C187.206 94.41 188.066 94.6 189.246 94.78C190.566 95 191.646 95.24 192.486 95.5C193.326 95.74 194.056 96.19 194.676 96.85C195.296 97.51 195.606 98.43 195.606 99.61C195.606 100.61 195.306 101.5 194.706 102.28C194.106 103.06 193.226 103.67 192.066 104.11C190.926 104.53 189.566 104.74 187.986 104.74ZM208.604 88.12C210.604 88.12 212.214 88.72 213.434 89.92C214.674 91.12 215.294 92.9 215.294 95.26V104.5H210.614V95.98C210.614 94.7 210.334 93.75 209.774 93.13C209.214 92.49 208.404 92.17 207.344 92.17C206.164 92.17 205.224 92.54 204.524 93.28C203.824 94 203.474 95.08 203.474 96.52V104.5H198.794V82.24H203.474V90.04C204.094 89.42 204.844 88.95 205.724 88.63C206.604 88.29 207.564 88.12 208.604 88.12ZM229.646 88.12C231.646 88.12 233.256 88.72 234.476 89.92C235.716 91.12 236.336 92.9 236.336 95.26V104.5H231.656V95.98C231.656 94.7 231.376 93.75 230.816 93.13C230.256 92.49 229.446 92.17 228.386 92.17C227.206 92.17 226.266 92.54 225.566 93.28C224.866 94 224.516 95.08 224.516 96.52V104.5H219.836V88.36H224.306V90.25C224.926 89.57 225.696 89.05 226.616 88.69C227.536 88.31 228.546 88.12 229.646 88.12ZM256.864 96.49C256.864 96.55 256.834 96.97 256.774 97.75H244.564C244.784 98.75 245.304 99.54 246.124 100.12C246.944 100.7 247.964 100.99 249.184 100.99C250.024 100.99 250.764 100.87 251.404 100.63C252.064 100.37 252.674 99.97 253.234 99.43L255.724 102.13C254.204 103.87 251.984 104.74 249.064 104.74C247.244 104.74 245.634 104.39 244.234 103.69C242.834 102.97 241.754 101.98 240.994 100.72C240.234 99.46 239.854 98.03 239.854 96.43C239.854 94.85 240.224 93.43 240.964 92.17C241.724 90.89 242.754 89.9 244.054 89.2C245.374 88.48 246.844 88.12 248.464 88.12C250.044 88.12 251.474 88.46 252.754 89.14C254.034 89.82 255.034 90.8 255.754 92.08C256.494 93.34 256.864 94.81 256.864 96.49ZM248.494 91.66C247.434 91.66 246.544 91.96 245.824 92.56C245.104 93.16 244.664 93.98 244.504 95.02H252.454C252.294 94 251.854 93.19 251.134 92.59C250.414 91.97 249.534 91.66 248.494 91.66ZM264.75 90.49C265.31 89.71 266.06 89.12 267 88.72C267.96 88.32 269.06 88.12 270.3 88.12V92.44C269.78 92.4 269.43 92.38 269.25 92.38C267.91 92.38 266.86 92.76 266.1 93.52C265.34 94.26 264.96 95.38 264.96 96.88V104.5H260.28V88.36H264.75V90.49ZM289.676 82.24V104.5H285.206V102.64C284.046 104.04 282.366 104.74 280.166 104.74C278.646 104.74 277.266 104.4 276.026 103.72C274.806 103.04 273.846 102.07 273.146 100.81C272.446 99.55 272.096 98.09 272.096 96.43C272.096 94.77 272.446 93.31 273.146 92.05C273.846 90.79 274.806 89.82 276.026 89.14C277.266 88.46 278.646 88.12 280.166 88.12C282.226 88.12 283.836 88.77 284.996 90.07V82.24H289.676ZM280.976 100.9C282.156 100.9 283.136 100.5 283.916 99.7C284.696 98.88 285.086 97.79 285.086 96.43C285.086 95.07 284.696 93.99 283.916 93.19C283.136 92.37 282.156 91.96 280.976 91.96C279.776 91.96 278.786 92.37 278.006 93.19C277.226 93.99 276.836 95.07 276.836 96.43C276.836 97.79 277.226 98.88 278.006 99.7C278.786 100.5 279.776 100.9 280.976 100.9ZM296.078 104.74C295.258 104.74 294.568 104.46 294.008 103.9C293.448 103.34 293.168 102.64 293.168 101.8C293.168 100.94 293.448 100.25 294.008 99.73C294.568 99.19 295.258 98.92 296.078 98.92C296.898 98.92 297.588 99.19 298.148 99.73C298.708 100.25 298.988 100.94 298.988 101.8C298.988 102.64 298.708 103.34 298.148 103.9C297.588 104.46 296.898 104.74 296.078 104.74ZM309.934 104.74C308.234 104.74 306.704 104.39 305.344 103.69C304.004 102.97 302.954 101.98 302.194 100.72C301.434 99.46 301.054 98.03 301.054 96.43C301.054 94.83 301.434 93.4 302.194 92.14C302.954 90.88 304.004 89.9 305.344 89.2C306.704 88.48 308.234 88.12 309.934 88.12C311.634 88.12 313.154 88.48 314.494 89.2C315.834 89.9 316.884 90.88 317.644 92.14C318.404 93.4 318.784 94.83 318.784 96.43C318.784 98.03 318.404 99.46 317.644 100.72C316.884 101.98 315.834 102.97 314.494 103.69C313.154 104.39 311.634 104.74 309.934 104.74ZM309.934 100.9C311.134 100.9 312.114 100.5 312.874 99.7C313.654 98.88 314.044 97.79 314.044 96.43C314.044 95.07 313.654 93.99 312.874 93.19C312.114 92.37 311.134 91.96 309.934 91.96C308.734 91.96 307.744 92.37 306.964 93.19C306.184 93.99 305.794 95.07 305.794 96.43C305.794 97.79 306.184 98.88 306.964 99.7C307.744 100.5 308.734 100.9 309.934 100.9ZM326.682 90.49C327.242 89.71 327.992 89.12 328.932 88.72C329.892 88.32 330.992 88.12 332.232 88.12V92.44C331.712 92.4 331.362 92.38 331.182 92.38C329.842 92.38 328.792 92.76 328.032 93.52C327.272 94.26 326.892 95.38 326.892 96.88V104.5H322.212V88.36H326.682V90.49ZM351.819 88.36V101.8C351.819 104.76 351.049 106.96 349.509 108.4C347.969 109.84 345.719 110.56 342.759 110.56C341.199 110.56 339.719 110.37 338.319 109.99C336.919 109.61 335.759 109.06 334.839 108.34L336.699 104.98C337.379 105.54 338.239 105.98 339.279 106.3C340.319 106.64 341.359 106.81 342.399 106.81C344.019 106.81 345.209 106.44 345.969 105.7C346.749 104.98 347.139 103.88 347.139 102.4V101.71C345.919 103.05 344.219 103.72 342.039 103.72C340.559 103.72 339.199 103.4 337.959 102.76C336.739 102.1 335.769 101.18 335.049 100C334.329 98.82 333.969 97.46 333.969 95.92C333.969 94.38 334.329 93.02 335.049 91.84C335.769 90.66 336.739 89.75 337.959 89.11C339.199 88.45 340.559 88.12 342.039 88.12C344.379 88.12 346.159 88.89 347.379 90.43V88.36H351.819ZM342.969 99.88C344.209 99.88 345.219 99.52 345.999 98.8C346.799 98.06 347.199 97.1 347.199 95.92C347.199 94.74 346.799 93.79 345.999 93.07C345.219 92.33 344.209 91.96 342.969 91.96C341.729 91.96 340.709 92.33 339.909 93.07C339.109 93.79 338.709 94.74 338.709 95.92C338.709 97.1 339.109 98.06 339.909 98.8C340.709 99.52 341.729 99.88 342.969 99.88Z" fill="#848499"/>
<circle cx="1445" cy="175.5" r="375" fill="#9E7DDF"/>
<path d="M1445 550.5C1652.11 550.5 1820 382.607 1820 175.5C1820 90.692 1791.85 12.4593 1744.38 -50.3623L1219.14 474.878C1281.96 522.348 1360.19 550.5 1445 550.5Z" fill="#A685E2"/>
<path d="M1101.3 325.717L1425.52 1.5L1775.97 351.958C1712.85 470.107 1588.31 550.5 1445 550.5C1291.31 550.5 1159.21 458.044 1101.3 325.717Z" fill="#B397E6"/>
<path d="M1081.6 82.585L1537.92 538.9C1508.2 546.474 1477.07 550.5 1445 550.5C1237.89 550.5 1070 382.607 1070 175.5C1070 143.429 1074.03 112.298 1081.6 82.585Z" fill="#C1AAEB"/>
<circle cx="1445" cy="175.5" r="375" fill="url(#paint0_linear)"/>
<g clip-path="url(#clip1)">
<path d="M1036.44 645.327L1008 565.692C1008 565.692 1039.29 581.334 1040.71 601.243C1040.71 601.243 1033.6 501.699 1019.38 480.368C1019.38 480.368 1042.13 483.212 1067.73 594.133C1067.73 594.133 1071.99 466.147 1033.6 429.174C1033.6 429.174 1086.21 471.836 1090.48 564.27V645.327H1036.44Z" fill="#F2F2F2"/>
<path d="M1394.04 480.641C1463.08 480.641 1519.06 424.666 1519.06 355.617C1519.06 286.568 1463.08 230.593 1394.04 230.593C1324.99 230.593 1269.01 286.568 1269.01 355.617C1269.01 424.666 1324.99 480.641 1394.04 480.641Z" fill="#F2F2F2"/>
<path d="M1426.78 645.777C1426.59 645.453 1421.92 637.663 1420.3 621.486C1418.82 606.644 1419.77 581.628 1432.75 546.732C1457.33 480.623 1427.08 427.284 1426.77 426.752L1428.27 425.887C1428.34 426.021 1436.15 439.621 1440.76 461.276C1446.85 489.986 1444.63 519.838 1434.36 547.333C1409.83 613.328 1428.07 644.57 1428.26 644.878L1426.78 645.777Z" fill="#3F3D56"/>
<path d="M1381.96 338.371H1087.08V645.327H1381.96V338.371Z" fill="#3F3D56"/>
<path d="M1351.54 371.356H1116.43V435.77H1351.54V371.356Z" fill="#E6E6E6"/>
<path d="M1121.8 429.329H1346.17V377.798H1121.8V429.329Z" fill="white"/>
<path d="M1150.74 422.399C1161.37 422.399 1169.98 413.782 1169.98 403.153C1169.98 392.525 1161.37 383.908 1150.74 383.908C1140.11 383.908 1131.49 392.525 1131.49 403.153C1131.49 413.782 1140.11 422.399 1150.74 422.399Z" fill="#6C63FF"/>
<path d="M1332.22 395.622H1181.92V399.806H1332.22V395.622Z" fill="#6C63FF"/>
<path d="M1332.22 406.5H1181.92V410.684H1332.22V406.5Z" fill="#6C63FF"/>
<path d="M1351.54 462.609H1116.43V527.023H1351.54V462.609Z" fill="#E6E6E6"/>
<path d="M1121.8 520.582H1346.17V470.124H1121.8V520.582Z" fill="white"/>
<path d="M1150.74 514.64C1161.37 514.64 1169.98 506.024 1169.98 495.395C1169.98 484.766 1161.37 476.149 1150.74 476.149C1140.11 476.149 1131.49 484.766 1131.49 495.395C1131.49 506.024 1140.11 514.64 1150.74 514.64Z" fill="#CCCCCC"/>
<path d="M1332.22 487.864H1181.92V492.048H1332.22V487.864Z" fill="#CCCCCC"/>
<path d="M1332.22 498.742H1181.92V502.926H1332.22V498.742Z" fill="#CCCCCC"/>
<path d="M1351.54 547.422H1116.43V611.836H1351.54V547.422Z" fill="#E6E6E6"/>
<path d="M1121.8 605.394H1346.17V553.863H1121.8V605.394Z" fill="white"/>
<path d="M1150.74 599.271C1161.37 599.271 1169.98 590.654 1169.98 580.026C1169.98 569.397 1161.37 560.78 1150.74 560.78C1140.11 560.78 1131.49 569.397 1131.49 580.026C1131.49 590.654 1140.11 599.271 1150.74 599.271Z" fill="#CCCCCC"/>
<path d="M1332.22 572.494H1181.92V576.678H1332.22V572.494Z" fill="#CCCCCC"/>
<path d="M1332.22 583.372H1181.92V587.556H1332.22V583.372Z" fill="#CCCCCC"/>
<path d="M1417.17 422.871C1423.36 422.871 1428.38 417.853 1428.38 411.662C1428.38 405.472 1423.36 400.453 1417.17 400.453C1410.98 400.453 1405.96 405.472 1405.96 411.662C1405.96 417.853 1410.98 422.871 1417.17 422.871Z" fill="#6C63FF"/>
<path d="M1452.52 464.258C1458.71 464.258 1463.73 459.239 1463.73 453.049C1463.73 446.858 1458.71 441.84 1452.52 441.84C1446.33 441.84 1441.32 446.858 1441.32 453.049C1441.32 459.239 1446.33 464.258 1452.52 464.258Z" fill="#3F3D56"/>
<path d="M1428.38 491.85C1434.57 491.85 1439.59 486.831 1439.59 480.641C1439.59 474.45 1434.57 469.432 1428.38 469.432C1422.19 469.432 1417.17 474.45 1417.17 480.641C1417.17 486.831 1422.19 491.85 1428.38 491.85Z" fill="#6C63FF"/>
<path d="M1457.7 515.13C1463.89 515.13 1468.91 510.112 1468.91 503.921C1468.91 497.73 1463.89 492.712 1457.7 492.712C1451.51 492.712 1446.49 497.73 1446.49 503.921C1446.49 510.112 1451.51 515.13 1457.7 515.13Z" fill="#6C63FF"/>
<path d="M1419.76 551.344C1425.95 551.344 1430.97 546.325 1430.97 540.135C1430.97 533.944 1425.95 528.926 1419.76 528.926C1413.57 528.926 1408.55 533.944 1408.55 540.135C1408.55 546.325 1413.57 551.344 1419.76 551.344Z" fill="#3F3D56"/>
<path d="M1427.41 646.189C1427.41 646.189 1416.2 618.598 1449.83 597.904L1427.41 646.189Z" fill="#3F3D56"/>
<path d="M1427.26 645.689C1427.26 645.689 1422.16 616.348 1382.67 616.599L1427.26 645.689Z" fill="#3F3D56"/>
<path d="M1271.64 171.96C1271.64 171.96 1300.09 159.562 1313.46 172.659C1326.82 185.756 1277.68 181.445 1271.64 171.96Z" fill="#3F3D56"/>
<path d="M1320.77 113.16C1311.21 97.0034 1292.29 96.2504 1292.29 96.2504C1292.29 96.2504 1273.86 93.893 1262.03 118.5C1251.01 141.436 1235.8 163.581 1259.58 168.95L1263.88 155.578L1266.54 169.946C1269.93 170.189 1273.32 170.248 1276.72 170.12C1302.19 169.297 1326.45 170.36 1325.67 161.22C1324.63 149.069 1329.97 128.706 1320.77 113.16Z" fill="#2F2E41"/>
<path d="M1334.15 406.058C1334.15 406.058 1322.08 428.476 1314.32 428.476C1306.56 428.476 1307.42 443.134 1309.15 446.583C1310.87 450.032 1315.18 457.792 1308.29 469.001C1305.88 472.916 1306.31 477.357 1307.89 481.48C1312.32 493.029 1329.55 489.53 1329 477.172C1328.99 477.036 1328.99 476.899 1328.98 476.761C1328.12 462.965 1335.01 441.409 1341.91 436.236C1348.81 431.063 1354.85 417.267 1354.85 417.267L1334.15 406.058Z" fill="#FFB8B8"/>
<path d="M1251.38 400.884C1251.38 400.884 1263.45 423.302 1271.21 423.302C1278.97 423.302 1278.11 437.96 1276.38 441.409C1274.66 444.858 1270.35 452.618 1277.24 463.827C1279.65 467.742 1279.22 472.184 1277.64 476.306C1273.21 487.855 1255.98 484.356 1256.53 471.998C1256.53 471.862 1256.54 471.725 1256.55 471.587C1257.41 457.791 1250.51 436.235 1243.62 431.062C1236.72 425.889 1230.68 412.093 1230.68 412.093L1251.38 400.884Z" fill="#FFB8B8"/>
<path d="M1260.86 290.518L1255.69 301.727C1255.69 301.727 1179.81 326.732 1186.71 356.048C1193.61 385.364 1227.23 431.062 1232.41 429.338C1237.58 427.613 1265.17 422.44 1266.04 407.782C1266.9 393.124 1246.2 367.257 1246.2 367.257L1274.66 341.39L1316.06 340.527L1351.4 367.257C1351.4 367.257 1314.32 400.022 1330.7 412.955C1347.09 425.889 1371.23 434.511 1374.68 429.338C1378.13 424.164 1416.93 347.425 1410.89 340.527C1404.86 333.629 1343.64 307.762 1343.64 307.762L1327.25 284.482L1263.45 281.033L1260.86 290.518Z" fill="#2F2E41"/>
<path d="M1276.38 148.249C1276.38 148.249 1280.69 176.703 1272.07 180.152C1263.45 183.601 1289.32 198.259 1289.32 198.259H1303.97L1313.46 178.427C1313.46 178.427 1304.84 162.907 1310.01 148.249C1315.18 133.591 1276.38 148.249 1276.38 148.249Z" fill="#FFB8B8"/>
<path opacity="0.1" d="M1276.38 148.249C1276.38 148.249 1280.69 176.703 1272.07 180.152C1263.45 183.601 1289.32 198.259 1289.32 198.259H1303.97L1313.46 178.427C1313.46 178.427 1304.84 162.907 1310.01 148.249C1315.18 133.591 1276.38 148.249 1276.38 148.249Z" fill="black"/>
<path d="M1270.35 172.392C1270.35 172.392 1279.83 182.738 1281.56 184.463C1283.28 186.187 1291.04 195.672 1307.42 181.876C1323.81 168.08 1325.53 184.463 1325.53 184.463V287.931C1325.53 287.931 1311.73 281.896 1300.53 287.931C1289.32 293.967 1266.04 286.207 1266.04 286.207L1261.72 179.29L1270.35 172.392Z" fill="white"/>
<path d="M1276.68 172.391C1276.68 172.391 1268.62 168.942 1261.72 172.391C1254.83 175.84 1230.68 193.085 1232.41 200.845C1234.13 208.605 1256.55 262.926 1241.03 288.793C1225.51 314.66 1222.92 321.558 1222.92 321.558L1260.86 301.726C1260.86 301.726 1290.18 283.62 1287.59 272.411C1285 261.201 1276.68 172.391 1276.68 172.391Z" fill="#6C63FF"/>
<path d="M1310.88 172.392C1310.88 172.392 1328.98 174.116 1329.84 175.841C1330.7 177.565 1357 184.894 1355.28 192.654C1353.55 200.414 1329.84 269.824 1340.19 282.758C1350.53 295.691 1367.78 313.798 1361.74 315.523C1355.71 317.247 1345.36 312.936 1335.01 315.523C1324.67 318.109 1300.52 296.553 1303.11 273.273C1305.7 249.993 1303.13 178.427 1310.88 172.392Z" fill="#6C63FF"/>
<path d="M1267.76 337.079V345.701C1267.76 345.701 1263.45 365.533 1277.24 364.67C1291.04 363.808 1282.42 340.528 1282.42 340.528L1281.56 332.768L1267.76 337.079Z" fill="#FFB8B8"/>
<path d="M1306.56 337.94C1306.56 337.94 1297.08 357.772 1306.56 359.496C1316.04 361.221 1322.94 348.287 1322.94 344.838C1322.94 341.389 1306.56 337.94 1306.56 337.94Z" fill="#FFB8B8"/>
<path d="M1319.06 140.058C1320.02 140.058 1320.79 138.514 1320.79 136.609C1320.79 134.704 1320.02 133.16 1319.06 133.16C1318.11 133.16 1317.34 134.704 1317.34 136.609C1317.34 138.514 1318.11 140.058 1319.06 140.058Z" fill="#FFB8B8"/>
<path d="M1268.19 140.058C1269.14 140.058 1269.92 138.514 1269.92 136.609C1269.92 134.704 1269.14 133.16 1268.19 133.16C1267.24 133.16 1266.47 134.704 1266.47 136.609C1266.47 138.514 1267.24 140.058 1268.19 140.058Z" fill="#FFB8B8"/>
<path d="M1334.15 183.601C1334.15 183.601 1355.71 183.601 1354.85 192.223C1353.98 200.845 1325.53 349.15 1325.53 349.15C1325.53 349.15 1313.46 337.941 1303.11 340.527L1334.15 183.601Z" fill="#6C63FF"/>
<path d="M1250.52 186.188C1250.52 186.188 1228.96 190.499 1228.96 203.432C1228.96 216.366 1260 340.528 1264.31 340.528C1268.62 340.528 1285.01 337.941 1285.01 333.63C1285.01 329.318 1250.52 186.188 1250.52 186.188Z" fill="#6C63FF"/>
<path opacity="0.2" d="M1255.26 211.623L1274.66 287.492C1274.66 287.492 1265.6 221.108 1255.26 211.623Z" fill="black"/>
<path opacity="0.2" d="M1330.72 200.963L1311.1 300.157C1311.1 300.157 1317.37 206.685 1330.72 200.963Z" fill="black"/>
<path d="M1293.63 162.045C1307.44 162.045 1318.63 150.85 1318.63 137.04C1318.63 123.23 1307.44 112.035 1293.63 112.035C1279.82 112.035 1268.62 123.23 1268.62 137.04C1268.62 150.85 1279.82 162.045 1293.63 162.045Z" fill="#FFB8B8"/>
<path d="M1316.54 111.602L1297.85 101.812L1272.04 105.817L1266.7 129.402L1280 128.891L1283.71 120.226V128.748L1289.84 128.512L1293.4 114.717L1295.63 129.402L1317.43 128.958L1316.54 111.602Z" fill="#2F2E41"/>
<path d="M1292.29 96.2504C1292.29 96.2504 1311.21 97.0034 1320.77 113.16C1327.28 124.152 1326.51 137.551 1325.87 148.753C1325.61 153.395 1325.36 157.66 1325.67 161.22C1326.07 165.991 1319.66 167.982 1309.81 168.912C1309.92 169.311 1310.03 169.701 1310.14 170.08C1311.32 170.802 1312.43 171.656 1313.46 172.659C1318.49 173.209 1329.18 174.525 1329.84 175.841C1330.09 176.336 1332.43 177.293 1335.61 178.589C1343.49 181.809 1356.51 187.122 1355.28 192.654C1355.1 193.429 1354.71 194.818 1354.16 196.704C1352.85 204.492 1349.84 220.84 1346.24 240.053C1360.97 233.956 1377.11 230.592 1394.04 230.592C1463.09 230.592 1519.06 286.567 1519.06 355.616C1519.06 407.486 1487.47 451.979 1442.48 470.907C1446.26 496.607 1443.49 522.901 1434.36 547.333C1415.7 597.53 1421.79 627.621 1425.85 639.287C1424.77 629.776 1426.61 612.195 1449.83 597.904L1428.13 644.649C1428.15 644.694 1428.17 644.732 1428.19 644.764C1428.2 644.791 1428.22 644.814 1428.23 644.832C1428.24 644.858 1428.25 644.873 1428.26 644.879L1427.93 645.08L1427.41 646.189C1427.41 646.189 1427.41 646.179 1427.4 646.158L1427.38 646.107C1427.37 646.071 1427.35 646.023 1427.33 645.963L1427.3 645.896C1427.29 645.866 1427.28 645.834 1427.27 645.8C1427.25 645.758 1427.24 645.712 1427.22 645.664L1427.1 645.585L1426.78 645.777C1426.75 645.73 1426.63 645.521 1426.43 645.149L1382.67 616.6C1405.98 616.451 1417.3 626.61 1422.67 634.962C1421.73 631.389 1420.84 626.909 1420.3 621.487C1418.82 606.645 1419.77 581.628 1432.75 546.732C1443.33 518.257 1443.75 492.151 1440.77 471.614C1439.43 472.152 1438.09 472.668 1436.73 473.161C1438.51 475.145 1439.59 477.766 1439.59 480.641C1439.59 486.831 1434.57 491.85 1428.38 491.85C1422.19 491.85 1417.17 486.831 1417.17 480.641C1417.17 479.896 1417.25 479.168 1417.38 478.464C1409.82 479.893 1402.02 480.64 1394.04 480.64C1389.96 480.64 1385.94 480.446 1381.96 480.065V645.327L1036.44 645.327L1008 565.692C1008 565.692 1039.29 581.335 1040.71 601.243C1040.71 601.243 1033.6 501.699 1019.38 480.368C1019.38 480.368 1042.13 483.212 1067.73 594.133C1067.73 594.133 1071.99 466.147 1033.6 429.174C1033.6 429.174 1074.45 462.299 1087.08 533.416V338.372H1191.82C1199.44 328.643 1213.69 320.07 1226.79 313.668C1229.46 308.624 1233.87 300.727 1241.03 288.793C1243.01 285.499 1244.37 281.744 1245.24 277.682C1236.86 244.771 1228.96 209.955 1228.96 203.432C1228.96 198.007 1232.75 194.1 1237.15 191.39C1244.21 183.57 1257 174.751 1261.72 172.391C1265.76 170.376 1270.18 170.716 1273.17 171.347C1274.01 171.02 1275.19 170.591 1276.61 170.124C1273.25 170.246 1269.89 170.187 1266.54 169.946L1263.88 155.578L1259.58 168.95C1238.91 164.284 1247.7 146.944 1257.59 127.426L1257.59 127.425L1257.59 127.421C1259.08 124.485 1260.59 121.499 1262.03 118.5C1273.86 93.893 1292.29 96.2504 1292.29 96.2504Z" fill="url(#paint1_linear)"/>
<path d="M1457.7 515.13C1463.89 515.13 1468.91 510.112 1468.91 503.921C1468.91 497.73 1463.89 492.712 1457.7 492.712C1451.51 492.712 1446.49 497.73 1446.49 503.921C1446.49 510.112 1451.51 515.13 1457.7 515.13Z" fill="url(#paint2_linear)"/>
<path d="M1430.97 540.134C1430.97 546.325 1425.95 551.343 1419.76 551.343C1413.57 551.343 1408.55 546.325 1408.55 540.134C1408.55 533.944 1413.57 528.925 1419.76 528.925C1425.95 528.925 1430.97 533.944 1430.97 540.134Z" fill="url(#paint3_linear)"/>
</g>
</g>
<defs>
<linearGradient id="paint0_linear" x1="1070" y1="-199.5" x2="1933.99" y2="380.766" gradientUnits="userSpaceOnUse">
<stop stop-color="white" stop-opacity="0.2"/>
<stop offset="1" stop-color="white" stop-opacity="0"/>
</linearGradient>
<linearGradient id="paint1_linear" x1="1008" y1="646.189" x2="1502.61" y2="555.902" gradientUnits="userSpaceOnUse">
<stop stop-color="white" stop-opacity="0.2"/>
<stop offset="1" stop-color="white" stop-opacity="0"/>
</linearGradient>
<linearGradient id="paint2_linear" x1="1008" y1="646.189" x2="1502.61" y2="555.902" gradientUnits="userSpaceOnUse">
<stop stop-color="white" stop-opacity="0.2"/>
<stop offset="1" stop-color="white" stop-opacity="0"/>
</linearGradient>
<linearGradient id="paint3_linear" x1="1008" y1="646.189" x2="1502.61" y2="555.902" gradientUnits="userSpaceOnUse">
<stop stop-color="white" stop-opacity="0.2"/>
<stop offset="1" stop-color="white" stop-opacity="0"/>
</linearGradient>
<clipPath id="clip0">
<rect width="1620" height="695" fill="white" transform="translate(0 0.5)"/>
</clipPath>
<clipPath id="clip1">
<rect width="512" height="551" fill="white" transform="translate(1008 95.5)"/>
</clipPath>
</defs>
</svg>
