<svg width="1236" height="695" viewBox="0 0 1236 695" fill="none" xmlns="http://www.w3.org/2000/svg">
<g clip-path="url(#clip0)">
<rect width="1236" height="695" fill="white"/>
<path d="M106.25 326.5V333H79.15V298H105.6V304.5H87.2V312.1H103.45V318.4H87.2V326.5H106.25ZM128.995 305.7C132.328 305.7 135.012 306.7 137.045 308.7C139.112 310.7 140.145 313.667 140.145 317.6V333H132.345V318.8C132.345 316.667 131.878 315.083 130.945 314.05C130.012 312.983 128.662 312.45 126.895 312.45C124.928 312.45 123.362 313.067 122.195 314.3C121.028 315.5 120.445 317.3 120.445 319.7V333H112.645V306.1H120.095V309.25C121.128 308.117 122.412 307.25 123.945 306.65C125.478 306.017 127.162 305.7 128.995 305.7ZM147.715 306.1H155.515V333H147.715V306.1ZM151.615 302.35C150.182 302.35 149.015 301.933 148.115 301.1C147.215 300.267 146.765 299.233 146.765 298C146.765 296.767 147.215 295.733 148.115 294.9C149.015 294.067 150.182 293.65 151.615 293.65C153.049 293.65 154.215 294.05 155.115 294.85C156.015 295.65 156.465 296.65 156.465 297.85C156.465 299.15 156.015 300.233 155.115 301.1C154.215 301.933 153.049 302.35 151.615 302.35ZM197.704 305.7C201.071 305.7 203.738 306.7 205.704 308.7C207.704 310.667 208.704 313.633 208.704 317.6V333H200.904V318.8C200.904 316.667 200.454 315.083 199.554 314.05C198.688 312.983 197.438 312.45 195.804 312.45C193.971 312.45 192.521 313.05 191.454 314.25C190.388 315.417 189.854 317.167 189.854 319.5V333H182.054V318.8C182.054 314.567 180.354 312.45 176.954 312.45C175.154 312.45 173.721 313.05 172.654 314.25C171.588 315.417 171.054 317.167 171.054 319.5V333H163.254V306.1H170.704V309.2C171.704 308.067 172.921 307.2 174.354 306.6C175.821 306 177.421 305.7 179.154 305.7C181.054 305.7 182.771 306.083 184.304 306.85C185.838 307.583 187.071 308.667 188.004 310.1C189.104 308.7 190.488 307.617 192.154 306.85C193.854 306.083 195.704 305.7 197.704 305.7ZM257.556 306.1L246.206 333H238.156L226.856 306.1H234.906L242.356 324.4L250.056 306.1H257.556ZM261.239 306.1H269.039V333H261.239V306.1ZM265.139 302.35C263.705 302.35 262.539 301.933 261.639 301.1C260.739 300.267 260.289 299.233 260.289 298C260.289 296.767 260.739 295.733 261.639 294.9C262.539 294.067 263.705 293.65 265.139 293.65C266.572 293.65 267.739 294.05 268.639 294.85C269.539 295.65 269.989 296.65 269.989 297.85C269.989 299.15 269.539 300.233 268.639 301.1C267.739 301.933 266.572 302.35 265.139 302.35ZM294.128 331.7C293.361 332.267 292.411 332.7 291.278 333C290.178 333.267 289.011 333.4 287.778 333.4C284.578 333.4 282.094 332.583 280.328 330.95C278.594 329.317 277.728 326.917 277.728 323.75V312.7H273.578V306.7H277.728V300.15H285.528V306.7H292.228V312.7H285.528V323.65C285.528 324.783 285.811 325.667 286.378 326.3C286.978 326.9 287.811 327.2 288.878 327.2C290.111 327.2 291.161 326.867 292.028 326.2L294.128 331.7ZM309.856 305.7C314.023 305.7 317.223 306.7 319.456 308.7C321.69 310.667 322.806 313.65 322.806 317.65V333H315.506V329.65C314.04 332.15 311.306 333.4 307.306 333.4C305.24 333.4 303.44 333.05 301.906 332.35C300.406 331.65 299.256 330.683 298.456 329.45C297.656 328.217 297.256 326.817 297.256 325.25C297.256 322.75 298.19 320.783 300.056 319.35C301.956 317.917 304.873 317.2 308.806 317.2H315.006C315.006 315.5 314.49 314.2 313.456 313.3C312.423 312.367 310.873 311.9 308.806 311.9C307.373 311.9 305.956 312.133 304.556 312.6C303.19 313.033 302.023 313.633 301.056 314.4L298.256 308.95C299.723 307.917 301.473 307.117 303.506 306.55C305.573 305.983 307.69 305.7 309.856 305.7ZM309.256 328.15C310.59 328.15 311.773 327.85 312.806 327.25C313.84 326.617 314.573 325.7 315.006 324.5V321.75H309.656C306.456 321.75 304.856 322.8 304.856 324.9C304.856 325.9 305.24 326.7 306.006 327.3C306.806 327.867 307.89 328.15 309.256 328.15ZM357.009 319.65C357.009 319.75 356.959 320.45 356.859 321.75H336.509C336.875 323.417 337.742 324.733 339.109 325.7C340.475 326.667 342.175 327.15 344.209 327.15C345.609 327.15 346.842 326.95 347.909 326.55C349.009 326.117 350.025 325.45 350.959 324.55L355.109 329.05C352.575 331.95 348.875 333.4 344.009 333.4C340.975 333.4 338.292 332.817 335.959 331.65C333.625 330.45 331.825 328.8 330.559 326.7C329.292 324.6 328.659 322.217 328.659 319.55C328.659 316.917 329.275 314.55 330.509 312.45C331.775 310.317 333.492 308.667 335.659 307.5C337.859 306.3 340.309 305.7 343.009 305.7C345.642 305.7 348.025 306.267 350.159 307.4C352.292 308.533 353.959 310.167 355.159 312.3C356.392 314.4 357.009 316.85 357.009 319.65ZM343.059 311.6C341.292 311.6 339.809 312.1 338.609 313.1C337.409 314.1 336.675 315.467 336.409 317.2H349.659C349.392 315.5 348.659 314.15 347.459 313.15C346.259 312.117 344.792 311.6 343.059 311.6ZM404.462 306.1V333H397.062V329.8C396.028 330.967 394.795 331.867 393.362 332.5C391.928 333.1 390.378 333.4 388.712 333.4C385.178 333.4 382.378 332.383 380.312 330.35C378.245 328.317 377.212 325.3 377.212 321.3V306.1H385.012V320.15C385.012 324.483 386.828 326.65 390.462 326.65C392.328 326.65 393.828 326.05 394.962 324.85C396.095 323.617 396.662 321.8 396.662 319.4V306.1H404.462ZM419.638 309.65C420.571 308.35 421.821 307.367 423.388 306.7C424.988 306.033 426.821 305.7 428.888 305.7V312.9C428.021 312.833 427.438 312.8 427.138 312.8C424.905 312.8 423.155 313.433 421.888 314.7C420.621 315.933 419.988 317.8 419.988 320.3V333H412.188V306.1H419.638V309.65ZM450.376 305.7C453.709 305.7 456.392 306.7 458.426 308.7C460.492 310.7 461.526 313.667 461.526 317.6V333H453.726V318.8C453.726 316.667 453.259 315.083 452.326 314.05C451.392 312.983 450.042 312.45 448.276 312.45C446.309 312.45 444.742 313.067 443.576 314.3C442.409 315.5 441.826 317.3 441.826 319.7V333H434.026V306.1H441.476V309.25C442.509 308.117 443.792 307.25 445.326 306.65C446.859 306.017 448.542 305.7 450.376 305.7ZM479.946 305.7C484.113 305.7 487.313 306.7 489.546 308.7C491.779 310.667 492.896 313.65 492.896 317.65V333H485.596V329.65C484.129 332.15 481.396 333.4 477.396 333.4C475.329 333.4 473.529 333.05 471.996 332.35C470.496 331.65 469.346 330.683 468.546 329.45C467.746 328.217 467.346 326.817 467.346 325.25C467.346 322.75 468.279 320.783 470.146 319.35C472.046 317.917 474.963 317.2 478.896 317.2H485.096C485.096 315.5 484.579 314.2 483.546 313.3C482.513 312.367 480.963 311.9 478.896 311.9C477.463 311.9 476.046 312.133 474.646 312.6C473.279 313.033 472.113 313.633 471.146 314.4L468.346 308.95C469.813 307.917 471.563 307.117 473.596 306.55C475.663 305.983 477.779 305.7 479.946 305.7ZM479.346 328.15C480.679 328.15 481.863 327.85 482.896 327.25C483.929 326.617 484.663 325.7 485.096 324.5V321.75H479.746C476.546 321.75 474.946 322.8 474.946 324.9C474.946 325.9 475.329 326.7 476.096 327.3C476.896 327.867 477.979 328.15 479.346 328.15ZM95.95 395.7C95.1833 396.267 94.2333 396.7 93.1 397C92 397.267 90.8333 397.4 89.6 397.4C86.4 397.4 83.9167 396.583 82.15 394.95C80.4167 393.317 79.55 390.917 79.55 387.75V376.7H75.4V370.7H79.55V364.15H87.35V370.7H94.05V376.7H87.35V387.65C87.35 388.783 87.6333 389.667 88.2 390.3C88.8 390.9 89.6333 391.2 90.7 391.2C91.9333 391.2 92.9833 390.867 93.85 390.2L95.95 395.7ZM100.829 370.1H108.629V397H100.829V370.1ZM104.729 366.35C103.295 366.35 102.129 365.933 101.229 365.1C100.329 364.267 99.8785 363.233 99.8785 362C99.8785 360.767 100.329 359.733 101.229 358.9C102.129 358.067 103.295 357.65 104.729 357.65C106.162 357.65 107.329 358.05 108.229 358.85C109.129 359.65 109.579 360.65 109.579 361.85C109.579 363.15 109.129 364.233 108.229 365.1C107.329 365.933 106.162 366.35 104.729 366.35ZM132.718 369.7C136.051 369.7 138.734 370.7 140.768 372.7C142.834 374.7 143.868 377.667 143.868 381.6V397H136.068V382.8C136.068 380.667 135.601 379.083 134.668 378.05C133.734 376.983 132.384 376.45 130.618 376.45C128.651 376.45 127.084 377.067 125.918 378.3C124.751 379.5 124.168 381.3 124.168 383.7V397H116.368V370.1H123.818V373.25C124.851 372.117 126.134 371.25 127.668 370.65C129.201 370.017 130.884 369.7 132.718 369.7ZM164.731 397.4C161.864 397.4 159.281 396.817 156.981 395.65C154.714 394.45 152.931 392.8 151.631 390.7C150.364 388.6 149.731 386.217 149.731 383.55C149.731 380.883 150.364 378.5 151.631 376.4C152.931 374.3 154.714 372.667 156.981 371.5C159.281 370.3 161.864 369.7 164.731 369.7C167.564 369.7 170.031 370.3 172.131 371.5C174.264 372.667 175.814 374.35 176.781 376.55L170.731 379.8C169.331 377.333 167.314 376.1 164.681 376.1C162.648 376.1 160.964 376.767 159.631 378.1C158.298 379.433 157.631 381.25 157.631 383.55C157.631 385.85 158.298 387.667 159.631 389C160.964 390.333 162.648 391 164.681 391C167.348 391 169.364 389.767 170.731 387.3L176.781 390.6C175.814 392.733 174.264 394.4 172.131 395.6C170.031 396.8 167.564 397.4 164.731 397.4ZM181.772 370.1H189.572V397H181.772V370.1ZM185.672 366.35C184.239 366.35 183.072 365.933 182.172 365.1C181.272 364.267 180.822 363.233 180.822 362C180.822 360.767 181.272 359.733 182.172 358.9C183.072 358.067 184.239 357.65 185.672 357.65C187.105 357.65 188.272 358.05 189.172 358.85C190.072 359.65 190.522 360.65 190.522 361.85C190.522 363.15 190.072 364.233 189.172 365.1C188.272 365.933 187.105 366.35 185.672 366.35ZM224.711 359.9V397H217.261V393.9C215.328 396.233 212.528 397.4 208.861 397.4C206.328 397.4 204.028 396.833 201.961 395.7C199.928 394.567 198.328 392.95 197.161 390.85C195.994 388.75 195.411 386.317 195.411 383.55C195.411 380.783 195.994 378.35 197.161 376.25C198.328 374.15 199.928 372.533 201.961 371.4C204.028 370.267 206.328 369.7 208.861 369.7C212.294 369.7 214.978 370.783 216.911 372.95V359.9H224.711ZM210.211 391C212.178 391 213.811 390.333 215.111 389C216.411 387.633 217.061 385.817 217.061 383.55C217.061 381.283 216.411 379.483 215.111 378.15C213.811 376.783 212.178 376.1 210.211 376.1C208.211 376.1 206.561 376.783 205.261 378.15C203.961 379.483 203.311 381.283 203.311 383.55C203.311 385.817 203.961 387.633 205.261 389C206.561 390.333 208.211 391 210.211 391ZM259.53 370.1V397H252.13V393.8C251.097 394.967 249.863 395.867 248.43 396.5C246.997 397.1 245.447 397.4 243.78 397.4C240.247 397.4 237.447 396.383 235.38 394.35C233.313 392.317 232.28 389.3 232.28 385.3V370.1H240.08V384.15C240.08 388.483 241.897 390.65 245.53 390.65C247.397 390.65 248.897 390.05 250.03 388.85C251.163 387.617 251.73 385.8 251.73 383.4V370.1H259.53ZM283.606 369.7C286.94 369.7 289.623 370.7 291.656 372.7C293.723 374.7 294.756 377.667 294.756 381.6V397H286.956V382.8C286.956 380.667 286.49 379.083 285.556 378.05C284.623 376.983 283.273 376.45 281.506 376.45C279.54 376.45 277.973 377.067 276.806 378.3C275.64 379.5 275.056 381.3 275.056 383.7V397H267.256V370.1H274.706V373.25C275.74 372.117 277.023 371.25 278.556 370.65C280.09 370.017 281.773 369.7 283.606 369.7ZM319.677 395.7C318.91 396.267 317.96 396.7 316.827 397C315.727 397.267 314.56 397.4 313.327 397.4C310.127 397.4 307.643 396.583 305.877 394.95C304.143 393.317 303.277 390.917 303.277 387.75V376.7H299.127V370.7H303.277V364.15H311.077V370.7H317.777V376.7H311.077V387.65C311.077 388.783 311.36 389.667 311.927 390.3C312.527 390.9 313.36 391.2 314.427 391.2C315.66 391.2 316.71 390.867 317.577 390.2L319.677 395.7ZM350.065 369.7C354.232 369.7 357.432 370.7 359.665 372.7C361.899 374.667 363.015 377.65 363.015 381.65V397H355.715V393.65C354.249 396.15 351.515 397.4 347.515 397.4C345.449 397.4 343.649 397.05 342.115 396.35C340.615 395.65 339.465 394.683 338.665 393.45C337.865 392.217 337.465 390.817 337.465 389.25C337.465 386.75 338.399 384.783 340.265 383.35C342.165 381.917 345.082 381.2 349.015 381.2H355.215C355.215 379.5 354.699 378.2 353.665 377.3C352.632 376.367 351.082 375.9 349.015 375.9C347.582 375.9 346.165 376.133 344.765 376.6C343.399 377.033 342.232 377.633 341.265 378.4L338.465 372.95C339.932 371.917 341.682 371.117 343.715 370.55C345.782 369.983 347.899 369.7 350.065 369.7ZM349.465 392.15C350.799 392.15 351.982 391.85 353.015 391.25C354.049 390.617 354.782 389.7 355.215 388.5V385.75H349.865C346.665 385.75 345.065 386.8 345.065 388.9C345.065 389.9 345.449 390.7 346.215 391.3C347.015 391.867 348.099 392.15 349.465 392.15ZM405.025 369.7C408.391 369.7 411.058 370.7 413.025 372.7C415.025 374.667 416.025 377.633 416.025 381.6V397H408.225V382.8C408.225 380.667 407.775 379.083 406.875 378.05C406.008 376.983 404.758 376.45 403.125 376.45C401.291 376.45 399.841 377.05 398.775 378.25C397.708 379.417 397.175 381.167 397.175 383.5V397H389.375V382.8C389.375 378.567 387.675 376.45 384.275 376.45C382.475 376.45 381.041 377.05 379.975 378.25C378.908 379.417 378.375 381.167 378.375 383.5V397H370.575V370.1H378.025V373.2C379.025 372.067 380.241 371.2 381.675 370.6C383.141 370 384.741 369.7 386.475 369.7C388.375 369.7 390.091 370.083 391.625 370.85C393.158 371.583 394.391 372.667 395.325 374.1C396.425 372.7 397.808 371.617 399.475 370.85C401.175 370.083 403.025 369.7 405.025 369.7ZM450.159 383.65C450.159 383.75 450.109 384.45 450.009 385.75H429.659C430.026 387.417 430.892 388.733 432.259 389.7C433.626 390.667 435.326 391.15 437.359 391.15C438.759 391.15 439.992 390.95 441.059 390.55C442.159 390.117 443.176 389.45 444.109 388.55L448.259 393.05C445.726 395.95 442.026 397.4 437.159 397.4C434.126 397.4 431.442 396.817 429.109 395.65C426.776 394.45 424.976 392.8 423.709 390.7C422.442 388.6 421.809 386.217 421.809 383.55C421.809 380.917 422.426 378.55 423.659 376.45C424.926 374.317 426.642 372.667 428.809 371.5C431.009 370.3 433.459 369.7 436.159 369.7C438.792 369.7 441.176 370.267 443.309 371.4C445.442 372.533 447.109 374.167 448.309 376.3C449.542 378.4 450.159 380.85 450.159 383.65ZM436.209 375.6C434.442 375.6 432.959 376.1 431.759 377.1C430.559 378.1 429.826 379.467 429.559 381.2H442.809C442.542 379.5 441.809 378.15 440.609 377.15C439.409 376.117 437.942 375.6 436.209 375.6ZM473.202 395.7C472.435 396.267 471.485 396.7 470.352 397C469.252 397.267 468.085 397.4 466.852 397.4C463.652 397.4 461.169 396.583 459.402 394.95C457.669 393.317 456.802 390.917 456.802 387.75V376.7H452.652V370.7H456.802V364.15H464.602V370.7H471.302V376.7H464.602V387.65C464.602 388.783 464.885 389.667 465.452 390.3C466.052 390.9 466.885 391.2 467.952 391.2C469.185 391.2 470.235 390.867 471.102 390.2L473.202 395.7Z" fill="#2F2E44"/>
<path d="M92.97 70.99C92.97 71.05 92.94 71.47 92.88 72.25H80.67C80.89 73.25 81.41 74.04 82.23 74.62C83.05 75.2 84.07 75.49 85.29 75.49C86.13 75.49 86.87 75.37 87.51 75.13C88.17 74.87 88.78 74.47 89.34 73.93L91.83 76.63C90.31 78.37 88.09 79.24 85.17 79.24C83.35 79.24 81.74 78.89 80.34 78.19C78.94 77.47 77.86 76.48 77.1 75.22C76.34 73.96 75.96 72.53 75.96 70.93C75.96 69.35 76.33 67.93 77.07 66.67C77.83 65.39 78.86 64.4 80.16 63.7C81.48 62.98 82.95 62.62 84.57 62.62C86.15 62.62 87.58 62.96 88.86 63.64C90.14 64.32 91.14 65.3 91.86 66.58C92.6 67.84 92.97 69.31 92.97 70.99ZM84.6 66.16C83.54 66.16 82.65 66.46 81.93 67.06C81.21 67.66 80.77 68.48 80.61 69.52H88.56C88.4 68.5 87.96 67.69 87.24 67.09C86.52 66.47 85.64 66.16 84.6 66.16ZM106.196 62.62C108.196 62.62 109.806 63.22 111.026 64.42C112.266 65.62 112.886 67.4 112.886 69.76V79H108.206V70.48C108.206 69.2 107.926 68.25 107.366 67.63C106.806 66.99 105.996 66.67 104.936 66.67C103.756 66.67 102.816 67.04 102.116 67.78C101.416 68.5 101.066 69.58 101.066 71.02V79H96.3858V62.86H100.856V64.75C101.476 64.07 102.246 63.55 103.166 63.19C104.086 62.81 105.096 62.62 106.196 62.62ZM134.254 62.86V76.3C134.254 79.26 133.484 81.46 131.944 82.9C130.404 84.34 128.154 85.06 125.194 85.06C123.634 85.06 122.154 84.87 120.754 84.49C119.354 84.11 118.194 83.56 117.274 82.84L119.134 79.48C119.814 80.04 120.674 80.48 121.714 80.8C122.754 81.14 123.794 81.31 124.834 81.31C126.454 81.31 127.644 80.94 128.404 80.2C129.184 79.48 129.574 78.38 129.574 76.9V76.21C128.354 77.55 126.654 78.22 124.474 78.22C122.994 78.22 121.634 77.9 120.394 77.26C119.174 76.6 118.204 75.68 117.484 74.5C116.764 73.32 116.404 71.96 116.404 70.42C116.404 68.88 116.764 67.52 117.484 66.34C118.204 65.16 119.174 64.25 120.394 63.61C121.634 62.95 122.994 62.62 124.474 62.62C126.814 62.62 128.594 63.39 129.814 64.93V62.86H134.254ZM125.404 74.38C126.644 74.38 127.654 74.02 128.434 73.3C129.234 72.56 129.634 71.6 129.634 70.42C129.634 69.24 129.234 68.29 128.434 67.57C127.654 66.83 126.644 66.46 125.404 66.46C124.164 66.46 123.144 66.83 122.344 67.57C121.544 68.29 121.144 69.24 121.144 70.42C121.144 71.6 121.544 72.56 122.344 73.3C123.144 74.02 124.164 74.38 125.404 74.38ZM138.91 56.74H143.59V79H138.91V56.74ZM148.233 62.86H152.913V79H148.233V62.86ZM150.573 60.61C149.713 60.61 149.013 60.36 148.473 59.86C147.933 59.36 147.663 58.74 147.663 58C147.663 57.26 147.933 56.64 148.473 56.14C149.013 55.64 149.713 55.39 150.573 55.39C151.433 55.39 152.133 55.63 152.673 56.11C153.213 56.59 153.483 57.19 153.483 57.91C153.483 58.69 153.213 59.34 152.673 59.86C152.133 60.36 151.433 60.61 150.573 60.61ZM162.986 79.24C161.646 79.24 160.336 79.08 159.056 78.76C157.776 78.42 156.756 78 155.996 77.5L157.556 74.14C158.276 74.6 159.146 74.98 160.166 75.28C161.186 75.56 162.186 75.7 163.166 75.7C165.146 75.7 166.136 75.21 166.136 74.23C166.136 73.77 165.866 73.44 165.326 73.24C164.786 73.04 163.956 72.87 162.836 72.73C161.516 72.53 160.426 72.3 159.566 72.04C158.706 71.78 157.956 71.32 157.316 70.66C156.696 70 156.386 69.06 156.386 67.84C156.386 66.82 156.676 65.92 157.256 65.14C157.856 64.34 158.716 63.72 159.836 63.28C160.976 62.84 162.316 62.62 163.856 62.62C164.996 62.62 166.126 62.75 167.246 63.01C168.386 63.25 169.326 63.59 170.066 64.03L168.506 67.36C167.086 66.56 165.536 66.16 163.856 66.16C162.856 66.16 162.106 66.3 161.606 66.58C161.106 66.86 160.856 67.22 160.856 67.66C160.856 68.16 161.126 68.51 161.666 68.71C162.206 68.91 163.066 69.1 164.246 69.28C165.566 69.5 166.646 69.74 167.486 70C168.326 70.24 169.056 70.69 169.676 71.35C170.296 72.01 170.606 72.93 170.606 74.11C170.606 75.11 170.306 76 169.706 76.78C169.106 77.56 168.226 78.17 167.066 78.61C165.926 79.03 164.566 79.24 162.986 79.24ZM183.604 62.62C185.604 62.62 187.214 63.22 188.434 64.42C189.674 65.62 190.294 67.4 190.294 69.76V79H185.614V70.48C185.614 69.2 185.334 68.25 184.774 67.63C184.214 66.99 183.404 66.67 182.344 66.67C181.164 66.67 180.224 67.04 179.524 67.78C178.824 68.5 178.474 69.58 178.474 71.02V79H173.794V56.74H178.474V64.54C179.094 63.92 179.844 63.45 180.724 63.13C181.604 62.79 182.564 62.62 183.604 62.62ZM204.646 62.62C206.646 62.62 208.256 63.22 209.476 64.42C210.716 65.62 211.336 67.4 211.336 69.76V79H206.656V70.48C206.656 69.2 206.376 68.25 205.816 67.63C205.256 66.99 204.446 66.67 203.386 66.67C202.206 66.67 201.266 67.04 200.566 67.78C199.866 68.5 199.516 69.58 199.516 71.02V79H194.836V62.86H199.306V64.75C199.926 64.07 200.696 63.55 201.616 63.19C202.536 62.81 203.546 62.62 204.646 62.62ZM231.864 70.99C231.864 71.05 231.834 71.47 231.774 72.25H219.564C219.784 73.25 220.304 74.04 221.124 74.62C221.944 75.2 222.964 75.49 224.184 75.49C225.024 75.49 225.764 75.37 226.404 75.13C227.064 74.87 227.674 74.47 228.234 73.93L230.724 76.63C229.204 78.37 226.984 79.24 224.064 79.24C222.244 79.24 220.634 78.89 219.234 78.19C217.834 77.47 216.754 76.48 215.994 75.22C215.234 73.96 214.854 72.53 214.854 70.93C214.854 69.35 215.224 67.93 215.964 66.67C216.724 65.39 217.754 64.4 219.054 63.7C220.374 62.98 221.844 62.62 223.464 62.62C225.044 62.62 226.474 62.96 227.754 63.64C229.034 64.32 230.034 65.3 230.754 66.58C231.494 67.84 231.864 69.31 231.864 70.99ZM223.494 66.16C222.434 66.16 221.544 66.46 220.824 67.06C220.104 67.66 219.664 68.48 219.504 69.52H227.454C227.294 68.5 226.854 67.69 226.134 67.09C225.414 66.47 224.534 66.16 223.494 66.16ZM239.75 64.99C240.31 64.21 241.06 63.62 242 63.22C242.96 62.82 244.06 62.62 245.3 62.62V66.94C244.78 66.9 244.43 66.88 244.25 66.88C242.91 66.88 241.86 67.26 241.1 68.02C240.34 68.76 239.96 69.88 239.96 71.38V79H235.28V62.86H239.75V64.99ZM264.676 56.74V79H260.206V77.14C259.046 78.54 257.366 79.24 255.166 79.24C253.646 79.24 252.266 78.9 251.026 78.22C249.806 77.54 248.846 76.57 248.146 75.31C247.446 74.05 247.096 72.59 247.096 70.93C247.096 69.27 247.446 67.81 248.146 66.55C248.846 65.29 249.806 64.32 251.026 63.64C252.266 62.96 253.646 62.62 255.166 62.62C257.226 62.62 258.836 63.27 259.996 64.57V56.74H264.676ZM255.976 75.4C257.156 75.4 258.136 75 258.916 74.2C259.696 73.38 260.086 72.29 260.086 70.93C260.086 69.57 259.696 68.49 258.916 67.69C258.136 66.87 257.156 66.46 255.976 66.46C254.776 66.46 253.786 66.87 253.006 67.69C252.226 68.49 251.836 69.57 251.836 70.93C251.836 72.29 252.226 73.38 253.006 74.2C253.786 75 254.776 75.4 255.976 75.4ZM271.078 79.24C270.258 79.24 269.568 78.96 269.008 78.4C268.448 77.84 268.168 77.14 268.168 76.3C268.168 75.44 268.448 74.75 269.008 74.23C269.568 73.69 270.258 73.42 271.078 73.42C271.898 73.42 272.588 73.69 273.148 74.23C273.708 74.75 273.988 75.44 273.988 76.3C273.988 77.14 273.708 77.84 273.148 78.4C272.588 78.96 271.898 79.24 271.078 79.24ZM284.934 79.24C283.234 79.24 281.704 78.89 280.344 78.19C279.004 77.47 277.954 76.48 277.194 75.22C276.434 73.96 276.054 72.53 276.054 70.93C276.054 69.33 276.434 67.9 277.194 66.64C277.954 65.38 279.004 64.4 280.344 63.7C281.704 62.98 283.234 62.62 284.934 62.62C286.634 62.62 288.154 62.98 289.494 63.7C290.834 64.4 291.884 65.38 292.644 66.64C293.404 67.9 293.784 69.33 293.784 70.93C293.784 72.53 293.404 73.96 292.644 75.22C291.884 76.48 290.834 77.47 289.494 78.19C288.154 78.89 286.634 79.24 284.934 79.24ZM284.934 75.4C286.134 75.4 287.114 75 287.874 74.2C288.654 73.38 289.044 72.29 289.044 70.93C289.044 69.57 288.654 68.49 287.874 67.69C287.114 66.87 286.134 66.46 284.934 66.46C283.734 66.46 282.744 66.87 281.964 67.69C281.184 68.49 280.794 69.57 280.794 70.93C280.794 72.29 281.184 73.38 281.964 74.2C282.744 75 283.734 75.4 284.934 75.4ZM301.682 64.99C302.242 64.21 302.992 63.62 303.932 63.22C304.892 62.82 305.992 62.62 307.232 62.62V66.94C306.712 66.9 306.362 66.88 306.182 66.88C304.842 66.88 303.792 67.26 303.032 68.02C302.272 68.76 301.892 69.88 301.892 71.38V79H297.212V62.86H301.682V64.99ZM326.819 62.86V76.3C326.819 79.26 326.049 81.46 324.509 82.9C322.969 84.34 320.719 85.06 317.759 85.06C316.199 85.06 314.719 84.87 313.319 84.49C311.919 84.11 310.759 83.56 309.839 82.84L311.699 79.48C312.379 80.04 313.239 80.48 314.279 80.8C315.319 81.14 316.359 81.31 317.399 81.31C319.019 81.31 320.209 80.94 320.969 80.2C321.749 79.48 322.139 78.38 322.139 76.9V76.21C320.919 77.55 319.219 78.22 317.039 78.22C315.559 78.22 314.199 77.9 312.959 77.26C311.739 76.6 310.769 75.68 310.049 74.5C309.329 73.32 308.969 71.96 308.969 70.42C308.969 68.88 309.329 67.52 310.049 66.34C310.769 65.16 311.739 64.25 312.959 63.61C314.199 62.95 315.559 62.62 317.039 62.62C319.379 62.62 321.159 63.39 322.379 64.93V62.86H326.819ZM317.969 74.38C319.209 74.38 320.219 74.02 320.999 73.3C321.799 72.56 322.199 71.6 322.199 70.42C322.199 69.24 321.799 68.29 320.999 67.57C320.219 66.83 319.209 66.46 317.969 66.46C316.729 66.46 315.709 66.83 314.909 67.57C314.109 68.29 313.709 69.24 313.709 70.42C313.709 71.6 314.109 72.56 314.909 73.3C315.709 74.02 316.729 74.38 317.969 74.38Z" fill="#848499"/>
<g filter="url(#filter0_d)">
<path fill-rule="evenodd" clip-rule="evenodd" d="M971.33 264.33L1236.5 529.495C1382.94 383.049 1382.94 145.612 1236.5 -0.834927L971.33 264.33Z" fill="#F9A922"/>
<path fill-rule="evenodd" clip-rule="evenodd" d="M971.33 264.33L1236.5 -0.835004C1090.05 -147.282 852.612 -147.282 706.165 -0.834928L971.33 264.33Z" fill="#F9B33C"/>
<path fill-rule="evenodd" clip-rule="evenodd" d="M971.33 264.33L706.165 -0.83496C559.718 145.612 559.718 383.049 706.165 529.495L971.33 264.33Z" fill="#F9BC55"/>
<path fill-rule="evenodd" clip-rule="evenodd" d="M971.33 264.33L706.165 529.495C852.612 675.942 1090.05 675.942 1236.5 529.495L971.33 264.33Z" fill="#F9C56E"/>
<circle cx="971.33" cy="264.33" r="375" transform="rotate(-45 971.33 264.33)" fill="url(#paint0_linear)"/>
</g>
<g clip-path="url(#clip1)" filter="url(#filter1_d)">
<path d="M1087.53 440.576L951.208 474.993L971.453 452.048L982.925 437.876L1102.37 414.257L1107.77 418.981L1087.53 440.576Z" fill="#535461"/>
<path d="M1107.77 418.98L973.478 450.023L972.803 417.631L1011.27 402.784L1088.2 389.962H1110.47L1107.77 418.98Z" fill="#D6D6E3"/>
<path d="M1010.59 235.422L873.6 244.195V218.551L883.048 161.189L887.772 157.14L1024.77 161.189L1010.59 235.422Z" fill="#D6D6E3"/>
<path d="M1042.99 106.526H1049.74L1051.08 155.79L1028.81 163.888L1015.32 234.747L1076.73 360.269L1113.85 389.287V416.956L1091.58 439.226L1090.23 541.128L1083.48 542.477L1084.83 441.25L1107.1 417.631L1107.77 389.287L1072.01 360.944L1009.24 235.422L1022.74 163.888L1045.01 154.44L1042.99 106.526Z" fill="#D6D6E3"/>
<path d="M1048.39 106.526H1055.13L1056.48 155.79L1034.21 163.888L1020.72 234.747L1082.13 360.269L1119.24 389.287V416.956L1096.97 439.226L1095.62 541.128L1088.88 542.477L1090.23 441.25L1112.5 417.631L1113.17 389.287L1076.05 360.944L1014.64 235.422L1028.14 163.888L1050.41 154.44L1048.39 106.526Z" fill="#535461"/>
<path d="M1048.72 150.728L1045.35 155.452L1026.45 164.225L876.637 160.176L891.146 155.79L906.668 149.041L904.643 143.643L1048.72 150.728Z" fill="#A8A8A8"/>
<path d="M1074.03 362.968L937.036 385.238L909.367 326.526L871.576 242.17L1010.59 235.422L1074.03 362.968Z" fill="#6C63FF"/>
<g opacity="0.1">
<path opacity="0.1" d="M1003.17 259.717L910.717 267.14L958.631 361.619L1048.39 348.122L1003.17 259.717Z" fill="white"/>
</g>
<g opacity="0.1">
<path opacity="0.1" d="M996.793 266.58L992.711 266.911L994.823 271.075L998.784 270.481L996.793 266.58Z" fill="white"/>
</g>
<g opacity="0.1">
<path opacity="0.1" d="M996.119 305.721L992.036 306.051L994.148 310.215L998.109 309.621L996.119 305.721Z" fill="white"/>
</g>
<g opacity="0.1">
<path opacity="0.1" d="M973.849 271.304L969.766 271.634L971.878 275.798L975.839 275.204L973.849 271.304Z" fill="white"/>
</g>
<g opacity="0.1">
<path opacity="0.1" d="M931.333 273.328L927.251 273.659L929.363 277.823L933.324 277.229L931.333 273.328Z" fill="white"/>
</g>
<g opacity="0.1">
<path opacity="0.1" d="M988.695 278.727L984.612 279.057L986.725 283.221L990.686 282.627L988.695 278.727Z" fill="white"/>
</g>
<g opacity="0.1">
<path opacity="0.1" d="M973.849 319.893L969.766 320.223L971.878 324.387L975.839 323.793L973.849 319.893Z" fill="white"/>
</g>
<g opacity="0.1">
<path opacity="0.1" d="M1010.29 296.273L1006.21 296.604L1008.32 300.768L1012.28 300.174L1010.29 296.273Z" fill="white"/>
</g>
<g opacity="0.1">
<path opacity="0.1" d="M948.205 271.304L944.122 271.634L946.234 275.798L950.195 275.204L948.205 271.304Z" fill="white"/>
</g>
<g opacity="0.1">
<path opacity="0.1" d="M980.597 294.248L976.514 294.579L978.627 298.743L982.588 298.149L980.597 294.248Z" fill="white"/>
</g>
<g opacity="0.1">
<path opacity="0.1" d="M985.321 268.604L981.238 268.935L983.351 273.099L987.312 272.505L985.321 268.604Z" fill="white"/>
</g>
<g opacity="0.1">
<path opacity="0.1" d="M964.401 292.224L960.318 292.554L962.43 296.718L966.392 296.124L964.401 292.224Z" fill="white"/>
</g>
<g opacity="0.1">
<path opacity="0.1" d="M959.677 271.304L955.594 271.634L957.706 275.798L961.668 275.204L959.677 271.304Z" fill="white"/>
</g>
<g opacity="0.1">
<path opacity="0.1" d="M1002.19 280.752L998.109 281.083L1000.22 285.246L1004.18 284.653L1002.19 280.752Z" fill="white"/>
</g>
<path d="M1110.47 389.962L976.852 416.956L940.046 384.752L1073.69 361.956L1110.47 389.962Z" fill="#D6D6E3"/>
<path d="M1085.5 437.201V542.477L953.232 588.367L951.208 479.042L956.606 468.872L980.901 462.845L1085.5 437.201Z" fill="#535461"/>
<path d="M1068.29 375.116C1065.13 375.116 1062.56 373.605 1062.56 371.741C1062.56 369.878 1065.13 368.367 1068.29 368.367C1071.46 368.367 1074.03 369.878 1074.03 371.741C1074.03 373.605 1071.46 375.116 1068.29 375.116Z" fill="#575988"/>
<path d="M1063.57 382.539C1060.4 382.539 1057.83 381.028 1057.83 379.164C1057.83 377.301 1060.4 375.79 1063.57 375.79C1066.74 375.79 1069.31 377.301 1069.31 379.164C1069.31 381.028 1066.74 382.539 1063.57 382.539Z" fill="#FA595F"/>
<path d="M1079.77 380.514C1076.6 380.514 1074.03 379.003 1074.03 377.14C1074.03 375.276 1076.6 373.766 1079.77 373.766C1082.93 373.766 1085.5 375.276 1085.5 377.14C1085.5 379.003 1082.93 380.514 1079.77 380.514Z" fill="#FFD037"/>
<path d="M1006.88 387.262C1003.71 387.262 1001.15 385.751 1001.15 383.888C1001.15 382.024 1003.71 380.514 1006.88 380.514C1010.05 380.514 1012.62 382.024 1012.62 383.888C1012.62 385.751 1010.05 387.262 1006.88 387.262Z" fill="#575988"/>
<path d="M1018.35 393.336C1015.19 393.336 1012.62 391.826 1012.62 389.962C1012.62 388.099 1015.19 386.588 1018.35 386.588C1021.52 386.588 1024.09 388.099 1024.09 389.962C1024.09 391.826 1021.52 393.336 1018.35 393.336Z" fill="#FFD037"/>
<path d="M1039.95 383.888C1035.29 383.888 1031.51 382.075 1031.51 379.839C1031.51 377.603 1035.29 375.79 1039.95 375.79C1044.61 375.79 1048.39 377.603 1048.39 379.839C1048.39 382.075 1044.61 383.888 1039.95 383.888Z" fill="#A8A8A8"/>
<path d="M1000.81 394.686C997.641 394.686 995.073 393.175 995.073 391.312C995.073 389.448 997.641 387.938 1000.81 387.938C1003.98 387.938 1006.54 389.448 1006.54 391.312C1006.54 393.175 1003.98 394.686 1000.81 394.686Z" fill="#FA595F"/>
<path d="M1037.59 379.171H1041.64L1045.12 365.728C1045.27 365.162 1045.28 364.571 1045.16 363.999C1045.04 363.427 1044.8 362.889 1044.44 362.427C1044.08 361.965 1043.62 361.591 1043.1 361.334C1042.57 361.077 1042 360.943 1041.41 360.943C1040.4 360.943 1039.43 361.346 1038.71 362.064C1037.99 362.782 1037.59 363.755 1037.59 364.77V379.171Z" fill="#A8A8A8"/>
<path d="M979.214 394.686C974.555 394.686 970.778 392.873 970.778 390.637C970.778 388.401 974.555 386.588 979.214 386.588C983.873 386.588 987.649 388.401 987.649 390.637C987.649 392.873 983.873 394.686 979.214 394.686Z" fill="#A8A8A8"/>
<path d="M976.852 389.969H980.901L984.383 376.526C984.529 375.96 984.544 375.369 984.426 374.797C984.309 374.224 984.062 373.687 983.704 373.225C983.346 372.763 982.888 372.389 982.363 372.132C981.839 371.875 981.262 371.741 980.678 371.741C979.663 371.741 978.69 372.144 977.972 372.862C977.255 373.58 976.852 374.553 976.852 375.568V389.969Z" fill="#A8A8A8"/>
<path d="M1043.66 106.526L904.643 95.0537L908.017 145.667L1047.04 152.416L1043.66 106.526Z" fill="#535461"/>
<path d="M905.318 95.0537L841.208 99.7776L849.981 528.98L948.171 592.078L954.919 587.354L955.257 474.992L976.852 450.698V416.956L939.06 383.888L874.95 241.495L884.06 160.176H879.336L909.367 149.716L905.318 95.0537Z" fill="#D6D6E3"/>
<path d="M899.244 95.7285L834.459 99.7776L843.232 528.98L948.508 591.741V474.992L970.103 450.698V416.956L932.312 383.888L868.201 241.495L879.674 159.839L902.619 149.716L899.244 95.7285Z" fill="#535461"/>
<path d="M1013.22 355.747C1022.67 375.318 1045.92 370.243 1045.92 370.243C1047.12 369.13 1054.64 367.267 1060.34 365.978C1064 365.148 1066.91 364.568 1066.91 364.568L1058.93 353.439L1052.94 354.668L1044.01 356.503C1044.01 356.503 1003.74 336.184 1013.22 355.747Z" fill="url(#paint1_linear)"/>
<g opacity="0.08">
<path opacity="0.08" d="M1013.22 355.747C1022.67 375.318 1045.92 370.243 1045.92 370.243C1047.12 369.13 1054.64 367.267 1060.34 365.978C1064 365.148 1066.91 364.568 1066.91 364.568L1058.93 353.439L1052.94 354.668L1044.01 356.503C1044.01 356.503 1003.74 336.184 1013.22 355.747Z" fill="url(#paint2_linear)"/>
</g>
<g opacity="0.1">
<path opacity="0.1" d="M1052.93 354.668L1060.36 365.985C1064.01 365.155 1066.92 364.575 1066.92 364.575L1058.94 353.446L1052.93 354.668Z" fill="url(#paint3_linear)"/>
</g>
<path d="M1135.93 314.217C1135.93 314.217 1101.12 368.603 1063.86 368.474L1053.74 352.953C1053.74 352.953 1087.84 328.591 1092.38 315.89C1094.05 311.166 1097.51 304.695 1101.19 298.344C1112.51 278.889 1143.03 291.596 1136.32 312.975C1136.19 313.398 1136.06 313.812 1135.93 314.217Z" fill="url(#paint4_linear)"/>
<g opacity="0.05">
<path opacity="0.05" d="M1135.93 314.217C1135.93 314.217 1101.12 368.603 1063.86 368.474L1053.74 352.953C1053.74 352.953 1087.84 328.591 1092.38 315.89C1094.05 311.166 1097.51 304.695 1101.19 298.344C1112.51 278.889 1143.03 291.596 1136.32 312.975C1136.19 313.398 1136.06 313.812 1135.93 314.217Z" fill="url(#paint5_linear)"/>
</g>
<g opacity="0.1">
<path opacity="0.1" d="M1066.59 433.996C1074.41 435.501 1088.24 438.079 1102.4 440.319C1109.82 441.493 1117.33 442.573 1124.12 443.356C1134.56 444.564 1143.3 445.07 1147.35 444.125L1148.31 429.953L1108.16 412.198L1105.27 426.316H1066.61C1066.61 426.316 1066.61 429.258 1066.59 433.996Z" fill="url(#paint6_linear)"/>
</g>
<g opacity="0.1">
<path opacity="0.1" d="M1074.53 382.322C1103.16 364.898 1117.97 316.147 1117.97 316.147C1117.97 315.722 1117.97 315.303 1118.02 314.892C1118.66 292.534 1085.74 288.228 1080.15 309.925C1078.34 316.99 1076.78 324.157 1076.45 329.111C1076.28 330.933 1075.86 332.724 1075.2 334.435C1074.77 343.656 1074.87 352.894 1075.49 362.104C1075.92 368.858 1075.6 375.64 1074.53 382.322Z" fill="url(#paint7_linear)"/>
</g>
<g opacity="0.1">
<path opacity="0.1" d="M1116.8 242.157C1112.15 249.857 1108.46 257.611 1099.01 258.927C1094.36 253.037 1088.97 247.782 1082.96 243.297L1113.33 229.18C1113.33 229.18 1111.54 233.998 1116.8 242.157Z" fill="url(#paint8_linear)"/>
</g>
<path d="M1093.22 256.491C1076.2 256.491 1062.41 243.036 1062.41 226.44C1062.41 209.843 1076.2 196.389 1093.22 196.389C1110.24 196.389 1124.04 209.843 1124.04 226.44C1124.04 243.036 1110.24 256.491 1093.22 256.491Z" fill="url(#paint9_linear)"/>
<g opacity="0.1">
<path opacity="0.1" d="M1062.77 235.867C1061.49 235.922 1060.23 235.587 1059.15 234.909C1057.67 233.836 1057.2 231.913 1056.86 230.144C1056.06 225.967 1055.43 221.567 1056.86 217.545C1057.79 214.886 1059.56 212.585 1060.8 210.061C1063.57 204.548 1064.06 197.914 1068.01 193.129C1070.47 190.133 1079.13 193.129 1082.75 191.617C1090.52 188.351 1093.9 181.724 1102.37 181.731C1105.47 181.655 1108.57 182.042 1111.56 182.878C1115.34 184.046 1118.69 186.252 1121.8 188.675C1127.2 192.873 1132.49 198.636 1132.01 205.371C1131.7 209.67 1129.08 213.469 1127.53 217.478C1124.94 224.226 1125.41 231.811 1127.28 238.803C1128.08 241.779 1128.99 245.335 1126.88 247.61C1125.53 249.033 1123.39 249.438 1121.48 249.128C1119.57 248.706 1117.75 247.976 1116.08 246.968C1113.04 245.356 1109.97 243.716 1107.51 241.347C1105.88 239.781 1104.57 237.932 1103.03 236.292C1100 233.156 1096.58 230.434 1092.84 228.194C1089.85 226.399 1086.76 227.519 1083.63 228.687C1076.73 231.217 1070.35 236.002 1062.77 235.867Z" fill="url(#paint10_linear)"/>
</g>
<g opacity="0.05">
<path opacity="0.05" d="M1074.53 382.322C1075.6 375.651 1075.92 368.881 1075.49 362.138C1074.87 352.928 1074.77 343.69 1075.2 334.469C1075.62 323.671 1076.47 312.989 1077.29 304.506C1078.5 291.7 1084.63 279.862 1094.38 271.479C1096.55 269.623 1098.48 268.253 1099.78 267.916C1101.41 267.484 1103.4 266.188 1105.37 264.616C1112 259.331 1103.57 269.623 1101.41 271.479C1091.65 279.862 1085.53 291.7 1084.31 304.506C1083.5 312.989 1082.65 323.671 1082.23 334.469C1081.8 343.69 1081.89 352.928 1082.51 362.138C1082.95 368.881 1082.62 375.651 1081.55 382.322C1077.92 406.907 1067.11 431.35 1067.11 431.35C1067.11 431.35 1119.92 442.019 1144.5 443.153C1125.24 444.503 1060.11 431.35 1060.11 431.35C1060.11 431.35 1070.9 406.893 1074.53 382.322Z" fill="url(#paint11_linear)"/>
</g>
<path d="M1010.13 386.729C1024.6 403.121 1045.6 392.195 1045.6 392.195C1046.46 390.805 1053.2 387.06 1058.33 384.333C1061.63 382.586 1064.28 381.263 1064.28 381.263L1053.54 372.611L1048.11 375.351L1040.01 379.441C1040.01 379.441 995.639 370.337 1010.13 386.729Z" fill="url(#paint12_linear)"/>
<g opacity="0.1">
<path opacity="0.1" d="M1048.11 375.351L1058.33 384.333C1061.63 382.586 1064.28 381.263 1064.28 381.263L1053.54 372.611L1048.11 375.351Z" fill="url(#paint13_linear)"/>
</g>
<path d="M1117.03 314.784C1117.03 314.784 1098.36 376.255 1062.41 385.818L1048.41 373.522C1048.41 373.522 1074.6 341.17 1075.51 327.747C1075.84 322.787 1077.4 315.6 1079.21 308.562C1084.8 286.872 1117.72 291.171 1117.08 313.528C1117.06 313.942 1117.05 314.361 1117.03 314.784Z" fill="url(#paint14_linear)"/>
<path opacity="0.05" d="M1153.21 374.663C1153.21 374.663 1141.06 365.1 1129.87 372.389C1118.67 379.677 1102.33 378.766 1099.99 379.218" fill="url(#paint15_linear)"/>
<path d="M1016.71 354.748C1025.72 373.833 1047.84 368.92 1047.84 368.92C1048.99 367.834 1056.14 366.018 1061.56 364.763C1065.04 363.953 1067.81 363.413 1067.81 363.413L1060.21 352.555L1054.51 353.756L1046.02 355.545C1046.02 355.545 1007.71 335.657 1016.71 354.748Z" fill="#F7C4A7"/>
<path opacity="0.08" d="M1016.71 354.748C1025.72 373.833 1047.84 368.92 1047.84 368.92C1048.99 367.834 1056.14 366.018 1061.56 364.763C1065.04 363.953 1067.81 363.413 1067.81 363.413L1060.21 352.555L1054.51 353.756L1046.02 355.545C1046.02 355.545 1007.71 335.657 1016.71 354.748Z" fill="black"/>
<path opacity="0.1" d="M1054.51 353.689L1061.56 364.729C1065.04 363.92 1067.81 363.38 1067.81 363.38L1060.21 352.521L1054.51 353.689Z" fill="black"/>
<path d="M1133.49 314.224C1133.49 314.224 1100.37 367.294 1064.91 367.159L1055.27 352.042C1055.27 352.042 1087.72 328.274 1092.04 315.877C1093.63 311.302 1096.92 304.958 1100.42 298.777C1111.22 279.8 1140.24 292.197 1133.86 313.056C1133.74 313.439 1133.62 313.828 1133.49 314.224Z" fill="#575988"/>
<path opacity="0.05" d="M1133.49 314.224C1133.49 314.224 1100.37 367.294 1064.91 367.159L1055.27 352.042C1055.27 352.042 1087.72 328.274 1092.04 315.877C1093.63 311.302 1096.92 304.958 1100.42 298.777C1111.22 279.8 1140.24 292.197 1133.86 313.056C1133.74 313.439 1133.62 313.828 1133.49 314.224Z" fill="black"/>
<path d="M1155.05 622.663L1153.5 641.099C1153.5 641.099 1102.63 632.434 1103.08 615.111C1103.52 597.788 1155.05 622.663 1155.05 622.663Z" fill="#535461"/>
<path opacity="0.1" d="M1155.05 622.663L1153.5 641.099C1153.5 641.099 1102.63 632.434 1103.08 615.111C1103.52 597.788 1155.05 622.663 1155.05 622.663Z" fill="black"/>
<path d="M1095.52 628.439L1096.41 644.44C1096.41 644.44 1025.76 639.108 1028.43 624.005C1031.1 608.902 1068.41 617.338 1068.41 617.338L1095.52 628.439Z" fill="#535461"/>
<path d="M1094.63 472.05C1094.63 472.05 1098.81 483.887 1104.14 497.478C1109.24 510.476 1115.4 525.086 1119.96 532.469C1129.26 547.579 1130.61 594.224 1130.61 594.224C1132.38 601.776 1123.5 616.44 1123.5 616.44C1141.27 635.545 1157.71 624.437 1157.71 624.437C1154.6 618.661 1159.93 602.221 1159.93 602.221C1159.93 602.221 1152.82 526.247 1148.38 522.697C1143.93 519.148 1140.39 501.372 1140.39 501.372L1144.36 440.98L1145.27 427.18L1107.06 409.85L1104.29 423.623L1101.59 437.262L1094.63 472.05Z" fill="#6A5C99"/>
<path opacity="0.1" d="M1094.63 472.05C1094.63 472.05 1098.81 483.887 1104.14 497.478C1109.24 510.476 1115.4 525.086 1119.96 532.469C1129.26 547.579 1130.61 594.224 1130.61 594.224C1132.38 601.776 1123.5 616.44 1123.5 616.44C1141.27 635.545 1157.71 624.437 1157.71 624.437C1154.6 618.661 1159.93 602.221 1159.93 602.221C1159.93 602.221 1152.82 526.247 1148.38 522.697C1143.93 519.148 1140.39 501.372 1140.39 501.372L1144.36 440.98L1145.27 427.18L1107.06 409.85L1104.29 423.623L1101.59 437.262L1094.63 472.05Z" fill="black"/>
<path d="M1061.31 619.106C1069.31 633.325 1097.3 631.543 1097.3 631.543V589.777C1097.3 589.777 1105.3 543.125 1100.85 532.462C1096.41 521.8 1102.63 502.249 1102.63 502.249L1104.14 497.471L1122.26 440.217L1127.51 423.616H1067.53C1067.53 423.616 1067.53 426.457 1067.53 431.087C1067.46 448.855 1067.09 492.923 1065.32 503.147C1063.1 516.03 1069.33 524.472 1069.33 524.472C1069.33 524.472 1065.77 576.894 1068.88 593.306C1071.99 609.719 1061.31 619.106 1061.31 619.106Z" fill="#6A5C99"/>
<path d="M1110.63 228.586C1110.63 228.586 1119.96 254.352 1138.62 263.678C1157.28 273.004 1107.96 275.677 1107.96 275.677C1107.96 275.677 1099.96 256.106 1081.75 242.353L1110.63 228.586Z" fill="#F7C4A7"/>
<path opacity="0.1" d="M1067.51 431.094C1074.95 432.538 1088.09 435.075 1101.59 437.262C1108.65 438.409 1115.8 439.462 1122.26 440.224C1132.2 441.399 1140.52 441.898 1144.38 440.973L1145.29 427.173L1107.08 409.843L1104.29 423.623H1067.5C1067.5 423.623 1067.53 426.464 1067.51 431.094Z" fill="black"/>
<path d="M1061.31 428.489C1061.31 428.489 1136.39 444.01 1145.72 439.151C1155.04 434.292 1157.27 421.821 1154.61 408.054C1151.94 394.288 1154.61 360.073 1159.49 316.532C1161.96 294.606 1156.53 279.894 1150.54 270.683C1147.96 266.739 1144.43 263.501 1140.28 261.262C1136.14 259.023 1131.5 257.854 1126.78 257.861C1118.63 257.832 1110.72 260.619 1104.39 265.75C1102.51 267.281 1100.62 268.543 1099.07 268.969C1097.85 269.299 1096.02 270.635 1093.96 272.444C1084.62 280.718 1078.8 292.245 1077.69 304.668C1076.91 312.942 1076.1 323.368 1075.7 333.909C1075.29 342.905 1075.38 351.917 1075.97 360.903C1076.38 367.48 1076.07 374.083 1075.06 380.595C1071.61 404.66 1061.31 428.489 1061.31 428.489Z" fill="#575988"/>
<path opacity="0.1" d="M1075.06 380.676C1102.31 363.676 1116.4 316.107 1116.4 316.107C1116.4 315.695 1116.4 315.283 1116.45 314.885C1117.06 293.074 1085.73 288.87 1080.41 310.04C1078.69 316.937 1077.21 323.921 1076.9 328.76C1076.73 330.536 1076.33 332.283 1075.71 333.956C1075.3 342.952 1075.39 351.964 1075.97 360.95C1076.39 367.539 1076.08 374.153 1075.06 380.676Z" fill="black"/>
<path opacity="0.1" d="M1115.29 243.912C1110.86 251.423 1107.35 258.995 1098.35 260.27C1093.95 254.54 1088.82 249.412 1083.08 245.019L1111.96 231.245C1111.96 231.245 1110.29 235.956 1115.29 243.912Z" fill="black"/>
<path d="M1092.85 257.908C1076.66 257.908 1063.53 244.78 1063.53 228.586C1063.53 212.392 1076.66 199.264 1092.85 199.264C1109.05 199.264 1122.17 212.392 1122.17 228.586C1122.17 244.78 1109.05 257.908 1092.85 257.908Z" fill="#F7C4A7"/>
<path opacity="0.1" d="M1063.87 237.778C1062.65 237.827 1061.45 237.497 1060.42 236.833C1059.02 235.787 1058.57 233.904 1058.25 232.183C1057.49 228.134 1056.9 223.815 1058.25 219.888C1059.13 217.29 1060.8 215.049 1062 212.586C1064.64 207.187 1065.11 200.736 1068.86 196.066C1071.21 193.144 1079.44 196.066 1082.89 194.588C1090.31 191.402 1093.5 184.937 1101.56 184.944C1104.52 184.868 1107.48 185.246 1110.33 186.064C1113.93 187.198 1117.12 189.371 1120.07 191.72C1125.23 195.816 1130.25 201.437 1129.79 208.01C1129.5 212.208 1127 215.879 1125.53 219.82C1123.06 226.42 1123.5 233.81 1125.29 240.626C1126.05 243.528 1126.92 246.996 1124.91 249.223C1123.65 250.607 1121.59 251.012 1119.74 250.701C1117.92 250.291 1116.17 249.579 1114.58 248.596C1111.69 247.023 1108.76 245.424 1106.43 243.116C1104.88 241.584 1103.64 239.782 1102.16 238.183C1099.3 235.131 1096.03 232.474 1092.47 230.28C1089.62 228.532 1086.7 229.605 1083.69 230.759C1077.15 233.243 1071.09 237.913 1063.87 237.778Z" fill="black"/>
<path d="M1064.31 237.332C1063.1 237.385 1061.89 237.06 1060.87 236.401C1059.47 235.355 1059.01 233.472 1058.7 231.751C1057.93 227.702 1057.35 223.383 1058.7 219.456C1059.57 216.857 1061.24 214.617 1062.45 212.154C1065.09 206.755 1065.55 200.303 1069.31 195.634C1071.65 192.711 1079.43 196.086 1082.89 194.601C1090.31 191.416 1093.94 184.478 1102 184.478C1104.97 184.402 1107.92 184.78 1110.77 185.599C1114.38 186.732 1117.56 188.905 1120.52 191.254C1125.68 195.35 1130.7 200.972 1130.24 207.545C1129.94 211.742 1127.44 215.413 1125.97 219.354C1123.5 225.954 1123.95 233.344 1125.74 240.16C1126.49 243.062 1127.36 246.53 1125.35 248.757C1124.1 250.141 1122.03 250.546 1120.19 250.235C1118.36 249.825 1116.62 249.113 1115.03 248.13C1112.14 246.557 1109.21 244.958 1106.87 242.65C1105.33 241.118 1104.08 239.316 1102.61 237.717C1099.71 234.668 1096.42 232.02 1092.82 229.841C1089.97 228.094 1087.05 229.167 1084.04 230.321C1077.6 232.784 1071.53 237.467 1064.31 237.332Z" fill="#632652"/>
<path opacity="0.05" d="M1075.06 380.676C1076.07 374.17 1076.37 367.574 1075.95 361.004C1075.36 352.018 1075.27 343.006 1075.68 334.01C1076.08 323.469 1076.89 313.05 1077.67 304.769C1078.78 292.346 1084.6 280.82 1093.94 272.545C1096 270.73 1097.83 269.4 1099.05 269.07C1100.6 268.645 1102.49 267.383 1104.37 265.851C1110.68 260.695 1102.66 270.737 1100.6 272.545C1091.27 280.82 1085.45 292.346 1084.33 304.769C1083.55 313.043 1082.74 323.469 1082.34 334.01C1081.93 343.006 1082.02 352.018 1082.61 361.004C1083.02 367.582 1082.71 374.185 1081.7 380.696C1078.24 404.68 1067.94 428.529 1067.94 428.529C1067.94 428.529 1118.21 438.935 1141.59 440.049C1123.26 441.399 1061.28 428.529 1061.28 428.529C1061.28 428.529 1071.61 404.66 1075.06 380.676Z" fill="black"/>
<path d="M1013.77 384.975C1027.55 400.969 1047.51 390.306 1047.51 390.306C1048.32 388.956 1054.74 385.292 1059.66 382.64C1062.8 380.932 1065.32 379.644 1065.32 379.644L1055.1 371.201L1049.93 373.901L1042.2 377.875C1042.2 377.875 999.999 368.981 1013.77 384.975Z" fill="#F7C4A7"/>
<path opacity="0.1" d="M1049.92 373.874L1059.65 382.647C1062.79 380.939 1065.3 379.65 1065.3 379.65L1055.09 371.208L1049.92 373.874Z" fill="black"/>
<path d="M1115.51 314.778C1115.51 314.778 1097.74 374.758 1063.55 384.084L1050.22 372.086C1050.22 372.086 1075.19 340.523 1076.02 327.424C1076.34 322.585 1077.81 315.594 1079.54 308.704C1084.86 287.541 1116.19 291.738 1115.57 313.549C1115.55 313.954 1115.53 314.364 1115.51 314.778Z" fill="#575988"/>
<path opacity="0.05" d="M1149.94 373.199C1149.94 373.199 1138.39 363.866 1127.73 370.979C1117.06 378.092 1101.52 377.201 1099.3 377.646" fill="black"/>
<path fill-rule="evenodd" clip-rule="evenodd" d="M904.961 95.08L904.643 95.0537L904.646 95.1032L878.92 96.9989L834.459 99.7776L843.232 528.98L936.579 584.629L948.171 592.078L953.71 588.201L1068.09 548.519C1067.47 564.573 1067.18 584.328 1068.88 593.307C1071.02 604.602 1066.63 612.569 1063.68 616.44C1053.55 614.752 1030.5 612.256 1028.43 624.005C1025.76 639.108 1096.41 644.44 1096.41 644.44L1095.69 631.601C1096.71 631.581 1097.3 631.543 1097.3 631.543V589.777C1097.3 589.777 1105.3 543.125 1100.85 532.462C1096.41 521.8 1102.63 502.249 1102.63 502.249L1104.14 497.475L1104.14 497.478C1109.24 510.476 1115.4 525.086 1119.96 532.469C1129.26 547.579 1130.61 594.224 1130.61 594.224C1131.72 598.968 1128.63 606.519 1126.18 611.478C1114.33 608.105 1103.28 607.13 1103.07 615.111C1102.63 632.434 1153.5 641.099 1153.5 641.099L1154.78 625.909C1156.65 625.153 1157.71 624.437 1157.71 624.437C1154.6 618.66 1159.93 602.221 1159.93 602.221C1159.93 602.221 1152.82 526.247 1148.38 522.697C1143.93 519.147 1140.39 501.372 1140.39 501.372L1144.13 444.54C1145.4 444.463 1146.48 444.327 1147.35 444.125L1147.77 437.877C1155.36 432.337 1157.06 420.746 1154.61 408.054C1151.94 394.287 1154.61 360.073 1159.49 316.532C1161.96 294.606 1156.53 279.894 1150.54 270.682C1147.96 266.739 1144.43 263.501 1140.28 261.262C1137.19 259.59 1133.81 258.515 1130.34 258.08C1127.64 255.746 1125.21 253.125 1123.07 250.433C1123.77 250.176 1124.4 249.778 1124.91 249.222C1124.95 249.17 1125 249.116 1125.04 249.063C1125.15 248.966 1125.25 248.865 1125.35 248.757C1125.39 248.715 1125.43 248.674 1125.46 248.632C1125.99 248.379 1126.47 248.041 1126.88 247.61C1128.99 245.335 1128.08 241.779 1127.28 238.803C1125.41 231.811 1124.94 224.226 1127.53 217.478C1128.02 216.211 1128.62 214.965 1129.21 213.718C1130.5 211.018 1131.8 208.311 1132.01 205.371C1132.49 198.636 1127.2 192.873 1121.8 188.675C1118.69 186.253 1115.34 184.046 1111.56 182.878C1108.57 182.042 1105.47 181.655 1102.37 181.731C1097.19 181.727 1093.92 184.196 1090.39 186.864C1088.14 188.565 1085.78 190.346 1082.75 191.618C1081.2 192.264 1078.73 192.086 1076.22 191.905C1072.86 191.662 1069.42 191.414 1068.01 193.129C1065.62 196.028 1064.49 199.605 1063.37 203.201C1062.63 205.54 1061.89 207.888 1060.8 210.061C1060.32 211.033 1059.77 211.972 1059.21 212.911C1058.32 214.41 1057.43 215.91 1056.86 217.545C1055.43 221.567 1056.06 225.967 1056.86 230.145C1057.18 231.817 1057.62 233.628 1058.92 234.727C1059.25 235.557 1059.71 236.302 1060.42 236.832C1061.45 237.496 1062.65 237.826 1063.87 237.777C1064.14 237.782 1064.41 237.78 1064.67 237.772C1065.17 238.947 1065.73 240.086 1066.36 241.181C1071.08 251.072 1081.17 257.908 1092.85 257.908C1094.02 257.908 1095.17 257.839 1096.3 257.707C1097 258.547 1097.68 259.401 1098.35 260.27C1098.55 260.241 1098.75 260.209 1098.95 260.174C1100.53 262.356 1101.89 264.435 1103.04 266.322C1101.87 267.081 1100.76 267.655 1099.78 267.916C1098.48 268.253 1096.55 269.623 1094.38 271.479C1084.63 279.862 1078.5 291.7 1077.29 304.506C1076.65 311.16 1075.99 319.169 1075.53 327.524C1075.52 327.599 1075.52 327.674 1075.51 327.747C1075.31 330.705 1073.88 334.582 1071.78 338.829L1071.68 338.912L1020.72 234.747L1034.21 163.888L1056.48 155.79L1055.13 106.526H1049.74H1048.39L1043.66 106.526L905.322 95.1097L905.318 95.0537L904.961 95.08ZM940.044 384.749L940.467 384.68L940.047 384.752L940.044 384.749Z" fill="url(#paint16_linear)"/>
</g>
</g>
<defs>
<filter id="filter0_d" x="401" y="-306" width="1160.66" height="1160.66" filterUnits="userSpaceOnUse" color-interpolation-filters="sRGB">
<feFlood flood-opacity="0" result="BackgroundImageFix"/>
<feColorMatrix in="SourceAlpha" type="matrix" values="0 0 0 0 0 0 0 0 0 0 0 0 0 0 0 0 0 0 127 0"/>
<feOffset dx="10" dy="10"/>
<feGaussianBlur stdDeviation="25"/>
<feColorMatrix type="matrix" values="0 0 0 0 0.976471 0 0 0 0 0.662745 0 0 0 0 0.133333 0 0 0 0.15 0"/>
<feBlend mode="normal" in2="BackgroundImageFix" result="effect1_dropShadow"/>
<feBlend mode="normal" in="SourceGraphic" in2="effect1_dropShadow" result="shape"/>
</filter>
<filter id="filter1_d" x="814" y="55" width="386.626" height="610" filterUnits="userSpaceOnUse" color-interpolation-filters="sRGB">
<feFlood flood-opacity="0" result="BackgroundImageFix"/>
<feColorMatrix in="SourceAlpha" type="matrix" values="0 0 0 0 0 0 0 0 0 0 0 0 0 0 0 0 0 0 127 0"/>
<feOffset dx="10" dy="-10"/>
<feGaussianBlur stdDeviation="15"/>
<feColorMatrix type="matrix" values="0 0 0 0 0.517647 0 0 0 0 0.517647 0 0 0 0 0.6 0 0 0 0.05 0"/>
<feBlend mode="normal" in2="BackgroundImageFix" result="effect1_dropShadow"/>
<feBlend mode="normal" in="SourceGraphic" in2="effect1_dropShadow" result="shape"/>
</filter>
<linearGradient id="paint0_linear" x1="596.33" y1="-110.67" x2="1460.32" y2="469.596" gradientUnits="userSpaceOnUse">
<stop stop-color="white" stop-opacity="0.2"/>
<stop offset="1" stop-color="white" stop-opacity="0"/>
</linearGradient>
<linearGradient id="paint1_linear" x1="-27782.5" y1="10976.6" x2="-27782.5" y2="10151.9" gradientUnits="userSpaceOnUse">
<stop stop-color="#808080" stop-opacity="0.25"/>
<stop offset="0.54" stop-color="#808080" stop-opacity="0.12"/>
<stop offset="1" stop-color="#808080" stop-opacity="0.1"/>
</linearGradient>
<linearGradient id="paint2_linear" x1="-27782.5" y1="10976.6" x2="-27782.5" y2="10151.9" gradientUnits="userSpaceOnUse">
<stop stop-color="#808080" stop-opacity="0.25"/>
<stop offset="0.54" stop-color="#808080" stop-opacity="0.12"/>
<stop offset="1" stop-color="#808080" stop-opacity="0.1"/>
</linearGradient>
<linearGradient id="paint3_linear" x1="-5826.44" y1="5912.71" x2="-5826.44" y2="5679.75" gradientUnits="userSpaceOnUse">
<stop stop-color="#808080" stop-opacity="0.25"/>
<stop offset="0.54" stop-color="#808080" stop-opacity="0.12"/>
<stop offset="1" stop-color="#808080" stop-opacity="0.1"/>
</linearGradient>
<linearGradient id="paint4_linear" x1="-35623" y1="35940.5" x2="-35623" y2="26522.4" gradientUnits="userSpaceOnUse">
<stop stop-color="#808080" stop-opacity="0.25"/>
<stop offset="0.54" stop-color="#808080" stop-opacity="0.12"/>
<stop offset="1" stop-color="#808080" stop-opacity="0.1"/>
</linearGradient>
<linearGradient id="paint5_linear" x1="-35623" y1="35940.5" x2="-35623" y2="26522.4" gradientUnits="userSpaceOnUse">
<stop stop-color="#808080" stop-opacity="0.25"/>
<stop offset="0.54" stop-color="#808080" stop-opacity="0.12"/>
<stop offset="1" stop-color="#808080" stop-opacity="0.1"/>
</linearGradient>
<linearGradient id="paint6_linear" x1="-33361.7" y1="18563.2" x2="-33361.7" y2="17007.1" gradientUnits="userSpaceOnUse">
<stop stop-color="#808080" stop-opacity="0.25"/>
<stop offset="0.54" stop-color="#808080" stop-opacity="0.12"/>
<stop offset="1" stop-color="#808080" stop-opacity="0.1"/>
</linearGradient>
<linearGradient id="paint7_linear" x1="-17971.7" y1="40796.6" x2="-17971.7" y2="29680.2" gradientUnits="userSpaceOnUse">
<stop stop-color="#808080" stop-opacity="0.25"/>
<stop offset="0.54" stop-color="#808080" stop-opacity="0.12"/>
<stop offset="1" stop-color="#808080" stop-opacity="0.1"/>
</linearGradient>
<linearGradient id="paint8_linear" x1="-13555.7" y1="8699.11" x2="-13555.7" y2="7388.15" gradientUnits="userSpaceOnUse">
<stop stop-color="#808080" stop-opacity="0.25"/>
<stop offset="0.54" stop-color="#808080" stop-opacity="0.12"/>
<stop offset="1" stop-color="#808080" stop-opacity="0.1"/>
</linearGradient>
<linearGradient id="paint9_linear" x1="-23459.6" y1="15180.4" x2="-23459.6" y2="9827.11" gradientUnits="userSpaceOnUse">
<stop stop-color="#808080" stop-opacity="0.25"/>
<stop offset="0.54" stop-color="#808080" stop-opacity="0.12"/>
<stop offset="1" stop-color="#808080" stop-opacity="0.1"/>
</linearGradient>
<linearGradient id="paint10_linear" x1="-32493.6" y1="18431.5" x2="-32493.6" y2="11680.4" gradientUnits="userSpaceOnUse">
<stop stop-color="#808080" stop-opacity="0.25"/>
<stop offset="0.54" stop-color="#808080" stop-opacity="0.12"/>
<stop offset="1" stop-color="#808080" stop-opacity="0.1"/>
</linearGradient>
<linearGradient id="paint11_linear" x1="-35142.2" y1="100753" x2="-35142.2" y2="52664.2" gradientUnits="userSpaceOnUse">
<stop stop-color="#808080" stop-opacity="0.25"/>
<stop offset="0.54" stop-color="#808080" stop-opacity="0.12"/>
<stop offset="1" stop-color="#808080" stop-opacity="0.1"/>
</linearGradient>
<linearGradient id="paint12_linear" x1="-29094" y1="11658.7" x2="-29094" y2="10864.6" gradientUnits="userSpaceOnUse">
<stop stop-color="#808080" stop-opacity="0.25"/>
<stop offset="0.54" stop-color="#808080" stop-opacity="0.12"/>
<stop offset="1" stop-color="#808080" stop-opacity="0.1"/>
</linearGradient>
<linearGradient id="paint13_linear" x1="-6992.4" y1="5888.65" x2="-6992.4" y2="5685.04" gradientUnits="userSpaceOnUse">
<stop stop-color="#808080" stop-opacity="0.25"/>
<stop offset="0.54" stop-color="#808080" stop-opacity="0.12"/>
<stop offset="1" stop-color="#808080" stop-opacity="0.1"/>
</linearGradient>
<linearGradient id="paint14_linear" x1="-30402.3" y1="43539.7" x2="-30402.3" y2="31141.5" gradientUnits="userSpaceOnUse">
<stop stop-color="#808080" stop-opacity="0.25"/>
<stop offset="0.54" stop-color="#808080" stop-opacity="0.12"/>
<stop offset="1" stop-color="#808080" stop-opacity="0.1"/>
</linearGradient>
<linearGradient id="paint15_linear" x1="-19811.6" y1="4799.72" x2="-19811.6" y2="4664.13" gradientUnits="userSpaceOnUse">
<stop stop-color="#808080" stop-opacity="0.25"/>
<stop offset="0.54" stop-color="#808080" stop-opacity="0.12"/>
<stop offset="1" stop-color="#808080" stop-opacity="0.1"/>
</linearGradient>
<linearGradient id="paint16_linear" x1="1160.1" y1="644.439" x2="838.796" y2="607.025" gradientUnits="userSpaceOnUse">
<stop stop-color="white" stop-opacity="0.2"/>
<stop offset="1" stop-color="white" stop-opacity="0"/>
</linearGradient>
<clipPath id="clip0">
<rect width="1236" height="695" fill="white"/>
</clipPath>
<clipPath id="clip1">
<rect width="326.626" height="550" fill="white" transform="matrix(-1 0 0 1 1160.63 95)"/>
</clipPath>
</defs>
</svg>
