<svg width="1236" height="696" viewBox="0 0 1236 696" fill="none" xmlns="http://www.w3.org/2000/svg">
<g clip-path="url(#clip0)">
<rect width="1236" height="695" transform="translate(0 0.5)" fill="white"/>
<path d="M106.25 327V333.5H79.15V298.5H105.6V305H87.2V312.6H103.45V318.9H87.2V327H106.25ZM128.995 306.2C132.328 306.2 135.012 307.2 137.045 309.2C139.112 311.2 140.145 314.167 140.145 318.1V333.5H132.345V319.3C132.345 317.167 131.878 315.583 130.945 314.55C130.012 313.483 128.662 312.95 126.895 312.95C124.928 312.95 123.362 313.567 122.195 314.8C121.028 316 120.445 317.8 120.445 320.2V333.5H112.645V306.6H120.095V309.75C121.128 308.617 122.412 307.75 123.945 307.15C125.478 306.517 127.162 306.2 128.995 306.2ZM147.715 306.6H155.515V333.5H147.715V306.6ZM151.615 302.85C150.182 302.85 149.015 302.433 148.115 301.6C147.215 300.767 146.765 299.733 146.765 298.5C146.765 297.267 147.215 296.233 148.115 295.4C149.015 294.567 150.182 294.15 151.615 294.15C153.049 294.15 154.215 294.55 155.115 295.35C156.015 296.15 156.465 297.15 156.465 298.35C156.465 299.65 156.015 300.733 155.115 301.6C154.215 302.433 153.049 302.85 151.615 302.85ZM197.704 306.2C201.071 306.2 203.738 307.2 205.704 309.2C207.704 311.167 208.704 314.133 208.704 318.1V333.5H200.904V319.3C200.904 317.167 200.454 315.583 199.554 314.55C198.688 313.483 197.438 312.95 195.804 312.95C193.971 312.95 192.521 313.55 191.454 314.75C190.388 315.917 189.854 317.667 189.854 320V333.5H182.054V319.3C182.054 315.067 180.354 312.95 176.954 312.95C175.154 312.95 173.721 313.55 172.654 314.75C171.588 315.917 171.054 317.667 171.054 320V333.5H163.254V306.6H170.704V309.7C171.704 308.567 172.921 307.7 174.354 307.1C175.821 306.5 177.421 306.2 179.154 306.2C181.054 306.2 182.771 306.583 184.304 307.35C185.838 308.083 187.071 309.167 188.004 310.6C189.104 309.2 190.488 308.117 192.154 307.35C193.854 306.583 195.704 306.2 197.704 306.2ZM257.556 306.6L246.206 333.5H238.156L226.856 306.6H234.906L242.356 324.9L250.056 306.6H257.556ZM261.239 306.6H269.039V333.5H261.239V306.6ZM265.139 302.85C263.705 302.85 262.539 302.433 261.639 301.6C260.739 300.767 260.289 299.733 260.289 298.5C260.289 297.267 260.739 296.233 261.639 295.4C262.539 294.567 263.705 294.15 265.139 294.15C266.572 294.15 267.739 294.55 268.639 295.35C269.539 296.15 269.989 297.15 269.989 298.35C269.989 299.65 269.539 300.733 268.639 301.6C267.739 302.433 266.572 302.85 265.139 302.85ZM294.128 332.2C293.361 332.767 292.411 333.2 291.278 333.5C290.178 333.767 289.011 333.9 287.778 333.9C284.578 333.9 282.094 333.083 280.328 331.45C278.594 329.817 277.728 327.417 277.728 324.25V313.2H273.578V307.2H277.728V300.65H285.528V307.2H292.228V313.2H285.528V324.15C285.528 325.283 285.811 326.167 286.378 326.8C286.978 327.4 287.811 327.7 288.878 327.7C290.111 327.7 291.161 327.367 292.028 326.7L294.128 332.2ZM309.856 306.2C314.023 306.2 317.223 307.2 319.456 309.2C321.69 311.167 322.806 314.15 322.806 318.15V333.5H315.506V330.15C314.04 332.65 311.306 333.9 307.306 333.9C305.24 333.9 303.44 333.55 301.906 332.85C300.406 332.15 299.256 331.183 298.456 329.95C297.656 328.717 297.256 327.317 297.256 325.75C297.256 323.25 298.19 321.283 300.056 319.85C301.956 318.417 304.873 317.7 308.806 317.7H315.006C315.006 316 314.49 314.7 313.456 313.8C312.423 312.867 310.873 312.4 308.806 312.4C307.373 312.4 305.956 312.633 304.556 313.1C303.19 313.533 302.023 314.133 301.056 314.9L298.256 309.45C299.723 308.417 301.473 307.617 303.506 307.05C305.573 306.483 307.69 306.2 309.856 306.2ZM309.256 328.65C310.59 328.65 311.773 328.35 312.806 327.75C313.84 327.117 314.573 326.2 315.006 325V322.25H309.656C306.456 322.25 304.856 323.3 304.856 325.4C304.856 326.4 305.24 327.2 306.006 327.8C306.806 328.367 307.89 328.65 309.256 328.65ZM357.009 320.15C357.009 320.25 356.959 320.95 356.859 322.25H336.509C336.875 323.917 337.742 325.233 339.109 326.2C340.475 327.167 342.175 327.65 344.209 327.65C345.609 327.65 346.842 327.45 347.909 327.05C349.009 326.617 350.025 325.95 350.959 325.05L355.109 329.55C352.575 332.45 348.875 333.9 344.009 333.9C340.975 333.9 338.292 333.317 335.959 332.15C333.625 330.95 331.825 329.3 330.559 327.2C329.292 325.1 328.659 322.717 328.659 320.05C328.659 317.417 329.275 315.05 330.509 312.95C331.775 310.817 333.492 309.167 335.659 308C337.859 306.8 340.309 306.2 343.009 306.2C345.642 306.2 348.025 306.767 350.159 307.9C352.292 309.033 353.959 310.667 355.159 312.8C356.392 314.9 357.009 317.35 357.009 320.15ZM343.059 312.1C341.292 312.1 339.809 312.6 338.609 313.6C337.409 314.6 336.675 315.967 336.409 317.7H349.659C349.392 316 348.659 314.65 347.459 313.65C346.259 312.617 344.792 312.1 343.059 312.1ZM404.462 306.6V333.5H397.062V330.3C396.028 331.467 394.795 332.367 393.362 333C391.928 333.6 390.378 333.9 388.712 333.9C385.178 333.9 382.378 332.883 380.312 330.85C378.245 328.817 377.212 325.8 377.212 321.8V306.6H385.012V320.65C385.012 324.983 386.828 327.15 390.462 327.15C392.328 327.15 393.828 326.55 394.962 325.35C396.095 324.117 396.662 322.3 396.662 319.9V306.6H404.462ZM419.638 310.15C420.571 308.85 421.821 307.867 423.388 307.2C424.988 306.533 426.821 306.2 428.888 306.2V313.4C428.021 313.333 427.438 313.3 427.138 313.3C424.905 313.3 423.155 313.933 421.888 315.2C420.621 316.433 419.988 318.3 419.988 320.8V333.5H412.188V306.6H419.638V310.15ZM450.376 306.2C453.709 306.2 456.392 307.2 458.426 309.2C460.492 311.2 461.526 314.167 461.526 318.1V333.5H453.726V319.3C453.726 317.167 453.259 315.583 452.326 314.55C451.392 313.483 450.042 312.95 448.276 312.95C446.309 312.95 444.742 313.567 443.576 314.8C442.409 316 441.826 317.8 441.826 320.2V333.5H434.026V306.6H441.476V309.75C442.509 308.617 443.792 307.75 445.326 307.15C446.859 306.517 448.542 306.2 450.376 306.2ZM479.946 306.2C484.113 306.2 487.313 307.2 489.546 309.2C491.779 311.167 492.896 314.15 492.896 318.15V333.5H485.596V330.15C484.129 332.65 481.396 333.9 477.396 333.9C475.329 333.9 473.529 333.55 471.996 332.85C470.496 332.15 469.346 331.183 468.546 329.95C467.746 328.717 467.346 327.317 467.346 325.75C467.346 323.25 468.279 321.283 470.146 319.85C472.046 318.417 474.963 317.7 478.896 317.7H485.096C485.096 316 484.579 314.7 483.546 313.8C482.513 312.867 480.963 312.4 478.896 312.4C477.463 312.4 476.046 312.633 474.646 313.1C473.279 313.533 472.113 314.133 471.146 314.9L468.346 309.45C469.813 308.417 471.563 307.617 473.596 307.05C475.663 306.483 477.779 306.2 479.946 306.2ZM479.346 328.65C480.679 328.65 481.863 328.35 482.896 327.75C483.929 327.117 484.663 326.2 485.096 325V322.25H479.746C476.546 322.25 474.946 323.3 474.946 325.4C474.946 326.4 475.329 327.2 476.096 327.8C476.896 328.367 477.979 328.65 479.346 328.65ZM95.95 396.2C95.1833 396.767 94.2333 397.2 93.1 397.5C92 397.767 90.8333 397.9 89.6 397.9C86.4 397.9 83.9167 397.083 82.15 395.45C80.4167 393.817 79.55 391.417 79.55 388.25V377.2H75.4V371.2H79.55V364.65H87.35V371.2H94.05V377.2H87.35V388.15C87.35 389.283 87.6333 390.167 88.2 390.8C88.8 391.4 89.6333 391.7 90.7 391.7C91.9333 391.7 92.9833 391.367 93.85 390.7L95.95 396.2ZM100.829 370.6H108.629V397.5H100.829V370.6ZM104.729 366.85C103.295 366.85 102.129 366.433 101.229 365.6C100.329 364.767 99.8785 363.733 99.8785 362.5C99.8785 361.267 100.329 360.233 101.229 359.4C102.129 358.567 103.295 358.15 104.729 358.15C106.162 358.15 107.329 358.55 108.229 359.35C109.129 360.15 109.579 361.15 109.579 362.35C109.579 363.65 109.129 364.733 108.229 365.6C107.329 366.433 106.162 366.85 104.729 366.85ZM132.718 370.2C136.051 370.2 138.734 371.2 140.768 373.2C142.834 375.2 143.868 378.167 143.868 382.1V397.5H136.068V383.3C136.068 381.167 135.601 379.583 134.668 378.55C133.734 377.483 132.384 376.95 130.618 376.95C128.651 376.95 127.084 377.567 125.918 378.8C124.751 380 124.168 381.8 124.168 384.2V397.5H116.368V370.6H123.818V373.75C124.851 372.617 126.134 371.75 127.668 371.15C129.201 370.517 130.884 370.2 132.718 370.2ZM164.731 397.9C161.864 397.9 159.281 397.317 156.981 396.15C154.714 394.95 152.931 393.3 151.631 391.2C150.364 389.1 149.731 386.717 149.731 384.05C149.731 381.383 150.364 379 151.631 376.9C152.931 374.8 154.714 373.167 156.981 372C159.281 370.8 161.864 370.2 164.731 370.2C167.564 370.2 170.031 370.8 172.131 372C174.264 373.167 175.814 374.85 176.781 377.05L170.731 380.3C169.331 377.833 167.314 376.6 164.681 376.6C162.648 376.6 160.964 377.267 159.631 378.6C158.298 379.933 157.631 381.75 157.631 384.05C157.631 386.35 158.298 388.167 159.631 389.5C160.964 390.833 162.648 391.5 164.681 391.5C167.348 391.5 169.364 390.267 170.731 387.8L176.781 391.1C175.814 393.233 174.264 394.9 172.131 396.1C170.031 397.3 167.564 397.9 164.731 397.9ZM181.772 370.6H189.572V397.5H181.772V370.6ZM185.672 366.85C184.239 366.85 183.072 366.433 182.172 365.6C181.272 364.767 180.822 363.733 180.822 362.5C180.822 361.267 181.272 360.233 182.172 359.4C183.072 358.567 184.239 358.15 185.672 358.15C187.105 358.15 188.272 358.55 189.172 359.35C190.072 360.15 190.522 361.15 190.522 362.35C190.522 363.65 190.072 364.733 189.172 365.6C188.272 366.433 187.105 366.85 185.672 366.85ZM224.711 360.4V397.5H217.261V394.4C215.328 396.733 212.528 397.9 208.861 397.9C206.328 397.9 204.028 397.333 201.961 396.2C199.928 395.067 198.328 393.45 197.161 391.35C195.994 389.25 195.411 386.817 195.411 384.05C195.411 381.283 195.994 378.85 197.161 376.75C198.328 374.65 199.928 373.033 201.961 371.9C204.028 370.767 206.328 370.2 208.861 370.2C212.294 370.2 214.978 371.283 216.911 373.45V360.4H224.711ZM210.211 391.5C212.178 391.5 213.811 390.833 215.111 389.5C216.411 388.133 217.061 386.317 217.061 384.05C217.061 381.783 216.411 379.983 215.111 378.65C213.811 377.283 212.178 376.6 210.211 376.6C208.211 376.6 206.561 377.283 205.261 378.65C203.961 379.983 203.311 381.783 203.311 384.05C203.311 386.317 203.961 388.133 205.261 389.5C206.561 390.833 208.211 391.5 210.211 391.5ZM259.53 370.6V397.5H252.13V394.3C251.097 395.467 249.863 396.367 248.43 397C246.997 397.6 245.447 397.9 243.78 397.9C240.247 397.9 237.447 396.883 235.38 394.85C233.313 392.817 232.28 389.8 232.28 385.8V370.6H240.08V384.65C240.08 388.983 241.897 391.15 245.53 391.15C247.397 391.15 248.897 390.55 250.03 389.35C251.163 388.117 251.73 386.3 251.73 383.9V370.6H259.53ZM283.606 370.2C286.94 370.2 289.623 371.2 291.656 373.2C293.723 375.2 294.756 378.167 294.756 382.1V397.5H286.956V383.3C286.956 381.167 286.49 379.583 285.556 378.55C284.623 377.483 283.273 376.95 281.506 376.95C279.54 376.95 277.973 377.567 276.806 378.8C275.64 380 275.056 381.8 275.056 384.2V397.5H267.256V370.6H274.706V373.75C275.74 372.617 277.023 371.75 278.556 371.15C280.09 370.517 281.773 370.2 283.606 370.2ZM319.677 396.2C318.91 396.767 317.96 397.2 316.827 397.5C315.727 397.767 314.56 397.9 313.327 397.9C310.127 397.9 307.643 397.083 305.877 395.45C304.143 393.817 303.277 391.417 303.277 388.25V377.2H299.127V371.2H303.277V364.65H311.077V371.2H317.777V377.2H311.077V388.15C311.077 389.283 311.36 390.167 311.927 390.8C312.527 391.4 313.36 391.7 314.427 391.7C315.66 391.7 316.71 391.367 317.577 390.7L319.677 396.2ZM350.065 370.2C354.232 370.2 357.432 371.2 359.665 373.2C361.899 375.167 363.015 378.15 363.015 382.15V397.5H355.715V394.15C354.249 396.65 351.515 397.9 347.515 397.9C345.449 397.9 343.649 397.55 342.115 396.85C340.615 396.15 339.465 395.183 338.665 393.95C337.865 392.717 337.465 391.317 337.465 389.75C337.465 387.25 338.399 385.283 340.265 383.85C342.165 382.417 345.082 381.7 349.015 381.7H355.215C355.215 380 354.699 378.7 353.665 377.8C352.632 376.867 351.082 376.4 349.015 376.4C347.582 376.4 346.165 376.633 344.765 377.1C343.399 377.533 342.232 378.133 341.265 378.9L338.465 373.45C339.932 372.417 341.682 371.617 343.715 371.05C345.782 370.483 347.899 370.2 350.065 370.2ZM349.465 392.65C350.799 392.65 351.982 392.35 353.015 391.75C354.049 391.117 354.782 390.2 355.215 389V386.25H349.865C346.665 386.25 345.065 387.3 345.065 389.4C345.065 390.4 345.449 391.2 346.215 391.8C347.015 392.367 348.099 392.65 349.465 392.65ZM405.025 370.2C408.391 370.2 411.058 371.2 413.025 373.2C415.025 375.167 416.025 378.133 416.025 382.1V397.5H408.225V383.3C408.225 381.167 407.775 379.583 406.875 378.55C406.008 377.483 404.758 376.95 403.125 376.95C401.291 376.95 399.841 377.55 398.775 378.75C397.708 379.917 397.175 381.667 397.175 384V397.5H389.375V383.3C389.375 379.067 387.675 376.95 384.275 376.95C382.475 376.95 381.041 377.55 379.975 378.75C378.908 379.917 378.375 381.667 378.375 384V397.5H370.575V370.6H378.025V373.7C379.025 372.567 380.241 371.7 381.675 371.1C383.141 370.5 384.741 370.2 386.475 370.2C388.375 370.2 390.091 370.583 391.625 371.35C393.158 372.083 394.391 373.167 395.325 374.6C396.425 373.2 397.808 372.117 399.475 371.35C401.175 370.583 403.025 370.2 405.025 370.2ZM450.159 384.15C450.159 384.25 450.109 384.95 450.009 386.25H429.659C430.026 387.917 430.892 389.233 432.259 390.2C433.626 391.167 435.326 391.65 437.359 391.65C438.759 391.65 439.992 391.45 441.059 391.05C442.159 390.617 443.176 389.95 444.109 389.05L448.259 393.55C445.726 396.45 442.026 397.9 437.159 397.9C434.126 397.9 431.442 397.317 429.109 396.15C426.776 394.95 424.976 393.3 423.709 391.2C422.442 389.1 421.809 386.717 421.809 384.05C421.809 381.417 422.426 379.05 423.659 376.95C424.926 374.817 426.642 373.167 428.809 372C431.009 370.8 433.459 370.2 436.159 370.2C438.792 370.2 441.176 370.767 443.309 371.9C445.442 373.033 447.109 374.667 448.309 376.8C449.542 378.9 450.159 381.35 450.159 384.15ZM436.209 376.1C434.442 376.1 432.959 376.6 431.759 377.6C430.559 378.6 429.826 379.967 429.559 381.7H442.809C442.542 380 441.809 378.65 440.609 377.65C439.409 376.617 437.942 376.1 436.209 376.1ZM473.202 396.2C472.435 396.767 471.485 397.2 470.352 397.5C469.252 397.767 468.085 397.9 466.852 397.9C463.652 397.9 461.169 397.083 459.402 395.45C457.669 393.817 456.802 391.417 456.802 388.25V377.2H452.652V371.2H456.802V364.65H464.602V371.2H471.302V377.2H464.602V388.15C464.602 389.283 464.885 390.167 465.452 390.8C466.052 391.4 466.885 391.7 467.952 391.7C469.185 391.7 470.235 391.367 471.102 390.7L473.202 396.2Z" fill="#2F2E44"/>
<path d="M92.97 71.49C92.97 71.55 92.94 71.97 92.88 72.75H80.67C80.89 73.75 81.41 74.54 82.23 75.12C83.05 75.7 84.07 75.99 85.29 75.99C86.13 75.99 86.87 75.87 87.51 75.63C88.17 75.37 88.78 74.97 89.34 74.43L91.83 77.13C90.31 78.87 88.09 79.74 85.17 79.74C83.35 79.74 81.74 79.39 80.34 78.69C78.94 77.97 77.86 76.98 77.1 75.72C76.34 74.46 75.96 73.03 75.96 71.43C75.96 69.85 76.33 68.43 77.07 67.17C77.83 65.89 78.86 64.9 80.16 64.2C81.48 63.48 82.95 63.12 84.57 63.12C86.15 63.12 87.58 63.46 88.86 64.14C90.14 64.82 91.14 65.8 91.86 67.08C92.6 68.34 92.97 69.81 92.97 71.49ZM84.6 66.66C83.54 66.66 82.65 66.96 81.93 67.56C81.21 68.16 80.77 68.98 80.61 70.02H88.56C88.4 69 87.96 68.19 87.24 67.59C86.52 66.97 85.64 66.66 84.6 66.66ZM106.196 63.12C108.196 63.12 109.806 63.72 111.026 64.92C112.266 66.12 112.886 67.9 112.886 70.26V79.5H108.206V70.98C108.206 69.7 107.926 68.75 107.366 68.13C106.806 67.49 105.996 67.17 104.936 67.17C103.756 67.17 102.816 67.54 102.116 68.28C101.416 69 101.066 70.08 101.066 71.52V79.5H96.3858V63.36H100.856V65.25C101.476 64.57 102.246 64.05 103.166 63.69C104.086 63.31 105.096 63.12 106.196 63.12ZM134.254 63.36V76.8C134.254 79.76 133.484 81.96 131.944 83.4C130.404 84.84 128.154 85.56 125.194 85.56C123.634 85.56 122.154 85.37 120.754 84.99C119.354 84.61 118.194 84.06 117.274 83.34L119.134 79.98C119.814 80.54 120.674 80.98 121.714 81.3C122.754 81.64 123.794 81.81 124.834 81.81C126.454 81.81 127.644 81.44 128.404 80.7C129.184 79.98 129.574 78.88 129.574 77.4V76.71C128.354 78.05 126.654 78.72 124.474 78.72C122.994 78.72 121.634 78.4 120.394 77.76C119.174 77.1 118.204 76.18 117.484 75C116.764 73.82 116.404 72.46 116.404 70.92C116.404 69.38 116.764 68.02 117.484 66.84C118.204 65.66 119.174 64.75 120.394 64.11C121.634 63.45 122.994 63.12 124.474 63.12C126.814 63.12 128.594 63.89 129.814 65.43V63.36H134.254ZM125.404 74.88C126.644 74.88 127.654 74.52 128.434 73.8C129.234 73.06 129.634 72.1 129.634 70.92C129.634 69.74 129.234 68.79 128.434 68.07C127.654 67.33 126.644 66.96 125.404 66.96C124.164 66.96 123.144 67.33 122.344 68.07C121.544 68.79 121.144 69.74 121.144 70.92C121.144 72.1 121.544 73.06 122.344 73.8C123.144 74.52 124.164 74.88 125.404 74.88ZM138.91 57.24H143.59V79.5H138.91V57.24ZM148.233 63.36H152.913V79.5H148.233V63.36ZM150.573 61.11C149.713 61.11 149.013 60.86 148.473 60.36C147.933 59.86 147.663 59.24 147.663 58.5C147.663 57.76 147.933 57.14 148.473 56.64C149.013 56.14 149.713 55.89 150.573 55.89C151.433 55.89 152.133 56.13 152.673 56.61C153.213 57.09 153.483 57.69 153.483 58.41C153.483 59.19 153.213 59.84 152.673 60.36C152.133 60.86 151.433 61.11 150.573 61.11ZM162.986 79.74C161.646 79.74 160.336 79.58 159.056 79.26C157.776 78.92 156.756 78.5 155.996 78L157.556 74.64C158.276 75.1 159.146 75.48 160.166 75.78C161.186 76.06 162.186 76.2 163.166 76.2C165.146 76.2 166.136 75.71 166.136 74.73C166.136 74.27 165.866 73.94 165.326 73.74C164.786 73.54 163.956 73.37 162.836 73.23C161.516 73.03 160.426 72.8 159.566 72.54C158.706 72.28 157.956 71.82 157.316 71.16C156.696 70.5 156.386 69.56 156.386 68.34C156.386 67.32 156.676 66.42 157.256 65.64C157.856 64.84 158.716 64.22 159.836 63.78C160.976 63.34 162.316 63.12 163.856 63.12C164.996 63.12 166.126 63.25 167.246 63.51C168.386 63.75 169.326 64.09 170.066 64.53L168.506 67.86C167.086 67.06 165.536 66.66 163.856 66.66C162.856 66.66 162.106 66.8 161.606 67.08C161.106 67.36 160.856 67.72 160.856 68.16C160.856 68.66 161.126 69.01 161.666 69.21C162.206 69.41 163.066 69.6 164.246 69.78C165.566 70 166.646 70.24 167.486 70.5C168.326 70.74 169.056 71.19 169.676 71.85C170.296 72.51 170.606 73.43 170.606 74.61C170.606 75.61 170.306 76.5 169.706 77.28C169.106 78.06 168.226 78.67 167.066 79.11C165.926 79.53 164.566 79.74 162.986 79.74ZM183.604 63.12C185.604 63.12 187.214 63.72 188.434 64.92C189.674 66.12 190.294 67.9 190.294 70.26V79.5H185.614V70.98C185.614 69.7 185.334 68.75 184.774 68.13C184.214 67.49 183.404 67.17 182.344 67.17C181.164 67.17 180.224 67.54 179.524 68.28C178.824 69 178.474 70.08 178.474 71.52V79.5H173.794V57.24H178.474V65.04C179.094 64.42 179.844 63.95 180.724 63.63C181.604 63.29 182.564 63.12 183.604 63.12ZM204.646 63.12C206.646 63.12 208.256 63.72 209.476 64.92C210.716 66.12 211.336 67.9 211.336 70.26V79.5H206.656V70.98C206.656 69.7 206.376 68.75 205.816 68.13C205.256 67.49 204.446 67.17 203.386 67.17C202.206 67.17 201.266 67.54 200.566 68.28C199.866 69 199.516 70.08 199.516 71.52V79.5H194.836V63.36H199.306V65.25C199.926 64.57 200.696 64.05 201.616 63.69C202.536 63.31 203.546 63.12 204.646 63.12ZM231.864 71.49C231.864 71.55 231.834 71.97 231.774 72.75H219.564C219.784 73.75 220.304 74.54 221.124 75.12C221.944 75.7 222.964 75.99 224.184 75.99C225.024 75.99 225.764 75.87 226.404 75.63C227.064 75.37 227.674 74.97 228.234 74.43L230.724 77.13C229.204 78.87 226.984 79.74 224.064 79.74C222.244 79.74 220.634 79.39 219.234 78.69C217.834 77.97 216.754 76.98 215.994 75.72C215.234 74.46 214.854 73.03 214.854 71.43C214.854 69.85 215.224 68.43 215.964 67.17C216.724 65.89 217.754 64.9 219.054 64.2C220.374 63.48 221.844 63.12 223.464 63.12C225.044 63.12 226.474 63.46 227.754 64.14C229.034 64.82 230.034 65.8 230.754 67.08C231.494 68.34 231.864 69.81 231.864 71.49ZM223.494 66.66C222.434 66.66 221.544 66.96 220.824 67.56C220.104 68.16 219.664 68.98 219.504 70.02H227.454C227.294 69 226.854 68.19 226.134 67.59C225.414 66.97 224.534 66.66 223.494 66.66ZM239.75 65.49C240.31 64.71 241.06 64.12 242 63.72C242.96 63.32 244.06 63.12 245.3 63.12V67.44C244.78 67.4 244.43 67.38 244.25 67.38C242.91 67.38 241.86 67.76 241.1 68.52C240.34 69.26 239.96 70.38 239.96 71.88V79.5H235.28V63.36H239.75V65.49ZM264.676 57.24V79.5H260.206V77.64C259.046 79.04 257.366 79.74 255.166 79.74C253.646 79.74 252.266 79.4 251.026 78.72C249.806 78.04 248.846 77.07 248.146 75.81C247.446 74.55 247.096 73.09 247.096 71.43C247.096 69.77 247.446 68.31 248.146 67.05C248.846 65.79 249.806 64.82 251.026 64.14C252.266 63.46 253.646 63.12 255.166 63.12C257.226 63.12 258.836 63.77 259.996 65.07V57.24H264.676ZM255.976 75.9C257.156 75.9 258.136 75.5 258.916 74.7C259.696 73.88 260.086 72.79 260.086 71.43C260.086 70.07 259.696 68.99 258.916 68.19C258.136 67.37 257.156 66.96 255.976 66.96C254.776 66.96 253.786 67.37 253.006 68.19C252.226 68.99 251.836 70.07 251.836 71.43C251.836 72.79 252.226 73.88 253.006 74.7C253.786 75.5 254.776 75.9 255.976 75.9ZM271.078 79.74C270.258 79.74 269.568 79.46 269.008 78.9C268.448 78.34 268.168 77.64 268.168 76.8C268.168 75.94 268.448 75.25 269.008 74.73C269.568 74.19 270.258 73.92 271.078 73.92C271.898 73.92 272.588 74.19 273.148 74.73C273.708 75.25 273.988 75.94 273.988 76.8C273.988 77.64 273.708 78.34 273.148 78.9C272.588 79.46 271.898 79.74 271.078 79.74ZM284.934 79.74C283.234 79.74 281.704 79.39 280.344 78.69C279.004 77.97 277.954 76.98 277.194 75.72C276.434 74.46 276.054 73.03 276.054 71.43C276.054 69.83 276.434 68.4 277.194 67.14C277.954 65.88 279.004 64.9 280.344 64.2C281.704 63.48 283.234 63.12 284.934 63.12C286.634 63.12 288.154 63.48 289.494 64.2C290.834 64.9 291.884 65.88 292.644 67.14C293.404 68.4 293.784 69.83 293.784 71.43C293.784 73.03 293.404 74.46 292.644 75.72C291.884 76.98 290.834 77.97 289.494 78.69C288.154 79.39 286.634 79.74 284.934 79.74ZM284.934 75.9C286.134 75.9 287.114 75.5 287.874 74.7C288.654 73.88 289.044 72.79 289.044 71.43C289.044 70.07 288.654 68.99 287.874 68.19C287.114 67.37 286.134 66.96 284.934 66.96C283.734 66.96 282.744 67.37 281.964 68.19C281.184 68.99 280.794 70.07 280.794 71.43C280.794 72.79 281.184 73.88 281.964 74.7C282.744 75.5 283.734 75.9 284.934 75.9ZM301.682 65.49C302.242 64.71 302.992 64.12 303.932 63.72C304.892 63.32 305.992 63.12 307.232 63.12V67.44C306.712 67.4 306.362 67.38 306.182 67.38C304.842 67.38 303.792 67.76 303.032 68.52C302.272 69.26 301.892 70.38 301.892 71.88V79.5H297.212V63.36H301.682V65.49ZM326.819 63.36V76.8C326.819 79.76 326.049 81.96 324.509 83.4C322.969 84.84 320.719 85.56 317.759 85.56C316.199 85.56 314.719 85.37 313.319 84.99C311.919 84.61 310.759 84.06 309.839 83.34L311.699 79.98C312.379 80.54 313.239 80.98 314.279 81.3C315.319 81.64 316.359 81.81 317.399 81.81C319.019 81.81 320.209 81.44 320.969 80.7C321.749 79.98 322.139 78.88 322.139 77.4V76.71C320.919 78.05 319.219 78.72 317.039 78.72C315.559 78.72 314.199 78.4 312.959 77.76C311.739 77.1 310.769 76.18 310.049 75C309.329 73.82 308.969 72.46 308.969 70.92C308.969 69.38 309.329 68.02 310.049 66.84C310.769 65.66 311.739 64.75 312.959 64.11C314.199 63.45 315.559 63.12 317.039 63.12C319.379 63.12 321.159 63.89 322.379 65.43V63.36H326.819ZM317.969 74.88C319.209 74.88 320.219 74.52 320.999 73.8C321.799 73.06 322.199 72.1 322.199 70.92C322.199 69.74 321.799 68.79 320.999 68.07C320.219 67.33 319.209 66.96 317.969 66.96C316.729 66.96 315.709 67.33 314.909 68.07C314.109 68.79 313.709 69.74 313.709 70.92C313.709 72.1 314.109 73.06 314.909 73.8C315.709 74.52 316.729 74.88 317.969 74.88Z" fill="#848499"/>
<circle cx="1061" cy="175.5" r="375" fill="#6666FF"/>
<circle cx="1059.5" cy="177" r="262.5" fill="#8080FF"/>
<ellipse cx="1061" cy="175.5" rx="150" ry="150" fill="#9999FF"/>
<circle cx="1061" cy="175.5" r="375" fill="url(#paint0_linear)"/>
<g clip-path="url(#clip1)" filter="url(#filter0_d)">
<path d="M1074.07 614.184L1076.34 625.502L1065.02 627.766L1066.72 613.618L1074.07 614.184Z" fill="#FFB8B8"/>
<path d="M1120.4 612.125L1117.84 624.941L1107.3 625.196L1110.66 609.562L1120.4 612.125Z" fill="#FFB8B8"/>
<path d="M1137.21 480.457L1140.15 500.294C1140.15 500.294 1137.21 544.377 1136.48 546.581C1135.74 548.785 1133.54 559.806 1133.54 559.806L1121.05 612.706C1121.05 612.706 1110.23 614.175 1108.03 608.297L1108.56 576.705L1107.82 540.704L1099.01 499.56L1083.58 555.398C1083.58 555.398 1082.84 573.766 1080.64 580.378C1078.43 586.991 1075.49 615.644 1075.49 615.644C1075.49 615.644 1066.15 617.849 1065.42 615.644C1064.68 613.44 1060.8 561.276 1060.8 553.194C1060.8 545.112 1056.48 467.62 1056.48 467.62L1137.21 480.457Z" fill="#2F2E41"/>
<path d="M1110.68 624.21C1111.89 624.459 1113.14 624.459 1114.35 624.21C1115.73 623.751 1114.35 620.998 1114.35 620.998H1119.4C1119.4 620.998 1124.91 633.387 1127.2 634.305C1129.5 635.223 1136.84 645.318 1128.12 645.318C1122.74 645.248 1117.49 643.658 1112.98 640.729C1112.98 640.729 1112.06 636.599 1107.93 636.14C1103.8 635.682 1101.05 630.634 1101.05 630.634L1105.53 622.359C1105.66 622.126 1105.84 621.931 1106.07 621.795C1106.3 621.659 1106.56 621.587 1106.83 621.586C1107.09 621.586 1107.36 621.657 1107.58 621.792C1107.81 621.927 1108 622.121 1108.13 622.354C1108.75 623.455 1109.62 624.423 1110.68 624.21Z" fill="#2F2E41"/>
<path d="M1072.28 622.789C1072.28 622.789 1071.25 624.836 1070.23 623.812C1069.38 622.726 1068.69 621.519 1068.18 620.23C1068.18 620.23 1065.11 618.695 1064.6 620.23C1064.09 621.765 1062.04 629.953 1061.02 630.977C1060 632 1049.25 642.746 1060 644.793C1070.74 646.84 1072.79 642.235 1072.79 642.235C1072.79 642.235 1071.25 639.676 1074.33 638.653C1077.4 637.629 1077.91 634.047 1077.91 634.047L1076.37 622.481C1076.33 622.234 1076.23 622.004 1076.06 621.818C1075.89 621.632 1075.68 621.499 1075.44 621.437C1075.2 621.375 1074.94 621.386 1074.71 621.468C1074.47 621.551 1074.27 621.702 1074.12 621.901C1073.53 622.675 1072.86 623.18 1072.28 622.789Z" fill="#2F2E41"/>
<path d="M1154.11 429.027L1156.31 467.232C1156.31 467.232 1166.6 491.478 1152.64 490.743C1138.68 490.008 1147.5 466.497 1147.5 466.497L1133.83 432.4L1154.11 429.027Z" fill="#FFB8B8"/>
<path d="M1040.96 418.006L1038.76 456.212C1038.76 456.212 1028.47 480.457 1042.43 479.722C1056.39 478.988 1047.58 455.477 1047.58 455.477L1061.24 421.379L1040.96 418.006Z" fill="#FFB8B8"/>
<path d="M1099.74 334.983C1110.29 334.983 1118.84 326.431 1118.84 315.881C1118.84 305.331 1110.29 296.778 1099.74 296.778C1089.19 296.778 1080.64 305.331 1080.64 315.881C1080.64 326.431 1089.19 334.983 1099.74 334.983Z" fill="#FFB8B8"/>
<path d="M1114.8 323.596C1114.8 323.596 1109.66 344.168 1119.95 349.311C1130.23 354.454 1087.62 361.801 1084.68 349.311L1086.15 343.433C1086.15 343.433 1092.03 336.086 1090.56 329.473L1114.8 323.596Z" fill="#FFB8B8"/>
<path d="M1103.41 349.678C1103.41 349.678 1090.74 350.862 1086.79 342.555C1086.79 342.555 1057.13 344.535 1050.51 371.719C1058.19 371.939 1067.71 459.263 1055.13 467.967C1044.92 475.032 1072.75 485.913 1111.5 486.335L1140.88 484.865C1135.4 480.144 1122.29 418.706 1130.6 419.476C1130.6 419.476 1152.64 384.944 1150.44 379.801C1148.23 374.658 1144.7 354.379 1116.34 346.151C1116.34 346.151 1115.9 350.412 1103.41 349.678Z" fill="#E6E6E6"/>
<path d="M1140.88 367.311L1150.44 379.801C1150.44 379.801 1159.99 431.966 1157.05 432.701C1154.11 433.435 1136.48 439.313 1133.54 437.109C1130.6 434.905 1117.37 391.557 1117.37 391.557L1140.88 367.311Z" fill="#E6E6E6"/>
<path d="M1063 363.637L1050.51 371.719C1050.51 371.719 1032.15 423.149 1037.29 425.353C1042.43 427.557 1071.09 426.088 1071.09 426.088L1063 363.637Z" fill="#E6E6E6"/>
<path d="M1120.62 298.786C1120.62 298.786 1114 284.45 1101.32 287.758C1088.64 291.066 1081.47 296.029 1080.92 300.991C1080.37 305.953 1081.2 313.397 1081.2 313.397C1081.2 313.397 1082.58 303.197 1091.4 305.402C1100.22 307.608 1114 305.953 1114 305.953L1116.21 325.803C1116.21 325.803 1118.69 322.219 1121.45 324.425C1124.21 326.63 1129.44 303.197 1120.62 298.786Z" fill="#2F2E41"/>
<path d="M985.397 195.5H550C544.477 195.5 540 199.977 540 205.5V476.448C540 481.971 544.477 486.448 550 486.448H985.397C990.92 486.448 995.397 481.971 995.397 476.448V205.5C995.397 199.977 990.92 195.5 985.397 195.5Z" fill="#E6E6E6"/>
<path d="M977.252 232.251H558.929C556.167 232.251 553.929 234.49 553.929 237.251V464.502C553.929 467.263 556.167 469.502 558.929 469.502H977.252C980.014 469.502 982.252 467.263 982.252 464.502V237.251C982.252 234.49 980.014 232.251 977.252 232.251Z" fill="white"/>
<path d="M540 205.5C540 199.977 544.477 195.5 550 195.5H985.397C990.92 195.5 995.397 199.977 995.397 205.5V214.847H540V205.5Z" fill="#2F2E44"/>
<path d="M555.087 208.945C557.063 208.945 558.664 207.343 558.664 205.368C558.664 203.392 557.063 201.79 555.087 201.79C553.111 201.79 551.51 203.392 551.51 205.368C551.51 207.343 553.111 208.945 555.087 208.945Z" fill="white"/>
<path d="M568.665 208.945C570.641 208.945 572.243 207.343 572.243 205.368C572.243 203.392 570.641 201.79 568.665 201.79C566.689 201.79 565.088 203.392 565.088 205.368C565.088 207.343 566.689 208.945 568.665 208.945Z" fill="white"/>
<path d="M582.243 208.945C584.219 208.945 585.821 207.343 585.821 205.368C585.821 203.392 584.219 201.79 582.243 201.79C580.268 201.79 578.666 203.392 578.666 205.368C578.666 207.343 580.268 208.945 582.243 208.945Z" fill="white"/>
<path d="M827.77 268.676H595.371C592.609 268.676 590.371 270.914 590.371 273.676V400.025C590.371 402.787 592.609 405.025 595.371 405.025H827.77C830.532 405.025 832.77 402.787 832.77 400.025V273.676C832.77 270.914 830.532 268.676 827.77 268.676Z" fill="#6C63FF"/>
<path d="M953.902 268.676H871.593C868.832 268.676 866.593 270.914 866.593 273.676V315.6C866.593 318.361 868.832 320.6 871.593 320.6H953.902C956.664 320.6 958.902 318.361 958.902 315.6V273.676C958.902 270.914 956.664 268.676 953.902 268.676Z" fill="#E6E6E6"/>
<path d="M953.902 337.027H871.593C868.832 337.027 866.593 339.265 866.593 342.027V383.951C866.593 386.712 868.832 388.951 871.593 388.951H953.902C956.664 388.951 958.902 386.712 958.902 383.951V342.027C958.902 339.265 956.664 337.027 953.902 337.027Z" fill="#E6E6E6"/>
<path d="M953.902 405.378H871.593C868.832 405.378 866.593 407.617 866.593 410.378V452.302C866.593 455.063 868.832 457.302 871.593 457.302H953.902C956.664 457.302 958.902 455.063 958.902 452.302V410.378C958.902 407.617 956.664 405.378 953.902 405.378Z" fill="#E6E6E6"/>
<path d="M754.873 427.927H592.871C591.49 427.927 590.371 429.046 590.371 430.427V436.701C590.371 438.082 591.49 439.201 592.871 439.201H754.873C756.253 439.201 757.373 438.082 757.373 436.701V430.427C757.373 429.046 756.253 427.927 754.873 427.927Z" fill="#E6E6E6"/>
<path d="M737.161 334.716C738.827 335.678 738.827 338.084 737.161 339.046L694.433 363.715C692.766 364.677 690.683 363.475 690.683 361.55L690.683 312.212C690.683 310.288 692.766 309.085 694.433 310.047L737.161 334.716Z" fill="white"/>
<path fill-rule="evenodd" clip-rule="evenodd" d="M550 195.5C544.477 195.5 540 199.977 540 205.5V214.847V476.448C540 481.971 544.477 486.448 550 486.448H985.397C990.92 486.448 995.397 481.971 995.397 476.448L995.397 214.847L995.397 205.5C995.397 200.84 992.21 196.925 987.897 195.815C987.098 195.609 986.26 195.5 985.397 195.5H550ZM1101.32 287.758C1114 284.45 1120.62 298.786 1120.62 298.786C1129.44 303.197 1124.2 326.63 1121.45 324.425C1118.69 322.219 1116.21 325.803 1116.21 325.803L1116.19 325.603C1115.53 326.714 1114.76 327.752 1113.9 328.703C1113.27 333.755 1113.04 341.4 1116.34 346.155L1116.34 346.151C1141.38 353.416 1147.06 370.074 1149.57 377.415C1149.9 378.389 1150.18 379.199 1150.44 379.801C1150.53 380.029 1150.58 380.314 1150.59 380.65C1151.81 387.393 1159.76 432.021 1157.05 432.701C1156.54 432.827 1155.6 433.107 1154.37 433.472L1156.31 467.232C1156.31 467.232 1166.6 491.478 1152.64 490.743C1138.68 490.008 1147.5 466.497 1147.5 466.497L1135.91 437.601C1134.83 437.604 1134 437.457 1133.54 437.109C1132.56 436.374 1130.43 431.06 1128.04 424.304C1126.72 438.776 1136.38 480.985 1140.88 484.865L1137.89 485.015L1140.15 500.294C1140.15 500.294 1137.21 544.377 1136.48 546.581C1135.74 548.785 1133.54 559.806 1133.54 559.806L1121.05 612.706C1121.05 612.706 1120.96 612.717 1120.81 612.734C1120.68 612.748 1120.5 612.766 1120.27 612.784L1118.63 620.998H1119.4C1119.4 620.998 1124.91 633.387 1127.2 634.305C1129.5 635.223 1136.84 645.318 1128.12 645.318C1122.74 645.249 1117.49 643.658 1112.98 640.729C1112.98 640.729 1112.06 636.599 1107.93 636.14C1103.8 635.682 1101.05 630.634 1101.05 630.634L1105.53 622.359C1105.66 622.126 1105.84 621.931 1106.07 621.795C1106.3 621.659 1106.56 621.587 1106.83 621.586C1107.09 621.586 1107.36 621.657 1107.58 621.792C1107.73 621.876 1107.85 621.983 1107.96 622.108L1110.34 611.082C1109.31 610.417 1108.49 609.515 1108.03 608.297L1108.56 576.705L1107.82 540.704L1099.01 499.56L1083.58 555.398C1083.58 555.398 1082.84 573.766 1080.64 580.378C1078.43 586.991 1075.5 615.644 1075.5 615.644C1075.5 615.644 1075.08 615.743 1074.41 615.878L1075.53 621.465C1075.73 621.535 1075.92 621.656 1076.06 621.818C1076.23 622.004 1076.33 622.234 1076.37 622.481L1077.91 634.047C1077.91 634.047 1077.4 637.629 1074.33 638.653C1071.25 639.676 1072.79 642.235 1072.79 642.235C1072.79 642.235 1070.74 646.84 1060 644.793C1049.25 642.746 1060 632 1061.02 630.977C1061.79 630.209 1063.13 625.411 1063.97 622.413C1064.25 621.414 1064.47 620.614 1064.6 620.23C1064.8 619.641 1065.37 619.504 1066 619.559L1066.38 616.399C1065.88 616.245 1065.54 616.003 1065.42 615.644C1064.68 613.44 1060.8 561.276 1060.8 553.194C1060.8 546.756 1058.06 496.27 1056.95 476.001C1052.6 473.258 1051.63 470.388 1055.13 467.967C1060.53 464.234 1061.86 446.039 1061.01 426.456C1060.42 426.471 1059.81 426.485 1059.19 426.497L1047.58 455.477C1047.58 455.477 1056.39 478.988 1042.43 479.722C1028.47 480.457 1038.76 456.211 1038.76 456.211L1040.5 426.054C1039.09 425.878 1037.98 425.649 1037.29 425.353C1032.17 423.159 1050.36 372.166 1050.51 371.722L1050.51 371.719C1057.13 344.535 1086.79 342.555 1086.79 342.555C1087.97 340.856 1090.38 336.913 1090.75 332.738C1084.73 329.521 1080.64 323.179 1080.64 315.881C1080.64 314.515 1080.78 313.183 1081.05 311.898C1080.84 309.468 1080.52 304.58 1080.92 300.991C1081.47 296.029 1088.64 291.066 1101.32 287.758Z" fill="url(#paint1_linear)"/>
</g>
</g>
<defs>
<filter id="filter0_d" x="520" y="155.5" width="680.69" height="510" filterUnits="userSpaceOnUse" color-interpolation-filters="sRGB">
<feFlood flood-opacity="0" result="BackgroundImageFix"/>
<feColorMatrix in="SourceAlpha" type="matrix" values="0 0 0 0 0 0 0 0 0 0 0 0 0 0 0 0 0 0 127 0"/>
<feOffset dx="10" dy="-10"/>
<feGaussianBlur stdDeviation="15"/>
<feColorMatrix type="matrix" values="0 0 0 0 0.517647 0 0 0 0 0.517647 0 0 0 0 0.6 0 0 0 0.05 0"/>
<feBlend mode="normal" in2="BackgroundImageFix" result="effect1_dropShadow"/>
<feBlend mode="normal" in="SourceGraphic" in2="effect1_dropShadow" result="shape"/>
</filter>
<linearGradient id="paint0_linear" x1="686" y1="-199.5" x2="1549.99" y2="380.766" gradientUnits="userSpaceOnUse">
<stop stop-color="white" stop-opacity="0.2"/>
<stop offset="1" stop-color="white" stop-opacity="0"/>
</linearGradient>
<linearGradient id="paint1_linear" x1="540" y1="645.318" x2="1117.65" y2="488.911" gradientUnits="userSpaceOnUse">
<stop stop-color="white" stop-opacity="0.2"/>
<stop offset="1" stop-color="white" stop-opacity="0"/>
</linearGradient>
<clipPath id="clip0">
<rect width="1236" height="695" fill="white" transform="translate(0 0.5)"/>
</clipPath>
<clipPath id="clip1">
<rect width="620.69" height="450" fill="white" transform="translate(540 195.5)"/>
</clipPath>
</defs>
</svg>
