<svg width="1236" height="695" viewBox="0 0 1236 695" fill="none" xmlns="http://www.w3.org/2000/svg">
<g clip-path="url(#clip0)">
<rect width="1236" height="695" fill="white"/>
<path d="M106.25 326.5V333H79.15V298H105.6V304.5H87.2V312.1H103.45V318.4H87.2V326.5H106.25ZM128.995 305.7C132.328 305.7 135.012 306.7 137.045 308.7C139.112 310.7 140.145 313.667 140.145 317.6V333H132.345V318.8C132.345 316.667 131.878 315.083 130.945 314.05C130.012 312.983 128.662 312.45 126.895 312.45C124.928 312.45 123.362 313.067 122.195 314.3C121.028 315.5 120.445 317.3 120.445 319.7V333H112.645V306.1H120.095V309.25C121.128 308.117 122.412 307.25 123.945 306.65C125.478 306.017 127.162 305.7 128.995 305.7ZM147.715 306.1H155.515V333H147.715V306.1ZM151.615 302.35C150.182 302.35 149.015 301.933 148.115 301.1C147.215 300.267 146.765 299.233 146.765 298C146.765 296.767 147.215 295.733 148.115 294.9C149.015 294.067 150.182 293.65 151.615 293.65C153.049 293.65 154.215 294.05 155.115 294.85C156.015 295.65 156.465 296.65 156.465 297.85C156.465 299.15 156.015 300.233 155.115 301.1C154.215 301.933 153.049 302.35 151.615 302.35ZM197.704 305.7C201.071 305.7 203.738 306.7 205.704 308.7C207.704 310.667 208.704 313.633 208.704 317.6V333H200.904V318.8C200.904 316.667 200.454 315.083 199.554 314.05C198.688 312.983 197.438 312.45 195.804 312.45C193.971 312.45 192.521 313.05 191.454 314.25C190.388 315.417 189.854 317.167 189.854 319.5V333H182.054V318.8C182.054 314.567 180.354 312.45 176.954 312.45C175.154 312.45 173.721 313.05 172.654 314.25C171.588 315.417 171.054 317.167 171.054 319.5V333H163.254V306.1H170.704V309.2C171.704 308.067 172.921 307.2 174.354 306.6C175.821 306 177.421 305.7 179.154 305.7C181.054 305.7 182.771 306.083 184.304 306.85C185.838 307.583 187.071 308.667 188.004 310.1C189.104 308.7 190.488 307.617 192.154 306.85C193.854 306.083 195.704 305.7 197.704 305.7ZM257.556 306.1L246.206 333H238.156L226.856 306.1H234.906L242.356 324.4L250.056 306.1H257.556ZM261.239 306.1H269.039V333H261.239V306.1ZM265.139 302.35C263.705 302.35 262.539 301.933 261.639 301.1C260.739 300.267 260.289 299.233 260.289 298C260.289 296.767 260.739 295.733 261.639 294.9C262.539 294.067 263.705 293.65 265.139 293.65C266.572 293.65 267.739 294.05 268.639 294.85C269.539 295.65 269.989 296.65 269.989 297.85C269.989 299.15 269.539 300.233 268.639 301.1C267.739 301.933 266.572 302.35 265.139 302.35ZM294.128 331.7C293.361 332.267 292.411 332.7 291.278 333C290.178 333.267 289.011 333.4 287.778 333.4C284.578 333.4 282.094 332.583 280.328 330.95C278.594 329.317 277.728 326.917 277.728 323.75V312.7H273.578V306.7H277.728V300.15H285.528V306.7H292.228V312.7H285.528V323.65C285.528 324.783 285.811 325.667 286.378 326.3C286.978 326.9 287.811 327.2 288.878 327.2C290.111 327.2 291.161 326.867 292.028 326.2L294.128 331.7ZM309.856 305.7C314.023 305.7 317.223 306.7 319.456 308.7C321.69 310.667 322.806 313.65 322.806 317.65V333H315.506V329.65C314.04 332.15 311.306 333.4 307.306 333.4C305.24 333.4 303.44 333.05 301.906 332.35C300.406 331.65 299.256 330.683 298.456 329.45C297.656 328.217 297.256 326.817 297.256 325.25C297.256 322.75 298.19 320.783 300.056 319.35C301.956 317.917 304.873 317.2 308.806 317.2H315.006C315.006 315.5 314.49 314.2 313.456 313.3C312.423 312.367 310.873 311.9 308.806 311.9C307.373 311.9 305.956 312.133 304.556 312.6C303.19 313.033 302.023 313.633 301.056 314.4L298.256 308.95C299.723 307.917 301.473 307.117 303.506 306.55C305.573 305.983 307.69 305.7 309.856 305.7ZM309.256 328.15C310.59 328.15 311.773 327.85 312.806 327.25C313.84 326.617 314.573 325.7 315.006 324.5V321.75H309.656C306.456 321.75 304.856 322.8 304.856 324.9C304.856 325.9 305.24 326.7 306.006 327.3C306.806 327.867 307.89 328.15 309.256 328.15ZM357.009 319.65C357.009 319.75 356.959 320.45 356.859 321.75H336.509C336.875 323.417 337.742 324.733 339.109 325.7C340.475 326.667 342.175 327.15 344.209 327.15C345.609 327.15 346.842 326.95 347.909 326.55C349.009 326.117 350.025 325.45 350.959 324.55L355.109 329.05C352.575 331.95 348.875 333.4 344.009 333.4C340.975 333.4 338.292 332.817 335.959 331.65C333.625 330.45 331.825 328.8 330.559 326.7C329.292 324.6 328.659 322.217 328.659 319.55C328.659 316.917 329.275 314.55 330.509 312.45C331.775 310.317 333.492 308.667 335.659 307.5C337.859 306.3 340.309 305.7 343.009 305.7C345.642 305.7 348.025 306.267 350.159 307.4C352.292 308.533 353.959 310.167 355.159 312.3C356.392 314.4 357.009 316.85 357.009 319.65ZM343.059 311.6C341.292 311.6 339.809 312.1 338.609 313.1C337.409 314.1 336.675 315.467 336.409 317.2H349.659C349.392 315.5 348.659 314.15 347.459 313.15C346.259 312.117 344.792 311.6 343.059 311.6ZM404.462 306.1V333H397.062V329.8C396.028 330.967 394.795 331.867 393.362 332.5C391.928 333.1 390.378 333.4 388.712 333.4C385.178 333.4 382.378 332.383 380.312 330.35C378.245 328.317 377.212 325.3 377.212 321.3V306.1H385.012V320.15C385.012 324.483 386.828 326.65 390.462 326.65C392.328 326.65 393.828 326.05 394.962 324.85C396.095 323.617 396.662 321.8 396.662 319.4V306.1H404.462ZM419.638 309.65C420.571 308.35 421.821 307.367 423.388 306.7C424.988 306.033 426.821 305.7 428.888 305.7V312.9C428.021 312.833 427.438 312.8 427.138 312.8C424.905 312.8 423.155 313.433 421.888 314.7C420.621 315.933 419.988 317.8 419.988 320.3V333H412.188V306.1H419.638V309.65ZM450.376 305.7C453.709 305.7 456.392 306.7 458.426 308.7C460.492 310.7 461.526 313.667 461.526 317.6V333H453.726V318.8C453.726 316.667 453.259 315.083 452.326 314.05C451.392 312.983 450.042 312.45 448.276 312.45C446.309 312.45 444.742 313.067 443.576 314.3C442.409 315.5 441.826 317.3 441.826 319.7V333H434.026V306.1H441.476V309.25C442.509 308.117 443.792 307.25 445.326 306.65C446.859 306.017 448.542 305.7 450.376 305.7ZM479.946 305.7C484.113 305.7 487.313 306.7 489.546 308.7C491.779 310.667 492.896 313.65 492.896 317.65V333H485.596V329.65C484.129 332.15 481.396 333.4 477.396 333.4C475.329 333.4 473.529 333.05 471.996 332.35C470.496 331.65 469.346 330.683 468.546 329.45C467.746 328.217 467.346 326.817 467.346 325.25C467.346 322.75 468.279 320.783 470.146 319.35C472.046 317.917 474.963 317.2 478.896 317.2H485.096C485.096 315.5 484.579 314.2 483.546 313.3C482.513 312.367 480.963 311.9 478.896 311.9C477.463 311.9 476.046 312.133 474.646 312.6C473.279 313.033 472.113 313.633 471.146 314.4L468.346 308.95C469.813 307.917 471.563 307.117 473.596 306.55C475.663 305.983 477.779 305.7 479.946 305.7ZM479.346 328.15C480.679 328.15 481.863 327.85 482.896 327.25C483.929 326.617 484.663 325.7 485.096 324.5V321.75H479.746C476.546 321.75 474.946 322.8 474.946 324.9C474.946 325.9 475.329 326.7 476.096 327.3C476.896 327.867 477.979 328.15 479.346 328.15ZM95.95 395.7C95.1833 396.267 94.2333 396.7 93.1 397C92 397.267 90.8333 397.4 89.6 397.4C86.4 397.4 83.9167 396.583 82.15 394.95C80.4167 393.317 79.55 390.917 79.55 387.75V376.7H75.4V370.7H79.55V364.15H87.35V370.7H94.05V376.7H87.35V387.65C87.35 388.783 87.6333 389.667 88.2 390.3C88.8 390.9 89.6333 391.2 90.7 391.2C91.9333 391.2 92.9833 390.867 93.85 390.2L95.95 395.7ZM100.829 370.1H108.629V397H100.829V370.1ZM104.729 366.35C103.295 366.35 102.129 365.933 101.229 365.1C100.329 364.267 99.8785 363.233 99.8785 362C99.8785 360.767 100.329 359.733 101.229 358.9C102.129 358.067 103.295 357.65 104.729 357.65C106.162 357.65 107.329 358.05 108.229 358.85C109.129 359.65 109.579 360.65 109.579 361.85C109.579 363.15 109.129 364.233 108.229 365.1C107.329 365.933 106.162 366.35 104.729 366.35ZM132.718 369.7C136.051 369.7 138.734 370.7 140.768 372.7C142.834 374.7 143.868 377.667 143.868 381.6V397H136.068V382.8C136.068 380.667 135.601 379.083 134.668 378.05C133.734 376.983 132.384 376.45 130.618 376.45C128.651 376.45 127.084 377.067 125.918 378.3C124.751 379.5 124.168 381.3 124.168 383.7V397H116.368V370.1H123.818V373.25C124.851 372.117 126.134 371.25 127.668 370.65C129.201 370.017 130.884 369.7 132.718 369.7ZM164.731 397.4C161.864 397.4 159.281 396.817 156.981 395.65C154.714 394.45 152.931 392.8 151.631 390.7C150.364 388.6 149.731 386.217 149.731 383.55C149.731 380.883 150.364 378.5 151.631 376.4C152.931 374.3 154.714 372.667 156.981 371.5C159.281 370.3 161.864 369.7 164.731 369.7C167.564 369.7 170.031 370.3 172.131 371.5C174.264 372.667 175.814 374.35 176.781 376.55L170.731 379.8C169.331 377.333 167.314 376.1 164.681 376.1C162.648 376.1 160.964 376.767 159.631 378.1C158.298 379.433 157.631 381.25 157.631 383.55C157.631 385.85 158.298 387.667 159.631 389C160.964 390.333 162.648 391 164.681 391C167.348 391 169.364 389.767 170.731 387.3L176.781 390.6C175.814 392.733 174.264 394.4 172.131 395.6C170.031 396.8 167.564 397.4 164.731 397.4ZM181.772 370.1H189.572V397H181.772V370.1ZM185.672 366.35C184.239 366.35 183.072 365.933 182.172 365.1C181.272 364.267 180.822 363.233 180.822 362C180.822 360.767 181.272 359.733 182.172 358.9C183.072 358.067 184.239 357.65 185.672 357.65C187.105 357.65 188.272 358.05 189.172 358.85C190.072 359.65 190.522 360.65 190.522 361.85C190.522 363.15 190.072 364.233 189.172 365.1C188.272 365.933 187.105 366.35 185.672 366.35ZM224.711 359.9V397H217.261V393.9C215.328 396.233 212.528 397.4 208.861 397.4C206.328 397.4 204.028 396.833 201.961 395.7C199.928 394.567 198.328 392.95 197.161 390.85C195.994 388.75 195.411 386.317 195.411 383.55C195.411 380.783 195.994 378.35 197.161 376.25C198.328 374.15 199.928 372.533 201.961 371.4C204.028 370.267 206.328 369.7 208.861 369.7C212.294 369.7 214.978 370.783 216.911 372.95V359.9H224.711ZM210.211 391C212.178 391 213.811 390.333 215.111 389C216.411 387.633 217.061 385.817 217.061 383.55C217.061 381.283 216.411 379.483 215.111 378.15C213.811 376.783 212.178 376.1 210.211 376.1C208.211 376.1 206.561 376.783 205.261 378.15C203.961 379.483 203.311 381.283 203.311 383.55C203.311 385.817 203.961 387.633 205.261 389C206.561 390.333 208.211 391 210.211 391ZM259.53 370.1V397H252.13V393.8C251.097 394.967 249.863 395.867 248.43 396.5C246.997 397.1 245.447 397.4 243.78 397.4C240.247 397.4 237.447 396.383 235.38 394.35C233.313 392.317 232.28 389.3 232.28 385.3V370.1H240.08V384.15C240.08 388.483 241.897 390.65 245.53 390.65C247.397 390.65 248.897 390.05 250.03 388.85C251.163 387.617 251.73 385.8 251.73 383.4V370.1H259.53ZM283.606 369.7C286.94 369.7 289.623 370.7 291.656 372.7C293.723 374.7 294.756 377.667 294.756 381.6V397H286.956V382.8C286.956 380.667 286.49 379.083 285.556 378.05C284.623 376.983 283.273 376.45 281.506 376.45C279.54 376.45 277.973 377.067 276.806 378.3C275.64 379.5 275.056 381.3 275.056 383.7V397H267.256V370.1H274.706V373.25C275.74 372.117 277.023 371.25 278.556 370.65C280.09 370.017 281.773 369.7 283.606 369.7ZM319.677 395.7C318.91 396.267 317.96 396.7 316.827 397C315.727 397.267 314.56 397.4 313.327 397.4C310.127 397.4 307.643 396.583 305.877 394.95C304.143 393.317 303.277 390.917 303.277 387.75V376.7H299.127V370.7H303.277V364.15H311.077V370.7H317.777V376.7H311.077V387.65C311.077 388.783 311.36 389.667 311.927 390.3C312.527 390.9 313.36 391.2 314.427 391.2C315.66 391.2 316.71 390.867 317.577 390.2L319.677 395.7ZM350.065 369.7C354.232 369.7 357.432 370.7 359.665 372.7C361.899 374.667 363.015 377.65 363.015 381.65V397H355.715V393.65C354.249 396.15 351.515 397.4 347.515 397.4C345.449 397.4 343.649 397.05 342.115 396.35C340.615 395.65 339.465 394.683 338.665 393.45C337.865 392.217 337.465 390.817 337.465 389.25C337.465 386.75 338.399 384.783 340.265 383.35C342.165 381.917 345.082 381.2 349.015 381.2H355.215C355.215 379.5 354.699 378.2 353.665 377.3C352.632 376.367 351.082 375.9 349.015 375.9C347.582 375.9 346.165 376.133 344.765 376.6C343.399 377.033 342.232 377.633 341.265 378.4L338.465 372.95C339.932 371.917 341.682 371.117 343.715 370.55C345.782 369.983 347.899 369.7 350.065 369.7ZM349.465 392.15C350.799 392.15 351.982 391.85 353.015 391.25C354.049 390.617 354.782 389.7 355.215 388.5V385.75H349.865C346.665 385.75 345.065 386.8 345.065 388.9C345.065 389.9 345.449 390.7 346.215 391.3C347.015 391.867 348.099 392.15 349.465 392.15ZM405.025 369.7C408.391 369.7 411.058 370.7 413.025 372.7C415.025 374.667 416.025 377.633 416.025 381.6V397H408.225V382.8C408.225 380.667 407.775 379.083 406.875 378.05C406.008 376.983 404.758 376.45 403.125 376.45C401.291 376.45 399.841 377.05 398.775 378.25C397.708 379.417 397.175 381.167 397.175 383.5V397H389.375V382.8C389.375 378.567 387.675 376.45 384.275 376.45C382.475 376.45 381.041 377.05 379.975 378.25C378.908 379.417 378.375 381.167 378.375 383.5V397H370.575V370.1H378.025V373.2C379.025 372.067 380.241 371.2 381.675 370.6C383.141 370 384.741 369.7 386.475 369.7C388.375 369.7 390.091 370.083 391.625 370.85C393.158 371.583 394.391 372.667 395.325 374.1C396.425 372.7 397.808 371.617 399.475 370.85C401.175 370.083 403.025 369.7 405.025 369.7ZM450.159 383.65C450.159 383.75 450.109 384.45 450.009 385.75H429.659C430.026 387.417 430.892 388.733 432.259 389.7C433.626 390.667 435.326 391.15 437.359 391.15C438.759 391.15 439.992 390.95 441.059 390.55C442.159 390.117 443.176 389.45 444.109 388.55L448.259 393.05C445.726 395.95 442.026 397.4 437.159 397.4C434.126 397.4 431.442 396.817 429.109 395.65C426.776 394.45 424.976 392.8 423.709 390.7C422.442 388.6 421.809 386.217 421.809 383.55C421.809 380.917 422.426 378.55 423.659 376.45C424.926 374.317 426.642 372.667 428.809 371.5C431.009 370.3 433.459 369.7 436.159 369.7C438.792 369.7 441.176 370.267 443.309 371.4C445.442 372.533 447.109 374.167 448.309 376.3C449.542 378.4 450.159 380.85 450.159 383.65ZM436.209 375.6C434.442 375.6 432.959 376.1 431.759 377.1C430.559 378.1 429.826 379.467 429.559 381.2H442.809C442.542 379.5 441.809 378.15 440.609 377.15C439.409 376.117 437.942 375.6 436.209 375.6ZM473.202 395.7C472.435 396.267 471.485 396.7 470.352 397C469.252 397.267 468.085 397.4 466.852 397.4C463.652 397.4 461.169 396.583 459.402 394.95C457.669 393.317 456.802 390.917 456.802 387.75V376.7H452.652V370.7H456.802V364.15H464.602V370.7H471.302V376.7H464.602V387.65C464.602 388.783 464.885 389.667 465.452 390.3C466.052 390.9 466.885 391.2 467.952 391.2C469.185 391.2 470.235 390.867 471.102 390.2L473.202 395.7Z" fill="#2F2E44"/>
<path d="M92.97 70.99C92.97 71.05 92.94 71.47 92.88 72.25H80.67C80.89 73.25 81.41 74.04 82.23 74.62C83.05 75.2 84.07 75.49 85.29 75.49C86.13 75.49 86.87 75.37 87.51 75.13C88.17 74.87 88.78 74.47 89.34 73.93L91.83 76.63C90.31 78.37 88.09 79.24 85.17 79.24C83.35 79.24 81.74 78.89 80.34 78.19C78.94 77.47 77.86 76.48 77.1 75.22C76.34 73.96 75.96 72.53 75.96 70.93C75.96 69.35 76.33 67.93 77.07 66.67C77.83 65.39 78.86 64.4 80.16 63.7C81.48 62.98 82.95 62.62 84.57 62.62C86.15 62.62 87.58 62.96 88.86 63.64C90.14 64.32 91.14 65.3 91.86 66.58C92.6 67.84 92.97 69.31 92.97 70.99ZM84.6 66.16C83.54 66.16 82.65 66.46 81.93 67.06C81.21 67.66 80.77 68.48 80.61 69.52H88.56C88.4 68.5 87.96 67.69 87.24 67.09C86.52 66.47 85.64 66.16 84.6 66.16ZM106.196 62.62C108.196 62.62 109.806 63.22 111.026 64.42C112.266 65.62 112.886 67.4 112.886 69.76V79H108.206V70.48C108.206 69.2 107.926 68.25 107.366 67.63C106.806 66.99 105.996 66.67 104.936 66.67C103.756 66.67 102.816 67.04 102.116 67.78C101.416 68.5 101.066 69.58 101.066 71.02V79H96.3858V62.86H100.856V64.75C101.476 64.07 102.246 63.55 103.166 63.19C104.086 62.81 105.096 62.62 106.196 62.62ZM134.254 62.86V76.3C134.254 79.26 133.484 81.46 131.944 82.9C130.404 84.34 128.154 85.06 125.194 85.06C123.634 85.06 122.154 84.87 120.754 84.49C119.354 84.11 118.194 83.56 117.274 82.84L119.134 79.48C119.814 80.04 120.674 80.48 121.714 80.8C122.754 81.14 123.794 81.31 124.834 81.31C126.454 81.31 127.644 80.94 128.404 80.2C129.184 79.48 129.574 78.38 129.574 76.9V76.21C128.354 77.55 126.654 78.22 124.474 78.22C122.994 78.22 121.634 77.9 120.394 77.26C119.174 76.6 118.204 75.68 117.484 74.5C116.764 73.32 116.404 71.96 116.404 70.42C116.404 68.88 116.764 67.52 117.484 66.34C118.204 65.16 119.174 64.25 120.394 63.61C121.634 62.95 122.994 62.62 124.474 62.62C126.814 62.62 128.594 63.39 129.814 64.93V62.86H134.254ZM125.404 74.38C126.644 74.38 127.654 74.02 128.434 73.3C129.234 72.56 129.634 71.6 129.634 70.42C129.634 69.24 129.234 68.29 128.434 67.57C127.654 66.83 126.644 66.46 125.404 66.46C124.164 66.46 123.144 66.83 122.344 67.57C121.544 68.29 121.144 69.24 121.144 70.42C121.144 71.6 121.544 72.56 122.344 73.3C123.144 74.02 124.164 74.38 125.404 74.38ZM138.91 56.74H143.59V79H138.91V56.74ZM148.233 62.86H152.913V79H148.233V62.86ZM150.573 60.61C149.713 60.61 149.013 60.36 148.473 59.86C147.933 59.36 147.663 58.74 147.663 58C147.663 57.26 147.933 56.64 148.473 56.14C149.013 55.64 149.713 55.39 150.573 55.39C151.433 55.39 152.133 55.63 152.673 56.11C153.213 56.59 153.483 57.19 153.483 57.91C153.483 58.69 153.213 59.34 152.673 59.86C152.133 60.36 151.433 60.61 150.573 60.61ZM162.986 79.24C161.646 79.24 160.336 79.08 159.056 78.76C157.776 78.42 156.756 78 155.996 77.5L157.556 74.14C158.276 74.6 159.146 74.98 160.166 75.28C161.186 75.56 162.186 75.7 163.166 75.7C165.146 75.7 166.136 75.21 166.136 74.23C166.136 73.77 165.866 73.44 165.326 73.24C164.786 73.04 163.956 72.87 162.836 72.73C161.516 72.53 160.426 72.3 159.566 72.04C158.706 71.78 157.956 71.32 157.316 70.66C156.696 70 156.386 69.06 156.386 67.84C156.386 66.82 156.676 65.92 157.256 65.14C157.856 64.34 158.716 63.72 159.836 63.28C160.976 62.84 162.316 62.62 163.856 62.62C164.996 62.62 166.126 62.75 167.246 63.01C168.386 63.25 169.326 63.59 170.066 64.03L168.506 67.36C167.086 66.56 165.536 66.16 163.856 66.16C162.856 66.16 162.106 66.3 161.606 66.58C161.106 66.86 160.856 67.22 160.856 67.66C160.856 68.16 161.126 68.51 161.666 68.71C162.206 68.91 163.066 69.1 164.246 69.28C165.566 69.5 166.646 69.74 167.486 70C168.326 70.24 169.056 70.69 169.676 71.35C170.296 72.01 170.606 72.93 170.606 74.11C170.606 75.11 170.306 76 169.706 76.78C169.106 77.56 168.226 78.17 167.066 78.61C165.926 79.03 164.566 79.24 162.986 79.24ZM183.604 62.62C185.604 62.62 187.214 63.22 188.434 64.42C189.674 65.62 190.294 67.4 190.294 69.76V79H185.614V70.48C185.614 69.2 185.334 68.25 184.774 67.63C184.214 66.99 183.404 66.67 182.344 66.67C181.164 66.67 180.224 67.04 179.524 67.78C178.824 68.5 178.474 69.58 178.474 71.02V79H173.794V56.74H178.474V64.54C179.094 63.92 179.844 63.45 180.724 63.13C181.604 62.79 182.564 62.62 183.604 62.62ZM204.646 62.62C206.646 62.62 208.256 63.22 209.476 64.42C210.716 65.62 211.336 67.4 211.336 69.76V79H206.656V70.48C206.656 69.2 206.376 68.25 205.816 67.63C205.256 66.99 204.446 66.67 203.386 66.67C202.206 66.67 201.266 67.04 200.566 67.78C199.866 68.5 199.516 69.58 199.516 71.02V79H194.836V62.86H199.306V64.75C199.926 64.07 200.696 63.55 201.616 63.19C202.536 62.81 203.546 62.62 204.646 62.62ZM231.864 70.99C231.864 71.05 231.834 71.47 231.774 72.25H219.564C219.784 73.25 220.304 74.04 221.124 74.62C221.944 75.2 222.964 75.49 224.184 75.49C225.024 75.49 225.764 75.37 226.404 75.13C227.064 74.87 227.674 74.47 228.234 73.93L230.724 76.63C229.204 78.37 226.984 79.24 224.064 79.24C222.244 79.24 220.634 78.89 219.234 78.19C217.834 77.47 216.754 76.48 215.994 75.22C215.234 73.96 214.854 72.53 214.854 70.93C214.854 69.35 215.224 67.93 215.964 66.67C216.724 65.39 217.754 64.4 219.054 63.7C220.374 62.98 221.844 62.62 223.464 62.62C225.044 62.62 226.474 62.96 227.754 63.64C229.034 64.32 230.034 65.3 230.754 66.58C231.494 67.84 231.864 69.31 231.864 70.99ZM223.494 66.16C222.434 66.16 221.544 66.46 220.824 67.06C220.104 67.66 219.664 68.48 219.504 69.52H227.454C227.294 68.5 226.854 67.69 226.134 67.09C225.414 66.47 224.534 66.16 223.494 66.16ZM239.75 64.99C240.31 64.21 241.06 63.62 242 63.22C242.96 62.82 244.06 62.62 245.3 62.62V66.94C244.78 66.9 244.43 66.88 244.25 66.88C242.91 66.88 241.86 67.26 241.1 68.02C240.34 68.76 239.96 69.88 239.96 71.38V79H235.28V62.86H239.75V64.99ZM264.676 56.74V79H260.206V77.14C259.046 78.54 257.366 79.24 255.166 79.24C253.646 79.24 252.266 78.9 251.026 78.22C249.806 77.54 248.846 76.57 248.146 75.31C247.446 74.05 247.096 72.59 247.096 70.93C247.096 69.27 247.446 67.81 248.146 66.55C248.846 65.29 249.806 64.32 251.026 63.64C252.266 62.96 253.646 62.62 255.166 62.62C257.226 62.62 258.836 63.27 259.996 64.57V56.74H264.676ZM255.976 75.4C257.156 75.4 258.136 75 258.916 74.2C259.696 73.38 260.086 72.29 260.086 70.93C260.086 69.57 259.696 68.49 258.916 67.69C258.136 66.87 257.156 66.46 255.976 66.46C254.776 66.46 253.786 66.87 253.006 67.69C252.226 68.49 251.836 69.57 251.836 70.93C251.836 72.29 252.226 73.38 253.006 74.2C253.786 75 254.776 75.4 255.976 75.4ZM271.078 79.24C270.258 79.24 269.568 78.96 269.008 78.4C268.448 77.84 268.168 77.14 268.168 76.3C268.168 75.44 268.448 74.75 269.008 74.23C269.568 73.69 270.258 73.42 271.078 73.42C271.898 73.42 272.588 73.69 273.148 74.23C273.708 74.75 273.988 75.44 273.988 76.3C273.988 77.14 273.708 77.84 273.148 78.4C272.588 78.96 271.898 79.24 271.078 79.24ZM284.934 79.24C283.234 79.24 281.704 78.89 280.344 78.19C279.004 77.47 277.954 76.48 277.194 75.22C276.434 73.96 276.054 72.53 276.054 70.93C276.054 69.33 276.434 67.9 277.194 66.64C277.954 65.38 279.004 64.4 280.344 63.7C281.704 62.98 283.234 62.62 284.934 62.62C286.634 62.62 288.154 62.98 289.494 63.7C290.834 64.4 291.884 65.38 292.644 66.64C293.404 67.9 293.784 69.33 293.784 70.93C293.784 72.53 293.404 73.96 292.644 75.22C291.884 76.48 290.834 77.47 289.494 78.19C288.154 78.89 286.634 79.24 284.934 79.24ZM284.934 75.4C286.134 75.4 287.114 75 287.874 74.2C288.654 73.38 289.044 72.29 289.044 70.93C289.044 69.57 288.654 68.49 287.874 67.69C287.114 66.87 286.134 66.46 284.934 66.46C283.734 66.46 282.744 66.87 281.964 67.69C281.184 68.49 280.794 69.57 280.794 70.93C280.794 72.29 281.184 73.38 281.964 74.2C282.744 75 283.734 75.4 284.934 75.4ZM301.682 64.99C302.242 64.21 302.992 63.62 303.932 63.22C304.892 62.82 305.992 62.62 307.232 62.62V66.94C306.712 66.9 306.362 66.88 306.182 66.88C304.842 66.88 303.792 67.26 303.032 68.02C302.272 68.76 301.892 69.88 301.892 71.38V79H297.212V62.86H301.682V64.99ZM326.819 62.86V76.3C326.819 79.26 326.049 81.46 324.509 82.9C322.969 84.34 320.719 85.06 317.759 85.06C316.199 85.06 314.719 84.87 313.319 84.49C311.919 84.11 310.759 83.56 309.839 82.84L311.699 79.48C312.379 80.04 313.239 80.48 314.279 80.8C315.319 81.14 316.359 81.31 317.399 81.31C319.019 81.31 320.209 80.94 320.969 80.2C321.749 79.48 322.139 78.38 322.139 76.9V76.21C320.919 77.55 319.219 78.22 317.039 78.22C315.559 78.22 314.199 77.9 312.959 77.26C311.739 76.6 310.769 75.68 310.049 74.5C309.329 73.32 308.969 71.96 308.969 70.42C308.969 68.88 309.329 67.52 310.049 66.34C310.769 65.16 311.739 64.25 312.959 63.61C314.199 62.95 315.559 62.62 317.039 62.62C319.379 62.62 321.159 63.39 322.379 64.93V62.86H326.819ZM317.969 74.38C319.209 74.38 320.219 74.02 320.999 73.3C321.799 72.56 322.199 71.6 322.199 70.42C322.199 69.24 321.799 68.29 320.999 67.57C320.219 66.83 319.209 66.46 317.969 66.46C316.729 66.46 315.709 66.83 314.909 67.57C314.109 68.29 313.709 69.24 313.709 70.42C313.709 71.6 314.109 72.56 314.909 73.3C315.709 74.02 316.729 74.38 317.969 74.38Z" fill="#848499"/>
<g filter="url(#filter0_d)">
<path fill-rule="evenodd" clip-rule="evenodd" d="M1023.38 609.581C910.6 625.609 791.917 590.248 705.165 503.495C618.413 416.743 583.051 298.061 599.08 185.278L1023.38 609.581Z" fill="#FF99B0"/>
<path fill-rule="evenodd" clip-rule="evenodd" d="M657.437 31.5023L1177.16 551.224C1130.02 582.455 1077.38 601.907 1023.38 609.581L599.08 185.278C606.754 131.283 626.206 78.6414 657.437 31.5023Z" fill="#FF8CA6"/>
<path fill-rule="evenodd" clip-rule="evenodd" d="M763.502 -74.5635L1283.22 445.158C1269.57 465.772 1253.66 485.333 1235.5 503.495C1217.33 521.657 1197.77 537.567 1177.16 551.224L657.436 31.5025C671.093 10.8887 687.003 -8.67279 705.165 -26.8348C723.327 -44.9968 742.888 -60.9063 763.502 -74.5635Z" fill="#FF809C"/>
<path fill-rule="evenodd" clip-rule="evenodd" d="M917.278 -132.92L1341.58 291.383C1333.91 345.377 1314.45 398.019 1283.22 445.158L763.503 -74.5635C810.642 -105.794 863.284 -125.246 917.278 -132.92Z" fill="#FF7392"/>
<path fill-rule="evenodd" clip-rule="evenodd" d="M1341.58 291.382C1357.6 178.646 1322.28 60.0155 1235.6 -26.7273L1235.39 -26.9436C1148.64 -113.617 1030.01 -148.943 917.278 -132.921L1341.58 291.382Z" fill="#FF6688"/>
<circle cx="970.33" cy="238.33" r="375" transform="rotate(-45 970.33 238.33)" fill="url(#paint0_linear)"/>
</g>
<g filter="url(#filter1_d)">
<path d="M1025.75 400.053L1022.72 409.151C1022.72 409.151 1003.76 431.139 1017.41 434.172C1031.06 437.205 1032.58 410.668 1032.58 410.668L1036.37 403.086L1025.75 400.053Z" fill="#FFB8B8"/>
<path d="M1046.98 290.112C1046.98 290.112 1042.43 289.354 1040.92 307.551C1039.4 325.748 1038.64 357.593 1038.64 357.593L1021.2 402.327L1043.19 409.151L1053.81 358.351L1046.98 290.112Z" fill="#575A89"/>
<path d="M1037.13 560.794L1034.85 575.2H1055.32L1054.56 560.794H1037.13Z" fill="#FFB8B8"/>
<path d="M1103.09 576.717L1101.57 596.43L1115.22 597.947V575.2L1103.09 576.717Z" fill="#FFB8B8"/>
<path d="M1045.47 372.757L1028.03 472.841L1032.58 563.827H1056.08V481.182L1078.83 438.722L1097.02 491.797L1101.57 580.507L1127.35 575.958L1121.29 489.522C1121.29 489.522 1116.74 374.273 1112.19 372.757C1107.64 371.241 1045.47 372.757 1045.47 372.757Z" fill="#333244"/>
<path d="M1039.4 570.651C1039.4 570.651 1039.4 563.068 1033.33 567.618C1027.27 572.167 1019.69 580.507 1019.69 580.507C1019.69 580.507 990.874 596.43 1011.35 598.704C1031.82 600.979 1044.71 588.089 1044.71 588.089L1046.98 590.364C1046.98 590.364 1059.11 588.089 1059.11 585.057C1059.03 582.515 1058.77 579.983 1058.36 577.474C1058.36 577.474 1056.76 564.613 1054.9 567.253C1053.05 569.892 1042.43 575.2 1039.4 570.651Z" fill="#333244"/>
<path d="M1115.98 591.881C1115.98 591.881 1102.33 585.057 1099.3 591.123C1096.27 597.189 1093.99 609.32 1093.99 609.32C1093.99 609.32 1084.13 628.275 1101.57 626.759C1119.01 625.242 1118.25 615.386 1118.25 613.111C1118.25 610.836 1117.5 605.529 1118.25 603.254C1119.01 600.98 1115.98 591.881 1115.98 591.881Z" fill="#333244"/>
<path d="M1086.03 260.162C1097.76 260.162 1107.26 250.657 1107.26 238.932C1107.26 227.207 1097.76 217.702 1086.03 217.702C1074.31 217.702 1064.8 227.207 1064.8 238.932C1064.8 250.657 1074.31 260.162 1086.03 260.162Z" fill="#FFB8B8"/>
<path d="M1072 249.168L1071.24 276.464L1098.54 274.189V249.168H1072Z" fill="#FFB8B8"/>
<path d="M1100.06 260.542C1100.06 260.542 1087.17 268.882 1083.38 270.399C1079.59 271.915 1071.25 264.333 1071.25 264.333C1071.25 264.333 1068.97 265.849 1068.97 267.366C1068.97 268.882 1067.45 274.948 1067.45 274.948L1049.26 334.847L1050.77 377.307C1050.77 377.307 1106.12 382.614 1112.19 375.79C1118.25 368.966 1109.16 271.157 1109.16 271.157L1100.06 260.542Z" fill="#E6E6E6"/>
<path d="M1150.1 440.996C1141.76 446.304 1114.46 453.128 1114.46 453.128C1114.46 453.128 1111.48 388.945 1100.82 378.823C1090.21 368.746 1072.89 296.102 1088.46 283.47C1088.53 283.405 1088.61 283.344 1088.68 283.288L1098.54 260.542C1098.54 260.542 1100.06 258.267 1103.09 261.3C1105.54 263.929 1107.82 266.715 1109.91 269.64L1110.35 269.814L1131.14 277.98L1122.8 315.133C1122.8 315.133 1158.44 435.689 1150.1 440.996Z" fill="#575A89"/>
<path opacity="0.1" d="M1110.35 269.814L1104.61 290.87L1088.46 283.47C1088.53 283.405 1088.61 283.344 1088.68 283.288L1098.54 260.542C1098.54 260.542 1100.06 258.267 1103.09 261.3C1105.54 263.929 1107.82 266.715 1109.91 269.64L1110.35 269.814Z" fill="black"/>
<path d="M1070.87 263.953L1068.59 289.732L1068.47 290.908L1051.15 455.781C1051.15 455.781 1035.99 450.474 1030.68 444.408C1025.37 438.342 1042.81 370.861 1042.81 370.861L1044.33 285.941C1044.33 285.941 1057.78 276.471 1063.28 271.27C1064.57 270.057 1065.41 269.079 1065.56 268.502C1066.32 265.47 1070.87 263.953 1070.87 263.953Z" fill="#575A89"/>
<path opacity="0.1" d="M1070.87 263.953L1068.59 289.732L1068.47 290.908L1057.6 289.353L1063.28 271.27C1064.57 270.057 1065.41 269.079 1065.56 268.502C1066.32 265.47 1070.87 263.953 1070.87 263.953Z" fill="black"/>
<path d="M1111.43 391.712L1103.09 399.294C1103.09 399.294 1106.88 415.217 1111.43 415.975C1111.43 415.975 1114.46 411.425 1115.22 407.634C1115.98 403.843 1122.8 400.052 1122.8 400.052L1111.43 391.712Z" fill="#FFB8B8"/>
<path d="M1121.29 276.464L1131.14 277.98C1131.14 277.98 1163.75 333.33 1159.96 353.043C1156.17 372.757 1125.84 406.877 1125.84 406.877L1106.88 391.712L1134.93 353.802L1120.53 308.309L1121.29 276.464Z" fill="#575A89"/>
<path d="M1064.75 241.317C1064.75 241.317 1064.75 222.594 1069.3 218.339H1074.76C1074.76 218.339 1081.13 208.978 1089.32 212.382C1097.51 215.786 1111.16 221.743 1110.25 231.105C1109.34 240.466 1106.5 246.515 1106.5 246.515C1106.5 246.515 1104.99 246.515 1101.61 241.425C1097.09 234.625 1107.52 236.745 1093.87 234.192C1080.22 231.639 1072.03 228.235 1070.21 231.639C1068.39 235.043 1064.75 241.317 1064.75 241.317Z" fill="#2F2E41"/>
<path d="M1074.67 219.61C1074.67 219.61 1075.4 214.138 1078.39 212.96L1074.67 219.61Z" fill="#2F2E41"/>
<path d="M1074.66 220.736C1074.66 220.736 1073.14 215.429 1075.41 213.153L1074.66 220.736Z" fill="#2F2E41"/>
<path d="M960.244 174H546C540.477 174 536 178.477 536 184V440.05C536 445.573 540.477 450.05 546 450.05H960.244C965.767 450.05 970.244 445.573 970.244 440.05V184C970.244 178.477 965.767 174 960.244 174Z" fill="#EBEEF2"/>
<path d="M970.244 195.235V187.651H956.891V174H951.086V187.651H555.158V174H549.352V187.651H536V195.235H549.352V428.816H536V436.4H549.352V450.05H555.158V436.4H951.086V450.05H956.891V436.4H970.244V428.816H956.891V195.235H970.244ZM951.086 428.816H555.158V195.235H951.086L951.086 428.816Z" fill="#D0D4D9"/>
<path d="M871.1 210.395H791.676C788.914 210.395 786.676 212.633 786.676 215.395V290.458C786.676 293.219 788.914 295.458 791.676 295.458H871.1C873.862 295.458 876.1 293.219 876.1 290.458V215.395C876.1 212.633 873.862 210.395 871.1 210.395Z" fill="#C2C6CC"/>
<path d="M863.438 220.556H799.338C797.957 220.556 796.838 221.675 796.838 223.056V270.897C796.838 272.278 797.957 273.397 799.338 273.397H863.438C864.819 273.397 865.938 272.278 865.938 270.897V223.056C865.938 221.675 864.819 220.556 863.438 220.556Z" fill="#6C63FF"/>
<path d="M833.768 229.24H814.543C813.163 229.24 812.043 230.36 812.043 231.74V250.965C812.043 252.346 813.163 253.465 814.543 253.465H833.768C835.149 253.465 836.268 252.346 836.268 250.965V231.74C836.268 230.36 835.149 229.24 833.768 229.24Z" fill="#F2F2F2"/>
<path d="M823.817 235.298C822.436 235.298 821.317 236.417 821.317 237.798V262.214C821.317 263.595 822.436 264.714 823.817 264.714H848.233C849.614 264.714 850.733 263.595 850.733 262.214V237.798C850.733 236.417 849.614 235.298 848.233 235.298H823.817ZM849.457 260.938C849.457 262.319 848.338 263.438 846.957 263.438H825.093C823.712 263.438 822.593 262.319 822.593 260.938V239.074C822.593 237.693 823.712 236.574 825.093 236.574H846.957C848.338 236.574 849.457 237.693 849.457 239.074V260.938Z" fill="#3F3D56"/>
<path d="M833.366 278.643H797.758C797.212 278.643 796.769 279.085 796.769 279.632C796.769 280.178 797.212 280.621 797.758 280.621H833.366C833.913 280.621 834.355 280.178 834.355 279.632C834.355 279.085 833.913 278.643 833.366 278.643Z" fill="#F2F2F2"/>
<path d="M831.388 219.297C833.573 219.297 835.344 217.525 835.344 215.34C835.344 213.155 833.573 211.384 831.388 211.384C829.203 211.384 827.432 213.155 827.432 215.34C827.432 217.525 829.203 219.297 831.388 219.297Z" fill="#3F3D56"/>
<path d="M904.827 333.081H825.402C822.641 333.081 820.402 335.32 820.402 338.081V413.144C820.402 415.906 822.641 418.144 825.402 418.144H904.827C907.588 418.144 909.827 415.906 909.827 413.144V338.081C909.827 335.32 907.588 333.081 904.827 333.081Z" fill="#C2C6CC"/>
<path d="M897.165 343.243H833.064C831.683 343.243 830.564 344.362 830.564 345.743V393.585C830.564 394.966 831.683 396.085 833.064 396.085H897.165C898.546 396.085 899.665 394.966 899.665 393.585V345.743C899.665 344.362 898.546 343.243 897.165 343.243Z" fill="#6C63FF"/>
<path d="M867.093 402.319H831.485C830.939 402.319 830.496 402.762 830.496 403.308C830.496 403.855 830.939 404.298 831.485 404.298H867.093C867.639 404.298 868.082 403.855 868.082 403.308C868.082 402.762 867.639 402.319 867.093 402.319Z" fill="#F2F2F2"/>
<path d="M867.093 408.254H831.485C830.939 408.254 830.496 408.697 830.496 409.243C830.496 409.789 830.939 410.232 831.485 410.232H867.093C867.639 410.232 868.082 409.789 868.082 409.243C868.082 408.697 867.639 408.254 867.093 408.254Z" fill="#F2F2F2"/>
<path d="M842.859 377.591C847.23 377.591 850.772 374.049 850.772 369.679C850.772 365.308 847.23 361.766 842.859 361.766C838.489 361.766 834.947 365.308 834.947 369.679C834.947 374.049 838.489 377.591 842.859 377.591Z" fill="#3F3D56"/>
<path d="M865.114 377.591C869.485 377.591 873.027 374.049 873.027 369.679C873.027 365.308 869.485 361.766 865.114 361.766C860.744 361.766 857.202 365.308 857.202 369.679C857.202 374.049 860.744 377.591 865.114 377.591Z" fill="#F2F2F2"/>
<path d="M887.369 377.591C891.74 377.591 895.282 374.049 895.282 369.679C895.282 365.308 891.74 361.766 887.369 361.766C882.999 361.766 879.457 365.308 879.457 369.679C879.457 374.049 882.999 377.591 887.369 377.591Z" fill="#FF6584"/>
<path d="M865.114 341.983C867.3 341.983 869.071 340.212 869.071 338.027C869.071 335.842 867.3 334.07 865.114 334.07C862.929 334.07 861.158 335.842 861.158 338.027C861.158 340.212 862.929 341.983 865.114 341.983Z" fill="#3F3D56"/>
<path d="M767.968 306.503H688.543C685.782 306.503 683.543 308.742 683.543 311.503V386.566C683.543 389.328 685.782 391.566 688.543 391.566H767.968C770.729 391.566 772.968 389.328 772.968 386.566V311.503C772.968 308.742 770.729 306.503 767.968 306.503Z" fill="#C2C6CC"/>
<path d="M760.306 316.665H696.205C694.825 316.665 693.705 317.784 693.705 319.165V367.007C693.705 368.388 694.825 369.507 696.205 369.507H760.306C761.687 369.507 762.806 368.388 762.806 367.007V319.165C762.806 317.784 761.687 316.665 760.306 316.665Z" fill="#6C63FF"/>
<path d="M723.654 366.039C732.92 366.039 740.431 358.527 740.431 349.262C740.431 339.997 732.92 332.485 723.654 332.485C714.389 332.485 706.878 339.997 706.878 349.262C706.878 358.527 714.389 366.039 723.654 366.039Z" fill="#F2F2F2"/>
<path d="M728.599 362.202C724.439 362.202 720.372 360.968 716.913 358.657C713.454 356.346 710.758 353.061 709.166 349.217C707.574 345.374 707.158 341.144 707.969 337.064C708.781 332.984 710.784 329.236 713.726 326.295C716.668 323.353 720.415 321.35 724.496 320.538C728.576 319.726 732.805 320.143 736.649 321.735C740.492 323.327 743.777 326.023 746.088 329.482C748.4 332.941 749.633 337.008 749.633 341.168C749.627 346.744 747.409 352.091 743.466 356.034C739.522 359.977 734.176 362.195 728.599 362.202ZM728.599 320.899C724.59 320.899 720.672 322.087 717.338 324.315C714.005 326.542 711.407 329.707 709.873 333.411C708.339 337.115 707.937 341.19 708.72 345.122C709.502 349.054 711.432 352.666 714.267 355.5C717.101 358.335 720.713 360.265 724.645 361.047C728.577 361.829 732.652 361.428 736.356 359.894C740.06 358.36 743.225 355.762 745.452 352.429C747.68 349.095 748.868 345.177 748.868 341.168C748.862 335.794 746.725 330.642 742.925 326.842C739.125 323.042 733.973 320.905 728.599 320.899Z" fill="#3F3D56"/>
<path d="M730.234 380.687H694.626C694.079 380.687 693.637 381.129 693.637 381.676C693.637 382.222 694.079 382.665 694.626 382.665H730.234C730.78 382.665 731.223 382.222 731.223 381.676C731.223 381.129 730.78 380.687 730.234 380.687Z" fill="#F2F2F2"/>
<path d="M745.07 374.752H694.626C694.079 374.752 693.637 375.195 693.637 375.741C693.637 376.287 694.079 376.73 694.626 376.73H745.07C745.617 376.73 746.059 376.287 746.059 375.741C746.059 375.195 745.617 374.752 745.07 374.752Z" fill="#F2F2F2"/>
<path d="M728.255 315.405C730.441 315.405 732.212 313.634 732.212 311.449C732.212 309.264 730.441 307.492 728.255 307.492C726.07 307.492 724.299 309.264 724.299 311.449C724.299 313.634 726.07 315.405 728.255 315.405Z" fill="#3F3D56"/>
<path d="M669.681 208.878H590.256C587.495 208.878 585.256 211.117 585.256 213.878V288.941C585.256 291.703 587.495 293.941 590.256 293.941H669.681C672.442 293.941 674.681 291.703 674.681 288.941V213.878C674.681 211.117 672.442 208.878 669.681 208.878Z" fill="#C2C6CC"/>
<path d="M662.019 219.04H597.918C596.537 219.04 595.418 220.159 595.418 221.54V269.382C595.418 270.763 596.537 271.882 597.918 271.882H662.019C663.4 271.882 664.519 270.763 664.519 269.382V221.54C664.519 220.159 663.4 219.04 662.019 219.04Z" fill="#6C63FF"/>
<path d="M635.199 260.407H624.738C623.522 260.407 622.536 261.393 622.536 262.61C622.536 263.826 623.522 264.812 624.738 264.812H635.199C636.415 264.812 637.401 263.826 637.401 262.61C637.401 261.393 636.415 260.407 635.199 260.407Z" fill="#3F3D56"/>
<path d="M654.429 226.109H605.508C604.987 226.109 604.564 226.532 604.564 227.053C604.564 227.575 604.987 227.997 605.508 227.997H654.429C654.95 227.997 655.373 227.575 655.373 227.053C655.373 226.532 654.95 226.109 654.429 226.109Z" fill="#3F3D56"/>
<path d="M654.429 232.088H605.508C604.987 232.088 604.564 232.511 604.564 233.032C604.564 233.553 604.987 233.976 605.508 233.976H654.429C654.95 233.976 655.373 233.553 655.373 233.032C655.373 232.511 654.95 232.088 654.429 232.088Z" fill="#3F3D56"/>
<path d="M654.429 238.066H605.508C604.987 238.066 604.564 238.489 604.564 239.01C604.564 239.532 604.987 239.954 605.508 239.954H654.429C654.95 239.954 655.373 239.532 655.373 239.01C655.373 238.489 654.95 238.066 654.429 238.066Z" fill="#3F3D56"/>
<path d="M654.429 244.045H605.508C604.987 244.045 604.564 244.468 604.564 244.989C604.564 245.51 604.987 245.933 605.508 245.933H654.429C654.95 245.933 655.373 245.51 655.373 244.989C655.373 244.468 654.95 244.045 654.429 244.045Z" fill="#3F3D56"/>
<path d="M654.429 250.023H605.508C604.987 250.023 604.564 250.446 604.564 250.967C604.564 251.489 604.987 251.911 605.508 251.911H654.429C654.95 251.911 655.373 251.489 655.373 250.967C655.373 250.446 654.95 250.023 654.429 250.023Z" fill="#3F3D56"/>
<path d="M631.947 277.126H596.339C595.792 277.126 595.35 277.569 595.35 278.115C595.35 278.661 595.792 279.104 596.339 279.104H631.947C632.493 279.104 632.936 278.661 632.936 278.115C632.936 277.569 632.493 277.126 631.947 277.126Z" fill="#F2F2F2"/>
<path d="M646.783 282.072H596.339C595.792 282.072 595.35 282.515 595.35 283.061C595.35 283.608 595.792 284.05 596.339 284.05H646.783C647.33 284.05 647.772 283.608 647.772 283.061C647.772 282.515 647.33 282.072 646.783 282.072Z" fill="#F2F2F2"/>
<path d="M629.969 217.78C632.154 217.78 633.925 216.009 633.925 213.824C633.925 211.639 632.154 209.867 629.969 209.867C627.784 209.867 626.012 211.639 626.012 213.824C626.012 216.009 627.784 217.78 629.969 217.78Z" fill="#3F3D56"/>
<path fill-rule="evenodd" clip-rule="evenodd" d="M549.352 174H546C540.477 174 536 178.477 536 184V187.651V195.235V428.816V436.4V440.05C536 445.573 540.477 450.05 546 450.05H549.352H555.158H951.086H956.891H960.244C965.767 450.05 970.244 445.573 970.244 440.05V436.4V428.816V195.235V187.651V184C970.244 178.477 965.767 174 960.244 174H956.891H951.086H555.158H549.352ZM1065.05 236.124C1065.01 237.573 1065.01 238.472 1065.01 238.472L1065.16 238.209C1065.7 243.625 1068.27 248.443 1072.1 251.886L1071.83 261.778C1071.61 261.594 1071.5 261.488 1071.5 261.488C1071.5 261.488 1071.32 261.609 1071.06 261.816L1071.12 261.109C1071.12 261.109 1070.83 261.203 1070.4 261.393C1069.08 261.962 1066.38 263.383 1065.81 265.658C1065.67 266.234 1064.82 267.212 1063.53 268.425C1058.03 273.627 1044.58 283.097 1044.58 283.097L1044.46 289.682C1043.22 291.942 1041.87 296.303 1041.17 304.706C1039.65 322.903 1038.9 354.748 1038.9 354.748L1021.46 399.483L1024.89 400.549L1022.97 406.306C1022.97 406.306 1004.02 428.294 1017.67 431.327C1031.31 434.36 1032.83 407.823 1032.83 407.823L1034.67 404.138C1031.13 421.257 1028.36 438.624 1030.93 441.564C1031.49 442.201 1032.16 442.831 1032.91 443.447L1028.28 469.996L1032.83 560.982H1036.9L1036.53 563.344C1035.75 563.446 1034.79 563.871 1033.59 564.773C1027.52 569.322 1019.94 577.663 1019.94 577.663C1019.94 577.663 991.128 593.585 1011.6 595.86C1032.07 598.134 1044.96 585.245 1044.96 585.245L1047.24 587.519C1047.24 587.519 1059.37 585.245 1059.37 582.212C1059.28 579.671 1059.03 577.138 1058.61 574.63C1058.61 574.63 1057.01 561.769 1055.16 564.408L1054.98 560.982H1056.33V478.337L1079.08 435.877L1097.28 488.952L1101.83 577.663L1103.07 577.444L1102.41 586.039C1101.17 586.383 1100.15 587.079 1099.55 588.278C1096.52 594.343 1094.24 606.475 1094.24 606.475C1094.24 606.475 1084.39 625.43 1101.83 623.914C1118.64 622.452 1118.54 613.24 1118.51 610.54C1118.51 610.44 1118.51 610.348 1118.51 610.266C1118.51 609.595 1118.44 608.661 1118.37 607.619C1118.19 605.126 1117.97 602.013 1118.51 600.409C1119.27 598.134 1116.23 589.036 1116.23 589.036C1116.23 589.036 1115.96 588.898 1115.47 588.678V575.254L1127.61 573.113L1121.54 486.677C1121.54 486.677 1120.88 469.838 1119.8 448.948C1128.11 446.699 1144.27 442.022 1150.35 438.151C1154.06 435.795 1149.09 410.716 1142.42 383.557C1150.27 372.746 1158.37 359.773 1160.21 350.199C1163.99 330.547 1131.6 275.485 1131.4 275.137L1131.4 275.135L1110.6 266.969L1110.17 266.795C1108.34 264.235 1106.36 261.782 1104.25 259.448C1103.95 259.114 1103.65 258.783 1103.34 258.455C1101.07 256.18 1099.65 256.891 1099.08 257.388C1098.89 257.554 1098.79 257.696 1098.79 257.696L1098.79 257.697V253.242C1102.14 250.801 1104.74 247.407 1106.2 243.46C1106.57 243.67 1106.76 243.67 1106.76 243.67C1106.76 243.67 1109.59 237.621 1110.5 228.26C1111.41 218.898 1097.76 212.941 1089.57 209.537C1084.03 207.234 1079.33 210.773 1076.86 213.304L1078.65 210.115C1076.71 210.878 1075.72 213.441 1075.26 215.153C1075.23 215.198 1075.2 215.239 1075.17 215.275L1075.67 210.308C1074.4 211.576 1074.31 213.786 1074.48 215.494H1069.56C1066.38 218.463 1065.42 228.476 1065.13 234.258C1065.08 234.861 1065.05 235.471 1065.05 236.087L1065.05 236.124ZM1135.19 350.957L1134.29 352.173C1130.14 336.82 1126.35 323.594 1124.41 316.918L1135.19 350.957Z" fill="url(#paint1_linear)"/>
</g>
</g>
<defs>
<filter id="filter0_d" x="400" y="-332" width="1160.66" height="1160.66" filterUnits="userSpaceOnUse" color-interpolation-filters="sRGB">
<feFlood flood-opacity="0" result="BackgroundImageFix"/>
<feColorMatrix in="SourceAlpha" type="matrix" values="0 0 0 0 0 0 0 0 0 0 0 0 0 0 0 0 0 0 127 0"/>
<feOffset dx="10" dy="10"/>
<feGaussianBlur stdDeviation="25"/>
<feColorMatrix type="matrix" values="0 0 0 0 1 0 0 0 0 0.4 0 0 0 0 0.533333 0 0 0 0.15 0"/>
<feBlend mode="normal" in2="BackgroundImageFix" result="effect1_dropShadow"/>
<feBlend mode="normal" in="SourceGraphic" in2="effect1_dropShadow" result="shape"/>
</filter>
<filter id="filter1_d" x="516" y="134" width="684.58" height="512.845" filterUnits="userSpaceOnUse" color-interpolation-filters="sRGB">
<feFlood flood-opacity="0" result="BackgroundImageFix"/>
<feColorMatrix in="SourceAlpha" type="matrix" values="0 0 0 0 0 0 0 0 0 0 0 0 0 0 0 0 0 0 127 0"/>
<feOffset dx="10" dy="-10"/>
<feGaussianBlur stdDeviation="15"/>
<feColorMatrix type="matrix" values="0 0 0 0 0.517647 0 0 0 0 0.517647 0 0 0 0 0.6 0 0 0 0.05 0"/>
<feBlend mode="normal" in2="BackgroundImageFix" result="effect1_dropShadow"/>
<feBlend mode="normal" in="SourceGraphic" in2="effect1_dropShadow" result="shape"/>
</filter>
<linearGradient id="paint0_linear" x1="595.33" y1="-136.67" x2="1459.32" y2="443.596" gradientUnits="userSpaceOnUse">
<stop stop-color="white" stop-opacity="0.2"/>
<stop offset="1" stop-color="white" stop-opacity="0"/>
</linearGradient>
<linearGradient id="paint1_linear" x1="536" y1="624" x2="1117.34" y2="465.503" gradientUnits="userSpaceOnUse">
<stop stop-color="white" stop-opacity="0.2"/>
<stop offset="1" stop-color="white" stop-opacity="0"/>
</linearGradient>
<clipPath id="clip0">
<rect width="1236" height="695" fill="white"/>
</clipPath>
</defs>
</svg>
