<svg width="1600" height="900" viewBox="0 0 1600 900" fill="none" xmlns="http://www.w3.org/2000/svg">
<rect width="1600" height="900" fill="#2F2E41"/>
<circle cx="1149" cy="343" r="61.5" stroke="#3C3B51" stroke-width="15"/>
<circle cx="911" cy="386" r="161.5" stroke="#3C3B51" stroke-width="15"/>
<circle cx="771" cy="459" r="202.5" stroke="#3C3B51" stroke-width="15"/>
<circle cx="1031" cy="428" r="129.5" stroke="#3C3B51" stroke-width="15"/>
<circle cx="477" cy="386" r="206.5" stroke="#3C3B51" stroke-width="15"/>
<circle cx="521" cy="582" r="131.5" stroke="#3C3B51" stroke-width="15"/>
<circle cx="1340" cy="172" r="17.5" stroke="#3C3B51" stroke-width="15"/>
<circle cx="1128" cy="111" r="7.5" stroke="#3C3B51" stroke-width="15"/>
<circle cx="1436" cy="266" r="34.5" stroke="#3C3B51" stroke-width="15"/>
<circle cx="1340" cy="555" r="46.5" stroke="#3C3B51" stroke-width="15"/>
<circle cx="1340" cy="555" r="46.5" stroke="#3C3B51" stroke-width="15"/>
<circle cx="1478" cy="756" r="58.5" stroke="#3C3B51" stroke-width="15"/>
<circle cx="1149" cy="775" r="34.5" stroke="#3C3B51" stroke-width="15"/>
<circle cx="832" cy="775" r="7.5" stroke="#3C3B51" stroke-width="15"/>
<circle cx="215" cy="803" r="27.5" stroke="#3C3B51" stroke-width="15"/>
<circle cx="215" cy="704" r="16.5" stroke="#3C3B51" stroke-width="15"/>
<circle cx="1139" cy="334" r="61.5" stroke="#5B5BD9" stroke-width="15"/>
<circle cx="901" cy="377" r="161.5" stroke="#5150A8" stroke-width="15"/>
<circle cx="761" cy="450" r="202.5" fill="#2F2E41" stroke="#5B5BD9" stroke-width="15"/>
<circle cx="1021" cy="419" r="129.5" fill="#2F2E41" stroke="#6666FF" stroke-width="15"/>
<circle cx="467" cy="377" r="206.5" fill="#2F2E41" stroke="#5B5BD9" stroke-width="15"/>
<circle cx="511" cy="573" r="131.5" fill="#2F2E41" stroke="#6666FF" stroke-width="15"/>
<circle cx="1330" cy="163" r="17.5" stroke="#424283" stroke-width="15"/>
<circle cx="1122" cy="104" r="7.5" stroke="#5050B3" stroke-width="15"/>
<circle cx="1426" cy="257" r="34.5" stroke="#5B5BD9" stroke-width="15"/>
<circle cx="1330" cy="546" r="46.5" stroke="#6666FF" stroke-width="15"/>
<circle cx="1330" cy="546" r="46.5" stroke="#5050B3" stroke-width="15"/>
<circle cx="1468" cy="747" r="58.5" stroke="#424283" stroke-width="15"/>
<circle cx="1139" cy="766" r="34.5" stroke="#5B5BD9" stroke-width="15"/>
<circle cx="822" cy="766" r="7.5" stroke="#424283" stroke-width="15"/>
<circle cx="205" cy="794" r="27.5" stroke="#6666FF" stroke-width="15"/>
<circle cx="205" cy="695" r="16.5" stroke="#5050B3" stroke-width="15"/>
<path fill-rule="evenodd" clip-rule="evenodd" d="M198.233 151.802C202.238 149.858 205 145.751 205 141C205 134.373 199.627 129 193 129C186.932 129 181.916 133.504 181.112 139.351C179.776 139.12 178.402 139 177 139C163.745 139 153 149.745 153 163C153 176.255 163.745 187 177 187C190.255 187 201 176.255 201 163C201 158.956 200 155.145 198.233 151.802ZM190 141C190 139.343 191.343 138 193 138C194.657 138 196 139.343 196 141C196 142.657 194.657 144 193 144C191.343 144 190 142.657 190 141ZM186 163C186 167.971 181.971 172 177 172C172.029 172 168 167.971 168 163C168 158.029 172.029 154 177 154C181.971 154 186 158.029 186 163Z" fill="#5151AF"/>
<path d="M511.167 474.171C516.912 475.512 521.612 478.206 525.265 482.253C528.91 486.204 531.01 491.357 531.566 497.713C532.333 506.476 529.557 513.56 523.237 518.965C516.909 524.273 507.293 527.492 494.389 528.621L444.121 533.019L435.274 431.905L482.654 427.76C494.595 426.715 503.998 428.27 510.862 432.424C517.719 436.482 521.505 442.604 522.221 450.789C522.659 455.797 521.891 460.327 519.917 464.382C517.943 468.436 515.026 471.699 511.167 474.171ZM455.342 444.996L457.781 472.874L484.359 470.549C490.908 469.976 495.814 468.383 499.079 465.768C502.431 463.049 503.909 459.426 503.513 454.9C503.109 450.278 501.024 446.967 497.259 444.968C493.581 442.863 488.469 442.098 481.92 442.671L455.342 444.996ZM491.944 513.988C506.485 512.716 513.33 507.217 512.479 497.491C511.629 487.765 503.932 483.538 489.391 484.81L459.057 487.464L461.61 516.642L491.944 513.988ZM620.207 439.888L626.955 517.023L609.766 518.527L608.906 508.704C606.321 512.424 602.945 515.436 598.78 517.741C594.607 519.95 590.017 521.274 585.009 521.712C574.705 522.613 566.319 520.484 559.852 515.325C553.472 510.061 549.789 501.795 548.803 490.528L544.949 446.472L563.005 444.892L566.645 486.493C567.251 493.427 569.247 498.492 572.632 501.689C576.105 504.782 580.73 506.075 586.508 505.57C592.96 505.005 597.891 502.584 601.301 498.308C604.799 493.926 606.22 487.98 605.563 480.468L602.151 441.467L620.207 439.888ZM686.528 433.212C694.04 432.555 700.876 433.606 707.036 436.366C713.293 439.118 718.368 443.332 722.261 449.008C726.154 454.683 728.441 461.421 729.124 469.221C729.806 477.022 728.728 484.103 725.888 490.464C723.04 496.73 718.774 501.761 713.09 505.557C707.502 509.345 700.952 511.568 693.441 512.225C688.145 512.688 683.202 512.199 678.612 510.757C674.118 509.306 670.219 506.882 666.913 503.484L667.785 513.451L650.596 514.955L641.219 407.774L659.275 406.194L662.725 445.629C665.512 441.989 668.9 439.121 672.889 437.025C676.974 434.921 681.521 433.65 686.528 433.212ZM690.067 496.946C696.711 496.365 701.958 493.674 705.808 488.873C709.754 484.064 711.411 478.049 710.779 470.826C710.147 463.604 707.471 457.967 702.75 453.917C698.125 449.858 692.49 448.119 685.846 448.7C681.512 449.079 677.701 450.432 674.411 452.757C671.113 454.987 668.612 458.019 666.91 461.856C665.208 465.692 664.568 470.018 664.989 474.833C665.41 479.647 666.792 483.796 669.134 487.279C671.477 490.761 674.47 493.362 678.114 495.081C681.749 496.703 685.733 497.325 690.067 496.946ZM785.554 424.548C793.066 423.891 799.902 424.943 806.062 427.703C812.319 430.455 817.394 434.668 821.287 440.344C825.18 446.02 827.468 452.758 828.15 460.558C828.832 468.358 827.754 475.439 824.914 481.801C822.066 488.066 817.8 493.097 812.116 496.894C806.528 500.682 799.978 502.904 792.467 503.561C787.171 504.025 782.228 503.535 777.638 502.093C773.144 500.643 769.245 498.218 765.939 494.82L766.811 504.787L749.622 506.291L740.245 399.11L758.301 397.531L761.751 436.965C764.538 433.325 767.926 430.457 771.915 428.361C776 426.257 780.547 424.986 785.554 424.548ZM789.093 488.282C795.737 487.701 800.984 485.01 804.834 480.21C808.78 475.401 810.437 469.385 809.805 462.163C809.173 454.94 806.497 449.304 801.776 445.253C797.151 441.194 791.516 439.455 784.872 440.037C780.538 440.416 776.727 441.768 773.437 444.094C770.139 446.323 767.638 449.356 765.936 453.192C764.234 457.028 763.594 461.354 764.015 466.169C764.436 470.984 765.818 475.132 768.16 478.615C770.503 482.097 773.496 484.698 777.14 486.417C780.775 488.04 784.759 488.661 789.093 488.282ZM839.271 390.447L857.327 388.867L866.704 496.048L848.648 497.627L839.271 390.447ZM959.579 449.496C959.689 450.748 959.748 452.538 959.758 454.866L899.234 460.161C900.791 465.75 903.931 470.036 908.656 473.019C913.468 475.897 919.197 477.045 925.841 476.464C934.316 475.723 941.053 472.319 946.053 466.253L956.704 476.529C953.6 480.973 949.492 484.486 944.381 487.068C939.27 489.65 933.392 491.232 926.748 491.813C918.273 492.555 910.663 491.522 903.916 488.716C897.169 485.911 891.753 481.678 887.667 476.019C883.67 470.256 881.338 463.57 880.673 455.963C880.016 448.451 881.111 441.563 883.959 435.298C886.895 428.927 891.249 423.792 897.021 419.891C902.793 415.989 909.483 413.706 917.09 413.04C924.602 412.383 931.442 413.483 937.611 416.339C943.868 419.091 948.899 423.357 952.704 429.138C956.597 434.813 958.888 441.599 959.579 449.496ZM918.354 427.485C912.576 427.991 907.817 430.154 904.075 433.974C900.422 437.69 898.41 442.427 898.041 448.184L941.809 444.355C940.55 438.837 937.794 434.518 933.543 431.396C929.291 428.275 924.228 426.971 918.354 427.485ZM1004.18 485.039C997.923 485.586 991.736 485.303 985.622 484.188C979.508 483.073 974.561 481.42 970.778 479.228L976.511 464.899C980.18 466.907 984.485 468.422 989.427 469.445C994.456 470.364 999.33 470.617 1004.05 470.204C1014.83 469.26 1019.98 465.948 1019.48 460.266C1019.25 457.57 1017.68 455.814 1014.8 454.999C1012.01 454.176 1007.54 453.548 1001.39 453.116C994.949 452.709 989.652 452.056 985.498 451.158C981.44 450.252 977.784 448.388 974.529 445.568C971.362 442.643 969.534 438.388 969.046 432.802C968.405 425.484 970.929 419.392 976.617 414.528C982.392 409.559 990.48 406.62 1000.88 405.71C1006.18 405.246 1011.53 405.409 1016.93 406.197C1022.33 406.89 1026.8 408.099 1030.35 409.827L1024.62 424.156C1017.73 420.877 1010.2 419.595 1002.01 420.312C996.716 420.775 992.743 421.947 990.094 423.829C987.532 425.605 986.365 427.794 986.592 430.394C986.845 433.283 988.471 435.227 991.469 436.226C994.556 437.12 999.227 437.828 1005.48 438.348C1011.73 438.771 1016.88 439.437 1020.94 440.343C1025 441.25 1028.55 443.073 1031.61 445.814C1034.76 448.547 1036.57 452.657 1037.05 458.146C1037.69 465.369 1035.06 471.421 1029.18 476.302C1023.3 481.183 1014.97 484.095 1004.18 485.039Z" fill="#3C3B51"/>
<path d="M506.767 468.502C512.512 469.843 517.211 472.537 520.865 476.584C524.51 480.535 526.61 485.688 527.166 492.044C527.933 500.807 525.156 507.891 518.837 513.295C512.508 518.604 502.892 521.822 489.988 522.951L439.72 527.349L430.874 426.236L478.253 422.09C490.194 421.046 499.597 422.6 506.462 426.755C513.318 430.812 517.105 436.934 517.821 445.119C518.259 450.127 517.491 454.658 515.517 458.712C513.543 462.766 510.626 466.029 506.767 468.502ZM450.941 439.326L453.38 467.205L479.959 464.88C486.507 464.307 491.414 462.713 494.678 460.098C498.031 457.379 499.509 453.757 499.113 449.231C498.709 444.608 496.624 441.297 492.858 439.298C489.181 437.194 484.068 436.428 477.52 437.001L450.941 439.326ZM487.544 508.319C502.085 507.047 508.93 501.547 508.079 491.821C507.228 482.095 499.532 477.868 484.991 479.14L454.657 481.794L457.21 510.973L487.544 508.319ZM615.806 434.218L622.555 511.353L605.365 512.857L604.506 503.035C601.92 506.754 598.545 509.767 594.38 512.072C590.207 514.28 585.616 515.604 580.609 516.042C570.305 516.944 561.919 514.815 555.451 509.655C549.072 504.391 545.389 496.126 544.403 484.859L540.549 440.802L558.605 439.223L562.244 480.824C562.851 487.757 564.847 492.822 568.231 496.02C571.704 499.112 576.33 500.405 582.107 499.9C588.56 499.336 593.491 496.915 596.901 492.638C600.399 488.256 601.819 482.31 601.162 474.799L597.75 435.798L615.806 434.218ZM682.128 427.542C689.639 426.885 696.475 427.937 702.636 430.697C708.893 433.449 713.968 437.662 717.861 443.338C721.753 449.014 724.041 455.752 724.724 463.552C725.406 471.352 724.327 478.433 721.488 484.795C718.64 491.06 714.373 496.091 708.689 499.888C703.102 503.676 696.552 505.898 689.041 506.555C683.744 507.019 678.801 506.529 674.211 505.087C669.718 503.637 665.818 501.212 662.513 497.814L663.385 507.781L646.196 509.285L636.819 402.104L654.875 400.525L658.325 439.959C661.111 436.319 664.499 433.451 668.488 431.356C672.574 429.251 677.12 427.98 682.128 427.542ZM685.666 491.276C692.311 490.695 697.558 488.004 701.408 483.204C705.353 478.395 707.01 472.379 706.379 465.157C705.747 457.934 703.07 452.298 698.349 448.247C693.725 444.188 688.09 442.449 681.445 443.031C677.112 443.41 673.3 444.762 670.01 447.088C666.712 449.317 664.212 452.35 662.51 456.186C660.808 460.022 660.167 464.348 660.589 469.163C661.01 473.978 662.392 478.127 664.734 481.609C667.076 485.091 670.07 487.692 673.713 489.411C677.348 491.034 681.333 491.656 685.666 491.276ZM781.154 418.879C788.665 418.221 795.501 419.273 801.662 422.033C807.919 424.785 812.994 428.999 816.887 434.674C820.779 440.35 823.067 447.088 823.75 454.888C824.432 462.688 823.353 469.769 820.514 476.131C817.666 482.396 813.399 487.427 807.715 491.224C802.128 495.012 795.578 497.235 788.067 497.892C782.77 498.355 777.827 497.866 773.237 496.424C768.744 494.973 764.844 492.549 761.539 489.151L762.411 499.118L745.222 500.621L735.845 393.441L753.901 391.861L757.351 431.295C760.137 427.655 763.525 424.788 767.514 422.692C771.6 420.588 776.146 419.317 781.154 418.879ZM784.692 482.613C791.337 482.031 796.584 479.341 800.434 474.54C804.379 469.731 806.036 463.716 805.405 456.493C804.773 449.271 802.096 443.634 797.375 439.584C792.751 435.525 787.116 433.786 780.471 434.367C776.138 434.746 772.326 436.099 769.036 438.424C765.738 440.653 763.238 443.686 761.536 447.522C759.834 451.359 759.193 455.684 759.615 460.499C760.036 465.314 761.418 469.463 763.76 472.945C766.102 476.428 769.096 479.028 772.739 480.747C776.374 482.37 780.359 482.992 784.692 482.613ZM834.871 384.777L852.927 383.197L862.304 490.378L844.248 491.958L834.871 384.777ZM955.179 443.826C955.288 445.078 955.348 446.868 955.358 449.196L894.834 454.491C896.39 460.08 899.531 464.366 904.255 467.349C909.068 470.227 914.796 471.376 921.441 470.794C929.915 470.053 936.653 466.649 941.653 460.584L952.304 470.86C949.2 475.304 945.092 478.817 939.981 481.399C934.87 483.981 928.992 485.562 922.347 486.144C913.873 486.885 906.262 485.853 899.515 483.047C892.769 480.241 887.352 476.009 883.267 470.35C879.269 464.586 876.938 457.901 876.272 450.293C875.615 442.782 876.711 435.893 879.559 429.628C882.495 423.258 886.849 418.122 892.621 414.221C898.393 410.32 905.082 408.036 912.69 407.371C920.201 406.714 927.041 407.813 933.211 410.67C939.468 413.422 944.498 417.688 948.303 423.468C952.196 429.144 954.488 435.93 955.179 443.826ZM913.954 421.816C908.176 422.321 903.416 424.484 899.675 428.305C896.022 432.021 894.01 436.757 893.64 442.515L937.408 438.686C936.149 433.168 933.394 428.848 929.142 425.727C924.891 422.605 919.828 421.302 913.954 421.816ZM999.782 479.369C993.522 479.917 987.336 479.633 981.222 478.519C975.108 477.404 970.16 475.75 966.378 473.558L972.111 459.229C975.78 461.237 980.085 462.753 985.026 463.776C990.056 464.694 994.93 464.947 999.648 464.534C1010.43 463.591 1015.58 460.278 1015.08 454.596C1014.84 451.9 1013.28 450.144 1010.4 449.33C1007.61 448.506 1003.14 447.878 996.989 447.446C990.549 447.039 985.252 446.387 981.098 445.489C977.04 444.582 973.384 442.719 970.129 439.898C966.962 436.973 965.134 432.718 964.645 427.133C964.005 419.814 966.529 413.723 972.216 408.858C977.992 403.889 986.08 400.95 996.48 400.04C1001.78 399.577 1007.13 399.739 1012.53 400.528C1017.93 401.22 1022.4 402.43 1025.95 404.157L1020.22 418.486C1013.33 415.207 1005.8 413.926 997.612 414.642C992.316 415.105 988.343 416.278 985.693 418.159C983.132 419.936 981.965 422.124 982.192 424.724C982.445 427.613 984.07 429.557 987.069 430.556C990.155 431.451 994.826 432.158 1001.08 432.678C1007.33 433.102 1012.48 433.767 1016.54 434.674C1020.6 435.58 1024.15 437.404 1027.21 440.145C1030.36 442.877 1032.17 446.988 1032.65 452.477C1033.28 459.699 1030.66 465.751 1024.78 470.632C1018.9 475.513 1010.57 478.426 999.782 479.369Z" fill="white"/>
</svg>
