<svg width="1600" height="900" viewBox="0 0 1600 900" fill="none" xmlns="http://www.w3.org/2000/svg">
<g clip-path="url(#clip0)">
<rect width="1600" height="900" fill="#2F2E41"/>
<path d="M1590 877.5C1560.42 908.8 7.6498 906.172 10.0027 877.498C39.5796 846.201 1592.35 848.828 1590 877.5Z" fill="#414056"/>
<path d="M339.228 762.968L430.15 619.25L339.186 778.624L339.137 795C332.651 794.924 326.23 794.677 319.874 794.257L327.29 583.891L327.193 582.265L327.36 581.955L328.066 562.077L233 404.563L328.164 547.191L328.449 551.401L334.051 392.462L252.324 229.493L334.69 364.534L338.521 35.0964L338.539 34L338.552 35.0789L340.417 294.818L418.511 190.892L340.348 317.189L339.986 459.45L412.446 322.054L339.946 480.365L339.745 559.469L445 368.165L339.662 587.065L339.228 762.968Z" fill="#3C3B51"/>
<path d="M1068.16 843.354L1132.49 741.751L1068.13 854.423L1068.1 866C1063.51 865.947 1058.96 865.772 1054.47 865.475L1059.71 716.754L1059.65 715.604L1059.76 715.385L1060.26 701.332L993 589.975L1060.33 690.808L1060.53 693.784L1064.5 581.42L1006.67 466.206L1064.95 561.676L1067.66 328.775L1067.67 328L1067.68 328.763L1069 512.389L1124.26 438.917L1068.95 528.205L1068.7 628.778L1119.97 531.644L1068.67 643.564L1068.53 699.488L1143 564.242L1068.47 718.997L1068.16 843.354Z" fill="#3C3B51"/>
<path d="M335.228 762.968L426.15 619.25L335.186 778.624L335.137 795C328.651 794.924 322.23 794.677 315.874 794.257L323.29 583.891L323.193 582.265L323.36 581.955L324.066 562.077L229 404.563L324.164 547.191L324.449 551.401L330.051 392.462L248.324 229.493L330.69 364.534L334.521 35.0964L334.539 34L334.552 35.0789L336.417 294.818L414.511 190.892L336.348 317.189L335.986 459.45L408.446 322.054L335.946 480.365L335.745 559.469L441 368.165L335.662 587.065L335.228 762.968Z" fill="#D0CDE1"/>
<path d="M1064.16 843.354L1128.49 741.751L1064.13 854.423L1064.1 866C1059.51 865.947 1054.96 865.772 1050.47 865.475L1055.71 716.754L1055.65 715.604L1055.76 715.385L1056.26 701.332L989 589.975L1056.33 690.808L1056.53 693.784L1060.5 581.42L1002.67 466.206L1060.95 561.676L1063.66 328.775L1063.67 328L1063.68 328.763L1065 512.389L1120.26 438.917L1064.95 528.205L1064.7 628.778L1115.97 531.644L1064.67 643.564L1064.53 699.488L1139 564.242L1064.47 718.997L1064.16 843.354Z" fill="#D0CDE1"/>
<rect x="849" y="762" width="274" height="133" rx="3" fill="#3C3B51"/>
<rect x="1408" y="762" width="173" height="133" rx="3" fill="#3C3B51"/>
<rect x="1133" y="762" width="265" height="133" rx="3" fill="#3C3B51" fill-opacity="0.98"/>
<rect x="1306" y="619" width="221" height="133" rx="3" fill="#3C3B51"/>
<rect x="1071" y="619" width="225" height="133" rx="3" fill="#3C3B51"/>
<rect x="86" y="619" width="240" height="133" rx="3" fill="#3C3B51"/>
<rect x="37" y="762" width="208" height="133" rx="3" fill="#3C3B51"/>
<rect x="255" y="762" width="136" height="133" rx="3" fill="#3C3B51"/>
<rect x="-181" y="762" width="208" height="133" rx="3" fill="#3C3B51"/>
<rect x="-164" y="619" width="240" height="133" rx="3" fill="#3C3B51"/>
<rect x="1537" y="619" width="179" height="133" rx="3" fill="#3C3B51"/>
<rect x="1591" y="762" width="162" height="133" rx="3" fill="#3C3B51"/>
<path d="M654.798 634H654.818C655.124 634 655.426 633.907 655.706 633.728C655.985 633.548 656.235 633.286 656.44 632.957C656.644 632.629 656.799 632.243 656.893 631.823C656.988 631.403 657.02 630.959 656.988 630.52L626.897 219.819C626.841 219.047 626.589 218.333 626.19 217.813C625.792 217.293 625.274 217.004 624.737 217H624.727C624.191 217 623.674 217.285 623.275 217.799C622.875 218.314 622.62 219.023 622.559 219.791L604.343 441.775L608.734 442.784L624.64 248.905L652.391 627.668L597.096 615.306L597.086 615.395L590.215 613.929L590.014 616.379C589.979 616.817 590.009 617.261 590.101 617.682C590.192 618.103 590.345 618.492 590.547 618.823C590.75 619.153 590.998 619.419 591.276 619.602C591.554 619.785 591.856 619.882 592.162 619.886L654.798 634Z" fill="#3C3B51"/>
<rect x="394.687" y="399" width="457.267" height="171.566" rx="3" transform="rotate(12.3472 394.687 399)" fill="#3C3B51"/>
<rect x="388.687" y="390.141" width="457.267" height="171.566" rx="3" transform="rotate(12.3472 388.687 390.141)" fill="#6666FF"/>
<path d="M482.657 502.571C485.813 504.429 488.098 506.895 489.514 509.969C490.942 512.984 491.233 516.426 490.386 520.294C489.218 525.628 486.262 529.311 481.518 531.343C476.787 533.317 470.494 533.445 462.64 531.725L432.044 525.028L445.516 463.485L474.353 469.798C481.621 471.389 486.904 474.05 490.202 477.781C493.514 481.454 494.624 485.782 493.533 490.764C492.866 493.812 491.573 496.354 489.653 498.391C487.733 500.427 485.401 501.821 482.657 502.571ZM454.982 474.955L451.268 491.923L467.445 495.464C471.43 496.337 474.632 496.3 477.05 495.356C479.54 494.365 481.086 492.492 481.689 489.737C482.305 486.924 481.682 484.577 479.821 482.695C478.032 480.768 475.145 479.368 471.159 478.496L454.982 474.955ZM463.899 522.604C472.75 524.541 477.823 522.55 479.119 516.63C480.415 510.71 476.637 506.782 467.787 504.844L449.324 500.803L445.437 518.562L463.899 522.604ZM553.603 502.439L543.326 549.387L532.864 547.097L534.172 541.119C531.952 542.844 529.395 544.004 526.501 544.599C523.62 545.135 520.655 545.07 517.607 544.402C511.336 543.03 506.761 540.216 503.884 535.963C501.079 531.664 500.427 526.085 501.928 519.227L507.798 492.412L518.787 494.818L513.245 520.138C512.321 524.359 512.566 527.729 513.98 530.249C515.465 532.724 517.966 534.347 521.482 535.116C525.409 535.976 528.779 535.454 531.591 533.552C534.474 531.603 536.416 528.343 537.417 523.771L542.613 500.033L553.603 502.439ZM567.992 505.589L578.982 507.994L568.705 554.943L557.715 552.537L567.992 505.589ZM575.224 499.064C573.232 498.628 571.696 497.647 570.617 496.121C569.551 494.537 569.224 492.807 569.634 490.931C570.045 489.055 571.059 487.65 572.676 486.714C574.307 485.72 576.118 485.44 578.111 485.877C580.104 486.313 581.64 487.294 582.718 488.82C583.81 490.287 584.157 491.929 583.759 493.746C583.336 495.681 582.302 497.174 580.659 498.227C579.087 499.234 577.276 499.513 575.224 499.064ZM597.409 492.865L608.399 495.27L594.119 560.506L583.129 558.1L597.409 492.865ZM668.804 508.493L654.524 573.728L643.974 571.419L645.302 565.353C642.997 567.182 640.375 568.359 637.435 568.882C634.554 569.418 631.501 569.334 628.278 568.628C623.765 567.64 619.909 565.752 616.711 562.964C613.572 560.188 611.375 556.759 610.119 552.676C608.876 548.534 608.774 544.09 609.813 539.342C610.852 534.595 612.795 530.628 615.642 527.444C618.489 524.259 621.918 522.061 625.93 520.851C630 519.654 634.292 519.549 638.805 520.537C641.911 521.217 644.638 522.367 646.986 523.986C649.334 525.606 651.186 527.669 652.541 530.177L657.814 506.087L668.804 508.493ZM631.656 559.509C634.293 560.087 636.795 560.02 639.162 559.31C641.541 558.541 643.59 557.178 645.309 555.22C647.027 553.262 648.207 550.818 648.849 547.887C649.49 544.956 649.439 542.243 648.696 539.746C647.953 537.249 646.654 535.184 644.801 533.55C642.96 531.857 640.721 530.722 638.084 530.145C635.446 529.567 632.937 529.663 630.558 530.432C628.191 531.143 626.149 532.477 624.43 534.434C622.712 536.392 621.532 538.837 620.891 541.767C620.249 544.698 620.3 547.411 621.043 549.908C621.787 552.405 623.079 554.5 624.919 556.192C626.773 557.826 629.018 558.932 631.656 559.509ZM718.117 563.326C717.95 564.088 717.654 565.16 717.229 566.541L680.391 558.477C680.279 562.076 681.346 565.197 683.593 567.838C685.912 570.434 689.093 572.175 693.137 573.06C698.295 574.189 702.917 573.419 707.002 570.751L711.41 578.81C708.749 580.869 705.665 582.19 702.159 582.774C698.653 583.357 694.878 583.207 690.834 582.321C685.676 581.192 681.358 579.172 677.88 576.261C674.402 573.35 671.976 569.84 670.603 565.732C669.301 561.577 669.157 557.185 670.171 552.554C671.172 547.983 673.095 544.104 675.942 540.92C678.861 537.689 682.391 535.452 686.532 534.209C690.674 532.966 695.06 532.851 699.69 533.864C704.262 534.865 708.111 536.783 711.237 539.617C714.435 542.405 716.626 545.863 717.811 549.992C719.067 554.075 719.169 558.52 718.117 563.326ZM697.766 542.656C694.249 541.886 691.029 542.287 688.105 543.858C685.253 545.384 683.185 547.818 681.9 551.16L708.54 556.992C708.815 553.49 707.982 550.42 706.041 547.784C704.099 545.148 701.341 543.439 697.766 542.656ZM742.83 551.047C747.073 546.816 753.18 545.573 761.151 547.318L758.861 557.78C757.962 557.399 757.131 557.125 756.369 556.959C752.091 556.022 748.474 556.551 745.519 558.545C742.577 560.481 740.593 563.793 739.566 568.482L734.582 591.253L723.592 588.847L733.869 541.899L744.331 544.189L742.83 551.047Z" fill="#5453AB"/>
<path d="M480.632 497.304C483.788 499.162 486.074 501.627 487.489 504.701C488.917 507.716 489.208 511.158 488.361 515.027C487.194 520.36 484.238 524.043 479.493 526.076C474.762 528.05 468.469 528.177 460.615 526.458L430.019 519.761L443.491 458.218L472.328 464.53C479.596 466.121 484.879 468.782 488.178 472.514C491.489 476.187 492.599 480.515 491.509 485.497C490.841 488.544 489.548 491.087 487.628 493.123C485.708 495.16 483.376 496.553 480.632 497.304ZM452.957 469.687L449.243 486.656L465.42 490.197C469.406 491.069 472.608 491.033 475.026 490.088C477.515 489.098 479.061 487.225 479.664 484.47C480.28 481.657 479.658 479.309 477.797 477.428C476.008 475.501 473.12 474.101 469.134 473.228L452.957 469.687ZM461.875 517.336C470.725 519.274 475.798 517.282 477.094 511.363C478.39 505.443 474.613 501.514 465.762 499.577L447.299 495.535L443.412 513.295L461.875 517.336ZM551.578 497.172L541.301 544.12L530.839 541.83L532.148 535.851C529.928 537.576 527.37 538.737 524.476 539.331C521.595 539.868 518.63 539.802 515.582 539.135C509.311 537.762 504.737 534.949 501.86 530.695C499.054 526.396 498.402 520.818 499.903 513.96L505.773 487.145L516.763 489.551L511.22 514.871C510.296 519.091 510.541 522.461 511.955 524.982C513.44 527.457 515.941 529.079 519.458 529.849C523.385 530.709 526.754 530.187 529.566 528.284C532.45 526.336 534.392 523.076 535.392 518.504L540.588 494.766L551.578 497.172ZM565.967 500.321L576.957 502.727L566.68 549.675L555.69 547.27L565.967 500.321ZM573.2 493.797C571.207 493.361 569.671 492.38 568.593 490.854C567.527 489.269 567.199 487.539 567.61 485.663C568.02 483.788 569.034 482.382 570.652 481.446C572.282 480.452 574.094 480.173 576.087 480.609C578.079 481.045 579.615 482.027 580.694 483.552C581.785 485.02 582.132 486.662 581.734 488.479C581.311 490.413 580.278 491.907 578.635 492.96C577.063 493.967 575.251 494.246 573.2 493.797ZM595.384 487.597L606.374 490.003L592.094 555.238L581.104 552.833L595.384 487.597ZM666.779 503.226L652.499 568.461L641.949 566.152L643.277 560.085C640.973 561.915 638.35 563.091 635.411 563.615C632.529 564.151 629.477 564.066 626.253 563.361C621.74 562.373 617.884 560.485 614.687 557.696C611.548 554.921 609.35 551.492 608.094 547.409C606.851 543.267 606.749 538.822 607.788 534.075C608.827 529.327 610.771 525.361 613.617 522.176C616.464 518.991 619.894 516.794 623.905 515.583C627.975 514.386 632.267 514.281 636.78 515.269C639.887 515.949 642.614 517.099 644.962 518.719C647.31 520.338 649.161 522.402 650.516 524.91L655.79 500.82L666.779 503.226ZM629.631 554.242C632.269 554.819 634.771 554.753 637.137 554.043C639.517 553.274 641.566 551.91 643.284 549.952C645.003 547.994 646.182 545.55 646.824 542.62C647.465 539.689 647.415 536.975 646.671 534.479C645.928 531.982 644.63 529.917 642.776 528.282C640.936 526.59 638.696 525.455 636.059 524.877C633.421 524.3 630.913 524.396 628.533 525.165C626.167 525.875 624.124 527.209 622.406 529.167C620.687 531.125 619.507 533.569 618.866 536.5C618.224 539.43 618.275 542.144 619.019 544.641C619.762 547.137 621.054 549.232 622.895 550.925C624.748 552.559 626.993 553.665 629.631 554.242ZM716.092 558.059C715.925 558.821 715.629 559.892 715.204 561.273L678.366 553.209C678.254 556.809 679.321 559.929 681.568 562.571C683.887 565.167 687.068 566.907 691.113 567.792C696.271 568.921 700.892 568.152 704.977 565.484L709.386 573.543C706.724 575.601 703.64 576.922 700.134 577.506C696.628 578.09 692.853 577.939 688.809 577.054C683.651 575.925 679.333 573.905 675.855 570.994C672.377 568.083 669.952 564.573 668.578 560.464C667.277 556.31 667.133 551.917 668.146 547.287C669.147 542.715 671.071 538.837 673.918 535.652C676.836 532.421 680.366 530.184 684.508 528.941C688.649 527.698 693.035 527.583 697.666 528.597C702.237 529.598 706.086 531.515 709.213 534.349C712.41 537.138 714.602 540.596 715.786 544.725C717.042 548.808 717.144 553.252 716.092 558.059ZM695.741 537.389C692.224 536.619 689.004 537.02 686.081 538.591C683.228 540.116 681.16 542.55 679.876 545.893L706.515 551.724C706.79 548.222 705.957 545.153 704.016 542.517C702.075 539.881 699.316 538.171 695.741 537.389ZM740.806 545.779C745.048 541.549 751.155 540.306 759.127 542.051L756.836 552.513C755.937 552.132 755.107 551.858 754.345 551.691C750.066 550.755 746.449 551.283 743.494 553.278C740.552 555.213 738.568 558.526 737.542 563.215L732.557 585.985L721.568 583.58L731.844 536.631L742.307 538.922L740.806 545.779Z" fill="white"/>
<rect x="841" y="757" width="274" height="133" rx="3" fill="#6767F0"/>
<rect x="841" y="757" width="274" height="133" rx="3" fill="#6767F0"/>
<rect x="1400" y="757" width="173" height="133" rx="3" fill="#6666FF"/>
<rect x="1125" y="757" width="265" height="133" rx="3" fill="#6363F2" fill-opacity="0.98"/>
<rect x="1298" y="614" width="221" height="133" rx="3" fill="#5D5DE8"/>
<rect x="1063" y="614" width="225" height="133" rx="3" fill="#5F5FFA"/>
<rect x="78" y="614" width="240" height="133" rx="3" fill="#5858DB"/>
<rect x="29" y="757" width="208" height="133" rx="3" fill="#5E5EEB"/>
<rect x="247" y="757" width="136" height="133" rx="3" fill="#6B6BFF"/>
<path d="M1325.46 307.669L1344.12 307.669L1344.12 175.208L1325.46 175.208L1325.46 307.669Z" fill="#3C3B51"/>
<path d="M638.272 56.5597L631.938 74.1083L1332.78 327.057L1339.11 309.508L638.272 56.5597Z" fill="#3C3B51"/>
<path d="M1313.33 224.648L1352.51 224.648L1352.51 -58L1313.33 -58L1313.33 224.648Z" fill="#3C3B51"/>
<path d="M640.797 62H620.797V288H640.797V62Z" fill="#3C3B51"/>
<path d="M632.119 93.3768C646.545 93.3768 658.239 81.6828 658.239 67.2576C658.239 52.8323 646.545 41.1383 632.119 41.1383C617.694 41.1383 606 52.8323 606 67.2576C606 81.6828 617.694 93.3768 632.119 93.3768Z" fill="#3C3B51"/>
<path d="M1332.66 346.019C1347.09 346.019 1358.78 334.325 1358.78 319.899C1358.78 305.474 1347.09 293.78 1332.66 293.78C1318.24 293.78 1306.54 305.474 1306.54 319.899C1306.54 334.325 1318.24 346.019 1332.66 346.019Z" fill="#3C3B51"/>
<path d="M1316.66 300.669L1335.32 300.669L1335.32 168.208L1316.66 168.208L1316.66 300.669Z" fill="#848499"/>
<path d="M629.475 49.5597L623.141 67.1083L1323.98 320.057L1330.32 302.508L629.475 49.5597Z" fill="#848499"/>
<path d="M1304.54 217.648L1343.72 217.648L1343.72 -65L1304.54 -65L1304.54 217.648Z" fill="#848499"/>
<path d="M632 55H612V281H632V55Z" fill="#848499"/>
<path d="M623.322 86.3768C637.748 86.3768 649.442 74.6828 649.442 60.2575C649.442 45.8323 637.748 34.1383 623.322 34.1383C608.897 34.1383 597.203 45.8323 597.203 60.2575C597.203 74.6828 608.897 86.3768 623.322 86.3768Z" fill="#848499"/>
<path d="M1323.87 339.019C1338.29 339.019 1349.99 327.325 1349.99 312.899C1349.99 298.474 1338.29 286.78 1323.87 286.78C1309.44 286.78 1297.75 298.474 1297.75 312.899C1297.75 327.325 1309.44 339.019 1323.87 339.019Z" fill="#848499"/>
<rect x="-189" y="757" width="208" height="133" rx="3" fill="#6161F2"/>
<path d="M652.633 629H652.653C652.959 629 653.262 628.907 653.541 628.728C653.82 628.548 654.071 628.286 654.275 627.957C654.48 627.629 654.634 627.243 654.729 626.823C654.823 626.403 654.855 625.959 654.823 625.52L624.733 214.819C624.676 214.047 624.424 213.333 624.026 212.813C623.627 212.293 623.109 212.004 622.572 212H622.563C622.027 212 621.51 212.285 621.11 212.799C620.71 213.314 620.456 214.023 620.395 214.791L602.178 436.775L606.57 437.784L622.475 243.905L650.226 622.668L594.931 610.306L594.922 610.395L588.051 608.929L587.85 611.379C587.815 611.817 587.844 612.261 587.936 612.682C588.028 613.103 588.18 613.492 588.383 613.822C588.585 614.153 588.833 614.419 589.112 614.602C589.39 614.785 589.692 614.882 589.997 614.886L652.633 629Z" fill="#848499"/>
<rect x="-172" y="614" width="240" height="133" rx="3" fill="#5454D1"/>
<rect x="1529" y="614" width="179" height="133" rx="3" fill="#7070FA"/>
<rect x="1583" y="757" width="162" height="133" rx="3" fill="#6666FF"/>
</g>
<defs>
<clipPath id="clip0">
<rect width="1600" height="900" fill="white"/>
</clipPath>
</defs>
</svg>
