<svg xmlns="http://www.w3.org/2000/svg" xmlns:xlink="http://www.w3.org/1999/xlink" width="575" height="520.971" viewBox="0 0 575 520.971">
  <defs>
    <linearGradient id="linear-gradient" x1="0.509" y1="0.997" x2="0.509" y2="-0.003" gradientUnits="objectBoundingBox">
      <stop offset="0" stop-color="gray" stop-opacity="0.251"/>
      <stop offset="0.54" stop-color="gray" stop-opacity="0.122"/>
      <stop offset="1" stop-color="gray" stop-opacity="0.102"/>
    </linearGradient>
    <linearGradient id="linear-gradient-2" x1="0.813" y1="0.841" x2="0.813" y2="-0.159" xlink:href="#linear-gradient"/>
    <linearGradient id="linear-gradient-3" x1="1.78" y1="0.849" x2="1.78" y2="-0.151" xlink:href="#linear-gradient"/>
    <linearGradient id="linear-gradient-4" x1="0.5" y1="1" x2="0.5" y2="0" xlink:href="#linear-gradient"/>
    <linearGradient id="linear-gradient-6" x1="0.5" y1="0.999" x2="0.5" y2="-0.001" xlink:href="#linear-gradient"/>
  </defs>
  <g id="undraw_no_data_qbuo" transform="translate(13.9)">
    <rect id="Прямоугольник_127" data-name="Прямоугольник 127" width="291.588" height="402.88" transform="matrix(0.978, -0.21, 0.21, 0.978, 46.119, 90.401)" fill="#e0e0e0"/>
    <g id="Сгруппировать_51" data-name="Сгруппировать 51" transform="translate(52.369 36.923)" opacity="0.5">
      <rect id="Прямоугольник_128" data-name="Прямоугольник 128" width="281.733" height="389.262" transform="matrix(0.978, -0.21, 0.21, 0.978, 0, 59.105)" fill="url(#linear-gradient)"/>
    </g>
    <rect id="Прямоугольник_129" data-name="Прямоугольник 129" width="274.561" height="380.662" transform="matrix(0.978, -0.21, 0.21, 0.978, 56.473, 98.077)" fill="#fafafa"/>
    <rect id="Прямоугольник_130" data-name="Прямоугольник 130" width="136.206" height="32.994" transform="matrix(0.978, -0.21, 0.21, 0.978, 121.001, 67.354)" fill="url(#linear-gradient-2)"/>
    <path id="Контур_339" data-name="Контур 339" d="M453.461,91.691a19.5,19.5,0,1,0,22.685,15.066A19.269,19.269,0,0,0,453.461,91.691Zm6.452,30.092a11.249,11.249,0,1,1,8.38-13.344,11.116,11.116,0,0,1-8.38,13.344Z" transform="translate(-272.638 -70.133)" fill="url(#linear-gradient-3)"/>
    <rect id="Прямоугольник_131" data-name="Прямоугольник 131" width="133.337" height="31.539" transform="matrix(0.978, -0.21, 0.21, 0.978, 122.107, 65.669)" fill="#6c63ff"/>
    <path id="Контур_340" data-name="Контур 340" d="M453.584,91.691A18.635,18.635,0,1,0,475.716,106a18.635,18.635,0,0,0-22.132-14.312Zm6.165,28.757a10.756,10.756,0,1,1,8.26-12.771,10.756,10.756,0,0,1-8.26,12.771Z" transform="translate(-272.761 -70.133)" fill="#6c63ff"/>
    <rect id="Прямоугольник_132" data-name="Прямоугольник 132" width="291.588" height="402.88" transform="translate(172.069 78.005)" fill="#e0e0e0"/>
    <g id="Сгруппировать_52" data-name="Сгруппировать 52" transform="translate(177 84.817)" opacity="0.5">
      <rect id="Прямоугольник_133" data-name="Прямоугольник 133" width="281.733" height="389.262" fill="url(#linear-gradient-4)"/>
    </g>
    <rect id="Прямоугольник_134" data-name="Прямоугольник 134" width="274.561" height="380.662" transform="translate(180.583 87.686)" fill="#fff"/>
    <rect id="Прямоугольник_135" data-name="Прямоугольник 135" width="136.206" height="32.994" transform="translate(250.12 71.179)" fill="url(#linear-gradient-4)"/>
    <path id="Контур_341" data-name="Контур 341" d="M657.362,118A19.5,19.5,0,1,0,676.4,137.5,19.273,19.273,0,0,0,657.362,118Zm0,30.745A11.249,11.249,0,1,1,668.345,137.5a11.116,11.116,0,0,1-10.982,11.2Z" transform="translate(-339.139 -79.028)" fill="url(#linear-gradient-6)"/>
    <rect id="Прямоугольник_136" data-name="Прямоугольник 136" width="133.337" height="31.539" transform="translate(251.555 69.764)" fill="#6c63ff"/>
    <path id="Контур_342" data-name="Контур 342" d="M657.565,118A18.635,18.635,0,1,0,676.2,136.635,18.635,18.635,0,0,0,657.565,118Zm0,29.391a10.785,10.785,0,1,0,0-.033Z" transform="translate(-339.342 -79.028)" fill="#6c63ff"/>
    <g id="Сгруппировать_53" data-name="Сгруппировать 53" transform="translate(4.33 491.774)" opacity="0.5">
      <rect id="Прямоугольник_137" data-name="Прямоугольник 137" width="2.509" height="14.232" transform="translate(5.858)" fill="#47e6b1"/>
      <rect id="Прямоугольник_138" data-name="Прямоугольник 138" width="2.509" height="14.232" transform="translate(14.232 5.865) rotate(90)" fill="#47e6b1"/>
    </g>
    <g id="Сгруппировать_54" data-name="Сгруппировать 54" transform="translate(295.384)" opacity="0.5">
      <rect id="Прямоугольник_139" data-name="Прямоугольник 139" width="2.509" height="14.232" transform="translate(5.858)" fill="#47e6b1"/>
      <rect id="Прямоугольник_140" data-name="Прямоугольник 140" width="2.509" height="14.232" transform="translate(14.232 5.858) rotate(90)" fill="#47e6b1"/>
    </g>
    <path id="Контур_343" data-name="Контур 343" d="M955.872,829.312a3.076,3.076,0,0,1-1.715-3.716,1.479,1.479,0,0,0,.067-.34h0a1.541,1.541,0,0,0-2.769-1.021h0a1.48,1.48,0,0,0-.173.3,3.076,3.076,0,0,1-3.716,1.715,1.477,1.477,0,0,0-.34-.067h0a1.541,1.541,0,0,0-1.021,2.769h0a1.482,1.482,0,0,0,.3.174,3.076,3.076,0,0,1,1.715,3.716,1.483,1.483,0,0,0-.067.34h0a1.541,1.541,0,0,0,2.769,1.021h0a1.49,1.49,0,0,0,.174-.3,3.076,3.076,0,0,1,3.716-1.715,1.484,1.484,0,0,0,.34.067h0a1.541,1.541,0,0,0,1.021-2.769h0A1.482,1.482,0,0,0,955.872,829.312Z" transform="translate(-441.393 -313.845)" fill="#4d8af0" opacity="0.5"/>
    <path id="Контур_344" data-name="Контур 344" d="M321.462,624.252a3.076,3.076,0,0,1-1.715-3.716,1.481,1.481,0,0,0,.067-.34h0a1.541,1.541,0,0,0-2.769-1.021h0a1.483,1.483,0,0,0-.173.3,3.076,3.076,0,0,1-3.716,1.715,1.483,1.483,0,0,0-.34-.067h0a1.541,1.541,0,0,0-1.021,2.769h0a1.482,1.482,0,0,0,.3.173,3.076,3.076,0,0,1,1.715,3.716,1.479,1.479,0,0,0-.067.34h0a1.541,1.541,0,0,0,2.769,1.021h0a1.49,1.49,0,0,0,.173-.3,3.076,3.076,0,0,1,3.716-1.715,1.483,1.483,0,0,0,.34.067h0a1.541,1.541,0,0,0,1.021-2.769h0A1.482,1.482,0,0,0,321.462,624.252Z" transform="translate(-230.273 -245.605)" fill="#fdd835" opacity="0.5"/>
    <path id="Контур_345" data-name="Контур 345" d="M849.872,124.932a3.076,3.076,0,0,1-1.715-3.716,1.473,1.473,0,0,0,.067-.34h0a1.541,1.541,0,0,0-2.769-1.021h0a1.485,1.485,0,0,0-.174.3,3.076,3.076,0,0,1-3.716,1.715,1.481,1.481,0,0,0-.34-.067h0a1.541,1.541,0,0,0-1.021,2.769h0a1.484,1.484,0,0,0,.3.174,3.076,3.076,0,0,1,1.715,3.716,1.48,1.48,0,0,0-.067.34h0a1.541,1.541,0,0,0,2.769,1.021h0a1.48,1.48,0,0,0,.173-.3,3.076,3.076,0,0,1,3.716-1.715,1.482,1.482,0,0,0,.34.067h0a1.541,1.541,0,0,0,1.021-2.769h0a1.482,1.482,0,0,0-.3-.173Z" transform="translate(-406.118 -79.441)" fill="#fdd835" opacity="0.5"/>
    <circle id="Эллипс_45" data-name="Эллипс 45" cx="5.024" cy="5.024" r="5.024" transform="translate(537.185 204.796)" fill="#f55f44" opacity="0.5"/>
    <circle id="Эллипс_46" data-name="Эллипс 46" cx="5.024" cy="5.024" r="5.024" transform="translate(148.923 493.155)" fill="#f55f44" opacity="0.5"/>
    <circle id="Эллипс_47" data-name="Эллипс 47" cx="5.024" cy="5.024" r="5.024" transform="translate(485.589 313.393)" fill="#f55f44" opacity="0.5"/>
    <circle id="Эллипс_48" data-name="Эллипс 48" cx="5.024" cy="5.024" r="5.024" transform="translate(53.117 59.262)" fill="#4d8af0" opacity="0.5"/>
    <circle id="Эллипс_49" data-name="Эллипс 49" cx="5.024" cy="5.024" r="5.024" transform="translate(0 196.316)" fill="#47e6b1" opacity="0.5"/>
    <text id="you_have_not_left_a_comment_yet" data-name="you have not left
a comment yet" transform="translate(-12.9 231.081)" fill="#2f2e41" font-size="65" font-family="Montserrat-Bold, Montserrat" font-weight="700"><tspan x="0" y="0">you have not left</tspan><tspan x="0" y="79">a comment yet</tspan></text>
  </g>
</svg>
