<svg width="1600" height="900" viewBox="0 0 1600 900" fill="none" xmlns="http://www.w3.org/2000/svg">
<g clip-path="url(#clip0)">
<rect width="1600" height="900" fill="#2F2E41"/>
<rect x="415.793" y="429.95" width="778" height="248" transform="rotate(-11 415.793 429.95)" stroke="#3C3B51" stroke-width="15"/>
<rect x="1198.14" y="686.099" width="535.111" height="210" transform="rotate(-28 1198.14 686.099)" stroke="#3C3B51" stroke-width="15"/>
<rect x="-66.4624" y="-46.1076" width="685" height="210" transform="rotate(15 -66.4624 -46.1076)" stroke="#3C3B51" stroke-width="15"/>
<rect x="774.806" y="669.072" width="319" height="152" transform="rotate(17 774.806 669.072)" stroke="#3C3B51" stroke-width="15"/>
<rect x="1331.5" y="153.85" width="225.817" height="149.315" transform="rotate(28 1331.5 153.85)" stroke="#3C3B51" stroke-width="15"/>
<rect x="787.029" y="28.7274" width="284.459" height="149.315" transform="rotate(-26 787.029 28.7274)" stroke="#3C3B51" stroke-width="15"/>
<rect x="197.068" y="642.871" width="177.737" height="177.737" transform="rotate(6.75415 197.068 642.871)" stroke="#3C3B51" stroke-width="15"/>
<path d="M1369.17 660.738L1376.58 755.895L1362.45 763.406L1287.6 704.105L1303.16 695.831L1360.57 741.757L1354.82 668.367L1369.17 660.738ZM1452.57 678.118C1453.07 679.075 1453.72 680.475 1454.52 682.319L1408.27 706.908C1411.39 710.819 1415.32 713.162 1420.08 713.938C1424.87 714.6 1429.8 713.582 1434.88 710.883C1441.35 707.44 1445.55 702.47 1447.48 695.972L1459.39 700.539C1458.42 705.111 1456.35 709.282 1453.16 713.053C1449.97 716.823 1445.84 720.058 1440.77 722.758C1434.29 726.201 1427.9 727.945 1421.61 727.991C1415.31 728.037 1409.58 726.503 1404.43 723.388C1399.32 720.161 1395.22 715.641 1392.13 709.829C1389.08 704.09 1387.63 698.254 1387.78 692.323C1387.96 686.279 1389.68 680.737 1392.95 675.697C1396.22 670.657 1400.76 666.592 1406.57 663.501C1412.31 660.45 1418.11 659.018 1423.96 659.207C1429.86 659.283 1435.29 660.974 1440.25 664.279C1445.25 667.472 1449.36 672.085 1452.57 678.118ZM1412.44 674.538C1408.02 676.886 1404.97 680.205 1403.29 684.497C1401.65 688.676 1401.64 693.113 1403.29 697.806L1436.73 680.025C1433.87 676.07 1430.23 673.57 1425.81 672.526C1421.38 671.481 1416.93 672.152 1412.44 674.538ZM1467.68 642.898C1468.37 634.605 1473.72 627.798 1483.72 622.477L1490.71 635.611C1489.41 636.016 1488.29 636.473 1487.33 636.982C1481.96 639.838 1478.61 643.65 1477.27 648.418C1475.9 653.112 1476.78 658.402 1479.91 664.288L1495.11 692.874L1481.31 700.209L1449.97 641.273L1463.11 634.289L1467.68 642.898ZM1528.1 598.884C1533.84 595.832 1539.61 594.364 1545.43 594.479C1551.33 594.555 1556.77 596.19 1561.77 599.382C1566.77 602.575 1570.86 607.151 1574.03 613.111C1577.2 619.071 1578.73 625.053 1578.62 631.058C1578.47 636.989 1576.77 642.419 1573.54 647.346C1570.38 652.234 1565.94 656.204 1560.2 659.255C1556.15 661.407 1552.06 662.684 1547.93 663.085C1543.88 663.448 1539.97 662.838 1536.2 661.254L1540.25 668.87L1527.12 675.853L1483.57 593.96L1497.37 586.624L1513.39 616.755C1514.38 612.928 1516.1 609.511 1518.56 606.504C1521.09 603.458 1524.27 600.918 1528.1 598.884ZM1552.37 648.268C1557.45 645.568 1560.71 641.665 1562.14 636.559C1563.66 631.414 1562.94 626.082 1560.01 620.564C1557.08 615.046 1553.05 611.474 1547.94 609.85C1542.91 608.187 1537.85 608.705 1532.77 611.405C1529.46 613.165 1526.89 615.522 1525.06 618.476C1523.2 621.356 1522.24 624.604 1522.18 628.222C1522.12 631.84 1523.07 635.488 1525.02 639.167C1526.98 642.846 1529.47 645.672 1532.51 647.647C1535.54 649.621 1538.79 650.677 1542.26 650.814C1545.69 650.877 1549.06 650.028 1552.37 648.268ZM1621.4 626.712C1616.62 629.255 1611.61 631.114 1606.39 632.289C1601.16 633.464 1596.68 633.818 1592.94 633.353L1592.66 620.051C1596.25 620.409 1600.17 620.161 1604.44 619.309C1608.74 618.343 1612.69 616.902 1616.3 614.985C1624.54 610.604 1627.51 606.242 1625.2 601.901C1624.1 599.841 1622.27 598.973 1619.71 599.298C1617.22 599.585 1613.46 600.592 1608.43 602.321C1603.18 604.167 1598.76 605.434 1595.16 606.12C1591.64 606.768 1588.11 606.521 1584.58 605.379C1581.08 604.125 1578.19 601.364 1575.92 597.096C1572.95 591.504 1572.9 585.82 1575.78 580.044C1578.69 574.156 1584.11 569.099 1592.06 564.874C1596.11 562.722 1600.41 561.049 1604.96 559.853C1609.48 558.585 1613.44 558.038 1616.83 558.214L1617.11 571.516C1610.54 571.233 1604.13 572.754 1597.88 576.08C1593.83 578.231 1591.07 580.5 1589.6 582.885C1588.17 585.158 1587.98 587.288 1589.04 589.274C1590.21 591.482 1592.16 592.477 1594.87 592.26C1597.62 591.93 1601.57 590.918 1606.71 589.223C1611.81 587.455 1616.12 586.247 1619.64 585.6C1623.17 584.952 1626.61 585.202 1629.95 586.348C1633.37 587.455 1636.2 590.106 1638.43 594.3C1641.36 599.819 1641.32 605.505 1638.3 611.359C1635.27 617.213 1629.64 622.331 1621.4 626.712Z" fill="#3C3B51"/>
<path d="M630.562 566.53L617.582 500.514L595.469 561.535L587.213 563.139L544.018 515.7L556.69 580.89L539.04 584.32L519.673 484.685L534.903 481.725L587.31 540.077L613.33 466.48L628.56 463.52L648.069 563.127L630.562 566.53ZM687.37 475.722C698.567 473.546 707.633 474.59 714.567 478.855C721.579 483.007 726.135 490.492 728.238 501.309L736.898 545.861L720.102 549.125L718.304 539.874C716.767 543.619 714.134 546.79 710.404 549.386C706.75 551.868 702.077 553.663 696.384 554.77C690.69 555.876 685.524 555.896 680.885 554.828C676.228 553.665 672.381 551.607 669.344 548.652C666.385 545.583 664.48 541.867 663.632 537.502C662.304 530.67 663.758 524.725 667.994 519.667C672.307 514.496 679.919 510.849 690.831 508.728L710.474 504.91L710.252 503.772C709.22 498.458 706.813 494.691 703.034 492.471C699.349 490.233 694.375 489.723 688.112 490.94C683.842 491.77 679.749 493.255 675.832 495.395C672.01 497.517 668.906 500.041 666.52 502.966L657.028 491.369C660.423 487.558 664.763 484.302 670.048 481.6C675.333 478.899 681.107 476.94 687.37 475.722ZM697.567 541.098C702.026 540.231 705.771 538.469 708.799 535.812C711.905 533.042 713.8 529.621 714.486 525.549L712.77 516.724L694.409 520.293C684.161 522.285 679.691 526.65 681.001 533.387C681.628 536.613 683.407 538.926 686.338 540.326C689.269 541.726 693.012 541.983 697.567 541.098ZM804.619 528.413C802.864 530.527 800.551 532.306 797.68 533.75C794.905 535.176 791.856 536.212 788.535 536.857C780.185 538.481 773.308 537.552 767.905 534.073C762.501 530.593 758.988 524.678 757.365 516.328L750.255 479.747L737.729 482.182L734.962 467.948L747.488 465.514L744.112 448.149L761.904 444.69L765.28 462.055L785.634 458.099L788.401 472.333L768.047 476.289L775.074 512.442C775.793 516.143 777.248 518.815 779.438 520.457C781.61 522.004 784.404 522.446 787.82 521.782C791.806 521.007 794.924 519.318 797.175 516.714L804.619 528.413ZM852.622 524.4C844.746 525.931 837.354 525.645 830.445 523.541C823.537 521.437 817.756 517.785 813.101 512.584C808.428 507.288 805.363 500.892 803.906 493.396C802.449 485.9 802.904 478.869 805.271 472.303C807.639 465.737 811.583 460.194 817.106 455.674C822.723 451.136 829.517 448.092 837.488 446.542C844.984 445.085 851.827 445.331 858.015 447.279C864.299 449.209 869.418 452.744 873.371 457.884L861.256 468.511C858.391 465.424 855.132 463.349 851.479 462.287C847.902 461.111 844.169 460.901 840.278 461.658C833.636 462.949 828.556 466.201 825.04 471.415C821.505 476.533 820.438 482.698 821.84 489.91C823.242 497.122 826.502 502.495 831.621 506.03C836.816 509.451 842.782 510.507 849.519 509.198C853.409 508.442 856.802 506.896 859.696 504.561C862.667 502.112 864.902 498.92 866.402 494.985L881.616 500.3C879.781 506.565 876.321 511.817 871.236 516.055C866.228 520.18 860.023 522.961 852.622 524.4ZM927.753 428.997C937.337 427.134 945.567 428.439 952.444 432.912C959.321 437.386 963.829 445.126 965.968 456.133L974.434 499.688L956.642 503.147L948.619 461.869C947.328 455.227 944.794 450.549 941.017 447.837C937.221 445.03 932.429 444.188 926.641 445.314C920.094 446.586 915.309 449.584 912.289 454.307C909.249 458.936 908.449 464.951 909.888 472.352L917.358 510.783L899.566 514.241L879.037 408.628L896.829 405.17L904.299 443.6C906.632 439.897 909.776 436.824 913.733 434.381C917.766 431.824 922.439 430.03 927.753 428.997ZM1061.85 443.7C1062.09 444.934 1062.33 446.708 1062.59 449.022L1002.95 460.615C1005.08 466.01 1008.65 469.944 1013.66 472.417C1018.75 474.776 1024.57 475.32 1031.11 474.047C1039.46 472.424 1045.81 468.335 1050.15 461.78L1061.81 470.886C1059.19 475.63 1055.47 479.554 1050.66 482.656C1045.85 485.758 1040.17 487.945 1033.62 489.218C1025.27 490.841 1017.59 490.61 1010.59 488.524C1003.59 486.439 997.757 482.796 993.103 477.595C988.524 472.281 985.507 465.876 984.05 458.38C982.611 450.978 982.98 444.013 985.158 437.484C987.412 430.842 991.205 425.279 996.538 420.796C1001.87 416.313 1008.28 413.343 1015.78 411.886C1023.18 410.447 1030.1 410.826 1036.53 413.022C1043.04 415.104 1048.49 418.821 1052.88 424.172C1057.35 429.41 1060.34 435.919 1061.85 443.7ZM1018.55 426.119C1012.85 427.226 1008.35 429.875 1005.03 434.065C1001.78 438.143 1000.28 443.064 1000.51 448.828L1043.64 440.445C1041.81 435.089 1038.62 431.081 1034.06 428.421C1029.51 425.761 1024.34 424.994 1018.55 426.119ZM1090.56 409.757C1094.14 400.79 1102.38 395.053 1115.28 392.544L1118.58 409.482C1117 409.493 1115.6 409.618 1114.37 409.858C1107.44 411.204 1102.43 414.296 1099.33 419.132C1096.21 423.874 1095.39 430.04 1096.87 437.631L1104.03 474.496L1086.24 477.955L1071.47 401.947L1088.41 398.655L1090.56 409.757Z" fill="#3C3B51"/>
<path d="M-30.345 19.5835L-14.6487 23.7893L-37.2954 108.308L-52.9917 104.102L-30.345 19.5835ZM13.2371 62.8372C19.3955 57.2404 27.9483 55.9087 38.8955 58.842L35.0456 73.2101C33.8224 72.6235 32.6875 72.19 31.6411 71.9097C25.7651 70.3352 20.7132 70.8364 16.4855 73.4133C12.2794 75.9098 9.31363 80.3778 7.58817 86.8173L-0.791096 118.089L-15.8837 114.045L1.39248 49.5695L15.7606 53.4194L13.2371 62.8372ZM63.3493 76.2647C69.5077 70.6679 78.0604 69.3362 89.0076 72.2695L85.1577 86.6376C83.9345 86.051 82.7997 85.6175 81.7532 85.3372C75.8772 83.7627 70.8253 84.2639 66.5976 86.8408C62.3915 89.3373 59.4257 93.8053 57.7003 100.245L49.321 131.517L34.2284 127.473L51.5046 62.997L65.8727 66.8469L63.3493 76.2647ZM152.904 125.107C152.623 126.154 152.144 127.621 151.465 129.51L100.875 115.954C100.488 120.941 101.768 125.339 104.716 129.148C107.766 132.899 112.068 135.518 117.622 137.006C124.705 138.904 131.167 138.134 137.006 134.694L142.604 146.159C138.779 148.844 134.416 150.479 129.514 151.063C124.612 151.648 119.385 151.196 113.83 149.708C106.747 147.81 100.886 144.73 96.248 140.467C91.6098 136.205 88.4702 131.179 86.8291 125.391C85.2901 119.543 85.3726 113.44 87.0765 107.081C88.7588 100.802 91.6772 95.5452 95.8317 91.3094C100.088 87.0148 105.13 84.1382 110.956 82.6797C116.782 81.2213 122.874 81.344 129.233 83.0479C135.512 84.7302 140.729 87.6378 144.884 91.7708C149.141 95.8448 151.959 100.784 153.337 106.588C154.817 112.334 154.672 118.507 152.904 125.107ZM125.998 95.1219C121.168 93.8278 116.675 94.1767 112.518 96.1686C108.463 98.1016 105.436 101.346 103.439 105.901L140.024 115.703C140.631 110.862 139.673 106.551 137.149 102.769C134.625 98.9865 130.908 96.4376 125.998 95.1219ZM240.129 113.539L225.473 168.234C219.391 190.934 204.759 199.177 181.577 192.966C175.379 191.305 169.718 188.926 164.596 185.827C159.451 182.81 155.467 179.327 152.643 175.378L162.445 165.84C164.637 168.929 167.683 171.729 171.582 174.241C175.541 176.855 179.734 178.754 184.161 179.941C191.244 181.839 196.867 181.62 201.03 179.285C205.193 176.949 208.159 172.481 209.928 165.881L210.834 162.5C207.503 164.627 203.792 165.919 199.701 166.376C195.61 166.832 191.351 166.468 186.924 165.281C180.807 163.642 175.598 160.866 171.297 156.953C167.099 152.981 164.187 148.232 162.562 142.707C161.017 137.203 161.064 131.392 162.703 125.274C164.343 119.157 167.196 114.141 171.264 110.227C175.435 106.255 180.32 103.638 185.92 102.378C191.601 101.14 197.5 101.34 203.618 102.979C208.287 104.23 212.308 106.127 215.681 108.67C219.135 111.235 221.729 114.432 223.464 118.261L225.761 109.689L240.129 113.539ZM192.648 153.098C198.363 154.629 203.484 154.19 208.012 151.779C212.642 149.31 215.691 145.339 217.157 139.865C218.602 134.472 217.927 129.589 215.13 125.216C212.413 120.865 208.198 117.924 202.483 116.392C196.687 114.839 191.485 115.257 186.876 117.646C182.348 120.056 179.362 123.958 177.917 129.351C176.45 134.824 177.064 139.777 179.759 144.209C182.556 148.582 186.852 151.545 192.648 153.098ZM322.394 135.582L305.118 200.057L290.75 196.207L292.95 187.997C289.758 190.248 286.136 191.693 282.082 192.332C278.05 192.891 273.941 192.609 269.756 191.488C261.143 189.18 254.977 184.983 251.259 178.897C247.643 172.751 247.097 164.97 249.621 155.552L259.488 118.726L274.581 122.77L265.263 157.543C263.71 163.339 263.833 168.031 265.633 171.619C267.534 175.148 270.9 177.559 275.729 178.853C281.122 180.298 285.831 179.791 289.854 177.332C293.98 174.814 296.884 170.416 298.566 164.138L307.301 131.538L322.394 135.582ZM348.884 115.762L363.977 119.806L339.971 209.396L324.879 205.352L348.884 115.762ZM401.882 156.104C411.38 158.649 418.01 162.884 421.771 168.809C425.634 174.676 426.337 182.197 423.878 191.374L413.751 229.165L399.504 225.348L401.607 217.5C399.001 219.821 395.762 221.283 391.891 221.884C388.122 222.427 383.823 222.052 378.993 220.758C374.163 219.464 370.153 217.526 366.962 214.946C363.793 212.285 361.591 209.236 360.355 205.799C359.221 202.303 359.15 198.704 360.142 195.001C361.695 189.206 365.068 185.149 370.262 182.831C375.558 180.454 382.834 180.505 392.091 182.986L408.753 187.45L409.012 186.484C410.219 181.977 409.778 178.149 407.689 175.001C405.679 171.874 402.019 169.599 396.706 168.176C393.084 167.205 389.351 166.809 385.507 166.987C381.744 167.186 378.385 167.968 375.431 169.334L372.459 156.761C376.53 155.091 381.123 154.208 386.239 154.112C391.355 154.017 396.569 154.68 401.882 156.104ZM385.076 210.612C388.86 211.625 392.427 211.675 395.777 210.761C399.23 209.788 401.992 207.854 404.062 204.958L406.068 197.472L390.492 193.298C381.799 190.969 376.686 192.662 375.155 198.377C374.422 201.114 374.926 203.578 376.668 205.77C378.41 207.963 381.213 209.576 385.076 210.612ZM462.242 183.148C468.4 177.551 476.953 176.219 487.9 179.152L484.05 193.521C482.827 192.934 481.692 192.5 480.646 192.22C474.77 190.646 469.718 191.147 465.49 193.724C461.284 196.22 458.318 200.688 456.593 207.128L448.213 238.4L433.121 234.355L450.397 169.88L464.765 173.73L462.242 183.148Z" fill="#3C3B51"/>
<rect x="409.793" y="421.243" width="778" height="248" transform="rotate(-11 409.793 421.243)" stroke="#6666FF" stroke-width="15"/>
<rect x="1192.14" y="677.392" width="535.111" height="210" transform="rotate(-28 1192.14 677.392)" stroke="#4A4AA0" stroke-width="15"/>
<rect x="-72.4624" y="-54.8144" width="685" height="210" transform="rotate(15 -72.4624 -54.8144)" stroke="#5050B3" stroke-width="15"/>
<rect x="768.806" y="660.365" width="319" height="152" transform="rotate(17 768.806 660.365)" stroke="#424283" stroke-width="15"/>
<rect x="1325.5" y="145.143" width="225.817" height="149.315" transform="rotate(28 1325.5 145.143)" stroke="#3D3C70" stroke-width="15"/>
<rect x="781.029" y="20.0206" width="284.459" height="149.315" transform="rotate(-26 781.029 20.0206)" stroke="#5050B3" stroke-width="15"/>
<rect x="191.068" y="634.164" width="177.737" height="177.737" transform="rotate(6.75415 191.068 634.164)" stroke="#5050B3" stroke-width="15"/>
<path d="M1363.17 652.031L1370.58 747.188L1356.45 754.699L1281.6 695.399L1297.16 687.124L1354.57 733.05L1348.82 659.66L1363.17 652.031ZM1446.57 669.411C1447.07 670.368 1447.72 671.768 1448.52 673.612L1402.27 698.201C1405.39 702.112 1409.32 704.455 1414.08 705.231C1418.87 705.894 1423.8 704.875 1428.88 702.176C1435.35 698.733 1439.55 693.763 1441.48 687.265L1453.39 691.832C1452.42 696.404 1450.35 700.576 1447.16 704.346C1443.97 708.117 1439.84 711.352 1434.77 714.051C1428.29 717.494 1421.9 719.238 1415.61 719.284C1409.31 719.33 1403.58 717.796 1398.43 714.682C1393.32 711.454 1389.22 706.935 1386.13 701.122C1383.08 695.383 1381.63 689.547 1381.78 683.616C1381.96 677.572 1383.68 672.03 1386.95 666.99C1390.22 661.95 1394.76 657.885 1400.57 654.794C1406.31 651.743 1412.11 650.312 1417.96 650.5C1423.86 650.576 1429.29 652.267 1434.25 655.572C1439.25 658.765 1443.36 663.378 1446.57 669.411ZM1406.44 665.831C1402.02 668.179 1398.97 671.498 1397.29 675.79C1395.65 679.97 1395.64 684.406 1397.29 689.099L1430.73 671.318C1427.87 667.363 1424.23 664.864 1419.81 663.819C1415.38 662.774 1410.93 663.445 1406.44 665.831ZM1461.68 634.191C1462.37 625.898 1467.72 619.091 1477.72 613.77L1484.71 626.904C1483.41 627.309 1482.29 627.766 1481.33 628.275C1475.96 631.131 1472.61 634.943 1471.27 639.711C1469.9 644.405 1470.78 649.695 1473.91 655.582L1489.11 684.167L1475.31 691.503L1443.97 632.566L1457.11 625.582L1461.68 634.191ZM1522.1 590.177C1527.84 587.125 1533.61 585.657 1539.43 585.772C1545.33 585.849 1550.77 587.483 1555.77 590.676C1560.77 593.868 1564.86 598.444 1568.03 604.404C1571.2 610.364 1572.73 616.346 1572.62 622.351C1572.47 628.282 1570.77 633.712 1567.54 638.639C1564.38 643.527 1559.94 647.497 1554.2 650.549C1550.15 652.7 1546.06 653.977 1541.93 654.379C1537.88 654.741 1533.97 654.131 1530.2 652.548L1534.25 660.163L1521.12 667.146L1477.57 585.253L1491.37 577.918L1507.39 608.048C1508.38 604.221 1510.1 600.804 1512.56 597.797C1515.09 594.752 1518.27 592.211 1522.1 590.177ZM1546.37 639.561C1551.45 636.861 1554.71 632.959 1556.14 627.852C1557.66 622.707 1556.94 617.376 1554.01 611.857C1551.08 606.339 1547.05 602.767 1541.94 601.143C1536.91 599.48 1531.85 599.998 1526.77 602.698C1523.46 604.458 1520.89 606.815 1519.06 609.769C1517.2 612.649 1516.24 615.898 1516.18 619.515C1516.12 623.133 1517.07 626.781 1519.02 630.46C1520.98 634.139 1523.47 636.966 1526.51 638.94C1529.54 640.914 1532.79 641.97 1536.26 642.107C1539.69 642.17 1543.06 641.321 1546.37 639.561ZM1615.4 618.006C1610.62 620.549 1605.61 622.407 1600.39 623.582C1595.16 624.757 1590.68 625.112 1586.94 624.646L1586.66 611.344C1590.25 611.702 1594.17 611.454 1598.44 610.602C1602.74 609.637 1606.69 608.196 1610.3 606.279C1618.54 601.897 1621.51 597.535 1619.2 593.194C1618.1 591.134 1616.27 590.266 1613.71 590.592C1611.22 590.878 1607.46 591.885 1602.43 593.614C1597.18 595.46 1592.76 596.727 1589.16 597.414C1585.64 598.061 1582.11 597.814 1578.58 596.672C1575.08 595.418 1572.19 592.657 1569.92 588.389C1566.95 582.797 1566.9 577.113 1569.78 571.338C1572.69 565.449 1578.11 560.392 1586.06 556.167C1590.11 554.015 1594.41 552.342 1598.96 551.146C1603.48 549.878 1607.44 549.331 1610.83 549.507L1611.11 562.809C1604.54 562.526 1598.13 564.047 1591.88 567.373C1587.83 569.525 1585.07 571.793 1583.6 574.179C1582.17 576.451 1581.98 578.581 1583.04 580.568C1584.21 582.775 1586.16 583.77 1588.87 583.553C1591.62 583.223 1595.57 582.211 1600.71 580.516C1605.81 578.748 1610.12 577.541 1613.64 576.893C1617.17 576.246 1620.61 576.495 1623.95 577.641C1627.37 578.749 1630.2 581.399 1632.43 585.593C1635.36 591.112 1635.32 596.798 1632.3 602.652C1629.27 608.506 1623.64 613.624 1615.4 618.006Z" fill="#9D9DA8"/>
<path d="M624.562 557.823L611.582 491.807L589.469 552.828L581.213 554.432L538.018 506.993L550.69 572.183L533.04 575.614L513.673 475.978L528.903 473.018L581.31 531.37L607.33 457.773L622.56 454.813L642.069 554.42L624.562 557.823ZM681.37 467.016C692.567 464.839 701.633 465.883 708.567 470.149C715.579 474.3 720.135 481.785 722.238 492.603L730.898 537.154L714.102 540.419L712.304 531.167C710.767 534.912 708.134 538.083 704.404 540.679C700.75 543.162 696.077 544.956 690.384 546.063C684.69 547.17 679.524 547.189 674.885 546.121C670.228 544.959 666.381 542.9 663.344 539.945C660.385 536.877 658.48 533.16 657.632 528.795C656.304 521.963 657.758 516.018 661.994 510.96C666.307 505.789 673.919 502.143 684.831 500.021L704.474 496.203L704.252 495.065C703.22 489.751 700.813 485.984 697.034 483.764C693.349 481.526 688.375 481.016 682.112 482.233C677.842 483.064 673.749 484.549 669.832 486.689C666.01 488.81 662.906 491.334 660.52 494.259L651.028 482.663C654.423 478.851 658.763 475.595 664.048 472.894C669.333 470.192 675.107 468.233 681.37 467.016ZM691.567 532.391C696.026 531.524 699.771 529.762 702.799 527.106C705.905 524.336 707.8 520.914 708.486 516.842L706.77 508.017L688.409 511.586C678.161 513.578 673.691 517.943 675.001 524.68C675.628 527.907 677.407 530.22 680.338 531.619C683.269 533.019 687.012 533.276 691.567 532.391ZM798.619 519.706C796.864 521.82 794.551 523.599 791.68 525.044C788.905 526.469 785.856 527.505 782.535 528.151C774.185 529.774 767.308 528.845 761.905 525.366C756.501 521.886 752.988 515.971 751.365 507.621L744.255 471.041L731.729 473.475L728.962 459.242L741.488 456.807L738.112 439.442L755.904 435.984L759.28 453.349L779.634 449.392L782.401 463.626L762.047 467.582L769.074 503.735C769.793 507.436 771.248 510.108 773.438 511.75C775.61 513.297 778.404 513.739 781.82 513.075C785.806 512.3 788.924 510.611 791.175 508.007L798.619 519.706ZM846.622 515.693C838.746 517.224 831.354 516.938 824.445 514.834C817.537 512.73 811.756 509.078 807.101 503.877C802.428 498.582 799.363 492.186 797.906 484.689C796.449 477.193 796.904 470.162 799.271 463.596C801.639 457.03 805.583 451.488 811.106 446.967C816.723 442.429 823.517 439.385 831.488 437.836C838.984 436.378 845.827 436.624 852.015 438.572C858.299 440.502 863.418 444.037 867.371 449.177L855.256 459.804C852.391 456.717 849.132 454.643 845.479 453.58C841.902 452.404 838.169 452.195 834.278 452.951C827.636 454.242 822.556 457.494 819.04 462.708C815.505 467.826 814.438 473.991 815.84 481.203C817.242 488.415 820.502 493.788 825.621 497.323C830.816 500.745 836.782 501.801 843.519 500.491C847.409 499.735 850.802 498.189 853.696 495.854C856.667 493.406 858.902 490.214 860.402 486.278L875.616 491.593C873.781 497.858 870.321 503.11 865.236 507.348C860.228 511.473 854.023 514.255 846.622 515.693ZM921.753 420.29C931.337 418.427 939.567 419.732 946.444 424.205C953.321 428.679 957.829 436.419 959.968 447.427L968.434 490.981L950.642 494.44L942.619 453.162C941.328 446.52 938.794 441.843 935.017 439.13C931.221 436.323 926.429 435.482 920.641 436.607C914.094 437.879 909.309 440.877 906.289 445.601C903.249 450.229 902.449 456.244 903.888 463.645L911.358 502.076L893.566 505.534L873.037 399.921L890.829 396.463L898.299 434.893C900.632 431.19 903.776 428.117 907.733 425.674C911.766 423.117 916.439 421.323 921.753 420.29ZM1055.85 434.993C1056.09 436.227 1056.33 438.001 1056.59 440.315L996.948 451.908C999.08 457.303 1002.65 461.238 1007.66 463.71C1012.75 466.07 1018.57 466.613 1025.11 465.34C1033.46 463.717 1039.81 459.628 1044.15 453.073L1055.81 462.179C1053.19 466.924 1049.47 470.847 1044.66 473.949C1039.85 477.051 1034.17 479.238 1027.62 480.511C1019.27 482.134 1011.59 481.903 1004.59 479.818C997.586 477.732 991.757 474.089 987.103 468.888C982.524 463.574 979.507 457.169 978.05 449.673C976.611 442.271 976.98 435.306 979.158 428.777C981.412 422.135 985.205 416.573 990.538 412.089C995.87 407.606 1002.28 404.636 1009.78 403.179C1017.18 401.74 1024.1 402.119 1030.53 404.315C1037.04 406.398 1042.49 410.114 1046.88 415.465C1051.35 420.703 1054.34 427.212 1055.85 434.993ZM1012.55 417.412C1006.85 418.519 1002.35 421.168 999.026 425.359C995.781 429.436 994.275 434.357 994.51 440.122L1037.64 431.738C1035.81 426.382 1032.62 422.374 1028.06 419.714C1023.51 417.055 1018.34 416.287 1012.55 417.412ZM1084.56 401.05C1088.14 392.084 1096.38 386.346 1109.28 383.837L1112.58 400.775C1111 400.786 1109.6 400.911 1108.37 401.151C1101.44 402.497 1096.43 405.589 1093.33 410.425C1090.21 415.167 1089.39 421.333 1090.87 428.925L1098.03 465.79L1080.24 469.248L1065.47 393.241L1082.41 389.948L1084.56 401.05Z" fill="white"/>
<path d="M-36.345 10.8767L-20.6487 15.0825L-43.2954 99.601L-58.9917 95.3952L-36.345 10.8767ZM7.23714 54.1304C13.3955 48.5336 21.9483 47.2018 32.8955 50.1351L29.0456 64.5033C27.8224 63.9167 26.6875 63.4832 25.6411 63.2028C19.7651 61.6283 14.7132 62.1296 10.4855 64.7065C6.27942 67.203 3.31363 71.6709 1.58817 78.1104L-6.7911 109.382L-21.8837 105.338L-4.60752 40.8627L9.76063 44.7126L7.23714 54.1304ZM57.3493 67.5579C63.5077 61.9611 72.0604 60.6293 83.0076 63.5626L79.1577 77.9308C77.9345 77.3442 76.7997 76.9107 75.7532 76.6303C69.8772 75.0558 64.8253 75.5571 60.5976 78.134C56.3915 80.6305 53.4257 85.0984 51.7003 91.5379L43.321 122.81L28.2284 118.766L45.5046 54.2902L59.8727 58.1401L57.3493 67.5579ZM146.904 116.401C146.623 117.447 146.144 118.915 145.465 120.803L94.875 107.248C94.4879 112.234 95.7683 116.632 98.7161 120.441C101.766 124.192 106.068 126.811 111.622 128.299C118.705 130.197 125.167 129.427 131.006 125.988L136.604 137.452C132.779 140.137 128.416 141.772 123.514 142.356C118.612 142.941 113.385 142.489 107.83 141.001C100.747 139.103 94.8862 136.023 90.248 131.76C85.6098 127.498 82.4702 122.472 80.8291 116.684C79.2901 110.836 79.3726 104.733 81.0765 98.374C82.7588 92.0955 85.6772 86.8383 89.8317 82.6026C94.0883 78.308 99.1296 75.4314 104.956 73.9729C110.782 72.5144 116.874 72.6371 123.233 74.341C129.512 76.0233 134.729 78.931 138.884 83.0639C143.141 87.138 145.959 92.0772 147.337 97.8816C148.817 103.627 148.672 109.8 146.904 116.401ZM119.998 86.4151C115.168 85.121 110.675 85.4699 106.518 87.4618C102.463 89.3948 99.4365 92.6388 97.4395 97.1938L134.024 106.997C134.631 102.155 133.673 97.8438 131.149 94.0617C128.625 90.2796 124.908 87.7308 119.998 86.4151ZM234.129 104.832L219.473 159.527C213.391 182.227 198.759 190.471 175.577 184.259C169.379 182.598 163.718 180.219 158.596 177.121C153.451 174.103 149.467 170.62 146.643 166.671L156.445 157.133C158.637 160.222 161.683 163.023 165.582 165.534C169.541 168.148 173.734 170.048 178.161 171.234C185.244 173.132 190.867 172.913 195.03 170.578C199.193 168.242 202.159 163.774 203.928 157.174L204.834 153.793C201.503 155.92 197.792 157.212 193.701 157.669C189.61 158.126 185.351 157.761 180.924 156.575C174.807 154.935 169.598 152.159 165.297 148.246C161.099 144.274 158.187 139.526 156.562 134C155.017 128.496 155.064 122.685 156.703 116.568C158.343 110.45 161.196 105.434 165.264 101.521C169.435 97.548 174.32 94.9316 179.92 93.6714C185.601 92.4329 191.5 92.6332 197.618 94.2724C202.287 95.5233 206.308 97.4203 209.681 99.9634C213.135 102.528 215.729 105.725 217.464 109.555L219.761 100.982L234.129 104.832ZM186.648 144.391C192.363 145.922 197.484 145.483 202.012 143.073C206.642 140.603 209.691 136.632 211.157 131.159C212.602 125.765 211.927 120.882 209.13 116.51C206.413 112.158 202.198 109.217 196.483 107.686C190.687 106.133 185.485 106.551 180.876 108.939C176.348 111.349 173.362 115.251 171.917 120.644C170.45 126.118 171.064 131.07 173.759 135.502C176.556 139.875 180.852 142.838 186.648 144.391ZM316.394 126.875L299.118 191.35L284.75 187.5L286.95 179.29C283.758 181.541 280.136 182.986 276.082 183.625C272.05 184.184 267.941 183.903 263.756 182.781C255.143 180.473 248.977 176.276 245.259 170.19C241.643 164.044 241.097 156.263 243.621 146.845L253.488 110.019L268.581 114.063L259.263 148.837C257.71 154.632 257.833 159.324 259.633 162.912C261.534 166.441 264.9 168.852 269.729 170.147C275.122 171.592 279.831 171.085 283.854 168.626C287.98 166.108 290.884 161.709 292.566 155.431L301.301 122.831L316.394 126.875ZM342.884 107.056L357.977 111.1L333.971 200.689L318.879 196.645L342.884 107.056ZM395.882 147.397C405.38 149.942 412.01 154.177 415.771 160.103C419.634 165.969 420.337 173.49 417.878 182.667L407.751 220.459L393.504 216.641L395.607 208.793C393.001 211.114 389.762 212.576 385.891 213.178C382.122 213.721 377.823 213.345 372.993 212.051C368.163 210.757 364.153 208.82 360.962 206.239C357.793 203.578 355.591 200.529 354.355 197.092C353.221 193.596 353.15 189.997 354.142 186.294C355.695 180.499 359.068 176.442 364.262 174.124C369.558 171.747 376.834 171.798 386.091 174.279L402.753 178.743L403.012 177.778C404.219 173.27 403.778 169.442 401.689 166.294C399.679 163.167 396.019 160.892 390.706 159.469C387.084 158.498 383.351 158.102 379.507 158.28C375.744 158.479 372.385 159.262 369.431 160.627L366.459 148.054C370.53 146.384 375.123 145.501 380.239 145.406C385.355 145.31 390.569 145.973 395.882 147.397ZM379.076 201.905C382.86 202.918 386.427 202.968 389.777 202.054C393.23 201.082 395.992 199.147 398.062 196.251L400.068 188.765L384.492 184.591C375.799 182.262 370.686 183.955 369.155 189.67C368.422 192.407 368.926 194.871 370.668 197.064C372.41 199.256 375.213 200.87 379.076 201.905ZM456.242 174.441C462.4 168.844 470.953 167.512 481.9 170.446L478.05 184.814C476.827 184.227 475.692 183.794 474.646 183.513C468.77 181.939 463.718 182.44 459.49 185.017C455.284 187.513 452.318 191.981 450.593 198.421L442.213 229.693L427.121 225.649L444.397 161.173L458.765 165.023L456.242 174.441Z" fill="#9D9DA8"/>
</g>
<defs>
<clipPath id="clip0">
<rect width="1600" height="900" fill="white"/>
</clipPath>
</defs>
</svg>
