<svg xmlns="http://www.w3.org/2000/svg" viewBox="0 0 808.96 500"><defs><style>.cls-1{fill:#ffd112;}.cls-2{fill:#ff4092;}.cls-3{fill:#7855f2;}</style></defs><g id="Layer_2" data-name="Layer 2"><g id="Layer_3" data-name="Layer 3"><g id="LOGO"><path id="ZERO" class="cls-1" d="M250,0C111.93,0,0,111.93,0,250S111.93,500,250,500,500,388.07,500,250,388.07,0,250,0Zm0,404.51A154.51,154.51,0,1,1,404.51,250,154.51,154.51,0,0,1,250,404.51Z"/><path id="ONE" class="cls-2" d="M656,498.3h0a47.75,47.75,0,0,0,33.77-58.48L581.45,35.46A47.74,47.74,0,0,0,523,1.7h0a47.75,47.75,0,0,0-33.76,58.48l108.3,404.36A47.74,47.74,0,0,0,656,498.3Z"/><rect id="DOT" class="cls-3" x="713.47" y="404.51" width="95.49" height="95.49" rx="47.74"/></g></g></g></svg>