<svg xmlns="http://www.w3.org/2000/svg" viewBox="0 0 808.96 702.52"><defs><style>.cls-1{fill:#ffd112;}.cls-2{fill:#ff4092;}.cls-3{fill:#7855f2;}.cls-4{fill:#151515;}</style></defs><g id="Layer_2" data-name="Layer 2"><g id="dark_text" data-name="dark text"><g id="LOGO"><path id="ZERO" class="cls-1" d="M250,0C111.93,0,0,111.93,0,250S111.93,500,250,500,500,388.07,500,250,388.07,0,250,0Zm0,404.51A154.51,154.51,0,1,1,404.51,250,154.51,154.51,0,0,1,250,404.51Z"/><path id="ONE" class="cls-2" d="M656,498.3h0a47.75,47.75,0,0,0,33.77-58.48L581.45,35.46A47.74,47.74,0,0,0,523,1.7h0a47.75,47.75,0,0,0-33.76,58.48l108.3,404.36A47.74,47.74,0,0,0,656,498.3Z"/><rect id="DOT" class="cls-3" x="713.47" y="404.51" width="95.49" height="95.49" rx="47.74"/></g><path class="cls-4" d="M57.13,702.52c-32.5,0-57.13-23.18-57.13-59s25.67-58.79,58.17-58.79,58.17,23,58.17,58.79S89.84,702.52,57.13,702.52Zm0-20.49c17.6,0,35-12.63,35-38.5s-16.77-38.3-34.37-38.3C40,605.23,24,617.65,24,643.53S39.33,682,57.13,682Z"/><path class="cls-4" d="M139.72,547.47h23.6V700.66h-23.6Z"/><path class="cls-4" d="M206.17,586.6l32.29,92.95,32.3-92.95h25L252.33,700.66H224.18L180.92,586.6Z"/><path class="cls-4" d="M362.66,702.52c-32.7,0-56.92-23.18-56.92-59s23.18-58.79,56.92-58.79c32.5,0,55.48,22.56,55.48,56.1a73,73,0,0,1-.83,11.59H330.16c1.66,18.84,15.12,30.22,32.5,30.22,14.49,0,22.57-7,26.91-15.94H415C408.62,686.58,390.61,702.52,362.66,702.52Zm-32.29-69.14h63.14c-.42-17.59-14.29-28.77-31.88-28.77C345.69,604.61,332.86,615.37,330.37,633.38Z"/><path class="cls-4" d="M464.92,700.66h-23.6V586.6h23.6v16.56c6.63-11.39,18-18.42,34.16-18.42v24.42h-6c-17.38,0-28.15,7.25-28.15,31.47Z"/><path class="cls-4" d="M517.71,556.38a15,15,0,1,1,15.11,15.11A14.94,14.94,0,0,1,517.71,556.38Zm3.1,30.22h23.6V700.66h-23.6Z"/><path class="cls-4" d="M623.48,584.74c27.95,0,46.16,13.87,52.58,37.88H650.6c-3.93-11-13-18-27.12-18-19,0-31.67,14.08-31.67,38.92,0,25.05,12.63,39.12,31.67,39.12,14.08,0,22.77-6.21,27.12-18h25.46c-6.42,22.36-24.63,37.88-52.58,37.88-32.7,0-55.89-23.18-55.89-59C567.59,607.92,590.78,584.74,623.48,584.74Z"/><path class="cls-4" d="M745.61,584.74c19.25,0,32.5,9.1,39.54,18.42V586.6H809V700.66H785.15v-17c-7.24,9.73-20.91,18.83-39.95,18.83-29.6,0-53.41-24.22-53.41-59.41S715.6,584.74,745.61,584.74Zm5,20.49C733,605.23,716,618.48,716,643.11S733,682,750.58,682c17.8,0,34.57-13.87,34.57-38.5C785.15,619.1,768.38,605.23,750.58,605.23Z"/></g></g></svg>