<svg width="737" height="500" viewBox="0 0 737 500" fill="none" xmlns="http://www.w3.org/2000/svg">
<path d="M674.793 247.759H544.311V249.128H674.793V247.759Z" fill="#3F3D56"/>
<path d="M661.989 256.37C666.366 256.37 669.915 252.821 669.915 248.444C669.915 244.066 666.366 240.518 661.989 240.518C657.611 240.518 654.062 244.066 654.062 248.444C654.062 252.821 657.611 256.37 661.989 256.37Z" fill="#6C63FF"/>
<path d="M601.661 117.619C608.996 140.504 611.678 164.625 609.549 188.562C593.518 170.659 581.231 149.729 573.411 127.005C566.076 104.121 563.394 79.9994 565.523 56.0623C581.555 73.9654 593.842 94.8949 601.661 117.619V117.619Z" fill="#6C63FF"/>
<path d="M617.439 117.619C610.104 140.504 607.423 164.625 609.552 188.562C625.583 170.659 637.87 149.729 645.69 127.005C653.024 104.121 655.706 79.9994 653.577 56.0623C637.546 73.9653 625.259 94.8949 617.439 117.619V117.619Z" fill="#6C63FF"/>
<path d="M622.337 118.016C622.589 142.046 618.031 165.884 608.931 188.126C598.899 166.288 593.337 142.664 592.574 118.645C592.322 94.6146 596.88 70.7768 605.979 48.5349C616.012 70.3724 621.573 93.9965 622.337 118.016Z" fill="#3F3D56"/>
<path d="M607.455 87.7217C609.538 87.7217 611.228 86.0324 611.228 83.9487C611.228 81.8649 609.538 80.1756 607.455 80.1756C605.371 80.1756 603.682 81.8649 603.682 83.9487C603.682 86.0324 605.371 87.7217 607.455 87.7217Z" fill="#6C63FF"/>
<path d="M600.116 116.233C601.273 116.233 602.212 115.294 602.212 114.137C602.212 112.979 601.273 112.041 600.116 112.041C598.958 112.041 598.02 112.979 598.02 114.137C598.02 115.294 598.958 116.233 600.116 116.233Z" fill="#6C63FF"/>
<path d="M574.541 95.4777C575.698 95.4777 576.636 94.5394 576.636 93.3819C576.636 92.2244 575.698 91.286 574.541 91.286C573.383 91.286 572.445 92.2244 572.445 93.3819C572.445 94.5394 573.383 95.4777 574.541 95.4777Z" fill="#3F3D56"/>
<path d="M648.544 75.1427C649.702 75.1427 650.64 74.2044 650.64 73.0469C650.64 71.8894 649.702 70.9511 648.544 70.9511C647.387 70.9511 646.449 71.8894 646.449 73.0469C646.449 74.2044 647.387 75.1427 648.544 75.1427Z" fill="#3F3D56"/>
<path d="M585.443 115.184C586.6 115.184 587.538 114.246 587.538 113.088C587.538 111.931 586.6 110.992 585.443 110.992C584.285 110.992 583.347 111.931 583.347 113.088C583.347 114.246 584.285 115.184 585.443 115.184Z" fill="#3F3D56"/>
<path d="M629.467 103.025C630.624 103.025 631.563 102.087 631.563 100.929C631.563 99.7717 630.624 98.8334 629.467 98.8334C628.309 98.8334 627.371 99.7717 627.371 100.929C627.371 102.087 628.309 103.025 629.467 103.025Z" fill="#3F3D56"/>
<path d="M586.7 146.002C587.857 146.002 588.795 145.064 588.795 143.906C588.795 142.749 587.857 141.81 586.7 141.81C585.542 141.81 584.604 142.749 584.604 143.906C584.604 145.064 585.542 146.002 586.7 146.002Z" fill="#3F3D56"/>
<path d="M631.563 134.052C632.72 134.052 633.658 133.113 633.658 131.956C633.658 130.798 632.72 129.86 631.563 129.86C630.405 129.86 629.467 130.798 629.467 131.956C629.467 133.113 630.405 134.052 631.563 134.052Z" fill="#3F3D56"/>
<path d="M611.228 136.149C612.385 136.149 613.323 135.211 613.323 134.053C613.323 132.896 612.385 131.957 611.228 131.957C610.07 131.957 609.132 132.896 609.132 134.053C609.132 135.211 610.07 136.149 611.228 136.149Z" fill="#6C63FF"/>
<path d="M622.544 212.129L622.197 210.8L734.926 181.355L687.993 1.67055L484.173 54.9074L518.923 187.952L517.594 188.299L482.502 53.9293L688.974 0L689.152 0.664498L736.604 182.338L622.544 212.129Z" fill="#3F3D56"/>
<path d="M629.673 69.1849C634.724 69.1849 638.819 65.09 638.819 60.0387C638.819 54.9874 634.724 50.8926 629.673 50.8926C624.621 50.8926 620.527 54.9874 620.527 60.0387C620.527 65.09 624.621 69.1849 629.673 69.1849Z" fill="#6C63FF"/>
<path d="M587.601 69.7935C590.294 69.7935 592.478 67.6098 592.478 64.9161C592.478 62.2224 590.294 60.0387 587.601 60.0387C584.907 60.0387 582.723 62.2224 582.723 64.9161C582.723 67.6098 584.907 69.7935 587.601 69.7935Z" fill="#3F3D56"/>
<path d="M609.552 293.954C616.735 293.954 622.559 288.13 622.559 280.947C622.559 273.763 616.735 267.94 609.552 267.94C602.368 267.94 596.545 273.763 596.545 280.947C596.545 288.13 602.368 293.954 609.552 293.954Z" fill="#3F3D56"/>
<path d="M446.044 500H445.406C412.414 500 381.101 498.36 357.235 495.38L356.273 495.247C355.62 495.159 354.975 495.073 354.338 494.99C350.592 494.495 346.926 493.941 343.44 493.343C326.155 490.333 317.392 486.746 317.392 482.682C317.392 479.31 323.14 476.37 334.964 473.696C340.653 472.411 347.676 471.226 355.837 470.173C357.324 469.975 358.855 469.789 360.42 469.611C383.798 466.876 413.978 465.369 445.401 465.369C451.611 465.369 457.893 465.429 464.081 465.547C516.736 466.557 573.41 472.348 573.41 482.682C573.41 488.854 552.919 492.837 535.729 495.091C511.805 498.235 479.952 499.976 446.044 500ZM445.406 466.745C414.042 466.745 383.912 468.248 360.582 470.977C359.023 471.155 357.502 471.341 356.019 471.537C347.896 472.584 340.916 473.76 335.27 475.037C320.373 478.406 318.765 481.51 318.765 482.687C318.765 484.184 321.192 488.086 343.677 491.999C347.139 492.595 350.787 493.146 354.52 493.638C355.157 493.726 355.8 493.809 356.45 493.895L357.409 494.027C381.216 496.999 412.47 498.635 445.406 498.635H446.043C521.415 498.583 572.046 490.35 572.046 482.687C572.046 475.954 531.654 468.217 464.061 466.923C457.885 466.8 451.609 466.745 445.406 466.745V466.745Z" fill="#3F3D56"/>
<path d="M383.617 468.145L382.882 467.87C382.72 467.809 366.653 461.653 359.126 447.695C351.6 433.736 355.284 416.928 355.323 416.76L355.496 415.994L356.231 416.269C356.393 416.33 372.459 422.486 379.986 436.445C387.514 450.403 383.828 467.211 383.79 467.38L383.617 468.145ZM360.332 447.044C366.695 458.846 379.394 464.896 382.61 466.277C383.221 462.829 385.135 448.885 378.781 437.095C372.427 425.304 359.72 419.246 356.503 417.861C355.89 421.317 353.978 435.254 360.332 447.045V447.044Z" fill="#3F3D56"/>
<path d="M364.878 442.796C378.405 450.935 383.617 467.099 383.617 467.099C383.617 467.099 366.896 470.07 353.368 461.931C339.84 453.792 334.629 437.627 334.629 437.627C334.629 437.627 351.352 434.659 364.878 442.796Z" fill="#6C63FF"/>
<path d="M470.119 179.668C470.119 179.668 458.793 178.051 453.132 199.082C447.47 220.114 445.851 221.732 445.851 221.732C445.851 221.732 479.018 226.586 479.826 224.968C480.634 223.351 487.106 184.522 470.119 179.668Z" fill="#2F2E41"/>
<path d="M463.646 171.577C475.709 171.577 485.487 161.799 485.487 149.737C485.487 137.674 475.709 127.896 463.646 127.896C451.584 127.896 441.806 137.674 441.806 149.737C441.806 161.799 451.584 171.577 463.646 171.577Z" fill="#FFB8B8"/>
<path d="M453.94 167.537C453.94 167.537 461.22 186.143 458.793 188.57C456.366 190.997 488.723 194.233 488.723 194.233C488.723 194.233 491.15 182.099 481.443 174.819C481.443 174.819 477.399 162.685 478.207 160.258C479.015 157.831 453.94 167.537 453.94 167.537Z" fill="#FFB8B8"/>
<path d="M473.355 175.623C465.063 178.754 457.594 183.733 451.514 190.183C441.812 200.7 436.954 203.936 436.954 203.936C436.954 203.936 425.629 207.98 429.673 227.395C431.696 237.097 430.281 248.022 428.359 256.516C425.424 269.697 423.966 283.164 424.01 296.668V305.051C424.01 305.051 349.587 461.175 374.665 471.691C399.743 482.207 422.392 485.443 424.009 483.017C425.627 480.59 454.749 354.397 454.749 354.397C454.749 354.397 462.838 489.488 483.056 489.488C503.274 489.488 536.446 483.825 536.446 483.825L495.195 322.039C495.195 322.039 504.897 294.529 480.635 275.126L477.399 266.222C490.822 266.228 496.954 181.291 483.062 174.004C483.062 174.005 479.826 171.579 473.355 175.623Z" fill="#2F2E41"/>
<path d="M453.132 219.306L441.813 249.236L415.118 305.054C415.118 305.054 402.985 341.456 412.692 341.456C422.399 341.456 429.679 306.672 429.679 306.672L459.609 259.759L476.59 217.692L453.132 219.306Z" fill="#FFB8B8"/>
<path d="M399.338 489.489C407.156 489.489 413.494 485.867 413.494 481.399C413.494 476.932 407.156 473.31 399.338 473.31C391.519 473.31 385.181 476.932 385.181 481.399C385.181 485.867 391.519 489.489 399.338 489.489Z" fill="#2F2E41"/>
<path d="M507.733 489.489C515.552 489.489 521.89 485.867 521.89 481.399C521.89 476.932 515.552 473.31 507.733 473.31C499.915 473.31 493.577 476.932 493.577 481.399C493.577 485.867 499.915 489.489 507.733 489.489Z" fill="#2F2E41"/>
<path d="M472.079 119.109C470.955 119.111 469.833 119.223 468.73 119.442C466.737 118.475 464.551 117.971 462.336 117.968H461.755C450.567 117.968 441.496 128.093 441.496 140.581H445.245L445.851 135.972L446.739 140.581H449.862C448.891 144.279 448.404 148.087 448.412 151.911V174.928H454.081L457.362 166.4L456.542 174.928H492.975L495.958 167.176L495.213 174.928H499.316V156.853C499.314 136.011 487.121 119.109 472.079 119.109Z" fill="#2F2E41"/>
<path d="M26.09 42.5C30.12 42.5 33.6083 43.1717 36.555 44.515C39.545 45.8583 41.8416 47.765 43.445 50.235C45.0483 52.705 45.85 55.63 45.85 59.01C45.85 62.3467 45.0483 65.2717 43.445 67.785C41.8416 70.255 39.545 72.1617 36.555 73.505C33.6083 74.805 30.12 75.455 26.09 75.455H16.925V88H6.39498V42.5H26.09ZM25.505 66.875C28.6683 66.875 31.0733 66.2033 32.72 64.86C34.3666 63.4733 35.19 61.5233 35.19 59.01C35.19 56.4533 34.3666 54.5033 32.72 53.16C31.0733 51.7733 28.6683 51.08 25.505 51.08H16.925V66.875H25.505Z" fill="#2F2E44"/>
<path d="M53.2874 39.77H63.4274V88H53.2874V39.77Z" fill="#2F2E44"/>
<path d="M86.9432 52.51C92.3598 52.51 96.5198 53.81 99.4232 56.41C102.327 58.9667 103.778 62.845 103.778 68.045V88H94.2882V83.645C92.3815 86.895 88.8282 88.52 83.6282 88.52C80.9415 88.52 78.6015 88.065 76.6082 87.155C74.6582 86.245 73.1632 84.9883 72.1232 83.385C71.0832 81.7817 70.5632 79.9617 70.5632 77.925C70.5632 74.675 71.7765 72.1183 74.2032 70.255C76.6732 68.3917 80.4648 67.46 85.5782 67.46H93.6382C93.6382 65.25 92.9665 63.56 91.6232 62.39C90.2799 61.1767 88.2648 60.57 85.5782 60.57C83.7148 60.57 81.8732 60.8733 80.0532 61.48C78.2765 62.0433 76.7598 62.8233 75.5032 63.82L71.8632 56.735C73.7698 55.3917 76.0448 54.3517 78.6882 53.615C81.3748 52.8783 84.1265 52.51 86.9432 52.51ZM86.1632 81.695C87.8965 81.695 89.4348 81.305 90.7782 80.525C92.1215 79.7017 93.0748 78.51 93.6382 76.95V73.375H86.6832C82.5232 73.375 80.4432 74.74 80.4432 77.47C80.4432 78.77 80.9415 79.81 81.9382 80.59C82.9782 81.3267 84.3865 81.695 86.1632 81.695Z" fill="#2F2E44"/>
<path d="M130.236 88.52C126.51 88.52 123.151 87.7617 120.161 86.245C117.215 84.685 114.896 82.54 113.206 79.81C111.56 77.08 110.736 73.9817 110.736 70.515C110.736 67.0483 111.56 63.95 113.206 61.22C114.896 58.49 117.215 56.3667 120.161 54.85C123.151 53.29 126.51 52.51 130.236 52.51C133.92 52.51 137.126 53.29 139.856 54.85C142.63 56.3667 144.645 58.555 145.901 61.415L138.036 65.64C136.216 62.4333 133.595 60.83 130.171 60.83C127.528 60.83 125.34 61.6967 123.606 63.43C121.873 65.1633 121.006 67.525 121.006 70.515C121.006 73.505 121.873 75.8667 123.606 77.6C125.34 79.3333 127.528 80.2 130.171 80.2C133.638 80.2 136.26 78.5967 138.036 75.39L145.901 79.68C144.645 82.4533 142.63 84.62 139.856 86.18C137.126 87.74 133.92 88.52 130.236 88.52Z" fill="#2F2E44"/>
<path d="M185.55 70.645C185.55 70.775 185.485 71.685 185.355 73.375H158.9C159.377 75.5417 160.504 77.2533 162.28 78.51C164.057 79.7667 166.267 80.395 168.91 80.395C170.73 80.395 172.334 80.135 173.72 79.615C175.15 79.0517 176.472 78.185 177.685 77.015L183.08 82.865C179.787 86.635 174.977 88.52 168.65 88.52C164.707 88.52 161.219 87.7617 158.185 86.245C155.152 84.685 152.812 82.54 151.165 79.81C149.519 77.08 148.695 73.9817 148.695 70.515C148.695 67.0917 149.497 64.015 151.1 61.285C152.747 58.5117 154.979 56.3667 157.795 54.85C160.655 53.29 163.84 52.51 167.35 52.51C170.774 52.51 173.872 53.2467 176.645 54.72C179.419 56.1933 181.585 58.3167 183.145 61.09C184.749 63.82 185.55 67.005 185.55 70.645ZM167.415 60.18C165.119 60.18 163.19 60.83 161.63 62.13C160.07 63.43 159.117 65.2067 158.77 67.46H175.995C175.649 65.25 174.695 63.495 173.135 62.195C171.575 60.8517 169.669 60.18 167.415 60.18Z" fill="#2F2E44"/>
<path d="M221.824 53.81H230.794V61.61H222.084V88H211.944V61.61H206.549V53.81H211.944V52.25C211.944 48.2633 213.114 45.1 215.454 42.76C217.838 40.42 221.174 39.25 225.464 39.25C226.981 39.25 228.411 39.4233 229.754 39.77C231.141 40.0733 232.289 40.5283 233.199 41.135L230.534 48.48C229.364 47.6567 227.999 47.245 226.439 47.245C223.363 47.245 221.824 48.935 221.824 52.315V53.81Z" fill="#2F2E44"/>
<path d="M252.042 88.52C248.358 88.52 245.043 87.7617 242.097 86.245C239.193 84.685 236.918 82.54 235.272 79.81C233.625 77.08 232.802 73.9817 232.802 70.515C232.802 67.0483 233.625 63.95 235.272 61.22C236.918 58.49 239.193 56.3667 242.097 54.85C245.043 53.29 248.358 52.51 252.042 52.51C255.725 52.51 259.018 53.29 261.922 54.85C264.825 56.3667 267.1 58.49 268.747 61.22C270.393 63.95 271.217 67.0483 271.217 70.515C271.217 73.9817 270.393 77.08 268.747 79.81C267.1 82.54 264.825 84.685 261.922 86.245C259.018 87.7617 255.725 88.52 252.042 88.52ZM252.042 80.2C254.642 80.2 256.765 79.3333 258.412 77.6C260.102 75.8233 260.947 73.4617 260.947 70.515C260.947 67.5683 260.102 65.2283 258.412 63.495C256.765 61.7183 254.642 60.83 252.042 60.83C249.442 60.83 247.297 61.7183 245.607 63.495C243.917 65.2283 243.072 67.5683 243.072 70.515C243.072 73.4617 243.917 75.8233 245.607 77.6C247.297 79.3333 249.442 80.2 252.042 80.2Z" fill="#2F2E44"/>
<path d="M287.679 57.645C288.893 55.955 290.518 54.6767 292.554 53.81C294.634 52.9433 297.018 52.51 299.704 52.51V61.87C298.578 61.7833 297.819 61.74 297.429 61.74C294.526 61.74 292.251 62.5633 290.604 64.21C288.958 65.8133 288.134 68.24 288.134 71.49V88H277.994V53.03H287.679V57.645Z" fill="#2F2E44"/>
<path d="M40.39 132.03L24.595 169.145C22.9916 173.175 20.9983 176.013 18.615 177.66C16.275 179.307 13.4366 180.13 10.1 180.13C8.27998 180.13 6.48164 179.848 4.70498 179.285C2.92831 178.722 1.47664 177.942 0.349976 176.945L4.05498 169.73C4.83498 170.423 5.72331 170.965 6.71998 171.355C7.75998 171.745 8.77831 171.94 9.77498 171.94C11.1616 171.94 12.2883 171.593 13.155 170.9C14.0216 170.25 14.8016 169.145 15.495 167.585L15.625 167.26L0.479976 132.03H10.945L20.76 155.755L30.64 132.03H40.39Z" fill="#2F2E44"/>
<path d="M60.2155 167.52C56.5322 167.52 53.2172 166.762 50.2705 165.245C47.3672 163.685 45.0922 161.54 43.4455 158.81C41.7988 156.08 40.9755 152.982 40.9755 149.515C40.9755 146.048 41.7988 142.95 43.4455 140.22C45.0922 137.49 47.3672 135.367 50.2705 133.85C53.2172 132.29 56.5322 131.51 60.2155 131.51C63.8988 131.51 67.1921 132.29 70.0955 133.85C72.9988 135.367 75.2738 137.49 76.9205 140.22C78.5672 142.95 79.3905 146.048 79.3905 149.515C79.3905 152.982 78.5672 156.08 76.9205 158.81C75.2738 161.54 72.9988 163.685 70.0955 165.245C67.1921 166.762 63.8988 167.52 60.2155 167.52ZM60.2155 159.2C62.8155 159.2 64.9388 158.333 66.5855 156.6C68.2755 154.823 69.1205 152.462 69.1205 149.515C69.1205 146.568 68.2755 144.228 66.5855 142.495C64.9388 140.718 62.8155 139.83 60.2155 139.83C57.6155 139.83 55.4705 140.718 53.7805 142.495C52.0905 144.228 51.2455 146.568 51.2455 149.515C51.2455 152.462 52.0905 154.823 53.7805 156.6C55.4705 158.333 57.6155 159.2 60.2155 159.2Z" fill="#2F2E44"/>
<path d="M121.398 132.03V167H111.778V162.84C110.435 164.357 108.832 165.527 106.968 166.35C105.105 167.13 103.09 167.52 100.923 167.52C96.3299 167.52 92.6899 166.198 90.0033 163.555C87.3166 160.912 85.9733 156.99 85.9733 151.79V132.03H96.1133V150.295C96.1133 155.928 98.4749 158.745 103.198 158.745C105.625 158.745 107.575 157.965 109.048 156.405C110.522 154.802 111.258 152.44 111.258 149.32V132.03H121.398Z" fill="#2F2E44"/>
<path d="M140.477 136.645C141.691 134.955 143.316 133.677 145.352 132.81C147.432 131.943 149.816 131.51 152.502 131.51V140.87C151.376 140.783 150.617 140.74 150.227 140.74C147.324 140.74 145.049 141.563 143.402 143.21C141.756 144.813 140.932 147.24 140.932 150.49V167H130.792V132.03H140.477V136.645Z" fill="#2F2E44"/>
<path d="M194.094 167.52C190.367 167.52 187.009 166.762 184.019 165.245C181.072 163.685 178.754 161.54 177.064 158.81C175.417 156.08 174.594 152.982 174.594 149.515C174.594 146.048 175.417 142.95 177.064 140.22C178.754 137.49 181.072 135.367 184.019 133.85C187.009 132.29 190.367 131.51 194.094 131.51C197.777 131.51 200.984 132.29 203.714 133.85C206.487 135.367 208.502 137.555 209.759 140.415L201.894 144.64C200.074 141.433 197.452 139.83 194.029 139.83C191.385 139.83 189.197 140.697 187.464 142.43C185.73 144.163 184.864 146.525 184.864 149.515C184.864 152.505 185.73 154.867 187.464 156.6C189.197 158.333 191.385 159.2 194.029 159.2C197.495 159.2 200.117 157.597 201.894 154.39L209.759 158.68C208.502 161.453 206.487 163.62 203.714 165.18C200.984 166.74 197.777 167.52 194.094 167.52Z" fill="#2F2E44"/>
<path d="M236.598 131.51C240.931 131.51 244.42 132.81 247.063 135.41C249.75 138.01 251.093 141.867 251.093 146.98V167H240.953V148.54C240.953 145.767 240.346 143.708 239.133 142.365C237.92 140.978 236.165 140.285 233.868 140.285C231.311 140.285 229.275 141.087 227.758 142.69C226.241 144.25 225.483 146.59 225.483 149.71V167H215.343V118.77H225.483V135.67C226.826 134.327 228.451 133.308 230.358 132.615C232.265 131.878 234.345 131.51 236.598 131.51Z" fill="#2F2E44"/>
<path d="M274.389 131.51C279.806 131.51 283.966 132.81 286.869 135.41C289.773 137.967 291.224 141.845 291.224 147.045V167H281.734V162.645C279.828 165.895 276.274 167.52 271.074 167.52C268.388 167.52 266.048 167.065 264.054 166.155C262.104 165.245 260.609 163.988 259.569 162.385C258.529 160.782 258.009 158.962 258.009 156.925C258.009 153.675 259.223 151.118 261.649 149.255C264.119 147.392 267.911 146.46 273.024 146.46H281.084C281.084 144.25 280.413 142.56 279.069 141.39C277.726 140.177 275.711 139.57 273.024 139.57C271.161 139.57 269.319 139.873 267.499 140.48C265.723 141.043 264.206 141.823 262.949 142.82L259.309 135.735C261.216 134.392 263.491 133.352 266.134 132.615C268.821 131.878 271.573 131.51 274.389 131.51ZM273.609 160.695C275.343 160.695 276.881 160.305 278.224 159.525C279.568 158.702 280.521 157.51 281.084 155.95V152.375H274.129C269.969 152.375 267.889 153.74 267.889 156.47C267.889 157.77 268.388 158.81 269.384 159.59C270.424 160.327 271.833 160.695 273.609 160.695Z" fill="#2F2E44"/>
<path d="M310.087 136.645C311.3 134.955 312.925 133.677 314.962 132.81C317.042 131.943 319.425 131.51 322.112 131.51V140.87C320.985 140.783 320.227 140.74 319.837 140.74C316.933 140.74 314.658 141.563 313.012 143.21C311.365 144.813 310.542 147.24 310.542 150.49V167H300.402V132.03H310.087V136.645Z" fill="#2F2E44"/>
<path d="M351.902 165.31C350.905 166.047 349.67 166.61 348.197 167C346.767 167.347 345.25 167.52 343.647 167.52C339.487 167.52 336.259 166.458 333.962 164.335C331.709 162.212 330.582 159.092 330.582 154.975V140.61H325.187V132.81H330.582V124.295H340.722V132.81H349.432V140.61H340.722V154.845C340.722 156.318 341.09 157.467 341.827 158.29C342.607 159.07 343.69 159.46 345.077 159.46C346.68 159.46 348.045 159.027 349.172 158.16L351.902 165.31Z" fill="#2F2E44"/>
<path d="M369.359 167.52C366.456 167.52 363.617 167.173 360.844 166.48C358.071 165.743 355.861 164.833 354.214 163.75L357.594 156.47C359.154 157.467 361.039 158.29 363.249 158.94C365.459 159.547 367.626 159.85 369.749 159.85C374.039 159.85 376.184 158.788 376.184 156.665C376.184 155.668 375.599 154.953 374.429 154.52C373.259 154.087 371.461 153.718 369.034 153.415C366.174 152.982 363.812 152.483 361.949 151.92C360.086 151.357 358.461 150.36 357.074 148.93C355.731 147.5 355.059 145.463 355.059 142.82C355.059 140.61 355.687 138.66 356.944 136.97C358.244 135.237 360.107 133.893 362.534 132.94C365.004 131.987 367.907 131.51 371.244 131.51C373.714 131.51 376.162 131.792 378.589 132.355C381.059 132.875 383.096 133.612 384.699 134.565L381.319 141.78C378.242 140.047 374.884 139.18 371.244 139.18C369.077 139.18 367.452 139.483 366.369 140.09C365.286 140.697 364.744 141.477 364.744 142.43C364.744 143.513 365.329 144.272 366.499 144.705C367.669 145.138 369.532 145.55 372.089 145.94C374.949 146.417 377.289 146.937 379.109 147.5C380.929 148.02 382.511 148.995 383.854 150.425C385.197 151.855 385.869 153.848 385.869 156.405C385.869 158.572 385.219 160.5 383.919 162.19C382.619 163.88 380.712 165.202 378.199 166.155C375.729 167.065 372.782 167.52 369.359 167.52Z" fill="#2F2E44"/>
</svg>
