<svg width="549" height="521" viewBox="0 0 549 521" fill="none" xmlns="http://www.w3.org/2000/svg">
<path d="M332.192 29.1675L47.019 90.401L131.624 484.418L416.797 423.184L332.192 29.1675Z" fill="#E0E0E0"/>
<g opacity="0.5">
<path opacity="0.5" d="M328.804 36.8641L53.269 96.028L135.014 476.726L410.549 417.562L328.804 36.8641Z" fill="url(#paint0_linear)"/>
</g>
<path d="M325.894 40.4192L57.373 98.077L137.312 470.364L405.833 412.707L325.894 40.4192Z" fill="#FAFAFA"/>
<path d="M255.11 38.7507L121.901 67.354L128.83 99.6221L262.039 71.0189L255.11 38.7507Z" fill="url(#paint1_linear)"/>
<path d="M181.723 21.558C177.913 22.2778 174.404 24.117 171.644 26.8408C168.885 29.5646 167 33.0492 166.231 36.8495C165.461 40.6497 165.842 44.5931 167.325 48.1758C168.808 51.7585 171.325 54.8179 174.555 56.963C177.785 59.1081 181.581 60.2416 185.458 60.2187C189.335 60.1958 193.118 59.0176 196.322 56.8344C199.526 54.6513 202.007 51.5624 203.448 47.9625C204.888 44.3625 205.222 40.4149 204.408 36.624C203.394 31.6196 200.436 27.2221 196.183 24.3972C191.929 21.5724 186.729 20.5512 181.723 21.558V21.558ZM188.175 51.65C186.002 52.1682 183.724 52.0277 181.631 51.2464C179.538 50.4651 177.725 49.0784 176.424 47.263C175.122 45.4475 174.39 43.2856 174.322 41.0528C174.253 38.8199 174.851 36.6172 176.039 34.7254C177.227 32.8336 178.952 31.3384 180.993 30.4303C183.034 29.5222 185.299 29.2423 187.499 29.6264C189.7 30.0105 191.737 31.0411 193.349 32.5869C194.962 34.1326 196.078 36.1236 196.555 38.306C196.884 39.7326 196.929 41.2102 196.686 42.654C196.442 44.0978 195.916 45.4794 195.138 46.7193C194.359 47.9592 193.343 49.0331 192.148 49.8793C190.953 50.7254 189.603 51.3272 188.175 51.65V51.65Z" fill="url(#paint2_linear)"/>
<path d="M253.411 37.6682L123.007 65.669L129.63 96.5141L260.034 68.5134L253.411 37.6682Z" fill="#6C63FF"/>
<path d="M181.723 21.558C178.12 22.3317 174.826 24.1566 172.26 26.8019C169.694 29.4471 167.969 32.794 167.305 36.4193C166.641 40.0445 167.067 43.7853 168.528 47.1686C169.99 50.552 172.422 53.4259 175.517 55.4269C178.612 57.428 182.231 58.4663 185.917 58.4106C189.602 58.355 193.188 57.2078 196.221 55.1141C199.254 53.0205 201.598 50.0744 202.957 46.6484C204.316 43.2225 204.629 39.4705 203.855 35.867C203.342 33.4739 202.362 31.2054 200.972 29.191C199.582 27.1766 197.809 25.4557 195.754 24.1267C193.698 22.7977 191.401 21.8865 188.994 21.4453C186.587 21.004 184.116 21.0413 181.723 21.555V21.558ZM187.888 50.315C185.808 50.7614 183.642 50.581 181.665 49.7965C179.687 49.012 177.987 47.6587 176.778 45.9077C175.57 44.1567 174.908 42.0867 174.876 39.9595C174.844 37.8323 175.444 35.7434 176.599 33.9571C177.755 32.1707 179.414 30.7671 181.367 29.9237C183.32 29.0804 185.48 28.8351 187.572 29.2191C189.665 29.603 191.596 30.5989 193.123 32.0807C194.649 33.5626 195.702 35.4638 196.148 37.544C196.746 40.3329 196.212 43.245 194.663 45.6399C193.114 48.0348 190.677 49.7165 187.888 50.315V50.315Z" fill="#6C63FF"/>
<path d="M464.557 78.005H172.969V480.885H464.557V78.005Z" fill="#E0E0E0"/>
<g opacity="0.5">
<path opacity="0.5" d="M459.633 84.817H177.9V474.079H459.633V84.817Z" fill="url(#paint3_linear)"/>
</g>
<path d="M456.044 87.686H181.483V468.348H456.044V87.686Z" fill="white"/>
<path d="M387.226 71.179H251.02V104.173H387.226V71.179Z" fill="url(#paint4_linear)"/>
<path d="M319.123 38.972C315.248 38.8802 311.433 39.9453 308.166 42.0314C304.899 44.1175 302.328 47.1299 300.781 50.684C299.234 54.2381 298.782 58.1726 299.481 61.9851C300.181 65.7977 302 69.3153 304.708 72.0888C307.416 74.8624 310.889 76.766 314.684 77.5566C318.478 78.3472 322.423 77.989 326.013 76.5276C329.603 75.0663 332.676 72.5681 334.84 69.3521C337.004 66.1361 338.16 62.3482 338.161 58.472C338.222 53.3617 336.25 48.4367 332.68 44.7799C329.11 41.1231 324.233 39.034 319.123 38.972V38.972ZM319.123 69.717C316.887 69.7699 314.687 69.1552 312.802 67.9516C310.918 66.7479 309.434 65.0099 308.542 62.9594C307.65 60.9089 307.389 58.639 307.793 56.4396C308.197 54.2401 309.247 52.211 310.81 50.6112C312.372 49.0114 314.376 47.9137 316.565 47.4581C318.755 47.0025 321.03 47.2097 323.101 48.0534C325.172 48.897 326.944 50.3388 328.192 52.1945C329.44 54.0503 330.106 56.2358 330.106 58.472C330.128 61.4116 328.986 64.2404 326.927 66.3394C324.869 68.4384 322.063 69.6366 319.124 69.672L319.123 69.717Z" fill="url(#paint5_linear)"/>
<path d="M385.792 69.764H252.455V101.303H385.792V69.764Z" fill="#6C63FF"/>
<g opacity="0.5">
<path opacity="0.5" d="M13.597 491.774H11.088V506.006H13.597V491.774Z" fill="#47E6B1"/>
<path opacity="0.5" d="M19.462 500.148V497.639H5.23004V500.148H19.462Z" fill="#47E6B1"/>
</g>
<g opacity="0.5">
<path opacity="0.5" d="M304.651 0H302.142V14.232H304.651V0Z" fill="#47E6B1"/>
<path opacity="0.5" d="M310.516 8.367V5.858L296.284 5.858V8.367H310.516Z" fill="#47E6B1"/>
</g>
<path opacity="0.5" d="M515.379 515.467C514.687 515.166 514.13 514.621 513.814 513.936C513.498 513.25 513.444 512.473 513.664 511.751C513.7 511.641 513.722 511.527 513.731 511.411V511.411C513.751 511.08 513.664 510.752 513.483 510.475C513.302 510.198 513.037 509.986 512.726 509.871C512.415 509.757 512.076 509.745 511.758 509.839C511.441 509.932 511.161 510.125 510.962 510.39V510.39C510.893 510.483 510.835 510.584 510.789 510.69C510.488 511.382 509.943 511.939 509.258 512.255C508.573 512.571 507.795 512.625 507.073 512.405C506.963 512.369 506.849 512.347 506.733 512.338C506.403 512.318 506.074 512.405 505.797 512.586C505.52 512.767 505.308 513.032 505.193 513.343C505.079 513.654 505.067 513.993 505.161 514.311C505.254 514.629 505.448 514.908 505.712 515.107V515.107C505.805 515.177 505.906 515.235 506.012 515.281C506.704 515.582 507.261 516.127 507.577 516.812C507.894 517.498 507.947 518.275 507.727 518.997C507.692 519.107 507.669 519.221 507.66 519.337C507.64 519.668 507.727 519.996 507.908 520.273C508.089 520.55 508.354 520.762 508.665 520.877C508.976 520.991 509.315 521.003 509.633 520.909C509.951 520.816 510.23 520.623 510.429 520.358V520.358C510.499 520.265 510.557 520.164 510.603 520.058C510.904 519.366 511.449 518.809 512.134 518.493C512.82 518.177 513.597 518.123 514.319 518.343C514.429 518.378 514.544 518.401 514.659 518.41V518.41C514.99 518.43 515.318 518.343 515.595 518.162C515.873 517.981 516.084 517.716 516.199 517.405C516.313 517.094 516.325 516.755 516.231 516.437C516.138 516.119 515.945 515.84 515.68 515.641V515.641C515.587 515.571 515.486 515.513 515.379 515.467V515.467Z" fill="#4D8AF0"/>
<path opacity="0.5" d="M92.089 378.647C91.3971 378.346 90.8401 377.801 90.5239 377.116C90.2076 376.43 90.1543 375.653 90.3741 374.931C90.4096 374.821 90.4321 374.707 90.441 374.591V374.591C90.4612 374.26 90.3743 373.932 90.1933 373.655C90.0123 373.378 89.7468 373.166 89.436 373.051C89.1253 372.937 88.7859 372.925 88.4682 373.019C88.1505 373.112 87.8713 373.305 87.6721 373.57V373.57C87.6029 373.663 87.5448 373.764 87.499 373.87C87.1979 374.562 86.6528 375.119 85.9676 375.435C85.2825 375.751 84.505 375.805 83.783 375.585C83.6727 375.549 83.5586 375.527 83.443 375.518C83.1125 375.498 82.7842 375.585 82.5069 375.766C82.2296 375.947 82.0179 376.212 81.9034 376.523C81.7888 376.834 81.7774 377.173 81.8708 377.491C81.9642 377.809 82.1575 378.088 82.4221 378.287V378.287C82.5149 378.356 82.6156 378.414 82.722 378.46C83.414 378.761 83.971 379.306 84.2872 379.991C84.6034 380.677 84.6568 381.454 84.437 382.176C84.4015 382.286 84.379 382.4 84.3701 382.516C84.3499 382.846 84.4367 383.175 84.6178 383.452C84.7988 383.729 85.0643 383.941 85.3751 384.056C85.6858 384.17 86.0252 384.182 86.3429 384.088C86.6606 383.995 86.9398 383.802 87.139 383.537C87.2082 383.444 87.2662 383.343 87.312 383.237C87.6132 382.545 88.1583 381.988 88.8434 381.672C89.5286 381.356 90.3061 381.302 91.028 381.522C91.1384 381.558 91.2525 381.58 91.368 381.589C91.6986 381.609 92.0269 381.522 92.3042 381.341C92.5815 381.16 92.7931 380.895 92.9077 380.584C93.0223 380.273 93.0337 379.934 92.9403 379.616C92.8469 379.298 92.6536 379.019 92.389 378.82V378.82C92.2961 378.751 92.1955 378.693 92.089 378.647V378.647Z" fill="#FDD835"/>
<path opacity="0.5" d="M444.654 45.491C443.962 45.1898 443.405 44.6448 443.089 43.9596C442.773 43.2744 442.719 42.4969 442.939 41.775C442.975 41.6647 442.997 41.5506 443.006 41.435C443.026 41.1044 442.939 40.7762 442.758 40.4988C442.577 40.2215 442.312 40.0099 442.001 39.8953C441.69 39.7808 441.351 39.7693 441.033 39.8628C440.715 39.9562 440.436 40.1495 440.237 40.414V40.414C440.167 40.5069 440.109 40.6075 440.063 40.714C439.762 41.4059 439.217 41.963 438.532 42.2792C437.846 42.5954 437.069 42.6487 436.347 42.429C436.237 42.3934 436.123 42.3709 436.007 42.362V42.362C435.676 42.3418 435.348 42.4287 435.071 42.6097C434.794 42.7907 434.582 43.0563 434.467 43.367C434.353 43.6777 434.341 44.0171 434.435 44.3348C434.528 44.6526 434.721 44.9317 434.986 45.131V45.131C435.079 45.2005 435.18 45.2589 435.286 45.305C435.978 45.6062 436.535 46.1512 436.851 46.8364C437.167 47.5216 437.221 48.2991 437.001 49.021C436.965 49.1313 436.943 49.2454 436.934 49.361V49.361C436.914 49.6915 437.001 50.0198 437.182 50.2971C437.363 50.5745 437.628 50.7861 437.939 50.9006C438.25 51.0152 438.589 51.0266 438.907 50.9332C439.225 50.8398 439.504 50.6465 439.703 50.382V50.382C439.772 50.2891 439.83 50.1884 439.876 50.082C440.177 49.3901 440.722 48.833 441.407 48.5168C442.093 48.2006 442.87 48.1473 443.592 48.367C443.702 48.4025 443.816 48.425 443.932 48.434C444.263 48.4541 444.591 48.3673 444.868 48.1863C445.145 48.0052 445.357 47.7397 445.472 47.429C445.586 47.1182 445.598 46.7789 445.504 46.4611C445.411 46.1434 445.218 45.8643 444.953 45.665V45.665C444.86 45.5958 444.759 45.5377 444.653 45.492L444.654 45.491Z" fill="#FDD835"/>
<path opacity="0.5" d="M543.109 214.844C545.884 214.844 548.133 212.595 548.133 209.82C548.133 207.045 545.884 204.796 543.109 204.796C540.334 204.796 538.085 207.045 538.085 209.82C538.085 212.595 540.334 214.844 543.109 214.844Z" fill="#F55F44"/>
<path opacity="0.5" d="M154.847 503.203C157.622 503.203 159.871 500.954 159.871 498.179C159.871 495.404 157.622 493.155 154.847 493.155C152.072 493.155 149.823 495.404 149.823 498.179C149.823 500.954 152.072 503.203 154.847 503.203Z" fill="#F55F44"/>
<path opacity="0.5" d="M358.024 496.048C360.799 496.048 363.048 493.799 363.048 491.024C363.048 488.249 360.799 486 358.024 486C355.249 486 353 488.249 353 491.024C353 493.799 355.249 496.048 358.024 496.048Z" fill="#47E6B1"/>
<path opacity="0.5" d="M491.513 323.441C494.288 323.441 496.537 321.192 496.537 318.417C496.537 315.642 494.288 313.393 491.513 313.393C488.738 313.393 486.489 315.642 486.489 318.417C486.489 321.192 488.738 323.441 491.513 323.441Z" fill="#F55F44"/>
<path opacity="0.5" d="M59.041 69.31C61.8156 69.31 64.065 67.0607 64.065 64.286C64.065 61.5113 61.8156 59.262 59.041 59.262C56.2663 59.262 54.017 61.5113 54.017 64.286C54.017 67.0607 56.2663 69.31 59.041 69.31Z" fill="#4D8AF0"/>
<path opacity="0.5" d="M5.92402 206.364C8.6987 206.364 10.948 204.115 10.948 201.34C10.948 198.565 8.6987 196.316 5.92402 196.316C3.14935 196.316 0.900024 198.565 0.900024 201.34C0.900024 204.115 3.14935 206.364 5.92402 206.364Z" fill="#47E6B1"/>
<path fill-rule="evenodd" clip-rule="evenodd" d="M319 78C330.046 78 339 69.0457 339 58C339 46.9543 330.046 38 319 38C307.954 38 299 46.9543 299 58C299 69.0457 307.954 78 319 78ZM319 69C325.075 69 330 64.0751 330 58C330 51.9249 325.075 47 319 47C312.925 47 308 51.9249 308 58C308 64.0751 312.925 69 319 69Z" fill="#6C63FF"/>
<path d="M65.5095 218H76.0395V181.08H90.5995V172.5H50.9495V181.08H65.5095V218ZM116.805 182.51C112.32 182.51 108.42 183.94 105.69 186.67V169.77H95.5501V218H105.69V200.71C105.69 194.275 109.2 191.285 114.075 191.285C118.56 191.285 121.16 193.885 121.16 199.54V218H131.3V197.98C131.3 187.32 125.06 182.51 116.805 182.51ZM175.127 200.645C175.127 189.4 167.197 182.51 156.927 182.51C146.267 182.51 138.272 190.05 138.272 200.515C138.272 210.915 146.137 218.52 158.227 218.52C164.532 218.52 169.407 216.57 172.657 212.865L167.262 207.015C164.857 209.29 162.192 210.395 158.487 210.395C153.157 210.395 149.452 207.73 148.477 203.375H174.932C174.997 202.53 175.127 201.425 175.127 200.645ZM156.992 190.18C161.542 190.18 164.857 193.04 165.572 197.46H148.347C149.062 192.975 152.377 190.18 156.992 190.18ZM191.563 187.645V183.03H181.878V218H192.018V201.49C192.018 194.795 195.723 191.74 201.313 191.74C202.093 191.74 202.743 191.805 203.588 191.87V182.51C198.193 182.51 194.033 184.265 191.563 187.645ZM243.555 200.645C243.555 189.4 235.625 182.51 225.355 182.51C214.695 182.51 206.7 190.05 206.7 200.515C206.7 210.915 214.565 218.52 226.655 218.52C232.96 218.52 237.835 216.57 241.085 212.865L235.69 207.015C233.285 209.29 230.62 210.395 226.915 210.395C221.585 210.395 217.88 207.73 216.905 203.375H243.36C243.425 202.53 243.555 201.425 243.555 200.645ZM225.42 190.18C229.97 190.18 233.285 193.04 234 197.46H216.775C217.49 192.975 220.805 190.18 225.42 190.18ZM282.819 182.51C277.229 182.51 271.574 184.005 267.739 186.735L271.379 193.82C273.914 191.805 277.749 190.57 281.454 190.57C286.914 190.57 289.514 193.105 289.514 197.46H281.454C270.794 197.46 266.439 201.75 266.439 207.925C266.439 213.97 271.314 218.52 279.504 218.52C284.639 218.52 288.279 216.83 290.164 213.645V218H299.654V198.045C299.654 187.45 293.479 182.51 282.819 182.51ZM282.039 211.695C278.464 211.695 276.319 210.005 276.319 207.47C276.319 205.13 277.814 203.375 282.559 203.375H289.514V206.95C288.344 210.135 285.419 211.695 282.039 211.695ZM318.516 187.645V183.03H308.831V218H318.971V201.49C318.971 194.795 322.676 191.74 328.266 191.74C329.046 191.74 329.696 191.805 330.541 191.87V182.51C325.146 182.51 320.986 184.265 318.516 187.645ZM370.508 200.645C370.508 189.4 362.578 182.51 352.308 182.51C341.648 182.51 333.653 190.05 333.653 200.515C333.653 210.915 341.518 218.52 353.608 218.52C359.913 218.52 364.788 216.57 368.038 212.865L362.643 207.015C360.238 209.29 357.573 210.395 353.868 210.395C348.538 210.395 344.833 207.73 343.858 203.375H370.313C370.378 202.53 370.508 201.425 370.508 200.645ZM352.373 190.18C356.923 190.18 360.238 193.04 360.953 197.46H343.728C344.443 192.975 347.758 190.18 352.373 190.18ZM416.922 182.51C412.177 182.51 408.082 184.135 405.352 187.125V183.03H395.667V218H405.807V200.71C405.807 194.275 409.317 191.285 414.192 191.285C418.677 191.285 421.277 193.885 421.277 199.54V218H431.417V197.98C431.417 187.32 425.177 182.51 416.922 182.51ZM457.63 218.52C468.745 218.52 476.805 211.045 476.805 200.515C476.805 189.985 468.745 182.51 457.63 182.51C446.515 182.51 438.39 189.985 438.39 200.515C438.39 211.045 446.515 218.52 457.63 218.52ZM457.63 210.2C452.56 210.2 448.66 206.56 448.66 200.515C448.66 194.47 452.56 190.83 457.63 190.83C462.7 190.83 466.535 194.47 466.535 200.515C466.535 206.56 462.7 210.2 457.63 210.2ZM49.7988 297.52C57.1438 297.52 62.9288 294.27 65.4638 288.68L57.5988 284.39C55.7138 287.77 52.9188 289.2 49.7338 289.2C44.5988 289.2 40.5688 285.625 40.5688 279.515C40.5688 273.405 44.5988 269.83 49.7338 269.83C52.9188 269.83 55.7138 271.325 57.5988 274.64L65.4638 270.415C62.9288 264.695 57.1438 261.51 49.7988 261.51C38.4238 261.51 30.2988 268.985 30.2988 279.515C30.2988 290.045 38.4238 297.52 49.7988 297.52ZM87.4977 297.52C98.6127 297.52 106.673 290.045 106.673 279.515C106.673 268.985 98.6127 261.51 87.4977 261.51C76.3827 261.51 68.2577 268.985 68.2577 279.515C68.2577 290.045 76.3827 297.52 87.4977 297.52ZM87.4977 289.2C82.4277 289.2 78.5277 285.56 78.5277 279.515C78.5277 273.47 82.4277 269.83 87.4977 269.83C92.5677 269.83 96.4027 273.47 96.4027 279.515C96.4027 285.56 92.5677 289.2 87.4977 289.2ZM158.236 261.51C152.971 261.51 148.421 263.655 145.626 267.23C143.156 263.395 138.996 261.51 134.121 261.51C129.636 261.51 125.736 263.07 123.136 266.06V262.03H113.451V297H123.591V279.45C123.591 273.21 126.776 270.285 131.261 270.285C135.486 270.285 137.891 272.885 137.891 278.54V297H148.031V279.45C148.031 273.21 151.216 270.285 155.766 270.285C159.861 270.285 162.396 272.885 162.396 278.54V297H172.536V276.98C172.536 266.32 166.556 261.51 158.236 261.51ZM226.409 261.51C221.144 261.51 216.594 263.655 213.799 267.23C211.329 263.395 207.169 261.51 202.294 261.51C197.809 261.51 193.909 263.07 191.309 266.06V262.03H181.624V297H191.764V279.45C191.764 273.21 194.949 270.285 199.434 270.285C203.659 270.285 206.064 272.885 206.064 278.54V297H216.204V279.45C216.204 273.21 219.389 270.285 223.939 270.285C228.034 270.285 230.569 272.885 230.569 278.54V297H240.709V276.98C240.709 266.32 234.729 261.51 226.409 261.51ZM284.434 279.645C284.434 268.4 276.504 261.51 266.234 261.51C255.574 261.51 247.579 269.05 247.579 279.515C247.579 289.915 255.444 297.52 267.534 297.52C273.839 297.52 278.714 295.57 281.964 291.865L276.569 286.015C274.164 288.29 271.499 289.395 267.794 289.395C262.464 289.395 258.759 286.73 257.784 282.375H284.239C284.304 281.53 284.434 280.425 284.434 279.645ZM266.299 269.18C270.849 269.18 274.164 272.04 274.879 276.46H257.654C258.369 271.975 261.684 269.18 266.299 269.18ZM312.44 261.51C307.695 261.51 303.6 263.135 300.87 266.125V262.03H291.185V297H301.325V279.71C301.325 273.275 304.835 270.285 309.71 270.285C314.195 270.285 316.795 272.885 316.795 278.54V297H326.935V276.98C326.935 266.32 320.695 261.51 312.44 261.51ZM355.951 288.16C354.846 289.005 353.351 289.46 351.856 289.46C349.126 289.46 347.501 287.835 347.501 284.845V270.61H356.211V262.81H347.501V254.295H337.361V262.81H331.966V270.61H337.361V284.975C337.361 293.295 342.171 297.52 350.426 297.52C353.546 297.52 356.601 296.805 358.681 295.31L355.951 288.16ZM376.138 297.52C386.603 297.52 392.648 292.905 392.648 286.405C392.648 272.625 371.523 278.41 371.523 272.43C371.523 270.61 373.473 269.18 378.023 269.18C381.208 269.18 384.653 269.83 388.098 271.78L391.478 264.565C388.163 262.615 382.833 261.51 378.023 261.51C367.818 261.51 361.838 266.19 361.838 272.82C361.838 286.795 382.963 280.945 382.963 286.665C382.963 288.615 381.208 289.85 376.528 289.85C372.238 289.85 367.493 288.485 364.373 286.47L360.993 293.75C364.243 295.895 370.223 297.52 376.138 297.52ZM442.273 262.03L432.393 285.755L422.578 262.03H412.113L427.258 297.26L427.128 297.585C425.763 300.705 424.203 301.94 421.408 301.94C419.393 301.94 417.248 301.095 415.688 299.73L411.983 306.945C414.258 308.96 418.158 310.13 421.733 310.13C428.038 310.13 432.848 307.595 436.228 299.145L452.023 262.03H442.273ZM489.463 279.645C489.463 268.4 481.533 261.51 471.263 261.51C460.603 261.51 452.608 269.05 452.608 279.515C452.608 289.915 460.473 297.52 472.563 297.52C478.868 297.52 483.743 295.57 486.993 291.865L481.598 286.015C479.193 288.29 476.528 289.395 472.823 289.395C467.493 289.395 463.788 286.73 462.813 282.375H489.268C489.333 281.53 489.463 280.425 489.463 279.645ZM471.328 269.18C475.878 269.18 479.193 272.04 479.908 276.46H462.683C463.398 271.975 466.713 269.18 471.328 269.18ZM516.039 288.16C514.934 289.005 513.439 289.46 511.944 289.46C509.214 289.46 507.589 287.835 507.589 284.845V270.61H516.299V262.81H507.589V254.295H497.449V262.81H492.054V270.61H497.449V284.975C497.449 293.295 502.259 297.52 510.514 297.52C513.634 297.52 516.689 296.805 518.769 295.31L516.039 288.16Z" fill="#2F2E44"/>
<defs>
<linearGradient id="paint0_linear" x1="275.016" y1="445.47" x2="193.271" y2="64.7715" gradientUnits="userSpaceOnUse">
<stop stop-color="#808080" stop-opacity="0.251"/>
<stop offset="0.54" stop-color="#808080" stop-opacity="0.122"/>
<stop offset="1" stop-color="#808080" stop-opacity="0.102"/>
</linearGradient>
<linearGradient id="paint1_linear" x1="236.027" y1="71.2371" x2="229.099" y2="38.9689" gradientUnits="userSpaceOnUse">
<stop stop-color="#808080" stop-opacity="0.251"/>
<stop offset="0.54" stop-color="#808080" stop-opacity="0.122"/>
<stop offset="1" stop-color="#808080" stop-opacity="0.102"/>
</linearGradient>
<linearGradient id="paint2_linear" x1="235.263" y1="54.3241" x2="235.263" y2="15.2847" gradientUnits="userSpaceOnUse">
<stop stop-color="#808080" stop-opacity="0.251"/>
<stop offset="0.54" stop-color="#808080" stop-opacity="0.122"/>
<stop offset="1" stop-color="#808080" stop-opacity="0.102"/>
</linearGradient>
<linearGradient id="paint3_linear" x1="318.767" y1="474.079" x2="318.767" y2="84.817" gradientUnits="userSpaceOnUse">
<stop stop-color="#808080" stop-opacity="0.251"/>
<stop offset="0.54" stop-color="#808080" stop-opacity="0.122"/>
<stop offset="1" stop-color="#808080" stop-opacity="0.102"/>
</linearGradient>
<linearGradient id="paint4_linear" x1="319.123" y1="104.173" x2="319.123" y2="71.179" gradientUnits="userSpaceOnUse">
<stop stop-color="#808080" stop-opacity="0.251"/>
<stop offset="0.54" stop-color="#808080" stop-opacity="0.122"/>
<stop offset="1" stop-color="#808080" stop-opacity="0.102"/>
</linearGradient>
<linearGradient id="paint5_linear" x1="318.662" y1="77.9275" x2="318.662" y2="38.9275" gradientUnits="userSpaceOnUse">
<stop stop-color="#808080" stop-opacity="0.251"/>
<stop offset="0.54" stop-color="#808080" stop-opacity="0.122"/>
<stop offset="1" stop-color="#808080" stop-opacity="0.102"/>
</linearGradient>
</defs>
</svg>
