<svg width="903" height="500" viewBox="0 0 903 500" fill="none" xmlns="http://www.w3.org/2000/svg">
<path opacity="0.1" d="M879.511 464.426C878.717 465.01 877.89 465.573 877.062 466.128C874.004 468.178 870.812 470.02 867.507 471.642C850.144 480.303 828.75 484.529 807.912 487.401C761.173 493.855 713.45 495.105 665.926 496.334C537.537 499.673 408.808 502.995 280.743 495.313C230.148 492.278 178.421 487.171 132.563 471.629C125.996 469.403 119.552 466.951 113.231 464.272C100.694 459.131 88.851 452.437 77.9792 444.349C68.3618 436.946 60.6161 428.435 55.969 418.768C46.2734 398.622 51.4027 375.997 62.4668 356.258C67.0919 348.247 72.2862 340.58 78.0097 333.313C86.5356 322.196 95.9424 311.428 104.544 300.328C135.126 260.79 155.079 210.854 126.851 170.355C118.709 158.72 107.008 148.506 100.399 136.361C91.9537 120.818 92.612 103.566 95.2999 86.7729C95.6403 84.6533 96.0404 82.5536 96.4021 80.4526C101.013 55.6062 109.599 28.8284 136.177 13.316C163.784 -2.80452 202.973 -1.98982 237.253 3.778C290.542 12.7477 339.701 31.4805 389.341 48.3998C438.981 65.3191 490.974 80.7732 545.566 82.445C593.763 83.9247 649.99 72.919 681.979 44.3581C713.065 16.6185 771.459 14.5082 813.572 31.2659C842.437 42.7671 864.012 63.483 873.108 86.7716C874.946 91.435 876.274 96.284 877.067 101.234C877.806 105.742 878.054 110.316 877.808 114.878C877.684 117.11 877.437 119.334 877.067 121.539C870.036 167.522 819.404 203.789 788.63 244.87C773.591 264.934 762.971 289.033 773.31 310.667C789.082 343.633 843.932 355.349 877.069 379.89C883.259 384.307 888.748 389.632 893.351 395.685C909.368 417.524 903.44 447.011 879.511 464.426Z" fill="#6C63FF"/>
<path opacity="0.1" d="M448.805 488.378C559.023 488.378 648.372 485.343 648.372 481.598C648.372 477.854 559.023 474.818 448.805 474.818C338.587 474.818 249.237 477.854 249.237 481.598C249.237 485.343 338.587 488.378 448.805 488.378Z" fill="#6C63FF"/>
<path d="M607.36 477.081C607.36 477.081 650.281 422.704 646.969 368.653C645.428 345.987 651.279 323.432 663.645 304.374C669.584 295.373 676.338 286.937 683.82 279.172" stroke="#535461" stroke-width="2" stroke-miterlimit="10"/>
<path d="M681.913 245.091C678.878 252.655 683.755 280.064 683.755 280.064C683.755 280.064 706.248 263.637 709.283 256.086C710.005 254.288 710.365 252.366 710.344 250.428C710.323 248.491 709.921 246.576 709.16 244.794C708.399 243.012 707.294 241.398 705.909 240.043C704.524 238.687 702.886 237.618 701.088 236.896C699.29 236.174 697.367 235.814 695.43 235.835C693.492 235.856 691.578 236.259 689.796 237.019C688.014 237.78 686.399 238.885 685.044 240.27C683.689 241.655 682.62 243.293 681.898 245.091H681.913Z" fill="#6C63FF"/>
<path d="M642.472 277.87C644.034 285.863 663.033 306.219 663.033 306.219C663.033 306.219 672.988 280.211 671.426 272.217C671.072 270.3 670.342 268.472 669.277 266.839C668.213 265.205 666.835 263.799 665.223 262.702C663.612 261.604 661.798 260.837 659.889 260.445C657.979 260.052 656.01 260.043 654.097 260.416C652.183 260.789 650.362 261.538 648.74 262.619C647.117 263.701 645.725 265.093 644.644 266.715C643.563 268.338 642.815 270.159 642.442 272.073C642.069 273.986 642.079 275.955 642.472 277.865V277.87Z" fill="#6C63FF"/>
<path d="M614.724 349.81C620.105 355.924 646.782 363.872 646.782 363.872C646.782 363.872 642.245 336.399 636.864 330.285C634.273 327.374 630.635 325.607 626.745 325.37C622.855 325.133 619.03 326.445 616.104 329.02C613.179 331.595 611.392 335.224 611.134 339.113C610.876 343.001 612.168 346.834 614.727 349.773L614.724 349.81Z" fill="#6C63FF"/>
<path d="M605.977 408.968C610.248 415.903 635.198 428.285 635.198 428.285C635.198 428.285 635.369 400.434 631.091 393.499C630.079 391.843 628.749 390.403 627.179 389.262C625.609 388.12 623.829 387.3 621.942 386.848C620.054 386.396 618.095 386.321 616.179 386.627C614.262 386.933 612.424 387.615 610.771 388.633C609.119 389.65 607.683 390.984 606.546 392.558C605.41 394.132 604.596 395.915 604.15 397.804C603.704 399.693 603.635 401.652 603.947 403.567C604.26 405.483 604.947 407.318 605.971 408.968H605.977Z" fill="#6C63FF"/>
<path d="M691.216 319.237C683.675 322.324 656.23 317.631 656.23 317.631C656.23 317.631 672.512 295.028 680.033 291.941C681.825 291.207 683.745 290.833 685.682 290.84C687.619 290.847 689.535 291.236 691.322 291.984C693.108 292.732 694.73 293.825 696.095 295.2C697.459 296.575 698.539 298.205 699.274 299.997C700.008 301.79 700.382 303.709 700.375 305.646C700.367 307.583 699.979 309.5 699.23 311.286C698.482 313.073 697.39 314.695 696.015 316.059C694.64 317.424 693.01 318.504 691.217 319.238L691.216 319.237Z" fill="#6C63FF"/>
<path d="M680.115 388.291C671.973 388.986 647.209 376.293 647.209 376.293C647.209 376.293 669.495 359.601 677.606 358.899C681.505 358.566 685.376 359.796 688.368 362.317C691.36 364.839 693.227 368.446 693.56 372.344C693.893 376.243 692.663 380.114 690.142 383.106C687.62 386.098 684.014 387.966 680.115 388.298V388.291Z" fill="#6C63FF"/>
<path d="M660.072 453.932C652.19 455.982 625.619 447.663 625.619 447.663C625.619 447.663 644.758 427.443 652.643 425.385C656.387 424.524 660.319 425.158 663.603 427.151C666.887 429.144 669.263 432.34 670.228 436.059C671.192 439.777 670.667 443.725 668.765 447.063C666.864 450.401 663.735 452.865 660.044 453.932H660.072Z" fill="#6C63FF"/>
<path opacity="0.25" d="M681.913 245.091C678.878 252.655 683.755 280.064 683.755 280.064C683.755 280.064 706.248 263.637 709.283 256.086C710.005 254.288 710.365 252.366 710.344 250.428C710.323 248.491 709.921 246.576 709.16 244.794C708.399 243.012 707.294 241.398 705.909 240.043C704.524 238.687 702.886 237.618 701.088 236.896C699.29 236.174 697.367 235.814 695.43 235.835C693.492 235.856 691.578 236.259 689.796 237.019C688.014 237.78 686.399 238.885 685.044 240.27C683.689 241.655 682.62 243.293 681.898 245.091H681.913Z" fill="black"/>
<path opacity="0.25" d="M642.472 277.87C644.034 285.863 663.033 306.219 663.033 306.219C663.033 306.219 672.988 280.211 671.426 272.217C671.072 270.3 670.342 268.472 669.277 266.839C668.213 265.205 666.835 263.799 665.223 262.702C663.612 261.604 661.798 260.837 659.889 260.445C657.979 260.052 656.01 260.043 654.097 260.416C652.183 260.789 650.362 261.538 648.74 262.619C647.117 263.701 645.725 265.093 644.644 266.715C643.563 268.338 642.815 270.159 642.442 272.073C642.069 273.986 642.079 275.955 642.472 277.865V277.87Z" fill="black"/>
<path opacity="0.25" d="M614.724 349.81C620.105 355.924 646.782 363.872 646.782 363.872C646.782 363.872 642.245 336.399 636.864 330.285C634.273 327.374 630.635 325.607 626.745 325.37C622.855 325.133 619.03 326.445 616.104 329.02C613.179 331.595 611.392 335.224 611.134 339.113C610.876 343.001 612.168 346.834 614.727 349.773L614.724 349.81Z" fill="black"/>
<path opacity="0.25" d="M605.977 408.968C610.248 415.903 635.198 428.285 635.198 428.285C635.198 428.285 635.369 400.434 631.091 393.499C630.079 391.843 628.749 390.403 627.179 389.262C625.609 388.12 623.829 387.3 621.942 386.848C620.054 386.396 618.095 386.321 616.179 386.627C614.262 386.933 612.424 387.615 610.771 388.633C609.119 389.65 607.683 390.984 606.546 392.558C605.41 394.132 604.596 395.915 604.15 397.804C603.704 399.693 603.635 401.652 603.947 403.567C604.26 405.483 604.947 407.318 605.971 408.968H605.977Z" fill="black"/>
<path opacity="0.25" d="M691.216 319.237C683.675 322.324 656.23 317.631 656.23 317.631C656.23 317.631 672.512 295.028 680.033 291.941C681.825 291.207 683.745 290.833 685.682 290.84C687.619 290.847 689.535 291.236 691.322 291.984C693.108 292.732 694.73 293.825 696.095 295.2C697.459 296.575 698.539 298.205 699.274 299.997C700.008 301.79 700.382 303.709 700.375 305.646C700.367 307.583 699.979 309.5 699.23 311.286C698.482 313.073 697.39 314.695 696.015 316.059C694.64 317.424 693.01 318.504 691.217 319.238L691.216 319.237Z" fill="black"/>
<path opacity="0.25" d="M680.115 388.291C671.973 388.986 647.209 376.293 647.209 376.293C647.209 376.293 669.495 359.601 677.606 358.899C681.505 358.566 685.376 359.796 688.368 362.317C691.36 364.839 693.227 368.446 693.56 372.344C693.893 376.243 692.663 380.114 690.142 383.106C687.62 386.098 684.014 387.966 680.115 388.298V388.291Z" fill="black"/>
<path opacity="0.25" d="M660.072 453.932C652.19 455.982 625.619 447.663 625.619 447.663C625.619 447.663 644.758 427.443 652.643 425.385C656.387 424.524 660.319 425.158 663.603 427.151C666.887 429.144 669.263 432.34 670.228 436.059C671.192 439.777 670.667 443.725 668.765 447.063C666.864 450.401 663.735 452.865 660.044 453.932H660.072Z" fill="black"/>
<path d="M607.73 474.809C607.73 474.809 669.012 442.503 687.875 391.737C695.659 370.396 710.146 352.149 729.167 339.729C738.248 333.908 747.843 328.931 757.832 324.86" stroke="#535461" stroke-width="2" stroke-miterlimit="10"/>
<path d="M769.891 292.924C764.062 298.6 757.406 325.645 757.406 325.645C757.406 325.645 784.621 319.723 790.46 314.069C791.848 312.719 792.957 311.108 793.723 309.329C794.489 307.55 794.897 305.637 794.924 303.7C794.951 301.763 794.596 299.84 793.88 298.041C793.163 296.241 792.099 294.6 790.749 293.212C789.398 291.823 787.787 290.714 786.008 289.948C784.229 289.182 782.317 288.774 780.38 288.747C778.443 288.721 776.52 289.075 774.72 289.792C772.92 290.508 771.28 291.572 769.891 292.923V292.924Z" fill="#6C63FF"/>
<path d="M720.557 306.92C718.744 314.861 727.862 341.173 727.862 341.173C727.862 341.173 747.497 321.435 749.322 313.486C749.761 311.596 749.822 309.637 749.502 307.723C749.182 305.808 748.487 303.976 747.458 302.33C746.429 300.685 745.085 299.259 743.503 298.134C741.921 297.009 740.133 296.207 738.241 295.775C736.349 295.343 734.39 295.288 732.477 295.614C730.563 295.94 728.733 296.64 727.091 297.675C725.449 298.71 724.027 300.058 722.907 301.644C721.788 303.229 720.992 305.02 720.565 306.913L720.557 306.92Z" fill="#6C63FF"/>
<path d="M666.052 361.445C668.495 369.216 689.646 387.35 689.646 387.35C689.646 387.35 696.633 360.395 694.19 352.624C693.645 350.733 692.726 348.97 691.489 347.44C690.252 345.909 688.722 344.641 686.987 343.711C685.253 342.781 683.35 342.208 681.39 342.025C679.431 341.841 677.455 342.052 675.578 342.644C673.701 343.237 671.962 344.199 670.462 345.473C668.963 346.748 667.734 348.31 666.847 350.067C665.961 351.824 665.435 353.741 665.301 355.704C665.166 357.668 665.426 359.638 666.065 361.499L666.052 361.445Z" fill="#6C63FF"/>
<path d="M634.06 411.988C635.155 420.056 652.941 441.482 652.941 441.482C652.941 441.482 664.384 416.095 663.303 408.021C663.056 406.089 662.43 404.226 661.46 402.538C660.489 400.85 659.195 399.37 657.65 398.185C656.105 397 654.341 396.132 652.459 395.632C650.577 395.131 648.615 395.009 646.686 395.271C644.756 395.532 642.898 396.174 641.217 397.157C639.537 398.141 638.068 399.447 636.895 401.002C635.722 402.556 634.868 404.327 634.383 406.212C633.898 408.098 633.791 410.061 634.068 411.988H634.06Z" fill="#6C63FF"/>
<path d="M748.318 364.472C740.176 364.243 716.981 348.826 716.981 348.826C716.981 348.826 741.012 334.764 749.154 334.985C751.09 335.04 752.997 335.476 754.764 336.267C756.532 337.059 758.127 338.191 759.457 339.599C760.788 341.007 761.827 342.663 762.518 344.473C763.208 346.283 763.535 348.211 763.48 350.147C763.425 352.083 762.99 353.99 762.198 355.758C761.406 357.526 760.274 359.12 758.866 360.451C757.458 361.781 755.802 362.821 753.992 363.511C752.182 364.201 750.254 364.528 748.318 364.473V364.472Z" fill="#6C63FF"/>
<path d="M710.193 423.105C702.496 420.448 684.977 398.807 684.977 398.807C684.977 398.807 712.11 392.568 719.817 395.231C723.429 396.572 726.372 399.273 728.019 402.756C729.665 406.24 729.883 410.229 728.626 413.871C727.369 417.513 724.737 420.519 721.293 422.245C717.849 423.972 713.866 424.283 710.195 423.111L710.193 423.105Z" fill="#6C63FF"/>
<path d="M665.313 474.995C657.274 473.676 636.344 455.307 636.344 455.307C636.344 455.307 662.043 444.567 670.079 445.885C671.994 446.194 673.83 446.878 675.481 447.897C677.131 448.916 678.565 450.251 679.699 451.825C680.833 453.399 681.645 455.182 682.089 457.07C682.533 458.959 682.6 460.917 682.287 462.831C681.973 464.746 681.285 466.58 680.261 468.228C679.238 469.876 677.899 471.306 676.322 472.436C674.745 473.566 672.961 474.374 671.071 474.813C669.181 475.252 667.224 475.314 665.31 474.996L665.313 474.995Z" fill="#6C63FF"/>
<path d="M613.105 479.325H606.545L558.52 231.436L552.364 479.325H545.393L537.59 231.849L490.8 479.325H483.413L515.215 224.537L516.251 216.255L578.636 209.275L580.576 224.536L613.105 479.325Z" fill="#464353"/>
<path d="M480.585 159.585H440.878V184.209H480.585V159.585Z" fill="#464353"/>
<path d="M671.271 148.816L695.28 139.12H700.542C700.922 139.12 701.298 139.195 701.65 139.341C702.001 139.486 702.32 139.699 702.588 139.968C702.857 140.237 703.07 140.556 703.215 140.907C703.361 141.259 703.435 141.635 703.435 142.015V209.632C703.435 210.013 703.361 210.389 703.215 210.74C703.07 211.091 702.857 211.41 702.588 211.679C702.32 211.948 702.001 212.161 701.65 212.307C701.298 212.452 700.922 212.527 700.542 212.527H695.28L671.271 202.528V148.816Z" fill="#464353"/>
<path d="M671.271 151.895H622.178V199.448H671.271V151.895Z" fill="#464353"/>
<path d="M568.564 62.5756H536.961V68.3196H568.564V62.5756Z" fill="#514E7F"/>
<path d="M589.858 70.0139H500.902V134.959H589.858V70.0139Z" fill="#514E7F"/>
<path opacity="0.1" d="M589.858 127.271H500.902V134.969H589.858V127.271Z" fill="black"/>
<path opacity="0.1" d="M623.406 151.895H621.415V199.448H623.406V151.895Z" fill="black"/>
<path opacity="0.1" d="M480.585 159.585H467.041V184.209H480.585V159.585Z" fill="black"/>
<path opacity="0.1" d="M580.576 224.537H515.215L516.251 216.255L578.643 209.276L580.576 224.537Z" fill="black"/>
<path d="M607.997 128.499H482.445C474.616 128.499 468.27 134.845 468.27 142.673V209.126C468.27 216.955 474.616 223.301 482.445 223.301H607.997C615.826 223.301 622.172 216.955 622.172 209.126V142.673C622.172 134.845 615.826 128.499 607.997 128.499Z" fill="#514E7F"/>
<path d="M670.805 148.816H671.271V202.527H670.805C670.3 202.527 669.801 202.427 669.335 202.234C668.869 202.041 668.445 201.758 668.088 201.401C667.732 201.045 667.449 200.621 667.256 200.155C667.063 199.689 666.963 199.189 666.963 198.685V152.658C666.963 151.639 667.368 150.662 668.088 149.941C668.809 149.221 669.786 148.816 670.805 148.816V148.816Z" fill="#514E7F"/>
<path d="M695.28 139.142H700.261C701.104 139.142 701.913 139.477 702.509 140.073C703.106 140.669 703.441 141.478 703.441 142.321V209.391C703.441 210.235 703.106 211.043 702.509 211.64C701.913 212.236 701.104 212.571 700.261 212.571H695.28V139.142Z" fill="#514E7F"/>
<path opacity="0.1" d="M447.961 159.585H440.878V184.209H447.961V159.585Z" fill="black"/>
<path d="M446.724 158.819C446.724 154.995 443.624 151.895 439.8 151.895C435.976 151.895 432.876 154.995 432.876 158.819V186.831C432.876 190.656 435.976 193.756 439.8 193.756C443.624 193.756 446.724 190.656 446.724 186.831V158.819Z" fill="#514E7F"/>
<path d="M500.902 114.342C525.383 114.342 545.228 94.496 545.228 70.0152C545.228 45.5344 525.383 25.6888 500.902 25.6888C476.421 25.6888 456.575 45.5344 456.575 70.0152C456.575 94.496 476.421 114.342 500.902 114.342Z" fill="#464353"/>
<path d="M500.902 103.262C519.263 103.262 534.148 88.3767 534.148 70.0152C534.148 51.6537 519.263 36.7688 500.902 36.7688C482.54 36.7688 467.655 51.6537 467.655 70.0152C467.655 88.3767 482.54 103.262 500.902 103.262Z" fill="#6C63FF"/>
<path d="M583.086 103.262C600.937 103.262 615.408 88.7907 615.408 70.9399C615.408 53.089 600.937 38.6181 583.086 38.6181C565.235 38.6181 550.764 53.089 550.764 70.9399C550.764 88.7907 565.235 103.262 583.086 103.262Z" fill="#464353"/>
<path d="M583.086 95.1795C596.473 95.1795 607.326 84.3271 607.326 70.9399C607.326 57.5526 596.473 46.7002 583.086 46.7002C569.699 46.7002 558.846 57.5526 558.846 70.9399C558.846 84.3271 569.699 95.1795 583.086 95.1795Z" fill="#6C63FF"/>
<path d="M580.577 146.863C582.928 146.863 584.833 144.958 584.833 142.607C584.833 140.256 582.928 138.351 580.577 138.351C578.226 138.351 576.321 140.256 576.321 142.607C576.321 144.958 578.226 146.863 580.577 146.863Z" fill="#6C63FF"/>
<path opacity="0.5" d="M594.113 146.863C596.464 146.863 598.369 144.958 598.369 142.607C598.369 140.256 596.464 138.351 594.113 138.351C591.762 138.351 589.857 140.256 589.857 142.607C589.857 144.958 591.762 146.863 594.113 146.863Z" fill="#6C63FF"/>
<path d="M540.549 157.29L540.246 156.69C542.123 157.314 543.925 158.143 545.619 159.162C544.879 152.731 520.211 134.672 515.769 134.672C511.327 134.672 506.392 127.005 506.392 127.005C506.392 127.005 493.566 125.028 491.589 122.934C489.613 120.839 476.291 122.061 473.085 122.801C469.88 123.542 464.944 120.825 464.944 120.825C464.944 120.825 462.228 116.384 458.778 116.384C455.329 116.384 451.637 111.44 451.637 111.44C451.637 111.44 448.418 108.48 445.457 107.976C442.496 107.473 438.796 104.275 437.064 101.796C435.331 99.3179 426.702 98.0952 421.772 98.8358C416.843 99.5763 403.514 97.829 403.514 97.829C405.17 96.9865 406.627 95.8009 407.788 94.3511C408.949 92.9012 409.788 91.2206 410.249 89.421C405.394 89.1693 392.63 78.4523 392.63 78.4523C392.63 78.4523 393.16 81.9165 393.763 86.749L392.941 85.6893L392.83 85.778C392.569 82.3301 392.532 78.8688 392.719 75.4161C392.719 75.1511 392.764 74.8862 392.778 74.6093C395.938 71.8408 398.281 68.2615 399.554 64.2581C400.827 60.2547 400.982 55.9794 400.002 51.8944C399.87 51.3314 399.713 50.7843 399.536 50.2438C400.48 50.6368 401.478 50.8864 402.497 50.9843H403.026C403.639 50.9884 404.245 50.8625 404.805 50.615C405.365 50.3675 405.867 50.0039 406.276 49.5483V49.5483C406.415 49.3728 406.536 49.1843 406.639 48.9853C406.664 48.9476 406.686 48.9082 406.705 48.8674C406.793 48.6856 406.868 48.4974 406.928 48.3044C406.948 48.2364 406.966 48.1675 406.979 48.0978C407.017 47.9466 407.046 47.7936 407.068 47.6394V46.9585C407.037 45.8205 406.786 44.6993 406.328 43.6573C405.55 41.7484 404.433 39.8607 404.514 37.7954C404.523 37.6291 404.542 37.4636 404.574 37.3C404.95 35.6929 405.475 34.1243 406.142 32.6145V32.5482C406.216 32.319 406.275 32.0899 406.328 31.8594C406.352 31.7918 406.372 31.7228 406.387 31.6527C406.442 31.3817 406.48 31.1073 406.499 30.8314V30.7718C406.691 27.6785 404.196 24.9761 401.369 23.7256C398.838 22.6009 395.938 22.2975 393.628 20.7648C390.985 19.0255 389.534 16.0131 387.58 13.5186C384.739 9.89157 380.294 7.18385 375.739 7.70182C372.934 8.01975 370.388 9.49283 367.597 10.0625C363.358 10.9434 358.871 9.66505 354.652 10.6467C353.627 10.8167 352.695 11.3403 352.017 12.1264C351.735 12.5234 351.553 12.983 351.487 13.4657V13.4657C351.428 13.9128 351.428 14.3658 351.487 14.8129V14.85C351.535 15.2764 351.611 15.6991 351.716 16.1151L351.782 16.38C351.791 16.4705 351.811 16.5595 351.842 16.645C351.865 16.7337 351.939 16.9934 351.982 17.1629C352.063 17.4517 352.131 17.7405 352.205 18.0359V18.1393C352.271 18.4426 352.337 18.746 352.39 19.0573C352.51 19.6981 352.589 20.3459 352.628 20.9967V20.9967C352.802 22.828 352.406 24.6683 351.495 26.2664C349.64 29.2271 345.715 30.5373 344.005 33.6226C343.601 34.3673 343.349 35.1851 343.264 36.0282V36.0282C343.234 36.3084 343.221 36.5903 343.227 36.8721V36.9834C343.217 37.2321 343.239 37.4811 343.294 37.7239C343.29 37.783 343.29 37.8423 343.294 37.9014C343.332 38.1211 343.381 38.3387 343.442 38.5532C343.45 38.6248 343.471 38.6946 343.502 38.7598C343.583 39.0131 343.682 39.2606 343.797 39.5003V39.5003C344.592 41.1509 346.083 42.5127 346.395 44.3037C346.39 44.3606 346.403 44.4176 346.432 44.4667C346.434 45.8247 346.206 47.1733 345.759 48.4554C345.721 48.6167 345.691 48.7799 345.67 48.9442V48.9442V49.9285C345.666 49.9973 345.666 50.0663 345.67 50.1352V50.616C345.684 50.7101 345.709 50.8022 345.744 50.8902L345.796 51.0757C345.831 51.166 345.87 51.2545 345.914 51.3407L345.995 51.5036C346.049 51.5954 346.108 51.6838 346.172 51.7685C346.199 51.8096 346.229 51.849 346.261 51.8864C346.362 52.0052 346.476 52.1119 346.601 52.2044C347.623 52.9449 349.214 52.7515 350.046 53.6841C350.14 53.7969 350.22 53.921 350.283 54.0537L350.328 54.1424C350.389 54.2727 350.436 54.409 350.468 54.5491V54.5491C350.587 55.1055 350.587 55.6805 350.468 56.2368C350.173 57.7165 349.541 59.0637 349.21 60.5143C349.144 60.8097 349.098 61.1144 349.061 61.4178C349.068 61.5544 349.055 61.6913 349.024 61.8245V62.402C349.017 62.5908 349.032 62.7798 349.069 62.9651C349.114 63.1505 349.069 63.1426 349.114 63.23L349.159 63.4446C349.173 63.5442 349.2 63.6414 349.24 63.7334L349.306 63.9188C349.344 64.0222 349.395 64.1255 349.439 64.2302C349.461 64.2784 349.486 64.3253 349.513 64.3706C349.587 64.5219 349.676 64.6657 349.778 64.7998C350.256 65.363 350.861 65.8044 351.543 66.0875C352.225 66.3706 352.964 66.4873 353.701 66.4279C354.582 66.4231 355.46 66.3241 356.321 66.1325C356.513 66.5842 356.718 67.0359 356.928 67.4717C358 69.6321 359.406 71.6103 361.094 73.3336C361.083 73.5645 361.059 73.7946 361.02 74.0225C360.849 75.7102 360.642 77.5237 360.405 79.3518C358.488 78.4709 357.008 78.1304 356.423 78.7676C353.943 81.4912 356.423 90.8914 356.423 90.8914C356.423 90.8914 344.322 90.8914 341.361 93.6071C338.4 96.3228 332.975 93.6071 332.975 93.6071C332.975 93.6071 321.873 94.851 322.613 97.0779C323.354 99.3047 316.692 97.0779 316.692 97.0779C316.692 97.0779 312 97.5733 312.251 100.779C312.503 103.985 305.098 105.471 306.078 107.699C307.059 109.928 301.638 111.401 301.638 111.401C301.638 111.401 296.207 111.157 298.194 114.361C298.194 114.361 295.233 121.288 292.762 121.763C290.292 122.237 287.086 127.942 287.086 127.942C287.086 127.942 277.582 129.674 278.011 132.643C278.441 135.611 263.401 156.845 263.401 156.845C263.401 156.845 258.464 167.022 261.921 174.445C265.379 181.869 267.843 186.813 268.582 189.529C269.321 192.244 278.292 204.205 278.218 206.433C278.218 207.129 280.438 210.874 283.465 215.626L282.578 216.544L280.632 218.549C280.632 218.549 274.459 233.884 281.86 234.625C288.114 235.246 292.606 235.698 294.886 235.076C295.256 234.99 295.607 234.837 295.922 234.625L296.01 234.558C298.705 238.533 300.614 241.314 300.614 241.314C300.614 241.314 300.879 240.917 301.354 240.255L302.095 241.314C302.095 241.314 302.687 240.471 303.694 239.094C303.368 245.822 303.324 252.454 303.324 252.454C303.324 252.454 306.537 251.959 305.056 266.798C303.575 281.638 313.931 293.753 313.931 293.753V315.771C313.941 316.266 313.975 316.76 314.035 317.251C314.309 320.412 315.211 327.865 317.876 332.794C321.332 339.219 317.876 356.042 317.876 356.042C317.876 356.042 317.647 369.763 318.476 386.876C318.476 387.342 318.528 387.823 318.551 388.297C303.581 400.805 287.532 417.384 287.532 417.384C288.318 417.604 289.067 417.94 289.752 418.383L288.857 419.53L284.779 424.556L281.627 428.449L286.622 443.836L292.077 441.704C292.077 441.704 295.038 446.834 294.417 450.315C294.322 450.943 294.067 451.536 293.676 452.037C293.488 452.29 293.357 452.581 293.292 452.889C291.864 458.462 297.821 482.494 307.273 483.538C307.273 483.538 310.478 484.597 311.512 481.71C312.008 480.319 312.001 478.008 310.891 474.257C310.891 474.257 305.896 468.232 309.129 461.741C311.023 457.944 314.155 452.865 316.415 449.27L317.342 447.79C319.377 450.359 320.629 452.009 320.629 452.009L327.896 444.194C328.051 444.526 328.208 444.856 328.371 445.163C328.914 446.252 329.543 447.297 330.25 448.287L335.18 467.833L337.167 467.389C337.122 467.864 337.093 468.366 337.063 468.869C336.9 472.377 337.063 476.929 338.685 480.178C339.222 481.468 340.146 482.559 341.33 483.3C342.514 484.041 343.899 484.396 345.294 484.315C356.766 484.034 360.096 477.824 360.096 477.824V462.235L364.041 461.354C364.041 461.354 363.753 427.204 362.739 408.161C362.739 407.74 362.694 407.332 362.673 406.933V406.764L388.007 379.52L389.953 378.742C406.235 372.31 406.487 355.738 406.487 355.738C406.54 350.079 407.2 344.441 408.455 338.922C410.424 331.255 408.707 291.428 405.011 281.541C402.617 274.727 400.961 267.675 400.074 260.507C400.074 260.507 403.775 255.326 400.074 251.011C399.028 249.718 398.157 248.293 397.484 246.772L402.302 245.977L405.084 245.519L406.563 245.267C405.823 251.81 405.697 256.836 407.451 258.035C412.882 261.736 431.136 249.375 431.136 249.375C424.475 249.375 420.774 199.661 422.128 198.425C423.481 197.189 425.503 172.277 423.733 167.836C421.963 163.396 429.943 143.567 429.943 143.567L431.171 141.747C431.171 141.747 460.287 154.455 463.494 156.89C466.702 159.325 476.817 150.969 478.541 154.204C480.264 157.439 491.125 162.257 491.125 162.257C491.125 162.257 507.164 160.635 508.889 164.596C510.613 168.557 520.982 177.83 520.982 177.83C520.989 175.656 521.122 173.483 521.379 171.324C521.594 171.834 521.802 172.354 522.023 172.878C526.938 184.505 535.115 199.227 542.689 191.308C551.282 182.312 544.746 165.676 540.549 157.29ZM321.111 209.839V209.98L321.052 209.92L321.111 209.839ZM315.367 152.79L312.229 185.882L306.064 192.269L305.323 193.054L298.951 186.119C298.951 186.119 295.739 184.639 298.951 181.915C302.164 179.192 293.52 173.04 293.52 173.04C293.52 173.04 293.268 168.599 296.481 167.355C299.693 166.112 303.882 157.95 303.882 157.95L315.48 152.028L315.367 152.79ZM356.636 322.161C356.861 321.952 357.11 321.771 357.377 321.62C358.761 320.836 359.649 321.694 360.108 323.21C360.711 325.74 360.526 328.395 359.578 330.818C357.856 334.777 362.05 350.609 362.05 350.609C362.05 350.609 356.619 353.073 355.633 357.781C355.487 358.359 355.236 358.906 354.893 359.394C354.827 358.98 354.76 358.58 354.707 358.196C354.226 355.235 353.967 353.326 353.967 353.326C353.082 349.517 352.914 345.576 353.471 341.705C354.256 336.947 355.84 327.281 356.432 323.616C356.58 322.729 356.661 322.195 356.669 322.137L356.636 322.161Z" fill="url(#paint0_linear)"/>
<path d="M391.032 81.1905L392.631 80.1308L397.135 89.6409L395.404 91.6757H390.171C390.171 91.6757 390.357 86.4947 390.483 86.3092C390.609 86.1238 391.032 81.1905 391.032 81.1905Z" fill="#464353"/>
<path d="M360.092 458.172V478.525C360.092 478.525 356.762 484.719 345.29 485.002C343.897 485.084 342.513 484.731 341.329 483.993C340.145 483.254 339.22 482.166 338.681 480.879C337.082 477.637 336.898 473.092 337.06 469.592C337.141 467.841 337.327 466.097 337.615 464.368L360.092 458.172Z" fill="#3F3D56"/>
<path opacity="0.1" d="M360.094 458.172V464.471L337.061 469.592C337.143 467.841 337.328 466.097 337.616 464.368L360.094 458.172Z" fill="black"/>
<path d="M364.039 462.121L335.174 468.538L330.245 449.043C329.539 448.055 328.911 447.013 328.365 445.928C328.047 445.306 327.736 444.648 327.438 443.959C322.065 431.666 319.674 409.491 318.653 390.626C318.601 389.671 318.549 388.724 318.504 387.791C317.675 370.723 317.904 357.031 317.904 357.031C317.904 357.031 321.36 340.252 317.904 333.849C315.24 328.905 314.337 321.473 314.062 318.306C313.988 317.365 313.959 316.826 313.959 316.826L314.489 315.427L316.666 309.669H340.6L354.51 321.444L356.63 323.235L356.392 324.715C355.792 328.371 354.209 338.037 353.432 342.759C352.875 346.619 353.043 350.55 353.927 354.349C353.927 354.349 354.216 356.228 354.668 359.212C354.779 359.952 354.905 360.736 355.045 361.587C356.814 372.526 360.129 392.502 361.543 397.276C362.129 400.257 362.463 403.283 362.542 406.32C362.601 407.207 362.653 408.133 362.705 409.102C363.75 428.057 364.039 462.121 364.039 462.121Z" fill="#514E7F"/>
<path opacity="0.1" d="M360.092 478.318V478.525C360.092 478.525 356.762 484.719 345.29 485.001C343.897 485.084 342.513 484.731 341.329 483.993C340.145 483.254 339.22 482.166 338.681 480.879C343.825 482.144 352.173 482.959 360.092 478.318Z" fill="black"/>
<path d="M542.66 192.713C535.052 200.61 526.91 185.927 521.994 174.329C519.233 167.801 517.502 162.242 517.502 162.242L537.751 153.671C537.751 153.671 538.995 155.648 540.556 158.778C544.746 167.141 551.282 183.736 542.66 192.713Z" fill="#FFB8B8"/>
<path d="M392.748 77.0971C392.424 84.4222 392.973 91.7598 394.384 98.955C394.384 98.955 353.185 103.395 356.895 96.9865C359.063 93.2269 360.471 83.3021 361.254 75.7155C361.824 70.3424 362.075 66.1457 362.075 66.1457C362.075 66.1457 401.552 50.359 395.625 63.6817C393.884 67.9494 392.91 72.4909 392.748 77.0971V77.0971Z" fill="#FFB8B8"/>
<path d="M396.225 183.09L390.689 249.206L416.097 245.017L411.66 190.492L413.139 175.933L396.225 183.09Z" fill="#464353"/>
<path opacity="0.1" d="M416.099 245.122L405.064 246.942L390.683 249.31L391.696 237.246L396.225 183.198L401.991 180.755L406.076 179.033L413.137 176.043L411.657 190.602L416.099 245.122Z" fill="#848393"/>
<path d="M309.113 462.412C305.878 468.889 310.875 474.898 310.875 474.898C311.985 478.651 311.993 480.945 311.496 482.299C310.467 485.178 307.257 484.119 307.257 484.119C297.176 483.009 291.071 455.817 293.662 452.701C296.253 449.585 292.085 442.428 292.085 442.428L286.63 444.547L281.635 429.196L284.787 425.311L288.865 420.293L291.626 416.888L319.196 445.657C319.196 445.657 318.019 447.426 316.398 449.965C314.139 453.531 311.008 458.638 309.113 462.412Z" fill="#3F3D56"/>
<path opacity="0.1" d="M362.74 409.058L328.364 445.924C322.339 434.156 319.753 410.546 318.654 390.614C325.056 385.285 331.239 380.696 335.914 378.484C335.914 378.484 351.737 367.034 355.076 361.542C356.844 372.481 360.16 392.457 361.573 397.231C362.269 401.137 362.659 405.091 362.74 409.058V409.058Z" fill="black"/>
<path opacity="0.1" d="M354.521 321.427L314.494 315.41L316.671 309.651H340.606L354.521 321.427Z" fill="black"/>
<path opacity="0.1" d="M362.603 406.275L327.469 443.955C322.065 431.662 319.675 409.487 318.654 390.622C318.602 389.667 318.551 388.72 318.506 387.787C324.968 382.399 331.223 377.766 335.914 375.531C335.914 375.531 350.679 364.851 354.698 359.175C354.809 359.915 354.935 360.699 355.076 361.55C356.844 372.489 360.16 392.465 361.573 397.239C362.148 400.22 362.492 403.241 362.603 406.275V406.275Z" fill="black"/>
<path opacity="0.1" d="M319.201 445.68C319.201 445.68 318.025 447.448 316.403 449.988C310.519 442.55 296.568 425.424 288.87 420.314L291.631 416.91L319.201 445.68Z" fill="black"/>
<path d="M408.445 339.99C407.19 345.496 406.53 351.122 406.476 356.769C406.476 356.769 406.224 373.296 389.942 379.713L387.996 380.454L320.648 452.709C320.648 452.709 295.727 420.143 287.587 418.167C287.587 418.167 320.396 384.365 335.939 376.968C335.939 376.968 354.694 363.402 355.677 358.716C356.66 354.031 362.094 351.563 362.094 351.563C362.094 351.563 357.897 335.776 359.622 331.824C360.571 329.409 360.755 326.761 360.152 324.238C359.694 322.758 358.805 321.877 357.42 322.648C357.153 322.799 356.905 322.98 356.68 323.189L314.004 316.772V294.842C314.004 294.842 303.642 282.756 305.129 267.951C306.615 253.145 303.397 253.644 303.397 253.644C303.397 253.644 303.552 228.642 305.662 226.554C307.773 224.467 328.037 214.905 328.037 214.905L391.569 226.191L394.189 238.344C394.189 238.344 396.41 248.015 400.111 252.303C403.812 256.591 400.111 261.769 400.111 261.769C401.001 268.92 402.656 275.954 405.048 282.752C408.733 292.637 410.421 332.344 408.445 339.99Z" fill="#514E7F"/>
<path opacity="0.1" d="M395.619 63.6857C393.883 67.9534 392.911 72.4929 392.747 77.0971C388.315 80.936 382.581 82.9324 376.723 82.6765C370.865 82.4205 365.328 79.9316 361.248 75.7208C361.817 70.3477 362.069 66.151 362.069 66.151C362.069 66.151 401.54 50.363 395.619 63.6857Z" fill="black"/>
<path d="M400.666 59.0465C400.662 64.8968 398.423 70.5244 394.407 74.7788C390.391 79.0332 384.902 81.5929 379.062 81.9347C373.222 82.2764 367.472 80.3743 362.987 76.6173C358.503 72.8602 355.623 67.5321 354.936 61.7223C354.25 55.9124 355.808 50.0598 359.294 45.361C362.779 40.6622 367.927 37.4722 373.686 36.4433C379.445 35.4144 385.38 36.6242 390.277 39.8254C395.173 43.0266 398.662 47.9774 400.03 53.6655C400.454 55.4278 400.667 57.234 400.666 59.0465V59.0465Z" fill="#FFB8B8"/>
<path opacity="0.1" d="M382.054 98.9603C382.054 98.9603 365.564 91.3153 364.534 90.3231C363.505 89.3309 329.297 177.169 329.297 177.169L319.675 220.837C319.675 220.837 370.988 242.789 382.089 239.828C393.19 236.867 394.176 239.828 394.176 239.828C394.176 239.828 405.529 176.178 409.23 170.508C412.931 164.838 405.774 107.102 405.774 107.102L392.948 90.3165L382.054 98.9603Z" fill="black"/>
<path opacity="0.1" d="M382.054 95.9995C382.054 95.9995 365.564 88.3546 364.534 87.3624C363.505 86.3702 329.297 174.208 329.297 174.208L319.675 217.876C319.675 217.876 370.988 239.828 382.089 236.867C393.19 233.907 394.176 236.867 394.176 236.867C394.176 236.867 405.529 173.217 409.23 167.548C412.931 161.878 405.774 104.141 405.774 104.141L392.948 87.3557L382.054 95.9995Z" fill="black"/>
<path d="M409.185 169.027C407.801 172.206 406.759 175.524 406.076 178.923C405.203 182.445 404.256 186.642 403.286 191.157C398.915 211.532 394.138 238.355 394.138 238.355C394.138 238.355 393.834 237.452 391.695 237.142C389.963 236.89 387.017 237.03 382.073 238.355C370.971 241.316 319.651 219.356 319.651 219.356L321.131 212.695L329.273 175.689C329.273 175.689 363.57 87.8605 364.554 88.85C365.154 89.4501 371.563 92.5513 376.447 94.8523C379.563 96.332 382.072 97.4793 382.072 97.4793L392.434 89.2938L393.004 88.8421L405.771 105.621C405.771 105.621 412.886 163.346 409.185 169.027Z" fill="#6C63FF"/>
<path opacity="0.1" d="M369.959 106.118C371.439 111.814 367.99 121.164 367.99 121.164C367.99 121.164 356.149 150.28 352.693 163.736C349.236 177.193 329.468 204.31 329.468 204.31C329.468 204.31 326.566 207.224 322.504 211.267C322.052 211.719 321.576 212.185 321.105 212.674L329.246 175.668C329.246 175.668 363.543 87.8393 364.528 88.8288C365.128 89.4289 371.537 92.5288 376.421 94.8311C373.363 97.6144 368.975 102.352 369.959 106.118Z" fill="black"/>
<path d="M368.479 106.115C369.959 111.811 366.511 121.161 366.511 121.161C366.511 121.161 354.669 150.277 351.213 163.734C347.757 177.19 327.988 204.307 327.988 204.307C327.988 204.307 325.087 207.222 321.024 211.265C320.543 211.745 320.04 212.241 319.544 212.744C311.61 220.641 300.456 231.714 296.971 234.948C296.461 235.429 296.113 235.743 295.964 235.843C295.649 236.056 295.298 236.209 294.928 236.295C292.648 236.916 288.156 236.466 281.902 235.843C274.501 235.103 280.674 219.814 280.674 219.814L282.62 217.809L284.397 215.973L304.558 195.227L306.037 193.666L312.203 187.307L315.341 154.298L315.415 153.503C315.415 153.503 314.497 151.409 313.083 148.211C309.316 139.559 301.915 122.861 299.206 117.465C298.894 116.836 298.651 116.37 298.465 116.081C298.465 116.044 298.428 116.007 298.406 115.978C296.429 112.773 301.85 113.017 301.85 113.017C301.85 113.017 307.281 111.537 306.29 109.316C305.299 107.094 312.707 105.614 312.463 102.41C312.22 99.2053 316.904 98.7086 316.904 98.7086C316.904 98.7086 323.565 100.929 322.825 98.7086C322.086 96.4884 333.187 95.2524 333.187 95.2524C333.187 95.2524 338.619 97.9681 341.573 95.2524C344.527 92.5367 356.675 92.5433 356.675 92.5433C356.675 92.5433 354.195 83.1657 356.675 80.45C359.154 77.7343 377.746 92.5433 377.746 92.5433C377.746 92.5433 366.999 100.433 368.479 106.115Z" fill="#848393"/>
<path opacity="0.1" d="M306.804 232.428C306.804 232.428 327.283 261.293 341.59 251.923C355.897 242.553 322.347 218.121 322.347 218.121L306.804 232.428Z" fill="black"/>
<path d="M306.804 230.947C306.804 230.947 327.283 259.811 341.59 250.442C355.897 241.072 322.347 216.64 322.347 216.64L306.804 230.947Z" fill="#FFB8B8"/>
<path opacity="0.1" d="M405.063 246.837C406.624 233.211 411.156 212.74 407.46 206.53C405.632 203.451 404.281 197.582 403.286 191.163C402.756 187.707 402.331 184.088 401.991 180.653C401.087 171.542 400.798 163.742 400.798 163.742C400.798 163.742 391.923 124.133 393.645 115.988C394.726 110.896 393.482 98.1363 392.401 89.2991L392.971 88.8474L405.738 105.626C405.738 105.626 412.892 163.356 409.182 169.033C407.799 172.212 406.756 175.529 406.073 178.928L413.134 175.967L411.654 190.526L416.095 245.051L405.063 246.837Z" fill="black"/>
<path d="M392.637 80.1241C392.637 80.1241 405.396 90.8186 410.255 91.0637C409.794 92.8609 408.954 94.539 407.793 95.9863C406.631 97.4336 405.175 98.6168 403.52 99.4571C403.52 99.4571 416.843 101.219 421.779 100.456C426.715 99.6929 435.346 100.937 437.07 103.417C438.795 105.897 442.54 109.078 445.501 109.567C448.462 110.056 451.681 113.023 451.681 113.023L429.955 145.094C429.955 145.094 422.059 164.832 423.782 169.274C425.506 173.715 423.53 198.635 422.176 199.863C420.823 201.091 424.523 250.687 431.185 250.687C431.185 250.687 412.933 263.025 407.5 259.324C402.067 255.623 414.412 215.657 408.98 206.523C403.547 197.389 402.319 163.735 402.319 163.735C402.319 163.735 393.443 124.126 395.166 115.99C396.888 107.853 392.637 80.1241 392.637 80.1241Z" fill="#848393"/>
<path opacity="0.1" d="M540.551 158.777C533.956 156.719 523.859 156.657 521.989 174.319C519.228 167.791 517.497 162.233 517.497 162.233L537.746 153.662C537.746 153.662 538.982 155.646 540.551 158.777Z" fill="black"/>
<path d="M439.574 111.542L451.675 113.022C451.675 113.022 455.377 117.959 458.818 117.959C462.26 117.959 464.984 122.4 464.984 122.4C464.984 122.4 469.921 125.109 473.125 124.368C476.33 123.628 489.652 122.406 491.629 124.501C493.605 126.595 506.431 128.564 506.431 128.564C506.431 128.564 511.368 136.209 515.809 136.209C520.249 136.209 544.918 154.225 545.658 160.633C545.658 160.633 521.234 145.09 520.989 179.262C520.989 179.262 510.627 170.01 508.895 166.065C507.164 162.12 491.132 163.726 491.132 163.726C491.132 163.726 480.281 158.908 478.547 155.703C476.813 152.499 466.706 160.81 463.501 158.375C460.297 155.94 431.178 143.273 431.178 143.273L422.17 126.346L439.574 111.542Z" fill="#848393"/>
<path d="M383.777 141.518C384.934 141.518 385.871 140.58 385.871 139.424C385.871 138.267 384.934 137.329 383.777 137.329C382.62 137.329 381.683 138.267 381.683 139.424C381.683 140.58 382.62 141.518 383.777 141.518Z" fill="#3F3D56"/>
<path d="M381.683 185.251C382.839 185.251 383.777 184.313 383.777 183.157C383.777 182 382.839 181.062 381.683 181.062C380.526 181.062 379.588 182 379.588 183.157C379.588 184.313 380.526 185.251 381.683 185.251Z" fill="#3F3D56"/>
<path d="M383.777 162.234C384.934 162.234 385.871 161.296 385.871 160.14C385.871 158.983 384.934 158.045 383.777 158.045C382.62 158.045 381.683 158.983 381.683 160.14C381.683 161.296 382.62 162.234 383.777 162.234Z" fill="#3F3D56"/>
<path d="M377.73 208.269C378.886 208.269 379.824 207.332 379.824 206.175C379.824 205.018 378.886 204.081 377.73 204.081C376.573 204.081 375.635 205.018 375.635 206.175C375.635 207.332 376.573 208.269 377.73 208.269Z" fill="#3F3D56"/>
<path opacity="0.1" d="M311.533 482.337C310.504 485.216 307.294 484.158 307.294 484.158C297.215 483.048 291.108 455.855 293.699 452.739C296.29 449.624 292.092 442.434 292.092 442.434L286.637 444.554L281.641 429.204L284.794 425.319C287.932 430.758 292.424 438.582 293.483 440.58C295.495 444.723 296.45 449.3 296.265 453.902C296.087 458.714 301.668 481.716 311.533 482.337Z" fill="black"/>
<path opacity="0.1" d="M400.023 53.6351C399.52 53.4655 399.017 53.2655 398.544 53.0655C396.791 52.5278 395.228 51.5005 394.04 50.1047C393.099 48.7283 392.796 46.7929 391.331 45.9981C389.643 45.0946 387.629 46.316 385.801 46.7386C383.577 47.0904 381.299 46.787 379.244 45.8656C376.091 44.7038 371.693 42.5644 368.453 44.778C365.936 46.5001 366.913 50.1365 366.27 52.7343C365.271 56.768 360.985 59.3949 360.176 63.4737C359.813 65.2727 360.043 67.4704 358.586 68.5885C358.161 68.8918 357.677 69.1033 357.165 69.2098C355.736 66.316 354.933 63.1533 354.81 59.9283C354.686 56.7033 355.244 53.4885 356.448 50.4939C357.651 47.4993 359.473 44.7923 361.794 42.5498C364.115 40.3072 366.883 38.5796 369.917 37.4796C372.952 36.3797 376.184 35.9323 379.403 36.1666C382.621 36.4009 385.755 37.3116 388.598 38.8393C391.441 40.367 393.929 42.4773 395.901 45.0323C397.873 47.5873 399.283 50.5296 400.041 53.6669L400.023 53.6351Z" fill="black"/>
<path d="M379.232 44.3687C381.286 45.2935 383.566 45.5948 385.789 45.235C387.644 44.7979 389.623 43.5778 391.311 44.4945C392.79 45.2893 393.087 47.2181 394.02 48.6011C395.2 50.0109 396.771 51.0408 398.534 51.5619C399.804 52.1537 401.161 52.5336 402.554 52.6866C403.25 52.7547 403.953 52.6613 404.608 52.4136C405.262 52.1659 405.851 51.7707 406.328 51.2585C407.646 49.6689 407.246 47.2844 406.46 45.3821C405.675 43.4798 404.566 41.5854 404.647 39.5281C404.743 37.0854 406.512 34.9618 406.66 32.527C406.852 29.4404 404.358 26.7473 401.531 25.4954C398.999 24.3774 396.1 24.0674 393.789 22.5347C391.146 20.8033 389.696 17.7975 387.742 15.311C384.9 11.6919 380.456 8.99076 375.9 9.50872C373.096 9.82665 370.55 11.2918 367.759 11.8627C363.519 12.7437 359.033 11.4653 354.813 12.4469C353.794 12.6071 352.863 13.1172 352.179 13.8896C351.143 15.2805 351.675 17.2278 352.133 18.8996C352.955 21.912 353.303 25.3245 351.667 27.974C349.813 30.9718 345.887 32.2369 344.177 35.3155C343.683 36.2188 343.409 37.2264 343.38 38.2557C343.35 39.2851 343.565 40.3068 344.006 41.237C344.821 42.9393 346.391 44.3236 346.641 46.1954C346.644 47.5487 346.417 48.8927 345.968 50.1696C345.679 51.4864 345.762 53.1303 346.849 53.8709C347.937 54.6114 349.462 54.4259 350.293 55.3506C350.547 55.7176 350.715 56.1372 350.784 56.5781C350.853 57.019 350.821 57.4698 350.691 57.8967C350.395 59.3764 349.764 60.717 349.432 62.1676C349.219 62.8791 349.159 63.628 349.257 64.3644C349.355 65.1008 349.609 65.8078 350.002 66.4385C351.438 68.3778 354.339 68.2586 356.663 67.7407C357.334 67.6341 357.973 67.3812 358.536 67.0001C360.016 65.8821 359.757 63.6883 360.126 61.8854C360.932 57.8145 365.218 55.173 366.219 51.1459C366.863 48.5481 365.887 44.8999 368.402 43.1817C371.668 41.0688 376.079 43.2069 379.232 44.3687Z" fill="#464353"/>
<path opacity="0.1" d="M375.635 312.117C375.635 312.117 398.868 326.919 399.613 332.595L375.635 312.117Z" fill="black"/>
<path opacity="0.1" d="M374.444 323.958C374.444 323.958 401.088 336.784 399.614 341.226L374.444 323.958Z" fill="black"/>
<path opacity="0.1" d="M372.675 335.304C372.675 335.304 387.729 343.201 388.713 347.889L372.675 335.304Z" fill="black"/>
<path opacity="0.1" d="M379.092 353.068C379.092 353.068 388.958 361.705 390.933 359.485C392.908 357.264 379.092 353.068 379.092 353.068Z" fill="black"/>
<path opacity="0.1" d="M365.273 358.5C365.273 358.5 372.957 370.831 369.262 371.571C365.567 372.312 365.273 358.5 365.273 358.5Z" fill="black"/>
<path opacity="0.1" d="M331.517 139.424C331.517 139.424 318.439 147.314 322.384 149.29C326.329 151.267 331.517 139.424 331.517 139.424Z" fill="black"/>
<path opacity="0.1" d="M331.517 110.307C331.517 110.307 318.189 134.734 324.361 133.012C330.533 131.29 331.517 110.307 331.517 110.307Z" fill="black"/>
<path opacity="0.1" d="M473.087 134.73C473.087 134.73 464.945 144.308 466.426 149.533L473.087 134.73Z" fill="black"/>
<path opacity="0.1" d="M494.343 139.424C494.343 139.424 482.124 150.275 483.915 151.51L494.343 139.424Z" fill="black"/>
<path opacity="0.1" d="M501.952 152.753C501.952 152.753 500.717 159.888 502.693 160.154L501.952 152.753Z" fill="black"/>
<path opacity="0.05" d="M368.605 303.287C365.46 307.358 365.46 314.574 364.039 317.535C363.261 319.163 361.53 321.975 360.123 324.255C359.664 322.775 358.776 321.894 357.391 322.665C356.481 315.879 354.874 304.162 354.356 301.801C353.616 298.471 361.758 289.588 361.758 289.588C361.758 289.588 369.714 291.254 371.749 295.324C373.783 299.395 371.75 299.224 368.605 303.287Z" fill="black"/>
<path opacity="0.1" d="M327.527 217.632C318.651 218.86 302.119 242.545 302.119 242.545C302.119 242.545 299.95 239.392 296.938 234.994C293.148 229.407 288.062 221.791 284.353 216.018L306.039 193.651L309.984 197.899C309.984 197.899 317.637 205.544 317.637 207.025C317.637 207.603 319.116 209.357 320.996 211.274C323.879 214.249 327.527 217.632 327.527 217.632Z" fill="black"/>
<path opacity="0.1" d="M299.204 117.472C298.893 116.843 298.649 116.376 298.464 116.088L308.026 116.723L313.095 148.193C309.313 139.564 301.912 122.867 299.204 117.472Z" fill="black"/>
<path opacity="0.1" d="M319.527 212.769C311.593 220.666 300.439 231.739 296.954 234.973C296.444 235.454 296.095 235.768 295.947 235.868C295.632 236.081 295.281 236.234 294.911 236.32C291.426 231.199 286.451 223.82 282.603 217.817L284.379 215.981L304.554 195.229L307.048 197.915C307.048 197.915 314.701 205.56 314.701 207.041C314.701 207.751 317.092 210.331 319.527 212.769Z" fill="black"/>
<path d="M309.525 116.725L298.423 115.984C298.423 115.984 295.462 122.89 292.991 123.385C290.521 123.881 287.315 129.551 287.315 129.551C287.315 129.551 277.811 131.282 278.226 134.243C278.641 137.204 263.616 158.378 263.616 158.378C263.616 158.378 258.679 168.532 262.136 175.933C265.594 183.334 268.058 188.271 268.797 190.979C269.536 193.687 278.3 205.538 278.226 207.758C278.152 209.978 300.622 242.544 300.622 242.544C300.622 242.544 317.149 218.859 326.03 217.623C326.03 217.623 316.163 208.497 316.163 207.017C316.163 205.538 308.57 197.892 308.57 197.892L298.949 187.53C298.949 187.53 295.736 186.05 298.949 183.333C302.161 180.616 293.517 174.457 293.517 174.457C293.517 174.457 293.266 170.017 296.478 168.781C299.69 167.545 303.879 159.411 303.879 159.411L315.477 153.49L309.525 116.725Z" fill="#848393"/>
<path opacity="0.1" d="M267.126 165.816C267.126 165.816 280.449 163.107 280.693 164.832C280.937 166.557 267.126 165.816 267.126 165.816Z" fill="black"/>
<path opacity="0.1" d="M278.228 179.265C278.228 179.265 289.522 180.744 289.025 183.158C288.529 185.572 278.228 179.265 278.228 179.265Z" fill="black"/>
<path opacity="0.1" d="M287.561 137.321C287.561 137.321 298.424 152.688 299.9 149.509L287.561 137.321Z" fill="black"/>
<g opacity="0.1">
<path opacity="0.1" d="M352.802 22.7797C352.87 20.9866 352.646 19.1944 352.14 17.4729C351.926 16.745 351.763 16.0032 351.651 15.2527C351.557 16.5066 351.723 17.7664 352.14 18.9526C352.49 20.2025 352.712 21.4848 352.802 22.7797V22.7797Z" fill="black"/>
<path opacity="0.1" d="M404.707 39.0618C404.996 36.8416 406.521 34.8228 406.661 32.5482C406.684 32.1701 406.669 31.7907 406.616 31.4156C406.328 33.71 404.737 35.7448 404.648 38.0763C404.638 38.4059 404.658 38.7358 404.707 39.0618V39.0618Z" fill="black"/>
<path opacity="0.1" d="M406.328 49.7947C405.851 50.3069 405.262 50.7021 404.607 50.9498C403.953 51.1975 403.25 51.2909 402.553 51.2228C401.161 51.0698 399.804 50.6899 398.534 50.0981C396.777 49.5629 395.211 48.5355 394.02 47.1373C393.079 45.761 392.776 43.8255 391.311 43.0307C389.623 42.1272 387.609 43.3486 385.781 43.7712C383.56 44.1297 381.282 43.8284 379.23 42.9049C376.078 41.7431 371.666 39.6037 368.433 41.8093C365.916 43.5315 366.893 47.1758 366.25 49.7735C365.251 53.7993 360.965 56.4342 360.156 60.513C359.793 62.312 360.023 64.5097 358.566 65.6277C358.002 66.0098 357.36 66.2626 356.686 66.3683C354.332 66.8862 351.431 67.0041 350.026 65.0661C349.619 64.5118 349.364 63.8612 349.285 63.1783C349.094 64.3542 349.359 65.5585 350.026 66.5458C351.462 68.4852 354.363 68.3659 356.686 67.848C357.36 67.7423 358.002 67.4895 358.566 67.1074C360.046 65.9894 359.788 63.7957 360.156 61.9927C360.963 57.9219 365.248 55.2804 366.25 51.2532C366.893 48.6555 365.917 45.0072 368.433 43.289C371.668 41.0688 376.078 43.2228 379.23 44.3846C381.282 45.3091 383.56 45.6104 385.781 45.2509C387.646 44.8138 389.623 43.5937 391.311 44.5104C392.79 45.3053 393.079 47.234 394.02 48.6171C395.2 50.0268 396.771 51.0567 398.534 51.5778C399.804 52.1696 401.161 52.5495 402.553 52.7025C403.25 52.7706 403.953 52.6772 404.607 52.4295C405.262 52.1819 405.851 51.7866 406.328 51.2744C406.686 50.7932 406.942 50.2432 407.078 49.6589C407.215 49.0745 407.23 48.4683 407.122 47.8779C407.046 48.5795 406.77 49.2446 406.328 49.7947V49.7947Z" fill="black"/>
<path opacity="0.1" d="M346.648 44.7396C346.404 42.8664 344.828 41.4834 344.013 39.7812C343.707 39.1404 343.512 38.4524 343.435 37.7464C343.294 38.9493 343.494 40.1678 344.013 41.2622C344.808 42.9128 346.299 44.2746 346.611 46.0577C346.686 45.6224 346.699 45.1785 346.648 44.7396V44.7396Z" fill="black"/>
<path opacity="0.1" d="M350.76 56.2991C350.865 55.901 350.883 55.4846 350.81 55.0792C350.737 54.6738 350.576 54.2893 350.338 53.953C349.502 52.9979 347.91 53.2125 346.894 52.4733C346.623 52.2591 346.398 51.9929 346.231 51.6903C346.065 51.3878 345.96 51.0549 345.924 50.7114C345.782 51.2891 345.797 51.8944 345.967 52.4645C346.138 53.0345 346.458 53.5485 346.894 53.953C347.864 54.6564 349.506 54.5081 350.338 55.4327C350.547 55.6833 350.691 55.9805 350.76 56.2991V56.2991Z" fill="black"/>
</g>
<path d="M175.069 439.625C175.069 439.625 144.457 437.77 148.062 459.231C147.87 460.32 148.03 461.442 148.52 462.434C149.01 463.425 149.804 464.235 150.786 464.744C150.786 464.744 150.837 463.154 153.924 463.693C155.022 463.876 156.137 463.928 157.248 463.848C158.75 463.746 160.178 463.159 161.318 462.175V462.175C161.318 462.175 169.929 458.616 173.271 444.557C173.271 444.557 175.743 441.485 175.647 440.7L170.466 442.921C170.466 442.921 172.234 446.622 170.843 449.744C170.843 449.744 170.674 443.084 169.681 443.209C169.481 443.246 166.995 444.505 166.995 444.505C166.995 444.505 170.042 450.996 167.735 455.717C167.735 455.717 168.608 447.716 166.041 444.971L162.407 447.091C162.407 447.091 165.96 453.796 163.547 459.278C163.547 459.278 164.168 450.885 161.644 447.614L158.343 450.183C158.343 450.183 161.681 456.792 159.645 461.337C159.645 461.337 159.38 451.56 157.632 450.827C156.382 451.878 155.265 453.079 154.308 454.403C154.308 454.403 156.588 459.207 155.174 461.738C155.174 461.738 154.308 455.225 153.585 455.195C153.585 455.195 150.713 459.51 150.417 462.463C150.559 459.73 151.411 457.082 152.889 454.779C151.233 455.096 149.706 455.888 148.493 457.059C148.493 457.059 148.936 454.012 153.599 453.747C154.467 452.479 155.478 451.314 156.612 450.277C154.097 450.064 151.566 450.356 149.166 451.135C149.166 451.135 151.637 448.263 157.454 449.567L160.71 446.909C160.71 446.909 154.617 446.08 152.022 446.998C152.022 446.998 154.982 444.452 161.591 446.309L165.13 444.19C162.405 443.588 159.614 443.339 156.825 443.449C156.825 443.449 160.096 441.687 166.166 443.597L168.704 442.458C168.704 442.458 164.893 441.718 163.775 441.592C162.656 441.466 162.598 441.163 162.598 441.163C165.01 440.762 167.486 441.037 169.752 441.958C169.752 441.958 175.166 439.958 175.069 439.625Z" fill="#6C63FF"/>
<path opacity="0.1" d="M153.984 470.283C165.952 470.283 175.655 468.642 175.655 466.618C175.655 464.595 165.952 462.954 153.984 462.954C142.015 462.954 132.312 464.595 132.312 466.618C132.312 468.642 142.015 470.283 153.984 470.283Z" fill="#6C63FF"/>
<path d="M26.09 27.4979C30.12 27.4979 33.6083 28.1696 36.555 29.5129C39.545 30.8563 41.8416 32.7629 43.445 35.2329C45.0483 37.7029 45.85 40.6279 45.85 44.0079C45.85 47.3446 45.0483 50.2696 43.445 52.7829C41.8416 55.2529 39.545 57.1596 36.555 58.5029C33.6083 59.8029 30.12 60.4529 26.09 60.4529H16.925V72.9979H6.39498V27.4979H26.09ZM25.505 51.8729C28.6683 51.8729 31.0733 51.2013 32.72 49.8579C34.3666 48.4713 35.19 46.5213 35.19 44.0079C35.19 41.4513 34.3666 39.5013 32.72 38.1579C31.0733 36.7713 28.6683 36.0779 25.505 36.0779H16.925V51.8729H25.505Z" fill="#2F2E44"/>
<path d="M53.2874 24.7679H63.4274V72.9979H53.2874V24.7679Z" fill="#2F2E44"/>
<path d="M86.9432 37.5079C92.3598 37.5079 96.5198 38.8079 99.4232 41.4079C102.327 43.9646 103.778 47.8429 103.778 53.0429V72.9979H94.2882V68.6429C92.3815 71.8929 88.8282 73.5179 83.6282 73.5179C80.9415 73.5179 78.6015 73.0629 76.6082 72.1529C74.6582 71.2429 73.1632 69.9863 72.1232 68.3829C71.0832 66.7796 70.5632 64.9596 70.5632 62.9229C70.5632 59.6729 71.7765 57.1163 74.2032 55.2529C76.6732 53.3896 80.4648 52.4579 85.5782 52.4579H93.6382C93.6382 50.2479 92.9665 48.5579 91.6232 47.3879C90.2799 46.1746 88.2648 45.5679 85.5782 45.5679C83.7148 45.5679 81.8732 45.8713 80.0532 46.4779C78.2765 47.0413 76.7598 47.8213 75.5032 48.8179L71.8632 41.7329C73.7698 40.3896 76.0448 39.3496 78.6882 38.6129C81.3748 37.8763 84.1265 37.5079 86.9432 37.5079ZM86.1632 66.6929C87.8965 66.6929 89.4348 66.3029 90.7782 65.5229C92.1215 64.6996 93.0748 63.5079 93.6382 61.9479V58.3729H86.6832C82.5232 58.3729 80.4432 59.7379 80.4432 62.4679C80.4432 63.7679 80.9415 64.8079 81.9382 65.5879C82.9782 66.3246 84.3865 66.6929 86.1632 66.6929Z" fill="#2F2E44"/>
<path d="M130.236 73.5179C126.51 73.5179 123.151 72.7596 120.161 71.2429C117.215 69.6829 114.896 67.5379 113.206 64.8079C111.56 62.0779 110.736 58.9796 110.736 55.5129C110.736 52.0463 111.56 48.9479 113.206 46.2179C114.896 43.4879 117.215 41.3646 120.161 39.8479C123.151 38.2879 126.51 37.5079 130.236 37.5079C133.92 37.5079 137.126 38.2879 139.856 39.8479C142.63 41.3646 144.645 43.5529 145.901 46.4129L138.036 50.6379C136.216 47.4313 133.595 45.8279 130.171 45.8279C127.528 45.8279 125.34 46.6946 123.606 48.4279C121.873 50.1613 121.006 52.5229 121.006 55.5129C121.006 58.5029 121.873 60.8646 123.606 62.5979C125.34 64.3313 127.528 65.1979 130.171 65.1979C133.638 65.1979 136.26 63.5946 138.036 60.3879L145.901 64.6779C144.645 67.4513 142.63 69.6179 139.856 71.1779C137.126 72.7379 133.92 73.5179 130.236 73.5179Z" fill="#2F2E44"/>
<path d="M185.55 55.6429C185.55 55.7729 185.485 56.6829 185.355 58.3729H158.9C159.377 60.5396 160.504 62.2513 162.28 63.5079C164.057 64.7646 166.267 65.3929 168.91 65.3929C170.73 65.3929 172.334 65.1329 173.72 64.6129C175.15 64.0496 176.472 63.1829 177.685 62.0129L183.08 67.8629C179.787 71.6329 174.977 73.5179 168.65 73.5179C164.707 73.5179 161.219 72.7596 158.185 71.2429C155.152 69.6829 152.812 67.5379 151.165 64.8079C149.519 62.0779 148.695 58.9796 148.695 55.5129C148.695 52.0896 149.497 49.0129 151.1 46.2829C152.747 43.5096 154.979 41.3646 157.795 39.8479C160.655 38.2879 163.84 37.5079 167.35 37.5079C170.774 37.5079 173.872 38.2446 176.645 39.7179C179.419 41.1913 181.585 43.3146 183.145 46.0879C184.749 48.8179 185.55 52.0029 185.55 55.6429ZM167.415 45.1779C165.119 45.1779 163.19 45.8279 161.63 47.1279C160.07 48.4279 159.117 50.2046 158.77 52.4579H175.995C175.649 50.2479 174.695 48.4929 173.135 47.1929C171.575 45.8496 169.669 45.1779 167.415 45.1779Z" fill="#2F2E44"/>
<path d="M221.824 38.8079H230.794V46.6079H222.084V72.9979H211.944V46.6079H206.549V38.8079H211.944V37.2479C211.944 33.2613 213.114 30.0979 215.454 27.7579C217.838 25.4179 221.174 24.2479 225.464 24.2479C226.981 24.2479 228.411 24.4213 229.754 24.7679C231.141 25.0713 232.289 25.5263 233.199 26.1329L230.534 33.4779C229.364 32.6546 227.999 32.2429 226.439 32.2429C223.363 32.2429 221.824 33.9329 221.824 37.3129V38.8079Z" fill="#2F2E44"/>
<path d="M252.042 73.5179C248.358 73.5179 245.043 72.7596 242.097 71.2429C239.193 69.6829 236.918 67.5379 235.272 64.8079C233.625 62.0779 232.802 58.9796 232.802 55.5129C232.802 52.0463 233.625 48.9479 235.272 46.2179C236.918 43.4879 239.193 41.3646 242.097 39.8479C245.043 38.2879 248.358 37.5079 252.042 37.5079C255.725 37.5079 259.018 38.2879 261.922 39.8479C264.825 41.3646 267.1 43.4879 268.747 46.2179C270.393 48.9479 271.217 52.0463 271.217 55.5129C271.217 58.9796 270.393 62.0779 268.747 64.8079C267.1 67.5379 264.825 69.6829 261.922 71.2429C259.018 72.7596 255.725 73.5179 252.042 73.5179ZM252.042 65.1979C254.642 65.1979 256.765 64.3313 258.412 62.5979C260.102 60.8213 260.947 58.4596 260.947 55.5129C260.947 52.5663 260.102 50.2263 258.412 48.4929C256.765 46.7163 254.642 45.8279 252.042 45.8279C249.442 45.8279 247.297 46.7163 245.607 48.4929C243.917 50.2263 243.072 52.5663 243.072 55.5129C243.072 58.4596 243.917 60.8213 245.607 62.5979C247.297 64.3313 249.442 65.1979 252.042 65.1979Z" fill="#2F2E44"/>
<path d="M287.679 42.6429C288.893 40.9529 290.518 39.6746 292.554 38.8079C294.634 37.9413 297.018 37.5079 299.704 37.5079V46.8679C298.578 46.7813 297.819 46.7379 297.429 46.7379C294.526 46.7379 292.251 47.5613 290.604 49.2079C288.958 50.8113 288.134 53.2379 288.134 56.4879V72.9979H277.994V38.0279H287.679V42.6429Z" fill="#2F2E44"/>
<path d="M40.39 117.028L24.595 154.143C22.9916 158.173 20.9983 161.011 18.615 162.658C16.275 164.305 13.4366 165.128 10.1 165.128C8.27998 165.128 6.48164 164.846 4.70498 164.283C2.92831 163.72 1.47664 162.94 0.349976 161.943L4.05498 154.728C4.83498 155.421 5.72331 155.963 6.71998 156.353C7.75998 156.743 8.77831 156.938 9.77498 156.938C11.1616 156.938 12.2883 156.591 13.155 155.898C14.0216 155.248 14.8016 154.143 15.495 152.583L15.625 152.258L0.479976 117.028H10.945L20.76 140.753L30.64 117.028H40.39Z" fill="#2F2E44"/>
<path d="M60.2155 152.518C56.5322 152.518 53.2172 151.76 50.2705 150.243C47.3672 148.683 45.0922 146.538 43.4455 143.808C41.7988 141.078 40.9755 137.98 40.9755 134.513C40.9755 131.046 41.7988 127.948 43.4455 125.218C45.0922 122.488 47.3672 120.365 50.2705 118.848C53.2172 117.288 56.5322 116.508 60.2155 116.508C63.8988 116.508 67.1921 117.288 70.0955 118.848C72.9988 120.365 75.2738 122.488 76.9205 125.218C78.5672 127.948 79.3905 131.046 79.3905 134.513C79.3905 137.98 78.5672 141.078 76.9205 143.808C75.2738 146.538 72.9988 148.683 70.0955 150.243C67.1921 151.76 63.8988 152.518 60.2155 152.518ZM60.2155 144.198C62.8155 144.198 64.9388 143.331 66.5855 141.598C68.2755 139.821 69.1205 137.46 69.1205 134.513C69.1205 131.566 68.2755 129.226 66.5855 127.493C64.9388 125.716 62.8155 124.828 60.2155 124.828C57.6155 124.828 55.4705 125.716 53.7805 127.493C52.0905 129.226 51.2455 131.566 51.2455 134.513C51.2455 137.46 52.0905 139.821 53.7805 141.598C55.4705 143.331 57.6155 144.198 60.2155 144.198Z" fill="#2F2E44"/>
<path d="M121.398 117.028V151.998H111.778V147.838C110.435 149.355 108.832 150.525 106.968 151.348C105.105 152.128 103.09 152.518 100.923 152.518C96.3299 152.518 92.6899 151.196 90.0033 148.553C87.3166 145.91 85.9733 141.988 85.9733 136.788V117.028H96.1133V135.293C96.1133 140.926 98.4749 143.743 103.198 143.743C105.625 143.743 107.575 142.963 109.048 141.403C110.522 139.8 111.258 137.438 111.258 134.318V117.028H121.398Z" fill="#2F2E44"/>
<path d="M140.477 121.643C141.691 119.953 143.316 118.675 145.352 117.808C147.432 116.941 149.816 116.508 152.502 116.508V125.868C151.376 125.781 150.617 125.738 150.227 125.738C147.324 125.738 145.049 126.561 143.402 128.208C141.756 129.811 140.932 132.238 140.932 135.488V151.998H130.792V117.028H140.477V121.643Z" fill="#2F2E44"/>
<path d="M211.904 117.028L197.149 151.998H186.684L171.994 117.028H182.459L192.144 140.818L202.154 117.028H211.904Z" fill="#2F2E44"/>
<path d="M216.041 117.028H226.181V151.998H216.041V117.028ZM221.111 112.153C219.248 112.153 217.731 111.611 216.561 110.528C215.391 109.445 214.806 108.101 214.806 106.498C214.806 104.895 215.391 103.551 216.561 102.468C217.731 101.385 219.248 100.843 221.111 100.843C222.975 100.843 224.491 101.363 225.661 102.403C226.831 103.443 227.416 104.743 227.416 106.303C227.416 107.993 226.831 109.401 225.661 110.528C224.491 111.611 222.975 112.153 221.111 112.153Z" fill="#2F2E44"/>
<path d="M271.212 103.768V151.998H261.527V147.968C259.014 151.001 255.374 152.518 250.607 152.518C247.314 152.518 244.324 151.781 241.637 150.308C238.994 148.835 236.914 146.733 235.397 144.003C233.88 141.273 233.122 138.11 233.122 134.513C233.122 130.916 233.88 127.753 235.397 125.023C236.914 122.293 238.994 120.191 241.637 118.718C244.324 117.245 247.314 116.508 250.607 116.508C255.07 116.508 258.559 117.916 261.072 120.733V103.768H271.212ZM252.362 144.198C254.919 144.198 257.042 143.331 258.732 141.598C260.422 139.821 261.267 137.46 261.267 134.513C261.267 131.566 260.422 129.226 258.732 127.493C257.042 125.716 254.919 124.828 252.362 124.828C249.762 124.828 247.617 125.716 245.927 127.493C244.237 129.226 243.392 131.566 243.392 134.513C243.392 137.46 244.237 139.821 245.927 141.598C247.617 143.331 249.762 144.198 252.362 144.198Z" fill="#2F2E44"/>
<path d="M314.852 134.643C314.852 134.773 314.787 135.683 314.657 137.373H288.202C288.679 139.54 289.805 141.251 291.582 142.508C293.359 143.765 295.569 144.393 298.212 144.393C300.032 144.393 301.635 144.133 303.022 143.613C304.452 143.05 305.774 142.183 306.987 141.013L312.382 146.863C309.089 150.633 304.279 152.518 297.952 152.518C294.009 152.518 290.52 151.76 287.487 150.243C284.454 148.683 282.114 146.538 280.467 143.808C278.82 141.078 277.997 137.98 277.997 134.513C277.997 131.09 278.799 128.013 280.402 125.283C282.049 122.51 284.28 120.365 287.097 118.848C289.957 117.288 293.142 116.508 296.652 116.508C300.075 116.508 303.174 117.245 305.947 118.718C308.72 120.191 310.887 122.315 312.447 125.088C314.05 127.818 314.852 131.003 314.852 134.643ZM296.717 124.178C294.42 124.178 292.492 124.828 290.932 126.128C289.372 127.428 288.419 129.205 288.072 131.458H305.297C304.95 129.248 303.997 127.493 302.437 126.193C300.877 124.85 298.97 124.178 296.717 124.178Z" fill="#2F2E44"/>
<path d="M338.243 152.518C334.559 152.518 331.244 151.76 328.298 150.243C325.394 148.683 323.12 146.538 321.473 143.808C319.826 141.078 319.003 137.98 319.003 134.513C319.003 131.046 319.826 127.948 321.473 125.218C323.12 122.488 325.394 120.365 328.298 118.848C331.244 117.288 334.559 116.508 338.243 116.508C341.926 116.508 345.219 117.288 348.123 118.848C351.026 120.365 353.301 122.488 354.948 125.218C356.594 127.948 357.418 131.046 357.418 134.513C357.418 137.98 356.594 141.078 354.948 143.808C353.301 146.538 351.026 148.683 348.123 150.243C345.219 151.76 341.926 152.518 338.243 152.518ZM338.243 144.198C340.843 144.198 342.966 143.331 344.613 141.598C346.303 139.821 347.148 137.46 347.148 134.513C347.148 131.566 346.303 129.226 344.613 127.493C342.966 125.716 340.843 124.828 338.243 124.828C335.643 124.828 333.498 125.716 331.808 127.493C330.118 129.226 329.273 131.566 329.273 134.513C329.273 137.46 330.118 139.821 331.808 141.598C333.498 143.331 335.643 144.198 338.243 144.198Z" fill="#2F2E44"/>
<defs>
<linearGradient id="paint0_linear" x1="403.798" y1="484.327" x2="403.798" y2="7.63819" gradientUnits="userSpaceOnUse">
<stop stop-color="#808080" stop-opacity="0.251"/>
<stop offset="0.54" stop-color="#808080" stop-opacity="0.122"/>
<stop offset="1" stop-color="#808080" stop-opacity="0.102"/>
</linearGradient>
</defs>
</svg>
