<svg width="605" height="500" viewBox="0 0 605 500" fill="none" xmlns="http://www.w3.org/2000/svg">
<path d="M530.931 332.012C593.16 400.838 412.776 500 267.016 500C121.257 500 20.4207 423.156 3.10216 332.012C-38.8868 111.007 360.878 -29.4656 267.016 164.017C130.213 446.037 481.929 277.812 530.931 332.012Z" fill="#3F3D56"/>
<path d="M193.101 117.835C196.028 117.835 198.401 115.462 198.401 112.535C198.401 109.608 196.028 107.235 193.101 107.235C190.174 107.235 187.801 109.608 187.801 112.535C187.801 115.462 190.174 117.835 193.101 117.835Z" fill="#D0CDE1"/>
<path d="M121.238 435.316C124.165 435.316 126.538 432.943 126.538 430.016C126.538 427.089 124.165 424.716 121.238 424.716C118.311 424.716 115.938 427.089 115.938 430.016C115.938 432.943 118.311 435.316 121.238 435.316Z" fill="#D0CDE1"/>
<path d="M202.524 192.645C203.827 192.645 204.883 191.589 204.883 190.286C204.883 188.983 203.827 187.927 202.524 187.927C201.221 187.927 200.165 188.983 200.165 190.286C200.165 191.589 201.221 192.645 202.524 192.645Z" fill="#D0CDE1"/>
<path d="M78.8268 315.16C80.1296 315.16 81.1858 314.104 81.1858 312.801C81.1858 311.498 80.1296 310.442 78.8268 310.442C77.5239 310.442 76.4678 311.498 76.4678 312.801C76.4678 314.104 77.5239 315.16 78.8268 315.16Z" fill="#D0CDE1"/>
<path d="M388.655 403.511C389.958 403.511 391.014 402.454 391.014 401.152C391.014 399.849 389.958 398.793 388.655 398.793C387.353 398.793 386.296 399.849 386.296 401.152C386.296 402.454 387.353 403.511 388.655 403.511Z" fill="#D0CDE1"/>
<path d="M71.1744 194.998C72.4773 194.998 73.5334 193.942 73.5334 192.639C73.5334 191.336 72.4773 190.28 71.1744 190.28C69.8716 190.28 68.8154 191.336 68.8154 192.639C68.8154 193.942 69.8716 194.998 71.1744 194.998Z" fill="#D0CDE1"/>
<path d="M214.3 130.205H213.124V129.022H212.536V130.205H211.359V130.793H212.536V131.969H213.124V130.793H214.3V130.205Z" fill="#D0CDE1"/>
<path d="M124.185 149.64H123.009V148.463H122.414V149.64H121.238V150.228H122.414V151.41H123.009V150.228H124.185V149.64Z" fill="#D0CDE1"/>
<path d="M65.2801 260.379H64.1038V259.196H63.5157V260.379H62.3394V260.967H63.5157V262.143H64.1038V260.967H65.2801V260.379Z" fill="#D0CDE1"/>
<path d="M230.794 454.168C232.097 454.168 233.153 453.112 233.153 451.809C233.153 450.507 232.097 449.45 230.794 449.45C229.491 449.45 228.435 450.507 228.435 451.809C228.435 453.112 229.491 454.168 230.794 454.168Z" fill="#D0CDE1"/>
<path d="M223.141 334.006C224.444 334.006 225.5 332.95 225.5 331.647C225.5 330.344 224.444 329.288 223.141 329.288C221.839 329.288 220.782 330.344 220.782 331.647C220.782 332.95 221.839 334.006 223.141 334.006Z" fill="#D0CDE1"/>
<path d="M501.747 377.594C503.05 377.594 504.106 376.537 504.106 375.234C504.106 373.932 503.05 372.875 501.747 372.875C500.444 372.875 499.388 373.932 499.388 375.234C499.388 376.537 500.444 377.594 501.747 377.594Z" fill="#D0CDE1"/>
<path d="M217.247 399.387H216.071V398.204H215.483V399.387H214.3V399.975H215.483V401.152H216.071V399.975H217.247V399.387Z" fill="#D0CDE1"/>
<path d="M331.515 441.203H330.339V440.027H329.75V441.203H328.574V441.792H329.75V442.974H330.339V441.792H331.515V441.203Z" fill="#D0CDE1"/>
<path d="M42.8983 336.359H41.722V335.183H41.1339V336.359H39.9512V336.947H41.1339V338.13H41.722V336.947H42.8983V336.359Z" fill="#D0CDE1"/>
<path d="M206.648 251.543H205.465V250.361H204.877V251.543H203.7V252.132H204.877V253.308H205.465V252.132H206.648V251.543Z" fill="#D0CDE1"/>
<path d="M134.196 182.039H133.02V180.856H132.432V182.039H131.249V182.627H132.432V183.804H133.02V182.627H134.196V182.039Z" fill="#D0CDE1"/>
<path d="M182.495 298.071H181.319V296.895H180.731V298.071H179.554V298.666H180.731V299.842H181.319V298.666H182.495V298.071Z" fill="#D0CDE1"/>
<path d="M111.815 371.111H110.638V369.935H110.044V371.111H108.867V371.699H110.044V372.882H110.638V371.699H111.815V371.111Z" fill="#D0CDE1"/>
<path d="M135.961 271.566C155.154 271.566 170.713 269.193 170.713 266.266C170.713 263.339 155.154 260.967 135.961 260.967C116.768 260.967 101.208 263.339 101.208 266.266C101.208 269.193 116.768 271.566 135.961 271.566Z" fill="#6C63FF"/>
<path d="M139.496 268.031C125.291 268.031 104.156 266.465 104.156 262.143C104.156 257.821 125.291 256.255 139.496 256.255C153.701 256.255 174.836 257.821 174.836 262.143C174.836 266.465 153.701 268.031 139.496 268.031ZM139.496 257.431C131.308 257.361 123.125 257.878 115.011 258.978C107.339 260.148 105.332 261.536 105.332 262.143C105.332 262.75 107.359 264.144 115.011 265.307C123.125 266.408 131.308 266.925 139.496 266.855C147.684 266.926 155.867 266.409 163.981 265.307C171.653 264.144 173.66 262.75 173.66 262.143C173.66 261.536 171.64 260.148 163.981 258.978C155.867 257.877 147.684 257.36 139.496 257.431V257.431Z" fill="#D0CDE1"/>
<path d="M139.496 176.145C127.138 176.145 117.121 179.098 117.121 191.488C117.121 203.877 127.145 253.333 139.496 253.333C151.847 253.333 161.871 203.846 161.871 191.488C161.871 179.13 151.86 176.145 139.496 176.145ZM139.496 207.956C137.631 207.957 135.807 207.406 134.255 206.37C132.704 205.335 131.494 203.863 130.78 202.14C130.065 200.417 129.877 198.52 130.24 196.691C130.603 194.861 131.501 193.18 132.82 191.861C134.138 190.542 135.818 189.643 137.648 189.279C139.477 188.914 141.373 189.101 143.097 189.814C144.82 190.528 146.293 191.736 147.33 193.287C148.366 194.838 148.919 196.661 148.919 198.527C148.92 199.765 148.677 200.991 148.204 202.135C147.731 203.279 147.037 204.318 146.161 205.194C145.286 206.07 144.247 206.764 143.104 207.238C141.96 207.712 140.734 207.956 139.496 207.956Z" fill="#6C63FF"/>
<path d="M557.839 310.928C508.837 256.728 157.121 424.959 293.925 142.933C354.907 17.2222 207.511 32.495 108.286 119.228C204.372 53.2529 320.347 51.3478 265.067 165.315C128.257 447.341 479.973 279.11 528.981 333.309C551.785 358.523 542.003 387.816 513.293 414.813C562.64 382.471 587.144 343.334 557.839 310.928Z" fill="#D0CDE1"/>
<path d="M269.439 498.926L268.685 498.638C268.519 498.574 251.942 492.245 244.181 477.829C236.42 463.413 240.217 446.094 240.256 445.921L240.435 445.135L241.195 445.416C241.362 445.48 257.932 451.809 265.7 466.226C273.467 480.642 269.657 497.96 269.618 498.133L269.439 498.926ZM245.421 477.189C251.987 489.336 265.086 495.601 268.404 497.008C269.043 493.453 271.012 479.069 264.453 466.91C257.894 454.75 244.795 448.498 241.477 447.091C240.837 450.652 238.868 465.03 245.421 477.189Z" fill="#D0CDE1"/>
<path d="M250.113 473.482C264.063 481.875 269.439 498.555 269.439 498.555C269.439 498.555 252.178 501.617 238.242 493.223C224.305 484.829 218.916 468.156 218.916 468.156C218.916 468.156 236.164 465.088 250.113 473.482Z" fill="#6C63FF"/>
<path d="M445.879 168.678C445.879 168.678 413.914 200.003 427.339 203.839C440.764 207.675 456.108 175.071 456.108 175.071L445.879 168.678Z" fill="#FFB9B9"/>
<path d="M477.85 274.175L474.014 292.075L502.789 293.36L498.314 274.175H477.85Z" fill="#FFB9B9"/>
<path d="M568.643 384.786L564.807 402.692L593.582 403.971L589.107 384.786H568.643Z" fill="#FFB9B9"/>
<path d="M518.132 154.607L520.689 164.836C520.689 164.836 449.727 150.771 453.563 186.572C457.399 222.372 474.021 256.894 474.021 256.894C474.021 256.894 472.742 268.402 475.299 270.32C477.856 272.237 475.299 278.63 475.299 278.63C475.299 278.63 498.953 281.827 499.592 276.073C499.93 272.227 499.715 268.351 498.953 264.566C498.953 264.566 500.232 264.566 498.953 258.173C497.675 251.78 492.509 200.214 488.667 193.176C488.667 193.176 522.607 219.169 540.514 215.973C540.514 215.973 537.957 241.545 548.185 275.428C558.414 309.31 558.414 313.146 558.414 313.146C558.414 313.146 570.561 377.715 567.364 385.387L566.725 388.583H590.379C590.379 388.583 588.461 354.7 590.379 350.225C592.297 345.75 592.297 307.392 581.429 288.213C573.757 274.635 575.17 235.248 579.377 219.675C582.912 206.607 583.807 196.545 581.736 183.158C579.517 168.844 572.901 161.364 564.807 154.581L518.132 154.607Z" fill="#2F2E41"/>
<path d="M536.991 58.3801C549.705 58.3801 560.012 48.0732 560.012 35.359C560.012 22.6448 549.705 12.338 536.991 12.338C524.277 12.338 513.97 22.6448 513.97 35.359C513.97 48.0732 524.277 58.3801 536.991 58.3801Z" fill="#FFB9B9"/>
<path d="M530.918 51.6675C530.918 51.6675 537.95 72.1249 537.311 75.9607C536.672 79.7965 557.768 68.2892 557.768 68.2892C557.768 68.2892 549.458 47.8317 552.015 42.078L530.918 51.6675Z" fill="#FFB9B9"/>
<path d="M556.496 61.2569L534.121 70.207L535.399 77.8786C535.399 77.8786 533.482 80.4358 534.121 81.7144C534.76 82.993 525.81 88.1073 527.089 90.0252C528.367 91.9431 519.417 99.6147 520.056 101.533C520.696 103.45 499.599 114.958 511.106 137.333C511.106 137.333 517.071 145.088 516.323 154.262C516.323 154.588 516.265 154.901 516.221 155.233C514.942 164.823 564.807 153.955 564.807 153.955V143.087C564.807 143.087 569.282 141.169 568.643 132.858C568.004 124.547 564.168 128.383 568.643 123.908C573.118 119.433 573.118 120.072 572.479 116.236C572.223 114.708 572.172 109.204 572.204 103.131C572.26 90.3175 568.087 77.8437 560.332 67.6435L556.496 61.2569Z" fill="#D0CDE1"/>
<path d="M544.35 77.8786L502.795 121.351L442.062 169.298L455.487 180.166L567.364 105.368C567.364 105.368 576.954 64.4534 544.35 77.8786Z" fill="#D0CDE1"/>
<path d="M479.768 283.764C479.768 283.764 475.293 276.092 472.096 278.65L449.721 296.55C449.721 296.55 410.085 308.057 448.442 317.007C448.442 317.007 469.539 320.204 474.014 317.007C478.489 313.811 485.522 314.45 487.439 315.729C489.357 317.007 513.651 315.089 513.651 309.975C513.651 304.861 500.225 282.485 500.225 282.485C500.225 282.485 492.554 291.436 479.768 283.764Z" fill="#2F2E41"/>
<path d="M570.561 394.381C570.561 394.381 566.086 386.71 562.889 389.267L540.514 407.167C540.514 407.167 500.878 418.675 539.235 427.625C539.235 427.625 560.332 430.821 564.807 427.625C569.282 424.428 576.314 425.068 578.232 426.346C580.15 427.625 604.443 425.707 604.443 420.593C604.443 415.478 591.018 393.103 591.018 393.103C591.018 393.103 583.353 402.053 570.561 394.381Z" fill="#2F2E41"/>
<path d="M509.406 26.2107C509.406 26.2107 513.299 -7.97888 546.6 1.73842C546.6 1.73842 570.145 -3.0563 578.462 26.3577L586.875 57.191L583.04 55.1836L581.326 59.1153L575.164 60.803L572.402 55.6183L571.245 62.0113L528.655 70.6226C528.655 70.6226 543.058 54.1607 542.956 30.0465L538.711 34.7069L509.406 26.2107Z" fill="#2F2E41"/>
<path d="M355.668 329.295C390.149 329.295 418.101 325.602 418.101 321.048C418.101 316.493 390.149 312.801 355.668 312.801C321.187 312.801 293.234 316.493 293.234 321.048C293.234 325.602 321.187 329.295 355.668 329.295Z" fill="#2F2E41"/>
<path d="M389.589 221.337H388.847V201.09C388.847 197.982 387.613 195 385.415 192.802C383.218 190.603 380.237 189.367 377.129 189.365H334.232C331.124 189.365 328.144 190.6 325.946 192.798C323.749 194.995 322.514 197.976 322.514 201.084V201.084V312.168C322.513 313.707 322.816 315.231 323.404 316.653C323.993 318.075 324.856 319.368 325.944 320.456C327.033 321.544 328.325 322.407 329.747 322.996C331.169 323.585 332.693 323.887 334.232 323.886H377.129C378.668 323.887 380.192 323.585 381.614 322.996C383.037 322.407 384.329 321.544 385.417 320.456C386.505 319.368 387.368 318.075 387.957 316.653C388.546 315.231 388.848 313.707 388.847 312.168V312.168V235.746H389.589V221.337Z" fill="#3F3D56"/>
<path d="M377.327 192.696H371.727C372.142 193.718 372.135 194.863 371.707 195.879C371.279 196.896 370.466 197.701 369.444 198.117C368.944 198.318 368.411 198.423 367.872 198.424H343.304C342.201 198.423 341.144 197.983 340.365 197.203C339.586 196.423 339.148 195.365 339.148 194.262C339.147 193.725 339.252 193.193 339.455 192.696H334.226C331.904 192.696 329.678 193.618 328.037 195.26C326.396 196.901 325.474 199.127 325.474 201.448V312.366C325.474 314.687 326.396 316.913 328.037 318.555C329.678 320.196 331.904 321.118 334.226 321.118H377.333C378.483 321.118 379.621 320.892 380.683 320.452C381.744 320.012 382.709 319.367 383.522 318.555C384.335 317.742 384.979 316.777 385.419 315.715C385.859 314.653 386.085 313.515 386.085 312.366V201.448C386.085 200.298 385.859 199.16 385.418 198.097C384.978 197.035 384.333 196.07 383.52 195.257C382.706 194.445 381.741 193.8 380.678 193.361C379.616 192.921 378.477 192.695 377.327 192.696V192.696Z" fill="#6C63FF"/>
<path d="M346.244 244.473C353.076 244.473 358.615 238.934 358.615 232.102C358.615 225.27 353.076 219.732 346.244 219.732C339.412 219.732 333.874 225.27 333.874 232.102C333.874 238.934 339.412 244.473 346.244 244.473Z" fill="#D0CDE1"/>
<path d="M378.395 250.054L363.435 235.094C365.272 232.293 366.006 228.91 365.493 225.6C364.98 222.29 363.258 219.287 360.66 217.173C358.061 215.059 354.771 213.984 351.426 214.155C348.08 214.326 344.917 215.733 342.549 218.101C340.18 220.47 338.774 223.633 338.602 226.978C338.431 230.324 339.506 233.614 341.62 236.212C343.734 238.811 346.737 240.533 350.048 241.046C353.358 241.558 356.741 240.825 359.542 238.988L374.501 253.947L378.395 250.054ZM345.298 234.481C343.949 233.133 343.031 231.415 342.658 229.545C342.286 227.674 342.476 225.736 343.206 223.974C343.935 222.212 345.171 220.706 346.757 219.646C348.342 218.587 350.206 218.021 352.113 218.021C354.02 218.021 355.884 218.587 357.47 219.646C359.055 220.706 360.291 222.212 361.02 223.974C361.75 225.736 361.941 227.674 361.568 229.545C361.196 231.415 360.277 233.133 358.928 234.481V234.481C358.033 235.376 356.971 236.086 355.802 236.571C354.632 237.055 353.379 237.305 352.113 237.305C350.847 237.305 349.594 237.055 348.425 236.571C347.255 236.086 346.193 235.376 345.298 234.481V234.481Z" fill="#3F3D56"/>
<path d="M379.814 264.502H331.515V270.39H379.814V264.502Z" fill="#3F3D56"/>
</svg>
