<svg width="665" height="500" viewBox="0 0 665 500" fill="none" xmlns="http://www.w3.org/2000/svg">
<path opacity="0.1" d="M559.506 97.9585C563.858 139.449 597.768 174.226 629.789 197.542C640.503 205.35 652.071 213.397 658.827 226.239C667.083 241.909 665.63 260.388 660.339 274.414C650.702 299.984 629.137 316.263 604.195 316.766C582.673 317.208 559.613 306.674 538.216 307.876C502.405 309.86 478.838 343.854 463.617 379.857C452.855 405.325 442.423 435.086 418.479 441.435C401.632 445.919 381.651 437.119 364.78 423.763C356.631 417.312 348.596 409.6 339.67 406.784C334.373 405.11 329.13 405.313 324.126 406.037C278.385 412.667 248.169 460.435 201.615 463.801C170.174 466.097 135.738 447.115 107.495 420.158C79.2529 393.201 56.2357 358.711 34.4141 324.125C18.9059 299.548 3.08679 272.614 0.737239 244.647C-1.77971 215.053 12.0964 190.207 31.6879 177.885C51.2795 165.563 75.9288 164.134 100.279 166.789C130.734 170.095 163.257 179.266 189.574 167.5C207.51 159.489 220.417 142.576 234.371 127.833C257.687 103.19 284.824 83.9508 312.056 65.2082C338.122 47.2727 364.667 29.5525 394.559 19.7716C415.747 12.8306 438.262 15.1742 460.03 11.1446C474.223 8.52008 486.024 0.383342 500.934 0.0306107C519.3 -0.435712 541.965 7.46189 553.479 30.7601C564.444 52.8865 557.192 75.9396 559.506 97.9585Z" fill="#6C63FF"/>
<path d="M472.781 8.13148L431.948 5.65638L408.321 3.97044V3.92859H408.028H407.7V3.97642L280.65 14.1399H270.116L268.879 57.9922L289.331 65.2023L301.725 128.275L245.329 239.996L211.252 265.823V290.448L231.704 310.273L232.942 400.979L239.142 402.175V401.212L242.256 401.81V402.169L363.291 442.87L368.379 446.32L379.021 439.69L464.752 390.158L472.781 8.13148ZM342.659 289.91L375.816 261.811L342.659 289.91ZM227.663 301.568L236.631 310.279V310.817L227.663 301.568Z" fill="url(#paint0_linear)"/>
<path d="M243.967 312.114L364.732 342.605L346.797 322.278L336.634 309.723L230.814 288.798L226.031 292.983L243.967 312.114Z" fill="#828499"/>
<path d="M226.03 292.983L345.002 320.484L345.6 291.787L311.523 278.635L243.368 267.276H223.639L226.03 292.983Z" fill="#D6D6E3"/>
<path d="M312.121 130.368L433.485 138.14V115.422L425.115 64.6044L420.93 61.0173L299.566 64.6044L312.121 130.368Z" fill="#D6D6E3"/>
<path d="M283.425 16.1785H277.446L276.25 59.8216L295.98 66.9958L307.937 129.77L253.532 240.97L220.65 266.678V291.19L240.379 310.919L241.575 401.194L247.554 402.39L246.358 312.712L226.629 291.787L226.031 266.678L257.717 241.568L313.317 130.368L301.36 66.9958L281.631 58.6259L283.425 16.1785Z" fill="#D6D6E3"/>
<path d="M278.641 16.1785H272.663L271.467 59.8216L291.196 66.9958L303.153 129.77L248.749 240.97L215.867 266.678V291.19L235.596 310.919L236.792 401.194L242.77 402.39L241.575 312.712L221.846 291.787L221.248 266.678L254.13 241.568L308.534 130.368L296.577 66.9958L276.848 58.6259L278.641 16.1785Z" fill="#828499"/>
<path d="M278.342 55.3377L281.331 59.5227L298.071 67.2947L430.794 63.7076L417.94 59.8216L404.189 53.8431L405.983 49.0603L278.342 55.3377Z" fill="#A8A8A8"/>
<path d="M255.924 243.362L377.287 263.091L401.799 211.078L435.279 136.346L312.122 130.368L255.924 243.362Z" fill="#6C63FF"/>
<g opacity="0.1">
<path opacity="0.1" d="M318.699 151.891L400.604 158.467L358.157 242.166L278.643 230.209L318.699 151.891Z" fill="white"/>
</g>
<g opacity="0.1">
<path opacity="0.1" d="M324.348 157.971L327.965 158.264L326.093 161.952L322.584 161.426L324.348 157.971Z" fill="white"/>
</g>
<g opacity="0.1">
<path opacity="0.1" d="M324.945 192.646L328.562 192.939L326.691 196.628L323.182 196.102L324.945 192.646Z" fill="white"/>
</g>
<g opacity="0.1">
<path opacity="0.1" d="M344.674 162.156L348.291 162.449L346.42 166.137L342.91 165.611L344.674 162.156Z" fill="white"/>
</g>
<g opacity="0.1">
<path opacity="0.1" d="M382.338 163.949L385.955 164.242L384.084 167.931L380.574 167.405L382.338 163.949Z" fill="white"/>
</g>
<g opacity="0.1">
<path opacity="0.1" d="M331.521 168.732L335.138 169.025L333.267 172.714L329.758 172.188L331.521 168.732Z" fill="white"/>
</g>
<g opacity="0.1">
<path opacity="0.1" d="M344.674 205.201L348.291 205.494L346.42 209.182L342.91 208.656L344.674 205.201Z" fill="white"/>
</g>
<g opacity="0.1">
<path opacity="0.1" d="M312.391 184.276L316.008 184.569L314.136 188.258L310.627 187.732L312.391 184.276Z" fill="white"/>
</g>
<g opacity="0.1">
<path opacity="0.1" d="M367.393 162.156L371.01 162.449L369.138 166.137L365.629 165.611L367.393 162.156Z" fill="white"/>
</g>
<g opacity="0.1">
<path opacity="0.1" d="M338.695 182.482L342.312 182.775L340.441 186.464L336.932 185.938L338.695 182.482Z" fill="white"/>
</g>
<g opacity="0.1">
<path opacity="0.1" d="M334.51 159.764L338.127 160.057L336.255 163.746L332.746 163.22L334.51 159.764Z" fill="white"/>
</g>
<g opacity="0.1">
<path opacity="0.1" d="M353.045 180.689L356.662 180.982L354.791 184.671L351.281 184.145L353.045 180.689Z" fill="white"/>
</g>
<g opacity="0.1">
<path opacity="0.1" d="M357.229 162.156L360.845 162.449L358.974 166.137L355.465 165.611L357.229 162.156Z" fill="white"/>
</g>
<g opacity="0.1">
<path opacity="0.1" d="M319.564 170.525L323.181 170.818L321.31 174.507L317.801 173.981L319.564 170.525Z" fill="white"/>
</g>
<path d="M223.639 267.276L342.013 291.19L374.62 262.66L256.221 242.465L223.639 267.276Z" fill="#D6D6E3"/>
<path d="M245.76 309.125V402.39L362.938 443.044L364.732 346.192L359.949 337.182L338.427 331.843L245.76 309.125Z" fill="#828499"/>
<path d="M261.006 254.123C263.812 254.123 266.087 252.785 266.087 251.134C266.087 249.483 263.812 248.144 261.006 248.144C258.199 248.144 255.924 249.483 255.924 251.134C255.924 252.785 258.199 254.123 261.006 254.123Z" fill="#575988"/>
<path d="M265.189 260.699C267.996 260.699 270.271 259.361 270.271 257.71C270.271 256.059 267.996 254.721 265.189 254.721C262.383 254.721 260.107 256.059 260.107 257.71C260.107 259.361 262.383 260.699 265.189 260.699Z" fill="#FA595F"/>
<path d="M250.841 258.906C253.648 258.906 255.923 257.567 255.923 255.916C255.923 254.266 253.648 252.927 250.841 252.927C248.035 252.927 245.76 254.266 245.76 255.916C245.76 257.567 248.035 258.906 250.841 258.906Z" fill="#FFD037"/>
<path d="M315.41 264.884C318.216 264.884 320.492 263.546 320.492 261.895C320.492 260.244 318.216 258.906 315.41 258.906C312.603 258.906 310.328 260.244 310.328 261.895C310.328 263.546 312.603 264.884 315.41 264.884Z" fill="#575988"/>
<path d="M305.246 270.265C308.052 270.265 310.328 268.926 310.328 267.276C310.328 265.625 308.052 264.286 305.246 264.286C302.439 264.286 300.164 265.625 300.164 267.276C300.164 268.926 302.439 270.265 305.246 270.265Z" fill="#FFD037"/>
<path d="M286.116 261.895C290.243 261.895 293.589 260.289 293.589 258.308C293.589 256.327 290.243 254.721 286.116 254.721C281.988 254.721 278.643 256.327 278.643 258.308C278.643 260.289 281.988 261.895 286.116 261.895Z" fill="#A8A8A8"/>
<path d="M320.791 271.461C323.597 271.461 325.872 270.122 325.872 268.471C325.872 266.82 323.597 265.482 320.791 265.482C317.984 265.482 315.709 266.82 315.709 268.471C315.709 270.122 317.984 271.461 320.791 271.461Z" fill="#FA595F"/>
<path d="M288.208 257.716H284.621L281.536 245.807C281.406 245.306 281.393 244.782 281.497 244.275C281.602 243.768 281.82 243.292 282.137 242.882C282.454 242.473 282.86 242.142 283.325 241.914C283.79 241.686 284.3 241.568 284.818 241.568C285.717 241.568 286.579 241.925 287.215 242.561C287.851 243.197 288.208 244.059 288.208 244.958V257.716Z" fill="#A8A8A8"/>
<path d="M339.92 271.461C344.048 271.461 347.394 269.855 347.394 267.873C347.394 265.892 344.048 264.286 339.92 264.286C335.793 264.286 332.447 265.892 332.447 267.873C332.447 269.855 335.793 271.461 339.92 271.461Z" fill="#A8A8A8"/>
<path d="M342.014 267.282H338.427L335.342 255.372C335.213 254.871 335.2 254.347 335.304 253.84C335.408 253.334 335.627 252.857 335.944 252.448C336.261 252.039 336.667 251.708 337.132 251.48C337.596 251.252 338.107 251.134 338.625 251.134C339.524 251.134 340.386 251.491 341.022 252.126C341.657 252.762 342.014 253.624 342.014 254.523V267.282Z" fill="#A8A8A8"/>
<path d="M282.827 16.1785L405.984 6.01509L402.995 50.8539L279.838 56.8324L282.827 16.1785Z" fill="#828499"/>
<path d="M405.386 6.01509L462.182 10.2L454.41 390.433L367.422 446.332L361.444 442.147L361.145 342.605L342.014 321.082V291.19L375.493 261.895L432.289 135.749L424.218 63.7076H428.403L401.799 54.441L405.386 6.01509Z" fill="#D6D6E3"/>
<path d="M410.766 6.61294L468.16 10.2L460.388 390.433L367.123 446.033V342.605L347.992 321.082V291.19L381.472 261.895L438.268 135.749L428.104 63.4087L407.777 54.441L410.766 6.61294Z" fill="#828499"/>
<path d="M309.795 236.965C301.426 254.302 280.824 249.806 280.824 249.806C279.759 248.82 273.099 247.17 268.048 246.028C264.807 245.293 262.23 244.778 262.23 244.778L269.303 234.92L274.606 236.008L282.516 237.634C282.516 237.634 318.195 219.633 309.795 236.965Z" fill="url(#paint1_linear)"/>
<g opacity="0.08">
<path opacity="0.08" d="M309.795 236.965C301.426 254.302 280.824 249.806 280.824 249.806C279.759 248.82 273.099 247.17 268.048 246.028C264.807 245.293 262.23 244.778 262.23 244.778L269.303 234.92L274.606 236.008L282.516 237.634C282.516 237.634 318.195 219.633 309.795 236.965Z" fill="url(#paint2_linear)"/>
</g>
<g opacity="0.1">
<path opacity="0.1" d="M274.612 236.008L268.036 246.034C264.795 245.299 262.219 244.784 262.219 244.784L269.291 234.926L274.612 236.008Z" fill="url(#paint3_linear)"/>
</g>
<path d="M201.089 200.173C201.089 200.173 231.92 248.354 264.934 248.24L273.901 234.489C273.901 234.489 243.686 212.907 239.668 201.656C238.186 197.471 235.125 191.737 231.861 186.111C221.835 168.875 194.794 180.133 200.736 199.073C200.852 199.447 200.97 199.814 201.089 200.173Z" fill="url(#paint4_linear)"/>
<g opacity="0.05">
<path opacity="0.05" d="M201.089 200.173C201.089 200.173 231.92 248.354 264.934 248.24L273.901 234.489C273.901 234.489 243.686 212.907 239.668 201.656C238.186 197.471 235.125 191.737 231.861 186.111C221.835 168.875 194.794 180.133 200.736 199.073C200.852 199.447 200.97 199.814 201.089 200.173Z" fill="url(#paint5_linear)"/>
</g>
<path d="M181.019 480.224L182.465 496.964C182.465 496.964 229.821 489.096 229.409 473.366C228.996 457.637 181.019 480.224 181.019 480.224Z" fill="url(#paint6_linear)"/>
<g opacity="0.1">
<path opacity="0.1" d="M181.019 480.224L182.465 496.964C182.465 496.964 229.821 489.096 229.409 473.366C228.996 457.637 181.019 480.224 181.019 480.224Z" fill="url(#paint7_linear)"/>
</g>
<path d="M236.44 485.467L235.615 499.989C235.615 499.989 301.379 495.146 298.892 481.455C296.405 467.765 261.67 475.381 261.67 475.381L236.44 485.467Z" fill="url(#paint8_linear)"/>
<path d="M237.265 343.478C237.265 343.478 233.379 354.239 228.416 366.567C223.669 378.368 217.942 391.634 213.691 398.336C205.005 412.051 203.767 454.409 203.767 454.409C202.111 461.266 210.385 474.58 210.385 474.58C193.843 491.918 178.538 481.844 178.538 481.844C181.431 476.601 176.469 461.673 176.469 461.673C176.469 461.673 183.087 392.693 187.231 389.464C191.374 386.236 194.674 370.1 194.674 370.1L190.973 315.265L190.124 302.71L225.69 286.981L228.255 299.488L230.796 311.869L237.265 343.478Z" fill="url(#paint9_linear)"/>
<g opacity="0.1">
<path opacity="0.1" d="M237.265 343.478C237.265 343.478 233.379 354.239 228.416 366.567C223.669 378.368 217.942 391.634 213.691 398.336C205.005 412.051 203.767 454.409 203.767 454.409C202.111 461.266 210.385 474.58 210.385 474.58C193.843 491.918 178.538 481.844 178.538 481.844C181.431 476.601 176.469 461.673 176.469 461.673C176.469 461.673 183.087 392.693 187.231 389.464C191.374 386.236 194.674 370.1 194.674 370.1L190.973 315.265L190.124 302.71L225.69 286.981L228.255 299.488L230.796 311.869L237.265 343.478Z" fill="url(#paint10_linear)"/>
</g>
<path d="M268.281 477.001C260.837 489.909 234.801 488.295 234.801 488.295V450.373C234.801 450.373 227.358 408.015 231.495 398.36C235.632 388.705 229.839 370.931 229.839 370.931L228.416 366.573L211.551 314.56L206.66 299.482H262.493C262.493 299.482 262.493 302.065 262.493 306.261C262.565 322.403 262.9 362.406 264.544 371.69C266.613 383.39 260.819 391.055 260.819 391.055C260.819 391.055 264.126 438.655 261.232 453.578C258.338 468.5 268.281 477.001 268.281 477.001Z" fill="url(#paint11_linear)"/>
<path d="M222.378 122.416C222.378 122.416 213.691 145.81 196.323 154.282C178.956 162.753 224.859 165.175 224.859 165.175C224.859 165.175 232.302 147.425 249.257 134.918L222.378 122.416Z" fill="url(#paint12_linear)"/>
<g opacity="0.1">
<path opacity="0.1" d="M262.512 306.285C255.589 307.618 243.339 309.902 230.79 311.887C224.214 312.927 217.565 313.884 211.551 314.577C202.296 315.648 194.554 316.096 190.967 315.259L190.118 302.704L225.684 286.975L228.249 299.482H262.494C262.494 299.482 262.494 302.088 262.512 306.285Z" fill="url(#paint13_linear)"/>
</g>
<path d="M268.281 303.942C268.281 303.942 198.386 318.063 189.705 313.627C181.025 309.191 178.944 297.897 181.431 285.39C183.918 272.883 181.431 241.825 176.882 202.289C174.592 182.381 179.638 169.019 185.222 160.661C187.672 157.058 190.972 154.114 194.83 152.088C198.688 150.062 202.985 149.017 207.342 149.045C214.902 149.014 222.249 151.542 228.189 156.219C229.935 157.612 231.698 158.754 233.139 159.142C234.275 159.447 235.985 160.655 237.922 162.299C246.547 169.727 251.962 180.207 253.03 191.54C253.747 199.055 254.506 208.519 254.877 218.084C255.258 226.253 255.174 234.437 254.626 242.596C254.242 248.57 254.527 254.568 255.475 260.478C258.697 282.276 268.281 303.942 268.281 303.942Z" fill="url(#paint14_linear)"/>
<g opacity="0.1">
<path opacity="0.1" d="M255.481 260.508C230.114 245.071 216.997 201.883 216.997 201.883C216.997 201.506 216.997 201.135 216.955 200.771C216.387 180.964 245.551 177.15 250.501 196.371C252.109 202.63 253.49 208.979 253.777 213.367C253.933 214.982 254.305 216.569 254.883 218.084C255.264 226.253 255.18 234.437 254.632 242.596C254.246 248.58 254.53 254.588 255.481 260.508Z" fill="url(#paint15_linear)"/>
</g>
<g opacity="0.1">
<path opacity="0.1" d="M218.031 136.334C222.156 143.156 225.421 150.025 233.797 151.191C237.909 145.973 242.689 141.318 248.013 137.345L221.11 124.838C221.11 124.838 222.689 129.106 218.031 136.334Z" fill="url(#paint16_linear)"/>
</g>
<path d="M238.921 149.033C253.997 149.033 266.219 137.114 266.219 122.411C266.219 107.707 253.997 95.7883 238.921 95.7883C223.845 95.7883 211.623 107.707 211.623 122.411C211.623 137.114 223.845 149.033 238.921 149.033Z" fill="url(#paint17_linear)"/>
<g opacity="0.1">
<path opacity="0.1" d="M265.902 130.762C267.031 130.811 268.149 130.515 269.106 129.914C270.415 128.963 270.834 127.259 271.133 125.693C271.844 121.992 272.4 118.094 271.133 114.531C270.314 112.175 268.741 110.137 267.641 107.901C265.19 103.016 264.754 97.1394 261.256 92.9006C259.074 90.2462 251.404 92.9006 248.199 91.5614C241.312 88.6678 238.323 82.797 230.82 82.8029C228.07 82.7359 225.326 83.0784 222.677 83.8193C219.323 84.8536 216.358 86.8085 213.602 88.9548C208.819 92.6734 204.132 97.7791 204.556 103.746C204.831 107.554 207.157 110.92 208.526 114.471C210.822 120.45 210.403 127.169 208.747 133.363C208.042 136 207.234 139.15 209.106 141.165C210.301 142.427 212.197 142.785 213.889 142.51C215.576 142.136 217.191 141.49 218.671 140.597C221.362 139.168 224.088 137.715 226.264 135.617C227.705 134.23 228.865 132.592 230.234 131.139C232.914 128.361 235.95 125.949 239.261 123.965C241.91 122.375 244.642 123.367 247.422 124.401C253.532 126.643 259.182 130.882 265.902 130.762Z" fill="url(#paint18_linear)"/>
</g>
<path d="M265.489 130.356C266.619 130.404 267.736 130.108 268.694 129.507C270.003 128.556 270.422 126.853 270.721 125.286C271.432 121.585 271.988 117.688 270.721 114.124C269.902 111.769 268.329 109.73 267.229 107.494C264.778 102.61 264.342 96.7329 260.844 92.4941C258.662 89.8397 251.404 92.9006 248.2 91.5555C241.312 88.6619 237.911 82.3904 230.408 82.3964C227.658 82.3294 224.914 82.6719 222.265 83.4128C218.911 84.447 215.946 86.402 213.189 88.5483C208.407 92.2669 203.72 97.3726 204.144 103.339C204.419 107.147 206.745 110.513 208.114 114.065C210.409 120.043 209.991 126.763 208.335 132.957C207.629 135.593 206.822 138.744 208.694 140.759C209.889 142.02 211.785 142.379 213.476 142.104C215.164 141.73 216.779 141.084 218.259 140.191C220.95 138.762 223.676 137.309 225.852 135.211C227.293 133.823 228.453 132.185 229.822 130.733C232.502 127.955 235.538 125.542 238.849 123.558C241.498 121.968 244.23 122.961 247.01 123.995C253.12 126.237 258.77 130.476 265.489 130.356Z" fill="url(#paint19_linear)"/>
<g opacity="0.05">
<path opacity="0.05" d="M255.481 260.508C254.533 254.598 254.248 248.6 254.632 242.626C255.18 234.467 255.264 226.283 254.883 218.114C254.513 208.549 253.759 199.085 253.036 191.57C251.963 180.225 246.535 169.738 237.892 162.311C235.973 160.667 234.263 159.453 233.11 159.154C231.669 158.772 229.905 157.624 228.159 156.231C222.289 151.55 229.75 160.667 231.669 162.311C240.312 169.738 245.74 180.225 246.812 191.57C247.53 199.085 248.289 208.549 248.66 218.114C249.04 226.283 248.957 234.467 248.409 242.626C248.025 248.6 248.309 254.598 249.258 260.508C252.474 282.288 262.058 303.942 262.058 303.942C262.058 303.942 215.27 313.394 193.496 314.398C210.559 315.594 268.257 303.942 268.257 303.942C268.257 303.942 258.698 282.276 255.481 260.508Z" fill="url(#paint20_linear)"/>
</g>
<path d="M312.534 264.412C299.71 278.934 281.105 269.254 281.105 269.254C280.346 268.023 274.379 264.705 269.83 262.29C266.906 260.741 264.562 259.569 264.562 259.569L274.074 251.905L278.887 254.332L286.061 257.955C286.061 257.955 325.37 249.89 312.534 264.412Z" fill="url(#paint21_linear)"/>
<g opacity="0.1">
<path opacity="0.1" d="M278.887 254.332L269.83 262.29C266.906 260.741 264.562 259.569 264.562 259.569L274.074 251.905L278.887 254.332Z" fill="url(#paint22_linear)"/>
</g>
<path d="M217.827 200.675C217.827 200.675 234.37 255.133 266.217 263.605L278.623 252.712C278.623 252.712 255.42 224.051 254.607 212.16C254.314 207.766 252.939 201.399 251.331 195.163C246.381 175.948 217.218 179.756 217.786 199.563C217.797 199.93 217.811 200.3 217.827 200.675Z" fill="url(#paint23_linear)"/>
<path opacity="0.05" d="M185.778 253.722C185.778 253.722 196.539 245.251 206.457 251.708C216.376 258.164 230.856 257.357 232.924 257.758" fill="url(#paint24_linear)"/>
<path d="M306.699 236.08C298.717 252.987 279.126 248.635 279.126 248.635C278.11 247.672 271.772 246.064 266.972 244.952C263.887 244.234 261.436 243.756 261.436 243.756L268.167 234.137L273.213 235.201L280.74 236.785C280.74 236.785 314.68 219.167 306.699 236.08Z" fill="#F7C4A7"/>
<path opacity="0.08" d="M306.699 236.08C298.717 252.987 279.126 248.635 279.126 248.635C278.11 247.672 271.772 246.064 266.972 244.952C263.887 244.234 261.436 243.756 261.436 243.756L268.167 234.137L273.213 235.201L280.74 236.785C280.74 236.785 314.68 219.167 306.699 236.08Z" fill="black"/>
<path opacity="0.1" d="M273.213 235.141L266.972 244.922C263.887 244.205 261.436 243.726 261.436 243.726L268.167 234.107L273.213 235.141Z" fill="black"/>
<path d="M203.246 200.179C203.246 200.179 232.589 247.194 264 247.074L272.543 233.682C272.543 233.682 243.793 212.626 239.966 201.644C238.555 197.59 235.644 191.97 232.541 186.494C222.975 169.683 197.268 180.665 202.918 199.145C203.025 199.483 203.135 199.828 203.246 200.179Z" fill="#575988"/>
<path opacity="0.05" d="M203.246 200.179C203.246 200.179 232.589 247.194 264 247.074L272.543 233.682C272.543 233.682 243.793 212.626 239.966 201.644C238.555 197.59 235.644 191.97 232.541 186.494C222.975 169.683 197.268 180.665 202.918 199.145C203.025 199.483 203.135 199.828 203.246 200.179Z" fill="black"/>
<path d="M184.146 473.426L185.521 489.76C185.521 489.76 230.586 482.083 230.192 466.736C229.797 451.389 184.146 473.426 184.146 473.426Z" fill="#535461"/>
<path opacity="0.1" d="M184.146 473.426L185.521 489.76C185.521 489.76 230.586 482.083 230.192 466.736C229.797 451.389 184.146 473.426 184.146 473.426Z" fill="black"/>
<path d="M236.889 478.544L236.1 492.719C236.1 492.719 298.683 487.996 296.321 474.616C293.96 461.236 260.898 468.709 260.898 468.709L236.889 478.544Z" fill="#535461"/>
<path d="M237.671 339.998C237.671 339.998 233.971 350.484 229.248 362.525C224.728 374.04 219.275 386.983 215.234 393.524C206.996 406.909 205.8 448.233 205.8 448.233C204.227 454.923 212.095 467.914 212.095 467.914C196.354 484.839 181.79 474.999 181.79 474.999C184.546 469.881 179.823 455.317 179.823 455.317C179.823 455.317 186.119 388.011 190.058 384.867C193.998 381.722 197.137 365.975 197.137 365.975L193.616 312.473L192.809 300.247L226.659 284.894L229.116 297.096L231.507 309.179L237.671 339.998Z" fill="#6A5C99"/>
<path opacity="0.1" d="M237.671 339.998C237.671 339.998 233.971 350.484 229.248 362.525C224.728 374.04 219.275 386.983 215.234 393.524C206.996 406.909 205.8 448.233 205.8 448.233C204.227 454.923 212.095 467.914 212.095 467.914C196.354 484.839 181.79 474.999 181.79 474.999C184.546 469.881 179.823 455.317 179.823 455.317C179.823 455.317 186.119 388.011 190.058 384.867C193.998 381.722 197.137 365.975 197.137 365.975L193.616 312.473L192.809 300.247L226.659 284.894L229.116 297.096L231.507 309.179L237.671 339.998Z" fill="black"/>
<path d="M267.192 470.276C260.108 482.872 235.309 481.294 235.309 481.294V444.293C235.309 444.293 228.224 402.964 232.158 393.518C236.092 384.072 230.586 366.752 230.586 366.752L229.247 362.519L213.194 311.798L208.543 297.09H261.68C261.68 297.09 261.68 299.607 261.68 303.709C261.746 319.45 262.068 358.49 263.635 367.547C265.602 378.96 260.09 386.439 260.09 386.439C260.09 386.439 263.24 432.88 260.484 447.42C257.728 461.96 267.192 470.276 267.192 470.276Z" fill="#6A5C99"/>
<path d="M223.501 124.312C223.501 124.312 215.233 147.138 198.702 155.4C182.172 163.662 225.863 166.03 225.863 166.03C225.863 166.03 232.947 148.692 249.083 136.508L223.501 124.312Z" fill="#F7C4A7"/>
<path opacity="0.1" d="M261.699 303.715C255.11 304.994 243.464 307.242 231.507 309.179C225.254 310.195 218.922 311.128 213.195 311.803C204.389 312.844 197.017 313.286 193.603 312.467L192.796 300.241L226.647 284.888L229.116 297.096H261.705C261.705 297.096 261.681 299.613 261.699 303.715Z" fill="black"/>
<path d="M267.193 301.407C267.193 301.407 200.676 315.157 192.414 310.853C184.152 306.548 182.179 295.5 184.54 283.304C186.902 271.108 184.54 240.797 180.212 202.223C178.03 182.799 182.836 169.766 188.145 161.606C190.432 158.112 193.554 155.243 197.228 153.26C200.903 151.276 205.014 150.241 209.189 150.246C216.409 150.221 223.417 152.69 229.026 157.235C230.688 158.592 232.368 159.71 233.737 160.087C234.819 160.38 236.445 161.564 238.269 163.166C246.537 170.496 251.693 180.708 252.683 191.713C253.371 199.043 254.088 208.28 254.441 217.618C254.805 225.588 254.727 233.571 254.208 241.532C253.842 247.359 254.113 253.209 255.015 258.977C258.07 280.297 267.193 301.407 267.193 301.407Z" fill="#575988"/>
<path opacity="0.1" d="M255.008 259.049C230.867 243.989 218.384 201.847 218.384 201.847C218.384 201.482 218.384 201.118 218.342 200.765C217.804 181.442 245.556 177.718 250.267 196.472C251.797 202.582 253.107 208.77 253.382 213.057C253.53 214.63 253.884 216.178 254.434 217.66C254.798 225.63 254.72 233.613 254.201 241.574C253.833 247.411 254.103 253.271 255.008 259.049Z" fill="black"/>
<path opacity="0.1" d="M219.371 137.889C223.293 144.543 226.402 151.251 234.377 152.381C238.276 147.304 242.824 142.761 247.906 138.869L222.324 126.667C222.324 126.667 223.801 130.84 219.371 137.889Z" fill="black"/>
<path d="M239.25 150.288C253.596 150.288 265.227 138.658 265.227 124.312C265.227 109.965 253.596 98.3351 239.25 98.3351C224.904 98.3351 213.273 109.965 213.273 124.312C213.273 138.658 224.904 150.288 239.25 150.288Z" fill="#F7C4A7"/>
<path opacity="0.1" d="M264.928 132.454C266.006 132.498 267.072 132.205 267.977 131.617C269.221 130.691 269.621 129.023 269.902 127.498C270.578 123.911 271.098 120.085 269.902 116.605C269.125 114.304 267.648 112.319 266.578 110.137C264.24 105.354 263.828 99.6384 260.504 95.5013C258.423 92.9126 251.13 95.5013 248.075 94.192C241.498 91.3701 238.676 85.6427 231.538 85.6487C228.912 85.5814 226.291 85.9161 223.766 86.6411C220.573 87.6455 217.752 89.5706 215.133 91.6511C210.565 95.2801 206.117 100.26 206.524 106.083C206.787 109.802 208.999 113.054 210.302 116.546C212.49 122.393 212.096 128.939 210.512 134.977C209.842 137.548 209.071 140.621 210.852 142.594C211.964 143.82 213.794 144.178 215.426 143.903C217.043 143.539 218.589 142.909 219.999 142.038C222.558 140.645 225.153 139.228 227.222 137.183C228.591 135.826 229.697 134.23 231 132.813C233.541 130.11 236.43 127.756 239.591 125.812C242.114 124.264 244.703 125.214 247.363 126.237C253.156 128.437 258.531 132.574 264.928 132.454Z" fill="black"/>
<path d="M264.533 132.06C265.611 132.107 266.676 131.819 267.582 131.235C268.826 130.308 269.227 128.64 269.508 127.116C270.183 123.529 270.703 119.702 269.508 116.223C268.73 113.921 267.254 111.936 266.183 109.754C263.846 104.971 263.433 99.2558 260.109 95.1187C258.029 92.53 251.142 95.5192 248.075 94.204C241.498 91.3821 238.282 85.2362 231.143 85.2362C228.517 85.1689 225.896 85.5036 223.371 86.2286C220.179 87.233 217.357 89.1581 214.738 91.2386C210.171 94.8676 205.723 99.8477 206.129 105.671C206.392 109.389 208.605 112.642 209.908 116.133C212.096 121.98 211.701 128.527 210.117 134.565C209.447 137.136 208.676 140.209 210.458 142.181C211.57 143.407 213.399 143.766 215.031 143.491C216.649 143.127 218.194 142.497 219.605 141.625C222.164 140.232 224.758 138.816 226.827 136.771C228.196 135.414 229.302 133.818 230.605 132.401C233.174 129.7 236.092 127.354 239.28 125.424C241.803 123.875 244.392 124.826 247.052 125.848C252.762 128.03 258.136 132.179 264.533 132.06Z" fill="#632652"/>
<path opacity="0.05" d="M255.008 259.049C254.115 253.286 253.853 247.442 254.225 241.622C254.745 233.661 254.822 225.677 254.458 217.708C254.106 208.369 253.388 199.139 252.701 191.803C251.711 180.798 246.555 170.586 238.286 163.256C236.463 161.647 234.837 160.47 233.755 160.177C232.386 159.8 230.706 158.682 229.044 157.325C223.454 152.757 230.556 161.653 232.386 163.256C240.654 170.586 245.81 180.798 246.8 191.803C247.487 199.133 248.205 208.369 248.558 217.708C248.922 225.677 248.844 233.661 248.324 241.622C247.959 247.449 248.229 253.299 249.131 259.067C252.192 280.315 261.316 301.443 261.316 301.443C261.316 301.443 216.788 310.662 196.072 311.648C212.31 312.844 267.216 301.443 267.216 301.443C267.216 301.443 258.069 280.297 255.008 259.049Z" fill="black"/>
<path d="M309.306 262.857C297.104 277.027 279.414 267.581 279.414 267.581C278.696 266.385 273.017 263.138 268.653 260.789C265.873 259.276 263.643 258.134 263.643 258.134L272.694 250.655L277.274 253.047L284.119 256.568C284.119 256.568 321.508 248.688 309.306 262.857Z" fill="#F7C4A7"/>
<path opacity="0.1" d="M277.285 253.023L268.664 260.795C265.884 259.282 263.654 258.14 263.654 258.14L272.706 250.661L277.285 253.023Z" fill="black"/>
<path d="M219.173 200.669C219.173 200.669 234.914 253.806 265.207 262.068L277.015 251.439C277.015 251.439 254.895 223.477 254.159 211.873C253.878 207.586 252.575 201.393 251.038 195.288C246.327 176.54 218.575 180.259 219.119 199.581C219.139 199.94 219.157 200.302 219.173 200.669Z" fill="#575988"/>
<path opacity="0.05" d="M188.671 252.425C188.671 252.425 198.907 244.157 208.353 250.458C217.799 256.759 231.573 255.97 233.54 256.365" fill="black"/>
<path d="M299.99 340.66C296.066 340.66 292.51 339.817 289.32 338.13C286.166 336.407 283.673 334.042 281.84 331.035C280.043 327.992 279.145 324.563 279.145 320.75C279.145 316.937 280.043 313.527 281.84 310.52C283.673 307.477 286.166 305.112 289.32 303.425C292.51 301.702 296.085 300.84 300.045 300.84C303.381 300.84 306.388 301.427 309.065 302.6C311.778 303.773 314.051 305.46 315.885 307.66L310.165 312.94C307.561 309.933 304.335 308.43 300.485 308.43C298.101 308.43 295.975 308.962 294.105 310.025C292.235 311.052 290.768 312.5 289.705 314.37C288.678 316.24 288.165 318.367 288.165 320.75C288.165 323.133 288.678 325.26 289.705 327.13C290.768 329 292.235 330.467 294.105 331.53C295.975 332.557 298.101 333.07 300.485 333.07C304.335 333.07 307.561 331.548 310.165 328.505L315.885 333.785C314.051 336.022 311.778 337.727 309.065 338.9C306.351 340.073 303.326 340.66 299.99 340.66Z" fill="#2F2E41"/>
<path d="M339.832 309.97C343.498 309.97 346.45 311.07 348.687 313.27C350.96 315.47 352.097 318.733 352.097 323.06V340H343.517V324.38C343.517 322.033 343.003 320.292 341.977 319.155C340.95 317.982 339.465 317.395 337.522 317.395C335.358 317.395 333.635 318.073 332.352 319.43C331.068 320.75 330.427 322.73 330.427 325.37V340H321.847V299.19H330.427V313.49C331.563 312.353 332.938 311.492 334.552 310.905C336.165 310.282 337.925 309.97 339.832 309.97Z" fill="#2F2E41"/>
<path d="M374.826 340.44C371.71 340.44 368.905 339.798 366.411 338.515C363.955 337.195 362.03 335.38 360.636 333.07C359.243 330.76 358.546 328.138 358.546 325.205C358.546 322.272 359.243 319.65 360.636 317.34C362.03 315.03 363.955 313.233 366.411 311.95C368.905 310.63 371.71 309.97 374.826 309.97C377.943 309.97 380.73 310.63 383.186 311.95C385.643 313.233 387.568 315.03 388.961 317.34C390.355 319.65 391.051 322.272 391.051 325.205C391.051 328.138 390.355 330.76 388.961 333.07C387.568 335.38 385.643 337.195 383.186 338.515C380.73 339.798 377.943 340.44 374.826 340.44ZM374.826 333.4C377.026 333.4 378.823 332.667 380.216 331.2C381.646 329.697 382.361 327.698 382.361 325.205C382.361 322.712 381.646 320.732 380.216 319.265C378.823 317.762 377.026 317.01 374.826 317.01C372.626 317.01 370.811 317.762 369.381 319.265C367.951 320.732 367.236 322.712 367.236 325.205C367.236 327.698 367.951 329.697 369.381 331.2C370.811 332.667 372.626 333.4 374.826 333.4Z" fill="#2F2E41"/>
<path d="M411.416 340.44C408.3 340.44 405.495 339.798 403.001 338.515C400.545 337.195 398.62 335.38 397.226 333.07C395.833 330.76 395.136 328.138 395.136 325.205C395.136 322.272 395.833 319.65 397.226 317.34C398.62 315.03 400.545 313.233 403.001 311.95C405.495 310.63 408.3 309.97 411.416 309.97C414.533 309.97 417.32 310.63 419.776 311.95C422.233 313.233 424.158 315.03 425.551 317.34C426.945 319.65 427.641 322.272 427.641 325.205C427.641 328.138 426.945 330.76 425.551 333.07C424.158 335.38 422.233 337.195 419.776 338.515C417.32 339.798 414.533 340.44 411.416 340.44ZM411.416 333.4C413.616 333.4 415.413 332.667 416.806 331.2C418.236 329.697 418.951 327.698 418.951 325.205C418.951 322.712 418.236 320.732 416.806 319.265C415.413 317.762 413.616 317.01 411.416 317.01C409.216 317.01 407.401 317.762 405.971 319.265C404.541 320.732 403.826 322.712 403.826 325.205C403.826 327.698 404.541 329.697 405.971 331.2C407.401 332.667 409.216 333.4 411.416 333.4Z" fill="#2F2E41"/>
<path d="M443.881 340.44C441.425 340.44 439.023 340.147 436.676 339.56C434.33 338.937 432.46 338.167 431.066 337.25L433.926 331.09C435.246 331.933 436.841 332.63 438.711 333.18C440.581 333.693 442.415 333.95 444.211 333.95C447.841 333.95 449.656 333.052 449.656 331.255C449.656 330.412 449.161 329.807 448.171 329.44C447.181 329.073 445.66 328.762 443.606 328.505C441.186 328.138 439.188 327.717 437.611 327.24C436.035 326.763 434.66 325.92 433.486 324.71C432.35 323.5 431.781 321.777 431.781 319.54C431.781 317.67 432.313 316.02 433.376 314.59C434.476 313.123 436.053 311.987 438.106 311.18C440.196 310.373 442.653 309.97 445.476 309.97C447.566 309.97 449.638 310.208 451.691 310.685C453.781 311.125 455.505 311.748 456.861 312.555L454.001 318.66C451.398 317.193 448.556 316.46 445.476 316.46C443.643 316.46 442.268 316.717 441.351 317.23C440.435 317.743 439.976 318.403 439.976 319.21C439.976 320.127 440.471 320.768 441.461 321.135C442.451 321.502 444.028 321.85 446.191 322.18C448.611 322.583 450.591 323.023 452.131 323.5C453.671 323.94 455.01 324.765 456.146 325.975C457.283 327.185 457.851 328.872 457.851 331.035C457.851 332.868 457.301 334.5 456.201 335.93C455.101 337.36 453.488 338.478 451.361 339.285C449.271 340.055 446.778 340.44 443.881 340.44Z" fill="#2F2E41"/>
<path d="M492.68 325.315C492.68 325.425 492.625 326.195 492.515 327.625H470.13C470.533 329.458 471.487 330.907 472.99 331.97C474.493 333.033 476.363 333.565 478.6 333.565C480.14 333.565 481.497 333.345 482.67 332.905C483.88 332.428 484.998 331.695 486.025 330.705L490.59 335.655C487.803 338.845 483.733 340.44 478.38 340.44C475.043 340.44 472.092 339.798 469.525 338.515C466.958 337.195 464.978 335.38 463.585 333.07C462.192 330.76 461.495 328.138 461.495 325.205C461.495 322.308 462.173 319.705 463.53 317.395C464.923 315.048 466.812 313.233 469.195 311.95C471.615 310.63 474.31 309.97 477.28 309.97C480.177 309.97 482.798 310.593 485.145 311.84C487.492 313.087 489.325 314.883 490.645 317.23C492.002 319.54 492.68 322.235 492.68 325.315ZM477.335 316.46C475.392 316.46 473.76 317.01 472.44 318.11C471.12 319.21 470.313 320.713 470.02 322.62H484.595C484.302 320.75 483.495 319.265 482.175 318.165C480.855 317.028 479.242 316.46 477.335 316.46Z" fill="#2F2E41"/>
<path d="M534.154 338.57C533.31 339.193 532.265 339.67 531.019 340C529.809 340.293 528.525 340.44 527.169 340.44C523.649 340.44 520.917 339.542 518.974 337.745C517.067 335.948 516.114 333.308 516.114 329.825V317.67H511.549V311.07H516.114V303.865H524.694V311.07H532.064V317.67H524.694V329.715C524.694 330.962 525.005 331.933 525.629 332.63C526.289 333.29 527.205 333.62 528.379 333.62C529.735 333.62 530.89 333.253 531.844 332.52L534.154 338.57Z" fill="#2F2E41"/>
<path d="M557.505 309.97C561.172 309.97 564.123 311.07 566.36 313.27C568.633 315.47 569.77 318.733 569.77 323.06V340H561.19V324.38C561.19 322.033 560.677 320.292 559.65 319.155C558.623 317.982 557.138 317.395 555.195 317.395C553.032 317.395 551.308 318.073 550.025 319.43C548.742 320.75 548.1 322.73 548.1 325.37V340H539.52V299.19H548.1V313.49C549.237 312.353 550.612 311.492 552.225 310.905C553.838 310.282 555.598 309.97 557.505 309.97Z" fill="#2F2E41"/>
<path d="M607.405 325.315C607.405 325.425 607.35 326.195 607.24 327.625H584.855C585.258 329.458 586.211 330.907 587.715 331.97C589.218 333.033 591.088 333.565 593.325 333.565C594.865 333.565 596.221 333.345 597.395 332.905C598.605 332.428 599.723 331.695 600.75 330.705L605.315 335.655C602.528 338.845 598.458 340.44 593.105 340.44C589.768 340.44 586.816 339.798 584.25 338.515C581.683 337.195 579.703 335.38 578.31 333.07C576.916 330.76 576.22 328.138 576.22 325.205C576.22 322.308 576.898 319.705 578.255 317.395C579.648 315.048 581.536 313.233 583.92 311.95C586.34 310.63 589.035 309.97 592.005 309.97C594.901 309.97 597.523 310.593 599.87 311.84C602.216 313.087 604.05 314.883 605.37 317.23C606.726 319.54 607.405 322.235 607.405 325.315ZM592.06 316.46C590.116 316.46 588.485 317.01 587.165 318.11C585.845 319.21 585.038 320.713 584.745 322.62H599.32C599.026 320.75 598.22 319.265 596.9 318.165C595.58 317.028 593.966 316.46 592.06 316.46Z" fill="#2F2E41"/>
<path d="M311.485 380.41V405.05C311.485 410.477 310.073 414.51 307.25 417.15C304.426 419.79 300.301 421.11 294.875 421.11C292.015 421.11 289.301 420.762 286.735 420.065C284.168 419.368 282.041 418.36 280.355 417.04L283.765 410.88C285.011 411.907 286.588 412.713 288.495 413.3C290.401 413.923 292.308 414.235 294.215 414.235C297.185 414.235 299.366 413.557 300.76 412.2C302.19 410.88 302.905 408.863 302.905 406.15V404.885C300.668 407.342 297.551 408.57 293.555 408.57C290.841 408.57 288.348 407.983 286.075 406.81C283.838 405.6 282.06 403.913 280.74 401.75C279.42 399.587 278.76 397.093 278.76 394.27C278.76 391.447 279.42 388.953 280.74 386.79C282.06 384.627 283.838 382.958 286.075 381.785C288.348 380.575 290.841 379.97 293.555 379.97C297.845 379.97 301.108 381.382 303.345 384.205V380.41H311.485ZM295.26 401.53C297.533 401.53 299.385 400.87 300.815 399.55C302.281 398.193 303.015 396.433 303.015 394.27C303.015 392.107 302.281 390.365 300.815 389.045C299.385 387.688 297.533 387.01 295.26 387.01C292.986 387.01 291.116 387.688 289.65 389.045C288.183 390.365 287.45 392.107 287.45 394.27C287.45 396.433 288.183 398.193 289.65 399.55C291.116 400.87 292.986 401.53 295.26 401.53Z" fill="#2F2E41"/>
<path d="M331.956 379.97C336.539 379.97 340.059 381.07 342.516 383.27C344.972 385.433 346.201 388.715 346.201 393.115V410H338.171V406.315C336.557 409.065 333.551 410.44 329.151 410.44C326.877 410.44 324.897 410.055 323.211 409.285C321.561 408.515 320.296 407.452 319.416 406.095C318.536 404.738 318.096 403.198 318.096 401.475C318.096 398.725 319.122 396.562 321.176 394.985C323.266 393.408 326.474 392.62 330.801 392.62H337.621C337.621 390.75 337.052 389.32 335.916 388.33C334.779 387.303 333.074 386.79 330.801 386.79C329.224 386.79 327.666 387.047 326.126 387.56C324.622 388.037 323.339 388.697 322.276 389.54L319.196 383.545C320.809 382.408 322.734 381.528 324.971 380.905C327.244 380.282 329.572 379.97 331.956 379.97ZM331.296 404.665C332.762 404.665 334.064 404.335 335.201 403.675C336.337 402.978 337.144 401.97 337.621 400.65V397.625H331.736C328.216 397.625 326.456 398.78 326.456 401.09C326.456 402.19 326.877 403.07 327.721 403.73C328.601 404.353 329.792 404.665 331.296 404.665Z" fill="#2F2E41"/>
<path d="M392.411 379.97C396.114 379.97 399.047 381.07 401.211 383.27C403.411 385.433 404.511 388.697 404.511 393.06V410H395.931V394.38C395.931 392.033 395.436 390.292 394.446 389.155C393.492 387.982 392.117 387.395 390.321 387.395C388.304 387.395 386.709 388.055 385.536 389.375C384.362 390.658 383.776 392.583 383.776 395.15V410H375.196V394.38C375.196 389.723 373.326 387.395 369.586 387.395C367.606 387.395 366.029 388.055 364.856 389.375C363.682 390.658 363.096 392.583 363.096 395.15V410H354.516V380.41H362.711V383.82C363.811 382.573 365.149 381.62 366.726 380.96C368.339 380.3 370.099 379.97 372.006 379.97C374.096 379.97 375.984 380.392 377.671 381.235C379.357 382.042 380.714 383.233 381.741 384.81C382.951 383.27 384.472 382.078 386.306 381.235C388.176 380.392 390.211 379.97 392.411 379.97Z" fill="#2F2E41"/>
<path d="M442.059 395.315C442.059 395.425 442.004 396.195 441.894 397.625H419.509C419.912 399.458 420.865 400.907 422.369 401.97C423.872 403.033 425.742 403.565 427.979 403.565C429.519 403.565 430.875 403.345 432.049 402.905C433.259 402.428 434.377 401.695 435.404 400.705L439.969 405.655C437.182 408.845 433.112 410.44 427.759 410.44C424.422 410.44 421.47 409.798 418.904 408.515C416.337 407.195 414.357 405.38 412.964 403.07C411.57 400.76 410.874 398.138 410.874 395.205C410.874 392.308 411.552 389.705 412.909 387.395C414.302 385.048 416.19 383.233 418.574 381.95C420.994 380.63 423.689 379.97 426.659 379.97C429.555 379.97 432.177 380.593 434.524 381.84C436.87 383.087 438.704 384.883 440.024 387.23C441.38 389.54 442.059 392.235 442.059 395.315ZM426.714 386.46C424.77 386.46 423.139 387.01 421.819 388.11C420.499 389.21 419.692 390.713 419.399 392.62H433.974C433.68 390.75 432.874 389.265 431.554 388.165C430.234 387.028 428.62 386.46 426.714 386.46Z" fill="#2F2E41"/>
<path d="M481.937 379.97C484.687 379.97 487.18 380.612 489.417 381.895C491.69 383.142 493.469 384.92 494.752 387.23C496.035 389.503 496.677 392.162 496.677 395.205C496.677 398.248 496.035 400.925 494.752 403.235C493.469 405.508 491.69 407.287 489.417 408.57C487.18 409.817 484.687 410.44 481.937 410.44C477.867 410.44 474.769 409.157 472.642 406.59V410H464.447V369.19H473.027V383.545C475.19 381.162 478.16 379.97 481.937 379.97ZM480.452 403.4C482.652 403.4 484.449 402.667 485.842 401.2C487.272 399.697 487.987 397.698 487.987 395.205C487.987 392.712 487.272 390.732 485.842 389.265C484.449 387.762 482.652 387.01 480.452 387.01C478.252 387.01 476.437 387.762 475.007 389.265C473.614 390.732 472.917 392.712 472.917 395.205C472.917 397.698 473.614 399.697 475.007 401.2C476.437 402.667 478.252 403.4 480.452 403.4Z" fill="#2F2E41"/>
<path d="M531.956 395.315C531.956 395.425 531.901 396.195 531.791 397.625H509.406C509.809 399.458 510.762 400.907 512.266 401.97C513.769 403.033 515.639 403.565 517.876 403.565C519.416 403.565 520.772 403.345 521.946 402.905C523.156 402.428 524.274 401.695 525.301 400.705L529.866 405.655C527.079 408.845 523.009 410.44 517.656 410.44C514.319 410.44 511.367 409.798 508.801 408.515C506.234 407.195 504.254 405.38 502.861 403.07C501.467 400.76 500.771 398.138 500.771 395.205C500.771 392.308 501.449 389.705 502.806 387.395C504.199 385.048 506.087 383.233 508.471 381.95C510.891 380.63 513.586 379.97 516.556 379.97C519.452 379.97 522.074 380.593 524.421 381.84C526.767 383.087 528.601 384.883 529.921 387.23C531.277 389.54 531.956 392.235 531.956 395.315ZM516.611 386.46C514.667 386.46 513.036 387.01 511.716 388.11C510.396 389.21 509.589 390.713 509.296 392.62H523.871C523.577 390.75 522.771 389.265 521.451 388.165C520.131 387.028 518.517 386.46 516.611 386.46Z" fill="#2F2E41"/>
<path d="M538.218 369.19H546.798V410H538.218V369.19Z" fill="#2F2E41"/>
<path d="M569.391 410.44C566.274 410.44 563.469 409.798 560.976 408.515C558.519 407.195 556.594 405.38 555.201 403.07C553.808 400.76 553.111 398.138 553.111 395.205C553.111 392.272 553.808 389.65 555.201 387.34C556.594 385.03 558.519 383.233 560.976 381.95C563.469 380.63 566.274 379.97 569.391 379.97C572.508 379.97 575.294 380.63 577.751 381.95C580.208 383.233 582.133 385.03 583.526 387.34C584.919 389.65 585.616 392.272 585.616 395.205C585.616 398.138 584.919 400.76 583.526 403.07C582.133 405.38 580.208 407.195 577.751 408.515C575.294 409.798 572.508 410.44 569.391 410.44ZM569.391 403.4C571.591 403.4 573.388 402.667 574.781 401.2C576.211 399.697 576.926 397.698 576.926 395.205C576.926 392.712 576.211 390.732 574.781 389.265C573.388 387.762 571.591 387.01 569.391 387.01C567.191 387.01 565.376 387.762 563.946 389.265C562.516 390.732 561.801 392.712 561.801 395.205C561.801 397.698 562.516 399.697 563.946 401.2C565.376 402.667 567.191 403.4 569.391 403.4Z" fill="#2F2E41"/>
<path d="M638.615 380.41L627.89 410H619.64L612.985 391.63L606.11 410H597.86L587.19 380.41H595.275L602.26 400.43L609.52 380.41H616.78L623.82 400.43L631.025 380.41H638.615Z" fill="#2F2E41"/>
<defs>
<linearGradient id="paint0_linear" x1="342.014" y1="446.338" x2="342.014" y2="3.92859" gradientUnits="userSpaceOnUse">
<stop stop-color="#808080" stop-opacity="0.25"/>
<stop offset="0.54" stop-color="#808080" stop-opacity="0.12"/>
<stop offset="1" stop-color="#808080" stop-opacity="0.1"/>
</linearGradient>
<linearGradient id="paint1_linear" x1="25820" y1="9646.01" x2="25820" y2="8915.37" gradientUnits="userSpaceOnUse">
<stop stop-color="#808080" stop-opacity="0.25"/>
<stop offset="0.54" stop-color="#808080" stop-opacity="0.12"/>
<stop offset="1" stop-color="#808080" stop-opacity="0.1"/>
</linearGradient>
<linearGradient id="paint2_linear" x1="25820" y1="9646.01" x2="25820" y2="8915.37" gradientUnits="userSpaceOnUse">
<stop stop-color="#808080" stop-opacity="0.25"/>
<stop offset="0.54" stop-color="#808080" stop-opacity="0.12"/>
<stop offset="1" stop-color="#808080" stop-opacity="0.1"/>
</linearGradient>
<linearGradient id="paint3_linear" x1="6369.1" y1="5159.9" x2="6369.1" y2="4953.51" gradientUnits="userSpaceOnUse">
<stop stop-color="#808080" stop-opacity="0.25"/>
<stop offset="0.54" stop-color="#808080" stop-opacity="0.12"/>
<stop offset="1" stop-color="#808080" stop-opacity="0.1"/>
</linearGradient>
<linearGradient id="paint4_linear" x1="32766" y1="31761.7" x2="32766" y2="23418.1" gradientUnits="userSpaceOnUse">
<stop stop-color="#808080" stop-opacity="0.25"/>
<stop offset="0.54" stop-color="#808080" stop-opacity="0.12"/>
<stop offset="1" stop-color="#808080" stop-opacity="0.1"/>
</linearGradient>
<linearGradient id="paint5_linear" x1="32766" y1="31761.7" x2="32766" y2="23418.1" gradientUnits="userSpaceOnUse">
<stop stop-color="#808080" stop-opacity="0.25"/>
<stop offset="0.54" stop-color="#808080" stop-opacity="0.12"/>
<stop offset="1" stop-color="#808080" stop-opacity="0.1"/>
</linearGradient>
<linearGradient id="paint6_linear" x1="18909.9" y1="25641.5" x2="18909.9" y2="24218.4" gradientUnits="userSpaceOnUse">
<stop stop-color="#808080" stop-opacity="0.25"/>
<stop offset="0.54" stop-color="#808080" stop-opacity="0.12"/>
<stop offset="1" stop-color="#808080" stop-opacity="0.1"/>
</linearGradient>
<linearGradient id="paint7_linear" x1="18909.9" y1="25641.5" x2="18909.9" y2="24218.4" gradientUnits="userSpaceOnUse">
<stop stop-color="#808080" stop-opacity="0.25"/>
<stop offset="0.54" stop-color="#808080" stop-opacity="0.12"/>
<stop offset="1" stop-color="#808080" stop-opacity="0.1"/>
</linearGradient>
<linearGradient id="paint8_linear" x1="31328" y1="23670.9" x2="31328" y2="22475.7" gradientUnits="userSpaceOnUse">
<stop stop-color="#808080" stop-opacity="0.25"/>
<stop offset="0.54" stop-color="#808080" stop-opacity="0.12"/>
<stop offset="1" stop-color="#808080" stop-opacity="0.1"/>
</linearGradient>
<linearGradient id="paint9_linear" x1="23873.9" y1="166947" x2="23873.9" y2="101527" gradientUnits="userSpaceOnUse">
<stop stop-color="#808080" stop-opacity="0.25"/>
<stop offset="0.54" stop-color="#808080" stop-opacity="0.12"/>
<stop offset="1" stop-color="#808080" stop-opacity="0.1"/>
</linearGradient>
<linearGradient id="paint10_linear" x1="23873.9" y1="166947" x2="23873.9" y2="101527" gradientUnits="userSpaceOnUse">
<stop stop-color="#808080" stop-opacity="0.25"/>
<stop offset="0.54" stop-color="#808080" stop-opacity="0.12"/>
<stop offset="1" stop-color="#808080" stop-opacity="0.1"/>
</linearGradient>
<linearGradient id="paint11_linear" x1="27380" y1="160602" x2="27380" y2="100937" gradientUnits="userSpaceOnUse">
<stop stop-color="#808080" stop-opacity="0.25"/>
<stop offset="0.54" stop-color="#808080" stop-opacity="0.12"/>
<stop offset="1" stop-color="#808080" stop-opacity="0.1"/>
</linearGradient>
<linearGradient id="paint12_linear" x1="23682.8" y1="13297.5" x2="23682.8" y2="10239.4" gradientUnits="userSpaceOnUse">
<stop stop-color="#808080" stop-opacity="0.25"/>
<stop offset="0.54" stop-color="#808080" stop-opacity="0.12"/>
<stop offset="1" stop-color="#808080" stop-opacity="0.1"/>
</linearGradient>
<linearGradient id="paint13_linear" x1="30762.7" y1="16367" x2="30762.7" y2="14988.5" gradientUnits="userSpaceOnUse">
<stop stop-color="#808080" stop-opacity="0.25"/>
<stop offset="0.54" stop-color="#808080" stop-opacity="0.12"/>
<stop offset="1" stop-color="#808080" stop-opacity="0.1"/>
</linearGradient>
<linearGradient id="paint14_linear" x1="38396.8" y1="92447.6" x2="38396.8" y2="46662.3" gradientUnits="userSpaceOnUse">
<stop stop-color="#808080" stop-opacity="0.25"/>
<stop offset="0.54" stop-color="#808080" stop-opacity="0.12"/>
<stop offset="1" stop-color="#808080" stop-opacity="0.1"/>
</linearGradient>
<linearGradient id="paint15_linear" x1="17128.6" y1="36063.7" x2="17128.6" y2="26215.7" gradientUnits="userSpaceOnUse">
<stop stop-color="#808080" stop-opacity="0.25"/>
<stop offset="0.54" stop-color="#808080" stop-opacity="0.12"/>
<stop offset="1" stop-color="#808080" stop-opacity="0.1"/>
</linearGradient>
<linearGradient id="paint16_linear" x1="13216.5" y1="7628.39" x2="13216.5" y2="6467" gradientUnits="userSpaceOnUse">
<stop stop-color="#808080" stop-opacity="0.25"/>
<stop offset="0.54" stop-color="#808080" stop-opacity="0.12"/>
<stop offset="1" stop-color="#808080" stop-opacity="0.1"/>
</linearGradient>
<linearGradient id="paint17_linear" x1="21990.4" y1="13370.2" x2="21990.4" y2="8627.69" gradientUnits="userSpaceOnUse">
<stop stop-color="#808080" stop-opacity="0.25"/>
<stop offset="0.54" stop-color="#808080" stop-opacity="0.12"/>
<stop offset="1" stop-color="#808080" stop-opacity="0.1"/>
</linearGradient>
<linearGradient id="paint18_linear" x1="29993.6" y1="16250.4" x2="29993.6" y2="10269.5" gradientUnits="userSpaceOnUse">
<stop stop-color="#808080" stop-opacity="0.25"/>
<stop offset="0.54" stop-color="#808080" stop-opacity="0.12"/>
<stop offset="1" stop-color="#808080" stop-opacity="0.1"/>
</linearGradient>
<linearGradient id="paint19_linear" x1="29946.1" y1="16209.9" x2="29946.1" y2="10229.1" gradientUnits="userSpaceOnUse">
<stop stop-color="#808080" stop-opacity="0.25"/>
<stop offset="0.54" stop-color="#808080" stop-opacity="0.12"/>
<stop offset="1" stop-color="#808080" stop-opacity="0.1"/>
</linearGradient>
<linearGradient id="paint20_linear" x1="32340.1" y1="89179.4" x2="32340.1" y2="46577.3" gradientUnits="userSpaceOnUse">
<stop stop-color="#808080" stop-opacity="0.25"/>
<stop offset="0.54" stop-color="#808080" stop-opacity="0.12"/>
<stop offset="1" stop-color="#808080" stop-opacity="0.1"/>
</linearGradient>
<linearGradient id="paint21_linear" x1="26981.9" y1="10250.3" x2="26981.9" y2="9546.85" gradientUnits="userSpaceOnUse">
<stop stop-color="#808080" stop-opacity="0.25"/>
<stop offset="0.54" stop-color="#808080" stop-opacity="0.12"/>
<stop offset="1" stop-color="#808080" stop-opacity="0.1"/>
</linearGradient>
<linearGradient id="paint22_linear" x1="7402.04" y1="5138.61" x2="7402.04" y2="4958.23" gradientUnits="userSpaceOnUse">
<stop stop-color="#808080" stop-opacity="0.25"/>
<stop offset="0.54" stop-color="#808080" stop-opacity="0.12"/>
<stop offset="1" stop-color="#808080" stop-opacity="0.1"/>
</linearGradient>
<linearGradient id="paint23_linear" x1="28141" y1="38493.8" x2="28141" y2="27510.3" gradientUnits="userSpaceOnUse">
<stop stop-color="#808080" stop-opacity="0.25"/>
<stop offset="0.54" stop-color="#808080" stop-opacity="0.12"/>
<stop offset="1" stop-color="#808080" stop-opacity="0.1"/>
</linearGradient>
<linearGradient id="paint24_linear" x1="18758.7" y1="4173.91" x2="18758.7" y2="4053.79" gradientUnits="userSpaceOnUse">
<stop stop-color="#808080" stop-opacity="0.25"/>
<stop offset="0.54" stop-color="#808080" stop-opacity="0.12"/>
<stop offset="1" stop-color="#808080" stop-opacity="0.1"/>
</linearGradient>
</defs>
</svg>
