<svg width="744" height="500" viewBox="0 0 744 500" fill="none" xmlns="http://www.w3.org/2000/svg">
<path opacity="0.1" d="M379.925 492.638C429.112 465.13 486.618 456.428 541.742 468.152C620.297 484.853 719.027 478.307 738.152 349.462C770.812 129.414 633.946 71.3348 633.946 71.3348C633.946 71.3348 542.929 63.7129 489.11 34.6919C412.663 -6.54111 325.28 -11.7921 248.446 23.0978C199.31 45.3908 158.851 76.4342 151.933 119.056C132.603 238.249 164.348 303.935 104.962 342.841C45.5751 381.747 96.328 488.586 141.856 484.881C187.384 481.175 290.262 440.609 330.351 487.601C344.591 504.275 362.606 502.226 379.925 492.638Z" fill="#6C63FF"/>
<path d="M667.417 435.853L682.269 414.331L667.42 438.188V440.63C666.355 440.626 665.3 440.596 664.256 440.539L665.356 409.164L665.339 408.922L665.366 408.875L665.471 405.911L649.768 382.52L665.475 403.691L665.524 404.318L666.355 380.609L652.842 356.392L666.446 376.443L666.89 327.316V327.153V327.314L667.342 366.041L680.109 350.466L667.343 369.381L667.364 390.594L679.186 370.033L667.369 393.712L667.381 405.502L684.559 376.87L667.388 409.624L667.417 435.853Z" fill="#D0CDE1"/>
<path d="M221.456 429.575L264.243 368.334L221.423 436.245L221.385 443.221C218.342 443.19 215.33 443.086 212.348 442.908L216.015 353.289L215.971 352.596L216.05 352.466L216.398 343.998L171.935 276.912L216.458 337.656L216.587 339.449L219.356 271.737L181.156 202.324L219.68 259.839L221.771 119.494L221.78 119.026V119.486L222.428 230.138L259.161 185.851L222.376 239.668L222.079 300.272L256.198 241.728L222.044 309.18L221.88 342.879L271.433 261.373L221.813 354.644L221.456 429.575Z" fill="#575A89"/>
<path d="M399.517 449.48C557.513 449.48 685.594 445.054 685.594 439.595C685.594 434.135 557.513 429.71 399.517 429.71C241.52 429.71 113.439 434.135 113.439 439.595C113.439 445.054 241.52 449.48 399.517 449.48Z" fill="#D0CDE1"/>
<path d="M557.142 417.843C557.169 414.307 556.438 410.805 554.997 407.575C551.976 409.744 549.485 412.57 547.714 415.84C545.942 412.57 543.452 409.744 540.43 407.575C538.99 410.805 538.258 414.307 538.286 417.843C535.236 416.139 531.86 415.1 528.38 414.792C528.38 414.792 529.028 422.78 534.369 427.976C539.115 432.596 545.967 433.454 547.429 433.587L547.47 433.615L547.482 433.591C547.629 433.604 547.711 433.608 547.711 433.608C547.711 433.608 547.698 433.456 547.663 433.184L547.711 433.073L547.759 433.184C547.724 433.456 547.711 433.608 547.711 433.608C547.711 433.608 547.791 433.608 547.94 433.591L547.952 433.615L547.992 433.587C549.454 433.458 556.306 432.596 561.052 427.976C566.389 422.78 567.041 414.792 567.041 414.792C563.563 415.101 560.19 416.14 557.142 417.843V417.843Z" fill="#6C63FF"/>
<path d="M563.464 40.6542H563.495L558.991 14.3164L534.079 22.2311L537.807 45.7886C536.523 44.9767 534.992 44.6478 533.489 44.8604C531.985 45.0731 530.605 45.8136 529.597 46.9495C528.589 48.0854 528.018 49.5429 527.985 51.0613C527.952 52.5798 528.461 54.0604 529.419 55.2386C530.378 56.4168 531.724 57.2158 533.217 57.4929C534.71 57.7699 536.254 57.507 537.571 56.751C538.888 55.9951 539.894 54.7954 540.408 53.3663C540.923 51.9372 540.912 50.3718 540.378 48.9498H540.402L536.401 23.6692L557.35 17.0138L560.912 37.8337C559.598 37.0564 558.048 36.7756 556.545 37.0423C555.041 37.3089 553.683 38.1054 552.716 39.2873C551.75 40.4693 551.238 41.9584 551.275 43.4849C551.312 45.0114 551.894 46.4743 552.917 47.6083C553.939 48.7424 555.334 49.4726 556.849 49.6667C558.363 49.8608 559.897 49.5059 561.172 48.6662C562.448 47.8266 563.38 46.5579 563.801 45.0899C564.221 43.622 564.102 42.052 563.464 40.6645V40.6542Z" fill="#6C63FF"/>
<path d="M682.726 50.7325H682.757L678.252 24.3947L653.341 32.3094L657.068 55.8668C655.785 55.055 654.254 54.7261 652.75 54.9387C651.246 55.1514 649.867 55.8919 648.859 57.0278C647.851 58.1637 647.279 59.6211 647.247 61.1396C647.214 62.6581 647.722 64.1387 648.681 65.3169C649.639 66.4951 650.986 67.2941 652.479 67.5711C653.972 67.8482 655.515 67.5853 656.833 66.8293C658.15 66.0734 659.156 64.8737 659.67 63.4446C660.184 62.0155 660.174 60.4501 659.64 59.0281H659.663L655.663 33.7474L676.612 27.0921L680.174 47.912C678.859 47.1347 677.31 46.8539 675.807 47.1206C674.303 47.3872 672.945 48.1837 671.978 49.3656C671.011 50.5475 670.5 52.0367 670.537 53.5632C670.573 55.0897 671.156 56.5525 672.178 57.6866C673.201 58.8207 674.596 59.5509 676.11 59.745C677.625 59.9391 679.159 59.5841 680.434 58.7445C681.71 57.9049 682.642 56.6362 683.062 55.1682C683.483 53.7003 683.363 52.1303 682.726 50.7428V50.7325Z" fill="#6C63FF"/>
<path d="M597.483 69.6311H597.501L594.292 49.3475L592.708 49.5989L595.491 67.1837C594.495 66.5542 593.309 66.2991 592.143 66.4639C590.977 66.6288 589.907 67.2028 589.126 68.0835C588.344 68.9642 587.901 70.0942 587.875 71.2716C587.85 72.4489 588.244 73.5969 588.987 74.5104C589.73 75.424 590.774 76.0436 591.932 76.2584C593.09 76.4733 594.286 76.2696 595.308 75.6835C596.329 75.0975 597.109 74.1673 597.508 73.0593C597.906 71.9513 597.898 70.7375 597.485 69.635L597.483 69.6311Z" fill="#6C63FF"/>
<path d="M624.714 44.4476C624.716 43.3482 624.352 42.2793 623.68 41.4093C623.008 40.5393 622.065 39.9176 621.001 39.6421C619.937 39.3667 618.811 39.453 617.801 39.8877C616.791 40.3223 615.955 41.0805 615.423 42.0429C614.891 43.0052 614.695 44.1171 614.865 45.2033C615.034 46.2896 615.561 47.2885 616.361 48.0428C617.16 48.7971 618.189 49.2639 619.283 49.3697C620.377 49.4755 621.476 49.2143 622.405 48.6272L619.62 66.2056L621.204 66.4569L624.413 46.1733H624.395C624.604 45.6218 624.712 45.0373 624.714 44.4476Z" fill="#6C63FF"/>
<path d="M418.49 362.031L427.881 376.118L441.968 365.163L432.577 353.423L418.49 362.031Z" fill="#FFB8B8"/>
<path d="M429.694 368.56C429.694 368.56 416.245 369.185 420.036 376.294C423.827 383.403 426.784 423.521 437.605 421.196C448.426 418.872 458.236 406.576 458.117 398.112C457.998 389.648 456.642 385.976 456.642 385.976C456.642 385.976 453.74 380.374 455.672 378.827C457.604 377.28 458.333 367.501 453.729 364.528C449.124 361.554 435.83 357.618 435.83 357.618C435.83 357.618 434.488 369.793 429.694 368.56Z" fill="#2F2E41"/>
<path d="M436.488 394.907L433.358 412.124L449.793 413.689V400.378L436.488 394.907Z" fill="#FFB8B8"/>
<path d="M402.838 161.688C402.838 161.688 394.229 190.644 391.882 207.861C391.882 207.861 344.926 271.251 353.533 298.643C362.139 326.034 387.184 380.815 387.184 380.815C387.184 380.815 429.444 363.598 438.052 354.206L406.748 309.598C406.748 309.598 411.444 304.12 404.401 300.989C397.358 297.857 403.623 293.946 403.623 293.946C403.623 293.946 416.928 249.338 430.232 244.643L476.405 235.251C476.405 235.251 473.275 168.731 462.318 156.998C462.314 156.992 407.534 157.774 402.838 161.688Z" fill="#2F2E41"/>
<path d="M440.402 405.074C440.402 405.074 432.577 394.118 428.663 401.162C424.749 408.206 392.664 432.465 400.489 440.288C408.315 448.111 423.967 449.68 431.011 444.983C438.055 440.287 440.402 437.158 440.402 437.158C440.402 437.158 443.532 431.68 445.88 432.463C448.228 433.245 456.837 428.55 456.837 423.071C456.837 417.592 452.924 404.285 452.924 404.285C452.924 404.285 441.967 409.769 440.402 405.074Z" fill="#2F2E41"/>
<path d="M428.663 239.163L439.62 333.856C439.62 333.856 433.36 360.465 431.793 380.812C430.227 401.159 431.793 400.375 431.793 400.375C431.793 400.375 467.01 414.462 473.271 405.07C479.533 395.679 476.401 235.247 476.401 235.247L457.615 218.03L428.663 239.163Z" fill="#2F2E41"/>
<path d="M409.557 27.7645C417.682 8.58994 438.363 4.97397 438.363 4.97397C438.363 4.97397 458.276 -0.337892 474.906 24.9609C490.406 48.5404 510.396 70.6364 485.045 80.0488L478.35 65.9853L477.547 82.1697C473.86 82.9373 470.135 83.5026 466.386 83.863C438.272 86.7133 411.764 91.4693 411.273 81.3068C410.62 67.8017 401.741 46.2096 409.557 27.7645Z" fill="#2F2E41"/>
<path d="M442.75 65.4269C455.284 65.4269 465.445 55.2662 465.445 42.7323C465.445 30.1984 455.284 20.0377 442.75 20.0377C430.216 20.0377 420.055 30.1984 420.055 42.7323C420.055 55.2662 430.216 65.4269 442.75 65.4269Z" fill="#FFB8B8"/>
<path d="M436.098 57.2117C436.098 57.2117 435.71 80.2976 433.36 85.7766C431.009 91.2556 475.229 81.4726 475.229 81.4726C475.229 81.4726 459.577 70.516 457.229 55.6466L436.098 57.2117Z" fill="#FFB8B8"/>
<path d="M439.62 76.3901L435.344 73.247L405.185 74.825L398.924 143.693C398.924 143.693 380.925 164.822 402.837 164.822C424.749 164.822 445.097 154.648 460.749 161.692C476.401 168.736 489.706 87.3455 489.706 87.3455L466.309 73.2457C466.309 73.2457 456.054 85.7753 439.62 76.3901Z" fill="#575A89"/>
<path d="M413.794 131.948L457.619 141.34V151.514L413.794 153.079C413.794 153.079 409.098 135.077 413.794 131.948Z" fill="#FFB8B8"/>
<path d="M413.794 78.7325L405.185 74.8199C405.185 74.8199 395.01 77.1675 394.228 85.7766C393.445 94.3857 378.576 149.949 390.315 152.297C402.054 154.644 417.706 154.644 417.706 154.644C417.706 154.644 407.532 140.557 420.054 132.732L410.662 128.037C410.662 128.037 401.271 106.907 407.532 95.9507C413.794 84.994 413.794 78.7325 413.794 78.7325Z" fill="#575A89"/>
<path d="M414.153 20.8007L434.882 9.94381L463.505 14.385L469.426 40.5402L454.685 39.9727L450.566 30.3634V39.8133L443.764 39.5542L439.816 24.2561L437.354 40.5415L413.173 40.0478L414.153 20.8007Z" fill="#2F2E41"/>
<path d="M465.577 47.8252C467.882 47.8252 469.751 44.5549 469.751 40.5207C469.751 36.4866 467.882 33.2163 465.577 33.2163C463.271 33.2163 461.402 36.4866 461.402 40.5207C461.402 44.5549 463.271 47.8252 465.577 47.8252Z" fill="#FFB8B8"/>
<path d="M465.977 45.6914C467.55 45.6914 468.826 44.4159 468.826 42.8424C468.826 41.269 467.55 39.9934 465.977 39.9934C464.404 39.9934 463.128 41.269 463.128 42.8424C463.128 44.4159 464.404 45.6914 465.977 45.6914Z" fill="white"/>
<path d="M467.199 43.8024C467.454 43.8024 467.661 43.1806 467.661 42.4136C467.661 41.6465 467.454 41.0247 467.199 41.0247C466.943 41.0247 466.736 41.6465 466.736 42.4136C466.736 43.1806 466.943 43.8024 467.199 43.8024Z" fill="#2F2E41"/>
<path d="M467.131 51.1108C466.938 51.1108 466.753 51.0341 466.616 50.8975C466.48 50.761 466.403 50.5758 466.403 50.3827L465.675 44.5526H467.862V50.3827C467.862 50.4785 467.843 50.5733 467.806 50.6617C467.769 50.7502 467.715 50.8305 467.647 50.8981C467.58 50.9657 467.499 51.0193 467.411 51.0558C467.322 51.0923 467.227 51.111 467.131 51.1108V51.1108Z" fill="white"/>
<path opacity="0.1" d="M410.291 99.9657L402.906 131.989H420.149L406.601 128.909L410.291 99.9657Z" fill="black"/>
<path d="M499.317 152.865L499.154 152.718L503.199 148.23C503.819 147.54 504.14 146.633 504.092 145.707C504.043 144.781 503.629 143.912 502.94 143.291L493.432 134.721C492.742 134.101 491.835 133.779 490.909 133.828C489.983 133.877 489.114 134.291 488.493 134.98L466.302 159.601C465.682 160.291 465.361 161.198 465.409 162.124C465.458 163.05 465.872 163.919 466.561 164.54L476.071 173.11C476.76 173.73 477.668 174.052 478.594 174.003C479.52 173.954 480.389 173.54 481.01 172.851L496.277 155.911L496.44 156.059L499.317 152.865Z" fill="#3F3D56"/>
<path d="M491.856 148.448C493.101 148.448 494.109 147.439 494.109 146.195C494.109 144.95 493.101 143.942 491.856 143.942C490.612 143.942 489.603 144.95 489.603 146.195C489.603 147.439 490.612 148.448 491.856 148.448Z" fill="#6C63FF"/>
<path d="M476.23 144.837C476.23 144.837 502.908 151.294 496.761 160.5C490.615 169.707 466.348 152.88 466.348 152.88L476.23 144.837Z" fill="#FFB8B8"/>
<path d="M482.663 87.3403H489.707C489.707 87.3403 497.533 95.9494 495.967 103.775C494.401 111.6 489.707 148.383 489.707 148.383C489.707 148.383 466.23 170.295 454.49 158.557C442.751 146.819 451.36 135.862 451.36 135.862C451.36 135.862 467.012 148.384 475.621 131.95L482.663 87.3403Z" fill="#575A89"/>
<path d="M475.663 140.696L481.052 87.4479C481.052 87.4479 492.359 53.8276 481.322 53.0036C470.285 52.1797 469.51 84.8619 469.51 84.8619L450.289 143.13C450.289 143.13 460.838 153.463 475.663 140.696Z" fill="#FFB8B8"/>
<path d="M26.09 22.5C30.12 22.5 33.6083 23.1717 36.555 24.515C39.545 25.8583 41.8417 27.765 43.445 30.235C45.0483 32.705 45.85 35.63 45.85 39.01C45.85 42.3467 45.0483 45.2717 43.445 47.785C41.8417 50.255 39.545 52.1617 36.555 53.505C33.6083 54.805 30.12 55.455 26.09 55.455H16.925V68H6.39501V22.5H26.09ZM25.505 46.875C28.6683 46.875 31.0733 46.2033 32.72 44.86C34.3667 43.4733 35.19 41.5233 35.19 39.01C35.19 36.4533 34.3667 34.5033 32.72 33.16C31.0733 31.7733 28.6683 31.08 25.505 31.08H16.925V46.875H25.505Z" fill="#2F2E44"/>
<path d="M53.2874 19.77H63.4274V68H53.2874V19.77Z" fill="#2F2E44"/>
<path d="M86.9432 32.51C92.3599 32.51 96.5199 33.81 99.4232 36.41C102.327 38.9667 103.778 42.845 103.778 48.045V68H94.2882V63.645C92.3815 66.895 88.8282 68.52 83.6282 68.52C80.9415 68.52 78.6015 68.065 76.6082 67.155C74.6582 66.245 73.1632 64.9883 72.1232 63.385C71.0832 61.7817 70.5632 59.9617 70.5632 57.925C70.5632 54.675 71.7765 52.1183 74.2032 50.255C76.6732 48.3917 80.4649 47.46 85.5782 47.46H93.6382C93.6382 45.25 92.9665 43.56 91.6232 42.39C90.2799 41.1767 88.2649 40.57 85.5782 40.57C83.7149 40.57 81.8732 40.8733 80.0532 41.48C78.2765 42.0433 76.7599 42.8233 75.5032 43.82L71.8632 36.735C73.7699 35.3917 76.0449 34.3517 78.6882 33.615C81.3749 32.8783 84.1265 32.51 86.9432 32.51ZM86.1632 61.695C87.8965 61.695 89.4349 61.305 90.7782 60.525C92.1215 59.7017 93.0749 58.51 93.6382 56.95V53.375H86.6832C82.5232 53.375 80.4432 54.74 80.4432 57.47C80.4432 58.77 80.9415 59.81 81.9382 60.59C82.9782 61.3267 84.3865 61.695 86.1632 61.695Z" fill="#2F2E44"/>
<path d="M130.236 68.52C126.51 68.52 123.151 67.7617 120.161 66.245C117.215 64.685 114.896 62.54 113.206 59.81C111.56 57.08 110.736 53.9817 110.736 50.515C110.736 47.0483 111.56 43.95 113.206 41.22C114.896 38.49 117.215 36.3667 120.161 34.85C123.151 33.29 126.51 32.51 130.236 32.51C133.92 32.51 137.126 33.29 139.856 34.85C142.63 36.3667 144.645 38.555 145.901 41.415L138.036 45.64C136.216 42.4333 133.595 40.83 130.171 40.83C127.528 40.83 125.34 41.6967 123.606 43.43C121.873 45.1633 121.006 47.525 121.006 50.515C121.006 53.505 121.873 55.8667 123.606 57.6C125.34 59.3333 127.528 60.2 130.171 60.2C133.638 60.2 136.26 58.5967 138.036 55.39L145.901 59.68C144.645 62.4533 142.63 64.62 139.856 66.18C137.126 67.74 133.92 68.52 130.236 68.52Z" fill="#2F2E44"/>
<path d="M185.55 50.645C185.55 50.775 185.485 51.685 185.355 53.375H158.9C159.377 55.5417 160.504 57.2533 162.28 58.51C164.057 59.7667 166.267 60.395 168.91 60.395C170.73 60.395 172.334 60.135 173.72 59.615C175.15 59.0517 176.472 58.185 177.685 57.015L183.08 62.865C179.787 66.635 174.977 68.52 168.65 68.52C164.707 68.52 161.219 67.7617 158.185 66.245C155.152 64.685 152.812 62.54 151.165 59.81C149.519 57.08 148.695 53.9817 148.695 50.515C148.695 47.0917 149.497 44.015 151.1 41.285C152.747 38.5117 154.979 36.3667 157.795 34.85C160.655 33.29 163.84 32.51 167.35 32.51C170.774 32.51 173.872 33.2467 176.645 34.72C179.419 36.1933 181.585 38.3167 183.145 41.09C184.749 43.82 185.55 47.005 185.55 50.645ZM167.415 40.18C165.119 40.18 163.19 40.83 161.63 42.13C160.07 43.43 159.117 45.2067 158.77 47.46H175.995C175.649 45.25 174.695 43.495 173.135 42.195C171.575 40.8517 169.669 40.18 167.415 40.18Z" fill="#2F2E44"/>
<path d="M221.824 33.81H230.794V41.61H222.084V68H211.944V41.61H206.549V33.81H211.944V32.25C211.944 28.2633 213.114 25.1 215.454 22.76C217.838 20.42 221.174 19.25 225.464 19.25C226.981 19.25 228.411 19.4233 229.754 19.77C231.141 20.0733 232.289 20.5283 233.199 21.135L230.534 28.48C229.364 27.6567 227.999 27.245 226.439 27.245C223.363 27.245 221.824 28.935 221.824 32.315V33.81Z" fill="#2F2E44"/>
<path d="M252.042 68.52C248.358 68.52 245.043 67.7617 242.097 66.245C239.193 64.685 236.918 62.54 235.272 59.81C233.625 57.08 232.802 53.9817 232.802 50.515C232.802 47.0483 233.625 43.95 235.272 41.22C236.918 38.49 239.193 36.3667 242.097 34.85C245.043 33.29 248.358 32.51 252.042 32.51C255.725 32.51 259.018 33.29 261.922 34.85C264.825 36.3667 267.1 38.49 268.747 41.22C270.393 43.95 271.217 47.0483 271.217 50.515C271.217 53.9817 270.393 57.08 268.747 59.81C267.1 62.54 264.825 64.685 261.922 66.245C259.018 67.7617 255.725 68.52 252.042 68.52ZM252.042 60.2C254.642 60.2 256.765 59.3333 258.412 57.6C260.102 55.8233 260.947 53.4617 260.947 50.515C260.947 47.5683 260.102 45.2283 258.412 43.495C256.765 41.7183 254.642 40.83 252.042 40.83C249.442 40.83 247.297 41.7183 245.607 43.495C243.917 45.2283 243.072 47.5683 243.072 50.515C243.072 53.4617 243.917 55.8233 245.607 57.6C247.297 59.3333 249.442 60.2 252.042 60.2Z" fill="#2F2E44"/>
<path d="M287.679 37.645C288.893 35.955 290.518 34.6767 292.554 33.81C294.634 32.9433 297.018 32.51 299.704 32.51V41.87C298.578 41.7833 297.819 41.74 297.429 41.74C294.526 41.74 292.251 42.5633 290.604 44.21C288.958 45.8133 288.134 48.24 288.134 51.49V68H277.994V33.03H287.679V37.645Z" fill="#2F2E44"/>
<path d="M40.39 112.03L24.595 149.145C22.9917 153.175 20.9983 156.013 18.615 157.66C16.275 159.307 13.4367 160.13 10.1 160.13C8.28001 160.13 6.48167 159.848 4.70501 159.285C2.92834 158.722 1.47667 157.942 0.350006 156.945L4.05501 149.73C4.83501 150.423 5.72334 150.965 6.72001 151.355C7.76001 151.745 8.77834 151.94 9.77501 151.94C11.1617 151.94 12.2883 151.593 13.155 150.9C14.0217 150.25 14.8017 149.145 15.495 147.585L15.625 147.26L0.480006 112.03H10.945L20.76 135.755L30.64 112.03H40.39Z" fill="#2F2E44"/>
<path d="M60.2155 147.52C56.5322 147.52 53.2172 146.762 50.2705 145.245C47.3672 143.685 45.0922 141.54 43.4455 138.81C41.7988 136.08 40.9755 132.982 40.9755 129.515C40.9755 126.048 41.7988 122.95 43.4455 120.22C45.0922 117.49 47.3672 115.367 50.2705 113.85C53.2172 112.29 56.5322 111.51 60.2155 111.51C63.8988 111.51 67.1922 112.29 70.0955 113.85C72.9988 115.367 75.2739 117.49 76.9205 120.22C78.5672 122.95 79.3905 126.048 79.3905 129.515C79.3905 132.982 78.5672 136.08 76.9205 138.81C75.2739 141.54 72.9988 143.685 70.0955 145.245C67.1922 146.762 63.8988 147.52 60.2155 147.52ZM60.2155 139.2C62.8155 139.2 64.9389 138.333 66.5855 136.6C68.2755 134.823 69.1205 132.462 69.1205 129.515C69.1205 126.568 68.2755 124.228 66.5855 122.495C64.9389 120.718 62.8155 119.83 60.2155 119.83C57.6155 119.83 55.4705 120.718 53.7805 122.495C52.0905 124.228 51.2455 126.568 51.2455 129.515C51.2455 132.462 52.0905 134.823 53.7805 136.6C55.4705 138.333 57.6155 139.2 60.2155 139.2Z" fill="#2F2E44"/>
<path d="M121.398 112.03V147H111.778V142.84C110.435 144.357 108.832 145.527 106.968 146.35C105.105 147.13 103.09 147.52 100.923 147.52C96.33 147.52 92.69 146.198 90.0033 143.555C87.3166 140.912 85.9733 136.99 85.9733 131.79V112.03H96.1133V130.295C96.1133 135.928 98.475 138.745 103.198 138.745C105.625 138.745 107.575 137.965 109.048 136.405C110.522 134.802 111.258 132.44 111.258 129.32V112.03H121.398Z" fill="#2F2E44"/>
<path d="M140.477 116.645C141.691 114.955 143.316 113.677 145.352 112.81C147.432 111.943 149.816 111.51 152.502 111.51V120.87C151.376 120.783 150.617 120.74 150.227 120.74C147.324 120.74 145.049 121.563 143.402 123.21C141.756 124.813 140.932 127.24 140.932 130.49V147H130.792V112.03H140.477V116.645Z" fill="#2F2E44"/>
<path d="M191.299 111.51C196.715 111.51 200.875 112.81 203.779 115.41C206.682 117.967 208.134 121.845 208.134 127.045V147H198.644V142.645C196.737 145.895 193.184 147.52 187.984 147.52C185.297 147.52 182.957 147.065 180.964 146.155C179.014 145.245 177.519 143.988 176.479 142.385C175.439 140.782 174.919 138.962 174.919 136.925C174.919 133.675 176.132 131.118 178.559 129.255C181.029 127.392 184.82 126.46 189.934 126.46H197.994C197.994 124.25 197.322 122.56 195.979 121.39C194.635 120.177 192.62 119.57 189.934 119.57C188.07 119.57 186.229 119.873 184.409 120.48C182.632 121.043 181.115 121.823 179.859 122.82L176.219 115.735C178.125 114.392 180.4 113.352 183.044 112.615C185.73 111.878 188.482 111.51 191.299 111.51ZM190.519 140.695C192.252 140.695 193.79 140.305 195.134 139.525C196.477 138.702 197.43 137.51 197.994 135.95V132.375H191.039C186.879 132.375 184.799 133.74 184.799 136.47C184.799 137.77 185.297 138.81 186.294 139.59C187.334 140.327 188.742 140.695 190.519 140.695Z" fill="#2F2E44"/>
<path d="M252.541 112.03V147H242.921V142.84C241.578 144.357 239.974 145.527 238.111 146.35C236.248 147.13 234.233 147.52 232.066 147.52C227.473 147.52 223.833 146.198 221.146 143.555C218.459 140.912 217.116 136.99 217.116 131.79V112.03H227.256V130.295C227.256 135.928 229.618 138.745 234.341 138.745C236.768 138.745 238.718 137.965 240.191 136.405C241.664 134.802 242.401 132.44 242.401 129.32V112.03H252.541Z" fill="#2F2E44"/>
<path d="M297.555 98.77V147H287.87V142.97C285.357 146.003 281.717 147.52 276.95 147.52C273.657 147.52 270.667 146.783 267.98 145.31C265.337 143.837 263.257 141.735 261.74 139.005C260.223 136.275 259.465 133.112 259.465 129.515C259.465 125.918 260.223 122.755 261.74 120.025C263.257 117.295 265.337 115.193 267.98 113.72C270.667 112.247 273.657 111.51 276.95 111.51C281.413 111.51 284.902 112.918 287.415 115.735V98.77H297.555ZM278.705 139.2C281.262 139.2 283.385 138.333 285.075 136.6C286.765 134.823 287.61 132.462 287.61 129.515C287.61 126.568 286.765 124.228 285.075 122.495C283.385 120.718 281.262 119.83 278.705 119.83C276.105 119.83 273.96 120.718 272.27 122.495C270.58 124.228 269.735 126.568 269.735 129.515C269.735 132.462 270.58 134.823 272.27 136.6C273.96 138.333 276.105 139.2 278.705 139.2Z" fill="#2F2E44"/>
<path d="M306.94 112.03H317.08V147H306.94V112.03ZM312.01 107.155C310.146 107.155 308.63 106.613 307.46 105.53C306.29 104.447 305.705 103.103 305.705 101.5C305.705 99.8967 306.29 98.5533 307.46 97.47C308.63 96.3867 310.146 95.845 312.01 95.845C313.873 95.845 315.39 96.365 316.56 97.405C317.73 98.445 318.315 99.745 318.315 101.305C318.315 102.995 317.73 104.403 316.56 105.53C315.39 106.613 313.873 107.155 312.01 107.155Z" fill="#2F2E44"/>
<path d="M343.131 147.52C339.447 147.52 336.132 146.762 333.186 145.245C330.282 143.685 328.007 141.54 326.361 138.81C324.714 136.08 323.891 132.982 323.891 129.515C323.891 126.048 324.714 122.95 326.361 120.22C328.007 117.49 330.282 115.367 333.186 113.85C336.132 112.29 339.447 111.51 343.131 111.51C346.814 111.51 350.107 112.29 353.011 113.85C355.914 115.367 358.189 117.49 359.836 120.22C361.482 122.95 362.306 126.048 362.306 129.515C362.306 132.982 361.482 136.08 359.836 138.81C358.189 141.54 355.914 143.685 353.011 145.245C350.107 146.762 346.814 147.52 343.131 147.52ZM343.131 139.2C345.731 139.2 347.854 138.333 349.501 136.6C351.191 134.823 352.036 132.462 352.036 129.515C352.036 126.568 351.191 124.228 349.501 122.495C347.854 120.718 345.731 119.83 343.131 119.83C340.531 119.83 338.386 120.718 336.696 122.495C335.006 124.228 334.161 126.568 334.161 129.515C334.161 132.462 335.006 134.823 336.696 136.6C338.386 138.333 340.531 139.2 343.131 139.2Z" fill="#2F2E44"/>
</svg>
