<svg width="544" height="500" viewBox="0 0 544 500" fill="none" xmlns="http://www.w3.org/2000/svg">
<path d="M329.183 28.9819L45.8256 89.8256L129.892 481.334L413.25 420.491L329.183 28.9819Z" fill="#E0E0E0"/>
<g opacity="0.5">
<path opacity="0.5" d="M325.817 36.6294L52.0356 95.4168L133.26 473.692L407.041 414.904L325.817 36.6294Z" fill="url(#paint0_linear)"/>
</g>
<path d="M322.925 40.1619L56.1135 97.4527L135.544 467.37L402.355 410.08L322.925 40.1619Z" fill="#FAFAFA"/>
<path d="M252.592 38.5041L120.231 66.9253L127.115 98.988L259.477 70.5668L252.592 38.5041Z" fill="url(#paint1_linear)"/>
<path d="M179.672 21.4208C175.886 22.136 172.399 23.9635 169.657 26.67C166.915 29.3764 165.043 32.8388 164.278 36.6149C163.514 40.391 163.892 44.3093 165.365 47.8692C166.839 51.4291 169.34 54.4689 172.549 56.6004C175.758 58.7319 179.53 59.8582 183.383 59.8354C187.236 59.8127 190.994 58.6419 194.178 56.4727C197.362 54.3034 199.827 51.2342 201.258 47.6572C202.689 44.0802 203.021 40.1577 202.212 36.3909C201.205 31.4184 198.266 27.0488 194.04 24.242C189.813 21.4351 184.646 20.4204 179.672 21.4208V21.4208ZM186.083 51.3212C183.924 51.8362 181.66 51.6966 179.58 50.9203C177.501 50.1439 175.7 48.766 174.406 46.9621C173.113 45.1583 172.386 43.0101 172.318 40.7915C172.25 38.5728 172.844 36.3841 174.024 34.5044C175.205 32.6246 176.918 31.1389 178.946 30.2366C180.974 29.3342 183.225 29.0562 185.411 29.4378C187.598 29.8194 189.622 30.8435 191.224 32.3794C192.827 33.9154 193.935 35.8937 194.409 38.0622C194.737 39.4797 194.781 40.9479 194.539 42.3825C194.298 43.8172 193.775 45.1899 193.001 46.4219C192.227 47.654 191.218 48.721 190.031 49.5618C188.843 50.4025 187.502 51.0005 186.083 51.3212V51.3212Z" fill="url(#paint2_linear)"/>
<path d="M250.903 37.4285L121.33 65.251L127.911 95.8998L257.484 68.0773L250.903 37.4285Z" fill="#6C63FF"/>
<path d="M179.672 21.4208C176.092 22.1896 172.819 24.0028 170.269 26.6313C167.719 29.2597 166.006 32.5853 165.346 36.1874C164.686 39.7896 165.109 43.5066 166.561 46.8684C168.014 50.2302 170.431 53.0858 173.506 55.0741C176.581 57.0624 180.177 58.0942 183.839 58.0388C187.501 57.9835 191.064 56.8436 194.078 54.7633C197.091 52.683 199.421 49.7557 200.771 46.3515C202.121 42.9474 202.432 39.2193 201.663 35.6387C201.153 33.2609 200.18 31.0068 198.799 29.0052C197.417 27.0036 195.655 25.2937 193.613 23.9731C191.571 22.6526 189.289 21.7472 186.897 21.3088C184.505 20.8703 182.05 20.9074 179.672 21.4178V21.4208ZM185.798 49.9947C183.731 50.4383 181.579 50.259 179.614 49.4795C177.649 48.7 175.959 47.3553 174.759 45.6155C173.558 43.8757 172.9 41.8188 172.869 39.7052C172.837 37.5915 173.433 35.5159 174.581 33.7409C175.729 31.9659 177.378 30.5712 179.318 29.7332C181.259 28.8953 183.405 28.6516 185.484 29.0331C187.563 29.4146 189.482 30.4041 190.999 31.8765C192.516 33.3489 193.562 35.2381 194.005 37.305C194.599 40.0761 194.068 42.9697 192.529 45.3494C190.99 47.7291 188.569 49.4 185.798 49.9947V49.9947Z" fill="#6C63FF"/>
<path d="M460.706 77.5085H170.974V477.824H460.706V77.5085Z" fill="#E0E0E0"/>
<g opacity="0.5">
<path opacity="0.5" d="M455.813 84.2771H175.873V471.061H455.813V84.2771Z" fill="url(#paint3_linear)"/>
</g>
<path d="M452.247 87.1279H179.434V465.367H452.247V87.1279Z" fill="white"/>
<path d="M383.867 70.7259H248.528V103.51H383.867V70.7259Z" fill="url(#paint4_linear)"/>
<path d="M316.197 38.7239C312.347 38.6327 308.557 39.691 305.311 41.7639C302.064 43.8367 299.51 46.8299 297.973 50.3614C296.435 53.8928 295.986 57.8023 296.681 61.5906C297.376 65.3789 299.184 68.8741 301.874 71.63C304.565 74.3858 308.016 76.2773 311.786 77.0629C315.557 77.8485 319.476 77.4926 323.043 76.0405C326.611 74.5884 329.664 72.1062 331.814 68.9107C333.964 65.7151 335.113 61.9513 335.114 58.0998C335.175 53.0221 333.215 48.1284 329.668 44.4948C326.121 40.8613 321.275 38.7855 316.197 38.7239V38.7239ZM316.197 69.2732C313.976 69.3258 311.79 68.7151 309.917 67.5191C308.044 66.3231 306.571 64.5961 305.684 62.5586C304.797 60.5212 304.538 58.2657 304.94 56.0803C305.341 53.8949 306.384 51.8786 307.937 50.2891C309.49 48.6995 311.481 47.6087 313.656 47.156C315.831 46.7033 318.092 46.9092 320.15 47.7475C322.208 48.5858 323.969 50.0184 325.209 51.8623C326.449 53.7062 327.111 55.8778 327.111 58.0998C327.133 61.0207 325.997 63.8315 323.952 65.9171C321.907 68.0028 319.119 69.1934 316.198 69.2285L316.197 69.2732Z" fill="url(#paint5_linear)"/>
<path d="M382.442 69.3199H249.954V100.658H382.442V69.3199Z" fill="#6C63FF"/>
<g opacity="0.5">
<path opacity="0.5" d="M32.2292 471.067H29.7362V485.208H32.2292V471.067Z" fill="#47E6B1"/>
<path opacity="0.5" d="M38.0569 479.387V476.894H23.9155V479.387H38.0569Z" fill="#47E6B1"/>
</g>
<g opacity="0.5">
<path opacity="0.5" d="M301.818 0H299.325V14.1414H301.818V0Z" fill="#47E6B1"/>
<path opacity="0.5" d="M307.645 8.31375V5.82072L293.504 5.82072V8.31375H307.645Z" fill="#47E6B1"/>
</g>
<path opacity="0.5" d="M511.204 489.145C510.517 488.846 509.963 488.304 509.649 487.623C509.335 486.943 509.282 486.17 509.5 485.453C509.536 485.343 509.558 485.23 509.567 485.115V485.115C509.587 484.786 509.501 484.46 509.321 484.185C509.141 483.909 508.877 483.699 508.568 483.585C508.26 483.471 507.922 483.46 507.607 483.553C507.291 483.645 507.014 483.837 506.816 484.1V484.1C506.747 484.193 506.689 484.293 506.644 484.398C506.344 485.086 505.803 485.639 505.122 485.954C504.441 486.268 503.669 486.321 502.951 486.103C502.842 486.067 502.728 486.045 502.613 486.036C502.285 486.016 501.959 486.102 501.683 486.282C501.408 486.462 501.197 486.726 501.084 487.035C500.97 487.343 500.958 487.68 501.051 487.996C501.144 488.312 501.336 488.589 501.599 488.787V488.787C501.691 488.856 501.791 488.914 501.897 488.96C502.585 489.259 503.138 489.801 503.452 490.482C503.766 491.163 503.819 491.935 503.601 492.653C503.566 492.762 503.543 492.876 503.535 492.99C503.515 493.319 503.601 493.645 503.781 493.921C503.961 494.196 504.224 494.406 504.533 494.52C504.842 494.634 505.179 494.645 505.495 494.553C505.811 494.46 506.088 494.268 506.286 494.005V494.005C506.355 493.913 506.413 493.813 506.459 493.707C506.758 493.019 507.3 492.466 507.98 492.152C508.661 491.837 509.434 491.784 510.151 492.003C510.261 492.038 510.374 492.06 510.489 492.069V492.069C510.817 492.089 511.144 492.003 511.419 491.823C511.695 491.643 511.905 491.379 512.019 491.071C512.133 490.762 512.144 490.425 512.051 490.109C511.958 489.793 511.766 489.516 511.503 489.318V489.318C511.411 489.249 511.311 489.191 511.204 489.145V489.145Z" fill="#4D8AF0"/>
<path opacity="0.5" d="M90.6086 376.237C89.9211 375.938 89.3676 375.396 89.0533 374.715C88.7391 374.034 88.6862 373.262 88.9045 372.544C88.9398 372.435 88.9622 372.321 88.971 372.207V372.207C88.9911 371.878 88.9048 371.552 88.7249 371.276C88.545 371.001 88.2812 370.791 87.9724 370.677C87.6637 370.563 87.3265 370.552 87.0108 370.644C86.6951 370.737 86.4177 370.929 86.2197 371.192V371.192C86.1509 371.284 86.0932 371.384 86.0478 371.49C85.7485 372.178 85.2069 372.731 84.5261 373.045C83.8453 373.36 83.0728 373.413 82.3554 373.194C82.2458 373.159 82.1324 373.137 82.0176 373.128C81.6891 373.108 81.363 373.194 81.0874 373.374C80.8119 373.554 80.6016 373.818 80.4877 374.126C80.3739 374.435 80.3626 374.772 80.4554 375.088C80.5482 375.404 80.7403 375.681 81.0031 375.879V375.879C81.0954 375.948 81.1954 376.006 81.3012 376.051C81.9887 376.35 82.5422 376.892 82.8564 377.573C83.1706 378.253 83.2236 379.026 83.0053 379.743C82.9699 379.853 82.9476 379.966 82.9387 380.081C82.9187 380.41 83.005 380.736 83.1848 381.011C83.3647 381.287 83.6286 381.497 83.9373 381.611C84.2461 381.725 84.5833 381.736 84.899 381.643C85.2147 381.551 85.4921 381.359 85.6901 381.096C85.7588 381.003 85.8164 380.903 85.862 380.798C86.1612 380.11 86.7028 379.557 87.3836 379.242C88.0644 378.928 88.837 378.875 89.5543 379.093C89.6639 379.129 89.7773 379.151 89.8921 379.16C90.2206 379.18 90.5468 379.094 90.8223 378.914C91.0979 378.734 91.3082 378.47 91.422 378.161C91.5359 377.853 91.5472 377.515 91.4544 377.2C91.3616 376.884 91.1695 376.607 90.9066 376.409V376.409C90.8143 376.34 90.7143 376.282 90.6086 376.237V376.237Z" fill="#FDD835"/>
<path opacity="0.5" d="M440.929 45.2014C440.242 44.9022 439.688 44.3606 439.374 43.6798C439.06 42.999 439.007 42.2264 439.225 41.5091C439.261 41.3995 439.283 41.2861 439.292 41.1712C439.312 40.8428 439.226 40.5166 439.046 40.2411C438.866 39.9655 438.602 39.7552 438.293 39.6414C437.985 39.5275 437.647 39.5162 437.332 39.609C437.016 39.7018 436.738 39.8939 436.541 40.1567V40.1567C436.471 40.249 436.413 40.3491 436.368 40.4548C436.068 41.1423 435.527 41.6959 434.846 42.0101C434.165 42.3243 433.393 42.3772 432.675 42.1589C432.566 42.1236 432.452 42.1012 432.337 42.0923V42.0923C432.009 42.0723 431.683 42.1586 431.407 42.3385C431.132 42.5184 430.921 42.7822 430.808 43.091C430.694 43.3997 430.682 43.7369 430.775 44.0526C430.868 44.3683 431.06 44.6457 431.323 44.8437V44.8437C431.415 44.9128 431.515 44.9708 431.621 45.0166C432.309 45.3159 432.862 45.8574 433.176 46.5383C433.49 47.2191 433.543 47.9916 433.325 48.709C433.29 48.8186 433.267 48.932 433.258 49.0468V49.0468C433.238 49.3753 433.325 49.7014 433.505 49.977C433.685 50.2525 433.948 50.4628 434.257 50.5767C434.566 50.6905 434.903 50.7019 435.219 50.609C435.534 50.5162 435.812 50.3241 436.01 50.0613V50.0613C436.079 49.969 436.136 49.869 436.182 49.7632C436.481 49.0757 437.023 48.5222 437.703 48.208C438.384 47.8938 439.157 47.8408 439.874 48.0591C439.984 48.0944 440.097 48.1168 440.212 48.1257C440.54 48.1457 440.867 48.0594 441.142 47.8795C441.418 47.6997 441.628 47.4358 441.742 47.1271C441.856 46.8183 441.867 46.4811 441.774 46.1654C441.681 45.8497 441.489 45.5723 441.226 45.3743V45.3743C441.134 45.3056 441.034 45.2479 440.928 45.2024L440.929 45.2014Z" fill="#FDD835"/>
<path opacity="0.5" d="M538.758 213.476C541.515 213.476 543.75 211.241 543.75 208.484C543.75 205.727 541.515 203.492 538.758 203.492C536.001 203.492 533.766 205.727 533.766 208.484C533.766 211.241 536.001 213.476 538.758 213.476Z" fill="#F55F44"/>
<path opacity="0.5" d="M152.967 500C155.724 500 157.959 497.765 157.959 495.008C157.959 492.251 155.724 490.016 152.967 490.016C150.21 490.016 147.975 492.251 147.975 495.008C147.975 497.765 150.21 500 152.967 500Z" fill="#F55F44"/>
<path opacity="0.5" d="M354.851 492.891C357.608 492.891 359.843 490.656 359.843 487.899C359.843 485.141 357.608 482.906 354.851 482.906C352.094 482.906 349.859 485.141 349.859 487.899C349.859 490.656 352.094 492.891 354.851 492.891Z" fill="#47E6B1"/>
<path opacity="0.5" d="M487.49 321.382C490.247 321.382 492.482 319.147 492.482 316.39C492.482 313.633 490.247 311.398 487.49 311.398C484.733 311.398 482.498 313.633 482.498 316.39C482.498 319.147 484.733 321.382 487.49 321.382Z" fill="#F55F44"/>
<path opacity="0.5" d="M57.7708 68.8688C60.5278 68.8688 62.7629 66.6338 62.7629 63.8768C62.7629 61.1198 60.5278 58.8848 57.7708 58.8848C55.0138 58.8848 52.7788 61.1198 52.7788 63.8768C52.7788 66.6338 55.0138 68.8688 57.7708 68.8688Z" fill="#4D8AF0"/>
<path opacity="0.5" d="M4.99202 205.05C7.74904 205.05 9.98404 202.815 9.98404 200.058C9.98404 197.301 7.74904 195.066 4.99202 195.066C2.235 195.066 0 197.301 0 200.058C0 202.815 2.235 205.05 4.99202 205.05Z" fill="#47E6B1"/>
<path fill-rule="evenodd" clip-rule="evenodd" d="M316.075 77.5035C327.051 77.5035 335.948 68.6062 335.948 57.6308C335.948 46.6554 327.051 37.7581 316.075 37.7581C305.1 37.7581 296.203 46.6554 296.203 57.6308C296.203 68.6062 305.1 77.5035 316.075 77.5035ZM316.075 68.5608C322.112 68.5608 327.005 63.6673 327.005 57.6308C327.005 51.5943 322.112 46.7008 316.075 46.7008C310.039 46.7008 305.145 51.5943 305.145 57.6308C305.145 63.6673 310.039 68.5608 316.075 68.5608Z" fill="#6C63FF"/>
<path d="M63.8999 179.306H49.3399V170.726H88.9899V179.306H74.4299V216.226H63.8999V179.306Z" fill="#2F2E44"/>
<path d="M115.196 180.736C119.529 180.736 123.017 182.036 125.661 184.636C128.347 187.236 129.691 191.093 129.691 196.206V216.226H119.551V197.766C119.551 194.993 118.944 192.934 117.731 191.591C116.517 190.204 114.762 189.511 112.466 189.511C109.909 189.511 107.872 190.313 106.356 191.916C104.839 193.476 104.081 195.816 104.081 198.936V216.226H93.9406V167.996H104.081V184.896C105.424 183.553 107.049 182.534 108.956 181.841C110.862 181.104 112.942 180.736 115.196 180.736Z" fill="#2F2E44"/>
<path d="M173.518 198.871C173.518 199.001 173.453 199.911 173.323 201.601H146.868C147.345 203.768 148.471 205.479 150.248 206.736C152.025 207.993 154.235 208.621 156.878 208.621C158.698 208.621 160.301 208.361 161.688 207.841C163.118 207.278 164.44 206.411 165.653 205.241L171.048 211.091C167.755 214.861 162.945 216.746 156.618 216.746C152.675 216.746 149.186 215.988 146.153 214.471C143.12 212.911 140.78 210.766 139.133 208.036C137.486 205.306 136.663 202.208 136.663 198.741C136.663 195.318 137.465 192.241 139.068 189.511C140.715 186.738 142.946 184.593 145.763 183.076C148.623 181.516 151.808 180.736 155.318 180.736C158.741 180.736 161.84 181.473 164.613 182.946C167.386 184.419 169.553 186.543 171.113 189.316C172.716 192.046 173.518 195.231 173.518 198.871ZM155.383 188.406C153.086 188.406 151.158 189.056 149.598 190.356C148.038 191.656 147.085 193.433 146.738 195.686H163.963C163.616 193.476 162.663 191.721 161.103 190.421C159.543 189.078 157.636 188.406 155.383 188.406Z" fill="#2F2E44"/>
<path d="M189.954 185.871C191.167 184.181 192.792 182.903 194.829 182.036C196.909 181.169 199.292 180.736 201.979 180.736V190.096C200.852 190.009 200.094 189.966 199.704 189.966C196.8 189.966 194.525 190.789 192.879 192.436C191.232 194.039 190.409 196.466 190.409 199.716V216.226H180.269V181.256H189.954V185.871Z" fill="#2F2E44"/>
<path d="M241.946 198.871C241.946 199.001 241.881 199.911 241.751 201.601H215.296C215.772 203.768 216.899 205.479 218.676 206.736C220.452 207.993 222.662 208.621 225.306 208.621C227.126 208.621 228.729 208.361 230.116 207.841C231.546 207.278 232.867 206.411 234.081 205.241L239.476 211.091C236.182 214.861 231.372 216.746 225.046 216.746C221.102 216.746 217.614 215.988 214.581 214.471C211.547 212.911 209.207 210.766 207.561 208.036C205.914 205.306 205.091 202.208 205.091 198.741C205.091 195.318 205.892 192.241 207.496 189.511C209.142 186.738 211.374 184.593 214.191 183.076C217.051 181.516 220.236 180.736 223.746 180.736C227.169 180.736 230.267 181.473 233.041 182.946C235.814 184.419 237.981 186.543 239.541 189.316C241.144 192.046 241.946 195.231 241.946 198.871ZM223.811 188.406C221.514 188.406 219.586 189.056 218.026 190.356C216.466 191.656 215.512 193.433 215.166 195.686H232.391C232.044 193.476 231.091 191.721 229.531 190.421C227.971 189.078 226.064 188.406 223.811 188.406Z" fill="#2F2E44"/>
<path d="M281.21 180.736C286.626 180.736 290.786 182.036 293.69 184.636C296.593 187.193 298.045 191.071 298.045 196.271V216.226H288.555V211.871C286.648 215.121 283.095 216.746 277.895 216.746C275.208 216.746 272.868 216.291 270.875 215.381C268.925 214.471 267.43 213.214 266.39 211.611C265.35 210.008 264.83 208.188 264.83 206.151C264.83 202.901 266.043 200.344 268.47 198.481C270.94 196.618 274.731 195.686 279.845 195.686H287.905C287.905 193.476 287.233 191.786 285.89 190.616C284.546 189.403 282.531 188.796 279.845 188.796C277.981 188.796 276.14 189.099 274.32 189.706C272.543 190.269 271.026 191.049 269.77 192.046L266.13 184.961C268.036 183.618 270.311 182.578 272.955 181.841C275.641 181.104 278.393 180.736 281.21 180.736ZM280.43 209.921C282.163 209.921 283.701 209.531 285.045 208.751C286.388 207.928 287.341 206.736 287.905 205.176V201.601H280.95C276.79 201.601 274.71 202.966 274.71 205.696C274.71 206.996 275.208 208.036 276.205 208.816C277.245 209.553 278.653 209.921 280.43 209.921Z" fill="#2F2E44"/>
<path d="M316.907 185.871C318.12 184.181 319.745 182.903 321.782 182.036C323.862 181.169 326.245 180.736 328.932 180.736V190.096C327.805 190.009 327.047 189.966 326.657 189.966C323.753 189.966 321.478 190.789 319.832 192.436C318.185 194.039 317.362 196.466 317.362 199.716V216.226H307.222V181.256H316.907V185.871Z" fill="#2F2E44"/>
<path d="M368.899 198.871C368.899 199.001 368.834 199.911 368.704 201.601H342.249C342.725 203.768 343.852 205.479 345.629 206.736C347.405 207.993 349.615 208.621 352.259 208.621C354.079 208.621 355.682 208.361 357.069 207.841C358.499 207.278 359.82 206.411 361.034 205.241L366.429 211.091C363.135 214.861 358.325 216.746 351.999 216.746C348.055 216.746 344.567 215.988 341.534 214.471C338.5 212.911 336.16 210.766 334.514 208.036C332.867 205.306 332.044 202.208 332.044 198.741C332.044 195.318 332.845 192.241 334.449 189.511C336.095 186.738 338.327 184.593 341.144 183.076C344.004 181.516 347.189 180.736 350.699 180.736C354.122 180.736 357.22 181.473 359.994 182.946C362.767 184.419 364.934 186.543 366.494 189.316C368.097 192.046 368.899 195.231 368.899 198.871ZM350.764 188.406C348.467 188.406 346.539 189.056 344.979 190.356C343.419 191.656 342.465 193.433 342.119 195.686H359.344C358.997 193.476 358.044 191.721 356.484 190.421C354.924 189.078 353.017 188.406 350.764 188.406Z" fill="#2F2E44"/>
<path d="M415.313 180.736C419.646 180.736 423.134 182.036 425.778 184.636C428.464 187.236 429.808 191.093 429.808 196.206V216.226H419.668V197.766C419.668 194.993 419.061 192.934 417.848 191.591C416.634 190.204 414.879 189.511 412.583 189.511C410.026 189.511 407.989 190.313 406.473 191.916C404.956 193.476 404.198 195.816 404.198 198.936V216.226H394.058V181.256H403.743V185.351C405.086 183.878 406.754 182.751 408.748 181.971C410.741 181.148 412.929 180.736 415.313 180.736Z" fill="#2F2E44"/>
<path d="M456.02 216.746C452.337 216.746 449.022 215.988 446.075 214.471C443.172 212.911 440.897 210.766 439.25 208.036C437.603 205.306 436.78 202.208 436.78 198.741C436.78 195.274 437.603 192.176 439.25 189.446C440.897 186.716 443.172 184.593 446.075 183.076C449.022 181.516 452.337 180.736 456.02 180.736C459.703 180.736 462.997 181.516 465.9 183.076C468.803 184.593 471.078 186.716 472.725 189.446C474.372 192.176 475.195 195.274 475.195 198.741C475.195 202.208 474.372 205.306 472.725 208.036C471.078 210.766 468.803 212.911 465.9 214.471C462.997 215.988 459.703 216.746 456.02 216.746ZM456.02 208.426C458.62 208.426 460.743 207.559 462.39 205.826C464.08 204.049 464.925 201.688 464.925 198.741C464.925 195.794 464.08 193.454 462.39 191.721C460.743 189.944 458.62 189.056 456.02 189.056C453.42 189.056 451.275 189.944 449.585 191.721C447.895 193.454 447.05 195.794 447.05 198.741C447.05 201.688 447.895 204.049 449.585 205.826C451.275 207.559 453.42 208.426 456.02 208.426Z" fill="#2F2E44"/>
<path d="M48.1892 295.746C44.4625 295.746 41.1042 294.988 38.1142 293.471C35.1675 291.911 32.8492 289.766 31.1592 287.036C29.5125 284.306 28.6892 281.208 28.6892 277.741C28.6892 274.274 29.5125 271.176 31.1592 268.446C32.8492 265.716 35.1675 263.593 38.1142 262.076C41.1042 260.516 44.4625 259.736 48.1892 259.736C51.8725 259.736 55.0792 260.516 57.8092 262.076C60.5825 263.593 62.5975 265.781 63.8542 268.641L55.9892 272.866C54.1692 269.659 51.5475 268.056 48.1242 268.056C45.4809 268.056 43.2925 268.923 41.5592 270.656C39.8259 272.389 38.9592 274.751 38.9592 277.741C38.9592 280.731 39.8259 283.093 41.5592 284.826C43.2925 286.559 45.4809 287.426 48.1242 287.426C51.5909 287.426 54.2125 285.823 55.9892 282.616L63.8542 286.906C62.5975 289.679 60.5825 291.846 57.8092 293.406C55.0792 294.966 51.8725 295.746 48.1892 295.746Z" fill="#2F2E44"/>
<path d="M85.8882 295.746C82.2049 295.746 78.8899 294.988 75.9432 293.471C73.0399 291.911 70.7649 289.766 69.1182 287.036C67.4715 284.306 66.6482 281.208 66.6482 277.741C66.6482 274.274 67.4715 271.176 69.1182 268.446C70.7649 265.716 73.0399 263.593 75.9432 262.076C78.8899 260.516 82.2049 259.736 85.8882 259.736C89.5715 259.736 92.8649 260.516 95.7682 262.076C98.6715 263.593 100.947 265.716 102.593 268.446C104.24 271.176 105.063 274.274 105.063 277.741C105.063 281.208 104.24 284.306 102.593 287.036C100.947 289.766 98.6715 291.911 95.7682 293.471C92.8649 294.988 89.5715 295.746 85.8882 295.746ZM85.8882 287.426C88.4882 287.426 90.6115 286.559 92.2582 284.826C93.9482 283.049 94.7932 280.688 94.7932 277.741C94.7932 274.794 93.9482 272.454 92.2582 270.721C90.6115 268.944 88.4882 268.056 85.8882 268.056C83.2882 268.056 81.1432 268.944 79.4532 270.721C77.7632 272.454 76.9182 274.794 76.9182 277.741C76.9182 280.688 77.7632 283.049 79.4532 284.826C81.1432 286.559 83.2882 287.426 85.8882 287.426Z" fill="#2F2E44"/>
<path d="M156.626 259.736C161.003 259.736 164.469 261.036 167.026 263.636C169.626 266.193 170.926 270.049 170.926 275.206V295.226H160.786V276.766C160.786 273.993 160.201 271.934 159.031 270.591C157.904 269.204 156.279 268.511 154.156 268.511C151.773 268.511 149.888 269.291 148.501 270.851C147.114 272.368 146.421 274.643 146.421 277.676V295.226H136.281V276.766C136.281 271.263 134.071 268.511 129.651 268.511C127.311 268.511 125.448 269.291 124.061 270.851C122.674 272.368 121.981 274.643 121.981 277.676V295.226H111.841V260.256H121.526V264.286C122.826 262.813 124.408 261.686 126.271 260.906C128.178 260.126 130.258 259.736 132.511 259.736C134.981 259.736 137.213 260.234 139.206 261.231C141.199 262.184 142.803 263.593 144.016 265.456C145.446 263.636 147.244 262.228 149.411 261.231C151.621 260.234 154.026 259.736 156.626 259.736Z" fill="#2F2E44"/>
<path d="M224.8 259.736C229.176 259.736 232.643 261.036 235.2 263.636C237.8 266.193 239.1 270.049 239.1 275.206V295.226H228.96V276.766C228.96 273.993 228.375 271.934 227.205 270.591C226.078 269.204 224.453 268.511 222.33 268.511C219.946 268.511 218.061 269.291 216.675 270.851C215.288 272.368 214.595 274.643 214.595 277.676V295.226H204.455V276.766C204.455 271.263 202.245 268.511 197.825 268.511C195.485 268.511 193.621 269.291 192.235 270.851C190.848 272.368 190.155 274.643 190.155 277.676V295.226H180.015V260.256H189.7V264.286C191 262.813 192.581 261.686 194.445 260.906C196.351 260.126 198.431 259.736 200.685 259.736C203.155 259.736 205.386 260.234 207.38 261.231C209.373 262.184 210.976 263.593 212.19 265.456C213.62 263.636 215.418 262.228 217.585 261.231C219.795 260.234 222.2 259.736 224.8 259.736Z" fill="#2F2E44"/>
<path d="M282.824 277.871C282.824 278.001 282.759 278.911 282.629 280.601H256.174C256.651 282.768 257.778 284.479 259.554 285.736C261.331 286.993 263.541 287.621 266.184 287.621C268.004 287.621 269.608 287.361 270.994 286.841C272.424 286.278 273.746 285.411 274.959 284.241L280.354 290.091C277.061 293.861 272.251 295.746 265.924 295.746C261.981 295.746 258.493 294.988 255.459 293.471C252.426 291.911 250.086 289.766 248.439 287.036C246.793 284.306 245.969 281.208 245.969 277.741C245.969 274.318 246.771 271.241 248.374 268.511C250.021 265.738 252.253 263.593 255.069 262.076C257.929 260.516 261.114 259.736 264.624 259.736C268.048 259.736 271.146 260.473 273.919 261.946C276.693 263.419 278.859 265.543 280.419 268.316C282.023 271.046 282.824 274.231 282.824 277.871ZM264.689 267.406C262.393 267.406 260.464 268.056 258.904 269.356C257.344 270.656 256.391 272.433 256.044 274.686H273.269C272.923 272.476 271.969 270.721 270.409 269.421C268.849 268.078 266.943 267.406 264.689 267.406Z" fill="#2F2E44"/>
<path d="M310.83 259.736C315.164 259.736 318.652 261.036 321.295 263.636C323.982 266.236 325.325 270.093 325.325 275.206V295.226H315.185V276.766C315.185 273.993 314.579 271.934 313.365 270.591C312.152 269.204 310.397 268.511 308.1 268.511C305.544 268.511 303.507 269.313 301.99 270.916C300.474 272.476 299.715 274.816 299.715 277.936V295.226H289.575V260.256H299.26V264.351C300.604 262.878 302.272 261.751 304.265 260.971C306.259 260.148 308.447 259.736 310.83 259.736Z" fill="#2F2E44"/>
<path d="M357.072 293.536C356.075 294.273 354.84 294.836 353.367 295.226C351.937 295.573 350.42 295.746 348.817 295.746C344.657 295.746 341.428 294.684 339.132 292.561C336.878 290.438 335.752 287.318 335.752 283.201V268.836H330.357V261.036H335.752V252.521H345.892V261.036H354.602V268.836H345.892V283.071C345.892 284.544 346.26 285.693 346.997 286.516C347.777 287.296 348.86 287.686 350.247 287.686C351.85 287.686 353.215 287.253 354.342 286.386L357.072 293.536Z" fill="#2F2E44"/>
<path d="M374.529 295.746C371.625 295.746 368.787 295.399 366.014 294.706C363.24 293.969 361.03 293.059 359.384 291.976L362.764 284.696C364.324 285.693 366.209 286.516 368.419 287.166C370.629 287.773 372.795 288.076 374.919 288.076C379.209 288.076 381.354 287.014 381.354 284.891C381.354 283.894 380.769 283.179 379.599 282.746C378.429 282.313 376.63 281.944 374.204 281.641C371.344 281.208 368.982 280.709 367.119 280.146C365.255 279.583 363.63 278.586 362.244 277.156C360.9 275.726 360.229 273.689 360.229 271.046C360.229 268.836 360.857 266.886 362.114 265.196C363.414 263.463 365.277 262.119 367.704 261.166C370.174 260.213 373.077 259.736 376.414 259.736C378.884 259.736 381.332 260.018 383.759 260.581C386.229 261.101 388.265 261.838 389.869 262.791L386.489 270.006C383.412 268.273 380.054 267.406 376.414 267.406C374.247 267.406 372.622 267.709 371.539 268.316C370.455 268.923 369.914 269.703 369.914 270.656C369.914 271.739 370.499 272.498 371.669 272.931C372.839 273.364 374.702 273.776 377.259 274.166C380.119 274.643 382.459 275.163 384.279 275.726C386.099 276.246 387.68 277.221 389.024 278.651C390.367 280.081 391.039 282.074 391.039 284.631C391.039 286.798 390.389 288.726 389.089 290.416C387.789 292.106 385.882 293.428 383.369 294.381C380.899 295.291 377.952 295.746 374.529 295.746Z" fill="#2F2E44"/>
<path d="M450.413 260.256L434.618 297.371C433.015 301.401 431.022 304.239 428.638 305.886C426.298 307.533 423.46 308.356 420.123 308.356C418.303 308.356 416.505 308.074 414.728 307.511C412.952 306.948 411.5 306.168 410.373 305.171L414.078 297.956C414.858 298.649 415.747 299.191 416.743 299.581C417.783 299.971 418.802 300.166 419.798 300.166C421.185 300.166 422.312 299.819 423.178 299.126C424.045 298.476 424.825 297.371 425.518 295.811L425.648 295.486L410.503 260.256H420.968L430.783 283.981L440.663 260.256H450.413Z" fill="#2F2E44"/>
<path d="M487.854 277.871C487.854 278.001 487.789 278.911 487.659 280.601H461.204C461.68 282.768 462.807 284.479 464.584 285.736C466.36 286.993 468.57 287.621 471.214 287.621C473.034 287.621 474.637 287.361 476.024 286.841C477.454 286.278 478.775 285.411 479.989 284.241L485.384 290.091C482.09 293.861 477.28 295.746 470.954 295.746C467.01 295.746 463.522 294.988 460.489 293.471C457.455 291.911 455.115 289.766 453.469 287.036C451.822 284.306 450.999 281.208 450.999 277.741C450.999 274.318 451.8 271.241 453.404 268.511C455.05 265.738 457.282 263.593 460.099 262.076C462.959 260.516 466.144 259.736 469.654 259.736C473.077 259.736 476.175 260.473 478.949 261.946C481.722 263.419 483.889 265.543 485.449 268.316C487.052 271.046 487.854 274.231 487.854 277.871ZM469.719 267.406C467.422 267.406 465.494 268.056 463.934 269.356C462.374 270.656 461.42 272.433 461.074 274.686H478.299C477.952 272.476 476.999 270.721 475.439 269.421C473.879 268.078 471.972 267.406 469.719 267.406Z" fill="#2F2E44"/>
<path d="M517.16 293.536C516.163 294.273 514.928 294.836 513.455 295.226C512.025 295.573 510.508 295.746 508.905 295.746C504.745 295.746 501.516 294.684 499.22 292.561C496.966 290.438 495.84 287.318 495.84 283.201V268.836H490.445V261.036H495.84V252.521H505.98V261.036H514.69V268.836H505.98V283.071C505.98 284.544 506.348 285.693 507.085 286.516C507.865 287.296 508.948 287.686 510.335 287.686C511.938 287.686 513.303 287.253 514.43 286.386L517.16 293.536Z" fill="#2F2E44"/>
<defs>
<linearGradient id="paint0_linear" x1="272.371" y1="442.634" x2="191.147" y2="64.3592" gradientUnits="userSpaceOnUse">
<stop stop-color="#808080" stop-opacity="0.251"/>
<stop offset="0.54" stop-color="#808080" stop-opacity="0.122"/>
<stop offset="1" stop-color="#808080" stop-opacity="0.102"/>
</linearGradient>
<linearGradient id="paint1_linear" x1="233.631" y1="70.7836" x2="226.746" y2="38.7209" gradientUnits="userSpaceOnUse">
<stop stop-color="#808080" stop-opacity="0.251"/>
<stop offset="0.54" stop-color="#808080" stop-opacity="0.122"/>
<stop offset="1" stop-color="#808080" stop-opacity="0.102"/>
</linearGradient>
<linearGradient id="paint2_linear" x1="232.871" y1="53.9783" x2="232.871" y2="15.1874" gradientUnits="userSpaceOnUse">
<stop stop-color="#808080" stop-opacity="0.251"/>
<stop offset="0.54" stop-color="#808080" stop-opacity="0.122"/>
<stop offset="1" stop-color="#808080" stop-opacity="0.102"/>
</linearGradient>
<linearGradient id="paint3_linear" x1="315.843" y1="471.061" x2="315.843" y2="84.2771" gradientUnits="userSpaceOnUse">
<stop stop-color="#808080" stop-opacity="0.251"/>
<stop offset="0.54" stop-color="#808080" stop-opacity="0.122"/>
<stop offset="1" stop-color="#808080" stop-opacity="0.102"/>
</linearGradient>
<linearGradient id="paint4_linear" x1="316.197" y1="103.51" x2="316.197" y2="70.7259" gradientUnits="userSpaceOnUse">
<stop stop-color="#808080" stop-opacity="0.251"/>
<stop offset="0.54" stop-color="#808080" stop-opacity="0.122"/>
<stop offset="1" stop-color="#808080" stop-opacity="0.102"/>
</linearGradient>
<linearGradient id="paint5_linear" x1="315.739" y1="77.4315" x2="315.739" y2="38.6797" gradientUnits="userSpaceOnUse">
<stop stop-color="#808080" stop-opacity="0.251"/>
<stop offset="0.54" stop-color="#808080" stop-opacity="0.122"/>
<stop offset="1" stop-color="#808080" stop-opacity="0.102"/>
</linearGradient>
</defs>
</svg>
