<svg width="480" height="500" viewBox="0 0 480 500" fill="none" xmlns="http://www.w3.org/2000/svg">
<path d="M256.106 62.9708C271.408 62.9708 283.813 50.5659 283.813 35.2637C283.813 19.9614 271.408 7.5565 256.106 7.5565C240.803 7.5565 228.398 19.9614 228.398 35.2637C228.398 50.5659 240.803 62.9708 256.106 62.9708Z" fill="#F2F2F2"/>
<path d="M377.849 101.593C382.95 101.593 387.085 97.458 387.085 92.3572C387.085 87.2565 382.95 83.1215 377.849 83.1215C372.748 83.1215 368.613 87.2565 368.613 92.3572C368.613 97.458 372.748 101.593 377.849 101.593Z" fill="#3F3D56"/>
<path d="M377.849 174.639C382.95 174.639 387.085 170.504 387.085 165.403C387.085 160.303 382.95 156.168 377.849 156.168C372.748 156.168 368.613 160.303 368.613 165.403C368.613 170.504 372.748 174.639 377.849 174.639Z" fill="#3F3D56"/>
<path d="M470.206 193.111C475.307 193.111 479.442 188.976 479.442 183.875C479.442 178.774 475.307 174.639 470.206 174.639C465.106 174.639 460.971 178.774 460.971 183.875C460.971 188.976 465.106 193.111 470.206 193.111Z" fill="#3F3D56"/>
<path d="M455.023 224.307C451.166 217.946 437.694 218.11 437.694 218.11C425.428 236.334 395.944 216.976 395.944 216.976C374.045 226.773 360.683 195.551 360.683 195.551C331.217 191.145 335.769 160.198 335.769 160.198C321.109 157.255 325.222 130.75 325.222 130.75C325.222 130.75 333.357 124.078 329.354 119.197C326.809 116.094 326.651 107.189 326.873 101.11C307.743 95.2919 287.856 92.3423 267.86 92.3573C156.107 92.3573 65.5137 182.951 65.5137 294.704C65.5137 406.456 156.107 497.05 267.86 497.05C379.613 497.05 470.206 406.456 470.206 294.704C470.231 270.425 465.875 246.342 457.35 223.61C456.311 224.782 455.506 225.104 455.023 224.307Z" fill="#3F3D56"/>
<path opacity="0.1" d="M455.023 224.307C451.166 217.946 437.694 218.11 437.694 218.11C425.428 236.334 395.944 216.976 395.944 216.976C374.045 226.773 360.683 195.551 360.683 195.551C331.217 191.145 335.769 160.198 335.769 160.198C321.109 157.255 325.222 130.75 325.222 130.75C325.222 130.75 333.357 124.078 329.354 119.197C326.809 116.094 326.651 107.189 326.873 101.11C307.743 95.2919 287.856 92.3423 267.86 92.3573C156.107 92.3573 65.5137 182.951 65.5137 294.704C65.5137 406.456 156.107 497.05 267.86 497.05C379.613 497.05 470.206 406.456 470.206 294.704C470.231 270.425 465.875 246.342 457.35 223.61C456.311 224.782 455.506 225.104 455.023 224.307Z" fill="black"/>
<path d="M443.031 223.508C439.363 217.458 426.551 217.614 426.551 217.614C414.885 234.947 386.844 216.535 386.844 216.535C366.017 225.853 353.309 196.16 353.309 196.16C325.285 191.969 329.615 162.537 329.615 162.537C315.673 159.738 319.585 134.53 319.585 134.53C319.585 134.53 327.321 128.185 323.514 123.543C321.094 120.592 320.943 112.123 321.155 106.341C302.961 100.808 284.047 98.0031 265.03 98.0173C158.748 98.0173 72.5889 184.176 72.5889 290.459C72.5889 396.741 158.748 482.9 265.03 482.9C371.312 482.9 457.471 396.741 457.471 290.459C457.494 267.369 453.352 244.464 445.244 222.845C444.257 223.96 443.491 224.266 443.031 223.508Z" fill="#3F3D56"/>
<path d="M226.716 229.639C226.716 229.639 190.839 221.153 165.436 246.059C156.545 254.777 153.565 264.603 153.447 273.693C153.237 289.857 162.128 304.455 176.704 313.533L263.805 367.779C266.802 369.679 270.429 370.763 274.271 370.906C278.114 371.05 282.016 370.248 285.532 368.592C285.671 368.525 285.81 368.456 285.951 368.386C288.477 367.112 290.717 365.424 292.534 363.426C294.35 361.428 295.704 359.162 296.513 356.768L324.845 274.163C330.141 259.083 329.746 243.326 323.72 229.276C317.655 215.474 305.423 202.49 280.812 203.509C280.812 203.509 251.149 201.114 226.716 229.639Z" fill="#6C63FF"/>
<path opacity="0.1" d="M226.716 229.639C226.716 229.639 190.839 221.153 165.436 246.059C156.545 254.777 153.565 264.603 153.447 273.693C153.237 289.857 162.128 304.455 176.704 313.533L263.805 367.779C266.802 369.679 270.429 370.763 274.271 370.906C278.114 371.05 282.016 370.248 285.532 368.592C285.671 368.525 285.81 368.456 285.951 368.386C288.477 367.112 290.717 365.424 292.534 363.426C294.35 361.428 295.704 359.162 296.513 356.768L324.845 274.163C330.141 259.083 329.746 243.326 323.72 229.276C317.655 215.474 305.423 202.49 280.812 203.509C280.812 203.509 251.149 201.114 226.716 229.639Z" fill="black"/>
<path d="M228.128 233.63C228.128 233.63 194.472 225.669 170.643 249.033C162.303 257.21 159.507 266.428 159.396 274.955C159.199 290.118 167.54 303.812 181.213 312.328L262.919 363.214C265.731 364.996 269.133 366.013 272.737 366.148C276.342 366.282 280.002 365.53 283.3 363.977C283.431 363.914 283.562 363.849 283.694 363.784C286.063 362.589 288.165 361.005 289.869 359.131C291.573 357.256 292.843 355.13 293.601 352.885L320.179 275.396C325.147 261.25 324.776 246.469 319.123 233.289C313.434 220.342 301.96 208.161 278.873 209.117C278.873 209.117 251.047 206.871 228.128 233.63Z" fill="#6C63FF"/>
<path opacity="0.1" d="M236.551 260.486C236.551 260.486 220.176 256.613 208.583 267.98C204.992 271.546 203.031 276.068 203.111 280.592C203.107 284.238 204.061 287.767 205.899 290.916C207.737 294.065 210.413 296.752 213.725 298.775C213.725 298.775 260.142 325.471 263.394 323.904C263.457 323.873 263.521 323.842 263.585 323.81C265.919 322.647 281.336 280.807 281.336 280.807C283.753 273.924 283.573 266.733 280.822 260.32C278.055 254.021 272.472 248.095 261.24 248.56C261.24 248.56 247.702 247.468 236.551 260.486Z" fill="black"/>
<path opacity="0.1" d="M149 323.004L153.245 330.079L161.734 344.229L164.565 354.134L158.905 362.624L165.979 379.604L168.81 389.509L163.15 395.169L174.47 403.659" fill="black"/>
<path opacity="0.1" d="M357.006 260.743V272.063L349.93 290.458L345.685 300.363L352.76 313.098L355.591 321.589L366.91 325.834L371.156 332.909V349.888" fill="black"/>
<path opacity="0.1" d="M429.171 272.064L417.851 279.139C417.851 279.139 412.191 281.969 412.191 283.384V294.704" fill="black"/>
<path opacity="0.1" d="M378.231 232.443L381.061 246.593L378.231 256.498" fill="black"/>
<path opacity="0.1" d="M389.551 359.794L381.061 372.529L371.156 381.019V386.679L376.816 393.754V402.244L372.571 410.734" fill="black"/>
<path opacity="0.1" d="M308.895 119.242H294.745L283.425 129.147L265.03 139.052L256.54 146.128V148.958L238.145 158.863L232.485 168.768" fill="black"/>
<path opacity="0.1" d="M156.074 143.298L143.339 168.768L139.094 178.673L129.189 191.408C129.189 191.408 122.114 204.143 120.699 205.558C119.284 206.973 109.379 209.803 109.379 209.803L123.529 223.953" fill="black"/>
<path opacity="0.1" d="M99.4745 240.933L96.6442 259.328L99.4745 270.649V290.458L90.9844 327.249L99.4745 337.153L109.379 349.889" fill="black"/>
<path opacity="0.1" d="M120.699 249.423L129.189 253.668L134.849 272.063L146.17 269.233L151.829 279.139" fill="black"/>
<path opacity="0.1" d="M276.35 433.375L298.99 430.544L308.895 420.639H323.045" fill="black"/>
<path opacity="0.1" d="M139.094 403.659L147.584 413.564L161.734 417.809L171.64 420.639L174.469 436.204" fill="black"/>
<path opacity="0.1" d="M306.065 355.549L315.971 348.474L320.216 337.153L328.706 335.739L332.95 321.589" fill="black"/>
<path d="M51.9437 0H75.636C83.1163 0 90.2902 2.97153 95.5796 8.26089C100.869 13.5503 103.84 20.7242 103.84 28.2045V80.1013H23.7393V28.2045C23.7393 24.5006 24.4688 20.833 25.8862 17.4111C27.3036 13.9892 29.3811 10.8799 32.0001 8.26091C34.6192 5.64188 37.7284 3.56435 41.1503 2.14694C44.5723 0.729528 48.2399 0 51.9437 0Z" fill="#2F2E41"/>
<path d="M76.2674 445.062C76.2674 445.062 73.7486 461.015 69.5505 463.534C65.3525 466.053 91.3804 471.93 91.3804 471.93L95.5785 446.742L76.2674 445.062Z" fill="#FBBEBE"/>
<path d="M107.333 262.867L116.569 273.782L112.371 311.564L109.012 386.29C109.012 386.29 115.729 450.94 109.012 452.619C102.295 454.298 72.0695 453.458 72.9091 449.26C73.7487 445.062 74.5883 441.704 76.2675 435.827C77.9467 429.949 74.5883 408.959 74.5883 408.959L78.7863 385.45L63.6733 283.857L107.333 262.867Z" fill="#2F2E41"/>
<path d="M77.107 461.015C77.107 461.015 67.8713 459.336 67.0317 461.015C66.1921 462.694 50.2394 480.326 47.7206 480.326C45.2018 480.326 26.7303 497.118 46.0414 497.958C65.3525 498.797 97.2577 483.684 97.2577 483.684C97.2577 483.684 92.5623 462.319 92.811 463.346C93.0596 464.373 77.107 465.213 77.107 461.015Z" fill="#2F2E41"/>
<path d="M67.0317 422.393C67.0317 422.393 90.5409 448.421 91.3805 450.94C92.2201 453.458 104.814 450.94 104.814 450.94L109.852 434.147L105.654 428.27L82.1447 408.959L67.0317 422.393Z" fill="#FBBEBE"/>
<path d="M100.616 441.704L88.4419 453.163C88.4419 453.163 103.975 476.968 103.975 479.486C103.975 482.005 104.814 502.996 113.21 499.637C121.607 496.279 122.446 462.694 122.446 462.694C122.446 462.694 121.607 428.27 116.569 425.751C111.531 423.232 100.49 424.028 100.49 424.028C100.49 424.028 107.333 440.864 100.616 441.704Z" fill="#2F2E41"/>
<path d="M30.9283 188.141C30.9283 188.141 26.7302 201.575 25.8906 204.934C25.051 208.292 20.0133 217.528 20.0133 231.801C20.0133 246.075 21.6925 262.867 20.0133 264.546C18.3341 266.225 -8.53347 360.262 3.22109 370.337C14.9756 380.412 53.5978 413.997 56.1166 418.195C58.6354 422.393 59.475 432.468 64.5127 430.789C69.5504 429.11 88.8614 412.318 89.701 408.959C90.5406 405.601 78.7861 399.723 78.7861 399.723C78.7861 399.723 55.277 365.299 49.3997 366.139C43.5224 366.979 44.362 361.941 45.2016 359.422C46.0413 356.903 47.7205 355.224 45.2016 355.224C42.6828 355.224 44.362 348.507 45.2016 345.149C46.0413 341.79 65.3523 296.451 65.3523 296.451L116.569 273.782C116.569 273.782 114.05 212.49 95.5783 195.698L91.3803 185.623C91.3803 185.623 44.362 182.264 30.9283 188.141Z" fill="#2F2E41"/>
<path d="M51.919 55.4828C51.919 55.4828 56.1171 84.8692 46.0418 86.5484C35.9664 88.2276 27.5703 87.388 27.5703 88.2276C27.5703 89.0673 52.7586 115.095 52.7586 115.095L76.2678 113.416L97.258 90.7465C97.258 90.7465 77.947 87.388 77.947 75.6335C77.947 63.8789 77.1074 55.4828 77.1074 55.4828H51.919Z" fill="#FBBEBE"/>
<path opacity="0.1" d="M51.919 55.4828C51.919 55.4828 56.1171 84.8692 46.0418 86.5484C35.9664 88.2276 27.5703 87.388 27.5703 88.2276C27.5703 89.0673 52.7586 115.095 52.7586 115.095L76.2678 113.416L97.258 90.7465C97.258 90.7465 77.947 87.388 77.947 75.6335C77.947 63.8789 77.1074 55.4828 77.1074 55.4828H51.919Z" fill="black"/>
<path d="M64.9327 67.6572C79.3076 67.6572 90.9607 56.0041 90.9607 41.6292C90.9607 27.2544 79.3076 15.6013 64.9327 15.6013C50.5579 15.6013 38.9048 27.2544 38.9048 41.6292C38.9048 56.0041 50.5579 67.6572 64.9327 67.6572Z" fill="#FBBEBE"/>
<path d="M41.8432 84.0296C41.8432 84.0296 9.09838 88.2276 6.57954 99.1426C4.06071 110.058 23.3718 178.066 25.8906 183.943C28.4094 189.821 27.5698 194.019 27.5698 194.019C31.3689 191.177 35.7324 189.183 40.3668 188.169C45.0012 187.155 49.799 187.146 54.4374 188.141C70.39 191.5 93.0595 189.821 93.0595 189.821C93.0595 189.821 100.616 158.755 102.295 155.397C103.974 152.038 110.691 133.567 110.691 128.529C110.691 123.491 120.767 102.501 120.767 102.501C120.767 102.501 115.729 87.388 97.2575 88.2276C97.2575 88.2276 89.2005 84.6215 86.9319 87.2642C84.6634 89.9069 72.0692 101.661 56.1166 96.6238C40.164 91.5861 41.8432 84.0296 41.8432 84.0296Z" fill="#FF6584"/>
<path d="M15.8159 98.303H6.58015L1.54248 164.632C1.54248 164.632 20.0139 169.67 22.5328 166.311C25.0516 162.953 15.8159 98.303 15.8159 98.303Z" fill="#FF6584"/>
<path d="M104.814 98.303L120.767 102.501C120.767 102.501 132.522 145.321 133.361 146.161C134.201 147 135.04 152.038 135.04 152.038C135.04 152.038 135.04 152.878 136.72 155.397C138.399 157.915 140.918 156.236 139.239 159.595C137.559 162.953 135.04 161.274 136.72 164.632C138.399 167.991 137.559 177.226 137.559 177.226C137.559 177.226 133.361 161.274 118.248 165.472L108.173 120.133L104.814 98.303Z" fill="#FF6584"/>
<path d="M85.2541 35.299H44.8117L35.6558 14.2549H92.1213L85.2541 35.299Z" fill="#2F2E41"/>
<path d="M39.5058 50.6971C40.586 50.384 40.7851 47.795 39.9503 44.9142C39.1156 42.0335 37.5631 39.952 36.4828 40.265C35.4026 40.5781 35.2036 43.1671 36.0383 46.0478C36.8731 48.9286 38.4255 51.0101 39.5058 50.6971Z" fill="#FFB9B9"/>
<path d="M94.2203 46.0479C95.0551 43.1671 94.8561 40.5781 93.7758 40.265C92.6955 39.952 91.1431 42.0335 90.3083 44.9143C89.4736 47.795 89.6726 50.384 90.7529 50.6971C91.8331 51.0101 93.3856 48.9286 94.2203 46.0479Z" fill="#FFB9B9"/>
<path d="M87.3435 157.007C95.6902 157.007 102.456 150.241 102.456 141.894C102.456 133.548 95.6902 126.781 87.3435 126.781C78.9968 126.781 72.2305 133.548 72.2305 141.894C72.2305 150.241 78.9968 157.007 87.3435 157.007Z" fill="#3F3D56"/>
<path opacity="0.1" d="M87.3435 157.007C95.6902 157.007 102.456 150.241 102.456 141.894C102.456 133.548 95.6902 126.781 87.3435 126.781C78.9968 126.781 72.2305 133.548 72.2305 141.894C72.2305 150.241 78.9968 157.007 87.3435 157.007Z" fill="black"/>
<path d="M87.3437 155.509C94.8626 155.509 100.958 149.413 100.958 141.894C100.958 134.375 94.8626 128.28 87.3437 128.28C79.8248 128.28 73.7295 134.375 73.7295 141.894C73.7295 149.413 79.8248 155.509 87.3437 155.509Z" fill="#3F3D56"/>
<path opacity="0.1" d="M84.6368 135.877C84.6368 135.877 80.7644 134.827 78.088 137.632C77.2594 138.512 76.8185 139.639 76.8583 140.777C76.8743 141.694 77.1151 142.585 77.5624 143.386C78.0096 144.186 78.6519 144.874 79.441 145.398L88.9128 151.806C89.2389 152.03 89.6308 152.162 90.0439 152.187C90.457 152.212 90.8745 152.128 91.2487 151.945L91.2933 151.922C91.562 151.782 91.7991 151.593 91.9901 151.367C92.181 151.142 92.3217 150.885 92.4035 150.612L95.2729 141.193C95.81 139.474 95.7343 137.665 95.0573 136.04C94.7561 135.123 94.141 134.333 93.3019 133.785C92.4627 133.237 91.4435 132.959 90.3932 132.993C90.3932 132.993 87.2014 132.655 84.6368 135.877Z" fill="black"/>
<path d="M84.7966 136.338C84.7966 136.338 81.1641 135.353 78.6534 137.984C77.8761 138.809 77.4626 139.867 77.4999 140.935C77.515 141.794 77.7408 142.631 78.1604 143.381C78.58 144.132 79.1825 144.777 79.9227 145.269L88.8079 151.28C89.1137 151.491 89.4814 151.615 89.8689 151.638C90.2564 151.661 90.6481 151.582 90.9991 151.411L91.041 151.39C91.293 151.257 91.5155 151.08 91.6946 150.869C91.8737 150.657 92.0056 150.416 92.0824 150.16L94.7741 141.325C95.2779 139.712 95.2069 138.015 94.5718 136.491C94.2893 135.631 93.7123 134.889 92.9251 134.375C92.1379 133.861 91.1819 133.601 90.1966 133.632C90.1966 133.632 87.2025 133.316 84.7966 136.338Z" fill="#6C63FF"/>
<path opacity="0.1" d="M85.7585 139.437C85.241 139.309 84.6889 139.315 84.162 139.457C83.6351 139.598 83.1535 139.868 82.7697 140.238C82.3915 140.64 82.1903 141.154 82.2084 141.674C82.2158 142.092 82.3256 142.499 82.5298 142.864C82.7339 143.23 83.027 143.543 83.3871 143.783C83.3871 143.783 88.4302 146.944 88.7761 146.771L88.7965 146.76C89.0447 146.632 90.6127 141.864 90.6127 141.864C90.8579 141.079 90.8233 140.253 90.5143 139.512C90.3769 139.093 90.0962 138.733 89.7132 138.482C89.3302 138.232 88.865 138.106 88.3857 138.121C87.8715 138.112 87.3578 138.229 86.8965 138.46C86.4352 138.691 86.0426 139.028 85.7585 139.437Z" fill="black"/>
<path d="M73.9099 165.403C82.2566 165.403 89.0229 158.637 89.0229 150.29C89.0229 141.944 82.2566 135.177 73.9099 135.177C65.5632 135.177 58.7969 141.944 58.7969 150.29C58.7969 158.637 65.5632 165.403 73.9099 165.403Z" fill="#3F3D56"/>
<path opacity="0.1" d="M73.9099 165.403C82.2566 165.403 89.0229 158.637 89.0229 150.29C89.0229 141.944 82.2566 135.177 73.9099 135.177C65.5632 135.177 58.7969 141.944 58.7969 150.29C58.7969 158.637 65.5632 165.403 73.9099 165.403Z" fill="black"/>
<path d="M73.9101 163.905C81.429 163.905 87.5243 157.809 87.5243 150.29C87.5243 142.772 81.429 136.676 73.9101 136.676C66.3912 136.676 60.2959 142.772 60.2959 150.29C60.2959 157.809 66.3912 163.905 73.9101 163.905Z" fill="#3F3D56"/>
<path opacity="0.1" d="M73.31 142.594C73.31 142.594 69.8413 140.387 66.5302 142.594C65.5021 143.29 64.7843 144.358 64.5283 145.573C64.3066 146.546 64.3083 147.558 64.5333 148.531C64.7582 149.504 65.2005 150.414 65.8271 151.191L73.3176 160.653C73.5745 160.983 73.919 161.233 74.3116 161.376C74.7042 161.519 75.1292 161.549 75.5379 161.462L75.5869 161.451C75.8829 161.378 76.1608 161.245 76.4036 161.061C76.6464 160.877 76.8488 160.644 76.9985 160.379L82.2079 151.231C83.1716 149.565 83.5666 147.63 83.3332 145.72C83.2796 144.665 82.89 143.655 82.2214 142.837C81.5527 142.02 80.64 141.437 79.6168 141.175C79.6168 141.175 76.621 139.914 73.31 142.594Z" fill="black"/>
<path d="M73.3448 143.127C73.3448 143.127 70.0909 141.056 66.9849 143.127C66.0204 143.779 65.3471 144.781 65.1069 145.921C64.899 146.834 64.9006 147.783 65.1116 148.696C65.3226 149.609 65.7376 150.462 66.3253 151.191L73.3519 160.067C73.5929 160.376 73.916 160.611 74.2843 160.746C74.6527 160.88 75.0513 160.908 75.4347 160.826L75.4807 160.815C75.7583 160.747 76.0191 160.623 76.2468 160.45C76.4745 160.277 76.6644 160.059 76.8048 159.81L81.6916 151.228C82.5956 149.666 82.9662 147.851 82.7473 146.059C82.697 145.069 82.3315 144.122 81.7042 143.355C81.077 142.588 80.2209 142.041 79.261 141.796C79.261 141.796 76.4508 140.612 73.3448 143.127Z" fill="#6C63FF"/>
<path opacity="0.1" d="M73.4715 146.678C73.0049 146.395 72.4698 146.246 71.9243 146.246C71.3788 146.246 70.8438 146.395 70.3772 146.678C69.908 146.995 69.5804 147.483 69.4635 148.037C69.3623 148.481 69.3631 148.943 69.4658 149.387C69.5684 149.831 69.7703 150.246 70.0563 150.601C70.0563 150.601 74.1093 155.374 74.4882 155.289L74.5106 155.284C74.7836 155.218 77.5323 150.619 77.5323 150.619C77.9722 149.859 78.1525 148.976 78.0459 148.104C78.0215 147.623 77.8437 147.162 77.5385 146.789C77.2333 146.415 76.8168 146.15 76.3498 146.03C75.8555 145.875 75.329 145.853 74.8235 145.967C74.3181 146.081 73.8517 146.326 73.4715 146.678Z" fill="black"/>
<path d="M62.3852 112.507C62.0172 111.899 60.7315 111.915 60.7315 111.915C59.5609 113.654 56.747 111.807 56.747 111.807C54.657 112.742 53.3819 109.762 53.3819 109.762C50.5697 109.342 51.0042 106.388 51.0042 106.388C49.6051 106.107 49.9977 103.578 49.9977 103.578C49.9977 103.578 50.774 102.941 50.3919 102.475C50.164 101.93 50.0824 101.335 50.1552 100.749C45.9879 99.4808 41.5141 99.6595 37.4613 101.256C33.4086 102.853 30.0152 105.774 27.8332 109.544C25.6511 113.314 24.8087 117.712 25.443 122.021C26.0773 126.331 28.1509 130.299 31.3266 133.281C34.5023 136.262 38.5933 138.082 42.9343 138.443C47.2753 138.805 51.6109 137.687 55.236 135.272C58.8611 132.857 61.5625 129.286 62.9008 125.141C64.2392 120.995 64.1357 116.519 62.6073 112.44C62.5082 112.552 62.4314 112.583 62.3852 112.507Z" fill="#3F3D56"/>
<path opacity="0.1" d="M62.3852 112.507C62.0172 111.899 60.7315 111.915 60.7315 111.915C59.5609 113.654 56.747 111.807 56.747 111.807C54.657 112.742 53.3819 109.762 53.3819 109.762C50.5697 109.342 51.0042 106.388 51.0042 106.388C49.6051 106.107 49.9977 103.578 49.9977 103.578C49.9977 103.578 50.774 102.941 50.3919 102.475C50.164 101.93 50.0824 101.335 50.1552 100.749C45.9879 99.4808 41.5141 99.6595 37.4613 101.256C33.4086 102.853 30.0152 105.774 27.8332 109.544C25.6511 113.314 24.8087 117.712 25.443 122.021C26.0773 126.331 28.1509 130.299 31.3266 133.281C34.5023 136.262 38.5933 138.082 42.9343 138.443C47.2753 138.805 51.6109 137.687 55.236 135.272C58.8611 132.857 61.5625 129.286 62.9008 125.141C64.2392 120.995 64.1357 116.519 62.6073 112.44C62.5082 112.552 62.4314 112.583 62.3852 112.507Z" fill="black"/>
<path d="M61.2411 112.43C60.8911 111.853 59.6683 111.868 59.6683 111.868C58.555 113.522 55.8789 111.765 55.8789 111.765C53.8912 112.654 52.6785 109.82 52.6785 109.82C50.004 109.42 50.4172 106.611 50.4172 106.611C49.0866 106.344 49.46 103.938 49.46 103.938C49.46 103.938 50.1983 103.333 49.8349 102.89C49.6181 102.372 49.5405 101.806 49.6098 101.248C45.6465 100.042 41.3917 100.212 37.5373 101.731C33.6829 103.249 30.4557 106.027 28.3804 109.613C26.3052 113.198 25.504 117.38 26.1073 121.479C26.7105 125.578 28.6825 129.352 31.7028 132.187C34.7231 135.023 38.6138 136.753 42.7423 137.097C46.8708 137.441 50.9942 136.378 54.4419 134.081C57.8895 131.784 60.4587 128.388 61.7315 124.446C63.0044 120.503 62.906 116.246 61.4524 112.367C61.3581 112.473 61.285 112.502 61.2411 112.43Z" fill="#3F3D56"/>
<path d="M40.9884 112.695C40.9884 112.695 37.5059 111.935 35.0092 114.297C34.2359 115.038 33.8077 115.972 33.8149 116.902C33.8062 117.652 34.0017 118.375 34.3867 119.019C34.7718 119.662 35.3364 120.209 36.0381 120.618L44.4591 125.621C44.7489 125.796 45.1008 125.894 45.4745 125.904C45.8482 125.914 46.2287 125.834 46.5724 125.675L46.6135 125.656C46.8605 125.534 47.0802 125.373 47.259 125.184C47.4377 124.994 47.5717 124.78 47.6528 124.555L50.4923 116.775C51.0227 115.355 51 113.876 50.4277 112.564C50.1781 111.821 49.6407 111.19 48.8942 110.763C48.1476 110.336 47.2311 110.135 46.2784 110.189C46.2784 110.189 43.3944 109.994 40.9884 112.695Z" fill="#6C63FF"/>
<path opacity="0.1" d="M40.9884 112.695C40.9884 112.695 37.5059 111.935 35.0092 114.297C34.2359 115.038 33.8077 115.972 33.8149 116.902C33.8062 117.652 34.0017 118.375 34.3867 119.019C34.7718 119.662 35.3364 120.209 36.0381 120.618L44.4591 125.621C44.7489 125.796 45.1008 125.894 45.4745 125.904C45.8482 125.914 46.2287 125.834 46.5724 125.675L46.6135 125.656C46.8605 125.534 47.0802 125.373 47.259 125.184C47.4377 124.994 47.5717 124.78 47.6528 124.555L50.4923 116.775C51.0227 115.355 51 113.876 50.4277 112.564C50.1781 111.821 49.6407 111.19 48.8942 110.763C48.1476 110.336 47.2311 110.135 46.2784 110.189C46.2784 110.189 43.3944 109.994 40.9884 112.695Z" fill="black"/>
<path d="M41.122 113.068C41.122 113.068 37.8551 112.355 35.5131 114.571C34.7877 115.266 34.386 116.142 34.3927 117.015C34.3846 117.718 34.5679 118.397 34.9291 119C35.2903 119.604 35.82 120.117 36.4783 120.5L44.3777 125.194C44.6496 125.358 44.9796 125.45 45.3302 125.459C45.6808 125.468 46.0377 125.394 46.3602 125.245L46.3987 125.226C46.6304 125.112 46.8365 124.961 47.0042 124.783C47.1719 124.606 47.2976 124.405 47.3737 124.194L50.0373 116.895C50.5348 115.563 50.5136 114.176 49.9767 112.945C49.7426 112.249 49.2385 111.657 48.5382 111.256C47.8379 110.855 46.978 110.666 46.0844 110.717C46.0844 110.717 43.379 110.534 41.122 113.068Z" fill="#6C63FF"/>
<path opacity="0.1" d="M41.9143 115.58C41.4486 115.488 40.9481 115.507 40.467 115.636C39.9859 115.765 39.5427 115.998 39.1854 116.311C38.8325 116.649 38.6371 117.076 38.6403 117.5C38.6364 117.842 38.7256 118.172 38.9013 118.466C39.077 118.76 39.3347 119.009 39.655 119.196C39.655 119.196 44.1449 121.654 44.4628 121.504L44.4815 121.495C45.153 120.163 45.7439 118.81 46.2518 117.442C46.4939 116.794 46.4835 116.119 46.2223 115.52C46.1084 115.181 45.8631 114.893 45.5224 114.698C45.1817 114.503 44.7634 114.411 44.3286 114.436C43.8629 114.442 43.3944 114.551 42.9704 114.751C42.5465 114.952 42.1822 115.238 41.9143 115.58Z" fill="black"/>
<path opacity="0.1" d="M33.1807 121.926L33.5854 122.601L34.3956 123.951L34.6659 124.896L34.1252 125.706L34.8011 127.327L35.0706 128.272L34.5308 128.813L35.6113 129.623" fill="black"/>
<path opacity="0.1" d="M53.0313 115.984V117.064L52.3562 118.82L51.9507 119.764L52.6257 120.98L52.8961 121.79L53.9767 122.195L54.3814 122.871V124.491" fill="black"/>
<path opacity="0.1" d="M59.9184 117.064L58.838 117.739C58.838 117.739 58.2979 118.009 58.2979 118.144V119.225" fill="black"/>
<path opacity="0.1" d="M55.0566 113.283L55.327 114.633L55.0566 115.578" fill="black"/>
<path opacity="0.1" d="M56.1375 125.437L55.3272 126.652L54.3818 127.462V128.003L54.9225 128.678V129.488L54.517 130.298" fill="black"/>
<path opacity="0.1" d="M48.4395 102.479H47.0894L46.0088 103.425L44.2532 104.37L43.443 105.045V105.316L41.6873 106.26L41.1475 107.205" fill="black"/>
<path opacity="0.1" d="M33.8548 104.775L32.6394 107.206L32.2343 108.151L31.289 109.367C31.289 109.367 30.6138 110.582 30.4788 110.717C30.1337 110.889 29.7716 111.025 29.3984 111.122L30.7489 112.473" fill="black"/>
<path opacity="0.1" d="M28.4533 114.093L28.1829 115.848L28.4533 116.929V118.82L27.6431 122.33L28.4533 123.276L29.3987 124.491" fill="black"/>
<path opacity="0.1" d="M30.4795 114.903L31.2897 115.309L31.8296 117.064L32.9102 116.794L33.45 117.74" fill="black"/>
<path opacity="0.1" d="M45.3335 132.459L47.4938 132.189L48.4392 131.244H49.7902" fill="black"/>
<path opacity="0.1" d="M32.2349 129.623L33.0451 130.569L34.3952 130.973L35.3406 131.244L35.6109 132.729" fill="black"/>
<path opacity="0.1" d="M48.1699 125.031L49.1153 124.356L49.52 123.276L50.3302 123.14L50.7358 121.79" fill="black"/>
<path d="M4.06129 157.915L1.54245 164.632C1.54245 164.632 -0.136771 186.462 9.93856 185.623C20.0139 184.783 25.8912 172.189 25.8912 172.189C25.8912 172.189 20.0139 156.236 13.297 157.915C6.58012 159.595 4.06129 157.915 4.06129 157.915Z" fill="#FF6584"/>
<path d="M12.4572 162.113C12.4572 162.113 7.41957 177.226 13.2969 177.226C19.1741 177.226 30.0891 167.991 30.9287 160.434C31.7683 152.878 46.8813 124.331 35.9664 126.85C25.0514 129.368 20.0137 150.359 20.0137 150.359L12.4572 162.113Z" fill="#FBBEBE"/>
<path d="M132.522 162.953L137.767 171.719C137.767 171.719 140.078 188.141 128.324 188.141C116.569 188.141 99.7769 172.189 99.7769 172.189C99.7769 172.189 91.3808 168.83 86.3431 169.67C81.3054 170.509 53.5983 169.67 65.3528 155.396C77.1074 141.123 97.2581 155.396 97.2581 155.396L118.248 165.472L129.163 159.595L132.522 162.953Z" fill="#FBBEBE"/>
<path d="M125.385 151.618L116.989 165.052C116.989 165.052 136.3 167.571 137.979 171.769C139.658 175.967 130.423 149.939 130.423 149.939L125.385 151.618Z" fill="#FF6584"/>
<path d="M108.451 302.294V314.788H100.29V302.193L86.6382 279.524H95.303L104.723 295.191L114.144 279.524H122.154L108.451 302.294Z" fill="white"/>
<path d="M135.413 315.191C132.559 315.191 129.99 314.603 127.706 313.427C125.456 312.218 123.692 310.556 122.416 308.44C121.14 306.324 120.502 303.923 120.502 301.236C120.502 298.55 121.14 296.148 122.416 294.032C123.692 291.917 125.456 290.271 127.706 289.096C129.99 287.886 132.559 287.282 135.413 287.282C138.268 287.282 140.821 287.886 143.071 289.096C145.321 290.271 147.084 291.917 148.36 294.032C149.636 296.148 150.275 298.55 150.275 301.236C150.275 303.923 149.636 306.324 148.36 308.44C147.084 310.556 145.321 312.218 143.071 313.427C140.821 314.603 138.268 315.191 135.413 315.191ZM135.413 308.742C137.428 308.742 139.074 308.071 140.35 306.727C141.66 305.35 142.315 303.52 142.315 301.236C142.315 298.953 141.66 297.139 140.35 295.796C139.074 294.419 137.428 293.73 135.413 293.73C133.398 293.73 131.736 294.419 130.426 295.796C129.116 297.139 128.461 298.953 128.461 301.236C128.461 303.52 129.116 305.35 130.426 306.727C131.736 308.071 133.398 308.742 135.413 308.742Z" fill="white"/>
<path d="M183.335 287.685V314.788H175.88V311.564C174.839 312.739 173.596 313.646 172.152 314.284C170.708 314.888 169.146 315.191 167.467 315.191C163.907 315.191 161.086 314.166 159.003 312.118C156.921 310.069 155.88 307.03 155.88 302.999V287.685H163.739V301.841C163.739 306.207 165.569 308.39 169.23 308.39C171.111 308.39 172.622 307.785 173.764 306.576C174.906 305.334 175.477 303.503 175.477 301.085V287.685H183.335Z" fill="white"/>
<path d="M198.626 291.262C199.566 289.952 200.826 288.961 202.404 288.289C204.016 287.618 205.863 287.282 207.946 287.282V294.536C207.072 294.469 206.485 294.435 206.182 294.435C203.932 294.435 202.169 295.074 200.893 296.35C199.617 297.592 198.979 299.473 198.979 301.992V314.788H191.12V287.685H198.626V291.262Z" fill="white"/>
<path d="M236.704 288.289H243.656V294.335H236.906V314.788H229.047V294.335H224.865V288.289H229.047V287.08C229.047 283.991 229.954 281.539 231.767 279.725C233.614 277.912 236.2 277.005 239.525 277.005C240.701 277.005 241.809 277.139 242.85 277.408C243.925 277.643 244.815 277.996 245.52 278.466L243.454 284.159C242.548 283.52 241.49 283.201 240.281 283.201C237.896 283.201 236.704 284.511 236.704 287.131V288.289Z" fill="white"/>
<path d="M258.515 287.282C262.713 287.282 265.937 288.289 268.187 290.305C270.437 292.286 271.562 295.292 271.562 299.322V314.788H264.207V311.412C262.73 313.931 259.976 315.191 255.946 315.191C253.863 315.191 252.05 314.838 250.505 314.133C248.994 313.427 247.835 312.453 247.029 311.211C246.223 309.968 245.82 308.558 245.82 306.979C245.82 304.46 246.76 302.479 248.641 301.035C250.555 299.591 253.494 298.869 257.457 298.869H263.704C263.704 297.156 263.183 295.846 262.142 294.939C261.101 293.999 259.539 293.529 257.457 293.529C256.013 293.529 254.585 293.764 253.175 294.234C251.798 294.671 250.622 295.275 249.648 296.047L246.827 290.556C248.305 289.515 250.068 288.709 252.117 288.138C254.199 287.567 256.332 287.282 258.515 287.282ZM257.91 309.901C259.254 309.901 260.446 309.599 261.487 308.994C262.528 308.356 263.267 307.433 263.704 306.224V303.453H258.313C255.089 303.453 253.477 304.511 253.477 306.627C253.477 307.634 253.863 308.44 254.636 309.045C255.442 309.616 256.533 309.901 257.91 309.901Z" fill="white"/>
<path d="M305.588 287.685L294.152 314.788H286.042L274.657 287.685H282.767L290.273 306.123L298.031 287.685H305.588Z" fill="white"/>
<path d="M321.457 315.191C318.602 315.191 316.033 314.603 313.749 313.427C311.499 312.218 309.736 310.556 308.46 308.44C307.183 306.324 306.545 303.923 306.545 301.236C306.545 298.55 307.183 296.148 308.46 294.032C309.736 291.917 311.499 290.271 313.749 289.096C316.033 287.886 318.602 287.282 321.457 287.282C324.311 287.282 326.864 287.886 329.114 289.096C331.364 290.271 333.127 291.917 334.404 294.032C335.68 296.148 336.318 298.55 336.318 301.236C336.318 303.923 335.68 306.324 334.404 308.44C333.127 310.556 331.364 312.218 329.114 313.427C326.864 314.603 324.311 315.191 321.457 315.191ZM321.457 308.742C323.472 308.742 325.118 308.071 326.394 306.727C327.704 305.35 328.358 303.52 328.358 301.236C328.358 298.953 327.704 297.139 326.394 295.796C325.118 294.419 323.472 293.73 321.457 293.73C319.442 293.73 317.779 294.419 316.47 295.796C315.16 297.139 314.505 298.953 314.505 301.236C314.505 303.52 315.16 305.35 316.47 306.727C317.779 308.071 319.442 308.742 321.457 308.742Z" fill="white"/>
<path d="M349.581 291.262C350.521 289.952 351.781 288.961 353.359 288.289C354.971 287.618 356.818 287.282 358.9 287.282V294.536C358.027 294.469 357.44 294.435 357.137 294.435C354.887 294.435 353.124 295.074 351.848 296.35C350.572 297.592 349.933 299.473 349.933 301.992V314.788H342.075V287.685H349.581V291.262Z" fill="white"/>
<path d="M364.077 287.685H371.936V314.788H364.077V287.685ZM368.006 283.907C366.562 283.907 365.387 283.487 364.48 282.647C363.573 281.808 363.12 280.767 363.12 279.524C363.12 278.281 363.573 277.24 364.48 276.401C365.387 275.561 366.562 275.141 368.006 275.141C369.451 275.141 370.626 275.544 371.533 276.35C372.44 277.156 372.893 278.164 372.893 279.373C372.893 280.683 372.44 281.774 371.533 282.647C370.626 283.487 369.451 283.907 368.006 283.907Z" fill="white"/>
<path d="M397.214 313.478C396.441 314.049 395.484 314.485 394.342 314.788C393.234 315.056 392.059 315.191 390.816 315.191C387.592 315.191 385.09 314.368 383.31 312.722C381.564 311.077 380.69 308.658 380.69 305.468V294.335H376.509V288.289H380.69V281.69H388.549V288.289H395.3V294.335H388.549V305.367C388.549 306.509 388.835 307.399 389.406 308.037C390.01 308.642 390.85 308.944 391.924 308.944C393.167 308.944 394.225 308.608 395.098 307.936L397.214 313.478Z" fill="white"/>
<path d="M427.841 301.337C427.841 301.438 427.791 302.143 427.69 303.453H407.187C407.556 305.132 408.43 306.459 409.806 307.433C411.183 308.407 412.896 308.894 414.945 308.894C416.355 308.894 417.598 308.692 418.673 308.289C419.781 307.852 420.805 307.181 421.746 306.274L425.927 310.808C423.375 313.73 419.647 315.191 414.743 315.191C411.687 315.191 408.984 314.603 406.633 313.427C404.282 312.218 402.468 310.556 401.192 308.44C399.916 306.324 399.278 303.923 399.278 301.236C399.278 298.583 399.899 296.199 401.142 294.083C402.418 291.933 404.148 290.271 406.331 289.096C408.547 287.886 411.016 287.282 413.736 287.282C416.389 287.282 418.79 287.853 420.94 288.995C423.089 290.137 424.768 291.782 425.977 293.932C427.22 296.047 427.841 298.516 427.841 301.337ZM413.786 293.226C412.006 293.226 410.512 293.73 409.303 294.738C408.094 295.745 407.355 297.122 407.086 298.869H420.436C420.167 297.156 419.428 295.796 418.219 294.788C417.01 293.747 415.533 293.226 413.786 293.226Z" fill="white"/>
<path d="M442.695 315.191C440.445 315.191 438.245 314.922 436.096 314.385C433.947 313.814 432.234 313.108 430.958 312.269L433.577 306.627C434.786 307.399 436.247 308.037 437.96 308.541C439.673 309.011 441.352 309.246 442.998 309.246C446.322 309.246 447.985 308.423 447.985 306.778C447.985 306.005 447.532 305.451 446.625 305.115C445.718 304.779 444.324 304.494 442.443 304.259C440.227 303.923 438.397 303.537 436.952 303.1C435.508 302.664 434.249 301.891 433.174 300.783C432.133 299.675 431.612 298.096 431.612 296.047C431.612 294.335 432.099 292.823 433.073 291.514C434.081 290.17 435.525 289.129 437.406 288.39C439.32 287.651 441.57 287.282 444.156 287.282C446.071 287.282 447.968 287.5 449.849 287.937C451.763 288.34 453.342 288.911 454.584 289.65L451.965 295.241C449.58 293.898 446.977 293.226 444.156 293.226C442.477 293.226 441.218 293.461 440.378 293.932C439.538 294.402 439.119 295.006 439.119 295.745C439.119 296.585 439.572 297.173 440.479 297.508C441.386 297.844 442.83 298.163 444.811 298.466C447.028 298.835 448.841 299.238 450.252 299.675C451.662 300.078 452.888 300.833 453.929 301.942C454.97 303.05 455.491 304.595 455.491 306.576C455.491 308.255 454.987 309.75 453.98 311.06C452.972 312.37 451.494 313.394 449.547 314.133C447.632 314.838 445.349 315.191 442.695 315.191Z" fill="white"/>
<path d="M134.496 351.495L124.673 378.598H117.116L111.02 361.772L104.723 378.598H97.1669L87.3938 351.495H94.7992L101.197 369.833L107.847 351.495H114.496L120.945 369.833L127.544 351.495H134.496Z" fill="white"/>
<path d="M138.653 351.495H146.512V378.598H138.653V351.495ZM142.583 347.717C141.139 347.717 139.963 347.297 139.056 346.458C138.15 345.618 137.696 344.577 137.696 343.334C137.696 342.092 138.15 341.051 139.056 340.211C139.963 339.371 141.139 338.952 142.583 338.952C144.027 338.952 145.202 339.355 146.109 340.161C147.016 340.967 147.469 341.974 147.469 343.183C147.469 344.493 147.016 345.585 146.109 346.458C145.202 347.297 144.027 347.717 142.583 347.717Z" fill="white"/>
<path d="M154.309 341.219H162.168V378.598H154.309V341.219Z" fill="white"/>
<path d="M169.966 341.219H177.824V378.598H169.966V341.219Z" fill="white"/>
<path d="M216.412 351.092C218.931 351.092 221.215 351.68 223.263 352.856C225.345 353.997 226.974 355.626 228.15 357.742C229.325 359.824 229.913 362.259 229.913 365.047C229.913 367.834 229.325 370.286 228.15 372.402C226.974 374.484 225.345 376.113 223.263 377.288C221.215 378.43 218.931 379.001 216.412 379.001C212.684 379.001 209.846 377.826 207.898 375.475V378.598H200.392V341.219H208.251V354.367C210.232 352.184 212.953 351.092 216.412 351.092ZM215.052 372.553C217.067 372.553 218.713 371.881 219.989 370.538C221.299 369.161 221.953 367.33 221.953 365.047C221.953 362.763 221.299 360.949 219.989 359.606C218.713 358.229 217.067 357.541 215.052 357.541C213.037 357.541 211.374 358.229 210.065 359.606C208.788 360.949 208.15 362.763 208.15 365.047C208.15 367.33 208.788 369.161 210.065 370.538C211.374 371.881 213.037 372.553 215.052 372.553Z" fill="white"/>
<path d="M262.226 365.147C262.226 365.248 262.176 365.954 262.075 367.263H241.572C241.941 368.943 242.814 370.269 244.191 371.243C245.568 372.217 247.281 372.704 249.33 372.704C250.74 372.704 251.983 372.502 253.058 372.099C254.166 371.663 255.19 370.991 256.13 370.084L260.312 374.618C257.759 377.54 254.031 379.001 249.128 379.001C246.072 379.001 243.368 378.413 241.018 377.238C238.667 376.029 236.853 374.366 235.577 372.251C234.301 370.135 233.662 367.733 233.662 365.047C233.662 362.394 234.284 360.009 235.526 357.893C236.803 355.744 238.532 354.081 240.715 352.906C242.932 351.697 245.4 351.092 248.121 351.092C250.774 351.092 253.175 351.663 255.324 352.805C257.474 353.947 259.153 355.593 260.362 357.742C261.605 359.858 262.226 362.326 262.226 365.147ZM248.171 357.037C246.391 357.037 244.896 357.541 243.687 358.548C242.478 359.556 241.74 360.933 241.471 362.679H254.821C254.552 360.966 253.813 359.606 252.604 358.599C251.395 357.557 249.917 357.037 248.171 357.037Z" fill="white"/>
<path d="M299.206 351.092C302.564 351.092 305.268 352.1 307.316 354.115C309.399 356.13 310.44 359.119 310.44 363.082V378.598H302.581V364.291C302.581 362.142 302.111 360.546 301.17 359.505C300.23 358.431 298.87 357.893 297.09 357.893C295.108 357.893 293.53 358.515 292.354 359.757C291.179 360.966 290.591 362.78 290.591 365.198V378.598H282.733V341.219H290.591V354.317C291.632 353.275 292.892 352.486 294.37 351.949C295.847 351.378 297.459 351.092 299.206 351.092Z" fill="white"/>
<path d="M344.911 365.147C344.911 365.248 344.86 365.954 344.76 367.263H324.256C324.626 368.943 325.499 370.269 326.876 371.243C328.253 372.217 329.966 372.704 332.014 372.704C333.425 372.704 334.667 372.502 335.742 372.099C336.85 371.663 337.875 370.991 338.815 370.084L342.996 374.618C340.444 377.54 336.716 379.001 331.813 379.001C328.757 379.001 326.053 378.413 323.702 377.238C321.351 376.029 319.538 374.366 318.261 372.251C316.985 370.135 316.347 367.733 316.347 365.047C316.347 362.394 316.968 360.009 318.211 357.893C319.487 355.744 321.217 354.081 323.4 352.906C325.616 351.697 328.085 351.092 330.805 351.092C333.458 351.092 335.86 351.663 338.009 352.805C340.159 353.947 341.838 355.593 343.047 357.742C344.289 359.858 344.911 362.326 344.911 365.147ZM330.856 357.037C329.076 357.037 327.581 357.541 326.372 358.548C325.163 359.556 324.424 360.933 324.156 362.679H337.505C337.237 360.966 336.498 359.606 335.289 358.599C334.08 357.557 332.602 357.037 330.856 357.037Z" fill="white"/>
<path d="M358.153 355.072C359.093 353.762 360.352 352.772 361.931 352.1C363.543 351.428 365.39 351.092 367.472 351.092V358.347C366.599 358.279 366.011 358.246 365.709 358.246C363.459 358.246 361.696 358.884 360.42 360.16C359.143 361.403 358.505 363.284 358.505 365.802V378.598H350.647V351.495H358.153V355.072Z" fill="white"/>
<path d="M398.952 365.147C398.952 365.248 398.901 365.954 398.8 367.263H378.297C378.667 368.943 379.54 370.269 380.917 371.243C382.294 372.217 384.006 372.704 386.055 372.704C387.466 372.704 388.708 372.502 389.783 372.099C390.891 371.663 391.916 370.991 392.856 370.084L397.037 374.618C394.485 377.54 390.757 379.001 385.854 379.001C382.797 379.001 380.094 378.413 377.743 377.238C375.392 376.029 373.578 374.366 372.302 372.251C371.026 370.135 370.388 367.733 370.388 365.047C370.388 362.394 371.009 360.009 372.252 357.893C373.528 355.744 375.258 354.081 377.441 352.906C379.657 351.697 382.126 351.092 384.846 351.092C387.499 351.092 389.9 351.663 392.05 352.805C394.199 353.947 395.879 355.593 397.088 357.742C398.33 359.858 398.952 362.326 398.952 365.147ZM384.896 357.037C383.116 357.037 381.622 357.541 380.413 358.548C379.204 359.556 378.465 360.933 378.196 362.679H391.546C391.277 360.966 390.539 359.606 389.33 358.599C388.121 357.557 386.643 357.037 384.896 357.037Z" fill="white"/>
</svg>
