<svg width="643" height="500" viewBox="0 0 643 500" fill="none" xmlns="http://www.w3.org/2000/svg">
<path d="M189.305 253.672L14.6221 306.463L47.053 413.866L221.736 361.075L189.305 253.672Z" fill="url(#paint0_linear)"/>
<path d="M184.784 257.878L16.3137 308.123L46.1302 408.182L214.6 357.938L184.784 257.878Z" fill="white"/>
<g opacity="0.6">
<path opacity="0.6" d="M47.3594 307.142L25.9307 313.53L30.6614 329.399L52.0901 323.011L47.3594 307.142Z" fill="#F55F44"/>
<path opacity="0.6" d="M139.905 325.298L57.4543 350.216L59.0109 355.371L141.461 330.453L139.905 325.298Z" fill="#F55F44"/>
<path opacity="0.6" d="M142.048 338.2L82.0332 356.098L83.0545 359.525L143.069 341.627L142.048 338.2Z" fill="#F55F44"/>
</g>
<path d="M459.506 -0.000403928L438.129 109.814L616.735 144.611L638.111 34.7963L459.506 -0.000403928Z" fill="url(#paint1_linear)"/>
<path d="M461.166 3.17452L441.216 105.66L613.772 139.278L633.722 36.7925L461.166 3.17452Z" fill="white"/>
<g opacity="0.6">
<path opacity="0.6" d="M467.102 12.4217L463.937 28.6758L485.884 32.95L489.05 16.6959L467.102 12.4217Z" fill="#F55F44"/>
<path opacity="0.6" d="M476.817 58.5458L475.791 63.8164L560.093 80.2405L561.119 74.9699L476.817 58.5458Z" fill="#F55F44"/>
<path opacity="0.6" d="M497.082 76.1753L496.398 79.6855L557.868 91.6613L558.551 88.1511L497.082 76.1753Z" fill="#F55F44"/>
</g>
<path d="M570.574 216.831L467.979 261.353L540.39 428.356L642.985 383.834L570.574 216.831Z" fill="url(#paint2_linear)"/>
<path d="M568.902 219.984L473.154 261.534L543.113 422.879L638.86 381.329L568.902 219.984Z" fill="white"/>
<g opacity="0.6">
<path opacity="0.6" d="M564.633 230.152L549.448 236.742L558.346 257.264L573.531 250.674L564.633 230.152Z" fill="#47E6B1"/>
<path opacity="0.6" d="M532.121 264.264L527.197 266.4L561.387 345.22L566.312 343.084L532.121 264.264Z" fill="#47E6B1"/>
<path opacity="0.6" d="M529.066 290.948L525.786 292.371L550.717 349.843L553.996 348.421L529.066 290.948Z" fill="#47E6B1"/>
</g>
<path d="M233.453 0.794233L61.9609 61.6494L99.346 167.091L270.838 106.235L233.453 0.794233Z" fill="url(#paint3_linear)"/>
<path d="M229.926 5.74483L64.6772 63.7822L99.1184 161.928L264.368 103.891L229.926 5.74483Z" fill="white"/>
<g opacity="0.6">
<path opacity="0.6" d="M95.8943 61.0071L74.8198 68.4824L80.3555 84.0886L101.43 76.6133L95.8943 61.0071Z" fill="#6C63FF"/>
<path opacity="0.6" d="M187.563 74.5423L106.618 103.267L108.413 108.327L189.357 79.6029L187.563 74.5423Z" fill="#6C63FF"/>
<path opacity="0.6" d="M192.041 87.1832L133.019 108.127L134.214 111.498L193.236 90.5537L192.041 87.1832Z" fill="#6C63FF"/>
</g>
<path d="M328.417 6.66943L116.559 206.189V499.999H540.264V206.189L328.417 6.66943Z" fill="url(#paint4_linear)"/>
<path d="M538.115 493.56H118.708V205.717L328.417 10.2456L538.115 205.717V493.56Z" fill="white"/>
<path d="M474.421 50.3496H182.412V394.037H474.421V50.3496Z" fill="url(#paint5_linear)"/>
<path d="M470.721 53.2114H186.091V394.026H470.721V53.2114Z" fill="white"/>
<path d="M118.708 205.717L328.417 349.634L118.708 493.56V205.717Z" fill="#F5F5F5"/>
<path d="M538.115 205.717L328.417 349.634L538.115 493.56V205.717Z" fill="#F5F5F5"/>
<path d="M118.708 493.549L320.177 336.734C322.519 334.884 325.416 333.877 328.401 333.877C331.385 333.877 334.282 334.884 336.625 336.734L538.115 493.549H118.708Z" fill="url(#paint6_linear)"/>
<path d="M118.708 493.55L320.177 343.582C322.555 341.816 325.439 340.862 328.401 340.862C331.363 340.862 334.246 341.816 336.625 343.582L538.115 493.55H118.708Z" fill="white"/>
<path d="M288.687 119.082H229.281V129.108H288.687V119.082Z" fill="#47E6B1"/>
<path d="M427.532 145.573H229.281V155.599H427.532V145.573Z" fill="#F5F5F5"/>
<path d="M427.532 162.751H229.281V172.777H427.532V162.751Z" fill="#F5F5F5"/>
<path d="M427.532 179.939H229.281V189.965H427.532V179.939Z" fill="#F5F5F5"/>
<path d="M427.532 197.118H229.281V207.144H427.532V197.118Z" fill="#F5F5F5"/>
<path d="M319.464 214.306H229.281V224.332H319.464V214.306Z" fill="#F5F5F5"/>
<path d="M427.542 214.306H337.358V224.332H427.542V214.306Z" fill="#6C63FF"/>
<path d="M28.9955 342.943C26.4064 344.566 23.3898 345.374 20.3367 345.261C11.6883 345.261 6.64608 340.825 6.64608 332.099V317.008H0.985352V308.828H6.64608V299.945H17.2757V308.88H26.4062V317.06H17.2757V331.932C17.2757 335.078 18.9739 336.777 21.8357 336.777C23.3772 336.793 24.8835 336.316 26.1337 335.413L28.9955 342.943Z" fill="#2F2E41"/>
<path d="M31.1025 326.342C31.1025 315.298 39.6251 307.464 51.2715 307.464C62.9179 307.464 71.3776 315.298 71.3776 326.342C71.3776 337.385 62.9284 345.219 51.2715 345.219C39.6146 345.219 31.1025 337.385 31.1025 326.342ZM60.6117 326.342C60.6117 320.049 56.5863 316.19 51.2715 316.19C45.9567 316.19 41.837 320.007 41.837 326.342C41.837 332.676 45.9253 336.504 51.2715 336.504C56.6177 336.504 60.6117 332.687 60.6117 326.342V326.342Z" fill="#2F2E41"/>
<path d="M130.176 323.751V344.726H120.228V340.112C118.257 343.457 114.441 345.23 109.053 345.23C100.467 345.23 95.3518 340.458 95.3518 334.113C95.3518 327.768 99.9223 323.143 111.076 323.143H119.525C119.525 318.571 116.8 315.917 111.076 315.917C107.3 315.897 103.618 317.092 100.572 319.326L96.7565 311.89C100.782 309.027 106.705 307.464 112.565 307.464C123.708 307.464 130.176 312.645 130.176 323.751ZM119.546 333.096V329.31H112.261C107.281 329.31 105.709 331.156 105.709 333.61C105.709 336.263 107.963 338.035 111.716 338.035C115.248 338.067 118.32 336.431 119.546 333.096Z" fill="#2F2E41"/>
<path d="M137.461 326.342C137.461 315.298 145.984 307.464 157.903 307.464C165.608 307.464 171.667 310.799 174.33 316.798L166.08 321.234C165.316 319.706 164.139 318.423 162.682 317.531C161.226 316.639 159.548 316.175 157.84 316.19C152.452 316.19 148.227 319.934 148.227 326.342C148.227 332.75 152.42 336.504 157.84 336.504C159.55 336.532 161.233 336.072 162.692 335.179C164.151 334.286 165.326 332.996 166.08 331.46L174.33 335.959C171.667 341.821 165.608 345.23 157.903 345.23C145.984 345.23 137.461 337.385 137.461 326.342Z" fill="#2F2E41"/>
<path d="M177.254 326.342C177.254 315.298 185.777 307.464 197.696 307.464C205.401 307.464 211.46 310.799 214.122 316.798L205.872 321.234C205.109 319.706 203.932 318.423 202.475 317.531C201.018 316.639 199.341 316.175 197.633 316.19C192.245 316.19 188.02 319.934 188.02 326.342C188.02 332.75 192.213 336.504 197.633 336.504C199.343 336.532 201.026 336.072 202.485 335.179C203.944 334.286 205.119 332.996 205.872 331.46L214.122 335.959C211.46 341.821 205.401 345.23 197.696 345.23C185.777 345.23 177.254 337.385 177.254 326.342Z" fill="#2F2E41"/>
<path d="M255.477 329.31H227.75C228.798 333.882 232.656 336.651 238.233 336.651C239.926 336.72 241.616 336.442 243.197 335.832C244.778 335.222 246.218 334.295 247.426 333.106L253.087 339.241C249.68 343.132 244.564 345.177 237.96 345.177C225.287 345.177 216.995 337.196 216.995 326.3C216.995 315.403 225.381 307.422 236.556 307.422C247.321 307.422 255.634 314.648 255.634 326.436C255.718 327.296 255.551 328.46 255.477 329.31ZM227.614 323.112H245.665C245.307 320.975 244.204 319.035 242.552 317.636C240.899 316.237 238.804 315.469 236.639 315.469C234.474 315.469 232.38 316.237 230.727 317.636C229.075 319.035 227.971 320.975 227.614 323.112V323.112Z" fill="#2F2E41"/>
<path d="M259.23 341.276L262.773 333.641C266.627 335.937 271.024 337.161 275.51 337.186C280.416 337.186 282.261 335.885 282.261 333.84C282.261 327.841 260.111 333.977 260.111 319.326C260.111 312.372 266.4 307.464 277.082 307.464C282.124 307.464 287.712 308.618 291.182 310.663L287.638 318.235C284.421 316.413 280.779 315.473 277.082 315.508C272.313 315.508 270.268 317.008 270.268 318.917C270.268 325.209 292.408 319.116 292.408 333.599C292.408 340.416 286.118 345.261 275.101 345.261C268.906 345.23 262.637 343.52 259.23 341.276Z" fill="#2F2E41"/>
<path d="M295.406 341.276L298.949 333.641C302.806 335.939 307.207 337.163 311.696 337.186C316.602 337.186 318.437 335.885 318.437 333.84C318.437 327.841 296.297 333.977 296.297 319.326C296.297 312.372 302.587 307.464 313.258 307.464C318.301 307.464 323.888 308.618 327.368 310.663L323.856 318.235C320.635 316.413 316.99 315.473 313.29 315.508C308.52 315.508 306.476 317.008 306.476 318.917C306.476 325.209 328.626 319.116 328.626 333.599C328.626 340.416 322.336 345.261 311.319 345.261C305.082 345.23 298.813 343.52 295.406 341.276Z" fill="#2F2E41"/>
<path d="M386.848 323.751V344.726H376.9V340.112C374.929 343.457 371.113 345.23 365.725 345.23C357.14 345.23 352.034 340.458 352.034 334.113C352.034 327.768 356.594 323.143 367.759 323.143H376.271C376.271 318.571 373.545 315.917 367.822 315.917C364.027 315.884 360.324 317.08 357.265 319.326L353.45 311.89C357.465 309.027 363.398 307.464 369.258 307.464C380.38 307.464 386.848 312.645 386.848 323.751ZM376.271 333.096V329.31H368.933C363.953 329.31 362.391 331.156 362.391 333.61C362.391 336.263 364.635 338.035 368.388 338.035C371.931 338.067 374.992 336.431 376.271 333.096Z" fill="#2F2E41"/>
<path d="M394.144 326.342C394.144 315.298 402.656 307.464 414.585 307.464C422.28 307.464 428.349 310.799 431.001 316.798L422.762 321.234C421.996 319.706 420.816 318.423 419.358 317.532C417.9 316.64 416.221 316.175 414.512 316.19C409.134 316.19 404.91 319.934 404.91 326.342C404.91 332.75 409.103 336.504 414.512 336.504C416.224 336.533 417.908 336.073 419.369 335.18C420.83 334.287 422.007 332.997 422.762 331.46L431.001 335.959C428.349 341.821 422.28 345.23 414.585 345.23C402.656 345.23 394.144 337.385 394.144 326.342Z" fill="#2F2E41"/>
<path d="M433.926 326.342C433.926 315.298 442.438 307.464 454.368 307.464C462.062 307.464 468.132 310.799 470.784 316.798L462.544 321.234C461.778 319.706 460.599 318.423 459.141 317.532C457.682 316.64 456.003 316.175 454.294 316.19C448.917 316.19 444.692 319.934 444.692 326.342C444.692 332.75 448.885 336.504 454.294 336.504C456.006 336.533 457.691 336.073 459.152 335.18C460.612 334.287 461.789 332.997 462.544 331.46L470.784 335.959C468.132 341.821 462.062 345.23 454.368 345.23C442.449 345.23 433.926 337.385 433.926 326.342Z" fill="#2F2E41"/>
<path d="M473.761 326.342C473.761 315.298 482.273 307.464 493.93 307.464C505.587 307.464 514.026 315.298 514.026 326.342C514.026 337.385 505.576 345.219 493.93 345.219C482.284 345.219 473.761 337.385 473.761 326.342ZM503.26 326.342C503.26 320.049 499.245 316.19 493.93 316.19C488.615 316.19 484.495 320.007 484.495 326.342C484.495 332.676 488.584 336.504 493.93 336.504C499.276 336.504 503.228 332.687 503.228 326.342H503.26Z" fill="#2F2E41"/>
<path d="M558.011 308.01V344.716H547.927V340.322C546.497 341.911 544.74 343.173 542.777 344.02C540.814 344.867 538.691 345.28 536.553 345.23C527.349 345.23 520.881 340.049 520.881 328.733V308.01H531.511V327.212C531.511 333.347 534.236 336.074 538.933 336.074C543.839 336.074 547.382 332.928 547.382 326.195V308.01H558.011Z" fill="#2F2E41"/>
<path d="M605.373 323.688V344.663H594.743V325.324C594.743 319.388 592.018 316.662 587.311 316.662C582.206 316.662 578.526 319.808 578.526 326.551V344.684H567.886V307.978H578.044V312.267C580.906 309.121 585.204 307.433 590.173 307.433C598.832 307.464 605.373 312.53 605.373 323.688Z" fill="#2F2E41"/>
<path d="M638.625 342.943C636.035 344.566 633.019 345.374 629.966 345.261C621.317 345.261 616.265 340.825 616.265 332.099V317.008H610.614V308.828H616.265V299.945H626.905V308.88H636.035V317.06H626.905V331.932C626.905 335.078 628.603 336.777 631.465 336.777C633.006 336.793 634.512 336.316 635.763 335.413L638.625 342.943Z" fill="#2F2E41"/>
<path d="M68.9854 247.414C68.9854 233.026 80.0238 222.738 94.8779 222.738C103.117 222.738 110.005 225.737 114.502 231.191L107.415 237.735C105.959 235.968 104.127 234.549 102.052 233.582C99.9768 232.614 97.712 232.124 95.4231 232.145C86.4917 232.145 80.16 238.437 80.16 247.414C80.16 256.391 86.4497 262.684 95.4231 262.684C97.7198 262.708 99.992 262.21 102.069 261.229C104.146 260.249 105.974 258.81 107.415 257.021L114.502 263.565C110.005 269.091 103.117 272.091 94.8046 272.091C80.0447 272.091 68.9854 261.792 68.9854 247.414Z" fill="#2F2E41"/>
<path d="M116.702 252.931C116.702 241.888 125.214 234.054 136.871 234.054C148.528 234.054 156.967 241.888 156.967 252.931C156.967 263.974 148.518 271.809 136.871 271.809C125.225 271.809 116.702 263.974 116.702 252.931ZM146.201 252.931C146.201 246.639 142.186 242.779 136.871 242.779C131.557 242.779 127.437 246.597 127.437 252.931C127.437 259.266 131.525 263.093 136.871 263.093C142.218 263.093 146.201 259.276 146.201 252.931Z" fill="#2F2E41"/>
<path d="M201.529 250.278V271.253H190.9V251.914C190.9 245.978 188.174 243.251 183.478 243.251C178.362 243.251 174.683 246.398 174.683 253.141V271.274H164.053V234.568H174.211V238.857C177.073 235.711 181.36 234.022 186.34 234.022C194.988 234.054 201.529 239.119 201.529 250.278Z" fill="#2F2E41"/>
<path d="M222.789 233.875V235.448H232.223V243.628H223.082V271.304H212.431V243.597H206.771V235.417H212.431V233.781C212.431 225.527 217.474 220.147 226.604 220.147C229.602 220.147 232.737 220.756 234.718 222.119L231.919 229.827C230.658 228.962 229.161 228.508 227.632 228.527C224.497 228.527 222.789 230.236 222.789 233.875ZM241.658 223.587C241.658 220.242 244.31 217.651 248.262 217.651C252.214 217.651 254.876 220.105 254.876 223.377C254.876 226.922 252.214 229.512 248.262 229.512C244.31 229.512 241.668 226.891 241.668 223.556L241.658 223.587ZM242.999 234.599H253.587V271.304H242.999V234.599Z" fill="#2F2E41"/>
<path d="M286.22 234.054V243.87C285.34 243.797 284.658 243.734 283.841 243.734C277.981 243.734 274.092 246.88 274.092 253.959V271.274H263.462V234.568H273.62V239.402C276.209 235.889 280.57 234.054 286.22 234.054Z" fill="#2F2E41"/>
<path d="M354.505 250.278V271.253H343.876V251.914C343.876 245.978 341.213 243.252 336.926 243.252C332.156 243.252 328.812 246.324 328.812 252.869V271.274H318.182V251.914C318.182 245.978 315.656 243.252 311.232 243.252C306.525 243.252 303.192 246.324 303.192 252.869V271.274H292.562V234.568H302.752V238.763C304.213 237.178 306.001 235.931 307.992 235.107C309.983 234.283 312.13 233.902 314.283 233.991C319.398 233.991 323.717 235.963 326.348 239.99C327.947 238.046 329.97 236.494 332.261 235.454C334.553 234.414 337.052 233.914 339.567 233.991C348.237 234.054 354.505 239.12 354.505 250.278Z" fill="#2F2E41"/>
<path d="M419.027 255.9H391.29C392.338 260.472 396.196 263.241 401.772 263.241C403.467 263.31 405.158 263.031 406.741 262.421C408.324 261.812 409.765 260.884 410.976 259.696L416.637 265.831C413.22 269.722 408.115 271.767 401.5 271.767C388.826 271.767 380.587 263.786 380.587 252.89C380.587 241.993 388.973 234.012 400.137 234.012C410.903 234.012 419.216 241.238 419.216 253.026C419.226 253.886 419.111 255.05 419.027 255.9ZM391.153 249.701H409.215C408.851 247.569 407.744 245.635 406.092 244.24C404.439 242.845 402.347 242.08 400.184 242.08C398.022 242.08 395.93 242.845 394.277 244.24C392.624 245.635 391.518 247.569 391.153 249.701V249.701Z" fill="#2F2E41"/>
<path d="M488.298 250.278V271.253H477.626V251.914C477.626 245.978 474.964 243.251 470.676 243.251C465.906 243.251 462.562 246.324 462.562 252.868V271.274H451.933V251.914C451.933 245.978 449.417 243.251 444.983 243.251C440.286 243.251 436.942 246.324 436.942 252.868V271.274H426.313V234.568H436.471V238.763C437.931 237.178 439.719 235.93 441.711 235.106C443.702 234.282 445.849 233.901 448.002 233.991C453.117 233.991 457.436 235.963 460.067 239.99C461.666 238.045 463.689 236.494 465.98 235.454C468.272 234.414 470.771 233.913 473.286 233.991C482.008 234.054 488.298 239.119 488.298 250.278Z" fill="#2F2E41"/>
<path d="M530.229 250.341V271.316H520.281V266.701C518.3 270.047 514.484 271.819 509.106 271.819C500.521 271.819 495.405 267.047 495.405 260.702C495.405 254.357 499.976 249.732 511.129 249.732H519.578C519.578 245.16 516.853 242.507 511.129 242.507C507.332 242.473 503.625 243.669 500.563 245.915L496.747 238.479C500.772 235.616 506.695 234.054 512.555 234.054C523.751 234.054 530.229 239.235 530.229 250.341ZM519.599 259.685V255.899H512.261C507.293 255.899 505.72 257.745 505.72 260.199C505.72 262.852 507.974 264.625 511.716 264.625C515.301 264.656 518.373 263.02 519.599 259.685V259.685Z" fill="#2F2E41"/>
<path d="M538.542 223.556C538.542 220.21 541.194 217.62 545.146 217.62C549.098 217.62 551.761 220.074 551.761 223.346C551.761 226.891 549.098 229.481 545.146 229.481C541.194 229.481 538.542 226.891 538.542 223.556ZM539.831 234.599H550.461V271.304H539.831V234.599Z" fill="#2F2E41"/>
<path d="M560.346 220.693H570.976V271.273H560.346V220.693Z" fill="#2F2E41"/>
<defs>
<linearGradient id="paint0_linear" x1="134.394" y1="387.47" x2="101.938" y2="280.075" gradientUnits="userSpaceOnUse">
<stop stop-color="#808080" stop-opacity="0.25"/>
<stop offset="0.54" stop-color="#808080" stop-opacity="0.12"/>
<stop offset="1" stop-color="#808080" stop-opacity="0.1"/>
</linearGradient>
<linearGradient id="paint1_linear" x1="9365.43" y1="-60317" x2="13078.6" y2="-79376.2" gradientUnits="userSpaceOnUse">
<stop stop-color="#808080" stop-opacity="0.25"/>
<stop offset="0.54" stop-color="#808080" stop-opacity="0.12"/>
<stop offset="1" stop-color="#808080" stop-opacity="0.1"/>
</linearGradient>
<linearGradient id="paint2_linear" x1="5974.04" y1="17572" x2="23784.7" y2="9849.42" gradientUnits="userSpaceOnUse">
<stop stop-color="#808080" stop-opacity="0.25"/>
<stop offset="0.54" stop-color="#808080" stop-opacity="0.12"/>
<stop offset="1" stop-color="#808080" stop-opacity="0.1"/>
</linearGradient>
<linearGradient id="paint3_linear" x1="-40137.5" y1="-25590" x2="-44128.7" y2="-36837.4" gradientUnits="userSpaceOnUse">
<stop stop-color="#808080" stop-opacity="0.25"/>
<stop offset="0.54" stop-color="#808080" stop-opacity="0.12"/>
<stop offset="1" stop-color="#808080" stop-opacity="0.1"/>
</linearGradient>
<linearGradient id="paint4_linear" x1="132461" y1="-880.125" x2="132461" y2="-232947" gradientUnits="userSpaceOnUse">
<stop stop-color="#808080" stop-opacity="0.25"/>
<stop offset="0.54" stop-color="#808080" stop-opacity="0.12"/>
<stop offset="1" stop-color="#808080" stop-opacity="0.1"/>
</linearGradient>
<linearGradient id="paint5_linear" x1="91391.6" y1="-35232.5" x2="91391.6" y2="-147866" gradientUnits="userSpaceOnUse">
<stop stop-color="#808080" stop-opacity="0.25"/>
<stop offset="0.54" stop-color="#808080" stop-opacity="0.12"/>
<stop offset="1" stop-color="#808080" stop-opacity="0.1"/>
</linearGradient>
<linearGradient id="paint6_linear" x1="200004" y1="15301.9" x2="200004" y2="-9008.2" gradientUnits="userSpaceOnUse">
<stop stop-color="#808080" stop-opacity="0.25"/>
<stop offset="0.54" stop-color="#808080" stop-opacity="0.12"/>
<stop offset="1" stop-color="#808080" stop-opacity="0.1"/>
</linearGradient>
</defs>
</svg>
