<svg width="1600" height="900" viewBox="0 0 1600 900" fill="none" xmlns="http://www.w3.org/2000/svg">
<g clip-path="url(#clip0)">
<rect width="1600" height="900" fill="#2F2E41"/>
<circle cx="584.045" cy="477.89" r="299.138" fill="#414056" fill-opacity="0.75"/>
<rect x="199.999" y="296.935" width="587.496" height="587.496" rx="293.748" transform="rotate(-20 199.999 296.935)" fill="#6666FF"/>
<circle cx="1183" cy="180" r="157" fill="#6666FF" fill-opacity="0.5"/>
<circle cx="1188" cy="190" r="157" fill="#3C3B51"/>
<circle cx="1183" cy="180" r="157" fill="#5858CF"/>
<circle cx="1189" cy="896" r="236" fill="#403F55"/>
<circle opacity="0.8" cx="1201" cy="900" r="236" fill="#5555C6"/>
<circle cx="100" cy="96" r="223" fill="#3C3B51"/>
<circle cx="93" cy="86" r="223" fill="#5858CF"/>
<circle cx="1345" cy="488" r="93" fill="#403F55"/>
<circle cx="1340" cy="482" r="93" fill="#5B5BD9"/>
<circle cx="1028" cy="561" r="32" fill="#403F55"/>
<circle cx="1026" cy="557" r="32" fill="#5555C6"/>
<circle cx="750" cy="93" r="50" fill="#3C3B51"/>
<circle cx="744" cy="83" r="50" fill="#5352BC"/>
<circle cx="69" cy="879" r="108" fill="#3C3B51"/>
<circle cx="62" cy="879" r="108" fill="#6060EC"/>
<path d="M572.01 445.279C580.808 442.037 587.965 435.444 591.918 426.94C595.871 418.437 596.299 408.713 593.109 399.893L566.547 326.913C563.339 318.101 556.763 310.923 548.266 306.959C539.768 302.995 530.045 302.569 521.235 305.776C512.425 308.982 505.25 315.558 501.289 324.057C497.327 332.556 496.904 342.281 500.111 351.094L526.674 424.074C529.9 432.881 536.478 440.054 544.972 444.027C553.466 448 563.187 448.45 572.01 445.279ZM617.407 387.365C629.526 420.66 609.766 454.256 579.312 465.341C548.858 476.425 512.12 463.373 500.008 430.095L481.183 436.947C494.921 474.693 536.336 495.454 574.707 487.139L589.169 526.875L611.314 518.815L596.846 479.062C631.382 460.211 649.964 418.242 636.232 380.513L617.407 387.365Z" fill="#414056" fill-opacity="0.5"/>
<path d="M562.978 442.905C571.776 439.662 578.933 433.069 582.886 424.566C586.839 416.062 587.268 406.339 584.078 397.519L557.515 324.539C554.307 315.726 547.732 308.548 539.234 304.584C530.736 300.62 521.013 300.195 512.203 303.401C503.393 306.608 496.219 313.184 492.257 321.682C488.296 330.181 487.872 339.907 491.08 348.719L517.642 421.699C520.868 430.506 527.446 437.68 535.94 441.653C544.435 445.626 554.155 446.076 562.978 442.905ZM608.375 384.991C620.494 418.286 600.734 451.882 570.28 462.966C539.827 474.05 503.088 460.999 490.976 427.72L472.151 434.572C485.889 472.318 527.304 493.08 565.675 484.765L580.137 524.5L602.283 516.44L587.814 476.688C622.35 457.837 640.933 415.868 627.2 378.139L608.375 384.991Z" fill="white"/>
<path d="M480.366 674.34L461.962 661.405C461.475 661.646 460.724 661.951 459.709 662.32L446.347 667.184L452.626 684.437L441.632 688.438L420.085 629.238L444.442 620.372C449.572 618.505 454.334 617.729 458.727 618.046C463.177 618.342 466.991 619.699 470.17 622.118C473.349 624.537 475.729 627.917 477.309 632.258C478.93 636.712 479.226 640.946 478.197 644.96C477.224 648.954 474.995 652.479 471.51 655.535L492.206 670.031L480.366 674.34ZM466.23 636.29C464.855 632.513 462.558 630.061 459.338 628.934C456.119 627.807 452.113 628.116 447.32 629.86L434.465 634.539L443.053 658.135L455.908 653.456C460.701 651.711 463.968 649.373 465.71 646.44C467.431 643.451 467.605 640.068 466.23 636.29ZM536.806 628.513C537.073 629.246 537.396 630.309 537.776 631.704L502.34 644.601C504.171 647.702 506.742 649.767 510.054 650.796C513.402 651.749 517.021 651.517 520.911 650.101C525.873 648.295 529.365 645.172 531.389 640.733L539.425 645.182C538.278 648.345 536.38 651.112 533.73 653.481C531.081 655.85 527.811 657.742 523.92 659.158C518.959 660.964 514.23 661.568 509.734 660.969C505.238 660.371 501.311 658.703 497.953 655.967C494.63 653.154 492.158 649.52 490.537 645.066C488.937 640.668 488.487 636.362 489.188 632.148C489.925 627.858 491.71 624.079 494.544 620.813C497.378 617.547 501.022 615.103 505.476 613.482C509.874 611.881 514.151 611.442 518.309 612.163C522.502 612.808 526.204 614.557 529.414 617.412C532.659 620.189 535.123 623.889 536.806 628.513ZM508.554 621.939C505.171 623.17 502.665 625.232 501.036 628.123C499.442 630.938 498.997 634.101 499.701 637.612L525.326 628.285C523.685 625.18 521.339 623.032 518.289 621.844C515.238 620.656 511.993 620.687 508.554 621.939ZM576.023 640.194C571.343 641.898 566.784 642.44 562.344 641.821C557.905 641.202 554.006 639.524 550.647 636.788C547.268 633.995 544.768 630.372 543.147 625.917C541.526 621.463 541.122 617.109 541.936 612.854C542.75 608.599 544.63 604.818 547.577 601.511C550.58 598.183 554.449 595.657 559.185 593.933C563.639 592.312 567.858 591.798 571.841 592.392C575.881 592.965 579.362 594.635 582.285 597.402L575.889 605.093C573.833 603.479 571.634 602.524 569.291 602.227C566.984 601.853 564.675 602.087 562.363 602.929C558.417 604.365 555.619 606.852 553.969 610.39C552.299 613.871 552.244 617.754 553.803 622.039C555.363 626.324 557.883 629.302 561.364 630.972C564.881 632.565 568.642 632.633 572.645 631.176C574.956 630.335 576.886 629.058 578.433 627.345C580.017 625.555 581.077 623.382 581.615 620.824L591.458 622.605C590.941 626.624 589.33 630.179 586.624 633.271C583.954 636.286 580.421 638.594 576.023 640.194ZM624.08 622.703C619.513 624.365 615.039 624.876 610.655 624.237C606.272 623.597 602.402 621.91 599.043 619.173C595.721 616.36 593.249 612.726 591.628 608.272C590.006 603.818 589.575 599.474 590.332 595.239C591.146 590.984 593.026 587.203 595.973 583.896C598.919 580.589 602.676 578.104 607.243 576.442C611.866 574.759 616.369 574.237 620.752 574.877C625.135 575.516 628.978 577.215 632.28 579.971C635.638 582.708 638.128 586.303 639.749 590.757C641.37 595.211 641.784 599.594 640.991 603.905C640.234 608.14 638.382 611.911 635.435 615.218C632.489 618.525 628.704 621.02 624.08 622.703ZM620.787 613.654C624.677 612.238 627.419 609.771 629.012 606.254C630.605 602.737 630.632 598.864 629.093 594.636C627.554 590.407 625.044 587.458 621.563 585.788C618.082 584.118 614.396 583.99 610.506 585.406C606.615 586.822 603.874 589.289 602.28 592.806C600.744 596.302 600.745 600.165 602.284 604.394C603.823 608.622 606.305 611.582 609.73 613.272C613.211 614.942 616.896 615.07 620.787 613.654ZM654.105 567.431C655.426 561.586 659.92 557.269 667.588 554.478L671.251 564.542C670.287 564.701 669.439 564.914 668.706 565.181C664.59 566.679 661.817 569.061 660.388 572.327C658.938 575.536 659.034 579.396 660.676 583.907L668.649 605.811L658.077 609.659L641.64 564.497L651.704 560.834L654.105 567.431ZM714.156 518.182L736.996 580.934L726.848 584.628L724.724 578.793C723.756 581.571 722.17 583.968 719.966 585.984C717.819 587.978 715.195 589.54 712.094 590.669C707.752 592.249 703.485 592.716 699.292 592.072C695.155 591.407 691.463 589.685 688.218 586.908C684.951 584.074 682.487 580.374 680.825 575.807C679.163 571.24 678.682 566.85 679.383 562.636C680.084 558.422 681.806 554.73 684.547 551.562C687.345 548.372 690.915 545.988 695.256 544.408C698.244 543.32 701.164 542.832 704.014 542.944C706.864 543.056 709.532 543.809 712.019 545.202L703.585 522.029L714.156 518.182ZM710.069 581.158C712.606 580.234 714.684 578.839 716.303 576.973C717.902 575.05 718.904 572.802 719.308 570.229C719.712 567.655 719.401 564.959 718.375 562.14C717.349 559.321 715.854 557.055 713.89 555.344C711.927 553.632 709.725 552.582 707.284 552.193C704.824 551.748 702.325 551.987 699.788 552.91C697.25 553.834 695.182 555.257 693.584 557.18C691.964 559.046 690.953 561.266 690.548 563.84C690.144 566.413 690.455 569.109 691.481 571.928C692.507 574.747 694.002 577.013 695.966 578.724C697.93 580.436 700.142 581.514 702.603 581.959C705.043 582.348 707.532 582.081 710.069 581.158ZM785.155 538.121C785.422 538.854 785.745 539.918 786.125 541.312L750.689 554.21C752.52 557.31 755.091 559.375 758.403 560.405C761.751 561.357 765.369 561.126 769.26 559.71C774.221 557.904 777.714 554.781 779.737 550.341L787.774 554.791C786.627 557.954 784.728 560.72 782.079 563.089C779.429 565.458 776.159 567.351 772.269 568.767C767.307 570.572 762.579 571.176 758.083 570.578C753.587 569.979 749.66 568.312 746.302 565.576C742.979 562.762 740.507 559.129 738.886 554.674C737.285 550.277 736.835 545.971 737.536 541.757C738.273 537.466 740.059 533.688 742.893 530.421C745.726 527.155 749.37 524.712 753.824 523.09C758.222 521.49 762.5 521.05 766.657 521.772C770.851 522.416 774.552 524.166 777.762 527.02C781.008 529.798 783.472 533.498 785.155 538.121ZM756.903 531.548C753.52 532.779 751.014 534.84 749.384 537.732C747.791 540.547 747.346 543.71 748.049 547.221L773.675 537.894C772.033 534.788 769.688 532.641 766.637 531.452C763.587 530.264 760.342 530.296 756.903 531.548ZM799.463 514.524C800.784 508.68 805.279 504.363 812.946 501.572L816.609 511.636C815.646 511.795 814.798 512.008 814.065 512.275C809.949 513.773 807.176 516.155 805.747 519.421C804.297 522.63 804.393 526.49 806.035 531L814.007 552.905L803.436 556.752L786.998 511.591L797.062 507.928L799.463 514.524Z" fill="#414056" fill-opacity="0.5"/>
<path d="M475.686 671.404L457.282 658.469C456.795 658.71 456.044 659.015 455.029 659.385L441.667 664.248L447.946 681.501L436.952 685.503L415.405 626.302L439.761 617.437C444.892 615.569 449.654 614.794 454.047 615.11C458.497 615.406 462.311 616.764 465.49 619.182C468.669 621.601 471.049 624.981 472.629 629.322C474.25 633.776 474.546 638.01 473.517 642.025C472.544 646.018 470.315 649.543 466.83 652.599L487.526 667.095L475.686 671.404ZM461.55 633.355C460.175 629.577 457.878 627.125 454.658 625.998C451.438 624.871 447.432 625.18 442.64 626.924L429.785 631.603L438.373 655.199L451.228 650.52C456.021 648.776 459.288 646.437 461.03 643.505C462.751 640.516 462.925 637.132 461.55 633.355ZM532.126 625.577C532.393 626.31 532.716 627.374 533.096 628.768L497.66 641.665C499.491 644.766 502.062 646.831 505.374 647.861C508.722 648.813 512.341 648.581 516.231 647.165C521.193 645.36 524.685 642.237 526.709 637.797L534.745 642.247C533.598 645.41 531.699 648.176 529.05 650.545C526.4 652.914 523.13 654.806 519.24 656.222C514.279 658.028 509.55 658.632 505.054 658.034C500.558 657.435 496.631 655.768 493.273 653.031C489.95 650.218 487.478 646.584 485.857 642.13C484.256 637.733 483.807 633.427 484.508 629.213C485.245 624.922 487.03 621.143 489.864 617.877C492.698 614.611 496.341 612.167 500.796 610.546C505.193 608.946 509.471 608.506 513.629 609.228C517.822 609.872 521.524 611.622 524.733 614.476C527.979 617.253 530.443 620.954 532.126 625.577ZM503.874 619.003C500.491 620.235 497.985 622.296 496.356 625.188C494.762 628.003 494.317 631.166 495.02 634.677L520.646 625.35C519.005 622.244 516.659 620.097 513.608 618.908C510.558 617.72 507.313 617.752 503.874 619.003ZM571.343 637.259C566.663 638.962 562.103 639.504 557.664 638.885C553.225 638.266 549.326 636.589 545.967 633.852C542.588 631.059 540.088 627.436 538.467 622.982C536.846 618.528 536.442 614.173 537.256 609.918C538.07 605.663 539.95 601.882 542.897 598.575C545.899 595.247 549.769 592.721 554.505 590.998C558.959 589.376 563.178 588.863 567.161 589.456C571.201 590.029 574.682 591.699 577.604 594.466L571.209 602.157C569.153 600.543 566.954 599.588 564.611 599.291C562.304 598.918 559.995 599.152 557.683 599.993C553.737 601.43 550.938 603.917 549.289 607.454C547.619 610.935 547.564 614.818 549.123 619.103C550.683 623.388 553.203 626.366 556.684 628.036C560.201 629.629 563.961 629.697 567.964 628.24C570.276 627.399 572.206 626.122 573.753 624.409C575.337 622.62 576.397 620.446 576.935 617.888L586.777 619.669C586.261 623.688 584.65 627.243 581.944 630.335C579.274 633.35 575.74 635.658 571.343 637.259ZM619.4 619.767C614.833 621.429 610.358 621.941 605.975 621.301C601.592 620.662 597.722 618.974 594.363 616.238C591.041 613.424 588.569 609.791 586.947 605.336C585.326 600.882 584.894 596.538 585.652 592.304C586.466 588.049 588.346 584.268 591.292 580.96C594.239 577.653 597.996 575.168 602.563 573.506C607.186 571.823 611.689 571.302 616.072 571.941C620.455 572.581 624.298 574.279 627.6 577.036C630.958 579.772 633.448 583.367 635.069 587.822C636.69 592.276 637.104 596.658 636.311 600.97C635.554 605.204 633.702 608.975 630.755 612.282C627.808 615.589 624.024 618.084 619.4 619.767ZM616.107 610.718C619.997 609.302 622.739 606.835 624.332 603.318C625.925 599.801 625.952 595.929 624.413 591.7C622.874 587.471 620.364 584.522 616.883 582.852C613.402 581.182 609.716 581.055 605.825 582.471C601.935 583.887 599.193 586.353 597.6 589.87C596.063 593.367 596.064 597.229 597.604 601.458C599.143 605.686 601.625 608.646 605.049 610.337C608.531 612.007 612.216 612.134 616.107 610.718ZM649.425 564.495C650.745 558.651 655.24 554.333 662.908 551.542L666.571 561.606C665.607 561.766 664.759 561.979 664.026 562.245C659.91 563.743 657.137 566.125 655.708 569.391C654.258 572.601 654.354 576.46 655.996 580.971L663.968 602.875L653.397 606.723L636.959 561.561L647.024 557.898L649.425 564.495ZM709.476 515.246L732.316 577.999L722.167 581.693L720.043 575.857C719.075 578.636 717.49 581.033 715.286 583.048C713.139 585.043 710.515 586.604 707.414 587.733C703.072 589.313 698.805 589.781 694.611 589.136C690.474 588.471 686.783 586.75 683.537 583.972C680.271 581.138 677.807 577.438 676.145 572.871C674.483 568.304 674.002 563.914 674.703 559.7C675.404 555.486 677.125 551.795 679.867 548.626C682.665 545.437 686.235 543.052 690.576 541.472C693.564 540.384 696.483 539.896 699.334 540.008C702.184 540.12 704.852 540.873 707.339 542.267L698.904 519.094L709.476 515.246ZM705.389 578.222C707.926 577.298 710.004 575.904 711.623 574.037C713.222 572.114 714.224 569.866 714.628 567.293C715.032 564.719 714.721 562.023 713.695 559.204C712.669 556.385 711.174 554.12 709.21 552.408C707.246 550.697 705.044 549.646 702.604 549.257C700.144 548.812 697.645 549.051 695.107 549.975C692.57 550.898 690.502 552.321 688.903 554.244C687.284 556.111 686.272 558.33 685.868 560.904C685.464 563.477 685.775 566.174 686.801 568.993C687.827 571.812 689.322 574.077 691.286 575.789C693.25 577.5 695.462 578.579 697.923 579.024C700.363 579.413 702.851 579.145 705.389 578.222ZM780.475 535.186C780.741 535.919 781.065 536.982 781.444 538.376L746.009 551.274C747.84 554.375 750.411 556.44 753.723 557.469C757.07 558.422 760.689 558.19 764.58 556.774C769.541 554.968 773.034 551.845 775.057 547.405L783.094 551.855C781.947 555.018 780.048 557.784 777.399 560.153C774.749 562.522 771.479 564.415 767.589 565.831C762.627 567.637 757.899 568.241 753.403 567.642C748.907 567.044 744.98 565.376 741.621 562.64C738.299 559.827 735.827 556.193 734.206 551.739C732.605 547.341 732.155 543.035 732.856 538.821C733.593 534.53 735.379 530.752 738.212 527.486C741.046 524.22 744.69 521.776 749.144 520.155C753.542 518.554 757.82 518.115 761.977 518.836C766.171 519.481 769.872 521.23 773.082 524.085C776.328 526.862 778.792 530.562 780.475 535.186ZM752.222 528.612C748.84 529.843 746.333 531.905 744.704 534.796C743.111 537.611 742.666 540.774 743.369 544.285L768.995 534.958C767.353 531.852 765.007 529.705 761.957 528.517C758.907 527.328 755.662 527.36 752.222 528.612ZM794.783 511.589C796.104 505.744 800.598 501.427 808.266 498.636L811.929 508.7C810.966 508.859 810.117 509.072 809.384 509.339C805.269 510.837 802.496 513.219 801.067 516.485C799.617 519.694 799.713 523.554 801.355 528.065L809.327 549.969L798.756 553.817L782.318 508.655L792.382 504.992L794.783 511.589Z" fill="white"/>
</g>
<defs>
<clipPath id="clip0">
<rect width="1600" height="900" fill="white"/>
</clipPath>
</defs>
</svg>
