<svg xmlns="http://www.w3.org/2000/svg" viewBox="0 0 945.49 782.11"><defs><style>.cls-1{fill:#3f3d56;}.cls-2{fill:#d0cde1;}.cls-3{fill:#6c63ff;}.cls-4{fill:#ffb9b9;}.cls-5{fill:#2f2e41;}</style></defs><g id="Layer_2" data-name="Layer 2"><g id="Layer_1-2" data-name="Layer 1"><path class="cls-1" d="M830.49,519.34C927.83,627,645.67,782.11,417.67,782.11S31.94,661.91,4.85,519.34C-60.83,173.64,564.49-46.09,417.67,256.56,203.68,697.7,753.84,434.56,830.49,519.34Z"/><circle class="cls-2" cx="302.05" cy="176.03" r="8.29"/><circle class="cls-2" cx="189.64" cy="672.64" r="8.29"/><circle class="cls-2" cx="316.79" cy="297.65" r="3.69"/><circle class="cls-2" cx="123.3" cy="489.29" r="3.69"/><circle class="cls-2" cx="607.94" cy="627.49" r="3.69"/><circle class="cls-2" cx="111.33" cy="301.33" r="3.69"/><polygon class="cls-2" points="335.21 203.67 333.37 203.67 333.37 201.82 332.45 201.82 332.45 203.67 330.61 203.67 330.61 204.59 332.45 204.59 332.45 206.43 333.37 206.43 333.37 204.59 335.21 204.59 335.21 203.67"/><polygon class="cls-2" points="194.25 234.07 192.41 234.07 192.41 232.23 191.48 232.23 191.48 234.07 189.64 234.07 189.64 234.99 191.48 234.99 191.48 236.84 192.41 236.84 192.41 234.99 194.25 234.99 194.25 234.07"/><polygon class="cls-2" points="102.11 407.29 100.27 407.29 100.27 405.44 99.35 405.44 99.35 407.29 97.51 407.29 97.51 408.21 99.35 408.21 99.35 410.05 100.27 410.05 100.27 408.21 102.11 408.21 102.11 407.29"/><circle class="cls-2" cx="361.01" cy="706.73" r="3.69"/><circle class="cls-2" cx="349.04" cy="518.77" r="3.69"/><circle class="cls-2" cx="784.84" cy="586.95" r="3.69"/><polygon class="cls-2" points="339.82 624.73 337.98 624.73 337.98 622.88 337.06 622.88 337.06 624.73 335.21 624.73 335.21 625.65 337.06 625.65 337.06 627.49 337.98 627.49 337.98 625.65 339.82 625.65 339.82 624.73"/><polygon class="cls-2" points="518.56 690.14 516.72 690.14 516.72 688.3 515.8 688.3 515.8 690.14 513.96 690.14 513.96 691.06 515.8 691.06 515.8 692.91 516.72 692.91 516.72 691.06 518.56 691.06 518.56 690.14"/><polygon class="cls-2" points="67.1 526.14 65.26 526.14 65.26 524.3 64.34 524.3 64.34 526.14 62.49 526.14 62.49 527.06 64.34 527.06 64.34 528.91 65.26 528.91 65.26 527.06 67.1 527.06 67.1 526.14"/><polygon class="cls-2" points="323.24 393.47 321.39 393.47 321.39 391.62 320.47 391.62 320.47 393.47 318.63 393.47 318.63 394.39 320.47 394.39 320.47 396.23 321.39 396.23 321.39 394.39 323.24 394.39 323.24 393.47"/><polygon class="cls-2" points="209.91 284.75 208.07 284.75 208.07 282.9 207.15 282.9 207.15 284.75 205.3 284.75 205.3 285.67 207.15 285.67 207.15 287.51 208.07 287.51 208.07 285.67 209.91 285.67 209.91 284.75"/><polygon class="cls-2" points="285.46 466.25 283.62 466.25 283.62 464.41 282.7 464.41 282.7 466.25 280.86 466.25 280.86 467.18 282.7 467.18 282.7 469.02 283.62 469.02 283.62 467.18 285.46 467.18 285.46 466.25"/><polygon class="cls-2" points="174.9 580.5 173.06 580.5 173.06 578.66 172.13 578.66 172.13 580.5 170.29 580.5 170.29 581.42 172.13 581.42 172.13 583.27 173.06 583.27 173.06 581.42 174.9 581.42 174.9 580.5"/><ellipse class="cls-3" cx="212.67" cy="416.5" rx="54.36" ry="8.29"/><path class="cls-2" d="M218.2,419.26c-22.22,0-55.28-2.45-55.28-9.21s33.06-9.21,55.28-9.21,55.28,2.45,55.28,9.21S240.42,419.26,218.2,419.26Zm0-16.58a267.69,267.69,0,0,0-38.3,2.42c-12,1.83-15.14,4-15.14,4.95s3.17,3.13,15.14,4.95a267.69,267.69,0,0,0,38.3,2.42A267.49,267.49,0,0,0,256.5,415c12-1.82,15.14-4,15.14-4.95s-3.16-3.12-15.14-4.95A267.49,267.49,0,0,0,218.2,402.68Z"/><path class="cls-3" d="M218.2,275.53c-19.33,0-35,4.62-35,24s15.68,96.74,35,96.74,35-77.41,35-96.74S237.54,275.53,218.2,275.53Zm0,49.76a14.75,14.75,0,1,1,14.74-14.75,14.74,14.74,0,0,1-14.74,14.75Z"/><path class="cls-2" d="M872.58,486.36c-76.65-84.78-626.81,178.37-412.82-262.78C555.15,26.94,324.59,50.83,169.38,186.5,319.68,83.3,501.09,80.32,414.62,258.59c-214,441.15,336.16,178,412.82,262.78,35.67,39.44,20.37,85.26-24.54,127.49C880.09,598.27,918.42,537.05,872.58,486.36Z"/><path class="cls-2" d="M421.46,780.43l-1.18-.45c-.26-.1-26.19-10-38.33-32.55s-6.2-49.64-6.14-49.91l.28-1.23,1.19.44c.26.1,26.18,10,38.33,32.55s6.19,49.64,6.13,49.91Zm-37.57-34c10.27,19,30.76,28.8,35.95,31,1-5.56,4.08-28.06-6.18-47.08s-30.75-28.8-35.94-31c-1,5.57-4.08,28.06,6.17,47.08Z"/><path class="cls-3" d="M391.23,740.63c21.82,13.13,30.23,39.22,30.23,39.22s-27,4.79-48.8-8.34-30.23-39.21-30.23-39.21S369.41,727.5,391.23,740.63Z"/><path class="cls-4" d="M697.45,263.85s-50,49-29,55,45-45,45-45Z"/><polygon class="cls-4" points="747.46 428.87 741.46 456.87 786.47 458.88 779.47 428.87 747.46 428.87"/><polygon class="cls-4" points="889.48 601.89 883.48 629.9 928.49 631.9 921.49 601.89 889.48 601.89"/><path class="cls-5" d="M810.47,241.84l4,16s-111-22-105,34,32,110,32,110-2,18,2,21,0,13,0,13,37,5,38-4a63.2,63.2,0,0,0-1-18s2,0,0-10-10.08-90.66-16.09-101.67c0,0,53.09,40.66,81.1,35.66,0,0-4,40,12,93s16,59,16,59,19,101,14,113l-1,5h37s-3-53,0-60,3-67-14-97c-12-21.24-9.79-82.85-3.21-107.21,5.53-20.44,6.93-36.18,3.69-57.12-3.47-22.39-13.82-34.09-26.48-44.7Z"/><circle class="cls-4" cx="839.97" cy="55.31" r="36.01"/><path class="cls-4" d="M830.47,80.82s11,32,10,38,32-12,32-12-13-32-9-41Z"/><path class="cls-2" d="M870.48,95.82l-35,14,2,12s-3,4-2,6-13,10-11,13-12,15-11,18-32,21-14,56c0,0,9.33,12.13,8.16,26.48,0,.51-.09,1-.16,1.52-2,15,76-2,76-2v-17s7-3,6-16-7-7,0-14,7-6,6-12c-.4-2.39-.48-11-.43-20.5a91.06,91.06,0,0,0-18.57-55.51h0Z"/><path class="cls-2" d="M851.48,121.82l-65,68-95,75,21,17,175-117S902.48,100.82,851.48,121.82Z"/><path class="cls-5" d="M750.46,443.87s-7-12-12-8l-35,28s-62,18-2,32c0,0,33,5,40,0s18-4,21-2,41-1,41-9-21-43-21-43S770.46,455.87,750.46,443.87Z"/><path class="cls-5" d="M892.48,616.9s-7-12-12-8l-35,28s-62,18-2,32c0,0,33,5,40,0s18-4,21-2,41-1,41-9-21-43-21-43S912.49,628.9,892.48,616.9Z"/><path class="cls-5" d="M796.82,41S802.91-12.48,855,2.72c0,0,36.83-7.5,49.84,38.51L918,89.46l-6-3.14-2.68,6.15-9.64,2.64L895.36,87l-1.81,10-66.62,13.47S849.46,84.72,849.3,47l-6.64,7.29Z"/><ellipse class="cls-5" cx="556.34" cy="502.19" rx="97.66" ry="12.9"/><path class="cls-1" d="M609.4,346.22h-1.16V314.55a18.34,18.34,0,0,0-18.33-18.34h-67.1a18.33,18.33,0,0,0-18.33,18.33h0V488.3a18.32,18.32,0,0,0,18.33,18.33h67.1a18.32,18.32,0,0,0,18.33-18.33h0V368.76h1.16Z"/><path class="cls-3" d="M590.22,301.42h-8.76a6.51,6.51,0,0,1-3.57,8.48,6.65,6.65,0,0,1-2.46.48H537a6.51,6.51,0,0,1-6.5-6.51,6.44,6.44,0,0,1,.48-2.45h-8.18a13.69,13.69,0,0,0-13.69,13.69v173.5a13.69,13.69,0,0,0,13.69,13.69h67.43a13.69,13.69,0,0,0,13.69-13.69V315.11A13.69,13.69,0,0,0,590.22,301.42Z"/><circle class="cls-2" cx="541.6" cy="363.06" r="19.35"/><path class="cls-1" d="M591.89,391.14l-23.4-23.4a21.17,21.17,0,1,0-6.09,6.09l23.4,23.4Zm-51.77-24.36a15.08,15.08,0,1,1,21.32,0h0A15.07,15.07,0,0,1,540.12,366.78Z"/><rect class="cls-1" x="518.56" y="413.74" width="75.55" height="9.21"/></g></g></svg>