<svg width="1600" height="900" viewBox="0 0 1600 900" fill="none" xmlns="http://www.w3.org/2000/svg">
<rect width="1600" height="900" fill="#2F2E41"/>
<rect x="354.8" y="738.203" width="360" height="100" rx="5" transform="rotate(2.1517 354.8 738.203)" fill="#3C3B51"/>
<rect x="350.99" y="733.056" width="360" height="100" rx="5" transform="rotate(2.1517 350.99 733.056)" fill="#6666FF"/>
<circle cx="412.993" cy="787.422" r="30" transform="rotate(2.1517 412.993 787.422)" fill="#5453AB"/>
<circle cx="492.936" cy="790.426" r="30" transform="rotate(2.1517 492.936 790.426)" fill="#5453AB"/>
<circle cx="572.88" cy="793.429" r="30" transform="rotate(2.1517 572.88 793.429)" fill="#5453AB"/>
<circle cx="652.823" cy="796.433" r="30" transform="rotate(2.1517 652.823 796.433)" fill="#5453AB"/>
<circle cx="409.071" cy="785.273" r="30" transform="rotate(2.1517 409.071 785.273)" fill="#7C5C5C"/>
<circle cx="489.014" cy="788.277" r="30" transform="rotate(2.1517 489.014 788.277)" fill="#FF6688"/>
<circle cx="568.958" cy="791.281" r="30" transform="rotate(2.1517 568.958 791.281)" fill="#F9A922"/>
<circle cx="648.901" cy="794.284" r="30" transform="rotate(2.1517 648.901 794.284)" fill="#1DD1BB"/>
<rect x="739.636" y="736.856" width="522" height="99" rx="5" transform="rotate(-1.74075 739.636 736.856)" fill="#3C3B51"/>
<rect x="735.547" y="733.978" width="520.573" height="96" rx="5" transform="rotate(-1.74075 735.547 733.978)" fill="#6666FF"/>
<path d="M800.56 763.943L816.011 778.483L784.439 812.035L771.114 813.917C769.33 814.17 767.772 812.702 767.916 810.906L768.997 797.482L800.56 763.943V763.943ZM824.763 760.973L817.508 754.146C815.245 752.016 811.682 752.125 809.553 754.388L803.13 761.213L818.582 775.753L825.004 768.928C827.134 766.663 827.026 763.102 824.763 760.973V760.973Z" fill="#5453AB"/>
<path d="M856.419 784.487C855.872 784.688 855.38 785.013 854.981 785.437C854.582 785.861 854.287 786.372 854.12 786.93L847.845 807.851L848.411 808.384L858.961 797.173C858.875 796.875 858.759 796.589 858.75 796.265C858.687 794.195 860.314 792.465 862.384 792.402C864.454 792.34 866.183 793.967 866.246 796.037C866.309 798.106 864.682 799.836 862.612 799.899C862.287 799.909 861.995 799.811 861.693 799.743L851.143 810.954L851.708 811.485L872.209 803.952C872.756 803.752 873.248 803.426 873.647 803.002C874.046 802.578 874.341 802.067 874.508 801.509L878.082 791.544L866.148 780.314L856.419 784.487ZM889.489 753.63L868.751 777.649L880.561 788.762L903.276 766.603C912.955 757.508 897.913 743.495 889.489 753.63Z" fill="#5453AB"/>
<path d="M959.547 749.701C959.91 749.017 960.878 748.988 961.283 749.648L995.561 805.617C995.962 806.272 995.506 807.115 994.739 807.139L929.644 809.117C928.876 809.14 928.37 808.326 928.73 807.648L959.547 749.701Z" fill="#5453AB"/>
<rect x="1014.63" y="746.506" width="60" height="60" rx="2" transform="rotate(-1.74075 1014.63 746.506)" fill="#5453AB"/>
<circle cx="1125.49" cy="773.151" r="30" transform="rotate(-1.74075 1125.49 773.151)" fill="#5453AB"/>
<path d="M1191.6 798.528C1195.21 801.922 1200.88 801.75 1204.27 798.143L1207.65 794.551C1207.82 794.371 1207.82 794.087 1207.64 793.918L1182.17 769.952C1181.99 769.782 1181.7 769.79 1181.53 769.971L1178.15 773.563C1174.76 777.169 1174.93 782.844 1178.54 786.238L1191.6 798.528Z" fill="#5453AB"/>
<path d="M1211.4 792.534C1211.58 792.704 1211.86 792.696 1212.03 792.515L1233.85 769.332C1235.88 767.168 1235.78 763.763 1233.62 761.727L1212.72 742.063C1210.56 740.026 1207.15 740.13 1205.11 742.294L1183.3 765.477C1183.13 765.657 1183.14 765.941 1183.32 766.11L1211.4 792.534Z" fill="#5453AB"/>
<path d="M796.471 761.066L811.923 775.606L780.35 809.158L767.025 811.04C765.241 811.293 763.683 809.825 763.827 808.029L764.908 794.605L796.471 761.066V761.066ZM820.674 758.096L813.419 751.269C811.156 749.139 807.594 749.248 805.464 751.511L799.041 758.336L814.493 772.876L820.915 766.051C823.045 763.786 822.937 760.225 820.674 758.096V758.096Z" fill="white"/>
<path d="M852.33 781.61C851.783 781.811 851.291 782.136 850.892 782.56C850.493 782.984 850.198 783.495 850.031 784.053L843.757 804.974L844.323 805.507L854.872 794.296C854.786 793.998 854.671 793.712 854.661 793.388C854.598 791.318 856.225 789.588 858.295 789.525C860.365 789.462 862.094 791.09 862.157 793.16C862.22 795.229 860.593 796.959 858.523 797.022C858.198 797.032 857.906 796.934 857.604 796.866L847.054 808.077L847.619 808.608L868.12 801.075C868.667 800.874 869.159 800.549 869.558 800.125C869.957 799.701 870.252 799.19 870.419 798.632L873.993 788.667L862.059 777.437L852.33 781.61ZM885.4 750.753L864.662 774.772L876.472 785.885L899.187 763.726C908.866 754.631 893.824 740.618 885.4 750.753Z" fill="white"/>
<path d="M955.458 746.823C955.821 746.14 956.79 746.111 957.194 746.771L991.472 802.74C991.873 803.394 991.417 804.238 990.65 804.262L925.555 806.24C924.787 806.263 924.281 805.449 924.641 804.771L955.458 746.823Z" fill="white"/>
<rect x="1010.54" y="743.629" width="60" height="60" rx="2" transform="rotate(-1.74075 1010.54 743.629)" fill="white"/>
<circle cx="1121.4" cy="770.274" r="30" transform="rotate(-1.74075 1121.4 770.274)" fill="white"/>
<path d="M1187.51 795.651C1191.12 799.045 1196.79 798.873 1200.19 795.266L1203.57 791.674C1203.74 791.494 1203.73 791.21 1203.55 791.04L1178.08 767.074C1177.9 766.905 1177.61 766.913 1177.44 767.094L1174.06 770.685C1170.67 774.292 1170.84 779.967 1174.45 783.361L1187.51 795.651Z" fill="white"/>
<path d="M1207.31 789.657C1207.49 789.827 1207.77 789.818 1207.94 789.638L1229.76 766.455C1231.8 764.291 1231.69 760.886 1229.53 758.85L1208.63 739.186C1206.47 737.149 1203.06 737.253 1201.03 739.417L1179.21 762.6C1179.04 762.78 1179.05 763.064 1179.23 763.233L1207.31 789.657Z" fill="white"/>
<path d="M471.31 399.39L446.644 503.435L426.71 505.179L395.174 432.542L376.298 509.59L356.219 511.347L313.861 413.165L333.362 411.459L365.219 486.106L384.641 406.972L401.975 405.456L434.303 480.499L453.398 400.957L471.31 399.39ZM532.78 417.3C542.506 416.449 550.555 418.608 556.926 423.776C563.298 428.943 566.972 437.112 567.949 448.283L571.816 492.484L553.76 494.064L550.095 452.174C549.506 445.433 547.474 440.516 544.002 437.424C540.52 434.235 535.843 432.898 529.969 433.412C523.324 433.993 518.253 436.475 514.754 440.856C511.248 445.141 509.823 451.04 510.48 458.551L513.893 497.552L495.837 499.132L486.459 391.951L504.515 390.371L507.928 429.372C510.635 425.933 514.084 423.206 518.274 421.19C522.552 419.069 527.387 417.772 532.78 417.3ZM587.973 413.345L606.029 411.765L612.778 488.901L594.721 490.48L587.973 413.345ZM595.961 399.837C592.687 400.124 589.854 399.353 587.462 397.524C585.062 395.599 583.727 393.096 583.457 390.015C583.188 386.933 584.072 384.284 586.11 382.068C588.14 379.756 590.791 378.457 594.066 378.17C597.34 377.884 600.173 378.655 602.564 380.483C604.948 382.215 606.27 384.574 606.531 387.559C606.809 390.737 605.938 393.531 603.917 395.939C601.983 398.243 599.332 399.542 595.961 399.837ZM682.477 478.582C680.511 480.5 678.024 482.028 675.018 483.164C672.109 484.292 668.969 485.003 665.599 485.298C657.124 486.04 650.382 484.398 645.372 480.372C640.362 476.347 637.487 470.097 636.745 461.623L633.498 424.5L620.786 425.612L619.522 411.167L632.234 410.055L630.692 392.432L648.748 390.852L650.29 408.475L670.946 406.668L672.21 421.113L651.554 422.92L654.763 459.61C655.092 463.366 656.26 466.174 658.266 468.037C660.264 469.803 662.997 470.534 666.464 470.231C670.508 469.877 673.786 468.523 676.297 466.168L682.477 478.582ZM764.335 437.215C764.444 438.467 764.504 440.257 764.514 442.585L703.99 447.88C705.546 453.469 708.687 457.755 713.411 460.738C718.224 463.616 723.952 464.764 730.597 464.183C739.071 463.442 745.809 460.038 750.809 453.972L761.46 464.248C758.356 468.692 754.248 472.205 749.137 474.787C744.026 477.369 738.148 478.951 731.503 479.532C723.029 480.274 715.418 479.241 708.671 476.436C701.924 473.63 696.508 469.397 692.423 463.738C688.425 457.975 686.094 451.289 685.428 443.682C684.771 436.17 685.867 429.282 688.715 423.017C691.651 416.646 696.005 411.511 701.776 407.61C707.548 403.708 714.238 401.425 721.846 400.759C729.357 400.102 736.197 401.202 742.366 404.058C748.623 406.81 753.654 411.076 757.459 416.857C761.352 422.532 763.644 429.318 764.335 437.215ZM723.11 415.204C717.332 415.71 712.572 417.873 708.831 421.693C705.177 425.409 703.166 430.146 702.796 435.903L746.564 432.074C745.305 426.556 742.55 422.237 738.298 419.115C734.047 415.994 728.984 414.69 723.11 415.204ZM820.947 392.089C828.459 391.432 835.295 392.483 841.455 395.244C847.712 397.995 852.787 402.209 856.68 407.885C860.573 413.56 862.861 420.298 863.543 428.099C864.225 435.899 863.147 442.98 860.307 449.341C857.459 455.607 853.193 460.638 847.509 464.434C841.921 468.222 835.372 470.445 827.86 471.102C822.564 471.566 817.621 471.076 813.031 469.634C808.537 468.184 804.638 465.759 801.332 462.361L802.204 472.328L785.015 473.832L775.638 366.651L793.694 365.072L797.144 404.506C799.931 400.866 803.319 397.998 807.308 395.902C811.393 393.798 815.94 392.527 820.947 392.089ZM824.486 455.823C831.13 455.242 836.377 452.551 840.227 447.751C844.173 442.942 845.83 436.926 845.198 429.704C844.566 422.481 841.89 416.845 837.169 412.794C832.544 408.735 826.909 406.996 820.265 407.577C815.931 407.957 812.12 409.309 808.83 411.635C805.532 413.864 803.031 416.897 801.329 420.733C799.627 424.569 798.987 428.895 799.408 433.71C799.829 438.525 801.211 442.673 803.554 446.156C805.896 449.638 808.889 452.239 812.533 453.958C816.168 455.581 820.152 456.202 824.486 455.823ZM918.797 463.146C910.997 463.829 903.82 462.758 897.265 459.936C890.711 457.113 885.391 452.872 881.306 447.213C877.308 441.45 874.977 434.764 874.311 427.157C873.646 419.549 874.785 412.608 877.729 406.334C880.77 400.052 885.273 394.952 891.237 391.034C897.202 387.116 904.084 384.816 911.884 384.133C919.781 383.442 927.006 384.508 933.561 387.331C940.115 390.154 945.387 394.399 949.376 400.066C953.461 405.725 955.837 412.358 956.502 419.966C957.168 427.573 955.984 434.566 952.952 440.945C950.008 447.219 945.553 452.315 939.589 456.233C933.624 460.151 926.694 462.455 918.797 463.146ZM917.445 447.69C924.09 447.109 929.385 444.414 933.331 439.605C937.277 434.796 938.934 428.78 938.302 421.558C937.67 414.336 934.993 408.699 930.272 404.649C925.551 400.598 919.869 398.863 913.224 399.445C906.579 400.026 901.284 402.721 897.338 407.53C893.489 412.33 891.88 418.342 892.512 425.564C893.144 432.787 895.772 438.427 900.397 442.486C905.118 446.537 910.8 448.272 917.445 447.69ZM998.798 376.529C1010.16 375.535 1019.07 377.521 1025.52 382.488C1032.06 387.35 1035.81 395.27 1036.77 406.248L1040.72 451.46L1023.68 452.951L1022.86 443.562C1020.94 447.127 1017.99 450.005 1014.01 452.197C1010.11 454.284 1005.28 455.58 999.5 456.086C993.722 456.591 988.582 456.071 984.08 454.524C979.57 452.881 975.959 450.431 973.248 447.175C970.625 443.814 969.12 439.919 968.732 435.489C968.126 428.555 970.193 422.795 974.935 418.208C979.764 413.515 987.716 410.685 998.791 409.716L1018.72 407.972L1018.62 406.816C1018.15 401.424 1016.15 397.426 1012.63 394.824C1009.19 392.213 1004.3 391.185 997.946 391.741C993.612 392.12 989.386 393.169 985.267 394.888C981.244 396.599 977.893 398.784 975.215 401.444L966.987 388.919C970.762 385.483 975.419 382.699 980.957 380.564C986.495 378.43 992.442 377.085 998.798 376.529ZM1002.11 442.612C1006.63 442.216 1010.54 440.856 1013.83 438.53C1017.21 436.1 1019.45 432.895 1020.56 428.917L1019.77 419.961L1001.14 421.592C990.739 422.501 985.838 426.375 986.436 433.212C986.723 436.486 988.25 438.973 991.019 440.671C993.788 442.37 997.483 443.017 1002.11 442.612ZM1075.32 382.061C1079.82 373.517 1088.61 368.672 1101.71 367.526L1103.21 384.715C1101.64 384.561 1100.24 384.539 1098.98 384.648C1091.95 385.263 1086.65 387.814 1083.06 392.3C1079.47 396.69 1078 402.737 1078.68 410.441L1081.95 447.853L1063.9 449.433L1057.15 372.298L1074.34 370.794L1075.32 382.061ZM1189.31 330.459L1198.69 437.64L1181.36 439.157L1180.48 429.19C1177.82 433.11 1174.35 436.179 1170.08 438.396C1165.91 440.605 1161.17 441.941 1155.88 442.405C1148.46 443.053 1141.63 442.002 1135.37 439.25C1129.21 436.49 1124.18 432.272 1120.29 426.596C1116.39 420.824 1114.09 414.038 1113.41 406.238C1112.73 398.438 1113.81 391.405 1116.66 385.139C1119.51 378.874 1123.73 373.847 1129.31 370.059C1135 366.263 1141.55 364.04 1148.96 363.391C1154.07 362.945 1158.81 363.403 1163.2 364.766C1167.59 366.128 1171.43 368.412 1174.72 371.618L1171.26 332.039L1189.31 330.459ZM1156.69 426.759C1161.02 426.38 1164.84 425.076 1168.14 422.846C1171.43 420.521 1173.92 417.44 1175.63 413.604C1177.33 409.767 1177.97 405.442 1177.55 400.627C1177.13 395.812 1175.74 391.663 1173.4 388.181C1171.06 384.698 1168.07 382.146 1164.44 380.523C1160.79 378.804 1156.8 378.134 1152.47 378.513C1148.14 378.892 1144.32 380.245 1141.03 382.57C1137.74 384.8 1135.24 387.832 1133.53 391.669C1131.83 395.505 1131.19 399.831 1131.61 404.646C1132.03 409.46 1133.42 413.609 1135.76 417.092C1138.1 420.574 1141.09 423.175 1144.74 424.894C1148.37 426.516 1152.36 427.138 1156.69 426.759Z" fill="#3C3B51"/>
<path d="M463.31 392.39L438.644 496.435L418.71 498.179L387.174 425.542L368.298 502.59L348.219 504.347L305.861 406.165L325.362 404.459L357.219 479.106L376.641 399.972L393.975 398.456L426.303 473.499L445.398 393.957L463.31 392.39ZM524.78 410.3C534.506 409.449 542.555 411.608 548.926 416.776C555.298 421.943 558.972 430.112 559.949 441.283L563.816 485.484L545.76 487.064L542.095 445.174C541.506 438.433 539.474 433.516 536.002 430.424C532.52 427.235 527.843 425.898 521.969 426.412C515.324 426.993 510.253 429.475 506.754 433.856C503.248 438.141 501.823 444.04 502.48 451.551L505.893 490.552L487.837 492.132L478.459 384.951L496.515 383.371L499.928 422.372C502.635 418.933 506.084 416.206 510.274 414.19C514.552 412.069 519.387 410.772 524.78 410.3ZM579.973 406.345L598.029 404.765L604.778 481.901L586.721 483.48L579.973 406.345ZM587.961 392.837C584.687 393.124 581.854 392.353 579.462 390.524C577.062 388.599 575.727 386.096 575.457 383.015C575.188 379.933 576.072 377.284 578.11 375.068C580.14 372.756 582.791 371.457 586.066 371.17C589.34 370.884 592.173 371.655 594.564 373.483C596.948 375.215 598.27 377.574 598.531 380.559C598.809 383.737 597.938 386.531 595.917 388.939C593.983 391.243 591.332 392.542 587.961 392.837ZM674.477 471.582C672.511 473.5 670.024 475.028 667.018 476.164C664.109 477.292 660.969 478.003 657.599 478.298C649.124 479.04 642.382 477.398 637.372 473.372C632.362 469.347 629.487 463.097 628.745 454.623L625.498 417.5L612.786 418.612L611.522 404.167L624.234 403.055L622.692 385.432L640.748 383.852L642.29 401.475L662.946 399.668L664.21 414.113L643.554 415.92L646.763 452.61C647.092 456.366 648.26 459.174 650.266 461.037C652.264 462.803 654.997 463.534 658.464 463.231C662.508 462.877 665.786 461.523 668.297 459.168L674.477 471.582ZM756.335 430.215C756.444 431.467 756.504 433.257 756.514 435.585L695.99 440.88C697.546 446.469 700.687 450.755 705.411 453.738C710.224 456.616 715.952 457.764 722.597 457.183C731.071 456.442 737.809 453.038 742.809 446.972L753.46 457.248C750.356 461.692 746.248 465.205 741.137 467.787C736.026 470.369 730.148 471.951 723.503 472.532C715.029 473.274 707.418 472.241 700.671 469.436C693.924 466.63 688.508 462.397 684.423 456.738C680.425 450.975 678.094 444.289 677.428 436.682C676.771 429.17 677.867 422.282 680.715 416.017C683.651 409.646 688.005 404.511 693.776 400.61C699.548 396.708 706.238 394.425 713.846 393.759C721.357 393.102 728.197 394.202 734.366 397.058C740.623 399.81 745.654 404.076 749.459 409.857C753.352 415.532 755.644 422.318 756.335 430.215ZM715.11 408.204C709.332 408.71 704.572 410.873 700.831 414.693C697.177 418.409 695.166 423.146 694.796 428.903L738.564 425.074C737.305 419.556 734.55 415.237 730.298 412.115C726.047 408.994 720.984 407.69 715.11 408.204ZM812.947 385.089C820.459 384.432 827.295 385.483 833.455 388.244C839.712 390.995 844.787 395.209 848.68 400.885C852.573 406.56 854.861 413.298 855.543 421.099C856.225 428.899 855.147 435.98 852.307 442.341C849.459 448.607 845.193 453.638 839.509 457.434C833.921 461.222 827.372 463.445 819.86 464.102C814.564 464.566 809.621 464.076 805.031 462.634C800.537 461.184 796.638 458.759 793.332 455.361L794.204 465.328L777.015 466.832L767.638 359.651L785.694 358.072L789.144 397.506C791.931 393.866 795.319 390.998 799.308 388.902C803.393 386.798 807.94 385.527 812.947 385.089ZM816.486 448.823C823.13 448.242 828.377 445.551 832.227 440.751C836.173 435.942 837.83 429.926 837.198 422.704C836.566 415.481 833.89 409.845 829.169 405.794C824.544 401.735 818.909 399.996 812.265 400.577C807.931 400.957 804.12 402.309 800.83 404.635C797.532 406.864 795.031 409.897 793.329 413.733C791.627 417.569 790.987 421.895 791.408 426.71C791.829 431.525 793.211 435.673 795.554 439.156C797.896 442.638 800.889 445.239 804.533 446.958C808.168 448.581 812.152 449.202 816.486 448.823ZM910.797 456.146C902.997 456.829 895.82 455.758 889.265 452.936C882.711 450.113 877.391 445.872 873.306 440.213C869.308 434.45 866.977 427.764 866.311 420.157C865.646 412.549 866.785 405.608 869.729 399.334C872.77 393.052 877.273 387.952 883.237 384.034C889.202 380.116 896.084 377.816 903.884 377.133C911.781 376.442 919.006 377.508 925.561 380.331C932.115 383.154 937.387 387.399 941.376 393.066C945.461 398.725 947.837 405.358 948.502 412.966C949.168 420.573 947.984 427.566 944.952 433.945C942.008 440.219 937.553 445.315 931.589 449.233C925.624 453.151 918.694 455.455 910.797 456.146ZM909.445 440.69C916.09 440.109 921.385 437.414 925.331 432.605C929.277 427.796 930.934 421.78 930.302 414.558C929.67 407.336 926.993 401.699 922.272 397.649C917.551 393.598 911.869 391.863 905.224 392.445C898.579 393.026 893.284 395.721 889.338 400.53C885.489 405.33 883.88 411.342 884.512 418.564C885.144 425.787 887.772 431.427 892.397 435.486C897.118 439.537 902.8 441.272 909.445 440.69ZM990.798 369.529C1002.16 368.535 1011.07 370.521 1017.52 375.488C1024.06 380.35 1027.81 388.27 1028.77 399.248L1032.72 444.46L1015.68 445.951L1014.86 436.562C1012.94 440.127 1009.99 443.005 1006.01 445.197C1002.11 447.284 997.278 448.58 991.5 449.086C985.722 449.591 980.582 449.071 976.08 447.524C971.57 445.881 967.959 443.431 965.248 440.175C962.625 436.814 961.12 432.919 960.732 428.489C960.126 421.555 962.193 415.795 966.935 411.208C971.764 406.515 979.716 403.685 990.791 402.716L1010.72 400.972L1010.62 399.816C1010.15 394.424 1008.15 390.426 1004.63 387.824C1001.19 385.213 996.302 384.185 989.946 384.741C985.612 385.12 981.386 386.169 977.267 387.888C973.244 389.599 969.893 391.784 967.215 394.444L958.987 381.919C962.762 378.483 967.419 375.699 972.957 373.564C978.495 371.43 984.442 370.085 990.798 369.529ZM994.105 435.612C998.631 435.216 1002.54 433.856 1005.83 431.53C1009.21 429.1 1011.45 425.895 1012.56 421.917L1011.77 412.961L993.14 414.592C982.739 415.501 977.838 419.375 978.436 426.212C978.723 429.486 980.25 431.973 983.019 433.671C985.788 435.37 989.483 436.017 994.105 435.612ZM1067.32 375.061C1071.82 366.517 1080.61 361.672 1093.71 360.526L1095.21 377.715C1093.64 377.561 1092.24 377.539 1090.98 377.648C1083.95 378.263 1078.65 380.814 1075.06 385.3C1071.47 389.69 1070 395.737 1070.68 403.441L1073.95 440.853L1055.9 442.433L1049.15 365.298L1066.34 363.794L1067.32 375.061ZM1181.31 323.459L1190.69 430.64L1173.36 432.157L1172.48 422.19C1169.82 426.11 1166.35 429.179 1162.08 431.396C1157.91 433.605 1153.17 434.941 1147.88 435.405C1140.46 436.053 1133.63 435.002 1127.37 432.25C1121.21 429.49 1116.18 425.272 1112.29 419.596C1108.39 413.824 1106.09 407.038 1105.41 399.238C1104.73 391.438 1105.81 384.405 1108.66 378.139C1111.51 371.874 1115.73 366.847 1121.31 363.059C1127 359.263 1133.55 357.04 1140.96 356.391C1146.07 355.945 1150.81 356.403 1155.2 357.766C1159.59 359.128 1163.43 361.412 1166.72 364.618L1163.26 325.039L1181.31 323.459ZM1148.69 419.759C1153.02 419.38 1156.84 418.076 1160.14 415.846C1163.43 413.521 1165.92 410.44 1167.63 406.604C1169.33 402.767 1169.97 398.442 1169.55 393.627C1169.13 388.812 1167.74 384.663 1165.4 381.181C1163.06 377.698 1160.07 375.146 1156.44 373.523C1152.79 371.804 1148.8 371.134 1144.47 371.513C1140.14 371.892 1136.32 373.245 1133.03 375.57C1129.74 377.8 1127.24 380.832 1125.53 384.669C1123.83 388.505 1123.19 392.831 1123.61 397.646C1124.03 402.46 1125.42 406.609 1127.76 410.092C1130.1 413.574 1133.09 416.175 1136.74 417.894C1140.37 419.516 1144.36 420.138 1148.69 419.759Z" fill="white"/>
<path d="M1248.38 373.959L1351.64 174L1379.5 190.39L1261.49 382.154L1248.38 373.959Z" fill="#3C3B51"/>
<path d="M1188.56 417.392C1188.56 417.392 1207.59 432.346 1209.75 400.351C1210.02 395.27 1211.35 390.302 1213.65 385.762C1215.95 381.222 1219.17 377.21 1223.1 373.98C1231.72 367.095 1244.12 362.386 1259.03 371.5C1272.31 379.613 1275.3 391.377 1274.57 401.863C1273.91 409.375 1271.45 416.618 1267.39 422.97C1263.33 429.322 1257.78 434.595 1251.24 438.338C1236.44 447.12 1213.09 453.731 1188.56 432.143C1188.56 432.143 1173.8 415.753 1188.56 417.392Z" fill="#3C3B51"/>
<path d="M1243.38 369.959L1346.64 170L1374.5 186.39L1256.49 378.154L1243.38 369.959Z" fill="#848499"/>
<path d="M1183.56 413.392C1183.56 413.392 1202.59 428.346 1204.75 396.351C1205.02 391.27 1206.35 386.302 1208.65 381.762C1210.95 377.222 1214.17 373.21 1218.1 369.98C1226.72 363.095 1239.12 358.386 1254.03 367.5C1267.31 375.613 1270.3 387.377 1269.57 397.863C1268.91 405.375 1266.45 412.618 1262.39 418.97C1258.33 425.322 1252.78 430.595 1246.24 434.338C1231.44 443.12 1208.09 449.731 1183.56 428.143C1183.56 428.143 1168.8 411.753 1183.56 413.392Z" fill="#6C63FF"/>
</svg>
